<?xml version="1.0" encoding="utf-8"?>
<!-- Generator: Adobe Illustrator 26.4.0, SVG Export Plug-In . SVG Version: 6.00 Build 0)  -->
<svg version="1.1" id="Layer_1" xmlns="http://www.w3.org/2000/svg" xmlns:xlink="http://www.w3.org/1999/xlink" x="0px" y="0px"
	 viewBox="0 0 400 216.7" style="enable-background:new 0 0 400 216.7;" xml:space="preserve">
<style type="text/css">
	.st0{fill:#0069AA;}
	.st1{clip-path:url(#SVGID_00000098926599411893091310000005844211012583476133_);fill:#076AAA;}
	.st2{fill:none;stroke:#FFFFFF;}
	.st3{fill:#076AAA;}
	.st4{filter:url(#Adobe_OpacityMaskFilter);}
	.st5{fill:url(#SVGID_00000145771547976257174280000000805415361798310797_);}
	.st6{mask:url(#SVGID_00000000931655369883823370000011613910032384138154_);}
	.st7{clip-path:url(#SVGID_00000017500422091362045470000004698281275791591837_);fill:#939598;}
	.st8{fill:#4E4E50;}
	.st9{filter:url(#Adobe_OpacityMaskFilter_00000062160391318580452610000001486264023898285199_);}
	.st10{fill:url(#SVGID_00000016036522998275780350000005341324339206405813_);}
	.st11{mask:url(#SVGID_00000105426479800749256390000010823109706811595199_);}
	.st12{clip-path:url(#SVGID_00000134971322515628079620000014456154575545077434_);fill:#939598;}
	.st13{filter:url(#Adobe_OpacityMaskFilter_00000025413500665853492010000006640060285130422161_);}
	.st14{fill:url(#SVGID_00000077297290765566345850000008106397969855995026_);}
	.st15{mask:url(#SVGID_00000025422974573537972990000009136126191272094361_);}
	.st16{clip-path:url(#SVGID_00000057834000630250967670000004887446204358491573_);fill:#939598;}
	.st17{filter:url(#Adobe_OpacityMaskFilter_00000049918277338595565650000006510476804408316852_);}
	.st18{fill:url(#SVGID_00000029034763286086501080000003394718301551456158_);}
	.st19{mask:url(#SVGID_00000170970233216883032940000018350182012164411780_);}
	.st20{clip-path:url(#SVGID_00000098196863518442579330000013817480956668548764_);fill:#939598;}
</style>
<path class="st0" d="M0.1,216.6v-1.2c3.9-3,5.8-4.6,5.8-6.4c0-1.2-1-1.8-2.1-1.8c-1.3,0-2.2,0.5-2.9,1.3l-0.9-1
	c0.9-1.1,2.3-1.7,3.8-1.7c1.9,0,3.7,1.1,3.7,3.2c0,2.1-2,3.9-4.9,6.2h4.9v1.4H0.1z M13.6,205.8c2.9,0,4.1,2.8,4.1,5.4
	c0,2.6-1.2,5.4-4.1,5.4s-4.1-2.8-4.1-5.4C9.4,208.7,10.7,205.8,13.6,205.8z M13.6,207.3c-1.9,0-2.5,2-2.5,4c0,2.1,0.6,4,2.5,4
	c1.8,0,2.5-2,2.5-4C16.1,209.3,15.4,207.3,13.6,207.3z M19.3,216.6v-1.2c3.9-3,5.8-4.6,5.8-6.4c0-1.2-1-1.8-2.1-1.8
	c-1.3,0-2.2,0.5-2.9,1.3l-0.9-1c0.9-1.1,2.3-1.7,3.8-1.7c1.9,0,3.7,1.1,3.7,3.2c0,2.1-2,3.9-4.9,6.2h4.9v1.4H19.3z M32.2,216.6v-8.6
	l-1.9,2l-0.9-1l3.1-3.1h1.4v10.6h-1.7V216.6z M37.1,213.4v-1.2h3.8v1.2H37.1z M42.2,216.6v-1.2c3.9-3,5.8-4.6,5.8-6.4
	c0-1.2-1-1.8-2.1-1.8c-1.3,0-2.2,0.5-2.9,1.3l-0.9-1c0.9-1.1,2.3-1.7,3.8-1.7c1.9,0,3.7,1.1,3.7,3.2c0,2.1-2,3.9-4.9,6.2h4.9v1.4
	H42.2z M51.7,216.6v-1.2c3.9-3,5.8-4.6,5.8-6.4c0-1.2-1-1.8-2.1-1.8c-1.3,0-2.2,0.5-2.9,1.3l-0.9-1c0.9-1.1,2.3-1.7,3.8-1.7
	c1.9,0,3.7,1.1,3.7,3.2c0,2.1-2,3.9-4.9,6.2h4.9v1.4H51.7z"/>
<path d="M86.9,216.5v-0.8c3.6-2.9,6.1-4.9,6.1-7.1c0-1.5-1.2-2.1-2.4-2.1c-1.3,0-2.3,0.6-2.9,1.4l-0.6-0.6c0.7-1,2-1.6,3.5-1.6
	c1.5,0,3.3,0.9,3.3,3c0,2.3-2.4,4.4-5.5,7h5.5v0.8L86.9,216.5L86.9,216.5z M100.1,205.7c2.8,0,3.9,2.9,3.9,5.4
	c0,2.5-1.1,5.4-3.9,5.4c-2.8,0-3.9-3-3.9-5.4C96.1,208.7,97.1,205.7,100.1,205.7z M100.1,206.6c-2.2,0-2.9,2.4-2.9,4.6
	c0,2.2,0.7,4.6,2.9,4.6c2.2,0,2.9-2.5,2.9-4.6C103,209,102.3,206.6,100.1,206.6z M105.7,216.5v-0.8c3.6-2.9,6.1-4.9,6.1-7.1
	c0-1.5-1.2-2.1-2.4-2.1c-1.3,0-2.3,0.6-2.9,1.4l-0.6-0.6c0.7-1,2-1.6,3.5-1.6c1.5,0,3.3,0.9,3.3,3c0,2.3-2.4,4.4-5.5,7h5.5v0.8
	L105.7,216.5L105.7,216.5z M118.8,205.7c2.8,0,3.9,2.9,3.9,5.4c0,2.5-1.1,5.4-3.9,5.4c-2.8,0-3.9-3-3.9-5.4
	C114.9,208.7,115.9,205.7,118.8,205.7z M118.8,206.6c-2.2,0-2.9,2.4-2.9,4.6c0,2.2,0.7,4.6,2.9,4.6c2.2,0,2.9-2.5,2.9-4.6
	C121.7,209,121,206.6,118.8,206.6z M124.7,213v-0.8h3.8v0.8H124.7z M129.7,216.5v-0.8c3.6-2.9,6.1-4.9,6.1-7.1
	c0-1.5-1.2-2.1-2.4-2.1c-1.3,0-2.3,0.6-2.9,1.4l-0.6-0.6c0.7-1,2-1.6,3.5-1.6c1.5,0,3.3,0.9,3.3,3c0,2.3-2.4,4.4-5.5,7h5.5v0.8
	L129.7,216.5L129.7,216.5z M142.6,216.5v-9.4l-2.5,2.7l-0.6-0.6l3.1-3.3h0.8v10.6L142.6,216.5L142.6,216.5z"/>
<path d="M171.6,216.4v-0.7c3.6-2.9,6.1-4.9,6.1-7.1c0-1.5-1.2-2.1-2.4-2.1c-1.3,0-2.3,0.6-2.9,1.4l-0.6-0.6c0.7-1,2-1.6,3.5-1.6
	c1.5,0,3.3,0.9,3.3,3c0,2.3-2.4,4.4-5.5,7h5.5v0.8h-7V216.4z M184.6,205.6c2.8,0,3.9,2.9,3.9,5.4c0,2.5-1.1,5.4-3.9,5.4
	c-2.8,0-3.9-3-3.9-5.4C180.6,208.6,181.7,205.6,184.6,205.6z M184.6,206.5c-2.2,0-2.9,2.4-2.9,4.6c0,2.2,0.7,4.6,2.9,4.6
	s2.9-2.5,2.9-4.6C187.6,209,186.8,206.5,184.6,206.5z M194.2,216.4v-9.4l-2.5,2.7l-0.6-0.6l3.1-3.3h0.8v10.6L194.2,216.4
	L194.2,216.4z M199.7,214.6c0.5,0.7,1.2,1.2,2.3,1.2c2.3,0,3.1-2.4,3.1-4.6c0-0.2,0-0.3,0-0.5c-0.4,0.7-1.7,1.8-3.1,1.8
	c-1.9,0-3.4-1.1-3.4-3.3c0-1.7,1.3-3.4,3.5-3.4c2.8,0,3.9,2.6,3.9,5.4c0,2.7-1.1,5.4-4,5.4c-1.4,0-2.2-0.6-2.8-1.3L199.7,214.6z
	 M202.2,206.5c-1.8,0-2.7,1.4-2.7,2.5c0,1.7,1.1,2.5,2.6,2.5c1.2,0,2.3-0.7,2.9-1.8C204.9,208.4,204.1,206.5,202.2,206.5z
	 M208.3,213v-0.8h3.8v0.8H208.3z M213.2,216.4v-0.7c3.6-2.9,6.1-4.9,6.1-7.1c0-1.5-1.2-2.1-2.4-2.1c-1.3,0-2.3,0.6-2.9,1.4l-0.6-0.6
	c0.7-1,2-1.6,3.5-1.6s3.3,0.9,3.3,3c0,2.3-2.4,4.4-5.5,7h5.5v0.8h-7V216.4z M226.3,205.6c2.8,0,3.9,2.9,3.9,5.4
	c0,2.5-1.1,5.4-3.9,5.4s-3.9-3-3.9-5.4C222.4,208.6,223.5,205.6,226.3,205.6z M226.3,206.5c-2.2,0-2.9,2.4-2.9,4.6
	c0,2.2,0.7,4.6,2.9,4.6s2.9-2.5,2.9-4.6S228.5,206.5,226.3,206.5z"/>
<path d="M258,216.3v-0.7c3.6-2.9,6.1-4.9,6.1-7.1c0-1.5-1.2-2.1-2.4-2.1c-1.3,0-2.3,0.6-2.9,1.4l-0.6-0.6c0.7-1,2-1.6,3.5-1.6
	c1.5,0,3.3,0.9,3.3,3c0,2.3-2.4,4.4-5.5,7h5.5v0.8h-7V216.3z M271,205.5c2.8,0,3.9,2.9,3.9,5.4c0,2.5-1.1,5.4-3.9,5.4
	s-3.9-3-3.9-5.4S268.2,205.5,271,205.5z M271,206.5c-2.2,0-2.9,2.4-2.9,4.6c0,2.2,0.7,4.6,2.9,4.6c2.2,0,2.9-2.5,2.9-4.6
	C274,208.9,273.2,206.5,271,206.5z M280.6,216.3V207l-2.5,2.7l-0.6-0.6l3.1-3.3h0.8v10.6L280.6,216.3L280.6,216.3z M287.8,210.9
	c-1.2-0.3-2.4-1.1-2.4-2.5c0-1.9,1.7-2.7,3.4-2.7c1.6,0,3.4,0.9,3.4,2.7c0,1.4-1.2,2.2-2.4,2.5c1.3,0.4,2.6,1.3,2.6,2.8
	c0,1.7-1.5,2.8-3.6,2.8c-2,0-3.6-1.1-3.6-2.8C285.2,212.2,286.5,211.3,287.8,210.9z M288.9,211.3c-0.6,0.1-2.7,0.7-2.7,2.3
	c0,1.3,1.3,2.1,2.7,2.1s2.7-0.8,2.7-2.1C291.5,212,289.5,211.4,288.9,211.3z M288.9,206.5c-1.4,0-2.5,0.7-2.5,2
	c0,1.5,1.9,1.9,2.5,2.1c0.6-0.1,2.5-0.6,2.5-2.1C291.4,207.2,290.2,206.5,288.9,206.5z M294.5,212.9v-0.8h3.8v0.8H294.5z
	 M303.1,216.3V207l-2.5,2.7l-0.6-0.6l3.1-3.3h0.8v10.6L303.1,216.3L303.1,216.3z M308.6,214.5c0.5,0.7,1.2,1.2,2.3,1.2
	c2.3,0,3.1-2.4,3.1-4.6c0-0.2,0-0.3,0-0.5c-0.4,0.7-1.7,1.8-3.1,1.8c-1.9,0-3.4-1.1-3.4-3.3c0-1.7,1.3-3.4,3.5-3.4
	c2.8,0,3.9,2.6,3.9,5.4c0,2.7-1.1,5.4-4,5.4c-1.4,0-2.2-0.6-2.8-1.3L308.6,214.5z M311.1,206.4c-1.8,0-2.7,1.4-2.7,2.5
	c0,1.7,1.1,2.5,2.6,2.5c1.2,0,2.3-0.7,2.9-1.8C313.9,208.3,313.2,206.4,311.1,206.4z"/>
<path d="M344.2,216.5v-0.8c3.6-2.9,6.1-4.9,6.1-7.1c0-1.5-1.2-2.1-2.4-2.1c-1.3,0-2.3,0.6-2.9,1.4l-0.6-0.6c0.7-1,2-1.6,3.5-1.6
	c1.5,0,3.3,0.9,3.3,3c0,2.3-2.4,4.4-5.5,7h5.5v0.8L344.2,216.5L344.2,216.5z M357.3,205.7c2.8,0,3.9,2.9,3.9,5.4
	c0,2.5-1.1,5.4-3.9,5.4c-2.8,0-3.9-3-3.9-5.4C353.4,208.7,354.5,205.7,357.3,205.7z M357.3,206.6c-2.2,0-2.9,2.4-2.9,4.6
	c0,2.2,0.7,4.6,2.9,4.6s2.9-2.5,2.9-4.6C360.3,209,359.6,206.6,357.3,206.6z M366.8,216.5v-9.4l-2.5,2.7l-0.6-0.6l3.1-3.3h0.8v10.6
	L366.8,216.5L366.8,216.5z M372.9,216.5l4.4-9.8h-5.8V206h7v0.6l-4.5,10H372.9z M379.5,213v-0.8h3.8v0.8H379.5z M388.1,216.5v-9.4
	l-2.5,2.7l-0.6-0.6l3.1-3.3h0.8v10.6L388.1,216.5L388.1,216.5z M395.4,211.1c-1.2-0.3-2.4-1.1-2.4-2.5c0-1.9,1.7-2.7,3.4-2.7
	c1.6,0,3.4,0.9,3.4,2.7c0,1.4-1.2,2.2-2.4,2.5c1.3,0.4,2.6,1.3,2.6,2.8c0,1.7-1.5,2.8-3.6,2.8c-2,0-3.6-1.1-3.6-2.8
	C392.7,212.4,394,211.4,395.4,211.1z M396.4,211.5c-0.6,0.1-2.7,0.7-2.7,2.3c0,1.3,1.3,2.1,2.7,2.1c1.4,0,2.7-0.8,2.7-2.1
	C399,212.2,397,211.5,396.4,211.5z M396.4,206.6c-1.4,0-2.5,0.7-2.5,2c0,1.5,1.9,1.9,2.5,2.1c0.6-0.1,2.5-0.6,2.5-2.1
	C398.9,207.3,397.7,206.6,396.4,206.6z"/>
<g>
	<g>
		<g>
			<g>
				<defs>
					<rect id="SVGID_1_" x="8.7" y="41.7" width="28.9" height="166.3"/>
				</defs>
				<clipPath id="SVGID_00000142896012567901702900000014561993946975407542_">
					<use xlink:href="#SVGID_1_"  style="overflow:visible;"/>
				</clipPath>
				
					<rect x="23.5" y="51.4" style="clip-path:url(#SVGID_00000142896012567901702900000014561993946975407542_);fill:#076AAA;" width="12" height="146.7"/>
			</g>
		</g>
	</g>
	<line class="st2" x1="29.5" y1="198.2" x2="29.5" y2="25.4"/>
	<path class="st3" d="M4.6,11.5V3.3L2.7,5.2L1.3,3.8l3.5-3.5H7v11.3H4.6V11.5z M11.6,11.5l4-9.2H10V0.2h8.5v1.7l-4.2,9.6H11.6z
		 M19.9,13.8L19,13c0.5-0.3,1.2-1,1.3-1.6c-0.1,0-0.2,0.1-0.3,0.1c-0.6,0-1.1-0.5-1.1-1.2c0-0.7,0.6-1.3,1.3-1.3
		c0.8,0,1.5,0.6,1.5,1.7C21.6,12,20.9,13.1,19.9,13.8z M23.5,10.6l1.1-1.8c0.6,0.6,1.2,0.9,2.2,0.9c1.8,0,2.8-1.6,2.8-3.2
		c0-0.1,0-0.2,0-0.3c-0.5,0.8-1.7,1.4-2.9,1.4c-2,0-3.8-1.3-3.8-3.6c0-2.2,1.7-3.8,4.3-3.8c3.4,0,4.8,2.6,4.8,5.8
		c0,3.4-1.9,5.8-5.2,5.8C25.5,11.7,24.3,11.3,23.5,10.6z M29.7,4.4c-0.1-1.1-0.7-2.3-2.3-2.3c-1.3,0-2,0.9-2,1.6
		c0,1.2,1,1.7,2.1,1.7C28.3,5.5,29.1,5.1,29.7,4.4z M33.7,6c0-3.4,1.9-5.8,5.2-5.8c1.4,0,2.5,0.5,3.3,1.2l-1.1,1.8
		c-0.6-0.6-1.2-0.9-2.2-0.9c-1.6,0-2.8,1.4-2.8,3.2c0,0.1,0,0.2,0,0.2c0.5-0.8,1.6-1.4,2.9-1.4c2,0,3.8,1.3,3.8,3.6
		c0,2.2-1.7,3.8-4.3,3.8C35.1,11.7,33.7,9.1,33.7,6z M40.4,8c0-1.2-1-1.7-2.1-1.7c-0.8,0-1.7,0.4-2.2,1.1c0.1,1.1,0.7,2.3,2.3,2.3
		C39.7,9.6,40.4,8.8,40.4,8z M44.4,6c0-3.4,1.9-5.8,5.2-5.8c1.4,0,2.5,0.5,3.3,1.2l-1.1,1.8c-0.6-0.6-1.2-0.9-2.2-0.9
		c-1.6,0-2.8,1.4-2.8,3.2c0,0.1,0,0.2,0,0.2c0.5-0.8,1.6-1.4,2.9-1.4c2,0,3.8,1.3,3.8,3.6c0,2.2-1.7,3.8-4.3,3.8
		C45.8,11.7,44.4,9.1,44.4,6z M51.1,8c0-1.2-1-1.7-2.1-1.7c-0.8,0-1.7,0.4-2.2,1.1c0.1,1.1,0.7,2.3,2.3,2.3
		C50.4,9.6,51.1,8.8,51.1,8z"/>
</g>
<g>
	<defs>
		<filter id="Adobe_OpacityMaskFilter" filterUnits="userSpaceOnUse" x="94.6" y="64.8" width="28.9" height="145.5">
			<feColorMatrix  type="matrix" values="1 0 0 0 0  0 1 0 0 0  0 0 1 0 0  0 0 0 1 0"/>
		</filter>
	</defs>
	
		<mask maskUnits="userSpaceOnUse" x="94.6" y="64.8" width="28.9" height="145.5" id="SVGID_00000000931655369883823370000011613910032384138154_">
		<g class="st4">
			
				<linearGradient id="SVGID_00000157278557135511301030000006644789663372462506_" gradientUnits="userSpaceOnUse" x1="-150.5037" y1="-178.9134" x2="-149.4183" y2="-178.9134" gradientTransform="matrix(-2.000000e-15 32.2491 -32.2491 -2.000000e-15 -5506.8115 5019.1899)">
				<stop  offset="0" style="stop-color:#FFFFFF"/>
				<stop  offset="1" style="stop-color:#000000"/>
			</linearGradient>
			
				<rect x="-629.3" y="-67.4" style="fill:url(#SVGID_00000157278557135511301030000006644789663372462506_);" width="1784.7" height="646.1"/>
		</g>
	</mask>
	<g class="st6">
		<g>
			<g>
				<defs>
					<rect id="SVGID_00000137111089821622885010000006680657932418699670_" x="94.6" y="64.8" width="28.9" height="145.5"/>
				</defs>
				<clipPath id="SVGID_00000039850533366230179620000002619682789919758780_">
					<use xlink:href="#SVGID_00000137111089821622885010000006680657932418699670_"  style="overflow:visible;"/>
				</clipPath>
				
					<rect x="109.4" y="74.5" style="clip-path:url(#SVGID_00000039850533366230179620000002619682789919758780_);fill:#939598;" width="12" height="126"/>
			</g>
		</g>
	</g>
	<line class="st2" x1="115.5" y1="200.6" x2="115.5" y2="27.7"/>
	<path class="st8" d="M96.4,11.5v-10l-2.6,2.8l-0.7-0.6l3.3-3.5h0.9v11.3H96.4z M102.1,9.3c0.7,1,1.7,1.6,3.1,1.6
		c1.6,0,2.8-1.2,2.8-2.7c0-1.7-1.2-2.7-2.8-2.7c-1,0-1.9,0.3-2.7,1.1l-0.7-0.3V0.2h6.6v0.9h-5.5v4.4c0.5-0.5,1.5-1,2.7-1
		c1.9,0,3.6,1.2,3.6,3.6c0,2.2-1.7,3.6-3.8,3.6c-1.9,0-3-0.7-3.8-1.8L102.1,9.3z M110.9,13.2c0.5-0.4,0.9-1,1-1.5h-0.2
		c-0.4,0-0.7-0.3-0.7-0.7c0-0.4,0.3-0.7,0.7-0.7c0.5,0,0.9,0.4,0.9,1.1c0,0.9-0.6,1.8-1.2,2.3L110.9,13.2z M117.4,11.5v-10l-2.6,2.8
		l-0.6-0.6l3.3-3.5h0.9v11.3H117.4z M122.8,9.3c0.6,0.9,1.7,1.6,3.1,1.6c1.7,0,2.8-0.9,2.8-2.4c0-1.6-1.3-2.3-3-2.3
		c-0.5,0-0.9,0-1,0V5.2c0.2,0,0.6,0,1,0c1.5,0,2.8-0.6,2.8-2.1c0-1.4-1.2-2.2-2.7-2.2c-1.3,0-2.2,0.5-3,1.4l-0.5-0.6
		c0.8-1,2-1.7,3.7-1.7c1.9,0,3.6,1.1,3.6,3c0,1.7-1.4,2.5-2.4,2.6c1,0.1,2.6,0.9,2.6,2.8s-1.4,3.2-3.8,3.2c-1.8,0-3.2-0.9-3.8-1.9
		L122.8,9.3z M136.3,0.1c3,0,4.1,3.1,4.1,5.8s-1.1,5.8-4.1,5.8c-3,0-4.2-3.1-4.2-5.8S133.2,0.1,136.3,0.1z M136.3,0.9
		c-2.4,0-3.1,2.6-3.1,4.9s0.8,4.9,3.1,4.9c2.4,0,3.1-2.6,3.1-4.9C139.4,3.5,138.7,0.9,136.3,0.9z"/>
</g>
<g>
	<defs>
		
			<filter id="Adobe_OpacityMaskFilter_00000050643334681949506900000008444155736606701217_" filterUnits="userSpaceOnUse" x="180.5" y="16.7" width="28.9" height="192.2">
			<feColorMatrix  type="matrix" values="1 0 0 0 0  0 1 0 0 0  0 0 1 0 0  0 0 0 1 0"/>
		</filter>
	</defs>
	
		<mask maskUnits="userSpaceOnUse" x="180.5" y="16.7" width="28.9" height="192.2" id="SVGID_00000105426479800749256390000010823109706811595199_">
		<g style="filter:url(#Adobe_OpacityMaskFilter_00000050643334681949506900000008444155736606701217_);">
			
				<linearGradient id="SVGID_00000065771913740074929400000013845140230643011231_" gradientUnits="userSpaceOnUse" x1="-149.2965" y1="-179.4082" x2="-148.2111" y2="-179.4082" gradientTransform="matrix(-3.000000e-15 41.7966 -41.7966 -3.000000e-15 -7179.2881 6394.0439)">
				<stop  offset="0" style="stop-color:#FFFFFF"/>
				<stop  offset="1" style="stop-color:#000000"/>
			</linearGradient>
			
				<rect x="-573" y="-68.7" style="fill:url(#SVGID_00000065771913740074929400000013845140230643011231_);" width="1784.7" height="646.1"/>
		</g>
	</mask>
	<g class="st11">
		<g>
			<g>
				<defs>
					<rect id="SVGID_00000024692813975216582140000007493073181913147273_" x="180.5" y="16.7" width="28.9" height="192.2"/>
				</defs>
				<clipPath id="SVGID_00000130611523293639457790000011648029790482451077_">
					<use xlink:href="#SVGID_00000024692813975216582140000007493073181913147273_"  style="overflow:visible;"/>
				</clipPath>
				
					<rect x="195.4" y="26.5" style="clip-path:url(#SVGID_00000130611523293639457790000011648029790482451077_);fill:#939598;" width="12" height="172.7"/>
			</g>
		</g>
	</g>
	<line class="st2" x1="201.4" y1="199.3" x2="201.4" y2="26.5"/>
	<path class="st8" d="M178.4,11.5v-0.8c3.8-3.1,6.5-5.3,6.5-7.5c0-1.6-1.3-2.3-2.6-2.3c-1.4,0-2.5,0.6-3.1,1.5l-0.7-0.6
		c0.8-1.1,2.2-1.7,3.7-1.7c1.6,0,3.5,0.9,3.5,3.2c0,2.5-2.6,4.7-5.8,7.4h6v0.9h-7.4V11.5z M192.1,11.5v-10l-2.6,2.8l-0.6-0.6
		l3.3-3.5h0.9v11.3H192.1z M197,13.2c0.5-0.4,0.9-1,1-1.5h-0.2c-0.4,0-0.7-0.3-0.7-0.7c0-0.4,0.3-0.7,0.7-0.7c0.5,0,0.9,0.4,0.9,1.1
		c0,0.9-0.6,1.8-1.2,2.3L197,13.2z M204.8,0.1c1.5,0,2.4,0.6,3,1.4l-0.6,0.7c-0.5-0.8-1.2-1.3-2.4-1.3c-2.4,0-3.3,2.5-3.3,4.9
		c0,0.2,0,0.4,0,0.5c0.5-0.8,1.8-1.9,3.3-1.9c2,0,3.6,1.2,3.6,3.5c0,1.8-1.4,3.6-3.8,3.6c-3,0-4.1-2.8-4.1-5.8
		C200.5,3,201.7,0.1,204.8,0.1z M204.6,5.4c-1.2,0-2.4,0.8-3.1,1.9c0.1,1.5,0.9,3.5,3,3.5c1.9,0,2.8-1.5,2.8-2.7
		C207.5,6.3,206.3,5.4,204.6,5.4z M213.5,11.5v-10l-2.6,2.8l-0.6-0.6l3.3-3.5h0.9v11.3H213.5z M222.8,0.1c1.5,0,2.4,0.6,3,1.4
		l-0.6,0.7c-0.6-0.7-1.2-1.3-2.5-1.3c-2.4,0-3.3,2.5-3.3,4.9c0,0.2,0,0.4,0,0.5c0.5-0.8,1.8-1.9,3.3-1.9c2,0,3.6,1.2,3.6,3.5
		c0,1.8-1.4,3.6-3.8,3.6c-3,0-4.1-2.8-4.1-5.8C218.5,3,219.7,0.1,222.8,0.1z M222.6,5.4c-1.2,0-2.4,0.8-3.1,1.9
		c0.1,1.5,0.9,3.5,3,3.5c1.9,0,2.8-1.5,2.8-2.7C225.4,6.3,224.2,5.4,222.6,5.4z"/>
</g>
<g>
	<defs>
		
			<filter id="Adobe_OpacityMaskFilter_00000054980582021563928490000017039645833239100564_" filterUnits="userSpaceOnUse" x="265" y="51.2" width="28.9" height="159.1">
			<feColorMatrix  type="matrix" values="1 0 0 0 0  0 1 0 0 0  0 0 1 0 0  0 0 0 1 0"/>
		</filter>
	</defs>
	
		<mask maskUnits="userSpaceOnUse" x="265" y="51.2" width="28.9" height="159.1" id="SVGID_00000025422974573537972990000009136126191272094361_">
		<g style="filter:url(#Adobe_OpacityMaskFilter_00000054980582021563928490000017039645833239100564_);">
			
				<linearGradient id="SVGID_00000058571183116287658290000015133666195362272649_" gradientUnits="userSpaceOnUse" x1="-150.5935" y1="-182.4684" x2="-149.508" y2="-182.4684" gradientTransform="matrix(-2.000000e-15 31.7238 -31.7238 -2.000000e-15 -5414.7651 4943.5415)">
				<stop  offset="0" style="stop-color:#FFFFFF"/>
				<stop  offset="1" style="stop-color:#000000"/>
			</linearGradient>
			
				<rect x="-518.5" y="-67.4" style="fill:url(#SVGID_00000058571183116287658290000015133666195362272649_);" width="1784.7" height="646.1"/>
		</g>
	</mask>
	<g class="st15">
		<g>
			<g>
				<defs>
					<rect id="SVGID_00000116954224431861356350000008900507497897645222_" x="265" y="51.2" width="28.9" height="159.1"/>
				</defs>
				<clipPath id="SVGID_00000124163753036320587220000000277443289813883817_">
					<use xlink:href="#SVGID_00000116954224431861356350000008900507497897645222_"  style="overflow:visible;"/>
				</clipPath>
				
					<rect x="279.9" y="61" style="clip-path:url(#SVGID_00000124163753036320587220000000277443289813883817_);fill:#939598;" width="12" height="139.5"/>
			</g>
		</g>
	</g>
	<line class="st2" x1="285.8" y1="200.6" x2="285.8" y2="27.7"/>
	<path class="st8" d="M265.1,11.5v-10l-2.6,2.8l-0.6-0.6l3.3-3.5h0.9v11.3H265.1z M274.3,0.1c1.5,0,2.4,0.6,3,1.4l-0.6,0.7
		c-0.5-0.7-1.1-1.3-2.4-1.3c-2.4,0-3.3,2.5-3.3,4.9c0,0.2,0,0.4,0,0.5c0.5-0.8,1.8-1.9,3.3-1.9c2,0,3.6,1.2,3.6,3.5
		c0,1.8-1.4,3.6-3.8,3.6c-3,0-4.1-2.8-4.1-5.8C270,3,271.2,0.1,274.3,0.1z M274.1,5.4c-1.2,0-2.4,0.8-3.1,1.9c0.1,1.5,0.9,3.5,3,3.5
		c1.9,0,2.8-1.5,2.8-2.7C277,6.4,275.7,5.4,274.1,5.4z M279.9,13.2c0.5-0.4,0.9-1,1-1.5h-0.2c-0.4,0-0.7-0.3-0.7-0.7
		c0-0.4,0.3-0.7,0.7-0.7c0.5,0,0.9,0.4,0.9,1.1c0,0.9-0.6,1.8-1.2,2.3L279.9,13.2z M284.6,9.6c0.6,0.7,1.2,1.2,2.5,1.2
		c2.5,0,3.3-2.6,3.3-4.9c0-0.2,0-0.3,0-0.5c-0.5,0.8-1.8,1.9-3.3,1.9c-2,0-3.6-1.2-3.6-3.6c0-1.8,1.4-3.6,3.8-3.6
		c3,0,4.1,2.8,4.1,5.8c0,2.9-1.2,5.8-4.3,5.8c-1.5,0-2.4-0.6-3-1.4L284.6,9.6z M287.3,0.9c-1.9,0-2.8,1.5-2.8,2.7
		c0,1.8,1.2,2.7,2.8,2.7c1.2,0,2.4-0.8,3.1-1.9C290.3,2.9,289.5,0.9,287.3,0.9z M294.4,9.3c0.7,1,1.7,1.6,3.1,1.6
		c1.6,0,2.8-1.2,2.8-2.7c0-1.7-1.2-2.7-2.8-2.7c-1,0-1.9,0.3-2.7,1.1l-0.7-0.3V0.2h6.6v0.9h-5.5v4.4c0.5-0.5,1.5-1,2.7-1
		c1.9,0,3.6,1.2,3.6,3.6c0,2.2-1.7,3.6-3.8,3.6c-1.9,0-3-0.7-3.8-1.8L294.4,9.3z M303.5,11.5v-0.8c3.8-3.1,6.5-5.3,6.5-7.5
		c0-1.6-1.3-2.3-2.6-2.3c-1.4,0-2.5,0.6-3.1,1.5l-0.7-0.6c0.8-1.1,2.2-1.7,3.7-1.7c1.6,0,3.5,0.9,3.5,3.2c0,2.5-2.6,4.7-5.8,7.4h6
		v0.9h-7.4V11.5z"/>
</g>
<g>
	<defs>
		
			<filter id="Adobe_OpacityMaskFilter_00000157289275232152209130000003211792589728017580_" filterUnits="userSpaceOnUse" x="352.5" y="28.8" width="28.9" height="183.5">
			<feColorMatrix  type="matrix" values="1 0 0 0 0  0 1 0 0 0  0 0 1 0 0  0 0 0 1 0"/>
		</filter>
	</defs>
	
		<mask maskUnits="userSpaceOnUse" x="352.5" y="28.8" width="28.9" height="183.5" id="SVGID_00000170970233216883032940000018350182012164411780_">
		<g style="filter:url(#Adobe_OpacityMaskFilter_00000157289275232152209130000003211792589728017580_);">
			
				<linearGradient id="SVGID_00000181808787547221741110000008364116949984228013_" gradientUnits="userSpaceOnUse" x1="-148.8374" y1="-181.4497" x2="-147.752" y2="-181.4497" gradientTransform="matrix(-3.000000e-15 46.0323 -46.0323 -3.000000e-15 -7921.3311 7004.001)">
				<stop  offset="0" style="stop-color:#FFFFFF"/>
				<stop  offset="1" style="stop-color:#000000"/>
			</linearGradient>
			
				<rect x="-461.1" y="-65.4" style="fill:url(#SVGID_00000181808787547221741110000008364116949984228013_);" width="1784.7" height="646.1"/>
		</g>
	</mask>
	<g class="st19">
		<g>
			<g>
				<defs>
					<rect id="SVGID_00000059295859625810975090000001164812508804587707_" x="352.5" y="28.8" width="28.9" height="183.5"/>
				</defs>
				<clipPath id="SVGID_00000102524940397690983670000009112994089218790311_">
					<use xlink:href="#SVGID_00000059295859625810975090000001164812508804587707_"  style="overflow:visible;"/>
				</clipPath>
				
					<rect x="367.3" y="38.6" style="clip-path:url(#SVGID_00000102524940397690983670000009112994089218790311_);fill:#939598;" width="12" height="163.9"/>
			</g>
		</g>
	</g>
	<line class="st2" x1="373.3" y1="202.6" x2="373.3" y2="29.9"/>
	<path class="st8" d="M346.3,11.5v-0.8c3.8-3.1,6.5-5.3,6.5-7.5c0-1.6-1.3-2.3-2.6-2.3c-1.4,0-2.5,0.6-3.1,1.5l-0.7-0.6
		c0.8-1.1,2.2-1.7,3.7-1.7c1.6,0,3.5,0.9,3.5,3.2c0,2.5-2.6,4.7-5.8,7.4h6v0.9h-7.4V11.5z M360.3,0.1c3,0,4.1,3.1,4.1,5.8
		s-1.1,5.8-4.1,5.8S356,8.7,356,6C356,3.2,357.2,0.1,360.3,0.1z M360.3,0.9c-2.4,0-3.1,2.6-3.1,4.9s0.8,4.9,3.1,4.9s3.1-2.6,3.1-4.9
		S362.6,0.9,360.3,0.9z M366,13.2c0.5-0.4,0.9-1,1-1.5h-0.2c-0.4,0-0.7-0.3-0.7-0.7c0-0.4,0.3-0.7,0.7-0.7c0.5,0,0.9,0.4,0.9,1.1
		c0,0.9-0.6,1.8-1.2,2.3L366,13.2z M370.5,9.3c0.6,0.9,1.7,1.6,3.1,1.6c1.7,0,2.8-0.9,2.8-2.4c0-1.6-1.3-2.3-3-2.3c-0.5,0-0.9,0-1,0
		V5.2c0.2,0,0.6,0,1,0c1.5,0,2.8-0.6,2.8-2.1c0-1.4-1.2-2.2-2.7-2.2c-1.3,0-2.2,0.5-3,1.4l-0.6-0.6c0.8-1,2-1.7,3.7-1.7
		c1.9,0,3.6,1.1,3.6,3c0,1.7-1.4,2.5-2.4,2.6c1,0.1,2.6,0.9,2.6,2.8s-1.4,3.2-3.8,3.2c-1.8,0-3.2-0.9-3.8-1.9L370.5,9.3z M380.9,9.6
		c0.6,0.7,1.2,1.2,2.5,1.2c2.5,0,3.3-2.6,3.3-4.9c0-0.2,0-0.3,0-0.5c-0.5,0.8-1.8,1.9-3.3,1.9c-2,0-3.6-1.2-3.6-3.6
		c0-1.8,1.4-3.6,3.8-3.6c3,0,4.1,2.8,4.1,5.8c0,2.9-1.2,5.8-4.3,5.8c-1.5,0-2.4-0.6-3-1.4L380.9,9.6z M383.7,0.9
		c-1.9,0-2.8,1.5-2.8,2.7c0,1.8,1.2,2.7,2.8,2.7c1.2,0,2.4-0.8,3.1-1.9C386.6,2.9,385.8,0.9,383.7,0.9z M390.8,9.3
		c0.7,1,1.7,1.6,3.1,1.6c1.6,0,2.8-1.2,2.8-2.7c0-1.7-1.2-2.7-2.8-2.7c-1,0-1.9,0.3-2.7,1.1l-0.7-0.3V0.2h6.6v0.9h-5.5v4.4
		c0.5-0.5,1.5-1,2.7-1c1.9,0,3.6,1.2,3.6,3.6c0,2.2-1.7,3.6-3.8,3.6c-1.9,0-3-0.7-3.8-1.8L390.8,9.3z"/>
</g>
</svg>
