<?xml version="1.0" encoding="utf-8"?>
<!-- Generator: Adobe Illustrator 26.4.0, SVG Export Plug-In . SVG Version: 6.00 Build 0)  -->
<svg version="1.1" id="Layer_1" xmlns="http://www.w3.org/2000/svg" xmlns:xlink="http://www.w3.org/1999/xlink" x="0px" y="0px"
	 viewBox="0 0 400 205.2" style="enable-background:new 0 0 400 205.2;" xml:space="preserve">
<style type="text/css">
	.st0{fill:#010101;}
	.st1{clip-path:url(#SVGID_00000156556129322112823100000015520171942845372580_);fill:#DEECC2;}
	.st2{fill:none;stroke:#010101;stroke-width:0.25;}
	.st3{fill:none;stroke:#939598;stroke-width:0.25;stroke-dasharray:0.75,0.5;}
	.st4{fill:#9FCC3B;}
	.st5{fill:#4E4E50;}
	.st6{fill:#076AAA;}
</style>
<g>
	<path class="st0" d="M343.1,204.9v-1.5c3.6-2.7,4.7-3.6,4.7-4.7c0-0.8-0.7-1.2-1.4-1.2c-1,0-1.8,0.4-2.4,1l-1.1-1.3
		c0.9-1,2.2-1.5,3.4-1.5c1.9,0,3.4,1.1,3.4,2.8c0,1.5-1.3,2.8-3.6,4.5h3.6v1.7h-6.6V204.9z M351,200.5c0-2.3,1.1-4.6,3.7-4.6
		s3.7,2.3,3.7,4.6s-1.1,4.6-3.7,4.6S351,202.8,351,200.5z M356.4,200.5c0-1.6-0.5-2.9-1.8-2.9s-1.8,1.3-1.8,2.9s0.5,2.9,1.8,2.9
		C356,203.4,356.4,202.1,356.4,200.5z M359.5,204.9v-1.5c3.6-2.7,4.7-3.6,4.7-4.7c0-0.8-0.7-1.2-1.4-1.2c-1,0-1.8,0.4-2.4,1
		l-1.1-1.3c0.9-1,2.2-1.5,3.4-1.5c1.9,0,3.4,1.1,3.4,2.8c0,1.5-1.3,2.8-3.6,4.5h3.6v1.7h-6.6V204.9z M370.6,204.9v-6.5l-1.5,1.5
		l-1.1-1.1l2.8-2.8h1.7v8.9L370.6,204.9L370.6,204.9z M374.9,202.4V201h3.2v1.4H374.9z M379.1,204.9v-1.5c3.6-2.7,4.7-3.6,4.7-4.7
		c0-0.8-0.7-1.2-1.4-1.2c-1,0-1.8,0.4-2.4,1l-1.1-1.3c0.9-1,2.2-1.5,3.4-1.5c1.9,0,3.4,1.1,3.4,2.8c0,1.5-1.3,2.8-3.6,4.5h3.6v1.7
		h-6.6V204.9z M387.3,204.9v-1.5c3.6-2.7,4.7-3.6,4.7-4.7c0-0.8-0.7-1.2-1.4-1.2c-1,0-1.8,0.4-2.4,1l-1.1-1.3c0.9-1,2.2-1.5,3.4-1.5
		c1.9,0,3.4,1.1,3.4,2.8c0,1.5-1.3,2.8-3.6,4.5h3.6v1.7h-6.6V204.9z"/>
	<path class="st0" d="M269,204.9v-0.6c3-2.4,5.1-4.2,5.1-5.9c0-1.3-1.1-1.8-2-1.8c-1.1,0-2,0.5-2.4,1.2l-0.5-0.5
		c0.6-0.9,1.7-1.4,3-1.4s2.8,0.7,2.8,2.5c0,2-2.1,3.8-4.7,5.8h4.7v0.7H269z M280,195.9c2.4,0,3.3,2.5,3.3,4.6s-0.9,4.6-3.3,4.6
		s-3.3-2.5-3.3-4.6C276.7,198.3,277.6,195.9,280,195.9z M280,196.6c-1.9,0-2.5,2.1-2.5,3.9c0,1.8,0.6,3.9,2.5,3.9s2.5-2.1,2.5-3.9
		C282.4,198.6,281.8,196.6,280,196.6z M284.7,204.9v-0.6c3-2.4,5.1-4.2,5.1-5.9c0-1.3-1.1-1.8-2-1.8c-1.1,0-2,0.5-2.4,1.2l-0.5-0.5
		c0.6-0.9,1.7-1.4,3-1.4s2.8,0.7,2.8,2.5c0,2-2.1,3.8-4.7,5.8h4.7v0.7H284.7z M295.7,195.9c2.4,0,3.3,2.5,3.3,4.6s-0.9,4.6-3.3,4.6
		s-3.3-2.5-3.3-4.6C292.4,198.3,293.3,195.9,295.7,195.9z M295.7,196.6c-1.9,0-2.5,2.1-2.5,3.9c0,1.8,0.6,3.9,2.5,3.9
		s2.5-2.1,2.5-3.9C298.2,198.6,297.6,196.6,295.7,196.6z M300.7,202v-0.6h3.2v0.6H300.7z M304.9,204.9v-0.6c3-2.4,5.1-4.2,5.1-5.9
		c0-1.3-1.1-1.8-2-1.8c-1.1,0-2,0.5-2.4,1.2l-0.5-0.5c0.6-0.9,1.7-1.4,3-1.4s2.8,0.7,2.8,2.5c0,2-2.1,3.8-4.7,5.8h4.7v0.7H304.9z
		 M315.8,204.9V197l-2.1,2.3l-0.5-0.5l2.7-2.8h0.7v8.9H315.8z"/>
	<path class="st0" d="M194.5,204.9v-0.6c3-2.4,5.1-4.2,5.1-5.9c0-1.3-1.1-1.8-2-1.8c-1.1,0-2,0.5-2.4,1.2l-0.5-0.5
		c0.6-0.9,1.7-1.4,3-1.4s2.8,0.7,2.8,2.5c0,2-2.1,3.8-4.7,5.8h4.7v0.7H194.5z M205.5,195.9c2.4,0,3.3,2.5,3.3,4.6s-0.9,4.6-3.3,4.6
		c-2.4,0-3.3-2.5-3.3-4.6C202.2,198.3,203.1,195.9,205.5,195.9z M205.5,196.6c-1.9,0-2.5,2.1-2.5,3.9c0,1.8,0.6,3.9,2.5,3.9
		s2.5-2.1,2.5-3.9C208,198.6,207.4,196.6,205.5,196.6z M213.5,204.9V197l-2.1,2.3l-0.5-0.5l2.7-2.8h0.7v8.9H213.5z M218.1,203.4
		c0.4,0.6,1,1,2,1c2,0,2.6-2,2.6-3.9c0-0.1,0-0.3,0-0.4c-0.4,0.6-1.4,1.5-2.6,1.5c-1.6,0-2.9-0.9-2.9-2.8c0-1.5,1.1-2.8,3-2.8
		c2.4,0,3.3,2.2,3.3,4.6c0,2.3-1,4.6-3.4,4.6c-1.2,0-1.9-0.5-2.4-1.1L218.1,203.4z M220.3,196.5c-1.5,0-2.2,1.2-2.2,2.1
		c0,1.5,0.9,2.2,2.2,2.2c1,0,1.9-0.6,2.4-1.5C222.6,198.1,221.9,196.5,220.3,196.5z M225.3,202v-0.6h3.2v0.6H225.3z M229.6,204.9
		v-0.6c3-2.4,5.1-4.2,5.1-5.9c0-1.3-1.1-1.8-2-1.8c-1.1,0-2,0.5-2.4,1.2l-0.5-0.5c0.6-0.9,1.7-1.4,3-1.4s2.8,0.7,2.8,2.5
		c0,2-2.1,3.8-4.7,5.8h4.7v0.7H229.6z M240.5,195.9c2.4,0,3.3,2.5,3.3,4.6s-0.9,4.6-3.3,4.6c-2.4,0-3.3-2.5-3.3-4.6
		C237.2,198.3,238.1,195.9,240.5,195.9z M240.5,196.6c-1.9,0-2.5,2.1-2.5,3.9c0,1.8,0.6,3.9,2.5,3.9s2.5-2.1,2.5-3.9
		C243,198.6,242.4,196.6,240.5,196.6z"/>
	<path class="st0" d="M120.4,204.9v-0.6c3-2.4,5.1-4.2,5.1-5.9c0-1.3-1.1-1.8-2-1.8c-1.1,0-2,0.5-2.4,1.2l-0.5-0.5
		c0.6-0.9,1.7-1.4,3-1.4s2.8,0.7,2.8,2.5c0,2-2.1,3.8-4.7,5.8h4.7v0.7H120.4z M131.4,195.9c2.4,0,3.3,2.5,3.3,4.6s-0.9,4.6-3.3,4.6
		c-2.4,0-3.3-2.5-3.3-4.6C128.1,198.3,129,195.9,131.4,195.9z M131.4,196.6c-1.9,0-2.5,2.1-2.5,3.9c0,1.8,0.6,3.9,2.5,3.9
		s2.5-2.1,2.5-3.9C133.8,198.6,133.2,196.6,131.4,196.6z M139.4,204.9V197l-2.1,2.3l-0.5-0.5l2.7-2.8h0.7v8.9H139.4z M145.5,200.3
		c-1.1-0.3-2.1-1-2.1-2.2c0-1.6,1.5-2.3,2.9-2.3s2.9,0.7,2.9,2.3c0,1.2-1,1.9-2.1,2.2c1.1,0.3,2.2,1.1,2.2,2.4c0,1.4-1.3,2.4-3,2.4
		s-3-0.9-3-2.4C143.3,201.4,144.4,200.6,145.5,200.3z M146.3,200.7c-0.5,0.1-2.3,0.6-2.3,2c0,1.1,1.1,1.8,2.3,1.8s2.3-0.7,2.3-1.8
		C148.6,201.3,146.8,200.7,146.3,200.7z M146.3,196.6c-1.2,0-2.1,0.6-2.1,1.7c0,1.2,1.6,1.6,2.1,1.8c0.5-0.1,2.1-0.5,2.1-1.8
		C148.4,197.2,147.5,196.6,146.3,196.6z M151.1,202v-0.6h3.2v0.6H151.1z M158.3,204.9V197l-2.1,2.3l-0.5-0.5l2.7-2.8h0.7v8.9H158.3z
		 M162.9,203.4c0.4,0.6,1,1,2,1c2,0,2.6-2,2.6-3.9c0-0.1,0-0.3,0-0.4c-0.4,0.6-1.4,1.5-2.6,1.5c-1.6,0-2.9-0.9-2.9-2.8
		c0-1.5,1.1-2.8,3-2.8c2.4,0,3.3,2.2,3.3,4.6c0,2.3-1,4.6-3.4,4.6c-1.2,0-1.9-0.5-2.4-1.1L162.9,203.4z M165.1,196.5
		c-1.5,0-2.2,1.2-2.2,2.1c0,1.5,0.9,2.2,2.2,2.2c1,0,1.9-0.6,2.4-1.5C167.4,198.1,166.7,196.5,165.1,196.5z"/>
	<path class="st0" d="M46.2,204.9v-0.6c3-2.4,5.1-4.2,5.1-5.9c0-1.3-1.1-1.8-2-1.8c-1.1,0-2,0.5-2.4,1.2l-0.5-0.5
		c0.6-0.9,1.7-1.4,3-1.4s2.8,0.7,2.8,2.5c0,2-2.1,3.8-4.7,5.8h4.7v0.7H46.2z M57.2,195.9c2.4,0,3.3,2.5,3.3,4.6s-0.9,4.6-3.3,4.6
		s-3.3-2.5-3.3-4.6C53.9,198.3,54.8,195.9,57.2,195.9z M57.2,196.6c-1.9,0-2.5,2.1-2.5,3.9c0,1.8,0.6,3.9,2.5,3.9s2.5-2.1,2.5-3.9
		C59.7,198.6,59.1,196.6,57.2,196.6z M65.2,204.9V197l-2.1,2.3l-0.5-0.5l2.7-2.8H66v8.9H65.2z M70.2,204.9l3.8-8.2h-4.9V196h5.8v0.5
		l-3.8,8.4H70.2z M75.8,202v-0.6H79v0.6H75.8z M83,204.9V197l-2.1,2.3l-0.5-0.5l2.7-2.8h0.7v8.9H83z M89.1,200.3
		c-1.1-0.3-2.1-1-2.1-2.2c0-1.6,1.5-2.3,2.9-2.3s2.9,0.7,2.9,2.3c0,1.2-1,1.9-2.1,2.2c1.1,0.3,2.2,1.1,2.2,2.4c0,1.4-1.3,2.4-3,2.4
		s-3-0.9-3-2.4C86.9,201.4,88,200.6,89.1,200.3z M90,200.7c-0.5,0.1-2.3,0.6-2.3,2c0,1.1,1.1,1.8,2.3,1.8c1.2,0,2.3-0.7,2.3-1.8
		C92.2,201.3,90.5,200.7,90,200.7z M90,196.6c-1.2,0-2.1,0.6-2.1,1.7c0,1.2,1.6,1.6,2.1,1.8c0.5-0.1,2.1-0.5,2.1-1.8
		C92.1,197.2,91.1,196.6,90,196.6z"/>
	<g>
		<g>
			<g>
				<defs>
					<rect id="SVGID_1_" x="55.6" y="17.4" width="333.9" height="170"/>
				</defs>
				<clipPath id="SVGID_00000075159965859655561340000007803309649684732346_">
					<use xlink:href="#SVGID_1_"  style="overflow:visible;"/>
				</clipPath>
				<polygon style="clip-path:url(#SVGID_00000075159965859655561340000007803309649684732346_);fill:#DEECC2;" points="71.6,185.6 
					73.5,120.7 144.3,92.5 224.6,88 295.1,29.9 372.8,49.9 373.5,185.6 				"/>
			</g>
		</g>
	</g>
	<path class="st0" d="M3.3,180c2.4,0,3.3,2.5,3.3,4.6s-0.9,4.6-3.3,4.6S0,186.7,0,184.6C0,182.5,0.9,180,3.3,180z M3.3,180.7
		c-1.9,0-2.5,2.1-2.5,3.9c0,1.8,0.6,3.9,2.5,3.9s2.5-2.1,2.5-3.9C5.8,182.7,5.2,180.7,3.3,180.7z"/>
	<path class="st0" d="M3.6,117v-7.9l-2.1,2.3L1,110.9l2.7-2.8h0.7v8.9H3.6z M10.6,108c2.4,0,3.3,2.5,3.3,4.6s-0.9,4.6-3.3,4.6
		s-3.3-2.5-3.3-4.6S8.2,108,10.6,108z M10.6,108.7c-1.9,0-2.5,2.1-2.5,3.9c0,1.8,0.6,3.9,2.5,3.9s2.5-2.1,2.5-3.9
		C13.1,110.7,12.5,108.7,10.6,108.7z M18.9,108c2.4,0,3.3,2.5,3.3,4.6s-0.9,4.6-3.3,4.6s-3.3-2.5-3.3-4.6
		C15.6,110.5,16.5,108,18.9,108z M18.9,108.7c-1.9,0-2.5,2.1-2.5,3.9c0,1.8,0.6,3.9,2.5,3.9s2.5-2.1,2.5-3.9
		C21.4,110.7,20.8,108.7,18.9,108.7z"/>
	<path class="st0" d="M3.6,81v-7.9l-2.1,2.3L1,74.9l2.7-2.8h0.7V81H3.6z M8,79.2c0.6,0.8,1.4,1.3,2.5,1.3c1.3,0,2.2-0.9,2.2-2.2
		c0-1.4-0.9-2.2-2.2-2.2c-0.8,0-1.5,0.3-2.2,0.9l-0.6-0.2v-4.7H13v0.7H8.6v3.5c0.4-0.4,1.2-0.8,2.1-0.8c1.5,0,2.8,1,2.8,2.8
		s-1.4,2.9-3,2.9c-1.5,0-2.4-0.6-3-1.5L8,79.2z M18.6,72c2.4,0,3.3,2.5,3.3,4.6s-0.9,4.6-3.3,4.6s-3.3-2.5-3.3-4.6S16.2,72,18.6,72z
		 M18.6,72.7c-1.9,0-2.5,2.1-2.5,3.9s0.6,3.9,2.5,3.9s2.5-2.1,2.5-3.9C21.1,74.7,20.5,72.7,18.6,72.7z"/>
	<path class="st0" d="M0.3,45v-0.6c3-2.4,5.1-4.2,5.1-5.9c0-1.3-1.1-1.8-2-1.8c-1.1,0-2,0.5-2.4,1.2l-0.5-0.5C1,36.5,2.1,36,3.3,36
		c1.3,0,2.8,0.7,2.8,2.5c0,2-2.1,3.8-4.7,5.8h4.7V45H0.3z M11.3,36c2.4,0,3.3,2.5,3.3,4.6s-0.9,4.6-3.3,4.6S8,42.7,8,40.6
		C8,38.5,8.9,36,11.3,36z M11.3,36.7c-1.9,0-2.5,2.1-2.5,3.9c0,1.8,0.6,3.9,2.5,3.9s2.5-2.1,2.5-3.9C13.8,38.7,13.2,36.7,11.3,36.7z
		 M19.5,36c2.4,0,3.3,2.5,3.3,4.6s-0.9,4.6-3.3,4.6s-3.3-2.5-3.3-4.6S17.1,36,19.5,36z M19.5,36.7c-1.9,0-2.5,2.1-2.5,3.9
		c0,1.8,0.6,3.9,2.5,3.9s2.5-2.1,2.5-3.9C22,38.7,21.4,36.7,19.5,36.7z"/>
	<path class="st0" d="M0.3,9.1V8.5c3-2.4,5.1-4.2,5.1-5.9c0-1.3-1.1-1.8-2-1.8C2.3,0.8,1.4,1.3,1,2L0.5,1.5C1,0.5,2.1,0,3.3,0
		c1.3,0,2.8,0.7,2.8,2.5c0,2-2.1,3.8-4.7,5.8h4.7V9H0.3V9.1z M8.6,7.2C9.2,8,10,8.5,11.1,8.5c1.3,0,2.2-0.9,2.2-2.2
		c0-1.4-0.9-2.2-2.2-2.2c-0.8,0-1.5,0.3-2.2,0.9L8.3,4.8V0.1h5.2v0.7H9.2v3.5c0.4-0.4,1.2-0.8,2.1-0.8c1.5,0,2.8,1,2.8,2.8
		s-1.4,2.9-3,2.9c-1.5,0-2.4-0.6-3-1.5L8.6,7.2z M19.2,0c2.4,0,3.3,2.5,3.3,4.6s-0.9,4.6-3.3,4.6s-3.3-2.5-3.3-4.6
		C15.9,2.5,16.8,0,19.2,0z M19.2,0.7c-1.9,0-2.5,2.1-2.5,3.9s0.6,3.9,2.5,3.9s2.5-2.1,2.5-3.9C21.7,2.8,21.1,0.7,19.2,0.7z"/>
	<line class="st2" x1="38.1" y1="185.4" x2="400" y2="185.4"/>
	<line class="st3" x1="38.1" y1="113.4" x2="400" y2="113.4"/>
	<line class="st3" x1="38.1" y1="149.4" x2="400" y2="149.4"/>
	<line class="st3" x1="38.1" y1="77.4" x2="400" y2="77.4"/>
	<line class="st3" x1="38.1" y1="41.4" x2="400" y2="41.4"/>
	<line class="st3" x1="38.1" y1="5.4" x2="400" y2="5.4"/>
	<rect x="69.6" y="116.8" class="st4" width="5.9" height="5.9"/>
	<rect x="141.4" y="89.6" class="st4" width="5.9" height="5.9"/>
	<rect x="221.7" y="85" class="st4" width="5.9" height="5.9"/>
	<rect x="292.2" y="26.9" class="st4" width="5.9" height="5.9"/>
	<rect x="369.4" y="47.1" class="st4" width="5.9" height="5.9"/>
	<path class="st5" d="M59.2,136.1c0.5,0.6,1.1,1.1,2.1,1.1c2.1,0,2.8-2.2,2.8-4.2c0-0.1,0-0.3,0-0.4c-0.4,0.7-1.5,1.6-2.8,1.6
		c-1.7,0-3.1-1-3.1-3c0-1.6,1.2-3,3.2-3c2.6,0,3.5,2.4,3.5,4.9c0,2.4-1,4.9-3.6,4.9c-1.2,0-2-0.5-2.6-1.2L59.2,136.1z M61.5,128.8
		c-1.6,0-2.4,1.3-2.4,2.3c0,1.6,1,2.3,2.4,2.3c1,0,2.1-0.7,2.6-1.6C64,130.4,63.3,128.8,61.5,128.8z M66.7,137.7V137
		c3.2-2.6,5.4-4.5,5.4-6.3c0-1.4-1.1-1.9-2.2-1.9c-1.2,0-2.1,0.5-2.6,1.2l-0.6-0.5c0.7-0.9,1.8-1.5,3.2-1.5c1.4,0,3,0.8,3,2.7
		c0,2.1-2.2,4-5,6.2h5v0.7h-6.2V137.7z M75.7,136.6c0.3,0,0.6,0.3,0.6,0.6s-0.3,0.6-0.6,0.6c-0.3,0-0.6-0.3-0.6-0.6
		C75.1,136.9,75.3,136.6,75.7,136.6z M78.4,137.7V137c3.2-2.6,5.4-4.5,5.4-6.3c0-1.4-1.1-1.9-2.2-1.9c-1.2,0-2.1,0.5-2.6,1.2
		l-0.6-0.5c0.7-0.9,1.8-1.5,3.2-1.5c1.4,0,3,0.8,3,2.7c0,2.1-2.2,4-5,6.2h5v0.7h-6.2V137.7z"/>
	<path class="st5" d="M157.4,95.9v-8.4l-2.2,2.4l-0.5-0.5l2.8-3h0.7v9.5H157.4z M161.9,94c0.5,0.8,1.5,1.3,2.7,1.3
		c1.5,0,2.4-0.8,2.4-2c0-1.4-1.1-1.9-2.5-1.9c-0.4,0-0.7,0-0.9,0v-0.8c0.1,0,0.5,0,0.9,0c1.3,0,2.4-0.5,2.4-1.8
		c0-1.2-1.1-1.8-2.3-1.8c-1.1,0-1.9,0.4-2.5,1.2l-0.5-0.5c0.7-0.8,1.7-1.4,3.1-1.4c1.7,0,3.1,0.9,3.1,2.5c0,1.5-1.2,2.1-2,2.2
		c0.8,0.1,2.2,0.8,2.2,2.4s-1.2,2.7-3.2,2.7c-1.6,0-2.7-0.7-3.2-1.6L161.9,94z M173.2,86.3c2.5,0,3.5,2.6,3.5,4.9
		c0,2.2-1,4.9-3.5,4.9s-3.5-2.7-3.5-4.9C169.6,88.9,170.6,86.3,173.2,86.3z M173.2,87c-2,0-2.6,2.2-2.6,4.2s0.7,4.2,2.6,4.2
		s2.6-2.2,2.6-4.2S175.2,87,173.2,87z M178.7,94.8c0.3,0,0.6,0.3,0.6,0.6c0,0.3-0.3,0.6-0.6,0.6s-0.6-0.3-0.6-0.6
		C178.1,95.1,178.4,94.8,178.7,94.8z M181.4,95.9v-0.7c3.2-2.6,5.4-4.5,5.4-6.3c0-1.4-1.1-1.9-2.2-1.9c-1.2,0-2.1,0.5-2.6,1.2
		l-0.6-0.5c0.7-0.9,1.8-1.5,3.2-1.5s3,0.8,3,2.7c0,2.1-2.2,4-5,6.2h5v0.7h-6.2V95.9z"/>
	<path class="st5" d="M235.8,93.9v-8.4l-2.2,2.4l-0.5-0.5l2.8-3h0.7v9.5H235.8z M240.4,92c0.5,0.8,1.5,1.3,2.7,1.3
		c1.5,0,2.4-0.8,2.4-2c0-1.4-1.1-1.9-2.5-1.9c-0.4,0-0.7,0-0.9,0v-0.8c0.1,0,0.5,0,0.9,0c1.3,0,2.4-0.5,2.4-1.8
		c0-1.2-1.1-1.8-2.3-1.8c-1.1,0-1.9,0.4-2.5,1.2l-0.5-0.5c0.7-0.8,1.7-1.4,3.1-1.4c1.7,0,3.1,0.9,3.1,2.5c0,1.5-1.2,2.1-2,2.2
		c0.8,0.1,2.2,0.8,2.2,2.4s-1.2,2.7-3.2,2.7c-1.6,0-2.7-0.7-3.2-1.6L240.4,92z M251.4,93.9v-8.4l-2.2,2.4l-0.5-0.5l2.8-3h0.7v9.5
		H251.4z M256.1,92.8c0.3,0,0.6,0.3,0.6,0.6c0,0.3-0.3,0.6-0.6,0.6c-0.3,0-0.6-0.3-0.6-0.6C255.4,93.1,255.7,92.8,256.1,92.8z
		 M259.4,93.9l4-8.8h-5.3v-0.7h6.2V85l-4,8.9H259.4z"/>
	<path class="st5" d="M279.3,21.9v-0.7c3.2-2.6,5.4-4.5,5.4-6.3c0-1.4-1.1-1.9-2.2-1.9c-1.2,0-2.1,0.5-2.6,1.2l-0.6-0.5
		c0.7-0.9,1.8-1.5,3.2-1.5c1.4,0,3,0.8,3,2.7c0,2.1-2.2,4-5,6.2h5v0.7L279.3,21.9L279.3,21.9z M290.9,21.9v-8.4l-2.2,2.4l-0.5-0.5
		l2.8-3h0.7v9.5H290.9z M299.3,21.9v-2.6h-4.5v-0.7l4.2-6.2h1.1v6.2h1.4v0.7h-1.4v2.6H299.3z M299.3,13.2l-3.7,5.4h3.7V13.2z
		 M303.7,20.8c0.3,0,0.6,0.3,0.6,0.6S304,22,303.7,22s-0.6-0.3-0.6-0.6C303,21,303.3,20.8,303.7,20.8z M309.2,12.2
		c2.5,0,3.5,2.6,3.5,4.9c0,2.2-1,4.9-3.5,4.9s-3.5-2.7-3.5-4.9S306.7,12.2,309.2,12.2z M309.2,13c-2,0-2.6,2.2-2.6,4.2
		s0.7,4.2,2.6,4.2c2,0,2.6-2.2,2.6-4.2C311.9,15.2,311.2,13,309.2,13z"/>
	<path class="st6" d="M358.8,67.8v-6.9l-1.6,1.6l-1.2-1.2l3-3h1.8v9.5H358.8z M363.6,67l0.9-1.6c0.5,0.5,1.1,0.7,1.9,0.7
		c1.6,0,2.4-1.3,2.4-2.7c0-0.1,0-0.1,0-0.2c-0.5,0.6-1.4,1.2-2.4,1.2c-1.7,0-3.2-1.1-3.2-3.1c0-1.9,1.5-3.3,3.6-3.3
		c2.9,0,4.1,2.2,4.1,4.9c0,2.9-1.6,4.9-4.4,4.9C365.3,68,364.3,67.6,363.6,67z M368.8,61.9c-0.1-0.9-0.6-1.9-1.9-1.9
		c-1.1,0-1.7,0.7-1.7,1.4c0,1,0.9,1.4,1.8,1.4C367.7,62.8,368.3,62.4,368.8,61.9z M372.1,63.1c0-2.4,1.2-4.9,3.9-4.9
		s3.9,2.4,3.9,4.9c0,2.4-1.2,4.9-3.9,4.9S372.1,65.5,372.1,63.1z M377.9,63.1c0-1.8-0.5-3.1-1.9-3.1s-1.9,1.4-1.9,3.1
		c0,1.8,0.5,3.1,1.9,3.1S377.9,64.8,377.9,63.1z M380.9,66.8c0-0.6,0.5-1.2,1.2-1.2s1.2,0.5,1.2,1.2s-0.5,1.2-1.2,1.2
		S380.9,67.4,380.9,66.8z M384.8,67l0.9-1.6c0.5,0.5,1.1,0.7,1.9,0.7c1.6,0,2.4-1.3,2.4-2.7c0-0.1,0-0.1,0-0.2
		c-0.5,0.6-1.4,1.2-2.4,1.2c-1.7,0-3.2-1.1-3.2-3.1c0-1.9,1.5-3.3,3.6-3.3c2.9,0,4.1,2.2,4.1,4.9c0,2.9-1.6,4.9-4.4,4.9
		C386.5,68,385.5,67.6,384.8,67z M390,61.9c-0.1-0.9-0.6-1.9-1.9-1.9c-1.1,0-1.7,0.7-1.7,1.4c0,1,0.9,1.4,1.8,1.4
		C388.8,62.8,389.5,62.4,390,61.9z"/>
	<path class="st0" d="M0.9,151.2c0.6,0.8,1.4,1.3,2.5,1.3c1.3,0,2.2-0.9,2.2-2.2c0-1.4-0.9-2.2-2.2-2.2c-0.8,0-1.5,0.3-2.2,0.9
		l-0.6-0.2v-4.7h5.2v0.7H1.4v3.5c0.4-0.4,1.2-0.8,2.1-0.8c1.5,0,2.8,1,2.8,2.8s-1.4,2.9-3,2.9c-1.5,0-2.4-0.6-3-1.5L0.9,151.2z
		 M11.4,144c2.4,0,3.3,2.5,3.3,4.6s-0.9,4.6-3.3,4.6s-3.3-2.5-3.3-4.6C8.1,146.5,9,144,11.4,144z M11.4,144.7
		c-1.9,0-2.5,2.1-2.5,3.9c0,1.8,0.6,3.9,2.5,3.9s2.5-2.1,2.5-3.9C13.9,146.7,13.3,144.7,11.4,144.7z"/>
</g>
</svg>
