<?xml version="1.0" encoding="utf-8"?>
<!-- Generator: Adobe Illustrator 26.4.0, SVG Export Plug-In . SVG Version: 6.00 Build 0)  -->
<svg version="1.1" id="Layer_1" xmlns="http://www.w3.org/2000/svg" xmlns:xlink="http://www.w3.org/1999/xlink" x="0px" y="0px"
	 viewBox="0 0 398 204.9" style="enable-background:new 0 0 398 204.9;" xml:space="preserve">
<style type="text/css">
	.st0{fill:#0069AA;}
	.st1{clip-path:url(#SVGID_00000074439798179165213630000016481816897029417902_);fill:#076AAA;}
	.st2{fill:none;stroke:#FFFFFF;}
	.st3{fill:#076AAA;}
	.st4{filter:url(#Adobe_OpacityMaskFilter);}
	.st5{fill:url(#SVGID_00000159467607040659134050000015914970471693653140_);}
	.st6{mask:url(#SVGID_00000021824281228714388270000016024684452298161342_);}
	.st7{clip-path:url(#SVGID_00000145055203953602185070000007454461932875300014_);fill:#939598;}
	.st8{fill:#4E4E50;}
	.st9{filter:url(#Adobe_OpacityMaskFilter_00000071548871062599470920000005825095378586762882_);}
	.st10{fill:url(#SVGID_00000183968728075390877930000001801515647227935413_);}
	.st11{mask:url(#SVGID_00000016765988688405572590000004657373305884455088_);}
	.st12{clip-path:url(#SVGID_00000038374578873848626840000014163331684112925093_);fill:#939598;}
	.st13{filter:url(#Adobe_OpacityMaskFilter_00000005259702381474172740000004684468076239986341_);}
	.st14{fill:url(#SVGID_00000004536695714226467480000014743836541044661686_);}
	.st15{mask:url(#SVGID_00000158742324187163082510000010680532624485387684_);}
	.st16{clip-path:url(#SVGID_00000052064741531059143750000008972877566977961902_);fill:#939598;}
	.st17{filter:url(#Adobe_OpacityMaskFilter_00000062191873489068018300000011686144873761467031_);}
	.st18{fill:url(#SVGID_00000091736646606521142370000007187522426389019014_);}
	.st19{mask:url(#SVGID_00000161597828209181219330000004927504291745463955_);}
	.st20{clip-path:url(#SVGID_00000077282610206336187070000008029977164880378040_);fill:#939598;}
</style>
<g>
	<path class="st0" d="M0.2,204.7v-1.3c4-3,5.8-4.6,5.8-6.3c0-1.2-1-1.8-2.1-1.8c-1.3,0-2.2,0.5-2.9,1.3l-1-1
		c0.9-1.1,2.3-1.7,3.8-1.7c1.9,0,3.7,1.1,3.7,3.2c0,2.1-2,3.9-4.9,6.1h4.9v1.4H0.2V204.7z M13.5,194c2.9,0,4.1,2.8,4.1,5.4
		s-1.2,5.5-4.1,5.5s-4.2-2.9-4.2-5.5S10.6,194,13.5,194z M13.5,195.4c-1.9,0-2.5,2-2.5,4s0.6,4.1,2.5,4.1s2.5-2,2.5-4.1
		S15.4,195.4,13.5,195.4z M19.2,204.7v-1.3c4-3,5.8-4.6,5.8-6.3c0-1.2-1-1.8-2.1-1.8c-1.3,0-2.2,0.5-2.9,1.3l-1-1
		c0.9-1.1,2.3-1.7,3.8-1.7c1.9,0,3.7,1.1,3.7,3.2c0,2.1-2,3.9-4.9,6.1h4.9v1.4h-7.3V204.7z M32,204.7v-8.5l-1.9,2l-0.9-1l3.1-3.2
		h1.4v10.6L32,204.7L32,204.7z M37,201.5v-1.2h3.8v1.2H37z M41.9,204.7v-1.3c4-3,5.8-4.6,5.8-6.3c0-1.2-1-1.8-2.1-1.8
		c-1.3,0-2.2,0.5-2.9,1.3l-1-1c0.9-1.1,2.3-1.7,3.8-1.7c1.9,0,3.7,1.1,3.7,3.2c0,2.1-2,3.9-4.9,6.1h4.9v1.4h-7.3V204.7z M51.5,204.7
		v-1.3c4-3,5.8-4.6,5.8-6.3c0-1.2-1-1.8-2.1-1.8c-1.3,0-2.2,0.5-2.9,1.3l-1-1c0.9-1.1,2.3-1.7,3.8-1.7c1.9,0,3.7,1.1,3.7,3.2
		c0,2.1-2,3.9-4.9,6.1h4.9v1.4h-7.3V204.7z"/>
	<path d="M86.6,204.6v-0.8c3.6-2.9,6-5,6-7c0-1.5-1.3-2.2-2.4-2.2c-1.3,0-2.3,0.6-2.9,1.4l-0.6-0.6c0.7-1,2-1.6,3.5-1.6
		c1.6,0,3.3,0.9,3.3,3c0,2.3-2.5,4.5-5.5,6.9h5.6v0.8h-7V204.6z M99.6,193.9c2.8,0,3.9,2.9,3.9,5.4s-1.1,5.5-3.9,5.5s-3.9-3-3.9-5.5
		S96.7,193.9,99.6,193.9z M99.6,194.7c-2.2,0-2.9,2.4-2.9,4.6c0,2.2,0.7,4.6,2.9,4.6c2.2,0,2.9-2.5,2.9-4.6
		C102.5,197.1,101.8,194.7,99.6,194.7z M105.2,204.6v-0.8c3.6-2.9,6-5,6-7c0-1.5-1.3-2.2-2.4-2.2c-1.3,0-2.3,0.6-2.9,1.4l-0.6-0.6
		c0.7-1,2-1.6,3.5-1.6c1.6,0,3.3,0.9,3.3,3c0,2.3-2.5,4.5-5.5,6.9h5.6v0.8h-7V204.6z M118.2,193.9c2.8,0,3.9,2.9,3.9,5.4
		s-1.1,5.5-3.9,5.5s-3.9-3-3.9-5.5S115.4,193.9,118.2,193.9z M118.2,194.7c-2.2,0-2.9,2.4-2.9,4.6c0,2.2,0.7,4.6,2.9,4.6
		c2.2,0,2.9-2.5,2.9-4.6C121.2,197.1,120.5,194.7,118.2,194.7z M124.1,201.1v-0.8h3.8v0.8H124.1z M129.1,204.6v-0.8c3.6-2.9,6-5,6-7
		c0-1.5-1.3-2.2-2.4-2.2c-1.3,0-2.3,0.6-2.9,1.4l-0.6-0.6c0.7-1,2-1.6,3.5-1.6c1.6,0,3.3,0.9,3.3,3c0,2.3-2.5,4.5-5.5,6.9h5.6v0.8
		h-7V204.6z M142,204.6v-9.3l-2.5,2.7l-0.6-0.6l3.2-3.3h0.8v10.6L142,204.6L142,204.6z"/>
	<path d="M170.7,204.5v-0.7c3.6-2.9,6-5,6-7c0-1.5-1.3-2.2-2.4-2.2c-1.3,0-2.3,0.6-2.9,1.4l-0.6-0.6c0.7-1,2-1.6,3.5-1.6
		c1.6,0,3.3,0.9,3.3,3c0,2.3-2.5,4.5-5.5,6.9h5.6v0.8L170.7,204.5L170.7,204.5z M183.8,193.8c2.8,0,3.9,2.9,3.9,5.4
		s-1.1,5.5-3.9,5.5c-2.8,0-3.9-3-3.9-5.5C179.8,196.7,180.9,193.8,183.8,193.8z M183.8,194.6c-2.2,0-2.9,2.4-2.9,4.6
		c0,2.2,0.7,4.6,2.9,4.6s2.9-2.5,2.9-4.6C186.7,197,186,194.6,183.8,194.6z M193.2,204.5v-9.3l-2.5,2.7l-0.6-0.6l3.2-3.3h0.8v10.6
		L193.2,204.5L193.2,204.5z M198.8,202.7c0.5,0.7,1.2,1.2,2.3,1.2c2.3,0,3.1-2.4,3.1-4.6c0-0.2,0-0.3,0-0.5
		c-0.4,0.7-1.7,1.8-3.1,1.8c-1.9,0-3.4-1.1-3.4-3.4c0-1.7,1.3-3.4,3.5-3.4c2.9,0,3.9,2.6,3.9,5.5c0,2.7-1.1,5.4-4,5.4
		c-1.4,0-2.2-0.6-2.9-1.3L198.8,202.7z M201.3,194.6c-1.8,0-2.7,1.4-2.7,2.5c0,1.7,1.1,2.6,2.6,2.6c1.2,0,2.3-0.7,2.9-1.8
		C204,196.4,203.3,194.6,201.3,194.6z M207.3,201v-0.8h3.8v0.8H207.3z M212.3,204.5v-0.7c3.6-2.9,6-5,6-7c0-1.5-1.3-2.2-2.4-2.2
		c-1.3,0-2.3,0.6-2.9,1.4l-0.6-0.6c0.7-1,2-1.6,3.5-1.6c1.6,0,3.3,0.9,3.3,3c0,2.3-2.5,4.5-5.5,6.9h5.6v0.8L212.3,204.5L212.3,204.5
		z M225.3,193.8c2.8,0,3.9,2.9,3.9,5.4s-1.1,5.5-3.9,5.5s-3.9-3-3.9-5.5S222.5,193.8,225.3,193.8z M225.3,194.6
		c-2.2,0-2.9,2.4-2.9,4.6c0,2.2,0.7,4.6,2.9,4.6s2.9-2.5,2.9-4.6C228.2,197,227.5,194.6,225.3,194.6z"/>
	<path d="M256.8,204.4v-0.7c3.6-2.9,6-5,6-7c0-1.5-1.3-2.2-2.4-2.2c-1.3,0-2.3,0.6-2.9,1.4l-0.6-0.6c0.7-1,2-1.6,3.5-1.6
		c1.6,0,3.3,0.9,3.3,3c0,2.3-2.5,4.5-5.5,6.9h5.6v0.8L256.8,204.4L256.8,204.4z M269.8,193.7c2.8,0,3.9,2.9,3.9,5.4
		s-1.1,5.5-3.9,5.5s-3.9-3-3.9-5.5C265.9,196.6,267,193.7,269.8,193.7z M269.8,194.5c-2.2,0-2.9,2.4-2.9,4.6c0,2.2,0.7,4.6,2.9,4.6
		s2.9-2.5,2.9-4.6S272,194.5,269.8,194.5z M279.3,204.4v-9.3l-2.5,2.7l-0.6-0.6l3.2-3.3h0.8v10.6L279.3,204.4L279.3,204.4z
		 M286.6,199c-1.3-0.3-2.5-1.1-2.5-2.6c0-1.9,1.7-2.7,3.4-2.7c1.6,0,3.4,0.9,3.4,2.7c0,1.4-1.2,2.2-2.5,2.6c1.3,0.4,2.6,1.3,2.6,2.8
		c0,1.7-1.6,2.8-3.6,2.8s-3.6-1.1-3.6-2.8C283.9,200.3,285.2,199.3,286.6,199z M287.5,199.4c-0.6,0.1-2.7,0.7-2.7,2.3
		c0,1.3,1.3,2.1,2.7,2.1c1.4,0,2.7-0.8,2.7-2.1C290.2,200.1,288.2,199.5,287.5,199.4z M287.5,194.5c-1.4,0-2.5,0.7-2.5,2
		c0,1.5,1.9,1.9,2.5,2.1c0.6-0.1,2.5-0.6,2.5-2.1C290,195.2,288.9,194.5,287.5,194.5z M293.2,201v-0.8h3.8v0.8H293.2z M301.7,204.4
		v-9.3l-2.5,2.7l-0.6-0.6l3.2-3.3h0.8v10.6L301.7,204.4L301.7,204.4z M307.2,202.6c0.5,0.7,1.2,1.2,2.3,1.2c2.3,0,3.1-2.4,3.1-4.6
		c0-0.2,0-0.3,0-0.5c-0.4,0.7-1.7,1.8-3.1,1.8c-1.9,0-3.4-1.1-3.4-3.4c0-1.7,1.3-3.4,3.5-3.4c2.9,0,3.9,2.6,3.9,5.5
		c0,2.7-1.1,5.4-4,5.4c-1.4,0-2.2-0.6-2.9-1.3L307.2,202.6z M309.7,194.5c-1.8,0-2.7,1.4-2.7,2.5c0,1.7,1.1,2.6,2.6,2.6
		c1.2,0,2.3-0.7,2.9-1.8C312.5,196.3,311.7,194.5,309.7,194.5z"/>
	<path d="M342.7,204.6v-0.8c3.6-2.9,6-5,6-7c0-1.5-1.3-2.2-2.4-2.2c-1.3,0-2.3,0.6-2.9,1.4l-0.6-0.6c0.7-1,2-1.6,3.5-1.6
		c1.6,0,3.3,0.9,3.3,3c0,2.3-2.5,4.5-5.5,6.9h5.6v0.8h-7V204.6z M355.7,193.9c2.8,0,3.9,2.9,3.9,5.4s-1.1,5.5-3.9,5.5
		s-3.9-3-3.9-5.5S352.9,193.9,355.7,193.9z M355.7,194.7c-2.2,0-2.9,2.4-2.9,4.6c0,2.2,0.7,4.6,2.9,4.6c2.2,0,2.9-2.5,2.9-4.6
		C358.7,197.1,358,194.7,355.7,194.7z M365.2,204.6v-9.3l-2.5,2.7l-0.6-0.6l3.2-3.3h0.8v10.6L365.2,204.6L365.2,204.6z M371.2,204.6
		l4.5-9.7h-5.8v-0.8h6.9v0.6l-4.5,9.9H371.2z M377.8,201.1v-0.8h3.8v0.8H377.8z M386.3,204.6v-9.3l-2.5,2.7l-0.6-0.6l3.2-3.3h0.8
		v10.6L386.3,204.6L386.3,204.6z M393.6,199.1c-1.3-0.3-2.5-1.1-2.5-2.6c0-1.9,1.7-2.7,3.4-2.7c1.6,0,3.4,0.9,3.4,2.7
		c0,1.4-1.2,2.2-2.5,2.6c1.3,0.4,2.6,1.3,2.6,2.8c0,1.7-1.6,2.8-3.6,2.8s-3.6-1.1-3.6-2.8C390.9,200.5,392.2,199.5,393.6,199.1z
		 M394.5,199.5c-0.6,0.1-2.7,0.7-2.7,2.3c0,1.3,1.3,2.1,2.7,2.1c1.4,0,2.7-0.8,2.7-2.1C397.2,200.3,395.2,199.6,394.5,199.5z
		 M394.5,194.7c-1.4,0-2.5,0.7-2.5,2c0,1.5,1.9,1.9,2.5,2.1c0.6-0.1,2.5-0.6,2.5-2.1C397,195.4,395.9,194.7,394.5,194.7z"/>
	<g>
		<g>
			<g>
				<g>
					<defs>
						<rect id="SVGID_1_" x="10" y="45.6" width="28.8" height="153.4"/>
					</defs>
					<clipPath id="SVGID_00000090255432802595797610000000264764448600753300_">
						<use xlink:href="#SVGID_1_"  style="overflow:visible;"/>
					</clipPath>
					
						<rect x="24.8" y="55.1" style="clip-path:url(#SVGID_00000090255432802595797610000000264764448600753300_);fill:#076AAA;" width="12" height="134.4"/>
				</g>
			</g>
		</g>
		<line class="st2" x1="30.8" y1="189.5" x2="30.8" y2="21.2"/>
		<path class="st3" d="M29.6,11.3V9h-5.4V7.1l4.5-7H32v6.8h1.5V9H32v2.3C32,11.3,29.6,11.3,29.6,11.3z M29.6,2.2l-3,4.7h3V2.2z"/>
	</g>
	<g>
		<defs>
			<filter id="Adobe_OpacityMaskFilter" filterUnits="userSpaceOnUse" x="93.1" y="78.9" width="28.8" height="120.1">
				<feColorMatrix  type="matrix" values="1 0 0 0 0  0 1 0 0 0  0 0 1 0 0  0 0 0 1 0"/>
			</filter>
		</defs>
		
			<mask maskUnits="userSpaceOnUse" x="93.1" y="78.9" width="28.8" height="120.1" id="SVGID_00000021824281228714388270000016024684452298161342_">
			<g class="st4">
				
					<linearGradient id="SVGID_00000132053001168457296690000006698687434739522190_" gradientUnits="userSpaceOnUse" x1="-148.5083" y1="-163.5059" x2="-147.4514" y2="-163.5059" gradientTransform="matrix(-2.000000e-15 27.3743 -27.3743 -2.000000e-15 -4824.3101 4225.8618)">
					<stop  offset="0" style="stop-color:#FFFFFF"/>
					<stop  offset="1" style="stop-color:#000000"/>
				</linearGradient>
				
					<rect x="-1236.7" y="-87.2" style="fill:url(#SVGID_00000132053001168457296690000006698687434739522190_);" width="1776.5" height="629.1"/>
			</g>
		</mask>
		<g class="st6">
			<g>
				<g>
					<defs>
						<rect id="SVGID_00000031191016997545225600000001162453727602561685_" x="93.1" y="78.9" width="28.8" height="120.1"/>
					</defs>
					<clipPath id="SVGID_00000111191711208293070950000013489564222992783281_">
						<use xlink:href="#SVGID_00000031191016997545225600000001162453727602561685_"  style="overflow:visible;"/>
					</clipPath>
					
						<rect x="107.8" y="88.4" style="clip-path:url(#SVGID_00000111191711208293070950000013489564222992783281_);fill:#939598;" width="12" height="101"/>
				</g>
			</g>
		</g>
		<line class="st2" x1="113.8" y1="189.5" x2="113.8" y2="21.2"/>
		<path class="st8" d="M109.1,9.3c0.6,0.9,1.7,1.6,3.2,1.6c1.7,0,2.8-0.9,2.8-2.4c0-1.6-1.3-2.3-3-2.3c-0.5,0-0.9,0-1,0V5.3
			c0.2,0,0.6,0,1,0c1.5,0,2.9-0.6,2.9-2.1c0-1.4-1.2-2.2-2.7-2.2c-1.3,0-2.2,0.5-3,1.4l-0.6-0.6c0.8-1,2-1.7,3.7-1.7
			c2,0,3.6,1.1,3.6,3c0,1.7-1.5,2.5-2.4,2.6c1,0.1,2.6,0.9,2.6,2.8s-1.4,3.2-3.8,3.2c-1.8,0-3.2-0.9-3.8-1.9L109.1,9.3z"/>
	</g>
	<g>
		<defs>
			
				<filter id="Adobe_OpacityMaskFilter_00000050657097209851081150000007191790658675955598_" filterUnits="userSpaceOnUse" x="179.7" y="11.7" width="28.8" height="187.2">
				<feColorMatrix  type="matrix" values="1 0 0 0 0  0 1 0 0 0  0 0 1 0 0  0 0 0 1 0"/>
			</filter>
		</defs>
		
			<mask maskUnits="userSpaceOnUse" x="179.7" y="11.7" width="28.8" height="187.2" id="SVGID_00000016765988688405572590000004657373305884455088_">
			<g style="filter:url(#Adobe_OpacityMaskFilter_00000050657097209851081150000007191790658675955598_);">
				
					<linearGradient id="SVGID_00000037659076398862842980000003661440767669098147_" gradientUnits="userSpaceOnUse" x1="-147.6538" y1="-172.8338" x2="-146.5969" y2="-172.8338" gradientTransform="matrix(-3.000000e-15 41.1591 -41.1591 -3.000000e-15 -7404.833 6223.312)">
					<stop  offset="0" style="stop-color:#FFFFFF"/>
					<stop  offset="1" style="stop-color:#000000"/>
				</linearGradient>
				
					<rect x="-1179.4" y="-87.2" style="fill:url(#SVGID_00000037659076398862842980000003661440767669098147_);" width="1776.5" height="629.1"/>
			</g>
		</mask>
		<g class="st11">
			<g>
				<g>
					<defs>
						<rect id="SVGID_00000087377173802819820350000002902722180509366440_" x="179.7" y="11.7" width="28.8" height="187.2"/>
					</defs>
					<clipPath id="SVGID_00000026138080322529306740000001783551351217582464_">
						<use xlink:href="#SVGID_00000087377173802819820350000002902722180509366440_"  style="overflow:visible;"/>
					</clipPath>
					
						<rect x="194.5" y="21.2" style="clip-path:url(#SVGID_00000026138080322529306740000001783551351217582464_);fill:#939598;" width="12" height="168.2"/>
				</g>
			</g>
		</g>
		<line class="st2" x1="200.5" y1="189.5" x2="200.5" y2="21.2"/>
		<path class="st8" d="M196.2,9.1c0.7,1,1.7,1.6,3.2,1.6c1.6,0,2.8-1.2,2.8-2.7c0-1.7-1.2-2.8-2.8-2.8c-1,0-1.9,0.3-2.7,1.1L196,6
			V0.1h6.5V1H197v4.4c0.5-0.5,1.5-1,2.7-1c1.9,0,3.6,1.2,3.6,3.6c0,2.2-1.7,3.6-3.8,3.6c-1.9,0-3-0.7-3.8-1.8L196.2,9.1z"/>
	</g>
	<g>
		<defs>
			
				<filter id="Adobe_OpacityMaskFilter_00000106847024671577010010000000351042641731362183_" filterUnits="userSpaceOnUse" x="263.8" y="78.9" width="28.8" height="120.1">
				<feColorMatrix  type="matrix" values="1 0 0 0 0  0 1 0 0 0  0 0 1 0 0  0 0 0 1 0"/>
			</filter>
		</defs>
		
			<mask maskUnits="userSpaceOnUse" x="263.8" y="78.9" width="28.8" height="120.1" id="SVGID_00000158742324187163082510000010680532624485387684_">
			<g style="filter:url(#Adobe_OpacityMaskFilter_00000106847024671577010010000000351042641731362183_);">
				
					<linearGradient id="SVGID_00000069394200017082614200000005698530930234912407_" gradientUnits="userSpaceOnUse" x1="-148.8747" y1="-164.7611" x2="-147.8178" y2="-164.7611" gradientTransform="matrix(-1.000000e-15 23.9371 -23.9371 -1.000000e-15 -4180.8535 3727.8015)">
					<stop  offset="0" style="stop-color:#FFFFFF"/>
					<stop  offset="1" style="stop-color:#000000"/>
				</linearGradient>
				
					<rect x="-1125.2" y="-87.2" style="fill:url(#SVGID_00000069394200017082614200000005698530930234912407_);" width="1776.5" height="629.1"/>
			</g>
		</mask>
		<g class="st15">
			<g>
				<g>
					<defs>
						<rect id="SVGID_00000008868311512278968890000007089575269942378133_" x="263.8" y="78.9" width="28.8" height="120.1"/>
					</defs>
					<clipPath id="SVGID_00000178189181058170716640000000644568749088973957_">
						<use xlink:href="#SVGID_00000008868311512278968890000007089575269942378133_"  style="overflow:visible;"/>
					</clipPath>
					
						<rect x="278.6" y="88.4" style="clip-path:url(#SVGID_00000178189181058170716640000000644568749088973957_);fill:#939598;" width="12" height="101"/>
				</g>
			</g>
		</g>
		<line class="st2" x1="284.5" y1="189.5" x2="284.5" y2="21.2"/>
		<path class="st8" d="M281.4,9.3c0.6,0.9,1.7,1.6,3.2,1.6c1.7,0,2.8-0.9,2.8-2.4c0-1.6-1.3-2.3-3-2.3c-0.5,0-0.9,0-1,0V5.3
			c0.2,0,0.6,0,1,0c1.5,0,2.9-0.6,2.9-2.1c0-1.4-1.2-2.2-2.7-2.2c-1.3,0-2.2,0.5-3,1.4L281,1.8c0.8-1,2-1.7,3.7-1.7
			c2,0,3.6,1.1,3.6,3c0,1.7-1.5,2.5-2.4,2.6c1,0.1,2.6,0.9,2.6,2.8s-1.4,3.2-3.8,3.2c-1.8,0-3.2-0.9-3.8-1.9L281.4,9.3z"/>
	</g>
	<g>
		<defs>
			
				<filter id="Adobe_OpacityMaskFilter_00000155123436189070442040000011105198635535683772_" filterUnits="userSpaceOnUse" x="352.4" y="45.6" width="28.8" height="153.3">
				<feColorMatrix  type="matrix" values="1 0 0 0 0  0 1 0 0 0  0 0 1 0 0  0 0 0 1 0"/>
			</filter>
		</defs>
		
			<mask maskUnits="userSpaceOnUse" x="352.4" y="45.6" width="28.8" height="153.3" id="SVGID_00000161597828209181219330000004927504291745463955_">
			<g style="filter:url(#Adobe_OpacityMaskFilter_00000155123436189070442040000011105198635535683772_);">
				
					<linearGradient id="SVGID_00000161591202347347985240000004194942738085691801_" gradientUnits="userSpaceOnUse" x1="-147.7504" y1="-174.9174" x2="-146.6935" y2="-174.9174" gradientTransform="matrix(-2.000000e-15 38.9405 -38.9405 -2.000000e-15 -6989.5195 5901.833)">
					<stop  offset="0" style="stop-color:#FFFFFF"/>
					<stop  offset="1" style="stop-color:#000000"/>
				</linearGradient>
				
					<rect x="-1066.4" y="-87.2" style="fill:url(#SVGID_00000161591202347347985240000004194942738085691801_);" width="1776.5" height="629.1"/>
			</g>
		</mask>
		<g class="st19">
			<g>
				<g>
					<defs>
						<rect id="SVGID_00000051373531876683187760000009810622538428063377_" x="352.4" y="45.6" width="28.8" height="153.3"/>
					</defs>
					<clipPath id="SVGID_00000118378519752453127880000011492402504236846005_">
						<use xlink:href="#SVGID_00000051373531876683187760000009810622538428063377_"  style="overflow:visible;"/>
					</clipPath>
					
						<rect x="367.2" y="55.1" style="clip-path:url(#SVGID_00000118378519752453127880000011492402504236846005_);fill:#939598;" width="12" height="134.3"/>
				</g>
			</g>
		</g>
		<line class="st2" x1="373.2" y1="189.5" x2="373.2" y2="21.2"/>
		<path class="st8" d="M373.5,11.3V8.2h-5.3V7.3l5-7.3h1.3v7.3h1.6v0.9h-1.6v3.1H373.5z M373.5,1.1l-4.3,6.3h4.3V1.1z"/>
	</g>
</g>
</svg>
