<?xml version="1.0" encoding="utf-8"?>
<!-- Generator: Adobe Illustrator 26.4.0, SVG Export Plug-In . SVG Version: 6.00 Build 0)  -->
<svg version="1.1" id="Layer_1" xmlns="http://www.w3.org/2000/svg" xmlns:xlink="http://www.w3.org/1999/xlink" x="0px" y="0px"
	 viewBox="0 0 399.9 203.9" style="enable-background:new 0 0 399.9 203.9;" xml:space="preserve">
<style type="text/css">
	.st0{fill:#0069AA;}
	.st1{fill:none;stroke:#FFFFFF;}
	.st2{clip-path:url(#SVGID_00000060022270478567540870000017973173567669998233_);fill:#076AAA;}
	.st3{fill:#076AAA;}
	.st4{filter:url(#Adobe_OpacityMaskFilter);}
	.st5{fill:url(#SVGID_00000072271893804632169690000008801892902373165732_);}
	.st6{mask:url(#SVGID_00000165210265496627131500000018353960449369043627_);}
	.st7{clip-path:url(#SVGID_00000116226932394421947590000008060958006110341255_);fill:#939598;}
	.st8{fill:#4E4E50;}
	.st9{filter:url(#Adobe_OpacityMaskFilter_00000132090408095071349800000011689211239330523802_);}
	.st10{fill:url(#SVGID_00000002382224468030930550000007740491243106016936_);}
	.st11{mask:url(#SVGID_00000150810686771906427270000017654914248110446012_);}
	.st12{clip-path:url(#SVGID_00000132781266236335500390000012375666793170880668_);fill:#939598;}
	.st13{filter:url(#Adobe_OpacityMaskFilter_00000127753197695156453090000008786507227213232059_);}
	.st14{fill:url(#SVGID_00000030487096729166455360000013804091288694310328_);}
	.st15{mask:url(#SVGID_00000026126977181257457840000012543946341695879349_);}
	.st16{clip-path:url(#SVGID_00000138531383680478082160000010328854920522984326_);fill:#939598;}
</style>
<g>
	<path class="st0" d="M0.2,203.7v-1.3c4-3.1,5.8-4.6,5.8-6.3c0-1.2-1.1-1.8-2.1-1.8c-1.3,0-2.2,0.5-2.9,1.3l-1-1
		c0.9-1.1,2.3-1.7,3.8-1.7c1.9,0,3.7,1.1,3.7,3.2c0,2.1-2,3.9-4.9,6.2h5v1.4L0.2,203.7L0.2,203.7z M13.6,192.9
		c2.9,0,4.2,2.8,4.2,5.5c0,2.6-1.2,5.5-4.2,5.5c-2.9,0-4.2-2.9-4.2-5.5C9.5,195.7,10.7,192.9,13.6,192.9z M13.6,194.3
		c-1.9,0-2.5,2-2.5,4.1s0.7,4.1,2.5,4.1c1.9,0,2.5-2,2.5-4.1S15.5,194.3,13.6,194.3z M19.3,203.7v-1.3c4-3.1,5.8-4.6,5.8-6.3
		c0-1.2-1.1-1.8-2.1-1.8c-1.3,0-2.2,0.5-2.9,1.3l-1-1c0.9-1.1,2.3-1.7,3.8-1.7c1.9,0,3.7,1.1,3.7,3.2c0,2.1-2,3.9-4.9,6.2h5v1.4
		L19.3,203.7L19.3,203.7z M32.2,203.7v-8.5l-2,2.1l-0.9-1l3.1-3.2h1.4v10.6L32.2,203.7L32.2,203.7z M37.2,200.4v-1.2H41v1.2H37.2z
		 M42.2,203.7v-1.3c4-3.1,5.8-4.6,5.8-6.3c0-1.2-1.1-1.8-2.1-1.8c-1.3,0-2.2,0.5-2.9,1.3l-1-1c0.9-1.1,2.3-1.7,3.8-1.7
		c1.9,0,3.7,1.1,3.7,3.2c0,2.1-2,3.9-4.9,6.2h5v1.4L42.2,203.7L42.2,203.7z M51.8,203.7v-1.3c4-3.1,5.8-4.6,5.8-6.3
		c0-1.2-1.1-1.8-2.1-1.8c-1.3,0-2.2,0.5-2.9,1.3l-1-1c0.9-1.1,2.3-1.7,3.8-1.7c1.9,0,3.7,1.1,3.7,3.2c0,2.1-2,3.9-4.9,6.2h5v1.4
		L51.8,203.7L51.8,203.7z"/>
	<path d="M87,203.6v-0.8c3.6-2.9,6-5,6-7c0-1.5-1.3-2.2-2.4-2.2c-1.3,0-2.3,0.6-2.9,1.4l-0.6-0.6c0.7-1,2-1.6,3.5-1.6
		c1.6,0,3.3,0.9,3.3,3c0,2.3-2.5,4.5-5.5,7H94v0.8L87,203.6L87,203.6z M100.1,192.8c2.8,0,3.9,2.9,3.9,5.5c0,2.5-1.1,5.5-3.9,5.5
		s-3.9-3-3.9-5.5C96.2,195.7,97.2,192.8,100.1,192.8z M100.1,193.6c-2.2,0-3,2.5-3,4.6c0,2.2,0.7,4.7,3,4.7c2.2,0,3-2.5,3-4.7
		C103,196.1,102.3,193.6,100.1,193.6z M105.8,203.6v-0.8c3.6-2.9,6-5,6-7c0-1.5-1.3-2.2-2.4-2.2c-1.3,0-2.3,0.6-2.9,1.4l-0.6-0.6
		c0.7-1,2-1.6,3.5-1.6c1.6,0,3.3,0.9,3.3,3c0,2.3-2.5,4.5-5.5,7h5.6v0.8L105.8,203.6L105.8,203.6z M118.8,192.8
		c2.8,0,3.9,2.9,3.9,5.5c0,2.5-1.1,5.5-3.9,5.5s-3.9-3-3.9-5.5C114.9,195.7,116,192.8,118.8,192.8z M118.8,193.6c-2.2,0-3,2.5-3,4.6
		c0,2.2,0.7,4.7,3,4.7c2.2,0,3-2.5,3-4.7C121.8,196.1,121.1,193.6,118.8,193.6z M124.8,200.1v-0.8h3.8v0.8H124.8z M129.8,203.6v-0.8
		c3.6-2.9,6-5,6-7c0-1.5-1.3-2.2-2.4-2.2c-1.3,0-2.3,0.6-2.9,1.4l-0.6-0.6c0.7-1,2-1.6,3.5-1.6c1.6,0,3.3,0.9,3.3,3
		c0,2.3-2.5,4.5-5.5,7h5.6v0.8L129.8,203.6L129.8,203.6z M142.7,203.6v-9.4l-2.5,2.7l-0.6-0.6l3.2-3.3h0.8v10.6H142.7z"/>
	<path d="M171.6,203.5v-0.7c3.6-2.9,6-5,6-7c0-1.5-1.3-2.2-2.4-2.2c-1.3,0-2.3,0.6-2.9,1.4l-0.6-0.6c0.7-1,2-1.6,3.5-1.6
		c1.6,0,3.3,0.9,3.3,3c0,2.3-2.5,4.5-5.5,7h5.6v0.8L171.6,203.5L171.6,203.5z M184.7,192.7c2.8,0,3.9,2.9,3.9,5.5
		c0,2.5-1.1,5.5-3.9,5.5c-2.8,0-3.9-3-3.9-5.5C180.8,195.7,181.8,192.7,184.7,192.7z M184.7,193.6c-2.2,0-3,2.5-3,4.6
		c0,2.2,0.7,4.7,3,4.7c2.2,0,3-2.5,3-4.7C187.6,196,186.9,193.6,184.7,193.6z M194.2,203.5v-9.4l-2.5,2.7l-0.6-0.6l3.2-3.3h0.8v10.6
		H194.2z M199.8,201.7c0.5,0.7,1.2,1.2,2.3,1.2c2.3,0,3.1-2.4,3.1-4.7c0-0.2,0-0.3,0-0.5c-0.4,0.7-1.7,1.8-3.1,1.8
		c-1.9,0-3.4-1.1-3.4-3.4c0-1.7,1.3-3.4,3.6-3.4c2.9,0,3.9,2.6,3.9,5.5c0,2.7-1.1,5.5-4.1,5.5c-1.4,0-2.2-0.6-2.9-1.4L199.8,201.7z
		 M202.3,193.5c-1.8,0-2.7,1.4-2.7,2.5c0,1.7,1.1,2.6,2.7,2.6c1.2,0,2.3-0.7,2.9-1.8C205,195.4,204.3,193.5,202.3,193.5z M208.3,200
		v-0.8h3.8v0.8H208.3z M213.3,203.5v-0.7c3.6-2.9,6-5,6-7c0-1.5-1.3-2.2-2.4-2.2c-1.3,0-2.3,0.6-2.9,1.4l-0.6-0.6
		c0.7-1,2-1.6,3.5-1.6c1.6,0,3.3,0.9,3.3,3c0,2.3-2.5,4.5-5.5,7h5.6v0.8L213.3,203.5L213.3,203.5z M226.4,192.7
		c2.8,0,3.9,2.9,3.9,5.5c0,2.5-1.1,5.5-3.9,5.5s-3.9-3-3.9-5.5C222.5,195.7,223.6,192.7,226.4,192.7z M226.4,193.6
		c-2.2,0-3,2.5-3,4.6c0,2.2,0.7,4.7,3,4.7c2.2,0,3-2.5,3-4.7C229.4,196,228.7,193.6,226.4,193.6z"/>
	<path d="M258.1,203.4v-0.7c3.6-2.9,6-5,6-7c0-1.5-1.3-2.2-2.4-2.2c-1.3,0-2.3,0.6-2.9,1.4l-0.6-0.6c0.7-1,2-1.6,3.5-1.6
		c1.6,0,3.3,0.9,3.3,3c0,2.3-2.5,4.5-5.5,7h5.6v0.8L258.1,203.4L258.1,203.4z M271.2,192.6c2.8,0,3.9,2.9,3.9,5.5
		c0,2.5-1.1,5.5-3.9,5.5s-3.9-3-3.9-5.5C267.2,195.6,268.3,192.6,271.2,192.6z M271.2,193.5c-2.2,0-3,2.5-3,4.6c0,2.2,0.7,4.7,3,4.7
		c2.2,0,3-2.5,3-4.7C274.1,195.9,273.4,193.5,271.2,193.5z M280.7,203.4V194l-2.5,2.7l-0.6-0.6l3.2-3.3h0.8v10.6H280.7z M288,197.9
		c-1.3-0.3-2.5-1.1-2.5-2.6c0-1.9,1.8-2.7,3.4-2.7c1.7,0,3.4,0.9,3.4,2.7c0,1.4-1.2,2.2-2.5,2.6c1.4,0.4,2.6,1.3,2.6,2.8
		c0,1.7-1.6,2.8-3.6,2.8c-2.1,0-3.6-1.1-3.6-2.8C285.3,199.3,286.6,198.3,288,197.9z M289,198.3c-0.7,0.1-2.7,0.7-2.7,2.3
		c0,1.3,1.3,2.1,2.7,2.1c1.4,0,2.7-0.8,2.7-2.1C291.6,199.1,289.6,198.4,289,198.3z M289,193.5c-1.4,0-2.5,0.7-2.5,2
		c0,1.5,1.9,2,2.5,2.1c0.7-0.1,2.5-0.6,2.5-2.1C291.5,194.2,290.3,193.5,289,193.5z M294.6,199.9v-0.8h3.8v0.8H294.6z M303.2,203.4
		V194l-2.5,2.7l-0.6-0.6l3.2-3.3h0.8v10.6H303.2z M308.8,201.6c0.5,0.7,1.2,1.2,2.3,1.2c2.3,0,3.1-2.4,3.1-4.7c0-0.2,0-0.3,0-0.5
		c-0.4,0.7-1.7,1.8-3.1,1.8c-1.9,0-3.4-1.1-3.4-3.4c0-1.7,1.3-3.4,3.6-3.4c2.9,0,3.9,2.6,3.9,5.5c0,2.7-1.1,5.5-4.1,5.5
		c-1.4,0-2.2-0.6-2.9-1.4L308.8,201.6z M311.3,193.4c-1.8,0-2.7,1.4-2.7,2.5c0,1.7,1.1,2.6,2.7,2.6c1.2,0,2.3-0.7,2.9-1.8
		C314,195.3,313.3,193.4,311.3,193.4z"/>
	<path d="M344.4,203.6v-0.8c3.6-2.9,6-5,6-7c0-1.5-1.3-2.2-2.4-2.2c-1.3,0-2.3,0.6-2.9,1.4l-0.6-0.6c0.7-1,2-1.6,3.5-1.6
		c1.6,0,3.3,0.9,3.3,3c0,2.3-2.5,4.5-5.5,7h5.6v0.8L344.4,203.6L344.4,203.6z M357.5,192.8c2.8,0,3.9,2.9,3.9,5.5
		c0,2.5-1.1,5.5-3.9,5.5s-3.9-3-3.9-5.5C353.6,195.7,354.6,192.8,357.5,192.8z M357.5,193.6c-2.2,0-3,2.5-3,4.6c0,2.2,0.7,4.7,3,4.7
		c2.2,0,3-2.5,3-4.7C360.5,196.1,359.7,193.6,357.5,193.6z M367,203.6v-9.4l-2.5,2.7l-0.6-0.6l3.2-3.3h0.8v10.6H367z M373,203.6
		l4.5-9.8h-5.9V193h6.9v0.6l-4.5,10H373z M379.6,200.1v-0.8h3.8v0.8H379.6z M388.2,203.6v-9.4l-2.5,2.7l-0.6-0.6l3.2-3.3h0.8v10.6
		H388.2z M395.5,198.1c-1.3-0.3-2.5-1.1-2.5-2.6c0-1.9,1.8-2.7,3.4-2.7c1.7,0,3.4,0.9,3.4,2.7c0,1.4-1.2,2.2-2.5,2.6
		c1.4,0.4,2.6,1.3,2.6,2.8c0,1.7-1.6,2.8-3.6,2.8c-2.1,0-3.6-1.1-3.6-2.8C392.9,199.4,394.2,198.5,395.5,198.1z M396.5,198.5
		c-0.7,0.1-2.7,0.7-2.7,2.3c0,1.3,1.3,2.1,2.7,2.1c1.4,0,2.7-0.8,2.7-2.1C399.2,199.2,397.1,198.6,396.5,198.5z M396.5,193.6
		c-1.4,0-2.5,0.7-2.5,2c0,1.5,1.9,2,2.5,2.1c0.7-0.1,2.5-0.6,2.5-2.1C399,194.4,397.9,193.6,396.5,193.6z"/>
	<line class="st1" x1="316.1" y1="188.6" x2="316.1" y2="30.5"/>
	<g>
		<g>
			<g>
				<g>
					<defs>
						<rect id="SVGID_1_" x="10.6" y="122.3" width="29" height="75.2"/>
					</defs>
					<clipPath id="SVGID_00000041296803006567834660000003799798704984155525_">
						<use xlink:href="#SVGID_1_"  style="overflow:visible;"/>
					</clipPath>
					
						<rect x="25.4" y="131.3" style="clip-path:url(#SVGID_00000041296803006567834660000003799798704984155525_);fill:#076AAA;" width="12" height="57.4"/>
				</g>
			</g>
		</g>
		<line class="st1" x1="31.4" y1="188.6" x2="31.4" y2="30.5"/>
		<path class="st3" d="M14.3,6.2c0-2.9,1.4-5.8,4.7-5.8s4.7,2.9,4.7,5.8S22.3,12,19,12S14.3,9.2,14.3,6.2z M21.2,6.2
			c0-2.1-0.6-3.7-2.2-3.7s-2.2,1.6-2.2,3.7s0.6,3.7,2.2,3.7S21.2,8.3,21.2,6.2z M24.8,10.7c0-0.7,0.6-1.4,1.4-1.4s1.4,0.6,1.4,1.4
			s-0.6,1.4-1.4,1.4S24.8,11.4,24.8,10.7z M28.6,6.2c0-2.9,1.4-5.8,4.7-5.8c3.2,0,4.7,2.9,4.7,5.8S36.6,12,33.3,12
			C30.1,12.1,28.6,9.2,28.6,6.2z M35.5,6.2c0-2.1-0.6-3.7-2.2-3.7c-1.6,0-2.2,1.6-2.2,3.7s0.6,3.7,2.2,3.7
			C34.9,10,35.5,8.3,35.5,6.2z M39.4,8.9c0-1.4,1.1-2.4,2.4-2.9c-1.3-0.4-2.2-1.3-2.2-2.7c0-2.1,2.3-3,4.4-3c2.1,0,4.4,0.8,4.4,3
			c0,1.4-1,2.2-2.2,2.7c1.3,0.5,2.4,1.5,2.4,2.9c0,2.1-2.2,3.1-4.5,3.1C41.6,12.1,39.4,11.1,39.4,8.9z M46,8.6
			c0-0.9-1.4-1.4-2.1-1.5c-0.7,0.1-2.1,0.5-2.1,1.5c0,0.8,0.9,1.3,2.1,1.3C45.1,10,46,9.4,46,8.6z M45.8,3.8c0-0.8-0.8-1.3-1.9-1.3
			C42.8,2.5,42,3,42,3.8s1.2,1.2,1.9,1.3C44.6,5,45.8,4.6,45.8,3.8z"/>
	</g>
	<g>
		<defs>
			<filter id="Adobe_OpacityMaskFilter" filterUnits="userSpaceOnUse" x="93" y="21.6" width="29" height="175.9">
				<feColorMatrix  type="matrix" values="1 0 0 0 0  0 1 0 0 0  0 0 1 0 0  0 0 0 1 0"/>
			</filter>
		</defs>
		
			<mask maskUnits="userSpaceOnUse" x="93" y="21.6" width="29" height="175.9" id="SVGID_00000165210265496627131500000018353960449369043627_">
			<g class="st4">
				
					<linearGradient id="SVGID_00000077286428400727803550000013692502933623676315_" gradientUnits="userSpaceOnUse" x1="-154.9069" y1="-181.7621" x2="-153.914" y2="-181.7621" gradientTransform="matrix(-3.000000e-15 45.5664 -45.5664 -3.000000e-15 -7979.5454 7201.9409)">
					<stop  offset="0" style="stop-color:#FFFFFF"/>
					<stop  offset="1" style="stop-color:#000000"/>
				</linearGradient>
				
					<rect x="-589.9" y="-311.7" style="fill:url(#SVGID_00000077286428400727803550000013692502933623676315_);" width="1785.2" height="591.1"/>
			</g>
		</mask>
		<g class="st6">
			<g>
				<g>
					<defs>
						<rect id="SVGID_00000047773665555008594330000010583359448438803870_" x="93" y="21.6" width="29" height="175.9"/>
					</defs>
					<clipPath id="SVGID_00000006678979693873591630000000222003405408664216_">
						<use xlink:href="#SVGID_00000047773665555008594330000010583359448438803870_"  style="overflow:visible;"/>
					</clipPath>
					
						<rect x="107.9" y="30.5" style="clip-path:url(#SVGID_00000006678979693873591630000000222003405408664216_);fill:#939598;" width="12" height="158"/>
				</g>
			</g>
		</g>
		<line class="st1" x1="113.9" y1="188.6" x2="113.9" y2="30.5"/>
		<path class="st8" d="M102.3,0.8c3,0,4.2,3.1,4.2,5.8s-1.1,5.8-4.2,5.8s-4.2-3.1-4.2-5.7C98.1,4,99.3,0.8,102.3,0.8z M102.3,1.7
			c-2.4,0-3.2,2.6-3.2,5c0,2.3,0.8,5,3.2,5s3.2-2.6,3.2-5C105.5,4.3,104.7,1.7,102.3,1.7z M109,11c0.4,0,0.8,0.3,0.8,0.7
			c0,0.4-0.4,0.8-0.8,0.8s-0.7-0.4-0.7-0.8C108.2,11.3,108.6,11,109,11z M112.2,12.3v-0.8c3.8-3.1,6.4-5.3,6.4-7.5
			c0-1.6-1.3-2.3-2.6-2.3c-1.4,0-2.5,0.6-3.1,1.5l-0.7-0.6c0.8-1.1,2.2-1.7,3.8-1.7c1.7,0,3.6,0.9,3.6,3.2c0,2.5-2.6,4.8-5.9,7.4h6
			v0.9h-7.5V12.3z M122.2,12.3v-0.8c3.8-3.1,6.4-5.3,6.4-7.5c0-1.6-1.3-2.3-2.6-2.3c-1.4,0-2.5,0.6-3.1,1.5l-0.7-0.6
			c0.8-1.1,2.2-1.7,3.8-1.7c1.7,0,3.6,0.9,3.6,3.2c0,2.5-2.6,4.8-5.9,7.4h6v0.9h-7.5V12.3z"/>
	</g>
	<g>
		<defs>
			
				<filter id="Adobe_OpacityMaskFilter_00000141417531256234363790000006480918921245789321_" filterUnits="userSpaceOnUse" x="180.6" y="165.2" width="29" height="32.2">
				<feColorMatrix  type="matrix" values="1 0 0 0 0  0 1 0 0 0  0 0 1 0 0  0 0 0 1 0"/>
			</filter>
		</defs>
		
			<mask maskUnits="userSpaceOnUse" x="180.6" y="165.2" width="29" height="32.2" id="SVGID_00000150810686771906427270000017654914248110446012_">
			<g style="filter:url(#Adobe_OpacityMaskFilter_00000141417531256234363790000006480918921245789321_);">
				
					<linearGradient id="SVGID_00000012457367588985857560000012394051252997560491_" gradientUnits="userSpaceOnUse" x1="-266.9336" y1="-125.3025" x2="-265.9406" y2="-125.3025" gradientTransform="matrix(0 3.7389 -3.7389 0 -107.5934 1182.8662)">
					<stop  offset="0" style="stop-color:#FFFFFF"/>
					<stop  offset="1" style="stop-color:#000000"/>
				</linearGradient>
				
					<rect x="-531.7" y="-311.7" style="fill:url(#SVGID_00000012457367588985857560000012394051252997560491_);" width="1785.2" height="591.1"/>
			</g>
		</mask>
		<g class="st11">
			<g>
				<g>
					<defs>
						<rect id="SVGID_00000178892111181648258160000012051065430466767764_" x="180.6" y="165.2" width="29" height="32.2"/>
					</defs>
					<clipPath id="SVGID_00000156578801583866245980000011455158412024238261_">
						<use xlink:href="#SVGID_00000178892111181648258160000012051065430466767764_"  style="overflow:visible;"/>
					</clipPath>
					
						<rect x="195.5" y="174.2" style="clip-path:url(#SVGID_00000156578801583866245980000011455158412024238261_);fill:#939598;" width="12" height="14.4"/>
				</g>
			</g>
		</g>
		<line class="st1" x1="201.5" y1="188.6" x2="201.5" y2="30.5"/>
		<path class="st8" d="M189.7,0c3,0,4.2,3.1,4.2,5.8s-1.1,5.8-4.2,5.8c-3,0-4.2-3.2-4.2-5.8C185.5,3.1,186.7,0,189.7,0z M189.7,0.9
			c-2.4,0-3.2,2.6-3.2,5c0,2.3,0.8,5,3.2,5s3.2-2.6,3.2-5S192.1,0.9,189.7,0.9z M196.4,10.1c0.4,0,0.8,0.3,0.8,0.7
			c0,0.4-0.4,0.8-0.8,0.8c-0.4,0-0.7-0.4-0.7-0.8C195.6,10.5,195.9,10.1,196.4,10.1z M203,0c3,0,4.2,3.1,4.2,5.8s-1.1,5.8-4.2,5.8
			c-3,0-4.2-3.2-4.2-5.8C198.8,3.1,200,0,203,0z M203,0.9c-2.4,0-3.2,2.6-3.2,5c0,2.3,0.8,5,3.2,5s3.2-2.6,3.2-5
			C206.1,3.5,205.4,0.9,203,0.9z M209,11.5v-0.8c3.8-3.1,6.4-5.3,6.4-7.5c0-1.6-1.3-2.3-2.6-2.3c-1.4,0-2.5,0.6-3.1,1.5L209,1.8
			c0.8-1.1,2.2-1.7,3.8-1.7c1.7,0,3.6,0.9,3.6,3.2c0,2.5-2.6,4.8-5.9,7.4h6v0.9H209V11.5z"/>
	</g>
	<g>
		<defs>
			
				<filter id="Adobe_OpacityMaskFilter_00000152956394503385629430000016127189670473064881_" filterUnits="userSpaceOnUse" x="265.2" y="122.3" width="29" height="75.2">
				<feColorMatrix  type="matrix" values="1 0 0 0 0  0 1 0 0 0  0 0 1 0 0  0 0 0 1 0"/>
			</filter>
		</defs>
		
			<mask maskUnits="userSpaceOnUse" x="265.2" y="122.3" width="29" height="75.2" id="SVGID_00000026126977181257457840000012543946341695879349_">
			<g style="filter:url(#Adobe_OpacityMaskFilter_00000152956394503385629430000016127189670473064881_);">
				
					<linearGradient id="SVGID_00000075121572878068915440000012185946169664836005_" gradientUnits="userSpaceOnUse" x1="-176.4846" y1="-175.6903" x2="-175.4917" y2="-175.6903" gradientTransform="matrix(-1.000000e-15 14.4437 -14.4437 -1.000000e-15 -2122.2185 2723.3079)">
					<stop  offset="0" style="stop-color:#FFFFFF"/>
					<stop  offset="1" style="stop-color:#000000"/>
				</linearGradient>
				
					<rect x="-477.2" y="-311.7" style="fill:url(#SVGID_00000075121572878068915440000012185946169664836005_);" width="1785.2" height="591.1"/>
			</g>
		</mask>
		<g class="st15">
			<g>
				<g>
					<defs>
						<rect id="SVGID_00000097468666608632718750000009573183992475711877_" x="265.2" y="122.3" width="29" height="75.2"/>
					</defs>
					<clipPath id="SVGID_00000128456085919382045840000017534012226435047335_">
						<use xlink:href="#SVGID_00000097468666608632718750000009573183992475711877_"  style="overflow:visible;"/>
					</clipPath>
					
						<rect x="280.1" y="131.3" style="clip-path:url(#SVGID_00000128456085919382045840000017534012226435047335_);fill:#939598;" width="12" height="57.3"/>
				</g>
			</g>
		</g>
		<line class="st1" x1="286.1" y1="188.6" x2="286.1" y2="30.5"/>
		<path class="st8" d="M273.2,0.4c3,0,4.2,3.1,4.2,5.8s-1.1,5.8-4.2,5.8c-3,0-4.2-3.2-4.2-5.8C269,3.6,270.2,0.4,273.2,0.4z
			 M273.2,1.3c-2.4,0-3.2,2.6-3.2,5c0,2.3,0.8,5,3.2,5c2.4,0,3.2-2.6,3.2-5C276.3,3.9,275.6,1.3,273.2,1.3z M279.9,10.6
			c0.4,0,0.8,0.3,0.8,0.7c0,0.4-0.4,0.8-0.8,0.8s-0.7-0.4-0.7-0.8C279.1,10.9,279.4,10.6,279.9,10.6z M286.5,0.4
			c3,0,4.2,3.1,4.2,5.8s-1.1,5.8-4.2,5.8c-3,0-4.2-3.2-4.2-5.8C282.3,3.6,283.5,0.4,286.5,0.4z M286.5,1.3c-2.4,0-3.2,2.6-3.2,5
			c0,2.3,0.8,5,3.2,5c2.4,0,3.2-2.6,3.2-5C289.6,3.9,288.9,1.3,286.5,1.3z M295.6,6.1c-1.3-0.4-2.6-1.2-2.6-2.7c0-2,1.9-2.9,3.7-2.9
			c1.8,0,3.7,0.9,3.7,2.9c0,1.5-1.3,2.4-2.6,2.7c1.4,0.4,2.8,1.4,2.8,3c0,1.8-1.7,3-3.8,3c-2.2,0-3.8-1.2-3.8-3
			C292.8,7.5,294.2,6.5,295.6,6.1z M296.7,6.5c-0.7,0.1-2.9,0.8-2.9,2.5c0,1.4,1.4,2.2,2.9,2.2s2.9-0.8,2.9-2.2
			C299.5,7.3,297.3,6.6,296.7,6.5z M296.7,1.3c-1.5,0-2.7,0.8-2.7,2.1c0,1.6,2,2.1,2.7,2.2c0.7-0.1,2.7-0.6,2.7-2.2
			C299.3,2.1,298.1,1.3,296.7,1.3z"/>
	</g>
	<g>
		<path class="st8" d="M372.7,12.1l-6.6-9v9h-1.4V0.8h1.4l6.5,8.8V0.8h1.4v11.3H372.7z"/>
		<path class="st8" d="M376.9,1.9c0-0.5,0.4-0.9,0.8-0.9c0.5,0,0.9,0.4,0.9,0.9s-0.4,0.8-0.9,0.8C377.3,2.8,376.9,2.4,376.9,1.9z
			 M377.1,12.1V3.9h1.3v8.2H377.1z"/>
		<path class="st8" d="M381.1,12.1V0.8h1.3v11.3H381.1z"/>
	</g>
</g>
</svg>
