<?xml version="1.0" encoding="utf-8"?>
<!-- Generator: Adobe Illustrator 26.4.0, SVG Export Plug-In . SVG Version: 6.00 Build 0)  -->
<svg version="1.1" id="Layer_1" xmlns="http://www.w3.org/2000/svg" xmlns:xlink="http://www.w3.org/1999/xlink" x="0px" y="0px"
	 viewBox="0 0 399.9 201.2" style="enable-background:new 0 0 399.9 201.2;" xml:space="preserve">
<style type="text/css">
	.st0{fill:#0069AA;}
	.st1{clip-path:url(#SVGID_00000119831412249748270440000006273623777255038366_);fill:#076AAA;}
	.st2{fill:none;stroke:#FFFFFF;}
	.st3{fill:#076AAA;}
	.st4{filter:url(#Adobe_OpacityMaskFilter);}
	.st5{fill:url(#SVGID_00000005956940993949507780000015308623934231413180_);}
	.st6{mask:url(#SVGID_00000182509237946541816680000007172699896339087551_);}
	.st7{clip-path:url(#SVGID_00000122687641788052536030000004272586500947210901_);fill:#939598;}
	.st8{fill:#4E4E50;}
	.st9{filter:url(#Adobe_OpacityMaskFilter_00000075150477385527874320000006207493903308049581_);}
	.st10{fill:url(#SVGID_00000018916660029005414910000004689110167485648559_);}
	.st11{mask:url(#SVGID_00000176759349377495690520000015520623967107646390_);}
	.st12{clip-path:url(#SVGID_00000110465865776942442740000017730681822110895746_);fill:#939598;}
	.st13{filter:url(#Adobe_OpacityMaskFilter_00000160886707870873153800000018270135965451390111_);}
	.st14{fill:url(#SVGID_00000160903653418230973940000006726864889359364020_);}
	.st15{mask:url(#SVGID_00000181045658775716449520000016145509847633216182_);}
	.st16{clip-path:url(#SVGID_00000000944625125626824450000014849351941710476713_);fill:#939598;}
	.st17{filter:url(#Adobe_OpacityMaskFilter_00000125567458967979792520000015365388434680594855_);}
	.st18{fill:url(#SVGID_00000183211351785591946940000015122642466737937813_);}
	.st19{mask:url(#SVGID_00000181054969697353008780000017423336159766918814_);}
	.st20{clip-path:url(#SVGID_00000109731525611013920700000000004517956794255806_);fill:#939598;}
</style>
<path class="st0" d="M0.2,201v-1.3c4-3.1,5.8-4.6,5.8-6.3c0-1.2-1.1-1.8-2.1-1.8c-1.3,0-2.2,0.5-2.9,1.3l-1-1
	c0.9-1.1,2.3-1.7,3.8-1.7c1.9,0,3.7,1.1,3.7,3.2c0,2.1-2,3.9-4.9,6.2h5v1.4L0.2,201L0.2,201z M13.6,190.2c2.9,0,4.2,2.8,4.2,5.5
	c0,2.6-1.2,5.5-4.2,5.5c-2.9,0-4.2-2.9-4.2-5.5C9.5,193,10.7,190.2,13.6,190.2z M13.6,191.6c-1.9,0-2.5,2-2.5,4.1s0.7,4.1,2.5,4.1
	c1.9,0,2.5-2,2.5-4.1S15.5,191.6,13.6,191.6z M19.3,201v-1.3c4-3.1,5.8-4.6,5.8-6.3c0-1.2-1.1-1.8-2.1-1.8c-1.3,0-2.2,0.5-2.9,1.3
	l-1-1c0.9-1.1,2.3-1.7,3.8-1.7c1.9,0,3.7,1.1,3.7,3.2c0,2.1-2,3.9-4.9,6.2h5v1.4L19.3,201L19.3,201z M32.2,201v-8.5l-2,2.1l-0.9-1
	l3.1-3.2h1.4V201L32.2,201L32.2,201z M37.2,197.7v-1.2H41v1.2H37.2z M42.2,201v-1.3c4-3.1,5.8-4.6,5.8-6.3c0-1.2-1.1-1.8-2.1-1.8
	c-1.3,0-2.2,0.5-2.9,1.3l-1-1c0.9-1.1,2.3-1.7,3.8-1.7c1.9,0,3.7,1.1,3.7,3.2c0,2.1-2,3.9-4.9,6.2h5v1.4L42.2,201L42.2,201z
	 M51.8,201v-1.3c4-3.1,5.8-4.6,5.8-6.3c0-1.2-1.1-1.8-2.1-1.8c-1.3,0-2.2,0.5-2.9,1.3l-1-1c0.9-1.1,2.3-1.7,3.8-1.7
	c1.9,0,3.7,1.1,3.7,3.2c0,2.1-2,3.9-4.9,6.2h5v1.4L51.8,201L51.8,201z"/>
<path d="M87,201v-0.8c3.6-2.9,6-5,6-7c0-1.5-1.3-2.2-2.4-2.2c-1.3,0-2.3,0.6-2.9,1.4l-0.6-0.6c0.7-1,2-1.6,3.5-1.6
	c1.6,0,3.3,0.9,3.3,3c0,2.3-2.5,4.5-5.5,7H94v0.8L87,201L87,201z M100.1,190.2c2.8,0,3.9,2.9,3.9,5.5c0,2.5-1.1,5.5-3.9,5.5
	s-3.9-3-3.9-5.5C96.2,193.1,97.2,190.2,100.1,190.2z M100.1,191c-2.2,0-3,2.5-3,4.6c0,2.2,0.7,4.7,3,4.7c2.2,0,3-2.5,3-4.7
	C103,193.5,102.3,191,100.1,191z M105.8,201v-0.8c3.6-2.9,6-5,6-7c0-1.5-1.3-2.2-2.4-2.2c-1.3,0-2.3,0.6-2.9,1.4l-0.6-0.6
	c0.7-1,2-1.6,3.5-1.6c1.6,0,3.3,0.9,3.3,3c0,2.3-2.5,4.5-5.5,7h5.6v0.8L105.8,201L105.8,201z M118.8,190.2c2.8,0,3.9,2.9,3.9,5.5
	c0,2.5-1.1,5.5-3.9,5.5s-3.9-3-3.9-5.5C114.9,193.1,116,190.2,118.8,190.2z M118.8,191c-2.2,0-3,2.5-3,4.6c0,2.2,0.7,4.7,3,4.7
	c2.2,0,3-2.5,3-4.7C121.8,193.5,121.1,191,118.8,191z M124.8,197.5v-0.8h3.8v0.8H124.8z M129.8,201v-0.8c3.6-2.9,6-5,6-7
	c0-1.5-1.3-2.2-2.4-2.2c-1.3,0-2.3,0.6-2.9,1.4l-0.6-0.6c0.7-1,2-1.6,3.5-1.6c1.6,0,3.3,0.9,3.3,3c0,2.3-2.5,4.5-5.5,7h5.6v0.8
	L129.8,201L129.8,201z M142.7,201v-9.4l-2.5,2.7l-0.6-0.6l3.2-3.3h0.8V201H142.7z"/>
<path d="M171.6,201v-0.7c3.6-2.9,6-5,6-7c0-1.5-1.3-2.2-2.4-2.2c-1.3,0-2.3,0.6-2.9,1.4l-0.6-0.6c0.7-1,2-1.6,3.5-1.6
	c1.6,0,3.3,0.9,3.3,3c0,2.3-2.5,4.5-5.5,7h5.6v0.8L171.6,201L171.6,201z M184.7,190.2c2.8,0,3.9,2.9,3.9,5.5c0,2.5-1.1,5.5-3.9,5.5
	c-2.8,0-3.9-3-3.9-5.5C180.8,193.2,181.8,190.2,184.7,190.2z M184.7,191.1c-2.2,0-3,2.5-3,4.6c0,2.2,0.7,4.7,3,4.7
	c2.2,0,3-2.5,3-4.7C187.6,193.5,186.9,191.1,184.7,191.1z M194.2,201v-9.4l-2.5,2.7l-0.6-0.6l3.2-3.3h0.8V201H194.2z M199.8,199.2
	c0.5,0.7,1.2,1.2,2.3,1.2c2.3,0,3.1-2.4,3.1-4.7c0-0.2,0-0.3,0-0.5c-0.4,0.7-1.7,1.8-3.1,1.8c-1.9,0-3.4-1.1-3.4-3.4
	c0-1.7,1.3-3.4,3.6-3.4c2.9,0,3.9,2.6,3.9,5.5c0,2.7-1.1,5.5-4.1,5.5c-1.4,0-2.2-0.6-2.9-1.4L199.8,199.2z M202.3,191
	c-1.8,0-2.7,1.4-2.7,2.5c0,1.7,1.1,2.6,2.7,2.6c1.2,0,2.3-0.7,2.9-1.8C205,192.9,204.3,191,202.3,191z M208.3,197.5v-0.8h3.8v0.8
	H208.3z M213.3,201v-0.7c3.6-2.9,6-5,6-7c0-1.5-1.3-2.2-2.4-2.2c-1.3,0-2.3,0.6-2.9,1.4l-0.6-0.6c0.7-1,2-1.6,3.5-1.6
	c1.6,0,3.3,0.9,3.3,3c0,2.3-2.5,4.5-5.5,7h5.6v0.8L213.3,201L213.3,201z M226.4,190.2c2.8,0,3.9,2.9,3.9,5.5c0,2.5-1.1,5.5-3.9,5.5
	s-3.9-3-3.9-5.5C222.5,193.2,223.6,190.2,226.4,190.2z M226.4,191.1c-2.2,0-3,2.5-3,4.6c0,2.2,0.7,4.7,3,4.7c2.2,0,3-2.5,3-4.7
	C229.4,193.5,228.7,191.1,226.4,191.1z"/>
<path d="M258.1,201v-0.7c3.6-2.9,6-5,6-7c0-1.5-1.3-2.2-2.4-2.2c-1.3,0-2.3,0.6-2.9,1.4l-0.6-0.6c0.7-1,2-1.6,3.5-1.6
	c1.6,0,3.3,0.9,3.3,3c0,2.3-2.5,4.5-5.5,7h5.6v0.8L258.1,201L258.1,201z M271.2,190.2c2.8,0,3.9,2.9,3.9,5.5c0,2.5-1.1,5.5-3.9,5.5
	s-3.9-3-3.9-5.5C267.2,193.2,268.3,190.2,271.2,190.2z M271.2,191.1c-2.2,0-3,2.5-3,4.6c0,2.2,0.7,4.7,3,4.7c2.2,0,3-2.5,3-4.7
	C274.1,193.5,273.4,191.1,271.2,191.1z M280.7,201v-9.4l-2.5,2.7l-0.6-0.6l3.2-3.3h0.8V201H280.7z M288,195.5
	c-1.3-0.3-2.5-1.1-2.5-2.6c0-1.9,1.8-2.7,3.4-2.7c1.7,0,3.4,0.9,3.4,2.7c0,1.4-1.2,2.2-2.5,2.6c1.4,0.4,2.6,1.3,2.6,2.8
	c0,1.7-1.6,2.8-3.6,2.8c-2.1,0-3.6-1.1-3.6-2.8C285.3,196.9,286.6,195.9,288,195.5z M289,195.9c-0.7,0.1-2.7,0.7-2.7,2.3
	c0,1.3,1.3,2.1,2.7,2.1c1.4,0,2.7-0.8,2.7-2.1C291.6,196.7,289.6,196,289,195.9z M289,191.1c-1.4,0-2.5,0.7-2.5,2
	c0,1.5,1.9,2,2.5,2.1c0.7-0.1,2.5-0.6,2.5-2.1C291.5,191.8,290.3,191.1,289,191.1z M294.6,197.5v-0.8h3.8v0.8H294.6z M303.2,201
	v-9.4l-2.5,2.7l-0.6-0.6l3.2-3.3h0.8V201H303.2z M308.8,199.2c0.5,0.7,1.2,1.2,2.3,1.2c2.3,0,3.1-2.4,3.1-4.7c0-0.2,0-0.3,0-0.5
	c-0.4,0.7-1.7,1.8-3.1,1.8c-1.9,0-3.4-1.1-3.4-3.4c0-1.7,1.3-3.4,3.6-3.4c2.9,0,3.9,2.6,3.9,5.5c0,2.7-1.1,5.5-4.1,5.5
	c-1.4,0-2.2-0.6-2.9-1.4L308.8,199.2z M311.3,191c-1.8,0-2.7,1.4-2.7,2.5c0,1.7,1.1,2.6,2.7,2.6c1.2,0,2.3-0.7,2.9-1.8
	C314,192.9,313.3,191,311.3,191z"/>
<path d="M344.4,201v-0.8c3.6-2.9,6-5,6-7c0-1.5-1.3-2.2-2.4-2.2c-1.3,0-2.3,0.6-2.9,1.4l-0.6-0.6c0.7-1,2-1.6,3.5-1.6
	c1.6,0,3.3,0.9,3.3,3c0,2.3-2.5,4.5-5.5,7h5.6v0.8L344.4,201L344.4,201z M357.5,190.2c2.8,0,3.9,2.9,3.9,5.5c0,2.5-1.1,5.5-3.9,5.5
	s-3.9-3-3.9-5.5C353.6,193.1,354.6,190.2,357.5,190.2z M357.5,191c-2.2,0-3,2.5-3,4.6c0,2.2,0.7,4.7,3,4.7c2.2,0,3-2.5,3-4.7
	C360.5,193.5,359.7,191,357.5,191z M367,201v-9.4l-2.5,2.7l-0.6-0.6l3.2-3.3h0.8V201H367z M373,201l4.5-9.8h-5.9v-0.8h6.9v0.6
	l-4.5,10H373z M379.6,197.5v-0.8h3.8v0.8H379.6z M388.2,201v-9.4l-2.5,2.7l-0.6-0.6l3.2-3.3h0.8V201H388.2z M395.5,195.5
	c-1.3-0.3-2.5-1.1-2.5-2.6c0-1.9,1.8-2.7,3.4-2.7c1.7,0,3.4,0.9,3.4,2.7c0,1.4-1.2,2.2-2.5,2.6c1.4,0.4,2.6,1.3,2.6,2.8
	c0,1.7-1.6,2.8-3.6,2.8c-2.1,0-3.6-1.1-3.6-2.8C392.9,196.8,394.2,195.9,395.5,195.5z M396.5,195.9c-0.7,0.1-2.7,0.7-2.7,2.3
	c0,1.3,1.3,2.1,2.7,2.1c1.4,0,2.7-0.8,2.7-2.1C399.2,196.6,397.1,196,396.5,195.9z M396.5,191c-1.4,0-2.5,0.7-2.5,2
	c0,1.5,1.9,2,2.5,2.1c0.7-0.1,2.5-0.6,2.5-2.1C399,191.8,397.9,191,396.5,191z"/>
<g>
	<g>
		<g>
			<g>
				<defs>
					<rect id="SVGID_1_" x="9.5" y="122" width="29" height="79.2"/>
				</defs>
				<clipPath id="SVGID_00000021810740873580909810000003574723186566195122_">
					<use xlink:href="#SVGID_1_"  style="overflow:visible;"/>
				</clipPath>
				
					<rect x="24.3" y="131.1" style="clip-path:url(#SVGID_00000021810740873580909810000003574723186566195122_);fill:#076AAA;" width="12" height="60.9"/>
			</g>
		</g>
	</g>
	<line class="st2" x1="30.3" y1="192" x2="30.3" y2="30"/>
	<path class="st3" d="M20.1,10l1.3-1.7c0.8,0.8,1.8,1.2,3,1.2c1.3,0,2.1-0.8,2.1-1.7c0-1-0.7-1.7-2-1.7c-0.9,0-1.7,0.3-2.4,0.9
		l-1.6-0.3V0.2h7.8v2.1h-5.4v2.8c0.5-0.5,1.5-0.9,2.5-0.9c1.9,0,3.6,1.4,3.6,3.7c0,2.4-1.8,3.9-4.5,3.9C22.5,11.7,21.1,11.1,20.1,10
		z M30.7,11.5V9.6c4.6-3.4,6-4.6,6-6c0-1-0.9-1.5-1.8-1.5c-1.3,0-2.3,0.5-3,1.3l-1.4-1.6C31.6,0.5,33.3,0,34.9,0
		c2.4,0,4.3,1.4,4.3,3.6c0,1.9-1.6,3.6-4.5,5.7h4.6v2.1h-8.6V11.5z"/>
</g>
<g>
	<defs>
		<filter id="Adobe_OpacityMaskFilter" filterUnits="userSpaceOnUse" x="93.6" y="114.6" width="29" height="86.6">
			<feColorMatrix  type="matrix" values="1 0 0 0 0  0 1 0 0 0  0 0 1 0 0  0 0 0 1 0"/>
		</filter>
	</defs>
	
		<mask maskUnits="userSpaceOnUse" x="93.6" y="114.6" width="29" height="86.6" id="SVGID_00000182509237946541816680000007172699896339087551_">
		<g class="st4">
			
				<linearGradient id="SVGID_00000052808567234067571420000017140850131639225220_" gradientUnits="userSpaceOnUse" x1="-150.6849" y1="-188.4122" x2="-149.6677" y2="-188.4122" gradientTransform="matrix(-1.000000e-15 19.237 -19.237 -1.000000e-15 -3485.0854 3071.3015)">
				<stop  offset="0" style="stop-color:#FFFFFF"/>
				<stop  offset="1" style="stop-color:#000000"/>
			</linearGradient>
			
				<rect x="-753.2" y="-74.1" style="fill:url(#SVGID_00000052808567234067571420000017140850131639225220_);" width="1785.2" height="605.5"/>
		</g>
	</mask>
	<g class="st6">
		<g>
			<g>
				<defs>
					<rect id="SVGID_00000061447296508333665850000016888009473024023713_" x="93.6" y="114.6" width="29" height="86.6"/>
				</defs>
				<clipPath id="SVGID_00000008869214432373081480000007773337958963970238_">
					<use xlink:href="#SVGID_00000061447296508333665850000016888009473024023713_"  style="overflow:visible;"/>
				</clipPath>
				
					<rect x="108.5" y="123.8" style="clip-path:url(#SVGID_00000008869214432373081480000007773337958963970238_);fill:#939598;" width="12" height="68.3"/>
			</g>
		</g>
	</g>
	<line class="st2" x1="114.5" y1="192.2" x2="114.5" y2="30.2"/>
	<path class="st8" d="M104.9,9.4c0.7,1,1.7,1.6,3.2,1.6c1.6,0,2.8-1.2,2.8-2.7c0-1.7-1.2-2.8-2.8-2.8c-1,0-1.9,0.3-2.7,1.1l-0.7-0.3
		V0.4h6.5v0.9h-5.6v4.4c0.5-0.5,1.5-1.1,2.7-1.1c1.9,0,3.6,1.3,3.6,3.6s-1.7,3.6-3.8,3.6c-1.9,0-3.1-0.7-3.8-1.8L104.9,9.4z
		 M117.1,5.9c-1.3-0.4-2.6-1.2-2.6-2.7c0-2,1.9-2.9,3.7-2.9c1.8,0,3.7,0.9,3.7,2.9c0,1.5-1.3,2.4-2.6,2.7c1.4,0.4,2.8,1.4,2.8,3
		c0,1.8-1.7,3-3.8,3c-2.2,0-3.8-1.2-3.8-3C114.3,7.3,115.6,6.3,117.1,5.9z M118.1,6.3c-0.7,0.1-2.9,0.8-2.9,2.5
		c0,1.4,1.4,2.2,2.9,2.2s2.9-0.8,2.9-2.2C121,7.1,118.8,6.4,118.1,6.3z M118.1,1.1c-1.5,0-2.7,0.8-2.7,2.1c0,1.6,2,2.1,2.7,2.2
		c0.7-0.1,2.7-0.6,2.7-2.2C120.8,1.9,119.6,1.1,118.1,1.1z"/>
</g>
<g>
	<defs>
		
			<filter id="Adobe_OpacityMaskFilter_00000136374767563662154970000005927655616003515289_" filterUnits="userSpaceOnUse" x="180.6" y="106.6" width="29" height="94.6">
			<feColorMatrix  type="matrix" values="1 0 0 0 0  0 1 0 0 0  0 0 1 0 0  0 0 0 1 0"/>
		</filter>
	</defs>
	
		<mask maskUnits="userSpaceOnUse" x="180.6" y="106.6" width="29" height="94.6" id="SVGID_00000176759349377495690520000015520623967107646390_">
		<g style="filter:url(#Adobe_OpacityMaskFilter_00000136374767563662154970000005927655616003515289_);">
			
				<linearGradient id="SVGID_00000138547119925606661780000008121177172064882336_" gradientUnits="userSpaceOnUse" x1="-150.6438" y1="-191.3975" x2="-149.6266" y2="-191.3975" gradientTransform="matrix(-1.000000e-15 19.3926 -19.3926 -1.000000e-15 -3514.7954 3093.6941)">
				<stop  offset="0" style="stop-color:#FFFFFF"/>
				<stop  offset="1" style="stop-color:#000000"/>
			</linearGradient>
			
				<rect x="-695.7" y="-74.2" style="fill:url(#SVGID_00000138547119925606661780000008121177172064882336_);" width="1785.2" height="605.5"/>
		</g>
	</mask>
	<g class="st11">
		<g>
			<g>
				<defs>
					<rect id="SVGID_00000006691897487446221170000011518975178987542967_" x="180.6" y="106.6" width="29" height="94.6"/>
				</defs>
				<clipPath id="SVGID_00000013901612248907305250000008313870087009408143_">
					<use xlink:href="#SVGID_00000006691897487446221170000011518975178987542967_"  style="overflow:visible;"/>
				</clipPath>
				
					<rect x="195.5" y="115.7" style="clip-path:url(#SVGID_00000013901612248907305250000008313870087009408143_);fill:#939598;" width="12" height="76.3"/>
			</g>
		</g>
	</g>
	<line class="st2" x1="201.5" y1="192.1" x2="201.5" y2="30.1"/>
	<path class="st8" d="M195.4,0.2c1.5,0,2.4,0.6,3.1,1.4l-0.6,0.7c-0.6-0.7-1.2-1.3-2.5-1.3c-2.4,0-3.3,2.6-3.3,5c0,0.2,0,0.4,0,0.5
		c0.5-0.8,1.8-1.9,3.3-1.9c2,0,3.6,1.2,3.6,3.6c0,1.8-1.4,3.6-3.8,3.6c-3.1,0-4.2-2.8-4.2-5.8C191.1,3.1,192.3,0.2,195.4,0.2z
		 M195.2,5.5c-1.2,0-2.4,0.8-3.1,1.9c0.1,1.5,0.9,3.5,3.1,3.5c1.9,0,2.8-1.5,2.8-2.7C198,6.4,196.8,5.5,195.2,5.5z M201.9,9.3
		c0.7,1,1.7,1.6,3.2,1.6c1.6,0,2.8-1.2,2.8-2.7c0-1.7-1.2-2.8-2.8-2.8c-1,0-1.9,0.3-2.7,1.1l-0.7-0.3V0.3h6.5v0.9h-5.6v4.4
		c0.5-0.5,1.5-1.1,2.7-1.1c1.9,0,3.6,1.3,3.6,3.6s-1.7,3.6-3.8,3.6c-1.9,0-3.1-0.7-3.8-1.8L201.9,9.3z"/>
</g>
<g>
	<defs>
		
			<filter id="Adobe_OpacityMaskFilter_00000039115165804995750870000003310500055705310341_" filterUnits="userSpaceOnUse" x="264.8" y="52.6" width="29" height="148.6">
			<feColorMatrix  type="matrix" values="1 0 0 0 0  0 1 0 0 0  0 0 1 0 0  0 0 0 1 0"/>
		</filter>
	</defs>
	
		<mask maskUnits="userSpaceOnUse" x="264.8" y="52.6" width="29" height="148.6" id="SVGID_00000181045658775716449520000016145509847633216182_">
		<g style="filter:url(#Adobe_OpacityMaskFilter_00000039115165804995750870000003310500055705310341_);">
			
				<linearGradient id="SVGID_00000036943292979041689670000008076035180727293060_" gradientUnits="userSpaceOnUse" x1="-148.3756" y1="-192.8899" x2="-147.3584" y2="-192.8899" gradientTransform="matrix(-2.000000e-15 32.0818 -32.0818 -2.000000e-15 -5937.1562 4919.6973)">
				<stop  offset="0" style="stop-color:#FFFFFF"/>
				<stop  offset="1" style="stop-color:#000000"/>
			</linearGradient>
			
				<rect x="-641.5" y="-74.1" style="fill:url(#SVGID_00000036943292979041689670000008076035180727293060_);" width="1785.2" height="605.5"/>
		</g>
	</mask>
	<g class="st15">
		<g>
			<g>
				<defs>
					<rect id="SVGID_00000074427494427189328770000004216610024442355120_" x="264.8" y="52.6" width="29" height="148.6"/>
				</defs>
				<clipPath id="SVGID_00000067952341974578705790000005935831631630988705_">
					<use xlink:href="#SVGID_00000074427494427189328770000004216610024442355120_"  style="overflow:visible;"/>
				</clipPath>
				
					<rect x="279.7" y="61.8" style="clip-path:url(#SVGID_00000067952341974578705790000005935831631630988705_);fill:#939598;" width="12" height="130.3"/>
			</g>
		</g>
	</g>
	<line class="st2" x1="285.7" y1="192.2" x2="285.7" y2="30.2"/>
	<path class="st8" d="M273.4,11.6v-10l-2.7,2.9l-0.6-0.6l3.4-3.6h0.9v11.3H273.4z M281.9,11.6v-10l-2.7,2.9l-0.6-0.6l3.4-3.6h0.9
		v11.3H281.9z M290.5,11.6v-10l-2.7,2.9l-0.6-0.6l3.4-3.6h0.9v11.3H290.5z"/>
</g>
<g>
	<defs>
		
			<filter id="Adobe_OpacityMaskFilter_00000157308376221656456990000000318763161078291601_" filterUnits="userSpaceOnUse" x="354.2" y="21" width="29" height="180.2">
			<feColorMatrix  type="matrix" values="1 0 0 0 0  0 1 0 0 0  0 0 1 0 0  0 0 0 1 0"/>
		</filter>
	</defs>
	
		<mask maskUnits="userSpaceOnUse" x="354.2" y="21" width="29" height="180.2" id="SVGID_00000181054969697353008780000017423336159766918814_">
		<g style="filter:url(#Adobe_OpacityMaskFilter_00000157308376221656456990000000318763161078291601_);">
			
				<linearGradient id="SVGID_00000005246759950268326330000001568084501286330285_" gradientUnits="userSpaceOnUse" x1="-147.1944" y1="-193.4254" x2="-146.1772" y2="-193.4254" gradientTransform="matrix(-3.000000e-15 48.7679 -48.7679 -3.000000e-15 -9122.5508 7320.8677)">
				<stop  offset="0" style="stop-color:#FFFFFF"/>
				<stop  offset="1" style="stop-color:#000000"/>
			</linearGradient>
			
				<rect x="-582.2" y="-74.2" style="fill:url(#SVGID_00000005246759950268326330000001568084501286330285_);" width="1785.2" height="605.5"/>
		</g>
	</mask>
	<g class="st19">
		<g>
			<g>
				<defs>
					<rect id="SVGID_00000032610175891640734610000003654069283195306398_" x="354.2" y="21" width="29" height="180.2"/>
				</defs>
				<clipPath id="SVGID_00000003825274991564330650000001362875371783805089_">
					<use xlink:href="#SVGID_00000032610175891640734610000003654069283195306398_"  style="overflow:visible;"/>
				</clipPath>
				
					<rect x="369" y="30.1" style="clip-path:url(#SVGID_00000003825274991564330650000001362875371783805089_);fill:#939598;" width="12" height="161.9"/>
			</g>
		</g>
	</g>
	<line class="st2" x1="375" y1="192.1" x2="375" y2="30.1"/>
	<path class="st8" d="M363.7,11.6v-10L361,4.5l-0.6-0.6l3.4-3.6h0.9v11.3H363.7z M369.1,9.4c0.6,0.9,1.7,1.6,3.2,1.6
		c1.7,0,2.8-0.9,2.8-2.4c0-1.6-1.3-2.3-3-2.3c-0.5,0-0.9,0-1.1,0V5.4c0.2,0,0.6,0,1.1,0c1.5,0,2.9-0.6,2.9-2.2
		c0-1.4-1.3-2.2-2.7-2.2c-1.3,0-2.2,0.5-3,1.4l-0.6-0.6c0.8-1,2.1-1.7,3.7-1.7c2,0,3.6,1.1,3.6,3c0,1.7-1.5,2.5-2.4,2.6
		c1,0.1,2.6,0.9,2.6,2.8s-1.4,3.2-3.8,3.2c-1.8,0-3.2-0.9-3.8-1.9L369.1,9.4z M381.4,5.8c-1.3-0.4-2.6-1.2-2.6-2.7
		c0-2,1.9-2.9,3.7-2.9c1.8,0,3.7,0.9,3.7,2.9c0,1.5-1.3,2.4-2.6,2.7c1.4,0.4,2.8,1.4,2.8,3c0,1.8-1.7,3-3.8,3c-2.2,0-3.8-1.2-3.8-3
		C378.6,7.2,380,6.2,381.4,5.8z M382.5,6.2c-0.7,0.1-2.9,0.8-2.9,2.5c0,1.4,1.4,2.2,2.9,2.2s2.9-0.8,2.9-2.2
		C385.3,7,383.1,6.3,382.5,6.2z M382.5,1c-1.5,0-2.7,0.8-2.7,2.1c0,1.6,2,2.1,2.7,2.2c0.7-0.1,2.7-0.6,2.7-2.2
		C385.1,1.8,383.9,1,382.5,1z"/>
</g>
</svg>
