<?xml version="1.0" encoding="utf-8"?>
<!-- Generator: Adobe Illustrator 26.4.0, SVG Export Plug-In . SVG Version: 6.00 Build 0)  -->
<svg version="1.1" id="Layer_1" xmlns="http://www.w3.org/2000/svg" xmlns:xlink="http://www.w3.org/1999/xlink" x="0px" y="0px"
	 viewBox="0 0 395.3 220.3" style="enable-background:new 0 0 395.3 220.3;" xml:space="preserve">
<style type="text/css">
	.st0{fill:#0069AA;}
	.st1{clip-path:url(#SVGID_00000075126131304708095930000009009190114493821111_);fill:#076AAA;}
	.st2{fill:none;stroke:#FFFFFF;}
	.st3{fill:#076AAA;}
	.st4{filter:url(#Adobe_OpacityMaskFilter);}
	.st5{fill:url(#SVGID_00000020378032314546640110000017828129311340713402_);}
	.st6{mask:url(#SVGID_00000083799234244179724840000003521626967503850883_);}
	.st7{clip-path:url(#SVGID_00000168117359613212055770000015575744151071776938_);fill:#939598;}
	.st8{fill:#4E4E50;}
	.st9{filter:url(#Adobe_OpacityMaskFilter_00000182499955483383608130000000170123488323126684_);}
	.st10{fill:url(#SVGID_00000141426557667380665680000005552974670013388453_);}
	.st11{mask:url(#SVGID_00000125563833016159635790000014679405771518473892_);}
	.st12{clip-path:url(#SVGID_00000155846343997315653330000014057082464361392794_);fill:#939598;}
	.st13{filter:url(#Adobe_OpacityMaskFilter_00000170266387799885998470000002659715461670845840_);}
	.st14{fill:url(#SVGID_00000129178058213135630940000001971091090370610825_);}
	.st15{mask:url(#SVGID_00000029027614677651136910000011520212711606906505_);}
	.st16{clip-path:url(#SVGID_00000048497944018757635800000007705463146252154299_);fill:#939598;}
	.st17{filter:url(#Adobe_OpacityMaskFilter_00000123437601316614880770000011172029950623014029_);}
	.st18{fill:url(#SVGID_00000144299483024844360290000001884519235914511532_);}
	.st19{mask:url(#SVGID_00000163069122094554194630000016005532259508663984_);}
	.st20{clip-path:url(#SVGID_00000106132886374184303920000004263183660540418182_);fill:#939598;}
</style>
<g>
	<path class="st0" d="M0,220.2V219c3.9-3,5.8-4.6,5.8-6.2c0-1.2-1-1.8-2-1.8c-1.3,0-2.2,0.5-2.8,1.3l-0.9-1c0.9-1.1,2.3-1.7,3.8-1.7
		c1.9,0,3.7,1.1,3.7,3.2c0,2-2,3.9-4.8,6.1h4.9v1.4H0V220.2z M13.3,209.5c2.9,0,4.1,2.8,4.1,5.4s-1.2,5.4-4.1,5.4s-4.1-2.8-4.1-5.4
		S10.4,209.5,13.3,209.5z M13.3,210.9c-1.9,0-2.5,2-2.5,4s0.6,4,2.5,4c1.8,0,2.5-2,2.5-4S15.2,210.9,13.3,210.9z M19,220.2V219
		c3.9-3,5.8-4.6,5.8-6.2c0-1.2-1-1.8-2-1.8c-1.3,0-2.2,0.5-2.8,1.3l-0.9-1c0.9-1.1,2.3-1.7,3.8-1.7c1.9,0,3.7,1.1,3.7,3.2
		c0,2-2,3.9-4.8,6.1h4.9v1.4H19V220.2z M31.7,220.2v-8.4l-1.9,2l-0.9-1l3.1-3.1h1.4v10.5H31.7z M36.6,217v-1.2h3.8v1.2H36.6z
		 M41.5,220.2V219c3.9-3,5.8-4.6,5.8-6.2c0-1.2-1-1.8-2-1.8c-1.3,0-2.2,0.5-2.8,1.3l-0.9-1c0.9-1.1,2.3-1.7,3.8-1.7
		c1.9,0,3.7,1.1,3.7,3.2c0,2-2,3.9-4.8,6.1h4.9v1.4h-7.7V220.2z M51,220.2V219c3.9-3,5.8-4.6,5.8-6.2c0-1.2-1-1.8-2-1.8
		c-1.3,0-2.2,0.5-2.8,1.3l-0.9-1c0.9-1.1,2.3-1.7,3.8-1.7c1.9,0,3.7,1.1,3.7,3.2c0,2-2,3.9-4.8,6.1h4.9v1.4H51V220.2z"/>
	<path d="M85.8,220.1v-0.8c3.6-2.9,6-4.9,6-7c0-1.5-1.2-2.1-2.4-2.1c-1.3,0-2.3,0.6-2.9,1.4l-0.6-0.6c0.7-1,2-1.6,3.5-1.6
		s3.3,0.9,3.3,3c0,2.3-2.4,4.4-5.5,6.9h5.5v0.8L85.8,220.1L85.8,220.1z M98.8,209.4c2.8,0,3.9,2.9,3.9,5.4s-1.1,5.4-3.9,5.4
		s-3.9-2.9-3.9-5.4C94.9,212.3,95.9,209.4,98.8,209.4z M98.8,210.3c-2.2,0-2.9,2.4-2.9,4.6c0,2.2,0.7,4.6,2.9,4.6
		c2.2,0,2.9-2.5,2.9-4.6C101.7,212.7,101,210.3,98.8,210.3z M104.4,220.1v-0.8c3.6-2.9,6-4.9,6-7c0-1.5-1.2-2.1-2.4-2.1
		c-1.3,0-2.3,0.6-2.9,1.4l-0.6-0.6c0.7-1,2-1.6,3.5-1.6s3.3,0.9,3.3,3c0,2.3-2.4,4.4-5.5,6.9h5.5v0.8L104.4,220.1L104.4,220.1z
		 M117.3,209.4c2.8,0,3.9,2.9,3.9,5.4s-1.1,5.4-3.9,5.4s-3.9-2.9-3.9-5.4C113.4,212.3,114.5,209.4,117.3,209.4z M117.3,210.3
		c-2.2,0-2.9,2.4-2.9,4.6c0,2.2,0.7,4.6,2.9,4.6c2.2,0,2.9-2.5,2.9-4.6C120.2,212.7,119.5,210.3,117.3,210.3z M123.2,216.7v-0.8h3.8
		v0.8H123.2z M128.1,220.1v-0.8c3.6-2.9,6-4.9,6-7c0-1.5-1.2-2.1-2.4-2.1c-1.3,0-2.3,0.6-2.9,1.4l-0.6-0.6c0.7-1,2-1.6,3.5-1.6
		s3.3,0.9,3.3,3c0,2.3-2.4,4.4-5.5,6.9h5.5v0.8L128.1,220.1L128.1,220.1z M140.9,220.1v-9.3l-2.5,2.7l-0.6-0.6l3.1-3.3h0.8v10.5
		L140.9,220.1L140.9,220.1z"/>
	<path d="M169.4,220v-0.7c3.6-2.9,6-4.9,6-7c0-1.5-1.2-2.1-2.4-2.1c-1.3,0-2.3,0.6-2.9,1.4l-0.6-0.6c0.7-1,2-1.6,3.5-1.6
		s3.3,0.9,3.3,3c0,2.3-2.4,4.4-5.5,6.9h5.5v0.8L169.4,220L169.4,220z M182.4,209.4c2.8,0,3.9,2.9,3.9,5.4s-1.1,5.4-3.9,5.4
		c-2.8,0-3.9-2.9-3.9-5.4C178.5,212.3,179.6,209.4,182.4,209.4z M182.4,210.2c-2.2,0-2.9,2.4-2.9,4.6c0,2.2,0.7,4.6,2.9,4.6
		s2.9-2.5,2.9-4.6C185.3,212.6,184.6,210.2,182.4,210.2z M191.8,220v-9.3l-2.5,2.7l-0.6-0.6l3.1-3.3h0.8V220L191.8,220L191.8,220z
		 M197.3,218.2c0.5,0.7,1.2,1.2,2.3,1.2c2.3,0,3.1-2.4,3.1-4.6c0-0.2,0-0.3,0-0.5c-0.4,0.7-1.7,1.8-3.1,1.8c-1.9,0-3.4-1.1-3.4-3.3
		c0-1.7,1.3-3.4,3.5-3.4c2.8,0,3.9,2.6,3.9,5.4c0,2.7-1.1,5.4-4,5.4c-1.4,0-2.2-0.6-2.8-1.3L197.3,218.2z M199.8,210.2
		c-1.8,0-2.6,1.4-2.6,2.5c0,1.7,1.1,2.5,2.6,2.5c1.1,0,2.3-0.7,2.9-1.8C202.5,212,201.7,210.2,199.8,210.2z M205.7,216.6v-0.8h3.8
		v0.8H205.7z M210.7,220v-0.7c3.6-2.9,6-4.9,6-7c0-1.5-1.2-2.1-2.4-2.1c-1.3,0-2.3,0.6-2.9,1.4l-0.6-0.6c0.7-1,2-1.6,3.5-1.6
		s3.3,0.9,3.3,3c0,2.3-2.4,4.4-5.5,6.9h5.5v0.8L210.7,220L210.7,220z M223.6,209.4c2.8,0,3.9,2.9,3.9,5.4s-1.1,5.4-3.9,5.4
		c-2.8,0-3.9-2.9-3.9-5.4S220.8,209.4,223.6,209.4z M223.6,210.2c-2.2,0-2.9,2.4-2.9,4.6c0,2.2,0.7,4.6,2.9,4.6s2.9-2.5,2.9-4.6
		C226.5,212.6,225.8,210.2,223.6,210.2z"/>
	<path d="M254.9,219.9v-0.7c3.6-2.9,6-4.9,6-7c0-1.5-1.2-2.1-2.4-2.1c-1.3,0-2.3,0.6-2.9,1.4l-0.6-0.6c0.7-1,2-1.6,3.5-1.6
		s3.3,0.9,3.3,3c0,2.3-2.4,4.4-5.5,6.9h5.5v0.8L254.9,219.9L254.9,219.9z M267.8,209.3c2.8,0,3.9,2.9,3.9,5.4s-1.1,5.4-3.9,5.4
		s-3.9-2.9-3.9-5.4C263.9,212.2,265,209.3,267.8,209.3z M267.8,210.1c-2.2,0-2.9,2.4-2.9,4.6c0,2.2,0.7,4.6,2.9,4.6s2.9-2.5,2.9-4.6
		C270.7,212.5,270,210.1,267.8,210.1z M277.2,219.9v-9.3l-2.5,2.7l-0.6-0.6l3.1-3.3h0.8v10.5L277.2,219.9L277.2,219.9z M284.4,214.5
		c-1.2-0.3-2.4-1.1-2.4-2.5c0-1.9,1.7-2.7,3.4-2.7c1.6,0,3.4,0.8,3.4,2.7c0,1.4-1.2,2.2-2.4,2.5c1.3,0.4,2.6,1.3,2.6,2.8
		c0,1.7-1.5,2.8-3.6,2.8c-2,0-3.6-1.1-3.6-2.8C281.8,215.8,283.1,214.9,284.4,214.5z M285.4,214.9c-0.6,0.1-2.7,0.7-2.7,2.3
		c0,1.3,1.3,2.1,2.7,2.1c1.4,0,2.7-0.8,2.7-2.1C288.1,215.6,286,215,285.4,214.9z M285.4,210.1c-1.4,0-2.5,0.7-2.5,2
		c0,1.5,1.9,1.9,2.5,2.1c0.6-0.1,2.5-0.6,2.5-2.1C287.9,210.8,286.8,210.1,285.4,210.1z M291,216.5v-0.8h3.8v0.8H291z M299.5,219.9
		v-9.3l-2.5,2.7l-0.6-0.6l3.1-3.3h0.8v10.5L299.5,219.9L299.5,219.9z M305,218.1c0.5,0.7,1.2,1.2,2.3,1.2c2.3,0,3.1-2.4,3.1-4.6
		c0-0.2,0-0.3,0-0.5c-0.4,0.7-1.7,1.8-3.1,1.8c-1.9,0-3.4-1.1-3.4-3.3c0-1.7,1.3-3.4,3.5-3.4c2.8,0,3.9,2.6,3.9,5.4
		c0,2.7-1.1,5.4-4,5.4c-1.4,0-2.2-0.6-2.8-1.3L305,218.1z M307.5,210.1c-1.8,0-2.6,1.4-2.6,2.5c0,1.7,1.1,2.5,2.6,2.5
		c1.1,0,2.3-0.7,2.9-1.8C310.2,211.9,309.4,210.1,307.5,210.1z"/>
	<path d="M340.2,220.1v-0.8c3.6-2.9,6-4.9,6-7c0-1.5-1.2-2.1-2.4-2.1c-1.3,0-2.3,0.6-2.9,1.4l-0.6-0.6c0.7-1,2-1.6,3.5-1.6
		s3.3,0.9,3.3,3c0,2.3-2.4,4.4-5.5,6.9h5.5v0.8L340.2,220.1L340.2,220.1z M353.1,209.4c2.8,0,3.9,2.9,3.9,5.4s-1.1,5.4-3.9,5.4
		s-3.9-2.9-3.9-5.4C349.3,212.3,350.3,209.4,353.1,209.4z M353.1,210.3c-2.2,0-2.9,2.4-2.9,4.6c0,2.2,0.7,4.6,2.9,4.6
		s2.9-2.5,2.9-4.6C356.1,212.7,355.4,210.3,353.1,210.3z M362.6,220.1v-9.3l-2.5,2.7l-0.6-0.6l3.1-3.3h0.8v10.5L362.6,220.1
		L362.6,220.1z M368.5,220.1l4.4-9.7h-5.8v-0.8h6.9v0.6l-4.5,9.9H368.5z M375,216.7v-0.8h3.8v0.8H375z M383.5,220.1v-9.3l-2.5,2.7
		l-0.6-0.6l3.1-3.3h0.8v10.5L383.5,220.1L383.5,220.1z M390.7,214.7c-1.2-0.3-2.4-1.1-2.4-2.5c0-1.9,1.7-2.7,3.4-2.7
		c1.6,0,3.4,0.8,3.4,2.7c0,1.4-1.2,2.2-2.4,2.5c1.3,0.4,2.6,1.3,2.6,2.8c0,1.7-1.5,2.8-3.6,2.8c-2,0-3.6-1.1-3.6-2.8
		C388.1,216,389.4,215,390.7,214.7z M391.7,215.1c-0.6,0.1-2.7,0.7-2.7,2.3c0,1.3,1.3,2.1,2.7,2.1c1.4,0,2.7-0.8,2.7-2.1
		C394.3,215.8,392.3,215.2,391.7,215.1z M391.7,210.3c-1.4,0-2.5,0.7-2.5,2c0,1.5,1.9,1.9,2.5,2.1c0.6-0.1,2.5-0.6,2.5-2.1
		C394.2,211,393.1,210.3,391.7,210.3z"/>
	<g>
		<g>
			<g>
				<g>
					<defs>
						<rect id="SVGID_1_" x="8.4" y="36.9" width="28.6" height="175.7"/>
					</defs>
					<clipPath id="SVGID_00000120556808974918285030000012242326688307708070_">
						<use xlink:href="#SVGID_1_"  style="overflow:visible;"/>
					</clipPath>
					
						<rect x="23.1" y="47.1" style="clip-path:url(#SVGID_00000120556808974918285030000012242326688307708070_);fill:#076AAA;" width="11.9" height="155.3"/>
				</g>
			</g>
		</g>
		<line class="st2" x1="29" y1="202.4" x2="29" y2="21.7"/>
		<path class="st3" d="M12.9,11.9V3.7L11,5.6L9.6,4.2l3.5-3.5h2.1v11.2H12.9z M18.2,9c0-1.4,1.1-2.4,2.4-2.9
			c-1.2-0.4-2.2-1.2-2.2-2.6c0-2.1,2.2-2.9,4.3-2.9S27,1.4,27,3.5c0,1.4-1,2.2-2.2,2.6c1.3,0.5,2.4,1.5,2.4,2.9
			c0,2.1-2.1,3.1-4.5,3.1S18.2,11,18.2,9z M24.8,8.6c0-0.9-1.4-1.4-2.1-1.5c-0.7,0.2-2.1,0.6-2.1,1.5c0,0.8,0.9,1.3,2.1,1.3
			C23.8,9.9,24.8,9.4,24.8,8.6z M24.6,3.9c0-0.8-0.8-1.2-1.9-1.2s-1.9,0.5-1.9,1.2c0,0.8,1.2,1.2,1.9,1.3C23.4,5,24.6,4.7,24.6,3.9z
			 M28.7,10.7c0-0.7,0.6-1.4,1.4-1.4c0.7,0,1.4,0.6,1.4,1.4s-0.6,1.4-1.4,1.4C29.4,12,28.7,11.4,28.7,10.7z M32.5,6.3
			c0-2.9,1.4-5.8,4.6-5.8c3.2,0,4.6,2.9,4.6,5.8s-1.4,5.8-4.6,5.8C34,12.1,32.5,9.2,32.5,6.3z M39.3,6.3c0-2.1-0.6-3.7-2.2-3.7
			c-1.6,0-2.2,1.6-2.2,3.7s0.6,3.7,2.2,3.7C38.7,9.9,39.3,8.3,39.3,6.3z M43.2,6.3c0-2.9,1.4-5.8,4.6-5.8c3.2,0,4.6,2.9,4.6,5.8
			s-1.4,5.8-4.6,5.8S43.2,9.2,43.2,6.3z M50,6.3c0-2.1-0.6-3.7-2.2-3.7s-2.2,1.6-2.2,3.7s0.6,3.7,2.2,3.7S50,8.3,50,6.3z"/>
	</g>
	<g>
		<defs>
			<filter id="Adobe_OpacityMaskFilter" filterUnits="userSpaceOnUse" x="93.4" y="10.8" width="28.6" height="201">
				<feColorMatrix  type="matrix" values="1 0 0 0 0  0 1 0 0 0  0 0 1 0 0  0 0 0 1 0"/>
			</filter>
		</defs>
		
			<mask maskUnits="userSpaceOnUse" x="93.4" y="10.8" width="28.6" height="201" id="SVGID_00000083799234244179724840000003521626967503850883_">
			<g class="st4">
				
					<linearGradient id="SVGID_00000173841422111914905730000010911414142338538663_" gradientUnits="userSpaceOnUse" x1="-150.4143" y1="-173.4074" x2="-149.2795" y2="-173.4074" gradientTransform="matrix(-3.000000e-15 45.8841 -45.8841 -3.000000e-15 -7403.4429 7051.2866)">
					<stop  offset="0" style="stop-color:#FFFFFF"/>
					<stop  offset="1" style="stop-color:#000000"/>
				</linearGradient>
				
					<rect x="-328.9" y="-80.1" style="fill:url(#SVGID_00000173841422111914905730000010911414142338538663_);" width="1764.2" height="675.5"/>
			</g>
		</mask>
		<g class="st6">
			<g>
				<g>
					<defs>
						<rect id="SVGID_00000109716544519832719220000009349332130886888598_" x="93.4" y="10.8" width="28.6" height="201"/>
					</defs>
					<clipPath id="SVGID_00000037681211016363243040000004398543144853556631_">
						<use xlink:href="#SVGID_00000109716544519832719220000009349332130886888598_"  style="overflow:visible;"/>
					</clipPath>
					
						<rect x="108.1" y="21" style="clip-path:url(#SVGID_00000037681211016363243040000004398543144853556631_);fill:#939598;" width="11.9" height="180.6"/>
				</g>
			</g>
		</g>
		<line class="st2" x1="114" y1="201.7" x2="114" y2="21"/>
		<path class="st8" d="M96.5,12v-0.8c3.8-3.1,6.4-5.2,6.4-7.4c0-1.6-1.3-2.3-2.5-2.3c-1.4,0-2.5,0.6-3.1,1.5l-0.7-0.7
			c0.8-1.1,2.1-1.7,3.7-1.7s3.5,0.9,3.5,3.1c0,2.5-2.6,4.7-5.8,7.3h5.9v0.9h-7.4V12z M110.1,12V2.1l-2.6,2.8l-0.6-0.6l3.3-3.5h0.9
			V12H110.1z M115.6,10.7c0.4,0,0.8,0.3,0.8,0.7s-0.4,0.8-0.8,0.8s-0.7-0.4-0.7-0.8C114.9,11,115.2,10.7,115.6,10.7z M119.2,9.7
			c0.6,0.9,1.7,1.6,3.1,1.6c1.7,0,2.8-0.9,2.8-2.4c0-1.6-1.3-2.3-3-2.3c-0.5,0-0.9,0-1,0V5.8c0.2,0,0.6,0,1,0c1.5,0,2.8-0.6,2.8-2.1
			c0-1.4-1.2-2.2-2.7-2.2c-1.3,0-2.2,0.5-3,1.4l-0.5-0.6c0.8-1,2-1.7,3.7-1.7c1.9,0,3.6,1.1,3.6,2.9c0,1.7-1.4,2.4-2.4,2.6
			c1,0.1,2.6,0.9,2.6,2.8s-1.4,3.2-3.8,3.2c-1.8,0-3.2-0.9-3.8-1.9L119.2,9.7z M132.5,0.6c3,0,4.1,3.1,4.1,5.8
			c0,2.6-1.1,5.8-4.1,5.8s-4.1-3.1-4.1-5.8C128.3,3.7,129.5,0.6,132.5,0.6z M132.5,1.5c-2.3,0-3.1,2.6-3.1,4.9s0.8,4.9,3.1,4.9
			s3.1-2.6,3.1-4.9S134.8,1.5,132.5,1.5z"/>
	</g>
	<g>
		<defs>
			
				<filter id="Adobe_OpacityMaskFilter_00000000921906292703089050000011631819792949080749_" filterUnits="userSpaceOnUse" x="178.4" y="47.7" width="28.6" height="164.1">
				<feColorMatrix  type="matrix" values="1 0 0 0 0  0 1 0 0 0  0 0 1 0 0  0 0 0 1 0"/>
			</filter>
		</defs>
		
			<mask maskUnits="userSpaceOnUse" x="178.4" y="47.7" width="28.6" height="164.1" id="SVGID_00000125563833016159635790000014679405771518473892_">
			<g style="filter:url(#Adobe_OpacityMaskFilter_00000000921906292703089050000011631819792949080749_);">
				
					<linearGradient id="SVGID_00000160170876439201095910000000745966508028097982_" gradientUnits="userSpaceOnUse" x1="-151.6102" y1="-176.255" x2="-150.4754" y2="-176.255" gradientTransform="matrix(-2.000000e-15 32.4215 -32.4215 -2.000000e-15 -5105.3516 5080.3271)">
					<stop  offset="0" style="stop-color:#FFFFFF"/>
					<stop  offset="1" style="stop-color:#000000"/>
				</linearGradient>
				
					<rect x="-273" y="-80.1" style="fill:url(#SVGID_00000160170876439201095910000000745966508028097982_);" width="1764.2" height="675.5"/>
			</g>
		</mask>
		<g class="st11">
			<g>
				<g>
					<defs>
						<rect id="SVGID_00000075847108909069293790000005612837157558508167_" x="178.4" y="47.7" width="28.6" height="164.1"/>
					</defs>
					<clipPath id="SVGID_00000040563616482245844830000009417452854052326790_">
						<use xlink:href="#SVGID_00000075847108909069293790000005612837157558508167_"  style="overflow:visible;"/>
					</clipPath>
					
						<rect x="193.1" y="57.9" style="clip-path:url(#SVGID_00000040563616482245844830000009417452854052326790_);fill:#939598;" width="11.9" height="143.7"/>
				</g>
			</g>
		</g>
		<line class="st2" x1="199" y1="201.7" x2="199" y2="21"/>
		<path class="st8" d="M182.8,12V2.1l-2.6,2.8l-0.6-0.6l3.3-3.5h0.9V12H182.8z M191.9,0.6c1.5,0,2.4,0.6,3,1.4l-0.6,0.7
			c-0.6-0.7-1.2-1.3-2.5-1.3c-2.4,0-3.3,2.5-3.3,4.9c0,0.2,0,0.4,0,0.5c0.5-0.8,1.8-1.9,3.3-1.9c2,0,3.6,1.2,3.6,3.5
			c0,1.8-1.4,3.6-3.8,3.6c-3,0-4.1-2.8-4.1-5.8C187.7,3.5,188.9,0.6,191.9,0.6z M191.7,5.9c-1.2,0-2.4,0.8-3,1.9
			c0.1,1.5,0.9,3.5,3,3.5c1.9,0,2.8-1.5,2.8-2.7C194.5,6.8,193.4,5.9,191.7,5.9z M198.2,10.7c0.4,0,0.8,0.3,0.8,0.7
			s-0.4,0.8-0.8,0.8s-0.7-0.4-0.7-0.8C197.5,11,197.8,10.7,198.2,10.7z M201.9,9.7c0.7,1,1.7,1.6,3.1,1.6c1.6,0,2.8-1.2,2.8-2.7
			c0-1.7-1.2-2.7-2.8-2.7c-1,0-1.9,0.3-2.7,1.1l-0.7-0.4V0.8h6.5v0.9h-5.5v4.4c0.5-0.5,1.5-1,2.7-1c1.9,0,3.6,1.2,3.6,3.6
			c0,2.2-1.7,3.6-3.8,3.6c-1.9,0-3-0.7-3.8-1.8L201.9,9.7z M215.1,0.6c3,0,4.1,3.1,4.1,5.8c0,2.6-1.1,5.8-4.1,5.8S211,9.1,211,6.4
			S212.1,0.6,215.1,0.6z M215.1,1.5c-2.3,0-3.1,2.6-3.1,4.9s0.8,4.9,3.1,4.9s3.1-2.6,3.1-4.9S217.5,1.5,215.1,1.5z"/>
	</g>
	<g>
		<defs>
			
				<filter id="Adobe_OpacityMaskFilter_00000129910683052120138330000002055290943562625167_" filterUnits="userSpaceOnUse" x="262.4" y="20.3" width="28.6" height="191.1">
				<feColorMatrix  type="matrix" values="1 0 0 0 0  0 1 0 0 0  0 0 1 0 0  0 0 0 1 0"/>
			</filter>
		</defs>
		
			<mask maskUnits="userSpaceOnUse" x="262.4" y="20.3" width="28.6" height="191.1" id="SVGID_00000029027614677651136910000011520212711606906505_">
			<g style="filter:url(#Adobe_OpacityMaskFilter_00000129910683052120138330000002055290943562625167_);">
				
					<linearGradient id="SVGID_00000161591315957421023750000014522651860952012438_" gradientUnits="userSpaceOnUse" x1="-151.0447" y1="-176.9045" x2="-149.9099" y2="-176.9045" gradientTransform="matrix(-2.000000e-15 37.779 -37.779 -2.000000e-15 -6019.875 5864.6763)">
					<stop  offset="0" style="stop-color:#FFFFFF"/>
					<stop  offset="1" style="stop-color:#000000"/>
				</linearGradient>
				
					<rect x="-218.7" y="-80.6" style="fill:url(#SVGID_00000161591315957421023750000014522651860952012438_);" width="1764.2" height="675.5"/>
			</g>
		</mask>
		<g class="st15">
			<g>
				<g>
					<defs>
						<rect id="SVGID_00000055676917668730602730000013227352048060458421_" x="262.4" y="20.3" width="28.6" height="191.1"/>
					</defs>
					<clipPath id="SVGID_00000080915867913264750510000004759354412310201521_">
						<use xlink:href="#SVGID_00000055676917668730602730000013227352048060458421_"  style="overflow:visible;"/>
					</clipPath>
					
						<rect x="277.1" y="30.5" style="clip-path:url(#SVGID_00000080915867913264750510000004759354412310201521_);fill:#939598;" width="11.9" height="170.6"/>
				</g>
			</g>
		</g>
		<line class="st2" x1="283" y1="201.2" x2="283" y2="20.6"/>
		<g>
			<path class="st8" d="M262.6,11.5v-0.8c3.8-3.1,6.4-5.2,6.4-7.4c0-1.6-1.3-2.3-2.5-2.3c-1.4,0-2.5,0.6-3.1,1.5l-0.7-0.6
				c0.8-1.1,2.1-1.7,3.7-1.7s3.5,0.9,3.5,3.1c0,2.5-2.6,4.7-5.8,7.3h5.9v0.9C270,11.5,262.6,11.5,262.6,11.5z M276.3,0.1
				c3,0,4.1,3.1,4.1,5.8c0,2.6-1.1,5.8-4.1,5.8s-4.1-3.1-4.1-5.8S273.3,0.1,276.3,0.1z M276.3,1c-2.3,0-3.1,2.6-3.1,4.9
				s0.8,4.9,3.1,4.9s3.1-2.6,3.1-4.9C279.4,3.6,278.7,1,276.3,1z M282.9,10.2c0.4,0,0.8,0.3,0.8,0.7s-0.4,0.8-0.8,0.8
				s-0.7-0.4-0.7-0.8C282.2,10.5,282.5,10.2,282.9,10.2z M289.5,0.1c3,0,4.1,3.1,4.1,5.8c0,2.6-1.1,5.8-4.1,5.8s-4.1-3.1-4.1-5.8
				C285.3,3.2,286.5,0.1,289.5,0.1z M289.5,1c-2.3,0-3.1,2.6-3.1,4.9s0.8,4.9,3.1,4.9s3.1-2.6,3.1-4.9S291.8,1,289.5,1z M299.8,0.1
				c3,0,4.1,3.1,4.1,5.8c0,2.6-1.1,5.8-4.1,5.8s-4.2-3.2-4.2-5.8C295.6,3.2,296.8,0.1,299.8,0.1z M299.8,1c-2.3,0-3.1,2.6-3.1,4.9
				s0.8,4.9,3.1,4.9s3.1-2.6,3.1-4.9C302.9,3.6,302.1,1,299.8,1z"/>
		</g>
	</g>
	<g>
		<defs>
			
				<filter id="Adobe_OpacityMaskFilter_00000146457319975017052870000001184147158566206356_" filterUnits="userSpaceOnUse" x="348.3" y="112.6" width="28.6" height="98.7">
				<feColorMatrix  type="matrix" values="1 0 0 0 0  0 1 0 0 0  0 0 1 0 0  0 0 0 1 0"/>
			</filter>
		</defs>
		
			<mask maskUnits="userSpaceOnUse" x="348.3" y="112.6" width="28.6" height="98.7" id="SVGID_00000163069122094554194630000016005532259508663984_">
			<g style="filter:url(#Adobe_OpacityMaskFilter_00000146457319975017052870000001184147158566206356_);">
				
					<linearGradient id="SVGID_00000034081775909595169320000007828553420983970998_" gradientUnits="userSpaceOnUse" x1="-154.7241" y1="-186.4562" x2="-153.5892" y2="-186.4562" gradientTransform="matrix(-1.000000e-15 18.445 -18.445 -1.000000e-15 -2719.584 3034.1394)">
					<stop  offset="0" style="stop-color:#FFFFFF"/>
					<stop  offset="1" style="stop-color:#000000"/>
				</linearGradient>
				
					<rect x="-162.5" y="-80.6" style="fill:url(#SVGID_00000034081775909595169320000007828553420983970998_);" width="1764.2" height="675.5"/>
			</g>
		</mask>
		<g class="st19">
			<g>
				<g>
					<defs>
						<rect id="SVGID_00000159428021945931375450000000122762473645022639_" x="348.3" y="112.6" width="28.6" height="98.7"/>
					</defs>
					<clipPath id="SVGID_00000127740935100918396450000006715174334217075605_">
						<use xlink:href="#SVGID_00000159428021945931375450000000122762473645022639_"  style="overflow:visible;"/>
					</clipPath>
					
						<rect x="363" y="122.8" style="clip-path:url(#SVGID_00000127740935100918396450000006715174334217075605_);fill:#939598;" width="11.9" height="78.3"/>
				</g>
			</g>
		</g>
		<line class="st2" x1="368.9" y1="201.2" x2="368.9" y2="20.6"/>
		<path class="st8" d="M349.9,5.6c-1.3-0.4-2.6-1.2-2.6-2.7c0-2,1.8-2.9,3.6-2.9c1.7,0,3.6,0.9,3.6,2.9c0,1.5-1.3,2.3-2.6,2.7
			c1.4,0.4,2.8,1.4,2.8,3c0,1.8-1.6,3-3.8,3c-2.2,0-3.8-1.2-3.8-3C347.2,7,348.5,6,349.9,5.6z M351,6.1c-0.7,0.1-2.8,0.8-2.8,2.5
			c0,1.4,1.3,2.2,2.8,2.2s2.8-0.8,2.8-2.2C353.8,6.8,351.6,6.1,351,6.1z M351,0.9c-1.5,0-2.6,0.8-2.6,2.1c0,1.6,2,2.1,2.6,2.2
			c0.7-0.1,2.6-0.6,2.6-2.2C353.6,1.7,352.4,0.9,351,0.9z M357.7,10.1c0.4,0,0.8,0.3,0.8,0.7s-0.4,0.8-0.8,0.8s-0.7-0.4-0.7-0.8
			C356.9,10.4,357.2,10.1,357.7,10.1z M364.2,0c3,0,4.1,3.1,4.1,5.8c0,2.6-1.1,5.8-4.1,5.8s-4.1-3.1-4.1-5.8S361.2,0,364.2,0z
			 M364.2,0.9c-2.3,0-3.1,2.6-3.1,4.9s0.8,4.9,3.1,4.9s3.1-2.6,3.1-4.9S366.6,0.9,364.2,0.9z M374.5,0c3,0,4.1,3.1,4.1,5.8
			c0,2.6-1.1,5.8-4.1,5.8s-4.1-3.1-4.1-5.8S371.5,0,374.5,0z M374.5,0.9c-2.3,0-3.1,2.6-3.1,4.9s0.8,4.9,3.1,4.9s3.1-2.6,3.1-4.9
			C377.7,3.5,376.9,0.9,374.5,0.9z"/>
	</g>
</g>
</svg>
