<?xml version="1.0" encoding="utf-8"?>
<!-- Generator: Adobe Illustrator 26.4.0, SVG Export Plug-In . SVG Version: 6.00 Build 0)  -->
<svg version="1.1" id="Layer_1" xmlns="http://www.w3.org/2000/svg" xmlns:xlink="http://www.w3.org/1999/xlink" x="0px" y="0px"
	 viewBox="0 0 398 221.3" style="enable-background:new 0 0 398 221.3;" xml:space="preserve">
<style type="text/css">
	.st0{fill:#0069AA;}
	.st1{fill:#076AAA;}
	.st2{clip-path:url(#SVGID_00000164481627118621042970000007821834268716031643_);fill:#076AAA;}
	.st3{fill:none;stroke:#FFFFFF;}
	.st4{fill:#4E4E50;}
	.st5{filter:url(#Adobe_OpacityMaskFilter);}
	.st6{fill:url(#SVGID_00000098195794695583824020000005457932149272508063_);}
	.st7{mask:url(#SVGID_00000143593349354028432270000014328758677975441029_);}
	.st8{clip-path:url(#SVGID_00000118374068854679802810000014574788464706983845_);fill:#939598;}
	.st9{filter:url(#Adobe_OpacityMaskFilter_00000093173758727061226700000012461987109154963601_);}
	.st10{fill:url(#SVGID_00000123431007278427430450000002933981367244952478_);}
	.st11{mask:url(#SVGID_00000160906781118117206690000000092248713416567487_);}
	.st12{clip-path:url(#SVGID_00000129895812919534408910000011088701373457188481_);fill:#939598;}
	.st13{filter:url(#Adobe_OpacityMaskFilter_00000056428217248514050670000004048761245449970599_);}
	.st14{fill:url(#SVGID_00000010273613872573901310000018155851293174810555_);}
	.st15{mask:url(#SVGID_00000029045685675332577540000013056051090284389508_);}
	.st16{clip-path:url(#SVGID_00000075152314720522666730000001511694194790297773_);fill:#939598;}
	.st17{filter:url(#Adobe_OpacityMaskFilter_00000152233155041390570200000001980746151509005192_);}
	.st18{fill:url(#SVGID_00000146467350105387823390000016196909050714646936_);}
	.st19{mask:url(#SVGID_00000026868753405243257440000004877765426967030943_);}
	.st20{clip-path:url(#SVGID_00000155104726372302135100000002604944948219805338_);fill:#939598;}
</style>
<path class="st0" d="M0,221.2V220c3.9-3,5.8-4.6,5.8-6.3c0-1.2-1-1.8-2-1.8c-1.3,0-2.2,0.5-2.9,1.3l-0.9-1c0.9-1.1,2.3-1.7,3.8-1.7
	c1.9,0,3.7,1.1,3.7,3.2c0,2-2,3.9-4.9,6.1h4.9v1.4H0z M13.4,210.5c2.9,0,4.1,2.8,4.1,5.4s-1.2,5.4-4.1,5.4s-4.1-2.8-4.1-5.4
	S10.4,210.5,13.4,210.5z M13.4,211.9c-1.9,0-2.5,2-2.5,4c0,2,0.6,4,2.5,4c1.8,0,2.5-2,2.5-4C15.9,213.9,15.3,211.9,13.4,211.9z
	 M19,221.2V220c3.9-3,5.8-4.6,5.8-6.3c0-1.2-1-1.8-2-1.8c-1.3,0-2.2,0.5-2.9,1.3l-0.9-1c0.9-1.1,2.3-1.7,3.8-1.7
	c1.9,0,3.7,1.1,3.7,3.2c0,2-2,3.9-4.9,6.1h4.9v1.4H19z M31.8,221.2v-8.5l-1.9,2l-0.9-1l3.1-3.1h1.4v10.5h-1.7V221.2z M36.8,218v-1.2
	h3.8v1.2H36.8z M41.8,221.2V220c3.9-3,5.8-4.6,5.8-6.3c0-1.2-1-1.8-2-1.8c-1.3,0-2.2,0.5-2.9,1.3l-0.9-1c0.9-1.1,2.3-1.7,3.8-1.7
	c1.9,0,3.7,1.1,3.7,3.2c0,2-2,3.9-4.9,6.1h4.8v1.4H41.8z M51.3,221.2V220c3.9-3,5.8-4.6,5.8-6.3c0-1.2-1-1.8-2-1.8
	c-1.3,0-2.2,0.5-2.9,1.3l-0.9-1c0.9-1.1,2.3-1.7,3.8-1.7c1.9,0,3.7,1.1,3.7,3.2c0,2-2,3.9-4.9,6.1h4.9v1.4H51.3z"/>
<path d="M86.4,221.1v-0.8c3.6-2.9,6-4.9,6-7c0-1.5-1.2-2.1-2.4-2.1c-1.3,0-2.3,0.6-2.9,1.4l-0.6-0.6c0.7-1,2-1.6,3.5-1.6
	s3.3,0.9,3.3,3c0,2.3-2.4,4.4-5.5,6.9h5.5v0.8L86.4,221.1L86.4,221.1z M99.3,210.4c2.8,0,3.9,2.9,3.9,5.4s-1.1,5.4-3.9,5.4
	c-2.8,0-3.9-2.9-3.9-5.4S96.5,210.4,99.3,210.4z M99.3,211.2c-2.2,0-2.9,2.4-2.9,4.6c0,2.2,0.7,4.6,2.9,4.6s2.9-2.5,2.9-4.6
	C102.4,213.7,101.7,211.2,99.3,211.2z M105.1,221.1v-0.8c3.6-2.9,6-4.9,6-7c0-1.5-1.2-2.1-2.4-2.1c-1.3,0-2.3,0.6-2.9,1.4l-0.6-0.6
	c0.7-1,2-1.6,3.5-1.6c1.5,0,3.3,0.9,3.3,3c0,2.3-2.4,4.4-5.5,6.9h5.5v0.8L105.1,221.1L105.1,221.1z M118,210.4
	c2.8,0,3.9,2.9,3.9,5.4s-1.1,5.4-3.9,5.4c-2.8,0-3.9-2.9-3.9-5.4S115.2,210.4,118,210.4z M118,211.2c-2.2,0-2.9,2.4-2.9,4.6
	c0,2.2,0.7,4.6,2.9,4.6c2.2,0,2.9-2.5,2.9-4.6S120.2,211.2,118,211.2z M124,217.6v-0.8h3.8v0.8H124z M129,221.1v-0.8
	c3.6-2.9,6-4.9,6-7c0-1.5-1.2-2.1-2.4-2.1c-1.3,0-2.3,0.6-2.9,1.4l-0.6-0.6c0.7-1,2-1.6,3.5-1.6c1.5,0,3.3,0.9,3.3,3
	c0,2.3-2.4,4.4-5.5,6.9h5.5v0.8L129,221.1L129,221.1z M141.8,221.1v-9.3l-2.5,2.7l-0.6-0.6l3.1-3.3h0.8v10.5L141.8,221.1
	L141.8,221.1z"/>
<path d="M170.6,221v-0.7c3.6-2.9,6-4.9,6-7c0-1.5-1.2-2.1-2.4-2.1c-1.3,0-2.3,0.6-2.9,1.4l-0.6-0.6c0.7-1,2-1.6,3.5-1.6
	c1.5,0,3.3,0.9,3.3,3c0,2.3-2.4,4.4-5.5,6.9h5.5v0.8h-6.9V221z M183.5,210.3c2.8,0,3.9,2.9,3.9,5.4c0,2.5-1.1,5.4-3.9,5.4
	c-2.8,0-3.9-2.9-3.9-5.4C179.6,213.2,180.7,210.3,183.5,210.3z M183.5,211.1c-2.2,0-2.9,2.4-2.9,4.6c0,2.2,0.7,4.6,2.9,4.6
	s2.9-2.5,2.9-4.6C186.5,213.6,185.8,211.1,183.5,211.1z M193.1,221v-9.3l-2.5,2.7l-0.6-0.6l3.1-3.3h0.8V221L193.1,221L193.1,221z
	 M198.6,219.2c0.5,0.7,1.2,1.2,2.3,1.2c2.3,0,3.1-2.4,3.1-4.6c0-0.2,0-0.3,0-0.5c-0.4,0.7-1.7,1.8-3.1,1.8c-1.9,0-3.4-1.1-3.4-3.3
	c0-1.7,1.3-3.4,3.5-3.4c2.8,0,3.9,2.6,3.9,5.4c0,2.7-1.1,5.4-4,5.4c-1.4,0-2.2-0.6-2.8-1.3L198.6,219.2z M201.1,211.1
	c-1.8,0-2.6,1.4-2.6,2.5c0,1.7,1.1,2.5,2.6,2.5c1.2,0,2.3-0.7,2.9-1.8C203.8,213,203,211.1,201.1,211.1z M207,217.6v-0.8h3.8v0.8
	H207z M212.1,221v-0.7c3.6-2.9,6-4.9,6-7c0-1.5-1.2-2.1-2.4-2.1c-1.3,0-2.3,0.6-2.9,1.4l-0.6-0.6c0.7-1,2-1.6,3.5-1.6
	c1.5,0,3.3,0.9,3.3,3c0,2.3-2.4,4.4-5.5,6.9h5.5v0.8h-6.9V221z M225.1,210.3c2.8,0,3.9,2.9,3.9,5.4c0,2.5-1.1,5.4-3.9,5.4
	c-2.8,0-3.9-2.9-3.9-5.4C221.2,213.2,222.3,210.3,225.1,210.3z M225.1,211.1c-2.2,0-2.9,2.4-2.9,4.6c0,2.2,0.7,4.6,2.9,4.6
	s2.9-2.5,2.9-4.6C228,213.6,227.3,211.1,225.1,211.1z"/>
<path d="M256.6,220.9v-0.7c3.6-2.9,6-4.9,6-7c0-1.5-1.2-2.1-2.4-2.1c-1.3,0-2.3,0.6-2.9,1.4l-0.6-0.6c0.7-1,2-1.6,3.5-1.6
	s3.3,0.9,3.3,3c0,2.3-2.4,4.4-5.5,6.9h5.5v0.8h-6.9V220.9z M269.6,210.2c2.8,0,3.9,2.9,3.9,5.4c0,2.5-1.1,5.4-3.9,5.4
	c-2.8,0-3.9-2.9-3.9-5.4C265.7,213.2,266.8,210.2,269.6,210.2z M269.6,211.1c-2.2,0-2.9,2.4-2.9,4.6c0,2.2,0.7,4.6,2.9,4.6
	s2.9-2.5,2.9-4.6C272.5,213.5,271.8,211.1,269.6,211.1z M279.1,220.9v-9.3l-2.5,2.7l-0.6-0.6l3.1-3.3h0.8v10.5L279.1,220.9
	L279.1,220.9z M286.4,215.5c-1.2-0.3-2.4-1.1-2.4-2.5c0-1.9,1.7-2.7,3.4-2.7c1.6,0,3.4,0.9,3.4,2.7c0,1.4-1.2,2.2-2.4,2.5
	c1.3,0.4,2.6,1.3,2.6,2.8c0,1.7-1.5,2.8-3.6,2.8c-2,0-3.6-1.1-3.6-2.8C283.7,216.8,285,215.9,286.4,215.5z M287.3,215.9
	c-0.6,0.1-2.7,0.7-2.7,2.3c0,1.3,1.3,2.1,2.7,2.1c1.4,0,2.7-0.8,2.7-2.1C290,216.6,287.9,216,287.3,215.9z M287.3,211.1
	c-1.4,0-2.5,0.7-2.5,2c0,1.5,1.9,1.9,2.5,2.1c0.6-0.1,2.5-0.6,2.5-2.1C289.8,211.8,288.7,211.1,287.3,211.1z M292.9,217.5v-0.8h3.8
	v0.8H292.9z M301.5,220.9v-9.3l-2.5,2.7l-0.6-0.6l3.1-3.3h0.8v10.5L301.5,220.9L301.5,220.9z M307,219.1c0.5,0.7,1.2,1.2,2.3,1.2
	c2.3,0,3.1-2.4,3.1-4.6c0-0.2,0-0.3,0-0.5c-0.4,0.7-1.7,1.8-3.1,1.8c-1.9,0-3.4-1.1-3.4-3.3c0-1.7,1.3-3.4,3.5-3.4
	c2.8,0,3.9,2.6,3.9,5.4c0,2.7-1.1,5.4-4,5.4c-1.4,0-2.2-0.6-2.8-1.3L307,219.1z M309.5,211c-1.8,0-2.6,1.4-2.6,2.5
	c0,1.7,1.1,2.5,2.6,2.5c1.2,0,2.3-0.7,2.9-1.8C312.3,212.9,311.5,211,309.5,211z"/>
<path d="M342.4,221.1v-0.8c3.6-2.9,6-4.9,6-7c0-1.5-1.2-2.1-2.4-2.1c-1.3,0-2.3,0.6-2.9,1.4l-0.6-0.6c0.7-1,2-1.6,3.5-1.6
	c1.5,0,3.3,0.9,3.3,3c0,2.3-2.4,4.4-5.5,6.9h5.5v0.8L342.4,221.1L342.4,221.1z M355.5,210.4c2.8,0,3.9,2.9,3.9,5.4s-1.1,5.4-3.9,5.4
	s-3.9-2.9-3.9-5.4S352.7,210.4,355.5,210.4z M355.5,211.2c-2.2,0-2.9,2.4-2.9,4.6c0,2.2,0.7,4.6,2.9,4.6s2.9-2.5,2.9-4.6
	S357.7,211.2,355.5,211.2z M365,221.1v-9.3l-2.5,2.7l-0.6-0.6l3.1-3.3h0.8v10.5L365,221.1L365,221.1z M371,221.1l4.4-9.7h-5.8v-0.8
	h6.9v0.6l-4.5,9.9H371z M377.5,217.6v-0.8h3.8v0.8H377.5z M386,221.1v-9.3l-2.5,2.7l-0.6-0.6l3.1-3.3h0.8v10.5L386,221.1L386,221.1z
	 M393.4,215.7c-1.2-0.3-2.4-1.1-2.4-2.5c0-1.9,1.7-2.7,3.4-2.7c1.6,0,3.4,0.9,3.4,2.7c0,1.4-1.2,2.2-2.4,2.5
	c1.3,0.4,2.6,1.3,2.6,2.8c0,1.7-1.5,2.8-3.6,2.8c-2,0-3.6-1.1-3.6-2.8C390.8,217,392,216,393.4,215.7z M394.3,216.1
	c-0.6,0.1-2.7,0.7-2.7,2.3c0,1.3,1.3,2.1,2.7,2.1s2.7-0.8,2.7-2.1C397,216.8,395,216.1,394.3,216.1z M394.3,211.2
	c-1.4,0-2.5,0.7-2.5,2c0,1.5,1.9,1.9,2.5,2.1c0.6-0.1,2.5-0.6,2.5-2.1C396.8,212,395.7,211.2,394.3,211.2z"/>
<g>
	<path class="st1" d="M10.3,11.6V9.6c4.6-3.4,5.9-4.5,5.9-5.9c0-1-0.9-1.5-1.8-1.5c-1.3,0-2.3,0.5-3,1.3L10,1.9
		c1.1-1.3,2.8-1.8,4.3-1.8c2.4,0,4.3,1.3,4.3,3.6c0,1.9-1.6,3.6-4.5,5.7h4.6v2.1C18.8,11.6,10.3,11.6,10.3,11.6z M20.7,11.6V9.6
		c4.6-3.4,5.9-4.5,5.9-5.9c0-1-0.9-1.5-1.8-1.5c-1.3,0-2.3,0.5-3,1.3l-1.4-1.6c1.1-1.3,2.8-1.8,4.3-1.8c2.4,0,4.3,1.3,4.3,3.6
		c0,1.9-1.6,3.6-4.5,5.7h4.6v2.1C29.1,11.6,20.7,11.6,20.7,11.6z M31.2,10.3c0-0.7,0.6-1.4,1.4-1.4s1.4,0.6,1.4,1.4
		c0,0.7-0.6,1.4-1.4,1.4S31.2,11,31.2,10.3z M36.7,11.6l4-9.1h-5.6V0.3h8.4V2l-4.2,9.5H36.7z M45.5,10.5l1.1-1.8
		c0.6,0.6,1.2,0.9,2.2,0.9c1.8,0,2.8-1.6,2.8-3.2c0-0.1,0-0.2,0-0.3c-0.5,0.8-1.7,1.4-2.9,1.4c-2,0-3.8-1.3-3.8-3.6
		c0-2.2,1.7-3.8,4.3-3.8c3.4,0,4.8,2.6,4.8,5.8c0,3.4-1.9,5.8-5.2,5.8C47.5,11.7,46.3,11.3,45.5,10.5z M51.6,4.5
		c-0.1-1.1-0.7-2.3-2.3-2.3c-1.3,0-2,0.9-2,1.6c0,1.2,1,1.7,2.1,1.7C50.3,5.5,51.1,5.1,51.6,4.5z"/>
	<g>
		<g>
			<g>
				<defs>
					<rect id="SVGID_1_" x="8.3" y="21.8" width="28.8" height="195.8"/>
				</defs>
				<clipPath id="SVGID_00000009589878324678028580000004165940509025947566_">
					<use xlink:href="#SVGID_1_"  style="overflow:visible;"/>
				</clipPath>
				
					<rect x="23.1" y="31.7" style="clip-path:url(#SVGID_00000009589878324678028580000004165940509025947566_);fill:#076AAA;" width="12" height="175.9"/>
			</g>
		</g>
	</g>
	<line class="st3" x1="29" y1="207.6" x2="29" y2="31.7"/>
</g>
<g>
	<path class="st4" d="M98.9,11.6V1.6l-2.6,2.8l-0.6-0.6L99,0.3h0.9v11.3H98.9z M106.7,5.7c-1.3-0.4-2.6-1.2-2.6-2.7
		c0-2,1.8-2.9,3.6-2.9c1.7,0,3.6,0.9,3.6,2.9c0,1.5-1.3,2.4-2.6,2.7c1.4,0.4,2.8,1.4,2.8,3c0,1.8-1.6,3-3.8,3c-2.2,0-3.8-1.2-3.8-3
		C103.9,7.1,105.2,6.1,106.7,5.7z M107.7,6.1c-0.7,0.1-2.8,0.8-2.8,2.5c0,1.4,1.3,2.2,2.8,2.2s2.8-0.8,2.8-2.2
		C110.5,6.9,108.4,6.2,107.7,6.1z M107.7,1c-1.5,0-2.7,0.8-2.7,2.1c0,1.6,2,2.1,2.7,2.2c0.7-0.1,2.7-0.6,2.7-2.2
		C110.3,1.7,109.1,1,107.7,1z M114.4,10.2c0.4,0,0.8,0.3,0.8,0.7c0,0.4-0.4,0.8-0.8,0.8s-0.7-0.4-0.7-0.8
		C113.7,10.5,114,10.2,114.4,10.2z M120.1,5.7c-1.4-0.4-2.6-1.2-2.6-2.7c0-2,1.8-2.9,3.6-2.9c1.7,0,3.6,0.9,3.6,2.9
		c0,1.5-1.3,2.4-2.6,2.7c1.4,0.4,2.8,1.4,2.8,3c0,1.8-1.6,3-3.8,3s-3.8-1.2-3.8-3C117.3,7.1,118.6,6.1,120.1,5.7z M121.1,6.1
		c-0.7,0.1-2.8,0.8-2.8,2.5c0,1.4,1.3,2.2,2.8,2.2c1.5,0,2.8-0.8,2.8-2.2C124,6.9,121.9,6.2,121.1,6.1z M121.1,1
		c-1.5,0-2.7,0.8-2.7,2.1c0,1.6,2,2.1,2.7,2.2c0.7-0.1,2.7-0.6,2.7-2.2C123.9,1.7,122.7,1,121.1,1z M128.4,9.5
		c0.6,0.7,1.2,1.2,2.5,1.2c2.5,0,3.3-2.6,3.3-4.9c0-0.2,0-0.3,0-0.5c-0.5,0.8-1.8,1.9-3.3,1.9c-2,0-3.6-1.2-3.6-3.6
		c0-1.8,1.4-3.6,3.8-3.6c3,0,4.1,2.8,4.1,5.8c0,2.9-1.2,5.8-4.3,5.8c-1.5,0-2.4-0.6-3-1.4L128.4,9.5z M131,0.9
		c-1.9,0-2.8,1.5-2.8,2.7c0,1.8,1.2,2.7,2.8,2.7c1.2,0,2.4-0.8,3.1-1.9C133.9,2.9,133.1,0.9,131,0.9z"/>
	<defs>
		<filter id="Adobe_OpacityMaskFilter" filterUnits="userSpaceOnUse" x="94.1" y="47.8" width="28.8" height="168.5">
			<feColorMatrix  type="matrix" values="1 0 0 0 0  0 1 0 0 0  0 0 1 0 0  0 0 0 1 0"/>
		</filter>
	</defs>
	
		<mask maskUnits="userSpaceOnUse" x="94.1" y="47.8" width="28.8" height="168.5" id="SVGID_00000143593349354028432270000014328758677975441029_">
		<g class="st5">
			
				<linearGradient id="SVGID_00000146458857303220531710000015185922017732438158_" gradientUnits="userSpaceOnUse" x1="-156.1995" y1="-173.87" x2="-155.095" y2="-173.87" gradientTransform="matrix(-2.000000e-15 38.0814 -38.0814 -2.000000e-15 -6064.0938 6112.6519)">
				<stop  offset="0" style="stop-color:#FFFFFF"/>
				<stop  offset="1" style="stop-color:#000000"/>
			</linearGradient>
			
				<rect x="-331.1" y="-349.9" style="fill:url(#SVGID_00000146458857303220531710000015185922017732438158_);" width="1776.4" height="657.5"/>
		</g>
	</mask>
	<g class="st7">
		<g>
			<g>
				<defs>
					<rect id="SVGID_00000078762382059291400090000018432941770134716328_" x="94.1" y="47.8" width="28.8" height="168.5"/>
				</defs>
				<clipPath id="SVGID_00000017474574030876655500000016009028335054599827_">
					<use xlink:href="#SVGID_00000078762382059291400090000018432941770134716328_"  style="overflow:visible;"/>
				</clipPath>
				
					<rect x="108.9" y="57.8" style="clip-path:url(#SVGID_00000017474574030876655500000016009028335054599827_);fill:#939598;" width="12" height="148.6"/>
			</g>
		</g>
	</g>
	<line class="st3" x1="114.8" y1="206.4" x2="114.8" y2="30.5"/>
</g>
<g>
	<path class="st4" d="M185.1,11.5V1.6l-2.6,2.8l-0.7-0.6l3.3-3.5h0.9v11.3h-0.9V11.5z M194.4,0.1c1.5,0,2.4,0.6,3,1.4l-0.6,0.7
		c-0.6-0.7-1.2-1.3-2.5-1.3c-2.4,0-3.3,2.5-3.3,4.9c0,0.2,0,0.4,0,0.5c0.5-0.8,1.8-1.9,3.3-1.9c2,0,3.6,1.2,3.6,3.5
		c0,1.8-1.4,3.6-3.8,3.6c-3,0-4.1-2.8-4.1-5.8C190.1,3,191.3,0.1,194.4,0.1z M194.2,5.4c-1.2,0-2.4,0.8-3.1,1.9
		c0.1,1.5,0.9,3.5,3,3.5c1.9,0,2.8-1.5,2.8-2.7C197,6.3,195.8,5.4,194.2,5.4z M200.7,10.1c0.4,0,0.8,0.3,0.8,0.7
		c0,0.4-0.4,0.8-0.8,0.8c-0.4,0-0.7-0.4-0.7-0.8C200,10.5,200.3,10.1,200.7,10.1z M206,11.5V1.6l-2.6,2.8l-0.6-0.6l3.3-3.5h0.9v11.3
		h-1V11.5z M214.6,11.5V1.6L212,4.4l-0.6-0.6l3.3-3.5h0.9v11.3h-1V11.5z"/>
	<defs>
		
			<filter id="Adobe_OpacityMaskFilter_00000164502898081033636880000010332505776705908921_" filterUnits="userSpaceOnUse" x="179.5" y="68.1" width="28.8" height="149">
			<feColorMatrix  type="matrix" values="1 0 0 0 0  0 1 0 0 0  0 0 1 0 0  0 0 0 1 0"/>
		</filter>
	</defs>
	
		<mask maskUnits="userSpaceOnUse" x="179.5" y="68.1" width="28.8" height="149" id="SVGID_00000160906781118117206690000000092248713416567487_">
		<g style="filter:url(#Adobe_OpacityMaskFilter_00000164502898081033636880000010332505776705908921_);">
			
				<linearGradient id="SVGID_00000173869436904182217000000004016109516403591850_" gradientUnits="userSpaceOnUse" x1="-159.0542" y1="-176.6673" x2="-157.9497" y2="-176.6673" gradientTransform="matrix(-2.000000e-15 29.6214 -29.6214 -2.000000e-15 -4619.96 4885.9312)">
				<stop  offset="0" style="stop-color:#FFFFFF"/>
				<stop  offset="1" style="stop-color:#000000"/>
			</linearGradient>
			
				<rect x="-275" y="-349.1" style="fill:url(#SVGID_00000173869436904182217000000004016109516403591850_);" width="1776.4" height="657.5"/>
		</g>
	</mask>
	<g class="st11">
		<g>
			<g>
				<defs>
					<rect id="SVGID_00000075153110335718536690000002894500660707490997_" x="179.5" y="68.1" width="28.8" height="149"/>
				</defs>
				<clipPath id="SVGID_00000016762566457229250700000008783425540358082969_">
					<use xlink:href="#SVGID_00000075153110335718536690000002894500660707490997_"  style="overflow:visible;"/>
				</clipPath>
				
					<rect x="194.3" y="78.1" style="clip-path:url(#SVGID_00000016762566457229250700000008783425540358082969_);fill:#939598;" width="12" height="129.1"/>
			</g>
		</g>
	</g>
	<line class="st3" x1="200.3" y1="207.2" x2="200.3" y2="31.4"/>
</g>
<g>
	<path class="st4" d="M265.6,11.5V1.6L263,4.4l-0.6-0.6l3.3-3.5h0.9v11.3h-1V11.5z M273.3,5.7c-1.3-0.4-2.6-1.2-2.6-2.7
		c0-2,1.8-2.9,3.6-2.9C276,0.1,278,1,278,3c0,1.5-1.3,2.4-2.6,2.7c1.4,0.4,2.8,1.4,2.8,3c0,1.8-1.6,3-3.8,3s-3.8-1.2-3.8-3
		C270.5,7.1,271.8,6.1,273.3,5.7z M274.3,6.1c-0.7,0.1-2.8,0.8-2.8,2.5c0,1.4,1.3,2.2,2.8,2.2s2.8-0.8,2.8-2.2
		C277.2,6.9,275,6.2,274.3,6.1z M274.3,0.9c-1.5,0-2.7,0.8-2.7,2.1c0,1.6,2,2.1,2.7,2.2c0.7-0.1,2.7-0.6,2.7-2.2
		C277,1.7,275.7,0.9,274.3,0.9z M281.1,10.1c0.4,0,0.8,0.3,0.8,0.7c0,0.4-0.4,0.8-0.8,0.8c-0.4,0-0.7-0.4-0.7-0.8
		C280.4,10.5,280.7,10.1,281.1,10.1z M286.8,5.7c-1.3-0.4-2.6-1.2-2.6-2.7c0-2,1.8-2.9,3.6-2.9c1.7,0,3.6,0.9,3.6,2.9
		c0,1.5-1.3,2.4-2.6,2.7c1.4,0.4,2.8,1.4,2.8,3c0,1.8-1.6,3-3.8,3s-3.8-1.2-3.8-3C284,7.1,285.3,6.1,286.8,5.7z M287.8,6.1
		c-0.7,0.1-2.8,0.8-2.8,2.5c0,1.4,1.3,2.2,2.8,2.2s2.8-0.8,2.8-2.2C290.6,6.9,288.5,6.2,287.8,6.1z M287.8,0.9
		c-1.5,0-2.7,0.8-2.7,2.1c0,1.6,2,2.1,2.7,2.2c0.7-0.1,2.7-0.6,2.7-2.2C290.5,1.7,289.3,0.9,287.8,0.9z M294.6,9.2
		c0.6,0.9,1.7,1.6,3.1,1.6c1.7,0,2.8-0.9,2.8-2.4c0-1.6-1.3-2.3-3-2.3c-0.5,0-0.9,0-1,0V5.2c0.2,0,0.6,0,1,0c1.5,0,2.8-0.6,2.8-2.1
		c0-1.4-1.2-2.2-2.7-2.2c-1.3,0-2.2,0.5-3,1.4L294,1.7c0.8-1,2-1.7,3.7-1.7c1.9,0,3.6,1.1,3.6,3c0,1.7-1.4,2.5-2.4,2.6
		c1,0.1,2.6,0.9,2.6,2.8s-1.4,3.2-3.8,3.2c-1.8,0-3.2-0.9-3.8-1.9L294.6,9.2z"/>
	<defs>
		
			<filter id="Adobe_OpacityMaskFilter_00000145751607989892766200000017574597990279031448_" filterUnits="userSpaceOnUse" x="264.1" y="49.4" width="28.8" height="167.7">
			<feColorMatrix  type="matrix" values="1 0 0 0 0  0 1 0 0 0  0 0 1 0 0  0 0 0 1 0"/>
		</filter>
	</defs>
	
		<mask maskUnits="userSpaceOnUse" x="264.1" y="49.4" width="28.8" height="167.7" id="SVGID_00000029045685675332577540000013056051090284389508_">
		<g style="filter:url(#Adobe_OpacityMaskFilter_00000145751607989892766200000017574597990279031448_);">
			
				<linearGradient id="SVGID_00000008114980453376161950000001148013836151944588_" gradientUnits="userSpaceOnUse" x1="-157.6544" y1="-177.6672" x2="-156.5499" y2="-177.6672" gradientTransform="matrix(-2.000000e-15 33.2113 -33.2113 -2.000000e-15 -5232.7378 5406.4712)">
				<stop  offset="0" style="stop-color:#FFFFFF"/>
				<stop  offset="1" style="stop-color:#000000"/>
			</linearGradient>
			
				<rect x="-220.4" y="-349.1" style="fill:url(#SVGID_00000008114980453376161950000001148013836151944588_);" width="1776.4" height="657.5"/>
		</g>
	</mask>
	<g class="st15">
		<g>
			<g>
				<defs>
					<rect id="SVGID_00000018949062322855571590000016980065101715451563_" x="264.1" y="49.4" width="28.8" height="167.7"/>
				</defs>
				<clipPath id="SVGID_00000157986874251372850830000003296260539726469258_">
					<use xlink:href="#SVGID_00000018949062322855571590000016980065101715451563_"  style="overflow:visible;"/>
				</clipPath>
				
					<rect x="278.9" y="59.4" style="clip-path:url(#SVGID_00000157986874251372850830000003296260539726469258_);fill:#939598;" width="12" height="147.8"/>
			</g>
		</g>
	</g>
	<line class="st3" x1="284.9" y1="207.2" x2="284.9" y2="31.4"/>
</g>
<g>
	<path class="st4" d="M345.4,11.6v-0.8c3.8-3.1,6.4-5.3,6.4-7.4c0-1.6-1.3-2.3-2.6-2.3c-1.4,0-2.5,0.6-3.1,1.5l-0.7-0.6
		c0.8-1.1,2.1-1.7,3.7-1.7s3.5,0.9,3.5,3.2c0,2.5-2.6,4.7-5.8,7.3h5.9v0.9h-7.3V11.6z M359,11.6V1.6l-2.6,2.8l-0.6-0.6l3.3-3.5h0.9
		v11.3H359z M364.5,10.2c0.4,0,0.8,0.3,0.8,0.7c0,0.4-0.4,0.8-0.8,0.8c-0.4,0-0.7-0.4-0.7-0.8C363.8,10.5,364.1,10.2,364.5,10.2z
		 M368.5,9.5c0.6,0.7,1.2,1.2,2.5,1.2c2.5,0,3.3-2.6,3.3-4.9c0-0.2,0-0.3,0-0.5c-0.5,0.8-1.8,1.9-3.3,1.9c-2,0-3.6-1.2-3.6-3.6
		c0-1.8,1.4-3.6,3.8-3.6c3,0,4.1,2.8,4.1,5.8c0,2.9-1.2,5.8-4.3,5.8c-1.5,0-2.4-0.6-3-1.4L368.5,9.5z M371.1,0.9
		c-1.9,0-2.8,1.5-2.8,2.7c0,1.8,1.2,2.7,2.8,2.7c1.2,0,2.4-0.8,3.1-1.9C374.1,2.9,373.2,0.9,371.1,0.9z M378.2,9.2
		c0.7,1,1.7,1.6,3.1,1.6c1.6,0,2.8-1.2,2.8-2.7c0-1.7-1.2-2.7-2.8-2.7c-1,0-1.9,0.3-2.7,1.1l-0.7-0.3V0.3h6.5v0.9h-5.5v4.4
		c0.5-0.5,1.5-1,2.7-1c1.9,0,3.6,1.2,3.6,3.6c0,2.2-1.7,3.6-3.8,3.6c-1.9,0-3-0.7-3.8-1.8L378.2,9.2z"/>
	<defs>
		
			<filter id="Adobe_OpacityMaskFilter_00000088126909921366415940000001100551424343155854_" filterUnits="userSpaceOnUse" x="350.6" y="26.8" width="28.8" height="189.8">
			<feColorMatrix  type="matrix" values="1 0 0 0 0  0 1 0 0 0  0 0 1 0 0  0 0 0 1 0"/>
		</filter>
	</defs>
	
		<mask maskUnits="userSpaceOnUse" x="350.6" y="26.8" width="28.8" height="189.8" id="SVGID_00000026868753405243257440000004877765426967030943_">
		<g style="filter:url(#Adobe_OpacityMaskFilter_00000088126909921366415940000001100551424343155854_);">
			
				<linearGradient id="SVGID_00000162312651914630612170000008181002780632736396_" gradientUnits="userSpaceOnUse" x1="-154.2846" y1="-176.8342" x2="-153.18" y2="-176.8342" gradientTransform="matrix(-3.000000e-15 46.9598 -46.9598 -3.000000e-15 -7579.6211 7400.0376)">
				<stop  offset="0" style="stop-color:#FFFFFF"/>
				<stop  offset="1" style="stop-color:#000000"/>
			</linearGradient>
			
				<rect x="-163.7" y="-349.6" style="fill:url(#SVGID_00000162312651914630612170000008181002780632736396_);" width="1776.4" height="657.5"/>
		</g>
	</mask>
	<g class="st19">
		<g>
			<g>
				<defs>
					<rect id="SVGID_00000064342865657289788560000018340890483023203479_" x="350.6" y="26.8" width="28.8" height="189.8"/>
				</defs>
				<clipPath id="SVGID_00000171716125816240538840000001290229656567874473_">
					<use xlink:href="#SVGID_00000064342865657289788560000018340890483023203479_"  style="overflow:visible;"/>
				</clipPath>
				
					<rect x="365.4" y="36.8" style="clip-path:url(#SVGID_00000171716125816240538840000001290229656567874473_);fill:#939598;" width="12" height="169.9"/>
			</g>
		</g>
	</g>
	<line class="st3" x1="371.4" y1="206.7" x2="371.4" y2="30.8"/>
</g>
</svg>
