<?xml version="1.0" encoding="utf-8"?>
<!-- Generator: Adobe Illustrator 26.4.0, SVG Export Plug-In . SVG Version: 6.00 Build 0)  -->
<svg version="1.1" id="Layer_1" xmlns="http://www.w3.org/2000/svg" xmlns:xlink="http://www.w3.org/1999/xlink" x="0px" y="0px"
	 viewBox="0 0 398.1 216.4" style="enable-background:new 0 0 398.1 216.4;" xml:space="preserve">
<style type="text/css">
	.st0{fill:#0069AA;}
	.st1{fill:#076AAA;}
	.st2{clip-path:url(#SVGID_00000181061390552267299780000014175601136814327212_);fill:#076AAA;}
	.st3{fill:none;stroke:#FFFFFF;}
	.st4{fill:#4E4E50;}
	.st5{filter:url(#Adobe_OpacityMaskFilter);}
	.st6{fill:url(#SVGID_00000010997016987744472510000014365528395707465909_);}
	.st7{mask:url(#SVGID_00000096023956381565228850000005835198130505595571_);}
	.st8{clip-path:url(#SVGID_00000139288471559371371100000015816502782024683401_);fill:#939598;}
	.st9{filter:url(#Adobe_OpacityMaskFilter_00000108991695863713787000000000820989741796735912_);}
	.st10{fill:url(#SVGID_00000047044712050306347420000012055739939513979311_);}
	.st11{mask:url(#SVGID_00000047741902061991832690000000121289856321437605_);}
	.st12{clip-path:url(#SVGID_00000160190648051763081290000004993377704849413279_);fill:#939598;}
	.st13{filter:url(#Adobe_OpacityMaskFilter_00000082357694332675133700000006041991837022782395_);}
	.st14{fill:url(#SVGID_00000055675557591956576950000000282390335093549724_);}
	.st15{mask:url(#SVGID_00000046320463455740607040000009878702165498244487_);}
	.st16{clip-path:url(#SVGID_00000041253558090660209120000010330567880701353612_);fill:#939598;}
	.st17{filter:url(#Adobe_OpacityMaskFilter_00000145023753479942995290000008100480253653568923_);}
	.st18{fill:url(#SVGID_00000142166595697183516250000014977477543481011368_);}
	.st19{mask:url(#SVGID_00000050632676122001141230000005083474475091017878_);}
	.st20{clip-path:url(#SVGID_00000086660145407936639510000016859793213810627996_);fill:#939598;}
</style>
<path class="st0" d="M0.2,216.2v-1.3c4-3,5.8-4.6,5.8-6.3c0-1.2-1-1.8-2.1-1.8c-1.3,0-2.2,0.5-2.9,1.3l-1-1c0.9-1.1,2.3-1.7,3.8-1.7
	c1.9,0,3.7,1.1,3.7,3.2c0,2.1-2,3.9-4.9,6.1h4.9v1.4H0.2V216.2z M13.6,205.4c2.9,0,4.1,2.8,4.1,5.5c0,2.6-1.2,5.5-4.1,5.5
	s-4.2-2.9-4.2-5.5S10.7,205.4,13.6,205.4z M13.6,206.9c-1.9,0-2.5,2-2.5,4c0,2.1,0.6,4.1,2.5,4.1s2.5-2,2.5-4.1
	S15.5,206.9,13.6,206.9z M19.3,216.2v-1.3c4-3,5.8-4.6,5.8-6.3c0-1.2-1-1.8-2.1-1.8c-1.3,0-2.2,0.5-2.9,1.3l-1-1
	c0.9-1.1,2.3-1.7,3.8-1.7c1.9,0,3.7,1.1,3.7,3.2c0,2.1-2,3.9-4.9,6.1h4.9v1.4h-7.3V216.2z M32,216.2v-8.5l-1.9,2l-0.9-1l3.1-3.2h1.4
	v10.6L32,216.2L32,216.2z M37,213v-1.2h3.8v1.2H37z M42,216.2v-1.3c4-3,5.8-4.6,5.8-6.3c0-1.2-1-1.8-2.1-1.8c-1.3,0-2.2,0.5-2.9,1.3
	l-1-1c0.9-1.1,2.3-1.7,3.8-1.7c1.9,0,3.7,1.1,3.7,3.2c0,2.1-2,3.9-4.9,6.1h4.9v1.4H42V216.2z M51.6,216.2v-1.3c4-3,5.8-4.6,5.8-6.3
	c0-1.2-1-1.8-2.1-1.8c-1.3,0-2.2,0.5-2.9,1.3l-1-1c0.9-1.1,2.3-1.7,3.8-1.7c1.9,0,3.7,1.1,3.7,3.2c0,2.1-2,3.9-4.9,6.1h4.9v1.4h-7.3
	V216.2z"/>
<path d="M86.6,216.1v-0.8c3.6-2.9,6-5,6-7c0-1.5-1.3-2.2-2.4-2.2c-1.3,0-2.3,0.6-2.9,1.4l-0.6-0.6c0.7-1,2-1.6,3.5-1.6
	c1.6,0,3.3,0.9,3.3,3c0,2.3-2.5,4.5-5.5,6.9h5.6v0.8h-7V216.1z M99.6,205.4c2.8,0,3.9,2.9,3.9,5.5c0,2.5-1.1,5.5-3.9,5.5
	s-3.9-3-3.9-5.5C95.7,208.3,96.8,205.4,99.6,205.4z M99.6,206.2c-2.2,0-2.9,2.4-2.9,4.6c0,2.2,0.7,4.6,2.9,4.6s2.9-2.5,2.9-4.6
	C102.6,208.6,101.9,206.2,99.6,206.2z M105.3,216.1v-0.8c3.6-2.9,6-5,6-7c0-1.5-1.3-2.2-2.4-2.2c-1.3,0-2.3,0.6-2.9,1.4l-0.6-0.6
	c0.7-1,2-1.6,3.5-1.6c1.6,0,3.3,0.9,3.3,3c0,2.3-2.5,4.5-5.5,6.9h5.6v0.8h-7V216.1z M118.3,205.4c2.8,0,3.9,2.9,3.9,5.5
	c0,2.5-1.1,5.5-3.9,5.5s-3.9-3-3.9-5.5C114.4,208.3,115.5,205.4,118.3,205.4z M118.3,206.2c-2.2,0-2.9,2.4-2.9,4.6
	c0,2.2,0.7,4.6,2.9,4.6s2.9-2.5,2.9-4.6C121.3,208.6,120.5,206.2,118.3,206.2z M124.2,212.6v-0.8h3.8v0.8H124.2z M129.2,216.1v-0.8
	c3.6-2.9,6-5,6-7c0-1.5-1.3-2.2-2.4-2.2c-1.3,0-2.3,0.6-2.9,1.4l-0.6-0.6c0.7-1,2-1.6,3.5-1.6c1.6,0,3.3,0.9,3.3,3
	c0,2.3-2.5,4.5-5.5,6.9h5.6v0.8h-7V216.1z M142.1,216.1v-9.3l-2.5,2.7l-0.6-0.6l3.2-3.3h0.8v10.6L142.1,216.1L142.1,216.1z"/>
<path d="M170.8,216v-0.7c3.6-2.9,6-5,6-7c0-1.5-1.3-2.2-2.4-2.2c-1.3,0-2.3,0.6-2.9,1.4l-0.6-0.6c0.7-1,2-1.6,3.5-1.6
	c1.6,0,3.3,0.9,3.3,3c0,2.3-2.5,4.5-5.5,6.9h5.6v0.8L170.8,216L170.8,216z M183.9,205.3c2.8,0,3.9,2.9,3.9,5.5
	c0,2.5-1.1,5.5-3.9,5.5s-3.9-3-3.9-5.5C179.9,208.2,181,205.3,183.9,205.3z M183.9,206.1c-2.2,0-2.9,2.4-2.9,4.6
	c0,2.2,0.7,4.6,2.9,4.6s2.9-2.5,2.9-4.6C186.8,208.5,186.1,206.1,183.9,206.1z M193.3,216v-9.3l-2.5,2.7l-0.6-0.6l3.2-3.3h0.8v10.6
	L193.3,216L193.3,216z M198.9,214.2c0.5,0.7,1.2,1.2,2.3,1.2c2.3,0,3.1-2.4,3.1-4.6c0-0.2,0-0.3,0-0.5c-0.4,0.7-1.7,1.8-3.1,1.8
	c-1.9,0-3.4-1.1-3.4-3.4c0-1.7,1.3-3.4,3.5-3.4c2.9,0,3.9,2.6,3.9,5.5c0,2.7-1.1,5.5-4,5.5c-1.4,0-2.2-0.6-2.9-1.3L198.9,214.2z
	 M201.4,206.1c-1.8,0-2.7,1.4-2.7,2.5c0,1.7,1.1,2.6,2.6,2.6c1.2,0,2.3-0.7,2.9-1.8C204.1,207.9,203.4,206.1,201.4,206.1z
	 M207.4,212.5v-0.8h3.8v0.8H207.4z M212.4,216v-0.7c3.6-2.9,6-5,6-7c0-1.5-1.3-2.2-2.4-2.2c-1.3,0-2.3,0.6-2.9,1.4l-0.6-0.6
	c0.7-1,2-1.6,3.5-1.6c1.6,0,3.3,0.9,3.3,3c0,2.3-2.5,4.5-5.5,6.9h5.6v0.8L212.4,216L212.4,216z M225.4,205.3c2.8,0,3.9,2.9,3.9,5.5
	c0,2.5-1.1,5.5-3.9,5.5c-2.8,0-3.9-3-3.9-5.5C221.5,208.2,222.6,205.3,225.4,205.3z M225.4,206.1c-2.2,0-2.9,2.4-2.9,4.6
	c0,2.2,0.7,4.6,2.9,4.6s2.9-2.5,2.9-4.6C228.3,208.5,227.6,206.1,225.4,206.1z"/>
<path d="M256.9,215.9v-0.7c3.6-2.9,6-5,6-7c0-1.5-1.3-2.2-2.4-2.2c-1.3,0-2.3,0.6-2.9,1.4l-0.6-0.6c0.7-1,2-1.6,3.5-1.6
	c1.6,0,3.3,0.9,3.3,3c0,2.3-2.5,4.5-5.5,6.9h5.6v0.8L256.9,215.9L256.9,215.9z M269.9,205.2c2.8,0,3.9,2.9,3.9,5.5
	c0,2.5-1.1,5.5-3.9,5.5s-3.9-3-3.9-5.5C266,208.1,267.1,205.2,269.9,205.2z M269.9,206c-2.2,0-2.9,2.4-2.9,4.6
	c0,2.2,0.7,4.6,2.9,4.6s2.9-2.5,2.9-4.6C272.9,208.5,272.2,206,269.9,206z M279.4,215.9v-9.3l-2.5,2.7l-0.6-0.6l3.2-3.3h0.8V216
	L279.4,215.9L279.4,215.9z M286.7,210.5c-1.3-0.3-2.5-1.1-2.5-2.6c0-1.9,1.7-2.7,3.4-2.7c1.6,0,3.4,0.9,3.4,2.7
	c0,1.4-1.2,2.2-2.5,2.6c1.3,0.4,2.6,1.3,2.6,2.8c0,1.7-1.6,2.8-3.6,2.8s-3.6-1.1-3.6-2.8C284.1,211.8,285.3,210.8,286.7,210.5z
	 M287.7,210.9c-0.6,0.1-2.7,0.7-2.7,2.3c0,1.3,1.3,2.1,2.7,2.1c1.4,0,2.7-0.8,2.7-2.1C290.3,211.6,288.3,211,287.7,210.9z
	 M287.7,206c-1.4,0-2.5,0.7-2.5,2c0,1.5,1.9,1.9,2.5,2.1c0.6-0.1,2.5-0.6,2.5-2.1C290.2,206.7,289,206,287.7,206z M293.3,212.5v-0.8
	h3.8v0.8H293.3z M301.8,215.9v-9.3l-2.5,2.7l-0.6-0.6l3.2-3.3h0.8V216L301.8,215.9L301.8,215.9z M307.4,214.1
	c0.5,0.7,1.2,1.2,2.3,1.2c2.3,0,3.1-2.4,3.1-4.6c0-0.2,0-0.3,0-0.5c-0.4,0.7-1.7,1.8-3.1,1.8c-1.9,0-3.4-1.1-3.4-3.4
	c0-1.7,1.3-3.4,3.5-3.4c2.9,0,3.9,2.6,3.9,5.5c0,2.7-1.1,5.5-4,5.5c-1.4,0-2.2-0.6-2.9-1.3L307.4,214.1z M309.9,206
	c-1.8,0-2.7,1.4-2.7,2.5c0,1.7,1.1,2.6,2.6,2.6c1.2,0,2.3-0.7,2.9-1.8C312.6,207.8,311.9,206,309.9,206z"/>
<path d="M342.9,216.1v-0.8c3.6-2.9,6-5,6-7c0-1.5-1.3-2.2-2.4-2.2c-1.3,0-2.3,0.6-2.9,1.4l-0.6-0.6c0.7-1,2-1.6,3.5-1.6
	c1.6,0,3.3,0.9,3.3,3c0,2.3-2.5,4.5-5.5,6.9h5.6v0.8h-7V216.1z M355.9,205.4c2.8,0,3.9,2.9,3.9,5.5c0,2.5-1.1,5.5-3.9,5.5
	s-3.9-3-3.9-5.5C352,208.3,353,205.4,355.9,205.4z M355.9,206.2c-2.2,0-2.9,2.4-2.9,4.6c0,2.2,0.7,4.6,2.9,4.6s2.9-2.5,2.9-4.6
	C358.8,208.6,358.1,206.2,355.9,206.2z M365.4,216.1v-9.3l-2.5,2.7l-0.6-0.6l3.2-3.3h0.8v10.6L365.4,216.1L365.4,216.1z
	 M371.3,216.1l4.5-9.7H370v-0.8h6.9v0.6l-4.5,9.9H371.3z M377.9,212.6v-0.8h3.8v0.8H377.9z M386.5,216.1v-9.3l-2.5,2.7l-0.6-0.6
	l3.2-3.3h0.8v10.6L386.5,216.1L386.5,216.1z M393.7,210.6c-1.3-0.3-2.5-1.1-2.5-2.6c0-1.9,1.7-2.7,3.4-2.7c1.6,0,3.4,0.9,3.4,2.7
	c0,1.4-1.2,2.2-2.5,2.6c1.3,0.4,2.6,1.3,2.6,2.8c0,1.7-1.6,2.8-3.6,2.8s-3.6-1.1-3.6-2.8C391.1,212,392.4,211,393.7,210.6z
	 M394.7,211c-0.6,0.1-2.7,0.7-2.7,2.3c0,1.3,1.3,2.1,2.7,2.1c1.4,0,2.7-0.8,2.7-2.1C397.4,211.8,395.3,211.1,394.7,211z
	 M394.7,206.2c-1.4,0-2.5,0.7-2.5,2c0,1.5,1.9,1.9,2.5,2.1c0.6-0.1,2.5-0.6,2.5-2.1C397.2,206.9,396.1,206.2,394.7,206.2z"/>
<g>
	<path class="st1" d="M19.6,9.8l1.3-1.7c0.8,0.8,1.8,1.2,3,1.2c1.3,0,2.1-0.8,2.1-1.7c0-1-0.7-1.7-2-1.7c-0.9,0-1.7,0.3-2.4,0.9
		l-1.7-0.5V0h7.7v2.1h-5.3v2.8C22.8,4.4,23.8,4,24.8,4c1.9,0,3.6,1.4,3.6,3.6c0,2.4-1.8,3.9-4.5,3.9C22,11.5,20.5,10.8,19.6,9.8z
		 M29.9,9.8l1.3-1.7c0.8,0.8,1.8,1.2,3,1.2c1.3,0,2.1-0.8,2.1-1.7c0-1-0.7-1.7-2-1.7c-0.9,0-1.7,0.3-2.4,0.9l-1.7-0.5V0h7.7v2.1
		h-5.3v2.8c0.6-0.6,1.5-1,2.5-1c1.9,0,3.6,1.4,3.6,3.6c0,2.4-1.8,3.9-4.5,3.9C32.3,11.5,30.9,10.8,29.9,9.8z"/>
	<g>
		<g>
			<g>
				<defs>
					<rect id="SVGID_1_" x="7.5" y="15.8" width="28.9" height="190.6"/>
				</defs>
				<clipPath id="SVGID_00000041273558680756833820000001486880312297767596_">
					<use xlink:href="#SVGID_1_"  style="overflow:visible;"/>
				</clipPath>
				
					<rect x="22.3" y="25.6" style="clip-path:url(#SVGID_00000041273558680756833820000001486880312297767596_);fill:#076AAA;" width="12" height="171"/>
			</g>
		</g>
	</g>
	<line class="st3" x1="28.3" y1="196.6" x2="28.3" y2="23.1"/>
</g>
<g>
	<path class="st4" d="M107.5,9.1c0.7,1,1.7,1.6,3.2,1.6c1.6,0,2.8-1.2,2.8-2.7c0-1.7-1.2-2.8-2.8-2.8c-1,0-1.9,0.3-2.7,1.1L107.3,6
		V0.2h6.5v0.9h-5.6v4.4c0.5-0.5,1.5-1,2.7-1c1.9,0,3.6,1.2,3.6,3.6c0,2.2-1.7,3.6-3.8,3.6c-1.9,0-3-0.7-3.8-1.8L107.5,9.1z
		 M116.5,11.4v-0.8c3.8-3.1,6.4-5.3,6.4-7.5c0-1.6-1.3-2.3-2.6-2.3c-1.4,0-2.5,0.6-3.1,1.5l-0.7-0.6c0.8-1.1,2.2-1.7,3.7-1.7
		c1.7,0,3.5,0.9,3.5,3.2c0,2.5-2.6,4.7-5.9,7.4h5.9v0.9L116.5,11.4L116.5,11.4z"/>
	<defs>
		<filter id="Adobe_OpacityMaskFilter" filterUnits="userSpaceOnUse" x="93.5" y="24.8" width="28.9" height="181.5">
			<feColorMatrix  type="matrix" values="1 0 0 0 0  0 1 0 0 0  0 0 1 0 0  0 0 0 1 0"/>
		</filter>
	</defs>
	
		<mask maskUnits="userSpaceOnUse" x="93.5" y="24.8" width="28.9" height="181.5" id="SVGID_00000096023956381565228850000005835198130505595571_">
		<g class="st5">
			
				<linearGradient id="SVGID_00000115496854380507952610000017809398383682334619_" gradientUnits="userSpaceOnUse" x1="-156.0159" y1="-193.2987" x2="-154.9263" y2="-193.2987" gradientTransform="matrix(-3.000000e-15 42.5531 -42.5531 -3.000000e-15 -7541.4077 6789.2173)">
				<stop  offset="0" style="stop-color:#FFFFFF"/>
				<stop  offset="1" style="stop-color:#000000"/>
			</linearGradient>
			
				<rect x="-204.5" y="-368.2" style="fill:url(#SVGID_00000115496854380507952610000017809398383682334619_);" width="1777.1" height="648.6"/>
		</g>
	</mask>
	<g class="st7">
		<g>
			<g>
				<defs>
					<rect id="SVGID_00000137850522386427501640000007041437738847203770_" x="93.5" y="24.8" width="28.9" height="181.5"/>
				</defs>
				<clipPath id="SVGID_00000015349992048388968440000017063981400128464540_">
					<use xlink:href="#SVGID_00000137850522386427501640000007041437738847203770_"  style="overflow:visible;"/>
				</clipPath>
				
					<rect x="108.2" y="34.6" style="clip-path:url(#SVGID_00000015349992048388968440000017063981400128464540_);fill:#939598;" width="12" height="161.9"/>
			</g>
		</g>
	</g>
	<line class="st3" x1="114.2" y1="196.6" x2="114.2" y2="23.1"/>
</g>
<g>
	<path class="st4" d="M199.4,11.4V8.3h-5.3V7.4l5-7.3h1.3v7.3h1.6v0.9h-1.6v3.1H199.4z M199.4,1.1l-4.3,6.3h4.3V1.1z M207.2,5.6
		c-1.3-0.4-2.6-1.2-2.6-2.7c0-2,1.9-2.9,3.6-2.9c1.8,0,3.6,0.9,3.6,2.9c0,1.5-1.3,2.4-2.6,2.7c1.4,0.4,2.8,1.4,2.8,3
		c0,1.8-1.7,3-3.8,3c-2.2,0-3.8-1.2-3.8-3C204.4,7,205.8,6,207.2,5.6z M208.2,6.1c-0.7,0.1-2.9,0.8-2.9,2.5c0,1.4,1.4,2.2,2.9,2.2
		s2.9-0.8,2.9-2.2C211.1,6.8,208.9,6.1,208.2,6.1z M208.2,0.9c-1.5,0-2.7,0.8-2.7,2.1c0,1.6,2,2.1,2.7,2.2c0.7-0.1,2.7-0.6,2.7-2.2
		C210.9,1.7,209.7,0.9,208.2,0.9z"/>
	<defs>
		
			<filter id="Adobe_OpacityMaskFilter_00000119103741332720347360000013109450491431396522_" filterUnits="userSpaceOnUse" x="180.9" y="36.7" width="28.9" height="169.6">
			<feColorMatrix  type="matrix" values="1 0 0 0 0  0 1 0 0 0  0 0 1 0 0  0 0 0 1 0"/>
		</filter>
	</defs>
	
		<mask maskUnits="userSpaceOnUse" x="180.9" y="36.7" width="28.9" height="169.6" id="SVGID_00000047741902061991832690000000121289856321437605_">
		<g style="filter:url(#Adobe_OpacityMaskFilter_00000119103741332720347360000013109450491431396522_);">
			
				<linearGradient id="SVGID_00000022526729871315037460000016750562746510637723_" gradientUnits="userSpaceOnUse" x1="-157.7967" y1="-198.3636" x2="-156.7071" y2="-198.3636" gradientTransform="matrix(-2.000000e-15 35.6056 -35.6056 -2.000000e-15 -6320.7051 5776.2515)">
				<stop  offset="0" style="stop-color:#FFFFFF"/>
				<stop  offset="1" style="stop-color:#000000"/>
			</linearGradient>
			
				<rect x="-146.4" y="-368.2" style="fill:url(#SVGID_00000022526729871315037460000016750562746510637723_);" width="1777.1" height="648.6"/>
		</g>
	</mask>
	<g class="st11">
		<g>
			<g>
				<defs>
					<rect id="SVGID_00000073712028619468633540000003817982553748288442_" x="180.9" y="36.7" width="28.9" height="169.6"/>
				</defs>
				<clipPath id="SVGID_00000033369709245323960700000004978856048050791562_">
					<use xlink:href="#SVGID_00000073712028619468633540000003817982553748288442_"  style="overflow:visible;"/>
				</clipPath>
				
					<rect x="195.7" y="46.5" style="clip-path:url(#SVGID_00000033369709245323960700000004978856048050791562_);fill:#939598;" width="12" height="150"/>
			</g>
		</g>
	</g>
	<line class="st3" x1="201.7" y1="196.6" x2="201.7" y2="23.1"/>
</g>
<g>
	<path class="st4" d="M280.8,9c0.7,1,1.7,1.6,3.2,1.6c1.6,0,2.8-1.2,2.8-2.7c0-1.7-1.2-2.8-2.8-2.8c-1,0-1.9,0.3-2.7,1.1l-0.7-0.3V0
		h6.5v0.9h-5.5v4.4c0.5-0.5,1.5-1,2.7-1c1.9,0,3.6,1.2,3.6,3.6c0,2.2-1.7,3.6-3.8,3.6c-1.9,0-3-0.7-3.8-1.8L280.8,9z M292.8,11.3
		v-10l-2.6,2.9l-0.6-0.6l3.4-3.5h0.9v11.2H292.8z"/>
	<defs>
		
			<filter id="Adobe_OpacityMaskFilter_00000078749255625442792250000005721237096729647271_" filterUnits="userSpaceOnUse" x="265.7" y="28.2" width="28.9" height="178.1">
			<feColorMatrix  type="matrix" values="1 0 0 0 0  0 1 0 0 0  0 0 1 0 0  0 0 0 1 0"/>
		</filter>
	</defs>
	
		<mask maskUnits="userSpaceOnUse" x="265.7" y="28.2" width="28.9" height="178.1" id="SVGID_00000046320463455740607040000009878702165498244487_">
		<g style="filter:url(#Adobe_OpacityMaskFilter_00000078749255625442792250000005721237096729647271_);">
			
				<linearGradient id="SVGID_00000039097634092016033030000015765711535310175393_" gradientUnits="userSpaceOnUse" x1="-157.5502" y1="-199.3591" x2="-156.4606" y2="-199.3591" gradientTransform="matrix(-2.000000e-15 36.4292 -36.4292 -2.000000e-15 -6465.4434 5896.3398)">
				<stop  offset="0" style="stop-color:#FFFFFF"/>
				<stop  offset="1" style="stop-color:#000000"/>
			</linearGradient>
			
				<rect x="-91.5" y="-368.2" style="fill:url(#SVGID_00000039097634092016033030000015765711535310175393_);" width="1777.1" height="648.6"/>
		</g>
	</mask>
	<g class="st15">
		<g>
			<g>
				<defs>
					<rect id="SVGID_00000003787657227054180360000009364014073215591334_" x="265.7" y="28.2" width="28.9" height="178.1"/>
				</defs>
				<clipPath id="SVGID_00000098194228190151908490000003194785727047602066_">
					<use xlink:href="#SVGID_00000003787657227054180360000009364014073215591334_"  style="overflow:visible;"/>
				</clipPath>
				
					<rect x="280.5" y="38" style="clip-path:url(#SVGID_00000098194228190151908490000003194785727047602066_);fill:#939598;" width="12" height="158.5"/>
			</g>
		</g>
	</g>
	<line class="st3" x1="286.4" y1="196.6" x2="286.4" y2="23.1"/>
</g>
<g>
	<path class="st4" d="M361.7,9.1c0.7,1,1.7,1.6,3.2,1.6c1.6,0,2.8-1.2,2.8-2.7c0-1.7-1.2-2.8-2.8-2.8c-1,0-1.9,0.3-2.7,1.1L361.5,6
		V0.2h6.5v0.9h-5.5v4.4c0.5-0.5,1.5-1,2.7-1c1.9,0,3.6,1.2,3.6,3.6c0,2.2-1.7,3.6-3.8,3.6c-1.9,0-3-0.7-3.8-1.8L361.7,9.1z M375.2,0
		c1.5,0,2.4,0.6,3,1.4l-0.6,0.7c-0.6-0.7-1.2-1.3-2.5-1.3c-2.4,0-3.3,2.5-3.3,4.9c0,0.2,0,0.4,0,0.5c0.5-0.8,1.8-1.9,3.3-1.9
		c2,0,3.6,1.2,3.6,3.6c0,1.8-1.4,3.6-3.8,3.6c-3,0-4.1-2.8-4.1-5.8C370.9,2.9,372.1,0,375.2,0z M375,5.3c-1.2,0-2.4,0.8-3.1,1.9
		c0.1,1.5,0.9,3.5,3.1,3.5c1.9,0,2.8-1.5,2.8-2.7C377.9,6.2,376.7,5.3,375,5.3z"/>
	<defs>
		
			<filter id="Adobe_OpacityMaskFilter_00000029762215632152553980000016900847887854167179_" filterUnits="userSpaceOnUse" x="351.7" y="13.3" width="28.9" height="193">
			<feColorMatrix  type="matrix" values="1 0 0 0 0  0 1 0 0 0  0 0 1 0 0  0 0 0 1 0"/>
		</filter>
	</defs>
	
		<mask maskUnits="userSpaceOnUse" x="351.7" y="13.3" width="28.9" height="193" id="SVGID_00000050632676122001141230000005083474475091017878_">
		<g style="filter:url(#Adobe_OpacityMaskFilter_00000029762215632152553980000016900847887854167179_);">
			
				<linearGradient id="SVGID_00000026866046664828379560000009154636326152482208_" gradientUnits="userSpaceOnUse" x1="-154.8529" y1="-194.5239" x2="-153.7633" y2="-194.5239" gradientTransform="matrix(-3.000000e-15 48.7679 -48.7679 -3.000000e-15 -8633.3721 7695.3535)">
				<stop  offset="0" style="stop-color:#FFFFFF"/>
				<stop  offset="1" style="stop-color:#000000"/>
			</linearGradient>
			
				<rect x="-35.4" y="-368.2" style="fill:url(#SVGID_00000026866046664828379560000009154636326152482208_);" width="1777.1" height="648.6"/>
		</g>
	</mask>
	<g class="st19">
		<g>
			<g>
				<defs>
					<rect id="SVGID_00000096022244238551935310000000006572014941676440_" x="351.7" y="13.3" width="28.9" height="193"/>
				</defs>
				<clipPath id="SVGID_00000075863065480789564290000010166875055152960944_">
					<use xlink:href="#SVGID_00000096022244238551935310000000006572014941676440_"  style="overflow:visible;"/>
				</clipPath>
				
					<rect x="366.5" y="23.1" style="clip-path:url(#SVGID_00000075863065480789564290000010166875055152960944_);fill:#939598;" width="12" height="173.4"/>
			</g>
		</g>
	</g>
	<line class="st3" x1="372.5" y1="196.6" x2="372.5" y2="23.1"/>
</g>
</svg>
