<?xml version="1.0" encoding="utf-8"?>
<!-- Generator: Adobe Illustrator 26.4.0, SVG Export Plug-In . SVG Version: 6.00 Build 0)  -->
<svg version="1.1" id="Layer_1" xmlns="http://www.w3.org/2000/svg" xmlns:xlink="http://www.w3.org/1999/xlink" x="0px" y="0px"
	 viewBox="0 0 398.6 217.7" style="enable-background:new 0 0 398.6 217.7;" xml:space="preserve">
<style type="text/css">
	.st0{fill:#0069AA;}
	.st1{clip-path:url(#SVGID_00000129201023703014456510000015723079491732712354_);fill:#0069AA;}
	.st2{fill:none;stroke:#FFFFFF;}
	.st3{fill:#4D4D4F;}
	.st4{filter:url(#Adobe_OpacityMaskFilter);}
	.st5{fill:url(#SVGID_00000126320723560405021350000017848498939013896376_);}
	.st6{mask:url(#SVGID_00000155844644382170966140000000780497446185238167_);}
	.st7{clip-path:url(#SVGID_00000046339774644251619780000013988479674291312267_);fill:#939598;}
	.st8{filter:url(#Adobe_OpacityMaskFilter_00000006702973917194404940000011021449357163852727_);}
	.st9{fill:url(#SVGID_00000062904675061751027300000009602973475411974554_);}
	.st10{mask:url(#SVGID_00000074425020717800152980000001581821549002823863_);}
	.st11{clip-path:url(#SVGID_00000001650656901784964720000012667126427809167797_);fill:#939598;}
	.st12{filter:url(#Adobe_OpacityMaskFilter_00000007416132873663283510000015512436383953075588_);}
	.st13{fill:url(#SVGID_00000084514612411852615480000012000432941818338176_);}
	.st14{mask:url(#SVGID_00000140698368639961875250000012441256586573169340_);}
	.st15{clip-path:url(#SVGID_00000152982523225346133070000016168114319880870021_);fill:#939598;}
	.st16{filter:url(#Adobe_OpacityMaskFilter_00000118377038817620951730000006890987141186117011_);}
	.st17{fill:url(#SVGID_00000044179128823044711000000005895514640933567649_);}
	.st18{mask:url(#SVGID_00000075125525915153378490000009416982756515834776_);}
	.st19{clip-path:url(#SVGID_00000116196061342252947430000010794497221174983301_);fill:#939598;}
</style>
<path class="st0" d="M0.1,217.5v-1.2c4-3,5.8-4.6,5.8-6.3c0-1.2-1-1.8-2.1-1.8c-1.3,0-2.2,0.5-2.9,1.3l-0.9-1
	c0.9-1.1,2.3-1.7,3.8-1.7c1.9,0,3.7,1.1,3.7,3.2c0,2.1-2,3.9-4.9,6.1h4.9v1.4H0.1z M13.5,206.8c2.9,0,4.1,2.8,4.1,5.4
	s-1.2,5.5-4.1,5.5s-4.1-2.8-4.1-5.5C9.3,209.5,10.5,206.8,13.5,206.8z M13.5,208.2c-1.9,0-2.5,2-2.5,4c0,2.1,0.6,4,2.5,4
	c1.8,0,2.5-2,2.5-4S15.4,208.2,13.5,208.2z M19.2,217.5v-1.2c4-3,5.8-4.6,5.8-6.3c0-1.2-1-1.8-2.1-1.8c-1.3,0-2.2,0.5-2.9,1.3
	l-0.9-1c0.9-1.1,2.3-1.7,3.8-1.7c1.9,0,3.7,1.1,3.7,3.2c0,2.1-2,3.9-4.9,6.1h5v1.4H19.2z M32,217.5V209l-1.9,2l-0.9-1l3.1-3.1h1.4
	v10.5H32V217.5z M36.9,214.3v-1.2h3.8v1.2H36.9z M42,217.5v-1.2c4-3,5.8-4.6,5.8-6.3c0-1.2-1-1.8-2.1-1.8c-1.3,0-2.2,0.5-2.9,1.3
	l-0.9-1c0.9-1.1,2.3-1.7,3.8-1.7c1.9,0,3.7,1.1,3.7,3.2c0,2.1-2,3.9-4.9,6.1h4.9v1.4H42z M51.5,217.5v-1.2c4-3,5.8-4.6,5.8-6.3
	c0-1.2-1-1.8-2.1-1.8c-1.3,0-2.2,0.5-2.9,1.3l-0.9-1c0.9-1.1,2.3-1.7,3.8-1.7c1.9,0,3.7,1.1,3.7,3.2c0,2.1-2,3.9-4.9,6.1h4.9v1.4
	H51.5z"/>
<path d="M86.6,217.4v-0.7c3.6-2.9,6-4.9,6-7c0-1.5-1.2-2.1-2.4-2.1c-1.3,0-2.3,0.6-2.9,1.4l-0.6-0.6c0.7-1,2-1.6,3.5-1.6
	c1.5,0,3.3,0.9,3.3,3c0,2.3-2.5,4.4-5.5,6.9h5.5v0.8h-6.9V217.4z M99.7,206.7c2.8,0,3.9,2.9,3.9,5.4s-1.1,5.5-3.9,5.5
	c-2.8,0-3.9-3-3.9-5.5C95.8,209.6,96.9,206.7,99.7,206.7z M99.7,207.5c-2.2,0-2.9,2.4-2.9,4.6s0.7,4.6,2.9,4.6
	c2.2,0,2.9-2.5,2.9-4.6S101.9,207.5,99.7,207.5z M105.3,217.4v-0.7c3.6-2.9,6-4.9,6-7c0-1.5-1.2-2.1-2.4-2.1c-1.3,0-2.3,0.6-2.9,1.4
	l-0.6-0.6c0.7-1,2-1.6,3.5-1.6c1.5,0,3.3,0.9,3.3,3c0,2.3-2.5,4.4-5.5,6.9h5.5v0.8h-6.9V217.4z M118.3,206.7c2.8,0,3.9,2.9,3.9,5.4
	s-1.1,5.5-3.9,5.5c-2.8,0-3.9-3-3.9-5.5C114.4,209.6,115.5,206.7,118.3,206.7z M118.3,207.5c-2.2,0-2.9,2.4-2.9,4.6s0.7,4.6,2.9,4.6
	c2.2,0,2.9-2.5,2.9-4.6C121.4,210,120.6,207.5,118.3,207.5z M124.3,214v-0.8h3.8v0.8H124.3z M129.3,217.4v-0.7c3.6-2.9,6-4.9,6-7
	c0-1.5-1.2-2.1-2.4-2.1c-1.3,0-2.3,0.6-2.9,1.4l-0.6-0.6c0.7-1,2-1.6,3.5-1.6s3.3,0.9,3.3,3c0,2.3-2.5,4.4-5.5,6.9h5.5v0.8h-6.9
	V217.4z M142.1,217.4v-9.3l-2.5,2.7l-0.6-0.6l3.1-3.3h0.8v10.5L142.1,217.4L142.1,217.4z"/>
<path d="M170.9,217.3v-0.7c3.6-2.9,6-4.9,6-7c0-1.5-1.2-2.1-2.4-2.1c-1.3,0-2.3,0.6-2.9,1.4l-0.6-0.6c0.7-1,2-1.6,3.5-1.6
	c1.5,0,3.3,0.9,3.3,3c0,2.3-2.5,4.4-5.5,6.9h5.5v0.8h-6.9V217.3z M184,206.6c2.8,0,3.9,2.9,3.9,5.4c0,2.5-1.1,5.5-3.9,5.5
	s-3.9-3-3.9-5.5C180.1,209.6,181.2,206.6,184,206.6z M184,207.5c-2.2,0-2.9,2.4-2.9,4.6s0.7,4.6,2.9,4.6c2.2,0,2.9-2.5,2.9-4.6
	C186.9,209.9,186.2,207.5,184,207.5z M193.5,217.3V208l-2.5,2.7l-0.6-0.6l3.1-3.3h0.8v10.5H193.5z M199,215.5
	c0.5,0.7,1.2,1.2,2.3,1.2c2.3,0,3.1-2.4,3.1-4.6c0-0.2,0-0.3,0-0.5c-0.4,0.7-1.7,1.8-3.1,1.8c-1.9,0-3.4-1.1-3.4-3.4
	c0-1.7,1.3-3.4,3.5-3.4c2.8,0,3.9,2.6,3.9,5.5c0,2.7-1.1,5.4-4,5.4c-1.4,0-2.2-0.6-2.8-1.3L199,215.5z M201.6,207.4
	c-1.8,0-2.7,1.4-2.7,2.5c0,1.7,1.1,2.5,2.6,2.5c1.2,0,2.3-0.7,2.9-1.8C204.3,209.3,203.6,207.4,201.6,207.4z M207.6,213.9v-0.8h3.8
	v0.8H207.6z M212.6,217.3v-0.7c3.6-2.9,6-4.9,6-7c0-1.5-1.2-2.1-2.4-2.1c-1.3,0-2.3,0.6-2.9,1.4l-0.6-0.6c0.7-1,2-1.6,3.5-1.6
	s3.3,0.9,3.3,3c0,2.3-2.5,4.4-5.5,6.9h5.5v0.8h-6.9V217.3z M225.5,206.6c2.8,0,3.9,2.9,3.9,5.4c0,2.5-1.1,5.5-3.9,5.5
	s-3.9-3-3.9-5.5C221.6,209.6,222.7,206.6,225.5,206.6z M225.5,207.5c-2.2,0-2.9,2.4-2.9,4.6s0.7,4.6,2.9,4.6c2.2,0,2.9-2.5,2.9-4.6
	C228.6,209.9,227.9,207.5,225.5,207.5z"/>
<path d="M257.2,217.2v-0.7c3.6-2.9,6-4.9,6-7c0-1.5-1.2-2.1-2.4-2.1c-1.3,0-2.3,0.6-2.9,1.4l-0.6-0.6c0.7-1,2-1.6,3.5-1.6
	s3.3,0.9,3.3,3c0,2.3-2.5,4.4-5.5,6.9h5.5v0.8h-6.9V217.2z M270.1,206.5c2.8,0,3.9,2.9,3.9,5.4s-1.1,5.5-3.9,5.5
	c-2.8,0-3.9-3-3.9-5.5C266.2,209.5,267.3,206.5,270.1,206.5z M270.1,207.4c-2.2,0-2.9,2.4-2.9,4.6c0,2.2,0.7,4.6,2.9,4.6
	c2.2,0,2.9-2.5,2.9-4.6C273.1,209.8,272.4,207.4,270.1,207.4z M279.7,217.2v-9.3l-2.5,2.7l-0.6-0.6l3.1-3.3h0.8v10.5L279.7,217.2
	L279.7,217.2z M287,211.8c-1.2-0.3-2.5-1.1-2.5-2.5c0-1.9,1.7-2.7,3.4-2.7c1.6,0,3.4,0.9,3.4,2.7c0,1.4-1.2,2.2-2.5,2.5
	c1.3,0.4,2.6,1.3,2.6,2.8c0,1.7-1.5,2.8-3.6,2.8c-2,0-3.6-1.1-3.6-2.8C284.3,213.1,285.6,212.2,287,211.8z M287.9,212.2
	c-0.6,0.1-2.7,0.7-2.7,2.3c0,1.3,1.3,2.1,2.7,2.1c1.4,0,2.7-0.8,2.7-2.1C290.6,212.9,288.6,212.3,287.9,212.2z M287.9,207.4
	c-1.4,0-2.5,0.7-2.5,2c0,1.5,1.9,1.9,2.5,2.1c0.6-0.1,2.5-0.6,2.5-2.1C290.4,208.1,289.3,207.4,287.9,207.4z M293.6,213.8V213h3.8
	v0.8H293.6z M302.1,217.2v-9.3l-2.5,2.7L299,210l3.1-3.3h0.8v10.5L302.1,217.2L302.1,217.2z M307.7,215.4c0.5,0.7,1.2,1.2,2.3,1.2
	c2.3,0,3.1-2.4,3.1-4.6c0-0.2,0-0.3,0-0.5c-0.4,0.7-1.7,1.8-3.1,1.8c-1.9,0-3.4-1.1-3.4-3.4c0-1.7,1.3-3.4,3.5-3.4
	c2.8,0,3.9,2.6,3.9,5.5c0,2.7-1.1,5.4-4,5.4c-1.4,0-2.2-0.6-2.8-1.3L307.7,215.4z M310.2,207.3c-1.8,0-2.7,1.4-2.7,2.5
	c0,1.7,1.1,2.5,2.6,2.5c1.2,0,2.3-0.7,2.9-1.8C312.9,209.2,312.2,207.3,310.2,207.3z"/>
<path d="M343.2,217.4v-0.7c3.6-2.9,6-4.9,6-7c0-1.5-1.2-2.1-2.4-2.1c-1.3,0-2.3,0.6-2.9,1.4l-0.6-0.6c0.7-1,2-1.6,3.5-1.6
	s3.3,0.9,3.3,3c0,2.3-2.5,4.4-5.5,6.9h5.5v0.8h-6.9V217.4z M356.2,206.7c2.8,0,3.9,2.9,3.9,5.4s-1.1,5.5-3.9,5.5
	c-2.8,0-3.9-3-3.9-5.5C352.3,209.6,353.3,206.7,356.2,206.7z M356.2,207.5c-2.2,0-2.9,2.4-2.9,4.6s0.7,4.6,2.9,4.6
	c2.2,0,2.9-2.5,2.9-4.6C359.2,210,358.4,207.5,356.2,207.5z M365.7,217.4v-9.3l-2.5,2.7l-0.6-0.6l3.1-3.3h0.8v10.5L365.7,217.4
	L365.7,217.4z M371.7,217.4l4.4-9.7h-5.8v-0.8h6.9v0.6l-4.5,9.9H371.7z M378.3,214v-0.8h3.8v0.8H378.3z M386.9,217.4v-9.3l-2.5,2.7
	l-0.6-0.6l3.1-3.3h0.8v10.5L386.9,217.4L386.9,217.4z M394.2,212c-1.2-0.3-2.5-1.1-2.5-2.5c0-1.9,1.7-2.7,3.4-2.7
	c1.6,0,3.4,0.9,3.4,2.7c0,1.4-1.2,2.2-2.5,2.5c1.3,0.4,2.6,1.3,2.6,2.8c0,1.7-1.5,2.8-3.6,2.8c-2,0-3.6-1.1-3.6-2.8
	C391.5,213.3,392.8,212.3,394.2,212z M395.1,212.4c-0.6,0.1-2.7,0.7-2.7,2.3c0,1.3,1.3,2.1,2.7,2.1c1.4,0,2.7-0.8,2.7-2.1
	C397.8,213.1,395.7,212.5,395.1,212.4z M395.1,207.5c-1.4,0-2.5,0.7-2.5,2c0,1.5,1.9,1.9,2.5,2.1c0.6-0.1,2.5-0.6,2.5-2.1
	C397.6,208.3,396.5,207.5,395.1,207.5z"/>
<g>
	<path class="st0" d="M5.8,11.6V3.4L4,5.3L2.6,3.9l3.5-3.6h2.1v11.2H5.8V11.6z M11.1,6c0-3.4,1.9-5.8,5.2-5.8c1.4,0,2.5,0.5,3.3,1.2
		l-1,1.8c-0.6-0.6-1.2-0.9-2.2-0.9c-1.6,0-2.8,1.4-2.8,3.2c0,0.1,0,0.2,0,0.2c0.5-0.8,1.6-1.4,2.9-1.4c2,0,3.8,1.3,3.8,3.7
		c0,2.2-1.8,3.9-4.3,3.9C12.5,11.8,11.1,9.2,11.1,6z M17.9,8c0-1.2-1-1.7-2.1-1.7c-0.8,0-1.7,0.4-2.2,1.1c0.1,1.1,0.7,2.3,2.3,2.3
		C17.2,9.7,17.9,8.8,17.9,8z M22.8,14l-0.9-0.8c0.5-0.3,1.2-1,1.3-1.6c-0.1,0-0.2,0.1-0.3,0.1c-0.6,0-1.1-0.5-1.1-1.2
		c0-0.7,0.6-1.3,1.3-1.3c0.8,0,1.5,0.6,1.5,1.7C24.6,12,23.9,13.2,22.8,14z M26.6,11.6V9.7c4.6-3.4,5.9-4.5,5.9-5.9
		c0-1-0.9-1.5-1.8-1.5c-1.3,0-2.3,0.5-3,1.3L26.3,2c1.1-1.3,2.8-1.8,4.3-1.8c2.4,0,4.3,1.3,4.3,3.6c0,1.9-1.6,3.6-4.5,5.7H35v2.1
		H26.6z M36.7,8.7c0-1.4,1.1-2.4,2.4-2.9c-1.2-0.4-2.2-1.2-2.2-2.6c0-2.1,2.2-3,4.3-3c2.1,0,4.3,0.8,4.3,3c0,1.4-1,2.2-2.2,2.6
		c1.3,0.5,2.4,1.5,2.4,2.9c0,2.1-2.2,3.1-4.5,3.1C38.9,11.8,36.7,10.8,36.7,8.7z M43.4,8.3c0-0.9-1.4-1.4-2.1-1.5
		c-0.7,0.1-2.1,0.5-2.1,1.5c0,0.8,0.9,1.3,2.1,1.3C42.5,9.7,43.4,9.1,43.4,8.3z M43.2,3.6c0-0.8-0.8-1.2-1.9-1.2
		c-1.1,0-1.9,0.5-1.9,1.2c0,0.8,1.2,1.2,1.9,1.3C42,4.7,43.2,4.4,43.2,3.6z M47.9,10.6L49,8.8c0.6,0.6,1.2,0.9,2.2,0.9
		c1.9,0,2.8-1.6,2.8-3.2c0-0.1,0-0.2,0-0.3c-0.5,0.8-1.7,1.4-2.9,1.4c-2,0-3.8-1.3-3.8-3.7C47.3,1.7,49,0,51.6,0
		c3.4,0,4.8,2.6,4.8,5.8c0,3.4-1.9,5.8-5.2,5.8C49.8,11.8,48.6,11.3,47.9,10.6z M53.9,4.6c-0.1-1.1-0.7-2.3-2.2-2.3
		c-1.3,0-2,0.9-2,1.6c0,1.2,1,1.7,2.1,1.7C52.6,5.6,53.4,5.2,53.9,4.6z"/>
	<g>
		<g>
			<g>
				<g>
					<defs>
						<rect id="SVGID_1_" x="20.8" y="24.7" width="16.2" height="170"/>
					</defs>
					<clipPath id="SVGID_00000137812547211002959860000012929718385267494807_">
						<use xlink:href="#SVGID_1_"  style="overflow:visible;"/>
					</clipPath>
					
						<rect x="22.9" y="25.8" style="clip-path:url(#SVGID_00000137812547211002959860000012929718385267494807_);fill:#0069AA;" width="11.9" height="167.9"/>
				</g>
			</g>
		</g>
		<line class="st2" x1="28.9" y1="193.6" x2="28.9" y2="25.8"/>
	</g>
</g>
<g>
	<path class="st3" d="M94.4,11.6V1.7l-2.7,2.8L91,3.9l3.4-3.5h0.9v11.2H94.4z M102.8,11.6V1.7l-2.6,2.8l-0.6-0.6l3.4-3.5h0.9v11.2
		H102.8z M107.6,13.2c0.5-0.4,0.9-1,1-1.5h-0.2c-0.4,0-0.7-0.3-0.7-0.7s0.3-0.7,0.7-0.7c0.5,0,0.9,0.4,0.9,1.1
		c0,0.9-0.6,1.8-1.2,2.3L107.6,13.2z M112.6,11.6l4.7-10.4h-6.2V0.4h7.3v0.7l-4.8,10.6h-1V11.6z M121.5,9.3c0.6,0.9,1.7,1.6,3.1,1.6
		c1.7,0,2.8-0.9,2.8-2.4c0-1.6-1.3-2.3-3-2.3c-0.5,0-0.9,0-1,0V5.4c0.2,0,0.6,0,1,0c1.5,0,2.8-0.6,2.8-2.1c0-1.4-1.2-2.2-2.7-2.2
		c-1.3,0-2.2,0.5-3,1.4l-0.6-0.6c0.8-1,2-1.7,3.7-1.7c2,0,3.6,1.1,3.6,3c0,1.7-1.4,2.5-2.4,2.6c1,0.1,2.6,0.9,2.6,2.8
		s-1.4,3.2-3.8,3.2c-1.8,0-3.2-0.9-3.8-1.9L121.5,9.3z M131.9,9.6c0.6,0.7,1.2,1.2,2.5,1.2c2.5,0,3.3-2.6,3.3-4.9c0-0.2,0-0.3,0-0.5
		c-0.5,0.8-1.8,1.9-3.3,1.9c-2,0-3.6-1.2-3.6-3.6c0-1.8,1.4-3.6,3.8-3.6c3,0,4.1,2.8,4.1,5.8c0,2.9-1.2,5.8-4.3,5.8
		c-1.5,0-2.4-0.6-3-1.4L131.9,9.6z M134.6,1c-1.9,0-2.8,1.5-2.8,2.7c0,1.8,1.2,2.7,2.8,2.7c1.2,0,2.4-0.8,3.1-1.9
		C137.5,3,136.7,1,134.6,1z"/>
	<g>
		<defs>
			<filter id="Adobe_OpacityMaskFilter" filterUnits="userSpaceOnUse" x="107" y="67.2" width="16.2" height="127.5">
				<feColorMatrix  type="matrix" values="1 0 0 0 0  0 1 0 0 0  0 0 1 0 0  0 0 0 1 0"/>
			</filter>
		</defs>
		
			<mask maskUnits="userSpaceOnUse" x="107" y="67.2" width="16.2" height="127.5" id="SVGID_00000155844644382170966140000000780497446185238167_">
			<g class="st4">
				
					<linearGradient id="SVGID_00000006706943933324797740000016925718323725416344_" gradientUnits="userSpaceOnUse" x1="-166.088" y1="-174.3701" x2="-165.0335" y2="-174.3701" gradientTransform="matrix(-2.000000e-15 33.1574 -33.1574 -2.000000e-15 -6212.2788 5665.7378)">
					<stop  offset="0" style="stop-color:#FFFFFF"/>
					<stop  offset="1" style="stop-color:#000000"/>
				</linearGradient>
				
					<rect x="-1338.2" y="-362.8" style="fill:url(#SVGID_00000006706943933324797740000016925718323725416344_);" width="1815.2" height="645.6"/>
			</g>
		</mask>
		<g class="st6">
			<g>
				<g>
					<defs>
						<rect id="SVGID_00000089549157051219877480000003068214823138390664_" x="107" y="67.2" width="16.2" height="127.5"/>
					</defs>
					<clipPath id="SVGID_00000059999522812595501320000001256769316633970109_">
						<use xlink:href="#SVGID_00000089549157051219877480000003068214823138390664_"  style="overflow:visible;"/>
					</clipPath>
					
						<rect x="109.1" y="68.2" style="clip-path:url(#SVGID_00000059999522812595501320000001256769316633970109_);fill:#939598;" width="11.9" height="125.4"/>
				</g>
			</g>
		</g>
		<line class="st2" x1="115.1" y1="193.6" x2="115.1" y2="25.8"/>
	</g>
</g>
<g>
	<path class="st3" d="M182.5,5.8c-1.3-0.4-2.6-1.2-2.6-2.7c0-2,1.9-2.9,3.6-2.9c1.8,0,3.6,0.9,3.6,2.9c0,1.5-1.3,2.4-2.6,2.7
		c1.4,0.4,2.8,1.4,2.8,3c0,1.8-1.6,3-3.8,3c-2.2,0-3.8-1.2-3.8-3C179.7,7.2,181,6.2,182.5,5.8z M183.5,6.2c-0.7,0.1-2.8,0.8-2.8,2.5
		c0,1.4,1.3,2.2,2.8,2.2c1.5,0,2.8-0.8,2.8-2.2C186.4,7,184.2,6.3,183.5,6.2z M183.5,1.1c-1.5,0-2.7,0.8-2.7,2.1
		c0,1.6,2,2.1,2.7,2.2c0.7-0.1,2.7-0.6,2.7-2.2C186.2,1.8,185,1.1,183.5,1.1z M189.4,13.2c0.5-0.4,0.9-1,1-1.5h-0.2
		c-0.4,0-0.7-0.3-0.7-0.7s0.3-0.7,0.7-0.7c0.5,0,0.9,0.4,0.9,1.1c0,0.9-0.6,1.8-1.2,2.3L189.4,13.2z M196,5.8
		c-1.3-0.4-2.6-1.2-2.6-2.7c0-2,1.9-2.9,3.6-2.9c1.8,0,3.6,0.9,3.6,2.9c0,1.5-1.3,2.4-2.6,2.7c1.4,0.4,2.8,1.4,2.8,3
		c0,1.8-1.6,3-3.8,3c-2.2,0-3.8-1.2-3.8-3C193.2,7.2,194.5,6.2,196,5.8z M197,6.2c-0.7,0.1-2.8,0.8-2.8,2.5c0,1.4,1.3,2.2,2.8,2.2
		c1.5,0,2.8-0.8,2.8-2.2C200,7,197.7,6.3,197,6.2z M197,1.1c-1.5,0-2.7,0.8-2.7,2.1c0,1.6,2,2.1,2.7,2.2c0.7-0.1,2.7-0.6,2.7-2.2
		C199.8,1.8,198.5,1.1,197,1.1z M208.6,11.6V8.5h-5.3V7.6l5-7.3h1.3v7.3h1.6v0.9h-1.6v3.1H208.6z M208.6,1.3l-4.3,6.3h4.3V1.3z
		 M214,9.6c0.6,0.7,1.2,1.2,2.5,1.2c2.5,0,3.3-2.6,3.3-4.9c0-0.2,0-0.3,0-0.5c-0.5,0.8-1.8,1.9-3.3,1.9c-2,0-3.6-1.2-3.6-3.6
		c0-1.8,1.4-3.6,3.8-3.6c3,0,4.1,2.8,4.1,5.8c0,2.9-1.2,5.8-4.3,5.8c-1.5,0-2.4-0.6-3-1.4L214,9.6z M216.7,1c-1.9,0-2.8,1.5-2.8,2.7
		c0,1.8,1.2,2.7,2.8,2.7c1.2,0,2.4-0.8,3.1-1.9C219.6,3,218.8,1,216.7,1z"/>
	<g>
		<defs>
			
				<filter id="Adobe_OpacityMaskFilter_00000149357107834259490570000000057026670498797496_" filterUnits="userSpaceOnUse" x="193.2" y="94.1" width="16.2" height="100.6">
				<feColorMatrix  type="matrix" values="1 0 0 0 0  0 1 0 0 0  0 0 1 0 0  0 0 0 1 0"/>
			</filter>
		</defs>
		
			<mask maskUnits="userSpaceOnUse" x="193.2" y="94.1" width="16.2" height="100.6" id="SVGID_00000074425020717800152980000001581821549002823863_">
			<g style="filter:url(#Adobe_OpacityMaskFilter_00000149357107834259490570000000057026670498797496_);">
				
					<linearGradient id="SVGID_00000083797528575495385910000016047518870571056778_" gradientUnits="userSpaceOnUse" x1="-164.4304" y1="-166.4538" x2="-163.3759" y2="-166.4538" gradientTransform="matrix(-1.000000e-15 22.8336 -22.8336 -1.000000e-15 -4174.5464 3924.0864)">
					<stop  offset="0" style="stop-color:#FFFFFF"/>
					<stop  offset="1" style="stop-color:#000000"/>
				</linearGradient>
				
					<rect x="-1281.4" y="-362.8" style="fill:url(#SVGID_00000083797528575495385910000016047518870571056778_);" width="1815.2" height="645.6"/>
			</g>
		</mask>
		<g class="st10">
			<g>
				<g>
					<defs>
						<rect id="SVGID_00000182494582674748954960000011527883175985797765_" x="193.2" y="94.1" width="16.2" height="100.6"/>
					</defs>
					<clipPath id="SVGID_00000160186403807724087110000011979106286378386861_">
						<use xlink:href="#SVGID_00000182494582674748954960000011527883175985797765_"  style="overflow:visible;"/>
					</clipPath>
					
						<rect x="195.3" y="95.2" style="clip-path:url(#SVGID_00000160186403807724087110000011979106286378386861_);fill:#939598;" width="11.9" height="98.5"/>
				</g>
			</g>
		</g>
		<line class="st2" x1="201.4" y1="193.6" x2="201.4" y2="25.8"/>
	</g>
</g>
<g>
	<path class="st3" d="M265.4,11.6V1.7l-2.6,2.8l-0.6-0.6l3.4-3.5h0.9v11.2H265.4z M274.3,0.2c3,0,4.1,3.1,4.1,5.8s-1.1,5.8-4.1,5.8
		s-4.2-3.1-4.2-5.8S271.3,0.2,274.3,0.2z M274.3,1c-2.4,0-3.1,2.6-3.1,4.9s0.8,4.9,3.1,4.9s3.1-2.6,3.1-4.9
		C277.4,3.6,276.6,1,274.3,1z M280.1,13.2c0.5-0.4,0.9-1,1-1.5h-0.2c-0.4,0-0.7-0.3-0.7-0.7s0.3-0.7,0.7-0.7c0.5,0,0.9,0.4,0.9,1.1
		c0,0.9-0.6,1.8-1.2,2.3L280.1,13.2z M285.1,11.6l4.7-10.4h-6.2V0.3h7.3V1l-4.8,10.6H285.1z M297.3,11.6V8.5H292V7.6l5-7.3h1.3v7.3
		h1.6v0.9h-1.6v3.1H297.3z M297.3,1.3L293,7.6h4.3V1.3z M303.1,11.6l4.7-10.4h-6.2V0.3h7.3V1l-4.8,10.6H303.1z"/>
	<g>
		<defs>
			
				<filter id="Adobe_OpacityMaskFilter_00000150818000763244237350000007210141137683838379_" filterUnits="userSpaceOnUse" x="277.3" y="76.4" width="16.2" height="118.1">
				<feColorMatrix  type="matrix" values="1 0 0 0 0  0 1 0 0 0  0 0 1 0 0  0 0 0 1 0"/>
			</filter>
		</defs>
		
			<mask maskUnits="userSpaceOnUse" x="277.3" y="76.4" width="16.2" height="118.1" id="SVGID_00000140698368639961875250000012441256586573169340_">
			<g style="filter:url(#Adobe_OpacityMaskFilter_00000150818000763244237350000007210141137683838379_);">
				
					<linearGradient id="SVGID_00000092449526732159326010000013543715089252991123_" gradientUnits="userSpaceOnUse" x1="-165.1857" y1="-172.8792" x2="-164.1312" y2="-172.8792" gradientTransform="matrix(-2.000000e-15 26.6085 -26.6085 -2.000000e-15 -4919.6577 4560.9248)">
					<stop  offset="0" style="stop-color:#FFFFFF"/>
					<stop  offset="1" style="stop-color:#000000"/>
				</linearGradient>
				
					<rect x="-1227.2" y="-362.8" style="fill:url(#SVGID_00000092449526732159326010000013543715089252991123_);" width="1815.2" height="645.6"/>
			</g>
		</mask>
		<g class="st14">
			<g>
				<g>
					<defs>
						<rect id="SVGID_00000164486812114269625710000003268168251823875468_" x="277.3" y="76.4" width="16.2" height="118.1"/>
					</defs>
					<clipPath id="SVGID_00000025424499669235331030000010004060590779801247_">
						<use xlink:href="#SVGID_00000164486812114269625710000003268168251823875468_"  style="overflow:visible;"/>
					</clipPath>
					
						<rect x="279.5" y="77.5" style="clip-path:url(#SVGID_00000025424499669235331030000010004060590779801247_);fill:#939598;" width="11.9" height="116"/>
				</g>
			</g>
		</g>
		<line class="st2" x1="285.4" y1="193.6" x2="285.4" y2="25.8"/>
	</g>
</g>
<g>
	<path class="st3" d="M349.7,11.6V1.7l-2.6,2.8l-0.6-0.6l3.4-3.5h0.9v11.2H349.7z M354.5,11.6v-0.8c3.8-3.1,6.4-5.3,6.4-7.4
		c0-1.6-1.3-2.3-2.6-2.3c-1.4,0-2.5,0.6-3.1,1.5L354.5,2c0.8-1.1,2.2-1.7,3.7-1.7c1.6,0,3.5,0.9,3.5,3.2c0,2.5-2.6,4.7-5.9,7.4h5.9
		v0.9h-7.2V11.6z M364.4,13.2c0.5-0.4,0.9-1,1-1.5h-0.2c-0.4,0-0.7-0.3-0.7-0.7s0.3-0.7,0.7-0.7c0.5,0,0.9,0.4,0.9,1.1
		c0,0.9-0.6,1.8-1.2,2.3L364.4,13.2z M368.9,9.3c0.6,0.9,1.7,1.6,3.1,1.6c1.7,0,2.8-0.9,2.8-2.4c0-1.6-1.3-2.3-3-2.3
		c-0.5,0-0.9,0-1,0V5.3c0.2,0,0.6,0,1,0c1.5,0,2.8-0.6,2.8-2.1c0-1.4-1.2-2.2-2.7-2.2c-1.3,0-2.2,0.5-3,1.4l-0.6-0.6
		c0.8-1,2-1.7,3.7-1.7c2,0,3.6,1.1,3.6,3c0,1.7-1.4,2.5-2.4,2.6c1,0.1,2.6,0.9,2.6,2.8s-1.4,3.2-3.8,3.2c-1.8,0-3.2-0.9-3.8-1.9
		L368.9,9.3z M379.5,11.6l4.7-10.4H378V0.3h7.3V1l-4.8,10.6H379.5z M388.5,9.3c0.6,0.9,1.7,1.6,3.1,1.6c1.7,0,2.8-0.9,2.8-2.4
		c0-1.6-1.3-2.3-3-2.3c-0.5,0-0.9,0-1,0V5.3c0.2,0,0.6,0,1,0c1.5,0,2.8-0.6,2.8-2.1c0-1.4-1.2-2.2-2.7-2.2c-1.3,0-2.2,0.5-3,1.4
		l-0.6-0.6c0.8-1,2-1.7,3.7-1.7c2,0,3.6,1.1,3.6,3c0,1.7-1.4,2.5-2.4,2.6c1,0.1,2.6,0.9,2.6,2.8s-1.4,3.2-3.8,3.2
		c-1.8,0-3.2-0.9-3.8-1.9L388.5,9.3z"/>
	<g>
		<defs>
			
				<filter id="Adobe_OpacityMaskFilter_00000052811933466846207490000001643775484514034871_" filterUnits="userSpaceOnUse" x="364" y="61.5" width="16.2" height="133.1">
				<feColorMatrix  type="matrix" values="1 0 0 0 0  0 1 0 0 0  0 0 1 0 0  0 0 0 1 0"/>
			</filter>
		</defs>
		
			<mask maskUnits="userSpaceOnUse" x="364" y="61.5" width="16.2" height="133.1" id="SVGID_00000075125525915153378490000009416982756515834776_">
			<g style="filter:url(#Adobe_OpacityMaskFilter_00000052811933466846207490000001643775484514034871_);">
				
					<linearGradient id="SVGID_00000129900715109329410960000014875920818632241828_" gradientUnits="userSpaceOnUse" x1="-166.4721" y1="-181.3091" x2="-165.4176" y2="-181.3091" gradientTransform="matrix(-2.000000e-15 37.0371 -37.0371 -2.000000e-15 -6978.0527 6320.2515)">
					<stop  offset="0" style="stop-color:#FFFFFF"/>
					<stop  offset="1" style="stop-color:#000000"/>
				</linearGradient>
				
					<rect x="-1170.5" y="-362.8" style="fill:url(#SVGID_00000129900715109329410960000014875920818632241828_);" width="1815.2" height="645.6"/>
			</g>
		</mask>
		<g class="st18">
			<g>
				<g>
					<defs>
						<rect id="SVGID_00000008119406040311415160000013393006685910106009_" x="364" y="61.5" width="16.2" height="133.1"/>
					</defs>
					<clipPath id="SVGID_00000044856044891276411390000017642104691868238766_">
						<use xlink:href="#SVGID_00000008119406040311415160000013393006685910106009_"  style="overflow:visible;"/>
					</clipPath>
					
						<rect x="366.1" y="62.5" style="clip-path:url(#SVGID_00000044856044891276411390000017642104691868238766_);fill:#939598;" width="11.9" height="131"/>
				</g>
			</g>
		</g>
		<line class="st2" x1="372.1" y1="193.6" x2="372.1" y2="25.8"/>
	</g>
</g>
</svg>
