<?xml version="1.0" encoding="utf-8"?>
<!-- Generator: Adobe Illustrator 26.4.0, SVG Export Plug-In . SVG Version: 6.00 Build 0)  -->
<svg version="1.1" id="Layer_1" xmlns="http://www.w3.org/2000/svg" xmlns:xlink="http://www.w3.org/1999/xlink" x="0px" y="0px"
	 viewBox="0 0 400 204.4" style="enable-background:new 0 0 400 204.4;" xml:space="preserve">
<style type="text/css">
	.st0{clip-path:url(#SVGID_00000158728728359502856210000002262843730220468663_);fill:#DEECC2;}
	.st1{fill:#010101;}
	.st2{fill:#4E4E50;}
	.st3{fill:none;stroke:#010101;stroke-width:0.25;}
	.st4{fill:none;stroke:#939598;stroke-width:0.25;stroke-dasharray:0.749,0.499;}
	.st5{fill:none;stroke:#939598;stroke-width:0.25;stroke-dasharray:0.75,0.5;}
	.st6{fill:none;stroke:#939598;stroke-width:0.25;stroke-dasharray:0.748,0.498;}
	.st7{fill:#9FCC3B;}
	.st8{fill:#076AAA;}
</style>
<g>
	<g>
		<g>
			<g>
				<defs>
					<rect id="SVGID_1_" x="55.6" y="23.6" width="333.7" height="163"/>
				</defs>
				<clipPath id="SVGID_00000101068921411072864610000002218901932536796095_">
					<use xlink:href="#SVGID_1_"  style="overflow:visible;"/>
				</clipPath>
				<polygon style="clip-path:url(#SVGID_00000101068921411072864610000002218901932536796095_);fill:#DEECC2;" points="71.6,184.8 
					71.6,120.8 145.4,106.9 223.7,36.1 294.9,81.5 372.6,84.1 373.2,184.8 				"/>
			</g>
		</g>
	</g>
	<path class="st1" d="M342.8,204.1v-1.5c3.6-2.7,4.7-3.6,4.7-4.7c0-0.8-0.7-1.2-1.4-1.2c-1,0-1.8,0.4-2.4,1l-1.1-1.3
		c0.9-1,2.2-1.5,3.4-1.5c1.9,0,3.4,1.1,3.4,2.8c0,1.5-1.3,2.8-3.6,4.5h3.6v1.7h-6.6V204.1z M350.7,199.7c0-2.3,1.1-4.6,3.7-4.6
		s3.7,2.3,3.7,4.6s-1.1,4.6-3.7,4.6C351.9,204.3,350.7,202,350.7,199.7z M356.2,199.7c0-1.6-0.5-2.9-1.8-2.9s-1.8,1.3-1.8,2.9
		s0.5,2.9,1.8,2.9S356.2,201.3,356.2,199.7z M359.2,204.1v-1.5c3.6-2.7,4.7-3.6,4.7-4.7c0-0.8-0.7-1.2-1.4-1.2c-1,0-1.8,0.4-2.4,1
		l-1.1-1.3c0.9-1,2.2-1.5,3.4-1.5c1.9,0,3.4,1.1,3.4,2.8c0,1.5-1.3,2.8-3.6,4.5h3.6v1.7h-6.6V204.1z M370.3,204.1v-6.5l-1.5,1.5
		l-1.1-1.1l2.8-2.8h1.7v8.9L370.3,204.1L370.3,204.1z M374.6,201.6v-1.4h3.2v1.4H374.6z M378.9,204.1v-1.5c3.6-2.7,4.7-3.6,4.7-4.7
		c0-0.8-0.7-1.2-1.4-1.2c-1,0-1.8,0.4-2.4,1l-1.1-1.3c0.9-1,2.2-1.5,3.4-1.5c1.9,0,3.4,1.1,3.4,2.8c0,1.5-1.3,2.8-3.6,4.5h3.6v1.7
		h-6.6V204.1z M387.1,204.1v-1.5c3.6-2.7,4.7-3.6,4.7-4.7c0-0.8-0.7-1.2-1.4-1.2c-1,0-1.8,0.4-2.4,1l-1.1-1.3c0.9-1,2.2-1.5,3.4-1.5
		c1.9,0,3.4,1.1,3.4,2.8c0,1.5-1.3,2.8-3.6,4.5h3.6v1.7h-6.6V204.1z"/>
	<path class="st1" d="M268.8,204.1v-0.6c3-2.4,5.1-4.2,5.1-5.9c0-1.3-1.1-1.8-2-1.8c-1.1,0-2,0.5-2.4,1.2l-0.5-0.5
		c0.6-0.9,1.7-1.4,3-1.4s2.8,0.7,2.8,2.5c0,2-2.1,3.8-4.6,5.8h4.7v0.7H268.8z M279.8,195.1c2.4,0,3.3,2.5,3.3,4.6s-0.9,4.6-3.3,4.6
		s-3.3-2.5-3.3-4.6C276.5,197.5,277.4,195.1,279.8,195.1z M279.8,195.8c-1.9,0-2.5,2.1-2.5,3.9c0,1.8,0.6,3.9,2.5,3.9
		s2.5-2.1,2.5-3.9C282.2,197.8,281.6,195.8,279.8,195.8z M284.5,204.1v-0.6c3-2.4,5.1-4.2,5.1-5.9c0-1.3-1.1-1.8-2-1.8
		c-1.1,0-2,0.5-2.4,1.2l-0.5-0.5c0.6-0.9,1.7-1.4,3-1.4s2.8,0.7,2.8,2.5c0,2-2.1,3.8-4.6,5.8h4.7v0.7H284.5z M295.5,195.1
		c2.4,0,3.3,2.5,3.3,4.6s-0.9,4.6-3.3,4.6s-3.3-2.5-3.3-4.6C292.2,197.5,293.1,195.1,295.5,195.1z M295.5,195.8
		c-1.9,0-2.5,2.1-2.5,3.9c0,1.8,0.6,3.9,2.5,3.9s2.5-2.1,2.5-3.9C298,197.8,297.4,195.8,295.5,195.8z M300.5,201.2v-0.6h3.2v0.6
		H300.5z M304.7,204.1v-0.6c3-2.4,5.1-4.2,5.1-5.9c0-1.3-1.1-1.8-2-1.8c-1.1,0-2,0.5-2.4,1.2l-0.5-0.5c0.6-0.9,1.7-1.4,3-1.4
		s2.8,0.7,2.8,2.5c0,2-2.1,3.8-4.6,5.8h4.7v0.7H304.7z M315.5,204.1v-7.9l-2.1,2.3l-0.5-0.5l2.7-2.8h0.7v8.9H315.5z"/>
	<path class="st1" d="M194.4,204.1v-0.6c3-2.4,5.1-4.2,5.1-5.9c0-1.3-1.1-1.8-2-1.8c-1.1,0-2,0.5-2.4,1.2l-0.5-0.5
		c0.6-0.9,1.7-1.4,3-1.4s2.8,0.7,2.8,2.5c0,2-2.1,3.8-4.6,5.8h4.7v0.7H194.4z M205.3,195.1c2.4,0,3.3,2.5,3.3,4.6s-0.9,4.6-3.3,4.6
		s-3.3-2.5-3.3-4.6C202,197.5,202.9,195.1,205.3,195.1z M205.3,195.8c-1.9,0-2.5,2.1-2.5,3.9c0,1.8,0.6,3.9,2.5,3.9s2.5-2.1,2.5-3.9
		C207.8,197.8,207.2,195.8,205.3,195.8z M213.3,204.1v-7.9l-2.1,2.3l-0.5-0.5l2.7-2.8h0.7v8.9H213.3z M218,202.6c0.4,0.6,1,1,2,1
		c2,0,2.6-2,2.6-3.9c0-0.1,0-0.3,0-0.4c-0.4,0.6-1.4,1.5-2.6,1.5c-1.6,0-2.9-0.9-2.9-2.8c0-1.5,1.1-2.8,3-2.8c2.4,0,3.3,2.2,3.3,4.6
		c0,2.3-1,4.6-3.4,4.6c-1.2,0-1.9-0.5-2.4-1.1L218,202.6z M220.1,195.7c-1.5,0-2.2,1.2-2.2,2.1c0,1.5,0.9,2.2,2.2,2.2
		c1,0,1.9-0.6,2.4-1.5C222.4,197.3,221.8,195.7,220.1,195.7z M225.2,201.2v-0.6h3.2v0.6H225.2z M229.4,204.1v-0.6
		c3-2.4,5.1-4.2,5.1-5.9c0-1.3-1.1-1.8-2-1.8c-1.1,0-2,0.5-2.4,1.2l-0.5-0.5c0.6-0.9,1.7-1.4,3-1.4s2.8,0.7,2.8,2.5
		c0,2-2.1,3.8-4.6,5.8h4.7v0.7H229.4z M240.4,195.1c2.4,0,3.3,2.5,3.3,4.6s-0.9,4.6-3.3,4.6s-3.3-2.5-3.3-4.6
		C237.1,197.5,238,195.1,240.4,195.1z M240.4,195.8c-1.9,0-2.5,2.1-2.5,3.9c0,1.8,0.6,3.9,2.5,3.9s2.5-2.1,2.5-3.9
		C242.8,197.8,242.2,195.8,240.4,195.8z"/>
	<path class="st1" d="M120.3,204.1v-0.6c3-2.4,5.1-4.2,5.1-5.9c0-1.3-1.1-1.8-2-1.8c-1.1,0-2,0.5-2.4,1.2l-0.5-0.5
		c0.6-0.9,1.7-1.4,3-1.4s2.8,0.7,2.8,2.5c0,2-2.1,3.8-4.6,5.8h4.7v0.7H120.3z M131.3,195.1c2.4,0,3.3,2.5,3.3,4.6s-0.9,4.6-3.3,4.6
		s-3.3-2.5-3.3-4.6C128,197.5,128.9,195.1,131.3,195.1z M131.3,195.8c-1.9,0-2.5,2.1-2.5,3.9c0,1.8,0.6,3.9,2.5,3.9s2.5-2.1,2.5-3.9
		C133.7,197.8,133.1,195.8,131.3,195.8z M139.3,204.1v-7.9l-2.1,2.3l-0.5-0.5l2.7-2.8h0.7v8.9H139.3z M145.4,199.5
		c-1.1-0.3-2.1-1-2.1-2.2c0-1.6,1.5-2.3,2.9-2.3s2.9,0.7,2.9,2.3c0,1.2-1,1.9-2.1,2.2c1.1,0.3,2.2,1.1,2.2,2.4c0,1.4-1.3,2.4-3,2.4
		s-3-0.9-3-2.4C143.2,200.6,144.3,199.8,145.4,199.5z M146.2,199.9c-0.5,0.1-2.3,0.6-2.3,2c0,1.1,1.1,1.8,2.3,1.8s2.3-0.7,2.3-1.8
		C148.5,200.5,146.7,199.9,146.2,199.9z M146.2,195.8c-1.2,0-2.1,0.6-2.1,1.7c0,1.2,1.6,1.6,2.1,1.8c0.5-0.1,2.1-0.5,2.1-1.8
		C148.3,196.4,147.4,195.8,146.2,195.8z M151,201.2v-0.6h3.2v0.6H151z M158.2,204.1v-7.9l-2.1,2.3l-0.5-0.5l2.7-2.8h0.7v8.9H158.2z
		 M162.8,202.6c0.4,0.6,1,1,2,1c2,0,2.6-2,2.6-3.9c0-0.1,0-0.3,0-0.4c-0.4,0.6-1.4,1.5-2.6,1.5c-1.6,0-2.9-0.9-2.9-2.8
		c0-1.5,1.1-2.8,3-2.8c2.4,0,3.3,2.2,3.3,4.6c0,2.3-1,4.6-3.4,4.6c-1.2,0-1.9-0.5-2.4-1.1L162.8,202.6z M164.9,195.7
		c-1.5,0-2.2,1.2-2.2,2.1c0,1.5,0.9,2.2,2.2,2.2c1,0,1.9-0.6,2.4-1.5C167.3,197.3,166.6,195.7,164.9,195.7z"/>
	<path class="st1" d="M46.2,204.1v-0.6c3-2.4,5.1-4.2,5.1-5.9c0-1.3-1.1-1.8-2-1.8c-1.1,0-2,0.5-2.4,1.2l-0.5-0.5
		c0.6-0.9,1.7-1.4,3-1.4s2.8,0.7,2.8,2.5c0,2-2.1,3.8-4.6,5.8h4.7v0.7H46.2z M57.2,195.1c2.4,0,3.3,2.5,3.3,4.6s-0.9,4.6-3.3,4.6
		s-3.3-2.5-3.3-4.6C53.9,197.5,54.8,195.1,57.2,195.1z M57.2,195.8c-1.9,0-2.5,2.1-2.5,3.9c0,1.8,0.6,3.9,2.5,3.9s2.5-2.1,2.5-3.9
		C59.6,197.8,59,195.8,57.2,195.8z M65.1,204.1v-7.9l-2.1,2.3l-0.5-0.5l2.7-2.8h0.7v8.9H65.1z M70.2,204.1l3.8-8.2h-5v-0.7h5.8v0.5
		l-3.8,8.4H70.2z M75.7,201.2v-0.6h3.2v0.6H75.7z M82.9,204.1v-7.9l-2.1,2.3l-0.5-0.5l2.7-2.8h0.7v8.9H82.9z M89.1,199.5
		c-1.1-0.3-2.1-1-2.1-2.2c0-1.6,1.5-2.3,2.9-2.3s2.9,0.7,2.9,2.3c0,1.2-1,1.9-2.1,2.2c1.1,0.3,2.2,1.1,2.2,2.4c0,1.4-1.3,2.4-3,2.4
		s-3-0.9-3-2.4C86.9,200.6,87.9,199.8,89.1,199.5z M89.9,199.9c-0.5,0.1-2.3,0.6-2.3,2c0,1.1,1.1,1.8,2.3,1.8c1.2,0,2.3-0.7,2.3-1.8
		C92.1,200.5,90.4,199.9,89.9,199.9z M89.9,195.8c-1.2,0-2.1,0.6-2.1,1.7c0,1.2,1.6,1.6,2.1,1.8c0.5-0.1,2.1-0.5,2.1-1.8
		C92,196.4,91.1,195.8,89.9,195.8z"/>
	<path class="st1" d="M3.3,179.2c2.4,0,3.3,2.5,3.3,4.6s-0.9,4.6-3.3,4.6S0,185.9,0,183.8C0,181.7,0.9,179.2,3.3,179.2z M3.3,179.9
		c-1.9,0-2.5,2.1-2.5,3.9c0,1.8,0.6,3.9,2.5,3.9s2.5-2.1,2.5-3.9S5.2,179.9,3.3,179.9z"/>
	<path class="st1" d="M0.9,142.2c0.6,0.8,1.3,1.3,2.5,1.3c1.3,0,2.2-0.9,2.2-2.2s-0.9-2.2-2.2-2.2c-0.8,0-1.5,0.3-2.2,0.9l-0.6-0.2
		v-4.7h5.2v0.7H1.4v3.5c0.4-0.4,1.2-0.8,2.1-0.8c1.5,0,2.8,1,2.8,2.8s-1.4,2.9-3,2.9c-1.5,0-2.4-0.6-3-1.5L0.9,142.2z M11.4,134.9
		c2.4,0,3.3,2.5,3.3,4.6s-0.9,4.6-3.3,4.6s-3.3-2.5-3.3-4.6C8.1,137.4,9,134.9,11.4,134.9z M11.4,135.6c-1.9,0-2.5,2.1-2.5,3.9
		c0,1.8,0.6,3.9,2.5,3.9s2.5-2.1,2.5-3.9S13.3,135.6,11.4,135.6z"/>
	<g>
		<path class="st2" d="M16.5,145.8l-0.5-0.4c0.5-0.3,0.9-0.9,0.9-1.3c0,0-0.1,0-0.2,0c-0.4,0-0.7-0.3-0.7-0.7s0.3-0.8,0.8-0.8
			s0.9,0.4,0.9,1.1C17.7,144.5,17.2,145.3,16.5,145.8z"/>
	</g>
	<path class="st1" d="M21.4,134.9c2.4,0,3.3,2.5,3.3,4.6s-0.9,4.6-3.3,4.6s-3.3-2.5-3.3-4.6S19,134.9,21.4,134.9z M21.4,135.6
		c-1.9,0-2.5,2.1-2.5,3.9c0,1.8,0.6,3.9,2.5,3.9s2.5-2.1,2.5-3.9S23.3,135.6,21.4,135.6z M29.7,134.9c2.4,0,3.3,2.5,3.3,4.6
		s-0.9,4.6-3.3,4.6s-3.3-2.5-3.3-4.6C26.4,137.4,27.3,134.9,29.7,134.9z M29.7,135.6c-1.9,0-2.5,2.1-2.5,3.9c0,1.8,0.6,3.9,2.5,3.9
		s2.5-2.1,2.5-3.9S31.6,135.6,29.7,135.6z M37.9,134.9c2.4,0,3.3,2.5,3.3,4.6s-0.9,4.6-3.3,4.6s-3.3-2.5-3.3-4.6
		C34.6,137.4,35.5,134.9,37.9,134.9z M37.9,135.6c-1.9,0-2.5,2.1-2.5,3.9c0,1.8,0.6,3.9,2.5,3.9s2.5-2.1,2.5-3.9
		S39.8,135.6,37.9,135.6z"/>
	<polygon class="st1" points="3.6,99 3.6,91.2 1.5,93.4 1,92.9 3.6,90.1 4.3,90.1 4.3,99 	"/>
	<g>
		<path class="st2" d="M7.3,100.8l-0.5-0.4c0.5-0.3,0.9-0.9,0.9-1.3c0,0-0.1,0-0.2,0c-0.4,0-0.7-0.3-0.7-0.7s0.3-0.8,0.8-0.8
			s0.9,0.4,0.9,1.1C8.5,99.5,8,100.4,7.3,100.8z"/>
	</g>
	<path class="st1" d="M11.7,90c2.4,0,3.3,2.5,3.3,4.6c0,2.1-0.9,4.6-3.3,4.6s-3.3-2.5-3.3-4.6C8.4,92.4,9.3,90,11.7,90z M11.7,90.7
		c-1.9,0-2.5,2.1-2.5,3.9s0.6,3.9,2.5,3.9s2.5-2.1,2.5-3.9C14.2,92.7,13.6,90.7,11.7,90.7z M19.4,90c2.4,0,3.3,2.5,3.3,4.6
		c0,2.1-0.9,4.6-3.3,4.6s-3.3-2.5-3.3-4.6C16.1,92.4,17,90,19.4,90z M19.4,90.7c-1.9,0-2.5,2.1-2.5,3.9s0.6,3.9,2.5,3.9
		s2.5-2.1,2.5-3.9C21.9,92.7,21.3,90.7,19.4,90.7z"/>
	<g>
		<path class="st2" d="M24,100.8l-0.5-0.4c0.5-0.3,0.9-0.9,0.9-1.3c0,0-0.1,0-0.2,0c-0.4,0-0.7-0.3-0.7-0.7s0.3-0.8,0.8-0.8
			s0.9,0.4,0.9,1.1C25.1,99.5,24.6,100.4,24,100.8z"/>
	</g>
	<path class="st1" d="M28.3,90c2.4,0,3.3,2.5,3.3,4.6c0,2.1-0.9,4.6-3.3,4.6S25,96.7,25,94.6C25,92.4,25.9,90,28.3,90z M28.3,90.7
		c-1.9,0-2.5,2.1-2.5,3.9s0.6,3.9,2.5,3.9s2.5-2.1,2.5-3.9C30.8,92.7,30.2,90.7,28.3,90.7z M36,90c2.4,0,3.3,2.5,3.3,4.6
		c0,2.1-0.9,4.6-3.3,4.6s-3.3-2.5-3.3-4.6C32.7,92.4,33.7,90,36,90z M36,90.7c-1.9,0-2.5,2.1-2.5,3.9s0.6,3.9,2.5,3.9
		s2.5-2.1,2.5-3.9C38.5,92.7,37.9,90.7,36,90.7z M43.8,90c2.4,0,3.3,2.5,3.3,4.6c0,2.1-0.9,4.6-3.3,4.6s-3.3-2.5-3.3-4.6
		C40.5,92.4,41.4,90,43.8,90z M43.8,90.7c-1.9,0-2.5,2.1-2.5,3.9s0.6,3.9,2.5,3.9s2.5-2.1,2.5-3.9C46.2,92.7,45.6,90.7,43.8,90.7z"
		/>
	<polygon class="st1" points="3.6,54.1 3.6,46.2 1.5,48.4 1,48 3.6,45.1 4.3,45.1 4.3,54.1 	"/>
	<g>
		<path class="st2" d="M7.3,55.9l-0.5-0.4c0.5-0.3,0.9-0.9,0.9-1.3c0,0-0.1,0-0.2,0c-0.4,0-0.7-0.3-0.7-0.7c0-0.4,0.3-0.8,0.8-0.8
			s0.9,0.4,0.9,1.1C8.5,54.6,8,55.4,7.3,55.9z"/>
	</g>
	<path class="st1" d="M9.5,52.2c0.6,0.8,1.3,1.3,2.5,1.3c1.3,0,2.2-0.9,2.2-2.2c0-1.3-0.9-2.2-2.2-2.2c-0.8,0-1.5,0.3-2.2,0.9
		l-0.6-0.2v-4.7h5.2v0.7H10v3.5c0.4-0.4,1.2-0.8,2.1-0.8c1.5,0,2.8,1,2.8,2.8s-1.4,2.9-3,2.9c-1.5,0-2.4-0.6-3-1.5L9.5,52.2z
		 M19.5,45c2.4,0,3.3,2.5,3.3,4.6s-0.9,4.6-3.3,4.6s-3.3-2.5-3.3-4.6S17.1,45,19.5,45z M19.5,45.7c-1.9,0-2.5,2.1-2.5,3.9
		s0.6,3.9,2.5,3.9s2.5-2.1,2.5-3.9S21.4,45.7,19.5,45.7z"/>
	<g>
		<path class="st2" d="M24,55.9l-0.5-0.4c0.5-0.3,0.9-0.9,0.9-1.3c0,0-0.1,0-0.2,0c-0.4,0-0.7-0.3-0.7-0.7c0-0.4,0.3-0.8,0.8-0.8
			s0.9,0.4,0.9,1.1C25.2,54.6,24.7,55.4,24,55.9z"/>
	</g>
	<path class="st1" d="M28.4,45c2.4,0,3.3,2.5,3.3,4.6s-0.9,4.6-3.3,4.6s-3.3-2.5-3.3-4.6S26,45,28.4,45z M28.4,45.7
		c-1.9,0-2.5,2.1-2.5,3.9s0.6,3.9,2.5,3.9s2.5-2.1,2.5-3.9S30.3,45.7,28.4,45.7z M36.1,45c2.4,0,3.3,2.5,3.3,4.6s-0.9,4.6-3.3,4.6
		s-3.3-2.5-3.3-4.6S33.7,45,36.1,45z M36.1,45.7c-1.9,0-2.5,2.1-2.5,3.9s0.6,3.9,2.5,3.9s2.5-2.1,2.5-3.9S38,45.7,36.1,45.7z
		 M43.8,45c2.4,0,3.3,2.5,3.3,4.6s-0.9,4.6-3.3,4.6s-3.3-2.5-3.3-4.6S41.4,45,43.8,45z M43.8,45.7c-1.9,0-2.5,2.1-2.5,3.9
		s0.6,3.9,2.5,3.9s2.5-2.1,2.5-3.9S45.7,45.7,43.8,45.7z"/>
	<path class="st1" d="M0.3,9.1V8.5c3-2.4,5.1-4.2,5.1-5.9c0-1.3-1.1-1.8-2-1.8C2.3,0.8,1.4,1.3,1,2L0.5,1.5c0.6-0.9,1.7-1.4,3-1.4
		s2.8,0.7,2.8,2.5c0,2-2.1,3.8-4.6,5.8h4.7v0.7C6.4,9.1,0.3,9.1,0.3,9.1z"/>
	<g>
		<path class="st2" d="M8.1,10.9l-0.5-0.4c0.5-0.3,0.9-0.9,0.9-1.3c0,0-0.1,0-0.2,0c-0.4,0-0.7-0.3-0.7-0.7c0-0.4,0.3-0.8,0.8-0.8
			s0.9,0.4,0.9,1.1C9.3,9.6,8.8,10.4,8.1,10.9z"/>
	</g>
	<path class="st1" d="M13.1,0c2.4,0,3.3,2.5,3.3,4.6s-0.9,4.6-3.3,4.6S9.8,6.7,9.8,4.6C9.8,2.5,10.7,0,13.1,0z M13.1,0.7
		c-1.9,0-2.5,2.1-2.5,3.9s0.6,3.9,2.5,3.9s2.5-2.1,2.5-3.9S15,0.7,13.1,0.7z M20.8,0c2.4,0,3.3,2.5,3.3,4.6s-0.9,4.6-3.3,4.6
		s-3.3-2.5-3.3-4.6S18.4,0,20.8,0z M20.8,0.7c-1.9,0-2.5,2.1-2.5,3.9s0.6,3.9,2.5,3.9s2.5-2.1,2.5-3.9S22.7,0.7,20.8,0.7z"/>
	<g>
		<g>
			<path class="st2" d="M25.3,10.9l-0.5-0.4c0.5-0.3,0.9-0.9,0.9-1.3c0,0-0.1,0-0.2,0c-0.4,0-0.7-0.3-0.7-0.7c0-0.4,0.3-0.8,0.8-0.8
				s0.9,0.4,0.9,1.1C26.5,9.6,26,10.4,25.3,10.9z"/>
		</g>
	</g>
	<path class="st1" d="M30.3,0c2.4,0,3.3,2.5,3.3,4.6s-0.9,4.6-3.3,4.6S27,6.7,27,4.6S27.9,0,30.3,0z M30.3,0.7
		c-1.9,0-2.5,2.1-2.5,3.9s0.6,3.9,2.5,3.9c1.9,0,2.5-2.1,2.5-3.9C32.7,2.8,32.1,0.7,30.3,0.7z M38,0c2.4,0,3.3,2.5,3.3,4.6
		S40.4,9.2,38,9.2s-3.3-2.5-3.3-4.6S35.6,0,38,0z M38,0.7c-1.9,0-2.5,2.1-2.5,3.9s0.6,3.9,2.5,3.9s2.5-2.1,2.5-3.9S39.9,0.7,38,0.7z
		 M45.7,0C48.1,0,49,2.5,49,4.6s-0.9,4.6-3.3,4.6s-3.3-2.5-3.3-4.6S43.3,0,45.7,0z M45.7,0.7c-1.9,0-2.5,2.1-2.5,3.9
		s0.6,3.9,2.5,3.9s2.5-2.1,2.5-3.9S47.6,0.7,45.7,0.7z"/>
	<line class="st3" x1="38" y1="184.6" x2="399.7" y2="184.6"/>
	<line class="st4" x1="56.3" y1="139.6" x2="399.7" y2="139.6"/>
	<line class="st5" x1="55.8" y1="94.6" x2="399.7" y2="94.6"/>
	<line class="st4" x1="56.3" y1="49.7" x2="399.7" y2="49.7"/>
	<line class="st6" x1="56.8" y1="4.7" x2="399.7" y2="4.7"/>
	<rect x="141.3" y="104" class="st7" width="5.9" height="5.9"/>
	<rect x="69" y="118.3" class="st7" width="5.9" height="5.9"/>
	<rect x="220.7" y="33.1" class="st7" width="5.9" height="5.9"/>
	<rect x="291.9" y="78.5" class="st7" width="5.9" height="5.9"/>
	<rect x="369.2" y="81.1" class="st7" width="5.9" height="5.9"/>
	<path class="st2" d="M53.8,113.2l4-8.7h-5.2v-0.7h6.2v0.6l-4,8.9h-1V113.2z M61.3,111.3c0.5,0.8,1.5,1.3,2.7,1.3
		c1.5,0,2.4-0.8,2.4-2c0-1.4-1.1-1.9-2.5-1.9c-0.4,0-0.7,0-0.9,0v-0.8c0.1,0,0.5,0,0.9,0c1.3,0,2.4-0.5,2.4-1.8
		c0-1.2-1.1-1.8-2.3-1.8c-1.1,0-1.8,0.4-2.5,1.2L61,105c0.7-0.8,1.7-1.4,3.1-1.4c1.7,0,3.1,0.9,3.1,2.5c0,1.5-1.2,2.1-2,2.2
		c0.8,0.1,2.2,0.8,2.2,2.4c0,1.6-1.2,2.7-3.2,2.7c-1.6,0-2.7-0.7-3.2-1.6L61.3,111.3z M68.9,114.6c0.5-0.3,0.8-0.9,0.8-1.3h-0.1
		c-0.3,0-0.6-0.3-0.6-0.6s0.3-0.6,0.6-0.6c0.4,0,0.7,0.3,0.7,0.9c0,0.8-0.5,1.6-1,1.9L68.9,114.6z M73.1,113.2l4-8.7h-5.2v-0.7h6.2
		v0.6l-4,8.9h-1V113.2z M80.1,113.2v-0.7c3.2-2.6,5.4-4.5,5.4-6.3c0-1.4-1.1-1.9-2.2-1.9c-1.2,0-2.1,0.5-2.6,1.2l-0.6-0.5
		c0.7-0.9,1.8-1.5,3.2-1.5c1.4,0,3,0.8,3,2.7c0,2.1-2.2,4-5,6.2h5v0.7h-6.2V113.2z M89.3,111.6c0.5,0.6,1.1,1.1,2.1,1.1
		c2.1,0,2.8-2.2,2.8-4.2c0-0.1,0-0.3,0-0.4c-0.4,0.7-1.5,1.6-2.8,1.6c-1.7,0-3.1-1-3.1-3c0-1.6,1.2-3,3.2-3c2.6,0,3.5,2.4,3.5,4.9
		c0,2.4-1,4.9-3.6,4.9c-1.2,0-2-0.5-2.6-1.2L89.3,111.6z M91.6,104.3c-1.6,0-2.4,1.3-2.4,2.3c0,1.6,1,2.3,2.4,2.3c1,0,2-0.7,2.6-1.6
		C94,106,93.4,104.3,91.6,104.3z"/>
	<path class="st2" d="M125.9,120.7c-1.1-0.3-2.2-1-2.2-2.3c0-1.7,1.6-2.4,3.1-2.4s3.1,0.8,3.1,2.4c0,1.3-1.1,2-2.2,2.3
		c1.2,0.3,2.3,1.2,2.3,2.5c0,1.5-1.4,2.5-3.2,2.5s-3.2-1-3.2-2.5C123.5,121.9,124.7,121,125.9,120.7z M126.8,121
		c-0.6,0.1-2.4,0.6-2.4,2.1c0,1.2,1.1,1.9,2.4,1.9c1.2,0,2.4-0.7,2.4-1.9C129.2,121.7,127.3,121.1,126.8,121z M126.8,116.7
		c-1.3,0-2.2,0.7-2.2,1.8c0,1.3,1.7,1.7,2.2,1.9c0.6-0.1,2.2-0.5,2.2-1.9C129,117.3,128,116.7,126.8,116.7z M132.6,123.6
		c0.6,0.9,1.4,1.4,2.7,1.4c1.4,0,2.4-1,2.4-2.3c0-1.4-1-2.3-2.4-2.3c-0.9,0-1.6,0.3-2.3,0.9l-0.6-0.3v-5h5.5v0.7h-4.7v3.7
		c0.5-0.5,1.3-0.9,2.3-0.9c1.6,0,3,1.1,3,3s-1.5,3.1-3.2,3.1c-1.6,0-2.6-0.6-3.2-1.6L132.6,123.6z M140.1,127
		c0.5-0.3,0.8-0.9,0.8-1.3h-0.1c-0.3,0-0.6-0.3-0.6-0.6s0.3-0.6,0.6-0.6c0.4,0,0.7,0.3,0.7,0.9c0,0.8-0.5,1.6-1,1.9L140.1,127z
		 M146.4,115.9c2.5,0,3.5,2.6,3.5,4.9c0,2.2-1,4.9-3.5,4.9s-3.5-2.7-3.5-4.9S143.9,115.9,146.4,115.9z M146.4,116.7
		c-2,0-2.6,2.2-2.6,4.2c0,1.9,0.7,4.2,2.6,4.2s2.6-2.2,2.6-4.2S148.4,116.7,146.4,116.7z M154.1,120.7c-1.1-0.3-2.2-1-2.2-2.3
		c0-1.7,1.6-2.4,3.1-2.4s3.1,0.8,3.1,2.4c0,1.3-1.1,2-2.2,2.3c1.2,0.3,2.3,1.2,2.3,2.5c0,1.5-1.4,2.5-3.2,2.5s-3.2-1-3.2-2.5
		C151.7,121.9,152.9,121,154.1,120.7z M154.9,121c-0.6,0.1-2.4,0.6-2.4,2.1c0,1.2,1.1,1.9,2.4,1.9c1.2,0,2.4-0.7,2.4-1.9
		C157.3,121.7,155.5,121.1,154.9,121z M154.9,116.7c-1.3,0-2.2,0.7-2.2,1.8c0,1.3,1.7,1.7,2.2,1.9c0.6-0.1,2.2-0.5,2.2-1.9
		C157.2,117.3,156.2,116.7,154.9,116.7z M164.6,125.6V123h-4.5v-0.7l4.2-6.2h1.1v6.2h1.4v0.7h-1.4v2.6H164.6z M164.6,116.9l-3.6,5.3
		h3.7L164.6,116.9L164.6,116.9z"/>
	<path class="st2" d="M200.1,26.8v-8.4l-2.2,2.4l-0.5-0.5l2.8-3h0.7v9.5H200.1z M204.2,28.2c0.5-0.3,0.8-0.9,0.8-1.3h-0.1
		c-0.3,0-0.6-0.3-0.6-0.6s0.3-0.6,0.6-0.6c0.4,0,0.7,0.3,0.7,0.9c0,0.8-0.5,1.6-1,1.9L204.2,28.2z M210.7,17.2c1.2,0,2,0.5,2.6,1.2
		l-0.5,0.6c-0.5-0.6-1-1.1-2.1-1.1c-2,0-2.8,2.1-2.8,4.2c0,0.1,0,0.3,0,0.4c0.4-0.7,1.5-1.6,2.8-1.6c1.7,0,3,1,3,3
		c0,1.6-1.2,3-3.2,3c-2.6,0-3.5-2.4-3.5-4.9C207.1,19.6,208.1,17.2,210.7,17.2z M210.6,21.7c-1,0-2,0.7-2.6,1.6
		c0.1,1.3,0.8,2.9,2.6,2.9c1.6,0,2.4-1.3,2.4-2.3C213,22.4,212,21.7,210.6,21.7z M220.2,26.8v-2.6h-4.5v-0.7l4.2-6.2h1.1v6.2h1.4
		v0.7H221v2.6H220.2z M220.2,18.1l-3.7,5.3h3.7V18.1z M223.8,28.2c0.5-0.3,0.8-0.9,0.8-1.3h-0.1c-0.3,0-0.6-0.3-0.6-0.6
		s0.3-0.6,0.6-0.6c0.4,0,0.7,0.3,0.7,0.9c0,0.8-0.5,1.6-1,1.9L223.8,28.2z M229.4,21.9c-1.1-0.3-2.2-1-2.2-2.3
		c0-1.7,1.6-2.4,3.1-2.4s3.1,0.8,3.1,2.4c0,1.3-1.1,2-2.2,2.3c1.2,0.3,2.3,1.2,2.3,2.5c0,1.5-1.4,2.5-3.2,2.5s-3.2-1-3.2-2.5
		C227,23.1,228.2,22.3,229.4,21.9z M230.3,22.3c-0.6,0.1-2.4,0.6-2.4,2.1c0,1.2,1.1,1.9,2.4,1.9c1.2,0,2.4-0.7,2.4-1.9
		C232.7,22.9,230.8,22.4,230.3,22.3z M230.3,17.9c-1.3,0-2.2,0.7-2.2,1.8c0,1.3,1.7,1.7,2.2,1.9c0.6-0.1,2.2-0.5,2.2-1.9
		C232.5,18.6,231.5,17.9,230.3,17.9z M240,26.8v-2.6h-4.5v-0.7l4.2-6.2h1.1v6.2h1.4v0.7h-1.4v2.6H240z M240,18.1l-3.7,5.3h3.7V18.1z
		 M247.5,17.2c2.5,0,3.5,2.6,3.5,4.9c0,2.2-1,4.9-3.5,4.9s-3.5-2.7-3.5-4.9C244,19.8,244.9,17.2,247.5,17.2z M247.5,17.9
		c-2,0-2.6,2.2-2.6,4.2c0,1.9,0.7,4.2,2.6,4.2s2.6-2.2,2.6-4.2S249.5,17.9,247.5,17.9z"/>
	<path class="st8" d="M347.8,74.7v-6.9l-1.6,1.6l-1.2-1.2l3-3h1.8v9.5H347.8z M353.3,76.7l-0.8-0.6c0.5-0.2,1-0.8,1.1-1.3
		c0,0-0.2,0-0.3,0c-0.5,0-1-0.4-1-1c0-0.6,0.5-1.1,1.1-1.1c0.7,0,1.3,0.5,1.3,1.5C354.8,75.1,354.2,76.1,353.3,76.7z M358.4,74.7
		v-6.9l-1.6,1.6l-1.2-1.2l3-3h1.8v9.5H358.4z M362.9,74.7v-1.6c3.9-2.9,5-3.8,5-5c0-0.8-0.8-1.2-1.5-1.2c-1.1,0-1.9,0.4-2.5,1.1
		l-1.2-1.3c0.9-1.1,2.3-1.6,3.7-1.6c2,0,3.6,1.1,3.6,3c0,1.6-1.3,3-3.8,4.8h3.9v1.8C370.1,74.7,362.9,74.7,362.9,74.7z M372.7,76.7
		l-0.8-0.6c0.5-0.2,1-0.8,1.1-1.3c0,0-0.2,0-0.3,0c-0.5,0-1-0.4-1-1c0-0.6,0.5-1.1,1.1-1.1c0.7,0,1.3,0.5,1.3,1.5
		C374.2,75.1,373.6,76.1,372.7,76.7z M375.8,73.9l0.9-1.6c0.5,0.5,1.1,0.7,1.9,0.7c1.6,0,2.4-1.3,2.4-2.7c0-0.1,0-0.1,0-0.2
		c-0.5,0.6-1.4,1.2-2.4,1.2c-1.7,0-3.2-1.1-3.2-3.1c0-1.8,1.5-3.3,3.6-3.3c2.9,0,4.1,2.2,4.1,4.9c0,2.9-1.6,4.9-4.4,4.9
		C377.4,74.9,376.5,74.5,375.8,73.9z M380.9,68.8c-0.1-0.9-0.6-1.9-1.9-1.9c-1.1,0-1.7,0.7-1.7,1.4c0,1,0.9,1.4,1.8,1.4
		C379.8,69.7,380.5,69.4,380.9,68.8z M388.8,74.7v-2h-4.5v-1.5l3.7-6h2.8v5.7h1.2v1.8h-1.2v2H388.8z M388.8,67l-2.6,4h2.6V67z
		 M394.3,74.7l3.4-7.7h-4.8v-1.8h7.1v1.4l-3.5,8.1H394.3z"/>
	<path class="st2" d="M274,71.7v-8.4l-2.2,2.4l-0.5-0.5l2.8-3h0.7v9.5H274z M278.1,73.1c0.5-0.3,0.8-0.9,0.8-1.3h-0.1
		c-0.3,0-0.6-0.3-0.6-0.6s0.3-0.6,0.6-0.6c0.4,0,0.7,0.3,0.7,0.9c0,0.8-0.5,1.6-1,1.9L278.1,73.1z M283.5,71.7v-8.4l-2.2,2.4
		l-0.5-0.5l2.8-3h0.7v9.5H283.5z M288,69.8c0.5,0.8,1.5,1.3,2.7,1.3c1.5,0,2.4-0.8,2.4-2c0-1.4-1.1-1.9-2.5-1.9c-0.4,0-0.7,0-0.9,0
		v-0.8c0.1,0,0.5,0,0.9,0c1.3,0,2.4-0.5,2.4-1.8c0-1.2-1.1-1.8-2.3-1.8c-1.1,0-1.8,0.4-2.5,1.2l-0.5-0.5c0.7-0.8,1.7-1.4,3.1-1.4
		c1.7,0,3.1,0.9,3.1,2.5c0,1.5-1.2,2.1-2,2.2c0.8,0.1,2.2,0.8,2.2,2.4c0,1.6-1.2,2.7-3.2,2.7c-1.6,0-2.7-0.7-3.2-1.6L288,69.8z
		 M295.7,73.1c0.5-0.3,0.8-0.9,0.8-1.3h-0.1c-0.3,0-0.6-0.3-0.6-0.6s0.3-0.6,0.6-0.6c0.4,0,0.7,0.3,0.7,0.9c0,0.8-0.5,1.6-1,1.9
		L295.7,73.1z M301.1,71.7v-8.4l-2.2,2.4l-0.5-0.5l2.8-3h0.7v9.5H301.1z M305.1,71.7V71c3.2-2.6,5.4-4.5,5.4-6.3
		c0-1.4-1.1-1.9-2.2-1.9c-1.2,0-2.1,0.5-2.6,1.2l-0.6-0.5c0.7-0.9,1.8-1.5,3.2-1.5c1.4,0,3,0.8,3,2.7c0,2.1-2.2,4-5,6.2h5v0.7h-6.2
		V71.7z M314.6,71.7l4-8.7h-5.2v-0.8h6.2v0.6l-4,8.9H314.6z"/>
</g>
</svg>
