<?xml version="1.0" encoding="utf-8"?>
<!-- Generator: Adobe Illustrator 26.4.0, SVG Export Plug-In . SVG Version: 6.00 Build 0)  -->
<svg version="1.1" id="Layer_1" xmlns="http://www.w3.org/2000/svg" xmlns:xlink="http://www.w3.org/1999/xlink" x="0px" y="0px"
	 viewBox="0 0 397.8 204.4" style="enable-background:new 0 0 397.8 204.4;" xml:space="preserve">
<style type="text/css">
	.st0{clip-path:url(#SVGID_00000158005362361982224830000014318345304591648662_);fill:#DEECC2;}
	.st1{fill:#010101;}
	.st2{fill:none;stroke:#010101;stroke-width:0.25;}
	.st3{fill:none;stroke:#939598;stroke-width:0.25;stroke-dasharray:0.75,0.5;}
	.st4{fill:#9FCC3B;}
	.st5{fill:#4E4E50;}
	.st6{fill:#076AAA;}
</style>
<g>
	<g>
		<g>
			<g>
				<defs>
					<rect id="SVGID_1_" x="55.3" y="-7" width="332.1" height="193.6"/>
				</defs>
				<clipPath id="SVGID_00000090257226165082196820000005180236098031946632_">
					<use xlink:href="#SVGID_1_"  style="overflow:visible;"/>
				</clipPath>
				<polygon style="clip-path:url(#SVGID_00000090257226165082196820000005180236098031946632_);fill:#DEECC2;" points="71.2,184.8 
					71.2,5.4 143.5,9.3 221.3,16.2 293.5,15 370.8,13 371.4,184.8 				"/>
			</g>
		</g>
	</g>
	<path class="st1" d="M3.3,179.2c2.4,0,3.3,2.5,3.3,4.6s-0.9,4.6-3.3,4.6S0,186,0,183.9C0,181.8,0.9,179.2,3.3,179.2z M3.3,179.9
		c-1.9,0-2.5,2-2.5,3.9c0,1.8,0.6,3.9,2.5,3.9s2.5-2.1,2.5-3.9C5.8,182,5.2,179.9,3.3,179.9z"/>
	<path class="st1" d="M0.3,116.4v-0.6c3-2.4,5-4.2,5-5.9c0-1.3-1.1-1.8-2-1.8c-1.1,0-2,0.5-2.4,1.2l-0.5-0.5c0.6-0.9,1.7-1.4,3-1.4
		s2.8,0.7,2.8,2.5c0,2-2.1,3.7-4.6,5.8h4.7v0.7L0.3,116.4L0.3,116.4z"/>
	<path class="st1" d="M0.8,78.8c0.5,0.8,1.4,1.3,2.5,1.3c1.4,0,2.2-0.7,2.2-1.9c0-1.3-1.1-1.8-2.4-1.8c-0.4,0-0.7,0-0.8,0v-0.7
		c0.1,0,0.5,0,0.8,0c1.2,0,2.2-0.5,2.2-1.7c0-1.1-1-1.7-2.1-1.7c-1,0-1.7,0.4-2.4,1.1l-0.5-0.5c0.6-0.8,1.6-1.3,2.9-1.3
		c1.5,0,2.9,0.8,2.9,2.3c0,1.4-1.1,1.9-1.9,2.1c0.8,0.1,2,0.7,2,2.2s-1.1,2.5-3,2.5c-1.4,0-2.5-0.7-3-1.5L0.8,78.8z"/>
	<path class="st1" d="M4.3,44.8v-2.4H0.1v-0.7L4,35.9h1v5.8h1.3v0.7H5.1v2.4H4.3z M4.3,36.7l-3.4,5h3.4V36.7z"/>
	<path class="st1" d="M0.9,7.4c0.6,0.8,1.3,1.3,2.5,1.3c1.3,0,2.2-0.9,2.2-2.1c0-1.3-0.9-2.2-2.2-2.2c-0.8,0-1.5,0.3-2.1,0.9
		L0.7,5.1V0.4h5.1v0.7H1.4v3.5c0.5-0.5,1.2-0.9,2.2-0.9c1.5,0,2.8,1,2.8,2.8S5,9.4,3.4,9.4C1.9,9.4,1,8.8,0.4,8L0.9,7.4z"/>
	<line class="st2" x1="37.9" y1="184.6" x2="397.8" y2="184.6"/>
	<line class="st3" x1="37.9" y1="113" x2="397.8" y2="113"/>
	<line class="st3" x1="37.9" y1="148.8" x2="397.8" y2="148.8"/>
	<line class="st3" x1="37.9" y1="77.2" x2="397.8" y2="77.2"/>
	<line class="st3" x1="37.9" y1="41.4" x2="397.8" y2="41.4"/>
	<line class="st3" x1="37.9" y1="5.6" x2="397.8" y2="5.6"/>
	<rect x="69.2" y="3.5" class="st4" width="5.8" height="5.8"/>
	<rect x="140.6" y="6.4" class="st4" width="5.8" height="5.8"/>
	<rect x="218.4" y="13.2" class="st4" width="5.8" height="5.8"/>
	<rect x="290.5" y="12" class="st4" width="5.8" height="5.8"/>
	<rect x="367.4" y="10.8" class="st4" width="5.8" height="5.8"/>
	<path class="st5" d="M65.3,25.7v-2.6h-4.5v-0.7l4.2-6.1h1.1v6.1h1.4v0.7h-1.4v2.6H65.3z M65.3,17l-3.6,5.3h3.6V17z M69.6,24.6
		c0.3,0,0.6,0.3,0.6,0.6s-0.3,0.6-0.6,0.6S69,25.5,69,25.2C69,24.8,69.3,24.6,69.6,24.6z M72.9,24c0.5,0.6,1,1,2.1,1
		c2.1,0,2.8-2.2,2.8-4.1c0-0.1,0-0.3,0-0.4c-0.5,0.6-1.6,1.6-2.8,1.6c-1.7,0-3-1-3-3c0-1.5,1.1-3,3.2-3c2.5,0,3.5,2.4,3.5,4.9
		c0,2.4-1,4.9-3.6,4.9c-1.2,0-2-0.5-2.5-1.2L72.9,24z M75.1,16.8c-1.6,0-2.4,1.2-2.4,2.3c0,1.5,1,2.3,2.4,2.3c1,0,2-0.7,2.6-1.6
		C77.6,18.4,76.9,16.8,75.1,16.8z M82.8,20.8c-1.1-0.3-2.2-1-2.2-2.3c0-1.7,1.6-2.4,3.1-2.4s3.1,0.8,3.1,2.4c0,1.3-1.1,2-2.2,2.3
		c1.2,0.3,2.3,1.2,2.3,2.5c0,1.5-1.4,2.5-3.2,2.5c-1.8,0-3.2-1-3.2-2.5C80.5,22,81.6,21.1,82.8,20.8z M83.7,21.2
		c-0.6,0.1-2.4,0.6-2.4,2.1c0,1.1,1.1,1.9,2.4,1.9c1.2,0,2.4-0.7,2.4-1.9C86.1,21.8,84.3,21.2,83.7,21.2z M83.7,16.8
		c-1.2,0-2.2,0.7-2.2,1.8c0,1.3,1.7,1.7,2.2,1.9c0.6-0.1,2.2-0.5,2.2-1.9C85.9,17.5,84.9,16.8,83.7,16.8z"/>
	<path class="st5" d="M135,28.8v-2.6h-4.5v-0.7l4.2-6.1h1.1v6.1h1.4v0.7h-1.4v2.6H135z M135,20.2l-3.6,5.3h3.6V20.2z M139.3,27.7
		c0.3,0,0.6,0.3,0.6,0.6s-0.3,0.6-0.6,0.6s-0.6-0.3-0.6-0.6C138.7,28,139,27.7,139.3,27.7z M144.1,24c-1.1-0.3-2.2-1-2.2-2.3
		c0-1.7,1.6-2.4,3.1-2.4s3.1,0.8,3.1,2.4c0,1.3-1.1,2-2.2,2.3c1.2,0.3,2.3,1.2,2.3,2.5c0,1.5-1.4,2.5-3.2,2.5s-3.2-1-3.2-2.5
		C141.8,25.1,142.9,24.3,144.1,24z M145,24.3c-0.6,0.1-2.4,0.6-2.4,2.1c0,1.1,1.1,1.9,2.4,1.9c1.2,0,2.4-0.7,2.4-1.9
		C147.4,25,145.6,24.4,145,24.3z M145,20c-1.2,0-2.2,0.7-2.2,1.8c0,1.3,1.7,1.7,2.2,1.9c0.6-0.1,2.2-0.5,2.2-1.9
		C147.2,20.6,146.2,20,145,20z M151.3,28.8l4-8.7h-5.2v-0.7h6.2V20l-4,8.9L151.3,28.8L151.3,28.8z"/>
	<path class="st5" d="M213,35.8v-2.6h-4.5v-0.7l4.2-6.1h1.1v6.1h1.4v0.7h-1.4v2.6H213z M213,27.2l-3.6,5.3h3.6V27.2z M217.3,34.7
		c0.3,0,0.6,0.3,0.6,0.6s-0.3,0.6-0.6,0.6s-0.6-0.3-0.6-0.6C216.7,35,217,34.7,217.3,34.7z M220.7,35.8l4-8.7h-5.2v-0.7h6.2V27
		l-4,8.9L220.7,35.8L220.7,35.8z M228.1,34c0.5,0.8,1.4,1.3,2.6,1.3c1.5,0,2.4-0.8,2.4-2c0-1.4-1.1-1.9-2.5-1.9c-0.4,0-0.7,0-0.9,0
		v-0.8c0.1,0,0.5,0,0.9,0c1.2,0,2.4-0.5,2.4-1.8c0-1.2-1-1.8-2.3-1.8c-1.1,0-1.8,0.4-2.5,1.2l-0.5-0.5c0.7-0.8,1.7-1.4,3.1-1.4
		c1.6,0,3,0.9,3,2.5c0,1.4-1.2,2.1-2,2.2c0.8,0.1,2.2,0.8,2.2,2.4s-1.2,2.7-3.2,2.7c-1.5,0-2.7-0.7-3.2-1.6L228.1,34z"/>
	<path class="st5" d="M285.1,34v-2.6h-4.5v-0.7l4.2-6.1h1.1v6.1h1.4v0.7h-1.4V34H285.1z M285.1,25.4l-3.6,5.3h3.6V25.4z M289.5,32.9
		c0.3,0,0.6,0.3,0.6,0.6s-0.3,0.6-0.6,0.6c-0.3,0-0.6-0.3-0.6-0.6S289.2,32.9,289.5,32.9z M292.8,34l4-8.7h-5.2v-0.7h6.2v0.5l-4,8.9
		H292.8z M300.5,32.4c0.5,0.6,1,1,2.1,1c2.1,0,2.8-2.2,2.8-4.1c0-0.1,0-0.3,0-0.4c-0.4,0.7-1.5,1.6-2.8,1.6c-1.7,0-3-1-3-3
		c0-1.5,1.1-3,3.2-3c2.5,0,3.5,2.4,3.5,4.9c0,2.4-1,4.9-3.6,4.9c-1.2,0-2-0.5-2.5-1.2L300.5,32.4z M302.7,25.2
		c-1.6,0-2.4,1.2-2.4,2.3c0,1.5,1,2.3,2.4,2.3c1,0,2-0.7,2.6-1.6C305.2,26.8,304.5,25.2,302.7,25.2z"/>
	<path class="st6" d="M360.5,32.8v-2H356v-1.6l3.8-5.9h2.8v5.8h1.2v1.8h-1.2v2L360.5,32.8L360.5,32.8z M360.5,25.2l-2.5,3.9h2.5
		V25.2z M365,31.8c0-0.6,0.5-1.1,1.1-1.1s1.1,0.5,1.1,1.1s-0.5,1.1-1.1,1.1S365,32.5,365,31.8z M368.6,30.4c0-1.1,0.9-2,2-2.4
		c-1-0.4-1.9-1-1.9-2.2c0-1.8,1.9-2.5,3.6-2.5s3.6,0.7,3.6,2.5c0,1.2-0.8,1.9-1.9,2.2c1.1,0.4,2,1.3,2,2.4c0,1.8-1.8,2.6-3.8,2.6
		C370.4,33,368.6,32.1,368.6,30.4z M374.1,30.1c0-0.8-1.2-1.1-1.8-1.2c-0.6,0.1-1.8,0.5-1.8,1.2s0.8,1.1,1.8,1.1
		C373.4,31.2,374.1,30.8,374.1,30.1z M374,26.1c0-0.7-0.7-1-1.6-1s-1.6,0.4-1.6,1c0,0.7,1,1,1.6,1.1C373,27.1,374,26.8,374,26.1z
		 M380.7,32.8v-6.9l-1.6,1.6l-1.1-1.2l3-3h1.8v9.4h-2.1V32.8z"/>
	<polygon class="st1" points="3.6,152.2 3.6,144.4 1.5,146.6 1,146.1 3.6,143.3 4.3,143.3 4.3,152.2 	"/>
	<path class="st1" d="M341.2,204v-1.5c3.6-2.7,4.7-3.6,4.7-4.7c0-0.8-0.7-1.2-1.4-1.2c-1,0-1.8,0.4-2.4,1l-1.1-1.2
		c0.9-1,2.2-1.4,3.4-1.4c1.9,0,3.4,1.1,3.4,2.8c0,1.5-1.2,2.8-3.5,4.5h3.6v1.7L341.2,204L341.2,204z M349.1,199.6
		c0-2.3,1.1-4.6,3.7-4.6s3.7,2.3,3.7,4.6s-1.1,4.6-3.7,4.6S349.1,201.9,349.1,199.6z M354.5,199.6c0-1.6-0.5-2.9-1.7-2.9
		c-1.3,0-1.7,1.3-1.7,2.9c0,1.6,0.5,2.9,1.7,2.9S354.5,201.2,354.5,199.6z M357.5,204v-1.5c3.6-2.7,4.7-3.6,4.7-4.7
		c0-0.8-0.7-1.2-1.4-1.2c-1,0-1.8,0.4-2.4,1l-1.1-1.2c0.9-1,2.2-1.4,3.4-1.4c1.9,0,3.4,1.1,3.4,2.8c0,1.5-1.2,2.8-3.5,4.5h3.6v1.7
		L357.5,204L357.5,204z M368.6,204v-6.4l-1.5,1.5L366,198l2.8-2.8h1.6v8.9L368.6,204L368.6,204z M372.8,201.5v-1.4h3.2v1.4H372.8z
		 M377,204v-1.5c3.6-2.7,4.7-3.6,4.7-4.7c0-0.8-0.7-1.2-1.4-1.2c-1,0-1.8,0.4-2.4,1l-1.1-1.2c0.9-1,2.2-1.4,3.4-1.4
		c1.9,0,3.4,1.1,3.4,2.8c0,1.5-1.2,2.8-3.5,4.5h3.6v1.7L377,204L377,204z M385.2,204v-1.5c3.6-2.7,4.7-3.6,4.7-4.7
		c0-0.8-0.7-1.2-1.4-1.2c-1,0-1.8,0.4-2.4,1l-1.1-1.2c0.9-1,2.2-1.4,3.4-1.4c1.9,0,3.4,1.1,3.4,2.8c0,1.5-1.2,2.8-3.5,4.5h3.6v1.7
		L385.2,204L385.2,204z"/>
	<path class="st1" d="M267.5,204v-0.6c3-2.4,5-4.2,5-5.9c0-1.3-1.1-1.8-2-1.8c-1.1,0-2,0.5-2.4,1.2l-0.5-0.5c0.6-0.9,1.7-1.4,3-1.4
		s2.8,0.7,2.8,2.5c0,2-2.1,3.7-4.6,5.8h4.7v0.7H267.5z M278.4,195c2.4,0,3.3,2.5,3.3,4.6s-0.9,4.6-3.3,4.6s-3.3-2.5-3.3-4.6
		S276,195,278.4,195z M278.4,195.8c-1.9,0-2.5,2-2.5,3.9c0,1.8,0.6,3.9,2.5,3.9s2.5-2.1,2.5-3.9
		C280.9,197.8,280.3,195.8,278.4,195.8z M283.2,204v-0.6c3-2.4,5-4.2,5-5.9c0-1.3-1.1-1.8-2-1.8c-1.1,0-2,0.5-2.4,1.2l-0.5-0.5
		c0.6-0.9,1.7-1.4,3-1.4s2.8,0.7,2.8,2.5c0,2-2.1,3.7-4.6,5.8h4.7v0.7H283.2z M294.1,195c2.4,0,3.3,2.5,3.3,4.6s-0.9,4.6-3.3,4.6
		s-3.3-2.5-3.3-4.6C290.8,197.5,291.7,195,294.1,195z M294.1,195.8c-1.9,0-2.5,2-2.5,3.9c0,1.8,0.6,3.9,2.5,3.9s2.5-2.1,2.5-3.9
		C296.5,197.8,295.9,195.8,294.1,195.8z M299,201.1v-0.6h3.2v0.6H299z M303.2,204v-0.6c3-2.4,5-4.2,5-5.9c0-1.3-1.1-1.8-2-1.8
		c-1.1,0-2,0.5-2.4,1.2l-0.5-0.5c0.6-0.9,1.7-1.4,3-1.4s2.8,0.7,2.8,2.5c0,2-2.1,3.7-4.6,5.8h4.7v0.7H303.2z M314,204v-7.8l-2.1,2.2
		l-0.5-0.5l2.6-2.8h0.7v8.9L314,204L314,204z"/>
	<path class="st1" d="M193.4,204v-0.6c3-2.4,5-4.2,5-5.9c0-1.3-1.1-1.8-2-1.8c-1.1,0-2,0.5-2.4,1.2l-0.5-0.5c0.6-0.9,1.7-1.4,3-1.4
		s2.8,0.7,2.8,2.5c0,2-2.1,3.7-4.6,5.8h4.7v0.7H193.4z M204.4,195c2.4,0,3.3,2.5,3.3,4.6s-0.9,4.6-3.3,4.6s-3.3-2.5-3.3-4.6
		S202,195,204.4,195z M204.4,195.8c-1.9,0-2.5,2-2.5,3.9c0,1.8,0.6,3.9,2.5,3.9s2.5-2.1,2.5-3.9
		C206.8,197.8,206.2,195.8,204.4,195.8z M212.3,204v-7.8l-2.1,2.2l-0.5-0.5l2.6-2.8h0.7v8.9L212.3,204L212.3,204z M216.9,202.5
		c0.4,0.6,1,1,2,1c1.9,0,2.6-2,2.6-3.9c0-0.1,0-0.3,0-0.4c-0.4,0.6-1.4,1.5-2.6,1.5c-1.6,0-2.9-0.9-2.9-2.8c0-1.4,1.1-2.8,3-2.8
		c2.4,0,3.3,2.2,3.3,4.6c0,2.3-1,4.6-3.4,4.6c-1.2,0-1.9-0.5-2.4-1.1L216.9,202.5z M219.1,195.8c-1.5,0-2.2,1.2-2.2,2.1
		c0,1.4,0.9,2.1,2.2,2.1c1,0,1.9-0.6,2.4-1.5C221.4,197.2,220.7,195.8,219.1,195.8z M224.1,201.1v-0.6h3.2v0.6H224.1z M228.3,204
		v-0.6c3-2.4,5-4.2,5-5.9c0-1.3-1.1-1.8-2-1.8c-1.1,0-2,0.5-2.4,1.2l-0.5-0.5c0.6-0.9,1.7-1.4,3-1.4s2.8,0.7,2.8,2.5
		c0,2-2.1,3.7-4.6,5.8h4.7v0.7H228.3z M239.2,195c2.4,0,3.3,2.5,3.3,4.6s-0.9,4.6-3.3,4.6s-3.3-2.5-3.3-4.6S236.8,195,239.2,195z
		 M239.2,195.8c-1.9,0-2.5,2-2.5,3.9c0,1.8,0.6,3.9,2.5,3.9s2.5-2.1,2.5-3.9C241.7,197.8,241.1,195.8,239.2,195.8z"/>
	<path class="st1" d="M119.7,204v-0.6c3-2.4,5-4.2,5-5.9c0-1.3-1.1-1.8-2-1.8c-1.1,0-2,0.5-2.4,1.2l-0.5-0.5c0.6-0.9,1.7-1.4,3-1.4
		s2.8,0.7,2.8,2.5c0,2-2.1,3.7-4.6,5.8h4.7v0.7H119.7z M130.6,195c2.4,0,3.3,2.5,3.3,4.6s-0.9,4.6-3.3,4.6s-3.3-2.5-3.3-4.6
		C127.4,197.5,128.3,195,130.6,195z M130.6,195.8c-1.9,0-2.5,2-2.5,3.9c0,1.8,0.6,3.9,2.5,3.9s2.5-2.1,2.5-3.9
		C133.1,197.8,132.5,195.8,130.6,195.8z M138.6,204v-7.8l-2.1,2.2l-0.5-0.5l2.6-2.8h0.7v8.9L138.6,204L138.6,204z M144.7,199.4
		c-1.1-0.3-2.1-1-2.1-2.1c0-1.6,1.5-2.3,2.9-2.3s2.9,0.7,2.9,2.3c0,1.2-1,1.9-2.1,2.1c1.1,0.3,2.2,1.1,2.2,2.4c0,1.4-1.3,2.4-3,2.4
		s-3-0.9-3-2.4C142.5,200.5,143.6,199.8,144.7,199.4z M145.5,199.8c-0.5,0.1-2.2,0.6-2.2,2c0,1.1,1.1,1.7,2.2,1.7
		c1.2,0,2.2-0.7,2.2-1.7C147.8,200.4,146,199.8,145.5,199.8z M145.5,195.8c-1.2,0-2.1,0.6-2.1,1.7c0,1.2,1.6,1.6,2.1,1.7
		c0.5-0.1,2.1-0.5,2.1-1.7C147.6,196.3,146.7,195.8,145.5,195.8z M150.2,201.1v-0.6h3.2v0.6H150.2z M157.4,204v-7.8l-2.1,2.2
		l-0.5-0.5l2.6-2.8h0.7v8.9L157.4,204L157.4,204z M162,202.5c0.4,0.6,1,1,2,1c1.9,0,2.6-2,2.6-3.9c0-0.1,0-0.3,0-0.4
		c-0.4,0.6-1.4,1.5-2.6,1.5c-1.6,0-2.9-0.9-2.9-2.8c0-1.4,1.1-2.8,3-2.8c2.4,0,3.3,2.2,3.3,4.6c0,2.3-1,4.6-3.4,4.6
		c-1.2,0-1.9-0.5-2.4-1.1L162,202.5z M164.2,195.8c-1.5,0-2.2,1.2-2.2,2.1c0,1.4,0.9,2.1,2.2,2.1c1,0,1.9-0.6,2.4-1.5
		C166.5,197.2,165.8,195.8,164.2,195.8z"/>
	<path class="st1" d="M46,204v-0.6c3-2.4,5-4.2,5-5.9c0-1.3-1.1-1.8-2-1.8c-1.1,0-2,0.5-2.4,1.2l-0.5-0.5c0.6-0.9,1.7-1.4,3-1.4
		s2.8,0.7,2.8,2.5c0,2-2.1,3.7-4.6,5.8H52v0.7H46z M56.9,195c2.4,0,3.3,2.5,3.3,4.6s-0.9,4.6-3.3,4.6c-2.4,0-3.3-2.5-3.3-4.6
		S54.5,195,56.9,195z M56.9,195.8c-1.9,0-2.5,2-2.5,3.9c0,1.8,0.6,3.9,2.5,3.9s2.5-2.1,2.5-3.9C59.4,197.8,58.8,195.8,56.9,195.8z
		 M64.8,204v-7.8l-2.1,2.2l-0.5-0.5l2.7-2.8h0.7v8.9H64.8z M69.9,204l3.7-8.2h-4.9v-0.7h5.8v0.5l-3.8,8.3L69.9,204L69.9,204z
		 M75.4,201.1v-0.6h3.2v0.6H75.4z M82.6,204v-7.8l-2.1,2.2l-0.5-0.5l2.6-2.8h0.7v8.9L82.6,204L82.6,204z M88.7,199.4
		c-1.1-0.3-2.1-1-2.1-2.1c0-1.6,1.5-2.3,2.9-2.3s2.9,0.7,2.9,2.3c0,1.2-1,1.9-2.1,2.1c1.1,0.3,2.2,1.1,2.2,2.4c0,1.4-1.3,2.4-3,2.4
		s-3-0.9-3-2.4C86.4,200.5,87.5,199.8,88.7,199.4z M89.5,199.8c-0.5,0.1-2.2,0.6-2.2,2c0,1.1,1.1,1.7,2.2,1.7c1.2,0,2.2-0.7,2.2-1.7
		C91.7,200.4,90,199.8,89.5,199.8z M89.5,195.8c-1.2,0-2.1,0.6-2.1,1.7c0,1.2,1.6,1.6,2.1,1.7c0.5-0.1,2.1-0.5,2.1-1.7
		C91.6,196.3,90.6,195.8,89.5,195.8z"/>
</g>
</svg>
