<?xml version="1.0" encoding="utf-8"?>
<!-- Generator: Adobe Illustrator 26.4.0, SVG Export Plug-In . SVG Version: 6.00 Build 0)  -->
<svg version="1.1" id="graph1" xmlns="http://www.w3.org/2000/svg" xmlns:xlink="http://www.w3.org/1999/xlink" x="0px" y="0px"
	 viewBox="0 0 496.5 270.9" style="enable-background:new 0 0 496.5 270.9;" xml:space="preserve">
<style type="text/css">
	#graph1 .st0{fill:#0069AA;}
	#graph1 .st1{filter:url(#Adobe_OpacityMaskFilter);}
	#graph1 .st2{fill:url(#SVGID_00000008853926768229839030000010697209508868462494_);}
	#graph1 .st3{mask:url(#SVGID_1_);}
	#graph1 .st4{clip-path:url(#SVGID_00000057121616091897560740000000132628370139906195_);fill:#0069AA;}
	#graph1 .st5{fill:none;stroke:#FFFFFF;}
	#graph1 .st6{fill:#4D4D4F;}
	#graph1 .st7{filter:url(#Adobe_OpacityMaskFilter_00000124848831731713098470000015183554454655374763_);}
	#graph1 .st8{fill:url(#SVGID_00000103262082172969195210000010153125876917397685_);}
	#graph1 .st9{mask:url(#SVGID_00000086668854057813732230000015625867970250285960_);}
	#graph1 .st10{clip-path:url(#SVGID_00000111904858706973684440000008768872663321187501_);fill:#939598;}
	#graph1 .st11{filter:url(#Adobe_OpacityMaskFilter_00000043456996897060906010000007345559341241765024_);}
	#graph1 .st12{fill:url(#SVGID_00000173882208919344018140000004985071955214085299_);}
	#graph1 .st13{mask:url(#SVGID_00000104702523640741583470000012676197747430759559_);}
	#graph1 .st14{clip-path:url(#SVGID_00000146476122646350051040000008905708951172604820_);fill:#939598;}
	#graph1 .st15{filter:url(#Adobe_OpacityMaskFilter_00000014610710217462712920000017384622196780382139_);}
	#graph1 .st16{fill:url(#SVGID_00000044895818145781152930000010217480301184573317_);}
	#graph1 .st17{mask:url(#SVGID_00000057132235160278173500000000671769013609922489_);}
	#graph1 .st18{clip-path:url(#SVGID_00000166668606968798539690000009272161114741414303_);fill:#939598;}
	#graph1 .st19{filter:url(#Adobe_OpacityMaskFilter_00000126304307957936266620000015067070267452672940_);}
	#graph1 .st20{fill:url(#SVGID_00000175281914195710980120000005750290130013084323_);}
	#graph1 .st21{mask:url(#SVGID_00000170993202122225029850000004985267818471087785_);}
	#graph1 .st22{clip-path:url(#SVGID_00000039135374444651458760000006427055993745227434_);fill:#939598;}
</style>
<path class="st0" d="M1.4,270v-1.6c4.9-3.8,7.2-5.7,7.2-7.8c0-1.5-1.3-2.2-2.6-2.2c-1.6,0-2.8,0.6-3.6,1.6l-1.2-1.3
	c1.1-1.4,2.9-2.1,4.7-2.1c2.4,0,4.6,1.3,4.6,4c0,2.6-2.5,4.9-6.1,7.6h6.1v1.7H1.4z M18,256.7c3.6,0,5.1,3.5,5.1,6.8
	s-1.5,6.8-5.1,6.8c-3.6,0-5.1-3.5-5.1-6.8S14.4,256.7,18,256.7z M18,258.4c-2.3,0-3.1,2.5-3.1,5c0,2.6,0.8,5,3.1,5
	c2.3,0,3.1-2.5,3.1-5C21.2,260.9,20.4,258.4,18,258.4z M25.1,270v-1.6c4.9-3.8,7.2-5.7,7.2-7.8c0-1.5-1.3-2.2-2.6-2.2
	c-1.6,0-2.8,0.6-3.6,1.6l-1.2-1.3c1.1-1.4,2.9-2.1,4.7-2.1c2.4,0,4.6,1.3,4.6,4c0,2.6-2.5,4.9-6.1,7.6h6.1v1.7H25.1z M40.9,270
	v-10.5l-2.4,2.5l-1.2-1.2l3.8-3.9h1.7V270H40.9z M47.1,266v-1.5h4.7v1.5H47.1z M53.3,270v-1.6c4.9-3.8,7.2-5.7,7.2-7.8
	c0-1.5-1.3-2.2-2.6-2.2c-1.6,0-2.8,0.6-3.6,1.6l-1.2-1.3c1.1-1.4,2.9-2.1,4.7-2.1c2.4,0,4.6,1.3,4.6,4c0,2.6-2.5,4.9-6.1,7.6h6.1
	v1.7H53.3z M65.2,270v-1.6c4.9-3.8,7.2-5.7,7.2-7.8c0-1.5-1.3-2.2-2.6-2.2c-1.6,0-2.8,0.6-3.6,1.6l-1.2-1.3c1.1-1.4,2.9-2.1,4.7-2.1
	c2.4,0,4.6,1.3,4.6,4c0,2.6-2.5,4.9-6.1,7.6h6.1v1.7H65.2z"/>
<g class="wow performance-bar one">
	<path class="st0" d="M3.8,14.9v-2.3c5.7-4.2,7.4-5.7,7.4-7.4c0-1.2-1.1-1.8-2.3-1.8C7.3,3.4,6.1,4,5.2,5L3.5,3
		c1.4-1.6,3.4-2.3,5.4-2.3c3,0,5.3,1.7,5.3,4.5c0,2.4-2,4.5-5.6,7.1h5.7v2.6H3.8z M17,13.7l1.3-2.3c0.8,0.7,1.5,1.1,2.8,1.1
		c2.3,0,3.5-1.9,3.5-3.9c0-0.1,0-0.2,0-0.3c-0.7,0.9-2.1,1.8-3.6,1.8c-2.5,0-4.8-1.6-4.8-4.5c0-2.7,2.2-4.8,5.3-4.8
		c4.2,0,6,3.3,6,7.2c0,4.2-2.4,7.2-6.5,7.2C19.4,15.2,18,14.6,17,13.7z M24.6,6.2c-0.1-1.3-0.9-2.8-2.8-2.8c-1.6,0-2.5,1.1-2.5,2.1
		c0,1.5,1.3,2.1,2.6,2.1C22.9,7.5,23.9,7,24.6,6.2z M30.4,17.8l-1.2-0.9c0.7-0.4,1.4-1.2,1.6-2c-0.1,0-0.2,0.1-0.4,0.1
		c-0.8,0-1.4-0.6-1.4-1.5c0-0.9,0.8-1.7,1.7-1.7c1,0,1.9,0.8,1.9,2.1C32.5,15.5,31.7,16.9,30.4,17.8z M40.8,14.9V12h-6.7V9.7L39.7,1
		h4.1v8.5h1.8V12h-1.8v2.9H40.8z M40.8,3.6l-3.8,5.8h3.8V3.6z M54.1,14.9V12h-6.7V9.7L53,1h4.1v8.5h1.8V12h-1.8v2.9H54.1z M54.1,3.6
		l-3.8,5.8h3.8V3.6z M60.7,8c0-3.6,1.8-7.2,5.8-7.2s5.8,3.6,5.8,7.2s-1.8,7.2-5.8,7.2S60.7,11.6,60.7,8z M69.2,8
		c0-2.6-0.7-4.6-2.7-4.6c-2,0-2.7,2-2.7,4.6s0.8,4.6,2.7,4.6S69.2,10.5,69.2,8z"/>
	<defs>
		<filter id="Adobe_OpacityMaskFilter" filterUnits="userSpaceOnUse" x="27.1" y="31.2" width="20.1" height="210.5">
			<feColorMatrix  type="matrix" values="1 0 0 0 0  0 1 0 0 0  0 0 1 0 0  0 0 0 1 0"/>
		</filter>
	</defs>
	<mask maskUnits="userSpaceOnUse" x="27.1" y="31.2" width="20.1" height="210.5" id="SVGID_1_">
		<g class="st1">
			
				<linearGradient id="SVGID_00000125564883809528245400000005152201756379759012_" gradientUnits="userSpaceOnUse" x1="-73.38" y1="574.1414" x2="-72.0746" y2="574.1414" gradientTransform="matrix(-2.000000e-15 39.452 39.452 2.000000e-15 -22759.9844 3083.844)">
				<stop  offset="0" style="stop-color:#FFFFFF"/>
				<stop  offset="1" style="stop-color:#000000"/>
			</linearGradient>
			
				<rect x="-1233.2" y="-447.9" style="fill:url(#SVGID_00000125564883809528245400000005152201756379759012_);" width="2248.6" height="799.3"/>
		</g>
	</mask>
	<g class="st3">
		<g>
			<defs>
				<rect id="SVGID_00000126292739114344771310000018225027248076671369_" x="27.1" y="31.2" width="20.1" height="210.5"/>
			</defs>
			<clipPath id="SVGID_00000139285749989296326030000009240658966466428094_">
				<use xlink:href="#SVGID_00000126292739114344771310000018225027248076671369_"  style="overflow:visible;"/>
			</clipPath>
			
				<rect x="29.7" y="32.5" style="clip-path:url(#SVGID_00000139285749989296326030000009240658966466428094_);fill:#0069AA;" width="14.8" height="207.9"/>
		</g>
	</g>
	<line class="st5" x1="37.1" y1="240.4" x2="37.1" y2="32.5"/>
</g>
<path d="M108.6,269.9v-0.9c4.5-3.6,7.4-6.2,7.4-8.7c0-1.9-1.6-2.7-3-2.7c-1.6,0-2.9,0.7-3.6,1.7l-0.8-0.7c0.9-1.3,2.5-2,4.4-2
	c1.9,0,4.1,1.1,4.1,3.7c0,2.9-3,5.5-6.8,8.6h6.9v1H108.6z M124.8,256.5c3.5,0,4.8,3.6,4.8,6.8c0,3.1-1.3,6.8-4.8,6.8
	c-3.5,0-4.9-3.7-4.9-6.8C119.9,260.2,121.3,256.5,124.8,256.5z M124.8,257.6c-2.8,0-3.7,3-3.7,5.7c0,2.7,0.9,5.8,3.7,5.8
	c2.8,0,3.7-3.1,3.7-5.8C128.4,260.6,127.6,257.6,124.8,257.6z M131.8,269.9v-0.9c4.5-3.6,7.4-6.2,7.4-8.7c0-1.9-1.6-2.7-3-2.7
	c-1.6,0-2.9,0.7-3.6,1.7l-0.8-0.7c0.9-1.3,2.5-2,4.4-2c1.9,0,4.1,1.1,4.1,3.7c0,2.9-3,5.5-6.8,8.6h6.9v1H131.8z M147.9,256.5
	c3.5,0,4.8,3.6,4.8,6.8c0,3.1-1.3,6.8-4.8,6.8s-4.9-3.7-4.9-6.8C143.1,260.2,144.4,256.5,147.9,256.5z M147.9,257.6
	c-2.8,0-3.7,3-3.7,5.7c0,2.7,0.9,5.8,3.7,5.8c2.8,0,3.7-3.1,3.7-5.8C151.6,260.6,150.7,257.6,147.9,257.6z M155.3,265.6v-0.9h4.7
	v0.9H155.3z M161.5,269.9v-0.9c4.5-3.6,7.4-6.2,7.4-8.7c0-1.9-1.6-2.7-3-2.7c-1.6,0-2.9,0.7-3.6,1.7l-0.8-0.7c0.9-1.3,2.5-2,4.4-2
	c1.9,0,4.1,1.1,4.1,3.7c0,2.9-3,5.5-6.8,8.6h6.9v1H161.5z M177.4,269.9v-11.6l-3.1,3.3l-0.7-0.7l3.9-4.1h1v13.1H177.4z"/>
<g class="wow performance-bar two">
	<path class="st6" d="M112,15.2v-1c4.8-3.8,7.9-6.6,7.9-9.3c0-2-1.7-2.8-3.2-2.8c-1.7,0-3.1,0.8-3.8,1.8l-0.8-0.8
		c1-1.3,2.7-2.2,4.6-2.2c2.1,0,4.4,1.2,4.4,3.9c0,3.1-3.2,5.9-7.3,9.1h7.3v1.1H112z M124.4,15.2v-1c4.8-3.8,7.9-6.6,7.9-9.3
		c0-2-1.7-2.8-3.2-2.8c-1.7,0-3.1,0.8-3.8,1.8l-0.8-0.8c1-1.3,2.7-2.2,4.6-2.2c2.1,0,4.4,1.2,4.4,3.9c0,3.1-3.2,5.9-7.3,9.1h7.3v1.1
		H124.4z M136.6,17.3c0.7-0.5,1.2-1.3,1.2-1.9l-0.2,0c-0.5,0-0.9-0.4-0.9-0.9c0-0.5,0.4-0.9,0.9-0.9c0.6,0,1.1,0.5,1.1,1.3
		c0,1.2-0.7,2.3-1.5,2.9L136.6,17.3z M146.2,1c1.8,0,3,0.7,3.8,1.8l-0.7,0.9c-0.7-0.9-1.5-1.6-3.1-1.6c-3,0-4.1,3.2-4.1,6.1
		c0,0.2,0,0.4,0,0.6c0.6-1,2.2-2.3,4.1-2.3c2.5,0,4.5,1.4,4.5,4.4c0,2.3-1.7,4.5-4.7,4.5c-3.8,0-5.1-3.5-5.1-7.2
		C140.9,4.7,142.4,1,146.2,1z M146,7.7c-1.5,0-3,1-3.8,2.4c0.2,1.9,1.2,4.3,3.8,4.3c2.4,0,3.5-1.8,3.5-3.3
		C149.5,8.8,148,7.7,146,7.7z M153.2,15.2v-1c4.8-3.8,7.9-6.6,7.9-9.3c0-2-1.7-2.8-3.2-2.8c-1.7,0-3.1,0.8-3.8,1.8l-0.8-0.8
		c1-1.3,2.7-2.2,4.6-2.2c2.1,0,4.4,1.2,4.4,3.9c0,3.1-3.2,5.9-7.3,9.1h7.3v1.1H153.2z M166.8,12.8c0.7,0.9,1.5,1.5,3.1,1.5
		c3.1,0,4.1-3.2,4.1-6.1c0-0.2,0-0.4,0-0.6c-0.6,1-2.2,2.3-4.1,2.3c-2.5,0-4.5-1.5-4.5-4.4c0-2.3,1.7-4.5,4.7-4.5
		c3.8,0,5.1,3.5,5.1,7.2c0,3.6-1.5,7.2-5.3,7.2c-1.8,0-2.9-0.7-3.8-1.8L166.8,12.8z M170.2,2.1c-2.4,0-3.5,1.8-3.5,3.3
		c0,2.3,1.5,3.4,3.5,3.4c1.5,0,3-1,3.8-2.4C173.8,4.5,172.8,2.1,170.2,2.1z"/>
	<defs>
		
			<filter id="Adobe_OpacityMaskFilter_00000075156127125029217130000012801953685945242760_" filterUnits="userSpaceOnUse" x="133.9" y="76.8" width="20.1" height="166.4">
			<feColorMatrix  type="matrix" values="1 0 0 0 0  0 1 0 0 0  0 0 1 0 0  0 0 0 1 0"/>
		</filter>
	</defs>
	
		<mask maskUnits="userSpaceOnUse" x="133.9" y="76.8" width="20.1" height="166.4" id="SVGID_00000134224786992173143390000012669606594528348855_">
		<g style="filter:url(#Adobe_OpacityMaskFilter_00000075156127125029217130000012801953685945242760_);">
			
				<linearGradient id="SVGID_00000075145858996335875820000000897807515906162050_" gradientUnits="userSpaceOnUse" x1="-73.4926" y1="575.4631" x2="-72.1871" y2="575.4631" gradientTransform="matrix(-2.000000e-15 35.2291 35.2291 2.000000e-15 -20312.9609 2785.1287)">
				<stop  offset="0" style="stop-color:#FFFFFF"/>
				<stop  offset="1" style="stop-color:#000000"/>
			</linearGradient>
			
				<rect x="-1164.2" y="-446.2" style="fill:url(#SVGID_00000075145858996335875820000000897807515906162050_);" width="2248.6" height="799.3"/>
		</g>
	</mask>
	<g style="mask:url(#SVGID_00000134224786992173143390000012669606594528348855_);">
		<g>
			<defs>
				<rect id="SVGID_00000163783369501301500370000016688674932999758769_" x="133.9" y="76.8" width="20.1" height="166.4"/>
			</defs>
			<clipPath id="SVGID_00000023994401886531839780000017713654018705503633_">
				<use xlink:href="#SVGID_00000163783369501301500370000016688674932999758769_"  style="overflow:visible;"/>
			</clipPath>
			
				<rect x="136.5" y="78.1" style="clip-path:url(#SVGID_00000023994401886531839780000017713654018705503633_);fill:#939598;" width="14.8" height="163.8"/>
		</g>
	</g>
	<line class="st5" x1="143.9" y1="242.1" x2="143.9" y2="34.2"/>
</g>
<path d="M213.1,269.8v-0.9c4.5-3.6,7.4-6.2,7.4-8.7c0-1.9-1.6-2.7-3-2.7c-1.6,0-2.9,0.7-3.6,1.7l-0.8-0.7c0.9-1.3,2.5-2,4.4-2
	c1.9,0,4.1,1.1,4.1,3.7c0,2.9-3,5.5-6.8,8.6h6.9v1H213.1z M229.2,256.4c3.5,0,4.8,3.6,4.8,6.8c0,3.1-1.3,6.8-4.8,6.8
	c-3.5,0-4.9-3.7-4.9-6.8C224.4,260.1,225.7,256.4,229.2,256.4z M229.2,257.5c-2.8,0-3.7,3-3.7,5.7c0,2.7,0.9,5.8,3.7,5.8
	c2.8,0,3.7-3.1,3.7-5.8C232.9,260.5,232,257.5,229.2,257.5z M241,269.8v-11.6l-3.1,3.3l-0.7-0.7l3.9-4.1h1v13.1H241z M247.8,267.5
	c0.6,0.8,1.5,1.5,2.9,1.5c2.9,0,3.9-3,3.9-5.8c0-0.2,0-0.4,0-0.6c-0.6,0.9-2.1,2.2-3.8,2.2c-2.4,0-4.2-1.4-4.2-4.2
	c0-2.1,1.6-4.2,4.4-4.2c3.5,0,4.8,3.3,4.8,6.8c0,3.4-1.4,6.8-5,6.8c-1.7,0-2.8-0.7-3.5-1.7L247.8,267.5z M251,257.5
	c-2.2,0-3.3,1.7-3.3,3.1c0,2.1,1.4,3.2,3.3,3.2c1.4,0,2.8-0.9,3.6-2.2C254.4,259.7,253.4,257.5,251,257.5z M258.4,265.5v-0.9h4.7
	v0.9H258.4z M264.6,269.8v-0.9c4.5-3.6,7.4-6.2,7.4-8.7c0-1.9-1.6-2.7-3-2.7c-1.6,0-2.9,0.7-3.6,1.7l-0.8-0.7c0.9-1.3,2.5-2,4.4-2
	c1.9,0,4.1,1.1,4.1,3.7c0,2.9-3,5.5-6.8,8.6h6.9v1H264.6z M280.8,256.4c3.5,0,4.8,3.6,4.8,6.8c0,3.1-1.3,6.8-4.8,6.8
	c-3.5,0-4.9-3.7-4.9-6.8C275.9,260.1,277.2,256.4,280.8,256.4z M280.8,257.5c-2.8,0-3.7,3-3.7,5.7c0,2.7,0.9,5.8,3.7,5.8
	s3.7-3.1,3.7-5.8C284.4,260.5,283.5,257.5,280.8,257.5z"/>
<g class="wow performance-bar three">
	<path class="st6" d="M225.1,15.2V2.9l-3.3,3.5L221,5.7l4.2-4.4h1.1v14H225.1z M234.6,8c-1.7-0.4-3.2-1.5-3.2-3.4
		c0-2.5,2.3-3.6,4.5-3.6c2.2,0,4.5,1.1,4.5,3.6c0,1.9-1.6,2.9-3.2,3.4c1.8,0.5,3.5,1.8,3.5,3.7c0,2.3-2.1,3.7-4.7,3.7
		c-2.7,0-4.8-1.5-4.8-3.7C231.1,9.8,232.8,8.5,234.6,8z M235.9,8.6c-0.9,0.1-3.5,0.9-3.5,3.1c0,1.7,1.7,2.7,3.5,2.7
		c1.8,0,3.5-1,3.5-2.7C239.4,9.5,236.7,8.7,235.9,8.6z M235.9,2.1c-1.8,0-3.3,1-3.3,2.6c0,1.9,2.5,2.6,3.3,2.7
		c0.9-0.2,3.3-0.8,3.3-2.7C239.2,3.1,237.7,2.1,235.9,2.1z M243.2,17.3c0.7-0.5,1.2-1.3,1.2-1.9l-0.2,0c-0.5,0-0.9-0.4-0.9-0.9
		c0-0.5,0.4-0.9,0.9-0.9c0.6,0,1.1,0.5,1.1,1.3c0,1.2-0.7,2.3-1.5,2.9L243.2,17.3z M248.9,12.4c0.9,1.3,2.1,2,3.9,2
		c2,0,3.5-1.5,3.5-3.4c0-2.1-1.5-3.4-3.5-3.4c-1.3,0-2.4,0.4-3.4,1.4l-0.9-0.4V1.3h8.1v1.1h-6.9v5.5c0.7-0.7,1.9-1.3,3.3-1.3
		c2.3,0,4.4,1.5,4.4,4.5c0,2.8-2.1,4.5-4.7,4.5c-2.3,0-3.8-0.9-4.7-2.3L248.9,12.4z M265.7,1c1.8,0,3,0.7,3.8,1.8l-0.7,0.9
		c-0.7-0.9-1.5-1.6-3.1-1.6c-3,0-4.1,3.2-4.1,6.1c0,0.2,0,0.4,0,0.6c0.6-1,2.2-2.3,4.1-2.3c2.5,0,4.5,1.4,4.5,4.4
		c0,2.3-1.7,4.5-4.7,4.5c-3.8,0-5.1-3.5-5.1-7.2C260.4,4.7,261.9,1,265.7,1z M265.5,7.7c-1.5,0-3,1-3.8,2.4c0.2,1.9,1.2,4.3,3.8,4.3
		c2.4,0,3.5-1.8,3.5-3.3C269,8.8,267.5,7.7,265.5,7.7z M276.5,15.2V2.9l-3.3,3.5l-0.8-0.8l4.2-4.4h1.1v14H276.5z"/>
	<defs>
		
			<filter id="Adobe_OpacityMaskFilter_00000052089187574391696750000011296048206903189175_" filterUnits="userSpaceOnUse" x="240.7" y="102.8" width="20.1" height="140.4">
			<feColorMatrix  type="matrix" values="1 0 0 0 0  0 1 0 0 0  0 0 1 0 0  0 0 0 1 0"/>
		</filter>
	</defs>
	
		<mask maskUnits="userSpaceOnUse" x="240.7" y="102.8" width="20.1" height="140.4" id="SVGID_00000174575588104974660220000001596457472300331173_">
		<g style="filter:url(#Adobe_OpacityMaskFilter_00000052089187574391696750000011296048206903189175_);">
			
				<linearGradient id="SVGID_00000057843927742405401970000017830449689863885501_" gradientUnits="userSpaceOnUse" x1="-73.9822" y1="576.7835" x2="-72.6768" y2="576.7835" gradientTransform="matrix(-2.000000e-15 26.348 26.348 2.000000e-15 -15166.6484 2156.9028)">
				<stop  offset="0" style="stop-color:#FFFFFF"/>
				<stop  offset="1" style="stop-color:#000000"/>
			</linearGradient>
			
				<rect x="-1093.8" y="-446.2" style="fill:url(#SVGID_00000057843927742405401970000017830449689863885501_);" width="2248.6" height="799.3"/>
		</g>
	</mask>
	<g style="mask:url(#SVGID_00000174575588104974660220000001596457472300331173_);">
		<g>
			<defs>
				<rect id="SVGID_00000005953382086449926440000002918258854175586994_" x="240.7" y="102.8" width="20.1" height="140.4"/>
			</defs>
			<clipPath id="SVGID_00000127741323334346284100000006733366746251781263_">
				<use xlink:href="#SVGID_00000005953382086449926440000002918258854175586994_"  style="overflow:visible;"/>
			</clipPath>
			
				<rect x="243.3" y="104.1" style="clip-path:url(#SVGID_00000127741323334346284100000006733366746251781263_);fill:#939598;" width="14.8" height="137.8"/>
		</g>
	</g>
	<line class="st5" x1="250.7" y1="242.1" x2="250.7" y2="34.2"/>
</g>
<path d="M319.8,269.6v-0.9c4.5-3.6,7.4-6.2,7.4-8.7c0-1.9-1.6-2.7-3-2.7c-1.6,0-2.9,0.7-3.6,1.7l-0.8-0.7c0.9-1.3,2.5-2,4.4-2
	c1.9,0,4.1,1.1,4.1,3.7c0,2.9-3,5.5-6.8,8.6h6.9v1H319.8z M336,256.3c3.5,0,4.8,3.6,4.8,6.8c0,3.1-1.3,6.8-4.8,6.8
	c-3.5,0-4.9-3.7-4.9-6.8C331.1,260,332.5,256.3,336,256.3z M336,257.4c-2.8,0-3.7,3-3.7,5.7c0,2.7,0.9,5.8,3.7,5.8
	c2.8,0,3.7-3.1,3.7-5.8C339.6,260.4,338.8,257.4,336,257.4z M347.7,269.6v-11.6l-3.1,3.3l-0.7-0.7l3.9-4.1h1v13.1H347.7z
	 M356.8,262.9c-1.6-0.4-3-1.4-3-3.2c0-2.3,2.2-3.4,4.2-3.4c2,0,4.2,1.1,4.2,3.4c0,1.7-1.5,2.8-3,3.2c1.7,0.5,3.2,1.7,3.2,3.5
	c0,2.1-1.9,3.5-4.4,3.5c-2.5,0-4.5-1.4-4.5-3.5C353.5,264.5,355.1,263.3,356.8,262.9z M358,263.4c-0.8,0.1-3.3,0.9-3.3,2.9
	c0,1.6,1.6,2.6,3.3,2.6c1.7,0,3.3-1,3.3-2.6C361.3,264.3,358.8,263.5,358,263.4z M358,257.4c-1.7,0-3.1,0.9-3.1,2.5
	c0,1.8,2.3,2.4,3.1,2.6c0.8-0.2,3.1-0.7,3.1-2.6C361.1,258.3,359.7,257.4,358,257.4z M365,265.4v-0.9h4.7v0.9H365z M375.6,269.6
	v-11.6l-3.1,3.3l-0.7-0.7l3.9-4.1h1v13.1H375.6z M382.4,267.4c0.6,0.8,1.5,1.5,2.9,1.5c2.9,0,3.9-3,3.9-5.8c0-0.2,0-0.4,0-0.6
	c-0.6,0.9-2.1,2.2-3.8,2.2c-2.4,0-4.2-1.4-4.2-4.2c0-2.1,1.6-4.2,4.4-4.2c3.5,0,4.8,3.3,4.8,6.8c0,3.4-1.4,6.8-5,6.8
	c-1.7,0-2.8-0.7-3.5-1.7L382.4,267.4z M385.5,257.3c-2.2,0-3.3,1.7-3.3,3.1c0,2.1,1.4,3.2,3.3,3.2c1.4,0,2.8-0.9,3.6-2.2
	C388.9,259.6,388,257.3,385.5,257.3z"/>
<g class="wow performance-bar four">
	<path class="st6" d="M326.6,15.2v-1c4.8-3.8,7.9-6.6,7.9-9.3c0-2-1.7-2.8-3.2-2.8c-1.7,0-3.1,0.8-3.8,1.8l-0.8-0.8
		c1-1.3,2.7-2.2,4.6-2.2c2.1,0,4.4,1.2,4.4,3.9c0,3.1-3.2,5.9-7.3,9.1h7.3v1.1H326.6z M343.5,15.2V2.9l-3.3,3.5l-0.8-0.8l4.2-4.4
		h1.1v14H343.5z M349.5,17.3c0.7-0.5,1.2-1.3,1.2-1.9l-0.2,0c-0.5,0-0.9-0.4-0.9-0.9c0-0.5,0.4-0.9,0.9-0.9c0.6,0,1.1,0.5,1.1,1.3
		c0,1.2-0.7,2.3-1.5,2.9L349.5,17.3z M357.5,15.2V2.9l-3.3,3.5l-0.8-0.8l4.2-4.4h1.1v14H357.5z M368,15.2V2.9l-3.3,3.5L364,5.7
		l4.2-4.4h1.1v14H368z M377.6,8c-1.7-0.4-3.2-1.5-3.2-3.4c0-2.5,2.3-3.6,4.5-3.6c2.2,0,4.5,1.1,4.5,3.6c0,1.9-1.6,2.9-3.2,3.4
		c1.8,0.5,3.5,1.8,3.5,3.7c0,2.3-2.1,3.7-4.7,3.7c-2.7,0-4.8-1.5-4.8-3.7C374.1,9.8,375.8,8.5,377.6,8z M378.8,8.6
		c-0.9,0.1-3.5,0.9-3.5,3.1c0,1.7,1.7,2.7,3.5,2.7c1.8,0,3.5-1,3.5-2.7C382.4,9.5,379.7,8.7,378.8,8.6z M378.8,2.1
		c-1.8,0-3.3,1-3.3,2.6c0,1.9,2.5,2.6,3.3,2.7c0.9-0.2,3.3-0.8,3.3-2.7C382.1,3.1,380.7,2.1,378.8,2.1z"/>
	<defs>
		
			<filter id="Adobe_OpacityMaskFilter_00000100371326890732989960000010976684525266420393_" filterUnits="userSpaceOnUse" x="344.8" y="83.1" width="20.1" height="157.9">
			<feColorMatrix  type="matrix" values="1 0 0 0 0  0 1 0 0 0  0 0 1 0 0  0 0 0 1 0"/>
		</filter>
	</defs>
	
		<mask maskUnits="userSpaceOnUse" x="344.8" y="83.1" width="20.1" height="157.9" id="SVGID_00000054969078705783714720000003148736037266272408_">
		<g style="filter:url(#Adobe_OpacityMaskFilter_00000100371326890732989960000010976684525266420393_);">
			
				<linearGradient id="SVGID_00000140015640848403154340000012779504647114192792_" gradientUnits="userSpaceOnUse" x1="-73.8797" y1="579.3423" x2="-72.5742" y2="579.3423" gradientTransform="matrix(-2.000000e-15 29.0597 29.0597 2.000000e-15 -16737.9844 2348.7205)">
				<stop  offset="0" style="stop-color:#FFFFFF"/>
				<stop  offset="1" style="stop-color:#000000"/>
			</linearGradient>
			
				<rect x="-1026.7" y="-448.5" style="fill:url(#SVGID_00000140015640848403154340000012779504647114192792_);" width="2248.6" height="799.3"/>
		</g>
	</mask>
	<g style="mask:url(#SVGID_00000054969078705783714720000003148736037266272408_);">
		<g>
			<defs>
				<rect id="SVGID_00000003086938203312184230000005447221941812016818_" x="344.8" y="83.1" width="20.1" height="157.9"/>
			</defs>
			<clipPath id="SVGID_00000011735653171562066160000009768122713384788100_">
				<use xlink:href="#SVGID_00000003086938203312184230000005447221941812016818_"  style="overflow:visible;"/>
			</clipPath>
			
				<rect x="347.4" y="84.4" style="clip-path:url(#SVGID_00000011735653171562066160000009768122713384788100_);fill:#939598;" width="14.8" height="155.2"/>
		</g>
	</g>
	<line class="st5" x1="354.9" y1="239.8" x2="354.9" y2="31.9"/>
</g>
<path d="M426.4,269.9v-0.9c4.5-3.6,7.4-6.2,7.4-8.7c0-1.9-1.6-2.7-3-2.7c-1.6,0-2.9,0.7-3.6,1.7l-0.8-0.7c0.9-1.3,2.5-2,4.4-2
	c1.9,0,4.1,1.1,4.1,3.7c0,2.9-3,5.5-6.8,8.6h6.9v1H426.4z M442.6,256.5c3.5,0,4.8,3.6,4.8,6.8c0,3.1-1.3,6.8-4.8,6.8
	c-3.5,0-4.9-3.7-4.9-6.8C437.7,260.2,439.1,256.5,442.6,256.5z M442.6,257.6c-2.8,0-3.7,3-3.7,5.7c0,2.7,0.9,5.8,3.7,5.8
	s3.7-3.1,3.7-5.8C446.2,260.6,445.4,257.6,442.6,257.6z M454.3,269.9v-11.6l-3.1,3.3l-0.7-0.7l3.9-4.1h1v13.1H454.3z M461.7,269.9
	l5.5-12.1H460v-1h8.6v0.8l-5.6,12.3H461.7z M469.9,265.6v-0.9h4.7v0.9H469.9z M480.5,269.9v-11.6l-3.1,3.3l-0.7-0.7l3.9-4.1h1v13.1
	H480.5z M489.5,263.1c-1.6-0.4-3-1.4-3-3.2c0-2.3,2.2-3.4,4.2-3.4c2,0,4.2,1.1,4.2,3.4c0,1.7-1.5,2.8-3,3.2c1.7,0.5,3.2,1.7,3.2,3.5
	c0,2.1-1.9,3.5-4.4,3.5c-2.5,0-4.5-1.4-4.5-3.5C486.3,264.7,487.9,263.5,489.5,263.1z M490.7,263.6c-0.8,0.1-3.3,0.9-3.3,2.9
	c0,1.6,1.6,2.6,3.3,2.6c1.7,0,3.3-1,3.3-2.6C494.1,264.5,491.5,263.7,490.7,263.6z M490.7,257.6c-1.7,0-3.1,0.9-3.1,2.5
	c0,1.8,2.3,2.4,3.1,2.6c0.8-0.2,3.1-0.7,3.1-2.6C493.8,258.5,492.5,257.6,490.7,257.6z"/>
<g class="wow performance-bar five">
	<path class="st6" d="M429.2,15.2v-1c4.8-3.8,7.9-6.6,7.9-9.3c0-2-1.7-2.8-3.2-2.8c-1.7,0-3.1,0.8-3.8,1.8l-0.8-0.8
		c1-1.3,2.7-2.2,4.6-2.2c2.1,0,4.4,1.2,4.4,3.9c0,3.1-3.2,5.9-7.3,9.1h7.3v1.1H429.2z M441.6,15.2v-1c4.8-3.8,7.9-6.6,7.9-9.3
		c0-2-1.7-2.8-3.2-2.8c-1.7,0-3.1,0.8-3.8,1.8l-0.8-0.8c1-1.3,2.7-2.2,4.6-2.2c2.1,0,4.4,1.2,4.4,3.9c0,3.1-3.2,5.9-7.3,9.1h7.3v1.1
		H441.6z M453.8,17.3c0.7-0.5,1.2-1.3,1.2-1.9l-0.2,0c-0.5,0-0.9-0.4-0.9-0.9c0-0.5,0.4-0.9,0.9-0.9c0.6,0,1.1,0.5,1.1,1.3
		c0,1.2-0.7,2.3-1.5,2.9L453.8,17.3z M463.1,1c3.7,0,5.1,3.9,5.1,7.2c0,3.3-1.4,7.2-5.1,7.2c-3.7,0-5.2-3.9-5.2-7.2
		C457.9,4.9,459.3,1,463.1,1z M463.1,2.1c-2.9,0-3.9,3.2-3.9,6.1c0,2.9,1,6.1,3.9,6.1s3.9-3.3,3.9-6.1C467,5.4,466,2.1,463.1,2.1z
		 M474.3,8c-1.7-0.4-3.2-1.5-3.2-3.4c0-2.5,2.3-3.6,4.5-3.6c2.2,0,4.5,1.1,4.5,3.6c0,1.9-1.6,2.9-3.2,3.4c1.8,0.5,3.5,1.8,3.5,3.7
		c0,2.3-2.1,3.7-4.7,3.7c-2.7,0-4.8-1.5-4.8-3.7C470.9,9.8,472.6,8.5,474.3,8z M475.6,8.6c-0.9,0.1-3.5,0.9-3.5,3.1
		c0,1.7,1.7,2.7,3.5,2.7c1.8,0,3.5-1,3.5-2.7C479.2,9.5,476.5,8.7,475.6,8.6z M475.6,2.1c-1.8,0-3.3,1-3.3,2.6
		c0,1.9,2.5,2.6,3.3,2.7c0.9-0.2,3.3-0.8,3.3-2.7C478.9,3.1,477.4,2.1,475.6,2.1z M483.2,15.2v-1c4.8-3.8,7.9-6.6,7.9-9.3
		c0-2-1.7-2.8-3.2-2.8c-1.7,0-3.1,0.8-3.8,1.8l-0.8-0.8c1-1.3,2.7-2.2,4.6-2.2c2.1,0,4.4,1.2,4.4,3.9c0,3.1-3.2,5.9-7.3,9.1h7.3v1.1
		H483.2z"/>
	<defs>
		
			<filter id="Adobe_OpacityMaskFilter_00000011018833480395596670000011757075519743785089_" filterUnits="userSpaceOnUse" x="452.2" y="76.6" width="20.1" height="163.1">
			<feColorMatrix  type="matrix" values="1 0 0 0 0  0 1 0 0 0  0 0 1 0 0  0 0 0 1 0"/>
		</filter>
	</defs>
	
		<mask maskUnits="userSpaceOnUse" x="452.2" y="76.6" width="20.1" height="163.1" id="SVGID_00000089565179673900478260000010319136349839719102_">
		<g style="filter:url(#Adobe_OpacityMaskFilter_00000011018833480395596670000011757075519743785089_);">
			
				<linearGradient id="SVGID_00000170971565419380130480000004987538547483686581_" gradientUnits="userSpaceOnUse" x1="-73.5332" y1="581.2891" x2="-72.2278" y2="581.2891" gradientTransform="matrix(-2.000000e-15 36.5985 36.5985 2.000000e-15 -21106.4648 2881.9939)">
				<stop  offset="0" style="stop-color:#FFFFFF"/>
				<stop  offset="1" style="stop-color:#000000"/>
			</linearGradient>
			
				<rect x="-956.4" y="-449.7" style="fill:url(#SVGID_00000170971565419380130480000004987538547483686581_);" width="2248.6" height="799.3"/>
		</g>
	</mask>
	<g style="mask:url(#SVGID_00000089565179673900478260000010319136349839719102_);">
		<g>
			<defs>
				<rect id="SVGID_00000123425790038872115830000004948873881863726477_" x="452.2" y="76.6" width="20.1" height="163.1"/>
			</defs>
			<clipPath id="SVGID_00000163787896226759605910000015766848863648954521_">
				<use xlink:href="#SVGID_00000123425790038872115830000004948873881863726477_"  style="overflow:visible;"/>
			</clipPath>
			
				<rect x="454.8" y="77.9" style="clip-path:url(#SVGID_00000163787896226759605910000015766848863648954521_);fill:#939598;" width="14.8" height="160.5"/>
		</g>
	</g>
	<line class="st5" x1="462.2" y1="238.6" x2="462.2" y2="30.7"/>
</g>
</svg>
