<?xml version="1.0" encoding="utf-8"?>
<!-- Generator: Adobe Illustrator 26.4.0, SVG Export Plug-In . SVG Version: 6.00 Build 0)  -->
<svg version="1.1" id="graph2" xmlns="http://www.w3.org/2000/svg" xmlns:xlink="http://www.w3.org/1999/xlink" x="0px" y="0px"
	 viewBox="0 0 496.5 270.9" style="enable-background:new 0 0 496.5 270.9;" xml:space="preserve">
<style type="text/css">
	#graph2 .st0{fill:#0069AA;}
	#graph2 .st1{filter:url(#Adobe_OpacityMaskFilter);}
	#graph2 .st2{fill:url(#SVGID_00000121994075561043481960000018106841573254580665_);}
	#graph2 .st3{mask:url(#SVGID_1_);}
	#graph2 .st4{clip-path:url(#SVGID_00000149352231816400768900000013206043414773694862_);fill:#0069AA;}
	#graph2 .st5{fill:none;stroke:#FFFFFF;}
	#graph2 .st6{fill:#4D4D4F;}
	#graph2 .st7{filter:url(#Adobe_OpacityMaskFilter_00000071558476509549668300000008534377853741106342_);}
	#graph2 .st8{fill:url(#SVGID_00000173844363242105161100000002889860950745206674_);}
	#graph2 .st9{mask:url(#SVGID_00000042729248070377691970000006577530464173014948_);}
	#graph2 .st10{clip-path:url(#SVGID_00000131351793409138507310000003486506070454866589_);fill:#939598;}
	#graph2 .st11{filter:url(#Adobe_OpacityMaskFilter_00000152254105856357758620000012081455380977931160_);}
	#graph2 .st12{fill:url(#SVGID_00000003075653690194673120000007395486906617793933_);}
	#graph2 .st13{mask:url(#SVGID_00000009565407639717971350000001058415134029700240_);}
	#graph2 .st14{clip-path:url(#SVGID_00000148662073131327388960000008613740353691147919_);fill:#939598;}
	#graph2 .st15{filter:url(#Adobe_OpacityMaskFilter_00000026157094332058473310000016731542048217420703_);}
	#graph2 .st16{fill:url(#SVGID_00000012453878153041207270000010449511194177321651_);}
	#graph2 .st17{mask:url(#SVGID_00000165195246333122174060000003531603791139690168_);}
	#graph2 .st18{clip-path:url(#SVGID_00000131340942515825662140000001108452635283439023_);fill:#939598;}
	#graph2 .st19{filter:url(#Adobe_OpacityMaskFilter_00000011738804210491767640000001490378417387449260_);}
	#graph2 .st20{fill:url(#SVGID_00000149382390461440373040000006466189497310116283_);}
	#graph2 .st21{mask:url(#SVGID_00000046299514605781410900000013664156481105798580_);}
	#graph2 .st22{clip-path:url(#SVGID_00000013189245894878183360000004397673616602130091_);fill:#939598;}
</style>
<path class="st0" d="M1.4,270v-1.6c4.9-3.8,7.2-5.7,7.2-7.8c0-1.5-1.3-2.2-2.6-2.2c-1.6,0-2.8,0.6-3.6,1.6l-1.2-1.3
	c1.1-1.4,2.9-2.1,4.7-2.1c2.4,0,4.6,1.3,4.6,4c0,2.6-2.5,4.9-6.1,7.6h6.1v1.7H1.4z M18,256.7c3.6,0,5.1,3.5,5.1,6.8
	s-1.5,6.8-5.1,6.8c-3.6,0-5.1-3.5-5.1-6.8S14.4,256.7,18,256.7z M18,258.4c-2.3,0-3.1,2.5-3.1,5s0.8,5,3.1,5c2.3,0,3.1-2.5,3.1-5
	S20.4,258.4,18,258.4z M25.1,270v-1.6c4.9-3.8,7.2-5.7,7.2-7.8c0-1.5-1.3-2.2-2.6-2.2c-1.6,0-2.8,0.6-3.6,1.6l-1.2-1.3
	c1.1-1.4,2.9-2.1,4.7-2.1c2.4,0,4.6,1.3,4.6,4c0,2.6-2.5,4.9-6.1,7.6h6.1v1.7H25.1z M40.9,270v-10.5l-2.4,2.5l-1.2-1.2l3.8-3.9h1.7
	V270H40.9z M47.1,266v-1.5h4.7v1.5H47.1z M53.3,270v-1.6c4.9-3.8,7.2-5.7,7.2-7.8c0-1.5-1.3-2.2-2.6-2.2c-1.6,0-2.8,0.6-3.6,1.6
	l-1.2-1.3c1.1-1.4,2.9-2.1,4.7-2.1c2.4,0,4.6,1.3,4.6,4c0,2.6-2.5,4.9-6.1,7.6h6.1v1.7H53.3z M65.2,270v-1.6
	c4.9-3.8,7.2-5.7,7.2-7.8c0-1.5-1.3-2.2-2.6-2.2c-1.6,0-2.8,0.6-3.6,1.6l-1.2-1.3c1.1-1.4,2.9-2.1,4.7-2.1c2.4,0,4.6,1.3,4.6,4
	c0,2.6-2.5,4.9-6.1,7.6h6.1v1.7H65.2z"/>
<path d="M108.6,269.9v-0.9c4.5-3.6,7.4-6.2,7.4-8.7c0-1.9-1.6-2.7-3-2.7c-1.6,0-2.9,0.7-3.6,1.7l-0.8-0.7c0.9-1.3,2.5-2,4.4-2
	c1.9,0,4.1,1.1,4.1,3.7c0,2.9-3,5.5-6.8,8.6h6.9v1H108.6z M124.8,256.5c3.5,0,4.8,3.6,4.8,6.8c0,3.1-1.3,6.8-4.8,6.8
	c-3.5,0-4.9-3.7-4.9-6.8C119.9,260.2,121.3,256.5,124.8,256.5z M124.8,257.6c-2.8,0-3.7,3-3.7,5.7c0,2.7,0.9,5.8,3.7,5.8
	c2.8,0,3.7-3.1,3.7-5.8C128.4,260.6,127.6,257.6,124.8,257.6z M131.8,269.9v-0.9c4.5-3.6,7.4-6.2,7.4-8.7c0-1.9-1.6-2.7-3-2.7
	c-1.6,0-2.9,0.7-3.6,1.7l-0.8-0.7c0.9-1.3,2.5-2,4.4-2c1.9,0,4.1,1.1,4.1,3.7c0,2.9-3,5.5-6.8,8.6h6.9v1H131.8z M147.9,256.5
	c3.5,0,4.8,3.6,4.8,6.8c0,3.1-1.3,6.8-4.8,6.8s-4.9-3.7-4.9-6.8C143.1,260.2,144.4,256.5,147.9,256.5z M147.9,257.6
	c-2.8,0-3.7,3-3.7,5.7c0,2.7,0.9,5.8,3.7,5.8s3.7-3.1,3.7-5.8C151.6,260.6,150.7,257.6,147.9,257.6z M155.3,265.6v-0.9h4.7v0.9
	H155.3z M161.5,269.9v-0.9c4.5-3.6,7.4-6.2,7.4-8.7c0-1.9-1.6-2.7-3-2.7c-1.6,0-2.9,0.7-3.6,1.7l-0.8-0.7c0.9-1.3,2.5-2,4.4-2
	c1.9,0,4.1,1.1,4.1,3.7c0,2.9-3,5.5-6.8,8.6h6.9v1H161.5z M177.4,269.9v-11.6l-3.1,3.3l-0.7-0.7l3.9-4.1h1v13.1H177.4z"/>
<path d="M213.1,269.8v-0.9c4.5-3.6,7.4-6.2,7.4-8.7c0-1.9-1.6-2.7-3-2.7c-1.6,0-2.9,0.7-3.6,1.7l-0.8-0.7c0.9-1.3,2.5-2,4.4-2
	c1.9,0,4.1,1.1,4.1,3.7c0,2.9-3,5.5-6.8,8.6h6.9v1H213.1z M229.2,256.4c3.5,0,4.8,3.6,4.8,6.8c0,3.1-1.3,6.8-4.8,6.8
	s-4.9-3.7-4.9-6.8C224.4,260.1,225.7,256.4,229.2,256.4z M229.2,257.5c-2.8,0-3.7,3-3.7,5.7c0,2.7,0.9,5.8,3.7,5.8s3.7-3.1,3.7-5.8
	C232.9,260.5,232,257.5,229.2,257.5z M241,269.8v-11.6l-3.1,3.3l-0.7-0.7l3.9-4.1h1v13.1H241z M247.8,267.5c0.6,0.8,1.5,1.5,2.9,1.5
	c2.9,0,3.9-3,3.9-5.8c0-0.2,0-0.4,0-0.6c-0.6,0.9-2.1,2.2-3.8,2.2c-2.4,0-4.2-1.4-4.2-4.2c0-2.1,1.6-4.2,4.4-4.2
	c3.5,0,4.8,3.3,4.8,6.8c0,3.4-1.4,6.8-5,6.8c-1.7,0-2.8-0.7-3.5-1.7L247.8,267.5z M251,257.5c-2.2,0-3.3,1.7-3.3,3.1
	c0,2.1,1.4,3.2,3.3,3.2c1.4,0,2.8-0.9,3.6-2.2C254.4,259.7,253.4,257.5,251,257.5z M258.4,265.5v-0.9h4.7v0.9H258.4z M264.6,269.8
	v-0.9c4.5-3.6,7.4-6.2,7.4-8.7c0-1.9-1.6-2.7-3-2.7c-1.6,0-2.9,0.7-3.6,1.7l-0.8-0.7c0.9-1.3,2.5-2,4.4-2c1.9,0,4.1,1.1,4.1,3.7
	c0,2.9-3,5.5-6.8,8.6h6.9v1H264.6z M280.8,256.4c3.5,0,4.8,3.6,4.8,6.8c0,3.1-1.3,6.8-4.8,6.8c-3.5,0-4.9-3.7-4.9-6.8
	C275.9,260.1,277.2,256.4,280.8,256.4z M280.8,257.5c-2.8,0-3.7,3-3.7,5.7c0,2.7,0.9,5.8,3.7,5.8c2.8,0,3.7-3.1,3.7-5.8
	C284.4,260.5,283.5,257.5,280.8,257.5z"/>
<path d="M319.8,269.6v-0.9c4.5-3.6,7.4-6.2,7.4-8.7c0-1.9-1.6-2.7-3-2.7c-1.6,0-2.9,0.7-3.6,1.7l-0.8-0.7c0.9-1.3,2.5-2,4.4-2
	c1.9,0,4.1,1.1,4.1,3.7c0,2.9-3,5.5-6.8,8.6h6.9v1H319.8z M336,256.3c3.5,0,4.8,3.6,4.8,6.8c0,3.1-1.3,6.8-4.8,6.8
	c-3.5,0-4.9-3.7-4.9-6.8C331.1,260,332.5,256.3,336,256.3z M336,257.4c-2.8,0-3.7,3-3.7,5.7c0,2.7,0.9,5.8,3.7,5.8
	c2.8,0,3.7-3.1,3.7-5.8C339.6,260.4,338.8,257.4,336,257.4z M347.7,269.6v-11.6l-3.1,3.3l-0.7-0.7l3.9-4.1h1v13.1H347.7z
	 M356.8,262.9c-1.6-0.4-3-1.4-3-3.2c0-2.3,2.2-3.4,4.2-3.4c2,0,4.2,1.1,4.2,3.4c0,1.7-1.5,2.8-3,3.2c1.7,0.5,3.2,1.7,3.2,3.5
	c0,2.1-1.9,3.5-4.4,3.5c-2.5,0-4.5-1.4-4.5-3.5C353.5,264.5,355.1,263.3,356.8,262.9z M358,263.4c-0.8,0.1-3.3,0.9-3.3,2.9
	c0,1.6,1.6,2.6,3.3,2.6c1.7,0,3.3-1,3.3-2.6C361.3,264.3,358.8,263.5,358,263.4z M358,257.4c-1.7,0-3.1,0.9-3.1,2.5
	c0,1.8,2.3,2.4,3.1,2.6c0.8-0.2,3.1-0.7,3.1-2.6C361.1,258.3,359.7,257.4,358,257.4z M365,265.4v-0.9h4.7v0.9H365z M375.6,269.6
	v-11.6l-3.1,3.3l-0.7-0.7l3.9-4.1h1v13.1H375.6z M382.4,267.4c0.6,0.8,1.5,1.5,2.9,1.5c2.9,0,3.9-3,3.9-5.8c0-0.2,0-0.4,0-0.6
	c-0.6,0.9-2.1,2.2-3.8,2.2c-2.4,0-4.2-1.4-4.2-4.2c0-2.1,1.6-4.2,4.4-4.2c3.5,0,4.8,3.3,4.8,6.8c0,3.4-1.4,6.8-5,6.8
	c-1.7,0-2.8-0.7-3.5-1.7L382.4,267.4z M385.5,257.3c-2.2,0-3.3,1.7-3.3,3.1c0,2.1,1.4,3.2,3.3,3.2c1.4,0,2.8-0.9,3.6-2.2
	C388.9,259.6,388,257.3,385.5,257.3z"/>
<path d="M426.4,269.9v-0.9c4.5-3.6,7.4-6.2,7.4-8.7c0-1.9-1.6-2.7-3-2.7c-1.6,0-2.9,0.7-3.6,1.7l-0.8-0.7c0.9-1.3,2.5-2,4.4-2
	c1.9,0,4.1,1.1,4.1,3.7c0,2.9-3,5.5-6.8,8.6h6.9v1H426.4z M442.6,256.5c3.5,0,4.8,3.6,4.8,6.8c0,3.1-1.3,6.8-4.8,6.8
	s-4.9-3.7-4.9-6.8C437.7,260.2,439.1,256.5,442.6,256.5z M442.6,257.6c-2.8,0-3.7,3-3.7,5.7c0,2.7,0.9,5.8,3.7,5.8s3.7-3.1,3.7-5.8
	C446.2,260.6,445.4,257.6,442.6,257.6z M454.3,269.9v-11.6l-3.1,3.3l-0.7-0.7l3.9-4.1h1v13.1H454.3z M461.7,269.9l5.5-12.1H460v-1
	h8.6v0.8l-5.6,12.3H461.7z M469.9,265.6v-0.9h4.7v0.9H469.9z M480.5,269.9v-11.6l-3.1,3.3l-0.7-0.7l3.9-4.1h1v13.1H480.5z
	 M489.5,263.1c-1.6-0.4-3-1.4-3-3.2c0-2.3,2.2-3.4,4.2-3.4c2,0,4.2,1.1,4.2,3.4c0,1.7-1.5,2.8-3,3.2c1.7,0.5,3.2,1.7,3.2,3.5
	c0,2.1-1.9,3.5-4.4,3.5c-2.5,0-4.5-1.4-4.5-3.5C486.3,264.7,487.9,263.5,489.5,263.1z M490.7,263.6c-0.8,0.1-3.3,0.9-3.3,2.9
	c0,1.6,1.6,2.6,3.3,2.6c1.7,0,3.3-1,3.3-2.6C494.1,264.5,491.5,263.7,490.7,263.6z M490.7,257.6c-1.7,0-3.1,0.9-3.1,2.5
	c0,1.8,2.3,2.4,3.1,2.6c0.8-0.2,3.1-0.7,3.1-2.6C493.9,258.5,492.5,257.6,490.7,257.6z"/>
<g class="wow performance-bar one">
	<path class="st0" d="M8.6,14.9V4.8L6.3,7.2L4.6,5.4L9,1h2.6v14H8.6z M15.1,8c0-4.2,2.4-7.2,6.5-7.2c1.7,0,3.1,0.6,4.1,1.4l-1.3,2.3
		c-0.8-0.7-1.5-1.1-2.8-1.1c-2.1,0-3.5,1.7-3.5,4c0,0.1,0,0.2,0,0.3c0.6-0.9,2.1-1.8,3.6-1.8c2.5,0,4.8,1.6,4.8,4.5
		c0,2.7-2.2,4.8-5.4,4.8C16.9,15.2,15.1,11.9,15.1,8z M23.5,10.5c0-1.5-1.3-2.1-2.6-2.1c-1,0-2.1,0.5-2.7,1.3
		c0.1,1.3,0.9,2.8,2.8,2.8C22.6,12.5,23.5,11.4,23.5,10.5z M29.6,17.8l-1.2-0.9c0.7-0.4,1.4-1.2,1.6-2c-0.1,0-0.2,0.1-0.4,0.1
		c-0.8,0-1.4-0.6-1.4-1.5c0-0.9,0.8-1.7,1.7-1.7c1,0,1.9,0.8,1.9,2.1C31.8,15.5,30.9,16.9,29.6,17.8z M34.3,14.9v-2.3
		c5.7-4.2,7.4-5.7,7.4-7.4c0-1.2-1.1-1.8-2.3-1.8c-1.6,0-2.8,0.6-3.7,1.6L34,3c1.4-1.6,3.4-2.3,5.4-2.3c3,0,5.3,1.7,5.3,4.5
		c0,2.4-2,4.5-5.6,7.1h5.7v2.6H34.3z M46.8,11.3c0-1.7,1.3-3,3-3.6c-1.5-0.5-2.8-1.5-2.8-3.3c0-2.6,2.8-3.7,5.4-3.7
		c2.6,0,5.4,1,5.4,3.7c0,1.7-1.2,2.7-2.8,3.3c1.7,0.6,3,1.9,3,3.6c0,2.6-2.7,3.9-5.6,3.9S46.8,13.9,46.8,11.3z M55,10.9
		c0-1.2-1.7-1.7-2.6-1.8c-0.9,0.1-2.6,0.7-2.6,1.8c0,1,1.1,1.7,2.6,1.7C53.9,12.5,55,11.9,55,10.9z M54.8,4.9c0-1-1-1.5-2.3-1.5
		c-1.4,0-2.4,0.6-2.4,1.5c0,1,1.5,1.5,2.4,1.6C53.3,6.4,54.8,6,54.8,4.9z M60.6,13.7l1.3-2.3c0.8,0.7,1.5,1.1,2.8,1.1
		c2.3,0,3.5-1.9,3.5-3.9c0-0.1,0-0.2,0-0.3c-0.7,0.9-2.1,1.8-3.6,1.8c-2.5,0-4.8-1.6-4.8-4.5c0-2.7,2.2-4.8,5.3-4.8
		c4.2,0,6,3.3,6,7.2c0,4.2-2.4,7.2-6.5,7.2C63,15.2,61.6,14.6,60.6,13.7z M68.2,6.2c-0.1-1.3-0.9-2.8-2.8-2.8
		c-1.6,0-2.5,1.1-2.5,2.1c0,1.5,1.3,2.1,2.6,2.1C66.5,7.5,67.5,7,68.2,6.2z"/>
	<g>
		<defs>
			<filter id="Adobe_OpacityMaskFilter" filterUnits="userSpaceOnUse" x="27.1" y="31.1" width="20.1" height="210.6">
				<feColorMatrix  type="matrix" values="1 0 0 0 0  0 1 0 0 0  0 0 1 0 0  0 0 0 1 0"/>
			</filter>
		</defs>
		<mask maskUnits="userSpaceOnUse" x="27.1" y="31.1" width="20.1" height="210.6" id="SVGID_1_">
			<g class="st1">
				
					<linearGradient id="SVGID_00000031206428388217365320000003602589846973519289_" gradientUnits="userSpaceOnUse" x1="-72.0042" y1="553.3251" x2="-70.698" y2="553.3251" gradientTransform="matrix(-2.000000e-15 39.452 39.452 2.000000e-15 -22430.8828 3029.5928)">
					<stop  offset="0" style="stop-color:#FFFFFF"/>
					<stop  offset="1" style="stop-color:#000000"/>
				</linearGradient>
				
					<rect x="-1725.4" y="-448.9" style="fill:url(#SVGID_00000031206428388217365320000003602589846973519289_);" width="2248.6" height="799.8"/>
			</g>
		</mask>
		<g class="st3">
			<g>
				<defs>
					<rect id="SVGID_00000011724459636409520980000012192936242863508913_" x="27.1" y="31.1" width="20.1" height="210.6"/>
				</defs>
				<clipPath id="SVGID_00000139290714379347812790000004986213605609999282_">
					<use xlink:href="#SVGID_00000011724459636409520980000012192936242863508913_"  style="overflow:visible;"/>
				</clipPath>
				
					<rect x="29.7" y="32.4" style="clip-path:url(#SVGID_00000139290714379347812790000004986213605609999282_);fill:#0069AA;" width="14.8" height="208"/>
			</g>
		</g>
		<line class="st5" x1="37.1" y1="240.4" x2="37.1" y2="32.4"/>
	</g>
</g>
<g class="wow performance-bar two">
	<path class="st6" d="M118.2,14.9V2.6l-3.3,3.5l-0.8-0.8l4.2-4.4h1.1v14H118.2z M128.7,14.9V2.6l-3.3,3.5l-0.8-0.8l4.2-4.4h1.1v14
		H128.7z M134.7,17c0.7-0.5,1.2-1.3,1.2-1.9l-0.2,0c-0.5,0-0.9-0.4-0.9-0.9c0-0.5,0.4-0.9,0.9-0.9c0.6,0,1.1,0.5,1.1,1.3
		c0,1.2-0.7,2.3-1.5,2.9L134.7,17z M140.8,14.9l5.9-12.9H139V1h9.1v0.8l-5.9,13.1H140.8z M151.8,12.1c0.8,1.1,2.1,1.9,3.9,1.9
		c2.2,0,3.5-1.1,3.5-3c0-2-1.7-2.8-3.7-2.8c-0.6,0-1.1,0-1.3,0V7.2c0.2,0,0.7,0,1.3,0c1.8,0,3.5-0.8,3.5-2.7c0-1.7-1.5-2.7-3.3-2.7
		c-1.6,0-2.7,0.6-3.7,1.8l-0.8-0.8c1-1.2,2.5-2.1,4.6-2.1c2.4,0,4.5,1.3,4.5,3.7c0,2.1-1.8,3.1-3,3.3c1.2,0.1,3.2,1.2,3.2,3.5
		s-1.7,4-4.7,4c-2.3,0-4-1.1-4.8-2.3L151.8,12.1z M164.7,12.5c0.7,0.9,1.5,1.5,3.1,1.5c3.1,0,4.1-3.2,4.1-6.1c0-0.2,0-0.4,0-0.6
		c-0.6,1-2.2,2.3-4.1,2.3c-2.5,0-4.5-1.5-4.5-4.4c0-2.3,1.7-4.5,4.7-4.5c3.8,0,5.1,3.5,5.1,7.2c0,3.6-1.5,7.2-5.3,7.2
		c-1.8,0-2.9-0.7-3.8-1.8L164.7,12.5z M168,1.8c-2.4,0-3.5,1.8-3.5,3.3c0,2.3,1.5,3.4,3.5,3.4c1.5,0,3-1,3.8-2.4
		C171.6,4.2,170.6,1.8,168,1.8z"/>
	<g>
		<defs>
			
				<filter id="Adobe_OpacityMaskFilter_00000116955204795268257170000010929689146044774272_" filterUnits="userSpaceOnUse" x="133.9" y="83.7" width="20.1" height="157.9">
				<feColorMatrix  type="matrix" values="1 0 0 0 0  0 1 0 0 0  0 0 1 0 0  0 0 0 1 0"/>
			</filter>
		</defs>
		
			<mask maskUnits="userSpaceOnUse" x="133.9" y="83.7" width="20.1" height="157.9" id="SVGID_00000077302842049091676960000009132420904469600682_">
			<g style="filter:url(#Adobe_OpacityMaskFilter_00000116955204795268257170000010929689146044774272_);">
				
					<linearGradient id="SVGID_00000059996214013416307540000000650627488371325118_" gradientUnits="userSpaceOnUse" x1="-71.9972" y1="550.4447" x2="-70.691" y2="550.4447" gradientTransform="matrix(-2.000000e-15 33.1574 33.1574 2.000000e-15 -18783.3809 2584.3313)">
					<stop  offset="0" style="stop-color:#FFFFFF"/>
					<stop  offset="1" style="stop-color:#000000"/>
				</linearGradient>
				
					<rect x="-1656.3" y="-448.9" style="fill:url(#SVGID_00000059996214013416307540000000650627488371325118_);" width="2248.6" height="799.8"/>
			</g>
		</mask>
		<g style="mask:url(#SVGID_00000077302842049091676960000009132420904469600682_);">
			<g>
				<defs>
					<rect id="SVGID_00000052084880746199965550000015334848323875841952_" x="133.9" y="83.7" width="20.1" height="157.9"/>
				</defs>
				<clipPath id="SVGID_00000155125246431674884590000006965543010156965263_">
					<use xlink:href="#SVGID_00000052084880746199965550000015334848323875841952_"  style="overflow:visible;"/>
				</clipPath>
				
					<rect x="136.5" y="85" style="clip-path:url(#SVGID_00000155125246431674884590000006965543010156965263_);fill:#939598;" width="14.8" height="155.3"/>
			</g>
		</g>
		<line class="st5" x1="143.9" y1="240.4" x2="143.9" y2="32.4"/>
	</g>
</g>
<g class="wow performance-bar three">
	<path class="st6" d="M227.3,7.7c-1.7-0.4-3.2-1.5-3.2-3.4c0-2.5,2.3-3.6,4.5-3.6c2.2,0,4.5,1.1,4.5,3.6c0,1.9-1.6,2.9-3.2,3.4
		c1.8,0.5,3.5,1.8,3.5,3.7c0,2.3-2.1,3.7-4.7,3.7c-2.7,0-4.8-1.5-4.8-3.7C223.9,9.5,225.6,8.2,227.3,7.7z M228.6,8.3
		c-0.9,0.1-3.5,0.9-3.5,3.1c0,1.7,1.7,2.7,3.5,2.7c1.8,0,3.5-1,3.5-2.7C232.2,9.2,229.5,8.4,228.6,8.3z M228.6,1.8
		c-1.8,0-3.3,1-3.3,2.6c0,1.9,2.5,2.6,3.3,2.7c0.9-0.2,3.3-0.8,3.3-2.7C231.9,2.8,230.4,1.8,228.6,1.8z M235.9,17
		c0.7-0.5,1.2-1.3,1.2-1.9l-0.2,0c-0.5,0-0.9-0.4-0.9-0.9c0-0.5,0.4-0.9,0.9-0.9c0.6,0,1.1,0.5,1.1,1.3c0,1.2-0.7,2.3-1.5,2.9
		L235.9,17z M244.1,7.7c-1.7-0.4-3.2-1.5-3.2-3.4c0-2.5,2.3-3.6,4.5-3.6c2.2,0,4.5,1.1,4.5,3.6c0,1.9-1.6,2.9-3.2,3.4
		c1.8,0.5,3.5,1.8,3.5,3.7c0,2.3-2.1,3.7-4.7,3.7c-2.7,0-4.8-1.5-4.8-3.7C240.7,9.5,242.4,8.2,244.1,7.7z M245.4,8.3
		c-0.9,0.1-3.5,0.9-3.5,3.1c0,1.7,1.7,2.7,3.5,2.7c1.8,0,3.5-1,3.5-2.7C248.9,9.2,246.2,8.4,245.4,8.3z M245.4,1.8
		c-1.8,0-3.3,1-3.3,2.6c0,1.9,2.5,2.6,3.3,2.7c0.9-0.2,3.3-0.8,3.3-2.7C248.7,2.8,247.2,1.8,245.4,1.8z M259.7,14.9v-3.8h-6.6V10
		l6.2-9.1h1.6V10h2v1.1h-2v3.8H259.7z M259.7,2.2l-5.4,7.9h5.4V2.2z M266.4,12.5c0.7,0.9,1.5,1.5,3.1,1.5c3.1,0,4.1-3.2,4.1-6.1
		c0-0.2,0-0.4,0-0.6c-0.6,1-2.2,2.3-4.1,2.3c-2.5,0-4.5-1.5-4.5-4.4c0-2.3,1.7-4.5,4.7-4.5c3.8,0,5.1,3.5,5.1,7.2
		c0,3.6-1.5,7.2-5.3,7.2c-1.8,0-2.9-0.7-3.8-1.8L266.4,12.5z M269.7,1.8c-2.4,0-3.5,1.8-3.5,3.3c0,2.3,1.5,3.4,3.5,3.4
		c1.5,0,3-1,3.8-2.4C273.3,4.2,272.3,1.8,269.7,1.8z"/>
	<g>
		<defs>
			
				<filter id="Adobe_OpacityMaskFilter_00000109744549118174524470000003281684044533384324_" filterUnits="userSpaceOnUse" x="240.7" y="117" width="20.1" height="124.6">
				<feColorMatrix  type="matrix" values="1 0 0 0 0  0 1 0 0 0  0 0 1 0 0  0 0 0 1 0"/>
			</filter>
		</defs>
		
			<mask maskUnits="userSpaceOnUse" x="240.7" y="117" width="20.1" height="124.6" id="SVGID_00000102542614845778939450000016343302936560757412_">
			<g style="filter:url(#Adobe_OpacityMaskFilter_00000109744549118174524470000003281684044533384324_);">
				
					<linearGradient id="SVGID_00000062886103947776941850000003771092405605901952_" gradientUnits="userSpaceOnUse" x1="-71.9775" y1="540.4035" x2="-70.6713" y2="540.4035" gradientTransform="matrix(-1.000000e-15 22.8336 22.8336 1.000000e-15 -12801.04 1854.0492)">
					<stop  offset="0" style="stop-color:#FFFFFF"/>
					<stop  offset="1" style="stop-color:#000000"/>
				</linearGradient>
				
					<rect x="-1586" y="-448.9" style="fill:url(#SVGID_00000062886103947776941850000003771092405605901952_);" width="2248.6" height="799.8"/>
			</g>
		</mask>
		<g style="mask:url(#SVGID_00000102542614845778939450000016343302936560757412_);">
			<g>
				<defs>
					<rect id="SVGID_00000123406091399422551590000007244342103932042935_" x="240.7" y="117" width="20.1" height="124.6"/>
				</defs>
				<clipPath id="SVGID_00000160167277850020888010000001886953882138550200_">
					<use xlink:href="#SVGID_00000123406091399422551590000007244342103932042935_"  style="overflow:visible;"/>
				</clipPath>
				
					<rect x="243.3" y="118.4" style="clip-path:url(#SVGID_00000160167277850020888010000001886953882138550200_);fill:#939598;" width="14.8" height="121.9"/>
			</g>
		</g>
		<line class="st5" x1="250.7" y1="240.4" x2="250.7" y2="32.4"/>
	</g>
</g>
<g class="wow performance-bar four">
	<path class="st6" d="M330.1,14.9V2.6l-3.3,3.5L326,5.3l4.2-4.4h1.1v14H330.1z M341.1,0.7c3.7,0,5.1,3.9,5.1,7.2
		c0,3.3-1.4,7.2-5.1,7.2c-3.7,0-5.2-3.9-5.2-7.2C335.9,4.6,337.4,0.7,341.1,0.7z M341.1,1.8c-2.9,0-3.9,3.2-3.9,6.1
		c0,2.9,1,6.1,3.9,6.1c2.9,0,3.9-3.3,3.9-6.1C345,5,344.1,1.8,341.1,1.8z M348.3,17c0.7-0.5,1.2-1.3,1.2-1.9l-0.2,0
		c-0.5,0-0.9-0.4-0.9-0.9c0-0.5,0.4-0.9,0.9-0.9c0.6,0,1.1,0.5,1.1,1.3c0,1.2-0.7,2.3-1.5,2.9L348.3,17z M354.4,14.9L360.3,2h-7.7
		V0.9h9.1v0.8l-5.9,13.1H354.4z M369.7,14.9v-3.8H363V10l6.2-9.1h1.6V10h2v1.1h-2v3.8H369.7z M369.7,2.1l-5.4,7.9h5.4V2.1z
		 M376.8,14.9L382.7,2H375V0.9h9.1v0.8l-5.9,13.1H376.8z"/>
	<g>
		<defs>
			
				<filter id="Adobe_OpacityMaskFilter_00000137104773918488384340000008528724392400218273_" filterUnits="userSpaceOnUse" x="344.8" y="95.2" width="20.1" height="146.4">
				<feColorMatrix  type="matrix" values="1 0 0 0 0  0 1 0 0 0  0 0 1 0 0  0 0 0 1 0"/>
			</filter>
		</defs>
		
			<mask maskUnits="userSpaceOnUse" x="344.8" y="95.2" width="20.1" height="146.4" id="SVGID_00000178163909519498251560000002600154464115540387_">
			<g style="filter:url(#Adobe_OpacityMaskFilter_00000137104773918488384340000008528724392400218273_);">
				
					<linearGradient id="SVGID_00000158001814081735307410000011652411503938431645_" gradientUnits="userSpaceOnUse" x1="-71.9865" y1="548.4666" x2="-70.6803" y2="548.4666" gradientTransform="matrix(-2.000000e-15 26.6085 26.6085 2.000000e-15 -14988.499 2121.0789)">
					<stop  offset="0" style="stop-color:#FFFFFF"/>
					<stop  offset="1" style="stop-color:#000000"/>
				</linearGradient>
				
					<rect x="-1518.9" y="-448.9" style="fill:url(#SVGID_00000158001814081735307410000011652411503938431645_);" width="2248.6" height="799.8"/>
			</g>
		</mask>
		<g style="mask:url(#SVGID_00000178163909519498251560000002600154464115540387_);">
			<g>
				<defs>
					<rect id="SVGID_00000022533069952837846770000014712777002625065659_" x="344.8" y="95.2" width="20.1" height="146.4"/>
				</defs>
				<clipPath id="SVGID_00000059992458683560273900000007243567986903899044_">
					<use xlink:href="#SVGID_00000022533069952837846770000014712777002625065659_"  style="overflow:visible;"/>
				</clipPath>
				
					<rect x="347.4" y="96.5" style="clip-path:url(#SVGID_00000059992458683560273900000007243567986903899044_);fill:#939598;" width="14.8" height="143.8"/>
			</g>
		</g>
		<line class="st5" x1="354.9" y1="240.4" x2="354.9" y2="32.4"/>
	</g>
</g>
<g class="wow performance-bar five">
	<path class="st6" d="M434.5,14.9V2.6l-3.3,3.5l-0.8-0.8l4.2-4.4h1.1v14H434.5z M440.4,14.9v-1c4.8-3.8,7.9-6.6,7.9-9.3
		c0-2-1.7-2.8-3.2-2.8c-1.7,0-3.1,0.8-3.8,1.8l-0.8-0.8c1-1.3,2.7-2.2,4.6-2.2c2.1,0,4.4,1.2,4.4,3.9c0,3.1-3.2,5.9-7.3,9.1h7.3v1.1
		H440.4z M452.6,17c0.7-0.5,1.2-1.3,1.2-1.9l-0.2,0c-0.5,0-0.9-0.4-0.9-0.9c0-0.5,0.4-0.9,0.9-0.9c0.6,0,1.1,0.5,1.1,1.3
		c0,1.2-0.7,2.3-1.5,2.9L452.6,17z M458.2,12.1c0.8,1.1,2.1,1.9,3.9,1.9c2.2,0,3.5-1.1,3.5-3c0-2-1.7-2.8-3.7-2.8
		c-0.6,0-1.1,0-1.3,0V7.2c0.2,0,0.7,0,1.3,0c1.8,0,3.5-0.8,3.5-2.7c0-1.7-1.5-2.7-3.3-2.7c-1.6,0-2.7,0.6-3.7,1.8l-0.8-0.8
		c1-1.2,2.5-2.1,4.6-2.1c2.4,0,4.5,1.3,4.5,3.7c0,2.1-1.8,3.1-3,3.3c1.2,0.1,3.2,1.2,3.2,3.5s-1.7,4-4.7,4c-2.3,0-4-1.1-4.8-2.3
		L458.2,12.1z M471.5,14.9L477.4,2h-7.7V0.9h9.1v0.8l-5.9,13.1H471.5z M482.5,12.1c0.8,1.1,2.1,1.9,3.9,1.9c2.2,0,3.5-1.1,3.5-3
		c0-2-1.7-2.8-3.7-2.8c-0.6,0-1.1,0-1.3,0V7.2c0.2,0,0.7,0,1.3,0c1.8,0,3.5-0.8,3.5-2.7c0-1.7-1.5-2.7-3.3-2.7
		c-1.6,0-2.7,0.6-3.7,1.8l-0.8-0.8c1-1.2,2.5-2.1,4.6-2.1c2.4,0,4.5,1.3,4.5,3.7c0,2.1-1.8,3.1-3,3.3c1.2,0.1,3.2,1.2,3.2,3.5
		s-1.7,4-4.7,4c-2.3,0-4-1.1-4.8-2.3L482.5,12.1z"/>
	<g>
		<defs>
			
				<filter id="Adobe_OpacityMaskFilter_00000070832976462168895160000002107134493724510891_" filterUnits="userSpaceOnUse" x="452.2" y="76.7" width="20.1" height="164.9">
				<feColorMatrix  type="matrix" values="1 0 0 0 0  0 1 0 0 0  0 0 1 0 0  0 0 0 1 0"/>
			</filter>
		</defs>
		
			<mask maskUnits="userSpaceOnUse" x="452.2" y="76.7" width="20.1" height="164.9" id="SVGID_00000001650711187172632680000002726867830980078211_">
			<g style="filter:url(#Adobe_OpacityMaskFilter_00000070832976462168895160000002107134493724510891_);">
				
					<linearGradient id="SVGID_00000020358683085218402210000013476747009340485818_" gradientUnits="userSpaceOnUse" x1="-72.0018" y1="559.0939" x2="-70.6956" y2="559.0939" gradientTransform="matrix(-2.000000e-15 37.0371 37.0371 2.000000e-15 -21031.5449 2858.7715)">
					<stop  offset="0" style="stop-color:#FFFFFF"/>
					<stop  offset="1" style="stop-color:#000000"/>
				</linearGradient>
				
					<rect x="-1448.6" y="-448.9" style="fill:url(#SVGID_00000020358683085218402210000013476747009340485818_);" width="2248.6" height="799.8"/>
			</g>
		</mask>
		<g style="mask:url(#SVGID_00000001650711187172632680000002726867830980078211_);">
			<g>
				<defs>
					<rect id="SVGID_00000129924292746282158300000016822440679969144198_" x="452.2" y="76.7" width="20.1" height="164.9"/>
				</defs>
				<clipPath id="SVGID_00000021079027423136485500000012684127722939961533_">
					<use xlink:href="#SVGID_00000129924292746282158300000016822440679969144198_"  style="overflow:visible;"/>
				</clipPath>
				
					<rect x="454.8" y="78" style="clip-path:url(#SVGID_00000021079027423136485500000012684127722939961533_);fill:#939598;" width="14.8" height="162.3"/>
			</g>
		</g>
		<line class="st5" x1="462.2" y1="240.4" x2="462.2" y2="32.4"/>
	</g>
</g>
</svg>
