<?xml version="1.0" encoding="utf-8"?>
<!-- Generator: Adobe Illustrator 26.4.0, SVG Export Plug-In . SVG Version: 6.00 Build 0)  -->
<svg version="1.1" id="Layer_1" xmlns="http://www.w3.org/2000/svg" xmlns:xlink="http://www.w3.org/1999/xlink" x="0px" y="0px"
	 viewBox="0 0 398.5 205.3" style="enable-background:new 0 0 398.5 205.3;" xml:space="preserve">
<style type="text/css">
	.st0{fill:#0069AA;}
	.st1{clip-path:url(#SVGID_00000120540334246575741000000017488514622669058223_);fill:#076AAA;}
	.st2{fill:none;stroke:#FFFFFF;}
	.st3{fill:#076AAA;}
	.st4{filter:url(#Adobe_OpacityMaskFilter);}
	.st5{fill:url(#SVGID_00000144312110373482364620000000142081510252825769_);}
	.st6{mask:url(#SVGID_00000168831111656367517210000017020147041880453537_);}
	.st7{clip-path:url(#SVGID_00000094582955467026461070000010219459326692715943_);fill:#939598;}
	.st8{fill:#4E4E50;}
	.st9{filter:url(#Adobe_OpacityMaskFilter_00000044150031634052100420000018148170671167563398_);}
	.st10{fill:url(#SVGID_00000011004927857426333460000003350268342080058037_);}
	.st11{mask:url(#SVGID_00000093142603756931598590000016839636505338495120_);}
	.st12{clip-path:url(#SVGID_00000117663628260470310360000016616644510738155668_);fill:#939598;}
	.st13{filter:url(#Adobe_OpacityMaskFilter_00000101790431232102104860000001639123771851148194_);}
	.st14{fill:url(#SVGID_00000093178179515989687720000018423113901316197516_);}
	.st15{mask:url(#SVGID_00000091697021891477339560000017114081788373110206_);}
	.st16{clip-path:url(#SVGID_00000116950278359523344190000004877747827486377396_);fill:#939598;}
	.st17{filter:url(#Adobe_OpacityMaskFilter_00000142171660591491610170000018285384617621490065_);}
	.st18{fill:url(#SVGID_00000156577046336459423850000013647405934012571530_);}
	.st19{mask:url(#SVGID_00000168083104916948638200000009256614153774575263_);}
	.st20{clip-path:url(#SVGID_00000171718690398602572120000015188854028491835830_);fill:#939598;}
</style>
<path class="st0" d="M0.2,205.1v-1.3c4-3,5.8-4.6,5.8-6.3c0-1.2-1-1.8-2.1-1.8c-1.3,0-2.2,0.5-2.9,1.3l-1-1c0.9-1.1,2.3-1.7,3.8-1.7
	c1.9,0,3.7,1.1,3.7,3.2c0,2.1-2,3.9-4.9,6.2h4.9v1.4L0.2,205.1L0.2,205.1z M13.6,194.3c2.9,0,4.1,2.8,4.1,5.5s-1.2,5.5-4.1,5.5
	s-4.2-2.9-4.2-5.5S10.7,194.3,13.6,194.3z M13.6,195.7c-1.9,0-2.5,2-2.5,4s0.7,4.1,2.5,4.1c1.9,0,2.5-2,2.5-4.1
	S15.5,195.7,13.6,195.7z M19.3,205.1v-1.3c4-3,5.8-4.6,5.8-6.3c0-1.2-1-1.8-2.1-1.8c-1.3,0-2.2,0.5-2.9,1.3l-1-1
	c0.9-1.1,2.3-1.7,3.8-1.7c1.9,0,3.7,1.1,3.7,3.2c0,2.1-2,3.9-4.9,6.2h4.9v1.4L19.3,205.1L19.3,205.1z M32.1,205.1v-8.5l-2,2l-0.9-1
	l3.1-3.2h1.4V205L32.1,205.1L32.1,205.1z M37,201.9v-1.2h3.8v1.2H37z M42,205.1v-1.3c4-3,5.8-4.6,5.8-6.3c0-1.2-1-1.8-2.1-1.8
	c-1.3,0-2.2,0.5-2.9,1.3l-1-1c0.9-1.1,2.3-1.7,3.8-1.7c1.9,0,3.7,1.1,3.7,3.2c0,2.1-2,3.9-4.9,6.2h4.9v1.4L42,205.1L42,205.1z
	 M51.6,205.1v-1.3c4-3,5.8-4.6,5.8-6.3c0-1.2-1-1.8-2.1-1.8c-1.3,0-2.2,0.5-2.9,1.3l-1-1c0.9-1.1,2.3-1.7,3.8-1.7
	c1.9,0,3.7,1.1,3.7,3.2c0,2.1-2,3.9-4.9,6.2h4.9v1.4L51.6,205.1L51.6,205.1z"/>
<path d="M86.7,205v-0.8c3.6-2.9,6-5,6-7c0-1.5-1.3-2.2-2.4-2.2c-1.3,0-2.3,0.6-2.9,1.4l-0.6-0.6c0.7-1,2-1.6,3.5-1.6
	c1.6,0,3.3,0.9,3.3,3c0,2.3-2.5,4.5-5.5,6.9h5.6v0.8h-7V205z M99.7,194.2c2.8,0,3.9,2.9,3.9,5.5c0,2.5-1.1,5.5-3.9,5.5
	s-3.9-3-3.9-5.5S96.9,194.2,99.7,194.2z M99.7,195.1c-2.2,0-3,2.4-3,4.6c0,2.2,0.7,4.6,3,4.6s3-2.5,3-4.6
	C102.7,197.5,102,195.1,99.7,195.1z M105.4,205v-0.8c3.6-2.9,6-5,6-7c0-1.5-1.3-2.2-2.4-2.2c-1.3,0-2.3,0.6-2.9,1.4l-0.6-0.6
	c0.7-1,2-1.6,3.5-1.6c1.6,0,3.3,0.9,3.3,3c0,2.3-2.5,4.5-5.5,6.9h5.6v0.8h-7V205z M118.4,194.2c2.8,0,3.9,2.9,3.9,5.5
	c0,2.5-1.1,5.5-3.9,5.5s-3.9-3-3.9-5.5S115.6,194.2,118.4,194.2z M118.4,195.1c-2.2,0-3,2.4-3,4.6c0,2.2,0.7,4.6,3,4.6s3-2.5,3-4.6
	C121.4,197.5,120.7,195.1,118.4,195.1z M124.4,201.5v-0.8h3.8v0.8H124.4z M129.4,205v-0.8c3.6-2.9,6-5,6-7c0-1.5-1.3-2.2-2.4-2.2
	c-1.3,0-2.3,0.6-2.9,1.4l-0.6-0.6c0.7-1,2-1.6,3.5-1.6c1.6,0,3.3,0.9,3.3,3c0,2.3-2.5,4.5-5.5,6.9h5.6v0.8h-7V205z M142.2,205v-9.3
	l-2.5,2.7l-0.6-0.6l3.2-3.3h0.8v10.6L142.2,205L142.2,205z"/>
<path d="M171,204.9v-0.7c3.6-2.9,6-5,6-7c0-1.5-1.3-2.2-2.4-2.2c-1.3,0-2.3,0.6-2.9,1.4l-0.6-0.6c0.7-1,2-1.6,3.5-1.6
	c1.6,0,3.3,0.9,3.3,3c0,2.3-2.5,4.5-5.5,6.9h5.6v0.8L171,204.9L171,204.9z M184,194.2c2.8,0,3.9,2.9,3.9,5.5c0,2.5-1.1,5.5-3.9,5.5
	c-2.8,0-3.9-3-3.9-5.5C180.1,197.1,181.2,194.2,184,194.2z M184,195c-2.2,0-3,2.4-3,4.6c0,2.2,0.7,4.6,3,4.6c2.2,0,3-2.5,3-4.6
	C187,197.4,186.3,195,184,195z M193.5,204.9v-9.3l-2.5,2.7l-0.6-0.6l3.2-3.3h0.8V205L193.5,204.9L193.5,204.9z M199.1,203.1
	c0.5,0.7,1.2,1.2,2.3,1.2c2.3,0,3.1-2.4,3.1-4.6c0-0.2,0-0.3,0-0.5c-0.4,0.7-1.7,1.8-3.1,1.8c-1.9,0-3.4-1.1-3.4-3.4
	c0-1.7,1.3-3.4,3.6-3.4c2.9,0,3.9,2.6,3.9,5.5c0,2.7-1.1,5.5-4,5.5c-1.4,0-2.2-0.6-2.9-1.3L199.1,203.1z M201.6,195
	c-1.8,0-2.7,1.4-2.7,2.5c0,1.7,1.1,2.6,2.6,2.6c1.2,0,2.3-0.7,2.9-1.8C204.3,196.8,203.6,195,201.6,195z M207.6,201.4v-0.8h3.8v0.8
	H207.6z M212.6,204.9v-0.7c3.6-2.9,6-5,6-7c0-1.5-1.3-2.2-2.4-2.2c-1.3,0-2.3,0.6-2.9,1.4l-0.6-0.6c0.7-1,2-1.6,3.5-1.6
	c1.6,0,3.3,0.9,3.3,3c0,2.3-2.5,4.5-5.5,6.9h5.6v0.8L212.6,204.9L212.6,204.9z M225.6,194.2c2.8,0,3.9,2.9,3.9,5.5
	c0,2.5-1.1,5.5-3.9,5.5s-3.9-3-3.9-5.5C221.7,197.1,222.8,194.2,225.6,194.2z M225.6,195c-2.2,0-3,2.4-3,4.6c0,2.2,0.7,4.6,3,4.6
	s3-2.5,3-4.6C228.6,197.4,227.9,195,225.6,195z"/>
<path d="M257.2,204.8v-0.7c3.6-2.9,6-5,6-7c0-1.5-1.3-2.2-2.4-2.2c-1.3,0-2.3,0.6-2.9,1.4l-0.6-0.6c0.7-1,2-1.6,3.5-1.6
	c1.6,0,3.3,0.9,3.3,3c0,2.3-2.5,4.5-5.5,6.9h5.6v0.8L257.2,204.8L257.2,204.8z M270.2,194.1c2.8,0,3.9,2.9,3.9,5.5
	c0,2.5-1.1,5.5-3.9,5.5s-3.9-3-3.9-5.5C266.3,197,267.4,194.1,270.2,194.1z M270.2,194.9c-2.2,0-3,2.4-3,4.6c0,2.2,0.7,4.6,3,4.6
	c2.2,0,3-2.5,3-4.6C273.1,197.3,272.4,194.9,270.2,194.9z M279.7,204.8v-9.3l-2.5,2.7l-0.6-0.6l3.2-3.3h0.8v10.6L279.7,204.8
	L279.7,204.8z M287,199.4c-1.3-0.3-2.5-1.1-2.5-2.6c0-1.9,1.7-2.7,3.4-2.7c1.6,0,3.4,0.9,3.4,2.7c0,1.4-1.2,2.2-2.5,2.6
	c1.3,0.4,2.6,1.3,2.6,2.8c0,1.7-1.6,2.8-3.6,2.8s-3.6-1.1-3.6-2.8C284.3,200.7,285.6,199.7,287,199.4z M287.9,199.8
	c-0.7,0.1-2.7,0.7-2.7,2.3c0,1.3,1.3,2.1,2.7,2.1c1.4,0,2.7-0.8,2.7-2.1C290.6,200.5,288.6,199.8,287.9,199.8z M287.9,194.9
	c-1.4,0-2.5,0.7-2.5,2c0,1.5,1.9,2,2.5,2.1c0.7-0.1,2.5-0.6,2.5-2.1C290.4,195.6,289.3,194.9,287.9,194.9z M293.6,201.4v-0.8h3.8
	v0.8H293.6z M302.1,204.8v-9.3l-2.5,2.7l-0.6-0.6l3.2-3.3h0.8v10.6L302.1,204.8L302.1,204.8z M307.7,203c0.5,0.7,1.2,1.2,2.3,1.2
	c2.3,0,3.1-2.4,3.1-4.6c0-0.2,0-0.3,0-0.5c-0.4,0.7-1.7,1.8-3.1,1.8c-1.9,0-3.4-1.1-3.4-3.4c0-1.7,1.3-3.4,3.6-3.4
	c2.9,0,3.9,2.6,3.9,5.5c0,2.7-1.1,5.5-4,5.5c-1.4,0-2.2-0.6-2.9-1.3L307.7,203z M310.2,194.9c-1.8,0-2.7,1.4-2.7,2.5
	c0,1.7,1.1,2.6,2.6,2.6c1.2,0,2.3-0.7,2.9-1.8C312.9,196.7,312.2,194.9,310.2,194.9z"/>
<path d="M343.2,205v-0.8c3.6-2.9,6-5,6-7c0-1.5-1.3-2.2-2.4-2.2c-1.3,0-2.3,0.6-2.9,1.4l-0.6-0.6c0.7-1,2-1.6,3.5-1.6
	c1.6,0,3.3,0.9,3.3,3c0,2.3-2.5,4.5-5.5,6.9h5.6v0.8h-7V205z M356.2,194.2c2.8,0,3.9,2.9,3.9,5.5c0,2.5-1.1,5.5-3.9,5.5
	s-3.9-3-3.9-5.5S353.4,194.2,356.2,194.2z M356.2,195.1c-2.2,0-3,2.4-3,4.6c0,2.2,0.7,4.6,3,4.6c2.2,0,3-2.5,3-4.6
	C359.2,197.5,358.5,195.1,356.2,195.1z M365.7,205v-9.3l-2.5,2.7l-0.6-0.6l3.2-3.3h0.8v10.6L365.7,205L365.7,205z M371.7,205
	l4.5-9.8h-5.9v-0.8h6.9v0.6l-4.5,9.9h-1V205z M378.3,201.5v-0.8h3.8v0.8H378.3z M386.8,205v-9.3l-2.5,2.7l-0.6-0.6l3.2-3.3h0.8v10.6
	L386.8,205L386.8,205z M394.1,199.5c-1.3-0.3-2.5-1.1-2.5-2.6c0-1.9,1.7-2.7,3.4-2.7c1.6,0,3.4,0.9,3.4,2.7c0,1.4-1.2,2.2-2.5,2.6
	c1.3,0.4,2.6,1.3,2.6,2.8c0,1.7-1.6,2.8-3.6,2.8s-3.6-1.1-3.6-2.8C391.5,200.9,392.8,199.9,394.1,199.5z M395.1,199.9
	c-0.7,0.1-2.7,0.7-2.7,2.3c0,1.3,1.3,2.1,2.7,2.1c1.4,0,2.7-0.8,2.7-2.1C397.8,200.6,395.7,200,395.1,199.9z M395.1,195.1
	c-1.4,0-2.5,0.7-2.5,2c0,1.5,1.9,2,2.5,2.1c0.7-0.1,2.5-0.6,2.5-2.1C397.6,195.8,396.5,195.1,395.1,195.1z"/>
<g>
	<g>
		<g>
			<g>
				<defs>
					<rect id="SVGID_1_" x="10.1" y="53.5" width="28.9" height="144.5"/>
				</defs>
				<clipPath id="SVGID_00000021823426732013075530000018036305082477255604_">
					<use xlink:href="#SVGID_1_"  style="overflow:visible;"/>
				</clipPath>
				
					<rect x="24.8" y="62.9" style="clip-path:url(#SVGID_00000021823426732013075530000018036305082477255604_);fill:#076AAA;" width="12" height="125.7"/>
			</g>
		</g>
	</g>
	<line class="st2" x1="30.8" y1="188.6" x2="30.8" y2="22.3"/>
	<path class="st3" d="M18.2,5.9c0-3.4,1.9-5.8,5.3-5.8c1.4,0,2.5,0.5,3.3,1.2l-1.1,1.8c-0.6-0.6-1.3-0.9-2.2-0.9
		c-1.7,0-2.8,1.4-2.8,3.2c0,0.1,0,0.2,0,0.2c0.5-0.8,1.7-1.5,2.9-1.5c2,0,3.9,1.3,3.9,3.7c0,2.2-1.8,3.9-4.3,3.9
		C19.7,11.7,18.2,9.1,18.2,5.9z M25,7.9c0-1.2-1-1.7-2.1-1.7c-0.8,0-1.7,0.4-2.2,1.1c0.1,1.1,0.7,2.3,2.3,2.3
		C24.3,9.6,25,8.7,25,7.9z M28.9,5.9c0-3.4,1.9-5.8,5.3-5.8c1.4,0,2.5,0.5,3.3,1.2l-1.1,1.8c-0.6-0.6-1.3-0.9-2.2-0.9
		c-1.7,0-2.8,1.4-2.8,3.2c0,0.1,0,0.2,0,0.2c0.5-0.8,1.7-1.5,2.9-1.5c2,0,3.9,1.3,3.9,3.7c0,2.2-1.8,3.9-4.3,3.9
		C30.3,11.7,28.9,9.1,28.9,5.9z M35.6,7.9c0-1.2-1-1.7-2.1-1.7c-0.8,0-1.7,0.4-2.2,1.1c0.1,1.1,0.7,2.3,2.3,2.3
		C34.9,9.6,35.6,8.7,35.6,7.9z"/>
</g>
<g>
	<defs>
		<filter id="Adobe_OpacityMaskFilter" filterUnits="userSpaceOnUse" x="93.2" y="115.1" width="28.9" height="82.8">
			<feColorMatrix  type="matrix" values="1 0 0 0 0  0 1 0 0 0  0 0 1 0 0  0 0 0 1 0"/>
		</filter>
	</defs>
	
		<mask maskUnits="userSpaceOnUse" x="93.2" y="115.1" width="28.9" height="82.8" id="SVGID_00000168831111656367517210000017020147041880453537_">
		<g class="st4">
			
				<linearGradient id="SVGID_00000128472569836853045390000009739801934295768704_" gradientUnits="userSpaceOnUse" x1="-162.602" y1="-238.0069" x2="-161.5571" y2="-238.0069" gradientTransform="matrix(-1.000000e-15 17.0992 -17.0992 -1.000000e-15 -3303.2268 2951.073)">
				<stop  offset="0" style="stop-color:#FFFFFF"/>
				<stop  offset="1" style="stop-color:#000000"/>
			</linearGradient>
			
				<rect x="-122.9" y="-338.1" style="fill:url(#SVGID_00000128472569836853045390000009739801934295768704_);" width="1778.8" height="622.1"/>
		</g>
	</mask>
	<g class="st6">
		<g>
			<g>
				<defs>
					<rect id="SVGID_00000020361632957543250050000004573030680862833820_" x="93.2" y="115.1" width="28.9" height="82.8"/>
				</defs>
				<clipPath id="SVGID_00000183210340011134772130000014878698667949051289_">
					<use xlink:href="#SVGID_00000020361632957543250050000004573030680862833820_"  style="overflow:visible;"/>
				</clipPath>
				
					<rect x="108" y="124.5" style="clip-path:url(#SVGID_00000183210340011134772130000014878698667949051289_);fill:#939598;" width="12" height="64"/>
			</g>
		</g>
	</g>
	<line class="st2" x1="114" y1="188.6" x2="114" y2="22.3"/>
	<path class="st8" d="M104.1,9.2c0.6,0.9,1.7,1.6,3.2,1.6c1.7,0,2.8-0.9,2.8-2.4c0-1.6-1.3-2.3-3-2.3c-0.5,0-0.9,0-1,0V5.2
		c0.2,0,0.6,0,1,0c1.5,0,2.9-0.6,2.9-2.1c0-1.4-1.3-2.2-2.7-2.2c-1.3,0-2.2,0.5-3,1.4l-0.6-0.6c0.8-1,2-1.7,3.7-1.7
		c2,0,3.6,1.1,3.6,3c0,1.7-1.5,2.5-2.4,2.6c1,0.1,2.6,0.9,2.6,2.8s-1.4,3.2-3.8,3.2c-1.8,0-3.2-0.9-3.8-1.9L104.1,9.2z M118.8,11.5
		V8.4h-5.4V7.5l5-7.3h1.3v7.3h1.6v0.9h-1.6v3.1H118.8z M118.8,1.2l-4.3,6.4h4.3V1.2z"/>
</g>
<g>
	<defs>
		
			<filter id="Adobe_OpacityMaskFilter_00000121269601186677146040000015308661902585128600_" filterUnits="userSpaceOnUse" x="180" y="13.2" width="28.9" height="184.7">
			<feColorMatrix  type="matrix" values="1 0 0 0 0  0 1 0 0 0  0 0 1 0 0  0 0 0 1 0"/>
		</filter>
	</defs>
	
		<mask maskUnits="userSpaceOnUse" x="180" y="13.2" width="28.9" height="184.7" id="SVGID_00000093142603756931598590000016839636505338495120_">
		<g style="filter:url(#Adobe_OpacityMaskFilter_00000121269601186677146040000015308661902585128600_);">
			
				<linearGradient id="SVGID_00000018957350549765158820000005935419466264332975_" gradientUnits="userSpaceOnUse" x1="-153.1772" y1="-211.0354" x2="-152.1322" y2="-211.0354" gradientTransform="matrix(-2.000000e-15 38.4944 -38.4944 -2.000000e-15 -7299.8818 6044.8735)">
				<stop  offset="0" style="stop-color:#FFFFFF"/>
				<stop  offset="1" style="stop-color:#000000"/>
			</linearGradient>
			
				<rect x="-65.6" y="-338.1" style="fill:url(#SVGID_00000018957350549765158820000005935419466264332975_);" width="1778.8" height="622.1"/>
		</g>
	</mask>
	<g class="st11">
		<g>
			<g>
				<defs>
					<rect id="SVGID_00000175318876194754785500000015406062748659457950_" x="180" y="13.2" width="28.9" height="184.7"/>
				</defs>
				<clipPath id="SVGID_00000183248251380148420300000008367780728996087459_">
					<use xlink:href="#SVGID_00000175318876194754785500000015406062748659457950_"  style="overflow:visible;"/>
				</clipPath>
				
					<rect x="194.8" y="22.6" style="clip-path:url(#SVGID_00000183248251380148420300000008367780728996087459_);fill:#939598;" width="12" height="165.9"/>
			</g>
		</g>
	</g>
	<line class="st2" x1="200.8" y1="188.6" x2="200.8" y2="22.3"/>
	<path class="st8" d="M195.5,5.7c-1.3-0.4-2.6-1.2-2.6-2.7c0-2,1.9-2.9,3.6-2.9c1.8,0,3.6,0.9,3.6,2.9c0,1.5-1.3,2.4-2.6,2.7
		c1.4,0.4,2.8,1.4,2.8,3c0,1.8-1.7,3-3.8,3c-2.2,0-3.8-1.2-3.8-3C192.6,7.1,194,6.1,195.5,5.7z M196.5,6.1c-0.7,0.1-2.9,0.8-2.9,2.5
		c0,1.4,1.4,2.2,2.9,2.2s2.9-0.8,2.9-2.2C199.3,6.9,197.2,6.2,196.5,6.1z M196.5,0.9c-1.5,0-2.7,0.8-2.7,2.1c0,1.6,2,2.1,2.7,2.2
		c0.7-0.1,2.7-0.6,2.7-2.2C199.2,1.7,198,0.9,196.5,0.9z M204,11.5l4.7-10.4h-6.2V0.2h7.4v0.7l-4.8,10.6
		C205.1,11.5,204,11.5,204,11.5z"/>
</g>
<g>
	<defs>
		
			<filter id="Adobe_OpacityMaskFilter_00000019679474614410476230000002495676547705967511_" filterUnits="userSpaceOnUse" x="264.2" y="28.6" width="28.9" height="169.3">
			<feColorMatrix  type="matrix" values="1 0 0 0 0  0 1 0 0 0  0 0 1 0 0  0 0 0 1 0"/>
		</filter>
	</defs>
	
		<mask maskUnits="userSpaceOnUse" x="264.2" y="28.6" width="28.9" height="169.3" id="SVGID_00000091697021891477339560000017114081788373110206_">
		<g style="filter:url(#Adobe_OpacityMaskFilter_00000019679474614410476230000002495676547705967511_);">
			
				<linearGradient id="SVGID_00000061430224652449060200000012820740187424646836_" gradientUnits="userSpaceOnUse" x1="-153.8723" y1="-214.8123" x2="-152.8274" y2="-214.8123" gradientTransform="matrix(-2.000000e-15 35.2419 -35.2419 -2.000000e-15 -6692.2949 5574.5513)">
				<stop  offset="0" style="stop-color:#FFFFFF"/>
				<stop  offset="1" style="stop-color:#000000"/>
			</linearGradient>
			
				<rect x="-11.3" y="-338.1" style="fill:url(#SVGID_00000061430224652449060200000012820740187424646836_);" width="1778.8" height="622.1"/>
		</g>
	</mask>
	<g class="st15">
		<g>
			<g>
				<defs>
					<rect id="SVGID_00000127041929292259636570000000227214378354972602_" x="264.2" y="28.6" width="28.9" height="169.3"/>
				</defs>
				<clipPath id="SVGID_00000002374920933253526760000001747269109633951387_">
					<use xlink:href="#SVGID_00000127041929292259636570000000227214378354972602_"  style="overflow:visible;"/>
				</clipPath>
				
					<rect x="279" y="38.1" style="clip-path:url(#SVGID_00000002374920933253526760000001747269109633951387_);fill:#939598;" width="12" height="150.5"/>
			</g>
		</g>
	</g>
	<line class="st2" x1="285" y1="188.6" x2="285" y2="22.3"/>
	<path class="st8" d="M277.1,11.5l4.7-10.4h-6.2V0.2h7.4v0.7l-4.8,10.6C278.2,11.5,277.1,11.5,277.1,11.5z M286.2,9.6
		c0.6,0.7,1.3,1.3,2.5,1.3c2.5,0,3.3-2.6,3.3-4.9c0-0.2,0-0.3,0-0.5c-0.5,0.8-1.8,1.9-3.3,1.9c-2,0-3.6-1.2-3.6-3.6
		c0-1.8,1.4-3.6,3.8-3.6c3,0,4.1,2.8,4.1,5.8c0,2.9-1.2,5.8-4.3,5.8c-1.5,0-2.4-0.6-3-1.4L286.2,9.6z M288.9,0.9
		c-1.9,0-2.8,1.5-2.8,2.7c0,1.8,1.2,2.7,2.8,2.7c1.2,0,2.4-0.8,3.1-1.9C291.8,2.9,291,0.9,288.9,0.9z"/>
</g>
<g>
	<defs>
		
			<filter id="Adobe_OpacityMaskFilter_00000034080094344729356130000005183728685834519197_" filterUnits="userSpaceOnUse" x="352.9" y="73.7" width="28.9" height="124.3">
			<feColorMatrix  type="matrix" values="1 0 0 0 0  0 1 0 0 0  0 0 1 0 0  0 0 0 1 0"/>
		</filter>
	</defs>
	
		<mask maskUnits="userSpaceOnUse" x="352.9" y="73.7" width="28.9" height="124.3" id="SVGID_00000168083104916948638200000009256614153774575263_">
		<g style="filter:url(#Adobe_OpacityMaskFilter_00000034080094344729356130000005183728685834519197_);">
			
				<linearGradient id="SVGID_00000116206353836640952440000002444670894948824477_" gradientUnits="userSpaceOnUse" x1="-155.0849" y1="-220.8545" x2="-154.0399" y2="-220.8545" gradientTransform="matrix(-2.000000e-15 30.7154 -30.7154 -2.000000e-15 -5846.7354 4920.0073)">
				<stop  offset="0" style="stop-color:#FFFFFF"/>
				<stop  offset="1" style="stop-color:#000000"/>
			</linearGradient>
			
				<rect x="47.5" y="-338.1" style="fill:url(#SVGID_00000116206353836640952440000002444670894948824477_);" width="1778.8" height="622.1"/>
		</g>
	</mask>
	<g class="st19">
		<g>
			<g>
				<defs>
					<rect id="SVGID_00000020371141950841574500000008752814970844928703_" x="352.9" y="73.7" width="28.9" height="124.3"/>
				</defs>
				<clipPath id="SVGID_00000145750765765416660110000016717564025255608463_">
					<use xlink:href="#SVGID_00000020371141950841574500000008752814970844928703_"  style="overflow:visible;"/>
				</clipPath>
				
					<rect x="367.7" y="83.1" style="clip-path:url(#SVGID_00000145750765765416660110000016717564025255608463_);fill:#939598;" width="12" height="105.5"/>
			</g>
		</g>
	</g>
	<line class="st2" x1="373.7" y1="188.6" x2="373.7" y2="22.3"/>
	<path class="st8" d="M364.6,9c0.7,1,1.7,1.6,3.2,1.6c1.6,0,2.8-1.2,2.8-2.7c0-1.7-1.2-2.8-2.8-2.8c-1,0-1.9,0.3-2.7,1.1l-0.7-0.3V0
		h6.5v0.9h-5.5v4.4c0.5-0.5,1.5-1,2.7-1c1.9,0,3.6,1.3,3.6,3.6c0,2.2-1.7,3.6-3.8,3.6c-1.9,0-3-0.7-3.8-1.8L364.6,9z M374.5,9
		c0.7,1,1.7,1.6,3.2,1.6c1.6,0,2.8-1.2,2.8-2.7c0-1.7-1.2-2.8-2.8-2.8c-1,0-1.9,0.3-2.7,1.1l-0.7-0.3V0h6.5v0.9h-5.5v4.4
		c0.5-0.5,1.5-1,2.7-1c1.9,0,3.6,1.3,3.6,3.6c0,2.2-1.7,3.6-3.8,3.6c-1.9,0-3-0.7-3.8-1.8L374.5,9z"/>
</g>
</svg>
