<?xml version="1.0" encoding="utf-8"?>
<!-- Generator: Adobe Illustrator 26.4.0, SVG Export Plug-In . SVG Version: 6.00 Build 0)  -->
<svg version="1.1" id="Layer_1" xmlns="http://www.w3.org/2000/svg" xmlns:xlink="http://www.w3.org/1999/xlink" x="0px" y="0px"
	 viewBox="0 0 399.9 205" style="enable-background:new 0 0 399.9 205;" xml:space="preserve">
<style type="text/css">
	.st0{fill:#0069AA;}
	.st1{fill:#076AAA;}
	.st2{clip-path:url(#SVGID_00000039106543348287905170000016477562586055681689_);fill:#076AAA;}
	.st3{fill:none;stroke:#FFFFFF;}
	.st4{fill:#4E4E50;}
	.st5{filter:url(#Adobe_OpacityMaskFilter);}
	.st6{fill:url(#SVGID_00000160906480107761517610000004509183986722384772_);}
	.st7{mask:url(#SVGID_00000081606684452085447470000005666326975695961789_);}
	.st8{clip-path:url(#SVGID_00000100352623898331728490000004019327433770162614_);fill:#939598;}
	.st9{filter:url(#Adobe_OpacityMaskFilter_00000114777387834992573390000005948217543121150363_);}
	.st10{fill:url(#SVGID_00000044872151947670830700000010022187589631729068_);}
	.st11{mask:url(#SVGID_00000121272458167773531050000005473178790685606810_);}
	.st12{clip-path:url(#SVGID_00000047031238452530397520000017168497483358869681_);fill:#939598;}
	.st13{filter:url(#Adobe_OpacityMaskFilter_00000123437945973409419830000006652686946241549478_);}
	.st14{fill:url(#SVGID_00000107570000516897083150000001921739316097232823_);}
	.st15{mask:url(#SVGID_00000164498160559408637780000007945128966361017513_);}
	.st16{clip-path:url(#SVGID_00000060752350865125126060000002543197260243435400_);fill:#939598;}
	.st17{filter:url(#Adobe_OpacityMaskFilter_00000155837518713399294880000003503359379664326307_);}
	.st18{fill:url(#SVGID_00000091719567068243838130000000852597520604448959_);}
	.st19{mask:url(#SVGID_00000137834430779933913140000007318224762296237704_);}
	.st20{clip-path:url(#SVGID_00000014595755563364019030000004219810125842105491_);fill:#939598;}
</style>
<path class="st0" d="M0.2,204.8v-1.3c4-3.1,5.8-4.6,5.8-6.3c0-1.2-1.1-1.8-2.1-1.8c-1.3,0-2.2,0.5-2.9,1.3l-1-1
	c0.9-1.1,2.3-1.7,3.8-1.7c1.9,0,3.7,1.1,3.7,3.2c0,2.1-2,3.9-4.9,6.2h5v1.4L0.2,204.8L0.2,204.8z M13.6,194c2.9,0,4.2,2.8,4.2,5.5
	c0,2.6-1.2,5.5-4.2,5.5c-2.9,0-4.2-2.9-4.2-5.5C9.5,196.8,10.7,194,13.6,194z M13.6,195.4c-1.9,0-2.5,2-2.5,4.1s0.7,4.1,2.5,4.1
	c1.9,0,2.5-2,2.5-4.1S15.5,195.4,13.6,195.4z M19.3,204.8v-1.3c4-3.1,5.8-4.6,5.8-6.3c0-1.2-1.1-1.8-2.1-1.8c-1.3,0-2.2,0.5-2.9,1.3
	l-1-1c0.9-1.1,2.3-1.7,3.8-1.7c1.9,0,3.7,1.1,3.7,3.2c0,2.1-2,3.9-4.9,6.2h5v1.4L19.3,204.8L19.3,204.8z M32.2,204.8v-8.5l-2,2.1
	l-0.9-1l3.1-3.2h1.4v10.6L32.2,204.8L32.2,204.8z M37.2,201.5v-1.2H41v1.2H37.2z M42.2,204.8v-1.3c4-3.1,5.8-4.6,5.8-6.3
	c0-1.2-1.1-1.8-2.1-1.8c-1.3,0-2.2,0.5-2.9,1.3l-1-1c0.9-1.1,2.3-1.7,3.8-1.7c1.9,0,3.7,1.1,3.7,3.2c0,2.1-2,3.9-4.9,6.2h5v1.4
	L42.2,204.8L42.2,204.8z M51.8,204.8v-1.3c4-3.1,5.8-4.6,5.8-6.3c0-1.2-1.1-1.8-2.1-1.8c-1.3,0-2.2,0.5-2.9,1.3l-1-1
	c0.9-1.1,2.3-1.7,3.8-1.7c1.9,0,3.7,1.1,3.7,3.2c0,2.1-2,3.9-4.9,6.2h5v1.4L51.8,204.8L51.8,204.8z"/>
<path d="M87,204.7v-0.8c3.6-2.9,6-5,6-7c0-1.5-1.3-2.2-2.4-2.2c-1.3,0-2.3,0.6-2.9,1.4l-0.6-0.6c0.7-1,2-1.6,3.5-1.6
	c1.6,0,3.3,0.9,3.3,3c0,2.3-2.5,4.5-5.5,7H94v0.8L87,204.7L87,204.7z M100.1,193.9c2.8,0,3.9,2.9,3.9,5.5c0,2.5-1.1,5.5-3.9,5.5
	s-3.9-3-3.9-5.5C96.2,196.8,97.2,193.9,100.1,193.9z M100.1,194.7c-2.2,0-3,2.5-3,4.6c0,2.2,0.7,4.7,3,4.7c2.2,0,3-2.5,3-4.7
	C103,197.2,102.3,194.7,100.1,194.7z M105.8,204.7v-0.8c3.6-2.9,6-5,6-7c0-1.5-1.3-2.2-2.4-2.2c-1.3,0-2.3,0.6-2.9,1.4l-0.6-0.6
	c0.7-1,2-1.6,3.5-1.6c1.6,0,3.3,0.9,3.3,3c0,2.3-2.5,4.5-5.5,7h5.6v0.8L105.8,204.7L105.8,204.7z M118.8,193.9
	c2.8,0,3.9,2.9,3.9,5.5c0,2.5-1.1,5.5-3.9,5.5s-3.9-3-3.9-5.5C114.9,196.8,116,193.9,118.8,193.9z M118.8,194.7c-2.2,0-3,2.5-3,4.6
	c0,2.2,0.7,4.7,3,4.7c2.2,0,3-2.5,3-4.7C121.8,197.2,121.1,194.7,118.8,194.7z M124.8,201.2v-0.8h3.8v0.8H124.8z M129.8,204.7v-0.8
	c3.6-2.9,6-5,6-7c0-1.5-1.3-2.2-2.4-2.2c-1.3,0-2.3,0.6-2.9,1.4l-0.6-0.6c0.7-1,2-1.6,3.5-1.6c1.6,0,3.3,0.9,3.3,3
	c0,2.3-2.5,4.5-5.5,7h5.6v0.8L129.8,204.7L129.8,204.7z M142.7,204.7v-9.4l-2.5,2.7l-0.6-0.6l3.2-3.3h0.8v10.6H142.7z"/>
<path d="M171.6,204.6v-0.7c3.6-2.9,6-5,6-7c0-1.5-1.3-2.2-2.4-2.2c-1.3,0-2.3,0.6-2.9,1.4l-0.6-0.6c0.7-1,2-1.6,3.5-1.6
	c1.6,0,3.3,0.9,3.3,3c0,2.3-2.5,4.5-5.5,7h5.6v0.8L171.6,204.6L171.6,204.6z M184.7,193.8c2.8,0,3.9,2.9,3.9,5.5
	c0,2.5-1.1,5.5-3.9,5.5c-2.8,0-3.9-3-3.9-5.5C180.8,196.8,181.8,193.8,184.7,193.8z M184.7,194.7c-2.2,0-3,2.5-3,4.6
	c0,2.2,0.7,4.7,3,4.7c2.2,0,3-2.5,3-4.7C187.6,197.1,186.9,194.7,184.7,194.7z M194.2,204.6v-9.4l-2.5,2.7l-0.6-0.6l3.2-3.3h0.8
	v10.6H194.2z M199.8,202.8c0.5,0.7,1.2,1.2,2.3,1.2c2.3,0,3.1-2.4,3.1-4.7c0-0.2,0-0.3,0-0.5c-0.4,0.7-1.7,1.8-3.1,1.8
	c-1.9,0-3.4-1.1-3.4-3.4c0-1.7,1.3-3.4,3.6-3.4c2.9,0,3.9,2.6,3.9,5.5c0,2.7-1.1,5.5-4.1,5.5c-1.4,0-2.2-0.6-2.9-1.4L199.8,202.8z
	 M202.3,194.6c-1.8,0-2.7,1.4-2.7,2.5c0,1.7,1.1,2.6,2.7,2.6c1.2,0,2.3-0.7,2.9-1.8C205,196.5,204.3,194.6,202.3,194.6z
	 M208.3,201.1v-0.8h3.8v0.8H208.3z M213.3,204.6v-0.7c3.6-2.9,6-5,6-7c0-1.5-1.3-2.2-2.4-2.2c-1.3,0-2.3,0.6-2.9,1.4l-0.6-0.6
	c0.7-1,2-1.6,3.5-1.6c1.6,0,3.3,0.9,3.3,3c0,2.3-2.5,4.5-5.5,7h5.6v0.8L213.3,204.6L213.3,204.6z M226.4,193.8
	c2.8,0,3.9,2.9,3.9,5.5c0,2.5-1.1,5.5-3.9,5.5s-3.9-3-3.9-5.5C222.5,196.8,223.6,193.8,226.4,193.8z M226.4,194.7
	c-2.2,0-3,2.5-3,4.6c0,2.2,0.7,4.7,3,4.7c2.2,0,3-2.5,3-4.7C229.4,197.1,228.7,194.7,226.4,194.7z"/>
<path d="M258.1,204.5v-0.7c3.6-2.9,6-5,6-7c0-1.5-1.3-2.2-2.4-2.2c-1.3,0-2.3,0.6-2.9,1.4l-0.6-0.6c0.7-1,2-1.6,3.5-1.6
	c1.6,0,3.3,0.9,3.3,3c0,2.3-2.5,4.5-5.5,7h5.6v0.8L258.1,204.5L258.1,204.5z M271.2,193.7c2.8,0,3.9,2.9,3.9,5.5
	c0,2.5-1.1,5.5-3.9,5.5s-3.9-3-3.9-5.5C267.2,196.7,268.3,193.7,271.2,193.7z M271.2,194.6c-2.2,0-3,2.5-3,4.6c0,2.2,0.7,4.7,3,4.7
	c2.2,0,3-2.5,3-4.7C274.1,197,273.4,194.6,271.2,194.6z M280.7,204.5v-9.4l-2.5,2.7l-0.6-0.6l3.2-3.3h0.8v10.6H280.7z M288,199
	c-1.3-0.3-2.5-1.1-2.5-2.6c0-1.9,1.8-2.7,3.4-2.7c1.7,0,3.4,0.9,3.4,2.7c0,1.4-1.2,2.2-2.5,2.6c1.4,0.4,2.6,1.3,2.6,2.8
	c0,1.7-1.6,2.8-3.6,2.8c-2.1,0-3.6-1.1-3.6-2.8C285.3,200.4,286.6,199.4,288,199z M289,199.4c-0.7,0.1-2.7,0.7-2.7,2.3
	c0,1.3,1.3,2.1,2.7,2.1c1.4,0,2.7-0.8,2.7-2.1C291.6,200.2,289.6,199.5,289,199.4z M289,194.6c-1.4,0-2.5,0.7-2.5,2
	c0,1.5,1.9,2,2.5,2.1c0.7-0.1,2.5-0.6,2.5-2.1C291.5,195.3,290.3,194.6,289,194.6z M294.6,201v-0.8h3.8v0.8H294.6z M303.2,204.5
	v-9.4l-2.5,2.7l-0.6-0.6l3.2-3.3h0.8v10.6H303.2z M308.8,202.7c0.5,0.7,1.2,1.2,2.3,1.2c2.3,0,3.1-2.4,3.1-4.7c0-0.2,0-0.3,0-0.5
	c-0.4,0.7-1.7,1.8-3.1,1.8c-1.9,0-3.4-1.1-3.4-3.4c0-1.7,1.3-3.4,3.6-3.4c2.9,0,3.9,2.6,3.9,5.5c0,2.7-1.1,5.5-4.1,5.5
	c-1.4,0-2.2-0.6-2.9-1.4L308.8,202.7z M311.3,194.5c-1.8,0-2.7,1.4-2.7,2.5c0,1.7,1.1,2.6,2.7,2.6c1.2,0,2.3-0.7,2.9-1.8
	C314,196.4,313.3,194.5,311.3,194.5z"/>
<path d="M344.4,204.7v-0.8c3.6-2.9,6-5,6-7c0-1.5-1.3-2.2-2.4-2.2c-1.3,0-2.3,0.6-2.9,1.4l-0.6-0.6c0.7-1,2-1.6,3.5-1.6
	c1.6,0,3.3,0.9,3.3,3c0,2.3-2.5,4.5-5.5,7h5.6v0.8L344.4,204.7L344.4,204.7z M357.5,193.9c2.8,0,3.9,2.9,3.9,5.5
	c0,2.5-1.1,5.5-3.9,5.5s-3.9-3-3.9-5.5C353.6,196.8,354.6,193.9,357.5,193.9z M357.5,194.7c-2.2,0-3,2.5-3,4.6c0,2.2,0.7,4.7,3,4.7
	c2.2,0,3-2.5,3-4.7C360.5,197.2,359.7,194.7,357.5,194.7z M367,204.7v-9.4l-2.5,2.7l-0.6-0.6l3.2-3.3h0.8v10.6H367z M373,204.7
	l4.5-9.8h-5.9v-0.8h6.9v0.6l-4.5,10H373z M379.6,201.2v-0.8h3.8v0.8H379.6z M388.2,204.7v-9.4l-2.5,2.7l-0.6-0.6l3.2-3.3h0.8v10.6
	H388.2z M395.5,199.2c-1.3-0.3-2.5-1.1-2.5-2.6c0-1.9,1.8-2.7,3.4-2.7c1.7,0,3.4,0.9,3.4,2.7c0,1.4-1.2,2.2-2.5,2.6
	c1.4,0.4,2.6,1.3,2.6,2.8c0,1.7-1.6,2.8-3.6,2.8c-2.1,0-3.6-1.1-3.6-2.8C392.9,200.5,394.2,199.6,395.5,199.2z M396.5,199.6
	c-0.7,0.1-2.7,0.7-2.7,2.3c0,1.3,1.3,2.1,2.7,2.1c1.4,0,2.7-0.8,2.7-2.1C399.2,200.3,397.1,199.7,396.5,199.6z M396.5,194.7
	c-1.4,0-2.5,0.7-2.5,2c0,1.5,1.9,2,2.5,2.1c0.7-0.1,2.5-0.6,2.5-2.1C399,195.5,397.9,194.7,396.5,194.7z"/>
<g>
	<path class="st1" d="M24.5,8.6c0-1.4,1.1-2.4,2.4-2.9c-1.3-0.4-2.2-1.3-2.2-2.7c0-2.1,2.3-3,4.4-3s4.4,0.8,4.4,3
		c0,1.4-1,2.2-2.2,2.7c1.3,0.5,2.4,1.5,2.4,2.9c0,2.1-2.2,3.1-4.5,3.1S24.5,10.7,24.5,8.6z M31.1,8.3c0-0.9-1.4-1.4-2.1-1.5
		c-0.7,0.1-2.1,0.5-2.1,1.5c0,0.8,0.9,1.3,2.1,1.3C30.2,9.6,31.1,9.1,31.1,8.3z M30.9,3.5c0-0.8-0.8-1.3-1.9-1.3s-1.9,0.5-1.9,1.3
		s1.2,1.2,1.9,1.3C29.7,4.6,30.9,4.3,30.9,3.5z"/>
	<g>
		<g>
			<g>
				<defs>
					<rect id="SVGID_1_" x="10.1" y="14.4" width="29" height="184.8"/>
				</defs>
				<clipPath id="SVGID_00000024723761438667470440000006438300701513776304_">
					<use xlink:href="#SVGID_1_"  style="overflow:visible;"/>
				</clipPath>
				
					<rect x="24.9" y="23.8" style="clip-path:url(#SVGID_00000024723761438667470440000006438300701513776304_);fill:#076AAA;" width="12" height="166"/>
			</g>
		</g>
	</g>
	<line class="st3" x1="30.9" y1="189.8" x2="30.9" y2="23.8"/>
</g>
<g>
	<polygon class="st4" points="110.6,11.4 115.4,1 109.1,1 109.1,0.1 116.5,0.1 116.5,0.8 111.7,11.4 	"/>
	<defs>
		<filter id="Adobe_OpacityMaskFilter" filterUnits="userSpaceOnUse" x="93.5" y="35.1" width="29" height="164">
			<feColorMatrix  type="matrix" values="1 0 0 0 0  0 1 0 0 0  0 0 1 0 0  0 0 0 1 0"/>
		</filter>
	</defs>
	
		<mask maskUnits="userSpaceOnUse" x="93.5" y="35.1" width="29" height="164" id="SVGID_00000081606684452085447470000005666326975695961789_">
		<g class="st5">
			
				<linearGradient id="SVGID_00000014627503867785874070000006133713351256368294_" gradientUnits="userSpaceOnUse" x1="-160.1496" y1="-157.8587" x2="-159.1068" y2="-157.8587" gradientTransform="matrix(-2.000000e-15 38.8955 -38.8955 -2.000000e-15 -6490.0938 6378.3521)">
				<stop  offset="0" style="stop-color:#FFFFFF"/>
				<stop  offset="1" style="stop-color:#000000"/>
			</linearGradient>
			
				<rect x="-1242.7" y="-350.5" style="fill:url(#SVGID_00000014627503867785874070000006133713351256368294_);" width="1785.2" height="620.8"/>
		</g>
	</mask>
	<g class="st7">
		<g>
			<g>
				<defs>
					<rect id="SVGID_00000080199990849742508650000004698245970986699175_" x="93.5" y="35.1" width="29" height="164"/>
				</defs>
				<clipPath id="SVGID_00000082339927406999334830000001772552048158787763_">
					<use xlink:href="#SVGID_00000080199990849742508650000004698245970986699175_"  style="overflow:visible;"/>
				</clipPath>
				
					<rect x="108.4" y="44.5" style="clip-path:url(#SVGID_00000082339927406999334830000001772552048158787763_);fill:#939598;" width="12" height="145.3"/>
			</g>
		</g>
	</g>
	<line class="st3" x1="114.4" y1="189.8" x2="114.4" y2="23.8"/>
</g>
<g>
	<path class="st4" d="M200.7,0.1c1.5,0,2.4,0.6,3.1,1.4l-0.6,0.7c-0.6-0.7-1.2-1.3-2.5-1.3c-2.4,0-3.3,2.6-3.3,5c0,0.2,0,0.4,0,0.5
		c0.5-0.8,1.8-1.9,3.3-1.9c2,0,3.6,1.2,3.6,3.6c0,1.8-1.4,3.6-3.8,3.6c-3.1,0-4.2-2.8-4.2-5.8C196.4,3,197.6,0.1,200.7,0.1z
		 M200.5,5.4c-1.2,0-2.4,0.8-3.1,1.9c0.1,1.5,0.9,3.5,3.1,3.5c1.9,0,2.8-1.5,2.8-2.7C203.3,6.3,202.1,5.4,200.5,5.4z"/>
	<defs>
		
			<filter id="Adobe_OpacityMaskFilter_00000163060089856886866580000015717576811852211851_" filterUnits="userSpaceOnUse" x="180.6" y="56" width="29" height="143.1">
			<feColorMatrix  type="matrix" values="1 0 0 0 0  0 1 0 0 0  0 0 1 0 0  0 0 0 1 0"/>
		</filter>
	</defs>
	
		<mask maskUnits="userSpaceOnUse" x="180.6" y="56" width="29" height="143.1" id="SVGID_00000121272458167773531050000005473178790685606810_">
		<g style="filter:url(#Adobe_OpacityMaskFilter_00000163060089856886866580000015717576811852211851_);">
			
				<linearGradient id="SVGID_00000086681706488518441700000005345511835587190182_" gradientUnits="userSpaceOnUse" x1="-165.4051" y1="-149.7465" x2="-164.3623" y2="-149.7465" gradientTransform="matrix(-2.000000e-15 28.9057 -28.9057 -2.000000e-15 -4621.0269 4940.8018)">
				<stop  offset="0" style="stop-color:#FFFFFF"/>
				<stop  offset="1" style="stop-color:#000000"/>
			</linearGradient>
			
				<rect x="-1185.1" y="-350.5" style="fill:url(#SVGID_00000086681706488518441700000005345511835587190182_);" width="1785.2" height="620.8"/>
		</g>
	</mask>
	<g class="st11">
		<g>
			<g>
				<defs>
					<rect id="SVGID_00000024712688676259226580000009565316612337677201_" x="180.6" y="56" width="29" height="143.1"/>
				</defs>
				<clipPath id="SVGID_00000099660574107195220250000006390253728835728045_">
					<use xlink:href="#SVGID_00000024712688676259226580000009565316612337677201_"  style="overflow:visible;"/>
				</clipPath>
				
					<rect x="195.5" y="65.4" style="clip-path:url(#SVGID_00000099660574107195220250000006390253728835728045_);fill:#939598;" width="12" height="124.3"/>
			</g>
		</g>
	</g>
	<line class="st3" x1="201.5" y1="189.8" x2="201.5" y2="23.8"/>
</g>
<g>
	<polygon class="st4" points="280.2,11.4 284.9,1 278.7,1 278.7,0.1 286.1,0.1 286.1,0.8 281.3,11.4 	"/>
	<defs>
		
			<filter id="Adobe_OpacityMaskFilter_00000090256445677733606250000007105262093304814500_" filterUnits="userSpaceOnUse" x="265.1" y="35.1" width="29" height="164">
			<feColorMatrix  type="matrix" values="1 0 0 0 0  0 1 0 0 0  0 0 1 0 0  0 0 0 1 0"/>
		</filter>
	</defs>
	
		<mask maskUnits="userSpaceOnUse" x="265.1" y="35.1" width="29" height="164" id="SVGID_00000164498160559408637780000007945128966361017513_">
		<g style="filter:url(#Adobe_OpacityMaskFilter_00000090256445677733606250000007105262093304814500_);">
			
				<linearGradient id="SVGID_00000020365990593556191550000011287652475107571377_" gradientUnits="userSpaceOnUse" x1="-162.2939" y1="-157.0219" x2="-161.2511" y2="-157.0219" gradientTransform="matrix(-2.000000e-15 34.0886 -34.0886 -2.000000e-15 -5590.7554 5686.6338)">
				<stop  offset="0" style="stop-color:#FFFFFF"/>
				<stop  offset="1" style="stop-color:#000000"/>
			</linearGradient>
			
				<rect x="-1130.7" y="-350.5" style="fill:url(#SVGID_00000020365990593556191550000011287652475107571377_);" width="1785.2" height="620.8"/>
		</g>
	</mask>
	<g class="st15">
		<g>
			<g>
				<defs>
					<rect id="SVGID_00000129901922955061396820000000992087464774391213_" x="265.1" y="35.1" width="29" height="164"/>
				</defs>
				<clipPath id="SVGID_00000093858734601115657060000005221305389882811788_">
					<use xlink:href="#SVGID_00000129901922955061396820000000992087464774391213_"  style="overflow:visible;"/>
				</clipPath>
				
					<rect x="280" y="44.5" style="clip-path:url(#SVGID_00000093858734601115657060000005221305389882811788_);fill:#939598;" width="12" height="145.3"/>
			</g>
		</g>
	</g>
	<line class="st3" x1="286" y1="189.8" x2="286" y2="23.8"/>
</g>
<g>
	<path class="st4" d="M375.4,0.1c1.5,0,2.4,0.6,3.1,1.4l-0.6,0.7c-0.6-0.7-1.2-1.3-2.5-1.3c-2.4,0-3.3,2.6-3.3,5c0,0.2,0,0.4,0,0.5
		c0.5-0.8,1.8-1.9,3.3-1.9c2,0,3.6,1.2,3.6,3.6c0,1.8-1.4,3.6-3.8,3.6c-3.1,0-4.2-2.8-4.2-5.8C371.1,3,372.3,0.1,375.4,0.1z
		 M375.2,5.4c-1.2,0-2.4,0.8-3.1,1.9c0.1,1.5,0.9,3.5,3.1,3.5c1.9,0,2.8-1.5,2.8-2.7C378,6.3,376.8,5.4,375.2,5.4z"/>
	<defs>
		
			<filter id="Adobe_OpacityMaskFilter_00000164514705802011776070000009534172632553846691_" filterUnits="userSpaceOnUse" x="354.2" y="56" width="29" height="143.1">
			<feColorMatrix  type="matrix" values="1 0 0 0 0  0 1 0 0 0  0 0 1 0 0  0 0 0 1 0"/>
		</filter>
	</defs>
	
		<mask maskUnits="userSpaceOnUse" x="354.2" y="56" width="29" height="143.1" id="SVGID_00000137834430779933913140000007318224762296237704_">
		<g style="filter:url(#Adobe_OpacityMaskFilter_00000164514705802011776070000009534172632553846691_);">
			
				<linearGradient id="SVGID_00000002369846389351623440000016439060295175512218_" gradientUnits="userSpaceOnUse" x1="-161.246" y1="-160.464" x2="-160.2032" y2="-160.464" gradientTransform="matrix(-2.000000e-15 36.2799 -36.2799 -2.000000e-15 -6000.7183 6001.9619)">
				<stop  offset="0" style="stop-color:#FFFFFF"/>
				<stop  offset="1" style="stop-color:#000000"/>
			</linearGradient>
			
				<rect x="-1071.7" y="-350.5" style="fill:url(#SVGID_00000002369846389351623440000016439060295175512218_);" width="1785.2" height="620.8"/>
		</g>
	</mask>
	<g class="st19">
		<g>
			<g>
				<defs>
					<rect id="SVGID_00000129886464478972236710000006316024057631812238_" x="354.2" y="56" width="29" height="143.1"/>
				</defs>
				<clipPath id="SVGID_00000070114183502172925960000007032394355488370052_">
					<use xlink:href="#SVGID_00000129886464478972236710000006316024057631812238_"  style="overflow:visible;"/>
				</clipPath>
				
					<rect x="369" y="65.4" style="clip-path:url(#SVGID_00000070114183502172925960000007032394355488370052_);fill:#939598;" width="12" height="124.3"/>
			</g>
		</g>
	</g>
	<line class="st3" x1="375.1" y1="189.8" x2="375.1" y2="23.8"/>
</g>
</svg>
