<?xml version="1.0" encoding="utf-8"?>
<!-- Generator: Adobe Illustrator 26.4.0, SVG Export Plug-In . SVG Version: 6.00 Build 0)  -->
<svg version="1.1" id="Layer_1" xmlns="http://www.w3.org/2000/svg" xmlns:xlink="http://www.w3.org/1999/xlink" x="0px" y="0px"
	 viewBox="0 0 399.2 204.6" style="enable-background:new 0 0 399.2 204.6;" xml:space="preserve">
<style type="text/css">
	.st0{clip-path:url(#SVGID_00000014627941204914342340000011121080687716183736_);fill:#DEECC2;}
	.st1{fill:#010101;}
	.st2{fill:none;stroke:#010101;stroke-width:0.25;}
	.st3{fill:#9FCC3B;}
	.st4{fill:#4E4E50;}
	.st5{fill:none;stroke:#939598;stroke-width:0.25;stroke-dasharray:0.75,0.5;}
	.st6{fill:#076AAA;}
</style>
<g>
	<g>
		<g>
			<g>
				<defs>
					<rect id="SVGID_1_" x="55.5" y="7" width="333.3" height="179.8"/>
				</defs>
				<clipPath id="SVGID_00000173159752090879178880000004197351310906225051_">
					<use xlink:href="#SVGID_1_"  style="overflow:visible;"/>
				</clipPath>
				<polygon style="clip-path:url(#SVGID_00000173159752090879178880000004197351310906225051_);fill:#DEECC2;" points="71.5,185 
					72.4,152.3 144,109.7 222.1,19.5 294.5,71.5 371.6,88.1 372.8,185 				"/>
			</g>
		</g>
	</g>
	<path class="st1" d="M342.4,204.3v-1.5c3.6-2.7,4.7-3.6,4.7-4.7c0-0.8-0.7-1.2-1.4-1.2c-1,0-1.8,0.4-2.4,1l-1.1-1.3
		c0.9-1,2.2-1.5,3.4-1.5c1.9,0,3.4,1.1,3.4,2.8c0,1.5-1.3,2.8-3.6,4.5h3.6v1.7h-6.6V204.3z M350.3,199.9c0-2.3,1.1-4.6,3.7-4.6
		s3.7,2.3,3.7,4.6s-1.1,4.6-3.7,4.6S350.3,202.2,350.3,199.9z M355.7,199.9c0-1.6-0.5-2.9-1.7-2.9c-1.3,0-1.7,1.3-1.7,2.9
		s0.5,2.9,1.7,2.9S355.7,201.5,355.7,199.9z M358.8,204.3v-1.5c3.6-2.7,4.7-3.6,4.7-4.7c0-0.8-0.7-1.2-1.4-1.2c-1,0-1.8,0.4-2.4,1
		l-1.1-1.3c0.9-1,2.2-1.5,3.4-1.5c1.9,0,3.4,1.1,3.4,2.8c0,1.5-1.3,2.8-3.6,4.5h3.6v1.7h-6.6V204.3z M369.9,204.3v-6.5l-1.5,1.5
		l-1.1-1.1l2.8-2.8h1.7v8.9L369.9,204.3L369.9,204.3z M374.2,201.8v-1.4h3.2v1.4H374.2z M378.4,204.3v-1.5c3.6-2.7,4.7-3.6,4.7-4.7
		c0-0.8-0.7-1.2-1.4-1.2c-1,0-1.8,0.4-2.4,1l-1.1-1.3c0.9-1,2.2-1.5,3.4-1.5c1.9,0,3.4,1.1,3.4,2.8c0,1.5-1.3,2.8-3.6,4.5h3.6v1.7
		h-6.6V204.3z M386.6,204.3v-1.5c3.6-2.7,4.7-3.6,4.7-4.7c0-0.8-0.7-1.2-1.4-1.2c-1,0-1.8,0.4-2.4,1l-1.1-1.3c0.9-1,2.2-1.5,3.4-1.5
		c1.9,0,3.4,1.1,3.4,2.8c0,1.5-1.3,2.8-3.6,4.5h3.6v1.7h-6.6V204.3z"/>
	<path class="st1" d="M268.4,204.3v-0.6c3-2.4,5.1-4.2,5.1-5.9c0-1.3-1.1-1.8-2-1.8c-1.1,0-2,0.5-2.4,1.2l-0.5-0.5
		c0.6-0.9,1.7-1.4,3-1.4s2.8,0.7,2.8,2.5c0,2-2.1,3.7-4.6,5.8h4.7v0.7H268.4z M279.4,195.3c2.4,0,3.3,2.5,3.3,4.6s-0.9,4.6-3.3,4.6
		s-3.3-2.5-3.3-4.6C276.1,197.7,277,195.3,279.4,195.3z M279.4,196c-1.9,0-2.5,2.1-2.5,3.9c0,1.8,0.6,3.9,2.5,3.9s2.5-2.1,2.5-3.9
		C281.9,198,281.3,196,279.4,196z M284.2,204.3v-0.6c3-2.4,5.1-4.2,5.1-5.9c0-1.3-1.1-1.8-2-1.8c-1.1,0-2,0.5-2.4,1.2l-0.5-0.5
		c0.6-0.9,1.7-1.4,3-1.4s2.8,0.7,2.8,2.5c0,2-2.1,3.7-4.6,5.8h4.7v0.7H284.2z M295.1,195.3c2.4,0,3.3,2.5,3.3,4.6s-0.9,4.6-3.3,4.6
		s-3.3-2.5-3.3-4.6C291.8,197.7,292.7,195.3,295.1,195.3z M295.1,196c-1.9,0-2.5,2.1-2.5,3.9c0,1.8,0.6,3.9,2.5,3.9s2.5-2.1,2.5-3.9
		C297.6,198,297,196,295.1,196z M300.1,201.4v-0.6h3.2v0.6H300.1z M304.3,204.3v-0.6c3-2.4,5.1-4.2,5.1-5.9c0-1.3-1.1-1.8-2-1.8
		c-1.1,0-2,0.5-2.4,1.2l-0.5-0.5c0.6-0.9,1.7-1.4,3-1.4s2.8,0.7,2.8,2.5c0,2-2.1,3.7-4.6,5.8h4.7v0.7H304.3z M315.1,204.3v-7.9
		l-2.1,2.3l-0.5-0.5l2.7-2.8h0.7v8.9H315.1z"/>
	<path class="st1" d="M194.1,204.3v-0.6c3-2.4,5.1-4.2,5.1-5.9c0-1.3-1.1-1.8-2-1.8c-1.1,0-2,0.5-2.4,1.2l-0.5-0.5
		c0.6-0.9,1.7-1.4,3-1.4s2.8,0.7,2.8,2.5c0,2-2.1,3.7-4.6,5.8h4.7v0.7H194.1z M205.1,195.3c2.4,0,3.3,2.5,3.3,4.6s-0.9,4.6-3.3,4.6
		s-3.3-2.5-3.3-4.6C201.8,197.7,202.7,195.3,205.1,195.3z M205.1,196c-1.9,0-2.5,2.1-2.5,3.9c0,1.8,0.6,3.9,2.5,3.9s2.5-2.1,2.5-3.9
		C207.6,198,207,196,205.1,196z M213.1,204.3v-7.9l-2.1,2.3l-0.5-0.5l2.7-2.8h0.7v8.9H213.1z M217.7,202.8c0.4,0.6,1,1,2,1
		c1.9,0,2.6-2,2.6-3.9c0-0.1,0-0.3,0-0.4c-0.4,0.6-1.4,1.5-2.6,1.5c-1.6,0-2.9-0.9-2.9-2.8c0-1.5,1.1-2.8,3-2.8
		c2.4,0,3.3,2.2,3.3,4.6c0,2.3-1,4.6-3.4,4.6c-1.2,0-1.9-0.5-2.4-1.1L217.7,202.8z M219.8,196c-1.5,0-2.2,1.2-2.2,2.1
		c0,1.5,0.9,2.1,2.2,2.1c1,0,1.9-0.6,2.4-1.5C222.1,197.5,221.5,196,219.8,196z M224.9,201.4v-0.6h3.2v0.6H224.9z M229.1,204.3v-0.6
		c3-2.4,5.1-4.2,5.1-5.9c0-1.3-1.1-1.8-2-1.8c-1.1,0-2,0.5-2.4,1.2l-0.5-0.5c0.6-0.9,1.7-1.4,3-1.4s2.8,0.7,2.8,2.5
		c0,2-2.1,3.7-4.6,5.8h4.7v0.7H229.1z M240.1,195.3c2.4,0,3.3,2.5,3.3,4.6s-0.9,4.6-3.3,4.6s-3.3-2.5-3.3-4.6
		C236.8,197.7,237.7,195.3,240.1,195.3z M240.1,196c-1.9,0-2.5,2.1-2.5,3.9c0,1.8,0.6,3.9,2.5,3.9s2.5-2.1,2.5-3.9
		C242.5,198,241.9,196,240.1,196z"/>
	<path class="st1" d="M120.1,204.3v-0.6c3-2.4,5.1-4.2,5.1-5.9c0-1.3-1.1-1.8-2-1.8c-1.1,0-2,0.5-2.4,1.2l-0.5-0.5
		c0.6-0.9,1.7-1.4,3-1.4s2.8,0.7,2.8,2.5c0,2-2.1,3.7-4.6,5.8h4.7v0.7H120.1z M131.1,195.3c2.4,0,3.3,2.5,3.3,4.6s-0.9,4.6-3.3,4.6
		c-2.4,0-3.3-2.5-3.3-4.6C127.8,197.7,128.7,195.3,131.1,195.3z M131.1,196c-1.9,0-2.5,2.1-2.5,3.9c0,1.8,0.6,3.9,2.5,3.9
		s2.5-2.1,2.5-3.9C133.6,198,133,196,131.1,196z M139.1,204.3v-7.9l-2.1,2.3l-0.5-0.5l2.7-2.8h0.7v8.9H139.1z M145.2,199.7
		c-1.1-0.3-2.1-1-2.1-2.1c0-1.6,1.5-2.3,2.9-2.3s2.9,0.7,2.9,2.3c0,1.2-1,1.9-2.1,2.1c1.1,0.3,2.2,1.1,2.2,2.4c0,1.4-1.3,2.4-3,2.4
		s-3-0.9-3-2.4C143,200.8,144.1,200,145.2,199.7z M146,200.1c-0.5,0.1-2.3,0.6-2.3,2c0,1.1,1.1,1.7,2.3,1.7s2.3-0.7,2.3-1.7
		C148.3,200.7,146.5,200.1,146,200.1z M146,196c-1.2,0-2.1,0.6-2.1,1.7c0,1.2,1.6,1.6,2.1,1.7c0.5-0.1,2.1-0.5,2.1-1.7
		C148.1,196.6,147.2,196,146,196z M150.8,201.4v-0.6h3.2v0.6H150.8z M158,204.3v-7.9l-2.1,2.3l-0.5-0.5l2.7-2.8h0.7v8.9H158z
		 M162.6,202.8c0.4,0.6,1,1,2,1c1.9,0,2.6-2,2.6-3.9c0-0.1,0-0.3,0-0.4c-0.4,0.6-1.4,1.5-2.6,1.5c-1.6,0-2.9-0.9-2.9-2.8
		c0-1.5,1.1-2.8,3-2.8c2.4,0,3.3,2.2,3.3,4.6c0,2.3-1,4.6-3.4,4.6c-1.2,0-1.9-0.5-2.4-1.1L162.6,202.8z M164.7,196
		c-1.5,0-2.2,1.2-2.2,2.1c0,1.5,0.9,2.1,2.2,2.1c1,0,1.9-0.6,2.4-1.5C167,197.5,166.4,196,164.7,196z"/>
	<path class="st1" d="M46.1,204.3v-0.6c3-2.4,5.1-4.2,5.1-5.9c0-1.3-1.1-1.8-2-1.8c-1.1,0-2,0.5-2.4,1.2l-0.5-0.5
		c0.6-0.9,1.7-1.4,3-1.4s2.8,0.7,2.8,2.5c0,2-2.1,3.7-4.6,5.8h4.7v0.7H46.1z M57.1,195.3c2.4,0,3.3,2.5,3.3,4.6s-0.9,4.6-3.3,4.6
		s-3.3-2.5-3.3-4.6C53.8,197.7,54.7,195.3,57.1,195.3z M57.1,196c-1.9,0-2.5,2.1-2.5,3.9c0,1.8,0.6,3.9,2.5,3.9s2.5-2.1,2.5-3.9
		C59.6,198,59,196,57.1,196z M65.1,204.3v-7.9l-2.1,2.3l-0.5-0.5l2.7-2.8h0.7v8.9H65.1z M70.1,204.3l3.7-8.2h-4.9v-0.7h5.8v0.5
		l-3.8,8.4H70.1z M75.6,201.4v-0.6h3.2v0.6H75.6z M82.8,204.3v-7.9l-2.1,2.3l-0.5-0.5l2.7-2.8h0.7v8.9H82.8z M89,199.7
		c-1.1-0.3-2.1-1-2.1-2.1c0-1.6,1.5-2.3,2.9-2.3s2.9,0.7,2.9,2.3c0,1.2-1,1.9-2.1,2.1c1.1,0.3,2.2,1.1,2.2,2.4c0,1.4-1.3,2.4-3,2.4
		s-3-0.9-3-2.4C86.7,200.8,87.8,200,89,199.7z M89.8,200.1c-0.5,0.1-2.3,0.6-2.3,2c0,1.1,1.1,1.7,2.3,1.7c1.2,0,2.3-0.7,2.3-1.7
		C92,200.7,90.3,200.1,89.8,200.1z M89.8,196c-1.2,0-2.1,0.6-2.1,1.7c0,1.2,1.6,1.6,2.1,1.7c0.5-0.1,2.1-0.5,2.1-1.7
		C91.9,196.6,90.9,196,89.8,196z"/>
	<path class="st1" d="M3.3,179.4c2.4,0,3.3,2.5,3.3,4.6s-0.9,4.6-3.3,4.6S0,186.1,0,184C0,181.9,0.9,179.4,3.3,179.4z M3.3,180.1
		c-1.9,0-2.5,2.1-2.5,3.9c0,1.8,0.6,3.9,2.5,3.9s2.5-2.1,2.5-3.9S5.2,180.1,3.3,180.1z"/>
	<path class="st1" d="M3.3,107.6c2.4,0,3.3,2.5,3.3,4.6s-0.9,4.6-3.3,4.6S0,114.3,0,112.2C0,110.1,0.9,107.6,3.3,107.6z M3.3,108.3
		c-1.9,0-2.5,2.1-2.5,3.9s0.6,3.9,2.5,3.9s2.5-2.1,2.5-3.9C5.8,110.3,5.2,108.3,3.3,108.3z M8.6,115.6c0.3,0,0.6,0.3,0.6,0.6
		s-0.3,0.6-0.6,0.6S8,116.5,8,116.2C8,115.8,8.2,115.6,8.6,115.6z M14.1,107.6c1.2,0,1.9,0.5,2.4,1.1l-0.4,0.6c-0.4-0.6-1-1-2-1
		c-1.9,0-2.6,2-2.6,3.9c0,0.1,0,0.3,0,0.4c0.4-0.6,1.4-1.5,2.6-1.5c1.6,0,2.9,0.9,2.9,2.8c0,1.5-1.1,2.8-3,2.8
		c-2.4,0-3.3-2.2-3.3-4.6C10.7,109.9,11.6,107.6,14.1,107.6z M13.9,111.8c-1,0-1.9,0.6-2.4,1.5c0.1,1.2,0.7,2.8,2.4,2.8
		c1.5,0,2.2-1.2,2.2-2.1C16.2,112.5,15.2,111.8,13.9,111.8z"/>
	<path class="st1" d="M3.3,71.7c2.4,0,3.3,2.5,3.3,4.6s-0.9,4.6-3.3,4.6S0,78.4,0,76.3C0,74.1,0.9,71.7,3.3,71.7z M3.3,72.4
		c-1.9,0-2.5,2.1-2.5,3.9s0.6,3.9,2.5,3.9s2.5-2.1,2.5-3.9C5.8,74.4,5.2,72.4,3.3,72.4z M8.6,79.7c0.3,0,0.6,0.3,0.6,0.6
		c0,0.3-0.3,0.6-0.6,0.6S8,80.6,8,80.3C8,79.9,8.2,79.7,8.6,79.7z M11.6,79.2c0.4,0.6,1,1,2,1c1.9,0,2.6-2,2.6-3.9
		c0-0.1,0-0.3,0-0.4c-0.4,0.6-1.4,1.5-2.6,1.5c-1.6,0-2.9-0.9-2.9-2.8c0-1.5,1.1-2.8,3-2.8c2.4,0,3.3,2.2,3.3,4.6
		c0,2.3-1,4.6-3.4,4.6c-1.2,0-1.9-0.5-2.4-1.1L11.6,79.2z M13.8,72.4c-1.5,0-2.2,1.2-2.2,2.1c0,1.5,0.9,2.1,2.2,2.1
		c1,0,1.9-0.6,2.4-1.5C16.1,73.9,15.4,72.4,13.8,72.4z"/>
	<path class="st1" d="M3.6,44.8v-7.9l-2.1,2.3L1,38.7l2.6-2.8h0.7v8.9H3.6z M8,43.7c0.3,0,0.6,0.3,0.6,0.6c0,0.3-0.3,0.6-0.6,0.6
		c-0.3,0-0.6-0.3-0.6-0.6C7.4,44,7.6,43.7,8,43.7z M10.5,44.8v-0.6c3-2.4,5.1-4.2,5.1-5.9c0-1.3-1.1-1.8-2-1.8c-1.1,0-2,0.5-2.4,1.2
		l-0.6-0.6c0.6-0.9,1.7-1.4,3-1.4s2.8,0.7,2.8,2.5c0,2-2.1,3.7-4.6,5.8h4.7v0.7h-6V44.8z"/>
	<path class="st1" d="M3.6,8.9V1L1.5,3.3L1,2.8L3.6,0h0.7v8.9H3.6z M8,7.8c0.3,0,0.6,0.3,0.6,0.6S8.3,9,8,9C7.7,9,7.4,8.7,7.4,8.4
		C7.4,8.1,7.6,7.8,8,7.8z M10.9,7.1c0.6,0.8,1.3,1.3,2.5,1.3c1.3,0,2.2-0.9,2.2-2.1c0-1.3-0.9-2.2-2.2-2.2c-0.8,0-1.5,0.3-2.1,0.9
		l-0.6-0.2V0.1h5.1v0.7h-4.4v3.5c0.4-0.4,1.2-0.8,2.1-0.8c1.5,0,2.8,1,2.8,2.8s-1.4,2.9-3,2.9c-1.5,0-2.4-0.6-3-1.5L10.9,7.1z"/>
	<line class="st2" x1="38" y1="184.8" x2="399.2" y2="184.8"/>
	<rect x="141.1" y="106.7" class="st3" width="5.9" height="5.9"/>
	<rect x="219.2" y="16.5" class="st3" width="5.9" height="5.9"/>
	<rect x="291.6" y="68.6" class="st3" width="5.9" height="5.9"/>
	<rect x="368.7" y="85.2" class="st3" width="5.9" height="5.9"/>
	<path class="st4" d="M134.3,91.4c2.5,0,3.5,2.6,3.5,4.9c0,2.2-1,4.9-3.5,4.9s-3.5-2.7-3.5-4.9C130.7,94,131.7,91.4,134.3,91.4z
		 M134.3,92.2c-2,0-2.6,2.2-2.6,4.1s0.7,4.2,2.6,4.2s2.6-2.2,2.6-4.2S136.3,92.2,134.3,92.2z M139.8,99.9c0.3,0,0.6,0.3,0.6,0.6
		c0,0.3-0.3,0.6-0.6,0.6s-0.6-0.3-0.6-0.6C139.2,100.2,139.5,99.9,139.8,99.9z M145.7,91.4c1.2,0,2,0.5,2.6,1.2l-0.5,0.6
		c-0.5-0.6-1-1.1-2.1-1.1c-2,0-2.8,2.1-2.8,4.2c0,0.1,0,0.3,0,0.4c0.4-0.7,1.5-1.6,2.8-1.6c1.7,0,3,1,3,3c0,1.5-1.2,3-3.2,3
		c-2.6,0-3.5-2.4-3.5-4.9C142,93.9,143.1,91.4,145.7,91.4z M145.5,95.9c-1,0-2,0.7-2.6,1.6c0.1,1.3,0.8,2.9,2.6,2.9
		c1.6,0,2.4-1.3,2.4-2.3C147.9,96.6,146.9,95.9,145.5,95.9z M151.1,99.1c0.5,0.8,1.4,1.3,2.7,1.3c1.5,0,2.4-0.8,2.4-2
		c0-1.4-1.1-1.9-2.5-1.9c-0.4,0-0.7,0-0.9,0v-0.8c0.1,0,0.5,0,0.9,0c1.3,0,2.4-0.5,2.4-1.8c0-1.2-1.1-1.8-2.3-1.8
		c-1.1,0-1.8,0.4-2.5,1.2l-0.5-0.5c0.7-0.8,1.7-1.4,3.1-1.4c1.6,0,3.1,0.9,3.1,2.5c0,1.4-1.2,2.1-2,2.2c0.8,0.1,2.2,0.8,2.2,2.4
		s-1.2,2.7-3.2,2.7c-1.5,0-2.7-0.7-3.2-1.6L151.1,99.1z"/>
	<path class="st4" d="M62.6,132.7c2.5,0,3.5,2.6,3.5,4.9c0,2.2-1,4.9-3.5,4.9s-3.5-2.7-3.5-4.9S60,132.7,62.6,132.7z M62.6,133.5
		c-2,0-2.6,2.2-2.6,4.1c0,1.9,0.7,4.2,2.6,4.2c1.9,0,2.6-2.2,2.6-4.2C65.2,135.7,64.6,133.5,62.6,133.5z M68.2,141.2
		c0.3,0,0.6,0.3,0.6,0.6s-0.3,0.6-0.6,0.6c-0.3,0-0.6-0.3-0.6-0.6C67.5,141.5,67.8,141.2,68.2,141.2z M70.8,142.4v-0.7
		c3.2-2.6,5.4-4.4,5.4-6.3c0-1.4-1.1-1.9-2.2-1.9c-1.2,0-2.1,0.5-2.6,1.2l-0.6-0.5c0.7-0.9,1.8-1.5,3.2-1.5c1.4,0,3,0.8,3,2.7
		c0,2.1-2.2,4-4.9,6.2h5v0.7h-6.3V142.4z M80.3,142.4l4-8.7h-5.2V133h6.2v0.6l-4,8.9h-1V142.4z"/>
	<path class="st4" d="M234.2,23.8v-8.4l-2.2,2.4l-0.5-0.5l2.8-3h0.7v9.5H234.2z M238.8,22.7c0.3,0,0.6,0.3,0.6,0.6s-0.3,0.6-0.6,0.6
		s-0.6-0.3-0.6-0.6C238.2,23,238.5,22.7,238.8,22.7z M241.9,21.9c0.5,0.8,1.4,1.3,2.7,1.3c1.5,0,2.4-0.8,2.4-2
		c0-1.4-1.1-1.9-2.5-1.9c-0.4,0-0.7,0-0.9,0v-0.8c0.1,0,0.5,0,0.9,0c1.3,0,2.4-0.5,2.4-1.8c0-1.2-1.1-1.8-2.3-1.8
		c-1.1,0-1.8,0.4-2.5,1.2l-0.5-0.5c0.7-0.8,1.7-1.4,3.1-1.4c1.6,0,3.1,0.9,3.1,2.5c0,1.4-1.2,2.1-2,2.2c0.8,0.1,2.2,0.8,2.2,2.4
		c0,1.6-1.2,2.7-3.2,2.7c-1.5,0-2.7-0.7-3.2-1.6L241.9,21.9z M252.2,18.9c-1.1-0.3-2.2-1-2.2-2.3c0-1.7,1.6-2.4,3.1-2.4
		s3.1,0.8,3.1,2.4c0,1.3-1.1,2-2.2,2.3c1.2,0.3,2.3,1.2,2.3,2.5c0,1.5-1.4,2.5-3.2,2.5s-3.2-1-3.2-2.5
		C249.8,20.1,251,19.3,252.2,18.9z M253,19.3c-0.6,0.1-2.4,0.6-2.4,2.1c0,1.2,1.1,1.9,2.4,1.9c1.2,0,2.4-0.7,2.4-1.9
		C255.4,19.9,253.6,19.4,253,19.3z M253,14.9c-1.3,0-2.2,0.7-2.2,1.8c0,1.3,1.7,1.7,2.2,1.9c0.6-0.1,2.2-0.5,2.2-1.9
		C255.3,15.6,254.3,14.9,253,14.9z"/>
	<path class="st1" d="M3.3,143.5c2.4,0,3.3,2.5,3.3,4.6s-0.9,4.6-3.3,4.6S0,150.2,0,148.1C0,146,0.9,143.5,3.3,143.5z M3.3,144.2
		c-1.9,0-2.5,2.1-2.5,3.9c0,1.8,0.6,3.9,2.5,3.9s2.5-2.1,2.5-3.9C5.8,146.3,5.2,144.2,3.3,144.2z M8.6,151.5c0.3,0,0.6,0.3,0.6,0.6
		s-0.3,0.6-0.6,0.6S8,152.4,8,152.1C8,151.8,8.2,151.5,8.6,151.5z M11.5,150.8c0.5,0.7,1.4,1.2,2.5,1.2c1.4,0,2.2-0.7,2.2-1.9
		c0-1.3-1.1-1.8-2.4-1.8c-0.4,0-0.7,0-0.8,0v-0.7c0.1,0,0.5,0,0.8,0c1.2,0,2.3-0.5,2.3-1.7c0-1.1-1-1.7-2.1-1.7
		c-1,0-1.7,0.4-2.4,1.1l-0.5-0.5c0.6-0.8,1.6-1.3,2.9-1.3c1.5,0,2.9,0.8,2.9,2.3c0,1.4-1.1,1.9-1.9,2.1c0.8,0.1,2,0.7,2,2.2
		s-1.1,2.5-3,2.5c-1.5,0-2.5-0.7-3-1.5L11.5,150.8z"/>
	<path class="st4" d="M284.8,52.6c2.5,0,3.5,2.6,3.5,4.9c0,2.2-1,4.9-3.5,4.9s-3.5-2.7-3.5-4.9C281.3,55.3,282.2,52.6,284.8,52.6z
		 M284.8,53.4c-2,0-2.6,2.2-2.6,4.1s0.7,4.2,2.6,4.2c2,0,2.6-2.2,2.6-4.2C287.4,55.6,286.8,53.4,284.8,53.4z M290.4,61.2
		c0.3,0,0.6,0.3,0.6,0.6c0,0.3-0.3,0.6-0.6,0.6s-0.6-0.3-0.6-0.6C289.7,61.4,290,61.2,290.4,61.2z M293.6,60.6
		c0.5,0.6,1.1,1.1,2.1,1.1c2.1,0,2.8-2.2,2.8-4.2c0-0.1,0-0.3,0-0.4c-0.4,0.7-1.5,1.6-2.8,1.6c-1.7,0-3.1-1-3.1-3c0-1.5,1.2-3,3.2-3
		c2.6,0,3.5,2.4,3.5,4.9c0,2.4-1,4.9-3.6,4.9c-1.2,0-2-0.5-2.6-1.2L293.6,60.6z M295.9,53.4c-1.6,0-2.4,1.3-2.4,2.3
		c0,1.5,1,2.3,2.4,2.3c1,0,2-0.7,2.6-1.6C298.3,55,297.6,53.4,295.9,53.4z M302.2,62.3l4-8.7H301v-0.7h6.2v0.5l-4,8.9H302.2z"/>
	<line class="st5" x1="38" y1="148.9" x2="399.2" y2="148.9"/>
	<line class="st5" x1="38" y1="113" x2="399.2" y2="113"/>
	<line class="st5" x1="38" y1="77" x2="399.2" y2="77"/>
	<line class="st5" x1="38" y1="41.1" x2="399.2" y2="41.1"/>
	<line class="st5" x1="38" y1="5.2" x2="399.2" y2="5.2"/>
	<rect x="69.4" y="149.3" class="st3" width="5.9" height="5.9"/>
	<path class="st6" d="M358.5,101.3c0-2.4,1.2-4.9,3.9-4.9c2.7,0,3.9,2.4,3.9,4.9s-1.2,4.9-3.9,4.9S358.5,103.8,358.5,101.3z
		 M364.3,101.3c0-1.7-0.5-3.1-1.9-3.1c-1.3,0-1.9,1.3-1.9,3.1c0,1.7,0.5,3.1,1.9,3.1S364.3,103.1,364.3,101.3z M367.3,105.1
		c0-0.6,0.5-1.2,1.2-1.2s1.2,0.5,1.2,1.2c0,0.6-0.5,1.2-1.2,1.2S367.3,105.7,367.3,105.1z M370.9,103.6c0-1.2,0.9-2,2-2.4
		c-1.1-0.4-1.9-1.1-1.9-2.2c0-1.8,1.9-2.5,3.7-2.5c1.7,0,3.7,0.7,3.7,2.5c0,1.2-0.8,1.9-1.9,2.2c1.1,0.4,2,1.3,2,2.4
		c0,1.8-1.8,2.6-3.8,2.6S370.9,105.4,370.9,103.6z M376.5,103.3c0-0.8-1.2-1.2-1.8-1.2c-0.6,0.1-1.8,0.5-1.8,1.2s0.8,1.1,1.8,1.1
		C375.7,104.5,376.5,104,376.5,103.3z M376.3,99.3c0-0.7-0.7-1.1-1.6-1.1s-1.6,0.4-1.6,1.1s1,1,1.6,1.1
		C375.3,100.3,376.3,100,376.3,99.3z M383,106.1v-6.9l-1.6,1.6l-1.2-1.2l3-3h1.8v9.5H383z"/>
</g>
</svg>
