<?xml version="1.0" encoding="utf-8"?>
<!-- Generator: Adobe Illustrator 26.4.0, SVG Export Plug-In . SVG Version: 6.00 Build 0)  -->
<svg version="1.1" id="Layer_1" xmlns="http://www.w3.org/2000/svg" xmlns:xlink="http://www.w3.org/1999/xlink" x="0px" y="0px"
	 viewBox="0 0 372.4 220.5" style="enable-background:new 0 0 372.4 220.5;" xml:space="preserve">
<style type="text/css">
	.st0{fill:#0069AA;}
	.st1{fill:#9ACA3E;}
	.st2{fill:#15BFF1;}
	.st3{clip-path:url(#SVGID_00000079449607963964596860000008931012899246908597_);fill:#9ACA3E;}
	.st4{filter:url(#Adobe_OpacityMaskFilter);}
	.st5{fill:url(#SVGID_00000044148506983080120260000003683882593330918055_);}
	.st6{mask:url(#SVGID_00000060008843376095584570000011045045132475663256_);}
	.st7{clip-path:url(#SVGID_00000021837746151199179240000014620304745539509632_);fill:#15BFF1;}
	.st8{fill:none;stroke:#FFFFFF;}
	.st9{filter:url(#Adobe_OpacityMaskFilter_00000034812472932567673410000016982505944842633389_);}
	.st10{fill:url(#SVGID_00000070097022812395575050000005541235666424615088_);}
	.st11{mask:url(#SVGID_00000036933613214229729160000002933366863249268397_);}
	.st12{clip-path:url(#SVGID_00000158732340709736088560000007017237238014921634_);fill:#CBE19C;}
	.st13{filter:url(#Adobe_OpacityMaskFilter_00000046324827331554883230000005721160586662109355_);}
	.st14{fill:url(#SVGID_00000108296976021281967930000003144254647528504711_);}
	.st15{mask:url(#SVGID_00000176726580799232127940000014254875627343360191_);}
	.st16{clip-path:url(#SVGID_00000147910698091047099470000012537010711918117558_);fill:#9EDDF9;}
	.st17{filter:url(#Adobe_OpacityMaskFilter_00000128473166456931133510000005534467103003819440_);}
	.st18{fill:url(#SVGID_00000181770912068001983300000009335117837111551679_);}
	.st19{mask:url(#SVGID_00000094591036640825860380000010599778187002574991_);}
	.st20{clip-path:url(#SVGID_00000050631933312852816180000015652202762690924165_);fill:#CBE19C;}
	.st21{filter:url(#Adobe_OpacityMaskFilter_00000152943839838166344400000016939163226728385428_);}
	.st22{fill:url(#SVGID_00000099637683781201920230000000394576071087999362_);}
	.st23{mask:url(#SVGID_00000072973081587311339750000008682516243961957044_);}
	.st24{clip-path:url(#SVGID_00000157280977988584495880000003006569098990416007_);fill:#9EDDF9;}
	.st25{filter:url(#Adobe_OpacityMaskFilter_00000116233180701936914380000007678794055952608136_);}
	.st26{fill:url(#SVGID_00000069393240482744684340000000962234902185566873_);}
	.st27{mask:url(#SVGID_00000047769590677507008040000007970157857599345566_);}
	.st28{clip-path:url(#SVGID_00000009557770424723976130000011885693363133917858_);fill:#CBE19C;}
	.st29{filter:url(#Adobe_OpacityMaskFilter_00000121984585043895755700000005480181781337408931_);}
	.st30{fill:url(#SVGID_00000080910414309237450010000013926008133987915418_);}
	.st31{mask:url(#SVGID_00000128467157227540683080000006868127625103237309_);}
	.st32{clip-path:url(#SVGID_00000132077911112432492970000013825852667551373737_);fill:#9EDDF9;}
	.st33{filter:url(#Adobe_OpacityMaskFilter_00000116226974840396742900000010725841207273979305_);}
	.st34{fill:url(#SVGID_00000160187953263947070060000013946847855964178836_);}
	.st35{mask:url(#SVGID_00000065764592694782595630000013968361619354602932_);}
	.st36{clip-path:url(#SVGID_00000117641940659264016570000004656927909369856416_);fill:#CBE19C;}
	.st37{filter:url(#Adobe_OpacityMaskFilter_00000127027760987117815540000002453738187926633113_);}
	.st38{fill:url(#SVGID_00000053508193184693574840000016744541304124920709_);}
	.st39{mask:url(#SVGID_00000103246533958489509920000013023744628202136497_);}
	.st40{clip-path:url(#SVGID_00000023966858591666806300000000286466444788041124_);fill:#9EDDF9;}
</style>
<g>
	<path class="st0" d="M3.7,220.4v-1.1c3.6-2.8,5.3-4.2,5.3-5.8c0-1.1-1-1.6-1.9-1.6c-1.2,0-2.1,0.5-2.6,1.2l-0.9-0.9
		c0.8-1,2.1-1.5,3.5-1.5c1.8,0,3.4,1,3.4,2.9s-1.8,3.6-4.5,5.6h4.5v1.3L3.7,220.4L3.7,220.4z M16,210.5c2.7,0,3.8,2.6,3.8,5
		s-1.1,5-3.8,5s-3.8-2.6-3.8-5C12.2,213.1,13.3,210.5,16,210.5z M16,211.8c-1.7,0-2.3,1.8-2.3,3.7s0.6,3.7,2.3,3.7
		c1.7,0,2.3-1.8,2.3-3.7S17.7,211.8,16,211.8z M21.2,220.4v-1.1c3.6-2.8,5.3-4.2,5.3-5.8c0-1.1-1-1.6-1.9-1.6
		c-1.2,0-2.1,0.5-2.6,1.2l-0.9-0.9c0.8-1,2.1-1.5,3.5-1.5c1.8,0,3.4,1,3.4,2.9s-1.8,3.6-4.5,5.6H28v1.3L21.2,220.4L21.2,220.4z
		 M33,220.4v-7.8l-1.8,1.9l-0.9-0.9l2.8-2.9h1.3v9.7H33z M37.5,217.4v-1.1H41v1.1H37.5z M42.1,220.4v-1.1c3.6-2.8,5.3-4.2,5.3-5.8
		c0-1.1-1-1.6-1.9-1.6c-1.2,0-2.1,0.5-2.6,1.2l-0.9-0.9c0.8-1,2.1-1.5,3.5-1.5c1.8,0,3.4,1,3.4,2.9s-1.8,3.6-4.5,5.6h4.5v1.3
		L42.1,220.4L42.1,220.4z M50.9,220.4v-1.1c3.6-2.8,5.3-4.2,5.3-5.8c0-1.1-1-1.6-1.9-1.6c-1.2,0-2.1,0.5-2.6,1.2l-0.9-0.9
		c0.8-1,2.1-1.5,3.5-1.5c1.8,0,3.4,1,3.4,2.9s-1.8,3.6-4.5,5.6h4.5v1.3L50.9,220.4L50.9,220.4z"/>
	<path d="M83.1,220.3v-0.7c3.3-2.7,5.5-4.6,5.5-6.4c0-1.4-1.1-2-2.2-2c-1.2,0-2.1,0.5-2.7,1.3l-0.6-0.5c0.7-0.9,1.9-1.5,3.2-1.5
		c1.4,0,3.1,0.8,3.1,2.7c0,2.1-2.3,4.1-5.1,6.4h5.1v0.8h-6.3V220.3z M95.1,210.4c2.6,0,3.6,2.7,3.6,5s-1,5-3.6,5s-3.6-2.7-3.6-5
		C91.5,213.1,92.4,210.4,95.1,210.4z M95.1,211.2c-2,0-2.7,2.2-2.7,4.2s0.7,4.3,2.7,4.3s2.7-2.3,2.7-4.3S97.1,211.2,95.1,211.2z
		 M100.2,220.3v-0.7c3.3-2.7,5.5-4.6,5.5-6.4c0-1.4-1.1-2-2.2-2c-1.2,0-2.1,0.5-2.7,1.3l-0.6-0.5c0.7-0.9,1.9-1.5,3.2-1.5
		c1.4,0,3.1,0.8,3.1,2.7c0,2.1-2.3,4.1-5.1,6.4h5.1v0.8h-6.3V220.3z M112.2,210.4c2.6,0,3.6,2.7,3.6,5s-1,5-3.6,5s-3.6-2.7-3.6-5
		C108.6,213.1,109.6,210.4,112.2,210.4z M112.2,211.2c-2,0-2.7,2.2-2.7,4.2s0.7,4.3,2.7,4.3s2.7-2.3,2.7-4.3
		S114.3,211.2,112.2,211.2z M117.6,217.1v-0.7h3.5v0.7H117.6z M122.2,220.3v-0.7c3.3-2.7,5.5-4.6,5.5-6.4c0-1.4-1.1-2-2.2-2
		c-1.2,0-2.1,0.5-2.7,1.3l-0.6-0.5c0.7-0.9,1.9-1.5,3.2-1.5c1.4,0,3.1,0.8,3.1,2.7c0,2.1-2.3,4.1-5.1,6.4h5.1v0.8h-6.3V220.3z
		 M134,220.3v-8.6l-2.3,2.5l-0.5-0.5l2.9-3.1h0.8v9.7L134,220.3L134,220.3z"/>
	<path d="M160.4,220.2v-0.7c3.3-2.7,5.5-4.6,5.5-6.4c0-1.4-1.1-2-2.2-2c-1.2,0-2.1,0.5-2.7,1.3l-0.6-0.5c0.7-0.9,1.9-1.5,3.2-1.5
		c1.4,0,3.1,0.8,3.1,2.7c0,2.1-2.3,4.1-5.1,6.4h5.1v0.8h-6.3V220.2z M172.4,210.4c2.6,0,3.6,2.7,3.6,5s-1,5-3.6,5s-3.6-2.7-3.6-5
		C168.8,213.1,169.8,210.4,172.4,210.4z M172.4,211.1c-2,0-2.7,2.2-2.7,4.2s0.7,4.3,2.7,4.3s2.7-2.3,2.7-4.3
		C175.1,213.4,174.4,211.1,172.4,211.1z M181.1,220.2v-8.6l-2.3,2.5l-0.5-0.5l2.9-3.1h0.8v9.7L181.1,220.2L181.1,220.2z
		 M186.2,218.5c0.5,0.6,1.1,1.1,2.1,1.1c2.1,0,2.9-2.2,2.9-4.3c0-0.1,0-0.3,0-0.5c-0.4,0.7-1.5,1.6-2.8,1.6c-1.7,0-3.1-1-3.1-3.1
		c0-1.6,1.2-3.1,3.3-3.1c2.6,0,3.6,2.4,3.6,5c0,2.5-1,5-3.7,5c-1.3,0-2-0.5-2.6-1.2L186.2,218.5z M188.5,211.1
		c-1.7,0-2.4,1.3-2.4,2.3c0,1.6,1,2.3,2.4,2.3c1.1,0,2.1-0.7,2.6-1.7C191,212.8,190.3,211.1,188.5,211.1z M194,217v-0.7h3.5v0.7H194
		z M198.6,220.2v-0.7c3.3-2.7,5.5-4.6,5.5-6.4c0-1.4-1.1-2-2.2-2c-1.2,0-2.1,0.5-2.7,1.3l-0.6-0.5c0.7-0.9,1.9-1.5,3.2-1.5
		c1.4,0,3.1,0.8,3.1,2.7c0,2.1-2.3,4.1-5.1,6.4h5.1v0.8h-6.3V220.2z M210.5,210.4c2.6,0,3.6,2.7,3.6,5s-1,5-3.6,5s-3.6-2.7-3.6-5
		C206.9,213.1,207.9,210.4,210.5,210.4z M210.5,211.1c-2,0-2.7,2.2-2.7,4.2s0.7,4.3,2.7,4.3s2.7-2.3,2.7-4.3
		C213.2,213.4,212.6,211.1,210.5,211.1z"/>
	<path d="M241.6,220.1v-0.7c3.3-2.7,5.5-4.6,5.5-6.4c0-1.4-1.1-2-2.2-2c-1.2,0-2.1,0.5-2.7,1.3l-0.6-0.5c0.7-0.9,1.9-1.5,3.2-1.5
		c1.4,0,3.1,0.8,3.1,2.7c0,2.1-2.3,4.1-5.1,6.4h5.1v0.8h-6.3V220.1z M253.6,210.3c2.6,0,3.6,2.7,3.6,5s-1,5-3.6,5
		c-2.6,0-3.6-2.7-3.6-5C250,213,251,210.3,253.6,210.3z M253.6,211c-2,0-2.7,2.2-2.7,4.2s0.7,4.3,2.7,4.3s2.7-2.3,2.7-4.3
		C256.3,213.3,255.6,211,253.6,211z M262.3,220.1v-8.6L260,214l-0.5-0.5l2.9-3.1h0.8v9.7L262.3,220.1L262.3,220.1z M268.9,215.1
		c-1.1-0.3-2.3-1-2.3-2.3c0-1.7,1.6-2.5,3.1-2.5s3.1,0.8,3.1,2.5c0,1.3-1.1,2-2.3,2.3c1.2,0.3,2.4,1.2,2.4,2.6
		c0,1.6-1.4,2.6-3.3,2.6s-3.3-1-3.3-2.6C266.5,216.3,267.7,215.5,268.9,215.1z M269.8,215.5c-0.6,0.1-2.5,0.7-2.5,2.1
		c0,1.2,1.2,1.9,2.5,1.9s2.5-0.7,2.5-1.9C272.3,216.2,270.4,215.6,269.8,215.5z M269.8,211c-1.3,0-2.3,0.7-2.3,1.8
		c0,1.4,1.7,1.8,2.3,1.9c0.6-0.1,2.3-0.6,2.3-1.9C272.1,211.7,271.1,211,269.8,211z M275,217v-0.7h3.5v0.7H275z M282.9,220.1v-8.6
		l-2.3,2.5l-0.5-0.5l2.9-3.1h0.8v9.7L282.9,220.1L282.9,220.1z M287.9,218.5c0.5,0.6,1.1,1.1,2.1,1.1c2.1,0,2.9-2.2,2.9-4.3
		c0-0.1,0-0.3,0-0.5c-0.4,0.7-1.5,1.6-2.8,1.6c-1.7,0-3.1-1-3.1-3.1c0-1.6,1.2-3.1,3.3-3.1c2.6,0,3.6,2.4,3.6,5c0,2.5-1,5-3.7,5
		c-1.3,0-2-0.5-2.6-1.2L287.9,218.5z M290.3,211c-1.7,0-2.4,1.3-2.4,2.3c0,1.6,1,2.3,2.4,2.3c1.1,0,2.1-0.7,2.6-1.7
		C292.8,212.7,292.1,211,290.3,211z"/>
	<path d="M321.7,220.3v-0.7c3.3-2.7,5.5-4.6,5.5-6.4c0-1.4-1.1-2-2.2-2c-1.2,0-2.1,0.5-2.7,1.3l-0.6-0.5c0.7-0.9,1.9-1.5,3.2-1.5
		c1.4,0,3.1,0.8,3.1,2.7c0,2.1-2.3,4.1-5.1,6.4h5.1v0.8h-6.3V220.3z M333.6,210.4c2.6,0,3.6,2.7,3.6,5s-1,5-3.6,5s-3.6-2.7-3.6-5
		C330,213.1,331,210.4,333.6,210.4z M333.6,211.2c-2,0-2.7,2.2-2.7,4.2s0.7,4.3,2.7,4.3s2.7-2.3,2.7-4.3S335.7,211.2,333.6,211.2z
		 M342.3,220.3v-8.6l-2.3,2.5l-0.5-0.5l2.9-3.1h0.8v9.7L342.3,220.3L342.3,220.3z M347.8,220.3l4.1-8.9h-5.4v-0.8h6.3v0.6l-4.1,9.1
		L347.8,220.3L347.8,220.3z M353.9,217.1v-0.7h3.5v0.7H353.9z M361.7,220.3v-8.6l-2.3,2.5l-0.5-0.5l2.9-3.1h0.8v9.7L361.7,220.3
		L361.7,220.3z M368.4,215.3c-1.1-0.3-2.3-1-2.3-2.3c0-1.7,1.6-2.5,3.1-2.5s3.1,0.8,3.1,2.5c0,1.3-1.1,2-2.3,2.3
		c1.2,0.3,2.4,1.2,2.4,2.6c0,1.6-1.4,2.6-3.3,2.6s-3.3-1-3.3-2.6C366,216.5,367.2,215.6,368.4,215.3z M369.3,215.7
		c-0.6,0.1-2.5,0.7-2.5,2.1c0,1.2,1.2,1.9,2.5,1.9s2.5-0.7,2.5-1.9C371.8,216.3,369.9,215.7,369.3,215.7z M369.3,211.2
		c-1.3,0-2.3,0.7-2.3,1.8c0,1.4,1.7,1.8,2.3,1.9c0.6-0.1,2.3-0.6,2.3-1.9C371.6,211.9,370.6,211.2,369.3,211.2z"/>
	<g>
		<path class="st1" d="M4.6,9.8l1-1.7c0.6,0.5,1.1,0.8,2.1,0.8c1.7,0,2.6-1.4,2.6-2.9c0-0.1,0-0.2,0-0.2C9.8,6.5,8.8,7.1,7.6,7.1
			c-1.9,0-3.5-1.2-3.5-3.4c0-2,1.6-3.5,4-3.5c3.1,0,4.5,2.4,4.5,5.3c0,3.1-1.8,5.3-4.8,5.3C6.4,10.8,5.3,10.4,4.6,9.8z M10.2,4.2
			c-0.1-1-0.7-2.1-2.1-2.1c-1.2,0-1.8,0.8-1.8,1.5c0,1.1,0.9,1.5,1.9,1.5C9,5.2,9.7,4.8,10.2,4.2z M13.8,5.5c0-2.7,1.3-5.3,4.3-5.3
			s4.3,2.7,4.3,5.3s-1.3,5.3-4.3,5.3S13.8,8.2,13.8,5.5z M20.2,5.5c0-1.9-0.5-3.4-2-3.4s-2,1.5-2,3.4s0.6,3.4,2,3.4
			C19.6,8.9,20.2,7.4,20.2,5.5z M23.4,9.6c0-0.7,0.6-1.3,1.3-1.3S26,8.9,26,9.6s-0.6,1.3-1.3,1.3C24,10.8,23.4,10.3,23.4,9.6z
			 M27,5.5c0-3.1,1.8-5.3,4.8-5.3c1.3,0,2.3,0.4,3.1,1.1l-1,1.7c-0.6-0.5-1.1-0.8-2.1-0.8c-1.5,0-2.6,1.3-2.6,2.9c0,0.1,0,0.1,0,0.2
			C29.7,4.6,30.7,4,31.9,4c1.9,0,3.5,1.2,3.5,3.4c0,2-1.6,3.5-4,3.5C28.3,10.9,27,8.4,27,5.5z M33.2,7.4c0-1.1-0.9-1.5-1.9-1.5
			c-0.8,0-1.5,0.4-2,1C29.4,7.9,30,9,31.4,9C32.5,8.9,33.2,8.1,33.2,7.4z M36.9,10.7V8.9c4.2-3.1,5.5-4.2,5.5-5.5
			c0-0.9-0.8-1.3-1.7-1.3c-1.2,0-2.1,0.5-2.8,1.2l-1.3-1.5c1-1.2,2.5-1.7,4-1.7c2.2,0,4,1.2,4,3.3c0,1.8-1.5,3.3-4.1,5.3h4.2v1.9
			h-7.8V10.7z"/>
		<path class="st2" d="M4.1,27.3c0-1.3,1-2.2,2.2-2.7c-1.1-0.4-2-1.1-2-2.4c0-2,2.1-2.7,4-2.7s4,0.8,4,2.7c0,1.3-0.9,2-2,2.4
			c1.2,0.4,2.2,1.4,2.2,2.7c0,1.9-2,2.9-4.2,2.9S4.1,29.2,4.1,27.3z M10.1,27c0-0.9-1.3-1.3-1.9-1.3c-0.6,0.1-1.9,0.5-1.9,1.3
			c0,0.7,0.8,1.2,1.9,1.2S10.1,27.8,10.1,27z M9.9,22.6c0-0.7-0.7-1.1-1.7-1.1s-1.8,0.4-1.8,1.1c0,0.8,1.1,1.1,1.8,1.2
			C8.8,23.7,9.9,23.4,9.9,22.6z M13.6,24.8c0-2.7,1.3-5.3,4.3-5.3s4.3,2.7,4.3,5.3s-1.3,5.3-4.3,5.3S13.6,27.5,13.6,24.8z
			 M19.9,24.8c0-1.9-0.5-3.4-2-3.4s-2,1.5-2,3.4s0.6,3.4,2,3.4C19.3,28.2,19.9,26.8,19.9,24.8z M23.2,28.9c0-0.7,0.6-1.3,1.3-1.3
			s1.3,0.6,1.3,1.3c0,0.7-0.6,1.3-1.3,1.3S23.2,29.6,23.2,28.9z M27.6,30v-1.7c4.2-3.1,5.5-4.2,5.5-5.5c0-0.9-0.8-1.3-1.7-1.3
			c-1.2,0-2.1,0.5-2.8,1.2l-1.3-1.5c1-1.2,2.5-1.7,4-1.7c2.2,0,4,1.2,4,3.3c0,1.8-1.5,3.3-4.1,5.3h4.2V30H27.6z M40.5,30v-7.5
			l-1.7,1.8L37.5,23l3.3-3.3h1.9V30H40.5z"/>
		<g>
			<g>
				<g>
					<defs>
						<rect id="SVGID_1_" y="36.4" width="26.5" height="167.5"/>
					</defs>
					<clipPath id="SVGID_00000101091938423351699460000009471812790550352534_">
						<use xlink:href="#SVGID_1_"  style="overflow:visible;"/>
					</clipPath>
					
						<rect x="13.6" y="44.4" style="clip-path:url(#SVGID_00000101091938423351699460000009471812790550352534_);fill:#9ACA3E;" width="11" height="151.4"/>
				</g>
			</g>
		</g>
		<defs>
			<filter id="Adobe_OpacityMaskFilter" filterUnits="userSpaceOnUse" x="20.6" y="53" width="26.5" height="150.9">
				<feColorMatrix  type="matrix" values="1 0 0 0 0  0 1 0 0 0  0 0 1 0 0  0 0 0 1 0"/>
			</filter>
		</defs>
		
			<mask maskUnits="userSpaceOnUse" x="20.6" y="53" width="26.5" height="150.9" id="SVGID_00000060008843376095584570000011045045132475663256_">
			<g class="st4">
				
					<linearGradient id="SVGID_00000038401596994404310460000003426888809089045130_" gradientUnits="userSpaceOnUse" x1="-162.6069" y1="-163.7396" x2="-161.7153" y2="-163.7396" gradientTransform="matrix(-2.000000e-15 36.6603 -36.6603 -2.000000e-15 -6311.292 6124.397)">
					<stop  offset="0" style="stop-color:#FFFFFF"/>
					<stop  offset="1" style="stop-color:#000000"/>
				</linearGradient>
				
					<rect x="-1124.5" y="-252.9" style="fill:url(#SVGID_00000038401596994404310460000003426888809089045130_);" width="1631.9" height="530.8"/>
			</g>
		</mask>
		<g class="st6">
			<g>
				<g>
					<defs>
						<rect id="SVGID_00000153700949445001572770000012445665250327451038_" x="20.6" y="53" width="26.5" height="150.9"/>
					</defs>
					<clipPath id="SVGID_00000052809390454644561140000011886643529386897071_">
						<use xlink:href="#SVGID_00000153700949445001572770000012445665250327451038_"  style="overflow:visible;"/>
					</clipPath>
					
						<rect x="34.2" y="61" style="clip-path:url(#SVGID_00000052809390454644561140000011886643529386897071_);fill:#15BFF1;" width="11" height="134.9"/>
				</g>
			</g>
		</g>
		<line class="st8" x1="19.1" y1="195.9" x2="19.1" y2="44.4"/>
		<line class="st8" x1="39.7" y1="195.9" x2="39.7" y2="50.7"/>
	</g>
	<g>
		<g>
			<path class="st1" d="M81.7,5.3c-1.2-0.3-2.3-1.1-2.3-2.5c0-1.9,1.8-2.7,3.5-2.7s3.5,0.8,3.5,2.7c0,1.4-1.1,2.1-2.3,2.5
				c1.3,0.4,2.5,1.3,2.5,2.7c0,1.8-1.7,2.8-3.7,2.8s-3.7-1-3.7-2.8C79.2,6.7,80.4,5.7,81.7,5.3z M82.9,5.9c-0.6,0.1-2.4,0.7-2.4,2
				c0,1.1,1.1,1.8,2.4,1.8s2.4-0.7,2.4-1.8C85.3,6.6,83.5,6,82.9,5.9z M82.9,1.3c-1.3,0-2.2,0.6-2.2,1.7c0,1.3,1.6,1.7,2.2,1.8
				c0.6-0.1,2.2-0.5,2.2-1.8C85.1,2,84.1,1.3,82.9,1.3z M89.6,8.6c0.5,0.6,1.1,1.1,2.2,1.1c2.1,0,2.9-2.1,2.9-4V5.2
				c-0.5,0.7-1.6,1.6-2.9,1.6c-1.9,0-3.4-1.1-3.4-3.3c0-1.8,1.4-3.4,3.6-3.4c2.9,0,4,2.5,4,5.3s-1.3,5.3-4.2,5.3
				c-1.3,0-2.2-0.5-2.9-1.2L89.6,8.6z M92.1,1.3c-1.6,0-2.4,1.2-2.4,2.2c0,1.5,1.1,2.2,2.4,2.2c1,0,2-0.6,2.6-1.5
				C94.6,2.9,93.9,1.3,92.1,1.3z M98.4,9.1c0.5,0,0.9,0.4,0.9,0.9s-0.4,0.9-0.9,0.9s-0.9-0.4-0.9-0.9S97.9,9.1,98.4,9.1z M102,10.7
				l4.2-9.2h-5.6V0.3h7.1v0.9l-4.2,9.5H102z M112.6,10.7V2l-2.1,2.2l-0.8-0.8l3-3.1h1.1v10.3L112.6,10.7L112.6,10.7z"/>
			<path class="st2" d="M79.6,30l4.2-9.2h-5.6v-1.1h7.1v0.9L81,30H79.6z M89.5,24.7c-1.2-0.3-2.3-1.1-2.3-2.5c0-1.9,1.8-2.7,3.5-2.7
				s3.5,0.8,3.5,2.7c0,1.4-1.1,2.1-2.3,2.5c1.3,0.4,2.5,1.3,2.5,2.7c0,1.8-1.7,2.8-3.7,2.8s-3.7-1-3.7-2.8
				C87.1,26,88.3,25.1,89.5,24.7z M90.8,25.2c-0.6,0.1-2.4,0.7-2.4,2c0,1.1,1.1,1.8,2.4,1.8s2.4-0.7,2.4-1.8
				C93.2,25.9,91.4,25.3,90.8,25.2z M90.8,20.7c-1.3,0-2.2,0.6-2.2,1.7c0,1.3,1.6,1.7,2.2,1.8c0.6-0.1,2.2-0.5,2.2-1.8
				C93,21.3,92,20.7,90.8,20.7z M97.2,28.5c0.5,0,0.9,0.4,0.9,0.9s-0.4,0.9-0.9,0.9s-0.9-0.4-0.9-0.9C96.3,28.8,96.7,28.5,97.2,28.5
				z M102.3,24.7c-1.2-0.3-2.3-1.1-2.3-2.5c0-1.9,1.8-2.7,3.5-2.7s3.5,0.8,3.5,2.7c0,1.4-1.1,2.1-2.3,2.5c1.3,0.4,2.5,1.3,2.5,2.7
				c0,1.8-1.7,2.8-3.7,2.8s-3.7-1-3.7-2.8C99.8,26,101,25.1,102.3,24.7z M103.5,25.2c-0.6,0.1-2.4,0.7-2.4,2c0,1.1,1.1,1.8,2.4,1.8
				s2.4-0.7,2.4-1.8C105.9,25.9,104.1,25.3,103.5,25.2z M103.5,20.7c-1.3,0-2.2,0.6-2.2,1.7c0,1.3,1.6,1.7,2.2,1.8
				c0.6-0.1,2.2-0.5,2.2-1.8C105.7,21.3,104.7,20.7,103.5,20.7z M110.5,30l4.2-9.2h-5.6v-1.1h7.1v0.9l-4.2,9.5L110.5,30L110.5,30z"
				/>
		</g>
		<defs>
			
				<filter id="Adobe_OpacityMaskFilter_00000074437619123383830410000010173070255040523151_" filterUnits="userSpaceOnUse" x="76.3" y="37.8" width="26.5" height="166.1">
				<feColorMatrix  type="matrix" values="1 0 0 0 0  0 1 0 0 0  0 0 1 0 0  0 0 0 1 0"/>
			</filter>
		</defs>
		
			<mask maskUnits="userSpaceOnUse" x="76.3" y="37.8" width="26.5" height="166.1" id="SVGID_00000036933613214229729160000002933366863249268397_">
			<g style="filter:url(#Adobe_OpacityMaskFilter_00000074437619123383830410000010173070255040523151_);">
				
					<linearGradient id="SVGID_00000142865632377416083170000015922478163885792690_" gradientUnits="userSpaceOnUse" x1="-161.9481" y1="-165.6031" x2="-161.0565" y2="-165.6031" gradientTransform="matrix(-3.000000e-15 46.9103 -46.9103 -3.000000e-15 -8058.2407 7751.0708)">
					<stop  offset="0" style="stop-color:#FFFFFF"/>
					<stop  offset="1" style="stop-color:#000000"/>
				</linearGradient>
				
					<rect x="-1105.7" y="-252.9" style="fill:url(#SVGID_00000142865632377416083170000015922478163885792690_);" width="1631.9" height="530.8"/>
			</g>
		</mask>
		<g class="st11">
			<g>
				<g>
					<defs>
						<rect id="SVGID_00000123439131220322165860000009136596277727836032_" x="76.3" y="37.8" width="26.5" height="166.1"/>
					</defs>
					<clipPath id="SVGID_00000167356348431804371830000017023995867402730902_">
						<use xlink:href="#SVGID_00000123439131220322165860000009136596277727836032_"  style="overflow:visible;"/>
					</clipPath>
					
						<rect x="89.9" y="45.8" style="clip-path:url(#SVGID_00000167356348431804371830000017023995867402730902_);fill:#CBE19C;" width="11" height="150"/>
				</g>
			</g>
		</g>
		<defs>
			
				<filter id="Adobe_OpacityMaskFilter_00000102513045657455288860000016714238672187797918_" filterUnits="userSpaceOnUse" x="97" y="55.3" width="26.5" height="148.6">
				<feColorMatrix  type="matrix" values="1 0 0 0 0  0 1 0 0 0  0 0 1 0 0  0 0 0 1 0"/>
			</filter>
		</defs>
		
			<mask maskUnits="userSpaceOnUse" x="97" y="55.3" width="26.5" height="148.6" id="SVGID_00000176726580799232127940000014254875627343360191_">
			<g style="filter:url(#Adobe_OpacityMaskFilter_00000102513045657455288860000016714238672187797918_);">
				
					<linearGradient id="SVGID_00000077289424164480610530000013928435404619889338_" gradientUnits="userSpaceOnUse" x1="-162.1258" y1="-164.9078" x2="-161.2341" y2="-164.9078" gradientTransform="matrix(-3.000000e-15 43.6219 -43.6219 -3.000000e-15 -7483.3418 7229.2056)">
					<stop  offset="0" style="stop-color:#FFFFFF"/>
					<stop  offset="1" style="stop-color:#000000"/>
				</linearGradient>
				
					<rect x="-1105.7" y="-252.9" style="fill:url(#SVGID_00000077289424164480610530000013928435404619889338_);" width="1631.9" height="530.8"/>
			</g>
		</mask>
		<g class="st15">
			<g>
				<g>
					<defs>
						<rect id="SVGID_00000135686385726676454060000008384492033685865101_" x="97" y="55.3" width="26.5" height="148.6"/>
					</defs>
					<clipPath id="SVGID_00000165916405885025405460000015975729025436959152_">
						<use xlink:href="#SVGID_00000135686385726676454060000008384492033685865101_"  style="overflow:visible;"/>
					</clipPath>
					
						<rect x="110.5" y="63.3" style="clip-path:url(#SVGID_00000165916405885025405460000015975729025436959152_);fill:#9EDDF9;" width="11" height="132.5"/>
				</g>
			</g>
		</g>
		<line class="st8" x1="95.4" y1="195.9" x2="95.4" y2="42.8"/>
		<line class="st8" x1="116" y1="195.9" x2="116" y2="61.8"/>
	</g>
	<g>
		<path class="st1" d="M157.6,5.3c-1.2-0.3-2.3-1.1-2.3-2.5c0-1.9,1.8-2.7,3.5-2.7s3.5,0.8,3.5,2.7c0,1.4-1.1,2.1-2.3,2.5
			c1.3,0.4,2.5,1.3,2.5,2.7c0,1.8-1.7,2.8-3.7,2.8s-3.7-1-3.7-2.8C155.1,6.7,156.3,5.7,157.6,5.3z M158.8,5.9
			c-0.6,0.1-2.4,0.7-2.4,2c0,1.1,1.1,1.8,2.4,1.8c1.3,0,2.4-0.7,2.4-1.8C161.2,6.5,159.5,6,158.8,5.9z M158.8,1.3
			c-1.3,0-2.2,0.6-2.2,1.7c0,1.3,1.6,1.7,2.2,1.8c0.6-0.1,2.2-0.5,2.2-1.8C161.1,1.9,160.1,1.3,158.8,1.3z M167,5.3
			c-1.2-0.3-2.3-1.1-2.3-2.5c0-1.9,1.8-2.7,3.5-2.7s3.5,0.8,3.5,2.7c0,1.4-1.1,2.1-2.3,2.5c1.3,0.4,2.5,1.3,2.5,2.7
			c0,1.8-1.7,2.8-3.7,2.8s-3.7-1-3.7-2.8C164.5,6.7,165.7,5.7,167,5.3z M168.2,5.9c-0.6,0.1-2.4,0.7-2.4,2c0,1.1,1.1,1.8,2.4,1.8
			c1.3,0,2.4-0.7,2.4-1.8C170.6,6.5,168.9,6,168.2,5.9z M168.2,1.3c-1.3,0-2.2,0.6-2.2,1.7c0,1.3,1.6,1.7,2.2,1.8
			c0.6-0.1,2.2-0.5,2.2-1.8C170.5,1.9,169.5,1.3,168.2,1.3z M174.6,9.1c0.5,0,0.9,0.4,0.9,0.9s-0.4,0.9-0.9,0.9s-0.9-0.4-0.9-0.9
			S174.1,9.1,174.6,9.1z M177.6,10.7v-1c3.7-3,5.7-4.7,5.7-6.5c0-1.3-1.1-1.9-2.2-1.9c-1.3,0-2.2,0.5-2.8,1.3l-0.8-0.8
			c0.8-1,2.1-1.6,3.6-1.6c1.7,0,3.5,1,3.5,3c0,2.1-2.1,4-5,6.3h5.1v1.1L177.6,10.7L177.6,10.7z M189.1,5.3c-1.2-0.3-2.3-1.1-2.3-2.5
			c0-1.9,1.8-2.7,3.5-2.7s3.5,0.8,3.5,2.7c0,1.4-1.1,2.1-2.3,2.5c1.3,0.4,2.5,1.3,2.5,2.7c0,1.8-1.7,2.8-3.7,2.8s-3.7-1-3.7-2.8
			C186.7,6.7,187.9,5.7,189.1,5.3z M190.4,5.9c-0.6,0.1-2.4,0.7-2.4,2c0,1.1,1.1,1.8,2.4,1.8c1.3,0,2.4-0.7,2.4-1.8
			C192.8,6.5,191,6,190.4,5.9z M190.4,1.3c-1.3,0-2.2,0.6-2.2,1.7c0,1.3,1.6,1.7,2.2,1.8c0.6-0.1,2.2-0.5,2.2-1.8
			C192.6,1.9,191.6,1.3,190.4,1.3z"/>
		<path class="st2" d="M157.8,30.1l4.2-9.2h-5.6v-1.1h7.1v0.9l-4.2,9.5h-1.5V30.1z M169.2,19.6c1.3,0,2.2,0.5,2.9,1.2l-0.7,1
			c-0.5-0.6-1.1-1.1-2.2-1.1c-2,0-2.9,2-2.9,4.1c0,0.1,0,0.3,0,0.4c0.4-0.7,1.6-1.6,2.9-1.6c1.9,0,3.4,1.1,3.4,3.3
			c0,1.8-1.4,3.4-3.6,3.4c-2.9,0-4-2.5-4-5.3S166.3,19.6,169.2,19.6z M169,24.7c-1,0-2,0.6-2.6,1.5c0.1,1.3,0.8,2.9,2.6,2.9
			c1.6,0,2.4-1.2,2.4-2.2C171.3,25.5,170.3,24.7,169,24.7z M175.1,28.6c0.5,0,0.9,0.4,0.9,0.9s-0.4,0.9-0.9,0.9s-0.9-0.4-0.9-0.9
			C174.3,29,174.7,28.6,175.1,28.6z M178.8,28.1c0.5,0.6,1.1,1.1,2.2,1.1c2.1,0,2.9-2.1,2.9-4v-0.4c-0.5,0.7-1.6,1.6-2.9,1.6
			c-1.9,0-3.4-1.1-3.4-3.3c0-1.8,1.4-3.4,3.6-3.4c2.9,0,4,2.5,4,5.3s-1.3,5.3-4.2,5.3c-1.3,0-2.2-0.5-2.9-1.2L178.8,28.1z
			 M181.3,20.8c-1.6,0-2.4,1.2-2.4,2.2c0,1.5,1.1,2.2,2.4,2.2c1,0,2-0.6,2.6-1.5C183.8,22.4,183.1,20.8,181.3,20.8z M188.3,30.1
			l4.2-9.2h-5.6v-1.1h7.1v0.9l-4.2,9.5h-1.5V30.1z"/>
		<defs>
			
				<filter id="Adobe_OpacityMaskFilter_00000145037277035405436690000018077016958681888920_" filterUnits="userSpaceOnUse" x="157.4" y="39.8" width="26.5" height="164">
				<feColorMatrix  type="matrix" values="1 0 0 0 0  0 1 0 0 0  0 0 1 0 0  0 0 0 1 0"/>
			</filter>
		</defs>
		
			<mask maskUnits="userSpaceOnUse" x="157.4" y="39.8" width="26.5" height="164" id="SVGID_00000094591036640825860380000010599778187002574991_">
			<g style="filter:url(#Adobe_OpacityMaskFilter_00000145037277035405436690000018077016958681888920_);">
				
					<linearGradient id="SVGID_00000121964962730362919900000005003347759142914718_" gradientUnits="userSpaceOnUse" x1="-162.3392" y1="-164.631" x2="-161.4476" y2="-164.631" gradientTransform="matrix(-2.000000e-15 40.2332 -40.2332 -2.000000e-15 -6889.8809 6691.4155)">
					<stop  offset="0" style="stop-color:#FFFFFF"/>
					<stop  offset="1" style="stop-color:#000000"/>
				</linearGradient>
				
					<rect x="-1082.2" y="-252.9" style="fill:url(#SVGID_00000121964962730362919900000005003347759142914718_);" width="1631.9" height="530.8"/>
			</g>
		</mask>
		<g class="st19">
			<g>
				<g>
					<defs>
						<rect id="SVGID_00000181780725998969455020000005292510474242539424_" x="157.4" y="39.8" width="26.5" height="164"/>
					</defs>
					<clipPath id="SVGID_00000132784511771758804580000017867416327122123696_">
						<use xlink:href="#SVGID_00000181780725998969455020000005292510474242539424_"  style="overflow:visible;"/>
					</clipPath>
					
						<rect x="171" y="47.9" style="clip-path:url(#SVGID_00000132784511771758804580000017867416327122123696_);fill:#CBE19C;" width="11" height="148"/>
				</g>
			</g>
		</g>
		<defs>
			
				<filter id="Adobe_OpacityMaskFilter_00000036970238234769901020000001963782488130435756_" filterUnits="userSpaceOnUse" x="178" y="58.8" width="26.5" height="145.1">
				<feColorMatrix  type="matrix" values="1 0 0 0 0  0 1 0 0 0  0 0 1 0 0  0 0 0 1 0"/>
			</filter>
		</defs>
		
			<mask maskUnits="userSpaceOnUse" x="178" y="58.8" width="26.5" height="145.1" id="SVGID_00000072973081587311339750000008682516243961957044_">
			<g style="filter:url(#Adobe_OpacityMaskFilter_00000036970238234769901020000001963782488130435756_);">
				
					<linearGradient id="SVGID_00000015341213920313552810000003277793336805684916_" gradientUnits="userSpaceOnUse" x1="-161.9196" y1="-165.4718" x2="-161.028" y2="-165.4718" gradientTransform="matrix(-3.000000e-15 47.4849 -47.4849 -3.000000e-15 -8123.6626 7842.2642)">
					<stop  offset="0" style="stop-color:#FFFFFF"/>
					<stop  offset="1" style="stop-color:#000000"/>
				</linearGradient>
				
					<rect x="-1082.2" y="-252.9" style="fill:url(#SVGID_00000015341213920313552810000003277793336805684916_);" width="1631.9" height="530.8"/>
			</g>
		</mask>
		<g class="st23">
			<g>
				<g>
					<defs>
						<rect id="SVGID_00000156574224691240312880000009727967247747117753_" x="178" y="58.8" width="26.5" height="145.1"/>
					</defs>
					<clipPath id="SVGID_00000183224034572356132640000013227243414262249387_">
						<use xlink:href="#SVGID_00000156574224691240312880000009727967247747117753_"  style="overflow:visible;"/>
					</clipPath>
					
						<rect x="191.6" y="66.8" style="clip-path:url(#SVGID_00000183224034572356132640000013227243414262249387_);fill:#9EDDF9;" width="11" height="129"/>
				</g>
			</g>
		</g>
		<line class="st8" x1="176.5" y1="195.9" x2="176.5" y2="46.4"/>
		<line class="st8" x1="197.1" y1="195.9" x2="197.1" y2="63.3"/>
	</g>
	<g>
		<g>
			<path class="st1" d="M234.9,5c-1.2-0.3-2.3-1.1-2.3-2.3c0-1.8,1.8-2.5,3.5-2.5s3.5,0.8,3.5,2.5c0,1.3-1.1,2-2.3,2.3
				c1.3,0.4,2.5,1.3,2.5,2.6c0,1.7-1.7,2.6-3.7,2.6s-3.7-1-3.7-2.6C232.4,6.3,233.6,5.4,234.9,5z M236.1,5.6
				c-0.6,0.1-2.4,0.6-2.4,1.9c0,1.1,1.1,1.7,2.4,1.7c1.3,0,2.4-0.6,2.4-1.7C238.5,6.2,236.8,5.6,236.1,5.6z M236.1,1.2
				c-1.3,0-2.2,0.6-2.2,1.6c0,1.2,1.6,1.6,2.2,1.7c0.6-0.1,2.2-0.5,2.2-1.7C238.4,1.8,237.4,1.2,236.1,1.2z M243.1,10l4.2-8.7h-5.6
				v-1h7.1v0.8l-4.2,8.9H243.1z M250,8.6c0.5,0,0.9,0.4,0.9,0.8c0,0.4-0.4,0.8-0.9,0.8s-0.9-0.4-0.9-0.8C249.2,9,249.6,8.6,250,8.6z
				 M253.6,10l4.2-8.7h-5.6v-1h7.1v0.8l-4.2,8.9H253.6z M261.4,10V9c3.7-2.8,5.7-4.4,5.7-6.1c0-1.2-1.1-1.8-2.2-1.8
				c-1.3,0-2.2,0.5-2.8,1.2l-0.8-0.8c0.8-1,2.1-1.5,3.6-1.5c1.7,0,3.5,0.9,3.5,2.9s-2.1,3.8-5,5.9h5.1V10H261.4z"/>
			<path class="st2" d="M231.6,28.3l4.2-8.7h-5.6v-1.1h7.1v0.8l-4.2,8.9h-1.5V28.3z M240.1,26.1c0.7,0.8,1.6,1.3,2.9,1.3
				c1.4,0,2.4-0.9,2.4-2.1c0-1.3-1-2.1-2.4-2.1c-0.9,0-1.7,0.3-2.4,0.9l-0.9-0.3v-5.3h6.3v1.1h-5V23c0.5-0.5,1.4-0.9,2.4-0.9
				c1.7,0,3.3,1.1,3.3,3.1s-1.6,3.2-3.7,3.2c-1.8,0-2.9-0.6-3.6-1.6L240.1,26.1z M249.2,26.8c0.5,0,0.9,0.4,0.9,0.8
				s-0.4,0.8-0.9,0.8s-0.9-0.4-0.9-0.8C248.3,27.2,248.7,26.8,249.2,26.8z M252.9,26.4c0.5,0.6,1.1,1,2.2,1c2.1,0,2.9-2,2.9-3.8
				v-0.4c-0.5,0.7-1.6,1.5-2.9,1.5c-1.9,0-3.4-1-3.4-3.1c0-1.7,1.4-3.2,3.6-3.2c2.9,0,4,2.4,4,5s-1.3,5-4.2,5
				c-1.3,0-2.2-0.5-2.9-1.2L252.9,26.4z M255.3,19.4c-1.6,0-2.4,1.1-2.4,2.1c0,1.4,1.1,2.1,2.4,2.1c1,0,2-0.6,2.6-1.4
				C257.8,21,257.1,19.4,255.3,19.4z M265.5,18.4c1.3,0,2.2,0.5,2.9,1.2l-0.7,0.9c-0.5-0.6-1.1-1-2.2-1c-2,0-2.9,1.9-2.9,3.8
				c0,0.1,0,0.2,0,0.4c0.4-0.7,1.6-1.5,2.9-1.5c1.9,0,3.4,1,3.4,3.1c0,1.7-1.4,3.2-3.6,3.2c-2.9,0-4-2.4-4-5S262.6,18.4,265.5,18.4z
				 M265.2,23.2c-1,0-2,0.6-2.6,1.5c0.1,1.2,0.8,2.7,2.6,2.7c1.6,0,2.4-1.1,2.4-2.1C267.6,23.9,266.5,23.2,265.2,23.2z"/>
		</g>
		<defs>
			
				<filter id="Adobe_OpacityMaskFilter_00000168812589829836836690000014841683506788326031_" filterUnits="userSpaceOnUse" x="236.3" y="40.9" width="26.5" height="163">
				<feColorMatrix  type="matrix" values="1 0 0 0 0  0 1 0 0 0  0 0 1 0 0  0 0 0 1 0"/>
			</filter>
		</defs>
		
			<mask maskUnits="userSpaceOnUse" x="236.3" y="40.9" width="26.5" height="163" id="SVGID_00000047769590677507008040000007970157857599345566_">
			<g style="filter:url(#Adobe_OpacityMaskFilter_00000168812589829836836690000014841683506788326031_);">
				
					<linearGradient id="SVGID_00000164510659519228998020000005842874991596632970_" gradientUnits="userSpaceOnUse" x1="-161.9968" y1="-165.474" x2="-161.1051" y2="-165.474" gradientTransform="matrix(-3.000000e-15 45.9619 -45.9619 -3.000000e-15 -7850.3516 7600.5601)">
					<stop  offset="0" style="stop-color:#FFFFFF"/>
					<stop  offset="1" style="stop-color:#000000"/>
				</linearGradient>
				
					<rect x="-1060.8" y="-252.9" style="fill:url(#SVGID_00000164510659519228998020000005842874991596632970_);" width="1631.9" height="530.8"/>
			</g>
		</mask>
		<g class="st27">
			<g>
				<g>
					<defs>
						<rect id="SVGID_00000028311997316593479970000009613040574805671848_" x="236.3" y="40.9" width="26.5" height="163"/>
					</defs>
					<clipPath id="SVGID_00000148637910766709980750000004020149927572848558_">
						<use xlink:href="#SVGID_00000028311997316593479970000009613040574805671848_"  style="overflow:visible;"/>
					</clipPath>
					
						<rect x="249.8" y="48.9" style="clip-path:url(#SVGID_00000148637910766709980750000004020149927572848558_);fill:#CBE19C;" width="11" height="147"/>
				</g>
			</g>
		</g>
		<defs>
			
				<filter id="Adobe_OpacityMaskFilter_00000049916536418544027510000003507301810691146648_" filterUnits="userSpaceOnUse" x="256.9" y="60.6" width="26.5" height="143.3">
				<feColorMatrix  type="matrix" values="1 0 0 0 0  0 1 0 0 0  0 0 1 0 0  0 0 0 1 0"/>
			</filter>
		</defs>
		
			<mask maskUnits="userSpaceOnUse" x="256.9" y="60.6" width="26.5" height="143.3" id="SVGID_00000128467157227540683080000006868127625103237309_">
			<g style="filter:url(#Adobe_OpacityMaskFilter_00000049916536418544027510000003507301810691146648_);">
				
					<linearGradient id="SVGID_00000130648212905101529630000001159122400925498035_" gradientUnits="userSpaceOnUse" x1="-161.6737" y1="-166.0966" x2="-160.7821" y2="-166.0966" gradientTransform="matrix(-3.000000e-15 53.092 -53.092 -3.000000e-15 -9063.251 8732.1084)">
					<stop  offset="0" style="stop-color:#FFFFFF"/>
					<stop  offset="1" style="stop-color:#000000"/>
				</linearGradient>
				
					<rect x="-1060.8" y="-252.9" style="fill:url(#SVGID_00000130648212905101529630000001159122400925498035_);" width="1631.9" height="530.8"/>
			</g>
		</mask>
		<g class="st31">
			<g>
				<g>
					<defs>
						<rect id="SVGID_00000074431459328737020080000010142400322456177305_" x="256.9" y="60.6" width="26.5" height="143.3"/>
					</defs>
					<clipPath id="SVGID_00000134933520098851377700000001789557601377693073_">
						<use xlink:href="#SVGID_00000074431459328737020080000010142400322456177305_"  style="overflow:visible;"/>
					</clipPath>
					
						<rect x="270.4" y="68.6" style="clip-path:url(#SVGID_00000134933520098851377700000001789557601377693073_);fill:#9EDDF9;" width="11" height="127.3"/>
				</g>
			</g>
		</g>
		<line class="st8" x1="255.3" y1="195.9" x2="255.3" y2="47.4"/>
		<line class="st8" x1="275.9" y1="195.9" x2="275.9" y2="66.8"/>
	</g>
	<g>
		<g>
			<path class="st1" d="M317.5,5.3c-1.2-0.3-2.3-1.1-2.3-2.5c0-1.9,1.8-2.7,3.5-2.7s3.5,0.8,3.5,2.7c0,1.4-1.1,2.1-2.3,2.5
				c1.3,0.4,2.5,1.3,2.5,2.7c0,1.8-1.7,2.8-3.7,2.8S315,9.8,315,8C315.1,6.7,316.2,5.7,317.5,5.3z M318.8,5.9
				c-0.6,0.1-2.4,0.7-2.4,2c0,1.1,1.1,1.8,2.4,1.8s2.4-0.7,2.4-1.8C321.2,6.6,319.4,6,318.8,5.9z M318.8,1.3c-1.3,0-2.2,0.6-2.2,1.7
				c0,1.3,1.6,1.7,2.2,1.8c0.6-0.1,2.2-0.5,2.2-1.8C321,2,320,1.3,318.8,1.3z M325.5,8.6c0.5,0.6,1.1,1.1,2.2,1.1
				c2.1,0,2.9-2.1,2.9-4V5.2c-0.5,0.7-1.6,1.6-2.9,1.6c-1.9,0-3.4-1.1-3.4-3.3c0-1.8,1.4-3.4,3.6-3.4c2.9,0,4,2.5,4,5.3
				s-1.3,5.3-4.2,5.3c-1.3,0-2.2-0.5-2.9-1.2L325.5,8.6z M328,1.3c-1.6,0-2.4,1.2-2.4,2.2c0,1.5,1.1,2.2,2.4,2.2c1,0,2-0.6,2.6-1.5
				C330.5,2.9,329.8,1.3,328,1.3z M334.2,9.1c0.5,0,0.9,0.4,0.9,0.9s-0.4,0.9-0.9,0.9s-0.9-0.4-0.9-0.9S333.8,9.1,334.2,9.1z
				 M340.4,0.2c2.8,0,4,2.8,4,5.3s-1.1,5.3-4,5.3c-2.8,0-4-2.8-4-5.3S337.6,0.2,340.4,0.2z M340.4,1.3c-2,0-2.6,2.1-2.6,4.2
				s0.7,4.2,2.6,4.2c2,0,2.6-2.1,2.6-4.2S342.3,1.3,340.4,1.3z M351,10.7V8.1h-4.9V7l4.4-6.6h1.8V7h1.4v1.1h-1.4v2.6
				C352.3,10.7,351,10.7,351,10.7z M351,1.5l-3.6,5.4h3.6V1.5z"/>
			<path class="st2" d="M318,30l4.2-9.2h-5.6v-1.1h7.1v0.9l-4.2,9.5L318,30L318,30z M329.5,30v-2.6h-4.9v-1.1l4.4-6.6h1.8v6.6h1.4
				v1.1h-1.4V30H329.5z M329.5,20.9l-3.6,5.4h3.6V20.9z M334.5,28.5c0.5,0,0.9,0.4,0.9,0.9s-0.4,0.9-0.9,0.9s-0.9-0.4-0.9-0.9
				C333.7,28.8,334.1,28.5,334.5,28.5z M338.2,28c0.5,0.6,1.1,1.1,2.2,1.1c2.1,0,2.9-2.1,2.9-4v-0.4c-0.5,0.7-1.6,1.6-2.9,1.6
				c-1.9,0-3.4-1.1-3.4-3.3c0-1.8,1.4-3.4,3.6-3.4c2.9,0,4,2.5,4,5.3s-1.3,5.3-4.2,5.3c-1.3,0-2.2-0.5-2.9-1.2L338.2,28z
				 M340.7,20.6c-1.6,0-2.4,1.2-2.4,2.2c0,1.5,1.1,2.2,2.4,2.2c1,0,2-0.6,2.6-1.5C343.2,22.2,342.5,20.6,340.7,20.6z M346.4,30v-1
				c3.7-2.9,5.7-4.6,5.7-6.4c0-1.3-1.1-1.9-2.2-1.9c-1.3,0-2.2,0.5-2.8,1.3l-0.8-0.8c0.8-1,2.1-1.6,3.6-1.6c1.7,0,3.5,1,3.5,3
				c0,2.1-2.1,4-5,6.3h5.1V30H346.4z"/>
		</g>
		<defs>
			
				<filter id="Adobe_OpacityMaskFilter_00000050642716804949922950000017183840833188200596_" filterUnits="userSpaceOnUse" x="316.3" y="38.3" width="26.5" height="165.6">
				<feColorMatrix  type="matrix" values="1 0 0 0 0  0 1 0 0 0  0 0 1 0 0  0 0 0 1 0"/>
			</filter>
		</defs>
		
			<mask maskUnits="userSpaceOnUse" x="316.3" y="38.3" width="26.5" height="165.6" id="SVGID_00000065764592694782595630000013968361619354602932_">
			<g style="filter:url(#Adobe_OpacityMaskFilter_00000050642716804949922950000017183840833188200596_);">
				
					<linearGradient id="SVGID_00000059996217104124700880000012062811375799389606_" gradientUnits="userSpaceOnUse" x1="-162.1929" y1="-164.9752" x2="-161.3013" y2="-164.9752" gradientTransform="matrix(-3.000000e-15 42.4957 -42.4957 -3.000000e-15 -7232.9873 7050.4766)">
					<stop  offset="0" style="stop-color:#FFFFFF"/>
					<stop  offset="1" style="stop-color:#000000"/>
				</linearGradient>
				
					<rect x="-1038.2" y="-252.9" style="fill:url(#SVGID_00000059996217104124700880000012062811375799389606_);" width="1631.9" height="530.8"/>
			</g>
		</mask>
		<g class="st35">
			<g>
				<g>
					<defs>
						<rect id="SVGID_00000065779592035667920010000004851036885146355123_" x="316.3" y="38.3" width="26.5" height="165.6"/>
					</defs>
					<clipPath id="SVGID_00000046340344420963535730000000050882764296784033_">
						<use xlink:href="#SVGID_00000065779592035667920010000004851036885146355123_"  style="overflow:visible;"/>
					</clipPath>
					
						<rect x="329.9" y="46.4" style="clip-path:url(#SVGID_00000046340344420963535730000000050882764296784033_);fill:#CBE19C;" width="11" height="149.5"/>
				</g>
			</g>
		</g>
		<defs>
			
				<filter id="Adobe_OpacityMaskFilter_00000061470623898073855880000015946123049760007103_" filterUnits="userSpaceOnUse" x="336.9" y="62.1" width="26.5" height="141.8">
				<feColorMatrix  type="matrix" values="1 0 0 0 0  0 1 0 0 0  0 0 1 0 0  0 0 0 1 0"/>
			</filter>
		</defs>
		
			<mask maskUnits="userSpaceOnUse" x="336.9" y="62.1" width="26.5" height="141.8" id="SVGID_00000103246533958489509920000013023744628202136497_">
			<g style="filter:url(#Adobe_OpacityMaskFilter_00000061470623898073855880000015946123049760007103_);">
				
					<linearGradient id="SVGID_00000143592692253418550090000007684714225770681782_" gradientUnits="userSpaceOnUse" x1="-162.262" y1="-164.5428" x2="-161.3704" y2="-164.5428" gradientTransform="matrix(-3.000000e-15 41.3963 -41.3963 -3.000000e-15 -7033.7129 6876.0044)">
					<stop  offset="0" style="stop-color:#FFFFFF"/>
					<stop  offset="1" style="stop-color:#000000"/>
				</linearGradient>
				
					<rect x="-1038.2" y="-252.9" style="fill:url(#SVGID_00000143592692253418550090000007684714225770681782_);" width="1631.9" height="530.8"/>
			</g>
		</mask>
		<g class="st39">
			<g>
				<g>
					<defs>
						<rect id="SVGID_00000103240049864664056960000008207618451163068347_" x="336.9" y="62.1" width="26.5" height="141.8"/>
					</defs>
					<clipPath id="SVGID_00000016774999633597692420000006881085013926738349_">
						<use xlink:href="#SVGID_00000103240049864664056960000008207618451163068347_"  style="overflow:visible;"/>
					</clipPath>
					
						<rect x="350.5" y="70.1" style="clip-path:url(#SVGID_00000016774999633597692420000006881085013926738349_);fill:#9EDDF9;" width="11" height="125.8"/>
				</g>
			</g>
		</g>
		<line class="st8" x1="335.4" y1="195.9" x2="335.4" y2="44.3"/>
		<line class="st8" x1="356" y1="195.9" x2="356" y2="70.1"/>
	</g>
</g>
</svg>
