<?xml version="1.0" encoding="utf-8"?>
<!-- Generator: Adobe Illustrator 26.4.0, SVG Export Plug-In . SVG Version: 6.00 Build 0)  -->
<svg version="1.1" id="Layer_1" xmlns="http://www.w3.org/2000/svg" xmlns:xlink="http://www.w3.org/1999/xlink" x="0px" y="0px"
	 viewBox="0 0 595.3 94.6" style="enable-background:new 0 0 595.3 94.6;" xml:space="preserve">
<style type="text/css">
	.st0{fill:#0069AA;}
	.st1{fill:#E3E7F2;}
	.st2{fill:none;stroke:#6D6E71;stroke-width:0.25;stroke-miterlimit:10;}
	.st3{fill:none;stroke:#0069AA;stroke-width:0.5;stroke-miterlimit:10;}
	.st4{fill:none;stroke:#0069AA;stroke-width:0.75;stroke-miterlimit:10;}
	.st5{fill:none;stroke:#0069AA;stroke-width:0.25;stroke-miterlimit:10;}
	.st6{fill:#FFFFFF;}
	.st7{fill:none;stroke:#9FCC3B;stroke-width:4;}
	.st8{fill:#4D4D4F;}
	.st9{fill:none;stroke:#00C0F3;stroke-width:4;}
</style>
<g>
	<rect x="495.8" y="1.5" class="st0" width="99.5" height="30.6"/>
	<path class="st1" d="M495.8,62.6h99.5v30.6h-99.5V62.6z M495.8,32h99.5v30.6h-99.5V32z"/>
	<line class="st2" x1="0" y1="62.6" x2="97.9" y2="62.6"/>
	<line class="st3" x1="0" y1="1.5" x2="97.9" y2="1.5"/>
	<line class="st3" x1="97.9" y1="1.5" x2="197.4" y2="1.5"/>
	<line class="st3" x1="197.4" y1="1.5" x2="296.8" y2="1.5"/>
	<line class="st3" x1="296.8" y1="1.5" x2="396.3" y2="1.5"/>
	<line class="st3" x1="396.3" y1="1.5" x2="495.8" y2="1.5"/>
	<line class="st3" x1="495.8" y1="1.5" x2="595.3" y2="1.5"/>
	<line class="st3" x1="0" y1="32" x2="97.9" y2="32"/>
	<line class="st3" x1="97.9" y1="32" x2="197.4" y2="32"/>
	<line class="st3" x1="197.4" y1="32" x2="296.8" y2="32"/>
	<line class="st3" x1="296.8" y1="32" x2="396.3" y2="32"/>
	<line class="st3" x1="396.3" y1="32" x2="495.8" y2="32"/>
	<line class="st3" x1="495.8" y1="32" x2="595.3" y2="32"/>
	<line class="st4" x1="0" y1="93.2" x2="97.9" y2="93.2"/>
	<line class="st5" x1="97.9" y1="62.6" x2="197.4" y2="62.6"/>
	<line class="st4" x1="97.9" y1="93.2" x2="197.4" y2="93.2"/>
	<line class="st5" x1="197.4" y1="62.6" x2="296.8" y2="62.6"/>
	<line class="st4" x1="197.4" y1="93.2" x2="296.8" y2="93.2"/>
	<line class="st5" x1="296.8" y1="62.6" x2="396.3" y2="62.6"/>
	<line class="st4" x1="296.8" y1="93.2" x2="396.3" y2="93.2"/>
	<line class="st5" x1="396.3" y1="62.6" x2="495.8" y2="62.6"/>
	<line class="st4" x1="396.3" y1="93.2" x2="495.8" y2="93.2"/>
	<line class="st5" x1="495.8" y1="62.6" x2="595.3" y2="62.6"/>
	<line class="st4" x1="495.8" y1="93.2" x2="595.3" y2="93.2"/>
	<path d="M121.9,23.8v-0.9c4.3-3.5,7.3-6,7.3-8.5c0-1.8-1.5-2.6-2.9-2.6c-1.6,0-2.8,0.7-3.5,1.7l-0.7-0.7c0.9-1.2,2.5-2,4.2-2
		c1.9,0,4,1.1,4,3.6c0,2.8-3,5.4-6.7,8.4h6.7v1H121.9z M137.6,10.8c3.4,0,4.7,3.5,4.7,6.6c0,3-1.3,6.6-4.7,6.6s-4.7-3.6-4.7-6.6
		C132.9,14.4,134.2,10.8,137.6,10.8z M137.6,11.8c-2.7,0-3.6,2.9-3.6,5.6c0,2.6,0.9,5.6,3.6,5.6s3.6-3,3.6-5.6
		C141.2,14.8,140.3,11.8,137.6,11.8z M149.1,23.8V12.5l-3,3.2l-0.7-0.7l3.8-4h1v12.8H149.1z M156.3,23.8l5.4-11.8h-7.1v-1h8.3v0.8
		l-5.4,12H156.3z M164.2,19.6v-0.9h4.6v0.9H164.2z M174.6,23.8V12.5l-3,3.2l-0.7-0.7l3.8-4h1v12.8H174.6z M183.3,17.2
		c-1.5-0.4-3-1.4-3-3.1c0-2.3,2.1-3.3,4.1-3.3s4.1,1,4.1,3.3c0,1.7-1.5,2.7-3,3.1c1.6,0.4,3.2,1.6,3.2,3.4c0,2.1-1.9,3.4-4.3,3.4
		c-2.5,0-4.3-1.3-4.3-3.4C180.2,18.8,181.7,17.6,183.3,17.2z M184.5,17.7c-0.8,0.1-3.2,0.9-3.2,2.8c0,1.6,1.5,2.5,3.2,2.5
		s3.2-1,3.2-2.5C187.8,18.6,185.3,17.8,184.5,17.7z M184.5,11.8c-1.7,0-3,0.9-3,2.4c0,1.8,2.3,2.4,3,2.5c0.8-0.2,3-0.7,3-2.5
		C187.5,12.7,186.2,11.8,184.5,11.8z"/>
	<path d="M219.8,23.8v-0.9c4.3-3.5,7.3-6,7.3-8.5c0-1.8-1.5-2.6-2.9-2.6c-1.6,0-2.8,0.7-3.5,1.7l-0.7-0.7c0.9-1.2,2.5-2,4.2-2
		c1.9,0,4,1.1,4,3.6c0,2.8-3,5.4-6.7,8.4h6.7v1H219.8z M235.5,10.8c3.4,0,4.7,3.5,4.7,6.6c0,3-1.3,6.6-4.7,6.6s-4.7-3.6-4.7-6.6
		S232.1,10.8,235.5,10.8z M235.5,11.8c-2.7,0-3.6,2.9-3.6,5.6c0,2.6,0.9,5.6,3.6,5.6s3.6-3,3.6-5.6C239,14.8,238.2,11.8,235.5,11.8z
		 M246.9,23.8V12.5l-3,3.2l-0.7-0.7l3.8-4h1v12.8H246.9z M255.7,17.2c-1.5-0.4-3-1.4-3-3.1c0-2.3,2.1-3.3,4.1-3.3c2,0,4.1,1,4.1,3.3
		c0,1.7-1.5,2.7-3,3.1c1.6,0.4,3.2,1.6,3.2,3.4c0,2.1-1.9,3.4-4.3,3.4c-2.5,0-4.3-1.3-4.3-3.4C252.5,18.8,254.1,17.6,255.7,17.2z
		 M256.9,17.7c-0.8,0.1-3.2,0.9-3.2,2.8c0,1.6,1.5,2.5,3.2,2.5c1.7,0,3.2-1,3.2-2.5C260.1,18.6,257.7,17.8,256.9,17.7z M256.9,11.8
		c-1.7,0-3,0.9-3,2.4c0,1.8,2.3,2.4,3,2.5c0.8-0.2,3-0.7,3-2.5C259.9,12.7,258.6,11.8,256.9,11.8z M263.7,19.6v-0.9h4.6v0.9H263.7z
		 M274,23.8V12.5l-3,3.2l-0.7-0.7l3.8-4h1v12.8H274z M280.7,21.6c0.6,0.8,1.4,1.4,2.8,1.4c2.8,0,3.8-2.9,3.8-5.6c0-0.2,0-0.4,0-0.6
		c-0.5,0.9-2,2.1-3.7,2.1c-2.3,0-4.1-1.3-4.1-4.1c0-2.1,1.6-4.1,4.3-4.1c3.4,0,4.7,3.2,4.7,6.6c0,3.3-1.4,6.6-4.9,6.6
		c-1.7,0-2.7-0.7-3.4-1.6L280.7,21.6z M283.8,11.8c-2.2,0-3.2,1.7-3.2,3.1c0,2.1,1.4,3.1,3.2,3.1c1.4,0,2.8-0.9,3.5-2.2
		C287.1,14,286.1,11.8,283.8,11.8z"/>
	<path d="M317.6,23.8v-0.9c4.3-3.5,7.3-6,7.3-8.5c0-1.8-1.5-2.6-2.9-2.6c-1.6,0-2.8,0.7-3.5,1.7l-0.7-0.7c0.9-1.2,2.5-2,4.2-2
		c1.9,0,4,1.1,4,3.6c0,2.8-3,5.4-6.7,8.4h6.7v1H317.6z M333.3,10.8c3.4,0,4.7,3.5,4.7,6.6c0,3-1.3,6.6-4.7,6.6
		c-3.4,0-4.7-3.6-4.7-6.6C328.6,14.4,329.9,10.8,333.3,10.8z M333.3,11.8c-2.7,0-3.6,2.9-3.6,5.6c0,2.6,0.9,5.6,3.6,5.6
		s3.6-3,3.6-5.6C336.8,14.8,336,11.8,333.3,11.8z M344.7,23.8V12.5l-3,3.2L341,15l3.8-4h1v12.8H344.7z M351.4,21.6
		c0.6,0.8,1.4,1.4,2.8,1.4c2.8,0,3.8-2.9,3.8-5.6c0-0.2,0-0.4,0-0.6c-0.5,0.9-2,2.1-3.7,2.1c-2.3,0-4.1-1.3-4.1-4.1
		c0-2.1,1.6-4.1,4.3-4.1c3.4,0,4.7,3.2,4.7,6.6c0,3.3-1.4,6.6-4.9,6.6c-1.7,0-2.7-0.7-3.4-1.6L351.4,21.6z M354.5,11.8
		c-2.2,0-3.2,1.7-3.2,3.1c0,2.1,1.4,3.1,3.2,3.1c1.4,0,2.8-0.9,3.5-2.2C357.8,14,356.8,11.8,354.5,11.8z M361.7,19.6v-0.9h4.6v0.9
		H361.7z M367.7,23.8v-0.9c4.3-3.5,7.3-6,7.3-8.5c0-1.8-1.5-2.6-2.9-2.6c-1.6,0-2.8,0.7-3.5,1.7l-0.7-0.7c0.9-1.2,2.5-2,4.2-2
		c1.9,0,4,1.1,4,3.6c0,2.8-3,5.4-6.7,8.4h6.7v1H367.7z M383.5,10.8c3.4,0,4.7,3.5,4.7,6.6c0,3-1.3,6.6-4.7,6.6s-4.7-3.6-4.7-6.6
		C378.7,14.4,380,10.8,383.5,10.8z M383.5,11.8c-2.7,0-3.6,2.9-3.6,5.6c0,2.6,0.9,5.6,3.6,5.6s3.6-3,3.6-5.6
		C387,14.8,386.2,11.8,383.5,11.8z"/>
	<path d="M416.3,23.8v-0.9c4.3-3.5,7.3-6,7.3-8.5c0-1.8-1.5-2.6-2.9-2.6c-1.6,0-2.8,0.7-3.5,1.7l-0.7-0.7c0.9-1.2,2.5-2,4.2-2
		c1.9,0,4,1.1,4,3.6c0,2.8-3,5.4-6.7,8.4h6.7v1H416.3z M432,10.8c3.4,0,4.7,3.5,4.7,6.6c0,3-1.3,6.6-4.7,6.6s-4.7-3.6-4.7-6.6
		S428.6,10.8,432,10.8z M432,11.8c-2.7,0-3.6,2.9-3.6,5.6c0,2.6,0.9,5.6,3.6,5.6s3.6-3,3.6-5.6S434.7,11.8,432,11.8z M438.8,23.8
		v-0.9c4.3-3.5,7.3-6,7.3-8.5c0-1.8-1.5-2.6-2.9-2.6c-1.6,0-2.8,0.7-3.5,1.7l-0.7-0.7c0.9-1.2,2.5-2,4.2-2c1.9,0,4,1.1,4,3.6
		c0,2.8-3,5.4-6.7,8.4h6.7v1H438.8z M454.6,10.8c3.4,0,4.7,3.5,4.7,6.6c0,3-1.3,6.6-4.7,6.6c-3.4,0-4.7-3.6-4.7-6.6
		C449.8,14.4,451.1,10.8,454.6,10.8z M454.6,11.8c-2.7,0-3.6,2.9-3.6,5.6c0,2.6,0.9,5.6,3.6,5.6s3.6-3,3.6-5.6
		C458.1,14.8,457.3,11.8,454.6,11.8z M461.7,19.6v-0.9h4.6v0.9H461.7z M467.8,23.8v-0.9c4.3-3.5,7.3-6,7.3-8.5
		c0-1.8-1.5-2.6-2.9-2.6c-1.6,0-2.8,0.7-3.5,1.7l-0.7-0.7c0.9-1.2,2.5-2,4.2-2c1.9,0,4,1.1,4,3.6c0,2.8-3,5.4-6.7,8.4h6.7v1H467.8z
		 M483.3,23.8V12.5l-3,3.2l-0.7-0.7l3.8-4h1v12.8H483.3z"/>
	<path class="st6" d="M514,23.8v-2.1c5.2-3.9,6.8-5.2,6.8-6.7c0-1.1-1-1.7-2.1-1.7c-1.5,0-2.6,0.6-3.4,1.5l-1.6-1.8
		c1.2-1.4,3.1-2.1,4.9-2.1c2.7,0,4.9,1.5,4.9,4.1c0,2.2-1.8,4.1-5.1,6.5h5.2v2.4H514V23.8z M525.4,17.4c0-3.3,1.6-6.6,5.3-6.6
		s5.3,3.3,5.3,6.6s-1.6,6.6-5.3,6.6S525.4,20.7,525.4,17.4z M533.2,17.4c0-2.4-0.7-4.2-2.5-4.2s-2.5,1.8-2.5,4.2s0.7,4.2,2.5,4.2
		S533.2,19.8,533.2,17.4z M537.6,23.8v-2.1c5.2-3.9,6.8-5.2,6.8-6.7c0-1.1-1-1.7-2.1-1.7c-1.5,0-2.6,0.6-3.4,1.5l-1.6-1.8
		c1.2-1.4,3.1-2.1,4.9-2.1c2.7,0,4.9,1.5,4.9,4.1c0,2.2-1.8,4.1-5.1,6.5h5.2v2.4h-9.6V23.8z M553.5,23.8v-9.3l-2.1,2.2l-1.6-1.6l4-4
		h2.4v12.8L553.5,23.8L553.5,23.8z M559.6,20.2v-2.1h4.6v2.1H559.6z M565.6,23.8v-2.1c5.2-3.9,6.8-5.2,6.8-6.7c0-1.1-1-1.7-2.1-1.7
		c-1.5,0-2.6,0.6-3.4,1.5l-1.6-1.8c1.2-1.4,3.1-2.1,4.9-2.1c2.7,0,4.9,1.5,4.9,4.1c0,2.2-1.8,4.1-5.1,6.5h5.2v2.4h-9.6V23.8z
		 M577.4,23.8v-2.1c5.2-3.9,6.8-5.2,6.8-6.7c0-1.1-1-1.7-2.1-1.7c-1.5,0-2.6,0.6-3.4,1.5l-1.6-1.8c1.2-1.4,3.1-2.1,4.9-2.1
		c2.7,0,4.9,1.5,4.9,4.1c0,2.2-1.8,4.1-5.1,6.5h5.2v2.4h-9.6V23.8z"/>
	<line class="st7" x1="7.2" y1="48.3" x2="27.1" y2="48.3"/>
	<g>
		<path d="M32.5,53.4v-1.2l6.7-9.4h-6.7v-1.3h8.6v1.2L34.4,52h6.8v1.3h-8.7V53.4z"/>
		<path d="M43.5,42.6c0-0.5,0.4-0.9,0.9-0.9s0.9,0.4,0.9,0.9s-0.4,0.9-0.9,0.9S43.5,43.1,43.5,42.6z M43.7,53.4v-8.6H45v8.6H43.7z"
			/>
		<path d="M53.9,53.4v-5.6c0-1.5-0.8-2-1.9-2c-1.1,0-2.1,0.6-2.6,1.3v6.3h-1.3v-8.6h1.3V46c0.6-0.7,1.8-1.5,3.1-1.5
			c1.8,0,2.7,0.9,2.7,2.8v6.1C55.2,53.4,53.9,53.4,53.9,53.4z"/>
		<path d="M57.7,49c0-2.6,1.7-4.5,4.3-4.5c1.6,0,2.5,0.6,3.2,1.5l-0.9,0.8c-0.6-0.8-1.3-1.1-2.2-1.1c-1.8,0-3,1.4-3,3.3
			s1.1,3.3,3,3.3c0.9,0,1.6-0.4,2.2-1.1l0.9,0.8c-0.7,0.9-1.6,1.5-3.2,1.5C59.5,53.6,57.7,51.6,57.7,49z"/>
	</g>
	<path class="st8" d="M112.8,55.4l5.7-12.5H111v-1.1h8.9v0.8l-5.8,12.8H112.8z M120.5,57.4c0.7-0.4,1.1-1.2,1.2-1.9h-0.2
		c-0.5,0-0.8-0.4-0.8-0.9s0.4-0.9,0.9-0.9c0.6,0,1,0.5,1,1.3c0,1.1-0.7,2.2-1.5,2.8L120.5,57.4z M126.5,55.4l5.7-12.5h-7.5v-1.1h8.9
		v0.8l-5.8,12.8H126.5z M137.2,52.7c0.8,1.1,2.1,1.9,3.8,1.9c2.1,0,3.4-1.1,3.4-2.9c0-2-1.6-2.8-3.6-2.8c-0.6,0-1.1,0-1.3,0v-1.1
		c0.2,0,0.7,0,1.3,0c1.8,0,3.4-0.8,3.4-2.6c0-1.7-1.5-2.6-3.3-2.6c-1.5,0-2.7,0.6-3.6,1.7l-0.7-0.7c1-1.2,2.5-2.1,4.4-2.1
		c2.4,0,4.4,1.3,4.4,3.6c0,2.1-1.8,3-2.9,3.2c1.2,0.1,3.1,1.1,3.1,3.4s-1.7,3.9-4.6,3.9c-2.2,0-3.9-1-4.6-2.3L137.2,52.7z
		 M148.2,57.4c0.7-0.4,1.1-1.2,1.2-1.9h-0.2c-0.5,0-0.8-0.4-0.8-0.9s0.4-0.9,0.9-0.9c0.6,0,1,0.5,1,1.3c0,1.1-0.7,2.2-1.5,2.8
		L148.2,57.4z M157.2,41.6c3.6,0,5,3.8,5,7s-1.4,7-5,7s-5-3.8-5-7C152.1,45.3,153.5,41.6,157.2,41.6z M157.2,42.6
		c-2.9,0-3.8,3.1-3.8,6c0,2.8,0.9,6,3.8,6s3.8-3.2,3.8-6S160,42.6,157.2,42.6z M169.3,55.4v-12l-3.2,3.4l-0.7-0.8l4.1-4.3h1.1v13.6
		L169.3,55.4L169.3,55.4z M176.1,52.6c0.9,1.2,2.1,1.9,3.8,1.9c2,0,3.4-1.4,3.4-3.3c0-2.1-1.4-3.3-3.4-3.3c-1.2,0-2.3,0.4-3.3,1.3
		l-0.9-0.4v-7.1h7.9v1.1H177v5.3c0.7-0.7,1.8-1.3,3.2-1.3c2.3,0,4.3,1.5,4.3,4.3c0,2.7-2.1,4.4-4.6,4.4c-2.3,0-3.7-0.9-4.6-2.2
		L176.1,52.6z"/>
	<path class="st8" d="M211.2,55.4l5.7-12.5h-7.5v-1.1h8.9v0.8l-5.8,12.8H211.2z M219,57.4c0.7-0.4,1.1-1.2,1.2-1.9H220
		c-0.5,0-0.8-0.4-0.8-0.9s0.4-0.9,0.9-0.9c0.6,0,1,0.5,1,1.3c0,1.1-0.7,2.2-1.5,2.8L219,57.4z M224,55.4v-1c4.6-3.7,7.7-6.4,7.7-9
		c0-2-1.6-2.8-3.1-2.8c-1.7,0-3,0.7-3.7,1.8l-0.8-0.7c1-1.3,2.6-2.1,4.5-2.1c2,0,4.3,1.1,4.3,3.8c0,3-3.2,5.7-7.1,8.9h7.2v1.1H224z
		 M239.3,48.4c-1.6-0.4-3.2-1.5-3.2-3.3c0-2.4,2.2-3.5,4.4-3.5c2.1,0,4.4,1.1,4.4,3.5c0,1.8-1.5,2.9-3.2,3.3
		c1.7,0.5,3.4,1.7,3.4,3.6c0,2.2-2,3.6-4.6,3.6s-4.6-1.4-4.6-3.6C235.9,50.1,237.6,48.8,239.3,48.4z M240.5,48.9
		c-0.8,0.1-3.4,0.9-3.4,3c0,1.7,1.6,2.7,3.4,2.7c1.8,0,3.4-1,3.4-2.7C244,49.8,241.3,49,240.5,48.9z M240.5,42.6
		c-1.8,0-3.2,0.9-3.2,2.6c0,1.9,2.4,2.5,3.2,2.7c0.8-0.2,3.2-0.8,3.2-2.7C243.7,43.6,242.3,42.6,240.5,42.6z M247.6,57.4
		c0.7-0.4,1.1-1.2,1.2-1.9h-0.2c-0.5,0-0.8-0.4-0.8-0.9s0.4-0.9,0.9-0.9c0.6,0,1,0.5,1,1.3c0,1.1-0.7,2.2-1.5,2.8L247.6,57.4z
		 M258.2,55.4v-3.7h-6.4v-1l6-8.8h1.6v8.8h2v1.1h-2v3.7L258.2,55.4L258.2,55.4z M258.2,42.9l-5.2,7.7h5.2V42.9z M264.7,53
		c0.7,0.9,1.5,1.5,3,1.5c3,0,4-3.1,4-6c0-0.2,0-0.4,0-0.6c-0.6,0.9-2.1,2.3-4,2.3c-2.4,0-4.4-1.4-4.4-4.3c0-2.2,1.7-4.3,4.6-4.3
		c3.7,0,5,3.4,5,7c0,3.5-1.5,7-5.2,7c-1.8,0-2.9-0.7-3.7-1.7L264.7,53z M267.9,42.6c-2.3,0-3.4,1.8-3.4,3.3c0,2.2,1.4,3.3,3.4,3.3
		c1.5,0,2.9-1,3.7-2.3C271.5,45,270.5,42.6,267.9,42.6z M279.1,48.4c-1.6-0.4-3.2-1.5-3.2-3.3c0-2.4,2.2-3.5,4.4-3.5
		c2.1,0,4.4,1.1,4.4,3.5c0,1.8-1.5,2.9-3.2,3.3c1.7,0.5,3.4,1.7,3.4,3.6c0,2.2-2,3.6-4.6,3.6s-4.6-1.4-4.6-3.6
		C275.7,50.1,277.3,48.8,279.1,48.4z M280.3,48.9c-0.8,0.1-3.4,0.9-3.4,3c0,1.7,1.6,2.7,3.4,2.7s3.4-1,3.4-2.7
		C283.8,49.8,281.1,49,280.3,48.9z M280.3,42.6c-1.8,0-3.2,0.9-3.2,2.6c0,1.9,2.4,2.5,3.2,2.7c0.8-0.2,3.2-0.8,3.2-2.7
		C283.5,43.6,282.1,42.6,280.3,42.6z"/>
	<path class="st8" d="M310.1,55.4l5.7-12.5h-7.5v-1.1h8.9v0.8l-5.8,12.8H310.1z M317.8,57.4c0.7-0.4,1.1-1.2,1.2-1.9h-0.2
		c-0.5,0-0.8-0.4-0.8-0.9s0.4-0.9,0.9-0.9c0.6,0,1,0.5,1,1.3c0,1.1-0.7,2.2-1.5,2.8L317.8,57.4z M322.9,55.4v-1
		c4.6-3.7,7.7-6.4,7.7-9c0-2-1.6-2.8-3.1-2.8c-1.7,0-3,0.7-3.7,1.8l-0.8-0.7c1-1.3,2.6-2.1,4.5-2.1c2,0,4.3,1.1,4.3,3.8
		c0,3-3.2,5.7-7.1,8.9h7.2v1.1H322.9z M339.6,41.6c3.6,0,5,3.8,5,7s-1.4,7-5,7s-5-3.8-5-7C334.5,45.3,335.9,41.6,339.6,41.6z
		 M339.6,42.6c-2.9,0-3.8,3.1-3.8,6c0,2.8,0.9,6,3.8,6s3.8-3.2,3.8-6S342.5,42.6,339.6,42.6z M346.5,57.4c0.7-0.4,1.1-1.2,1.2-1.9
		h-0.2c-0.5,0-0.8-0.4-0.8-0.9s0.4-0.9,0.9-0.9c0.6,0,1,0.5,1,1.3c0,1.1-0.7,2.2-1.5,2.8L346.5,57.4z M355.6,41.6c3.6,0,5,3.8,5,7
		s-1.4,7-5,7s-5-3.8-5-7C350.5,45.3,351.9,41.6,355.6,41.6z M355.6,42.6c-2.9,0-3.8,3.1-3.8,6c0,2.8,0.9,6,3.8,6s3.8-3.2,3.8-6
		S358.4,42.6,355.6,42.6z M368.5,41.6c1.8,0,2.9,0.7,3.7,1.7l-0.7,0.9c-0.7-0.9-1.5-1.5-3-1.5c-2.9,0-4,3.1-4,6c0,0.2,0,0.4,0,0.6
		c0.6-0.9,2.1-2.3,4-2.3c2.4,0,4.4,1.4,4.4,4.3c0,2.2-1.7,4.3-4.6,4.3c-3.7,0-5-3.4-5-7C363.3,45.1,364.7,41.6,368.5,41.6z
		 M368.3,48c-1.5,0-2.9,1-3.7,2.3c0.2,1.9,1.1,4.2,3.7,4.2c2.3,0,3.4-1.8,3.4-3.3C371.7,49.1,370.2,48,368.3,48z M380.4,41.6
		c3.6,0,5,3.8,5,7s-1.4,7-5,7s-5-3.8-5-7C375.4,45.3,376.8,41.6,380.4,41.6z M380.4,42.6c-2.9,0-3.8,3.1-3.8,6c0,2.8,0.9,6,3.8,6
		s3.8-3.2,3.8-6C384.2,45.8,383.3,42.6,380.4,42.6z"/>
	<path class="st8" d="M410.1,55.4l5.7-12.5h-7.5v-1.1h8.9v0.8l-5.8,12.8H410.1z M417.8,57.4c0.7-0.4,1.1-1.2,1.2-1.9h-0.2
		c-0.5,0-0.8-0.4-0.8-0.9s0.4-0.9,0.9-0.9c0.6,0,1,0.5,1,1.3c0,1.1-0.7,2.2-1.5,2.8L417.8,57.4z M423.4,52.6
		c0.9,1.2,2.1,1.9,3.8,1.9c2,0,3.4-1.4,3.4-3.3c0-2.1-1.4-3.3-3.4-3.3c-1.2,0-2.3,0.4-3.3,1.3l-0.9-0.4v-7.1h7.9v1.1h-6.7v5.3
		c0.7-0.7,1.8-1.3,3.2-1.3c2.3,0,4.3,1.5,4.3,4.3c0,2.7-2.1,4.4-4.6,4.4c-2.3,0-3.7-0.9-4.6-2.2L423.4,52.6z M435.4,52.6
		c0.9,1.2,2.1,1.9,3.8,1.9c2,0,3.4-1.4,3.4-3.3c0-2.1-1.4-3.3-3.4-3.3c-1.2,0-2.3,0.4-3.3,1.3l-0.9-0.4v-7.1h7.9v1.1h-6.7v5.3
		c0.7-0.7,1.8-1.3,3.2-1.3c2.3,0,4.3,1.5,4.3,4.3c0,2.7-2.1,4.4-4.6,4.4c-2.3,0-3.7-0.9-4.6-2.2L435.4,52.6z M446.2,57.4
		c0.7-0.4,1.1-1.2,1.2-1.9h-0.2c-0.5,0-0.8-0.4-0.8-0.9s0.4-0.9,0.9-0.9c0.6,0,1,0.5,1,1.3c0,1.1-0.7,2.2-1.5,2.8L446.2,57.4z
		 M454.2,48.4c-1.6-0.4-3.2-1.5-3.2-3.3c0-2.4,2.2-3.5,4.4-3.5c2.1,0,4.4,1.1,4.4,3.5c0,1.8-1.5,2.9-3.2,3.3
		c1.7,0.5,3.4,1.7,3.4,3.6c0,2.2-2,3.6-4.6,3.6s-4.6-1.4-4.6-3.6C450.8,50.1,452.4,48.8,454.2,48.4z M455.4,48.9
		c-0.8,0.1-3.4,0.9-3.4,3c0,1.7,1.6,2.7,3.4,2.7s3.4-1,3.4-2.7C458.8,49.8,456.2,49,455.4,48.9z M455.4,42.6c-1.8,0-3.2,0.9-3.2,2.6
		c0,1.9,2.4,2.5,3.2,2.7c0.8-0.2,3.2-0.8,3.2-2.7C458.6,43.6,457.2,42.6,455.4,42.6z M469.3,55.4v-3.7h-6.4v-1l6-8.8h1.6v8.8h2v1.1
		h-2v3.7L469.3,55.4L469.3,55.4z M469.3,42.9l-5.2,7.7h5.2V42.9z M475.8,53c0.7,0.9,1.5,1.5,3,1.5c3,0,4-3.1,4-6c0-0.2,0-0.4,0-0.6
		c-0.6,0.9-2.1,2.3-4,2.3c-2.4,0-4.4-1.4-4.4-4.3c0-2.2,1.7-4.3,4.6-4.3c3.7,0,5,3.4,5,7c0,3.5-1.5,7-5.2,7c-1.8,0-2.9-0.7-3.7-1.7
		L475.8,53z M479.1,42.6c-2.3,0-3.4,1.8-3.4,3.3c0,2.2,1.4,3.3,3.4,3.3c1.5,0,2.9-1,3.7-2.3C482.6,45,481.6,42.6,479.1,42.6z"/>
	<path class="st0" d="M509.6,51.1c0-1.6,1.2-2.7,2.7-3.3c-1.4-0.5-2.5-1.4-2.5-3c0-2.4,2.5-3.4,4.9-3.4s4.9,1,4.9,3.4
		c0,1.6-1.1,2.5-2.5,3c1.5,0.5,2.7,1.7,2.7,3.3c0,2.4-2.5,3.5-5.1,3.5C512,54.6,509.6,53.4,509.6,51.1z M517.1,50.7
		c0-1.1-1.6-1.6-2.4-1.7c-0.8,0.1-2.4,0.6-2.4,1.7c0,0.9,1,1.5,2.4,1.5C516,52.2,517.1,51.6,517.1,50.7z M516.8,45.2
		c0-0.9-0.9-1.4-2.1-1.4c-1.3,0-2.2,0.5-2.2,1.4s1.4,1.3,2.2,1.5C515.5,46.6,516.8,46.2,516.8,45.2z M522.9,57l-1.1-0.9
		c0.6-0.3,1.3-1.1,1.5-1.8c-0.1,0-0.2,0.1-0.4,0.1c-0.7,0-1.3-0.6-1.3-1.4c0-0.8,0.7-1.5,1.5-1.5c0.9,0,1.7,0.7,1.7,2
		C524.8,54.9,524.1,56.1,522.9,57z M526.1,48c0-3.3,1.6-6.6,5.3-6.6s5.3,3.3,5.3,6.6s-1.6,6.6-5.3,6.6S526.1,51.3,526.1,48z
		 M533.9,48c0-2.4-0.7-4.2-2.5-4.2s-2.5,1.8-2.5,4.2s0.7,4.2,2.5,4.2S533.9,50.3,533.9,48z M542.7,54.4v-9.3l-2.1,2.2l-1.6-1.6l4-4
		h2.4v12.8h-2.7V54.4z M550.2,57l-1.1-0.9c0.6-0.3,1.3-1.1,1.5-1.8c-0.1,0-0.2,0.1-0.4,0.1c-0.7,0-1.3-0.6-1.3-1.4
		c0-0.8,0.7-1.5,1.5-1.5c0.9,0,1.7,0.7,1.7,2C552.2,54.9,551.4,56.1,550.2,57z M553.4,48c0-3.3,1.6-6.6,5.3-6.6s5.3,3.3,5.3,6.6
		s-1.6,6.6-5.3,6.6S553.4,51.3,553.4,48z M561.2,48c0-2.4-0.7-4.2-2.5-4.2s-2.5,1.8-2.5,4.2s0.7,4.2,2.5,4.2S561.2,50.3,561.2,48z
		 M565.2,52.5l1.4-1.8c0.9,0.9,2.3,1.5,3.5,1.5c1.6,0,2.4-0.7,2.4-1.6c0-1-0.8-1.5-2.6-1.5c-0.5,0-1.4,0-1.6,0v-2.5
		c0.2,0,1.1,0,1.6,0c1.4,0,2.4-0.4,2.4-1.4s-1.1-1.5-2.4-1.5c-1.2,0-2.4,0.5-3.3,1.3l-1.4-1.7c1-1.2,2.6-2,4.9-2
		c3,0,4.8,1.3,4.8,3.5c0,1.6-1.4,2.7-2.8,2.9c1.3,0.1,3,1.1,3,3.1c0,2.2-2,3.8-5,3.8C567.9,54.6,566.2,53.7,565.2,52.5z M577.2,52.7
		l1.5-1.9c0.9,0.9,2,1.4,3.4,1.4c1.5,0,2.4-0.9,2.4-1.9c0-1.1-0.8-1.9-2.3-1.9c-1.1,0-1.9,0.3-2.7,1l-1.9-0.5v-7.3h8.8V44h-6v3.1
		c0.6-0.6,1.6-1.1,2.8-1.1c2.2,0,4.1,1.6,4.1,4.1c0,2.7-2,4.4-5.1,4.4C579.9,54.6,578.3,53.9,577.2,52.7z"/>
	<line class="st9" x1="7.2" y1="78.8" x2="27.1" y2="78.8"/>
	<g>
		<g>
			<path d="M33,83.9V72h1.5v10.6H40v1.3H33z"/>
			<path d="M41.6,79.6c0-2.5,1.8-4.5,4.2-4.5c2.6,0,4.1,2,4.1,4.6V80h-7c0.1,1.6,1.2,3,3.1,3c1,0,2-0.4,2.7-1.1l0.6,0.9
				c-0.9,0.9-2,1.3-3.4,1.3C43.4,84.1,41.6,82.3,41.6,79.6z M45.8,76.2c-1.8,0-2.7,1.6-2.8,2.9h5.7C48.7,77.8,47.8,76.2,45.8,76.2z"
				/>
			<path d="M57.5,83.9v-1c-0.7,0.8-1.7,1.2-2.9,1.2c-1.5,0-3-1-3-2.9s1.6-2.8,3-2.8c1.2,0,2.2,0.4,2.9,1.2V78c0-1.2-0.9-1.8-2.2-1.8
				c-1,0-1.9,0.4-2.6,1.2l-0.6-0.9c0.9-1,2-1.4,3.4-1.4c1.8,0,3.3,0.8,3.3,2.9v5.9L57.5,83.9L57.5,83.9z M57.5,82.1v-1.6
				c-0.5-0.7-1.4-1.1-2.4-1.1c-1.2,0-2.1,0.8-2.1,1.9s0.9,1.9,2.1,1.9C56.1,83.2,57,82.8,57.5,82.1z"/>
			<path d="M67.8,83.9v-1.3c-0.6,0.9-1.7,1.5-2.9,1.5c-2.2,0-3.8-1.7-3.8-4.5c0-2.7,1.6-4.5,3.8-4.5c1.2,0,2.2,0.6,2.9,1.5V72h1.3
				v11.9H67.8z M67.8,81.6v-3.9c-0.5-0.8-1.5-1.4-2.6-1.4c-1.7,0-2.8,1.4-2.8,3.3s1,3.3,2.8,3.3C66.3,82.9,67.3,82.3,67.8,81.6z"/>
		</g>
	</g>
	<path class="st8" d="M115,85.9v-12l-3.2,3.4l-0.7-0.8l4.1-4.3h1.1v13.6H115V85.9z M120.8,87.9c0.7-0.4,1.1-1.2,1.2-1.9h-0.2
		c-0.5,0-0.8-0.4-0.8-0.9s0.4-0.9,0.9-0.9c0.6,0,1,0.5,1,1.3c0,1.1-0.7,2.2-1.5,2.8L120.8,87.9z M126.8,85.9l5.7-12.5H125v-1.1h8.9
		v0.8l-5.8,12.8C128.1,85.9,126.8,85.9,126.8,85.9z M141.7,85.9v-3.7h-6.4v-1l6-8.8h1.6v8.8h2v1.1h-2V86L141.7,85.9L141.7,85.9z
		 M141.7,73.5l-5.2,7.7h5.2V73.5z M146.9,87.9c0.7-0.4,1.1-1.2,1.2-1.9h-0.2c-0.5,0-0.8-0.4-0.8-0.9s0.4-0.9,0.9-0.9
		c0.6,0,1,0.5,1,1.3c0,1.1-0.7,2.2-1.5,2.8L146.9,87.9z M152.4,83.2c0.8,1.1,2.1,1.9,3.8,1.9c2.1,0,3.4-1.1,3.4-2.9
		c0-2-1.6-2.8-3.6-2.8c-0.6,0-1.1,0-1.3,0v-1.1c0.2,0,0.7,0,1.3,0c1.8,0,3.4-0.8,3.4-2.6c0-1.7-1.5-2.6-3.3-2.6
		c-1.5,0-2.7,0.6-3.6,1.7l-0.7-0.7c1-1.2,2.5-2.1,4.4-2.1c2.4,0,4.4,1.3,4.4,3.6c0,2.1-1.8,3-2.9,3.2c1.2,0.1,3.1,1.1,3.1,3.4
		s-1.7,3.9-4.6,3.9c-2.2,0-3.9-1-4.6-2.3L152.4,83.2z M168.8,72.1c1.8,0,2.9,0.7,3.7,1.7l-0.7,0.9c-0.7-0.9-1.5-1.5-3-1.5
		c-2.9,0-4,3.1-4,6c0,0.2,0,0.4,0,0.6c0.6-0.9,2.1-2.3,4-2.3c2.4,0,4.4,1.4,4.4,4.3c0,2.2-1.7,4.3-4.6,4.3c-3.7,0-5-3.4-5-7
		C163.6,75.7,165.1,72.1,168.8,72.1z M168.6,78.6c-1.5,0-2.9,1-3.7,2.3c0.2,1.9,1.1,4.2,3.7,4.2c2.3,0,3.4-1.8,3.4-3.3
		C172,79.6,170.5,78.6,168.6,78.6z M179.4,78.9c-1.6-0.4-3.2-1.5-3.2-3.3c0-2.4,2.2-3.5,4.4-3.5c2.1,0,4.4,1.1,4.4,3.5
		c0,1.8-1.5,2.9-3.2,3.3c1.7,0.5,3.4,1.7,3.4,3.6c0,2.2-2,3.6-4.6,3.6s-4.6-1.4-4.6-3.6C176,80.6,177.6,79.4,179.4,78.9z
		 M180.6,79.5c-0.8,0.1-3.4,0.9-3.4,3c0,1.7,1.6,2.7,3.4,2.7c1.8,0,3.4-1,3.4-2.7C184.1,80.4,181.4,79.6,180.6,79.5z M180.6,73.2
		c-1.8,0-3.2,0.9-3.2,2.6c0,1.9,2.4,2.5,3.2,2.7c0.8-0.2,3.2-0.8,3.2-2.7C183.8,74.1,182.4,73.2,180.6,73.2z"/>
	<path class="st8" d="M210.7,85.9v-1c4.6-3.7,7.7-6.4,7.7-9c0-2-1.6-2.8-3.1-2.8c-1.7,0-3,0.7-3.7,1.8l-0.8-0.7
		c1-1.3,2.6-2.1,4.5-2.1c2,0,4.3,1.1,4.3,3.8c0,3-3.2,5.7-7.1,8.9h7.2v1.1C219.7,85.9,210.7,85.9,210.7,85.9z M222.6,87.9
		c0.7-0.4,1.1-1.2,1.2-1.9h-0.2c-0.5,0-0.8-0.4-0.8-0.9s0.4-0.9,0.9-0.9c0.6,0,1,0.5,1,1.3c0,1.1-0.7,2.2-1.5,2.8L222.6,87.9z
		 M231.6,72.1c3.6,0,5,3.8,5,7s-1.4,7-5,7s-5-3.8-5-7C226.5,75.9,227.9,72.1,231.6,72.1z M231.6,73.2c-2.9,0-3.8,3.1-3.8,6
		c0,2.8,0.9,6,3.8,6c2.9,0,3.8-3.2,3.8-6C235.4,76.3,234.4,73.2,231.6,73.2z M240.5,85.9l5.7-12.5h-7.5v-1.1h8.9v0.8l-5.8,12.8
		C241.8,85.9,240.5,85.9,240.5,85.9z M248.2,87.9c0.7-0.4,1.1-1.2,1.2-1.9h-0.2c-0.5,0-0.8-0.4-0.8-0.9s0.4-0.9,0.9-0.9
		c0.6,0,1,0.5,1,1.3c0,1.1-0.7,2.2-1.5,2.8L248.2,87.9z M256,85.9v-12l-3.2,3.4l-0.7-0.8l4.1-4.3h1.1v13.6H256V85.9z M263,83.6
		c0.7,0.9,1.5,1.5,3,1.5c3,0,4-3.1,4-6c0-0.2,0-0.4,0-0.6c-0.6,0.9-2.1,2.3-4,2.3c-2.4,0-4.4-1.4-4.4-4.3c0-2.2,1.7-4.3,4.6-4.3
		c3.7,0,5,3.4,5,7c0,3.5-1.5,7-5.2,7c-1.8,0-2.9-0.7-3.7-1.7L263,83.6z M266.3,73.2c-2.3,0-3.4,1.8-3.4,3.3c0,2.2,1.4,3.3,3.4,3.3
		c1.5,0,2.9-1,3.7-2.3C269.8,75.5,268.8,73.2,266.3,73.2z M278.9,72.1c3.6,0,5,3.8,5,7s-1.4,7-5,7s-5-3.8-5-7S275.3,72.1,278.9,72.1
		z M278.9,73.2c-2.9,0-3.8,3.1-3.8,6c0,2.8,0.9,6,3.8,6s3.8-3.2,3.8-6C282.7,76.3,281.8,73.2,278.9,73.2z"/>
	<path class="st8" d="M314.9,85.9v-12l-3.2,3.4l-0.7-0.8l4.1-4.3h1.1v13.6h-1.3V85.9z M320.7,87.9c0.7-0.4,1.1-1.2,1.2-1.9h-0.2
		c-0.5,0-0.8-0.4-0.8-0.9s0.4-0.9,0.9-0.9c0.6,0,1,0.5,1,1.3c0,1.1-0.7,2.2-1.5,2.8L320.7,87.9z M326.4,83.6c0.7,0.9,1.5,1.5,3,1.5
		c3,0,4-3.1,4-6c0-0.2,0-0.4,0-0.6c-0.6,0.9-2.1,2.3-4,2.3c-2.4,0-4.4-1.4-4.4-4.3c0-2.2,1.7-4.3,4.6-4.3c3.7,0,5,3.4,5,7
		c0,3.5-1.5,7-5.2,7c-1.8,0-2.9-0.7-3.7-1.7L326.4,83.6z M329.6,73.2c-2.3,0-3.4,1.8-3.4,3.3c0,2.2,1.4,3.3,3.4,3.3
		c1.5,0,2.9-1,3.7-2.3C333.1,75.5,332.2,73.2,329.6,73.2z M338.7,85.9l5.7-12.5h-7.5v-1.1h8.9v0.8L340,85.9H338.7z M346.4,87.9
		c0.7-0.4,1.1-1.2,1.2-1.9h-0.2c-0.5,0-0.8-0.4-0.8-0.9s0.4-0.9,0.9-0.9c0.6,0,1,0.5,1,1.3c0,1.1-0.7,2.2-1.5,2.8L346.4,87.9z
		 M355.4,72.1c3.6,0,5,3.8,5,7s-1.4,7-5,7s-5-3.8-5-7S351.8,72.1,355.4,72.1z M355.4,73.2c-2.9,0-3.8,3.1-3.8,6c0,2.8,0.9,6,3.8,6
		s3.8-3.2,3.8-6C359.2,76.3,358.3,73.2,355.4,73.2z M369.4,85.9v-3.7H363v-1l6-8.8h1.6v8.8h2v1.1h-2V86L369.4,85.9L369.4,85.9z
		 M369.4,73.5l-5.2,7.7h5.2V73.5z M379.1,85.9v-12l-3.2,3.4l-0.7-0.8l4.1-4.3h1.1v13.6h-1.3V85.9z"/>
	<path class="st8" d="M410.2,85.9v-1c4.6-3.7,7.7-6.4,7.7-9c0-2-1.6-2.8-3.1-2.8c-1.7,0-3,0.7-3.7,1.8l-0.8-0.7
		c1-1.3,2.6-2.1,4.5-2.1c2,0,4.3,1.1,4.3,3.8c0,3-3.2,5.7-7.1,8.9h7.2v1.1C419.2,85.9,410.2,85.9,410.2,85.9z M422,87.9
		c0.7-0.4,1.1-1.2,1.2-1.9H423c-0.5,0-0.8-0.4-0.8-0.9s0.4-0.9,0.9-0.9c0.6,0,1,0.5,1,1.3c0,1.1-0.7,2.2-1.5,2.8L422,87.9z
		 M429.8,85.9v-12l-3.2,3.4l-0.7-0.8l4.1-4.3h1.1v13.6h-1.3V85.9z M440.9,72.1c1.8,0,2.9,0.7,3.7,1.7l-0.7,0.9
		c-0.7-0.9-1.5-1.5-3-1.5c-2.9,0-4,3.1-4,6c0,0.2,0,0.4,0,0.6c0.6-0.9,2.1-2.3,4-2.3c2.4,0,4.4,1.4,4.4,4.3c0,2.2-1.7,4.3-4.6,4.3
		c-3.7,0-5-3.4-5-7C435.7,75.7,437.2,72.1,440.9,72.1z M440.7,78.6c-1.5,0-2.9,1-3.7,2.3c0.2,1.9,1.1,4.2,3.7,4.2
		c2.3,0,3.4-1.8,3.4-3.3C444.1,79.6,442.7,78.6,440.7,78.6z M447.6,87.9c0.7-0.4,1.1-1.2,1.2-1.9h-0.2c-0.5,0-0.8-0.4-0.8-0.9
		s0.4-0.9,0.9-0.9c0.6,0,1,0.5,1,1.3c0,1.1-0.7,2.2-1.5,2.8L447.6,87.9z M455.4,85.9v-12l-3.2,3.4l-0.7-0.8l4.1-4.3h1.1v13.6h-1.3
		V85.9z M461.1,85.9v-1c4.6-3.7,7.7-6.4,7.7-9c0-2-1.6-2.8-3.1-2.8c-1.7,0-3,0.7-3.7,1.8l-0.8-0.7c1-1.3,2.6-2.1,4.5-2.1
		c2,0,4.3,1.1,4.3,3.8c0,3-3.2,5.7-7.1,8.9h7.2v1.1C470.1,85.9,461.1,85.9,461.1,85.9z M474.7,85.9l5.7-12.5h-7.5v-1.1h8.9v0.8
		L476,85.9H474.7z"/>
	<path class="st0" d="M510.8,84.9v-2.1c5.2-3.9,6.8-5.2,6.8-6.7c0-1.1-1-1.7-2.1-1.7c-1.5,0-2.6,0.6-3.4,1.5l-1.6-1.8
		c1.2-1.4,3.1-2.1,4.9-2.1c2.7,0,4.9,1.5,4.9,4.1c0,2.2-1.8,4.1-5.1,6.5h5.2V85h-9.6V84.9z M524,87.6l-1.1-0.9
		c0.6-0.3,1.3-1.1,1.5-1.8c-0.1,0-0.2,0.1-0.4,0.1c-0.7,0-1.3-0.6-1.3-1.4s0.7-1.5,1.5-1.5c0.9,0,1.7,0.7,1.7,2
		C525.9,85.4,525.1,86.7,524,87.6z M530.8,84.9v-9.3l-2.1,2.2l-1.6-1.6l4-4h2.4V85L530.8,84.9L530.8,84.9z M536.8,78.6
		c0-3.9,2.2-6.6,6-6.6c1.6,0,2.9,0.5,3.8,1.3l-1.2,2.1c-0.7-0.7-1.4-1-2.5-1c-1.9,0-3.2,1.6-3.2,3.6c0,0.1,0,0.2,0,0.3
		c0.6-0.9,1.9-1.6,3.3-1.6c2.3,0,4.4,1.4,4.4,4.2c0,2.5-2,4.4-4.9,4.4C538.4,85.2,536.8,82.2,536.8,78.6z M544.5,80.9
		c0-1.3-1.1-1.9-2.4-1.9c-1,0-1.9,0.4-2.5,1.2c0.1,1.2,0.8,2.6,2.6,2.6C543.7,82.8,544.5,81.8,544.5,80.9z M550.1,87.6l-1.1-0.9
		c0.6-0.3,1.3-1.1,1.5-1.8c-0.1,0-0.2,0.1-0.4,0.1c-0.7,0-1.3-0.6-1.3-1.4s0.7-1.5,1.5-1.5c0.9,0,1.7,0.7,1.7,2
		C552,85.4,551.2,86.7,550.1,87.6z M553.3,78.6c0-3.3,1.6-6.6,5.3-6.6s5.3,3.3,5.3,6.6c0,3.3-1.6,6.6-5.3,6.6
		C554.9,85.2,553.3,81.9,553.3,78.6z M561.1,78.6c0-2.4-0.7-4.2-2.5-4.2s-2.5,1.8-2.5,4.2s0.7,4.2,2.5,4.2
		C560.4,82.8,561.1,80.9,561.1,78.6z M565.5,84.9v-2.1c5.2-3.9,6.8-5.2,6.8-6.7c0-1.1-1-1.7-2.1-1.7c-1.5,0-2.6,0.6-3.4,1.5
		l-1.6-1.8c1.2-1.4,3.1-2.1,4.9-2.1c2.7,0,4.9,1.5,4.9,4.1c0,2.2-1.8,4.1-5.1,6.5h5.2V85h-9.6V84.9z M577,83.1l1.4-1.8
		c0.9,0.9,2.3,1.5,3.5,1.5c1.6,0,2.4-0.7,2.4-1.6c0-1-0.8-1.5-2.6-1.5c-0.5,0-1.4,0-1.6,0v-2.5c0.2,0,1.1,0,1.6,0
		c1.4,0,2.4-0.4,2.4-1.4s-1.1-1.5-2.4-1.5c-1.2,0-2.4,0.5-3.3,1.3l-1.4-1.7c1-1.2,2.6-2,4.9-2c3,0,4.8,1.3,4.8,3.5
		c0,1.6-1.4,2.7-2.8,2.9c1.3,0.1,3,1.1,3,3.1c0,2.2-2,3.8-5,3.8C579.7,85.2,577.9,84.3,577,83.1z"/>
</g>
</svg>
