<?xml version="1.0" encoding="utf-8"?>
<!-- Generator: Adobe Illustrator 26.4.0, SVG Export Plug-In . SVG Version: 6.00 Build 0)  -->
<svg version="1.1" id="Layer_1" xmlns="http://www.w3.org/2000/svg" xmlns:xlink="http://www.w3.org/1999/xlink" x="0px" y="0px"
	 viewBox="0 0 595.3 193.5" style="enable-background:new 0 0 595.3 193.5;" xml:space="preserve">
<style type="text/css">
	.st0{fill:#E6E7E8;}
	.st1{fill:none;stroke:#0069AA;stroke-width:0.5;stroke-miterlimit:10;}
	.st2{fill:none;stroke:#6D6E71;stroke-width:0.25;stroke-miterlimit:10;}
	.st3{fill:none;stroke:#0069AA;stroke-miterlimit:10;}
	.st4{fill:#4D4D4F;}
</style>
<g>
	<path class="st0" d="M514.8,23.3h79.7v36.5h-79.7V23.3z M435.1,23.3h79.7v36.5h-79.7V23.3z M355.4,23.3h79.7v36.5h-79.7V23.3z
		 M274,23.3h81.4v36.5H274V23.3z M274,1.2h320.5v22.1H274V1.2z M0.7,1.2H274v58.6H0.7V1.2z"/>
	<line class="st1" x1="274" y1="23.3" x2="355.4" y2="23.3"/>
	<line class="st1" x1="355.4" y1="23.3" x2="435.1" y2="23.3"/>
	<line class="st1" x1="435.1" y1="23.3" x2="514.8" y2="23.3"/>
	<line class="st1" x1="514.8" y1="23.3" x2="594.5" y2="23.3"/>
	<line class="st1" x1="0.7" y1="59.8" x2="274" y2="59.8"/>
	<line class="st1" x1="274" y1="59.8" x2="355.4" y2="59.8"/>
	<line class="st1" x1="355.4" y1="59.8" x2="435.1" y2="59.8"/>
	<line class="st1" x1="435.1" y1="59.8" x2="514.8" y2="59.8"/>
	<line class="st1" x1="514.8" y1="59.8" x2="594.5" y2="59.8"/>
	<line class="st2" x1="0.7" y1="81.8" x2="274" y2="81.8"/>
	<line class="st2" x1="274" y1="81.8" x2="355.4" y2="81.8"/>
	<line class="st2" x1="355.4" y1="81.8" x2="435.1" y2="81.8"/>
	<line class="st2" x1="435.1" y1="81.8" x2="514.8" y2="81.8"/>
	<line class="st2" x1="514.8" y1="81.8" x2="594.5" y2="81.8"/>
	<line class="st2" x1="0.7" y1="103.9" x2="274" y2="103.9"/>
	<line class="st2" x1="274" y1="103.9" x2="355.4" y2="103.9"/>
	<line class="st2" x1="355.4" y1="103.9" x2="435.1" y2="103.9"/>
	<line class="st2" x1="435.1" y1="103.9" x2="514.8" y2="103.9"/>
	<line class="st2" x1="514.8" y1="103.9" x2="594.5" y2="103.9"/>
	<line class="st2" x1="0.7" y1="126" x2="274" y2="126"/>
	<line class="st2" x1="274" y1="126" x2="355.4" y2="126"/>
	<line class="st2" x1="355.4" y1="126" x2="435.1" y2="126"/>
	<line class="st2" x1="435.1" y1="126" x2="514.8" y2="126"/>
	<line class="st2" x1="514.8" y1="126" x2="594.5" y2="126"/>
	<line class="st2" x1="0.7" y1="148.1" x2="274" y2="148.1"/>
	<line class="st2" x1="274" y1="148.1" x2="355.4" y2="148.1"/>
	<line class="st2" x1="355.4" y1="148.1" x2="435.1" y2="148.1"/>
	<line class="st2" x1="435.1" y1="148.1" x2="514.8" y2="148.1"/>
	<line class="st2" x1="514.8" y1="148.1" x2="594.5" y2="148.1"/>
	<line class="st2" x1="0.7" y1="170.2" x2="274" y2="170.2"/>
	<line class="st2" x1="274" y1="170.2" x2="355.4" y2="170.2"/>
	<line class="st2" x1="355.4" y1="170.2" x2="435.1" y2="170.2"/>
	<line class="st2" x1="435.1" y1="170.2" x2="514.8" y2="170.2"/>
	<line class="st2" x1="514.8" y1="170.2" x2="594.5" y2="170.2"/>
	<line class="st3" x1="0.7" y1="192.3" x2="274" y2="192.3"/>
	<line class="st3" x1="274" y1="192.3" x2="355.4" y2="192.3"/>
	<line class="st3" x1="355.4" y1="192.3" x2="435.1" y2="192.3"/>
	<line class="st3" x1="435.1" y1="192.3" x2="514.8" y2="192.3"/>
	<line class="st3" x1="514.8" y1="192.3" x2="594.5" y2="192.3"/>
	<g>
		<path class="st4" d="M11.1,34.7v-5.3l-2.2,5.3H8.4l-2.2-5.3v5.3H4.9v-7.2h1.8l1.9,4.7l2-4.7h1.8v7.2H11.1z"/>
		<path class="st4" d="M13.7,28.2c0-0.4,0.3-0.7,0.7-0.7c0.4,0,0.7,0.3,0.7,0.7s-0.3,0.7-0.7,0.7C14,28.9,13.7,28.6,13.7,28.2z
			 M13.9,34.7v-5.2H15v5.2H13.9z"/>
		<path class="st4" d="M20,34.7v-3.3c0-0.8-0.4-1.1-1-1.1c-0.6,0-1.1,0.3-1.3,0.7v3.6h-1.1v-5.2h1.1v0.7c0.3-0.4,1-0.8,1.8-0.8
			c1.1,0,1.7,0.6,1.7,1.7v3.7H20z"/>
		<path class="st4" d="M22.2,32.1c0-1.5,1.1-2.7,2.6-2.7c1.6,0,2.6,1.2,2.6,2.8v0.3h-4c0.1,0.8,0.7,1.4,1.7,1.4
			c0.5,0,1.1-0.2,1.5-0.6l0.5,0.7c-0.5,0.5-1.3,0.8-2.1,0.8C23.4,34.9,22.2,33.8,22.2,32.1z M24.9,30.3c-1,0-1.4,0.7-1.5,1.4h2.9
			C26.3,31.1,25.9,30.3,24.9,30.3z"/>
		<path class="st4" d="M28.1,34.1l0.5-0.8c0.4,0.4,1.1,0.7,1.8,0.7s1-0.3,1-0.7c0-1-3.1-0.3-3.1-2.3c0-0.9,0.7-1.6,2-1.6
			c0.9,0,1.6,0.3,2,0.7l-0.5,0.8c-0.3-0.4-0.9-0.6-1.5-0.6c-0.6,0-1,0.3-1,0.6c0,0.9,3.1,0.2,3.1,2.3c0,0.9-0.8,1.6-2.2,1.6
			C29.5,34.9,28.7,34.6,28.1,34.1z"/>
	</g>
	<g>
		<path class="st4" d="M417.1,16.5l-2.4-3l-0.6,0.7v2.3h-1.3V9.3h1.3v3.4l2.8-3.4h1.6l-2.9,3.4l3.1,3.8H417.1z"/>
		<path class="st4" d="M418.8,13.9c0-1.5,1.1-2.7,2.6-2.7c1.6,0,2.6,1.2,2.6,2.8v0.3h-4c0.1,0.8,0.7,1.4,1.7,1.4
			c0.5,0,1.1-0.2,1.5-0.6l0.5,0.7c-0.5,0.5-1.3,0.8-2.1,0.8C420,16.6,418.8,15.5,418.8,13.9z M421.4,12.1c-1,0-1.4,0.7-1.5,1.4h2.9
			C422.9,12.9,422.5,12.1,421.4,12.1z"/>
		<path class="st4" d="M425.1,17.5c0.1,0.1,0.3,0.1,0.4,0.1c0.4,0,0.6-0.1,0.7-0.5l0.3-0.6l-2.1-5.3h1.2l1.5,3.9l1.5-3.9h1.2
			l-2.5,6.1c-0.4,0.9-1,1.2-1.8,1.2c-0.2,0-0.5,0-0.6-0.1L425.1,17.5z"/>
		<path class="st4" d="M432.9,15.5l0.7-1c0.5,0.5,1.3,1,2.3,1c1,0,1.4-0.5,1.4-1c0-1.5-4.2-0.6-4.2-3.2c0-1.2,1-2.1,2.6-2.1
			c1.1,0,2,0.4,2.7,1l-0.7,0.9c-0.6-0.6-1.3-0.8-2.1-0.8c-0.7,0-1.2,0.4-1.2,0.9c0,1.3,4.2,0.5,4.2,3.2c0,1.2-0.8,2.2-2.8,2.2
			C434.5,16.6,433.5,16.2,432.9,15.5z"/>
		<path class="st4" d="M439.8,15.3v-3h-0.9v-1h0.9V9.9h1.1v1.4h1.1v1h-1.1V15c0,0.4,0.2,0.6,0.5,0.6c0.2,0,0.4-0.1,0.5-0.2l0.3,0.9
			c-0.2,0.2-0.5,0.3-1.1,0.3C440.2,16.6,439.8,16.1,439.8,15.3z"/>
		<path class="st4" d="M446.2,16.5v-0.6c-0.4,0.4-1,0.7-1.7,0.7c-0.9,0-1.8-0.6-1.8-1.7c0-1.2,1-1.7,1.8-1.7c0.7,0,1.3,0.2,1.7,0.7
			v-0.8c0-0.6-0.5-1-1.2-1c-0.6,0-1.1,0.2-1.5,0.7l-0.5-0.8c0.6-0.6,1.4-0.8,2.2-0.8c1.2,0,2.2,0.5,2.2,1.9v3.4H446.2z M446.2,15.3
			v-0.8c-0.3-0.4-0.7-0.5-1.2-0.5c-0.6,0-1.1,0.4-1.1,0.9c0,0.6,0.5,0.9,1.1,0.9C445.4,15.8,445.9,15.7,446.2,15.3z"/>
		<path class="st4" d="M449,15.3v-3h-0.9v-1h0.9V9.9h1.1v1.4h1.1v1h-1.1V15c0,0.4,0.2,0.6,0.5,0.6c0.2,0,0.4-0.1,0.5-0.2l0.3,0.9
			c-0.2,0.2-0.5,0.3-1.1,0.3C449.5,16.6,449,16.1,449,15.3z"/>
		<path class="st4" d="M451.7,15.8l0.5-0.8c0.4,0.4,1.1,0.7,1.8,0.7s1-0.3,1-0.7c0-1-3.1-0.3-3.1-2.3c0-0.9,0.7-1.6,2-1.6
			c0.9,0,1.6,0.3,2,0.7l-0.5,0.8c-0.3-0.4-0.9-0.6-1.5-0.6c-0.6,0-1,0.3-1,0.6c0,0.9,3.1,0.2,3.1,2.3c0,0.9-0.8,1.6-2.2,1.6
			C453.1,16.6,452.3,16.3,451.7,15.8z"/>
	</g>
	<g>
		<path class="st4" d="M318.2,38.6l-1.6-2.7h-1.2v2.7h-1.3v-7.2h3.2c1.4,0,2.3,0.9,2.3,2.3c0,1.3-0.8,2-1.7,2.1l1.8,2.8H318.2z
			 M318.3,33.7c0-0.7-0.5-1.1-1.2-1.1h-1.7v2.3h1.7C317.8,34.8,318.3,34.3,318.3,33.7z"/>
		<path class="st4" d="M320.2,36c0-1.5,1.1-2.7,2.6-2.7c1.6,0,2.6,1.2,2.6,2.8v0.3h-4c0.1,0.8,0.7,1.4,1.7,1.4
			c0.5,0,1.1-0.2,1.5-0.6L325,38c-0.5,0.5-1.3,0.8-2.1,0.8C321.3,38.7,320.2,37.6,320.2,36z M322.8,34.2c-1,0-1.4,0.7-1.5,1.4h2.9
			C324.3,34.9,323.8,34.2,322.8,34.2z"/>
		<path class="st4" d="M326.1,37.9l0.5-0.8c0.4,0.4,1.1,0.7,1.8,0.7s1-0.3,1-0.7c0-1-3.1-0.3-3.1-2.3c0-0.9,0.7-1.6,2-1.6
			c0.9,0,1.6,0.3,2,0.7l-0.5,0.8c-0.3-0.4-0.9-0.6-1.5-0.6c-0.6,0-1,0.3-1,0.6c0,0.9,3.1,0.2,3.1,2.3c0,0.9-0.8,1.6-2.2,1.6
			C327.4,38.7,326.6,38.4,326.1,37.9z"/>
		<path class="st4" d="M331.3,36c0-1.5,1.1-2.7,2.6-2.7c1.6,0,2.6,1.2,2.6,2.8v0.3h-4c0.1,0.8,0.7,1.4,1.7,1.4
			c0.5,0,1.1-0.2,1.5-0.6l0.5,0.7c-0.5,0.5-1.3,0.8-2.1,0.8C332.4,38.7,331.3,37.6,331.3,36z M333.9,34.2c-1,0-1.4,0.7-1.5,1.4h2.9
			C335.4,34.9,334.9,34.2,333.9,34.2z"/>
		<path class="st4" d="M337.6,38.6v-5.2h1.1v0.8c0.4-0.5,1-0.9,1.7-0.9v1.1c-0.1,0-0.2,0-0.4,0c-0.5,0-1.1,0.3-1.3,0.7v3.5H337.6z"
			/>
		<path class="st4" d="M342.7,38.6l-2.1-5.2h1.2l1.5,3.9l1.5-3.9h1.2l-2.1,5.2H342.7z"/>
		<path class="st4" d="M346.4,36c0-1.5,1.1-2.7,2.6-2.7c1.6,0,2.6,1.2,2.6,2.8v0.3h-4c0.1,0.8,0.7,1.4,1.7,1.4
			c0.5,0,1.1-0.2,1.5-0.6l0.5,0.7c-0.5,0.5-1.3,0.8-2.1,0.8C347.6,38.7,346.4,37.6,346.4,36z M349.1,34.2c-1,0-1.4,0.7-1.5,1.4h2.9
			C350.5,34.9,350.1,34.2,349.1,34.2z"/>
	</g>
	<g>
		<path class="st4" d="M335.7,55.1c-1-1.2-1.6-3-1.6-4.8s0.6-3.5,1.6-4.8l0.7,0.5c-0.7,1.3-1.1,2.5-1.1,4.2s0.4,2.9,1.1,4.2
			L335.7,55.1z"/>
		<path class="st4" d="M343.6,53v-5.3l-2.2,5.3h-0.5l-2.2-5.3V53h-1.3v-7.2h1.8l2,4.7l2-4.7h1.8V53H343.6z"/>
		<path class="st4" d="M346.6,51.7v-3h-0.9v-1h0.9v-1.4h1.1v1.4h1.1v1h-1.1v2.7c0,0.4,0.2,0.6,0.5,0.6c0.2,0,0.4-0.1,0.5-0.2
			l0.3,0.9c-0.2,0.2-0.5,0.3-1.1,0.3C347,53.1,346.6,52.6,346.6,51.7z"/>
		<path class="st4" d="M349.2,54.6c0.7-1.3,1.1-2.5,1.1-4.2s-0.4-2.9-1.1-4.2l0.7-0.5c1,1.2,1.6,3,1.6,4.8s-0.6,3.5-1.6,4.8
			L349.2,54.6z"/>
	</g>
	<g>
		<path class="st4" d="M391.7,38.6l-1.6-2.7h-1.2v2.7h-1.3v-7.2h3.2c1.4,0,2.3,0.9,2.3,2.3c0,1.3-0.8,2-1.7,2.1l1.8,2.8H391.7z
			 M391.8,33.7c0-0.7-0.5-1.1-1.2-1.1h-1.7v2.3h1.7C391.3,34.8,391.8,34.3,391.8,33.7z"/>
		<path class="st4" d="M393.7,36c0-1.5,1.1-2.7,2.6-2.7c1.6,0,2.6,1.2,2.6,2.8v0.3h-4c0.1,0.8,0.7,1.4,1.7,1.4
			c0.5,0,1.1-0.2,1.5-0.6l0.5,0.7c-0.5,0.5-1.3,0.8-2.1,0.8C394.8,38.7,393.7,37.6,393.7,36z M396.3,34.2c-1,0-1.4,0.7-1.5,1.4h2.9
			C397.8,34.9,397.3,34.2,396.3,34.2z"/>
		<path class="st4" d="M399.5,37.9l0.5-0.8c0.4,0.4,1.1,0.7,1.8,0.7s1-0.3,1-0.7c0-1-3.1-0.3-3.1-2.3c0-0.9,0.7-1.6,2-1.6
			c0.9,0,1.6,0.3,2,0.7l-0.5,0.8c-0.3-0.4-0.9-0.6-1.5-0.6c-0.6,0-1,0.3-1,0.6c0,0.9,3.1,0.2,3.1,2.3c0,0.9-0.8,1.6-2.2,1.6
			C400.9,38.7,400.1,38.4,399.5,37.9z"/>
		<path class="st4" d="M404.8,36c0-1.5,1-2.7,2.7-2.7c1.7,0,2.7,1.2,2.7,2.7c0,1.5-1,2.7-2.7,2.7C405.8,38.7,404.8,37.5,404.8,36z
			 M408.9,36c0-0.9-0.5-1.7-1.5-1.7c-1,0-1.5,0.8-1.5,1.7c0,0.9,0.5,1.7,1.5,1.7C408.4,37.7,408.9,36.9,408.9,36z"/>
		<path class="st4" d="M414.8,38.6v-0.7c-0.4,0.4-1,0.8-1.8,0.8c-1.1,0-1.7-0.6-1.7-1.6v-3.7h1.1v3.3c0,0.8,0.4,1.1,1,1.1
			c0.6,0,1.1-0.3,1.3-0.7v-3.7h1.1v5.2H414.8z"/>
		<path class="st4" d="M417.4,38.6v-5.2h1.1v0.8c0.4-0.5,1-0.9,1.7-0.9v1.1c-0.1,0-0.2,0-0.4,0c-0.5,0-1.1,0.3-1.3,0.7v3.5H417.4z"
			/>
		<path class="st4" d="M420.8,36c0-1.6,1.1-2.7,2.7-2.7c1,0,1.6,0.4,2,0.9l-0.7,0.7c-0.3-0.4-0.7-0.6-1.2-0.6
			c-0.9,0-1.6,0.7-1.6,1.7s0.6,1.7,1.6,1.7c0.5,0,0.9-0.2,1.2-0.6l0.7,0.7c-0.4,0.5-1,0.9-2,0.9C421.9,38.7,420.8,37.6,420.8,36z"/>
		<path class="st4" d="M426.1,36c0-1.5,1.1-2.7,2.6-2.7c1.6,0,2.6,1.2,2.6,2.8v0.3h-4c0.1,0.8,0.7,1.4,1.7,1.4
			c0.5,0,1.1-0.2,1.5-0.6L431,38c-0.5,0.5-1.3,0.8-2.1,0.8C427.3,38.7,426.1,37.6,426.1,36z M428.8,34.2c-1,0-1.4,0.7-1.5,1.4h2.9
			C430.2,34.9,429.8,34.2,428.8,34.2z"/>
	</g>
	<g>
		<path class="st4" d="M415.4,55.1c-1-1.2-1.6-3-1.6-4.8s0.6-3.5,1.6-4.8l0.7,0.5c-0.7,1.3-1.1,2.5-1.1,4.2s0.4,2.9,1.1,4.2
			L415.4,55.1z"/>
		<path class="st4" d="M423.3,53v-5.3l-2.2,5.3h-0.5l-2.2-5.3V53h-1.3v-7.2h1.8l2,4.7l2-4.7h1.8V53H423.3z"/>
		<path class="st4" d="M426.3,51.7v-3h-0.9v-1h0.9v-1.4h1.1v1.4h1.1v1h-1.1v2.7c0,0.4,0.2,0.6,0.5,0.6c0.2,0,0.4-0.1,0.5-0.2
			l0.3,0.9c-0.2,0.2-0.5,0.3-1.1,0.3C426.7,53.1,426.3,52.6,426.3,51.7z"/>
		<path class="st4" d="M428.9,54.6c0.7-1.3,1.1-2.5,1.1-4.2s-0.4-2.9-1.1-4.2l0.7-0.5c1,1.2,1.6,3,1.6,4.8s-0.6,3.5-1.6,4.8
			L428.9,54.6z"/>
	</g>
	<g>
		<path class="st4" d="M445.3,38.6l-1.6-2.7h-1.2v2.7h-1.3v-7.2h3.2c1.4,0,2.3,0.9,2.3,2.3c0,1.3-0.8,2-1.7,2.1l1.8,2.8H445.3z
			 M445.4,33.7c0-0.7-0.5-1.1-1.2-1.1h-1.7v2.3h1.7C444.9,34.8,445.4,34.3,445.4,33.7z"/>
		<path class="st4" d="M447.3,36c0-1.5,1.1-2.7,2.6-2.7c1.6,0,2.6,1.2,2.6,2.8v0.3h-4c0.1,0.8,0.7,1.4,1.7,1.4
			c0.5,0,1.1-0.2,1.5-0.6l0.5,0.7c-0.5,0.5-1.3,0.8-2.1,0.8C448.5,38.7,447.3,37.6,447.3,36z M450,34.2c-1,0-1.4,0.7-1.5,1.4h2.9
			C451.4,34.9,451,34.2,450,34.2z"/>
		<path class="st4" d="M453.2,37.9l0.5-0.8c0.4,0.4,1.1,0.7,1.8,0.7s1-0.3,1-0.7c0-1-3.1-0.3-3.1-2.3c0-0.9,0.7-1.6,2-1.6
			c0.9,0,1.6,0.3,2,0.7l-0.5,0.8c-0.3-0.4-0.9-0.6-1.5-0.6c-0.6,0-1,0.3-1,0.6c0,0.9,3.1,0.2,3.1,2.3c0,0.9-0.8,1.6-2.2,1.6
			C454.5,38.7,453.7,38.4,453.2,37.9z"/>
		<path class="st4" d="M458.4,36c0-1.5,1.1-2.7,2.6-2.7c1.6,0,2.6,1.2,2.6,2.8v0.3h-4c0.1,0.8,0.7,1.4,1.7,1.4
			c0.5,0,1.1-0.2,1.5-0.6l0.5,0.7c-0.5,0.5-1.3,0.8-2.1,0.8C459.6,38.7,458.4,37.6,458.4,36z M461.1,34.2c-1,0-1.4,0.7-1.5,1.4h2.9
			C462.5,34.9,462.1,34.2,461.1,34.2z"/>
		<path class="st4" d="M464.7,38.6v-5.2h1.1v0.8c0.4-0.5,1-0.9,1.7-0.9v1.1c-0.1,0-0.2,0-0.4,0c-0.5,0-1.1,0.3-1.3,0.7v3.5H464.7z"
			/>
		<path class="st4" d="M469.9,38.6l-2.1-5.2h1.2l1.5,3.9l1.5-3.9h1.2l-2.1,5.2H469.9z"/>
		<path class="st4" d="M473.6,36c0-1.5,1.1-2.7,2.6-2.7c1.6,0,2.6,1.2,2.6,2.8v0.3h-4c0.1,0.8,0.7,1.4,1.7,1.4
			c0.5,0,1.1-0.2,1.5-0.6l0.5,0.7c-0.5,0.5-1.3,0.8-2.1,0.8C474.7,38.7,473.6,37.6,473.6,36z M476.2,34.2c-1,0-1.4,0.7-1.5,1.4h2.9
			C477.7,34.9,477.2,34.2,476.2,34.2z"/>
		<path class="st4" d="M482.4,35c0-2.3,1.7-3.7,3.8-3.7c1.4,0,2.3,0.7,2.9,1.5l-1,0.6c-0.4-0.5-1.1-1-1.9-1c-1.4,0-2.5,1.1-2.5,2.6
			s1.1,2.6,2.5,2.6c0.7,0,1.4-0.3,1.7-0.6v-1.1h-2.1v-1.1h3.4v2.7c-0.7,0.8-1.7,1.3-3,1.3C484.1,38.7,482.4,37.3,482.4,35z"/>
		<path class="st4" d="M490.4,38.6v-5.2h1.1v0.8c0.4-0.5,1-0.9,1.7-0.9v1.1c-0.1,0-0.2,0-0.4,0c-0.5,0-1.1,0.3-1.3,0.7v3.5H490.4z"
			/>
		<path class="st4" d="M497.3,38.6V38c-0.4,0.4-1,0.7-1.7,0.7c-0.9,0-1.8-0.6-1.8-1.7c0-1.2,1-1.7,1.8-1.7c0.7,0,1.3,0.2,1.7,0.7
			v-0.8c0-0.6-0.5-1-1.2-1c-0.6,0-1.1,0.2-1.5,0.7l-0.5-0.8c0.6-0.6,1.4-0.8,2.2-0.8c1.2,0,2.2,0.5,2.2,1.9v3.4H497.3z M497.3,37.4
			v-0.8c-0.3-0.4-0.7-0.5-1.2-0.5c-0.6,0-1.1,0.4-1.1,0.9c0,0.6,0.5,0.9,1.1,0.9C496.6,37.9,497.1,37.8,497.3,37.4z"/>
		<path class="st4" d="M503.6,38.6v-0.7c-0.4,0.5-1,0.8-1.7,0.8c-1.3,0-2.3-1-2.3-2.7c0-1.7,1-2.7,2.3-2.7c0.6,0,1.2,0.3,1.7,0.9
			v-2.7h1.1v7.2H503.6z M503.6,37V35c-0.3-0.4-0.8-0.7-1.3-0.7c-0.9,0-1.5,0.7-1.5,1.7c0,1,0.6,1.7,1.5,1.7
			C502.8,37.7,503.3,37.4,503.6,37z"/>
		<path class="st4" d="M505.9,36c0-1.5,1.1-2.7,2.6-2.7c1.6,0,2.6,1.2,2.6,2.8v0.3h-4c0.1,0.8,0.7,1.4,1.7,1.4
			c0.5,0,1.1-0.2,1.5-0.6l0.5,0.7c-0.5,0.5-1.3,0.8-2.1,0.8C507,38.7,505.9,37.6,505.9,36z M508.5,34.2c-1,0-1.4,0.7-1.5,1.4h2.9
			C509.9,34.9,509.5,34.2,508.5,34.2z"/>
	</g>
	<g>
		<path class="st4" d="M474.7,53v-1l3.7-5.1h-3.7v-1.1h5.3v1l-3.7,5.1h3.7V53H474.7z"/>
		<path class="st4" d="M481.2,46.4c0-0.4,0.3-0.7,0.7-0.7c0.4,0,0.7,0.3,0.7,0.7s-0.3,0.7-0.7,0.7C481.5,47.1,481.2,46.8,481.2,46.4
			z M481.4,53v-5.2h1.1V53H481.4z"/>
		<path class="st4" d="M487.5,53v-3.3c0-0.8-0.4-1.1-1-1.1c-0.6,0-1.1,0.3-1.3,0.7V53H484v-5.2h1.1v0.7c0.3-0.4,1-0.8,1.8-0.8
			c1.1,0,1.7,0.6,1.7,1.7V53H487.5z"/>
		<path class="st4" d="M489.7,50.3c0-1.6,1.1-2.7,2.7-2.7c1,0,1.6,0.4,2,0.9l-0.7,0.7c-0.3-0.4-0.7-0.6-1.2-0.6
			c-0.9,0-1.6,0.7-1.6,1.7s0.6,1.7,1.6,1.7c0.5,0,0.9-0.2,1.2-0.6l0.7,0.7c-0.4,0.5-1,0.9-2,0.9C490.8,53.1,489.7,51.9,489.7,50.3z"
			/>
		<path class="st4" d="M499.5,55.1c-1-1.2-1.6-3-1.6-4.8s0.6-3.5,1.6-4.8l0.7,0.5c-0.7,1.3-1.1,2.5-1.1,4.2s0.4,2.9,1.1,4.2
			L499.5,55.1z"/>
		<path class="st4" d="M500.7,47.5c0-1,0.7-1.8,1.8-1.8c1.1,0,1.8,0.8,1.8,1.8c0,1-0.7,1.8-1.8,1.8
			C501.4,49.2,500.7,48.5,500.7,47.5z M503.5,47.5c0-0.6-0.4-1.1-1-1.1c-0.5,0-0.9,0.4-0.9,1.1c0,0.6,0.4,1.1,0.9,1.1
			C503.1,48.5,503.5,48.1,503.5,47.5z M501.8,53l4.6-7.2h0.7l-4.6,7.2H501.8z M504.6,51.3c0-1,0.7-1.8,1.8-1.8s1.8,0.8,1.8,1.8
			c0,1-0.7,1.8-1.8,1.8S504.6,52.3,504.6,51.3z M507.3,51.3c0-0.6-0.4-1.1-1-1.1c-0.6,0-0.9,0.4-0.9,1.1c0,0.6,0.4,1.1,0.9,1.1
			C506.9,52.4,507.3,51.9,507.3,51.3z"/>
		<path class="st4" d="M508.7,54.6c0.7-1.3,1.1-2.5,1.1-4.2s-0.4-2.9-1.1-4.2l0.7-0.5c1,1.2,1.6,3,1.6,4.8s-0.6,3.5-1.6,4.8
			L508.7,54.6z"/>
	</g>
	<g>
		<path class="st4" d="M525,38.6l-1.6-2.7h-1.2v2.7h-1.3v-7.2h3.2c1.4,0,2.3,0.9,2.3,2.3c0,1.3-0.8,2-1.7,2.1l1.8,2.8H525z
			 M525.2,33.7c0-0.7-0.5-1.1-1.2-1.1h-1.7v2.3h1.7C524.6,34.8,525.2,34.3,525.2,33.7z"/>
		<path class="st4" d="M527,36c0-1.5,1.1-2.7,2.6-2.7c1.6,0,2.6,1.2,2.6,2.8v0.3h-4c0.1,0.8,0.7,1.4,1.7,1.4c0.5,0,1.1-0.2,1.5-0.6
			l0.5,0.7c-0.5,0.5-1.3,0.8-2.1,0.8C528.2,38.7,527,37.6,527,36z M529.7,34.2c-1,0-1.4,0.7-1.5,1.4h2.9
			C531.1,34.9,530.7,34.2,529.7,34.2z"/>
		<path class="st4" d="M532.9,37.9l0.5-0.8c0.4,0.4,1.1,0.7,1.8,0.7s1-0.3,1-0.7c0-1-3.1-0.3-3.1-2.3c0-0.9,0.7-1.6,2-1.6
			c0.9,0,1.6,0.3,2,0.7l-0.5,0.8c-0.3-0.4-0.9-0.6-1.5-0.6c-0.6,0-1,0.3-1,0.6c0,0.9,3.1,0.2,3.1,2.3c0,0.9-0.8,1.6-2.2,1.6
			C534.3,38.7,533.5,38.4,532.9,37.9z"/>
		<path class="st4" d="M538.1,36c0-1.5,1.1-2.7,2.6-2.7c1.6,0,2.6,1.2,2.6,2.8v0.3h-4c0.1,0.8,0.7,1.4,1.7,1.4
			c0.5,0,1.1-0.2,1.5-0.6L543,38c-0.5,0.5-1.3,0.8-2.1,0.8C539.3,38.7,538.1,37.6,538.1,36z M540.8,34.2c-1,0-1.4,0.7-1.5,1.4h2.9
			C542.2,34.9,541.8,34.2,540.8,34.2z"/>
		<path class="st4" d="M544.5,38.6v-5.2h1.1v0.8c0.4-0.5,1-0.9,1.7-0.9v1.1c-0.1,0-0.2,0-0.4,0c-0.5,0-1.1,0.3-1.3,0.7v3.5H544.5z"
			/>
		<path class="st4" d="M549.6,38.6l-2.1-5.2h1.2l1.5,3.9l1.5-3.9h1.2l-2.1,5.2H549.6z"/>
		<path class="st4" d="M553.3,36c0-1.5,1.1-2.7,2.6-2.7c1.6,0,2.6,1.2,2.6,2.8v0.3h-4c0.1,0.8,0.7,1.4,1.7,1.4
			c0.5,0,1.1-0.2,1.5-0.6l0.5,0.7c-0.5,0.5-1.3,0.8-2.1,0.8C554.5,38.7,553.3,37.6,553.3,36z M555.9,34.2c-1,0-1.4,0.7-1.5,1.4h2.9
			C557.4,34.9,557,34.2,555.9,34.2z"/>
		<path class="st4" d="M562.1,35c0-2.3,1.7-3.7,3.8-3.7c1.4,0,2.3,0.7,2.9,1.5l-1,0.6c-0.4-0.5-1.1-1-1.9-1c-1.4,0-2.5,1.1-2.5,2.6
			s1.1,2.6,2.5,2.6c0.7,0,1.4-0.3,1.7-0.6v-1.1h-2.1v-1.1h3.4v2.7c-0.7,0.8-1.7,1.3-3,1.3C563.8,38.7,562.1,37.3,562.1,35z"/>
		<path class="st4" d="M570.1,38.6v-5.2h1.1v0.8c0.4-0.5,1-0.9,1.7-0.9v1.1c-0.1,0-0.2,0-0.4,0c-0.5,0-1.1,0.3-1.3,0.7v3.5H570.1z"
			/>
		<path class="st4" d="M577,38.6V38c-0.4,0.4-1,0.7-1.7,0.7c-0.9,0-1.8-0.6-1.8-1.7c0-1.2,1-1.7,1.8-1.7c0.7,0,1.3,0.2,1.7,0.7v-0.8
			c0-0.6-0.5-1-1.2-1c-0.6,0-1.1,0.2-1.5,0.7l-0.5-0.8c0.6-0.6,1.4-0.8,2.2-0.8c1.2,0,2.2,0.5,2.2,1.9v3.4H577z M577,37.4v-0.8
			c-0.3-0.4-0.7-0.5-1.2-0.5c-0.6,0-1.1,0.4-1.1,0.9c0,0.6,0.5,0.9,1.1,0.9C576.3,37.9,576.8,37.8,577,37.4z"/>
		<path class="st4" d="M583.3,38.6v-0.7c-0.4,0.5-1,0.8-1.7,0.8c-1.3,0-2.3-1-2.3-2.7c0-1.7,1-2.7,2.3-2.7c0.6,0,1.2,0.3,1.7,0.9
			v-2.7h1.1v7.2H583.3z M583.3,37V35c-0.3-0.4-0.8-0.7-1.3-0.7c-0.9,0-1.5,0.7-1.5,1.7c0,1,0.6,1.7,1.5,1.7
			C582.5,37.7,583,37.4,583.3,37z"/>
		<path class="st4" d="M585.6,36c0-1.5,1.1-2.7,2.6-2.7c1.6,0,2.6,1.2,2.6,2.8v0.3h-4c0.1,0.8,0.7,1.4,1.7,1.4
			c0.5,0,1.1-0.2,1.5-0.6l0.5,0.7c-0.5,0.5-1.3,0.8-2.1,0.8C586.7,38.7,585.6,37.6,585.6,36z M588.2,34.2c-1,0-1.4,0.7-1.5,1.4h2.9
			C589.7,34.9,589.2,34.2,588.2,34.2z"/>
	</g>
	<g>
		<path class="st4" d="M562.3,53v-7.2h3.2c1.5,0,2.3,1,2.3,2.3s-0.9,2.3-2.3,2.3h-1.9V53H562.3z M566.6,48c0-0.7-0.5-1.1-1.2-1.1
			h-1.7v2.3h1.7C566,49.2,566.6,48.7,566.6,48z"/>
		<path class="st4" d="M568.9,53v-7.2h1.1v2.7c0.4-0.5,1-0.9,1.7-0.9c1.3,0,2.3,1.1,2.3,2.7c0,1.7-1,2.7-2.3,2.7
			c-0.7,0-1.3-0.3-1.7-0.8V53H568.9z M571.3,52.1c0.9,0,1.5-0.7,1.5-1.7s-0.6-1.7-1.5-1.7c-0.5,0-1.1,0.3-1.3,0.7v2.1
			C570.2,51.8,570.8,52.1,571.3,52.1z"/>
		<path class="st4" d="M579.2,55.1c-1-1.2-1.6-3-1.6-4.8s0.6-3.5,1.6-4.8l0.7,0.5c-0.7,1.3-1.1,2.5-1.1,4.2s0.4,2.9,1.1,4.2
			L579.2,55.1z"/>
		<path class="st4" d="M580.4,47.5c0-1,0.7-1.8,1.8-1.8c1.1,0,1.8,0.8,1.8,1.8c0,1-0.7,1.8-1.8,1.8
			C581.2,49.2,580.4,48.5,580.4,47.5z M583.2,47.5c0-0.6-0.4-1.1-1-1.1c-0.5,0-0.9,0.4-0.9,1.1c0,0.6,0.4,1.1,0.9,1.1
			C582.8,48.5,583.2,48.1,583.2,47.5z M581.5,53l4.6-7.2h0.7l-4.6,7.2H581.5z M584.3,51.3c0-1,0.7-1.8,1.8-1.8s1.8,0.8,1.8,1.8
			c0,1-0.7,1.8-1.8,1.8S584.3,52.3,584.3,51.3z M587,51.3c0-0.6-0.4-1.1-1-1.1c-0.6,0-0.9,0.4-0.9,1.1c0,0.6,0.4,1.1,0.9,1.1
			C586.7,52.4,587,51.9,587,51.3z"/>
		<path class="st4" d="M588.4,54.6c0.7-1.3,1.1-2.5,1.1-4.2s-0.4-2.9-1.1-4.2l0.7-0.5c1,1.2,1.6,3,1.6,4.8s-0.6,3.5-1.6,4.8
			L588.4,54.6z"/>
	</g>
	<g>
		<path class="st4" d="M9.1,75l-1.8-2.9H5.9V75H5v-7.2h2.9c1.3,0,2.3,0.8,2.3,2.2c0,1.3-0.9,2-1.9,2.1l1.9,2.9H9.1z M9.2,70
			c0-0.8-0.6-1.4-1.4-1.4H5.9v2.7h1.9C8.6,71.4,9.2,70.8,9.2,70z"/>
		<path class="st4" d="M14.6,75v-0.6c-0.4,0.5-1,0.7-1.7,0.7c-0.9,0-1.8-0.6-1.8-1.7c0-1.2,0.9-1.7,1.8-1.7c0.7,0,1.3,0.2,1.7,0.7
			v-0.9c0-0.7-0.6-1.1-1.3-1.1c-0.6,0-1.1,0.2-1.6,0.7l-0.4-0.6c0.6-0.6,1.2-0.9,2.1-0.9c1.1,0,2,0.5,2,1.8V75H14.6z M14.6,74v-1
			c-0.3-0.4-0.9-0.6-1.4-0.6c-0.8,0-1.3,0.5-1.3,1.1c0,0.7,0.5,1.1,1.3,1.1C13.7,74.6,14.2,74.4,14.6,74z"/>
		<path class="st4" d="M23.3,75v-3.5c0-0.7-0.3-1.1-1-1.1c-0.5,0-1.1,0.4-1.4,0.8V75h-0.8v-3.5c0-0.7-0.3-1.1-1-1.1
			c-0.5,0-1.1,0.4-1.4,0.8V75H17v-5.2h0.8v0.8c0.2-0.3,0.9-0.9,1.7-0.9c0.8,0,1.2,0.4,1.4,1c0.3-0.5,1-1,1.7-1
			c0.9,0,1.5,0.5,1.5,1.6V75H23.3z"/>
		<path class="st4" d="M26.5,74.3V77h-0.8v-7.2h0.8v0.8c0.4-0.5,1-0.9,1.8-0.9c1.4,0,2.3,1,2.3,2.7c0,1.7-0.9,2.7-2.3,2.7
			C27.5,75.2,26.9,74.8,26.5,74.3z M29.7,72.4c0-1.2-0.6-2-1.7-2c-0.6,0-1.3,0.4-1.6,0.8v2.3c0.3,0.5,0.9,0.8,1.6,0.8
			C29.1,74.5,29.7,73.6,29.7,72.4z"/>
		<path class="st4" d="M35.4,75v-0.7c-0.4,0.5-1.1,0.9-1.9,0.9c-1.1,0-1.7-0.5-1.7-1.7v-3.7h0.8v3.4c0,0.9,0.5,1.2,1.2,1.2
			c0.6,0,1.2-0.4,1.5-0.8v-3.8h0.8V75H35.4z"/>
		<path class="st4" d="M37.8,75v-5.2h0.8v0.8c0.4-0.5,1-0.9,1.7-0.9v0.8c-0.1,0-0.2,0-0.3,0c-0.5,0-1.2,0.4-1.4,0.8V75H37.8z"/>
		<path class="st4" d="M44.6,75v-0.6c-0.4,0.5-1,0.7-1.7,0.7c-0.9,0-1.8-0.6-1.8-1.7c0-1.2,0.9-1.7,1.8-1.7c0.7,0,1.3,0.2,1.7,0.7
			v-0.9c0-0.7-0.6-1.1-1.3-1.1c-0.6,0-1.1,0.2-1.6,0.7l-0.4-0.6c0.6-0.6,1.2-0.9,2.1-0.9c1.1,0,2,0.5,2,1.8V75H44.6z M44.6,74v-1
			c-0.3-0.4-0.9-0.6-1.4-0.6c-0.8,0-1.3,0.5-1.3,1.1c0,0.7,0.5,1.1,1.3,1.1C43.7,74.6,44.3,74.4,44.6,74z"/>
		<path class="st4" d="M55,75l-0.6-1.6h-3.6L50.1,75h-1l2.9-7.2h1.1L56,75H55z M52.5,68.8L51,72.7h3L52.5,68.8z"/>
		<path class="st4" d="M56.9,76.4l0.4-0.6c0.4,0.5,0.9,0.7,1.7,0.7c0.9,0,1.7-0.4,1.7-1.6v-0.7c-0.4,0.5-1,0.9-1.7,0.9
			c-1.4,0-2.3-1-2.3-2.7c0-1.7,0.9-2.7,2.3-2.7c0.7,0,1.3,0.3,1.7,0.9v-0.8h0.8v5.1c0,1.7-1.2,2.3-2.5,2.3
			C58.1,77.2,57.5,77,56.9,76.4z M60.7,73.6v-2.3c-0.3-0.5-0.9-0.8-1.6-0.8c-1,0-1.7,0.8-1.7,2c0,1.1,0.6,2,1.7,2
			C59.8,74.4,60.4,74,60.7,73.6z"/>
		<path class="st4" d="M66.6,75v-0.7c-0.4,0.5-1.1,0.9-1.9,0.9c-1.1,0-1.7-0.5-1.7-1.7v-3.7h0.8v3.4c0,0.9,0.5,1.2,1.2,1.2
			c0.6,0,1.2-0.4,1.5-0.8v-3.8h0.8V75H66.6z"/>
		<path class="st4" d="M68.7,72.4c0-1.5,1-2.7,2.6-2.7c0.9,0,1.5,0.4,1.9,0.9l-0.5,0.5c-0.3-0.5-0.8-0.7-1.3-0.7
			c-1.1,0-1.8,0.9-1.8,2s0.7,2,1.8,2c0.5,0,1-0.2,1.3-0.7l0.5,0.5c-0.4,0.5-1,0.9-1.9,0.9C69.8,75.2,68.7,74,68.7,72.4z"/>
		<path class="st4" d="M77.9,75v-3.4c0-0.9-0.5-1.2-1.2-1.2c-0.6,0-1.2,0.4-1.5,0.8V75h-0.8v-7.2h0.8v2.7c0.4-0.4,1.1-0.9,1.9-0.9
			c1.1,0,1.7,0.5,1.7,1.7V75H77.9z"/>
		<path class="st4" d="M83.6,75v-0.6c-0.4,0.5-1,0.7-1.7,0.7c-0.9,0-1.8-0.6-1.8-1.7c0-1.2,0.9-1.7,1.8-1.7c0.7,0,1.3,0.2,1.7,0.7
			v-0.9c0-0.7-0.6-1.1-1.3-1.1c-0.6,0-1.1,0.2-1.6,0.7l-0.4-0.6c0.6-0.6,1.2-0.9,2.1-0.9c1.1,0,2,0.5,2,1.8V75H83.6z M83.6,74v-1
			c-0.3-0.4-0.9-0.6-1.4-0.6c-0.8,0-1.3,0.5-1.3,1.1c0,0.7,0.5,1.1,1.3,1.1C82.7,74.6,83.2,74.4,83.6,74z"/>
		<path class="st4" d="M94.9,75v-5.9L92.5,75h-0.4l-2.4-5.9V75h-0.9v-7.2h1.3l2.2,5.4l2.2-5.4h1.3V75H94.9z"/>
		<path class="st4" d="M97.3,68.6c0-0.3,0.2-0.5,0.5-0.5c0.3,0,0.5,0.2,0.5,0.5c0,0.3-0.2,0.5-0.5,0.5
			C97.6,69.1,97.3,68.9,97.3,68.6z M97.5,75v-5.2h0.8V75H97.5z"/>
		<path class="st4" d="M103.4,75v-3.4c0-0.9-0.5-1.2-1.2-1.2c-0.6,0-1.2,0.4-1.5,0.8V75h-0.8v-5.2h0.8v0.8c0.4-0.4,1.1-0.9,1.9-0.9
			c1.1,0,1.7,0.5,1.7,1.7V75H103.4z"/>
		<path class="st4" d="M105.6,72.4c0-1.5,1.1-2.7,2.6-2.7c1.6,0,2.5,1.2,2.5,2.8v0.2h-4.2c0.1,1,0.8,1.8,1.9,1.8
			c0.6,0,1.2-0.2,1.6-0.7l0.4,0.5c-0.5,0.5-1.2,0.8-2.1,0.8C106.7,75.2,105.6,74.1,105.6,72.4z M108.1,70.4c-1.1,0-1.7,0.9-1.7,1.7
			h3.4C109.8,71.3,109.3,70.4,108.1,70.4z"/>
	</g>
	<g>
		<path class="st4" d="M336.2,75v-1.8h-3.4v-0.7l3.1-4.6h1.2v4.6h1v0.8h-1V75H336.2z M336.2,68.7l-2.5,3.7h2.5V68.7z"/>
		<path class="st4" d="M339.8,75l2.9-6.4h-3.9v-0.8h4.9v0.6l-2.9,6.6H339.8z"/>
		<path class="st4" d="M343.6,74.6c0-0.3,0.3-0.6,0.6-0.6s0.6,0.3,0.6,0.6s-0.3,0.6-0.6,0.6S343.6,74.9,343.6,74.6z"/>
		<path class="st4" d="M346,71.5c0-1.8,0.8-3.7,2.7-3.7c2,0,2.7,1.9,2.7,3.7c0,1.7-0.8,3.7-2.7,3.7C346.8,75.2,346,73.2,346,71.5z
			 M350.6,71.5c0-1.4-0.5-2.9-1.8-2.9s-1.8,1.5-1.8,2.9c0,1.4,0.5,2.9,1.8,2.9S350.6,72.9,350.6,71.5z"/>
	</g>
	<g>
		<path class="st4" d="M410.7,75v-0.7c2.6-2,4-3.2,4-4.5c0-0.9-0.8-1.3-1.5-1.3c-0.9,0-1.5,0.4-2,0.9l-0.5-0.6
			c0.5-0.7,1.5-1.1,2.5-1.1c1.2,0,2.4,0.7,2.4,2.1c0,1.5-1.5,2.8-3.5,4.4h3.5V75H410.7z"/>
		<path class="st4" d="M417,73.2c0-1,0.8-1.6,1.7-1.9c-0.8-0.2-1.6-0.8-1.6-1.7c0-1.3,1.3-1.9,2.5-1.9c1.2,0,2.5,0.6,2.5,1.9
			c0,0.9-0.8,1.5-1.6,1.7c0.9,0.3,1.7,0.9,1.7,1.9c0,1.2-1.2,2-2.6,2C418.1,75.2,417,74.5,417,73.2z M421.2,73.1
			c0-0.9-1.2-1.3-1.7-1.4c-0.4,0.1-1.7,0.5-1.7,1.4c0,0.8,0.8,1.2,1.7,1.2C420.4,74.4,421.2,73.9,421.2,73.1z M421.1,69.7
			c0-0.7-0.7-1.2-1.6-1.2c-0.9,0-1.6,0.4-1.6,1.2c0,0.9,1.1,1.2,1.6,1.2C420,70.9,421.1,70.6,421.1,69.7z"/>
		<path class="st4" d="M423.3,74.6c0-0.3,0.3-0.6,0.6-0.6s0.6,0.3,0.6,0.6s-0.3,0.6-0.6,0.6S423.3,74.9,423.3,74.6z"/>
		<path class="st4" d="M425.7,71.5c0-1.8,0.8-3.7,2.7-3.7c2,0,2.7,1.9,2.7,3.7c0,1.7-0.8,3.7-2.7,3.7
			C426.5,75.2,425.7,73.2,425.7,71.5z M430.3,71.5c0-1.4-0.5-2.9-1.8-2.9s-1.8,1.5-1.8,2.9c0,1.4,0.5,2.9,1.8,2.9
			S430.3,72.9,430.3,71.5z"/>
	</g>
	<g>
		<path class="st4" d="M497.3,75v-6l-1.2,1.2l-0.5-0.5l1.8-1.9h0.8V75H497.3z"/>
		<path class="st4" d="M501,75v-6l-1.2,1.2l-0.5-0.5l1.8-1.9h0.8V75H501z"/>
		<path class="st4" d="M503.4,74.6c0-0.3,0.3-0.6,0.6-0.6s0.6,0.3,0.6,0.6s-0.3,0.6-0.6,0.6S503.4,74.9,503.4,74.6z"/>
		<path class="st4" d="M505.8,73.2c0-1,0.8-1.6,1.7-1.9c-0.8-0.2-1.6-0.8-1.6-1.7c0-1.3,1.3-1.9,2.5-1.9c1.2,0,2.5,0.6,2.5,1.9
			c0,0.9-0.8,1.5-1.6,1.7c0.9,0.3,1.7,0.9,1.7,1.9c0,1.2-1.2,2-2.6,2C506.9,75.2,505.8,74.5,505.8,73.2z M510,73.1
			c0-0.9-1.2-1.3-1.7-1.4c-0.4,0.1-1.7,0.5-1.7,1.4c0,0.8,0.8,1.2,1.7,1.2C509.2,74.4,510,73.9,510,73.1z M509.9,69.7
			c0-0.7-0.7-1.2-1.6-1.2c-0.9,0-1.6,0.4-1.6,1.2c0,0.9,1.1,1.2,1.6,1.2C508.8,70.9,509.9,70.6,509.9,69.7z"/>
	</g>
	<g>
		<path class="st4" d="M581,75v-6l-1.2,1.2l-0.5-0.5l1.8-1.9h0.8V75H581z"/>
		<path class="st4" d="M583.3,74.6c0-0.3,0.3-0.6,0.6-0.6s0.6,0.3,0.6,0.6s-0.3,0.6-0.6,0.6S583.3,74.9,583.3,74.6z"/>
		<path class="st4" d="M585.5,74l0.5-0.6c0.4,0.6,1.2,0.9,2,0.9c1,0,1.7-0.5,1.7-1.3c0-0.9-0.7-1.3-1.8-1.3c-0.3,0-0.6,0-0.7,0V71
			c0.1,0,0.5,0,0.7,0c0.9,0,1.7-0.4,1.7-1.2c0-0.8-0.7-1.2-1.6-1.2c-0.8,0-1.4,0.3-1.9,0.9l-0.5-0.6c0.5-0.6,1.3-1.1,2.5-1.1
			c1.4,0,2.4,0.7,2.4,1.9c0,1-0.9,1.6-1.6,1.7c0.7,0.1,1.7,0.6,1.7,1.8c0,1.2-1,2.1-2.5,2.1C586.8,75.2,585.9,74.6,585.5,74z"/>
	</g>
	<g>
		<path class="st4" d="M4.6,96.1l0.5-0.7c0.5,0.5,1.2,1,2.3,1c1.3,0,1.7-0.7,1.7-1.2c0-1.9-4.3-0.8-4.3-3.4c0-1.2,1.1-2,2.5-2
			c1.1,0,1.9,0.4,2.6,1l-0.5,0.7c-0.5-0.6-1.3-0.9-2.1-0.9c-0.9,0-1.5,0.5-1.5,1.1c0,1.6,4.3,0.7,4.3,3.4c0,1-0.7,2.1-2.7,2.1
			C6.1,97.3,5.2,96.8,4.6,96.1z"/>
		<path class="st4" d="M11.1,90.7c0-0.3,0.2-0.5,0.5-0.5c0.3,0,0.5,0.2,0.5,0.5c0,0.3-0.2,0.5-0.5,0.5C11.4,91.2,11.1,91,11.1,90.7z
			 M11.3,97.1v-5.2h0.8v5.2H11.3z"/>
		<path class="st4" d="M17.2,97.1v-3.4c0-0.9-0.5-1.2-1.2-1.2c-0.6,0-1.2,0.4-1.5,0.8v3.8h-0.8v-5.2h0.8v0.8
			c0.4-0.4,1.1-0.9,1.9-0.9c1.1,0,1.7,0.5,1.7,1.7v3.7H17.2z"/>
		<path class="st4" d="M23.4,97.1v-0.8c-0.4,0.5-1,0.9-1.8,0.9c-1.4,0-2.3-1-2.3-2.7c0-1.7,0.9-2.7,2.3-2.7c0.7,0,1.3,0.3,1.8,0.9
			V90h0.8v7.2H23.4z M23.4,95.7v-2.4c-0.3-0.5-0.9-0.8-1.6-0.8c-1,0-1.7,0.9-1.7,2s0.6,2,1.7,2C22.5,96.6,23.1,96.2,23.4,95.7z"/>
		<path class="st4" d="M25.5,94.5c0-1.5,1.1-2.7,2.6-2.7c1.6,0,2.5,1.2,2.5,2.8v0.2h-4.2c0.1,1,0.8,1.8,1.9,1.8
			c0.6,0,1.2-0.2,1.6-0.7l0.4,0.5c-0.5,0.5-1.2,0.8-2.1,0.8C26.6,97.3,25.5,96.2,25.5,94.5z M28.1,92.5c-1.1,0-1.7,0.9-1.7,1.7h3.4
			C29.8,93.4,29.3,92.5,28.1,92.5z"/>
		<path class="st4" d="M31.5,96.5l0.4-0.6c0.3,0.4,1,0.7,1.7,0.7c0.8,0,1.2-0.4,1.2-0.9c0-1.3-3.2-0.5-3.2-2.4
			c0-0.8,0.7-1.5,1.9-1.5c0.9,0,1.5,0.3,1.9,0.8l-0.4,0.6c-0.3-0.4-0.9-0.7-1.6-0.7c-0.7,0-1.2,0.4-1.2,0.8c0,1.1,3.2,0.4,3.2,2.4
			c0,0.9-0.7,1.6-2,1.6C32.7,97.3,32,97,31.5,96.5z"/>
		<path class="st4" d="M40.2,97.1v-0.6c-0.4,0.5-1,0.7-1.7,0.7c-0.9,0-1.8-0.6-1.8-1.7c0-1.2,0.9-1.7,1.8-1.7c0.7,0,1.3,0.2,1.7,0.7
			v-0.9c0-0.7-0.6-1.1-1.3-1.1c-0.6,0-1.1,0.2-1.6,0.7l-0.4-0.6c0.6-0.6,1.2-0.9,2.1-0.9c1.1,0,2,0.5,2,1.8v3.6H40.2z M40.2,96v-1
			c-0.3-0.4-0.9-0.6-1.4-0.6c-0.8,0-1.3,0.5-1.3,1.1c0,0.7,0.5,1.1,1.3,1.1C39.3,96.7,39.9,96.5,40.2,96z"/>
		<path class="st4" d="M42.6,97.1v-5.2h0.8v0.8c0.4-0.5,1-0.9,1.7-0.9v0.8c-0.1,0-0.2,0-0.3,0c-0.5,0-1.2,0.4-1.4,0.8v3.7H42.6z"/>
		<path class="st4" d="M53.3,97.1l-2.7-3.2l-0.7,0.8v2.4H49V90h0.9v3.7L53,90h1.1l-3,3.4l3.3,3.8H53.3z"/>
		<path class="st4" d="M58.9,97.1v-3.4c0-0.9-0.5-1.2-1.2-1.2c-0.6,0-1.2,0.4-1.5,0.8v3.8h-0.8V90h0.8v2.7c0.4-0.4,1.1-0.9,1.9-0.9
			c1.1,0,1.7,0.5,1.7,1.7v3.7H58.9z"/>
		<path class="st4" d="M64.9,97.1v-0.7c-0.4,0.5-1.1,0.9-1.9,0.9c-1.1,0-1.7-0.5-1.7-1.7v-3.7h0.8v3.4c0,0.9,0.5,1.2,1.2,1.2
			c0.6,0,1.2-0.4,1.5-0.8v-3.8h0.8v5.2H64.9z"/>
		<path class="st4" d="M67.3,97.1v-5.2h0.8v0.8c0.4-0.5,1-0.9,1.7-0.9v0.8c-0.1,0-0.2,0-0.3,0c-0.5,0-1.2,0.4-1.4,0.8v3.7H67.3z"/>
		<path class="st4" d="M74.6,97.1v-0.8c-0.4,0.5-1,0.9-1.8,0.9c-1.4,0-2.3-1-2.3-2.7c0-1.7,0.9-2.7,2.3-2.7c0.7,0,1.3,0.3,1.8,0.9
			V90h0.8v7.2H74.6z M74.6,95.7v-2.4c-0.3-0.5-0.9-0.8-1.6-0.8c-1,0-1.7,0.9-1.7,2s0.6,2,1.7,2C73.7,96.6,74.3,96.2,74.6,95.7z"/>
		<path class="st4" d="M86,97.1v-5.9l-2.4,5.9h-0.4l-2.4-5.9v5.9h-0.9V90h1.3l2.2,5.4l2.2-5.4h1.3v7.2H86z"/>
		<path class="st4" d="M88.4,90.7c0-0.3,0.2-0.5,0.5-0.5c0.3,0,0.5,0.2,0.5,0.5c0,0.3-0.2,0.5-0.5,0.5C88.7,91.2,88.4,91,88.4,90.7z
			 M88.6,97.1v-5.2h0.8v5.2H88.6z"/>
		<path class="st4" d="M94.5,97.1v-3.4c0-0.9-0.5-1.2-1.2-1.2c-0.6,0-1.2,0.4-1.5,0.8v3.8H91v-5.2h0.8v0.8c0.4-0.4,1.1-0.9,1.9-0.9
			c1.1,0,1.7,0.5,1.7,1.7v3.7H94.5z"/>
		<path class="st4" d="M96.6,94.5c0-1.5,1.1-2.7,2.6-2.7c1.6,0,2.5,1.2,2.5,2.8v0.2h-4.2c0.1,1,0.8,1.8,1.9,1.8
			c0.6,0,1.2-0.2,1.6-0.7l0.4,0.5c-0.5,0.5-1.2,0.8-2.1,0.8C97.7,97.3,96.6,96.2,96.6,94.5z M99.2,92.5c-1.1,0-1.7,0.9-1.7,1.7h3.4
			C100.9,93.4,100.4,92.5,99.2,92.5z"/>
	</g>
	<g>
		<path class="st4" d="M334.9,97.1v-1.8h-3.4v-0.7l3.1-4.6h1.2v4.6h1v0.8h-1v1.8H334.9z M334.9,90.8l-2.5,3.7h2.5V90.8z"/>
		<path class="st4" d="M337.9,96.1l0.5-0.6c0.5,0.6,1.1,0.9,2,0.9c1,0,1.7-0.7,1.7-1.5c0-0.9-0.7-1.6-1.6-1.6
			c-0.6,0-1.2,0.2-1.7,0.7l-0.7-0.2V90h4.4v0.8H339v2.5c0.3-0.3,1-0.6,1.7-0.6c1.2,0,2.3,0.8,2.3,2.3c0,1.5-1.1,2.4-2.6,2.4
			C339.2,97.3,338.4,96.8,337.9,96.1z"/>
		<path class="st4" d="M344.2,96.7c0-0.3,0.3-0.6,0.6-0.6s0.6,0.3,0.6,0.6s-0.3,0.6-0.6,0.6S344.2,97,344.2,96.7z"/>
		<path class="st4" d="M349.8,97.1v-1.8h-3.4v-0.7l3.1-4.6h1.2v4.6h1v0.8h-1v1.8H349.8z M349.8,90.8l-2.5,3.7h2.5V90.8z"/>
	</g>
	<g>
		<path class="st4" d="M411.6,96.1l0.5-0.6c0.5,0.6,1.1,0.9,2,0.9c1,0,1.7-0.7,1.7-1.5c0-0.9-0.7-1.6-1.6-1.6
			c-0.6,0-1.2,0.2-1.7,0.7l-0.7-0.2V90h4.4v0.8h-3.5v2.5c0.3-0.3,1-0.6,1.7-0.6c1.2,0,2.3,0.8,2.3,2.3c0,1.5-1.1,2.4-2.6,2.4
			C412.9,97.3,412.1,96.8,411.6,96.1z"/>
		<path class="st4" d="M418.1,96.4l0.5-0.7c0.4,0.4,0.8,0.7,1.5,0.7c1.5,0,2-1.5,2-2.8c0-0.1,0-0.2,0-0.3c-0.3,0.5-1.1,1.1-2,1.1
			c-1.3,0-2.4-0.8-2.4-2.3c0-1.2,0.9-2.3,2.5-2.3c2,0,2.8,1.8,2.8,3.7c0,1.9-0.9,3.7-2.9,3.7C419.2,97.3,418.6,96.9,418.1,96.4z
			 M422.1,92.6c-0.1-0.9-0.5-2-1.8-2c-1.1,0-1.6,0.8-1.6,1.5c0,1.1,0.7,1.6,1.7,1.6C421,93.7,421.7,93.3,422.1,92.6z"/>
		<path class="st4" d="M423.9,96.7c0-0.3,0.3-0.6,0.6-0.6s0.6,0.3,0.6,0.6s-0.3,0.6-0.6,0.6S423.9,97,423.9,96.7z"/>
		<path class="st4" d="M426.1,96.1l0.5-0.6c0.4,0.6,1.2,0.9,2,0.9c1,0,1.7-0.5,1.7-1.3c0-0.9-0.7-1.3-1.8-1.3c-0.3,0-0.6,0-0.7,0
			v-0.8c0.1,0,0.5,0,0.7,0c0.9,0,1.7-0.4,1.7-1.2c0-0.8-0.7-1.2-1.6-1.2c-0.8,0-1.4,0.3-1.9,0.9l-0.5-0.6c0.5-0.6,1.3-1.1,2.5-1.1
			c1.4,0,2.4,0.7,2.4,1.9c0,1-0.9,1.6-1.6,1.7c0.7,0.1,1.7,0.6,1.7,1.8c0,1.2-1,2.1-2.5,2.1C427.4,97.3,426.5,96.7,426.1,96.1z"/>
	</g>
	<g>
		<path class="st4" d="M496.7,96.1l0.5-0.6c0.4,0.6,1.2,0.9,2,0.9c1,0,1.7-0.5,1.7-1.3c0-0.9-0.7-1.3-1.8-1.3c-0.3,0-0.6,0-0.7,0
			v-0.8c0.1,0,0.5,0,0.7,0c0.9,0,1.7-0.4,1.7-1.2c0-0.8-0.7-1.2-1.6-1.2c-0.8,0-1.4,0.3-1.9,0.9l-0.5-0.6c0.5-0.6,1.3-1.1,2.5-1.1
			c1.4,0,2.4,0.7,2.4,1.9c0,1-0.9,1.6-1.6,1.7c0.7,0.1,1.7,0.6,1.7,1.8c0,1.2-1,2.1-2.5,2.1C498,97.3,497.1,96.7,496.7,96.1z"/>
		<path class="st4" d="M503,96.7c0-0.3,0.3-0.6,0.6-0.6s0.6,0.3,0.6,0.6s-0.3,0.6-0.6,0.6S503,97,503,96.7z"/>
		<path class="st4" d="M505.4,93.6c0-1.8,0.8-3.7,2.7-3.7c2,0,2.7,1.9,2.7,3.7c0,1.7-0.8,3.7-2.7,3.7
			C506.2,97.3,505.4,95.3,505.4,93.6z M510,93.6c0-1.4-0.5-2.9-1.8-2.9s-1.8,1.5-1.8,2.9c0,1.4,0.5,2.9,1.8,2.9S510,95,510,93.6z"/>
	</g>
	<g>
		<path class="st4" d="M576.3,97.1v-0.7c2.6-2,4-3.2,4-4.5c0-0.9-0.8-1.3-1.5-1.3c-0.9,0-1.5,0.4-2,0.9l-0.5-0.6
			c0.5-0.7,1.5-1.1,2.5-1.1c1.2,0,2.4,0.7,2.4,2.1c0,1.5-1.5,2.8-3.5,4.4h3.5v0.8H576.3z"/>
		<path class="st4" d="M582.8,96.7c0-0.3,0.3-0.6,0.6-0.6s0.6,0.3,0.6,0.6s-0.3,0.6-0.6,0.6S582.8,97,582.8,96.7z"/>
		<path class="st4" d="M585.1,93.6c0-1.8,0.8-3.7,2.7-3.7c2,0,2.7,1.9,2.7,3.7c0,1.7-0.8,3.7-2.7,3.7
			C585.9,97.3,585.1,95.3,585.1,93.6z M589.7,93.6c0-1.4-0.5-2.9-1.8-2.9s-1.8,1.5-1.8,2.9c0,1.4,0.5,2.9,1.8,2.9
			S589.7,95,589.7,93.6z"/>
	</g>
	<g>
		<path class="st4" d="M9.2,119.2l-1.8-2.9H5.9v2.9H5v-7.2h2.9c1.3,0,2.3,0.8,2.3,2.2c0,1.3-0.9,2-1.9,2.1l1.9,2.9H9.2z M9.2,114.2
			c0-0.8-0.6-1.4-1.4-1.4H5.9v2.7h1.9C8.6,115.6,9.2,115,9.2,114.2z"/>
		<path class="st4" d="M14.6,119.2v-0.6c-0.4,0.5-1,0.7-1.7,0.7c-0.9,0-1.8-0.6-1.8-1.7c0-1.2,0.9-1.7,1.8-1.7
			c0.7,0,1.3,0.2,1.7,0.7v-0.9c0-0.7-0.6-1.1-1.3-1.1c-0.6,0-1.1,0.2-1.6,0.7l-0.4-0.6c0.6-0.6,1.2-0.9,2.1-0.9c1.1,0,2,0.5,2,1.8
			v3.6H14.6z M14.6,118.1v-1c-0.3-0.4-0.9-0.6-1.4-0.6c-0.8,0-1.3,0.5-1.3,1.1c0,0.7,0.5,1.1,1.3,1.1
			C13.7,118.8,14.3,118.6,14.6,118.1z"/>
		<path class="st4" d="M15.1,121l0.3-0.6c0.2,0.2,0.4,0.3,0.7,0.3c0.5,0,0.8-0.3,0.8-0.9V114h0.8v5.7c0,1-0.5,1.6-1.5,1.6
			C15.7,121.4,15.5,121.2,15.1,121z M16.9,112.8c0-0.3,0.2-0.5,0.5-0.5c0.3,0,0.5,0.2,0.5,0.5c0,0.3-0.2,0.5-0.5,0.5
			C17.1,113.3,16.9,113.1,16.9,112.8z"/>
		<path class="st4" d="M20.2,118.5v2.8h-0.8V114h0.8v0.8c0.4-0.5,1-0.9,1.8-0.9c1.4,0,2.3,1,2.3,2.7c0,1.7-0.9,2.7-2.3,2.7
			C21.3,119.4,20.7,119,20.2,118.5z M23.5,116.6c0-1.2-0.6-2-1.7-2c-0.6,0-1.3,0.4-1.6,0.8v2.3c0.3,0.5,0.9,0.8,1.6,0.8
			C22.8,118.6,23.5,117.8,23.5,116.6z"/>
		<path class="st4" d="M29.1,119.2v-0.7c-0.4,0.5-1.1,0.9-1.9,0.9c-1.1,0-1.7-0.5-1.7-1.7V114h0.8v3.4c0,0.9,0.5,1.2,1.2,1.2
			c0.6,0,1.2-0.4,1.5-0.8V114h0.8v5.2H29.1z"/>
		<path class="st4" d="M31.5,119.2V114h0.8v0.8c0.4-0.5,1-0.9,1.7-0.9v0.8c-0.1,0-0.2,0-0.3,0c-0.5,0-1.2,0.4-1.4,0.8v3.7H31.5z"/>
		<path class="st4" d="M38.3,119.2v-0.6c-0.4,0.5-1,0.7-1.7,0.7c-0.9,0-1.8-0.6-1.8-1.7c0-1.2,0.9-1.7,1.8-1.7
			c0.7,0,1.3,0.2,1.7,0.7v-0.9c0-0.7-0.6-1.1-1.3-1.1c-0.6,0-1.1,0.2-1.6,0.7l-0.4-0.6c0.6-0.6,1.2-0.9,2.1-0.9c1.1,0,2,0.5,2,1.8
			v3.6H38.3z M38.3,118.1v-1c-0.3-0.4-0.9-0.6-1.4-0.6c-0.8,0-1.3,0.5-1.3,1.1c0,0.7,0.5,1.1,1.3,1.1
			C37.5,118.8,38,118.6,38.3,118.1z"/>
		<path class="st4" d="M43.6,119.2v-7.2H46c2.2,0,3.7,1.6,3.7,3.6c0,2-1.5,3.6-3.7,3.6H43.6z M48.8,115.7c0-1.6-1-2.8-2.8-2.8h-1.6
			v5.6H46C47.8,118.4,48.8,117.2,48.8,115.7z"/>
		<path class="st4" d="M54.3,119.2v-0.6c-0.4,0.5-1,0.7-1.7,0.7c-0.9,0-1.8-0.6-1.8-1.7c0-1.2,0.9-1.7,1.8-1.7
			c0.7,0,1.3,0.2,1.7,0.7v-0.9c0-0.7-0.6-1.1-1.3-1.1c-0.6,0-1.1,0.2-1.6,0.7l-0.4-0.6c0.6-0.6,1.2-0.9,2.1-0.9c1.1,0,2,0.5,2,1.8
			v3.6H54.3z M54.3,118.1v-1c-0.3-0.4-0.9-0.6-1.4-0.6c-0.8,0-1.3,0.5-1.3,1.1c0,0.7,0.5,1.1,1.3,1.1
			C53.5,118.8,54,118.6,54.3,118.1z"/>
		<path class="st4" d="M56.8,119.2V114h0.8v0.8c0.4-0.5,1-0.9,1.7-0.9v0.8c-0.1,0-0.2,0-0.3,0c-0.5,0-1.2,0.4-1.4,0.8v3.7H56.8z"/>
		<path class="st4" d="M60.2,112.8c0-0.3,0.2-0.5,0.5-0.5c0.3,0,0.5,0.2,0.5,0.5c0,0.3-0.2,0.5-0.5,0.5
			C60.4,113.3,60.2,113.1,60.2,112.8z M60.3,119.2V114h0.8v5.2H60.3z"/>
		<path class="st4" d="M62.8,119.2v-7.2h0.8v2.8c0.4-0.6,1-0.9,1.8-0.9c1.4,0,2.3,1.1,2.3,2.7c0,1.7-1,2.7-2.3,2.7
			c-0.7,0-1.4-0.4-1.8-0.9v0.8H62.8z M65.1,118.6c1.1,0,1.7-0.9,1.7-2c0-1.2-0.6-2-1.7-2c-0.6,0-1.3,0.4-1.6,0.8v2.4
			C63.8,118.3,64.5,118.6,65.1,118.6z"/>
		<path class="st4" d="M72.2,119.2v-0.6c-0.4,0.5-1,0.7-1.7,0.7c-0.9,0-1.8-0.6-1.8-1.7c0-1.2,0.9-1.7,1.8-1.7
			c0.7,0,1.3,0.2,1.7,0.7v-0.9c0-0.7-0.6-1.1-1.3-1.1c-0.6,0-1.1,0.2-1.6,0.7l-0.4-0.6c0.6-0.6,1.2-0.9,2.1-0.9c1.1,0,2,0.5,2,1.8
			v3.6H72.2z M72.2,118.1v-1c-0.3-0.4-0.9-0.6-1.4-0.6c-0.8,0-1.3,0.5-1.3,1.1c0,0.7,0.5,1.1,1.3,1.1
			C71.3,118.8,71.9,118.6,72.2,118.1z"/>
		<path class="st4" d="M83.6,119.2v-5.9l-2.4,5.9h-0.4l-2.4-5.9v5.9h-0.9v-7.2h1.3l2.2,5.4l2.2-5.4h1.3v7.2H83.6z"/>
		<path class="st4" d="M86,112.8c0-0.3,0.2-0.5,0.5-0.5c0.3,0,0.5,0.2,0.5,0.5c0,0.3-0.2,0.5-0.5,0.5C86.2,113.3,86,113.1,86,112.8z
			 M86.1,119.2V114h0.8v5.2H86.1z"/>
		<path class="st4" d="M92.1,119.2v-3.4c0-0.9-0.5-1.2-1.2-1.2c-0.6,0-1.2,0.4-1.5,0.8v3.8h-0.8V114h0.8v0.8
			c0.4-0.4,1.1-0.9,1.9-0.9c1.1,0,1.7,0.5,1.7,1.7v3.7H92.1z"/>
		<path class="st4" d="M94.2,116.6c0-1.5,1.1-2.7,2.6-2.7c1.6,0,2.5,1.2,2.5,2.8v0.2H95c0.1,1,0.8,1.8,1.9,1.8
			c0.6,0,1.2-0.2,1.6-0.7l0.4,0.5c-0.5,0.5-1.2,0.8-2.1,0.8C95.3,119.4,94.2,118.3,94.2,116.6z M96.7,114.6c-1.1,0-1.7,0.9-1.7,1.7
			h3.4C98.4,115.5,97.9,114.6,96.7,114.6z"/>
	</g>
	<g>
		<path class="st4" d="M331.2,119.2v-0.7c2.6-2,4-3.2,4-4.5c0-0.9-0.8-1.3-1.5-1.3c-0.9,0-1.5,0.4-2,0.9l-0.5-0.6
			c0.5-0.7,1.5-1.1,2.5-1.1c1.2,0,2.4,0.7,2.4,2.1c0,1.5-1.5,2.8-3.5,4.4h3.5v0.8H331.2z"/>
		<path class="st4" d="M337.5,117.4c0-1,0.8-1.6,1.7-1.9c-0.8-0.2-1.6-0.8-1.6-1.7c0-1.3,1.3-1.9,2.5-1.9c1.2,0,2.5,0.6,2.5,1.9
			c0,0.9-0.8,1.5-1.6,1.7c0.9,0.3,1.7,0.9,1.7,1.9c0,1.2-1.2,2-2.6,2C338.7,119.4,337.5,118.6,337.5,117.4z M341.7,117.3
			c0-0.9-1.2-1.3-1.7-1.4c-0.4,0.1-1.7,0.5-1.7,1.4c0,0.8,0.8,1.2,1.7,1.2C341,118.6,341.7,118.1,341.7,117.3z M341.6,113.9
			c0-0.7-0.7-1.2-1.6-1.2c-0.9,0-1.6,0.4-1.6,1.2c0,0.9,1.1,1.2,1.6,1.2C340.5,115.1,341.6,114.8,341.6,113.9z"/>
		<path class="st4" d="M343.8,118.8c0-0.3,0.3-0.6,0.6-0.6s0.6,0.3,0.6,0.6s-0.3,0.6-0.6,0.6S343.8,119.1,343.8,118.8z"/>
		<path class="st4" d="M346.6,118.5l0.5-0.7c0.4,0.4,0.8,0.7,1.5,0.7c1.5,0,2-1.5,2-2.8c0-0.1,0-0.2,0-0.3c-0.3,0.5-1.1,1.1-2,1.1
			c-1.3,0-2.4-0.8-2.4-2.3c0-1.2,0.9-2.3,2.5-2.3c2,0,2.8,1.8,2.8,3.7c0,1.9-0.9,3.7-2.9,3.7C347.7,119.4,347,119,346.6,118.5z
			 M350.6,114.7c-0.1-0.9-0.5-2-1.8-2c-1.1,0-1.6,0.8-1.6,1.5c0,1.1,0.7,1.6,1.7,1.6C349.5,115.8,350.2,115.4,350.6,114.7z"/>
	</g>
	<g>
		<path class="st4" d="M411,118.2l0.5-0.6c0.4,0.6,1.2,0.9,2,0.9c1,0,1.7-0.5,1.7-1.3c0-0.9-0.7-1.3-1.8-1.3c-0.3,0-0.6,0-0.7,0
			v-0.8c0.1,0,0.5,0,0.7,0c0.9,0,1.7-0.4,1.7-1.2c0-0.8-0.7-1.2-1.6-1.2c-0.8,0-1.4,0.3-1.9,0.9l-0.5-0.6c0.5-0.6,1.3-1.1,2.5-1.1
			c1.4,0,2.4,0.7,2.4,1.9c0,1-0.9,1.6-1.6,1.7c0.7,0.1,1.7,0.6,1.7,1.8c0,1.2-1,2.1-2.5,2.1C412.3,119.4,411.4,118.8,411,118.2z"/>
		<path class="st4" d="M417.2,117.4c0-1,0.8-1.6,1.7-1.9c-0.8-0.2-1.6-0.8-1.6-1.7c0-1.3,1.3-1.9,2.5-1.9c1.2,0,2.5,0.6,2.5,1.9
			c0,0.9-0.8,1.5-1.6,1.7c0.9,0.3,1.7,0.9,1.7,1.9c0,1.2-1.2,2-2.6,2C418.4,119.4,417.2,118.6,417.2,117.4z M421.5,117.3
			c0-0.9-1.2-1.3-1.7-1.4c-0.4,0.1-1.7,0.5-1.7,1.4c0,0.8,0.8,1.2,1.7,1.2C420.7,118.6,421.5,118.1,421.5,117.3z M421.4,113.9
			c0-0.7-0.7-1.2-1.6-1.2c-0.9,0-1.6,0.4-1.6,1.2c0,0.9,1.1,1.2,1.6,1.2C420.2,115.1,421.4,114.8,421.4,113.9z"/>
		<path class="st4" d="M423.6,118.8c0-0.3,0.3-0.6,0.6-0.6s0.6,0.3,0.6,0.6s-0.3,0.6-0.6,0.6S423.6,119.1,423.6,118.8z"/>
		<path class="st4" d="M426.3,118.5l0.5-0.7c0.4,0.4,0.8,0.7,1.5,0.7c1.5,0,2-1.5,2-2.8c0-0.1,0-0.2,0-0.3c-0.3,0.5-1.1,1.1-2,1.1
			c-1.3,0-2.4-0.8-2.4-2.3c0-1.2,0.9-2.3,2.5-2.3c2,0,2.8,1.8,2.8,3.7c0,1.9-0.9,3.7-2.9,3.7C427.4,119.4,426.8,119,426.3,118.5z
			 M430.3,114.7c-0.1-0.9-0.5-2-1.8-2c-1.1,0-1.6,0.8-1.6,1.5c0,1.1,0.7,1.6,1.7,1.6C429.2,115.8,429.9,115.4,430.3,114.7z"/>
	</g>
	<g>
		<path class="st4" d="M500.4,119.2v-1.8H497v-0.7l3.1-4.6h1.2v4.6h1v0.8h-1v1.8H500.4z M500.4,112.9l-2.5,3.7h2.5V112.9z"/>
		<path class="st4" d="M503.3,118.8c0-0.3,0.3-0.6,0.6-0.6s0.6,0.3,0.6,0.6s-0.3,0.6-0.6,0.6S503.3,119.1,503.3,118.8z"/>
		<path class="st4" d="M506,118.5l0.5-0.7c0.4,0.4,0.8,0.7,1.5,0.7c1.5,0,2-1.5,2-2.8c0-0.1,0-0.2,0-0.3c-0.3,0.5-1.1,1.1-2,1.1
			c-1.3,0-2.4-0.8-2.4-2.3c0-1.2,0.9-2.3,2.5-2.3c2,0,2.8,1.8,2.8,3.7c0,1.9-0.9,3.7-2.9,3.7C507.1,119.4,506.5,119,506,118.5z
			 M510,114.7c-0.1-0.9-0.5-2-1.8-2c-1.1,0-1.6,0.8-1.6,1.5c0,1.1,0.7,1.6,1.7,1.6C508.9,115.8,509.6,115.4,510,114.7z"/>
	</g>
	<g>
		<path class="st4" d="M580.6,119.2v-6l-1.2,1.2l-0.5-0.5l1.8-1.9h0.8v7.2H580.6z"/>
		<path class="st4" d="M583,118.8c0-0.3,0.3-0.6,0.6-0.6s0.6,0.3,0.6,0.6s-0.3,0.6-0.6,0.6S583,119.1,583,118.8z"/>
		<path class="st4" d="M585.4,115.7c0-2,0.9-3.7,2.9-3.7c0.9,0,1.6,0.4,2,0.9l-0.5,0.7c-0.4-0.4-0.8-0.7-1.5-0.7c-1.4,0-2,1.4-2,2.8
			c0,0.1,0,0.2,0,0.3c0.3-0.5,1.1-1.1,2-1.1c1.3,0,2.3,0.8,2.3,2.3c0,1.2-0.9,2.3-2.5,2.3C586.1,119.4,585.4,117.6,585.4,115.7z
			 M589.8,117.1c0-1.1-0.7-1.6-1.7-1.6c-0.7,0-1.4,0.4-1.8,1.1c0.1,0.9,0.6,2,1.8,2C589.2,118.6,589.8,117.7,589.8,117.1z"/>
	</g>
	<g>
		<path class="st4" d="M5,141.3v-7.2h3.2c1.2,0,2,0.8,2,1.8c0,0.9-0.6,1.5-1.3,1.6c0.8,0.1,1.4,0.9,1.4,1.8c0,1.2-0.8,1.9-2.1,1.9H5
			z M9.3,136.1c0-0.6-0.4-1.2-1.2-1.2H5.9v2.3h2.2C8.9,137.3,9.3,136.8,9.3,136.1z M9.4,139.3c0-0.7-0.5-1.2-1.3-1.2H5.9v2.5h2.2
			C8.9,140.5,9.4,140.1,9.4,139.3z"/>
		<path class="st4" d="M15,141.3v-0.6c-0.4,0.5-1,0.7-1.7,0.7c-0.9,0-1.8-0.6-1.8-1.7c0-1.2,0.9-1.7,1.8-1.7c0.7,0,1.3,0.2,1.7,0.7
			v-0.9c0-0.7-0.6-1.1-1.3-1.1c-0.6,0-1.1,0.2-1.6,0.7l-0.4-0.6c0.6-0.6,1.2-0.9,2.1-0.9c1.1,0,2,0.5,2,1.8v3.6H15z M15,140.2v-1
			c-0.3-0.4-0.9-0.6-1.4-0.6c-0.8,0-1.3,0.5-1.3,1.1c0,0.7,0.5,1.1,1.3,1.1C14.2,140.9,14.7,140.7,15,140.2z"/>
		<path class="st4" d="M23.7,141.3v-3.5c0-0.7-0.3-1.1-1-1.1c-0.5,0-1.1,0.4-1.4,0.8v3.8h-0.8v-3.5c0-0.7-0.3-1.1-1-1.1
			c-0.5,0-1.1,0.4-1.4,0.8v3.8h-0.8v-5.2h0.8v0.8c0.2-0.3,0.9-0.9,1.7-0.9c0.8,0,1.2,0.4,1.4,1c0.3-0.5,1-1,1.7-1
			c0.9,0,1.5,0.5,1.5,1.6v3.8H23.7z"/>
		<path class="st4" d="M29.7,141.3v-3.4c0-0.9-0.5-1.2-1.2-1.2c-0.6,0-1.2,0.4-1.5,0.8v3.8h-0.8v-5.2H27v0.8
			c0.4-0.4,1.1-0.9,1.9-0.9c1.1,0,1.7,0.5,1.7,1.7v3.7H29.7z"/>
		<path class="st4" d="M32,134.8c0-0.3,0.2-0.5,0.5-0.5c0.3,0,0.5,0.2,0.5,0.5c0,0.3-0.2,0.5-0.5,0.5C32.2,135.4,32,135.1,32,134.8z
			 M32.1,141.3v-5.2h0.8v5.2H32.1z"/>
		<path class="st4" d="M37.8,141.3v-0.6c-0.4,0.5-1,0.7-1.7,0.7c-0.9,0-1.8-0.6-1.8-1.7c0-1.2,0.9-1.7,1.8-1.7
			c0.7,0,1.3,0.2,1.7,0.7v-0.9c0-0.7-0.6-1.1-1.3-1.1c-0.6,0-1.1,0.2-1.6,0.7l-0.4-0.6c0.6-0.6,1.2-0.9,2.1-0.9c1.1,0,2,0.5,2,1.8
			v3.6H37.8z M37.8,140.2v-1c-0.3-0.4-0.9-0.6-1.4-0.6c-0.8,0-1.3,0.5-1.3,1.1c0,0.7,0.5,1.1,1.3,1.1
			C36.9,140.9,37.5,140.7,37.8,140.2z"/>
		<path class="st4" d="M47.3,141.3l-2.7-3.2l-0.7,0.8v2.4H43v-7.2h0.9v3.7l3.2-3.7h1.1l-3,3.4l3.3,3.8H47.3z"/>
		<path class="st4" d="M52.5,141.3v-0.6c-0.4,0.5-1,0.7-1.7,0.7c-0.9,0-1.8-0.6-1.8-1.7c0-1.2,0.9-1.7,1.8-1.7
			c0.7,0,1.3,0.2,1.7,0.7v-0.9c0-0.7-0.6-1.1-1.3-1.1c-0.6,0-1.1,0.2-1.6,0.7l-0.4-0.6c0.6-0.6,1.2-0.9,2.1-0.9c1.1,0,2,0.5,2,1.8
			v3.6H52.5z M52.5,140.2v-1c-0.3-0.4-0.9-0.6-1.4-0.6c-0.8,0-1.3,0.5-1.3,1.1c0,0.7,0.5,1.1,1.3,1.1
			C51.7,140.9,52.2,140.7,52.5,140.2z"/>
		<path class="st4" d="M55,141.3v-7.2h0.8v7.2H55z"/>
		<path class="st4" d="M60.6,141.3v-0.6c-0.4,0.5-1,0.7-1.7,0.7c-0.9,0-1.8-0.6-1.8-1.7c0-1.2,0.9-1.7,1.8-1.7
			c0.7,0,1.3,0.2,1.7,0.7v-0.9c0-0.7-0.6-1.1-1.3-1.1c-0.6,0-1.1,0.2-1.6,0.7l-0.4-0.6c0.6-0.6,1.2-0.9,2.1-0.9c1.1,0,2,0.5,2,1.8
			v3.6H60.6z M60.6,140.2v-1c-0.3-0.4-0.9-0.6-1.4-0.6c-0.8,0-1.3,0.5-1.3,1.1c0,0.7,0.5,1.1,1.3,1.1
			C59.8,140.9,60.3,140.7,60.6,140.2z"/>
		<path class="st4" d="M66.6,141.3v-3.4c0-0.9-0.5-1.2-1.2-1.2c-0.6,0-1.2,0.4-1.5,0.8v3.8h-0.8v-5.2h0.8v0.8
			c0.4-0.4,1.1-0.9,1.9-0.9c1.1,0,1.7,0.5,1.7,1.7v3.7H66.6z"/>
	</g>
	<g>
		<path class="st4" d="M349.2,139.1v-0.7h2.6v0.7H349.2z"/>
	</g>
	<g>
		<path class="st4" d="M411.2,140.3l0.5-0.6c0.4,0.6,1.2,0.9,2,0.9c1,0,1.7-0.5,1.7-1.3c0-0.9-0.7-1.3-1.8-1.3c-0.3,0-0.6,0-0.7,0
			v-0.8c0.1,0,0.5,0,0.7,0c0.9,0,1.7-0.4,1.7-1.2c0-0.8-0.7-1.2-1.6-1.2c-0.8,0-1.4,0.3-1.9,0.9l-0.5-0.6c0.5-0.6,1.3-1.1,2.5-1.1
			c1.4,0,2.4,0.7,2.4,1.9c0,1-0.9,1.6-1.6,1.7c0.7,0.1,1.7,0.6,1.7,1.8c0,1.2-1,2.1-2.5,2.1C412.5,141.5,411.7,140.9,411.2,140.3z"
			/>
		<path class="st4" d="M417.8,140.6l0.5-0.7c0.4,0.4,0.8,0.7,1.5,0.7c1.5,0,2-1.5,2-2.8c0-0.1,0-0.2,0-0.3c-0.3,0.5-1.1,1.1-2,1.1
			c-1.3,0-2.4-0.8-2.4-2.3c0-1.2,0.9-2.3,2.5-2.3c2,0,2.8,1.8,2.8,3.7c0,1.9-0.9,3.7-2.9,3.7C418.9,141.5,418.3,141.1,417.8,140.6z
			 M421.8,136.8c-0.1-0.9-0.5-2-1.8-2c-1.1,0-1.6,0.8-1.6,1.5c0,1.1,0.7,1.6,1.7,1.6C420.7,137.9,421.4,137.5,421.8,136.8z"/>
		<path class="st4" d="M423.6,140.8c0-0.3,0.3-0.6,0.6-0.6s0.6,0.3,0.6,0.6s-0.3,0.6-0.6,0.6S423.6,141.2,423.6,140.8z"/>
		<path class="st4" d="M426.1,140.3l0.5-0.6c0.5,0.6,1.1,0.9,2,0.9c1,0,1.7-0.7,1.7-1.5c0-0.9-0.7-1.6-1.6-1.6
			c-0.6,0-1.2,0.2-1.7,0.7l-0.7-0.2v-3.9h4.4v0.8h-3.5v2.5c0.3-0.3,1-0.6,1.7-0.6c1.2,0,2.3,0.8,2.3,2.3c0,1.5-1.1,2.4-2.6,2.4
			C427.5,141.5,426.7,141,426.1,140.3z"/>
	</g>
	<g>
		<path class="st4" d="M508.6,139.1v-0.7h2.6v0.7H508.6z"/>
	</g>
	<g>
		<path class="st4" d="M588.3,139.1v-0.7h2.6v0.7H588.3z"/>
	</g>
	<g>
		<path class="st4" d="M9.4,163.4l-2.7-3.2L5.9,161v2.4H5v-7.2h0.9v3.7l3.2-3.7h1.1l-3,3.4l3.3,3.8H9.4z"/>
		<path class="st4" d="M14.6,163.4v-0.6c-0.4,0.5-1,0.7-1.7,0.7c-0.9,0-1.8-0.6-1.8-1.7c0-1.2,0.9-1.7,1.8-1.7
			c0.7,0,1.3,0.2,1.7,0.7v-0.9c0-0.7-0.6-1.1-1.3-1.1c-0.6,0-1.1,0.2-1.6,0.7l-0.4-0.6c0.6-0.6,1.2-0.9,2.1-0.9c1.1,0,2,0.5,2,1.8
			v3.6H14.6z M14.6,162.3v-1c-0.3-0.4-0.9-0.6-1.4-0.6c-0.8,0-1.3,0.5-1.3,1.1c0,0.7,0.5,1.1,1.3,1.1
			C13.7,163,14.2,162.8,14.6,162.3z"/>
		<path class="st4" d="M16.8,164.7c0.1,0.1,0.3,0.1,0.4,0.1c0.4,0,0.6-0.1,0.8-0.5l0.3-0.8l-2.2-5.3h0.9l1.7,4.3l1.7-4.3h0.9
			l-2.6,6.3c-0.3,0.8-0.8,1-1.5,1.1c-0.2,0-0.4,0-0.6-0.1L16.8,164.7z"/>
		<path class="st4" d="M25.5,163.4v-0.6c-0.4,0.5-1,0.7-1.7,0.7c-0.9,0-1.8-0.6-1.8-1.7c0-1.2,0.9-1.7,1.8-1.7
			c0.7,0,1.3,0.2,1.7,0.7v-0.9c0-0.7-0.6-1.1-1.3-1.1c-0.6,0-1.1,0.2-1.6,0.7l-0.4-0.6c0.6-0.6,1.2-0.9,2.1-0.9c1.1,0,2,0.5,2,1.8
			v3.6H25.5z M25.5,162.3v-1c-0.3-0.4-0.9-0.6-1.4-0.6c-0.8,0-1.3,0.5-1.3,1.1c0,0.7,0.5,1.1,1.3,1.1
			C24.7,163,25.2,162.8,25.5,162.3z"/>
		<path class="st4" d="M31.7,163.4v-0.8c-0.4,0.5-1,0.9-1.8,0.9c-1.4,0-2.3-1-2.3-2.7c0-1.7,0.9-2.7,2.3-2.7c0.7,0,1.3,0.3,1.8,0.9
			v-2.8h0.8v7.2H31.7z M31.7,162v-2.4c-0.3-0.5-0.9-0.8-1.6-0.8c-1,0-1.7,0.9-1.7,2c0,1.2,0.6,2,1.7,2
			C30.8,162.8,31.4,162.5,31.7,162z"/>
		<path class="st4" d="M43.1,163.4v-5.9l-2.4,5.9h-0.4l-2.4-5.9v5.9H37v-7.2h1.3l2.2,5.4l2.2-5.4H44v7.2H43.1z"/>
		<path class="st4" d="M45.5,156.9c0-0.3,0.2-0.5,0.5-0.5c0.3,0,0.5,0.2,0.5,0.5c0,0.3-0.2,0.5-0.5,0.5
			C45.7,157.5,45.5,157.2,45.5,156.9z M45.6,163.4v-5.2h0.8v5.2H45.6z"/>
		<path class="st4" d="M51.6,163.4V160c0-0.9-0.5-1.2-1.2-1.2c-0.6,0-1.2,0.4-1.5,0.8v3.8h-0.8v-5.2h0.8v0.8
			c0.4-0.4,1.1-0.9,1.9-0.9c1.1,0,1.7,0.5,1.7,1.7v3.7H51.6z"/>
		<path class="st4" d="M53.7,160.8c0-1.5,1.1-2.7,2.6-2.7c1.6,0,2.5,1.2,2.5,2.8v0.2h-4.2c0.1,1,0.8,1.8,1.9,1.8
			c0.6,0,1.2-0.2,1.6-0.7l0.4,0.5c-0.5,0.5-1.2,0.8-2.1,0.8C54.8,163.6,53.7,162.4,53.7,160.8z M56.3,158.8c-1.1,0-1.7,0.9-1.7,1.7
			H58C58,159.7,57.4,158.8,56.3,158.8z"/>
	</g>
	<g>
		<path class="st4" d="M341.5,163.4v-6l-1.2,1.2l-0.5-0.5l1.8-1.9h0.8v7.2H341.5z"/>
		<path class="st4" d="M343.9,162.9c0-0.3,0.3-0.6,0.6-0.6s0.6,0.3,0.6,0.6s-0.3,0.6-0.6,0.6S343.9,163.3,343.9,162.9z"/>
		<path class="st4" d="M346.6,162.7l0.5-0.7c0.4,0.4,0.8,0.7,1.5,0.7c1.5,0,2-1.5,2-2.8c0-0.1,0-0.2,0-0.3c-0.3,0.5-1.1,1.1-2,1.1
			c-1.3,0-2.4-0.8-2.4-2.3c0-1.2,0.9-2.3,2.5-2.3c2,0,2.8,1.8,2.8,3.7c0,1.9-0.9,3.7-2.9,3.7C347.7,163.5,347.1,163.2,346.6,162.7z
			 M350.6,158.9c-0.1-0.9-0.5-2-1.8-2c-1.1,0-1.6,0.8-1.6,1.5c0,1.1,0.7,1.6,1.7,1.6C349.5,160,350.2,159.6,350.6,158.9z"/>
	</g>
	<g>
		<path class="st4" d="M417.1,162.4l0.5-0.6c0.5,0.6,1.1,0.9,2,0.9c1,0,1.7-0.7,1.7-1.5c0-0.9-0.7-1.6-1.6-1.6
			c-0.6,0-1.2,0.2-1.7,0.7l-0.7-0.2v-3.9h4.4v0.8h-3.5v2.5c0.3-0.3,1-0.6,1.7-0.6c1.2,0,2.3,0.8,2.3,2.3c0,1.5-1.1,2.4-2.6,2.4
			C418.4,163.6,417.6,163.1,417.1,162.4z"/>
		<path class="st4" d="M423.4,162.9c0-0.3,0.3-0.6,0.6-0.6s0.6,0.3,0.6,0.6s-0.3,0.6-0.6,0.6S423.4,163.3,423.4,162.9z"/>
		<path class="st4" d="M425.7,159.8c0-1.8,0.8-3.7,2.7-3.7c2,0,2.7,2,2.7,3.7c0,1.7-0.8,3.7-2.7,3.7
			C426.5,163.6,425.7,161.6,425.7,159.8z M430.3,159.8c0-1.4-0.5-2.9-1.8-2.9s-1.8,1.5-1.8,2.9s0.5,2.9,1.8,2.9
			S430.3,161.3,430.3,159.8z"/>
	</g>
	<g>
		<path class="st4" d="M499.5,163.4l2.9-6.4h-3.9v-0.8h4.9v0.6l-2.9,6.6H499.5z"/>
		<path class="st4" d="M503.3,162.9c0-0.3,0.3-0.6,0.6-0.6s0.6,0.3,0.6,0.6s-0.3,0.6-0.6,0.6S503.3,163.3,503.3,162.9z"/>
		<path class="st4" d="M505.7,159.9c0-2,0.9-3.7,2.9-3.7c0.9,0,1.6,0.4,2,0.9l-0.5,0.7c-0.4-0.4-0.8-0.7-1.5-0.7c-1.4,0-2,1.4-2,2.8
			c0,0.1,0,0.2,0,0.3c0.3-0.5,1.1-1.1,2-1.1c1.3,0,2.3,0.8,2.3,2.3c0,1.2-0.9,2.3-2.5,2.3C506.4,163.6,505.7,161.8,505.7,159.9z
			 M510.1,161.2c0-1.1-0.7-1.6-1.7-1.6c-0.7,0-1.4,0.4-1.8,1.1c0.1,0.9,0.6,2,1.8,2C509.5,162.8,510.1,161.9,510.1,161.2z"/>
	</g>
	<g>
		<path class="st4" d="M576.7,159.8c0-1.8,0.8-3.7,2.7-3.7c2,0,2.7,2,2.7,3.7c0,1.7-0.8,3.7-2.7,3.7
			C577.4,163.6,576.7,161.6,576.7,159.8z M581.2,159.8c0-1.4-0.5-2.9-1.8-2.9s-1.8,1.5-1.8,2.9s0.5,2.9,1.8,2.9
			S581.2,161.3,581.2,159.8z"/>
		<path class="st4" d="M583,162.9c0-0.3,0.3-0.6,0.6-0.6s0.6,0.3,0.6,0.6s-0.3,0.6-0.6,0.6S583,163.3,583,162.9z"/>
		<path class="st4" d="M585.8,162.7l0.5-0.7c0.4,0.4,0.8,0.7,1.5,0.7c1.5,0,2-1.5,2-2.8c0-0.1,0-0.2,0-0.3c-0.3,0.5-1.1,1.1-2,1.1
			c-1.3,0-2.4-0.8-2.4-2.3c0-1.2,0.9-2.3,2.5-2.3c2,0,2.8,1.8,2.8,3.7c0,1.9-0.9,3.7-2.9,3.7C586.8,163.5,586.2,163.2,585.8,162.7z
			 M589.7,158.9c-0.1-0.9-0.5-2-1.8-2c-1.1,0-1.6,0.8-1.6,1.5c0,1.1,0.7,1.6,1.7,1.6C588.7,160,589.4,159.6,589.7,158.9z"/>
	</g>
	<g>
		<path class="st4" d="M4.7,185.5v-0.7l4-5.6h-4v-0.8h5.2v0.7l-4,5.6H10v0.8H4.7z"/>
		<path class="st4" d="M14.6,185.5v-0.6c-0.4,0.5-1,0.7-1.7,0.7c-0.9,0-1.8-0.6-1.8-1.7c0-1.2,0.9-1.7,1.8-1.7
			c0.7,0,1.3,0.2,1.7,0.7V182c0-0.7-0.6-1.1-1.3-1.1c-0.6,0-1.1,0.2-1.6,0.7l-0.4-0.6c0.6-0.6,1.2-0.9,2.1-0.9c1.1,0,2,0.5,2,1.8
			v3.6H14.6z M14.6,184.4v-1c-0.3-0.4-0.9-0.6-1.4-0.6c-0.8,0-1.3,0.5-1.3,1.1c0,0.7,0.5,1.1,1.3,1.1
			C13.7,185.1,14.3,184.9,14.6,184.4z"/>
		<path class="st4" d="M21.5,185.5l-1.4-4.2l-1.4,4.2H18l-1.7-5.2h0.8l1.3,4.1l1.4-4.1h0.7l1.4,4.1l1.3-4.1H24l-1.7,5.2H21.5z"/>
		<path class="st4" d="M28.2,185.5v-0.6c-0.4,0.5-1,0.7-1.7,0.7c-0.9,0-1.8-0.6-1.8-1.7c0-1.2,0.9-1.7,1.8-1.7
			c0.7,0,1.3,0.2,1.7,0.7V182c0-0.7-0.6-1.1-1.3-1.1c-0.6,0-1.1,0.2-1.6,0.7l-0.4-0.6c0.6-0.6,1.2-0.9,2.1-0.9c1.1,0,2,0.5,2,1.8
			v3.6H28.2z M28.2,184.4v-1c-0.3-0.4-0.9-0.6-1.4-0.6c-0.8,0-1.3,0.5-1.3,1.1c0,0.7,0.5,1.1,1.3,1.1
			C27.3,185.1,27.8,184.9,28.2,184.4z"/>
		<path class="st4" d="M30.6,185.5v-5.2h0.8v0.8c0.4-0.5,1-0.9,1.7-0.9v0.8c-0.1,0-0.2,0-0.3,0c-0.5,0-1.2,0.4-1.4,0.8v3.7H30.6z"/>
		<path class="st4" d="M43.1,185.5v-5.9l-2.4,5.9h-0.4l-2.4-5.9v5.9H37v-7.2h1.3l2.2,5.4l2.2-5.4H44v7.2H43.1z"/>
		<path class="st4" d="M45.5,179c0-0.3,0.2-0.5,0.5-0.5c0.3,0,0.5,0.2,0.5,0.5c0,0.3-0.2,0.5-0.5,0.5
			C45.7,179.6,45.5,179.3,45.5,179z M45.6,185.5v-5.2h0.8v5.2H45.6z"/>
		<path class="st4" d="M51.6,185.5v-3.4c0-0.9-0.5-1.2-1.2-1.2c-0.6,0-1.2,0.4-1.5,0.8v3.8h-0.8v-5.2h0.8v0.8
			c0.4-0.4,1.1-0.9,1.9-0.9c1.1,0,1.7,0.5,1.7,1.7v3.7H51.6z"/>
		<path class="st4" d="M53.7,182.9c0-1.5,1.1-2.7,2.6-2.7c1.6,0,2.5,1.2,2.5,2.8v0.2h-4.2c0.1,1,0.8,1.8,1.9,1.8
			c0.6,0,1.2-0.2,1.6-0.7l0.4,0.5c-0.5,0.5-1.2,0.8-2.1,0.8C54.8,185.7,53.7,184.5,53.7,182.9z M56.3,180.9c-1.1,0-1.7,0.9-1.7,1.7
			H58C58,181.8,57.4,180.9,56.3,180.9z"/>
		<path class="st4" d="M59.6,184.8l0.4-0.6c0.3,0.4,1,0.7,1.7,0.7c0.8,0,1.2-0.4,1.2-0.9c0-1.3-3.2-0.5-3.2-2.4
			c0-0.8,0.7-1.5,1.9-1.5c0.9,0,1.5,0.3,1.9,0.8l-0.4,0.6c-0.3-0.4-0.9-0.7-1.6-0.7c-0.7,0-1.2,0.4-1.2,0.8c0,1.1,3.2,0.4,3.2,2.4
			c0,0.9-0.7,1.6-2,1.6C60.9,185.7,60.1,185.4,59.6,184.8z"/>
	</g>
	<g>
		<path class="st4" d="M333,184.5l0.5-0.6c0.4,0.6,1.2,0.9,2,0.9c1,0,1.7-0.5,1.7-1.3c0-0.9-0.7-1.3-1.8-1.3c-0.3,0-0.6,0-0.7,0
			v-0.8c0.1,0,0.5,0,0.7,0c0.9,0,1.7-0.4,1.7-1.2c0-0.8-0.7-1.2-1.6-1.2c-0.8,0-1.4,0.3-1.9,0.9l-0.5-0.6c0.5-0.6,1.3-1.1,2.5-1.1
			c1.4,0,2.4,0.7,2.4,1.9c0,1-0.9,1.6-1.6,1.7c0.7,0.1,1.7,0.6,1.7,1.8c0,1.2-1,2.1-2.5,2.1C334.4,185.7,333.5,185.1,333,184.5z"/>
		<path class="st4" d="M340,185.5l2.9-6.4h-3.9v-0.8h4.9v0.6l-2.9,6.6H340z"/>
		<path class="st4" d="M343.9,185c0-0.3,0.3-0.6,0.6-0.6s0.6,0.3,0.6,0.6s-0.3,0.6-0.6,0.6S343.9,185.4,343.9,185z"/>
		<path class="st4" d="M346.6,184.8l0.5-0.7c0.4,0.4,0.8,0.7,1.5,0.7c1.5,0,2-1.5,2-2.8c0-0.1,0-0.2,0-0.3c-0.3,0.5-1.1,1.1-2,1.1
			c-1.3,0-2.4-0.8-2.4-2.3c0-1.2,0.9-2.3,2.5-2.3c2,0,2.8,1.8,2.8,3.7c0,1.9-0.9,3.7-2.9,3.7C347.7,185.6,347.1,185.3,346.6,184.8z
			 M350.6,181c-0.1-0.9-0.5-2-1.8-2c-1.1,0-1.6,0.8-1.6,1.5c0,1.1,0.7,1.6,1.7,1.6C349.5,182.1,350.2,181.7,350.6,181z"/>
	</g>
	<g>
		<path class="st4" d="M414.7,185.5v-6l-1.2,1.2l-0.5-0.5l1.8-1.9h0.8v7.2H414.7z"/>
		<path class="st4" d="M418.4,185.5v-6l-1.2,1.2l-0.5-0.5l1.8-1.9h0.8v7.2H418.4z"/>
		<path class="st4" d="M420.7,181.9c0-2,0.9-3.7,2.9-3.7c0.9,0,1.6,0.4,2,0.9l-0.5,0.7c-0.4-0.4-0.8-0.7-1.5-0.7c-1.4,0-2,1.4-2,2.8
			c0,0.1,0,0.2,0,0.3c0.3-0.5,1.1-1.1,2-1.1c1.3,0,2.3,0.8,2.3,2.3c0,1.2-0.9,2.3-2.5,2.3C421.5,185.7,420.7,183.9,420.7,181.9z
			 M425.1,183.3c0-1.1-0.7-1.6-1.7-1.6c-0.7,0-1.4,0.4-1.8,1.1c0.1,0.9,0.6,2,1.8,2C424.5,184.9,425.1,184,425.1,183.3z"/>
		<path class="st4" d="M427.2,185c0-0.3,0.3-0.6,0.6-0.6s0.6,0.3,0.6,0.6s-0.3,0.6-0.6,0.6S427.2,185.4,427.2,185z"/>
		<path class="st4" d="M430.1,185.5v-6l-1.2,1.2l-0.5-0.5l1.8-1.9h0.8v7.2H430.1z"/>
	</g>
	<g>
		<path class="st4" d="M497,185.5v-0.7c2.6-2,4-3.2,4-4.5c0-0.9-0.8-1.3-1.5-1.3c-0.9,0-1.5,0.4-2,0.9l-0.5-0.6
			c0.5-0.7,1.5-1.1,2.5-1.1c1.2,0,2.4,0.7,2.4,2.1c0,1.5-1.5,2.8-3.5,4.4h3.5v0.8H497z"/>
		<path class="st4" d="M503.4,185c0-0.3,0.3-0.6,0.6-0.6s0.6,0.3,0.6,0.6s-0.3,0.6-0.6,0.6S503.4,185.4,503.4,185z"/>
		<path class="st4" d="M505.8,183.7c0-1,0.8-1.6,1.7-1.9c-0.8-0.2-1.6-0.8-1.6-1.7c0-1.3,1.3-1.9,2.5-1.9c1.2,0,2.5,0.6,2.5,1.9
			c0,0.9-0.8,1.5-1.6,1.7c0.9,0.3,1.7,0.9,1.7,1.9c0,1.2-1.2,2-2.6,2C507,185.7,505.8,184.9,505.8,183.7z M510.1,183.6
			c0-0.9-1.2-1.3-1.7-1.4c-0.4,0.1-1.7,0.5-1.7,1.4c0,0.8,0.8,1.2,1.7,1.2C509.3,184.9,510.1,184.4,510.1,183.6z M509.9,180.2
			c0-0.7-0.7-1.2-1.6-1.2c-0.9,0-1.6,0.4-1.6,1.2c0,0.9,1.1,1.2,1.6,1.2C508.8,181.4,509.9,181.1,509.9,180.2z"/>
	</g>
	<g>
		<path class="st4" d="M580.7,185.5v-6l-1.2,1.2l-0.5-0.5l1.8-1.9h0.8v7.2H580.7z"/>
		<path class="st4" d="M583.1,185c0-0.3,0.3-0.6,0.6-0.6s0.6,0.3,0.6,0.6s-0.3,0.6-0.6,0.6S583.1,185.4,583.1,185z"/>
		<path class="st4" d="M585.5,185.5v-0.7c2.6-2,4-3.2,4-4.5c0-0.9-0.8-1.3-1.5-1.3c-0.9,0-1.5,0.4-2,0.9l-0.5-0.6
			c0.5-0.7,1.5-1.1,2.5-1.1c1.2,0,2.4,0.7,2.4,2.1c0,1.5-1.5,2.8-3.5,4.4h3.5v0.8H585.5z"/>
	</g>
</g>
</svg>
