<?xml version="1.0" encoding="utf-8"?>
<!-- Generator: Adobe Illustrator 26.4.0, SVG Export Plug-In . SVG Version: 6.00 Build 0)  -->
<svg version="1.1" id="Layer_1" xmlns="http://www.w3.org/2000/svg" xmlns:xlink="http://www.w3.org/1999/xlink" x="0px" y="0px"
	 viewBox="0 0 400.3 211.4" style="enable-background:new 0 0 400.3 211.4;" xml:space="preserve">
<style type="text/css">
	.st0{fill:#0069AA;}
	.st1{clip-path:url(#SVGID_00000040569200148170366790000014995691485662500001_);fill:#9FCC3B;}
	.st2{filter:url(#Adobe_OpacityMaskFilter);}
	.st3{fill:url(#SVGID_00000129888246259564486740000008065345835064050069_);}
	.st4{mask:url(#SVGID_00000016784687929266854000000006067716183409925255_);}
	.st5{clip-path:url(#SVGID_00000034808733385032413760000004697977511715877799_);fill:#15BFF1;}
	.st6{fill:none;stroke:#FFFFFF;}
	.st7{fill:#076AAA;}
	.st8{filter:url(#Adobe_OpacityMaskFilter_00000006686872114337492100000013116742645052565411_);}
	.st9{fill:url(#SVGID_00000053503440163408969800000008064970373217896579_);}
	.st10{mask:url(#SVGID_00000017479868311956176240000017910505892997042875_);}
	.st11{clip-path:url(#SVGID_00000090267047648332488430000014229733708957023390_);fill:#9FCC3B;}
	.st12{filter:url(#Adobe_OpacityMaskFilter_00000071535696556239425260000015720799055067376036_);}
	.st13{fill:url(#SVGID_00000048482861360613304640000008440209691078399380_);}
	.st14{mask:url(#SVGID_00000137847409288992952860000005084997536793746081_);}
	.st15{clip-path:url(#SVGID_00000088126524143599728880000007432783259266039702_);fill:#15BFF1;}
	.st16{fill:#4E4E50;}
	.st17{filter:url(#Adobe_OpacityMaskFilter_00000085222169113749371650000013305959492296528811_);}
	.st18{fill:url(#SVGID_00000048491380501822795600000003081316096637347754_);}
	.st19{mask:url(#SVGID_00000099649302535195221650000017679279771634436776_);}
	.st20{clip-path:url(#SVGID_00000103957926784123855500000001418953898381768350_);fill:#9FCC3B;}
	.st21{filter:url(#Adobe_OpacityMaskFilter_00000157294997216228072210000005414048343891120302_);}
	.st22{fill:url(#SVGID_00000083049461732702278560000008228382042607495331_);}
	.st23{mask:url(#SVGID_00000103246191664776786700000000521048451431477125_);}
	.st24{clip-path:url(#SVGID_00000132083107174971370450000011444496205238003109_);fill:#15BFF1;}
	.st25{filter:url(#Adobe_OpacityMaskFilter_00000058581617110055133120000000332638750052766624_);}
	.st26{fill:url(#SVGID_00000111160091417225669130000003980257233371099312_);}
	.st27{mask:url(#SVGID_00000018939139952755453740000015721146822264673422_);}
	.st28{clip-path:url(#SVGID_00000163058606640960109970000011704733063858716554_);fill:#9FCC3B;}
	.st29{filter:url(#Adobe_OpacityMaskFilter_00000131350178277850620950000001870036540897147533_);}
	.st30{fill:url(#SVGID_00000096775130492733086570000001175163315661656222_);}
	.st31{mask:url(#SVGID_00000107551811349670323700000013253399436778360192_);}
	.st32{clip-path:url(#SVGID_00000170251707815688564720000014058921926883002775_);fill:#15BFF1;}
	.st33{filter:url(#Adobe_OpacityMaskFilter_00000093894989733597105920000016792916809250174116_);}
	.st34{fill:url(#SVGID_00000082327998494496864440000005017467327485753757_);}
	.st35{mask:url(#SVGID_00000084491460988110494870000009355622982415781788_);}
	.st36{clip-path:url(#SVGID_00000018920734477762964090000016385977337414931589_);fill:#9FCC3B;}
	.st37{filter:url(#Adobe_OpacityMaskFilter_00000134932387578828027990000013089533112865490828_);}
	.st38{fill:url(#SVGID_00000098197801953348835240000012066806995243813816_);}
	.st39{mask:url(#SVGID_00000105417117493978075890000016005208537882775435_);}
	.st40{clip-path:url(#SVGID_00000078034533468651287620000004046155779180365461_);fill:#15BFF1;}
</style>
<path class="st0" d="M9.9,211.2V210c3.8-2.9,5.6-4.5,5.6-6.2c0-1.2-1-1.7-2-1.7c-1.2,0-2.2,0.5-2.8,1.3l-0.9-1
	c0.9-1.1,2.2-1.6,3.7-1.6c1.8,0,3.6,1,3.6,3.1c0,2-1.9,3.8-4.7,6h4.8v1.3H9.9z M22.9,200.8c2.8,0,4,2.7,4,5.3c0,2.5-1.2,5.3-4,5.3
	s-4-2.8-4-5.3C18.9,203.6,20.1,200.8,22.9,200.8z M22.9,202.2c-1.8,0-2.4,1.9-2.4,3.9s0.6,3.9,2.4,3.9c1.8,0,2.4-1.9,2.4-3.9
	S24.7,202.2,22.9,202.2z M28.4,211.2V210c3.8-2.9,5.6-4.5,5.6-6.2c0-1.2-1-1.7-2-1.7c-1.2,0-2.2,0.5-2.8,1.3l-0.9-1
	c0.9-1.1,2.2-1.6,3.7-1.6c1.8,0,3.6,1,3.6,3.1c0,2-1.9,3.8-4.7,6h4.7v1.3H28.4z M40.9,211.2V203l-1.9,2l-0.9-0.9l3-3h1.3v10.3h-1.5
	V211.2z M45.7,208.1v-1.2h3.7v1.2H45.7z M50.5,211.2V210c3.8-2.9,5.6-4.5,5.6-6.2c0-1.2-1-1.7-2-1.7c-1.2,0-2.2,0.5-2.8,1.3l-0.9-1
	c0.9-1.1,2.2-1.6,3.7-1.6c1.8,0,3.6,1,3.6,3.1c0,2-1.9,3.8-4.7,6h4.8v1.3H50.5z M59.8,211.2V210c3.8-2.9,5.6-4.5,5.6-6.2
	c0-1.2-1-1.7-2-1.7c-1.2,0-2.2,0.5-2.8,1.3l-0.9-1c0.9-1.1,2.2-1.6,3.7-1.6c1.8,0,3.6,1,3.6,3.1c0,2-1.9,3.8-4.7,6h4.8v1.3H59.8z"/>
<path d="M93.9,211.1v-0.7c3.5-2.8,5.9-4.8,5.9-6.9c0-1.5-1.2-2.1-2.3-2.1c-1.3,0-2.2,0.6-2.8,1.3l-0.6-0.6c0.7-1,2-1.6,3.4-1.6
	c1.5,0,3.2,0.9,3.2,2.9c0,2.2-2.4,4.3-5.3,6.8h5.4v0.8h-6.9V211.1z M106.6,200.7c2.7,0,3.8,2.8,3.8,5.3c0,2.4-1,5.3-3.8,5.3
	s-3.8-2.9-3.8-5.3C102.8,203.6,103.9,200.7,106.6,200.7z M106.6,201.5c-2.1,0-2.8,2.4-2.8,4.5c0,2.1,0.7,4.5,2.8,4.5
	s2.8-2.4,2.8-4.5C109.5,203.9,108.8,201.5,106.6,201.5z M112.1,211.1v-0.7c3.5-2.8,5.9-4.8,5.9-6.9c0-1.5-1.2-2.1-2.3-2.1
	c-1.3,0-2.2,0.6-2.8,1.3l-0.6-0.6c0.7-1,2-1.6,3.4-1.6c1.5,0,3.2,0.9,3.2,2.9c0,2.2-2.4,4.3-5.3,6.8h5.4v0.8h-6.9V211.1z
	 M124.8,200.7c2.7,0,3.8,2.8,3.8,5.3c0,2.4-1,5.3-3.8,5.3s-3.8-2.9-3.8-5.3C121,203.6,122.1,200.7,124.8,200.7z M124.8,201.5
	c-2.1,0-2.8,2.4-2.8,4.5c0,2.1,0.7,4.5,2.8,4.5s2.8-2.4,2.8-4.5C127.6,203.9,127,201.5,124.8,201.5z M130.5,207.8v-0.7h3.7v0.7
	H130.5z M135.4,211.1v-0.7c3.5-2.8,5.9-4.8,5.9-6.9c0-1.5-1.2-2.1-2.3-2.1c-1.3,0-2.2,0.6-2.8,1.3l-0.6-0.6c0.7-1,2-1.6,3.4-1.6
	c1.5,0,3.2,0.9,3.2,2.9c0,2.2-2.4,4.3-5.3,6.8h5.4v0.8h-6.9V211.1z M147.9,211.1v-9.1l-2.4,2.6l-0.6-0.6l3-3.2h0.8v10.3H147.9z"/>
<path d="M175.8,211v-0.7c3.5-2.8,5.9-4.8,5.9-6.9c0-1.5-1.2-2.1-2.3-2.1c-1.3,0-2.2,0.6-2.8,1.3l-0.6-0.6c0.7-1,2-1.6,3.4-1.6
	c1.5,0,3.2,0.9,3.2,2.9c0,2.2-2.4,4.3-5.3,6.8h5.4v0.8h-6.9V211z M188.5,200.7c2.7,0,3.8,2.8,3.8,5.3c0,2.4-1,5.3-3.8,5.3
	c-2.8,0-3.8-2.9-3.8-5.3C184.7,203.5,185.8,200.7,188.5,200.7z M188.5,201.5c-2.1,0-2.8,2.4-2.8,4.5c0,2.1,0.7,4.5,2.8,4.5
	c2.1,0,2.8-2.4,2.8-4.5C191.4,203.8,190.7,201.5,188.5,201.5z M197.7,211V202l-2.4,2.6l-0.6-0.6l3-3.2h0.8V211H197.7z M203.2,209.3
	c0.5,0.7,1.1,1.1,2.2,1.1c2.2,0,3-2.3,3-4.5c0-0.2,0-0.3,0-0.5c-0.4,0.7-1.6,1.7-3,1.7c-1.8,0-3.3-1.1-3.3-3.2
	c0-1.7,1.2-3.3,3.4-3.3c2.8,0,3.7,2.5,3.7,5.3c0,2.6-1.1,5.3-3.9,5.3c-1.3,0-2.1-0.5-2.8-1.3L203.2,209.3z M205.6,201.4
	c-1.7,0-2.6,1.3-2.6,2.4c0,1.7,1.1,2.5,2.6,2.5c1.1,0,2.2-0.7,2.8-1.7C208.2,203.2,207.5,201.4,205.6,201.4z M211.4,207.7V207h3.7
	v0.7H211.4z M216.3,211v-0.7c3.5-2.8,5.9-4.8,5.9-6.9c0-1.5-1.2-2.1-2.3-2.1c-1.3,0-2.2,0.6-2.8,1.3l-0.6-0.6c0.7-1,2-1.6,3.4-1.6
	c1.5,0,3.2,0.9,3.2,2.9c0,2.2-2.4,4.3-5.3,6.8h5.4v0.8h-6.9V211z M228.9,200.7c2.7,0,3.8,2.8,3.8,5.3c0,2.4-1,5.3-3.8,5.3
	c-2.7,0-3.8-2.9-3.8-5.3C225.2,203.5,226.2,200.7,228.9,200.7z M228.9,201.5c-2.1,0-2.8,2.4-2.8,4.5c0,2.1,0.7,4.5,2.8,4.5
	c2.1,0,2.8-2.4,2.8-4.5C231.8,203.8,231.1,201.5,228.9,201.5z"/>
<path d="M259.6,210.9v-0.7c3.5-2.8,5.9-4.8,5.9-6.9c0-1.5-1.2-2.1-2.3-2.1c-1.3,0-2.2,0.6-2.8,1.3l-0.6-0.6c0.7-1,2-1.6,3.4-1.6
	c1.5,0,3.2,0.9,3.2,2.9c0,2.2-2.4,4.3-5.3,6.8h5.4v0.8h-6.9V210.9z M272.3,200.6c2.7,0,3.8,2.8,3.8,5.3c0,2.4-1,5.3-3.8,5.3
	s-3.8-2.9-3.8-5.3C268.4,203.4,269.5,200.6,272.3,200.6z M272.3,201.4c-2.1,0-2.8,2.4-2.8,4.5c0,2.1,0.7,4.5,2.8,4.5
	s2.8-2.4,2.8-4.5C275.1,203.7,274.4,201.4,272.3,201.4z M281.5,210.9v-9.1l-2.4,2.6l-0.6-0.6l3-3.2h0.8v10.3H281.5z M288.5,205.7
	c-1.2-0.3-2.4-1.1-2.4-2.5c0-1.8,1.7-2.6,3.3-2.6s3.3,0.8,3.3,2.6c0,1.4-1.2,2.1-2.4,2.5c1.3,0.4,2.5,1.3,2.5,2.7
	c0,1.7-1.5,2.7-3.5,2.7s-3.5-1.1-3.5-2.7C286,207,287.2,206,288.5,205.7z M289.5,206.1c-0.6,0.1-2.6,0.7-2.6,2.2c0,1.2,1.2,2,2.6,2
	c1.3,0,2.6-0.8,2.6-2C292,206.8,290.1,206.1,289.5,206.1z M289.5,201.4c-1.3,0-2.4,0.7-2.4,1.9c0,1.4,1.8,1.9,2.4,2
	c0.6-0.1,2.4-0.6,2.4-2C291.9,202.1,290.8,201.4,289.5,201.4z M295,207.6v-0.7h3.7v0.7H295z M303.2,210.9v-9.1l-2.4,2.6l-0.6-0.6
	l3-3.2h0.8v10.3H303.2z M308.7,209.2c0.5,0.7,1.1,1.1,2.2,1.1c2.2,0,3-2.3,3-4.5c0-0.2,0-0.3,0-0.5c-0.4,0.7-1.6,1.7-3,1.7
	c-1.8,0-3.3-1.1-3.3-3.2c0-1.7,1.2-3.3,3.4-3.3c2.8,0,3.7,2.5,3.7,5.3c0,2.6-1.1,5.3-3.9,5.3c-1.3,0-2.1-0.5-2.8-1.3L308.7,209.2z
	 M311.1,201.4c-1.7,0-2.6,1.3-2.6,2.4c0,1.7,1.1,2.5,2.6,2.5c1.1,0,2.2-0.7,2.8-1.7C313.7,203.1,313,201.4,311.1,201.4z"/>
<path d="M343.2,211.1v-0.7c3.5-2.8,5.9-4.8,5.9-6.9c0-1.5-1.2-2.1-2.3-2.1c-1.3,0-2.2,0.6-2.8,1.3l-0.6-0.6c0.7-1,2-1.6,3.4-1.6
	c1.5,0,3.2,0.9,3.2,2.9c0,2.2-2.4,4.3-5.3,6.8h5.4v0.8h-6.9V211.1z M355.8,200.7c2.7,0,3.8,2.8,3.8,5.3c0,2.4-1,5.3-3.8,5.3
	c-2.7,0-3.8-2.9-3.8-5.3C352.1,203.6,353.1,200.7,355.8,200.7z M355.8,201.5c-2.1,0-2.8,2.4-2.8,4.5c0,2.1,0.7,4.5,2.8,4.5
	c2.1,0,2.8-2.4,2.8-4.5C358.7,203.9,358,201.5,355.8,201.5z M365.1,211.1v-9.1l-2.4,2.6l-0.6-0.6l3-3.2h0.8v10.3H365.1z
	 M370.8,211.1l4.3-9.5h-5.6v-0.8h6.8v0.6l-4.3,9.7L370.8,211.1L370.8,211.1z M377.3,207.8v-0.7h3.7v0.7H377.3z M385.6,211.1v-9.1
	l-2.4,2.6l-0.6-0.6l3-3.2h0.8v10.3H385.6z M392.7,205.8c-1.2-0.3-2.4-1.1-2.4-2.5c0-1.8,1.7-2.6,3.3-2.6c1.6,0,3.3,0.8,3.3,2.6
	c0,1.4-1.2,2.1-2.4,2.5c1.3,0.4,2.5,1.3,2.5,2.7c0,1.7-1.5,2.7-3.5,2.7s-3.5-1.1-3.5-2.7C390.1,207.1,391.4,206.2,392.7,205.8z
	 M393.6,206.2c-0.6,0.1-2.6,0.7-2.6,2.2c0,1.2,1.2,2,2.6,2c1.3,0,2.6-0.8,2.6-2C396.3,206.9,394.2,206.3,393.6,206.2z M393.6,201.5
	c-1.3,0-2.4,0.7-2.4,1.9c0,1.4,1.8,1.9,2.4,2c0.6-0.1,2.4-0.6,2.4-2C396.1,202.2,394.9,201.5,393.6,201.5z"/>
<g>
	<g>
		<g>
			<g>
				<defs>
					<rect id="SVGID_1_" x="18.2" y="13.6" width="28" height="192.2"/>
				</defs>
				<clipPath id="SVGID_00000142857923179907438800000005995539258872955268_">
					<use xlink:href="#SVGID_1_"  style="overflow:visible;"/>
				</clipPath>
				
					<rect x="32.5" y="23.4" style="clip-path:url(#SVGID_00000142857923179907438800000005995539258872955268_);fill:#9FCC3B;" width="11.6" height="172.7"/>
			</g>
		</g>
	</g>
	<defs>
		<filter id="Adobe_OpacityMaskFilter" filterUnits="userSpaceOnUse" x="18.2" y="13.6" width="28" height="56.3">
			<feColorMatrix  type="matrix" values="1 0 0 0 0  0 1 0 0 0  0 0 1 0 0  0 0 0 1 0"/>
		</filter>
	</defs>
	
		<mask maskUnits="userSpaceOnUse" x="18.2" y="13.6" width="28" height="56.3" id="SVGID_00000016784687929266854000000006067716183409925255_">
		<g class="st2">
			
				<linearGradient id="SVGID_00000041263666940818785380000009028046613196042373_" gradientUnits="userSpaceOnUse" x1="-153.2079" y1="-175.8069" x2="-152.1235" y2="-175.8069" gradientTransform="matrix(-3.000000e-15 48.7779 -48.7779 -3.000000e-15 -8649.0352 7535.498)">
				<stop  offset="0" style="stop-color:#FFFFFF"/>
				<stop  offset="1" style="stop-color:#000000"/>
			</linearGradient>
			
				<rect x="-937.8" y="-351.5" style="fill:url(#SVGID_00000041263666940818785380000009028046613196042373_);" width="1728.5" height="645.5"/>
		</g>
	</mask>
	<g class="st4">
		<g>
			<g>
				<defs>
					<rect id="SVGID_00000031895602402724231320000003796312374875799199_" x="18.2" y="13.6" width="28" height="56.3"/>
				</defs>
				<clipPath id="SVGID_00000162339203823760577010000017250771780453838780_">
					<use xlink:href="#SVGID_00000031895602402724231320000003796312374875799199_"  style="overflow:visible;"/>
				</clipPath>
				
					<rect x="32.5" y="23.4" style="clip-path:url(#SVGID_00000162339203823760577010000017250771780453838780_);fill:#15BFF1;" width="11.6" height="36.7"/>
			</g>
		</g>
	</g>
	<line class="st6" x1="38.3" y1="196" x2="38.3" y2="23.4"/>
	<path class="st7" d="M3.1,11.2v-8L1.3,5L0,3.6l3.4-3.3h2v11H3.1V11.2z M8.3,5.8c0-2.8,1.4-5.6,4.5-5.6s4.5,2.8,4.5,5.6
		s-1.4,5.6-4.5,5.6S8.3,8.6,8.3,5.8z M14.9,5.8c0-2-0.6-3.5-2.1-3.5s-2.1,1.5-2.1,3.5s0.6,3.6,2.1,3.6S14.9,7.8,14.9,5.8z
		 M19.5,13.5l-0.9-0.8c0.5-0.3,1.1-1,1.3-1.5c0,0-0.2,0-0.3,0c-0.6,0-1.1-0.5-1.1-1.2c0-0.7,0.6-1.3,1.3-1.3c0.8,0,1.4,0.6,1.4,1.7
		C21.1,11.7,20.5,12.7,19.5,13.5z M25.2,11.2v-8L23.4,5l-1.3-1.4l3.4-3.4h2v11H25.2z M32,11.2l3.9-8.9h-5.5v-2h8.3v1.6l-4,9.3H32z
		 M40,13.5l-0.9-0.7c0.5-0.3,1.1-1,1.3-1.5c0,0-0.2,0-0.3,0c-0.6,0-1.1-0.5-1.1-1.2c0-0.7,0.6-1.3,1.3-1.3c0.8,0,1.4,0.6,1.4,1.7
		C41.7,11.7,41.1,12.7,40,13.5z M42.8,5.8c0-2.8,1.4-5.6,4.5-5.6s4.5,2.8,4.5,5.6s-1.4,5.6-4.5,5.6C44.2,11.4,42.8,8.6,42.8,5.8z
		 M49.4,5.8c0-2-0.6-3.5-2.1-3.5c-1.5,0-2.1,1.5-2.1,3.5s0.6,3.6,2.1,3.6C48.8,9.4,49.4,7.8,49.4,5.8z M53.2,9.8l1.3-1.6
		c0.7,0.8,1.7,1.2,2.9,1.2c1.3,0,2-0.7,2-1.6c0-1-0.7-1.6-2-1.6c-0.9,0-1.6,0.3-2.3,0.9l-1.5-0.5V0.3h7.6v2h-5.2V5
		c0.5-0.5,1.4-0.9,2.4-0.9c1.8,0,3.5,1.3,3.5,3.5c0,2.3-1.7,3.8-4.3,3.8C55.5,11.4,54.2,10.8,53.2,9.8z M63.4,8.4
		c0-1.3,1-2.3,2.3-2.8c-1.2-0.4-2.1-1.2-2.1-2.6c0-2.1,2.2-2.9,4.2-2.9S72,0.8,72,2.9c0,1.4-1,2.1-2.1,2.6c1.3,0.5,2.3,1.5,2.3,2.8
		c0,2-2.1,3-4.4,3S63.4,10.4,63.4,8.4z M69.8,8.1c0-0.9-1.4-1.3-2-1.4c-0.7,0.1-2,0.5-2,1.4c0,0.8,0.9,1.3,2,1.3S69.8,8.9,69.8,8.1z
		 M69.6,3.4c0-0.8-0.8-1.2-1.8-1.2c-1.1,0-1.8,0.4-1.8,1.2s1.2,1.1,1.8,1.3C68.4,4.5,69.6,4.2,69.6,3.4z"/>
</g>
<g>
	<defs>
		
			<filter id="Adobe_OpacityMaskFilter_00000172409914012578817770000001864309306818108576_" filterUnits="userSpaceOnUse" x="101.5" y="37.8" width="28" height="167.9">
			<feColorMatrix  type="matrix" values="1 0 0 0 0  0 1 0 0 0  0 0 1 0 0  0 0 0 1 0"/>
		</filter>
	</defs>
	
		<mask maskUnits="userSpaceOnUse" x="101.5" y="37.8" width="28" height="167.9" id="SVGID_00000017479868311956176240000017910505892997042875_">
		<g style="filter:url(#Adobe_OpacityMaskFilter_00000172409914012578817770000001864309306818108576_);">
			
				<linearGradient id="SVGID_00000001659600925887529300000008382796287099286701_" gradientUnits="userSpaceOnUse" x1="-154.0888" y1="-176.2991" x2="-153.0043" y2="-176.2991" gradientTransform="matrix(-3.000000e-15 43.3075 -43.3075 -3.000000e-15 -7654.9458 6822.2642)">
				<stop  offset="0" style="stop-color:#FFFFFF"/>
				<stop  offset="1" style="stop-color:#000000"/>
			</linearGradient>
			
				<rect x="-884.1" y="-351.5" style="fill:url(#SVGID_00000001659600925887529300000008382796287099286701_);" width="1728.5" height="645.5"/>
		</g>
	</mask>
	<g class="st10">
		<g>
			<g>
				<defs>
					<rect id="SVGID_00000103962575449703828470000004766323511232977281_" x="101.5" y="37.8" width="28" height="167.9"/>
				</defs>
				<clipPath id="SVGID_00000135688665082455787450000013049436825263993784_">
					<use xlink:href="#SVGID_00000103962575449703828470000004766323511232977281_"  style="overflow:visible;"/>
				</clipPath>
				
					<rect x="115.8" y="47.5" style="clip-path:url(#SVGID_00000135688665082455787450000013049436825263993784_);fill:#9FCC3B;" width="11.6" height="148.4"/>
			</g>
		</g>
	</g>
	<defs>
		
			<filter id="Adobe_OpacityMaskFilter_00000102508830236513812720000006604001138334619281_" filterUnits="userSpaceOnUse" x="101.5" y="20.9" width="28" height="56.7">
			<feColorMatrix  type="matrix" values="1 0 0 0 0  0 1 0 0 0  0 0 1 0 0  0 0 0 1 0"/>
		</filter>
	</defs>
	
		<mask maskUnits="userSpaceOnUse" x="101.5" y="20.9" width="28" height="56.7" id="SVGID_00000137847409288992952860000005084997536793746081_">
		<g style="filter:url(#Adobe_OpacityMaskFilter_00000102508830236513812720000006604001138334619281_);">
			
				<linearGradient id="SVGID_00000119117481993860752760000016184334381036210593_" gradientUnits="userSpaceOnUse" x1="-151.9582" y1="-177.4723" x2="-150.8738" y2="-177.4723" gradientTransform="matrix(-4.000000e-15 57.4476 -57.4476 -4.000000e-15 -10215.2295 8800.0732)">
				<stop  offset="0" style="stop-color:#FFFFFF"/>
				<stop  offset="1" style="stop-color:#000000"/>
			</linearGradient>
			
				<rect x="-884.1" y="-351.5" style="fill:url(#SVGID_00000119117481993860752760000016184334381036210593_);" width="1728.5" height="645.5"/>
		</g>
	</mask>
	<g class="st14">
		<g>
			<g>
				<defs>
					<rect id="SVGID_00000123442952757977725370000004133994603757044912_" x="101.5" y="20.9" width="28" height="56.7"/>
				</defs>
				<clipPath id="SVGID_00000136396551028260984710000001666189735162638767_">
					<use xlink:href="#SVGID_00000123442952757977725370000004133994603757044912_"  style="overflow:visible;"/>
				</clipPath>
				
					<rect x="115.8" y="30.6" style="clip-path:url(#SVGID_00000136396551028260984710000001666189735162638767_);fill:#15BFF1;" width="11.6" height="37.2"/>
			</g>
		</g>
	</g>
	<line class="st6" x1="121.7" y1="196" x2="121.7" y2="23.4"/>
	<path class="st16" d="M95.7,9.4c0.5,0.7,1.2,1.2,2.4,1.2c2.4,0,3.2-2.5,3.2-4.8c0-0.2,0-0.3,0-0.5c-0.5,0.7-1.7,1.8-3.2,1.8
		c-2,0-3.5-1.1-3.5-3.4c0-1.8,1.3-3.5,3.6-3.5c2.9,0,4,2.7,4,5.6c0,2.8-1.2,5.6-4.1,5.6c-1.4,0-2.3-0.6-2.9-1.4L95.7,9.4z M98.4,1
		c-1.9,0-2.7,1.4-2.7,2.6c0,1.8,1.2,2.6,2.7,2.6c1.2,0,2.3-0.8,3-1.9C101.3,2.8,100.5,1,98.4,1z M104.1,12.8c0.5-0.4,0.9-1,0.9-1.5
		h-0.2c-0.4,0-0.7-0.3-0.7-0.7c0-0.4,0.3-0.7,0.7-0.7s0.8,0.4,0.8,1c0,0.9-0.5,1.8-1.2,2.2L104.1,12.8z M109,11.2l4.6-10.1h-6.1V0.3
		h7.2V1l-4.6,10.3H109V11.2z M120.2,11.2V1.5l-2.6,2.8L117,3.7l3.2-3.4h0.8v11h-0.8V11.2z M124.9,12.8c0.5-0.4,0.9-1,0.9-1.5h-0.2
		c-0.4,0-0.7-0.3-0.7-0.7c0-0.4,0.3-0.7,0.7-0.7c0.4,0,0.8,0.4,0.8,1c0,0.9-0.5,1.8-1.2,2.2L124.9,12.8z M129.4,9.4
		c0.5,0.7,1.2,1.2,2.4,1.2c2.4,0,3.2-2.5,3.2-4.8c0-0.2,0-0.3,0-0.5c-0.5,0.7-1.7,1.8-3.2,1.8c-2,0-3.5-1.1-3.5-3.4
		c0-1.8,1.3-3.5,3.6-3.5c2.9,0,4,2.7,4,5.6c0,2.8-1.2,5.6-4.1,5.6c-1.4,0-2.3-0.6-2.9-1.4L129.4,9.4z M132.1,1
		c-1.9,0-2.7,1.4-2.7,2.6c0,1.8,1.2,2.6,2.7,2.6c1.2,0,2.3-0.8,3-1.9C134.9,2.8,134.2,1,132.1,1z M139.4,11.2l4.6-10.1H138V0.3h7.2
		V1l-4.6,10.3h-1.1V11.2z M151.1,0.1c1.4,0,2.3,0.6,2.9,1.4l-0.5,0.7C153,1.5,152.3,1,151.1,1c-2.3,0-3.2,2.5-3.2,4.8
		c0,0.2,0,0.3,0,0.5c0.5-0.7,1.7-1.8,3.2-1.8c2,0,3.5,1.1,3.5,3.4c0,1.8-1.3,3.5-3.6,3.5c-2.9,0-4-2.7-4-5.6
		C147,2.9,148.1,0.1,151.1,0.1z M150.9,5.3c-1.2,0-2.3,0.8-3,1.9c0.1,1.5,0.9,3.4,2.9,3.4c1.9,0,2.7-1.4,2.7-2.6
		C153.7,6.2,152.5,5.3,150.9,5.3z"/>
</g>
<g>
	<defs>
		
			<filter id="Adobe_OpacityMaskFilter_00000127764838456882080430000016524981111084499645_" filterUnits="userSpaceOnUse" x="184.6" y="35.7" width="28" height="170">
			<feColorMatrix  type="matrix" values="1 0 0 0 0  0 1 0 0 0  0 0 1 0 0  0 0 0 1 0"/>
		</filter>
	</defs>
	
		<mask maskUnits="userSpaceOnUse" x="184.6" y="35.7" width="28" height="170" id="SVGID_00000099649302535195221650000017679279771634436776_">
		<g style="filter:url(#Adobe_OpacityMaskFilter_00000127764838456882080430000016524981111084499645_);">
			
				<linearGradient id="SVGID_00000164515434417285366870000016914324143585254788_" gradientUnits="userSpaceOnUse" x1="-154.8335" y1="-177.3039" x2="-153.7491" y2="-177.3039" gradientTransform="matrix(-2.000000e-15 39.9991 -39.9991 -2.000000e-15 -7057.2949 6345.8525)">
				<stop  offset="0" style="stop-color:#FFFFFF"/>
				<stop  offset="1" style="stop-color:#000000"/>
			</linearGradient>
			
				<rect x="-829.5" y="-351.5" style="fill:url(#SVGID_00000164515434417285366870000016914324143585254788_);" width="1728.5" height="645.5"/>
		</g>
	</mask>
	<g class="st19">
		<g>
			<g>
				<defs>
					<rect id="SVGID_00000117639998283504074770000002046153793317911223_" x="184.6" y="35.7" width="28" height="170"/>
				</defs>
				<clipPath id="SVGID_00000041257594746166722640000015125522302569505686_">
					<use xlink:href="#SVGID_00000117639998283504074770000002046153793317911223_"  style="overflow:visible;"/>
				</clipPath>
				
					<rect x="199" y="45.5" style="clip-path:url(#SVGID_00000041257594746166722640000015125522302569505686_);fill:#9FCC3B;" width="11.6" height="150.4"/>
			</g>
		</g>
	</g>
	<defs>
		
			<filter id="Adobe_OpacityMaskFilter_00000159470844276302120290000014595068399004869023_" filterUnits="userSpaceOnUse" x="184.6" y="30.8" width="28" height="53">
			<feColorMatrix  type="matrix" values="1 0 0 0 0  0 1 0 0 0  0 0 1 0 0  0 0 0 1 0"/>
		</filter>
	</defs>
	
		<mask maskUnits="userSpaceOnUse" x="184.6" y="30.8" width="28" height="53" id="SVGID_00000103246191664776786700000000521048451431477125_">
		<g style="filter:url(#Adobe_OpacityMaskFilter_00000159470844276302120290000014595068399004869023_);">
			
				<linearGradient id="SVGID_00000039101918255862504540000000879760506517642907_" gradientUnits="userSpaceOnUse" x1="-153.4966" y1="-177.926" x2="-152.4121" y2="-177.926" gradientTransform="matrix(-3.000000e-15 46.9947 -46.9947 -3.000000e-15 -8326.875 7289.6323)">
				<stop  offset="0" style="stop-color:#FFFFFF"/>
				<stop  offset="1" style="stop-color:#000000"/>
			</linearGradient>
			
				<rect x="-829.5" y="-351.5" style="fill:url(#SVGID_00000039101918255862504540000000879760506517642907_);" width="1728.5" height="645.5"/>
		</g>
	</mask>
	<g class="st23">
		<g>
			<g>
				<defs>
					<rect id="SVGID_00000174603433699699954100000011402871179557215884_" x="184.6" y="30.8" width="28" height="53"/>
				</defs>
				<clipPath id="SVGID_00000183938015811378480150000010399486214062644397_">
					<use xlink:href="#SVGID_00000174603433699699954100000011402871179557215884_"  style="overflow:visible;"/>
				</clipPath>
				
					<rect x="199" y="40.6" style="clip-path:url(#SVGID_00000183938015811378480150000010399486214062644397_);fill:#15BFF1;" width="11.6" height="33.4"/>
			</g>
		</g>
	</g>
	<line class="st6" x1="204.8" y1="196" x2="204.8" y2="23.4"/>
	<path class="st16" d="M179.1,9.4c0.5,0.7,1.2,1.2,2.4,1.2c2.4,0,3.2-2.5,3.2-4.8c0-0.2,0-0.3,0-0.5c-0.5,0.7-1.7,1.8-3.2,1.8
		c-2,0-3.5-1.1-3.5-3.4c0-1.8,1.3-3.5,3.6-3.5c2.9,0,4,2.7,4,5.6c0,2.8-1.2,5.6-4.1,5.6c-1.4,0-2.3-0.6-2.9-1.4L179.1,9.4z M181.7,1
		c-1.9,0-2.7,1.4-2.7,2.6c0,1.8,1.2,2.6,2.7,2.6c1.2,0,2.3-0.8,3-1.9C184.5,2.8,183.7,1,181.7,1z M187.3,12.8c0.5-0.4,0.9-1,0.9-1.5
		H188c-0.4,0-0.7-0.3-0.7-0.7c0-0.4,0.3-0.7,0.7-0.7s0.8,0.4,0.8,1c0,0.9-0.5,1.8-1.2,2.2L187.3,12.8z M193.7,11.2V1.5l-2.6,2.8
		l-0.6-0.6l3.2-3.4h0.8v11h-0.8V11.2z M199.7,11.2l4.6-10.1h-6.1V0.3h7.2V1l-4.6,10.3h-1.1V11.2z M206,12.8c0.5-0.4,0.9-1,0.9-1.5
		h-0.2c-0.4,0-0.7-0.3-0.7-0.7c0-0.4,0.3-0.7,0.7-0.7c0.4,0,0.8,0.4,0.8,1c0,0.9-0.5,1.8-1.2,2.2L206,12.8z M212.3,11.2V1.5
		l-2.6,2.8L209,3.7l3.2-3.4h0.8v11h-0.8V11.2z M220.9,0.1c2.9,0,4,3,4,5.6s-1.1,5.6-4,5.6s-4-3-4-5.6S218,0.1,220.9,0.1z M220.9,1
		c-2.3,0-3,2.5-3,4.8c0,2.2,0.7,4.8,3,4.8s3-2.5,3-4.8S223.2,1,220.9,1z M230.7,11.2V1.5l-2.6,2.8l-0.6-0.6l3.2-3.4h0.8v11h-0.8
		V11.2z"/>
</g>
<g>
	<defs>
		
			<filter id="Adobe_OpacityMaskFilter_00000034774689962277036460000012103425084661585025_" filterUnits="userSpaceOnUse" x="266.8" y="28.7" width="28" height="177">
			<feColorMatrix  type="matrix" values="1 0 0 0 0  0 1 0 0 0  0 0 1 0 0  0 0 0 1 0"/>
		</filter>
	</defs>
	
		<mask maskUnits="userSpaceOnUse" x="266.8" y="28.7" width="28" height="177" id="SVGID_00000018939139952755453740000015721146822264673422_">
		<g style="filter:url(#Adobe_OpacityMaskFilter_00000034774689962277036460000012103425084661585025_);">
			
				<linearGradient id="SVGID_00000085962382222113372960000015354775181493003925_" gradientUnits="userSpaceOnUse" x1="-154.7614" y1="-178.6473" x2="-153.6771" y2="-178.6473" gradientTransform="matrix(-2.000000e-15 40.2971 -40.2971 -2.000000e-15 -7111.1001 6388.7593)">
				<stop  offset="0" style="stop-color:#FFFFFF"/>
				<stop  offset="1" style="stop-color:#000000"/>
			</linearGradient>
			
				<rect x="-776.4" y="-351.5" style="fill:url(#SVGID_00000085962382222113372960000015354775181493003925_);" width="1728.5" height="645.5"/>
		</g>
	</mask>
	<g class="st27">
		<g>
			<g>
				<defs>
					<rect id="SVGID_00000163765508104309289420000007799316598876086675_" x="266.8" y="28.7" width="28" height="177"/>
				</defs>
				<clipPath id="SVGID_00000121995658521204672530000015105789733119245699_">
					<use xlink:href="#SVGID_00000163765508104309289420000007799316598876086675_"  style="overflow:visible;"/>
				</clipPath>
				
					<rect x="281.2" y="38.4" style="clip-path:url(#SVGID_00000121995658521204672530000015105789733119245699_);fill:#9FCC3B;" width="11.6" height="157.5"/>
			</g>
		</g>
	</g>
	<defs>
		
			<filter id="Adobe_OpacityMaskFilter_00000055691305780064674480000013875710419984839583_" filterUnits="userSpaceOnUse" x="266.8" y="27" width="28" height="55.2">
			<feColorMatrix  type="matrix" values="1 0 0 0 0  0 1 0 0 0  0 0 1 0 0  0 0 0 1 0"/>
		</filter>
	</defs>
	
		<mask maskUnits="userSpaceOnUse" x="266.8" y="27" width="28" height="55.2" id="SVGID_00000107551811349670323700000013253399436778360192_">
		<g style="filter:url(#Adobe_OpacityMaskFilter_00000055691305780064674480000013875710419984839583_);">
			
				<linearGradient id="SVGID_00000088101895300282558730000008501077277451633047_" gradientUnits="userSpaceOnUse" x1="-153.2748" y1="-179.0995" x2="-152.1904" y2="-179.0995" gradientTransform="matrix(-3.000000e-15 48.2675 -48.2675 -3.000000e-15 -8556.8184 7472.8262)">
				<stop  offset="0" style="stop-color:#FFFFFF"/>
				<stop  offset="1" style="stop-color:#000000"/>
			</linearGradient>
			
				<rect x="-776.4" y="-351.5" style="fill:url(#SVGID_00000088101895300282558730000008501077277451633047_);" width="1728.5" height="645.5"/>
		</g>
	</mask>
	<g class="st31">
		<g>
			<g>
				<defs>
					<rect id="SVGID_00000041985253393879671580000011479491712446958238_" x="266.8" y="27" width="28" height="55.2"/>
				</defs>
				<clipPath id="SVGID_00000145740377208852696390000008557150298406833565_">
					<use xlink:href="#SVGID_00000041985253393879671580000011479491712446958238_"  style="overflow:visible;"/>
				</clipPath>
				
					<rect x="281.2" y="36.7" style="clip-path:url(#SVGID_00000145740377208852696390000008557150298406833565_);fill:#15BFF1;" width="11.6" height="35.6"/>
			</g>
		</g>
	</g>
	<line class="st6" x1="287" y1="196" x2="287" y2="23.4"/>
	<path class="st16" d="M258.4,9.4c0.5,0.7,1.2,1.2,2.4,1.2c2.4,0,3.2-2.5,3.2-4.8c0-0.2,0-0.3,0-0.5c-0.5,0.7-1.7,1.8-3.2,1.8
		c-2,0-3.5-1.1-3.5-3.4c0-1.8,1.3-3.5,3.6-3.5c2.9,0,4,2.7,4,5.6c0,2.8-1.2,5.6-4.1,5.6c-1.4,0-2.3-0.6-2.9-1.4L258.4,9.4z M261,1
		c-1.9,0-2.7,1.4-2.7,2.6c0,1.8,1.2,2.6,2.7,2.6c1.2,0,2.3-0.8,3-1.9C263.8,2.8,263,1,261,1z M266.6,12.8c0.5-0.4,0.9-1,0.9-1.5
		h-0.2c-0.4,0-0.7-0.3-0.7-0.7c0-0.4,0.3-0.7,0.7-0.7s0.8,0.4,0.8,1c0,0.9-0.5,1.8-1.2,2.2L266.6,12.8z M271.1,9.1
		c0.6,0.9,1.7,1.5,3,1.5c1.7,0,2.7-0.9,2.7-2.3c0-1.6-1.3-2.2-2.9-2.2c-0.4,0-0.8,0-1,0V5.1c0.2,0,0.6,0,1,0c1.4,0,2.8-0.6,2.8-2.1
		c0-1.4-1.2-2.1-2.6-2.1c-1.2,0-2.1,0.5-2.9,1.4l-0.6-0.6c0.8-0.9,2-1.6,3.5-1.6c1.9,0,3.5,1,3.5,2.9c0,1.7-1.4,2.4-2.3,2.5
		c0.9,0.1,2.5,0.9,2.5,2.7s-1.4,3.1-3.7,3.1c-1.8,0-3.1-0.8-3.7-1.8L271.1,9.1z M280.9,9.1c0.7,1,1.6,1.5,3,1.5
		c1.6,0,2.7-1.1,2.7-2.6c0-1.6-1.2-2.7-2.7-2.7c-1,0-1.8,0.3-2.6,1.1l-0.7-0.3V0.3h6.4v0.8h-5.3v4.2c0.5-0.5,1.4-1,2.6-1
		c1.8,0,3.4,1.2,3.4,3.5c0,2.2-1.7,3.5-3.6,3.5c-1.8,0-2.9-0.7-3.7-1.8L280.9,9.1z M289.5,12.8c0.5-0.4,0.9-1,0.9-1.5h-0.2
		c-0.4,0-0.7-0.3-0.7-0.7c0-0.4,0.3-0.7,0.7-0.7c0.4,0,0.8,0.4,0.8,1c0,0.9-0.5,1.8-1.2,2.2L289.5,12.8z M297.1,0.1
		c1.4,0,2.3,0.6,2.9,1.4l-0.5,0.7C299,1.5,298.3,1,297.1,1c-2.3,0-3.2,2.5-3.2,4.8c0,0.2,0,0.3,0,0.5c0.5-0.7,1.7-1.8,3.2-1.8
		c2,0,3.5,1.1,3.5,3.4c0,1.8-1.3,3.5-3.6,3.5c-2.9,0-4-2.7-4-5.6S294.1,0.1,297.1,0.1z M296.9,5.3c-1.2,0-2.3,0.8-3,1.9
		c0.1,1.5,0.9,3.4,2.9,3.4c1.9,0,2.7-1.4,2.7-2.6C299.6,6.2,298.5,5.3,296.9,5.3z M305.6,5.6C304.3,5.3,303,4.4,303,3
		c0-1.9,1.8-2.8,3.5-2.8c1.7,0,3.5,0.9,3.5,2.8c0,1.4-1.2,2.3-2.5,2.6c1.4,0.4,2.7,1.4,2.7,2.9c0,1.8-1.6,2.9-3.7,2.9
		c-2.1,0-3.7-1.1-3.7-2.9C302.8,7,304.2,6,305.6,5.6z M306.6,6.1c-0.7,0.1-2.8,0.7-2.8,2.4c0,1.3,1.3,2.1,2.8,2.1
		c1.4,0,2.8-0.8,2.8-2.1C309.4,6.8,307.3,6.2,306.6,6.1z M306.6,1c-1.4,0-2.6,0.7-2.6,2.1c0,1.5,1.9,2,2.6,2.1
		c0.7-0.1,2.6-0.6,2.6-2.1C309.2,1.7,308,1,306.6,1z M315.5,5.6c-1.3-0.3-2.5-1.2-2.5-2.6c0-1.9,1.8-2.8,3.5-2.8
		c1.7,0,3.5,0.9,3.5,2.8c0,1.4-1.2,2.3-2.5,2.6c1.4,0.4,2.7,1.4,2.7,2.9c0,1.8-1.6,2.9-3.7,2.9c-2.1,0-3.7-1.1-3.7-2.9
		C312.7,7,314,6,315.5,5.6z M316.4,6.1c-0.7,0.1-2.8,0.7-2.8,2.4c0,1.3,1.3,2.1,2.8,2.1c1.4,0,2.8-0.8,2.8-2.1
		C319.2,6.8,317.1,6.2,316.4,6.1z M316.4,1c-1.4,0-2.6,0.7-2.6,2.1c0,1.5,1.9,2,2.6,2.1c0.7-0.1,2.6-0.6,2.6-2.1
		C319,1.7,317.9,1,316.4,1z"/>
</g>
<g>
	<defs>
		
			<filter id="Adobe_OpacityMaskFilter_00000173849903692128006450000000836521121238486415_" filterUnits="userSpaceOnUse" x="351.9" y="46.6" width="28" height="159.1">
			<feColorMatrix  type="matrix" values="1 0 0 0 0  0 1 0 0 0  0 0 1 0 0  0 0 0 1 0"/>
		</filter>
	</defs>
	
		<mask maskUnits="userSpaceOnUse" x="351.9" y="46.6" width="28" height="159.1" id="SVGID_00000084491460988110494870000009355622982415781788_">
		<g style="filter:url(#Adobe_OpacityMaskFilter_00000173849903692128006450000000836521121238486415_);">
			
				<linearGradient id="SVGID_00000027587536296955482360000002398852534638422454_" gradientUnits="userSpaceOnUse" x1="-154.0888" y1="-180.0797" x2="-153.0043" y2="-180.0797" gradientTransform="matrix(-3.000000e-15 43.3075 -43.3075 -3.000000e-15 -7654.9458 6822.2642)">
				<stop  offset="0" style="stop-color:#FFFFFF"/>
				<stop  offset="1" style="stop-color:#000000"/>
			</linearGradient>
			
				<rect x="-720.4" y="-351.5" style="fill:url(#SVGID_00000027587536296955482360000002398852534638422454_);" width="1728.5" height="645.5"/>
		</g>
	</mask>
	<g class="st35">
		<g>
			<g>
				<defs>
					<rect id="SVGID_00000059288174178640090720000014598202538019772812_" x="351.9" y="46.6" width="28" height="159.1"/>
				</defs>
				<clipPath id="SVGID_00000054246501517824405980000000188149836338631307_">
					<use xlink:href="#SVGID_00000059288174178640090720000014598202538019772812_"  style="overflow:visible;"/>
				</clipPath>
				
					<rect x="366.3" y="56.3" style="clip-path:url(#SVGID_00000054246501517824405980000000188149836338631307_);fill:#9FCC3B;" width="11.6" height="139.6"/>
			</g>
		</g>
	</g>
	<defs>
		
			<filter id="Adobe_OpacityMaskFilter_00000181054219862304575780000015635899852400467084_" filterUnits="userSpaceOnUse" x="351.9" y="25.1" width="28" height="49">
			<feColorMatrix  type="matrix" values="1 0 0 0 0  0 1 0 0 0  0 0 1 0 0  0 0 0 1 0"/>
		</filter>
	</defs>
	
		<mask maskUnits="userSpaceOnUse" x="351.9" y="25.1" width="28" height="49" id="SVGID_00000105417117493978075890000016005208537882775435_">
		<g style="filter:url(#Adobe_OpacityMaskFilter_00000181054219862304575780000015635899852400467084_);">
			
				<linearGradient id="SVGID_00000177464645825254804950000006908597720521052315_" gradientUnits="userSpaceOnUse" x1="-153.2577" y1="-180.2611" x2="-152.1734" y2="-180.2611" gradientTransform="matrix(-3.000000e-15 48.4428 -48.4428 -3.000000e-15 -8588.498 7490.8833)">
				<stop  offset="0" style="stop-color:#FFFFFF"/>
				<stop  offset="1" style="stop-color:#000000"/>
			</linearGradient>
			
				<rect x="-720.4" y="-351.5" style="fill:url(#SVGID_00000177464645825254804950000006908597720521052315_);" width="1728.5" height="645.5"/>
		</g>
	</mask>
	<g class="st39">
		<g>
			<g>
				<defs>
					<rect id="SVGID_00000082360681517952847520000015669292788473707438_" x="351.9" y="25.1" width="28" height="49"/>
				</defs>
				<clipPath id="SVGID_00000090982087030059701570000001189697517391459218_">
					<use xlink:href="#SVGID_00000082360681517952847520000015669292788473707438_"  style="overflow:visible;"/>
				</clipPath>
				
					<rect x="366.3" y="34.9" style="clip-path:url(#SVGID_00000090982087030059701570000001189697517391459218_);fill:#15BFF1;" width="11.6" height="29.6"/>
			</g>
		</g>
	</g>
	<line class="st6" x1="372" y1="196" x2="372" y2="23.4"/>
	<path class="st16" d="M341,9.4c0.5,0.7,1.2,1.2,2.4,1.2c2.4,0,3.2-2.5,3.2-4.8c0-0.2,0-0.3,0-0.5c-0.5,0.7-1.7,1.8-3.2,1.8
		c-2,0-3.5-1.1-3.5-3.4c0-1.8,1.3-3.5,3.6-3.5c2.9,0,4,2.7,4,5.6c0,2.8-1.2,5.6-4.1,5.6c-1.4,0-2.3-0.6-2.9-1.4L341,9.4z M343.5,1
		c-1.9,0-2.7,1.4-2.7,2.6c0,1.8,1.2,2.6,2.7,2.6c1.2,0,2.3-0.8,3-1.9C346.4,2.8,345.6,1,343.5,1z M349.2,12.8c0.5-0.4,0.9-1,0.9-1.5
		H350c-0.4,0-0.7-0.3-0.7-0.7c0-0.4,0.3-0.7,0.7-0.7c0.4,0,0.8,0.4,0.8,1c0,0.9-0.5,1.8-1.2,2.2L349.2,12.8z M357.7,11.2v-3h-5.1
		V7.4l4.8-7.2h1.3v7.1h1.6v0.8h-1.6v3h-1V11.2z M357.7,1.2l-4.2,6.2h4.2V1.2z M363.4,11.2L368,1.1H362V0.3h7.2V1l-4.6,10.3h-1.1
		V11.2z M369.5,12.8c0.5-0.4,0.9-1,0.9-1.5h-0.2c-0.4,0-0.7-0.3-0.7-0.7c0-0.4,0.3-0.7,0.7-0.7c0.4,0,0.8,0.4,0.8,1
		c0,0.9-0.5,1.8-1.2,2.2L369.5,12.8z M374,9.1c0.6,0.9,1.7,1.5,3,1.5c1.7,0,2.7-0.9,2.7-2.3c0-1.6-1.3-2.2-2.9-2.2c-0.4,0-0.8,0-1,0
		V5.1c0.2,0,0.6,0,1,0c1.4,0,2.8-0.6,2.8-2.1c0-1.4-1.2-2.1-2.6-2.1c-1.2,0-2.1,0.5-2.9,1.4l-0.6-0.6c0.8-0.9,2-1.6,3.5-1.6
		c1.9,0,3.5,1,3.5,2.9c0,1.7-1.4,2.4-2.3,2.5c0.9,0.1,2.5,0.9,2.5,2.7s-1.4,3.1-3.7,3.1c-1.8,0-3.1-0.8-3.7-1.8L374,9.1z M385.9,5.6
		c-1.3-0.3-2.5-1.2-2.5-2.6c0-1.9,1.8-2.8,3.5-2.8c1.7,0,3.5,0.9,3.5,2.8c0,1.4-1.2,2.3-2.5,2.6c1.4,0.4,2.7,1.4,2.7,2.9
		c0,1.8-1.6,2.9-3.7,2.9c-2.1,0-3.7-1.1-3.7-2.9C383.1,7,384.5,6,385.9,5.6z M386.9,6.1c-0.7,0.1-2.8,0.7-2.8,2.4
		c0,1.3,1.3,2.1,2.8,2.1c1.4,0,2.8-0.8,2.8-2.1C389.6,6.8,387.5,6.2,386.9,6.1z M386.9,1c-1.4,0-2.6,0.7-2.6,2.1
		c0,1.5,1.9,2,2.6,2.1c0.7-0.1,2.6-0.6,2.6-2.1C389.4,1.7,388.3,1,386.9,1z M393.5,9.1c0.6,0.9,1.7,1.5,3,1.5c1.7,0,2.7-0.9,2.7-2.3
		c0-1.6-1.3-2.2-2.9-2.2c-0.4,0-0.8,0-1,0V5.1c0.2,0,0.6,0,1,0c1.4,0,2.8-0.6,2.8-2.1c0-1.4-1.2-2.1-2.6-2.1c-1.2,0-2.1,0.5-2.9,1.4
		L393,1.7c0.8-0.9,2-1.6,3.5-1.6c1.9,0,3.5,1,3.5,2.9c0,1.7-1.4,2.4-2.3,2.5c0.9,0.1,2.5,0.9,2.5,2.7s-1.4,3.1-3.7,3.1
		c-1.8,0-3.1-0.8-3.7-1.8L393.5,9.1z"/>
</g>
</svg>
