<?xml version="1.0" encoding="utf-8"?>
<!-- Generator: Adobe Illustrator 26.4.0, SVG Export Plug-In . SVG Version: 6.00 Build 0)  -->
<svg version="1.1" id="Layer_1" xmlns="http://www.w3.org/2000/svg" xmlns:xlink="http://www.w3.org/1999/xlink" x="0px" y="0px"
	 viewBox="0 0 399.9 206.1" style="enable-background:new 0 0 399.9 206.1;" xml:space="preserve">
<style type="text/css">
	.st0{fill:#0069AA;}
	.st1{clip-path:url(#SVGID_00000000194281543548252490000009382897371269939075_);fill:#076AAA;}
	.st2{fill:none;stroke:#FFFFFF;}
	.st3{fill:#076AAA;}
	.st4{filter:url(#Adobe_OpacityMaskFilter);}
	.st5{fill:url(#SVGID_00000149340510223408866340000010163548739220923543_);}
	.st6{mask:url(#SVGID_00000132772420912775073700000014605387789914763167_);}
	.st7{clip-path:url(#SVGID_00000049218758746209133340000012970070141832757135_);fill:#939598;}
	.st8{fill:#4E4E50;}
	.st9{filter:url(#Adobe_OpacityMaskFilter_00000080888602057710515340000002008627668151549084_);}
	.st10{fill:url(#SVGID_00000072254477564163397660000018289916762718264718_);}
	.st11{mask:url(#SVGID_00000046325652092752379750000016959408103098345103_);}
	.st12{clip-path:url(#SVGID_00000039131159622571134760000017756320268396318908_);fill:#939598;}
	.st13{filter:url(#Adobe_OpacityMaskFilter_00000078029550217259623310000003670798623027813525_);}
	.st14{fill:url(#SVGID_00000169534208108774748050000005342979131064726926_);}
	.st15{mask:url(#SVGID_00000090256009138031399130000004459640900121121690_);}
	.st16{clip-path:url(#SVGID_00000061443943796435455510000005795846254930153634_);fill:#939598;}
	.st17{filter:url(#Adobe_OpacityMaskFilter_00000128459600655864895560000002891373480312200885_);}
	.st18{fill:url(#SVGID_00000178166046325714222320000017448493948209089664_);}
	.st19{mask:url(#SVGID_00000065781885461766976770000007837898653873326260_);}
	.st20{clip-path:url(#SVGID_00000141438101838591032190000008400240803351744908_);fill:#939598;}
</style>
<path class="st0" d="M0.2,205.9v-1.3c4-3.1,5.8-4.6,5.8-6.3c0-1.2-1.1-1.8-2.1-1.8c-1.3,0-2.2,0.5-2.9,1.3l-1-1
	c0.9-1.1,2.3-1.7,3.8-1.7c1.9,0,3.7,1.1,3.7,3.2c0,2.1-2,3.9-4.9,6.2h5v1.4L0.2,205.9L0.2,205.9z M13.6,195.1c2.9,0,4.2,2.8,4.2,5.5
	c0,2.6-1.2,5.5-4.2,5.5c-2.9,0-4.2-2.9-4.2-5.5C9.5,197.9,10.7,195.1,13.6,195.1z M13.6,196.5c-1.9,0-2.5,2-2.5,4.1s0.7,4.1,2.5,4.1
	c1.9,0,2.5-2,2.5-4.1S15.5,196.5,13.6,196.5z M19.3,205.9v-1.3c4-3.1,5.8-4.6,5.8-6.3c0-1.2-1.1-1.8-2.1-1.8c-1.3,0-2.2,0.5-2.9,1.3
	l-1-1c0.9-1.1,2.3-1.7,3.8-1.7c1.9,0,3.7,1.1,3.7,3.2c0,2.1-2,3.9-4.9,6.2h5v1.4L19.3,205.9L19.3,205.9z M32.2,205.9v-8.5l-2,2.1
	l-0.9-1l3.1-3.2h1.4v10.6L32.2,205.9L32.2,205.9z M37.2,202.6v-1.2H41v1.2H37.2z M42.2,205.9v-1.3c4-3.1,5.8-4.6,5.8-6.3
	c0-1.2-1.1-1.8-2.1-1.8c-1.3,0-2.2,0.5-2.9,1.3l-1-1c0.9-1.1,2.3-1.7,3.8-1.7c1.9,0,3.7,1.1,3.7,3.2c0,2.1-2,3.9-4.9,6.2h5v1.4
	L42.2,205.9L42.2,205.9z M51.8,205.9v-1.3c4-3.1,5.8-4.6,5.8-6.3c0-1.2-1.1-1.8-2.1-1.8c-1.3,0-2.2,0.5-2.9,1.3l-1-1
	c0.9-1.1,2.3-1.7,3.8-1.7c1.9,0,3.7,1.1,3.7,3.2c0,2.1-2,3.9-4.9,6.2h5v1.4L51.8,205.9L51.8,205.9z"/>
<path d="M87,205.8V205c3.6-2.9,6-5,6-7c0-1.5-1.3-2.2-2.4-2.2c-1.3,0-2.3,0.6-2.9,1.4l-0.6-0.6c0.7-1,2-1.6,3.5-1.6
	c1.6,0,3.3,0.9,3.3,3c0,2.3-2.5,4.5-5.5,7H94v0.8L87,205.8L87,205.8z M100.1,195c2.8,0,3.9,2.9,3.9,5.5c0,2.5-1.1,5.5-3.9,5.5
	s-3.9-3-3.9-5.5C96.2,197.9,97.2,195,100.1,195z M100.1,195.8c-2.2,0-3,2.5-3,4.6c0,2.2,0.7,4.7,3,4.7c2.2,0,3-2.5,3-4.7
	C103,198.3,102.3,195.8,100.1,195.8z M105.8,205.8V205c3.6-2.9,6-5,6-7c0-1.5-1.3-2.2-2.4-2.2c-1.3,0-2.3,0.6-2.9,1.4l-0.6-0.6
	c0.7-1,2-1.6,3.5-1.6c1.6,0,3.3,0.9,3.3,3c0,2.3-2.5,4.5-5.5,7h5.6v0.8L105.8,205.8L105.8,205.8z M118.8,195c2.8,0,3.9,2.9,3.9,5.5
	c0,2.5-1.1,5.5-3.9,5.5s-3.9-3-3.9-5.5C114.9,197.9,116,195,118.8,195z M118.8,195.8c-2.2,0-3,2.5-3,4.6c0,2.2,0.7,4.7,3,4.7
	c2.2,0,3-2.5,3-4.7C121.8,198.3,121.1,195.8,118.8,195.8z M124.8,202.3v-0.8h3.8v0.8H124.8z M129.8,205.8V205c3.6-2.9,6-5,6-7
	c0-1.5-1.3-2.2-2.4-2.2c-1.3,0-2.3,0.6-2.9,1.4l-0.6-0.6c0.7-1,2-1.6,3.5-1.6c1.6,0,3.3,0.9,3.3,3c0,2.3-2.5,4.5-5.5,7h5.6v0.8
	L129.8,205.8L129.8,205.8z M142.7,205.8v-9.4l-2.5,2.7l-0.6-0.6l3.2-3.3h0.8v10.6H142.7z"/>
<path d="M171.6,205.7V205c3.6-2.9,6-5,6-7c0-1.5-1.3-2.2-2.4-2.2c-1.3,0-2.3,0.6-2.9,1.4l-0.6-0.6c0.7-1,2-1.6,3.5-1.6
	c1.6,0,3.3,0.9,3.3,3c0,2.3-2.5,4.5-5.5,7h5.6v0.8L171.6,205.7L171.6,205.7z M184.7,194.9c2.8,0,3.9,2.9,3.9,5.5
	c0,2.5-1.1,5.5-3.9,5.5c-2.8,0-3.9-3-3.9-5.5C180.8,197.9,181.8,194.9,184.7,194.9z M184.7,195.8c-2.2,0-3,2.5-3,4.6
	c0,2.2,0.7,4.7,3,4.7c2.2,0,3-2.5,3-4.7C187.6,198.2,186.9,195.8,184.7,195.8z M194.2,205.7v-9.4l-2.5,2.7l-0.6-0.6l3.2-3.3h0.8
	v10.6H194.2z M199.8,203.9c0.5,0.7,1.2,1.2,2.3,1.2c2.3,0,3.1-2.4,3.1-4.7c0-0.2,0-0.3,0-0.5c-0.4,0.7-1.7,1.8-3.1,1.8
	c-1.9,0-3.4-1.1-3.4-3.4c0-1.7,1.3-3.4,3.6-3.4c2.9,0,3.9,2.6,3.9,5.5c0,2.7-1.1,5.5-4.1,5.5c-1.4,0-2.2-0.6-2.9-1.4L199.8,203.9z
	 M202.3,195.7c-1.8,0-2.7,1.4-2.7,2.5c0,1.7,1.1,2.6,2.7,2.6c1.2,0,2.3-0.7,2.9-1.8C205,197.6,204.3,195.7,202.3,195.7z
	 M208.3,202.2v-0.8h3.8v0.8H208.3z M213.3,205.7V205c3.6-2.9,6-5,6-7c0-1.5-1.3-2.2-2.4-2.2c-1.3,0-2.3,0.6-2.9,1.4l-0.6-0.6
	c0.7-1,2-1.6,3.5-1.6c1.6,0,3.3,0.9,3.3,3c0,2.3-2.5,4.5-5.5,7h5.6v0.8L213.3,205.7L213.3,205.7z M226.4,194.9
	c2.8,0,3.9,2.9,3.9,5.5c0,2.5-1.1,5.5-3.9,5.5s-3.9-3-3.9-5.5C222.5,197.9,223.6,194.9,226.4,194.9z M226.4,195.8
	c-2.2,0-3,2.5-3,4.6c0,2.2,0.7,4.7,3,4.7c2.2,0,3-2.5,3-4.7C229.4,198.2,228.7,195.8,226.4,195.8z"/>
<path d="M258.1,205.6v-0.7c3.6-2.9,6-5,6-7c0-1.5-1.3-2.2-2.4-2.2c-1.3,0-2.3,0.6-2.9,1.4l-0.6-0.6c0.7-1,2-1.6,3.5-1.6
	c1.6,0,3.3,0.9,3.3,3c0,2.3-2.5,4.5-5.5,7h5.6v0.8L258.1,205.6L258.1,205.6z M271.2,194.8c2.8,0,3.9,2.9,3.9,5.5
	c0,2.5-1.1,5.5-3.9,5.5s-3.9-3-3.9-5.5C267.2,197.8,268.3,194.8,271.2,194.8z M271.2,195.7c-2.2,0-3,2.5-3,4.6c0,2.2,0.7,4.7,3,4.7
	c2.2,0,3-2.5,3-4.7C274.1,198.1,273.4,195.7,271.2,195.7z M280.7,205.6v-9.4l-2.5,2.7l-0.6-0.6l3.2-3.3h0.8v10.6H280.7z M288,200.1
	c-1.3-0.3-2.5-1.1-2.5-2.6c0-1.9,1.8-2.7,3.4-2.7c1.7,0,3.4,0.9,3.4,2.7c0,1.4-1.2,2.2-2.5,2.6c1.4,0.4,2.6,1.3,2.6,2.8
	c0,1.7-1.6,2.8-3.6,2.8c-2.1,0-3.6-1.1-3.6-2.8C285.3,201.5,286.6,200.5,288,200.1z M289,200.5c-0.7,0.1-2.7,0.7-2.7,2.3
	c0,1.3,1.3,2.1,2.7,2.1c1.4,0,2.7-0.8,2.7-2.1C291.6,201.3,289.6,200.6,289,200.5z M289,195.7c-1.4,0-2.5,0.7-2.5,2
	c0,1.5,1.9,2,2.5,2.1c0.7-0.1,2.5-0.6,2.5-2.1C291.5,196.4,290.3,195.7,289,195.7z M294.6,202.1v-0.8h3.8v0.8H294.6z M303.2,205.6
	v-9.4l-2.5,2.7l-0.6-0.6l3.2-3.3h0.8v10.6H303.2z M308.8,203.8c0.5,0.7,1.2,1.2,2.3,1.2c2.3,0,3.1-2.4,3.1-4.7c0-0.2,0-0.3,0-0.5
	c-0.4,0.7-1.7,1.8-3.1,1.8c-1.9,0-3.4-1.1-3.4-3.4c0-1.7,1.3-3.4,3.6-3.4c2.9,0,3.9,2.6,3.9,5.5c0,2.7-1.1,5.5-4.1,5.5
	c-1.4,0-2.2-0.6-2.9-1.4L308.8,203.8z M311.3,195.6c-1.8,0-2.7,1.4-2.7,2.5c0,1.7,1.1,2.6,2.7,2.6c1.2,0,2.3-0.7,2.9-1.8
	C314,197.5,313.3,195.6,311.3,195.6z"/>
<path d="M344.4,205.8V205c3.6-2.9,6-5,6-7c0-1.5-1.3-2.2-2.4-2.2c-1.3,0-2.3,0.6-2.9,1.4l-0.6-0.6c0.7-1,2-1.6,3.5-1.6
	c1.6,0,3.3,0.9,3.3,3c0,2.3-2.5,4.5-5.5,7h5.6v0.8L344.4,205.8L344.4,205.8z M357.5,195c2.8,0,3.9,2.9,3.9,5.5
	c0,2.5-1.1,5.5-3.9,5.5s-3.9-3-3.9-5.5C353.6,197.9,354.6,195,357.5,195z M357.5,195.8c-2.2,0-3,2.5-3,4.6c0,2.2,0.7,4.7,3,4.7
	c2.2,0,3-2.5,3-4.7C360.5,198.3,359.7,195.8,357.5,195.8z M367,205.8v-9.4l-2.5,2.7l-0.6-0.6l3.2-3.3h0.8v10.6H367z M373,205.8
	l4.5-9.8h-5.9v-0.8h6.9v0.6l-4.5,10H373z M379.6,202.3v-0.8h3.8v0.8H379.6z M388.2,205.8v-9.4l-2.5,2.7l-0.6-0.6l3.2-3.3h0.8v10.6
	H388.2z M395.5,200.3c-1.3-0.3-2.5-1.1-2.5-2.6c0-1.9,1.8-2.7,3.4-2.7c1.7,0,3.4,0.9,3.4,2.7c0,1.4-1.2,2.2-2.5,2.6
	c1.4,0.4,2.6,1.3,2.6,2.8c0,1.7-1.6,2.8-3.6,2.8c-2.1,0-3.6-1.1-3.6-2.8C392.9,201.6,394.2,200.7,395.5,200.3z M396.5,200.7
	c-0.7,0.1-2.7,0.7-2.7,2.3c0,1.3,1.3,2.1,2.7,2.1c1.4,0,2.7-0.8,2.7-2.1C399.2,201.4,397.1,200.8,396.5,200.7z M396.5,195.8
	c-1.4,0-2.5,0.7-2.5,2c0,1.5,1.9,2,2.5,2.1c0.7-0.1,2.5-0.6,2.5-2.1C399,196.6,397.9,195.8,396.5,195.8z"/>
<g>
	<g>
		<g>
			<g>
				<defs>
					<rect id="SVGID_1_" x="9.5" y="42.4" width="29" height="157.3"/>
				</defs>
				<clipPath id="SVGID_00000049935078779283481220000000853228014755255739_">
					<use xlink:href="#SVGID_1_"  style="overflow:visible;"/>
				</clipPath>
				
					<rect x="24.3" y="51.9" style="clip-path:url(#SVGID_00000049935078779283481220000000853228014755255739_);fill:#076AAA;" width="12" height="138.2"/>
			</g>
		</g>
	</g>
	<line class="st2" x1="30.3" y1="190.1" x2="30.3" y2="21.3"/>
	<path class="st3" d="M19.5,9.9l1.3-1.6c0.8,0.8,2,1.3,3.1,1.3C25.3,9.6,26,9,26,8.2c0-0.9-0.7-1.3-2.3-1.3c-0.5,0-1.2,0-1.4,0V4.7
		c0.2,0,1,0,1.4,0c1.3,0,2.1-0.4,2.1-1.2c0-0.9-0.9-1.3-2.1-1.3c-1.1,0-2.1,0.4-2.9,1.2l-1.2-1.5c0.9-1,2.3-1.8,4.3-1.8
		c2.6,0,4.3,1.2,4.3,3.1c0,1.4-1.2,2.4-2.5,2.6c1.2,0.1,2.6,1,2.6,2.7c0,1.9-1.7,3.3-4.5,3.3C21.9,11.8,20.3,11,19.5,9.9z M30,9.9
		l1.3-1.6c0.8,0.8,2,1.3,3.1,1.3c1.4,0,2.1-0.6,2.1-1.4c0-0.9-0.7-1.3-2.3-1.3c-0.5,0-1.2,0-1.4,0V4.7c0.2,0,1,0,1.4,0
		c1.3,0,2.1-0.4,2.1-1.2c0-0.9-0.9-1.3-2.1-1.3c-1.1,0-2.1,0.4-2.9,1.2l-1.2-1.5c0.9-1,2.3-1.8,4.3-1.8c2.6,0,4.3,1.2,4.3,3.1
		c0,1.4-1.2,2.4-2.5,2.6c1.2,0.1,2.6,1,2.6,2.7c0,1.9-1.7,3.3-4.5,3.3C32.4,11.8,30.8,11,30,9.9z"/>
</g>
<g>
	<defs>
		<filter id="Adobe_OpacityMaskFilter" filterUnits="userSpaceOnUse" x="93.6" y="34.5" width="29" height="165">
			<feColorMatrix  type="matrix" values="1 0 0 0 0  0 1 0 0 0  0 0 1 0 0  0 0 0 1 0"/>
		</filter>
	</defs>
	
		<mask maskUnits="userSpaceOnUse" x="93.6" y="34.5" width="29" height="165" id="SVGID_00000132772420912775073700000014605387789914763167_">
		<g class="st4">
			
				<linearGradient id="SVGID_00000023253743387066807640000017584641974052529333_" gradientUnits="userSpaceOnUse" x1="-151.8552" y1="-196.8767" x2="-150.7949" y2="-196.8767" gradientTransform="matrix(-2.000000e-15 39.0877 -39.0877 -2.000000e-15 -7008.458 6084.3369)">
				<stop  offset="0" style="stop-color:#FFFFFF"/>
				<stop  offset="1" style="stop-color:#000000"/>
			</linearGradient>
			
				<rect x="-205.6" y="-87.5" style="fill:url(#SVGID_00000023253743387066807640000017584641974052529333_);" width="1785.2" height="631.1"/>
		</g>
	</mask>
	<g class="st6">
		<g>
			<g>
				<defs>
					<rect id="SVGID_00000172412271364128443250000015709126381385072773_" x="93.6" y="34.5" width="29" height="165"/>
				</defs>
				<clipPath id="SVGID_00000093156944871090291010000007138600411230807960_">
					<use xlink:href="#SVGID_00000172412271364128443250000015709126381385072773_"  style="overflow:visible;"/>
				</clipPath>
				
					<rect x="108.5" y="44.1" style="clip-path:url(#SVGID_00000093156944871090291010000007138600411230807960_);fill:#939598;" width="12" height="145.9"/>
			</g>
		</g>
	</g>
	<line class="st2" x1="114.5" y1="190.1" x2="114.5" y2="21.3"/>
	<path class="st8" d="M105.8,9.3c0.6,0.9,1.7,1.6,3.2,1.6c1.7,0,2.8-0.9,2.8-2.4c0-1.6-1.3-2.3-3-2.3c-0.5,0-0.9,0-1.1,0V5.3
		c0.2,0,0.6,0,1.1,0c1.5,0,2.9-0.6,2.9-2.2c0-1.4-1.3-2.2-2.7-2.2c-1.3,0-2.2,0.5-3,1.4l-0.6-0.6c0.8-1,2.1-1.7,3.7-1.7
		c2,0,3.6,1.1,3.6,3c0,1.7-1.5,2.5-2.4,2.6c1,0.1,2.6,0.9,2.6,2.8s-1.4,3.2-3.8,3.2c-1.8,0-3.2-0.9-3.8-1.9L105.8,9.3z M115.9,9.3
		c0.7,1,1.7,1.6,3.2,1.6c1.6,0,2.8-1.2,2.8-2.7c0-1.7-1.2-2.8-2.8-2.8c-1,0-1.9,0.3-2.7,1.1l-0.7-0.3V0.3h6.5v0.9h-5.6v4.4
		c0.5-0.5,1.5-1.1,2.7-1.1c1.9,0,3.6,1.3,3.6,3.6s-1.7,3.6-3.8,3.6c-1.9,0-3.1-0.7-3.8-1.8L115.9,9.3z"/>
</g>
<g>
	<defs>
		
			<filter id="Adobe_OpacityMaskFilter_00000116956348487422067300000003305658486397317532_" filterUnits="userSpaceOnUse" x="180.6" y="26.2" width="29" height="173.3">
			<feColorMatrix  type="matrix" values="1 0 0 0 0  0 1 0 0 0  0 0 1 0 0  0 0 0 1 0"/>
		</filter>
	</defs>
	
		<mask maskUnits="userSpaceOnUse" x="180.6" y="26.2" width="29" height="173.3" id="SVGID_00000046325652092752379750000016959408103098345103_">
		<g style="filter:url(#Adobe_OpacityMaskFilter_00000116956348487422067300000003305658486397317532_);">
			
				<linearGradient id="SVGID_00000057137255127767974590000012239818328654706879_" gradientUnits="userSpaceOnUse" x1="-152.0782" y1="-198.7444" x2="-151.0179" y2="-198.7444" gradientTransform="matrix(-2.000000e-15 37.8632 -37.8632 -2.000000e-15 -6780.7012 5908.1289)">
				<stop  offset="0" style="stop-color:#FFFFFF"/>
				<stop  offset="1" style="stop-color:#000000"/>
			</linearGradient>
			
				<rect x="-148.2" y="-87.5" style="fill:url(#SVGID_00000057137255127767974590000012239818328654706879_);" width="1785.2" height="631.1"/>
		</g>
	</mask>
	<g class="st11">
		<g>
			<g>
				<defs>
					<rect id="SVGID_00000000919309303038802110000007478124700960717471_" x="180.6" y="26.2" width="29" height="173.3"/>
				</defs>
				<clipPath id="SVGID_00000101079365240806680690000012149307001952687288_">
					<use xlink:href="#SVGID_00000000919309303038802110000007478124700960717471_"  style="overflow:visible;"/>
				</clipPath>
				
					<rect x="195.5" y="35.8" style="clip-path:url(#SVGID_00000101079365240806680690000012149307001952687288_);fill:#939598;" width="12" height="154.3"/>
			</g>
		</g>
	</g>
	<line class="st2" x1="201.5" y1="190.1" x2="201.5" y2="21.3"/>
	<path class="st8" d="M194.4,9.3c0.6,0.9,1.7,1.6,3.2,1.6c1.7,0,2.8-0.9,2.8-2.4c0-1.6-1.3-2.3-3-2.3c-0.5,0-0.9,0-1.1,0V5.3
		c0.2,0,0.6,0,1.1,0c1.5,0,2.9-0.6,2.9-2.2c0-1.4-1.3-2.2-2.7-2.2c-1.3,0-2.2,0.5-3,1.4L194,1.7c0.8-1,2.1-1.7,3.7-1.7
		c2,0,3.6,1.1,3.6,3c0,1.7-1.5,2.5-2.4,2.6c1,0.1,2.6,0.9,2.6,2.8s-1.4,3.2-3.8,3.2c-1.8,0-3.2-0.9-3.8-1.9L194.4,9.3z M205.2,11.6
		L210,1.2h-6.3V0.3h7.4V1l-4.8,10.6C206.3,11.6,205.2,11.6,205.2,11.6z"/>
</g>
<g>
	<defs>
		
			<filter id="Adobe_OpacityMaskFilter_00000068652278758203931040000008908101175027692169_" filterUnits="userSpaceOnUse" x="265.1" y="22.9" width="29" height="176.6">
			<feColorMatrix  type="matrix" values="1 0 0 0 0  0 1 0 0 0  0 0 1 0 0  0 0 0 1 0"/>
		</filter>
	</defs>
	
		<mask maskUnits="userSpaceOnUse" x="265.1" y="22.9" width="29" height="176.6" id="SVGID_00000090256009138031399130000004459640900121121690_">
		<g style="filter:url(#Adobe_OpacityMaskFilter_00000068652278758203931040000008908101175027692169_);">
			
				<linearGradient id="SVGID_00000129887168392734530240000009504638500761223302_" gradientUnits="userSpaceOnUse" x1="-152.1868" y1="-200.4011" x2="-151.1265" y2="-200.4011" gradientTransform="matrix(-2.000000e-15 37.2942 -37.2942 -2.000000e-15 -6674.8994 5826.2544)">
				<stop  offset="0" style="stop-color:#FFFFFF"/>
				<stop  offset="1" style="stop-color:#000000"/>
			</linearGradient>
			
				<rect x="-93.7" y="-87.5" style="fill:url(#SVGID_00000129887168392734530240000009504638500761223302_);" width="1785.2" height="631.1"/>
		</g>
	</mask>
	<g class="st15">
		<g>
			<g>
				<defs>
					<rect id="SVGID_00000151517659042537988750000012910771099929799579_" x="265.1" y="22.9" width="29" height="176.6"/>
				</defs>
				<clipPath id="SVGID_00000100360509736949980900000005372668096202430129_">
					<use xlink:href="#SVGID_00000151517659042537988750000012910771099929799579_"  style="overflow:visible;"/>
				</clipPath>
				
					<rect x="280" y="32.5" style="clip-path:url(#SVGID_00000100360509736949980900000005372668096202430129_);fill:#939598;" width="12" height="157.6"/>
			</g>
		</g>
	</g>
	<line class="st2" x1="286" y1="190.1" x2="286" y2="21.3"/>
	<path class="st8" d="M278.2,9.3c0.6,0.9,1.7,1.6,3.2,1.6c1.7,0,2.8-0.9,2.8-2.4c0-1.6-1.3-2.3-3-2.3c-0.5,0-0.9,0-1.1,0V5.3
		c0.2,0,0.6,0,1.1,0c1.5,0,2.9-0.6,2.9-2.2c0-1.4-1.3-2.2-2.7-2.2c-1.3,0-2.2,0.5-3,1.4l-0.6-0.6c0.8-1,2.1-1.7,3.7-1.7
		c2,0,3.6,1.1,3.6,3c0,1.7-1.5,2.5-2.4,2.6c1,0.1,2.6,0.9,2.6,2.8s-1.4,3.2-3.8,3.2c-1.8,0-3.2-0.9-3.8-1.9L278.2,9.3z M290.5,5.7
		c-1.3-0.4-2.6-1.2-2.6-2.7c0-2,1.9-2.9,3.7-2.9c1.8,0,3.7,0.9,3.7,2.9c0,1.5-1.3,2.4-2.6,2.7c1.4,0.4,2.8,1.4,2.8,3
		c0,1.8-1.7,3-3.8,3c-2.2,0-3.8-1.2-3.8-3C287.7,7.1,289,6.1,290.5,5.7z M291.5,6.2c-0.7,0.1-2.9,0.8-2.9,2.5c0,1.4,1.4,2.2,2.9,2.2
		s2.9-0.8,2.9-2.2C294.4,6.9,292.2,6.3,291.5,6.2z M291.5,1c-1.5,0-2.7,0.8-2.7,2.1c0,1.6,2,2.1,2.7,2.2c0.7-0.1,2.7-0.6,2.7-2.2
		C294.2,1.7,293,1,291.5,1z"/>
</g>
<g>
	<defs>
		
			<filter id="Adobe_OpacityMaskFilter_00000023261959653261318840000010108779004369273222_" filterUnits="userSpaceOnUse" x="353.4" y="11.8" width="29" height="187.8">
			<feColorMatrix  type="matrix" values="1 0 0 0 0  0 1 0 0 0  0 0 1 0 0  0 0 0 1 0"/>
		</filter>
	</defs>
	
		<mask maskUnits="userSpaceOnUse" x="353.4" y="11.8" width="29" height="187.8" id="SVGID_00000065781885461766976770000007837898653873326260_">
		<g style="filter:url(#Adobe_OpacityMaskFilter_00000023261959653261318840000010108779004369273222_);">
			
				<linearGradient id="SVGID_00000176017865462277050880000005663330716323041159_" gradientUnits="userSpaceOnUse" x1="-150.4866" y1="-198.2085" x2="-149.4263" y2="-198.2085" gradientTransform="matrix(-3.000000e-15 48.7679 -48.7679 -3.000000e-15 -8809.0117 7477.3462)">
				<stop  offset="0" style="stop-color:#FFFFFF"/>
				<stop  offset="1" style="stop-color:#000000"/>
			</linearGradient>
			
				<rect x="-35.4" y="-87.5" style="fill:url(#SVGID_00000176017865462277050880000005663330716323041159_);" width="1785.2" height="631.1"/>
		</g>
	</mask>
	<g class="st19">
		<g>
			<g>
				<defs>
					<rect id="SVGID_00000119840519846053442190000003067486541885115790_" x="353.4" y="11.8" width="29" height="187.8"/>
				</defs>
				<clipPath id="SVGID_00000042711111232700785880000012233200296918292889_">
					<use xlink:href="#SVGID_00000119840519846053442190000003067486541885115790_"  style="overflow:visible;"/>
				</clipPath>
				
					<rect x="368.3" y="21.3" style="clip-path:url(#SVGID_00000042711111232700785880000012233200296918292889_);fill:#939598;" width="12" height="168.7"/>
			</g>
		</g>
	</g>
	<line class="st2" x1="374.3" y1="190.1" x2="374.3" y2="21.3"/>
	<path class="st8" d="M370.7,11.4V8.3h-5.4V7.4l5-7.4h1.3v7.3h1.6v0.9h-1.6v3.1h-0.9V11.4z M370.7,1l-4.4,6.4h4.4V1z M378.7,11.4
		v-10L376,4.3l-0.6-0.6l3.4-3.6h0.9v11.3C379.7,11.4,378.7,11.4,378.7,11.4z"/>
</g>
</svg>
