<?xml version="1.0" encoding="utf-8"?>
<!-- Generator: Adobe Illustrator 26.4.0, SVG Export Plug-In . SVG Version: 6.00 Build 0)  -->
<svg version="1.1" id="Layer_1" xmlns="http://www.w3.org/2000/svg" xmlns:xlink="http://www.w3.org/1999/xlink" x="0px" y="0px"
	 viewBox="0 0 399.9 216.5" style="enable-background:new 0 0 399.9 216.5;" xml:space="preserve">
<style type="text/css">
	.st0{fill:#0069AA;}
	.st1{clip-path:url(#SVGID_00000101095949344488894580000004036260331937668018_);fill:#076AAA;}
	.st2{fill:none;stroke:#FFFFFF;}
	.st3{fill:#076AAA;}
	.st4{filter:url(#Adobe_OpacityMaskFilter);}
	.st5{fill:url(#SVGID_00000029731529627485092270000014094590864442079413_);}
	.st6{mask:url(#SVGID_00000108267058681288117250000001312835127641521804_);}
	.st7{clip-path:url(#SVGID_00000107578844746900950530000015865559855023118250_);fill:#939598;}
	.st8{fill:#4E4E50;}
	.st9{filter:url(#Adobe_OpacityMaskFilter_00000052105361053797235680000011623992703861948588_);}
	.st10{fill:url(#SVGID_00000139284855437752382180000008425385375499239308_);}
	.st11{mask:url(#SVGID_00000078026727324992249850000000407288601421276313_);}
	.st12{clip-path:url(#SVGID_00000109739772631616849610000001168089703168017054_);fill:#939598;}
	.st13{filter:url(#Adobe_OpacityMaskFilter_00000021808221889796259310000001485609347148956065_);}
	.st14{fill:url(#SVGID_00000119099733934951014000000009724575630747188910_);}
	.st15{mask:url(#SVGID_00000124849639191230570360000012667356979691536299_);}
	.st16{clip-path:url(#SVGID_00000176728412425968293630000014382244983171094668_);fill:#939598;}
	.st17{filter:url(#Adobe_OpacityMaskFilter_00000127030222741803036320000004506896143512799928_);}
	.st18{fill:url(#SVGID_00000152962172190228725660000008404582964517661872_);}
	.st19{mask:url(#SVGID_00000070098698953425947650000015759372199084090244_);}
	.st20{clip-path:url(#SVGID_00000137113872787708296940000000567584781852721325_);fill:#939598;}
</style>
<path class="st0" d="M0.2,216.3V215c4-3.1,5.8-4.6,5.8-6.3c0-1.2-1.1-1.8-2.1-1.8c-1.3,0-2.2,0.5-2.9,1.3l-1-1
	c0.9-1.1,2.3-1.7,3.8-1.7c1.9,0,3.7,1.1,3.7,3.2c0,2.1-2,3.9-4.9,6.2h5v1.4L0.2,216.3L0.2,216.3z M13.6,205.5c2.9,0,4.2,2.8,4.2,5.5
	c0,2.6-1.2,5.5-4.2,5.5c-2.9,0-4.2-2.9-4.2-5.5C9.5,208.3,10.7,205.5,13.6,205.5z M13.6,206.9c-1.9,0-2.5,2-2.5,4.1s0.7,4.1,2.5,4.1
	c1.9,0,2.5-2,2.5-4.1S15.5,206.9,13.6,206.9z M19.3,216.3V215c4-3.1,5.8-4.6,5.8-6.3c0-1.2-1.1-1.8-2.1-1.8c-1.3,0-2.2,0.5-2.9,1.3
	l-1-1c0.9-1.1,2.3-1.7,3.8-1.7c1.9,0,3.7,1.1,3.7,3.2c0,2.1-2,3.9-4.9,6.2h5v1.4L19.3,216.3L19.3,216.3z M32.2,216.3v-8.5l-2,2.1
	l-0.9-1l3.1-3.2h1.4v10.6L32.2,216.3L32.2,216.3z M37.2,213v-1.2H41v1.2H37.2z M42.2,216.3V215c4-3.1,5.8-4.6,5.8-6.3
	c0-1.2-1.1-1.8-2.1-1.8c-1.3,0-2.2,0.5-2.9,1.3l-1-1c0.9-1.1,2.3-1.7,3.8-1.7c1.9,0,3.7,1.1,3.7,3.2c0,2.1-2,3.9-4.9,6.2h5v1.4
	L42.2,216.3L42.2,216.3z M51.8,216.3V215c4-3.1,5.8-4.6,5.8-6.3c0-1.2-1.1-1.8-2.1-1.8c-1.3,0-2.2,0.5-2.9,1.3l-1-1
	c0.9-1.1,2.3-1.7,3.8-1.7c1.9,0,3.7,1.1,3.7,3.2c0,2.1-2,3.9-4.9,6.2h5v1.4L51.8,216.3L51.8,216.3z"/>
<path d="M87,216.2v-0.8c3.6-2.9,6-5,6-7c0-1.5-1.3-2.2-2.4-2.2c-1.3,0-2.3,0.6-2.9,1.4l-0.6-0.6c0.7-1,2-1.6,3.5-1.6
	c1.6,0,3.3,0.9,3.3,3c0,2.3-2.5,4.5-5.5,7H94v0.8L87,216.2L87,216.2z M100.1,205.4c2.8,0,3.9,2.9,3.9,5.5c0,2.5-1.1,5.5-3.9,5.5
	s-3.9-3-3.9-5.5C96.2,208.3,97.2,205.4,100.1,205.4z M100.1,206.2c-2.2,0-3,2.5-3,4.6c0,2.2,0.7,4.7,3,4.7c2.2,0,3-2.5,3-4.7
	C103,208.7,102.3,206.2,100.1,206.2z M105.8,216.2v-0.8c3.6-2.9,6-5,6-7c0-1.5-1.3-2.2-2.4-2.2c-1.3,0-2.3,0.6-2.9,1.4l-0.6-0.6
	c0.7-1,2-1.6,3.5-1.6c1.6,0,3.3,0.9,3.3,3c0,2.3-2.5,4.5-5.5,7h5.6v0.8L105.8,216.2L105.8,216.2z M118.8,205.4
	c2.8,0,3.9,2.9,3.9,5.5c0,2.5-1.1,5.5-3.9,5.5s-3.9-3-3.9-5.5C114.9,208.3,116,205.4,118.8,205.4z M118.8,206.2c-2.2,0-3,2.5-3,4.6
	c0,2.2,0.7,4.7,3,4.7c2.2,0,3-2.5,3-4.7C121.8,208.7,121.1,206.2,118.8,206.2z M124.8,212.7v-0.8h3.8v0.8H124.8z M129.8,216.2v-0.8
	c3.6-2.9,6-5,6-7c0-1.5-1.3-2.2-2.4-2.2c-1.3,0-2.3,0.6-2.9,1.4l-0.6-0.6c0.7-1,2-1.6,3.5-1.6c1.6,0,3.3,0.9,3.3,3
	c0,2.3-2.5,4.5-5.5,7h5.6v0.8L129.8,216.2L129.8,216.2z M142.7,216.2v-9.4l-2.5,2.7l-0.6-0.6l3.2-3.3h0.8v10.6H142.7z"/>
<path d="M171.6,216.1v-0.7c3.6-2.9,6-5,6-7c0-1.5-1.3-2.2-2.4-2.2c-1.3,0-2.3,0.6-2.9,1.4l-0.6-0.6c0.7-1,2-1.6,3.5-1.6
	c1.6,0,3.3,0.9,3.3,3c0,2.3-2.5,4.5-5.5,7h5.6v0.8L171.6,216.1L171.6,216.1z M184.7,205.3c2.8,0,3.9,2.9,3.9,5.5
	c0,2.5-1.1,5.5-3.9,5.5c-2.8,0-3.9-3-3.9-5.5C180.8,208.3,181.8,205.3,184.7,205.3z M184.7,206.2c-2.2,0-3,2.5-3,4.6
	c0,2.2,0.7,4.7,3,4.7c2.2,0,3-2.5,3-4.7C187.6,208.6,186.9,206.2,184.7,206.2z M194.2,216.1v-9.4l-2.5,2.7l-0.6-0.6l3.2-3.3h0.8
	v10.6H194.2z M199.8,214.3c0.5,0.7,1.2,1.2,2.3,1.2c2.3,0,3.1-2.4,3.1-4.7c0-0.2,0-0.3,0-0.5c-0.4,0.7-1.7,1.8-3.1,1.8
	c-1.9,0-3.4-1.1-3.4-3.4c0-1.7,1.3-3.4,3.6-3.4c2.9,0,3.9,2.6,3.9,5.5c0,2.7-1.1,5.5-4.1,5.5c-1.4,0-2.2-0.6-2.9-1.4L199.8,214.3z
	 M202.3,206.1c-1.8,0-2.7,1.4-2.7,2.5c0,1.7,1.1,2.6,2.7,2.6c1.2,0,2.3-0.7,2.9-1.8C205,208,204.3,206.1,202.3,206.1z M208.3,212.6
	v-0.8h3.8v0.8H208.3z M213.3,216.1v-0.7c3.6-2.9,6-5,6-7c0-1.5-1.3-2.2-2.4-2.2c-1.3,0-2.3,0.6-2.9,1.4l-0.6-0.6
	c0.7-1,2-1.6,3.5-1.6c1.6,0,3.3,0.9,3.3,3c0,2.3-2.5,4.5-5.5,7h5.6v0.8L213.3,216.1L213.3,216.1z M226.4,205.3
	c2.8,0,3.9,2.9,3.9,5.5c0,2.5-1.1,5.5-3.9,5.5s-3.9-3-3.9-5.5C222.5,208.3,223.6,205.3,226.4,205.3z M226.4,206.2
	c-2.2,0-3,2.5-3,4.6c0,2.2,0.7,4.7,3,4.7c2.2,0,3-2.5,3-4.7C229.4,208.6,228.7,206.2,226.4,206.2z"/>
<path d="M258.1,216v-0.7c3.6-2.9,6-5,6-7c0-1.5-1.3-2.2-2.4-2.2c-1.3,0-2.3,0.6-2.9,1.4l-0.6-0.6c0.7-1,2-1.6,3.5-1.6
	c1.6,0,3.3,0.9,3.3,3c0,2.3-2.5,4.5-5.5,7h5.6v0.8L258.1,216L258.1,216z M271.2,205.2c2.8,0,3.9,2.9,3.9,5.5c0,2.5-1.1,5.5-3.9,5.5
	s-3.9-3-3.9-5.5C267.2,208.2,268.3,205.2,271.2,205.2z M271.2,206.1c-2.2,0-3,2.5-3,4.6c0,2.2,0.7,4.7,3,4.7c2.2,0,3-2.5,3-4.7
	C274.1,208.5,273.4,206.1,271.2,206.1z M280.7,216v-9.4l-2.5,2.7l-0.6-0.6l3.2-3.3h0.8V216H280.7z M288,210.5
	c-1.3-0.3-2.5-1.1-2.5-2.6c0-1.9,1.8-2.7,3.4-2.7c1.7,0,3.4,0.9,3.4,2.7c0,1.4-1.2,2.2-2.5,2.6c1.4,0.4,2.6,1.3,2.6,2.8
	c0,1.7-1.6,2.8-3.6,2.8c-2.1,0-3.6-1.1-3.6-2.8C285.3,211.9,286.6,210.9,288,210.5z M289,210.9c-0.7,0.1-2.7,0.7-2.7,2.3
	c0,1.3,1.3,2.1,2.7,2.1c1.4,0,2.7-0.8,2.7-2.1C291.6,211.7,289.6,211,289,210.9z M289,206.1c-1.4,0-2.5,0.7-2.5,2
	c0,1.5,1.9,2,2.5,2.1c0.7-0.1,2.5-0.6,2.5-2.1C291.5,206.8,290.3,206.1,289,206.1z M294.6,212.5v-0.8h3.8v0.8H294.6z M303.2,216
	v-9.4l-2.5,2.7l-0.6-0.6l3.2-3.3h0.8V216H303.2z M308.8,214.2c0.5,0.7,1.2,1.2,2.3,1.2c2.3,0,3.1-2.4,3.1-4.7c0-0.2,0-0.3,0-0.5
	c-0.4,0.7-1.7,1.8-3.1,1.8c-1.9,0-3.4-1.1-3.4-3.4c0-1.7,1.3-3.4,3.6-3.4c2.9,0,3.9,2.6,3.9,5.5c0,2.7-1.1,5.5-4.1,5.5
	c-1.4,0-2.2-0.6-2.9-1.4L308.8,214.2z M311.3,206c-1.8,0-2.7,1.4-2.7,2.5c0,1.7,1.1,2.6,2.7,2.6c1.2,0,2.3-0.7,2.9-1.8
	C314,207.9,313.3,206,311.3,206z"/>
<path d="M344.4,216.2v-0.8c3.6-2.9,6-5,6-7c0-1.5-1.3-2.2-2.4-2.2c-1.3,0-2.3,0.6-2.9,1.4l-0.6-0.6c0.7-1,2-1.6,3.5-1.6
	c1.6,0,3.3,0.9,3.3,3c0,2.3-2.5,4.5-5.5,7h5.6v0.8L344.4,216.2L344.4,216.2z M357.5,205.4c2.8,0,3.9,2.9,3.9,5.5
	c0,2.5-1.1,5.5-3.9,5.5s-3.9-3-3.9-5.5C353.6,208.3,354.6,205.4,357.5,205.4z M357.5,206.2c-2.2,0-3,2.5-3,4.6c0,2.2,0.7,4.7,3,4.7
	c2.2,0,3-2.5,3-4.7C360.5,208.7,359.7,206.2,357.5,206.2z M367,216.2v-9.4l-2.5,2.7l-0.6-0.6l3.2-3.3h0.8v10.6H367z M373,216.2
	l4.5-9.8h-5.9v-0.8h6.9v0.6l-4.5,10H373z M379.6,212.7v-0.8h3.8v0.8H379.6z M388.2,216.2v-9.4l-2.5,2.7l-0.6-0.6l3.2-3.3h0.8v10.6
	H388.2z M395.5,210.7c-1.3-0.3-2.5-1.1-2.5-2.6c0-1.9,1.8-2.7,3.4-2.7c1.7,0,3.4,0.9,3.4,2.7c0,1.4-1.2,2.2-2.5,2.6
	c1.4,0.4,2.6,1.3,2.6,2.8c0,1.7-1.6,2.8-3.6,2.8c-2.1,0-3.6-1.1-3.6-2.8C392.9,212,394.2,211.1,395.5,210.7z M396.5,211.1
	c-0.7,0.1-2.7,0.7-2.7,2.3c0,1.3,1.3,2.1,2.7,2.1c1.4,0,2.7-0.8,2.7-2.1C399.2,211.8,397.1,211.2,396.5,211.1z M396.5,206.2
	c-1.4,0-2.5,0.7-2.5,2c0,1.5,1.9,2,2.5,2.1c0.7-0.1,2.5-0.6,2.5-2.1C399,207,397.9,206.2,396.5,206.2z"/>
<g>
	<g>
		<g>
			<g>
				<g>
					<defs>
						<rect id="SVGID_1_" x="8.7" y="32.4" width="29" height="172.8"/>
					</defs>
					<clipPath id="SVGID_00000013887949221125125710000004718028034784586411_">
						<use xlink:href="#SVGID_1_"  style="overflow:visible;"/>
					</clipPath>
					
						<rect x="23.5" y="42.4" style="clip-path:url(#SVGID_00000013887949221125125710000004718028034784586411_);fill:#076AAA;" width="12" height="152.8"/>
				</g>
			</g>
		</g>
		<line class="st2" x1="29.5" y1="195.2" x2="29.5" y2="18.5"/>
	</g>
	<path class="st3" d="M2.1,9.3l1.3-1.5C4.2,8.6,5.4,9,6.5,9c1.4,0,2.1-0.6,2.1-1.3c0-0.8-0.7-1.2-2.3-1.2c-0.5,0-1.2,0-1.4,0v-2
		c0.2,0,1,0,1.4,0c1.3,0,2.1-0.3,2.1-1.1S7.5,2.2,6.3,2.2c-1.1,0-2.1,0.4-2.9,1.1L2.2,1.8c0.9-1,2.3-1.7,4.3-1.7
		c2.6,0,4.3,1.1,4.3,2.9c0,1.3-1.2,2.2-2.5,2.4c1.2,0.1,2.6,0.9,2.6,2.5c0,1.8-1.7,3.1-4.5,3.1C4.5,11,2.9,10.2,2.1,9.3z M18,10.8
		V8.6h-5.4V6.8l4.5-6.5h3.3v6.4h1.5v2h-1.5v2.2H18V10.8z M18,2.3l-3.1,4.4H18V2.3z M24.5,13l-0.9-0.7c0.5-0.3,1.2-0.9,1.3-1.5
		c-0.1,0-0.2,0-0.3,0c-0.6,0-1.2-0.5-1.2-1.1c0-0.7,0.6-1.3,1.3-1.3c0.8,0,1.5,0.6,1.5,1.6C26.2,11.2,25.5,12.3,24.5,13z M28.2,10.8
		V9c4.6-3.2,6-4.3,6-5.6c0-0.9-0.9-1.4-1.8-1.4c-1.3,0-2.3,0.5-3,1.2L28,1.7C29.1,0.5,30.8,0,32.4,0c2.4,0,4.3,1.3,4.3,3.4
		c0,1.8-1.6,3.4-4.5,5.3h4.6v2h-8.6V10.8z M38.4,8.1c0-1.3,1.1-2.3,2.4-2.7c-1.3-0.4-2.2-1.2-2.2-2.5c0-2,2.3-2.8,4.4-2.8
		c2.1,0,4.4,0.8,4.4,2.8c0,1.3-1,2.1-2.2,2.5c1.3,0.4,2.4,1.4,2.4,2.7c0,2-2.2,2.9-4.5,2.9C40.6,11,38.4,10,38.4,8.1z M45.1,7.8
		c0-0.9-1.4-1.3-2.1-1.4c-0.7,0.1-2.1,0.5-2.1,1.4C40.9,8.6,41.8,9,43,9C44.1,9,45.1,8.5,45.1,7.8z M44.9,3.3c0-0.7-0.8-1.2-1.9-1.2
		c-1.1,0-1.9,0.4-1.9,1.2s1.2,1.1,1.9,1.2C43.7,4.4,44.9,4.1,44.9,3.3z M52.9,10.8V3.2L51,5l-1.4-1.3l3.6-3.3h2.1v10.5h-2.4V10.8z"
		/>
</g>
<g>
	<g>
		<defs>
			<filter id="Adobe_OpacityMaskFilter" filterUnits="userSpaceOnUse" x="94.7" y="44.1" width="29" height="164.7">
				<feColorMatrix  type="matrix" values="1 0 0 0 0  0 1 0 0 0  0 0 1 0 0  0 0 0 1 0"/>
			</filter>
		</defs>
		
			<mask maskUnits="userSpaceOnUse" x="94.7" y="44.1" width="29" height="164.7" id="SVGID_00000108267058681288117250000001312835127641521804_">
			<g class="st4">
				
					<linearGradient id="SVGID_00000054980864314337898460000004784318028740644523_" gradientUnits="userSpaceOnUse" x1="-158.3763" y1="-167.4778" x2="-157.2662" y2="-167.4778" gradientTransform="matrix(-2.000000e-15 36.7714 -36.7714 -2.000000e-15 -5895.2915 5981.7783)">
					<stop  offset="0" style="stop-color:#FFFFFF"/>
					<stop  offset="1" style="stop-color:#000000"/>
				</linearGradient>
				
					<rect x="-629.5" y="-360.2" style="fill:url(#SVGID_00000054980864314337898460000004784318028740644523_);" width="1785.2" height="660.8"/>
			</g>
		</mask>
		<g class="st6">
			<g>
				<g>
					<defs>
						<rect id="SVGID_00000074408854164468459690000016118681484711457936_" x="94.7" y="44.1" width="29" height="164.7"/>
					</defs>
					<clipPath id="SVGID_00000003099834918072528880000016931611107232999820_">
						<use xlink:href="#SVGID_00000074408854164468459690000016118681484711457936_"  style="overflow:visible;"/>
					</clipPath>
					
						<rect x="109.5" y="54.1" style="clip-path:url(#SVGID_00000003099834918072528880000016931611107232999820_);fill:#939598;" width="12" height="144.7"/>
				</g>
			</g>
		</g>
		<line class="st2" x1="115.5" y1="198.9" x2="115.5" y2="22.1"/>
	</g>
	<path class="st8" d="M96.1,8.7c0.6,0.8,1.7,1.5,3.2,1.5c1.7,0,2.8-0.9,2.8-2.2c0-1.5-1.3-2.1-3-2.1c-0.5,0-0.9,0-1.1,0V5
		c0.2,0,0.6,0,1.1,0c1.5,0,2.9-0.6,2.9-2c0-1.3-1.3-2-2.7-2c-1.3,0-2.2,0.5-3,1.3l-0.6-0.6c0.8-0.9,2.1-1.6,3.7-1.6
		c2,0,3.6,1,3.6,2.8c0,1.6-1.5,2.3-2.4,2.5c1,0.1,2.6,0.9,2.6,2.6s-1.4,3-3.8,3c-1.8,0-3.2-0.8-3.8-1.8L96.1,8.7z M105.4,10.8v-0.7
		c3.8-2.9,6.4-4.9,6.4-7c0-1.5-1.3-2.1-2.6-2.1c-1.4,0-2.5,0.6-3.1,1.4l-0.7-0.6c0.8-1,2.2-1.6,3.8-1.6c1.7,0,3.6,0.9,3.6,3
		c0,2.3-2.6,4.4-5.9,6.9h6v0.8h-7.5V10.8z M115.3,12.3c0.5-0.3,0.9-1,1-1.5h-0.2c-0.4,0-0.7-0.3-0.7-0.7s0.3-0.7,0.7-0.7
		c0.5,0,0.9,0.4,0.9,1c0,0.9-0.6,1.7-1.2,2.2L115.3,12.3z M119.8,8.7c0.6,0.8,1.7,1.5,3.2,1.5c1.7,0,2.8-0.9,2.8-2.2
		c0-1.5-1.3-2.1-3-2.1c-0.5,0-0.9,0-1.1,0V5c0.2,0,0.6,0,1.1,0c1.5,0,2.9-0.6,2.9-2c0-1.3-1.3-2-2.7-2c-1.3,0-2.2,0.5-3,1.3
		l-0.6-0.6c0.8-0.9,2.1-1.6,3.7-1.6c2,0,3.6,1,3.6,2.8c0,1.6-1.5,2.3-2.4,2.5c1,0.1,2.6,0.9,2.6,2.6s-1.4,3-3.8,3
		c-1.8,0-3.2-0.8-3.8-1.8L119.8,8.7z M132.9,10.8V1.5l-2.7,2.7l-0.6-0.6l3.4-3.3h0.9v10.5H132.9z M138.4,8.7
		c0.6,0.8,1.7,1.5,3.2,1.5c1.7,0,2.8-0.9,2.8-2.2c0-1.5-1.3-2.1-3-2.1c-0.5,0-0.9,0-1.1,0V5c0.2,0,0.6,0,1.1,0c1.5,0,2.9-0.6,2.9-2
		c0-1.3-1.3-2-2.7-2c-1.3,0-2.2,0.5-3,1.3L138,1.7c0.8-0.9,2.1-1.6,3.7-1.6c2,0,3.6,1,3.6,2.8c0,1.6-1.5,2.3-2.4,2.5
		c1,0.1,2.6,0.9,2.6,2.6s-1.4,3-3.8,3c-1.8,0-3.2-0.8-3.8-1.8L138.4,8.7z"/>
</g>
<g>
	<g>
		<defs>
			
				<filter id="Adobe_OpacityMaskFilter_00000029743412331362361490000006592190415368920475_" filterUnits="userSpaceOnUse" x="180.6" y="10.8" width="29" height="196.6">
				<feColorMatrix  type="matrix" values="1 0 0 0 0  0 1 0 0 0  0 0 1 0 0  0 0 0 1 0"/>
			</filter>
		</defs>
		
			<mask maskUnits="userSpaceOnUse" x="180.6" y="10.8" width="29" height="196.6" id="SVGID_00000078026727324992249850000000407288601421276313_">
			<g style="filter:url(#Adobe_OpacityMaskFilter_00000029743412331362361490000006592190415368920475_);">
				
					<linearGradient id="SVGID_00000008138659245627020300000017006073669312862344_" gradientUnits="userSpaceOnUse" x1="-156.8029" y1="-169.8035" x2="-155.6928" y2="-169.8035" gradientTransform="matrix(-3.000000e-15 41.7966 -41.7966 -3.000000e-15 -6777.709 6704.915)">
					<stop  offset="0" style="stop-color:#FFFFFF"/>
					<stop  offset="1" style="stop-color:#000000"/>
				</linearGradient>
				
					<rect x="-573.1" y="-361.6" style="fill:url(#SVGID_00000008138659245627020300000017006073669312862344_);" width="1785.2" height="660.8"/>
			</g>
		</mask>
		<g class="st11">
			<g>
				<g>
					<defs>
						<rect id="SVGID_00000086690792372303602780000005782962426425410998_" x="180.6" y="10.8" width="29" height="196.6"/>
					</defs>
					<clipPath id="SVGID_00000115504582957244193340000000496323091656307383_">
						<use xlink:href="#SVGID_00000086690792372303602780000005782962426425410998_"  style="overflow:visible;"/>
					</clipPath>
					
						<rect x="195.5" y="20.7" style="clip-path:url(#SVGID_00000115504582957244193340000000496323091656307383_);fill:#939598;" width="12" height="176.6"/>
				</g>
			</g>
		</g>
		<line class="st2" x1="201.5" y1="197.5" x2="201.5" y2="20.7"/>
	</g>
	<path class="st8" d="M183.8,10.8V7.9h-5.4V7.1l5-6.8h1.3v6.8h1.6v0.8h-1.6v2.9H183.8z M183.8,1.2l-4.4,5.9h4.4V1.2z M192.7,0.1
		c3,0,4.2,2.9,4.2,5.4s-1.1,5.4-4.2,5.4c-3,0-4.2-2.9-4.2-5.4C188.5,3,189.7,0.1,192.7,0.1z M192.7,0.9c-2.4,0-3.2,2.4-3.2,4.6
		s0.8,4.6,3.2,4.6s3.2-2.5,3.2-4.6S195.1,0.9,192.7,0.9z M198.5,12.3c0.5-0.3,0.9-1,1-1.5h-0.2c-0.4,0-0.7-0.3-0.7-0.7
		s0.3-0.7,0.7-0.7c0.5,0,0.9,0.4,0.9,1c0,0.9-0.6,1.7-1.2,2.2L198.5,12.3z M203.1,8.7c0.6,0.8,1.7,1.5,3.2,1.5
		c1.7,0,2.8-0.9,2.8-2.2c0-1.5-1.3-2.1-3-2.1c-0.5,0-0.9,0-1.1,0V5c0.2,0,0.6,0,1.1,0c1.5,0,2.9-0.6,2.9-2c0-1.3-1.3-2-2.7-2
		c-1.3,0-2.2,0.5-3,1.3l-0.6-0.6c0.8-0.9,2.1-1.6,3.7-1.6c2,0,3.6,1,3.6,2.8c0,1.6-1.5,2.3-2.4,2.5c1,0.1,2.6,0.9,2.6,2.6
		s-1.4,3-3.8,3c-1.8,0-3.2-0.8-3.8-1.8L203.1,8.7z M216.2,10.8V1.5l-2.7,2.7l-0.6-0.6l3.4-3.3h0.9v10.5H216.2z M225.1,0.1
		c3,0,4.2,2.9,4.2,5.4s-1.1,5.4-4.2,5.4s-4.2-2.9-4.2-5.4S222.1,0.1,225.1,0.1z M225.1,0.9c-2.4,0-3.2,2.4-3.2,4.6s0.8,4.6,3.2,4.6
		s3.2-2.5,3.2-4.6S227.5,0.9,225.1,0.9z"/>
</g>
<g>
	<g>
		<defs>
			
				<filter id="Adobe_OpacityMaskFilter_00000107555893554569697760000002712394113961235882_" filterUnits="userSpaceOnUse" x="265.1" y="39.8" width="29" height="170">
				<feColorMatrix  type="matrix" values="1 0 0 0 0  0 1 0 0 0  0 0 1 0 0  0 0 0 1 0"/>
			</filter>
		</defs>
		
			<mask maskUnits="userSpaceOnUse" x="265.1" y="39.8" width="29" height="170" id="SVGID_00000124849639191230570360000012667356979691536299_">
			<g style="filter:url(#Adobe_OpacityMaskFilter_00000107555893554569697760000002712394113961235882_);">
				
					<linearGradient id="SVGID_00000058575542400942112240000000288829453824166552_" gradientUnits="userSpaceOnUse" x1="-159.6214" y1="-170.0061" x2="-158.5112" y2="-170.0061" gradientTransform="matrix(-2.000000e-15 33.5639 -33.5639 -2.000000e-15 -5332.0679 5520.2144)">
					<stop  offset="0" style="stop-color:#FFFFFF"/>
					<stop  offset="1" style="stop-color:#000000"/>
				</linearGradient>
				
					<rect x="-518.6" y="-359.2" style="fill:url(#SVGID_00000058575542400942112240000000288829453824166552_);" width="1785.2" height="660.8"/>
			</g>
		</mask>
		<g class="st15">
			<g>
				<g>
					<defs>
						<rect id="SVGID_00000035517718232503616680000002959767494173223296_" x="265.1" y="39.8" width="29" height="170"/>
					</defs>
					<clipPath id="SVGID_00000105385822113334813570000017970840414330930308_">
						<use xlink:href="#SVGID_00000035517718232503616680000002959767494173223296_"  style="overflow:visible;"/>
					</clipPath>
					
						<rect x="280" y="49.8" style="clip-path:url(#SVGID_00000105385822113334813570000017970840414330930308_);fill:#939598;" width="12" height="150"/>
				</g>
			</g>
		</g>
		<line class="st2" x1="286" y1="200" x2="286" y2="23.2"/>
	</g>
	<path class="st8" d="M262.1,8.7c0.6,0.8,1.7,1.5,3.2,1.5c1.7,0,2.8-0.9,2.8-2.2c0-1.5-1.3-2.1-3-2.1c-0.5,0-0.9,0-1.1,0V5
		c0.2,0,0.6,0,1.1,0c1.5,0,2.9-0.6,2.9-2c0-1.3-1.3-2-2.7-2c-1.3,0-2.2,0.5-3,1.3l-0.6-0.6c0.8-0.9,2.1-1.6,3.7-1.6
		c2,0,3.6,1,3.6,2.8c0,1.6-1.5,2.3-2.4,2.5c1,0.1,2.6,0.9,2.6,2.6s-1.4,3-3.8,3c-1.8,0-3.2-0.8-3.8-1.8L262.1,8.7z M272.1,8.7
		c0.6,0.8,1.7,1.5,3.2,1.5c1.7,0,2.8-0.9,2.8-2.2c0-1.5-1.3-2.1-3-2.1c-0.5,0-0.9,0-1.1,0V5c0.2,0,0.6,0,1.1,0c1.5,0,2.9-0.6,2.9-2
		c0-1.3-1.3-2-2.7-2c-1.3,0-2.2,0.5-3,1.3l-0.6-0.6c0.8-0.9,2.1-1.6,3.7-1.6c2,0,3.6,1,3.6,2.8c0,1.6-1.5,2.3-2.4,2.5
		c1,0.1,2.6,0.9,2.6,2.6s-1.4,3-3.8,3c-1.8,0-3.2-0.8-3.8-1.8L272.1,8.7z M281.2,12.3c0.5-0.3,0.9-1,1-1.5H282
		c-0.4,0-0.7-0.3-0.7-0.7s0.3-0.7,0.7-0.7c0.5,0,0.9,0.4,0.9,1c0,0.9-0.6,1.7-1.2,2.2L281.2,12.3z M289,0.1c1.5,0,2.4,0.6,3.1,1.3
		l-0.6,0.7c-0.6-0.7-1.2-1.2-2.5-1.2c-2.4,0-3.3,2.4-3.3,4.6c0,0.2,0,0.3,0,0.5c0.5-0.7,1.8-1.8,3.3-1.8c2,0,3.6,1.1,3.6,3.3
		c0,1.7-1.4,3.4-3.8,3.4c-3.1,0-4.2-2.6-4.2-5.4C284.7,2.9,285.9,0.1,289,0.1z M288.8,5.1c-1.2,0-2.4,0.7-3.1,1.8
		c0.1,1.4,0.9,3.3,3.1,3.3c1.9,0,2.8-1.4,2.8-2.5C291.7,5.9,290.5,5.1,288.8,5.1z M298.9,0.1c3,0,4.2,2.9,4.2,5.4s-1.1,5.4-4.2,5.4
		c-3,0-4.2-2.9-4.2-5.4C294.8,3,295.9,0.1,298.9,0.1z M298.9,0.9c-2.4,0-3.2,2.4-3.2,4.6s0.8,4.6,3.2,4.6c2.4,0,3.2-2.5,3.2-4.6
		S301.3,0.9,298.9,0.9z M306,8.7c0.7,1,1.7,1.5,3.2,1.5c1.6,0,2.8-1.1,2.8-2.5c0-1.6-1.2-2.6-2.8-2.6c-1,0-1.9,0.3-2.7,1l-0.7-0.3
		V0.3h6.5v0.8h-5.6v4.1c0.5-0.5,1.5-1,2.7-1c1.9,0,3.6,1.2,3.6,3.4c0,2.1-1.7,3.4-3.8,3.4c-1.9,0-3.1-0.7-3.8-1.7L306,8.7z"/>
</g>
<g>
	<defs>
		
			<filter id="Adobe_OpacityMaskFilter_00000051346368910414046390000013813532448543447702_" filterUnits="userSpaceOnUse" x="352.6" y="32.6" width="29" height="179.1">
			<feColorMatrix  type="matrix" values="1 0 0 0 0  0 1 0 0 0  0 0 1 0 0  0 0 0 1 0"/>
		</filter>
	</defs>
	
		<mask maskUnits="userSpaceOnUse" x="352.6" y="32.6" width="29" height="179.1" id="SVGID_00000070098698953425947650000015759372199084090244_">
		<g style="filter:url(#Adobe_OpacityMaskFilter_00000051346368910414046390000013813532448543447702_);">
			
				<linearGradient id="SVGID_00000156556957553736121820000018424620070458090144_" gradientUnits="userSpaceOnUse" x1="-156.2494" y1="-172.6017" x2="-155.1393" y2="-172.6017" gradientTransform="matrix(-3.000000e-15 43.4693 -43.4693 -3.000000e-15 -7071.4751 6945.627)">
				<stop  offset="0" style="stop-color:#FFFFFF"/>
				<stop  offset="1" style="stop-color:#000000"/>
			</linearGradient>
			
				<rect x="-461.2" y="-357.3" style="fill:url(#SVGID_00000156556957553736121820000018424620070458090144_);" width="1785.2" height="660.8"/>
		</g>
	</mask>
	<g class="st19">
		<g>
			<g>
				<defs>
					<rect id="SVGID_00000026858087240854594160000003788975080019426719_" x="352.6" y="32.6" width="29" height="179.1"/>
				</defs>
				<clipPath id="SVGID_00000057149604198948790780000003772742939110971838_">
					<use xlink:href="#SVGID_00000026858087240854594160000003788975080019426719_"  style="overflow:visible;"/>
				</clipPath>
				
					<rect x="367.5" y="42.6" style="clip-path:url(#SVGID_00000057149604198948790780000003772742939110971838_);fill:#939598;" width="12" height="159.2"/>
			</g>
		</g>
	</g>
	<line class="st2" x1="373.5" y1="201.8" x2="373.5" y2="25.1"/>
	<path class="st8" d="M347.1,8.7c0.6,0.8,1.7,1.5,3.2,1.5c1.7,0,2.8-0.9,2.8-2.2c0-1.5-1.3-2.1-3-2.1c-0.5,0-0.9,0-1.1,0V5
		c0.2,0,0.6,0,1.1,0c1.5,0,2.9-0.6,2.9-2c0-1.3-1.3-2-2.7-2c-1.3,0-2.2,0.5-3,1.3l-0.6-0.6c0.8-0.9,2.1-1.6,3.7-1.6
		c2,0,3.6,1,3.6,2.8c0,1.6-1.5,2.3-2.4,2.5c1,0.1,2.6,0.9,2.6,2.6s-1.4,3-3.8,3c-1.8,0-3.2-0.8-3.8-1.8L347.1,8.7z M357.2,8.7
		c0.7,1,1.7,1.5,3.2,1.5c1.6,0,2.8-1.1,2.8-2.5c0-1.6-1.2-2.6-2.8-2.6c-1,0-1.9,0.3-2.7,1L357,5.8V0.3h6.5v0.8h-5.6v4.1
		c0.5-0.5,1.5-1,2.7-1c1.9,0,3.6,1.2,3.6,3.4c0,2.1-1.7,3.4-3.8,3.4c-1.9,0-3.1-0.7-3.8-1.7L357.2,8.7z M366.2,12.4
		c0.5-0.3,0.9-1,1-1.5H367c-0.4,0-0.7-0.3-0.7-0.7s0.3-0.7,0.7-0.7c0.5,0,0.9,0.4,0.9,1c0,0.9-0.6,1.7-1.2,2.2L366.2,12.4z M370.9,9
		c0.6,0.7,1.3,1.2,2.5,1.2c2.5,0,3.3-2.4,3.3-4.6c0-0.2,0-0.3,0-0.5c-0.5,0.7-1.8,1.8-3.3,1.8c-2,0-3.6-1.1-3.6-3.3
		c0-1.7,1.4-3.4,3.8-3.4c3.1,0,4.2,2.6,4.2,5.4c0,2.7-1.2,5.4-4.3,5.4c-1.5,0-2.4-0.6-3.1-1.3L370.9,9z M373.6,0.9
		c-1.9,0-2.8,1.4-2.8,2.5c0,1.7,1.2,2.5,2.8,2.5c1.2,0,2.4-0.7,3.1-1.8C376.6,2.8,375.8,0.9,373.6,0.9z M380.5,8.7
		c0.6,0.8,1.7,1.5,3.2,1.5c1.7,0,2.8-0.9,2.8-2.2c0-1.5-1.3-2.1-3-2.1c-0.5,0-0.9,0-1.1,0V5c0.2,0,0.6,0,1.1,0c1.5,0,2.9-0.6,2.9-2
		c0-1.3-1.3-2-2.7-2c-1.3,0-2.2,0.5-3,1.3l-0.6-0.6c0.8-0.9,2.1-1.6,3.7-1.6c2,0,3.6,1,3.6,2.8c0,1.6-1.5,2.3-2.4,2.5
		c1,0.1,2.6,0.9,2.6,2.6s-1.4,3-3.8,3c-1.8,0-3.2-0.8-3.8-1.8L380.5,8.7z M389.8,10.8v-0.7c3.8-2.9,6.4-4.9,6.4-7
		c0-1.5-1.3-2.1-2.6-2.1c-1.4,0-2.5,0.6-3.1,1.4l-0.7-0.6c0.8-1,2.2-1.6,3.8-1.6c1.7,0,3.6,0.9,3.6,3c0,2.3-2.6,4.4-5.9,6.9h6v0.8
		h-7.5V10.8z"/>
</g>
</svg>
