<?xml version="1.0" encoding="utf-8"?>
<!-- Generator: Adobe Illustrator 26.4.0, SVG Export Plug-In . SVG Version: 6.00 Build 0)  -->
<svg version="1.1" id="Layer_1" xmlns="http://www.w3.org/2000/svg" xmlns:xlink="http://www.w3.org/1999/xlink" x="0px" y="0px"
	 viewBox="0 0 400 219.7" style="enable-background:new 0 0 400 219.7;" xml:space="preserve">
<style type="text/css">
	.st0{fill:#0069AA;}
	.st1{fill:#076AAA;}
	.st2{clip-path:url(#SVGID_00000080184010136788210490000009822704816134086821_);fill:#076AAA;}
	.st3{fill:none;stroke:#FFFFFF;}
	.st4{fill:#4E4E50;}
	.st5{filter:url(#Adobe_OpacityMaskFilter);}
	.st6{fill:url(#SVGID_00000089548860605023847990000012426819330070034321_);}
	.st7{mask:url(#SVGID_00000163055996652138443240000014821929123988086918_);}
	.st8{clip-path:url(#SVGID_00000031177366494878042950000006685688319025739409_);fill:#939598;}
	.st9{filter:url(#Adobe_OpacityMaskFilter_00000079445735119339154000000016165548354019006600_);}
	.st10{fill:url(#SVGID_00000063593551355612126420000016269433287230151837_);}
	.st11{mask:url(#SVGID_00000134947646407005949980000013143099181290516637_);}
	.st12{clip-path:url(#SVGID_00000020360618197303353770000003556365901489248446_);fill:#939598;}
	.st13{filter:url(#Adobe_OpacityMaskFilter_00000013175032698960743720000017389919042370818722_);}
	.st14{fill:url(#SVGID_00000057142998636479942960000013251213994105788083_);}
	.st15{mask:url(#SVGID_00000102546921456587431460000011409778730443617707_);}
	.st16{clip-path:url(#SVGID_00000017495313884662431080000005951782918325397176_);fill:#939598;}
	.st17{filter:url(#Adobe_OpacityMaskFilter_00000047751000717935075800000013581976379835245488_);}
	.st18{fill:url(#SVGID_00000095324757089515694170000009667819675797496726_);}
	.st19{mask:url(#SVGID_00000146477859216127174270000016983292027077423001_);}
	.st20{clip-path:url(#SVGID_00000123434075327107798310000006564838473116010664_);fill:#939598;}
</style>
<path class="st0" d="M0,219.6v-1.2c3.9-3,5.9-4.6,5.9-6.4c0-1.2-1-1.8-2-1.8c-1.3,0-2.2,0.5-2.9,1.3l-0.9-1c0.9-1.1,2.3-1.7,3.8-1.7
	c1.9,0,3.7,1.1,3.7,3.2c0,2-2,3.9-5,6.2h5v1.4H0z M13.4,208.8c2.9,0,4.1,2.8,4.1,5.5s-1.2,5.5-4.1,5.5s-4.1-2.8-4.1-5.5
	C9.3,211.6,10.5,208.8,13.4,208.8z M13.4,210.2c-1.9,0-2.5,2-2.5,4c0,2,0.6,4,2.5,4c1.8,0,2.5-2,2.5-4
	C16,212.2,15.4,210.2,13.4,210.2z M19.1,219.6v-1.2c3.9-3,5.9-4.6,5.9-6.4c0-1.2-1-1.8-2-1.8c-1.3,0-2.2,0.5-2.9,1.3l-0.9-1
	c0.9-1.1,2.3-1.7,3.8-1.7c1.9,0,3.7,1.1,3.7,3.2c0,2-2,3.9-5,6.2h5v1.4H19.1z M31.9,219.6v-8.5l-1.9,2l-0.9-1l3.1-3.1h1.4v10.6H31.9
	z M37,216.4v-1.2h3.8v1.2H37z M41.9,219.6v-1.2c3.9-3,5.9-4.6,5.9-6.4c0-1.2-1-1.8-2-1.8c-1.3,0-2.2,0.5-2.9,1.3l-0.9-1
	c0.9-1.1,2.3-1.7,3.8-1.7c1.9,0,3.7,1.1,3.7,3.2c0,2-2,3.9-5,6.2h5v1.4H41.9z M51.5,219.6v-1.2c3.9-3,5.9-4.6,5.9-6.4
	c0-1.2-1-1.8-2-1.8c-1.3,0-2.2,0.5-2.9,1.3l-0.9-1c0.9-1.1,2.3-1.7,3.8-1.7c1.9,0,3.7,1.1,3.7,3.2c0,2-2,3.9-5,6.2h5v1.4H51.5z"/>
<path d="M86.8,219.5v-0.8c3.6-2.9,6.1-5,6.1-7.1c0-1.5-1.2-2.1-2.4-2.1c-1.3,0-2.3,0.6-2.9,1.4l-0.6-0.6c0.7-1,2-1.6,3.5-1.6
	c1.5,0,3.3,0.9,3.3,3c0,2.3-2.4,4.4-5.6,7h5.6v0.8L86.8,219.5L86.8,219.5z M99.8,208.7c2.8,0,3.9,2.9,3.9,5.5s-1.1,5.5-3.9,5.5
	c-2.8,0-3.9-2.9-3.9-5.5S97,208.7,99.8,208.7z M99.8,209.5c-2.2,0-2.9,2.4-2.9,4.6c0,2.2,0.7,4.6,2.9,4.6c2.2,0,2.9-2.5,2.9-4.6
	C102.9,212,102.2,209.5,99.8,209.5z M105.6,219.5v-0.8c3.6-2.9,6.1-5,6.1-7.1c0-1.5-1.2-2.1-2.4-2.1c-1.3,0-2.3,0.6-2.9,1.4
	l-0.6-0.6c0.7-1,2-1.6,3.5-1.6c1.5,0,3.3,0.9,3.3,3c0,2.3-2.4,4.4-5.6,7h5.6v0.8L105.6,219.5L105.6,219.5z M118.6,208.7
	c2.8,0,3.9,2.9,3.9,5.5s-1.1,5.5-3.9,5.5c-2.8,0-3.9-2.9-3.9-5.5S115.8,208.7,118.6,208.7z M118.6,209.5c-2.2,0-2.9,2.4-2.9,4.6
	c0,2.2,0.7,4.6,2.9,4.6c2.2,0,2.9-2.5,2.9-4.6S120.9,209.5,118.6,209.5z M124.6,216v-0.8h3.8v0.8H124.6z M129.6,219.5v-0.8
	c3.6-2.9,6.1-5,6.1-7.1c0-1.5-1.2-2.1-2.4-2.1c-1.3,0-2.3,0.6-2.9,1.4l-0.6-0.6c0.7-1,2-1.6,3.5-1.6c1.5,0,3.3,0.9,3.3,3
	c0,2.3-2.4,4.4-5.6,7h5.6v0.8L129.6,219.5L129.6,219.5z M142.5,219.5v-9.4l-2.5,2.7l-0.6-0.6l3.1-3.3h0.8v10.6L142.5,219.5
	L142.5,219.5z"/>
<path d="M171.4,219.4v-0.7c3.6-2.9,6.1-5,6.1-7.1c0-1.5-1.2-2.1-2.4-2.1c-1.3,0-2.3,0.6-2.9,1.4l-0.6-0.6c0.7-1,2-1.6,3.5-1.6
	s3.3,0.9,3.3,3c0,2.3-2.4,4.4-5.6,7h5.6v0.8h-7V219.4z M184.4,208.6c2.8,0,3.9,2.9,3.9,5.5c0,2.5-1.1,5.5-3.9,5.5s-3.9-2.9-3.9-5.5
	C180.6,211.6,181.6,208.6,184.4,208.6z M184.4,209.5c-2.2,0-2.9,2.4-2.9,4.6c0,2.2,0.7,4.6,2.9,4.6s2.9-2.5,2.9-4.6
	C187.5,211.9,186.8,209.5,184.4,209.5z M194,219.4V210l-2.5,2.7l-0.6-0.6l3.1-3.3h0.8v10.6L194,219.4L194,219.4z M199.6,217.6
	c0.5,0.7,1.2,1.2,2.3,1.2c2.3,0,3.1-2.4,3.1-4.6c0-0.2,0-0.3,0-0.5c-0.4,0.7-1.7,1.8-3.1,1.8c-1.9,0-3.4-1.1-3.4-3.3
	c0-1.7,1.3-3.4,3.5-3.4c2.8,0,3.9,2.6,3.9,5.5c0,2.7-1.1,5.5-4,5.5c-1.4,0-2.2-0.6-2.8-1.3L199.6,217.6z M202.1,209.4
	c-1.8,0-2.6,1.4-2.6,2.5c0,1.7,1.1,2.5,2.6,2.5c1.1,0,2.3-0.7,2.9-1.8C204.9,211.3,204,209.4,202.1,209.4z M208.1,216v-0.8h3.8v0.8
	H208.1z M213.1,219.4v-0.7c3.6-2.9,6.1-5,6.1-7.1c0-1.5-1.2-2.1-2.4-2.1c-1.3,0-2.3,0.6-2.9,1.4l-0.6-0.6c0.7-1,2-1.6,3.5-1.6
	c1.5,0,3.3,0.9,3.3,3c0,2.3-2.4,4.4-5.6,7h5.6v0.8h-7V219.4z M226.2,208.6c2.8,0,3.9,2.9,3.9,5.5c0,2.5-1.1,5.5-3.9,5.5
	s-3.9-2.9-3.9-5.5C222.3,211.6,223.3,208.6,226.2,208.6z M226.2,209.5c-2.2,0-2.9,2.4-2.9,4.6c0,2.2,0.7,4.6,2.9,4.6
	s2.9-2.5,2.9-4.6C229.2,211.9,228.5,209.5,226.2,209.5z"/>
<path d="M257.9,219.3v-0.7c3.6-2.9,6.1-5,6.1-7.1c0-1.5-1.2-2.1-2.4-2.1c-1.3,0-2.3,0.6-2.9,1.4l-0.6-0.6c0.7-1,2-1.6,3.5-1.6
	s3.3,0.9,3.3,3c0,2.3-2.4,4.4-5.6,7h5.6v0.8h-7V219.3z M270.9,208.6c2.8,0,3.9,2.9,3.9,5.5c0,2.5-1.1,5.5-3.9,5.5
	c-2.8,0-3.9-2.9-3.9-5.5C267,211.5,268.1,208.6,270.9,208.6z M270.9,209.4c-2.2,0-2.9,2.4-2.9,4.6c0,2.2,0.7,4.6,2.9,4.6
	c2.2,0,2.9-2.5,2.9-4.6C273.9,211.8,273.2,209.4,270.9,209.4z M280.4,219.3v-9.4l-2.5,2.7l-0.6-0.6l3.1-3.3h0.8v10.6L280.4,219.3
	L280.4,219.3z M287.8,213.8c-1.2-0.3-2.4-1.1-2.4-2.5c0-1.9,1.7-2.7,3.4-2.7c1.6,0,3.4,0.9,3.4,2.7c0,1.4-1.2,2.2-2.4,2.5
	c1.3,0.4,2.6,1.3,2.6,2.8c0,1.7-1.5,2.8-3.6,2.8c-2,0-3.6-1.1-3.6-2.8C285.1,215.2,286.4,214.2,287.8,213.8z M288.7,214.2
	c-0.6,0.1-2.7,0.7-2.7,2.3c0,1.3,1.3,2.1,2.7,2.1c1.4,0,2.7-0.8,2.7-2.1C291.5,215,289.4,214.4,288.7,214.2z M288.7,209.4
	c-1.4,0-2.5,0.7-2.5,2c0,1.5,1.9,1.9,2.5,2.1c0.6-0.1,2.5-0.6,2.5-2.1C291.3,210.1,290.1,209.4,288.7,209.4z M294.4,215.9v-0.8h3.8
	v0.8H294.4z M303,219.3v-9.4l-2.5,2.7l-0.6-0.6l3.1-3.3h0.8v10.6L303,219.3L303,219.3z M308.5,217.5c0.5,0.7,1.2,1.2,2.3,1.2
	c2.3,0,3.1-2.4,3.1-4.6c0-0.2,0-0.3,0-0.5c-0.4,0.7-1.7,1.8-3.1,1.8c-1.9,0-3.4-1.1-3.4-3.3c0-1.7,1.3-3.4,3.5-3.4
	c2.8,0,3.9,2.6,3.9,5.5c0,2.7-1.1,5.5-4,5.5c-1.4,0-2.2-0.6-2.8-1.3L308.5,217.5z M311.1,209.4c-1.8,0-2.6,1.4-2.6,2.5
	c0,1.7,1.1,2.5,2.6,2.5c1.1,0,2.3-0.7,2.9-1.8C313.8,211.2,313.1,209.4,311.1,209.4z"/>
<path d="M344.2,219.5v-0.8c3.6-2.9,6.1-5,6.1-7.1c0-1.5-1.2-2.1-2.4-2.1c-1.3,0-2.3,0.6-2.9,1.4l-0.6-0.6c0.7-1,2-1.6,3.5-1.6
	c1.5,0,3.3,0.9,3.3,3c0,2.3-2.4,4.4-5.6,7h5.6v0.8L344.2,219.5L344.2,219.5z M357.3,208.7c2.8,0,3.9,2.9,3.9,5.5s-1.1,5.5-3.9,5.5
	c-2.8,0-3.9-2.9-3.9-5.5C353.3,211.6,354.4,208.7,357.3,208.7z M357.3,209.5c-2.2,0-2.9,2.4-2.9,4.6c0,2.2,0.7,4.6,2.9,4.6
	c2.2,0,2.9-2.5,2.9-4.6C360.3,212,359.6,209.5,357.3,209.5z M366.9,219.5v-9.4l-2.5,2.7l-0.6-0.6l3.1-3.3h0.8v10.6L366.9,219.5
	L366.9,219.5z M372.8,219.5l4.4-9.8h-5.9v-0.8h7v0.6l-4.5,10H372.8z M379.4,216v-0.8h3.8v0.8H379.4z M388,219.5v-9.4l-2.5,2.7
	l-0.6-0.6l3.1-3.3h0.8v10.6L388,219.5L388,219.5z M395.4,214c-1.2-0.3-2.4-1.1-2.4-2.5c0-1.9,1.7-2.7,3.4-2.7c1.6,0,3.4,0.9,3.4,2.7
	c0,1.4-1.2,2.2-2.4,2.5c1.3,0.4,2.6,1.3,2.6,2.8c0,1.7-1.5,2.8-3.6,2.8c-2,0-3.6-1.1-3.6-2.8C392.7,215.4,393.9,214.4,395.4,214z
	 M396.3,214.5c-0.6,0.1-2.7,0.7-2.7,2.3c0,1.3,1.3,2.1,2.7,2.1s2.7-0.8,2.7-2.1C399,215.2,397,214.6,396.3,214.5z M396.3,209.5
	c-1.4,0-2.5,0.7-2.5,2c0,1.5,1.9,1.9,2.5,2.1c0.6-0.1,2.5-0.6,2.5-2.1C398.8,210.3,397.7,209.5,396.3,209.5z"/>
<g>
	<path class="st1" d="M9.3,10.6l1.1-1.8c0.6,0.6,1.2,0.9,2.2,0.9c1.8,0,2.8-1.6,2.8-3.2c0-0.1,0-0.2,0-0.3C15,7,13.7,7.6,12.5,7.6
		c-2,0-3.8-1.3-3.8-3.6c0-2.2,1.7-3.8,4.3-3.8c3.4,0,4.9,2.6,4.9,5.9c0,3.4-1.9,5.9-5.3,5.9C11.2,11.8,10.1,11.3,9.3,10.6z
		 M15.5,4.5c-0.1-1.1-0.7-2.3-2.3-2.3c-1.3,0-2,0.9-2,1.6c0,1.2,1,1.7,2.1,1.7C14,5.6,14.9,5.2,15.5,4.5z M20.1,13.9l-0.9-0.8
		c0.5-0.3,1.2-1,1.3-1.6c-0.1,0-0.2,0.1-0.3,0.1c-0.6,0-1.1-0.5-1.1-1.2s0.6-1.3,1.3-1.3c0.8,0,1.5,0.6,1.5,1.7
		C21.8,12,21.2,13.1,20.1,13.9z M23,6c0-3.4,1.9-5.9,5.3-5.9c1.4,0,2.5,0.5,3.3,1.2l-1.1,1.8c-0.6-0.6-1.2-0.9-2.2-0.9
		c-1.6,0-2.8,1.4-2.8,3.2c0,0.1,0,0.2,0,0.2c0.5-0.8,1.6-1.4,2.9-1.4c2,0,3.8,1.3,3.8,3.6c0,2.2-1.7,3.8-4.3,3.8
		C24.5,11.8,23,9.2,23,6z M29.8,8c0-1.2-1-1.7-2.1-1.7c-0.8,0-1.7,0.4-2.2,1.1c0.1,1.1,0.7,2.3,2.3,2.3C29.1,9.7,29.8,8.8,29.8,8z
		 M33.9,11.6V9.7c4.6-3.4,6-4.5,6-6c0-1-0.9-1.5-1.8-1.5c-1.3,0-2.2,0.5-3,1.3l-1.4-1.6c1.1-1.3,2.8-1.8,4.3-1.8
		c2.4,0,4.3,1.3,4.3,3.6c0,1.9-1.6,3.6-4.5,5.8h4.6v2.1H33.9z M44.6,10.6l1.1-1.8c0.6,0.6,1.2,0.9,2.2,0.9c1.8,0,2.8-1.6,2.8-3.2
		c0-0.1,0-0.2,0-0.3C50.2,7,49,7.6,47.8,7.6c-2,0-3.8-1.3-3.8-3.6c0-2.2,1.7-3.8,4.3-3.8c3.4,0,4.9,2.6,4.9,5.9
		c0,3.4-1.9,5.9-5.3,5.9C46.5,11.8,45.4,11.3,44.6,10.6z M50.7,4.5c-0.1-1.1-0.7-2.3-2.3-2.3c-1.3,0-2,0.9-2,1.6
		c0,1.2,1,1.7,2.1,1.7C49.3,5.6,50.1,5.2,50.7,4.5z"/>
	<g>
		<g>
			<g>
				<defs>
					<rect id="SVGID_1_" x="8" y="19.2" width="29" height="185.6"/>
				</defs>
				<clipPath id="SVGID_00000148645643284384360910000009445038433158191267_">
					<use xlink:href="#SVGID_1_"  style="overflow:visible;"/>
				</clipPath>
				
					<rect x="22.8" y="28.7" style="clip-path:url(#SVGID_00000148645643284384360910000009445038433158191267_);fill:#076AAA;" width="12" height="166.9"/>
			</g>
		</g>
	</g>
	<line class="st3" x1="28.9" y1="195.5" x2="28.9" y2="28.7"/>
</g>
<g>
	<path class="st4" d="M96.6,11.6l4.7-10.4h-6.3V0.3h7.4V1l-4.9,10.6H96.6z M103,13.2c0.5-0.4,0.9-1,1-1.5h-0.2
		c-0.4,0-0.7-0.3-0.7-0.7s0.3-0.7,0.7-0.7c0.5,0,0.9,0.4,0.9,1.1c0,0.9-0.6,1.8-1.2,2.3L103,13.2z M107.7,9.6
		c0.6,0.7,1.2,1.2,2.5,1.2c2.4,0,3.3-2.6,3.3-5c0-0.2,0-0.3,0-0.5c-0.5,0.8-1.8,1.9-3.3,1.9c-2,0-3.6-1.2-3.6-3.6
		c0-1.8,1.4-3.6,3.8-3.6c3,0,4.1,2.8,4.1,5.9c0,2.9-1.2,5.9-4.3,5.9c-1.5,0-2.3-0.6-3-1.4L107.7,9.6z M110.5,1
		c-1.9,0-2.8,1.5-2.8,2.7c0,1.8,1.2,2.7,2.8,2.7c1.2,0,2.4-0.8,3.1-1.9C113.4,2.9,112.6,1,110.5,1z M119.7,5.8
		C118.3,5.4,117,4.5,117,3c0-2,1.8-2.9,3.6-2.9c1.7,0,3.6,0.9,3.6,2.9c0,1.5-1.3,2.3-2.6,2.7c1.4,0.4,2.8,1.4,2.8,3
		c0,1.8-1.6,3-3.8,3c-2.2,0-3.8-1.2-3.8-3C116.8,7.2,118.2,6.2,119.7,5.8z M120.8,6.2c-0.7,0.1-2.8,0.8-2.8,2.5
		c0,1.4,1.3,2.2,2.8,2.2c1.5,0,2.8-0.8,2.8-2.2C123.6,7,121.4,6.3,120.8,6.2z M120.8,1c-1.5,0-2.7,0.8-2.7,2.1c0,1.6,2,2.1,2.7,2.2
		c0.7-0.1,2.7-0.6,2.7-2.2C123.4,1.8,122.2,1,120.8,1z M130.9,0.1c3,0,4.1,3.1,4.1,5.9s-1.1,5.9-4.1,5.9c-3,0-4.1-3.1-4.1-5.9
		S127.8,0.1,130.9,0.1z M130.9,1c-2.3,0-3.1,2.6-3.1,5s0.8,5,3.1,5s3.1-2.6,3.1-5S133.3,1,130.9,1z"/>
	<defs>
		<filter id="Adobe_OpacityMaskFilter" filterUnits="userSpaceOnUse" x="94.6" y="43.7" width="29" height="159.8">
			<feColorMatrix  type="matrix" values="1 0 0 0 0  0 1 0 0 0  0 0 1 0 0  0 0 0 1 0"/>
		</filter>
	</defs>
	
		<mask maskUnits="userSpaceOnUse" x="94.6" y="43.7" width="29" height="159.8" id="SVGID_00000163055996652138443240000014821929123988086918_">
		<g class="st5">
			
				<linearGradient id="SVGID_00000165948978949042024270000013887477999078566563_" gradientUnits="userSpaceOnUse" x1="-148.6996" y1="-138.4771" x2="-147.6519" y2="-138.4771" gradientTransform="matrix(-2.000000e-15 38.0814 -38.0814 -2.000000e-15 -5705.4365 5816.8545)">
				<stop  offset="0" style="stop-color:#FFFFFF"/>
				<stop  offset="1" style="stop-color:#000000"/>
			</linearGradient>
			
				<rect x="-1324.6" y="-79.1" style="fill:url(#SVGID_00000165948978949042024270000013887477999078566563_);" width="1785.1" height="623.7"/>
		</g>
	</mask>
	<g class="st7">
		<g>
			<g>
				<defs>
					<rect id="SVGID_00000132789388809528592070000000006355592919587752_" x="94.6" y="43.7" width="29" height="159.8"/>
				</defs>
				<clipPath id="SVGID_00000141437747621831592390000005975734899429250715_">
					<use xlink:href="#SVGID_00000132789388809528592070000000006355592919587752_"  style="overflow:visible;"/>
				</clipPath>
				
					<rect x="109.4" y="53.1" style="clip-path:url(#SVGID_00000141437747621831592390000005975734899429250715_);fill:#939598;" width="12" height="140.9"/>
			</g>
		</g>
	</g>
	<line class="st3" x1="115.4" y1="194" x2="115.4" y2="27.3"/>
</g>
<g>
	<path class="st4" d="M183.9,0.1c1.5,0,2.4,0.6,3,1.4l-0.6,0.7c-0.6-0.7-1.2-1.3-2.5-1.3c-2.4,0-3.3,2.5-3.3,5c0,0.2,0,0.4,0,0.5
		c0.5-0.8,1.8-1.9,3.3-1.9c2,0,3.6,1.2,3.6,3.5c0,1.8-1.4,3.6-3.8,3.6c-3,0-4.1-2.8-4.1-5.9C179.6,3,180.8,0.1,183.9,0.1z
		 M183.7,5.5c-1.2,0-2.4,0.8-3.1,1.9c0.1,1.5,0.9,3.5,3,3.5c1.9,0,2.8-1.5,2.8-2.7C186.6,6.4,185.3,5.5,183.7,5.5z M189.5,13.2
		c0.5-0.4,0.9-1,1-1.5h-0.2c-0.4,0-0.7-0.3-0.7-0.7s0.3-0.7,0.7-0.7c0.5,0,0.9,0.4,0.9,1.1c0,0.9-0.6,1.8-1.2,2.3L189.5,13.2z
		 M196.1,5.8c-1.3-0.4-2.6-1.2-2.6-2.7c0-2,1.8-2.9,3.6-2.9c1.7,0,3.6,0.9,3.6,2.9c0,1.5-1.3,2.3-2.6,2.7c1.4,0.4,2.8,1.4,2.8,3
		c0,1.8-1.6,3-3.8,3s-3.8-1.2-3.8-3C193.3,7.2,194.6,6.2,196.1,5.8z M197.2,6.2c-0.7,0.1-2.8,0.8-2.8,2.5c0,1.4,1.3,2.2,2.8,2.2
		s2.8-0.8,2.8-2.2C200,7,197.8,6.3,197.2,6.2z M197.2,1c-1.5,0-2.7,0.8-2.7,2.1c0,1.6,2,2.1,2.7,2.2c0.7-0.1,2.7-0.6,2.7-2.2
		C199.8,1.7,198.6,1,197.2,1z M207.3,0.1c3,0,4.1,3.1,4.1,5.9s-1.1,5.9-4.1,5.9c-3,0-4.1-3.1-4.1-5.9S204.2,0.1,207.3,0.1z M207.3,1
		c-2.3,0-3.1,2.6-3.1,5s0.8,5,3.1,5c2.3,0,3.1-2.6,3.1-5C210.5,3.6,209.7,1,207.3,1z M214.4,9.3c0.7,1,1.7,1.6,3.1,1.6
		c1.6,0,2.8-1.2,2.8-2.7c0-1.7-1.2-2.7-2.8-2.7c-1,0-1.9,0.3-2.7,1.1L214,6.2V0.3h6.6v0.9h-5.6v4.4c0.5-0.5,1.5-1,2.7-1
		c1.9,0,3.6,1.2,3.6,3.6c0,2.2-1.7,3.6-3.8,3.6c-1.9,0-3-0.7-3.8-1.8L214.4,9.3z"/>
	<defs>
		
			<filter id="Adobe_OpacityMaskFilter_00000072962655821462633690000003812365590358738355_" filterUnits="userSpaceOnUse" x="180.4" y="64" width="29" height="141.4">
			<feColorMatrix  type="matrix" values="1 0 0 0 0  0 1 0 0 0  0 0 1 0 0  0 0 0 1 0"/>
		</filter>
	</defs>
	
		<mask maskUnits="userSpaceOnUse" x="180.4" y="64" width="29" height="141.4" id="SVGID_00000134947646407005949980000013143099181290516637_">
		<g style="filter:url(#Adobe_OpacityMaskFilter_00000072962655821462633690000003812365590358738355_);">
			
				<linearGradient id="SVGID_00000088129094979927313920000006042156919478905505_" gradientUnits="userSpaceOnUse" x1="-149.6763" y1="-130.6909" x2="-148.6286" y2="-130.6909" gradientTransform="matrix(-2.000000e-15 29.6214 -29.6214 -2.000000e-15 -4246.9927 4598.5938)">
				<stop  offset="0" style="stop-color:#FFFFFF"/>
				<stop  offset="1" style="stop-color:#000000"/>
			</linearGradient>
			
				<rect x="-1268.3" y="-77.1" style="fill:url(#SVGID_00000088129094979927313920000006042156919478905505_);" width="1785.1" height="623.7"/>
		</g>
	</mask>
	<g class="st11">
		<g>
			<g>
				<defs>
					<rect id="SVGID_00000129200018389649053970000013970702359309185692_" x="180.4" y="64" width="29" height="141.4"/>
				</defs>
				<clipPath id="SVGID_00000066516763098805931700000005791846240211124125_">
					<use xlink:href="#SVGID_00000129200018389649053970000013970702359309185692_"  style="overflow:visible;"/>
				</clipPath>
				
					<rect x="195.3" y="73.5" style="clip-path:url(#SVGID_00000066516763098805931700000005791846240211124125_);fill:#939598;" width="12" height="122.5"/>
			</g>
		</g>
	</g>
	<line class="st3" x1="201.3" y1="196.1" x2="201.3" y2="29.2"/>
</g>
<g>
	<path class="st4" d="M266.1,11.6l4.7-10.4h-6.3V0.3h7.4V1l-4.9,10.6H266.1z M272.5,13.2c0.5-0.4,0.9-1,1-1.5h-0.2
		c-0.4,0-0.7-0.3-0.7-0.7s0.3-0.7,0.7-0.7c0.5,0,0.9,0.4,0.9,1.1c0,0.9-0.6,1.8-1.2,2.3L272.5,13.2z M277.2,9.6
		c0.6,0.7,1.2,1.2,2.5,1.2c2.4,0,3.3-2.6,3.3-5c0-0.2,0-0.3,0-0.5c-0.5,0.8-1.8,1.9-3.3,1.9c-2,0-3.6-1.2-3.6-3.6
		c0-1.8,1.4-3.6,3.8-3.6c3,0,4.1,2.8,4.1,5.9c0,2.9-1.2,5.9-4.3,5.9c-1.5,0-2.3-0.6-3-1.4L277.2,9.6z M279.9,1
		c-1.9,0-2.8,1.5-2.8,2.7c0,1.8,1.2,2.7,2.8,2.7c1.2,0,2.4-0.8,3.1-1.9C282.9,2.9,282.1,1,279.9,1z M287,9.3c0.7,1,1.7,1.6,3.1,1.6
		c1.6,0,2.8-1.2,2.8-2.7c0-1.7-1.2-2.7-2.8-2.7c-1,0-1.9,0.3-2.7,1.1l-0.7-0.3v-6h6.6v0.9h-5.6v4.4c0.5-0.5,1.5-1,2.7-1
		c1.9,0,3.6,1.2,3.6,3.6c0,2.2-1.7,3.6-3.8,3.6c-1.9,0-3-0.7-3.8-1.8L287,9.3z M300.7,0.1c1.5,0,2.4,0.6,3,1.4l-0.6,0.7
		c-0.6-0.7-1.2-1.3-2.5-1.3c-2.4,0-3.3,2.5-3.3,5c0,0.2,0,0.4,0,0.5c0.5-0.8,1.8-1.9,3.3-1.9c2,0,3.6,1.2,3.6,3.5
		c0,1.8-1.4,3.6-3.8,3.6c-3,0-4.1-2.8-4.1-5.9C296.3,3,297.5,0.1,300.7,0.1z M300.5,5.5c-1.2,0-2.4,0.8-3.1,1.9
		c0.1,1.5,0.9,3.5,3,3.5c1.9,0,2.8-1.5,2.8-2.7C303.3,6.4,302.1,5.5,300.5,5.5z"/>
	<g>
		<defs>
			
				<filter id="Adobe_OpacityMaskFilter_00000028288900304979299940000005726733077759216046_" filterUnits="userSpaceOnUse" x="265.4" y="46.1" width="29" height="159.3">
				<feColorMatrix  type="matrix" values="1 0 0 0 0  0 1 0 0 0  0 0 1 0 0  0 0 0 1 0"/>
			</filter>
		</defs>
		
			<mask maskUnits="userSpaceOnUse" x="265.4" y="46.1" width="29" height="159.3" id="SVGID_00000102546921456587431460000011409778730443617707_">
			<g style="filter:url(#Adobe_OpacityMaskFilter_00000028288900304979299940000005726733077759216046_);">
				
					<linearGradient id="SVGID_00000142894546947128672690000014331877687472625581_" gradientUnits="userSpaceOnUse" x1="-149.1688" y1="-136.9155" x2="-148.121" y2="-136.9155" gradientTransform="matrix(-2.000000e-15 33.2697 -33.2697 -2.000000e-15 -4875.9058 5123.9526)">
					<stop  offset="0" style="stop-color:#FFFFFF"/>
					<stop  offset="1" style="stop-color:#000000"/>
				</linearGradient>
				
					<rect x="-1213.3" y="-77.1" style="fill:url(#SVGID_00000142894546947128672690000014331877687472625581_);" width="1785.1" height="623.7"/>
			</g>
		</mask>
		<g class="st15">
			<g>
				<g>
					<defs>
						<rect id="SVGID_00000072277302708119293790000000403845483852679563_" x="265.4" y="46.1" width="29" height="159.3"/>
					</defs>
					<clipPath id="SVGID_00000182493030849615527660000015448095949318475431_">
						<use xlink:href="#SVGID_00000072277302708119293790000000403845483852679563_"  style="overflow:visible;"/>
					</clipPath>
					
						<rect x="280.2" y="55.5" style="clip-path:url(#SVGID_00000182493030849615527660000015448095949318475431_);fill:#939598;" width="12" height="140.5"/>
				</g>
			</g>
		</g>
		<line class="st3" x1="286.3" y1="196.1" x2="286.3" y2="29.2"/>
	</g>
</g>
<g>
	<path class="st4" d="M350,9.6c0.6,0.7,1.2,1.2,2.5,1.2c2.4,0,3.3-2.6,3.3-5c0-0.2,0-0.3,0-0.5c-0.5,0.8-1.8,1.9-3.3,1.9
		c-2,0-3.6-1.2-3.6-3.6c0-1.8,1.4-3.6,3.8-3.6c3,0,4.1,2.8,4.1,5.9c0,2.9-1.2,5.9-4.3,5.9c-1.5,0-2.3-0.6-3-1.4L350,9.6z M352.6,1
		c-1.9,0-2.8,1.5-2.8,2.7c0,1.8,1.2,2.7,2.8,2.7c1.2,0,2.4-0.8,3.1-1.9C355.5,2.9,354.7,1,352.6,1z M358.6,13.2c0.5-0.4,0.9-1,1-1.5
		h-0.2c-0.4,0-0.7-0.3-0.7-0.7s0.3-0.7,0.7-0.7c0.5,0,0.9,0.4,0.9,1.1c0,0.9-0.6,1.8-1.2,2.3L358.6,13.2z M362.7,11.6v-0.8
		c3.8-3.1,6.5-5.4,6.5-7.5c0-1.6-1.3-2.3-2.6-2.3c-1.4,0-2.5,0.6-3.1,1.5l-0.7-0.6c0.8-1.1,2.1-1.7,3.7-1.7s3.5,0.9,3.5,3.2
		c0,2.5-2.6,4.7-5.9,7.4h6v0.9h-7.4V11.6z M374,11.6l4.7-10.4h-6.3V0.3h7.4V1L375,11.6H374z M386.2,0.1c1.5,0,2.4,0.6,3,1.4
		l-0.6,0.7c-0.6-0.7-1.2-1.3-2.5-1.3c-2.4,0-3.3,2.5-3.3,5c0,0.2,0,0.4,0,0.5c0.5-0.8,1.8-1.9,3.3-1.9c2,0,3.6,1.2,3.6,3.5
		c0,1.8-1.4,3.6-3.8,3.6c-3,0-4.1-2.8-4.1-5.9C381.8,3,383,0.1,386.2,0.1z M386,5.5c-1.2,0-2.4,0.8-3.1,1.9c0.1,1.5,0.9,3.5,3,3.5
		c1.9,0,2.8-1.5,2.8-2.7C388.8,6.4,387.6,5.5,386,5.5z"/>
	<defs>
		
			<filter id="Adobe_OpacityMaskFilter_00000031911501644913039800000004863326102155099029_" filterUnits="userSpaceOnUse" x="352.4" y="22.6" width="29" height="180">
			<feColorMatrix  type="matrix" values="1 0 0 0 0  0 1 0 0 0  0 0 1 0 0  0 0 0 1 0"/>
		</filter>
	</defs>
	
		<mask maskUnits="userSpaceOnUse" x="352.4" y="22.6" width="29" height="180" id="SVGID_00000146477859216127174270000016983292027077423001_">
		<g style="filter:url(#Adobe_OpacityMaskFilter_00000031911501644913039800000004863326102155099029_);">
			
				<linearGradient id="SVGID_00000069363581957625161590000017126536384792951460_" gradientUnits="userSpaceOnUse" x1="-148.0263" y1="-148.4698" x2="-146.9785" y2="-148.4698" gradientTransform="matrix(-3.000000e-15 46.9598 -46.9598 -3.000000e-15 -7235.9849 7095.3618)">
				<stop  offset="0" style="stop-color:#FFFFFF"/>
				<stop  offset="1" style="stop-color:#000000"/>
			</linearGradient>
			
				<rect x="-1156.4" y="-79.9" style="fill:url(#SVGID_00000069363581957625161590000017126536384792951460_);" width="1785.1" height="623.7"/>
		</g>
	</mask>
	<g class="st19">
		<g>
			<g>
				<defs>
					<rect id="SVGID_00000151535124077491967330000018117168642739534771_" x="352.4" y="22.6" width="29" height="180"/>
				</defs>
				<clipPath id="SVGID_00000006695823169042827450000001101275132900577721_">
					<use xlink:href="#SVGID_00000151535124077491967330000018117168642739534771_"  style="overflow:visible;"/>
				</clipPath>
				
					<rect x="367.2" y="32" style="clip-path:url(#SVGID_00000006695823169042827450000001101275132900577721_);fill:#939598;" width="12" height="161.1"/>
			</g>
		</g>
	</g>
	<line class="st3" x1="373.2" y1="193.2" x2="373.2" y2="26.5"/>
</g>
</svg>
