<?xml version="1.0" encoding="utf-8"?>
<!-- Generator: Adobe Illustrator 26.4.0, SVG Export Plug-In . SVG Version: 6.00 Build 0)  -->
<svg version="1.1" id="Layer_1" xmlns="http://www.w3.org/2000/svg" xmlns:xlink="http://www.w3.org/1999/xlink" x="0px" y="0px"
	 viewBox="0 0 595.3 126.8" style="enable-background:new 0 0 595.3 126.8;" xml:space="preserve">
<style type="text/css">
	.st0{fill:#E6E7E8;}
	.st1{fill:none;stroke:#0069AA;stroke-width:0.5;stroke-miterlimit:10;}
	.st2{fill:none;stroke:#6D6E71;stroke-width:0.25;stroke-miterlimit:10;}
	.st3{fill:none;stroke:#0069AA;stroke-miterlimit:10;}
	.st4{fill:#4D4D4F;}
</style>
<g>
	<path class="st0" d="M514.6,23h80.1v36.5h-80.1V23z M434.5,23h80.1v36.5h-80.1V23z M354.5,23h80.1v36.5h-80.1V23z M274.4,23h80.1
		v36.5h-80.1V23z M274.4,0.9h320.3V23H274.4V0.9z M0.6,0.9h273.8v58.7H0.6V0.9z"/>
	<line class="st1" x1="0.6" y1="59.5" x2="274.4" y2="59.5"/>
	<line class="st1" x1="274.4" y1="59.5" x2="354.5" y2="59.5"/>
	<line class="st1" x1="354.5" y1="59.5" x2="434.5" y2="59.5"/>
	<line class="st1" x1="434.5" y1="59.5" x2="514.6" y2="59.5"/>
	<line class="st1" x1="514.6" y1="59.5" x2="594.7" y2="59.5"/>
	<line class="st1" x1="274.4" y1="23" x2="354.5" y2="23"/>
	<line class="st1" x1="354.5" y1="23" x2="434.5" y2="23"/>
	<line class="st1" x1="434.5" y1="23" x2="514.6" y2="23"/>
	<line class="st1" x1="514.6" y1="23" x2="594.7" y2="23"/>
	<line class="st2" x1="0.6" y1="81.7" x2="274.4" y2="81.7"/>
	<line class="st2" x1="274.4" y1="81.7" x2="354.5" y2="81.7"/>
	<line class="st2" x1="354.5" y1="81.7" x2="434.5" y2="81.7"/>
	<line class="st2" x1="434.5" y1="81.7" x2="514.6" y2="81.7"/>
	<line class="st2" x1="514.6" y1="81.7" x2="594.7" y2="81.7"/>
	<line class="st2" x1="0.6" y1="103.8" x2="274.4" y2="103.8"/>
	<line class="st2" x1="274.4" y1="103.8" x2="354.5" y2="103.8"/>
	<line class="st2" x1="354.5" y1="103.8" x2="434.5" y2="103.8"/>
	<line class="st2" x1="434.5" y1="103.8" x2="514.6" y2="103.8"/>
	<line class="st2" x1="514.6" y1="103.8" x2="594.7" y2="103.8"/>
	<line class="st3" x1="0.6" y1="125.9" x2="274.4" y2="125.9"/>
	<line class="st3" x1="274.4" y1="125.9" x2="354.5" y2="125.9"/>
	<line class="st3" x1="354.5" y1="125.9" x2="434.5" y2="125.9"/>
	<line class="st3" x1="434.5" y1="125.9" x2="514.6" y2="125.9"/>
	<line class="st3" x1="514.6" y1="125.9" x2="594.7" y2="125.9"/>
	<g>
		<path class="st4" d="M4.5,30.9c0-2.2,1.7-3.7,3.8-3.7c1.5,0,2.4,0.8,2.9,1.6l-1.1,0.6c-0.3-0.6-1-1-1.8-1c-1.4,0-2.5,1.1-2.5,2.6
			c0,1.5,1.1,2.6,2.5,2.6c0.8,0,1.5-0.4,1.8-1l1.1,0.6c-0.6,0.9-1.4,1.6-2.9,1.6C6.1,34.6,4.5,33.1,4.5,30.9z"/>
		<path class="st4" d="M15.3,34.5v-0.6c-0.4,0.4-1,0.7-1.7,0.7c-0.9,0-1.8-0.6-1.8-1.7c0-1.2,1-1.7,1.8-1.7c0.7,0,1.3,0.2,1.7,0.7
			v-0.8c0-0.6-0.5-1-1.2-1c-0.6,0-1.1,0.2-1.5,0.7l-0.5-0.8c0.6-0.6,1.4-0.8,2.2-0.8c1.2,0,2.2,0.5,2.2,1.9v3.5H15.3z M15.3,33.3
			v-0.8c-0.3-0.4-0.7-0.5-1.2-0.5c-0.6,0-1.1,0.4-1.1,0.9c0,0.6,0.5,0.9,1.1,0.9C14.6,33.8,15,33.6,15.3,33.3z"/>
		<path class="st4" d="M18.1,33.2v-3h-0.9v-1h0.9v-1.4h1.1v1.4h1.1v1h-1.1V33c0,0.4,0.2,0.6,0.5,0.6c0.2,0,0.4-0.1,0.5-0.2l0.3,0.9
			c-0.2,0.2-0.5,0.3-1.1,0.3C18.6,34.6,18.1,34.1,18.1,33.2z"/>
		<path class="st4" d="M21,31.8c0-1.5,1.1-2.7,2.6-2.7c1.6,0,2.6,1.2,2.6,2.8v0.3h-4c0.1,0.8,0.7,1.4,1.7,1.4c0.5,0,1.1-0.2,1.5-0.6
			l0.5,0.7c-0.5,0.5-1.3,0.8-2.1,0.8C22.2,34.6,21,33.5,21,31.8z M23.7,30c-1,0-1.4,0.7-1.5,1.4h2.9C25.1,30.8,24.7,30,23.7,30z"/>
		<path class="st4" d="M27.3,35.8l0.5-0.8c0.4,0.5,1,0.7,1.7,0.7c0.7,0,1.5-0.3,1.5-1.4v-0.6c-0.4,0.5-1,0.9-1.7,0.9
			c-1.3,0-2.3-1-2.3-2.7c0-1.7,1-2.7,2.3-2.7c0.7,0,1.3,0.3,1.7,0.9v-0.7h1.1v4.9c0,1.9-1.4,2.4-2.7,2.4
			C28.6,36.6,27.9,36.4,27.3,35.8z M31,32.8v-1.9c-0.2-0.4-0.8-0.7-1.3-0.7c-0.9,0-1.5,0.7-1.5,1.7c0,1,0.6,1.7,1.5,1.7
			C30.2,33.5,30.8,33.1,31,32.8z"/>
		<path class="st4" d="M33.3,31.8c0-1.5,1-2.7,2.7-2.7c1.7,0,2.7,1.2,2.7,2.7c0,1.5-1,2.7-2.7,2.7C34.3,34.6,33.3,33.3,33.3,31.8z
			 M37.5,31.8c0-0.9-0.5-1.7-1.5-1.7c-1,0-1.5,0.8-1.5,1.7c0,0.9,0.5,1.7,1.5,1.7C37,33.6,37.5,32.8,37.5,31.8z"/>
		<path class="st4" d="M39.8,34.5v-5.2H41V30c0.4-0.5,1-0.9,1.7-0.9v1.1c-0.1,0-0.2,0-0.4,0c-0.5,0-1.1,0.3-1.3,0.7v3.6H39.8z"/>
		<path class="st4" d="M43.5,35.5c0.1,0.1,0.3,0.1,0.4,0.1c0.4,0,0.6-0.1,0.7-0.5l0.3-0.6l-2.1-5.3H44l1.5,3.9l1.5-3.9h1.2l-2.5,6.2
			c-0.4,0.9-1,1.2-1.8,1.2c-0.2,0-0.5,0-0.6-0.1L43.5,35.5z"/>
	</g>
	<g>
		<path class="st4" d="M417.3,16.2l-2.4-3l-0.6,0.7v2.3H413V9h1.3v3.4l2.8-3.4h1.6l-2.9,3.4l3.1,3.8H417.3z"/>
		<path class="st4" d="M419,13.6c0-1.5,1.1-2.7,2.6-2.7c1.6,0,2.6,1.2,2.6,2.8v0.3h-4c0.1,0.8,0.7,1.4,1.7,1.4
			c0.5,0,1.1-0.2,1.5-0.6l0.5,0.7c-0.5,0.5-1.3,0.8-2.1,0.8C420.2,16.3,419,15.2,419,13.6z M421.7,11.8c-1,0-1.4,0.7-1.5,1.4h2.9
			C423.1,12.5,422.7,11.8,421.7,11.8z"/>
		<path class="st4" d="M425.3,17.2c0.1,0.1,0.3,0.1,0.4,0.1c0.4,0,0.6-0.1,0.7-0.5l0.3-0.6l-2.1-5.3h1.2l1.5,3.9l1.5-3.9h1.2
			l-2.5,6.2c-0.4,0.9-1,1.2-1.8,1.2c-0.2,0-0.5,0-0.6-0.1L425.3,17.2z"/>
		<path class="st4" d="M433.1,15.2l0.7-1c0.5,0.5,1.3,1,2.3,1c1,0,1.4-0.5,1.4-1c0-1.5-4.2-0.6-4.2-3.2c0-1.2,1-2.1,2.6-2.1
			c1.1,0,2,0.4,2.7,1l-0.7,0.9c-0.6-0.6-1.3-0.8-2.1-0.8c-0.7,0-1.2,0.4-1.2,0.9c0,1.3,4.2,0.5,4.2,3.2c0,1.2-0.8,2.2-2.8,2.2
			C434.7,16.3,433.8,15.8,433.1,15.2z"/>
		<path class="st4" d="M440,15v-3h-0.9v-1h0.9V9.5h1.1V11h1.1v1h-1.1v2.7c0,0.4,0.2,0.6,0.5,0.6c0.2,0,0.4-0.1,0.5-0.2l0.3,0.9
			c-0.2,0.2-0.5,0.3-1.1,0.3C440.5,16.3,440,15.8,440,15z"/>
		<path class="st4" d="M446.4,16.2v-0.6c-0.4,0.4-1,0.7-1.7,0.7c-0.9,0-1.8-0.6-1.8-1.7c0-1.2,1-1.7,1.8-1.7c0.7,0,1.3,0.2,1.7,0.7
			v-0.8c0-0.6-0.5-1-1.2-1c-0.6,0-1.1,0.2-1.5,0.7l-0.5-0.8c0.6-0.6,1.4-0.8,2.2-0.8c1.2,0,2.2,0.5,2.2,1.9v3.5H446.4z M446.4,15
			v-0.8c-0.3-0.4-0.7-0.5-1.2-0.5c-0.6,0-1.1,0.4-1.1,0.9c0,0.6,0.5,0.9,1.1,0.9C445.7,15.5,446.2,15.4,446.4,15z"/>
		<path class="st4" d="M449.3,15v-3h-0.9v-1h0.9V9.5h1.1V11h1.1v1h-1.1v2.7c0,0.4,0.2,0.6,0.5,0.6c0.2,0,0.4-0.1,0.5-0.2l0.3,0.9
			c-0.2,0.2-0.5,0.3-1.1,0.3C449.7,16.3,449.3,15.8,449.3,15z"/>
		<path class="st4" d="M452,15.5l0.5-0.8c0.4,0.4,1.1,0.7,1.8,0.7s1-0.3,1-0.7c0-1-3.2-0.3-3.2-2.3c0-0.9,0.7-1.6,2.1-1.6
			c0.9,0,1.6,0.3,2,0.7l-0.5,0.8c-0.3-0.4-0.9-0.6-1.5-0.6c-0.6,0-1,0.3-1,0.6c0,0.9,3.2,0.2,3.2,2.3c0,0.9-0.8,1.6-2.2,1.6
			C453.4,16.3,452.6,16,452,15.5z"/>
	</g>
	<g>
		<path class="st4" d="M311.9,38.3v-6.1h-2.2v-1.1h5.6v1.1h-2.2v6.1H311.9z"/>
		<path class="st4" d="M315,35.7c0-1.5,1-2.7,2.7-2.7c1.7,0,2.7,1.2,2.7,2.7c0,1.5-1,2.7-2.7,2.7C316,38.4,315,37.2,315,35.7z
			 M319.2,35.7c0-0.9-0.5-1.7-1.5-1.7c-1,0-1.5,0.8-1.5,1.7c0,0.9,0.5,1.7,1.5,1.7C318.6,37.4,319.2,36.6,319.2,35.7z"/>
		<path class="st4" d="M325,38.3v-3.3c0-0.8-0.4-1.1-1-1.1c-0.6,0-1.1,0.3-1.3,0.7v3.6h-1.1v-5.2h1.1v0.7c0.3-0.4,1-0.8,1.8-0.8
			c1.1,0,1.7,0.6,1.7,1.7v3.7H325z"/>
		<path class="st4" d="M331.1,38.3v-3.3c0-0.8-0.4-1.1-1-1.1c-0.6,0-1.1,0.3-1.3,0.7v3.6h-1.1v-5.2h1.1v0.7c0.3-0.4,1-0.8,1.8-0.8
			c1.1,0,1.7,0.6,1.7,1.7v3.7H331.1z"/>
		<path class="st4" d="M336.9,38.3v-0.6c-0.4,0.4-1,0.7-1.7,0.7c-0.9,0-1.8-0.6-1.8-1.7c0-1.2,1-1.7,1.8-1.7c0.7,0,1.3,0.2,1.7,0.7
			v-0.8c0-0.6-0.5-1-1.2-1c-0.6,0-1.1,0.2-1.5,0.7l-0.5-0.8c0.6-0.6,1.4-0.8,2.2-0.8c1.2,0,2.2,0.5,2.2,1.9v3.5H336.9z M336.9,37.1
			v-0.8c-0.3-0.4-0.7-0.5-1.2-0.5c-0.6,0-1.1,0.4-1.1,0.9c0,0.6,0.5,0.9,1.1,0.9C336.2,37.7,336.7,37.5,336.9,37.1z"/>
		<path class="st4" d="M339.4,39.7l0.5-0.8c0.4,0.5,1,0.7,1.7,0.7c0.7,0,1.5-0.3,1.5-1.4v-0.6c-0.4,0.5-1,0.9-1.7,0.9
			c-1.3,0-2.3-1-2.3-2.7c0-1.7,1-2.7,2.3-2.7c0.7,0,1.3,0.3,1.7,0.9v-0.7h1.1V38c0,1.9-1.4,2.4-2.7,2.4
			C340.7,40.4,340.1,40.2,339.4,39.7z M343.2,36.6v-1.9c-0.2-0.4-0.8-0.7-1.3-0.7c-0.9,0-1.5,0.7-1.5,1.7c0,1,0.6,1.7,1.5,1.7
			C342.4,37.3,342.9,37,343.2,36.6z"/>
		<path class="st4" d="M345.4,35.7c0-1.5,1.1-2.7,2.6-2.7c1.6,0,2.6,1.2,2.6,2.8v0.3h-4c0.1,0.8,0.7,1.4,1.7,1.4
			c0.5,0,1.1-0.2,1.5-0.6l0.5,0.7c-0.5,0.5-1.3,0.8-2.1,0.8C346.6,38.4,345.4,37.4,345.4,35.7z M348.1,33.9c-1,0-1.4,0.7-1.5,1.4
			h2.9C349.5,34.7,349.1,33.9,348.1,33.9z"/>
	</g>
	<g>
		<path class="st4" d="M334.7,54.9c-1-1.2-1.6-3-1.6-4.8s0.6-3.5,1.6-4.8l0.7,0.5c-0.7,1.3-1.1,2.5-1.1,4.2s0.4,2.9,1.1,4.2
			L334.7,54.9z"/>
		<path class="st4" d="M342.6,52.7v-5.3l-2.2,5.3h-0.5l-2.2-5.3v5.3h-1.3v-7.2h1.8l2,4.7l2-4.7h1.8v7.2H342.6z"/>
		<path class="st4" d="M345.6,51.5v-3h-0.9v-1h0.9v-1.4h1.1v1.4h1.1v1h-1.1v2.7c0,0.4,0.2,0.6,0.5,0.6c0.2,0,0.4-0.1,0.5-0.2
			l0.3,0.9c-0.2,0.2-0.5,0.3-1.1,0.3C346.1,52.8,345.6,52.4,345.6,51.5z"/>
		<path class="st4" d="M348.3,54.3c0.7-1.3,1.1-2.5,1.1-4.2s-0.4-2.9-1.1-4.2l0.7-0.5c1,1.3,1.6,3,1.6,4.8s-0.6,3.5-1.6,4.8
			L348.3,54.3z"/>
	</g>
	<g>
		<path class="st4" d="M419.1,38.3v-1l3.7-5.1h-3.7v-1.1h5.3v1l-3.7,5.1h3.8v1.1H419.1z"/>
		<path class="st4" d="M429.3,38.3v-3.3c0-0.8-0.4-1.1-1-1.1c-0.6,0-1.1,0.3-1.3,0.7v3.6h-1.1v-5.2h1.1v0.7c0.3-0.4,1-0.8,1.8-0.8
			c1.1,0,1.7,0.6,1.7,1.7v3.7H429.3z"/>
	</g>
	<g>
		<path class="st4" d="M419.2,54.9c-1-1.2-1.6-3-1.6-4.8s0.6-3.5,1.6-4.8l0.7,0.5c-0.7,1.3-1.1,2.5-1.1,4.2s0.4,2.9,1.1,4.2
			L419.2,54.9z"/>
		<path class="st4" d="M420.4,47.2c0-1,0.7-1.8,1.8-1.8c1.1,0,1.8,0.8,1.8,1.8c0,1-0.7,1.8-1.8,1.8C421.1,49,420.4,48.2,420.4,47.2z
			 M423.1,47.2c0-0.6-0.4-1.1-1-1.1c-0.6,0-1,0.4-1,1.1c0,0.6,0.4,1.1,1,1.1C422.7,48.3,423.1,47.8,423.1,47.2z M421.5,52.7l4.6-7.2
			h0.7l-4.6,7.2H421.5z M424.3,51.1c0-1,0.7-1.8,1.8-1.8c1.1,0,1.8,0.8,1.8,1.8c0,1-0.7,1.8-1.8,1.8C425,52.8,424.3,52.1,424.3,51.1
			z M427,51.1c0-0.6-0.4-1.1-1-1.1c-0.6,0-1,0.4-1,1.1c0,0.6,0.4,1.1,1,1.1C426.6,52.1,427,51.7,427,51.1z"/>
		<path class="st4" d="M428.3,54.3c0.7-1.3,1.1-2.5,1.1-4.2s-0.4-2.9-1.1-4.2l0.7-0.5c1,1.3,1.6,3,1.6,4.8s-0.6,3.5-1.6,4.8
			L428.3,54.3z"/>
	</g>
	<g>
		<path class="st4" d="M499.1,38.3v-7.2h3.2c1.5,0,2.4,1,2.4,2.3s-0.9,2.3-2.4,2.3h-1.9v2.7H499.1z M503.3,33.4
			c0-0.7-0.5-1.1-1.2-1.1h-1.7v2.3h1.7C502.8,34.5,503.3,34.1,503.3,33.4z"/>
		<path class="st4" d="M505.6,38.3v-7.2h1.1v2.7c0.4-0.6,1-0.9,1.7-0.9c1.3,0,2.3,1.1,2.3,2.7c0,1.7-1,2.7-2.3,2.7
			c-0.7,0-1.3-0.3-1.7-0.8v0.7H505.6z M508.1,37.4c0.9,0,1.5-0.7,1.5-1.7S509,34,508.1,34c-0.5,0-1.1,0.3-1.3,0.7v2.1
			C507,37.1,507.6,37.4,508.1,37.4z"/>
	</g>
	<g>
		<path class="st4" d="M499.2,54.9c-1-1.2-1.6-3-1.6-4.8s0.6-3.5,1.6-4.8l0.7,0.5c-0.7,1.3-1.1,2.5-1.1,4.2s0.4,2.9,1.1,4.2
			L499.2,54.9z"/>
		<path class="st4" d="M500.4,47.2c0-1,0.7-1.8,1.8-1.8c1.1,0,1.8,0.8,1.8,1.8c0,1-0.7,1.8-1.8,1.8C501.2,49,500.4,48.2,500.4,47.2z
			 M503.2,47.2c0-0.6-0.4-1.1-1-1.1c-0.6,0-1,0.4-1,1.1c0,0.6,0.4,1.1,1,1.1C502.8,48.3,503.2,47.8,503.2,47.2z M501.5,52.7l4.6-7.2
			h0.7l-4.6,7.2H501.5z M504.3,51.1c0-1,0.7-1.8,1.8-1.8c1.1,0,1.8,0.8,1.8,1.8c0,1-0.7,1.8-1.8,1.8C505,52.8,504.3,52.1,504.3,51.1
			z M507.1,51.1c0-0.6-0.4-1.1-1-1.1c-0.6,0-1,0.4-1,1.1c0,0.6,0.4,1.1,1,1.1C506.7,52.1,507.1,51.7,507.1,51.1z"/>
		<path class="st4" d="M508.4,54.3c0.7-1.3,1.1-2.5,1.1-4.2s-0.4-2.9-1.1-4.2l0.7-0.5c1,1.3,1.6,3,1.6,4.8s-0.6,3.5-1.6,4.8
			L508.4,54.3z"/>
	</g>
	<g>
		<path class="st4" d="M583.5,38.3l-0.5-1.4h-3.3l-0.5,1.4h-1.4l2.8-7.2h1.6l2.8,7.2H583.5z M581.3,32.4l-1.3,3.4h2.6L581.3,32.4z"
			/>
		<path class="st4" d="M585.7,39.7l0.5-0.8c0.4,0.5,1,0.7,1.7,0.7c0.7,0,1.5-0.3,1.5-1.4v-0.6c-0.4,0.5-1,0.9-1.7,0.9
			c-1.3,0-2.3-1-2.3-2.7c0-1.7,1-2.7,2.3-2.7c0.7,0,1.3,0.3,1.7,0.9v-0.7h1.1V38c0,1.9-1.4,2.4-2.7,2.4
			C586.9,40.4,586.3,40.2,585.7,39.7z M589.4,36.6v-1.9c-0.2-0.4-0.8-0.7-1.3-0.7c-0.9,0-1.5,0.7-1.5,1.7c0,1,0.6,1.7,1.5,1.7
			C588.6,37.3,589.1,37,589.4,36.6z"/>
	</g>
	<g>
		<path class="st4" d="M579.3,54.9c-1-1.2-1.6-3-1.6-4.8s0.6-3.5,1.6-4.8l0.7,0.5c-0.7,1.3-1.1,2.5-1.1,4.2s0.4,2.9,1.1,4.2
			L579.3,54.9z"/>
		<path class="st4" d="M580.5,47.2c0-1,0.7-1.8,1.8-1.8c1.1,0,1.8,0.8,1.8,1.8c0,1-0.7,1.8-1.8,1.8C581.2,49,580.5,48.2,580.5,47.2z
			 M583.3,47.2c0-0.6-0.4-1.1-1-1.1c-0.6,0-1,0.4-1,1.1c0,0.6,0.4,1.1,1,1.1C582.9,48.3,583.3,47.8,583.3,47.2z M581.6,52.7l4.6-7.2
			h0.7l-4.6,7.2H581.6z M584.4,51.1c0-1,0.7-1.8,1.8-1.8c1.1,0,1.8,0.8,1.8,1.8c0,1-0.7,1.8-1.8,1.8
			C585.1,52.8,584.4,52.1,584.4,51.1z M587.1,51.1c0-0.6-0.4-1.1-1-1.1c-0.6,0-1,0.4-1,1.1c0,0.6,0.4,1.1,1,1.1
			C586.7,52.1,587.1,51.7,587.1,51.1z"/>
		<path class="st4" d="M588.4,54.3c0.7-1.3,1.1-2.5,1.1-4.2s-0.4-2.9-1.1-4.2l0.7-0.5c1,1.3,1.6,3,1.6,4.8s-0.6,3.5-1.6,4.8
			L588.4,54.3z"/>
	</g>
	<g>
		<path class="st4" d="M9,74.8L7.2,72H5.8v2.9H4.9v-7.2h2.9c1.3,0,2.3,0.8,2.3,2.2c0,1.3-0.9,2-1.9,2.1l1.9,2.9H9z M9.1,69.8
			c0-0.8-0.6-1.4-1.4-1.4H5.8v2.8h1.9C8.5,71.2,9.1,70.6,9.1,69.8z"/>
		<path class="st4" d="M10.8,72.2c0-1.5,1.1-2.7,2.6-2.7c1.6,0,2.5,1.2,2.5,2.8v0.2h-4.2c0.1,1,0.8,1.8,1.9,1.8
			c0.6,0,1.2-0.2,1.6-0.7l0.4,0.5C15,74.7,14.3,75,13.4,75C11.9,75,10.8,73.9,10.8,72.2z M13.3,70.2c-1.1,0-1.7,0.9-1.7,1.7H15
			C15,71.1,14.5,70.2,13.3,70.2z"/>
		<path class="st4" d="M16.7,74.2l0.4-0.6c0.3,0.4,1,0.7,1.7,0.7c0.8,0,1.2-0.4,1.2-0.9c0-1.3-3.2-0.5-3.2-2.4
			c0-0.8,0.7-1.5,1.9-1.5c0.9,0,1.5,0.3,1.9,0.8l-0.4,0.6c-0.3-0.4-0.9-0.7-1.6-0.7c-0.7,0-1.2,0.4-1.2,0.8c0,1.1,3.2,0.4,3.2,2.4
			c0,0.9-0.7,1.6-2.1,1.6C18,75,17.2,74.7,16.7,74.2z"/>
		<path class="st4" d="M21.9,72.2c0-1.5,1.1-2.7,2.6-2.7c1.6,0,2.5,1.2,2.5,2.8v0.2h-4.2c0.1,1,0.8,1.8,1.9,1.8
			c0.6,0,1.2-0.2,1.6-0.7l0.4,0.5c-0.5,0.5-1.2,0.8-2.1,0.8C23,75,21.9,73.9,21.9,72.2z M24.4,70.2c-1.1,0-1.7,0.9-1.7,1.7h3.4
			C26.1,71.1,25.6,70.2,24.4,70.2z"/>
		<path class="st4" d="M28.3,74.8v-5.2h0.8v0.8c0.4-0.6,1-1,1.7-1v0.8c-0.1,0-0.2,0-0.3,0c-0.5,0-1.2,0.4-1.4,0.8v3.7H28.3z"/>
		<path class="st4" d="M33.2,74.8L31,69.6h0.9l1.7,4.3l1.7-4.3h0.9l-2.2,5.2H33.2z"/>
		<path class="st4" d="M36.8,72.2c0-1.5,1.1-2.7,2.6-2.7c1.6,0,2.5,1.2,2.5,2.8v0.2h-4.2c0.1,1,0.8,1.8,1.9,1.8
			c0.6,0,1.2-0.2,1.6-0.7l0.4,0.5C41,74.7,40.3,75,39.5,75C37.9,75,36.8,73.9,36.8,72.2z M39.4,70.2c-1.1,0-1.7,0.9-1.7,1.7h3.4
			C41.1,71.1,40.6,70.2,39.4,70.2z"/>
	</g>
	<g>
		<path class="st4" d="M330.4,74.8v-6l-1.2,1.2l-0.5-0.6l1.8-1.9h0.8v7.2H330.4z"/>
		<path class="st4" d="M332.7,71.3c0-2,0.9-3.7,2.9-3.7c0.9,0,1.6,0.4,2,0.9l-0.5,0.7c-0.4-0.4-0.8-0.7-1.5-0.7c-1.4,0-2,1.4-2,2.8
			c0,0.1,0,0.2,0,0.3c0.3-0.5,1.1-1.1,2-1.1c1.3,0,2.4,0.8,2.4,2.3c0,1.3-1,2.4-2.5,2.4C333.5,75,332.7,73.2,332.7,71.3z
			 M337.1,72.7c0-1.1-0.7-1.6-1.7-1.6c-0.7,0-1.4,0.4-1.8,1.1c0.1,0.9,0.6,2,1.8,2C336.6,74.2,337.1,73.3,337.1,72.7z"/>
		<path class="st4" d="M340.5,74.8v-6l-1.2,1.2l-0.5-0.6l1.8-1.9h0.8v7.2H340.5z"/>
		<path class="st4" d="M342.9,74.4c0-0.3,0.3-0.6,0.6-0.6s0.6,0.3,0.6,0.6s-0.3,0.6-0.6,0.6S342.9,74.7,342.9,74.4z"/>
		<path class="st4" d="M345.3,74.8v-0.7c2.6-2,4-3.2,4-4.5c0-0.9-0.8-1.3-1.5-1.3c-0.9,0-1.5,0.4-2,0.9l-0.6-0.6
			c0.6-0.7,1.5-1.1,2.5-1.1c1.2,0,2.4,0.7,2.4,2.1c0,1.5-1.5,2.8-3.5,4.4h3.5v0.8H345.3z"/>
	</g>
	<g>
		<path class="st4" d="M416.6,73.8l0.6-0.6c0.5,0.6,1.1,1,2,1c1,0,1.7-0.7,1.7-1.5c0-1-0.7-1.6-1.7-1.6c-0.6,0-1.2,0.2-1.7,0.7
			l-0.7-0.2v-3.9h4.4v0.8h-3.5v2.5c0.3-0.3,1-0.6,1.7-0.6c1.2,0,2.3,0.8,2.3,2.3c0,1.5-1.1,2.4-2.6,2.4
			C417.9,75,417.1,74.5,416.6,73.8z"/>
		<path class="st4" d="M422.9,74.4c0-0.3,0.3-0.6,0.6-0.6s0.6,0.3,0.6,0.6s-0.3,0.6-0.6,0.6S422.9,74.7,422.9,74.4z"/>
		<path class="st4" d="M425.6,74.1l0.5-0.7c0.4,0.4,0.8,0.7,1.5,0.7c1.5,0,2-1.5,2-2.8c0-0.1,0-0.2,0-0.3c-0.3,0.5-1.1,1.1-2,1.1
			c-1.3,0-2.4-0.8-2.4-2.3c0-1.2,1-2.4,2.5-2.4c2,0,2.8,1.8,2.8,3.7c0,1.9-0.9,3.7-2.9,3.7C426.7,75,426.1,74.6,425.6,74.1z
			 M429.6,70.3c-0.1-0.9-0.6-2-1.8-2c-1.1,0-1.7,0.8-1.7,1.5c0,1.1,0.7,1.6,1.7,1.6C428.5,71.4,429.2,71,429.6,70.3z"/>
	</g>
	<g>
		<path class="st4" d="M500.6,74.8v-6l-1.2,1.2l-0.5-0.6l1.8-1.9h0.8v7.2H500.6z"/>
		<path class="st4" d="M503,74.4c0-0.3,0.3-0.6,0.6-0.6s0.6,0.3,0.6,0.6s-0.3,0.6-0.6,0.6S503,74.7,503,74.4z"/>
		<path class="st4" d="M505.5,73.8l0.6-0.6c0.5,0.6,1.1,1,2,1c1,0,1.7-0.7,1.7-1.5c0-1-0.7-1.6-1.7-1.6c-0.6,0-1.2,0.2-1.7,0.7
			l-0.7-0.2v-3.9h4.4v0.8h-3.5v2.5c0.3-0.3,1-0.6,1.7-0.6c1.2,0,2.3,0.8,2.3,2.3c0,1.5-1.1,2.4-2.6,2.4
			C506.8,75,506.1,74.5,505.5,73.8z"/>
	</g>
	<g>
		<path class="st4" d="M570.2,73.8l0.6-0.6c0.5,0.6,1.1,1,2,1c1,0,1.7-0.7,1.7-1.5c0-1-0.7-1.6-1.7-1.6c-0.6,0-1.2,0.2-1.7,0.7
			l-0.7-0.2v-3.9h4.4v0.8h-3.5v2.5c0.3-0.3,1-0.6,1.7-0.6c1.2,0,2.3,0.8,2.3,2.3c0,1.5-1.1,2.4-2.6,2.4
			C571.5,75,570.8,74.5,570.2,73.8z"/>
		<path class="st4" d="M576.4,73c0-1,0.8-1.6,1.7-1.9c-0.8-0.2-1.6-0.8-1.6-1.7c0-1.3,1.3-1.9,2.5-1.9c1.2,0,2.5,0.6,2.5,1.9
			c0,1-0.8,1.5-1.6,1.7c0.9,0.3,1.7,0.9,1.7,1.9c0,1.2-1.2,2-2.6,2C577.6,75,576.4,74.3,576.4,73z M580.7,72.9
			c0-0.9-1.2-1.3-1.7-1.4c-0.4,0.1-1.7,0.5-1.7,1.4c0,0.8,0.8,1.3,1.7,1.3C579.9,74.2,580.7,73.7,580.7,72.9z M580.6,69.5
			c0-0.7-0.7-1.2-1.6-1.2c-0.9,0-1.6,0.4-1.6,1.2c0,0.9,1.1,1.2,1.6,1.2C579.5,70.7,580.6,70.4,580.6,69.5z"/>
		<path class="st4" d="M582.8,74.4c0-0.3,0.3-0.6,0.6-0.6s0.6,0.3,0.6,0.6s-0.3,0.6-0.6,0.6S582.8,74.7,582.8,74.4z"/>
		<path class="st4" d="M585.2,71.2c0-1.8,0.8-3.7,2.8-3.7c2,0,2.8,2,2.8,3.7c0,1.8-0.8,3.7-2.8,3.7C586,75,585.2,73,585.2,71.2z
			 M589.8,71.2c0-1.4-0.5-2.9-1.8-2.9s-1.8,1.5-1.8,2.9c0,1.4,0.5,2.9,1.8,2.9S589.8,72.7,589.8,71.2z"/>
	</g>
	<g>
		<path class="st4" d="M11,97v-5.9L8.5,97H8.2l-2.4-5.9V97H4.8v-7.2h1.3l2.2,5.4l2.2-5.4h1.3V97H11z"/>
		<path class="st4" d="M13.4,90.5c0-0.3,0.2-0.6,0.5-0.6c0.3,0,0.6,0.2,0.6,0.6c0,0.3-0.2,0.5-0.6,0.5C13.7,91,13.4,90.8,13.4,90.5z
			 M13.5,97v-5.2h0.8V97H13.5z"/>
		<path class="st4" d="M19.5,97v-3.4c0-0.9-0.5-1.2-1.2-1.2c-0.6,0-1.2,0.4-1.5,0.8V97H16v-5.2h0.8v0.8c0.4-0.4,1.1-0.9,1.9-0.9
			c1.1,0,1.7,0.6,1.7,1.7V97H19.5z"/>
		<path class="st4" d="M21.6,94.4c0-1.5,1.1-2.7,2.6-2.7c1.6,0,2.5,1.2,2.5,2.8v0.2h-4.2c0.1,1,0.8,1.8,1.9,1.8
			c0.6,0,1.2-0.2,1.6-0.7l0.4,0.5c-0.5,0.5-1.2,0.8-2.1,0.8C22.7,97.1,21.6,96,21.6,94.4z M24.2,92.3c-1.1,0-1.7,0.9-1.7,1.7h3.4
			C25.9,93.3,25.4,92.3,24.2,92.3z"/>
		<path class="st4" d="M28,97v-5.2h0.8v0.8c0.4-0.6,1-1,1.7-1v0.8c-0.1,0-0.2,0-0.3,0c-0.5,0-1.2,0.4-1.4,0.8V97H28z"/>
		<path class="st4" d="M34.8,97v-0.6c-0.4,0.5-1,0.7-1.7,0.7c-0.9,0-1.8-0.6-1.8-1.7c0-1.2,0.9-1.7,1.8-1.7c0.7,0,1.3,0.2,1.7,0.7
			v-0.9c0-0.7-0.6-1.1-1.3-1.1c-0.6,0-1.1,0.2-1.6,0.7l-0.4-0.6c0.6-0.6,1.2-0.9,2.1-0.9c1.1,0,2,0.5,2,1.8V97H34.8z M34.8,95.9v-1
			c-0.3-0.4-0.9-0.6-1.4-0.6c-0.8,0-1.3,0.5-1.3,1.1c0,0.7,0.5,1.1,1.3,1.1C34,96.5,34.5,96.3,34.8,95.9z"/>
		<path class="st4" d="M37.3,97v-7.2h0.8V97H37.3z"/>
		<path class="st4" d="M46.7,97l-1.8-2.9h-1.4V97h-0.9v-7.2h2.9c1.3,0,2.3,0.8,2.3,2.2c0,1.3-0.9,2-1.9,2.1l1.9,2.9H46.7z
			 M46.7,91.9c0-0.8-0.6-1.4-1.4-1.4h-1.9v2.8h1.9C46.1,93.3,46.7,92.8,46.7,91.9z"/>
		<path class="st4" d="M48.4,94.4c0-1.5,1.1-2.7,2.6-2.7c1.6,0,2.5,1.2,2.5,2.8v0.2h-4.2c0.1,1,0.8,1.8,1.9,1.8
			c0.6,0,1.2-0.2,1.6-0.7l0.4,0.5c-0.5,0.5-1.2,0.8-2.1,0.8C49.5,97.1,48.4,96,48.4,94.4z M51,92.3c-1.1,0-1.7,0.9-1.7,1.7h3.4
			C52.7,93.3,52.2,92.3,51,92.3z"/>
		<path class="st4" d="M54.3,96.3l0.4-0.6c0.3,0.4,1,0.7,1.7,0.7c0.8,0,1.2-0.4,1.2-0.9c0-1.3-3.2-0.5-3.2-2.4
			c0-0.8,0.7-1.5,1.9-1.5c0.9,0,1.5,0.3,1.9,0.8L58,93c-0.3-0.4-0.9-0.7-1.6-0.7c-0.7,0-1.2,0.4-1.2,0.8c0,1.1,3.2,0.4,3.2,2.4
			c0,0.9-0.7,1.6-2.1,1.6C55.6,97.1,54.9,96.9,54.3,96.3z"/>
		<path class="st4" d="M59.5,94.4c0-1.5,1-2.7,2.6-2.7c1.6,0,2.6,1.2,2.6,2.7s-1,2.7-2.6,2.7C60.5,97.1,59.5,95.9,59.5,94.4z
			 M63.8,94.4c0-1.1-0.6-2-1.7-2s-1.7,1-1.7,2c0,1.1,0.6,2,1.7,2S63.8,95.4,63.8,94.4z"/>
		<path class="st4" d="M69.5,97v-0.7c-0.4,0.5-1.1,0.9-1.9,0.9c-1.1,0-1.7-0.5-1.7-1.7v-3.7h0.8v3.4c0,0.9,0.5,1.2,1.2,1.2
			c0.6,0,1.2-0.4,1.5-0.8v-3.8h0.8V97H69.5z"/>
		<path class="st4" d="M71.9,97v-5.2h0.8v0.8c0.4-0.6,1-1,1.7-1v0.8c-0.1,0-0.2,0-0.3,0c-0.5,0-1.2,0.4-1.4,0.8V97H71.9z"/>
		<path class="st4" d="M75.2,94.4c0-1.5,1-2.7,2.6-2.7c1,0,1.5,0.4,1.9,0.9L79.2,93c-0.3-0.5-0.8-0.7-1.3-0.7c-1.1,0-1.8,0.9-1.8,2
			s0.7,2,1.8,2c0.5,0,1-0.2,1.3-0.7l0.5,0.5c-0.4,0.5-1,0.9-1.9,0.9C76.2,97.1,75.2,95.9,75.2,94.4z"/>
		<path class="st4" d="M80.5,94.4c0-1.5,1.1-2.7,2.6-2.7c1.6,0,2.5,1.2,2.5,2.8v0.2h-4.2c0.1,1,0.8,1.8,1.9,1.8
			c0.6,0,1.2-0.2,1.6-0.7l0.4,0.5c-0.5,0.5-1.2,0.8-2.1,0.8C81.7,97.1,80.5,96,80.5,94.4z M83.1,92.3c-1.1,0-1.7,0.9-1.7,1.7h3.4
			C84.8,93.3,84.3,92.3,83.1,92.3z"/>
		<path class="st4" d="M89.2,94.7V94H95v0.7H89.2z"/>
		<path class="st4" d="M105.1,97v-5.9l-2.5,5.9h-0.4l-2.4-5.9V97h-0.9v-7.2h1.3l2.2,5.4l2.2-5.4h1.3V97H105.1z"/>
		<path class="st4" d="M107.3,94.4c0-1.5,1.1-2.7,2.6-2.7c1.6,0,2.5,1.2,2.5,2.8v0.2h-4.2c0.1,1,0.8,1.8,1.9,1.8
			c0.6,0,1.2-0.2,1.6-0.7l0.4,0.5c-0.5,0.5-1.2,0.8-2.1,0.8C108.4,97.1,107.3,96,107.3,94.4z M109.9,92.3c-1.1,0-1.7,0.9-1.7,1.7
			h3.4C111.6,93.3,111.1,92.3,109.9,92.3z"/>
		<path class="st4" d="M117,97v-0.6c-0.4,0.5-1,0.7-1.7,0.7c-0.9,0-1.8-0.6-1.8-1.7c0-1.2,0.9-1.7,1.8-1.7c0.7,0,1.3,0.2,1.7,0.7
			v-0.9c0-0.7-0.6-1.1-1.3-1.1c-0.6,0-1.1,0.2-1.6,0.7l-0.4-0.6c0.6-0.6,1.2-0.9,2.1-0.9c1.1,0,2,0.5,2,1.8V97H117z M117,95.9v-1
			c-0.3-0.4-0.9-0.6-1.4-0.6c-0.8,0-1.3,0.5-1.3,1.1c0,0.7,0.5,1.1,1.3,1.1C116.1,96.5,116.7,96.3,117,95.9z"/>
		<path class="st4" d="M118.9,96.3l0.4-0.6c0.3,0.4,1,0.7,1.7,0.7c0.8,0,1.2-0.4,1.2-0.9c0-1.3-3.2-0.5-3.2-2.4
			c0-0.8,0.7-1.5,1.9-1.5c0.9,0,1.5,0.3,1.9,0.8l-0.4,0.6c-0.3-0.4-0.9-0.7-1.6-0.7c-0.7,0-1.2,0.4-1.2,0.8c0,1.1,3.2,0.4,3.2,2.4
			c0,0.9-0.7,1.6-2.1,1.6C120.2,97.1,119.5,96.9,118.9,96.3z"/>
		<path class="st4" d="M127.9,97v-0.7c-0.4,0.5-1.1,0.9-1.9,0.9c-1.1,0-1.7-0.5-1.7-1.7v-3.7h0.8v3.4c0,0.9,0.5,1.2,1.2,1.2
			c0.6,0,1.2-0.4,1.5-0.8v-3.8h0.8V97H127.9z"/>
		<path class="st4" d="M130.4,97v-5.2h0.8v0.8c0.4-0.6,1-1,1.7-1v0.8c-0.1,0-0.2,0-0.3,0c-0.5,0-1.2,0.4-1.4,0.8V97H130.4z"/>
		<path class="st4" d="M133.6,94.4c0-1.5,1.1-2.7,2.6-2.7c1.6,0,2.5,1.2,2.5,2.8v0.2h-4.2c0.1,1,0.8,1.8,1.9,1.8
			c0.6,0,1.2-0.2,1.6-0.7l0.4,0.5c-0.5,0.5-1.2,0.8-2.1,0.8C134.7,97.1,133.6,96,133.6,94.4z M136.2,92.3c-1.1,0-1.7,0.9-1.7,1.7
			h3.4C137.9,93.3,137.4,92.3,136.2,92.3z"/>
		<path class="st4" d="M143.8,97v-0.8c-0.4,0.5-1,0.9-1.8,0.9c-1.4,0-2.3-1-2.3-2.7c0-1.7,1-2.7,2.3-2.7c0.7,0,1.3,0.3,1.8,0.9v-2.8
			h0.8V97H143.8z M143.8,95.6v-2.4c-0.3-0.5-0.9-0.8-1.6-0.8c-1,0-1.7,0.9-1.7,2s0.6,2,1.7,2C142.9,96.4,143.5,96,143.8,95.6z"/>
		<path class="st4" d="M152.3,97v-0.6c-0.4,0.5-1,0.7-1.7,0.7c-0.9,0-1.8-0.6-1.8-1.7c0-1.2,0.9-1.7,1.8-1.7c0.7,0,1.3,0.2,1.7,0.7
			v-0.9c0-0.7-0.6-1.1-1.3-1.1c-0.6,0-1.1,0.2-1.6,0.7l-0.4-0.6c0.6-0.6,1.2-0.9,2.1-0.9c1.1,0,2,0.5,2,1.8V97H152.3z M152.3,95.9
			v-1c-0.3-0.4-0.9-0.6-1.4-0.6c-0.8,0-1.3,0.5-1.3,1.1c0,0.7,0.5,1.1,1.3,1.1C151.4,96.5,152,96.3,152.3,95.9z"/>
		<path class="st4" d="M158.2,97v-3.4c0-0.9-0.5-1.2-1.2-1.2c-0.6,0-1.2,0.4-1.5,0.8V97h-0.8v-5.2h0.8v0.8c0.4-0.4,1.1-0.9,1.9-0.9
			c1.1,0,1.7,0.6,1.7,1.7V97H158.2z"/>
		<path class="st4" d="M164.4,97v-0.8c-0.4,0.5-1,0.9-1.8,0.9c-1.4,0-2.3-1-2.3-2.7c0-1.7,1-2.7,2.3-2.7c0.7,0,1.3,0.3,1.8,0.9v-2.8
			h0.8V97H164.4z M164.4,95.6v-2.4c-0.3-0.5-0.9-0.8-1.6-0.8c-1,0-1.7,0.9-1.7,2s0.6,2,1.7,2C163.5,96.4,164.1,96,164.4,95.6z"/>
		<path class="st4" d="M169.7,97v-7.2h0.9V97H169.7z"/>
		<path class="st4" d="M175.7,97v-3.4c0-0.9-0.5-1.2-1.2-1.2c-0.6,0-1.2,0.4-1.5,0.8V97h-0.8v-5.2h0.8v0.8c0.4-0.4,1.1-0.9,1.9-0.9
			c1.1,0,1.7,0.6,1.7,1.7V97H175.7z"/>
		<path class="st4" d="M182,97v-0.8c-0.4,0.5-1,0.9-1.8,0.9c-1.4,0-2.3-1-2.3-2.7c0-1.7,1-2.7,2.3-2.7c0.7,0,1.3,0.3,1.8,0.9v-2.8
			h0.8V97H182z M182,95.6v-2.4c-0.3-0.5-0.9-0.8-1.6-0.8c-1,0-1.7,0.9-1.7,2s0.6,2,1.7,2C181,96.4,181.7,96,182,95.6z"/>
		<path class="st4" d="M184.2,90.5c0-0.3,0.2-0.6,0.5-0.6c0.3,0,0.6,0.2,0.6,0.6c0,0.3-0.2,0.5-0.6,0.5
			C184.5,91,184.2,90.8,184.2,90.5z M184.4,97v-5.2h0.8V97H184.4z"/>
		<path class="st4" d="M186.5,94.4c0-1.5,1-2.7,2.6-2.7c1,0,1.5,0.4,1.9,0.9l-0.5,0.5c-0.3-0.5-0.8-0.7-1.3-0.7
			c-1.1,0-1.8,0.9-1.8,2s0.7,2,1.8,2c0.5,0,1-0.2,1.3-0.7l0.5,0.5c-0.4,0.5-1,0.9-1.9,0.9C187.6,97.1,186.5,95.9,186.5,94.4z"/>
		<path class="st4" d="M195.4,97v-0.6c-0.4,0.5-1,0.7-1.7,0.7c-0.9,0-1.8-0.6-1.8-1.7c0-1.2,0.9-1.7,1.8-1.7c0.7,0,1.3,0.2,1.7,0.7
			v-0.9c0-0.7-0.6-1.1-1.3-1.1c-0.6,0-1.1,0.2-1.6,0.7l-0.4-0.6c0.6-0.6,1.2-0.9,2.1-0.9c1.1,0,2,0.5,2,1.8V97H195.4z M195.4,95.9
			v-1c-0.3-0.4-0.9-0.6-1.4-0.6c-0.8,0-1.3,0.5-1.3,1.1c0,0.7,0.5,1.1,1.3,1.1C194.6,96.5,195.1,96.3,195.4,95.9z"/>
		<path class="st4" d="M198,95.9v-3.4h-0.9v-0.7h0.9v-1.4h0.8v1.4h1.1v0.7h-1.1v3.2c0,0.4,0.2,0.7,0.5,0.7c0.2,0,0.4-0.1,0.6-0.2
			l0.2,0.6c-0.2,0.2-0.5,0.3-1,0.3C198.4,97.1,198,96.7,198,95.9z"/>
		<path class="st4" d="M200.7,94.4c0-1.5,1.1-2.7,2.6-2.7c1.6,0,2.5,1.2,2.5,2.8v0.2h-4.2c0.1,1,0.8,1.8,1.9,1.8
			c0.6,0,1.2-0.2,1.6-0.7l0.4,0.5c-0.5,0.5-1.2,0.8-2.1,0.8C201.8,97.1,200.7,96,200.7,94.4z M203.3,92.3c-1.1,0-1.7,0.9-1.7,1.7
			h3.4C205,93.3,204.5,92.3,203.3,92.3z"/>
		<path class="st4" d="M210.9,97v-0.8c-0.4,0.5-1,0.9-1.8,0.9c-1.4,0-2.3-1-2.3-2.7c0-1.7,1-2.7,2.3-2.7c0.7,0,1.3,0.3,1.8,0.9v-2.8
			h0.8V97H210.9z M210.9,95.6v-2.4c-0.3-0.5-0.9-0.8-1.6-0.8c-1,0-1.7,0.9-1.7,2s0.6,2,1.7,2C210,96.4,210.6,96,210.9,95.6z"/>
	</g>
	<g>
		<path class="st4" d="M330.6,97v-6l-1.2,1.2l-0.5-0.6l1.8-1.9h0.8V97H330.6z"/>
		<path class="st4" d="M334.3,97v-6l-1.2,1.2l-0.5-0.6l1.8-1.9h0.8V97H334.3z"/>
		<path class="st4" d="M336.6,95.2c0-1,0.8-1.6,1.7-1.9c-0.8-0.2-1.6-0.8-1.6-1.7c0-1.3,1.3-1.9,2.5-1.9c1.2,0,2.5,0.6,2.5,1.9
			c0,1-0.8,1.5-1.6,1.7c0.9,0.3,1.7,0.9,1.7,1.9c0,1.2-1.2,2-2.6,2C337.7,97.1,336.6,96.4,336.6,95.2z M340.8,95.1
			c0-0.9-1.2-1.3-1.7-1.4c-0.4,0.1-1.7,0.5-1.7,1.4c0,0.8,0.8,1.3,1.7,1.3C340,96.3,340.8,95.8,340.8,95.1z M340.7,91.7
			c0-0.7-0.7-1.2-1.6-1.2c-0.9,0-1.6,0.4-1.6,1.2c0,0.9,1.1,1.2,1.6,1.2C339.6,92.8,340.7,92.5,340.7,91.7z"/>
		<path class="st4" d="M342.9,96.5c0-0.3,0.3-0.6,0.6-0.6s0.6,0.3,0.6,0.6s-0.3,0.6-0.6,0.6S342.9,96.8,342.9,96.5z"/>
		<path class="st4" d="M345.3,95.2c0-1,0.8-1.6,1.7-1.9c-0.8-0.2-1.6-0.8-1.6-1.7c0-1.3,1.3-1.9,2.5-1.9c1.2,0,2.5,0.6,2.5,1.9
			c0,1-0.8,1.5-1.6,1.7c0.9,0.3,1.7,0.9,1.7,1.9c0,1.2-1.2,2-2.6,2C346.5,97.1,345.3,96.4,345.3,95.2z M349.6,95.1
			c0-0.9-1.2-1.3-1.7-1.4c-0.4,0.1-1.7,0.5-1.7,1.4c0,0.8,0.8,1.3,1.7,1.3C348.8,96.3,349.6,95.8,349.6,95.1z M349.5,91.7
			c0-0.7-0.7-1.2-1.6-1.2c-0.9,0-1.6,0.4-1.6,1.2c0,0.9,1.1,1.2,1.6,1.2C348.3,92.8,349.5,92.5,349.5,91.7z"/>
	</g>
	<g>
		<path class="st4" d="M420,97v-1.8h-3.4v-0.7l3.1-4.6h1.2v4.6h1v0.8h-1V97H420z M420,90.6l-2.5,3.8h2.5V90.6z"/>
		<path class="st4" d="M422.9,96.5c0-0.3,0.3-0.6,0.6-0.6s0.6,0.3,0.6,0.6s-0.3,0.6-0.6,0.6S422.9,96.8,422.9,96.5z"/>
		<path class="st4" d="M425.6,96.2l0.5-0.7c0.4,0.4,0.8,0.7,1.5,0.7c1.5,0,2-1.5,2-2.8c0-0.1,0-0.2,0-0.3c-0.3,0.5-1.1,1.1-2,1.1
			c-1.3,0-2.4-0.8-2.4-2.3c0-1.2,1-2.4,2.5-2.4c2,0,2.8,1.8,2.8,3.7c0,1.9-0.9,3.7-2.9,3.7C426.7,97.1,426.1,96.8,425.6,96.2z
			 M429.6,92.5c-0.1-0.9-0.6-2-1.8-2c-1.1,0-1.7,0.8-1.7,1.5c0,1.1,0.7,1.6,1.7,1.6C428.5,93.5,429.2,93.1,429.6,92.5z"/>
	</g>
	<g>
		<path class="st4" d="M500.6,97v-6l-1.2,1.2l-0.5-0.6l1.8-1.9h0.8V97H500.6z"/>
		<path class="st4" d="M502.9,96.5c0-0.3,0.3-0.6,0.6-0.6s0.6,0.3,0.6,0.6s-0.3,0.6-0.6,0.6S502.9,96.8,502.9,96.5z"/>
		<path class="st4" d="M505.7,96.2l0.5-0.7c0.4,0.4,0.8,0.7,1.5,0.7c1.5,0,2-1.5,2-2.8c0-0.1,0-0.2,0-0.3c-0.3,0.5-1.1,1.1-2,1.1
			c-1.3,0-2.4-0.8-2.4-2.3c0-1.2,1-2.4,2.5-2.4c2,0,2.8,1.8,2.8,3.7c0,1.9-0.9,3.7-2.9,3.7C506.8,97.1,506.1,96.8,505.7,96.2z
			 M509.7,92.5c-0.1-0.9-0.6-2-1.8-2c-1.1,0-1.7,0.8-1.7,1.5c0,1.1,0.7,1.6,1.7,1.6C508.6,93.5,509.3,93.1,509.7,92.5z"/>
	</g>
	<g>
		<path class="st4" d="M569.9,93.4c0-2,0.9-3.7,2.9-3.7c0.9,0,1.6,0.4,2,0.9l-0.5,0.7c-0.4-0.4-0.8-0.7-1.5-0.7c-1.4,0-2,1.4-2,2.8
			c0,0.1,0,0.2,0,0.3c0.3-0.5,1.1-1.1,2-1.1c1.3,0,2.4,0.8,2.4,2.3c0,1.3-1,2.4-2.5,2.4C570.7,97.1,569.9,95.3,569.9,93.4z
			 M574.3,94.8c0-1.1-0.7-1.6-1.7-1.6c-0.7,0-1.4,0.4-1.8,1.1c0.1,0.9,0.6,2,1.8,2C573.8,96.3,574.3,95.5,574.3,94.8z"/>
		<path class="st4" d="M576.3,93.4c0-2,0.9-3.7,2.9-3.7c0.9,0,1.6,0.4,2,0.9l-0.5,0.7c-0.4-0.4-0.8-0.7-1.5-0.7c-1.4,0-2,1.4-2,2.8
			c0,0.1,0,0.2,0,0.3c0.3-0.5,1.1-1.1,2-1.1c1.3,0,2.4,0.8,2.4,2.3c0,1.3-1,2.4-2.5,2.4C577.1,97.1,576.3,95.3,576.3,93.4z
			 M580.7,94.8c0-1.1-0.7-1.6-1.7-1.6c-0.7,0-1.4,0.4-1.8,1.1c0.1,0.9,0.6,2,1.8,2C580.2,96.3,580.7,95.5,580.7,94.8z"/>
		<path class="st4" d="M582.8,96.5c0-0.3,0.3-0.6,0.6-0.6s0.6,0.3,0.6,0.6s-0.3,0.6-0.6,0.6S582.8,96.8,582.8,96.5z"/>
		<path class="st4" d="M585.2,93.4c0-1.8,0.8-3.7,2.8-3.7c2,0,2.8,2,2.8,3.7c0,1.8-0.8,3.7-2.8,3.7
			C585.9,97.1,585.2,95.1,585.2,93.4z M589.8,93.4c0-1.4-0.5-2.9-1.8-2.9s-1.8,1.5-1.8,2.9s0.5,2.9,1.8,2.9S589.8,94.8,589.8,93.4z"
			/>
	</g>
	<g>
		<path class="st4" d="M11,119.1v-5.9l-2.5,5.9H8.2l-2.4-5.9v5.9H4.8v-7.2h1.3l2.2,5.4l2.2-5.4h1.3v7.2H11z"/>
		<path class="st4" d="M13.4,112.6c0-0.3,0.2-0.6,0.5-0.6c0.3,0,0.6,0.2,0.6,0.6c0,0.3-0.2,0.5-0.6,0.5
			C13.6,113.1,13.4,112.9,13.4,112.6z M13.5,119.1v-5.2h0.8v5.2H13.5z"/>
		<path class="st4" d="M19.5,119.1v-3.4c0-0.9-0.5-1.2-1.2-1.2c-0.6,0-1.2,0.4-1.5,0.8v3.8H16v-5.2h0.8v0.8c0.4-0.4,1.1-0.9,1.9-0.9
			c1.1,0,1.7,0.6,1.7,1.7v3.7H19.5z"/>
		<path class="st4" d="M21.6,116.5c0-1.5,1.1-2.7,2.6-2.7c1.6,0,2.5,1.2,2.5,2.8v0.2h-4.2c0.1,1,0.8,1.8,1.9,1.8
			c0.6,0,1.2-0.2,1.6-0.7l0.4,0.5c-0.5,0.5-1.2,0.8-2.1,0.8C22.7,119.2,21.6,118.1,21.6,116.5z M24.2,114.4c-1.1,0-1.7,0.9-1.7,1.7
			h3.4C25.9,115.4,25.4,114.4,24.2,114.4z"/>
		<path class="st4" d="M28,119.1v-5.2h0.8v0.8c0.4-0.6,1-1,1.7-1v0.8c-0.1,0-0.2,0-0.3,0c-0.5,0-1.2,0.4-1.4,0.8v3.7H28z"/>
		<path class="st4" d="M34.8,119.1v-0.6c-0.4,0.5-1,0.7-1.7,0.7c-0.9,0-1.8-0.6-1.8-1.7c0-1.2,0.9-1.7,1.8-1.7
			c0.7,0,1.3,0.2,1.7,0.7v-0.9c0-0.7-0.6-1.1-1.3-1.1c-0.6,0-1.1,0.2-1.6,0.7l-0.4-0.6c0.6-0.6,1.2-0.9,2.1-0.9c1.1,0,2,0.5,2,1.8
			v3.6H34.8z M34.8,118v-1c-0.3-0.4-0.9-0.6-1.4-0.6c-0.8,0-1.3,0.5-1.3,1.1c0,0.7,0.5,1.1,1.3,1.1C34,118.7,34.5,118.4,34.8,118z"
			/>
		<path class="st4" d="M37.2,119.1v-7.2h0.8v7.2H37.2z"/>
		<path class="st4" d="M46.7,119.1l-1.8-2.9h-1.4v2.9h-0.9v-7.2h2.9c1.3,0,2.3,0.8,2.3,2.2c0,1.3-0.9,2-1.9,2.1l1.9,2.9H46.7z
			 M46.7,114.1c0-0.8-0.6-1.4-1.4-1.4h-1.9v2.8h1.9C46.1,115.5,46.7,114.9,46.7,114.1z"/>
		<path class="st4" d="M48.4,116.5c0-1.5,1.1-2.7,2.6-2.7c1.6,0,2.5,1.2,2.5,2.8v0.2h-4.2c0.1,1,0.8,1.8,1.9,1.8
			c0.6,0,1.2-0.2,1.6-0.7l0.4,0.5c-0.5,0.5-1.2,0.8-2.1,0.8C49.5,119.2,48.4,118.1,48.4,116.5z M51,114.4c-1.1,0-1.7,0.9-1.7,1.7
			h3.4C52.7,115.4,52.1,114.4,51,114.4z"/>
		<path class="st4" d="M54.3,118.4l0.4-0.6c0.3,0.4,1,0.7,1.7,0.7c0.8,0,1.2-0.4,1.2-0.9c0-1.3-3.2-0.5-3.2-2.4
			c0-0.8,0.7-1.5,1.9-1.5c0.9,0,1.5,0.3,1.9,0.8l-0.4,0.6c-0.3-0.4-0.9-0.7-1.6-0.7c-0.7,0-1.2,0.4-1.2,0.8c0,1.1,3.2,0.4,3.2,2.4
			c0,0.9-0.7,1.6-2.1,1.6C55.6,119.2,54.9,119,54.3,118.4z"/>
		<path class="st4" d="M59.5,116.5c0-1.5,1-2.7,2.6-2.7c1.6,0,2.6,1.2,2.6,2.7s-1,2.7-2.6,2.7C60.5,119.2,59.5,118,59.5,116.5z
			 M63.8,116.5c0-1.1-0.6-2-1.7-2s-1.7,1-1.7,2c0,1.1,0.6,2,1.7,2S63.8,117.6,63.8,116.5z"/>
		<path class="st4" d="M69.5,119.1v-0.7c-0.4,0.5-1.1,0.9-1.9,0.9c-1.1,0-1.7-0.5-1.7-1.7v-3.7h0.8v3.4c0,0.9,0.5,1.2,1.2,1.2
			c0.6,0,1.2-0.4,1.5-0.8v-3.8h0.8v5.2H69.5z"/>
		<path class="st4" d="M71.9,119.1v-5.2h0.8v0.8c0.4-0.6,1-1,1.7-1v0.8c-0.1,0-0.2,0-0.3,0c-0.5,0-1.2,0.4-1.4,0.8v3.7H71.9z"/>
		<path class="st4" d="M75.2,116.5c0-1.5,1-2.7,2.6-2.7c1,0,1.5,0.4,1.9,0.9l-0.5,0.5c-0.3-0.5-0.8-0.7-1.3-0.7
			c-1.1,0-1.8,0.9-1.8,2s0.7,2,1.8,2c0.5,0,1-0.2,1.3-0.7l0.5,0.5c-0.4,0.5-1,0.9-1.9,0.9C76.2,119.2,75.2,118.1,75.2,116.5z"/>
		<path class="st4" d="M80.5,116.5c0-1.5,1.1-2.7,2.6-2.7c1.6,0,2.5,1.2,2.5,2.8v0.2h-4.2c0.1,1,0.8,1.8,1.9,1.8
			c0.6,0,1.2-0.2,1.6-0.7l0.4,0.5c-0.5,0.5-1.2,0.8-2.1,0.8C81.6,119.2,80.5,118.1,80.5,116.5z M83.1,114.4c-1.1,0-1.7,0.9-1.7,1.7
			h3.4C84.8,115.4,84.3,114.4,83.1,114.4z"/>
		<path class="st4" d="M89.2,116.9v-0.7H95v0.7H89.2z"/>
		<path class="st4" d="M98.9,119.1v-7.2h0.9v7.2H98.9z"/>
		<path class="st4" d="M105,119.1v-3.4c0-0.9-0.5-1.2-1.2-1.2c-0.6,0-1.2,0.4-1.5,0.8v3.8h-0.8v-5.2h0.8v0.8
			c0.4-0.4,1.1-0.9,1.9-0.9c1.1,0,1.7,0.6,1.7,1.7v3.7H105z"/>
		<path class="st4" d="M107.6,119.1v-4.5h-0.9v-0.7h0.9v-0.4c0-1.1,0.6-1.7,1.5-1.7c0.4,0,0.8,0.1,1.1,0.4l-0.3,0.5
			c-0.2-0.2-0.4-0.3-0.6-0.3c-0.5,0-0.8,0.4-0.8,1v0.4h1.1v0.7h-1.1v4.5H107.6z"/>
		<path class="st4" d="M110.2,116.5c0-1.5,1.1-2.7,2.6-2.7c1.6,0,2.5,1.2,2.5,2.8v0.2H111c0.1,1,0.8,1.8,1.9,1.8
			c0.6,0,1.2-0.2,1.6-0.7l0.4,0.5c-0.5,0.5-1.2,0.8-2.1,0.8C111.3,119.2,110.2,118.1,110.2,116.5z M112.7,114.4
			c-1.1,0-1.7,0.9-1.7,1.7h3.4C114.4,115.4,113.9,114.4,112.7,114.4z"/>
		<path class="st4" d="M116.6,119.1v-5.2h0.8v0.8c0.4-0.6,1-1,1.7-1v0.8c-0.1,0-0.2,0-0.3,0c-0.5,0-1.2,0.4-1.4,0.8v3.7H116.6z"/>
		<path class="st4" d="M120.1,119.1v-5.2h0.8v0.8c0.4-0.6,1-1,1.7-1v0.8c-0.1,0-0.2,0-0.3,0c-0.5,0-1.2,0.4-1.4,0.8v3.7H120.1z"/>
		<path class="st4" d="M123.4,116.5c0-1.5,1.1-2.7,2.6-2.7c1.6,0,2.5,1.2,2.5,2.8v0.2h-4.2c0.1,1,0.8,1.8,1.9,1.8
			c0.6,0,1.2-0.2,1.6-0.7l0.4,0.5c-0.5,0.5-1.2,0.8-2.1,0.8C124.5,119.2,123.4,118.1,123.4,116.5z M125.9,114.4
			c-1.1,0-1.7,0.9-1.7,1.7h3.4C127.6,115.4,127.1,114.4,125.9,114.4z"/>
		<path class="st4" d="M133.5,119.1v-0.8c-0.4,0.5-1,0.9-1.8,0.9c-1.4,0-2.3-1-2.3-2.7c0-1.7,1-2.7,2.3-2.7c0.7,0,1.3,0.3,1.8,0.9
			v-2.8h0.8v7.2H133.5z M133.5,117.7v-2.4c-0.3-0.5-0.9-0.8-1.6-0.8c-1,0-1.7,0.9-1.7,2s0.6,2,1.7,2
			C132.6,118.5,133.2,118.2,133.5,117.7z"/>
	</g>
	<g>
		<path class="st4" d="M327.5,119.1v-6l-1.2,1.2l-0.5-0.6l1.8-1.9h0.8v7.2H327.5z"/>
		<path class="st4" d="M329.8,115.5c0-2,0.9-3.7,2.9-3.7c0.9,0,1.6,0.4,2,0.9l-0.5,0.7c-0.4-0.4-0.8-0.7-1.5-0.7c-1.4,0-2,1.4-2,2.8
			c0,0.1,0,0.2,0,0.3c0.3-0.5,1.1-1.1,2-1.1c1.3,0,2.4,0.8,2.4,2.3c0,1.3-1,2.4-2.5,2.4C330.6,119.2,329.8,117.5,329.8,115.5z
			 M334.2,116.9c0-1.1-0.7-1.6-1.7-1.6c-0.7,0-1.4,0.4-1.8,1.1c0.1,0.9,0.6,2,1.8,2C333.7,118.4,334.2,117.6,334.2,116.9z"/>
		<path class="st4" d="M336.2,117.3c0-1,0.8-1.6,1.7-1.9c-0.8-0.2-1.6-0.8-1.6-1.7c0-1.3,1.3-1.9,2.5-1.9c1.2,0,2.5,0.6,2.5,1.9
			c0,1-0.8,1.5-1.6,1.7c0.9,0.3,1.7,0.9,1.7,1.9c0,1.2-1.2,2-2.6,2C337.4,119.2,336.2,118.5,336.2,117.3z M340.5,117.2
			c0-0.9-1.2-1.3-1.7-1.4c-0.4,0.1-1.7,0.5-1.7,1.4c0,0.8,0.8,1.3,1.7,1.3C339.7,118.4,340.5,118,340.5,117.2z M340.4,113.8
			c0-0.7-0.7-1.2-1.6-1.2c-0.9,0-1.6,0.4-1.6,1.2c0,0.9,1.1,1.2,1.6,1.2C339.2,115,340.4,114.7,340.4,113.8z"/>
		<path class="st4" d="M342.6,118.6c0-0.3,0.3-0.6,0.6-0.6s0.6,0.3,0.6,0.6s-0.3,0.6-0.6,0.6S342.6,119,342.6,118.6z"/>
		<path class="st4" d="M345,115.5c0-1.8,0.8-3.7,2.8-3.7c2,0,2.8,2,2.8,3.7c0,1.8-0.8,3.7-2.8,3.7C345.7,119.2,345,117.3,345,115.5z
			 M349.6,115.5c0-1.4-0.5-2.9-1.8-2.9s-1.8,1.5-1.8,2.9s0.5,2.9,1.8,2.9S349.6,117,349.6,115.5z"/>
	</g>
	<g>
		<path class="st4" d="M420.3,119.1v-1.8h-3.4v-0.7l3.1-4.6h1.2v4.6h1v0.8h-1v1.8H420.3z M420.3,112.7l-2.5,3.8h2.5V112.7z"/>
		<path class="st4" d="M423.2,118.6c0-0.3,0.3-0.6,0.6-0.6s0.6,0.3,0.6,0.6s-0.3,0.6-0.6,0.6S423.2,119,423.2,118.6z"/>
		<path class="st4" d="M428.8,119.1v-1.8h-3.4v-0.7l3.1-4.6h1.2v4.6h1v0.8h-1v1.8H428.8z M428.8,112.7l-2.5,3.8h2.5V112.7z"/>
	</g>
	<g>
		<path class="st4" d="M500.1,119.1v-0.7c2.6-2,4-3.2,4-4.5c0-0.9-0.8-1.3-1.5-1.3c-0.9,0-1.5,0.4-2,0.9l-0.6-0.6
			c0.6-0.7,1.5-1.1,2.5-1.1c1.2,0,2.4,0.7,2.4,2.1c0,1.5-1.5,2.8-3.5,4.4h3.5v0.8H500.1z"/>
		<path class="st4" d="M506.5,118.6c0-0.3,0.3-0.6,0.6-0.6s0.6,0.3,0.6,0.6s-0.3,0.6-0.6,0.6S506.5,119,506.5,118.6z"/>
		<path class="st4" d="M509.4,119.1v-6l-1.2,1.2l-0.5-0.6l1.8-1.9h0.8v7.2H509.4z"/>
	</g>
	<g>
		<path class="st4" d="M570,115.5c0-2,0.9-3.7,2.9-3.7c0.9,0,1.6,0.4,2,0.9l-0.5,0.7c-0.4-0.4-0.8-0.7-1.5-0.7c-1.4,0-2,1.4-2,2.8
			c0,0.1,0,0.2,0,0.3c0.3-0.5,1.1-1.1,2-1.1c1.3,0,2.4,0.8,2.4,2.3c0,1.3-1,2.4-2.5,2.4C570.8,119.2,570,117.5,570,115.5z
			 M574.4,116.9c0-1.1-0.7-1.6-1.7-1.6c-0.7,0-1.4,0.4-1.8,1.1c0.1,0.9,0.6,2,1.8,2C573.9,118.4,574.4,117.6,574.4,116.9z"/>
		<path class="st4" d="M576.4,115.5c0-1.8,0.8-3.7,2.8-3.7c2,0,2.8,2,2.8,3.7c0,1.8-0.8,3.7-2.8,3.7
			C577.2,119.2,576.4,117.3,576.4,115.5z M581,115.5c0-1.4-0.5-2.9-1.8-2.9s-1.8,1.5-1.8,2.9s0.5,2.9,1.8,2.9S581,117,581,115.5z"/>
		<path class="st4" d="M582.8,118.6c0-0.3,0.3-0.6,0.6-0.6s0.6,0.3,0.6,0.6s-0.3,0.6-0.6,0.6S582.8,119,582.8,118.6z"/>
		<path class="st4" d="M585.2,115.5c0-1.8,0.8-3.7,2.8-3.7c2,0,2.8,2,2.8,3.7c0,1.8-0.8,3.7-2.8,3.7
			C585.9,119.2,585.2,117.3,585.2,115.5z M589.8,115.5c0-1.4-0.5-2.9-1.8-2.9s-1.8,1.5-1.8,2.9s0.5,2.9,1.8,2.9
			S589.8,117,589.8,115.5z"/>
	</g>
</g>
</svg>
