<?xml version="1.0" encoding="utf-8"?>
<!-- Generator: Adobe Illustrator 26.4.0, SVG Export Plug-In . SVG Version: 6.00 Build 0)  -->
<svg version="1.1" id="Layer_1" xmlns="http://www.w3.org/2000/svg" xmlns:xlink="http://www.w3.org/1999/xlink" x="0px" y="0px"
	 viewBox="0 0 399.6 212" style="enable-background:new 0 0 399.6 212;" xml:space="preserve">
<style type="text/css">
	.st0{fill:#0069AA;}
	.st1{fill:#076AAA;}
	.st2{clip-path:url(#SVGID_00000116950669855628886680000013556985377688014220_);fill:#076AAA;}
	.st3{fill:none;stroke:#FFFFFF;}
	.st4{fill:#4E4E50;}
	.st5{filter:url(#Adobe_OpacityMaskFilter);}
	.st6{fill:url(#SVGID_00000027570422620492476270000009110108682568573324_);}
	.st7{mask:url(#SVGID_00000021838518610841622890000016491716015926778018_);}
	.st8{clip-path:url(#SVGID_00000179604438912463288270000001277244821535332798_);fill:#939598;}
	.st9{filter:url(#Adobe_OpacityMaskFilter_00000121265089997638770890000001200737754777037460_);}
	.st10{fill:url(#SVGID_00000102508515144504026990000006122692929374782607_);}
	.st11{mask:url(#SVGID_00000134209248812751869760000001403874986791515569_);}
	.st12{clip-path:url(#SVGID_00000067914477240007205730000014500245108490318505_);fill:#939598;}
	.st13{filter:url(#Adobe_OpacityMaskFilter_00000155838184897480454450000003939979800967787699_);}
	.st14{fill:url(#SVGID_00000034782587216226105950000016456033252615004597_);}
	.st15{mask:url(#SVGID_00000031171450807689795850000015191360688389362347_);}
	.st16{clip-path:url(#SVGID_00000178890941325439326960000017324359379328886204_);fill:#939598;}
	.st17{filter:url(#Adobe_OpacityMaskFilter_00000173125418960901923460000014309076068433236389_);}
	.st18{fill:url(#SVGID_00000036237667780083024840000016512559139094991292_);}
	.st19{mask:url(#SVGID_00000183240741993191745380000017387599034056334724_);}
	.st20{clip-path:url(#SVGID_00000108288763552854138980000005866191159434135978_);fill:#939598;}
</style>
<g>
	<path class="st0" d="M0.2,211.8v-1.3c4-3,5.8-4.6,5.8-6.3c0-1.2-1-1.8-2.1-1.8c-1.3,0-2.2,0.5-2.9,1.3l-1-1
		c0.9-1.1,2.3-1.7,3.8-1.7c1.9,0,3.7,1.1,3.7,3.2c0,2.1-2,3.9-4.9,6.2h5v1.4L0.2,211.8L0.2,211.8z M13.6,201c2.9,0,4.1,2.8,4.1,5.5
		c0,2.6-1.2,5.5-4.1,5.5s-4.2-2.9-4.2-5.5C9.5,203.9,10.7,201,13.6,201z M13.6,202.4c-1.9,0-2.5,2-2.5,4c0,2.1,0.7,4.1,2.5,4.1
		c1.9,0,2.5-2,2.5-4.1C16.1,204.4,15.5,202.4,13.6,202.4z M19.3,211.8v-1.3c4-3,5.8-4.6,5.8-6.3c0-1.2-1-1.8-2.1-1.8
		c-1.3,0-2.2,0.5-2.9,1.3l-1-1c0.9-1.1,2.3-1.7,3.8-1.7c1.9,0,3.7,1.1,3.7,3.2c0,2.1-2,3.9-4.9,6.2h5v1.4L19.3,211.8L19.3,211.8z
		 M32.2,211.8v-8.5l-2,2l-0.9-1l3.1-3.2h1.4v10.6h-1.6V211.8z M37.2,208.6v-1.2H41v1.2H37.2z M42.2,211.8v-1.3c4-3,5.8-4.6,5.8-6.3
		c0-1.2-1-1.8-2.1-1.8c-1.3,0-2.2,0.5-2.9,1.3l-1-1c0.9-1.1,2.3-1.7,3.8-1.7c1.9,0,3.7,1.1,3.7,3.2c0,2.1-2,3.9-4.9,6.2h5v1.4
		L42.2,211.8L42.2,211.8z M51.8,211.8v-1.3c4-3,5.8-4.6,5.8-6.3c0-1.2-1-1.8-2.1-1.8c-1.3,0-2.2,0.5-2.9,1.3l-1-1
		c0.9-1.1,2.3-1.7,3.8-1.7c1.9,0,3.7,1.1,3.7,3.2c0,2.1-2,3.9-4.9,6.2h5v1.4L51.8,211.8L51.8,211.8z"/>
	<path d="M87,211.7v-0.8c3.6-2.9,6-5,6-7c0-1.5-1.3-2.2-2.4-2.2c-1.3,0-2.3,0.6-2.9,1.4l-0.6-0.6c0.7-1,2-1.6,3.5-1.6
		c1.6,0,3.3,0.9,3.3,3c0,2.3-2.5,4.5-5.5,6.9H94v0.8h-7V211.7z M100.1,200.9c2.8,0,3.9,2.9,3.9,5.5c0,2.5-1.1,5.5-3.9,5.5
		s-3.9-3-3.9-5.5C96.1,203.9,97.2,200.9,100.1,200.9z M100.1,201.8c-2.2,0-3,2.4-3,4.6c0,2.2,0.7,4.7,3,4.7s3-2.5,3-4.7
		C103,204.2,102.3,201.8,100.1,201.8z M105.7,211.7v-0.8c3.6-2.9,6-5,6-7c0-1.5-1.3-2.2-2.4-2.2c-1.3,0-2.3,0.6-2.9,1.4l-0.6-0.6
		c0.7-1,2-1.6,3.5-1.6c1.6,0,3.3,0.9,3.3,3c0,2.3-2.5,4.5-5.5,6.9h5.6v0.8h-7V211.7z M118.8,200.9c2.8,0,3.9,2.9,3.9,5.5
		c0,2.5-1.1,5.5-3.9,5.5s-3.9-3-3.9-5.5C114.8,203.9,115.9,200.9,118.8,200.9z M118.8,201.8c-2.2,0-3,2.4-3,4.6c0,2.2,0.7,4.7,3,4.7
		s3-2.5,3-4.7C121.7,204.2,121,201.8,118.8,201.8z M124.7,208.2v-0.8h3.8v0.8H124.7z M129.7,211.7v-0.8c3.6-2.9,6-5,6-7
		c0-1.5-1.3-2.2-2.4-2.2c-1.3,0-2.3,0.6-2.9,1.4l-0.6-0.6c0.7-1,2-1.6,3.5-1.6c1.6,0,3.3,0.9,3.3,3c0,2.3-2.5,4.5-5.5,6.9h5.6v0.8
		h-7V211.7z M142.6,211.7v-9.4l-2.5,2.7l-0.6-0.6l3.2-3.3h0.8v10.6H142.6z"/>
	<path d="M171.5,211.6v-0.7c3.6-2.9,6-5,6-7c0-1.5-1.3-2.2-2.4-2.2c-1.3,0-2.3,0.6-2.9,1.4l-0.6-0.6c0.7-1,2-1.6,3.5-1.6
		c1.6,0,3.3,0.9,3.3,3c0,2.3-2.5,4.5-5.5,6.9h5.6v0.8L171.5,211.6L171.5,211.6z M184.5,200.9c2.8,0,3.9,2.9,3.9,5.5
		c0,2.5-1.1,5.5-3.9,5.5s-3.9-3-3.9-5.5C180.6,203.8,181.7,200.9,184.5,200.9z M184.5,201.7c-2.2,0-3,2.4-3,4.6c0,2.2,0.7,4.7,3,4.7
		c2.3,0,3-2.5,3-4.7C187.5,204.1,186.8,201.7,184.5,201.7z M194,211.6v-9.4l-2.5,2.7l-0.6-0.6l3.2-3.3h0.8v10.6H194z M199.6,209.8
		c0.5,0.7,1.2,1.2,2.3,1.2c2.3,0,3.1-2.4,3.1-4.7c0-0.2,0-0.3,0-0.5c-0.4,0.7-1.7,1.8-3.1,1.8c-1.9,0-3.4-1.1-3.4-3.4
		c0-1.7,1.3-3.4,3.6-3.4c2.9,0,3.9,2.6,3.9,5.5c0,2.7-1.1,5.5-4,5.5c-1.4,0-2.2-0.6-2.9-1.3L199.6,209.8z M202.2,201.7
		c-1.8,0-2.7,1.4-2.7,2.5c0,1.7,1.1,2.6,2.7,2.6c1.2,0,2.3-0.7,2.9-1.8C204.9,203.5,204.2,201.7,202.2,201.7z M208.2,208.1v-0.8h3.8
		v0.8H208.2z M213.2,211.6v-0.7c3.6-2.9,6-5,6-7c0-1.5-1.3-2.2-2.4-2.2c-1.3,0-2.3,0.6-2.9,1.4l-0.6-0.6c0.7-1,2-1.6,3.5-1.6
		c1.6,0,3.3,0.9,3.3,3c0,2.3-2.5,4.5-5.5,6.9h5.6v0.8L213.2,211.6L213.2,211.6z M226.3,200.9c2.8,0,3.9,2.9,3.9,5.5
		c0,2.5-1.1,5.5-3.9,5.5c-2.8,0-3.9-3-3.9-5.5C222.3,203.8,223.4,200.9,226.3,200.9z M226.3,201.7c-2.2,0-3,2.4-3,4.6
		c0,2.2,0.7,4.7,3,4.7c2.3,0,3-2.5,3-4.7C229.2,204.1,228.5,201.7,226.3,201.7z"/>
	<path d="M257.9,211.5v-0.7c3.6-2.9,6-5,6-7c0-1.5-1.3-2.2-2.4-2.2c-1.3,0-2.3,0.6-2.9,1.4l-0.6-0.6c0.7-1,2-1.6,3.5-1.6
		c1.6,0,3.3,0.9,3.3,3c0,2.3-2.5,4.5-5.5,6.9h5.6v0.8L257.9,211.5L257.9,211.5z M271,200.8c2.8,0,3.9,2.9,3.9,5.5
		c0,2.5-1.1,5.5-3.9,5.5s-3.9-3-3.9-5.5C267,203.7,268.1,200.8,271,200.8z M271,201.6c-2.2,0-3,2.4-3,4.6c0,2.2,0.7,4.7,3,4.7
		c2.3,0,3-2.5,3-4.7C273.9,204,273.2,201.6,271,201.6z M280.5,211.5v-9.4l-2.5,2.7l-0.6-0.6l3.2-3.3h0.8v10.6H280.5z M287.7,206.1
		c-1.3-0.3-2.5-1.1-2.5-2.6c0-1.9,1.7-2.7,3.4-2.7c1.7,0,3.4,0.9,3.4,2.7c0,1.4-1.2,2.2-2.5,2.6c1.3,0.4,2.6,1.3,2.6,2.8
		c0,1.7-1.6,2.8-3.6,2.8s-3.6-1.1-3.6-2.8C285.1,207.4,286.4,206.4,287.7,206.1z M288.7,206.5c-0.7,0.1-2.7,0.7-2.7,2.3
		c0,1.3,1.3,2.1,2.7,2.1s2.7-0.8,2.7-2.1C291.4,207.2,289.4,206.5,288.7,206.5z M288.7,201.6c-1.4,0-2.5,0.7-2.5,2
		c0,1.5,1.9,2,2.5,2.1c0.7-0.1,2.5-0.6,2.5-2.1C291.2,202.3,290.1,201.6,288.7,201.6z M294.4,208.1v-0.8h3.8v0.8H294.4z
		 M302.9,211.5v-9.4l-2.5,2.7l-0.6-0.6l3.2-3.3h0.8v10.6H302.9z M308.5,209.7c0.5,0.7,1.2,1.2,2.3,1.2c2.3,0,3.1-2.4,3.1-4.7
		c0-0.2,0-0.3,0-0.5c-0.4,0.7-1.7,1.8-3.1,1.8c-1.9,0-3.4-1.1-3.4-3.4c0-1.7,1.3-3.4,3.6-3.4c2.9,0,3.9,2.6,3.9,5.5
		c0,2.7-1.1,5.5-4,5.5c-1.4,0-2.2-0.6-2.9-1.3L308.5,209.7z M311,201.6c-1.8,0-2.7,1.4-2.7,2.5c0,1.7,1.1,2.6,2.7,2.6
		c1.2,0,2.3-0.7,2.9-1.8C313.7,203.4,313,201.6,311,201.6z"/>
	<path d="M344.1,211.7v-0.8c3.6-2.9,6-5,6-7c0-1.5-1.3-2.2-2.4-2.2c-1.3,0-2.3,0.6-2.9,1.4l-0.6-0.6c0.7-1,2-1.6,3.5-1.6
		c1.6,0,3.3,0.9,3.3,3c0,2.3-2.5,4.5-5.5,6.9h5.6v0.8h-7V211.7z M357.2,200.9c2.8,0,3.9,2.9,3.9,5.5c0,2.5-1.1,5.5-3.9,5.5
		s-3.9-3-3.9-5.5C353.2,203.9,354.3,200.9,357.2,200.9z M357.2,201.8c-2.2,0-3,2.4-3,4.6c0,2.2,0.7,4.7,3,4.7c2.3,0,3-2.5,3-4.7
		C360.1,204.2,359.4,201.8,357.2,201.8z M366.7,211.7v-9.4l-2.5,2.7l-0.6-0.6l3.2-3.3h0.8v10.6H366.7z M372.7,211.7l4.5-9.8h-5.9
		v-0.8h6.9v0.6l-4.5,10H372.7z M379.3,208.2v-0.8h3.8v0.8H379.3z M387.9,211.7v-9.4l-2.5,2.7l-0.6-0.6l3.2-3.3h0.8v10.6H387.9z
		 M395.2,206.2c-1.3-0.3-2.5-1.1-2.5-2.6c0-1.9,1.7-2.7,3.4-2.7s3.4,0.9,3.4,2.7c0,1.4-1.2,2.2-2.5,2.6c1.3,0.4,2.6,1.3,2.6,2.8
		c0,1.7-1.6,2.8-3.6,2.8s-3.6-1.1-3.6-2.8C392.6,207.6,393.9,206.6,395.2,206.2z M396.2,206.6c-0.7,0.1-2.7,0.7-2.7,2.3
		c0,1.3,1.3,2.1,2.7,2.1s2.7-0.8,2.7-2.1C398.9,207.3,396.8,206.7,396.2,206.6z M396.2,201.8c-1.4,0-2.5,0.7-2.5,2
		c0,1.5,1.9,2,2.5,2.1c0.7-0.1,2.5-0.6,2.5-2.1C398.7,202.5,397.6,201.8,396.2,201.8z"/>
	<g>
		<path class="st1" d="M15.6,5.8c0-3.4,1.9-5.8,5.3-5.8c1.4,0,2.5,0.5,3.3,1.2L23.1,3c-0.6-0.6-1.3-0.9-2.2-0.9
			c-1.7,0-2.8,1.4-2.8,3.2c0,0.1,0,0.2,0,0.2C18.6,4.7,19.8,4,21,4c2,0,3.9,1.3,3.9,3.7c0,2.2-1.8,3.9-4.3,3.9
			C17,11.7,15.6,9,15.6,5.8z M22.3,7.9c0-1.2-1-1.7-2.1-1.7c-0.8,0-1.7,0.4-2.2,1.1c0.1,1.1,0.7,2.3,2.3,2.3
			C21.6,9.5,22.3,8.6,22.3,7.9z M31.7,11.5V9.2h-5.4V7.3l4.5-7.1h3.3V7h1.5v2.1h-1.5v2.4H31.7z M31.7,2.3l-3,4.7h3V2.3z M38.2,11.5
			l4-9.2h-5.7V0.2H45v1.7l-4.1,9.6H38.2z"/>
		<g>
			<g>
				<g>
					<defs>
						<rect id="SVGID_1_" x="9.9" y="28.9" width="29" height="179"/>
					</defs>
					<clipPath id="SVGID_00000050634675882605172720000015123522016250046881_">
						<use xlink:href="#SVGID_1_"  style="overflow:visible;"/>
					</clipPath>
					
						<rect x="24.7" y="38.6" style="clip-path:url(#SVGID_00000050634675882605172720000015123522016250046881_);fill:#076AAA;" width="12" height="159.5"/>
				</g>
			</g>
		</g>
		<line class="st3" x1="30.8" y1="198.1" x2="30.8" y2="25.3"/>
	</g>
	<g>
		<path class="st4" d="M102.2,11.5L107,1.1h-6.2V0.2h7.4v0.7l-4.9,10.6H102.2z M114,0c3,0,4.2,3.1,4.2,5.8s-1.1,5.8-4.2,5.8
			s-4.2-3.2-4.2-5.8C109.9,3.1,111,0,114,0z M114,0.9c-2.4,0-3.1,2.6-3.1,4.9s0.8,5,3.1,5s3.1-2.6,3.1-5
			C117.2,3.5,116.4,0.9,114,0.9z M124.7,0c1.5,0,2.4,0.6,3,1.4l-0.6,0.7c-0.6-0.7-1.2-1.3-2.5-1.3c-2.4,0-3.3,2.6-3.3,5
			c0,0.2,0,0.4,0,0.5c0.5-0.8,1.8-1.9,3.3-1.9c2,0,3.6,1.2,3.6,3.6c0,1.8-1.4,3.6-3.8,3.6c-3,0-4.1-2.8-4.1-5.8
			C120.4,2.9,121.6,0,124.7,0z M124.6,5.4c-1.2,0-2.4,0.8-3.1,1.9c0.1,1.5,0.9,3.5,3.1,3.5c1.9,0,2.8-1.5,2.8-2.7
			C127.4,6.2,126.2,5.4,124.6,5.4z"/>
		<defs>
			<filter id="Adobe_OpacityMaskFilter" filterUnits="userSpaceOnUse" x="93.7" y="15.5" width="29" height="192.2">
				<feColorMatrix  type="matrix" values="1 0 0 0 0  0 1 0 0 0  0 0 1 0 0  0 0 0 1 0"/>
			</filter>
		</defs>
		
			<mask maskUnits="userSpaceOnUse" x="93.7" y="15.5" width="29" height="192.2" id="SVGID_00000021838518610841622890000016491716015926778018_">
			<g class="st5">
				
					<linearGradient id="SVGID_00000007420934114868013880000012786173094993188026_" gradientUnits="userSpaceOnUse" x1="-154.8847" y1="-151.1087" x2="-153.7994" y2="-151.1087" gradientTransform="matrix(-3.000000e-15 45.8841 -45.8841 -3.000000e-15 -7365.9448 7255.084)">
					<stop  offset="0" style="stop-color:#FFFFFF"/>
					<stop  offset="1" style="stop-color:#000000"/>
				</linearGradient>
				
					<rect x="-1324.2" y="-349" style="fill:url(#SVGID_00000007420934114868013880000012786173094993188026_);" width="1783.5" height="646"/>
			</g>
		</mask>
		<g class="st7">
			<g>
				<g>
					<defs>
						<rect id="SVGID_00000122716507557000736890000013917211697681174954_" x="93.7" y="15.5" width="29" height="192.2"/>
					</defs>
					<clipPath id="SVGID_00000115507672677221415410000001133218167175920831_">
						<use xlink:href="#SVGID_00000122716507557000736890000013917211697681174954_"  style="overflow:visible;"/>
					</clipPath>
					
						<rect x="108.5" y="25.3" style="clip-path:url(#SVGID_00000115507672677221415410000001133218167175920831_);fill:#939598;" width="12" height="172.7"/>
				</g>
			</g>
		</g>
		<line class="st3" x1="114.5" y1="198.1" x2="114.5" y2="25.3"/>
	</g>
	<g>
		<path class="st4" d="M191.1,0c1.5,0,2.4,0.6,3,1.4l-0.6,0.7c-0.6-0.7-1.2-1.3-2.5-1.3c-2.4,0-3.3,2.6-3.3,5c0,0.2,0,0.4,0,0.5
			c0.5-0.8,1.8-1.9,3.3-1.9c2,0,3.6,1.2,3.6,3.6c0,1.8-1.4,3.6-3.8,3.6c-3,0-4.1-2.8-4.1-5.8C186.7,2.9,188,0,191.1,0z M190.9,5.4
			c-1.2,0-2.4,0.8-3.1,1.9c0.1,1.5,0.9,3.5,3.1,3.5c1.9,0,2.8-1.5,2.8-2.7C193.7,6.2,192.5,5.4,190.9,5.4z M199.7,11.5v-10L197,4.4
			l-0.6-0.6l3.4-3.6h0.9v11.3H199.7z M208.7,0c3,0,4.2,3.1,4.2,5.8s-1.1,5.8-4.2,5.8c-3,0-4.2-3.2-4.2-5.8
			C204.6,3.1,205.7,0,208.7,0z M208.7,0.9c-2.4,0-3.1,2.6-3.1,4.9s0.8,5,3.1,5c2.3,0,3.1-2.6,3.1-5C211.9,3.5,211.1,0.9,208.7,0.9z"
			/>
		<defs>
			
				<filter id="Adobe_OpacityMaskFilter_00000124842708599418880710000003362597516756854181_" filterUnits="userSpaceOnUse" x="180.5" y="36.9" width="29" height="171">
				<feColorMatrix  type="matrix" values="1 0 0 0 0  0 1 0 0 0  0 0 1 0 0  0 0 0 1 0"/>
			</filter>
		</defs>
		
			<mask maskUnits="userSpaceOnUse" x="180.5" y="36.9" width="29" height="171" id="SVGID_00000134209248812751869760000001403874986791515569_">
			<g style="filter:url(#Adobe_OpacityMaskFilter_00000124842708599418880710000003362597516756854181_);">
				
					<linearGradient id="SVGID_00000173156997324195764410000006400401065951772804_" gradientUnits="userSpaceOnUse" x1="-157.4706" y1="-145.0474" x2="-156.3853" y2="-145.0474" gradientTransform="matrix(-2.000000e-15 36.1468 -36.1468 -2.000000e-15 -5618.0562 5850.9355)">
					<stop  offset="0" style="stop-color:#FFFFFF"/>
					<stop  offset="1" style="stop-color:#000000"/>
				</linearGradient>
				
					<rect x="-1266.8" y="-349" style="fill:url(#SVGID_00000173156997324195764410000006400401065951772804_);" width="1783.5" height="646"/>
			</g>
		</mask>
		<g class="st11">
			<g>
				<g>
					<defs>
						<rect id="SVGID_00000168803819533776425690000006910605890403923089_" x="180.5" y="36.9" width="29" height="171"/>
					</defs>
					<clipPath id="SVGID_00000106834432669664549960000007233100271838242996_">
						<use xlink:href="#SVGID_00000168803819533776425690000006910605890403923089_"  style="overflow:visible;"/>
					</clipPath>
					
						<rect x="195.3" y="46.6" style="clip-path:url(#SVGID_00000106834432669664549960000007233100271838242996_);fill:#939598;" width="12" height="151.5"/>
				</g>
			</g>
		</g>
		<line class="st3" x1="201.4" y1="198.1" x2="201.4" y2="25.3"/>
	</g>
	<g>
		<path class="st4" d="M276.7,0c1.5,0,2.4,0.6,3,1.4l-0.6,0.7c-0.6-0.7-1.2-1.3-2.5-1.3c-2.4,0-3.3,2.6-3.3,5c0,0.2,0,0.4,0,0.5
			c0.5-0.8,1.8-1.9,3.3-1.9c2,0,3.6,1.2,3.6,3.6c0,1.8-1.4,3.6-3.8,3.6c-3,0-4.1-2.8-4.1-5.8C272.4,3,273.6,0,276.7,0z M276.5,5.4
			c-1.2,0-2.4,0.8-3.1,1.9c0.1,1.5,0.9,3.5,3.1,3.5c1.9,0,2.8-1.5,2.8-2.7C279.3,6.2,278.1,5.4,276.5,5.4z M283.9,11.5l4.8-10.4
			h-6.2V0.2h7.4v0.7L285,11.5H283.9z M293,9.5c0.6,0.7,1.3,1.3,2.5,1.3c2.5,0,3.3-2.6,3.3-5c0-0.2,0-0.3,0-0.5
			c-0.5,0.8-1.8,1.9-3.3,1.9c-2,0-3.6-1.2-3.6-3.6c0-1.8,1.4-3.6,3.8-3.6c3,0,4.1,2.8,4.1,5.8c0,2.9-1.2,5.8-4.3,5.8
			c-1.5,0-2.4-0.6-3-1.4L293,9.5z M295.7,0.9c-1.9,0-2.8,1.5-2.8,2.7c0,1.8,1.2,2.7,2.8,2.7c1.2,0,2.4-0.8,3.1-1.9
			C298.6,2.8,297.8,0.9,295.7,0.9z"/>
		<defs>
			
				<filter id="Adobe_OpacityMaskFilter_00000030456256875953338120000010525653122709661113_" filterUnits="userSpaceOnUse" x="264.9" y="21.4" width="29" height="186.4">
				<feColorMatrix  type="matrix" values="1 0 0 0 0  0 1 0 0 0  0 0 1 0 0  0 0 0 1 0"/>
			</filter>
		</defs>
		
			<mask maskUnits="userSpaceOnUse" x="264.9" y="21.4" width="29" height="186.4" id="SVGID_00000031171450807689795850000015191360688389362347_">
			<g style="filter:url(#Adobe_OpacityMaskFilter_00000030456256875953338120000010525653122709661113_);">
				
					<linearGradient id="SVGID_00000117677606748129768060000014105866124480943246_" gradientUnits="userSpaceOnUse" x1="-156.66" y1="-148.7413" x2="-155.5747" y2="-148.7413" gradientTransform="matrix(-2.000000e-15 38.7227 -38.7227 -2.000000e-15 -6080.4272 6222.3853)">
					<stop  offset="0" style="stop-color:#FFFFFF"/>
					<stop  offset="1" style="stop-color:#000000"/>
				</linearGradient>
				
					<rect x="-1212.5" y="-349" style="fill:url(#SVGID_00000117677606748129768060000014105866124480943246_);" width="1783.5" height="646"/>
			</g>
		</mask>
		<g class="st15">
			<g>
				<g>
					<defs>
						<rect id="SVGID_00000138572819591323578570000015067838464602925734_" x="264.9" y="21.4" width="29" height="186.4"/>
					</defs>
					<clipPath id="SVGID_00000057843791447831196360000017948885272943859347_">
						<use xlink:href="#SVGID_00000138572819591323578570000015067838464602925734_"  style="overflow:visible;"/>
					</clipPath>
					
						<rect x="279.7" y="31.2" style="clip-path:url(#SVGID_00000057843791447831196360000017948885272943859347_);fill:#939598;" width="12" height="166.9"/>
				</g>
			</g>
		</g>
		<line class="st3" x1="285.7" y1="198.1" x2="285.7" y2="25.3"/>
	</g>
	<g>
		<path class="st4" d="M360,9.2c0.7,1,1.7,1.6,3.2,1.6c1.6,0,2.8-1.2,2.8-2.7c0-1.7-1.2-2.8-2.8-2.8c-1,0-1.9,0.3-2.7,1.1l-0.7-0.3
			V0.2h6.5v0.9h-5.5v4.4c0.5-0.5,1.5-1,2.7-1c1.9,0,3.6,1.3,3.6,3.6c0,2.2-1.7,3.6-3.8,3.6c-1.9,0-3-0.7-3.8-1.8L360,9.2z
			 M369.9,9.2c0.7,1,1.7,1.6,3.2,1.6c1.6,0,2.8-1.2,2.8-2.7c0-1.7-1.2-2.8-2.8-2.8c-1,0-1.9,0.3-2.7,1.1l-0.7-0.3V0.2h6.5v0.9h-5.5
			v4.4c0.5-0.5,1.5-1,2.7-1c1.9,0,3.6,1.3,3.6,3.6c0,2.2-1.7,3.6-3.8,3.6c-1.9,0-3-0.7-3.8-1.8L369.9,9.2z M382.2,5.6
			c-1.3-0.4-2.6-1.2-2.6-2.7c0-2,1.9-2.9,3.7-2.9s3.7,0.9,3.7,2.9c0,1.5-1.3,2.4-2.6,2.7c1.4,0.4,2.8,1.4,2.8,3c0,1.8-1.7,3-3.8,3
			c-2.2,0-3.8-1.2-3.8-3C379.4,7.1,380.8,6,382.2,5.6z M383.2,6.1c-0.7,0.1-2.9,0.8-2.9,2.5c0,1.4,1.4,2.2,2.9,2.2
			c1.5,0,2.9-0.8,2.9-2.2C386.1,6.8,383.9,6.2,383.2,6.1z M383.2,0.9c-1.5,0-2.7,0.8-2.7,2.1c0,1.6,2,2.1,2.7,2.2
			c0.7-0.1,2.7-0.6,2.7-2.2C385.9,1.7,384.7,0.9,383.2,0.9z"/>
		<defs>
			
				<filter id="Adobe_OpacityMaskFilter_00000139288314329761111330000004471933155198779059_" filterUnits="userSpaceOnUse" x="353.1" y="48.8" width="29" height="159">
				<feColorMatrix  type="matrix" values="1 0 0 0 0  0 1 0 0 0  0 0 1 0 0  0 0 0 1 0"/>
			</filter>
		</defs>
		
			<mask maskUnits="userSpaceOnUse" x="353.1" y="48.8" width="29" height="159" id="SVGID_00000183240741993191745380000017387599034056334724_">
			<g style="filter:url(#Adobe_OpacityMaskFilter_00000139288314329761111330000004471933155198779059_);">
				
					<linearGradient id="SVGID_00000031202547259137523360000004779802684264748168_" gradientUnits="userSpaceOnUse" x1="-156.7341" y1="-150.0576" x2="-155.6489" y2="-150.0576" gradientTransform="matrix(-2.000000e-15 38.4721 -38.4721 -2.000000e-15 -6035.4922 6186.2563)">
					<stop  offset="0" style="stop-color:#FFFFFF"/>
					<stop  offset="1" style="stop-color:#000000"/>
				</linearGradient>
				
					<rect x="-1154.2" y="-349" style="fill:url(#SVGID_00000031202547259137523360000004779802684264748168_);" width="1783.5" height="646"/>
			</g>
		</mask>
		<g class="st19">
			<g>
				<g>
					<defs>
						<rect id="SVGID_00000142149234317521840440000015493374058607330191_" x="353.1" y="48.8" width="29" height="159"/>
					</defs>
					<clipPath id="SVGID_00000013163151752305889720000016440575357516941995_">
						<use xlink:href="#SVGID_00000142149234317521840440000015493374058607330191_"  style="overflow:visible;"/>
					</clipPath>
					
						<rect x="367.9" y="58.5" style="clip-path:url(#SVGID_00000013163151752305889720000016440575357516941995_);fill:#939598;" width="12" height="139.4"/>
				</g>
			</g>
		</g>
		<line class="st3" x1="374" y1="198.1" x2="374" y2="25.3"/>
	</g>
</g>
</svg>
