<?xml version="1.0" encoding="utf-8"?>
<!-- Generator: Adobe Illustrator 26.4.0, SVG Export Plug-In . SVG Version: 6.00 Build 0)  -->
<svg version="1.1" id="Layer_1" xmlns="http://www.w3.org/2000/svg" xmlns:xlink="http://www.w3.org/1999/xlink" x="0px" y="0px"
	 viewBox="0 0 400 205.2" style="enable-background:new 0 0 400 205.2;" xml:space="preserve">
<style type="text/css">
	.st0{clip-path:url(#SVGID_00000072973789921962716760000013547481088744342934_);fill:#DEECC2;}
	.st1{fill:#010101;}
	.st2{fill:none;stroke:#010101;stroke-width:0.25;}
	.st3{fill:none;stroke:#939598;stroke-width:0.25;stroke-dasharray:0.75,0.5;}
	.st4{fill:#9FCC3B;}
	.st5{fill:#4E4E50;}
	.st6{fill:#076AAA;}
</style>
<g>
	<g>
		<g>
			<g>
				<defs>
					<rect id="SVGID_1_" x="55.6" y="16.2" width="333.9" height="171.2"/>
				</defs>
				<clipPath id="SVGID_00000070813023399084658550000016574833007297274764_">
					<use xlink:href="#SVGID_1_"  style="overflow:visible;"/>
				</clipPath>
				<polygon style="clip-path:url(#SVGID_00000070813023399084658550000016574833007297274764_);fill:#DEECC2;" points="71.6,185.6 
					71.6,51.2 144.3,41.2 222.6,41.6 295.1,48.9 373,28.6 373.5,185.6 				"/>
			</g>
		</g>
	</g>
	<path class="st1" d="M3.3,180c2.4,0,3.3,2.5,3.3,4.6s-0.9,4.6-3.3,4.6S0,186.7,0,184.6C0,182.5,0.9,180,3.3,180z M3.3,180.7
		c-1.9,0-2.5,2.1-2.5,3.9c0,1.8,0.6,3.9,2.5,3.9s2.5-2.1,2.5-3.9C5.8,182.7,5.2,180.7,3.3,180.7z M8.6,188c0.3,0,0.6,0.3,0.6,0.6
		s-0.3,0.6-0.6,0.6S8,188.9,8,188.6C8,188.3,8.3,188,8.6,188z M13.8,180c2.4,0,3.3,2.5,3.3,4.6s-0.9,4.6-3.3,4.6s-3.3-2.5-3.3-4.6
		S11.4,180,13.8,180z M13.8,180.7c-1.9,0-2.5,2.1-2.5,3.9c0,1.8,0.6,3.9,2.5,3.9s2.5-2.1,2.5-3.9C16.3,182.7,15.7,180.7,13.8,180.7z
		"/>
	<path class="st1" d="M3.6,117v-7.9l-2.1,2.3L1,110.9l2.7-2.8h0.7v8.9H3.6z M8,116c0.3,0,0.6,0.3,0.6,0.6s-0.3,0.6-0.6,0.6
		s-0.6-0.3-0.6-0.6S7.7,116,8,116z M10.5,117v-0.6c3-2.4,5.1-4.2,5.1-5.9c0-1.3-1.1-1.8-2-1.8c-1.1,0-2,0.5-2.4,1.2l-0.5-0.5
		c0.6-0.9,1.7-1.4,3-1.4s2.8,0.7,2.8,2.5c0,2-2.1,3.8-4.7,5.8h4.7v0.7L10.5,117L10.5,117z"/>
	<path class="st1" d="M3.3,144c2.4,0,3.3,2.5,3.3,4.6s-0.9,4.6-3.3,4.6S0,150.7,0,148.6C0,146.4,0.9,144,3.3,144z M3.3,144.7
		c-1.9,0-2.5,2.1-2.5,3.9c0,1.8,0.6,3.9,2.5,3.9s2.5-2.1,2.5-3.9C5.8,146.7,5.2,144.7,3.3,144.7z M8.6,152c0.3,0,0.6,0.3,0.6,0.6
		s-0.3,0.6-0.6,0.6S8,152.9,8,152.6C8,152.3,8.3,152,8.6,152z M14.1,144c1.2,0,1.9,0.5,2.4,1.1l-0.4,0.6c-0.4-0.6-1-1-2-1
		c-1.9,0-2.6,2-2.6,3.9c0,0.1,0,0.3,0,0.4c0.4-0.6,1.4-1.5,2.6-1.5c1.6,0,2.9,0.9,2.9,2.8c0,1.5-1.1,2.8-3,2.8
		c-2.4,0-3.3-2.2-3.3-4.6C10.7,146.3,11.6,144,14.1,144z M13.9,148.2c-1,0-1.9,0.6-2.4,1.5c0.1,1.2,0.7,2.8,2.4,2.8
		c1.5,0,2.2-1.2,2.2-2.1C16.2,148.9,15.2,148.2,13.9,148.2z"/>
	<path class="st1" d="M3.6,81v-7.9l-2.1,2.3L1,74.9l2.7-2.8h0.7V81H3.6z M8,80c0.3,0,0.6,0.3,0.6,0.6c0,0.3-0.3,0.6-0.6,0.6
		s-0.6-0.3-0.6-0.6S7.7,80,8,80z M12.5,76.4c-1.1-0.3-2.1-1-2.1-2.2c0-1.6,1.5-2.3,2.9-2.3s2.9,0.7,2.9,2.3c0,1.2-1,1.9-2.1,2.2
		c1.1,0.3,2.2,1.1,2.2,2.4c0,1.4-1.3,2.4-3,2.4s-3-0.9-3-2.4C10.3,77.6,11.4,76.7,12.5,76.4z M13.3,76.8c-0.5,0.1-2.3,0.6-2.3,2
		c0,1.1,1.1,1.8,2.3,1.8s2.3-0.7,2.3-1.8C15.6,77.4,13.9,76.8,13.3,76.8z M13.3,72.7c-1.2,0-2.1,0.6-2.1,1.7c0,1.2,1.6,1.6,2.1,1.8
		c0.5-0.1,2.1-0.5,2.1-1.8C15.5,73.3,14.5,72.7,13.3,72.7z"/>
	<path class="st1" d="M0.3,45v-0.6c3-2.4,5.1-4.2,5.1-5.9c0-1.3-1.1-1.8-2-1.8c-1.1,0-2,0.5-2.4,1.2l-0.5-0.5C1,36.5,2.1,36,3.3,36
		c1.3,0,2.8,0.7,2.8,2.5c0,2-2.1,3.8-4.7,5.8h4.7V45H0.3z M8.8,44c0.3,0,0.6,0.3,0.6,0.6s-0.3,0.6-0.6,0.6s-0.6-0.3-0.6-0.6
		S8.5,44,8.8,44z M15,45v-2.4h-4.2v-0.7l4-5.8h1v5.8h1.3v0.7h-1.3V45H15z M15,36.9l-3.4,5H15V36.9z"/>
	<path class="st1" d="M0.8,7.3C1.3,8,2.2,8.5,3.3,8.5c1.4,0,2.2-0.7,2.2-1.9c0-1.3-1.1-1.8-2.4-1.8c-0.4,0-0.7,0-0.8,0V4.1
		c0.1,0,0.5,0,0.8,0c1.2,0,2.3-0.5,2.3-1.7c0-1.1-1-1.7-2.1-1.7c-1,0-1.7,0.4-2.4,1.1L0.4,1.3C1,0.6,2,0,3.3,0
		c1.6,0,2.9,0.8,2.9,2.4c0,1.4-1.1,2-1.9,2.1c0.8,0.1,2,0.7,2,2.2s-1.1,2.6-3,2.6c-1.5,0-2.5-0.7-3-1.5L0.8,7.3z M8.6,8
		c0.3,0,0.6,0.3,0.6,0.6c0,0.3-0.3,0.6-0.6,0.6S8,8.9,8,8.6C8.1,8.3,8.3,8,8.6,8z M13.9,0c2.4,0,3.3,2.5,3.3,4.6s-0.9,4.6-3.3,4.6
		s-3.3-2.5-3.3-4.6C10.6,2.5,11.5,0,13.9,0z M13.9,0.7c-1.9,0-2.5,2.1-2.5,3.9s0.6,3.9,2.5,3.9s2.5-2.1,2.5-3.9
		C16.4,2.7,15.8,0.7,13.9,0.7z"/>
	<line class="st2" x1="38.1" y1="185.4" x2="400" y2="185.4"/>
	<line class="st3" x1="38.1" y1="149.4" x2="400" y2="149.4"/>
	<line class="st3" x1="38.1" y1="113.4" x2="400" y2="113.4"/>
	<line class="st3" x1="38.1" y1="77.4" x2="400" y2="77.4"/>
	<line class="st3" x1="38.1" y1="41.4" x2="400" y2="41.4"/>
	<line class="st3" x1="38.1" y1="5.4" x2="400" y2="5.4"/>
	<rect x="69.6" y="48.3" class="st4" width="5.9" height="5.9"/>
	<rect x="141.4" y="37.4" class="st4" width="5.9" height="5.9"/>
	<rect x="219.6" y="38.5" class="st4" width="5.9" height="5.9"/>
	<rect x="292.2" y="46" class="st4" width="5.9" height="5.9"/>
	<rect x="369.4" y="25.7" class="st4" width="5.9" height="5.9"/>
	<path class="st5" d="M60,40.4v-0.7c3.2-2.6,5.4-4.5,5.4-6.3c0-1.4-1.1-1.9-2.2-1.9c-1.2,0-2.1,0.5-2.6,1.2L60,32.2
		c0.7-0.9,1.8-1.5,3.2-1.5s3,0.8,3,2.7c0,2.1-2.2,4-5,6.2h5v0.7L60,40.4L60,40.4z M69,39.3c0.3,0,0.6,0.3,0.6,0.6s-0.3,0.6-0.6,0.6
		s-0.6-0.3-0.6-0.6S68.7,39.3,69,39.3z M71.7,40.4v-0.7c3.2-2.6,5.4-4.5,5.4-6.3c0-1.4-1.1-1.9-2.2-1.9c-1.2,0-2.1,0.5-2.6,1.2
		l-0.6-0.5c0.7-0.9,1.8-1.5,3.2-1.5c1.4,0,3,0.8,3,2.7c0,2.1-2.2,4-5,6.2h5v0.7L71.7,40.4L71.7,40.4z M82.4,35.5
		c-1.1-0.3-2.2-1-2.2-2.3c0-1.7,1.6-2.4,3.1-2.4s3.1,0.8,3.1,2.4c0,1.3-1.1,2-2.2,2.3c1.2,0.3,2.3,1.2,2.3,2.5
		c0,1.5-1.4,2.5-3.2,2.5c-1.8,0-3.2-1-3.2-2.5C80,36.7,81.2,35.8,82.4,35.5z M83.3,35.9c-0.6,0.1-2.4,0.6-2.4,2.1
		c0,1.2,1.1,1.9,2.4,1.9c1.2,0,2.4-0.7,2.4-1.9C85.7,36.5,83.8,35.9,83.3,35.9z M83.3,31.5c-1.3,0-2.2,0.7-2.2,1.8
		c0,1.3,1.7,1.8,2.2,1.9c0.6-0.1,2.2-0.5,2.2-1.9C85.5,32.1,84.5,31.5,83.3,31.5z"/>
	<path class="st5" d="M131.4,31v-0.7c3.2-2.6,5.4-4.5,5.4-6.3c0-1.4-1.1-1.9-2.2-1.9c-1.2,0-2.1,0.5-2.6,1.2l-0.6-0.5
		c0.7-0.9,1.8-1.5,3.2-1.5s3,0.8,3,2.7c0,2.1-2.2,4-5,6.2h5V31H131.4z M140.4,29.9c0.3,0,0.6,0.3,0.6,0.6s-0.3,0.6-0.6,0.6
		s-0.6-0.3-0.6-0.6C139.8,30.2,140,29.9,140.4,29.9z M147,31v-2.6h-4.5v-0.7l4.2-6.2h1.1v6.2h1.4v0.7h-1.4V31H147z M147,22.4
		l-3.7,5.4h3.7V22.4z M151.4,29.1c0.5,0.8,1.5,1.3,2.7,1.3c1.5,0,2.4-0.8,2.4-2c0-1.4-1.1-1.9-2.5-1.9c-0.4,0-0.7,0-0.9,0v-0.8
		c0.1,0,0.5,0,0.9,0c1.3,0,2.4-0.5,2.4-1.8c0-1.2-1.1-1.8-2.3-1.8c-1.1,0-1.9,0.4-2.5,1.2l-0.5-0.5c0.7-0.8,1.7-1.4,3.1-1.4
		c1.7,0,3.1,0.9,3.1,2.5c0,1.5-1.2,2.1-2,2.2c0.8,0.1,2.2,0.8,2.2,2.4c0,1.6-1.2,2.7-3.2,2.7c-1.6,0-2.7-0.7-3.2-1.6L151.4,29.1z"/>
	<path class="st5" d="M209.7,32.1v-0.7c3.2-2.6,5.4-4.5,5.4-6.3c0-1.4-1.1-1.9-2.2-1.9c-1.2,0-2.1,0.5-2.6,1.2l-0.6-0.5
		c0.7-0.9,1.8-1.5,3.2-1.5s3,0.8,3,2.7c0,2.1-2.2,4-5,6.2h5V32L209.7,32.1L209.7,32.1z M218.7,31c0.3,0,0.6,0.3,0.6,0.6
		s-0.3,0.6-0.6,0.6s-0.6-0.3-0.6-0.6C218.1,31.3,218.4,31,218.7,31z M225.3,32.1v-2.6h-4.5v-0.7l4.2-6.2h1.1v6.2h1.4v0.7h-1.4v2.6
		H225.3z M225.3,23.4l-3.7,5.4h3.7V23.4z M228.9,32.1v-0.7c3.2-2.6,5.4-4.5,5.4-6.3c0-1.4-1.1-1.9-2.2-1.9c-1.2,0-2.1,0.5-2.6,1.2
		L229,24c0.7-0.9,1.8-1.5,3.2-1.5s3,0.8,3,2.7c0,2.1-2.2,4-5,6.2h5v0.7C235.2,32.1,228.9,32.1,228.9,32.1z"/>
	<path class="st5" d="M281.9,37.9v-0.7c3.2-2.6,5.4-4.5,5.4-6.3c0-1.4-1.1-1.9-2.2-1.9c-1.2,0-2.1,0.5-2.6,1.2l-0.6-0.5
		c0.7-0.9,1.8-1.5,3.2-1.5c1.4,0,3,0.8,3,2.7c0,2.1-2.2,4-5,6.2h5v0.7L281.9,37.9L281.9,37.9z M290.9,36.8c0.3,0,0.6,0.3,0.6,0.6
		s-0.3,0.6-0.6,0.6s-0.6-0.3-0.6-0.6S290.6,36.8,290.9,36.8z M294,36c0.5,0.8,1.5,1.3,2.7,1.3c1.5,0,2.4-0.8,2.4-2
		c0-1.4-1.1-1.9-2.5-1.9c-0.4,0-0.7,0-0.9,0v-0.8c0.1,0,0.5,0,0.9,0c1.3,0,2.4-0.5,2.4-1.8c0-1.2-1.1-1.8-2.3-1.8
		c-1.1,0-1.9,0.4-2.5,1.2l-0.5-0.5c0.7-0.8,1.7-1.4,3.1-1.4c1.7,0,3.1,0.9,3.1,2.5c0,1.5-1.2,2.1-2,2.2c0.8,0.1,2.2,0.8,2.2,2.4
		c0,1.6-1.2,2.7-3.2,2.7c-1.6,0-2.7-0.7-3.2-1.6L294,36z M302.4,36c0.5,0.8,1.5,1.3,2.7,1.3c1.5,0,2.4-0.8,2.4-2
		c0-1.4-1.1-1.9-2.5-1.9c-0.4,0-0.7,0-0.9,0v-0.8c0.1,0,0.5,0,0.9,0c1.3,0,2.4-0.5,2.4-1.8c0-1.2-1.1-1.8-2.3-1.8
		c-1.1,0-1.9,0.4-2.5,1.2l-0.5-0.5c0.7-0.8,1.7-1.4,3.1-1.4c1.7,0,3.1,0.9,3.1,2.5c0,1.5-1.2,2.1-2,2.2c0.8,0.1,2.2,0.8,2.2,2.4
		c0,1.6-1.2,2.7-3.2,2.7c-1.6,0-2.7-0.7-3.2-1.6L302.4,36z"/>
	<path class="st6" d="M358,19.4v-1.6c3.9-2.9,5-3.8,5-5c0-0.8-0.8-1.2-1.5-1.2c-1.1,0-1.9,0.4-2.5,1.1l-1.2-1.3
		c0.9-1.1,2.3-1.6,3.7-1.6c2,0,3.6,1.1,3.6,3c0,1.6-1.3,3-3.8,4.8h3.9v1.8H358z M366.9,18.4c0-0.6,0.5-1.2,1.2-1.2s1.2,0.5,1.2,1.2
		s-0.5,1.2-1.2,1.2S366.9,19,366.9,18.4z M370.7,18.1l1.1-1.4c0.6,0.7,1.5,1,2.5,1c1.1,0,1.8-0.6,1.8-1.4c0-0.8-0.6-1.4-1.7-1.4
		c-0.8,0-1.4,0.2-2,0.8l-1.4-0.4V9.9h6.5v1.8H373V14c0.5-0.5,1.2-0.8,2.1-0.8c1.6,0,3,1.2,3,3.1c0,2-1.5,3.3-3.8,3.3
		C372.7,19.5,371.5,19,370.7,18.1z M379.5,16.9c0-1.2,0.9-2,2-2.4c-1.1-0.4-1.9-1.1-1.9-2.2c0-1.8,1.9-2.5,3.7-2.5
		c1.8,0,3.7,0.7,3.7,2.5c0,1.2-0.8,1.9-1.9,2.2c1.1,0.4,2,1.3,2,2.4c0,1.8-1.8,2.6-3.8,2.6C381.3,19.5,379.5,18.7,379.5,16.9z
		 M385,16.6c0-0.8-1.2-1.2-1.8-1.2c-0.6,0.1-1.8,0.5-1.8,1.2s0.8,1.1,1.8,1.1C384.2,17.7,385,17.3,385,16.6z M384.9,12.6
		c0-0.7-0.7-1.1-1.6-1.1s-1.6,0.4-1.6,1.1s1,1,1.6,1.1C383.9,13.6,384.9,13.3,384.9,12.6z"/>
	<path class="st1" d="M343.1,204.9v-1.5c3.6-2.7,4.7-3.6,4.7-4.7c0-0.8-0.7-1.2-1.4-1.2c-1,0-1.8,0.4-2.4,1l-1.1-1.3
		c0.9-1,2.2-1.5,3.4-1.5c1.9,0,3.4,1.1,3.4,2.8c0,1.5-1.3,2.8-3.6,4.5h3.6v1.7h-6.6V204.9z M351,200.5c0-2.3,1.1-4.6,3.7-4.6
		s3.7,2.3,3.7,4.6s-1.1,4.6-3.7,4.6S351,202.8,351,200.5z M356.4,200.5c0-1.6-0.5-2.9-1.8-2.9s-1.8,1.3-1.8,2.9
		c0,1.6,0.5,2.9,1.8,2.9S356.4,202.1,356.4,200.5z M359.5,204.9v-1.5c3.6-2.7,4.7-3.6,4.7-4.7c0-0.8-0.7-1.2-1.4-1.2
		c-1,0-1.8,0.4-2.4,1l-1.1-1.3c0.9-1,2.2-1.5,3.4-1.5c1.9,0,3.4,1.1,3.4,2.8c0,1.5-1.3,2.8-3.6,4.5h3.6v1.7h-6.6V204.9z
		 M370.6,204.9v-6.5l-1.5,1.5l-1.1-1.1l2.8-2.8h1.7v8.9L370.6,204.9L370.6,204.9z M374.9,202.4V201h3.2v1.4H374.9z M379.1,204.9
		v-1.5c3.6-2.7,4.7-3.6,4.7-4.7c0-0.8-0.7-1.2-1.4-1.2c-1,0-1.8,0.4-2.4,1l-1.1-1.3c0.9-1,2.2-1.5,3.4-1.5c1.9,0,3.4,1.1,3.4,2.8
		c0,1.5-1.3,2.8-3.6,4.5h3.6v1.7h-6.6V204.9z M387.3,204.9v-1.5c3.6-2.7,4.7-3.6,4.7-4.7c0-0.8-0.7-1.2-1.4-1.2c-1,0-1.8,0.4-2.4,1
		l-1.1-1.3c0.9-1,2.2-1.5,3.4-1.5c1.9,0,3.4,1.1,3.4,2.8c0,1.5-1.3,2.8-3.6,4.5h3.6v1.7h-6.6V204.9z"/>
	<path class="st1" d="M269,204.9v-0.6c3-2.4,5.1-4.2,5.1-5.9c0-1.3-1.1-1.8-2-1.8c-1.1,0-2,0.5-2.4,1.2l-0.5-0.5
		c0.6-0.9,1.7-1.4,3-1.4s2.8,0.7,2.8,2.5c0,2-2.1,3.8-4.7,5.8h4.7v0.7H269z M280,195.9c2.4,0,3.3,2.5,3.3,4.6s-0.9,4.6-3.3,4.6
		s-3.3-2.5-3.3-4.6C276.7,198.3,277.6,195.9,280,195.9z M280,196.6c-1.9,0-2.5,2.1-2.5,3.9c0,1.8,0.6,3.9,2.5,3.9s2.5-2.1,2.5-3.9
		C282.4,198.6,281.8,196.6,280,196.6z M284.7,204.9v-0.6c3-2.4,5.1-4.2,5.1-5.9c0-1.3-1.1-1.8-2-1.8c-1.1,0-2,0.5-2.4,1.2l-0.5-0.5
		c0.6-0.9,1.7-1.4,3-1.4s2.8,0.7,2.8,2.5c0,2-2.1,3.8-4.7,5.8h4.7v0.7H284.7z M295.7,195.9c2.4,0,3.3,2.5,3.3,4.6s-0.9,4.6-3.3,4.6
		s-3.3-2.5-3.3-4.6C292.4,198.3,293.3,195.9,295.7,195.9z M295.7,196.6c-1.9,0-2.5,2.1-2.5,3.9c0,1.8,0.6,3.9,2.5,3.9
		s2.5-2.1,2.5-3.9C298.2,198.6,297.6,196.6,295.7,196.6z M300.7,202v-0.6h3.2v0.6H300.7z M304.9,204.9v-0.6c3-2.4,5.1-4.2,5.1-5.9
		c0-1.3-1.1-1.8-2-1.8c-1.1,0-2,0.5-2.4,1.2l-0.5-0.5c0.6-0.9,1.7-1.4,3-1.4s2.8,0.7,2.8,2.5c0,2-2.1,3.8-4.7,5.8h4.7v0.7H304.9z
		 M315.8,204.9V197l-2.1,2.3l-0.5-0.5l2.7-2.8h0.7v8.9H315.8z"/>
	<path class="st1" d="M194.5,204.9v-0.6c3-2.4,5.1-4.2,5.1-5.9c0-1.3-1.1-1.8-2-1.8c-1.1,0-2,0.5-2.4,1.2l-0.5-0.5
		c0.6-0.9,1.7-1.4,3-1.4s2.8,0.7,2.8,2.5c0,2-2.1,3.8-4.7,5.8h4.7v0.7H194.5z M205.5,195.9c2.4,0,3.3,2.5,3.3,4.6s-0.9,4.6-3.3,4.6
		c-2.4,0-3.3-2.5-3.3-4.6C202.2,198.3,203.1,195.9,205.5,195.9z M205.5,196.6c-1.9,0-2.5,2.1-2.5,3.9c0,1.8,0.6,3.9,2.5,3.9
		s2.5-2.1,2.5-3.9C208,198.6,207.4,196.6,205.5,196.6z M213.5,204.9V197l-2.1,2.3l-0.5-0.5l2.7-2.8h0.7v8.9H213.5z M218.1,203.4
		c0.4,0.6,1,1,2,1c2,0,2.6-2,2.6-3.9c0-0.1,0-0.3,0-0.4c-0.4,0.6-1.4,1.5-2.6,1.5c-1.6,0-2.9-0.9-2.9-2.8c0-1.5,1.1-2.8,3-2.8
		c2.4,0,3.3,2.2,3.3,4.6c0,2.3-1,4.6-3.4,4.6c-1.2,0-1.9-0.5-2.4-1.1L218.1,203.4z M220.3,196.5c-1.5,0-2.2,1.2-2.2,2.1
		c0,1.5,0.9,2.2,2.2,2.2c1,0,1.9-0.6,2.4-1.5C222.6,198.1,221.9,196.5,220.3,196.5z M225.3,202v-0.6h3.2v0.6H225.3z M229.6,204.9
		v-0.6c3-2.4,5.1-4.2,5.1-5.9c0-1.3-1.1-1.8-2-1.8c-1.1,0-2,0.5-2.4,1.2l-0.5-0.5c0.6-0.9,1.7-1.4,3-1.4s2.8,0.7,2.8,2.5
		c0,2-2.1,3.8-4.7,5.8h4.7v0.7H229.6z M240.5,195.9c2.4,0,3.3,2.5,3.3,4.6s-0.9,4.6-3.3,4.6c-2.4,0-3.3-2.5-3.3-4.6
		C237.2,198.3,238.1,195.9,240.5,195.9z M240.5,196.6c-1.9,0-2.5,2.1-2.5,3.9c0,1.8,0.6,3.9,2.5,3.9s2.5-2.1,2.5-3.9
		C243,198.6,242.4,196.6,240.5,196.6z"/>
	<path class="st1" d="M120.4,204.9v-0.6c3-2.4,5.1-4.2,5.1-5.9c0-1.3-1.1-1.8-2-1.8c-1.1,0-2,0.5-2.4,1.2l-0.5-0.5
		c0.6-0.9,1.7-1.4,3-1.4s2.8,0.7,2.8,2.5c0,2-2.1,3.8-4.7,5.8h4.7v0.7H120.4z M131.4,195.9c2.4,0,3.3,2.5,3.3,4.6s-0.9,4.6-3.3,4.6
		s-3.3-2.5-3.3-4.6C128,198.3,129,195.9,131.4,195.9z M131.4,196.6c-1.9,0-2.5,2.1-2.5,3.9c0,1.8,0.6,3.9,2.5,3.9s2.5-2.1,2.5-3.9
		C133.8,198.6,133.2,196.6,131.4,196.6z M139.4,204.9V197l-2.1,2.3l-0.5-0.5l2.7-2.8h0.7v8.9H139.4z M145.5,200.3
		c-1.1-0.3-2.1-1-2.1-2.2c0-1.6,1.5-2.3,2.9-2.3s2.9,0.7,2.9,2.3c0,1.2-1,1.9-2.1,2.2c1.1,0.3,2.2,1.1,2.2,2.4c0,1.4-1.3,2.4-3,2.4
		s-3-0.9-3-2.4C143.3,201.4,144.4,200.6,145.5,200.3z M146.3,200.7c-0.5,0.1-2.3,0.6-2.3,2c0,1.1,1.1,1.8,2.3,1.8s2.3-0.7,2.3-1.8
		C148.6,201.3,146.8,200.7,146.3,200.7z M146.3,196.6c-1.2,0-2.1,0.6-2.1,1.7c0,1.2,1.6,1.6,2.1,1.8c0.5-0.1,2.1-0.5,2.1-1.8
		C148.4,197.2,147.5,196.6,146.3,196.6z M151.1,202v-0.6h3.2v0.6H151.1z M158.3,204.9V197l-2.1,2.3l-0.5-0.5l2.7-2.8h0.7v8.9H158.3z
		 M162.9,203.4c0.4,0.6,1,1,2,1c2,0,2.6-2,2.6-3.9c0-0.1,0-0.3,0-0.4c-0.4,0.6-1.4,1.5-2.6,1.5c-1.6,0-2.9-0.9-2.9-2.8
		c0-1.5,1.1-2.8,3-2.8c2.4,0,3.3,2.2,3.3,4.6c0,2.3-1,4.6-3.4,4.6c-1.2,0-1.9-0.5-2.4-1.1L162.9,203.4z M165.1,196.5
		c-1.5,0-2.2,1.2-2.2,2.1c0,1.5,0.9,2.2,2.2,2.2c1,0,1.9-0.6,2.4-1.5C167.4,198.1,166.7,196.5,165.1,196.5z"/>
	<path class="st1" d="M46.2,204.9v-0.6c3-2.4,5.1-4.2,5.1-5.9c0-1.3-1.1-1.8-2-1.8c-1.1,0-2,0.5-2.4,1.2l-0.5-0.5
		c0.6-0.9,1.7-1.4,3-1.4s2.8,0.7,2.8,2.5c0,2-2.1,3.8-4.7,5.8h4.7v0.7H46.2z M57.2,195.9c2.4,0,3.3,2.5,3.3,4.6s-0.9,4.6-3.3,4.6
		s-3.3-2.5-3.3-4.6C53.9,198.3,54.8,195.9,57.2,195.9z M57.2,196.6c-1.9,0-2.5,2.1-2.5,3.9c0,1.8,0.6,3.9,2.5,3.9s2.5-2.1,2.5-3.9
		C59.7,198.6,59.1,196.6,57.2,196.6z M65.2,204.9V197l-2.1,2.3l-0.5-0.5l2.7-2.8H66v8.9H65.2z M70.2,204.9l3.8-8.2h-5V196h5.8v0.5
		l-3.8,8.4H70.2z M75.8,202v-0.6H79v0.6H75.8z M83,204.9V197l-2.1,2.3l-0.5-0.5l2.7-2.8h0.7v8.9H83z M89.1,200.3
		c-1.1-0.3-2.1-1-2.1-2.2c0-1.6,1.5-2.3,2.9-2.3s2.9,0.7,2.9,2.3c0,1.2-1,1.9-2.1,2.2c1.1,0.3,2.2,1.1,2.2,2.4c0,1.4-1.3,2.4-3,2.4
		s-3-0.9-3-2.4C86.9,201.4,88,200.6,89.1,200.3z M89.9,200.7c-0.5,0.1-2.3,0.6-2.3,2c0,1.1,1.1,1.8,2.3,1.8c1.2,0,2.3-0.7,2.3-1.8
		C92.2,201.3,90.5,200.7,89.9,200.7z M89.9,196.6c-1.2,0-2.1,0.6-2.1,1.7c0,1.2,1.6,1.6,2.1,1.8c0.5-0.1,2.1-0.5,2.1-1.8
		C92.1,197.2,91.1,196.6,89.9,196.6z"/>
</g>
</svg>
