<?xml version="1.0" encoding="utf-8"?>
<!-- Generator: Adobe Illustrator 26.4.0, SVG Export Plug-In . SVG Version: 6.00 Build 0)  -->
<svg version="1.1" id="Layer_1" xmlns="http://www.w3.org/2000/svg" xmlns:xlink="http://www.w3.org/1999/xlink" x="0px" y="0px"
	 viewBox="0 0 398.9 206.1" style="enable-background:new 0 0 398.9 206.1;" xml:space="preserve">
<style type="text/css">
	.st0{fill:#0069AA;}
	.st1{clip-path:url(#SVGID_00000158717144965876202400000007800691684026951045_);fill:#076AAA;}
	.st2{fill:none;stroke:#FFFFFF;}
	.st3{fill:#076AAA;}
	.st4{filter:url(#Adobe_OpacityMaskFilter);}
	.st5{fill:url(#SVGID_00000029024428795399690390000011723996753525497271_);}
	.st6{mask:url(#SVGID_00000039112685295461285380000012491317942487156364_);}
	.st7{clip-path:url(#SVGID_00000100365156844648314880000013368398928566476988_);fill:#939598;}
	.st8{fill:#4E4E50;}
	.st9{filter:url(#Adobe_OpacityMaskFilter_00000160909111373201302320000002067659657483290774_);}
	.st10{fill:url(#SVGID_00000065038836930031285820000002331852363798568118_);}
	.st11{mask:url(#SVGID_00000124135977867137624470000013780259181630839968_);}
	.st12{clip-path:url(#SVGID_00000101811477624840116880000006222240667130119853_);fill:#939598;}
	.st13{filter:url(#Adobe_OpacityMaskFilter_00000005239906359050970250000002405808356758759566_);}
	.st14{fill:url(#SVGID_00000049928901397055656830000000461724555709156286_);}
	.st15{mask:url(#SVGID_00000057136509092573337370000011874261030899704204_);}
	.st16{clip-path:url(#SVGID_00000090989710145882208450000009515980156242236299_);fill:#939598;}
	.st17{filter:url(#Adobe_OpacityMaskFilter_00000020365992322585128830000001340884652446493361_);}
	.st18{fill:url(#SVGID_00000029723903579117160270000017517521901735055491_);}
	.st19{mask:url(#SVGID_00000112593235381003241290000011016968082717101204_);}
	.st20{clip-path:url(#SVGID_00000128454374396410183480000016605708767912968838_);fill:#939598;}
</style>
<g>
	<path class="st0" d="M0.2,205.9v-1.3c4-3,5.8-4.6,5.8-6.3c0-1.2-1-1.8-2.1-1.8c-1.3,0-2.2,0.5-2.9,1.3l-1-1
		c0.9-1.1,2.3-1.7,3.8-1.7c1.9,0,3.7,1.1,3.7,3.2c0,2.1-2,3.9-4.9,6.2h5v1.4L0.2,205.9L0.2,205.9z M13.6,195.1
		c2.9,0,4.1,2.8,4.1,5.5c0,2.6-1.2,5.5-4.1,5.5s-4.2-2.9-4.2-5.5C9.5,198,10.7,195.1,13.6,195.1z M13.6,196.5c-1.9,0-2.5,2-2.5,4
		c0,2.1,0.7,4.1,2.5,4.1c1.9,0,2.5-2,2.5-4.1C16.1,198.5,15.5,196.5,13.6,196.5z M19.3,205.9v-1.3c4-3,5.8-4.6,5.8-6.3
		c0-1.2-1-1.8-2.1-1.8c-1.3,0-2.2,0.5-2.9,1.3l-1-1c0.9-1.1,2.3-1.7,3.8-1.7c1.9,0,3.7,1.1,3.7,3.2c0,2.1-2,3.9-4.9,6.2h5v1.4
		L19.3,205.9L19.3,205.9z M32.1,205.9v-8.5l-2,2l-0.9-1l3.1-3.2h1.4v10.6L32.1,205.9L32.1,205.9z M37.1,202.7v-1.2h3.8v1.2H37.1z
		 M42.1,205.9v-1.3c4-3,5.8-4.6,5.8-6.3c0-1.2-1-1.8-2.1-1.8c-1.3,0-2.2,0.5-2.9,1.3l-1-1c0.9-1.1,2.3-1.7,3.8-1.7
		c1.9,0,3.7,1.1,3.7,3.2c0,2.1-2,3.9-4.9,6.2h5v1.4L42.1,205.9L42.1,205.9z M51.7,205.9v-1.3c4-3,5.8-4.6,5.8-6.3
		c0-1.2-1-1.8-2.1-1.8c-1.3,0-2.2,0.5-2.9,1.3l-1-1c0.9-1.1,2.3-1.7,3.8-1.7c1.9,0,3.7,1.1,3.7,3.2c0,2.1-2,3.9-4.9,6.2h5v1.4
		L51.7,205.9L51.7,205.9z"/>
	<path d="M86.8,205.8V205c3.6-2.9,6-5,6-7c0-1.5-1.3-2.2-2.4-2.2c-1.3,0-2.3,0.6-2.9,1.4l-0.6-0.6c0.7-1,2-1.6,3.5-1.6
		c1.6,0,3.3,0.9,3.3,3c0,2.3-2.5,4.5-5.5,6.9h5.6v0.8h-7V205.8z M99.9,195c2.8,0,3.9,2.9,3.9,5.5c0,2.5-1.1,5.5-3.9,5.5
		s-3.9-3-3.9-5.5C95.9,198,97,195,99.9,195z M99.9,195.9c-2.2,0-3,2.4-3,4.6c0,2.2,0.7,4.7,3,4.7s3-2.5,3-4.7
		C102.8,198.3,102.1,195.9,99.9,195.9z M105.5,205.8V205c3.6-2.9,6-5,6-7c0-1.5-1.3-2.2-2.4-2.2c-1.3,0-2.3,0.6-2.9,1.4l-0.6-0.6
		c0.7-1,2-1.6,3.5-1.6c1.6,0,3.3,0.9,3.3,3c0,2.3-2.5,4.5-5.5,6.9h5.6v0.8h-7V205.8z M118.6,195c2.8,0,3.9,2.9,3.9,5.5
		c0,2.5-1.1,5.5-3.9,5.5s-3.9-3-3.9-5.5C114.6,198,115.7,195,118.6,195z M118.6,195.9c-2.2,0-3,2.4-3,4.6c0,2.2,0.7,4.7,3,4.7
		s3-2.5,3-4.7C121.5,198.3,120.8,195.9,118.6,195.9z M124.5,202.3v-0.8h3.8v0.8H124.5z M129.5,205.8V205c3.6-2.9,6-5,6-7
		c0-1.5-1.3-2.2-2.4-2.2c-1.3,0-2.3,0.6-2.9,1.4l-0.6-0.6c0.7-1,2-1.6,3.5-1.6c1.6,0,3.3,0.9,3.3,3c0,2.3-2.5,4.5-5.5,6.9h5.6v0.8
		h-7V205.8z M142.4,205.8v-9.4l-2.5,2.7l-0.6-0.6l3.2-3.3h0.8v10.6H142.4z"/>
	<path d="M171.2,205.7V205c3.6-2.9,6-5,6-7c0-1.5-1.3-2.2-2.4-2.2c-1.3,0-2.3,0.6-2.9,1.4l-0.6-0.6c0.7-1,2-1.6,3.5-1.6
		c1.6,0,3.3,0.9,3.3,3c0,2.3-2.5,4.5-5.5,6.9h5.6v0.8L171.2,205.7L171.2,205.7z M184.2,195c2.8,0,3.9,2.9,3.9,5.5
		c0,2.5-1.1,5.5-3.9,5.5s-3.9-3-3.9-5.5C180.3,197.9,181.4,195,184.2,195z M184.2,195.8c-2.2,0-3,2.4-3,4.6c0,2.2,0.7,4.7,3,4.7
		s3-2.5,3-4.7C187.2,198.2,186.5,195.8,184.2,195.8z M193.7,205.7v-9.4l-2.5,2.7l-0.6-0.6l3.2-3.3h0.8v10.6H193.7z M199.3,203.9
		c0.5,0.7,1.2,1.2,2.3,1.2c2.3,0,3.1-2.4,3.1-4.7c0-0.2,0-0.3,0-0.5c-0.4,0.7-1.7,1.8-3.1,1.8c-1.9,0-3.4-1.1-3.4-3.4
		c0-1.7,1.3-3.4,3.6-3.4c2.9,0,3.9,2.6,3.9,5.5c0,2.7-1.1,5.5-4,5.5c-1.4,0-2.2-0.6-2.9-1.3L199.3,203.9z M201.8,195.8
		c-1.8,0-2.7,1.4-2.7,2.5c0,1.7,1.1,2.6,2.7,2.6c1.2,0,2.3-0.7,2.9-1.8C204.5,197.6,203.8,195.8,201.8,195.8z M207.8,202.2v-0.8h3.8
		v0.8H207.8z M212.8,205.7V205c3.6-2.9,6-5,6-7c0-1.5-1.3-2.2-2.4-2.2c-1.3,0-2.3,0.6-2.9,1.4l-0.6-0.6c0.7-1,2-1.6,3.5-1.6
		c1.6,0,3.3,0.9,3.3,3c0,2.3-2.5,4.5-5.5,6.9h5.6v0.8L212.8,205.7L212.8,205.7z M225.9,195c2.8,0,3.9,2.9,3.9,5.5
		c0,2.5-1.1,5.5-3.9,5.5s-3.9-3-3.9-5.5C221.9,197.9,223,195,225.9,195z M225.9,195.8c-2.2,0-3,2.4-3,4.6c0,2.2,0.7,4.7,3,4.7
		s3-2.5,3-4.7C228.8,198.2,228.1,195.8,225.9,195.8z"/>
	<path d="M257.4,205.6v-0.7c3.6-2.9,6-5,6-7c0-1.5-1.3-2.2-2.4-2.2c-1.3,0-2.3,0.6-2.9,1.4l-0.6-0.6c0.7-1,2-1.6,3.5-1.6
		c1.6,0,3.3,0.9,3.3,3c0,2.3-2.5,4.5-5.5,6.9h5.6v0.8L257.4,205.6L257.4,205.6z M270.5,194.9c2.8,0,3.9,2.9,3.9,5.5
		c0,2.5-1.1,5.5-3.9,5.5s-3.9-3-3.9-5.5C266.5,197.8,267.6,194.9,270.5,194.9z M270.5,195.7c-2.2,0-3,2.4-3,4.6c0,2.2,0.7,4.7,3,4.7
		s3-2.5,3-4.7C273.4,198.1,272.7,195.7,270.5,195.7z M280,205.6v-9.4l-2.5,2.7l-0.6-0.6l3.2-3.3h0.8v10.6H280z M287.2,200.2
		c-1.3-0.3-2.5-1.1-2.5-2.6c0-1.9,1.7-2.7,3.4-2.7c1.7,0,3.4,0.9,3.4,2.7c0,1.4-1.2,2.2-2.5,2.6c1.3,0.4,2.6,1.3,2.6,2.8
		c0,1.7-1.6,2.8-3.6,2.8s-3.6-1.1-3.6-2.8C284.6,201.5,285.9,200.5,287.2,200.2z M288.2,200.6c-0.7,0.1-2.7,0.7-2.7,2.3
		c0,1.3,1.3,2.1,2.7,2.1c1.4,0,2.7-0.8,2.7-2.1C290.9,201.3,288.9,200.6,288.2,200.6z M288.2,195.7c-1.4,0-2.5,0.7-2.5,2
		c0,1.5,1.9,2,2.5,2.1c0.7-0.1,2.5-0.6,2.5-2.1C290.7,196.4,289.6,195.7,288.2,195.7z M293.9,202.2v-0.8h3.8v0.8H293.9z
		 M302.4,205.6v-9.4l-2.5,2.7l-0.6-0.6l3.2-3.3h0.8v10.6H302.4z M308,203.8c0.5,0.7,1.2,1.2,2.3,1.2c2.3,0,3.1-2.4,3.1-4.7
		c0-0.2,0-0.3,0-0.5c-0.4,0.7-1.7,1.8-3.1,1.8c-1.9,0-3.4-1.1-3.4-3.4c0-1.7,1.3-3.4,3.6-3.4c2.9,0,3.9,2.6,3.9,5.5
		c0,2.7-1.1,5.5-4,5.5c-1.4,0-2.2-0.6-2.9-1.3L308,203.8z M310.5,195.7c-1.8,0-2.7,1.4-2.7,2.5c0,1.7,1.1,2.6,2.7,2.6
		c1.2,0,2.3-0.7,2.9-1.8C313.2,197.5,312.5,195.7,310.5,195.7z"/>
	<path d="M343.5,205.8V205c3.6-2.9,6-5,6-7c0-1.5-1.3-2.2-2.4-2.2c-1.3,0-2.3,0.6-2.9,1.4l-0.6-0.6c0.7-1,2-1.6,3.5-1.6
		c1.6,0,3.3,0.9,3.3,3c0,2.3-2.5,4.5-5.5,6.9h5.6v0.8h-7V205.8z M356.6,195c2.8,0,3.9,2.9,3.9,5.5c0,2.5-1.1,5.5-3.9,5.5
		s-3.9-3-3.9-5.5C352.6,198,353.7,195,356.6,195z M356.6,195.9c-2.2,0-3,2.4-3,4.6c0,2.2,0.7,4.7,3,4.7s3-2.5,3-4.7
		C359.5,198.3,358.8,195.9,356.6,195.9z M366.1,205.8v-9.4l-2.5,2.7l-0.6-0.6l3.2-3.3h0.8v10.6H366.1z M372,205.8l4.5-9.8h-5.9v-0.8
		h6.9v0.6l-4.5,10H372z M378.6,202.3v-0.8h3.8v0.8H378.6z M387.2,205.8v-9.4l-2.5,2.7l-0.6-0.6l3.2-3.3h0.8v10.6H387.2z
		 M394.5,200.3c-1.3-0.3-2.5-1.1-2.5-2.6c0-1.9,1.7-2.7,3.4-2.7c1.7,0,3.4,0.9,3.4,2.7c0,1.4-1.2,2.2-2.5,2.6
		c1.3,0.4,2.6,1.3,2.6,2.8c0,1.7-1.6,2.8-3.6,2.8s-3.6-1.1-3.6-2.8C391.9,201.7,393.2,200.7,394.5,200.3z M395.5,200.7
		c-0.7,0.1-2.7,0.7-2.7,2.3c0,1.3,1.3,2.1,2.7,2.1c1.4,0,2.7-0.8,2.7-2.1C398.2,201.4,396.1,200.8,395.5,200.7z M395.5,195.9
		c-1.4,0-2.5,0.7-2.5,2c0,1.5,1.9,2,2.5,2.1c0.7-0.1,2.5-0.6,2.5-2.1C398,196.6,396.9,195.9,395.5,195.9z"/>
	<g>
		<g>
			<g>
				<g>
					<defs>
						<rect id="SVGID_1_" x="9.5" y="21.8" width="28.9" height="177.8"/>
					</defs>
					<clipPath id="SVGID_00000023248268144292568770000007916962288637449147_">
						<use xlink:href="#SVGID_1_"  style="overflow:visible;"/>
					</clipPath>
					
						<rect x="24.3" y="30.8" style="clip-path:url(#SVGID_00000023248268144292568770000007916962288637449147_);fill:#076AAA;" width="12" height="159.7"/>
				</g>
			</g>
		</g>
		<line class="st2" x1="30.3" y1="190.5" x2="30.3" y2="30.8"/>
		<path class="st3" d="M20.1,10.6l1.3-1.7c0.8,0.8,1.8,1.2,3,1.2c1.3,0,2.1-0.8,2.1-1.7c0-1-0.7-1.7-2-1.7c-0.9,0-1.7,0.3-2.4,0.9
			l-1.7-0.5V0.6h7.7v2.1h-5.3v2.8c0.5-0.5,1.5-0.9,2.5-0.9c1.9,0,3.6,1.4,3.6,3.7c0,2.4-1.8,3.9-4.5,3.9
			C22.5,12.3,21.1,11.6,20.1,10.6z M30.5,6.5c0-3.4,1.9-5.8,5.3-5.8c1.4,0,2.5,0.5,3.3,1.2L38,3.7c-0.6-0.6-1.3-0.9-2.2-0.9
			C34.1,2.8,33,4.2,33,6c0,0.1,0,0.2,0,0.2c0.5-0.8,1.7-1.5,2.9-1.5c2,0,3.9,1.3,3.9,3.7c0,2.2-1.8,3.9-4.3,3.9
			C32,12.3,30.5,9.6,30.5,6.5z M37.3,8.5c0-1.2-1-1.7-2.1-1.7c-0.8,0-1.7,0.4-2.2,1.1c0.1,1.1,0.7,2.3,2.3,2.3
			C36.6,10.2,37.3,9.3,37.3,8.5z"/>
	</g>
	<g>
		<defs>
			<filter id="Adobe_OpacityMaskFilter" filterUnits="userSpaceOnUse" x="93.4" y="60.8" width="28.9" height="138.7">
				<feColorMatrix  type="matrix" values="1 0 0 0 0  0 1 0 0 0  0 0 1 0 0  0 0 0 1 0"/>
			</filter>
		</defs>
		
			<mask maskUnits="userSpaceOnUse" x="93.4" y="60.8" width="28.9" height="138.7" id="SVGID_00000039112685295461285380000012491317942487156364_">
			<g class="st4">
				
					<linearGradient id="SVGID_00000069366848154823655460000007702349629994536630_" gradientUnits="userSpaceOnUse" x1="-162.9705" y1="-175.6984" x2="-161.9673" y2="-175.6984" gradientTransform="matrix(-2.000000e-15 33.5748 -33.5748 -2.000000e-15 -5759.939 5628.5591)">
					<stop  offset="0" style="stop-color:#FFFFFF"/>
					<stop  offset="1" style="stop-color:#000000"/>
				</linearGradient>
				
					<rect x="-751.1" y="-329.2" style="fill:url(#SVGID_00000069366848154823655460000007702349629994536630_);" width="1780.4" height="597.1"/>
			</g>
		</mask>
		<g class="st6">
			<g>
				<g>
					<defs>
						<rect id="SVGID_00000005241382561698630780000013110515132535967648_" x="93.4" y="60.8" width="28.9" height="138.7"/>
					</defs>
					<clipPath id="SVGID_00000052813767392338943230000014068160979735923350_">
						<use xlink:href="#SVGID_00000005241382561698630780000013110515132535967648_"  style="overflow:visible;"/>
					</clipPath>
					
						<rect x="108.2" y="69.8" style="clip-path:url(#SVGID_00000052813767392338943230000014068160979735923350_);fill:#939598;" width="12" height="120.6"/>
				</g>
			</g>
		</g>
		<line class="st2" x1="114.2" y1="190.5" x2="114.2" y2="30.8"/>
		<path class="st8" d="M110.2,12.2V9.1h-5.3V8.2l5-7.3h1.3v7.3h1.6v0.9h-1.6v3.1H110.2z M110.2,1.9l-4.3,6.4h4.3V1.9z M118.2,12.2
			v-10l-2.7,2.9l-0.6-0.6l3.4-3.6h0.9v11.3H118.2z"/>
	</g>
	<g>
		<defs>
			
				<filter id="Adobe_OpacityMaskFilter_00000109737682069741993140000002919522405434422155_" filterUnits="userSpaceOnUse" x="180.2" y="92" width="28.9" height="107.5">
				<feColorMatrix  type="matrix" values="1 0 0 0 0  0 1 0 0 0  0 0 1 0 0  0 0 0 1 0"/>
			</filter>
		</defs>
		
			<mask maskUnits="userSpaceOnUse" x="180.2" y="92" width="28.9" height="107.5" id="SVGID_00000124135977867137624470000013780259181630839968_">
			<g style="filter:url(#Adobe_OpacityMaskFilter_00000109737682069741993140000002919522405434422155_);">
				
					<linearGradient id="SVGID_00000024685439161441986710000010105916502030560689_" gradientUnits="userSpaceOnUse" x1="-172.6125" y1="-172.6513" x2="-171.6094" y2="-172.6513" gradientTransform="matrix(-1.000000e-15 21.6111 -21.6111 -1.000000e-15 -3534.6848 3899.178)">
					<stop  offset="0" style="stop-color:#FFFFFF"/>
					<stop  offset="1" style="stop-color:#000000"/>
				</linearGradient>
				
					<rect x="-693.7" y="-329.2" style="fill:url(#SVGID_00000024685439161441986710000010105916502030560689_);" width="1780.4" height="597.1"/>
			</g>
		</mask>
		<g class="st11">
			<g>
				<g>
					<defs>
						<rect id="SVGID_00000173845474307434943130000012032813826460106655_" x="180.2" y="92" width="28.9" height="107.5"/>
					</defs>
					<clipPath id="SVGID_00000129194244326852756340000011878444584545511322_">
						<use xlink:href="#SVGID_00000173845474307434943130000012032813826460106655_"  style="overflow:visible;"/>
					</clipPath>
					
						<rect x="195" y="101.1" style="clip-path:url(#SVGID_00000129194244326852756340000011878444584545511322_);fill:#939598;" width="12" height="89.4"/>
				</g>
			</g>
		</g>
		<line class="st2" x1="201" y1="190.5" x2="201" y2="30.8"/>
		<path class="st8" d="M192.1,11.5v-0.8c3.8-3.1,6.4-5.3,6.4-7.5c0-1.6-1.3-2.3-2.6-2.3c-1.4,0-2.5,0.6-3.1,1.5l-0.7-0.6
			c0.8-1.1,2.2-1.7,3.8-1.7c1.7,0,3.6,0.9,3.6,3.2c0,2.5-2.6,4.8-5.9,7.4h5.9v0.9h-7.4V11.5z M203,9.6c0.6,0.7,1.3,1.3,2.5,1.3
			c2.5,0,3.3-2.6,3.3-5c0-0.2,0-0.3,0-0.5c-0.5,0.8-1.8,1.9-3.3,1.9c-2,0-3.6-1.2-3.6-3.6c0-1.8,1.4-3.6,3.8-3.6
			c3,0,4.1,2.8,4.1,5.8c0,2.9-1.2,5.8-4.3,5.8c-1.5,0-2.4-0.6-3-1.4L203,9.6z M205.7,0.9c-1.9,0-2.8,1.5-2.8,2.7
			c0,1.8,1.2,2.7,2.8,2.7c1.2,0,2.4-0.8,3.1-1.9C208.6,2.9,207.8,0.9,205.7,0.9z"/>
	</g>
	<g>
		<defs>
			
				<filter id="Adobe_OpacityMaskFilter_00000181087290888509755990000012135058369978123660_" filterUnits="userSpaceOnUse" x="264.4" y="60.8" width="28.9" height="138.7">
				<feColorMatrix  type="matrix" values="1 0 0 0 0  0 1 0 0 0  0 0 1 0 0  0 0 0 1 0"/>
			</filter>
		</defs>
		
			<mask maskUnits="userSpaceOnUse" x="264.4" y="60.8" width="28.9" height="138.7" id="SVGID_00000057136509092573337370000011874261030899704204_">
			<g style="filter:url(#Adobe_OpacityMaskFilter_00000181087290888509755990000012135058369978123660_);">
				
					<linearGradient id="SVGID_00000129916102381671677350000007693533318335343522_" gradientUnits="userSpaceOnUse" x1="-165.4265" y1="-178.0385" x2="-164.4233" y2="-178.0385" gradientTransform="matrix(-2.000000e-15 29.4255 -29.4255 -2.000000e-15 -4988.1714 5028.769)">
					<stop  offset="0" style="stop-color:#FFFFFF"/>
					<stop  offset="1" style="stop-color:#000000"/>
				</linearGradient>
				
					<rect x="-639.5" y="-329.2" style="fill:url(#SVGID_00000129916102381671677350000007693533318335343522_);" width="1780.4" height="597.1"/>
			</g>
		</mask>
		<g class="st15">
			<g>
				<g>
					<defs>
						<rect id="SVGID_00000008115931515494354970000004467937562779231923_" x="264.4" y="60.8" width="28.9" height="138.7"/>
					</defs>
					<clipPath id="SVGID_00000042007323291327278160000006644406266676582822_">
						<use xlink:href="#SVGID_00000008115931515494354970000004467937562779231923_"  style="overflow:visible;"/>
					</clipPath>
					
						<rect x="279.2" y="69.8" style="clip-path:url(#SVGID_00000042007323291327278160000006644406266676582822_);fill:#939598;" width="12" height="120.6"/>
				</g>
			</g>
		</g>
		<line class="st2" x1="285.2" y1="190.5" x2="285.2" y2="30.8"/>
		<path class="st8" d="M280.8,12.3V9.2h-5.3V8.3l5-7.3h1.3v7.3h1.6v0.9h-1.6v3.1H280.8z M280.8,2l-4.3,6.4h4.3V2z M288.7,12.3v-10
			L286,5.2l-0.6-0.6l3.4-3.6h0.9v11.3H288.7z"/>
	</g>
	<g>
		<defs>
			
				<filter id="Adobe_OpacityMaskFilter_00000176007066629907733940000014454067095641311625_" filterUnits="userSpaceOnUse" x="352.5" y="32.4" width="28.9" height="167.1">
				<feColorMatrix  type="matrix" values="1 0 0 0 0  0 1 0 0 0  0 0 1 0 0  0 0 0 1 0"/>
			</filter>
		</defs>
		
			<mask maskUnits="userSpaceOnUse" x="352.5" y="32.4" width="28.9" height="167.1" id="SVGID_00000112593235381003241290000011016968082717101204_">
			<g style="filter:url(#Adobe_OpacityMaskFilter_00000176007066629907733940000014454067095641311625_);">
				
					<linearGradient id="SVGID_00000143617614917175131550000014525540572358644652_" gradientUnits="userSpaceOnUse" x1="-158.483" y1="-182.1062" x2="-157.4799" y2="-182.1062" gradientTransform="matrix(-3.000000e-15 45.2276 -45.2276 -3.000000e-15 -7927.3257 7312.9917)">
					<stop  offset="0" style="stop-color:#FFFFFF"/>
					<stop  offset="1" style="stop-color:#000000"/>
				</linearGradient>
				
					<rect x="-581.3" y="-329.2" style="fill:url(#SVGID_00000143617614917175131550000014525540572358644652_);" width="1780.4" height="597.1"/>
			</g>
		</mask>
		<g class="st19">
			<g>
				<g>
					<defs>
						<rect id="SVGID_00000058572073651340419720000000741508731015249562_" x="352.5" y="32.4" width="28.9" height="167.1"/>
					</defs>
					<clipPath id="SVGID_00000109025358490197954580000015474890757116622241_">
						<use xlink:href="#SVGID_00000058572073651340419720000000741508731015249562_"  style="overflow:visible;"/>
					</clipPath>
					
						<rect x="367.3" y="41.4" style="clip-path:url(#SVGID_00000109025358490197954580000015474890757116622241_);fill:#939598;" width="12" height="149.1"/>
				</g>
			</g>
		</g>
		<line class="st2" x1="373.3" y1="190.5" x2="373.3" y2="30.8"/>
		<path class="st8" d="M365.4,9.1c0.7,1,1.7,1.6,3.2,1.6c1.6,0,2.8-1.2,2.8-2.7c0-1.7-1.2-2.8-2.8-2.8c-1,0-1.9,0.3-2.7,1.1L365.2,6
			V0.1h6.5V1h-5.5v4.4c0.5-0.5,1.5-1,2.7-1c1.9,0,3.6,1.3,3.6,3.6c0,2.2-1.7,3.6-3.8,3.6c-1.9,0-3-0.7-3.8-1.8L365.4,9.1z
			 M374.4,11.4v-0.8c3.8-3.1,6.4-5.3,6.4-7.5c0-1.6-1.3-2.3-2.6-2.3c-1.4,0-2.5,0.6-3.1,1.5l-0.7-0.6c0.8-1.1,2.2-1.7,3.8-1.7
			c1.7,0,3.6,0.9,3.6,3.2c0,2.5-2.6,4.8-5.9,7.4h5.9v0.9L374.4,11.4L374.4,11.4z"/>
	</g>
</g>
</svg>
