<?xml version="1.0" encoding="utf-8"?>
<!-- Generator: Adobe Illustrator 26.4.0, SVG Export Plug-In . SVG Version: 6.00 Build 0)  -->
<svg version="1.1" id="Layer_1" xmlns="http://www.w3.org/2000/svg" xmlns:xlink="http://www.w3.org/1999/xlink" x="0px" y="0px"
	 viewBox="0 0 398.9 203.2" style="enable-background:new 0 0 398.9 203.2;" xml:space="preserve">
<style type="text/css">
	.st0{fill:#0069AA;}
	.st1{clip-path:url(#SVGID_00000180331370455756322010000014301761866323563136_);fill:#076AAA;}
	.st2{fill:none;stroke:#FFFFFF;}
	.st3{fill:#076AAA;}
	.st4{filter:url(#Adobe_OpacityMaskFilter);}
	.st5{fill:url(#SVGID_00000005988276772567976830000011109416078887055787_);}
	.st6{mask:url(#SVGID_00000049943406733082361770000001346071975869165468_);}
	.st7{clip-path:url(#SVGID_00000073693784641577346350000017263598573062181005_);fill:#939598;}
	.st8{fill:#4E4E50;}
	.st9{filter:url(#Adobe_OpacityMaskFilter_00000150793000154240637440000013725838334019382962_);}
	.st10{fill:url(#SVGID_00000111177182872797279670000012674927228859876281_);}
	.st11{mask:url(#SVGID_00000039824495222213086660000007041240400428281523_);}
	.st12{clip-path:url(#SVGID_00000050622067436533254460000006819431882596158085_);fill:#939598;}
	.st13{filter:url(#Adobe_OpacityMaskFilter_00000026159403682878409450000009725972295890244768_);}
	.st14{fill:url(#SVGID_00000018209442666237355890000000585296757019458990_);}
	.st15{mask:url(#SVGID_00000096022033120765219630000013079101694361215873_);}
	.st16{clip-path:url(#SVGID_00000048493228521270752060000001625569938281861565_);fill:#939598;}
	.st17{filter:url(#Adobe_OpacityMaskFilter_00000142164733957176509310000013787839950707199927_);}
	.st18{fill:url(#SVGID_00000029018796470667438910000003493056341258463129_);}
	.st19{mask:url(#SVGID_00000144328370974143688680000012336369133099364493_);}
	.st20{clip-path:url(#SVGID_00000003786158132600216230000016401917213416884157_);fill:#939598;}
</style>
<g>
	<path class="st0" d="M0.2,203v-1.3c4-3,5.8-4.6,5.8-6.3c0-1.2-1-1.8-2.1-1.8c-1.3,0-2.2,0.5-2.9,1.3l-1-1c0.9-1.1,2.3-1.7,3.8-1.7
		c1.9,0,3.7,1.1,3.7,3.2c0,2.1-2,3.9-4.9,6.2h5v1.4L0.2,203L0.2,203z M13.6,192.2c2.9,0,4.1,2.8,4.1,5.5c0,2.6-1.2,5.5-4.1,5.5
		s-4.2-2.9-4.2-5.5C9.5,195.1,10.7,192.2,13.6,192.2z M13.6,193.6c-1.9,0-2.5,2-2.5,4c0,2.1,0.7,4.1,2.5,4.1c1.9,0,2.5-2,2.5-4.1
		C16.1,195.6,15.5,193.6,13.6,193.6z M19.3,203v-1.3c4-3,5.8-4.6,5.8-6.3c0-1.2-1-1.8-2.1-1.8c-1.3,0-2.2,0.5-2.9,1.3l-1-1
		c0.9-1.1,2.3-1.7,3.8-1.7c1.9,0,3.7,1.1,3.7,3.2c0,2.1-2,3.9-4.9,6.2h5v1.4L19.3,203L19.3,203z M32.1,203v-8.5l-2,2l-0.9-1l3.1-3.2
		h1.4v10.6L32.1,203L32.1,203z M37.1,199.8v-1.2h3.8v1.2H37.1z M42.1,203v-1.3c4-3,5.8-4.6,5.8-6.3c0-1.2-1-1.8-2.1-1.8
		c-1.3,0-2.2,0.5-2.9,1.3l-1-1c0.9-1.1,2.3-1.7,3.8-1.7c1.9,0,3.7,1.1,3.7,3.2c0,2.1-2,3.9-4.9,6.2h5v1.4L42.1,203L42.1,203z
		 M51.7,203v-1.3c4-3,5.8-4.6,5.8-6.3c0-1.2-1-1.8-2.1-1.8c-1.3,0-2.2,0.5-2.9,1.3l-1-1c0.9-1.1,2.3-1.7,3.8-1.7
		c1.9,0,3.7,1.1,3.7,3.2c0,2.1-2,3.9-4.9,6.2h5v1.4L51.7,203L51.7,203z"/>
	<path d="M86.8,202.9v-0.8c3.6-2.9,6-5,6-7c0-1.5-1.3-2.2-2.4-2.2c-1.3,0-2.3,0.6-2.9,1.4l-0.6-0.6c0.7-1,2-1.6,3.5-1.6
		c1.6,0,3.3,0.9,3.3,3c0,2.3-2.5,4.5-5.5,6.9h5.6v0.8h-7V202.9z M99.9,192.1c2.8,0,3.9,2.9,3.9,5.5c0,2.5-1.1,5.5-3.9,5.5
		s-3.9-3-3.9-5.5C95.9,195.1,97,192.1,99.9,192.1z M99.9,193c-2.2,0-3,2.4-3,4.6c0,2.2,0.7,4.7,3,4.7s3-2.5,3-4.7
		C102.8,195.4,102.1,193,99.9,193z M105.5,202.9v-0.8c3.6-2.9,6-5,6-7c0-1.5-1.3-2.2-2.4-2.2c-1.3,0-2.3,0.6-2.9,1.4l-0.6-0.6
		c0.7-1,2-1.6,3.5-1.6c1.6,0,3.3,0.9,3.3,3c0,2.3-2.5,4.5-5.5,6.9h5.6v0.8h-7V202.9z M118.6,192.1c2.8,0,3.9,2.9,3.9,5.5
		c0,2.5-1.1,5.5-3.9,5.5s-3.9-3-3.9-5.5C114.6,195.1,115.7,192.1,118.6,192.1z M118.6,193c-2.2,0-3,2.4-3,4.6c0,2.2,0.7,4.7,3,4.7
		s3-2.5,3-4.7C121.5,195.4,120.8,193,118.6,193z M124.5,199.4v-0.8h3.8v0.8H124.5z M129.5,202.9v-0.8c3.6-2.9,6-5,6-7
		c0-1.5-1.3-2.2-2.4-2.2c-1.3,0-2.3,0.6-2.9,1.4l-0.6-0.6c0.7-1,2-1.6,3.5-1.6c1.6,0,3.3,0.9,3.3,3c0,2.3-2.5,4.5-5.5,6.9h5.6v0.8
		h-7V202.9z M142.4,202.9v-9.4l-2.5,2.7l-0.6-0.6l3.2-3.3h0.8v10.6H142.4z"/>
	<path d="M171.2,202.8v-0.7c3.6-2.9,6-5,6-7c0-1.5-1.3-2.2-2.4-2.2c-1.3,0-2.3,0.6-2.9,1.4l-0.6-0.6c0.7-1,2-1.6,3.5-1.6
		c1.6,0,3.3,0.9,3.3,3c0,2.3-2.5,4.5-5.5,6.9h5.6v0.8L171.2,202.8L171.2,202.8z M184.2,192.1c2.8,0,3.9,2.9,3.9,5.5
		c0,2.5-1.1,5.5-3.9,5.5s-3.9-3-3.9-5.5C180.3,195,181.4,192.1,184.2,192.1z M184.2,192.9c-2.2,0-3,2.4-3,4.6c0,2.2,0.7,4.7,3,4.7
		s3-2.5,3-4.7C187.2,195.3,186.5,192.9,184.2,192.9z M193.7,202.8v-9.4l-2.5,2.7l-0.6-0.6l3.2-3.3h0.8v10.6H193.7z M199.3,201
		c0.5,0.7,1.2,1.2,2.3,1.2c2.3,0,3.1-2.4,3.1-4.7c0-0.2,0-0.3,0-0.5c-0.4,0.7-1.7,1.8-3.1,1.8c-1.9,0-3.4-1.1-3.4-3.4
		c0-1.7,1.3-3.4,3.6-3.4c2.9,0,3.9,2.6,3.9,5.5c0,2.7-1.1,5.5-4,5.5c-1.4,0-2.2-0.6-2.9-1.3L199.3,201z M201.8,192.9
		c-1.8,0-2.7,1.4-2.7,2.5c0,1.7,1.1,2.6,2.7,2.6c1.2,0,2.3-0.7,2.9-1.8C204.5,194.7,203.8,192.9,201.8,192.9z M207.8,199.3v-0.8h3.8
		v0.8H207.8z M212.8,202.8v-0.7c3.6-2.9,6-5,6-7c0-1.5-1.3-2.2-2.4-2.2c-1.3,0-2.3,0.6-2.9,1.4l-0.6-0.6c0.7-1,2-1.6,3.5-1.6
		c1.6,0,3.3,0.9,3.3,3c0,2.3-2.5,4.5-5.5,6.9h5.6v0.8L212.8,202.8L212.8,202.8z M225.9,192.1c2.8,0,3.9,2.9,3.9,5.5
		c0,2.5-1.1,5.5-3.9,5.5s-3.9-3-3.9-5.5C221.9,195,223,192.1,225.9,192.1z M225.9,192.9c-2.2,0-3,2.4-3,4.6c0,2.2,0.7,4.7,3,4.7
		s3-2.5,3-4.7C228.8,195.3,228.1,192.9,225.9,192.9z"/>
	<path d="M257.4,202.7V202c3.6-2.9,6-5,6-7c0-1.5-1.3-2.2-2.4-2.2c-1.3,0-2.3,0.6-2.9,1.4l-0.6-0.6c0.7-1,2-1.6,3.5-1.6
		c1.6,0,3.3,0.9,3.3,3c0,2.3-2.5,4.5-5.5,6.9h5.6v0.8L257.4,202.7L257.4,202.7z M270.5,192c2.8,0,3.9,2.9,3.9,5.5
		c0,2.5-1.1,5.5-3.9,5.5s-3.9-3-3.9-5.5C266.5,194.9,267.6,192,270.5,192z M270.5,192.8c-2.2,0-3,2.4-3,4.6c0,2.2,0.7,4.7,3,4.7
		s3-2.5,3-4.7C273.4,195.2,272.7,192.8,270.5,192.8z M280,202.7v-9.4l-2.5,2.7l-0.6-0.6l3.2-3.3h0.8v10.6H280z M287.2,197.3
		c-1.3-0.3-2.5-1.1-2.5-2.6c0-1.9,1.7-2.7,3.4-2.7c1.7,0,3.4,0.9,3.4,2.7c0,1.4-1.2,2.2-2.5,2.6c1.3,0.4,2.6,1.3,2.6,2.8
		c0,1.7-1.6,2.8-3.6,2.8s-3.6-1.1-3.6-2.8C284.6,198.6,285.9,197.6,287.2,197.3z M288.2,197.7c-0.7,0.1-2.7,0.7-2.7,2.3
		c0,1.3,1.3,2.1,2.7,2.1c1.4,0,2.7-0.8,2.7-2.1C290.9,198.4,288.9,197.7,288.2,197.7z M288.2,192.8c-1.4,0-2.5,0.7-2.5,2
		c0,1.5,1.9,2,2.5,2.1c0.7-0.1,2.5-0.6,2.5-2.1C290.7,193.5,289.6,192.8,288.2,192.8z M293.9,199.3v-0.8h3.8v0.8H293.9z
		 M302.4,202.7v-9.4l-2.5,2.7l-0.6-0.6l3.2-3.3h0.8v10.6H302.4z M308,200.9c0.5,0.7,1.2,1.2,2.3,1.2c2.3,0,3.1-2.4,3.1-4.7
		c0-0.2,0-0.3,0-0.5c-0.4,0.7-1.7,1.8-3.1,1.8c-1.9,0-3.4-1.1-3.4-3.4c0-1.7,1.3-3.4,3.6-3.4c2.9,0,3.9,2.6,3.9,5.5
		c0,2.7-1.1,5.5-4,5.5c-1.4,0-2.2-0.6-2.9-1.3L308,200.9z M310.5,192.8c-1.8,0-2.7,1.4-2.7,2.5c0,1.7,1.1,2.6,2.7,2.6
		c1.2,0,2.3-0.7,2.9-1.8C313.2,194.6,312.5,192.8,310.5,192.8z"/>
	<path d="M343.5,202.9v-0.8c3.6-2.9,6-5,6-7c0-1.5-1.3-2.2-2.4-2.2c-1.3,0-2.3,0.6-2.9,1.4l-0.6-0.6c0.7-1,2-1.6,3.5-1.6
		c1.6,0,3.3,0.9,3.3,3c0,2.3-2.5,4.5-5.5,6.9h5.6v0.8h-7V202.9z M356.6,192.1c2.8,0,3.9,2.9,3.9,5.5c0,2.5-1.1,5.5-3.9,5.5
		s-3.9-3-3.9-5.5C352.6,195.1,353.7,192.1,356.6,192.1z M356.6,193c-2.2,0-3,2.4-3,4.6c0,2.2,0.7,4.7,3,4.7s3-2.5,3-4.7
		C359.5,195.4,358.8,193,356.6,193z M366.1,202.9v-9.4l-2.5,2.7l-0.6-0.6l3.2-3.3h0.8v10.6H366.1z M372,202.9l4.5-9.8h-5.9v-0.8h6.9
		v0.6l-4.5,10H372z M378.6,199.4v-0.8h3.8v0.8H378.6z M387.2,202.9v-9.4l-2.5,2.7l-0.6-0.6l3.2-3.3h0.8v10.6H387.2z M394.5,197.4
		c-1.3-0.3-2.5-1.1-2.5-2.6c0-1.9,1.7-2.7,3.4-2.7c1.7,0,3.4,0.9,3.4,2.7c0,1.4-1.2,2.2-2.5,2.6c1.3,0.4,2.6,1.3,2.6,2.8
		c0,1.7-1.6,2.8-3.6,2.8s-3.6-1.1-3.6-2.8C391.9,198.8,393.2,197.8,394.5,197.4z M395.5,197.8c-0.7,0.1-2.7,0.7-2.7,2.3
		c0,1.3,1.3,2.1,2.7,2.1c1.4,0,2.7-0.8,2.7-2.1C398.2,198.5,396.1,197.9,395.5,197.8z M395.5,193c-1.4,0-2.5,0.7-2.5,2
		c0,1.5,1.9,2,2.5,2.1c0.7-0.1,2.5-0.6,2.5-2.1C398,193.7,396.9,193,395.5,193z"/>
	<g>
		<g>
			<g>
				<g>
					<defs>
						<rect id="SVGID_1_" x="10.6" y="15.8" width="28.9" height="177.9"/>
					</defs>
					<clipPath id="SVGID_00000112631821870472866370000001765987133462198701_">
						<use xlink:href="#SVGID_1_"  style="overflow:visible;"/>
					</clipPath>
					
						<rect x="25.4" y="24.8" style="clip-path:url(#SVGID_00000112631821870472866370000001765987133462198701_);fill:#076AAA;" width="12" height="159.9"/>
				</g>
			</g>
		</g>
		<line class="st2" x1="31.4" y1="184.7" x2="31.4" y2="25"/>
		<path class="st3" d="M21.9,11.5V9.6c4.6-3.4,6-4.6,6-6c0-1-0.9-1.5-1.8-1.5c-1.3,0-2.3,0.5-3,1.3l-1.5-1.5
			c1.1-1.3,2.8-1.8,4.3-1.8c2.4,0,4.3,1.4,4.3,3.6c0,1.9-1.6,3.6-4.5,5.7h4.6v2.1H21.9z M32.5,10.5l1.1-1.8c0.6,0.6,1.3,0.9,2.2,0.9
			c1.9,0,2.8-1.6,2.8-3.2c0-0.1,0-0.2,0-0.3c-0.5,0.8-1.7,1.5-2.9,1.5c-2,0-3.8-1.3-3.8-3.7c0-2.2,1.7-3.9,4.3-3.9
			c3.4,0,4.9,2.6,4.9,5.8c0,3.4-1.9,5.8-5.3,5.8C34.5,11.7,33.3,11.2,32.5,10.5z M38.7,4.4c-0.1-1.1-0.7-2.3-2.3-2.3
			c-1.3,0-2,0.9-2,1.7c0,1.2,1,1.7,2.1,1.7C37.3,5.5,38.1,5.1,38.7,4.4z"/>
	</g>
	<g>
		<defs>
			<filter id="Adobe_OpacityMaskFilter" filterUnits="userSpaceOnUse" x="93.3" y="55.1" width="28.9" height="138.6">
				<feColorMatrix  type="matrix" values="1 0 0 0 0  0 1 0 0 0  0 0 1 0 0  0 0 0 1 0"/>
			</filter>
		</defs>
		
			<mask maskUnits="userSpaceOnUse" x="93.3" y="55.1" width="28.9" height="138.6" id="SVGID_00000049943406733082361770000001346071975869165468_">
			<g class="st4">
				
					<linearGradient id="SVGID_00000026141001277737419850000017423032648321570979_" gradientUnits="userSpaceOnUse" x1="-152.1001" y1="-206.1477" x2="-151.0969" y2="-206.1477" gradientTransform="matrix(-2.000000e-15 34.4057 -34.4057 -2.000000e-15 -6325.4565 5383.2856)">
					<stop  offset="0" style="stop-color:#FFFFFF"/>
					<stop  offset="1" style="stop-color:#000000"/>
				</linearGradient>
				
					<rect x="-123" y="-63.9" style="fill:url(#SVGID_00000026141001277737419850000017423032648321570979_);" width="1780.4" height="597.2"/>
			</g>
		</mask>
		<g class="st6">
			<g>
				<g>
					<defs>
						<rect id="SVGID_00000083786698648587457710000009559576555644378289_" x="93.3" y="55.1" width="28.9" height="138.6"/>
					</defs>
					<clipPath id="SVGID_00000040574961186479177420000000747752112981961884_">
						<use xlink:href="#SVGID_00000083786698648587457710000009559576555644378289_"  style="overflow:visible;"/>
					</clipPath>
					
						<rect x="108.1" y="64.1" style="clip-path:url(#SVGID_00000040574961186479177420000000747752112981961884_);fill:#939598;" width="12" height="120.5"/>
				</g>
			</g>
		</g>
		<line class="st2" x1="114.1" y1="184.7" x2="114.1" y2="25"/>
		<path class="st8" d="M103.6,11.5v-0.8c3.8-3.1,6.4-5.3,6.4-7.5c0-1.6-1.3-2.3-2.6-2.3c-1.4,0-2.5,0.6-3.1,1.5l-0.7-0.6
			c0.8-1.1,2.2-1.7,3.8-1.7c1.7,0,3.6,0.9,3.6,3.2c0,2.5-2.6,4.8-5.9,7.4h5.9v0.9h-7.4V11.5z M113.6,11.5v-0.8
			c3.8-3.1,6.4-5.3,6.4-7.5c0-1.6-1.3-2.3-2.6-2.3c-1.4,0-2.5,0.6-3.1,1.5l-0.7-0.6c0.8-1.1,2.2-1.7,3.8-1.7c1.7,0,3.6,0.9,3.6,3.2
			c0,2.5-2.6,4.8-5.9,7.4h5.9v0.9h-7.4V11.5z"/>
	</g>
	<g>
		<defs>
			
				<filter id="Adobe_OpacityMaskFilter_00000036937131266686418550000001164154665602861723_" filterUnits="userSpaceOnUse" x="180.2" y="77.2" width="28.9" height="116.4">
				<feColorMatrix  type="matrix" values="1 0 0 0 0  0 1 0 0 0  0 0 1 0 0  0 0 0 1 0"/>
			</filter>
		</defs>
		
			<mask maskUnits="userSpaceOnUse" x="180.2" y="77.2" width="28.9" height="116.4" id="SVGID_00000039824495222213086660000007041240400428281523_">
			<g style="filter:url(#Adobe_OpacityMaskFilter_00000036937131266686418550000001164154665602861723_);">
				
					<linearGradient id="SVGID_00000090293209438906243420000017237663886325380286_" gradientUnits="userSpaceOnUse" x1="-154.4891" y1="-214.5643" x2="-153.486" y2="-214.5643" gradientTransform="matrix(-2.000000e-15 25.359 -25.359 -2.000000e-15 -4616.5361 4076.9216)">
					<stop  offset="0" style="stop-color:#FFFFFF"/>
					<stop  offset="1" style="stop-color:#000000"/>
				</linearGradient>
				
					<rect x="-65.6" y="-63.9" style="fill:url(#SVGID_00000090293209438906243420000017237663886325380286_);" width="1780.4" height="597.2"/>
			</g>
		</mask>
		<g class="st11">
			<g>
				<g>
					<defs>
						<rect id="SVGID_00000157289469802196716510000018404902275331886005_" x="180.2" y="77.2" width="28.9" height="116.4"/>
					</defs>
					<clipPath id="SVGID_00000139287222681036661150000017053948357117159067_">
						<use xlink:href="#SVGID_00000157289469802196716510000018404902275331886005_"  style="overflow:visible;"/>
					</clipPath>
					
						<rect x="195" y="86.3" style="clip-path:url(#SVGID_00000139287222681036661150000017053948357117159067_);fill:#939598;" width="12" height="98.4"/>
				</g>
			</g>
		</g>
		<line class="st2" x1="201" y1="184.7" x2="201" y2="25"/>
		<path class="st8" d="M195.8,11.5v-10l-2.7,2.9l-0.6-0.6l3.4-3.6h0.9v11.3C196.8,11.5,195.8,11.5,195.8,11.5z M203.6,5.6
			c-1.3-0.4-2.6-1.2-2.6-2.7c0-2,1.9-2.9,3.7-2.9s3.7,0.9,3.7,2.9c0,1.5-1.3,2.4-2.6,2.7c1.4,0.4,2.8,1.4,2.8,3c0,1.8-1.7,3-3.8,3
			c-2.2,0-3.8-1.2-3.8-3C200.8,7.1,202.1,6,203.6,5.6z M204.6,6.1c-0.7,0.1-2.9,0.8-2.9,2.5c0,1.4,1.4,2.2,2.9,2.2s2.9-0.8,2.9-2.2
			C207.5,6.8,205.3,6.2,204.6,6.1z M204.6,0.9c-1.5,0-2.7,0.8-2.7,2.1c0,1.6,2,2.1,2.7,2.2c0.7-0.1,2.7-0.6,2.7-2.2
			C207.3,1.7,206.1,0.9,204.6,0.9z"/>
	</g>
	<g>
		<defs>
			
				<filter id="Adobe_OpacityMaskFilter_00000095299810647789102480000008286754630490394274_" filterUnits="userSpaceOnUse" x="264.4" y="49.6" width="28.9" height="144">
				<feColorMatrix  type="matrix" values="1 0 0 0 0  0 1 0 0 0  0 0 1 0 0  0 0 0 1 0"/>
			</filter>
		</defs>
		
			<mask maskUnits="userSpaceOnUse" x="264.4" y="49.6" width="28.9" height="144" id="SVGID_00000096022033120765219630000013079101694361215873_">
			<g style="filter:url(#Adobe_OpacityMaskFilter_00000095299810647789102480000008286754630490394274_);">
				
					<linearGradient id="SVGID_00000075141749150146837430000011226784594464784522_" gradientUnits="userSpaceOnUse" x1="-152.7311" y1="-211.3266" x2="-151.728" y2="-211.3266" gradientTransform="matrix(-2.000000e-15 31.4425 -31.4425 -2.000000e-15 -5765.7363 4955.3979)">
					<stop  offset="0" style="stop-color:#FFFFFF"/>
					<stop  offset="1" style="stop-color:#000000"/>
				</linearGradient>
				
					<rect x="-11.3" y="-63.9" style="fill:url(#SVGID_00000075141749150146837430000011226784594464784522_);" width="1780.4" height="597.2"/>
			</g>
		</mask>
		<g class="st15">
			<g>
				<g>
					<defs>
						<rect id="SVGID_00000083808220182391385590000013880553407380953232_" x="264.4" y="49.6" width="28.9" height="144"/>
					</defs>
					<clipPath id="SVGID_00000093875051450445349180000004089850470079725969_">
						<use xlink:href="#SVGID_00000083808220182391385590000013880553407380953232_"  style="overflow:visible;"/>
					</clipPath>
					
						<rect x="279.2" y="58.6" style="clip-path:url(#SVGID_00000093875051450445349180000004089850470079725969_);fill:#939598;" width="12" height="126"/>
				</g>
			</g>
		</g>
		<line class="st2" x1="285.2" y1="184.7" x2="285.2" y2="25"/>
		<path class="st8" d="M276.5,11.5v-0.8c3.8-3.1,6.4-5.3,6.4-7.5c0-1.6-1.3-2.3-2.6-2.3c-1.4,0-2.5,0.6-3.1,1.5l-0.7-0.6
			c0.8-1.1,2.2-1.7,3.8-1.7c1.7,0,3.6,0.9,3.6,3.2c0,2.5-2.6,4.8-5.9,7.4h5.9v0.9h-7.4V11.5z M287,9.2c0.6,0.9,1.7,1.6,3.2,1.6
			c1.7,0,2.8-0.9,2.8-2.4c0-1.6-1.3-2.3-3-2.3c-0.5,0-0.9,0-1,0V5.2c0.2,0,0.6,0,1,0c1.5,0,2.9-0.6,2.9-2.1c0-1.4-1.3-2.2-2.7-2.2
			c-1.3,0-2.2,0.5-3,1.4l-0.6-0.6c0.8-1,2-1.7,3.7-1.7c2,0,3.6,1.1,3.6,3c0,1.7-1.5,2.5-2.4,2.6c1,0.1,2.6,0.9,2.6,2.8
			s-1.4,3.2-3.8,3.2c-1.8,0-3.2-0.9-3.8-1.9L287,9.2z"/>
	</g>
	<g>
		<defs>
			
				<filter id="Adobe_OpacityMaskFilter_00000060729639085920244870000018353793437561649075_" filterUnits="userSpaceOnUse" x="353.3" y="21.5" width="28.9" height="172.1">
				<feColorMatrix  type="matrix" values="1 0 0 0 0  0 1 0 0 0  0 0 1 0 0  0 0 0 1 0"/>
			</filter>
		</defs>
		
			<mask maskUnits="userSpaceOnUse" x="353.3" y="21.5" width="28.9" height="172.1" id="SVGID_00000144328370974143688680000012336369133099364493_">
			<g style="filter:url(#Adobe_OpacityMaskFilter_00000060729639085920244870000018353793437561649075_);">
				
					<linearGradient id="SVGID_00000053542537508497386350000016942394342833690043_" gradientUnits="userSpaceOnUse" x1="-150.2978" y1="-205.1309" x2="-149.2946" y2="-205.1309" gradientTransform="matrix(-3.000000e-15 47.074 -47.074 -3.000000e-15 -8718.5332 7212.623)">
					<stop  offset="0" style="stop-color:#FFFFFF"/>
					<stop  offset="1" style="stop-color:#000000"/>
				</linearGradient>
				
					<rect x="47.6" y="-63.9" style="fill:url(#SVGID_00000053542537508497386350000016942394342833690043_);" width="1780.4" height="597.2"/>
			</g>
		</mask>
		<g class="st19">
			<g>
				<g>
					<defs>
						<rect id="SVGID_00000043440899811946090730000000585842642107791033_" x="353.3" y="21.5" width="28.9" height="172.1"/>
					</defs>
					<clipPath id="SVGID_00000070824252071594457810000012376188942699649409_">
						<use xlink:href="#SVGID_00000043440899811946090730000000585842642107791033_"  style="overflow:visible;"/>
					</clipPath>
					
						<rect x="368.1" y="30.5" style="clip-path:url(#SVGID_00000070824252071594457810000012376188942699649409_);fill:#939598;" width="12" height="154.1"/>
				</g>
			</g>
		</g>
		<line class="st2" x1="374.1" y1="184.7" x2="374.1" y2="25"/>
		<path class="st8" d="M363.4,11.5v-0.8c3.8-3.1,6.4-5.3,6.4-7.5c0-1.6-1.3-2.3-2.6-2.3c-1.4,0-2.5,0.6-3.1,1.5l-0.7-0.6
			c0.8-1.1,2.2-1.7,3.8-1.7c1.7,0,3.6,0.9,3.6,3.2c0,2.5-2.6,4.8-5.9,7.4h5.9v0.9h-7.4V11.5z M376.1,5.6c-1.3-0.4-2.6-1.2-2.6-2.7
			c0-2,1.9-2.9,3.7-2.9c1.8,0,3.7,0.9,3.7,2.9c0,1.5-1.3,2.4-2.6,2.7c1.4,0.4,2.8,1.4,2.8,3c0,1.8-1.7,3-3.8,3c-2.2,0-3.8-1.2-3.8-3
			C373.3,7.1,374.7,6,376.1,5.6z M377.1,6.1c-0.7,0.1-2.9,0.8-2.9,2.5c0,1.4,1.4,2.2,2.9,2.2S380,10,380,8.6
			C380,6.8,377.8,6.2,377.1,6.1z M377.1,0.9c-1.5,0-2.7,0.8-2.7,2.1c0,1.6,2,2.1,2.7,2.2c0.7-0.1,2.7-0.6,2.7-2.2
			C379.8,1.7,378.6,0.9,377.1,0.9z"/>
	</g>
</g>
</svg>
