<?xml version="1.0" encoding="utf-8"?>
<!-- Generator: Adobe Illustrator 26.4.0, SVG Export Plug-In . SVG Version: 6.00 Build 0)  -->
<svg version="1.1" id="Layer_1" xmlns="http://www.w3.org/2000/svg" xmlns:xlink="http://www.w3.org/1999/xlink" x="0px" y="0px"
	 viewBox="0 0 595.3 61.7" style="enable-background:new 0 0 595.3 61.7;" xml:space="preserve">
<style type="text/css">
	.st0{fill:#0069AA;}
	.st1{fill:#E3E7F2;}
	.st2{fill:none;stroke:#0069AA;stroke-width:0.5;stroke-miterlimit:10;}
	.st3{fill:none;stroke:#0069AA;stroke-width:0.75;stroke-miterlimit:10;}
	.st4{fill:#FFFFFF;}
	.st5{fill:#4D4D4F;}
</style>
<g>
	<rect x="503.8" y="0.2" class="st0" width="91.5" height="30.6"/>
	<rect x="503.8" y="30.8" class="st1" width="91.5" height="30.6"/>
	<line class="st2" x1="0" y1="0.2" x2="137.7" y2="0.2"/>
	<line class="st2" x1="137.7" y1="0.2" x2="229.2" y2="0.2"/>
	<line class="st2" x1="229.2" y1="0.2" x2="320.8" y2="0.2"/>
	<line class="st2" x1="320.8" y1="0.2" x2="412.3" y2="0.2"/>
	<line class="st2" x1="412.3" y1="0.2" x2="503.8" y2="0.2"/>
	<line class="st2" x1="503.8" y1="0.2" x2="595.3" y2="0.2"/>
	<line class="st2" x1="0" y1="30.8" x2="137.7" y2="30.8"/>
	<line class="st3" x1="0" y1="61.3" x2="137.7" y2="61.3"/>
	<line class="st2" x1="137.7" y1="30.8" x2="229.2" y2="30.8"/>
	<line class="st3" x1="137.7" y1="61.3" x2="229.2" y2="61.3"/>
	<line class="st2" x1="229.2" y1="30.8" x2="320.8" y2="30.8"/>
	<line class="st3" x1="229.2" y1="61.3" x2="320.8" y2="61.3"/>
	<line class="st2" x1="320.8" y1="30.8" x2="412.3" y2="30.8"/>
	<line class="st3" x1="320.8" y1="61.3" x2="412.3" y2="61.3"/>
	<line class="st2" x1="412.3" y1="30.8" x2="503.8" y2="30.8"/>
	<line class="st3" x1="412.3" y1="61.3" x2="503.8" y2="61.3"/>
	<line class="st2" x1="503.8" y1="30.8" x2="595.3" y2="30.8"/>
	<line class="st3" x1="503.8" y1="61.3" x2="595.3" y2="61.3"/>
	<path d="M153.8,22.5v-0.9c4.3-3.5,7.3-6,7.3-8.5c0-1.8-1.5-2.6-2.9-2.6c-1.6,0-2.8,0.7-3.5,1.7l-0.7-0.7c0.9-1.2,2.5-2,4.2-2
		c1.9,0,4,1.1,4,3.6c0,2.8-3,5.4-6.7,8.4h6.7v1C162.2,22.5,153.8,22.5,153.8,22.5z M169.5,9.7c3.4,0,4.7,3.5,4.7,6.6
		c0,3-1.3,6.6-4.7,6.6s-4.7-3.6-4.7-6.6C164.8,13.2,166.1,9.7,169.5,9.7z M169.5,10.7c-2.7,0-3.6,2.9-3.6,5.6c0,2.6,0.9,5.6,3.6,5.6
		c2.7,0,3.6-3,3.6-5.6C173,13.5,172.2,10.7,169.5,10.7z M180.9,22.5V11.2l-3,3.2l-0.7-0.7l3.8-4h1v12.8H180.9z M188.1,22.5l5.4-11.8
		h-7.1v-1h8.3v0.8l-5.4,12H188.1z M196.1,18.3v-0.9h4.6v0.9H196.1z M206.4,22.5V11.2l-3,3.2l-0.7-0.7l3.8-4h1v12.8H206.4z M215.2,16
		c-1.5-0.4-3-1.4-3-3.1c0-2.3,2.1-3.3,4.1-3.3s4.1,1,4.1,3.3c0,1.7-1.5,2.7-3,3.1c1.6,0.4,3.2,1.6,3.2,3.4c0,2.1-1.9,3.4-4.3,3.4
		c-2.5,0-4.3-1.3-4.3-3.4C212,17.5,213.6,16.5,215.2,16z M216.4,16.5c-0.8,0.1-3.2,0.9-3.2,2.8c0,1.6,1.5,2.5,3.2,2.5s3.2-1,3.2-2.5
		C219.6,17.3,217.2,16.5,216.4,16.5z M216.4,10.7c-1.7,0-3,0.9-3,2.4c0,1.8,2.3,2.4,3,2.5c0.8-0.2,3-0.7,3-2.5
		C219.4,11.5,218.1,10.7,216.4,10.7z"/>
	<path d="M243.7,22.5v-0.9c4.3-3.5,7.3-6,7.3-8.5c0-1.8-1.5-2.6-2.9-2.6c-1.6,0-2.8,0.7-3.5,1.7l-0.7-0.7c0.9-1.2,2.5-2,4.2-2
		c1.9,0,4,1.1,4,3.6c0,2.8-3,5.4-6.7,8.4h6.7v1C252.1,22.5,243.7,22.5,243.7,22.5z M259.4,9.7c3.4,0,4.7,3.5,4.7,6.6
		c0,3-1.3,6.6-4.7,6.6s-4.7-3.6-4.7-6.6C254.7,13.2,256,9.7,259.4,9.7z M259.4,10.7c-2.7,0-3.6,2.9-3.6,5.6c0,2.6,0.9,5.6,3.6,5.6
		s3.6-3,3.6-5.6C262.9,13.5,262.1,10.7,259.4,10.7z M270.8,22.5V11.2l-3,3.2l-0.7-0.7l3.8-4h1v12.8H270.8z M279.6,16
		c-1.5-0.4-3-1.4-3-3.1c0-2.3,2.1-3.3,4.1-3.3s4.1,1,4.1,3.3c0,1.7-1.5,2.7-3,3.1c1.6,0.4,3.2,1.6,3.2,3.4c0,2.1-1.9,3.4-4.3,3.4
		c-2.5,0-4.3-1.3-4.3-3.4C276.5,17.5,278,16.5,279.6,16z M280.8,16.5c-0.8,0.1-3.2,0.9-3.2,2.8c0,1.6,1.5,2.5,3.2,2.5s3.2-1,3.2-2.5
		C284,17.3,281.6,16.5,280.8,16.5z M280.8,10.7c-1.7,0-3,0.9-3,2.4c0,1.8,2.3,2.4,3,2.5c0.8-0.2,3-0.7,3-2.5
		C283.8,11.5,282.5,10.7,280.8,10.7z M287.6,18.3v-0.9h4.6v0.9H287.6z M297.9,22.5V11.2l-3,3.2l-0.7-0.7l3.8-4h1v12.8H297.9z
		 M304.6,20.3c0.6,0.8,1.4,1.4,2.8,1.4c2.8,0,3.8-2.9,3.8-5.6c0-0.2,0-0.4,0-0.6c-0.5,0.9-2,2.1-3.7,2.1c-2.3,0-4.1-1.3-4.1-4.1
		c0-2.1,1.6-4.1,4.3-4.1c3.4,0,4.7,3.2,4.7,6.6c0,3.3-1.4,6.6-4.9,6.6c-1.7,0-2.7-0.7-3.4-1.6L304.6,20.3z M307.7,10.5
		c-2.2,0-3.2,1.7-3.2,3.1c0,2.1,1.4,3.1,3.2,3.1c1.4,0,2.8-0.9,3.5-2.2C311,12.8,310,10.5,307.7,10.5z"/>
	<path d="M333.5,22.5v-0.9c4.3-3.5,7.3-6,7.3-8.5c0-1.8-1.5-2.6-2.9-2.6c-1.6,0-2.8,0.7-3.5,1.7l-0.7-0.7c0.9-1.2,2.5-2,4.2-2
		c1.9,0,4,1.1,4,3.6c0,2.8-3,5.4-6.7,8.4h6.7v1C341.9,22.5,333.5,22.5,333.5,22.5z M349.2,9.7c3.4,0,4.7,3.5,4.7,6.6
		c0,3-1.3,6.6-4.7,6.6s-4.7-3.6-4.7-6.6C344.5,13.2,345.8,9.7,349.2,9.7z M349.2,10.7c-2.7,0-3.6,2.9-3.6,5.6c0,2.6,0.9,5.6,3.6,5.6
		s3.6-3,3.6-5.6C352.8,13.5,351.9,10.7,349.2,10.7z M360.7,22.5V11.2l-3,3.2l-0.7-0.7l3.8-4h1v12.8H360.7z M367.3,20.3
		c0.6,0.8,1.4,1.4,2.8,1.4c2.8,0,3.8-2.9,3.8-5.6c0-0.2,0-0.4,0-0.6c-0.5,0.9-2,2.1-3.7,2.1c-2.3,0-4.1-1.3-4.1-4.1
		c0-2.1,1.6-4.1,4.3-4.1c3.4,0,4.7,3.2,4.7,6.6c0,3.3-1.4,6.6-4.9,6.6c-1.7,0-2.7-0.7-3.4-1.6L367.3,20.3z M370.4,10.5
		c-2.2,0-3.2,1.7-3.2,3.1c0,2.1,1.4,3.1,3.2,3.1c1.4,0,2.8-0.9,3.5-2.2C373.7,12.8,372.8,10.5,370.4,10.5z M377.6,18.3v-0.9h4.6v0.9
		H377.6z M383.7,22.5v-0.9c4.3-3.5,7.3-6,7.3-8.5c0-1.8-1.5-2.6-2.9-2.6c-1.6,0-2.8,0.7-3.5,1.7l-0.7-0.7c0.9-1.2,2.5-2,4.2-2
		c1.9,0,4,1.1,4,3.6c0,2.8-3,5.4-6.7,8.4h6.7v1C392.1,22.5,383.7,22.5,383.7,22.5z M399.4,9.7c3.4,0,4.7,3.5,4.7,6.6
		c0,3-1.3,6.6-4.7,6.6s-4.7-3.6-4.7-6.6C394.7,13.2,396,9.7,399.4,9.7z M399.4,10.7c-2.7,0-3.6,2.9-3.6,5.6c0,2.6,0.9,5.6,3.6,5.6
		s3.6-3,3.6-5.6C403,13.5,402.1,10.7,399.4,10.7z"/>
	<path d="M424.2,22.5v-0.9c4.3-3.5,7.3-6,7.3-8.5c0-1.8-1.5-2.6-2.9-2.6c-1.6,0-2.8,0.7-3.5,1.7l-0.7-0.7c0.9-1.2,2.5-2,4.2-2
		c1.9,0,4,1.1,4,3.6c0,2.8-3,5.4-6.7,8.4h6.7v1C432.6,22.5,424.2,22.5,424.2,22.5z M440,9.7c3.4,0,4.7,3.5,4.7,6.6
		c0,3-1.3,6.6-4.7,6.6s-4.7-3.6-4.7-6.6C435.2,13.2,436.5,9.7,440,9.7z M440,10.7c-2.7,0-3.6,2.9-3.6,5.6c0,2.6,0.9,5.6,3.6,5.6
		s3.6-3,3.6-5.6C443.5,13.5,442.7,10.7,440,10.7z M446.8,22.5v-0.9c4.3-3.5,7.3-6,7.3-8.5c0-1.8-1.5-2.6-2.9-2.6
		c-1.6,0-2.8,0.7-3.5,1.7l-0.7-0.7c0.9-1.2,2.5-2,4.2-2c1.9,0,4,1.1,4,3.6c0,2.8-3,5.4-6.7,8.4h6.7v1
		C455.2,22.5,446.8,22.5,446.8,22.5z M462.5,9.7c3.4,0,4.7,3.5,4.7,6.6c0,3-1.3,6.6-4.7,6.6s-4.7-3.6-4.7-6.6
		C457.8,13.2,459.1,9.7,462.5,9.7z M462.5,10.7c-2.7,0-3.6,2.9-3.6,5.6c0,2.6,0.9,5.6,3.6,5.6s3.6-3,3.6-5.6
		C466.1,13.5,465.2,10.7,462.5,10.7z M469.7,18.3v-0.9h4.6v0.9H469.7z M475.7,22.5v-0.9c4.3-3.5,7.3-6,7.3-8.5
		c0-1.8-1.5-2.6-2.9-2.6c-1.6,0-2.8,0.7-3.5,1.7l-0.7-0.7c0.9-1.2,2.5-2,4.2-2c1.9,0,4,1.1,4,3.6c0,2.8-3,5.4-6.7,8.4h6.7v1
		C484.1,22.5,475.7,22.5,475.7,22.5z M491.3,22.5V11.2l-3,3.2l-0.7-0.7l3.8-4h1v12.8H491.3z"/>
	<path class="st4" d="M514,22.5v-2.1c5.2-3.9,6.8-5.2,6.8-6.7c0-1.1-1-1.7-2.1-1.7c-1.5,0-2.6,0.6-3.4,1.5l-1.6-1.8
		c1.2-1.4,3.1-2.1,4.9-2.1c2.7,0,4.9,1.5,4.9,4.1c0,2.2-1.8,4.1-5.1,6.5h5.2v2.4H514V22.5z M525.3,16.2c0-3.3,1.6-6.6,5.3-6.6
		s5.3,3.3,5.3,6.6s-1.6,6.6-5.3,6.6C527,22.8,525.3,19.5,525.3,16.2z M533.1,16.2c0-2.4-0.7-4.2-2.5-4.2s-2.5,1.8-2.5,4.2
		s0.7,4.2,2.5,4.2C532.4,20.3,533.1,18.5,533.1,16.2z M537.5,22.5v-2.1c5.2-3.9,6.8-5.2,6.8-6.7c0-1.1-1-1.7-2.1-1.7
		c-1.5,0-2.6,0.6-3.4,1.5l-1.6-1.8c1.2-1.4,3.1-2.1,4.9-2.1c2.7,0,4.9,1.5,4.9,4.1c0,2.2-1.8,4.1-5.1,6.5h5.2v2.4h-9.6V22.5z
		 M553.4,22.5v-9.3l-2.1,2.2l-1.6-1.6l4-4h2.4v12.8h-2.7V22.5z M559.6,19v-2.1h4.6V19H559.6z M565.6,22.5v-2.1
		c5.2-3.9,6.8-5.2,6.8-6.7c0-1.1-1-1.7-2.1-1.7c-1.5,0-2.6,0.6-3.4,1.5l-1.6-1.8c1.2-1.4,3.1-2.1,4.9-2.1c2.7,0,4.9,1.5,4.9,4.1
		c0,2.2-1.8,4.1-5.1,6.5h5.2v2.4h-9.6V22.5z M577.4,22.5v-2.1c5.2-3.9,6.8-5.2,6.8-6.7c0-1.1-1-1.7-2.1-1.7c-1.5,0-2.6,0.6-3.4,1.5
		l-1.6-1.8c1.2-1.4,3.1-2.1,4.9-2.1c2.7,0,4.9,1.5,4.9,4.1c0,2.2-1.8,4.1-5.1,6.5h5.2v2.4h-9.6V22.5z"/>
	<g>
		<path d="M10.7,56.9C9,54.7,8,51.6,8,48.6c0-3.1,1-6.1,2.7-8.5l0.9,0.7c-1.2,2.4-2,4.6-2,7.8c0,3.2,0.8,5.4,2,7.8L10.7,56.9z"/>
		<path d="M14,48.2v-7.8h1.6v7.8c0,2.3,1.3,3.8,3.6,3.8c2.4,0,3.6-1.5,3.6-3.8v-7.8h1.6v7.8c0,3.2-1.7,5.2-5.2,5.2
			C15.7,53.3,14,51.3,14,48.2z"/>
		<path d="M26.9,51.3l0.9-1.2c0.8,0.9,2.2,1.8,4,1.8c2.3,0,3-1.2,3-2.2c0-3.3-7.6-1.5-7.6-6c0-2.1,1.9-3.5,4.4-3.5
			c2,0,3.5,0.6,4.5,1.8l-1,1.2c-1-1.1-2.3-1.5-3.7-1.5c-1.5,0-2.6,0.8-2.6,2c0,2.9,7.6,1.2,7.6,6c0,1.9-1.3,3.7-4.7,3.7
			C29.6,53.3,28,52.6,26.9,51.3z"/>
		<path d="M43,53.3c-2-0.1-3.4-0.9-4.4-2l0.9-1.2c0.7,0.8,1.9,1.6,3.4,1.8v-4.7c-2-0.5-4-1.2-4-3.5c0-2,1.7-3.4,4-3.5v-1.8h1.2v1.8
			c1.6,0.2,2.8,0.8,3.8,1.7l-1,1.2c-0.8-0.8-1.7-1.3-2.8-1.5v4.1c2,0.6,4.1,1.3,4.1,3.8c0,1.7-1.1,3.5-4.1,3.7v1.7H43V53.3z
			 M43,45.6v-3.9c-1.4,0.1-2.3,0.9-2.3,2C40.6,44.8,41.7,45.2,43,45.6z M44.1,47.7V52c1.8-0.2,2.4-1.3,2.4-2.2
			C46.5,48.6,45.5,48.1,44.1,47.7z"/>
		<path d="M66.4,53.2V42.7l-4.3,10.5h-0.7l-4.3-10.5v10.5h-1.6V40.3h2.3l4,9.6l4-9.6H68v12.8H66.4z"/>
		<path d="M77.7,53.2v-6c0-1.6-0.8-2.1-2.1-2.1c-1.1,0-2.2,0.7-2.7,1.4v6.7h-1.4V44h1.4v1.3c0.7-0.8,1.9-1.6,3.3-1.6
			c1.9,0,2.9,1,2.9,3v6.5C79.1,53.2,77.7,53.2,77.7,53.2z"/>
		<path d="M80.9,56.2c1.2-2.4,2-4.6,2-7.8c0-3.2-0.8-5.4-2-7.8l0.9-0.7c1.7,2.4,2.7,5.4,2.7,8.5s-1,6.1-2.7,8.5L80.9,56.2z"/>
	</g>
	<path class="st5" d="M172.9,51.4c0.8,1.1,2.1,1.9,3.8,1.9c2.1,0,3.4-1.1,3.4-2.9c0-2-1.6-2.8-3.6-2.8c-0.6,0-1.1,0-1.3,0v-1.1
		c0.2,0,0.7,0,1.3,0c1.8,0,3.4-0.8,3.4-2.6c0-1.7-1.5-2.6-3.3-2.6c-1.5,0-2.7,0.6-3.6,1.7l-0.7-0.7c1-1.2,2.5-2.1,4.4-2.1
		c2.4,0,4.4,1.3,4.4,3.6c0,2.1-1.8,3-2.9,3.2c1.2,0.1,3.1,1.1,3.1,3.4c0,2.2-1.7,3.9-4.6,3.9c-2.2,0-3.9-1-4.6-2.3L172.9,51.4z
		 M183.8,56.2c0.7-0.4,1.1-1.2,1.2-1.9h-0.2c-0.5,0-0.8-0.4-0.8-0.9s0.4-0.9,0.9-0.9c0.6,0,1,0.5,1,1.3c0,1.1-0.7,2.2-1.5,2.8
		L183.8,56.2z M194.3,54.2v-3.7h-6.4v-1l6-8.8h1.6v8.8h2v1.1h-2v3.7L194.3,54.2L194.3,54.2z M194.3,41.8l-5.2,7.7h5.2V41.8z
		 M199.5,54.2v-1c4.6-3.7,7.7-6.4,7.7-9c0-2-1.6-2.8-3.1-2.8c-1.7,0-3,0.7-3.7,1.8l-0.8-0.7c1-1.3,2.6-2.1,4.5-2.1
		c2,0,4.3,1.1,4.3,3.8c0,3-3.2,5.7-7.1,8.9h7.2v1.1C208.5,54.2,199.5,54.2,199.5,54.2z M216.5,40.3c1.8,0,2.9,0.7,3.7,1.7l-0.7,0.9
		c-0.7-0.9-1.5-1.5-3-1.5c-2.9,0-4,3.1-4,6c0,0.2,0,0.4,0,0.6c0.6-0.9,2.1-2.3,4-2.3c2.4,0,4.4,1.4,4.4,4.3c0,2.2-1.7,4.3-4.6,4.3
		c-3.7,0-5-3.4-5-7C211.3,43.8,212.8,40.3,216.5,40.3z M216.3,46.8c-1.5,0-2.9,1-3.7,2.3c0.2,1.9,1.1,4.2,3.7,4.2
		c2.3,0,3.4-1.8,3.4-3.3C219.7,47.8,218.3,46.8,216.3,46.8z"/>
	<path class="st5" d="M263.7,51.4c0.8,1.1,2.1,1.9,3.8,1.9c2.1,0,3.4-1.1,3.4-2.9c0-2-1.6-2.8-3.6-2.8c-0.6,0-1.1,0-1.3,0v-1.1
		c0.2,0,0.7,0,1.3,0c1.8,0,3.4-0.8,3.4-2.6c0-1.7-1.5-2.6-3.3-2.6c-1.5,0-2.7,0.6-3.6,1.7l-0.7-0.7c1-1.2,2.5-2.1,4.4-2.1
		c2.4,0,4.4,1.3,4.4,3.6c0,2.1-1.8,3-2.9,3.2c1.2,0.1,3.1,1.1,3.1,3.4c0,2.2-1.7,3.9-4.6,3.9c-2.2,0-3.9-1-4.6-2.3L263.7,51.4z
		 M274.6,56.2c0.7-0.4,1.1-1.2,1.2-1.9h-0.2c-0.5,0-0.8-0.4-0.8-0.9s0.4-0.9,0.9-0.9c0.6,0,1,0.5,1,1.3c0,1.1-0.7,2.2-1.5,2.8
		L274.6,56.2z M283.6,40.3c3.6,0,5,3.8,5,7s-1.4,7-5,7s-5-3.8-5-7S280,40.3,283.6,40.3z M283.6,41.4c-2.9,0-3.8,3.1-3.8,6
		c0,2.8,0.9,6,3.8,6s3.8-3.2,3.8-6C287.4,44.6,286.5,41.4,283.6,41.4z M290.9,54.2v-1c4.6-3.7,7.7-6.4,7.7-9c0-2-1.6-2.8-3.1-2.8
		c-1.7,0-3,0.7-3.7,1.8l-0.8-0.7c1-1.3,2.6-2.1,4.5-2.1c2,0,4.3,1.1,4.3,3.8c0,3-3.2,5.7-7.1,8.9h7.2v1.1
		C299.9,54.2,290.9,54.2,290.9,54.2z M302.9,54.2v-1c4.6-3.7,7.7-6.4,7.7-9c0-2-1.6-2.8-3.1-2.8c-1.7,0-3,0.7-3.7,1.8l-0.8-0.7
		c1-1.3,2.6-2.1,4.5-2.1c2,0,4.3,1.1,4.3,3.8c0,3-3.2,5.7-7.1,8.9h7.2v1.1C311.9,54.2,302.9,54.2,302.9,54.2z"/>
	<path class="st5" d="M356.7,54.2v-1c4.6-3.7,7.7-6.4,7.7-9c0-2-1.6-2.8-3.1-2.8c-1.7,0-3,0.7-3.7,1.8l-0.8-0.7
		c1-1.3,2.6-2.1,4.5-2.1c2,0,4.3,1.1,4.3,3.8c0,3-3.2,5.7-7.1,8.9h7.2v1.1C365.7,54.2,356.7,54.2,356.7,54.2z M368.6,56.2
		c0.7-0.4,1.1-1.2,1.2-1.9h-0.2c-0.5,0-0.8-0.4-0.8-0.9s0.4-0.9,0.9-0.9c0.6,0,1,0.5,1,1.3c0,1.1-0.7,2.2-1.5,2.8L368.6,56.2z
		 M378,40.3c1.8,0,2.9,0.7,3.7,1.7l-0.7,0.9c-0.7-0.9-1.5-1.5-3-1.5c-2.9,0-4,3.1-4,6c0,0.2,0,0.4,0,0.6c0.6-0.9,2.1-2.3,4-2.3
		c2.4,0,4.4,1.4,4.4,4.3c0,2.2-1.7,4.3-4.6,4.3c-3.7,0-5-3.4-5-7C372.8,43.8,374.3,40.3,378,40.3z M377.8,46.8c-1.5,0-2.9,1-3.7,2.3
		c0.2,1.9,1.1,4.2,3.7,4.2c2.3,0,3.4-1.8,3.4-3.3C381.2,47.8,379.8,46.8,377.8,46.8z M388.5,54.2v-12l-3.2,3.4l-0.7-0.8l4.1-4.3h1.1
		V54h-1.3V54.2z M395.5,51.8c0.7,0.9,1.5,1.5,3,1.5c3,0,4-3.1,4-6c0-0.2,0-0.4,0-0.6c-0.6,0.9-2.1,2.3-4,2.3c-2.4,0-4.4-1.4-4.4-4.3
		c0-2.2,1.7-4.3,4.6-4.3c3.7,0,5,3.4,5,7c0,3.5-1.5,7-5.2,7c-1.8,0-2.9-0.7-3.7-1.7L395.5,51.8z M398.8,41.3c-2.3,0-3.4,1.8-3.4,3.3
		c0,2.2,1.4,3.3,3.4,3.3c1.5,0,2.9-1,3.7-2.3C402.3,43.8,401.3,41.3,398.8,41.3z"/>
	<path class="st5" d="M446.2,51.4c0.8,1.1,2.1,1.9,3.8,1.9c2.1,0,3.4-1.1,3.4-2.9c0-2-1.6-2.8-3.6-2.8c-0.6,0-1.1,0-1.3,0v-1.1
		c0.2,0,0.7,0,1.3,0c1.8,0,3.4-0.8,3.4-2.6c0-1.7-1.5-2.6-3.3-2.6c-1.5,0-2.7,0.6-3.6,1.7l-0.7-0.7c1-1.2,2.5-2.1,4.4-2.1
		c2.4,0,4.4,1.3,4.4,3.6c0,2.1-1.8,3-2.9,3.2c1.2,0.1,3.1,1.1,3.1,3.4c0,2.2-1.7,3.9-4.6,3.9c-2.2,0-3.9-1-4.6-2.3L446.2,51.4z
		 M457.1,56.2c0.7-0.4,1.1-1.2,1.2-1.9h-0.2c-0.5,0-0.8-0.4-0.8-0.9s0.4-0.9,0.9-0.9c0.6,0,1,0.5,1,1.3c0,1.1-0.7,2.2-1.5,2.8
		L457.1,56.2z M466.1,40.3c3.6,0,5,3.8,5,7s-1.4,7-5,7s-5-3.8-5-7S462.5,40.3,466.1,40.3z M466.1,41.4c-2.9,0-3.8,3.1-3.8,6
		c0,2.8,0.9,6,3.8,6s3.8-3.2,3.8-6C469.9,44.6,469,41.4,466.1,41.4z M474.6,51.3c0.9,1.2,2.1,1.9,3.8,1.9c2,0,3.4-1.4,3.4-3.3
		c0-2.1-1.4-3.3-3.4-3.3c-1.2,0-2.3,0.4-3.3,1.3l-0.9-0.4v-7.1h7.9v1.1h-6.7v5.3c0.7-0.7,1.8-1.3,3.2-1.3c2.3,0,4.3,1.5,4.3,4.3
		c0,2.7-2.1,4.4-4.6,4.4c-2.3,0-3.7-0.9-4.6-2.2L474.6,51.3z M492.2,54.2v-3.7h-6.4v-1l6-8.8h1.6v8.8h2v1.1h-2v3.7L492.2,54.2
		L492.2,54.2z M492.2,41.8l-5.2,7.7h5.2V41.8z"/>
	<path class="st0" d="M536.3,51.3l1.4-1.8c0.9,0.9,2.3,1.5,3.5,1.5c1.6,0,2.4-0.7,2.4-1.6c0-1-0.8-1.5-2.6-1.5c-0.5,0-1.4,0-1.6,0
		v-2.5c0.2,0,1.1,0,1.6,0c1.4,0,2.4-0.4,2.4-1.4s-1.1-1.5-2.4-1.5c-1.2,0-2.4,0.5-3.3,1.3l-1.4-1.7c1-1.2,2.6-2,4.9-2
		c3,0,4.8,1.3,4.8,3.5c0,1.6-1.4,2.7-2.8,2.9c1.3,0.1,3,1.1,3,3.1c0,2.2-2,3.8-5,3.8C539,53.3,537.2,52.4,536.3,51.3z M549.4,55.8
		l-1.1-0.9c0.6-0.3,1.3-1.1,1.5-1.8c-0.1,0-0.2,0.1-0.4,0.1c-0.7,0-1.3-0.6-1.3-1.4s0.7-1.5,1.5-1.5c0.9,0,1.7,0.7,1.7,2
		C551.4,53.7,550.6,54.9,549.4,55.8z M553.6,52.1l1.2-2.1c0.7,0.7,1.4,1,2.5,1c2.1,0,3.2-1.8,3.2-3.6c0-0.1,0-0.2,0-0.3
		c-0.6,0.9-1.9,1.6-3.3,1.6c-2.3,0-4.3-1.4-4.3-4.2c0-2.5,2-4.4,4.9-4.4c3.9,0,5.5,3,5.5,6.6c0,3.9-2.2,6.6-6,6.6
		C555.8,53.3,554.5,52.8,553.6,52.1z M560.5,45.2c-0.1-1.2-0.8-2.6-2.6-2.6c-1.5,0-2.3,1-2.3,1.9c0,1.3,1.2,1.9,2.4,1.9
		C559,46.3,559.9,45.9,560.5,45.2z M565,51.4l1.5-1.9c0.9,0.9,2,1.4,3.4,1.4c1.5,0,2.4-0.9,2.4-1.9c0-1.1-0.8-1.9-2.3-1.9
		c-1.1,0-1.9,0.3-2.7,1l-1.9-0.5v-7.3h8.8v2.4h-6v3.1c0.6-0.6,1.6-1.1,2.8-1.1c2.2,0,4.1,1.6,4.1,4.1c0,2.7-2,4.4-5.1,4.4
		C567.7,53.3,566.1,52.7,565,51.4z M582.9,53.2v-2.6h-6.1v-2.1l5.1-8h3.8v7.7h1.6v2.4h-1.6v2.6H582.9z M582.9,42.8l-3.4,5.3h3.4
		V42.8z"/>
</g>
</svg>
