<?xml version="1.0" encoding="utf-8"?>
<!-- Generator: Adobe Illustrator 26.4.0, SVG Export Plug-In . SVG Version: 6.00 Build 0)  -->
<svg version="1.1" id="Layer_1" xmlns="http://www.w3.org/2000/svg" xmlns:xlink="http://www.w3.org/1999/xlink" x="0px" y="0px"
	 viewBox="0 0 400 218.5" style="enable-background:new 0 0 400 218.5;" xml:space="preserve">
<style type="text/css">
	.st0{fill:#0069AA;}
	.st1{clip-path:url(#SVGID_00000022528982090161362930000010859924791090631844_);fill:#0069AA;}
	.st2{fill:none;stroke:#FFFFFF;}
	.st3{fill:#4D4D4F;}
	.st4{filter:url(#Adobe_OpacityMaskFilter);}
	.st5{fill:url(#SVGID_00000034809007983221685400000018302504391719290025_);}
	.st6{mask:url(#SVGID_00000155113935604240981610000010567677826890244239_);}
	.st7{clip-path:url(#SVGID_00000115505410647986727980000000523781820918117545_);fill:#939598;}
	.st8{filter:url(#Adobe_OpacityMaskFilter_00000137092101207001994120000018392649606342893711_);}
	.st9{fill:url(#SVGID_00000000207643303968042800000005853889195477691801_);}
	.st10{mask:url(#SVGID_00000176032168078690883220000017509085269392318635_);}
	.st11{clip-path:url(#SVGID_00000111904235641803749100000018386971826414596272_);fill:#939598;}
	.st12{filter:url(#Adobe_OpacityMaskFilter_00000160876452686064917700000008213125330896121479_);}
	.st13{fill:url(#SVGID_00000113334647820284266320000014599290496652320404_);}
	.st14{mask:url(#SVGID_00000093148831622648047350000003906029183588487839_);}
	.st15{clip-path:url(#SVGID_00000160186982267673260190000006053361299980820390_);fill:#939598;}
	.st16{filter:url(#Adobe_OpacityMaskFilter_00000118398992292495619890000003329144098866557349_);}
	.st17{fill:url(#SVGID_00000147927685322716107600000001456144890734770104_);}
	.st18{mask:url(#SVGID_00000104669764984039155220000017438307077385254804_);}
	.st19{clip-path:url(#SVGID_00000155147914163594764220000018000692457182327971_);fill:#939598;}
</style>
<path class="st0" d="M0.1,218.3v-1.2c4-3,5.8-4.6,5.8-6.3c0-1.2-1-1.8-2.1-1.8c-1.3,0-2.2,0.5-2.9,1.3l-0.9-1
	c0.9-1.1,2.3-1.7,3.8-1.7c1.9,0,3.7,1.1,3.7,3.2c0,2.1-2,3.9-4.9,6.1h4.9v1.4H0.1z M13.5,207.5c2.9,0,4.1,2.8,4.1,5.4
	c0,2.6-1.2,5.5-4.1,5.5s-4.1-2.8-4.1-5.5C9.4,210.3,10.6,207.5,13.5,207.5z M13.5,208.9c-1.9,0-2.5,2-2.5,4c0,2.1,0.6,4,2.5,4
	c1.8,0,2.5-2,2.5-4C16,210.9,15.4,208.9,13.5,208.9z M19.2,218.3v-1.2c4-3,5.8-4.6,5.8-6.3c0-1.2-1-1.8-2.1-1.8
	c-1.3,0-2.2,0.5-2.9,1.3l-0.9-1c0.9-1.1,2.3-1.7,3.8-1.7c1.9,0,3.7,1.1,3.7,3.2c0,2.1-2,3.9-4.9,6.1h5v1.4H19.2z M32.1,218.3v-8.6
	l-1.9,2l-0.9-1l3.1-3.1h1.4v10.6h-1.7V218.3z M37.1,215.1v-1.2h3.8v1.2H37.1z M42.1,218.3v-1.2c4-3,5.8-4.6,5.8-6.3
	c0-1.2-1-1.8-2.1-1.8c-1.3,0-2.2,0.5-2.9,1.3l-0.9-1c0.9-1.1,2.3-1.7,3.8-1.7c1.9,0,3.7,1.1,3.7,3.2c0,2.1-2,3.9-4.9,6.1h4.9v1.4
	H42.1z M51.7,218.3v-1.2c4-3,5.8-4.6,5.8-6.3c0-1.2-1-1.8-2.1-1.8c-1.3,0-2.2,0.5-2.9,1.3l-0.9-1c0.9-1.1,2.3-1.7,3.8-1.7
	c1.9,0,3.7,1.1,3.7,3.2c0,2.1-2,3.9-4.9,6.1h4.9v1.4H51.7z"/>
<path d="M86.9,218.2v-0.7c3.6-2.9,6-4.9,6-7.1c0-1.5-1.2-2.1-2.4-2.1c-1.3,0-2.3,0.6-2.9,1.4l-0.6-0.6c0.7-1,2-1.6,3.5-1.6
	c1.5,0,3.3,0.9,3.3,3c0,2.3-2.5,4.4-5.5,7h5.5v0.8h-7V218.2z M100,207.4c2.8,0,3.9,2.9,3.9,5.4c0,2.5-1.1,5.5-3.9,5.5
	c-2.8,0-3.9-3-3.9-5.5C96.1,210.3,97.2,207.4,100,207.4z M100,208.2c-2.2,0-2.9,2.4-2.9,4.6s0.7,4.6,2.9,4.6c2.2,0,2.9-2.5,2.9-4.6
	C102.9,210.6,102.2,208.2,100,208.2z M105.7,218.2v-0.7c3.6-2.9,6-4.9,6-7.1c0-1.5-1.2-2.1-2.4-2.1c-1.3,0-2.3,0.6-2.9,1.4l-0.6-0.6
	c0.7-1,2-1.6,3.5-1.6c1.5,0,3.3,0.9,3.3,3c0,2.3-2.5,4.4-5.5,7h5.5v0.8h-7V218.2z M118.8,207.4c2.8,0,3.9,2.9,3.9,5.4
	c0,2.5-1.1,5.5-3.9,5.5c-2.8,0-3.9-3-3.9-5.5C114.8,210.3,115.9,207.4,118.8,207.4z M118.8,208.2c-2.2,0-2.9,2.4-2.9,4.6
	s0.7,4.6,2.9,4.6s2.9-2.5,2.9-4.6C121.8,210.6,121,208.2,118.8,208.2z M124.7,214.7v-0.8h3.8v0.8H124.7z M129.7,218.2v-0.7
	c3.6-2.9,6-4.9,6-7.1c0-1.5-1.2-2.1-2.4-2.1c-1.3,0-2.3,0.6-2.9,1.4l-0.6-0.6c0.7-1,2-1.6,3.5-1.6s3.3,0.9,3.3,3
	c0,2.3-2.5,4.4-5.5,7h5.5v0.8h-7V218.2z M142.6,218.2v-9.4l-2.5,2.7l-0.6-0.6l3.1-3.3h0.8v10.6L142.6,218.2L142.6,218.2z"/>
<path d="M171.5,218.1v-0.7c3.6-2.9,6-4.9,6-7.1c0-1.5-1.2-2.1-2.4-2.1c-1.3,0-2.3,0.6-2.9,1.4l-0.6-0.6c0.7-1,2-1.6,3.5-1.6
	s3.3,0.9,3.3,3c0,2.3-2.5,4.4-5.5,7h5.5v0.8h-7V218.1z M184.6,207.3c2.8,0,3.9,2.9,3.9,5.4c0,2.5-1.1,5.5-3.9,5.5s-3.9-3-3.9-5.5
	C180.7,210.2,181.8,207.3,184.6,207.3z M184.6,208.1c-2.2,0-2.9,2.4-2.9,4.6c0,2.2,0.7,4.6,2.9,4.6s2.9-2.5,2.9-4.6
	C187.6,210.6,186.9,208.1,184.6,208.1z M194.2,218.1v-9.4l-2.5,2.7l-0.6-0.6l3.1-3.3h0.8v10.6H194.2z M199.7,216.3
	c0.5,0.7,1.2,1.2,2.3,1.2c2.3,0,3.1-2.4,3.1-4.6c0-0.2,0-0.3,0-0.5c-0.4,0.7-1.7,1.8-3.1,1.8c-1.9,0-3.4-1.1-3.4-3.4
	c0-1.7,1.3-3.4,3.5-3.4c2.8,0,3.9,2.6,3.9,5.5c0,2.7-1.1,5.4-4,5.4c-1.4,0-2.2-0.6-2.8-1.3L199.7,216.3z M202.3,208.1
	c-1.8,0-2.7,1.4-2.7,2.5c0,1.7,1.1,2.5,2.6,2.5c1.2,0,2.3-0.7,2.9-1.8C205,209.9,204.3,208.1,202.3,208.1z M208.3,214.7v-0.8h3.8
	v0.8H208.3z M213.3,218.1v-0.7c3.6-2.9,6-4.9,6-7.1c0-1.5-1.2-2.1-2.4-2.1c-1.3,0-2.3,0.6-2.9,1.4l-0.6-0.6c0.7-1,2-1.6,3.5-1.6
	s3.3,0.9,3.3,3c0,2.3-2.5,4.4-5.5,7h5.5v0.8h-7V218.1z M226.3,207.3c2.8,0,3.9,2.9,3.9,5.4c0,2.5-1.1,5.5-3.9,5.5s-3.9-3-3.9-5.5
	C222.4,210.2,223.5,207.3,226.3,207.3z M226.3,208.1c-2.2,0-2.9,2.4-2.9,4.6c0,2.2,0.7,4.6,2.9,4.6s2.9-2.5,2.9-4.6
	C229.4,210.6,228.7,208.1,226.3,208.1z"/>
<path d="M258.1,218v-0.7c3.6-2.9,6-4.9,6-7.1c0-1.5-1.2-2.1-2.4-2.1c-1.3,0-2.3,0.6-2.9,1.4l-0.6-0.6c0.7-1,2-1.6,3.5-1.6
	s3.3,0.9,3.3,3c0,2.3-2.5,4.4-5.5,7h5.5v0.8h-7V218z M271.1,207.2c2.8,0,3.9,2.9,3.9,5.4c0,2.5-1.1,5.5-3.9,5.5s-3.9-3-3.9-5.5
	S268.2,207.2,271.1,207.2z M271.1,208c-2.2,0-2.9,2.4-2.9,4.6c0,2.2,0.7,4.6,2.9,4.6c2.2,0,2.9-2.5,2.9-4.6
	C274.1,210.5,273.4,208,271.1,208z M280.6,218v-9.4l-2.5,2.7l-0.6-0.6l3.1-3.3h0.8V218L280.6,218L280.6,218z M288,212.5
	c-1.2-0.3-2.5-1.1-2.5-2.5c0-1.9,1.7-2.7,3.4-2.7c1.6,0,3.4,0.9,3.4,2.7c0,1.4-1.2,2.2-2.5,2.5c1.3,0.4,2.6,1.3,2.6,2.8
	c0,1.7-1.5,2.8-3.6,2.8c-2,0-3.6-1.1-3.6-2.8C285.3,213.9,286.6,212.8,288,212.5z M288.9,212.9c-0.6,0.1-2.7,0.7-2.7,2.3
	c0,1.3,1.3,2.1,2.7,2.1c1.4,0,2.7-0.8,2.7-2.1C291.6,213.6,289.6,213,288.9,212.9z M288.9,208c-1.4,0-2.5,0.7-2.5,2
	c0,1.5,1.9,1.9,2.5,2.1c0.6-0.1,2.5-0.6,2.5-2.1C291.4,208.8,290.3,208,288.9,208z M294.6,214.6v-0.8h3.8v0.8H294.6z M303.2,218
	v-9.4l-2.5,2.7l-0.6-0.6l3.1-3.3h0.8V218L303.2,218L303.2,218z M308.7,216.2c0.5,0.7,1.2,1.2,2.3,1.2c2.3,0,3.1-2.4,3.1-4.6
	c0-0.2,0-0.3,0-0.5c-0.4,0.7-1.7,1.8-3.1,1.8c-1.9,0-3.4-1.1-3.4-3.4c0-1.7,1.3-3.4,3.5-3.4c2.8,0,3.9,2.6,3.9,5.5
	c0,2.7-1.1,5.4-4,5.4c-1.4,0-2.2-0.6-2.8-1.3L308.7,216.2z M311.3,208c-1.8,0-2.7,1.4-2.7,2.5c0,1.7,1.1,2.5,2.6,2.5
	c1.2,0,2.3-0.7,2.9-1.8C314,209.9,313.3,208,311.3,208z"/>
<path d="M344.4,218.2v-0.7c3.6-2.9,6-4.9,6-7.1c0-1.5-1.2-2.1-2.4-2.1c-1.3,0-2.3,0.6-2.9,1.4l-0.6-0.6c0.7-1,2-1.6,3.5-1.6
	s3.3,0.9,3.3,3c0,2.3-2.5,4.4-5.5,7h5.5v0.8h-7V218.2z M357.5,207.4c2.8,0,3.9,2.9,3.9,5.4c0,2.5-1.1,5.5-3.9,5.5s-3.9-3-3.9-5.5
	C353.6,210.3,354.6,207.4,357.5,207.4z M357.5,208.2c-2.2,0-2.9,2.4-2.9,4.6s0.7,4.6,2.9,4.6c2.2,0,2.9-2.5,2.9-4.6
	C360.4,210.6,359.7,208.2,357.5,208.2z M367,218.2v-9.4l-2.5,2.7l-0.6-0.6l3.1-3.3h0.8v10.6L367,218.2L367,218.2z M373,218.2
	l4.4-9.8h-5.8v-0.8h7v0.6l-4.5,10H373z M379.7,214.7v-0.8h3.8v0.8H379.7z M388.2,218.2v-9.4l-2.5,2.7l-0.6-0.6l3.1-3.3h0.8v10.6
	L388.2,218.2L388.2,218.2z M395.6,212.6c-1.2-0.3-2.5-1.1-2.5-2.5c0-1.9,1.7-2.7,3.4-2.7c1.6,0,3.4,0.9,3.4,2.7
	c0,1.4-1.2,2.2-2.5,2.5c1.3,0.4,2.6,1.3,2.6,2.8c0,1.7-1.5,2.8-3.6,2.8c-2,0-3.6-1.1-3.6-2.8C392.8,214.1,394.2,213,395.6,212.6z
	 M396.5,213.1c-0.6,0.1-2.7,0.7-2.7,2.3c0,1.3,1.3,2.1,2.7,2.1c1.4,0,2.7-0.8,2.7-2.1C399.2,213.9,397.1,213.1,396.5,213.1z
	 M396.5,208.2c-1.4,0-2.5,0.7-2.5,2c0,1.5,1.9,1.9,2.5,2.1c0.6-0.1,2.5-0.6,2.5-2.1C399,208.9,397.9,208.2,396.5,208.2z"/>
<g>
	<path class="st0" d="M2,11.7V9.8C6.6,6.3,8,5.1,8,3.7c0-1-0.9-1.5-1.8-1.5c-1.3,0-2.3,0.5-3,1.3L1.7,2C2.8,0.7,4.5,0.2,6,0.2
		c2.4,0,4.3,1.3,4.3,3.6c0,1.9-1.6,3.6-4.5,5.7h4.6v2.1H2z M12.7,10.7l1.1-1.8C14.4,9.5,15,9.8,16,9.8c1.9,0,2.8-1.6,2.8-3.2
		c0-0.1,0-0.2,0-0.3c-0.5,0.8-1.7,1.4-2.9,1.4c-2,0-3.8-1.3-3.8-3.7c0-2.2,1.7-3.9,4.3-3.9c3.4,0,4.8,2.6,4.8,5.8
		c0,3.4-1.9,5.8-5.2,5.8C14.7,11.8,13.5,11.4,12.7,10.7z M18.8,4.5c-0.1-1-0.7-2.2-2.3-2.2c-1.3,0-2,0.9-2,1.6c0,1.2,1,1.7,2.1,1.7
		C17.5,5.6,18.3,5.2,18.8,4.5z M23.6,14l-0.9-0.8c0.5-0.3,1.2-1,1.3-1.6c-0.1,0-0.2,0.1-0.3,0.1c-0.6,0-1.1-0.5-1.1-1.2
		c0-0.7,0.6-1.3,1.3-1.3c0.8,0,1.5,0.6,1.5,1.7C25.3,12.1,24.6,13.2,23.6,14z M32,11.7V9.4h-5.4v-2l4.5-7.1h3.3v6.8h1.4v2.1h-1.4
		v2.3H32V11.7z M32,2.4l-3,4.7h3V2.4z M42.8,11.7V9.4h-5.4v-2l4.5-7.1h3.3v6.8h1.4v2.1h-1.4v2.3h-2.4V11.7z M42.8,2.4l-3,4.7h3V2.4z
		 M48.1,5.9c0-2.9,1.4-5.8,4.6-5.8c3.2,0,4.6,2.9,4.6,5.8s-1.4,5.8-4.6,5.8C49.6,11.9,48.1,8.9,48.1,5.9z M55,5.9
		c0-2.1-0.6-3.7-2.2-3.7c-1.6,0-2.2,1.6-2.2,3.7s0.6,3.7,2.2,3.7C54.4,9.7,55,8.1,55,5.9z"/>
	<g>
		<g>
			<g>
				<defs>
					<rect id="SVGID_1_" x="20.9" y="24.8" width="16.2" height="170.5"/>
				</defs>
				<clipPath id="SVGID_00000064339195764505124330000014223141730079253890_">
					<use xlink:href="#SVGID_1_"  style="overflow:visible;"/>
				</clipPath>
				
					<rect x="23" y="25.9" style="clip-path:url(#SVGID_00000064339195764505124330000014223141730079253890_);fill:#0069AA;" width="12" height="168.4"/>
			</g>
		</g>
	</g>
	<line class="st2" x1="29" y1="194.3" x2="29" y2="25.9"/>
</g>
<g>
	<path class="st3" d="M89.6,11.9v-0.8c3.8-3.1,6.4-5.3,6.4-7.5c0-1.6-1.3-2.3-2.6-2.3c-1.4,0-2.5,0.6-3.1,1.5l-0.7-0.6
		c0.8-1.1,2.2-1.7,3.7-1.7c1.6,0,3.5,0.9,3.5,3.2c0,2.5-2.6,4.7-5.9,7.5h5.9v0.9h-7.3V11.9z M99.7,11.9v-0.8
		c3.8-3.1,6.4-5.3,6.4-7.5c0-1.6-1.3-2.3-2.6-2.3c-1.4,0-2.5,0.6-3.1,1.5l-0.7-0.6c0.8-1.1,2.2-1.7,3.7-1.7c1.6,0,3.5,0.9,3.5,3.2
		c0,2.5-2.6,4.7-5.9,7.5h5.9v0.9h-7.3V11.9z M109.6,13.5c0.5-0.4,0.9-1,1-1.5h-0.2c-0.4,0-0.7-0.3-0.7-0.7s0.3-0.7,0.7-0.7
		c0.5,0,0.9,0.4,0.9,1.1c0,0.9-0.6,1.8-1.2,2.3L109.6,13.5z M117.4,0.4c1.5,0,2.4,0.6,3,1.4l-0.5,0.7c-0.6-0.7-1.2-1.3-2.5-1.3
		c-2.4,0-3.3,2.5-3.3,4.9c0,0.2,0,0.4,0,0.5c0.5-0.8,1.8-1.9,3.3-1.9c2,0,3.6,1.2,3.6,3.6c0,1.8-1.4,3.6-3.8,3.6
		c-3,0-4.1-2.8-4.1-5.8C113,3.3,114.3,0.4,117.4,0.4z M117.3,5.7c-1.2,0-2.4,0.8-3.1,1.9c0.1,1.5,0.9,3.5,3,3.5
		c1.9,0,2.8-1.5,2.8-2.7C120.1,6.6,118.9,5.7,117.3,5.7z M123.1,11.9v-0.8c3.8-3.1,6.4-5.3,6.4-7.5c0-1.6-1.3-2.3-2.6-2.3
		c-1.4,0-2.5,0.6-3.1,1.5l-0.7-0.6c0.8-1.1,2.2-1.7,3.7-1.7c1.6,0,3.5,0.9,3.5,3.2c0,2.5-2.6,4.7-5.9,7.5h5.9v0.9h-7.3V11.9z
		 M134.1,10c0.6,0.7,1.2,1.2,2.5,1.2c2.5,0,3.3-2.6,3.3-4.9c0-0.2,0-0.3,0-0.5c-0.5,0.8-1.8,1.9-3.3,1.9c-2,0-3.6-1.2-3.6-3.6
		c0-1.8,1.4-3.6,3.8-3.6c3,0,4.1,2.8,4.1,5.8c0,2.9-1.2,5.8-4.3,5.8c-1.5,0-2.4-0.6-3-1.4L134.1,10z M136.8,1.2
		c-1.9,0-2.8,1.5-2.8,2.7c0,1.8,1.2,2.7,2.8,2.7c1.2,0,2.4-0.8,3.1-1.9C139.7,3.2,138.9,1.2,136.8,1.2z"/>
	<defs>
		<filter id="Adobe_OpacityMaskFilter" filterUnits="userSpaceOnUse" x="107.4" y="61.7" width="16.2" height="134.8">
			<feColorMatrix  type="matrix" values="1 0 0 0 0  0 1 0 0 0  0 0 1 0 0  0 0 0 1 0"/>
		</filter>
	</defs>
	
		<mask maskUnits="userSpaceOnUse" x="107.4" y="61.7" width="16.2" height="134.8" id="SVGID_00000155113935604240981610000010567677826890244239_">
		<g class="st4">
			
				<linearGradient id="SVGID_00000121267949042915491950000008279491895319693456_" gradientUnits="userSpaceOnUse" x1="-167.1124" y1="-195.5544" x2="-166.0548" y2="-195.5544" gradientTransform="matrix(-2.000000e-15 35.2291 -35.2291 -2.000000e-15 -6922.6479 6045.5923)">
				<stop  offset="0" style="stop-color:#FFFFFF"/>
				<stop  offset="1" style="stop-color:#000000"/>
			</linearGradient>
			
				<rect x="-944.2" y="-361.9" style="fill:url(#SVGID_00000121267949042915491950000008279491895319693456_);" width="1821.6" height="647.5"/>
		</g>
	</mask>
	<g class="st6">
		<g>
			<g>
				<defs>
					<rect id="SVGID_00000085226036538387698060000015939696514403516307_" x="107.4" y="61.7" width="16.2" height="134.8"/>
				</defs>
				<clipPath id="SVGID_00000014621610044719491530000002646843660011868346_">
					<use xlink:href="#SVGID_00000085226036538387698060000015939696514403516307_"  style="overflow:visible;"/>
				</clipPath>
				
					<rect x="109.5" y="62.9" style="clip-path:url(#SVGID_00000014621610044719491530000002646843660011868346_);fill:#939598;" width="12" height="132.7"/>
			</g>
		</g>
	</g>
	<line class="st2" x1="115.5" y1="195.6" x2="115.5" y2="27.3"/>
</g>
<g>
	<path class="st3" d="M181.2,11.9v-10l-2.6,2.8L178,4.1l3.4-3.5h0.9v11.3C182.3,11.9,181.2,11.9,181.2,11.9z M189,6
		c-1.3-0.4-2.6-1.2-2.6-2.7c0-2,1.9-2.9,3.6-2.9c1.8,0,3.6,0.9,3.6,2.9c0,1.5-1.3,2.4-2.6,2.7c1.4,0.4,2.8,1.4,2.8,3
		c0,1.8-1.6,3-3.8,3s-3.8-1.2-3.8-3C186.1,7.5,187.6,6.4,189,6z M190.1,6.4c-0.7,0.1-2.8,0.8-2.8,2.5c0,1.4,1.3,2.2,2.8,2.2
		c1.5,0,2.8-0.8,2.8-2.2C192.9,7.3,190.7,6.5,190.1,6.4z M190.1,1.3c-1.5,0-2.7,0.8-2.7,2.1c0,1.6,2,2.1,2.7,2.2
		c0.7-0.1,2.7-0.6,2.7-2.2C192.7,2,191.5,1.3,190.1,1.3z M195.9,13.5c0.5-0.4,0.9-1,1-1.5h-0.2c-0.4,0-0.7-0.3-0.7-0.7
		s0.3-0.7,0.7-0.7c0.5,0,0.9,0.4,0.9,1.1c0,0.9-0.6,1.8-1.2,2.3L195.9,13.5z M200.6,9.6c0.7,1,1.7,1.6,3.1,1.6
		c1.6,0,2.8-1.2,2.8-2.7c0-1.7-1.2-2.7-2.8-2.7c-1,0-1.9,0.3-2.7,1.1l-0.7-0.3V0.6h6.5v0.9h-5.5v4.4c0.5-0.5,1.5-1,2.7-1
		c1.9,0,3.6,1.2,3.6,3.6c0,2.2-1.7,3.6-3.8,3.6c-1.9,0-3-0.7-3.8-1.8L200.6,9.6z M214.2,0.4c1.5,0,2.4,0.6,3,1.4l-0.5,0.7
		c-0.6-0.7-1.2-1.3-2.5-1.3c-2.4,0-3.3,2.5-3.3,4.9c0,0.2,0,0.4,0,0.5c0.5-0.8,1.8-1.9,3.3-1.9c2,0,3.6,1.2,3.6,3.6
		c0,1.8-1.4,3.6-3.8,3.6c-3,0-4.1-2.8-4.1-5.8C209.8,3.3,211.1,0.4,214.2,0.4z M214,5.7c-1.2,0-2.4,0.8-3.1,1.9
		c0.1,1.5,0.9,3.5,3,3.5c1.9,0,2.8-1.5,2.8-2.7C216.9,6.6,215.7,5.7,214,5.7z M222.9,11.9v-10l-2.7,2.8l-0.6-0.6l3.4-3.5h0.9v11.3
		C223.9,11.9,222.9,11.9,222.9,11.9z"/>
	<defs>
		
			<filter id="Adobe_OpacityMaskFilter_00000065774940836376951480000018078879623030704007_" filterUnits="userSpaceOnUse" x="193.9" y="82.9" width="16.2" height="113.7">
			<feColorMatrix  type="matrix" values="1 0 0 0 0  0 1 0 0 0  0 0 1 0 0  0 0 0 1 0"/>
		</filter>
	</defs>
	
		<mask maskUnits="userSpaceOnUse" x="193.9" y="82.9" width="16.2" height="113.7" id="SVGID_00000176032168078690883220000017509085269392318635_">
		<g style="filter:url(#Adobe_OpacityMaskFilter_00000065774940836376951480000018078879623030704007_);">
			
				<linearGradient id="SVGID_00000170258461899983114030000000235364669831268482_" gradientUnits="userSpaceOnUse" x1="-166.4568" y1="-197.3609" x2="-165.3992" y2="-197.3609" gradientTransform="matrix(-2.000000e-15 26.348 -26.348 -2.000000e-15 -5176.4932 4553.5498)">
				<stop  offset="0" style="stop-color:#FFFFFF"/>
				<stop  offset="1" style="stop-color:#000000"/>
			</linearGradient>
			
				<rect x="-887.2" y="-361.9" style="fill:url(#SVGID_00000170258461899983114030000000235364669831268482_);" width="1821.6" height="647.5"/>
		</g>
	</mask>
	<g class="st10">
		<g>
			<g>
				<defs>
					<rect id="SVGID_00000018213049282433565720000011873555366959641490_" x="193.9" y="82.9" width="16.2" height="113.7"/>
				</defs>
				<clipPath id="SVGID_00000166656231871288472960000017852960258880168100_">
					<use xlink:href="#SVGID_00000018213049282433565720000011873555366959641490_"  style="overflow:visible;"/>
				</clipPath>
				
					<rect x="196" y="83.9" style="clip-path:url(#SVGID_00000166656231871288472960000017852960258880168100_);fill:#939598;" width="12" height="111.6"/>
			</g>
		</g>
	</g>
	<line class="st2" x1="202.1" y1="195.6" x2="202.1" y2="27.3"/>
</g>
<g>
	<path class="st3" d="M263.5,11.9v-0.8c3.8-3.1,6.4-5.3,6.4-7.5c0-1.6-1.3-2.3-2.6-2.3c-1.4,0-2.5,0.6-3.1,1.5l-0.7-0.6
		c0.8-1.1,2.2-1.7,3.7-1.7c1.6,0,3.5,0.9,3.5,3.2c0,2.5-2.6,4.7-5.9,7.5h5.9v0.9h-7.3V11.9z M277.2,11.9v-10l-2.6,2.8L274,4.1
		l3.4-3.5h0.9v11.3C278.3,11.9,277.2,11.9,277.2,11.9z M282,13.5c0.5-0.4,0.9-1,1-1.5h-0.2c-0.4,0-0.7-0.3-0.7-0.7s0.3-0.7,0.7-0.7
		c0.5,0,0.9,0.4,0.9,1.1c0,0.9-0.6,1.8-1.2,2.3L282,13.5z M288.5,11.9v-10l-2.6,2.8l-0.6-0.6l3.4-3.5h0.9v11.3
		C289.6,11.9,288.5,11.9,288.5,11.9z M297.1,11.9v-10l-2.6,2.8l-0.7-0.6l3.4-3.5h0.9v11.3C298.1,11.9,297.1,11.9,297.1,11.9z
		 M304.8,6c-1.3-0.4-2.6-1.2-2.6-2.7c0-2,1.9-2.9,3.6-2.9c1.8,0,3.6,0.9,3.6,2.9c0,1.5-1.3,2.4-2.6,2.7c1.4,0.4,2.8,1.4,2.8,3
		c0,1.8-1.6,3-3.8,3s-3.8-1.2-3.8-3C302,7.5,303.4,6.4,304.8,6z M305.8,6.4C305.1,6.5,303,7.3,303,9c0,1.4,1.3,2.2,2.8,2.2
		s2.8-0.8,2.8-2.2C308.7,7.3,306.5,6.5,305.8,6.4z M305.8,1.3c-1.5,0-2.7,0.8-2.7,2.1c0,1.6,2,2.1,2.7,2.2c0.7-0.1,2.7-0.6,2.7-2.2
		C308.5,2,307.3,1.3,305.8,1.3z"/>
	<defs>
		
			<filter id="Adobe_OpacityMaskFilter_00000114783010131666921280000017310878359398772386_" filterUnits="userSpaceOnUse" x="278.3" y="66.9" width="16.2" height="127.9">
			<feColorMatrix  type="matrix" values="1 0 0 0 0  0 1 0 0 0  0 0 1 0 0  0 0 0 1 0"/>
		</filter>
	</defs>
	
		<mask maskUnits="userSpaceOnUse" x="278.3" y="66.9" width="16.2" height="127.9" id="SVGID_00000093148831622648047350000003906029183588487839_">
		<g style="filter:url(#Adobe_OpacityMaskFilter_00000114783010131666921280000017310878359398772386_);">
			
				<linearGradient id="SVGID_00000040546142726913869250000016875400720213301131_" gradientUnits="userSpaceOnUse" x1="-166.7633" y1="-199.1628" x2="-165.7057" y2="-199.1628" gradientTransform="matrix(-2.000000e-15 29.0597 -29.0597 -2.000000e-15 -5709.6465 5009.1191)">
				<stop  offset="0" style="stop-color:#FFFFFF"/>
				<stop  offset="1" style="stop-color:#000000"/>
			</linearGradient>
			
				<rect x="-832.8" y="-363.7" style="fill:url(#SVGID_00000040546142726913869250000016875400720213301131_);" width="1821.6" height="647.5"/>
		</g>
	</mask>
	<g class="st14">
		<g>
			<g>
				<defs>
					<rect id="SVGID_00000181791385312367157970000007854451518268123015_" x="278.3" y="66.9" width="16.2" height="127.9"/>
				</defs>
				<clipPath id="SVGID_00000058560473227796256420000004021475147368034708_">
					<use xlink:href="#SVGID_00000181791385312367157970000007854451518268123015_"  style="overflow:visible;"/>
				</clipPath>
				
					<rect x="280.4" y="67.9" style="clip-path:url(#SVGID_00000058560473227796256420000004021475147368034708_);fill:#939598;" width="12" height="125.8"/>
			</g>
		</g>
	</g>
	<line class="st2" x1="286.4" y1="193.8" x2="286.4" y2="25.4"/>
</g>
<g>
	<path class="st3" d="M346.6,11.9v-0.8c3.8-3.1,6.4-5.3,6.4-7.5c0-1.6-1.3-2.3-2.6-2.3c-1.4,0-2.5,0.6-3.1,1.5l-0.7-0.6
		c0.8-1.1,2.2-1.7,3.7-1.7c1.6,0,3.5,0.9,3.5,3.2c0,2.5-2.6,4.7-5.9,7.5h5.9v0.9h-7.3V11.9z M356.7,11.9v-0.8
		c3.8-3.1,6.4-5.3,6.4-7.5c0-1.6-1.3-2.3-2.6-2.3c-1.4,0-2.5,0.6-3.1,1.5l-0.7-0.6c0.8-1.1,2.2-1.7,3.7-1.7c1.6,0,3.5,0.9,3.5,3.2
		c0,2.5-2.6,4.7-5.9,7.5h5.9v0.9h-7.3V11.9z M366.6,13.5c0.5-0.4,0.9-1,1-1.5h-0.2c-0.4,0-0.7-0.3-0.7-0.7s0.3-0.7,0.7-0.7
		c0.5,0,0.9,0.4,0.9,1.1c0,0.9-0.6,1.8-1.2,2.3L366.6,13.5z M374.1,0.4c3,0,4.1,3.1,4.1,5.8s-1.1,5.8-4.1,5.8s-4.2-3.1-4.2-5.8
		C369.9,3.5,371,0.4,374.1,0.4z M374.1,1.3c-2.4,0-3.1,2.6-3.1,4.9s0.8,4.9,3.1,4.9s3.1-2.6,3.1-4.9S376.4,1.3,374.1,1.3z M383.2,6
		c-1.3-0.4-2.6-1.2-2.6-2.7c0-2,1.9-2.9,3.6-2.9c1.8,0,3.6,0.9,3.6,2.9c0,1.5-1.3,2.4-2.6,2.7c1.4,0.4,2.8,1.4,2.8,3
		c0,1.8-1.6,3-3.8,3c-2.2,0-3.8-1.2-3.8-3C380.4,7.5,381.8,6.4,383.2,6z M384.3,6.4c-0.7,0.1-2.8,0.8-2.8,2.5c0,1.4,1.3,2.2,2.8,2.2
		s2.8-0.8,2.8-2.2C387.1,7.3,384.9,6.5,384.3,6.4z M384.3,1.3c-1.5,0-2.7,0.8-2.7,2.1c0,1.6,2,2.1,2.7,2.2C385,5.5,387,5,387,3.4
		C386.9,2,385.7,1.3,384.3,1.3z M390.3,11.9v-0.8c3.8-3.1,6.4-5.3,6.4-7.5c0-1.6-1.3-2.3-2.6-2.3c-1.4,0-2.5,0.6-3.1,1.5l-0.6-0.7
		c0.8-1.1,2.2-1.7,3.7-1.7c1.6,0,3.5,0.9,3.5,3.2c0,2.5-2.6,4.7-5.9,7.5h5.9V12h-7.4V11.9z"/>
	<defs>
		
			<filter id="Adobe_OpacityMaskFilter_00000005235118283091026910000013581551351214216117_" filterUnits="userSpaceOnUse" x="365.2" y="61.6" width="16.2" height="132.2">
			<feColorMatrix  type="matrix" values="1 0 0 0 0  0 1 0 0 0  0 0 1 0 0  0 0 0 1 0"/>
		</filter>
	</defs>
	
		<mask maskUnits="userSpaceOnUse" x="365.2" y="61.6" width="16.2" height="132.2" id="SVGID_00000104669764984039155220000017438307077385254804_">
		<g style="filter:url(#Adobe_OpacityMaskFilter_00000005235118283091026910000013581551351214216117_);">
			
				<linearGradient id="SVGID_00000042718937003980921950000005765431862694407340_" gradientUnits="userSpaceOnUse" x1="-167.2621" y1="-200.1927" x2="-166.2046" y2="-200.1927" gradientTransform="matrix(-2.000000e-15 36.5985 -36.5985 -2.000000e-15 -7191.873 6275.6499)">
				<stop  offset="0" style="stop-color:#FFFFFF"/>
				<stop  offset="1" style="stop-color:#000000"/>
			</linearGradient>
			
				<rect x="-775.9" y="-364.7" style="fill:url(#SVGID_00000042718937003980921950000005765431862694407340_);" width="1821.6" height="647.5"/>
		</g>
	</mask>
	<g class="st18">
		<g>
			<g>
				<defs>
					<rect id="SVGID_00000141416161818033293510000009371793725359650987_" x="365.2" y="61.6" width="16.2" height="132.2"/>
				</defs>
				<clipPath id="SVGID_00000158019926877708623880000015206156552891784341_">
					<use xlink:href="#SVGID_00000141416161818033293510000009371793725359650987_"  style="overflow:visible;"/>
				</clipPath>
				
					<rect x="367.4" y="62.7" style="clip-path:url(#SVGID_00000158019926877708623880000015206156552891784341_);fill:#939598;" width="12" height="130"/>
			</g>
		</g>
	</g>
	<line class="st2" x1="373.4" y1="192.8" x2="373.4" y2="24.5"/>
</g>
</svg>
