<?xml version="1.0" encoding="utf-8"?>
<!-- Generator: Adobe Illustrator 26.4.0, SVG Export Plug-In . SVG Version: 6.00 Build 0)  -->
<svg version="1.1" id="Layer_1" xmlns="http://www.w3.org/2000/svg" xmlns:xlink="http://www.w3.org/1999/xlink" x="0px" y="0px"
	 viewBox="0 0 595.3 157.8" style="enable-background:new 0 0 595.3 157.8;" xml:space="preserve">
<style type="text/css">
	.st0{fill:#0069AA;}
	.st1{fill:#E3E7F2;}
	.st2{fill:none;stroke:#6D6E71;stroke-width:0.25;stroke-miterlimit:10;}
	.st3{fill:none;stroke:#0069AA;stroke-width:0.5;stroke-miterlimit:10;}
	.st4{fill:none;stroke:#0069AA;stroke-width:0.25;stroke-miterlimit:10;}
	.st5{fill:none;stroke:#0069AA;stroke-width:0.75;stroke-miterlimit:10;}
	.st6{fill:#FFFFFF;}
	.st7{fill:none;stroke:#00C0F3;stroke-width:4;}
	.st8{fill:#4D4D4F;}
	.st9{fill:none;stroke:#939598;stroke-width:4;}
	.st10{fill:none;stroke:#F7941E;stroke-width:4;}
	.st11{fill:none;stroke:#0069AA;stroke-width:4;}
</style>
<g>
	<rect x="507.8" y="1.8" class="st0" width="87.4" height="30.8"/>
	<path class="st1" d="M507.8,125.1h87.4v30.8h-87.4V125.1z M507.8,94.3h87.4v30.8h-87.4V94.3z M507.8,63.5h87.4v30.8h-87.4V63.5z
		 M507.8,32.7h87.4v30.8h-87.4V32.7z"/>
	<line class="st2" x1="0" y1="63.5" x2="154.5" y2="63.5"/>
	<line class="st2" x1="0" y1="94.3" x2="154.5" y2="94.3"/>
	<line class="st2" x1="0" y1="125.1" x2="154.5" y2="125.1"/>
	<line class="st3" x1="0" y1="1.8" x2="154.5" y2="1.8"/>
	<line class="st3" x1="154.5" y1="1.8" x2="234.6" y2="1.8"/>
	<line class="st3" x1="234.6" y1="1.8" x2="325.7" y2="1.8"/>
	<line class="st3" x1="325.7" y1="1.8" x2="416.8" y2="1.8"/>
	<line class="st3" x1="416.8" y1="1.8" x2="507.8" y2="1.8"/>
	<line class="st3" x1="507.8" y1="1.8" x2="595.3" y2="1.8"/>
	<line class="st3" x1="0" y1="32.7" x2="154.5" y2="32.7"/>
	<line class="st3" x1="154.5" y1="32.7" x2="234.6" y2="32.7"/>
	<line class="st3" x1="234.6" y1="32.7" x2="325.7" y2="32.7"/>
	<line class="st3" x1="325.7" y1="32.7" x2="416.8" y2="32.7"/>
	<line class="st3" x1="416.8" y1="32.7" x2="507.8" y2="32.7"/>
	<line class="st3" x1="507.8" y1="32.7" x2="595.3" y2="32.7"/>
	<line class="st4" x1="154.5" y1="63.5" x2="234.6" y2="63.5"/>
	<line class="st4" x1="154.5" y1="94.3" x2="234.6" y2="94.3"/>
	<line class="st4" x1="234.6" y1="63.5" x2="325.7" y2="63.5"/>
	<line class="st4" x1="234.6" y1="94.3" x2="325.7" y2="94.3"/>
	<line class="st4" x1="325.7" y1="63.5" x2="416.8" y2="63.5"/>
	<line class="st4" x1="325.7" y1="94.3" x2="416.8" y2="94.3"/>
	<line class="st4" x1="416.8" y1="63.5" x2="507.8" y2="63.5"/>
	<line class="st4" x1="416.8" y1="94.3" x2="507.8" y2="94.3"/>
	<line class="st4" x1="507.8" y1="63.5" x2="595.3" y2="63.5"/>
	<line class="st4" x1="507.8" y1="94.3" x2="595.3" y2="94.3"/>
	<line class="st5" x1="0" y1="155.9" x2="154.5" y2="155.9"/>
	<line class="st4" x1="154.5" y1="125.1" x2="234.6" y2="125.1"/>
	<line class="st5" x1="154.5" y1="155.9" x2="234.6" y2="155.9"/>
	<line class="st4" x1="234.6" y1="125.1" x2="325.7" y2="125.1"/>
	<line class="st5" x1="234.6" y1="155.9" x2="325.7" y2="155.9"/>
	<line class="st4" x1="325.7" y1="125.1" x2="416.8" y2="125.1"/>
	<line class="st5" x1="325.7" y1="155.9" x2="416.8" y2="155.9"/>
	<line class="st4" x1="416.8" y1="125.1" x2="507.8" y2="125.1"/>
	<line class="st5" x1="416.8" y1="155.9" x2="507.8" y2="155.9"/>
	<line class="st4" x1="507.8" y1="125.1" x2="595.3" y2="125.1"/>
	<line class="st5" x1="507.8" y1="155.9" x2="595.3" y2="155.9"/>
	<path d="M158.5,24.4v-0.9c4.4-3.5,7.3-6,7.3-8.5c0-1.9-1.5-2.6-2.9-2.6c-1.6,0-2.8,0.7-3.5,1.7l-0.8-0.7c0.9-1.2,2.5-2,4.3-2
		c1.9,0,4.1,1.1,4.1,3.6c0,2.8-3,5.4-6.7,8.4h6.8v1H158.5z M174.4,11.3c3.5,0,4.7,3.6,4.7,6.6c0,3-1.3,6.7-4.7,6.7s-4.8-3.6-4.8-6.7
		C169.6,14.9,170.9,11.3,174.4,11.3z M174.4,12.3c-2.7,0-3.6,3-3.6,5.6c0,2.6,0.9,5.7,3.6,5.7c2.7,0,3.6-3,3.6-5.7
		C178,15.3,177.1,12.3,174.4,12.3z M185.9,24.4V13l-3,3.3l-0.7-0.7l3.8-4.1h1v12.9H185.9z M193.2,24.4l5.4-11.9h-7.1v-1h8.4v0.8
		l-5.5,12.1H193.2z M201.2,20.1v-0.9h4.6v0.9H201.2z M211.6,24.4V13l-3,3.3l-0.7-0.7l3.8-4.1h1v12.9H211.6z M220.5,17.7
		c-1.5-0.4-3-1.4-3-3.1c0-2.3,2.1-3.3,4.2-3.3c2,0,4.2,1,4.2,3.3c0,1.7-1.5,2.7-3,3.1c1.6,0.4,3.2,1.6,3.2,3.4
		c0,2.1-1.9,3.5-4.4,3.5c-2.5,0-4.4-1.4-4.4-3.5C217.3,19.3,218.8,18.2,220.5,17.7z M221.7,18.2c-0.8,0.1-3.3,0.9-3.3,2.8
		c0,1.6,1.5,2.5,3.3,2.5c1.7,0,3.3-1,3.3-2.5C224.9,19.1,222.4,18.3,221.7,18.2z M221.7,12.3c-1.7,0-3,0.9-3,2.4
		c0,1.8,2.3,2.4,3,2.5c0.8-0.2,3-0.7,3-2.5C224.7,13.2,223.3,12.3,221.7,12.3z"/>
	<path d="M248,24.4v-0.9c4.4-3.5,7.3-6,7.3-8.5c0-1.9-1.5-2.6-2.9-2.6c-1.6,0-2.8,0.7-3.5,1.7l-0.8-0.7c0.9-1.2,2.5-2,4.3-2
		c1.9,0,4.1,1.1,4.1,3.6c0,2.8-3,5.4-6.7,8.4h6.8v1H248z M263.8,11.3c3.5,0,4.7,3.6,4.7,6.6c0,3-1.3,6.7-4.7,6.7s-4.8-3.6-4.8-6.7
		C259.1,14.9,260.4,11.3,263.8,11.3z M263.8,12.3c-2.7,0-3.6,3-3.6,5.6c0,2.6,0.9,5.7,3.6,5.7c2.7,0,3.6-3,3.6-5.7
		C267.4,15.3,266.6,12.3,263.8,12.3z M275.4,24.4V13l-3,3.3l-0.7-0.7l3.8-4.1h1v12.9H275.4z M284.2,17.7c-1.5-0.4-3-1.4-3-3.1
		c0-2.3,2.1-3.3,4.2-3.3c2,0,4.2,1,4.2,3.3c0,1.7-1.5,2.7-3,3.1c1.6,0.4,3.2,1.6,3.2,3.4c0,2.1-1.9,3.5-4.4,3.5
		c-2.5,0-4.4-1.4-4.4-3.5C281,19.3,282.6,18.2,284.2,17.7z M285.4,18.2c-0.8,0.1-3.3,0.9-3.3,2.8c0,1.6,1.5,2.5,3.3,2.5
		c1.7,0,3.3-1,3.3-2.5C288.7,19.1,286.2,18.3,285.4,18.2z M285.4,12.3c-1.7,0-3,0.9-3,2.4c0,1.8,2.3,2.4,3,2.5c0.8-0.2,3-0.7,3-2.5
		C288.5,13.2,287.1,12.3,285.4,12.3z M292.3,20.1v-0.9h4.6v0.9H292.3z M302.7,24.4V13l-3,3.3l-0.7-0.7l3.8-4.1h1v12.9H302.7z
		 M309.4,22.1c0.6,0.8,1.4,1.4,2.8,1.4c2.8,0,3.8-3,3.8-5.7c0-0.2,0-0.4,0-0.6c-0.5,0.9-2,2.2-3.8,2.2c-2.3,0-4.1-1.4-4.1-4.1
		c0-2.1,1.6-4.1,4.3-4.1c3.5,0,4.7,3.2,4.7,6.7c0,3.3-1.4,6.6-4.9,6.6c-1.7,0-2.7-0.7-3.5-1.6L309.4,22.1z M312.5,12.3
		c-2.2,0-3.2,1.7-3.2,3.1c0,2.1,1.4,3.1,3.2,3.1c1.4,0,2.8-0.9,3.5-2.2C315.8,14.5,314.9,12.3,312.5,12.3z"/>
	<path d="M337.4,24.4v-0.9c4.4-3.5,7.3-6,7.3-8.5c0-1.9-1.5-2.6-2.9-2.6c-1.6,0-2.8,0.7-3.5,1.7l-0.8-0.7c0.9-1.2,2.5-2,4.3-2
		c1.9,0,4.1,1.1,4.1,3.6c0,2.8-3,5.4-6.7,8.4h6.8v1H337.4z M353.2,11.3c3.5,0,4.7,3.6,4.7,6.6c0,3-1.3,6.7-4.7,6.7
		c-3.5,0-4.8-3.6-4.8-6.7C348.5,14.9,349.8,11.3,353.2,11.3z M353.2,12.3c-2.7,0-3.6,3-3.6,5.6c0,2.6,0.9,5.7,3.6,5.7
		c2.7,0,3.6-3,3.6-5.7C356.8,15.3,355.9,12.3,353.2,12.3z M364.8,24.4V13l-3,3.3l-0.7-0.7l3.8-4.1h1v12.9H364.8z M371.5,22.1
		c0.6,0.8,1.4,1.4,2.8,1.4c2.8,0,3.8-3,3.8-5.7c0-0.2,0-0.4,0-0.6c-0.5,0.9-2,2.2-3.8,2.2c-2.3,0-4.1-1.4-4.1-4.1
		c0-2.1,1.6-4.1,4.3-4.1c3.5,0,4.7,3.2,4.7,6.7c0,3.3-1.4,6.6-4.9,6.6c-1.7,0-2.7-0.7-3.5-1.6L371.5,22.1z M374.6,12.3
		c-2.2,0-3.2,1.7-3.2,3.1c0,2.1,1.4,3.1,3.2,3.1c1.4,0,2.8-0.9,3.5-2.2C377.9,14.5,377,12.3,374.6,12.3z M381.9,20.1v-0.9h4.6v0.9
		H381.9z M388,24.4v-0.9c4.4-3.5,7.3-6,7.3-8.5c0-1.9-1.5-2.6-2.9-2.6c-1.6,0-2.8,0.7-3.5,1.7l-0.8-0.7c0.9-1.2,2.5-2,4.3-2
		c1.9,0,4.1,1.1,4.1,3.6c0,2.8-3,5.4-6.7,8.4h6.8v1H388z M403.8,11.3c3.5,0,4.7,3.6,4.7,6.6c0,3-1.3,6.7-4.7,6.7S399,21,399,17.9
		C399,14.9,400.4,11.3,403.8,11.3z M403.8,12.3c-2.7,0-3.6,3-3.6,5.6c0,2.6,0.9,5.7,3.6,5.7s3.6-3,3.6-5.7
		C407.4,15.3,406.5,12.3,403.8,12.3z"/>
	<path d="M427.7,24.4v-0.9c4.4-3.5,7.3-6,7.3-8.5c0-1.9-1.5-2.6-2.9-2.6c-1.6,0-2.8,0.7-3.5,1.7l-0.8-0.7c0.9-1.2,2.5-2,4.3-2
		c1.9,0,4.1,1.1,4.1,3.6c0,2.8-3,5.4-6.7,8.4h6.8v1H427.7z M443.6,11.3c3.5,0,4.7,3.6,4.7,6.6c0,3-1.3,6.7-4.7,6.7s-4.8-3.6-4.8-6.7
		C438.8,14.9,440.1,11.3,443.6,11.3z M443.6,12.3c-2.7,0-3.6,3-3.6,5.6c0,2.6,0.9,5.7,3.6,5.7s3.6-3,3.6-5.7
		C447.1,15.3,446.3,12.3,443.6,12.3z M450.4,24.4v-0.9c4.4-3.5,7.3-6,7.3-8.5c0-1.9-1.5-2.6-2.9-2.6c-1.6,0-2.8,0.7-3.5,1.7
		l-0.8-0.7c0.9-1.2,2.5-2,4.3-2c1.9,0,4.1,1.1,4.1,3.6c0,2.8-3,5.4-6.7,8.4h6.8v1H450.4z M466.3,11.3c3.5,0,4.7,3.6,4.7,6.6
		c0,3-1.3,6.7-4.7,6.7s-4.8-3.6-4.8-6.7C461.5,14.9,462.8,11.3,466.3,11.3z M466.3,12.3c-2.7,0-3.6,3-3.6,5.6c0,2.6,0.9,5.7,3.6,5.7
		s3.6-3,3.6-5.7C469.9,15.3,469,12.3,466.3,12.3z M473.5,20.1v-0.9h4.6v0.9H473.5z M479.6,24.4v-0.9c4.4-3.5,7.3-6,7.3-8.5
		c0-1.9-1.5-2.6-2.9-2.6c-1.6,0-2.8,0.7-3.5,1.7l-0.8-0.7c0.9-1.2,2.5-2,4.3-2c1.9,0,4.1,1.1,4.1,3.6c0,2.8-3,5.4-6.7,8.4h6.8v1
		H479.6z M495.3,24.4V13l-3,3.3l-0.7-0.7l3.8-4.1h1v12.9H495.3z"/>
	<path class="st6" d="M513.4,24.4v-2.2c5.3-3.9,6.8-5.2,6.8-6.8c0-1.1-1-1.7-2.1-1.7c-1.5,0-2.6,0.6-3.5,1.5l-1.6-1.8
		c1.3-1.4,3.2-2.1,5-2.1c2.8,0,4.9,1.5,4.9,4.1c0,2.2-1.8,4.1-5.2,6.5h5.2v2.4H513.4z M524.8,17.9c0-3.3,1.6-6.6,5.3-6.6
		s5.3,3.3,5.3,6.6s-1.6,6.7-5.3,6.7S524.8,21.2,524.8,17.9z M532.7,17.9c0-2.4-0.7-4.2-2.5-4.2c-1.8,0-2.5,1.8-2.5,4.2
		s0.7,4.2,2.5,4.2S532.7,20.3,532.7,17.9z M537.1,24.4v-2.2c5.3-3.9,6.8-5.2,6.8-6.8c0-1.1-1-1.7-2.1-1.7c-1.5,0-2.6,0.6-3.5,1.5
		l-1.6-1.8c1.3-1.4,3.2-2.1,5-2.1c2.8,0,4.9,1.5,4.9,4.1c0,2.2-1.8,4.1-5.2,6.5h5.2v2.4H537.1z M553.1,24.4V15l-2.1,2.2l-1.6-1.6
		l4.1-4.1h2.4v12.9H553.1z M559.3,20.7v-2.1h4.6v2.1H559.3z M565.4,24.4v-2.2c5.3-3.9,6.8-5.2,6.8-6.8c0-1.1-1-1.7-2.1-1.7
		c-1.5,0-2.6,0.6-3.5,1.5l-1.6-1.8c1.3-1.4,3.2-2.1,5-2.1c2.8,0,4.9,1.5,4.9,4.1c0,2.2-1.8,4.1-5.2,6.5h5.2v2.4H565.4z M577.3,24.4
		v-2.2c5.3-3.9,6.8-5.2,6.8-6.8c0-1.1-1-1.7-2.1-1.7c-1.5,0-2.6,0.6-3.5,1.5l-1.6-1.8c1.3-1.4,3.2-2.1,5-2.1c2.8,0,4.9,1.5,4.9,4.1
		c0,2.2-1.8,4.1-5.2,6.5h5.2v2.4H577.3z"/>
	<line class="st7" x1="7.3" y1="49" x2="27.3" y2="49"/>
	<g>
		<path d="M32.8,54.2v-1.2l6.7-9.4h-6.7v-1.3h8.7v1.2l-6.7,9.4h6.9v1.3H32.8z"/>
		<path d="M43.9,43.3c0-0.5,0.4-0.9,0.9-0.9c0.5,0,0.9,0.4,0.9,0.9s-0.4,0.9-0.9,0.9C44.3,44.2,43.9,43.8,43.9,43.3z M44.1,54.2
			v-8.7h1.3v8.7H44.1z"/>
		<path d="M54.3,54.2v-5.7c0-1.5-0.8-2-1.9-2c-1.1,0-2.1,0.6-2.6,1.3v6.4h-1.3v-8.7h1.3v1.3c0.6-0.7,1.8-1.5,3.1-1.5
			c1.8,0,2.8,0.9,2.8,2.8v6.1H54.3z"/>
		<path d="M58.2,49.8c0-2.6,1.7-4.6,4.3-4.6c1.6,0,2.5,0.6,3.2,1.5l-0.9,0.8c-0.6-0.8-1.3-1.1-2.2-1.1c-1.9,0-3,1.4-3,3.3
			s1.2,3.4,3,3.4c0.9,0,1.6-0.4,2.2-1.1l0.9,0.8c-0.7,0.9-1.6,1.5-3.2,1.5C60,54.4,58.2,52.4,58.2,49.8z"/>
		<path d="M77.7,54.2v-1C77,54,76,54.4,74.8,54.4c-1.5,0-3-1-3-2.9c0-1.9,1.6-2.9,3-2.9c1.2,0,2.2,0.4,2.9,1.2v-1.6
			c0-1.2-0.9-1.8-2.2-1.8c-1,0-1.9,0.4-2.7,1.2l-0.6-0.9c0.9-1,2.1-1.4,3.5-1.4c1.8,0,3.4,0.8,3.4,2.9v6H77.7z M77.7,52.3v-1.6
			c-0.5-0.7-1.4-1.1-2.4-1.1c-1.3,0-2.1,0.8-2.1,1.9c0,1.1,0.9,1.9,2.1,1.9C76.3,53.4,77.2,53,77.7,52.3z"/>
		<path d="M88,54.2v-5.7c0-1.5-0.8-2-1.9-2c-1.1,0-2.1,0.6-2.6,1.3v6.4h-1.3v-8.7h1.3v1.3c0.6-0.7,1.8-1.5,3.1-1.5
			c1.8,0,2.8,0.9,2.8,2.8v6.1H88z"/>
		<path d="M98.7,54.2v-1.3c-0.6,0.9-1.7,1.5-2.9,1.5c-2.3,0-3.9-1.7-3.9-4.6c0-2.8,1.6-4.6,3.9-4.6c1.2,0,2.2,0.6,2.9,1.5v-4.6h1.3
			v12H98.7z M98.7,51.8v-3.9c-0.5-0.8-1.5-1.4-2.6-1.4c-1.7,0-2.8,1.4-2.8,3.4s1,3.3,2.8,3.3C97.1,53.2,98.2,52.6,98.7,51.8z"/>
		<path d="M107.4,54.2v-12h1.5v10.7h5.6v1.3H107.4z"/>
		<path d="M116.1,49.8c0-2.5,1.8-4.6,4.3-4.6c2.6,0,4.2,2.1,4.2,4.7v0.3h-7c0.1,1.6,1.3,3,3.1,3c1,0,2-0.4,2.7-1.1L124,53
			c-0.9,0.9-2,1.3-3.5,1.3C117.9,54.4,116.1,52.5,116.1,49.8z M120.3,46.4c-1.9,0-2.8,1.6-2.8,2.9h5.7
			C123.2,48,122.3,46.4,120.3,46.4z"/>
		<path d="M132.5,54.2v-1c-0.7,0.8-1.7,1.2-2.9,1.2c-1.5,0-3-1-3-2.9c0-1.9,1.6-2.9,3-2.9c1.2,0,2.2,0.4,2.9,1.2v-1.6
			c0-1.2-0.9-1.8-2.2-1.8c-1,0-1.9,0.4-2.7,1.2l-0.6-0.9c0.9-1,2.1-1.4,3.5-1.4c1.8,0,3.4,0.8,3.4,2.9v6H132.5z M132.5,52.3v-1.6
			c-0.5-0.7-1.4-1.1-2.4-1.1c-1.3,0-2.1,0.8-2.1,1.9c0,1.1,0.9,1.9,2.1,1.9C131,53.4,131.9,53,132.5,52.3z"/>
		<path d="M143.2,54.2v-1.3c-0.6,0.9-1.7,1.5-2.9,1.5c-2.3,0-3.9-1.7-3.9-4.6c0-2.8,1.6-4.6,3.9-4.6c1.2,0,2.2,0.6,2.9,1.5v-4.6h1.3
			v12H143.2z M143.2,51.8v-3.9c-0.5-0.8-1.5-1.4-2.6-1.4c-1.7,0-2.8,1.4-2.8,3.4s1,3.3,2.8,3.3C141.6,53.2,142.7,52.6,143.2,51.8z"
			/>
	</g>
	<path class="st8" d="M207.7,49.1c-1.6-0.4-3.2-1.5-3.2-3.3c0-2.4,2.3-3.5,4.4-3.5c2.1,0,4.4,1.1,4.4,3.5c0,1.8-1.6,2.9-3.2,3.3
		c1.7,0.5,3.4,1.7,3.4,3.6c0,2.2-2,3.7-4.6,3.7c-2.7,0-4.7-1.4-4.7-3.7C204.3,50.8,206,49.6,207.7,49.1z M209,49.6
		c-0.8,0.1-3.5,0.9-3.5,3c0,1.7,1.6,2.7,3.5,2.7c1.8,0,3.5-1,3.5-2.7C212.5,50.6,209.8,49.8,209,49.6z M209,43.3
		c-1.8,0-3.2,0.9-3.2,2.6c0,1.9,2.4,2.5,3.2,2.7c0.8-0.2,3.2-0.8,3.2-2.7C212.2,44.3,210.8,43.3,209,43.3z M220,49.1
		c-1.6-0.4-3.2-1.5-3.2-3.3c0-2.4,2.3-3.5,4.4-3.5c2.1,0,4.4,1.1,4.4,3.5c0,1.8-1.6,2.9-3.2,3.3c1.7,0.5,3.4,1.7,3.4,3.6
		c0,2.2-2,3.7-4.6,3.7c-2.7,0-4.7-1.4-4.7-3.7C216.6,50.8,218.3,49.6,220,49.1z M221.3,49.6c-0.8,0.1-3.5,0.9-3.5,3
		c0,1.7,1.6,2.7,3.5,2.7c1.8,0,3.5-1,3.5-2.7C224.7,50.6,222.1,49.8,221.3,49.6z M221.3,43.3c-1.8,0-3.2,0.9-3.2,2.6
		c0,1.9,2.4,2.5,3.2,2.7c0.8-0.2,3.2-0.8,3.2-2.7C224.5,44.3,223.1,43.3,221.3,43.3z"/>
	<path class="st8" d="M299,49.1c-1.6-0.4-3.2-1.5-3.2-3.3c0-2.4,2.3-3.5,4.4-3.5c2.1,0,4.4,1.1,4.4,3.5c0,1.8-1.6,2.9-3.2,3.3
		c1.7,0.5,3.4,1.7,3.4,3.6c0,2.2-2,3.7-4.6,3.7c-2.7,0-4.7-1.4-4.7-3.7C295.6,50.8,297.3,49.6,299,49.1z M300.3,49.6
		c-0.8,0.1-3.5,0.9-3.5,3c0,1.7,1.6,2.7,3.5,2.7c1.8,0,3.5-1,3.5-2.7C303.7,50.6,301.1,49.8,300.3,49.6z M300.3,43.3
		c-1.8,0-3.2,0.9-3.2,2.6c0,1.9,2.4,2.5,3.2,2.7c0.8-0.2,3.2-0.8,3.2-2.7C303.5,44.3,302,43.3,300.3,43.3z M308.7,53.4
		c0.9,1.3,2.1,2,3.8,2c2,0,3.5-1.4,3.5-3.3c0-2.1-1.5-3.3-3.4-3.3c-1.2,0-2.3,0.4-3.3,1.3l-0.9-0.4v-7.2h7.9v1.1h-6.7v5.4
		c0.7-0.7,1.8-1.3,3.3-1.3c2.3,0,4.4,1.5,4.4,4.4c0,2.7-2.1,4.4-4.6,4.4c-2.3,0-3.7-0.9-4.6-2.2L308.7,53.4z"/>
	<path class="st8" d="M389.8,49.1c-1.6-0.4-3.2-1.5-3.2-3.3c0-2.4,2.3-3.5,4.4-3.5c2.1,0,4.4,1.1,4.4,3.5c0,1.8-1.6,2.9-3.2,3.3
		c1.7,0.5,3.4,1.7,3.4,3.6c0,2.2-2,3.7-4.6,3.7c-2.7,0-4.7-1.4-4.7-3.7C386.4,50.8,388.1,49.6,389.8,49.1z M391.1,49.6
		c-0.8,0.1-3.5,0.9-3.5,3c0,1.7,1.6,2.7,3.5,2.7c1.8,0,3.5-1,3.5-2.7C394.5,50.6,391.9,49.8,391.1,49.6z M391.1,43.3
		c-1.8,0-3.2,0.9-3.2,2.6c0,1.9,2.4,2.5,3.2,2.7c0.8-0.2,3.2-0.8,3.2-2.7C394.3,44.3,392.8,43.3,391.1,43.3z M405.1,56.2v-3.7h-6.5
		v-1l6.1-8.9h1.6v8.9h2v1.1h-2v3.7H405.1z M405.1,43.6l-5.3,7.7h5.3V43.6z"/>
	<path class="st8" d="M480,56.2l5.8-12.6h-7.6v-1.1h9v0.8l-5.8,12.9H480z M493.3,49.1c-1.6-0.4-3.2-1.5-3.2-3.3
		c0-2.4,2.3-3.5,4.4-3.5c2.1,0,4.4,1.1,4.4,3.5c0,1.8-1.6,2.9-3.2,3.3c1.7,0.5,3.4,1.7,3.4,3.6c0,2.2-2,3.7-4.6,3.7
		c-2.7,0-4.7-1.4-4.7-3.7C489.9,50.8,491.5,49.6,493.3,49.1z M494.5,49.6c-0.8,0.1-3.5,0.9-3.5,3c0,1.7,1.6,2.7,3.5,2.7
		c1.8,0,3.5-1,3.5-2.7C498,50.6,495.3,49.8,494.5,49.6z M494.5,43.3c-1.8,0-3.2,0.9-3.2,2.6c0,1.9,2.4,2.5,3.2,2.7
		c0.8-0.2,3.2-0.8,3.2-2.7C497.8,44.3,496.3,43.3,494.5,43.3z"/>
	<path class="st0" d="M565.4,51.8c0-1.6,1.2-2.8,2.8-3.3c-1.4-0.5-2.5-1.4-2.5-3c0-2.4,2.6-3.4,5-3.4c2.4,0,5,1,5,3.4
		c0,1.6-1.1,2.5-2.5,3c1.5,0.5,2.8,1.7,2.8,3.3c0,2.4-2.5,3.6-5.2,3.6S565.4,54.2,565.4,51.8z M573,51.4c0-1.1-1.6-1.6-2.4-1.7
		c-0.8,0.1-2.4,0.6-2.4,1.7c0,0.9,1,1.5,2.4,1.5C571.9,53,573,52.4,573,51.4z M572.8,46c0-0.9-0.9-1.4-2.2-1.4
		c-1.3,0-2.2,0.5-2.2,1.4c0,0.9,1.4,1.4,2.2,1.5C571.4,47.3,572.8,46.9,572.8,46z M581.9,55.2v-9.3l-2.1,2.2l-1.6-1.6l4.1-4.1h2.4
		v12.9H581.9z"/>
	<line class="st9" x1="7.3" y1="79.8" x2="27.3" y2="79.8"/>
	<g>
		<g>
			<path d="M32.6,83.3l0.9-1.1c0.8,0.9,2.1,1.7,3.8,1.7c2.1,0,2.8-1.2,2.8-2.1c0-3.1-7.1-1.4-7.1-5.7c0-2,1.8-3.3,4.1-3.3
				c1.8,0,3.3,0.6,4.3,1.7l-0.9,1.1c-0.9-1-2.2-1.4-3.5-1.4c-1.4,0-2.5,0.8-2.5,1.9c0,2.7,7.1,1.2,7.1,5.6c0,1.7-1.2,3.5-4.4,3.5
				C35.1,85.2,33.6,84.4,32.6,83.3z"/>
			<path d="M43.6,74.1c0-0.5,0.4-0.9,0.9-0.9c0.5,0,0.9,0.4,0.9,0.9S45,75,44.5,75C44,75,43.6,74.6,43.6,74.1z M43.8,85v-8.7h1.3V85
				H43.8z"/>
			<path d="M47.9,85V73h1.3v12H47.9z"/>
			<path d="M54.2,85l-3.6-8.7h1.5l2.9,7.1l2.9-7.1h1.5L55.7,85H54.2z"/>
			<path d="M60.2,80.6c0-2.5,1.8-4.6,4.3-4.6c2.6,0,4.2,2.1,4.2,4.7v0.3h-7c0.1,1.6,1.3,3,3.1,3c1,0,2-0.4,2.7-1.1l0.6,0.9
				c-0.9,0.9-2,1.3-3.5,1.3C62.1,85.2,60.2,83.3,60.2,80.6z M64.5,77.2c-1.9,0-2.8,1.6-2.8,2.9h5.7C67.3,78.8,66.5,77.2,64.5,77.2z"
				/>
			<path d="M70.8,85v-8.7h1.3v1.4c0.7-0.9,1.7-1.6,2.9-1.6v1.4c-0.2,0-0.3-0.1-0.5-0.1c-0.8,0-2,0.7-2.4,1.4V85H70.8z"/>
		</g>
	</g>
	<path class="st8" d="M210.4,87V74.9l-3.2,3.5l-0.7-0.8l4.1-4.3h1.1V87H210.4z M221.3,73.1c3.7,0,5.1,3.8,5.1,7.1
		c0,3.2-1.4,7.1-5.1,7.1s-5.1-3.8-5.1-7.1C216.2,76.9,217.6,73.1,221.3,73.1z M221.3,74.2c-2.9,0-3.8,3.2-3.8,6c0,2.8,0.9,6,3.8,6
		s3.8-3.2,3.8-6C225.1,77.3,224.2,74.2,221.3,74.2z"/>
	<path class="st8" d="M301.9,87V74.9l-3.2,3.5l-0.7-0.8l4.1-4.3h1.1V87H301.9z M307.7,87v-1c4.7-3.8,7.8-6.4,7.8-9.1
		c0-2-1.6-2.8-3.1-2.8c-1.7,0-3,0.7-3.8,1.8l-0.8-0.7c1-1.3,2.6-2.1,4.6-2.1c2,0,4.3,1.2,4.3,3.9c0,3-3.2,5.8-7.2,9h7.2V87H307.7z"
		/>
	<path class="st8" d="M393,87V74.9l-3.2,3.5l-0.7-0.8l4.1-4.3h1.1V87H393z M399.6,84.3c0.8,1.1,2.1,1.9,3.8,1.9
		c2.1,0,3.5-1.1,3.5-2.9c0-2-1.6-2.8-3.7-2.8c-0.6,0-1.1,0-1.3,0v-1.1c0.2,0,0.7,0,1.3,0c1.8,0,3.5-0.8,3.5-2.6
		c0-1.7-1.5-2.7-3.3-2.7c-1.6,0-2.7,0.6-3.7,1.7l-0.7-0.7c1-1.2,2.5-2.1,4.5-2.1c2.4,0,4.4,1.3,4.4,3.6c0,2.1-1.8,3-2.9,3.2
		c1.2,0.1,3.1,1.2,3.1,3.4s-1.7,3.9-4.6,3.9c-2.2,0-3.9-1-4.7-2.3L399.6,84.3z"/>
	<path class="st8" d="M477.7,87v-1c4.7-3.8,7.8-6.4,7.8-9.1c0-2-1.6-2.8-3.1-2.8c-1.7,0-3,0.7-3.8,1.8l-0.8-0.7
		c1-1.3,2.6-2.1,4.6-2.1c2,0,4.3,1.2,4.3,3.9c0,3-3.2,5.8-7.2,9h7.2V87H477.7z M494.5,73.1c3.7,0,5.1,3.8,5.1,7.1
		c0,3.2-1.4,7.1-5.1,7.1c-3.7,0-5.1-3.8-5.1-7.1C489.4,76.9,490.8,73.1,494.5,73.1z M494.5,74.2c-2.9,0-3.8,3.2-3.8,6
		c0,2.8,0.9,6,3.8,6c2.9,0,3.8-3.2,3.8-6C498.3,77.3,497.4,74.2,494.5,74.2z"/>
	<path class="st0" d="M570.9,86v-9.3l-2.1,2.2l-1.6-1.6l4.1-4.1h2.4V86H570.9z M582.8,86v-2.7h-6.2v-2.2l5.1-8h3.8v7.8h1.7v2.4h-1.7
		V86H582.8z M582.8,75.5l-3.5,5.4h3.5V75.5z"/>
	<line class="st10" x1="7.3" y1="110.6" x2="27.3" y2="110.6"/>
	<g>
		<path d="M42.5,115.8l-2.6-9.7l-2.6,9.7h-1.6l-3.4-12h1.7l2.7,10l2.8-10h1.2l2.8,10l2.6-10h1.7l-3.4,12H42.5z"/>
		<path d="M48.9,105c0-0.5,0.4-0.9,0.9-0.9c0.5,0,0.9,0.4,0.9,0.9s-0.4,0.9-0.9,0.9C49.3,105.9,48.9,105.5,48.9,105z M49.1,115.8
			v-8.7h1.3v8.7H49.1z"/>
		<path d="M59.1,115.8v-5.7c0-1.5-0.8-2-1.9-2c-1.1,0-2.1,0.6-2.6,1.3v6.4h-1.3v-8.7h1.3v1.3c0.6-0.7,1.8-1.5,3.1-1.5
			c1.8,0,2.8,0.9,2.8,2.8v6.1H59.1z"/>
		<path d="M69.4,115.8v-1.3c-0.6,0.9-1.7,1.5-2.9,1.5c-2.3,0-3.9-1.7-3.9-4.6c0-2.8,1.6-4.6,3.9-4.6c1.2,0,2.2,0.6,2.9,1.5v-4.6h1.3
			v12H69.4z M69.4,113.4v-3.9c-0.5-0.8-1.5-1.4-2.6-1.4c-1.7,0-2.8,1.4-2.8,3.4s1,3.3,2.8,3.3C67.9,114.8,68.9,114.2,69.4,113.4z"/>
		<path d="M78.1,115.8v-12H86v1.3h-6.4v3.9h6.2v1.3h-6.2v4.1H86v1.3H78.1z"/>
		<path d="M94.2,115.8v-5.7c0-1.5-0.8-2-1.9-2c-1.1,0-2.1,0.6-2.6,1.3v6.4h-1.3v-8.7h1.3v1.3c0.6-0.7,1.8-1.5,3.1-1.5
			c1.8,0,2.8,0.9,2.8,2.8v6.1H94.2z"/>
		<path d="M97.7,111.4c0-2.5,1.8-4.6,4.3-4.6c2.6,0,4.2,2.1,4.2,4.7v0.3h-7c0.1,1.6,1.3,3,3.1,3c1,0,2-0.4,2.7-1.1l0.6,0.9
			c-0.9,0.9-2,1.3-3.5,1.3C99.6,116,97.7,114.2,97.7,111.4z M102,108c-1.9,0-2.8,1.6-2.8,2.9h5.7C104.8,109.6,104,108,102,108z"/>
		<path d="M108.4,115.8v-8.7h1.3v1.4c0.7-0.9,1.7-1.6,2.9-1.6v1.4c-0.2,0-0.3-0.1-0.5-0.1c-0.8,0-2,0.7-2.4,1.4v6.2H108.4z"/>
		<path d="M114.3,118l0.7-1c0.7,0.9,1.6,1.2,2.8,1.2c1.4,0,2.8-0.7,2.8-2.6v-1.2c-0.6,0.9-1.7,1.5-2.9,1.5c-2.3,0-3.9-1.7-3.9-4.5
			c0-2.8,1.6-4.5,3.9-4.5c1.2,0,2.2,0.6,2.9,1.5v-1.3h1.3v8.4c0,2.9-2,3.8-4.1,3.8C116.3,119.3,115.3,119,114.3,118z M120.6,113.3
			v-3.8c-0.5-0.8-1.5-1.4-2.6-1.4c-1.7,0-2.8,1.4-2.8,3.3c0,1.9,1,3.3,2.8,3.3C119.1,114.7,120.1,114,120.6,113.3z"/>
		<path d="M124.4,118c0.2,0.1,0.5,0.1,0.7,0.1c0.6,0,1-0.2,1.3-0.9l0.6-1.3l-3.6-8.8h1.5l2.9,7.1l2.9-7.1h1.5l-4.4,10.5
			c-0.5,1.3-1.4,1.7-2.6,1.8c-0.3,0-0.7-0.1-1-0.1L124.4,118z"/>
	</g>
	<polygon class="st8" points="221.7,117.8 221.7,105.7 218.4,109.2 217.7,108.4 221.8,104.1 222.9,104.1 222.9,117.8 	"/>
	<polygon class="st8" points="312.7,117.8 312.7,105.7 309.5,109.2 308.8,108.4 312.9,104.1 313.9,104.1 313.9,117.8 	"/>
	<polygon class="st8" points="403.8,117.8 403.8,105.7 400.6,109.2 399.8,108.4 403.9,104.1 405,104.1 405,117.8 	"/>
	<polygon class="st8" points="494.9,117.8 494.9,105.7 491.7,109.2 490.9,108.4 495,104.1 496.1,104.1 496.1,117.8 	"/>
	<polygon class="st0" points="581.9,116.8 581.9,107.5 579.8,109.6 578.2,108 582.3,103.9 584.7,103.9 584.7,116.8 	"/>
	<line class="st11" x1="7.3" y1="141.5" x2="27.3" y2="141.5"/>
	<g>
		<path d="M32.8,140.6c0-3.5,2.4-6.2,6-6.2c3.5,0,6,2.7,6,6.2c0,3.5-2.4,6.2-6,6.2C35.2,146.8,32.8,144.2,32.8,140.6z M43.2,140.6
			c0-2.8-1.7-4.9-4.4-4.9c-2.7,0-4.4,2.1-4.4,4.9c0,2.8,1.7,4.9,4.4,4.9C41.5,145.5,43.2,143.4,43.2,140.6z"/>
		<path d="M47.3,144.8v-5.7h-1.4v-1.2h1.4v-2.4h1.3v2.4h1.8v1.2h-1.8v5.4c0,0.6,0.3,1.1,0.9,1.1c0.4,0,0.7-0.2,0.9-0.4l0.4,1
			c-0.3,0.3-0.8,0.6-1.6,0.6C47.9,146.8,47.3,146.1,47.3,144.8z"/>
		<path d="M58.2,146.6v-5.7c0-1.5-0.8-2-2-2c-1,0-2.1,0.6-2.6,1.3v6.4h-1.3v-12h1.3v4.6c0.6-0.7,1.8-1.5,3.1-1.5
			c1.8,0,2.8,0.9,2.8,2.8v6.1H58.2z"/>
		<path d="M61.7,142.3c0-2.5,1.8-4.6,4.3-4.6c2.6,0,4.2,2.1,4.2,4.7v0.3h-7c0.1,1.6,1.3,3,3.1,3c1,0,2-0.4,2.7-1.1l0.6,0.9
			c-0.9,0.9-2,1.3-3.5,1.3C63.6,146.8,61.7,145,61.7,142.3z M66,138.8c-1.9,0-2.8,1.6-2.8,2.9h5.7C68.8,140.4,68,138.8,66,138.8z"/>
		<path d="M72.4,146.6v-8.7h1.3v1.4c0.7-0.9,1.7-1.6,2.9-1.6v1.4c-0.2,0-0.3-0.1-0.5-0.1c-0.8,0-2,0.7-2.4,1.4v6.2H72.4z"/>
		<path d="M77.6,145.5l0.7-1c0.6,0.7,1.7,1.2,2.9,1.2c1.3,0,2.1-0.6,2.1-1.5c0-2.1-5.4-0.8-5.4-4c0-1.3,1.2-2.5,3.2-2.5
			c1.5,0,2.5,0.6,3.2,1.3l-0.6,0.9c-0.5-0.6-1.5-1.1-2.6-1.1c-1.2,0-1.9,0.6-1.9,1.4c0,1.9,5.4,0.6,5.4,4c0,1.5-1.2,2.6-3.4,2.6
			C79.6,146.8,78.4,146.4,77.6,145.5z"/>
	</g>
	<polygon class="st8" points="221.7,148.6 221.7,136.5 218.4,140 217.7,139.2 221.8,134.9 222.9,134.9 222.9,148.6 	"/>
	<path class="st8" d="M307.7,148.6v-1c4.7-3.8,7.8-6.4,7.8-9.1c0-2-1.6-2.8-3.1-2.8c-1.7,0-3,0.7-3.8,1.8l-0.8-0.7
		c1-1.3,2.6-2.1,4.6-2.1c2,0,4.3,1.2,4.3,3.9c0,3-3.2,5.8-7.2,9h7.2v1.1H307.7z"/>
	<path class="st8" d="M398.8,148.6v-1c4.7-3.8,7.8-6.4,7.8-9.1c0-2-1.6-2.8-3.1-2.8c-1.7,0-3,0.7-3.8,1.8l-0.8-0.7
		c1-1.3,2.6-2.1,4.6-2.1c2,0,4.3,1.2,4.3,3.9c0,3-3.2,5.8-7.2,9h7.2v1.1H398.8z"/>
	<polygon class="st8" points="494.9,148.6 494.9,136.5 491.7,140 490.9,139.2 495,134.9 496.1,134.9 496.1,148.6 	"/>
	<path class="st0" d="M582.8,147.6V145h-6.2v-2.2l5.1-8h3.8v7.8h1.7v2.4h-1.7v2.7H582.8z M582.8,137.2l-3.5,5.4h3.5V137.2z"/>
</g>
</svg>
