<?xml version="1.0" encoding="utf-8"?>
<!-- Generator: Adobe Illustrator 26.4.0, SVG Export Plug-In . SVG Version: 6.00 Build 0)  -->
<svg version="1.1" id="Layer_1" xmlns="http://www.w3.org/2000/svg" xmlns:xlink="http://www.w3.org/1999/xlink" x="0px" y="0px"
	 viewBox="0 0 366.5 220.1" style="enable-background:new 0 0 366.5 220.1;" xml:space="preserve">
<style type="text/css">
	.st0{fill:#0069AA;}
	.st1{fill:#9ACA3E;}
	.st2{fill:#15BFF1;}
	.st3{clip-path:url(#SVGID_00000122698620225490337400000014214690302812466834_);fill:#9ACA3E;}
	.st4{filter:url(#Adobe_OpacityMaskFilter);}
	.st5{fill:url(#SVGID_00000034065912044109577780000013752981768977968777_);}
	.st6{mask:url(#SVGID_00000138547814822103792430000009391948790953396399_);}
	.st7{clip-path:url(#SVGID_00000043452364055406250840000007917882804054977714_);fill:#15BFF1;}
	.st8{fill:none;stroke:#FFFFFF;}
	.st9{filter:url(#Adobe_OpacityMaskFilter_00000090993883517113930230000010983994649750209683_);}
	.st10{fill:url(#SVGID_00000163041387709437910420000012014499539094735764_);}
	.st11{mask:url(#SVGID_00000151501846596397223880000002196631837466587030_);}
	.st12{clip-path:url(#SVGID_00000103255499707726607070000007441635898141016227_);fill:#CBE19C;}
	.st13{filter:url(#Adobe_OpacityMaskFilter_00000111149043563103830480000010852717464273311162_);}
	.st14{fill:url(#SVGID_00000088106861449538403460000000214036008202228644_);}
	.st15{mask:url(#SVGID_00000169516760490576688740000010022406363852458377_);}
	.st16{clip-path:url(#SVGID_00000163041690813628518620000004395786003886866091_);fill:#9EDDF9;}
	.st17{filter:url(#Adobe_OpacityMaskFilter_00000171696682456493267090000005580287219219108995_);}
	.st18{fill:url(#SVGID_00000093153854308728264690000000412397468827590049_);}
	.st19{mask:url(#SVGID_00000093136637942463079270000013314576807083615655_);}
	.st20{clip-path:url(#SVGID_00000000937396217648062520000005399554737604343733_);fill:#CBE19C;}
	.st21{filter:url(#Adobe_OpacityMaskFilter_00000050665426209177322150000015157344908197979283_);}
	.st22{fill:url(#SVGID_00000173879169712892614150000010289963437119615672_);}
	.st23{mask:url(#SVGID_00000170983438547821501180000003195965749349116589_);}
	.st24{clip-path:url(#SVGID_00000036215554877430155520000018258571175976790719_);fill:#9EDDF9;}
	.st25{filter:url(#Adobe_OpacityMaskFilter_00000137121361101908005090000009244668175354616967_);}
	.st26{fill:url(#SVGID_00000008838564920439693270000012116725232344403640_);}
	.st27{mask:url(#SVGID_00000095326095261842295660000008051263187163903164_);}
	.st28{clip-path:url(#SVGID_00000051370906402669293470000008355358403826990755_);fill:#CBE19C;}
	.st29{filter:url(#Adobe_OpacityMaskFilter_00000174593370289794282500000015938043884754533800_);}
	.st30{fill:url(#SVGID_00000149341686113365592420000011443699220575692200_);}
	.st31{mask:url(#SVGID_00000029767603322004330620000003814658190864476333_);}
	.st32{clip-path:url(#SVGID_00000124137555609968686900000007139429958985676932_);fill:#9EDDF9;}
	.st33{filter:url(#Adobe_OpacityMaskFilter_00000081631495731215126600000001986656235948270221_);}
	.st34{fill:url(#SVGID_00000095321409072218919340000003911798824024406966_);}
	.st35{mask:url(#SVGID_00000042707597439623606280000013035968335493652109_);}
	.st36{clip-path:url(#SVGID_00000159465030379590597170000014984481982427761324_);fill:#CBE19C;}
	.st37{filter:url(#Adobe_OpacityMaskFilter_00000099640209639320645740000009055968271661482405_);}
	.st38{fill:url(#SVGID_00000073721113101261592060000011259689223680738703_);}
	.st39{mask:url(#SVGID_00000072967159346527193630000006108738236417532094_);}
	.st40{clip-path:url(#SVGID_00000116197886594289970620000011507372893939881620_);fill:#9EDDF9;}
</style>
<path class="st0" d="M4,220v-1.1c3.6-2.7,5.2-4.2,5.2-5.7c0-1.1-0.9-1.6-1.9-1.6c-1.1,0-2,0.5-2.6,1.2l-0.9-0.9
	c0.8-1,2.1-1.5,3.4-1.5c1.7,0,3.3,1,3.3,2.9s-1.8,3.5-4.4,5.5h4.5v1.3L4,220L4,220z M16.1,210.3c2.6,0,3.7,2.6,3.7,4.9
	c0,2.4-1.1,4.9-3.7,4.9s-3.7-2.6-3.7-4.9S13.5,210.3,16.1,210.3z M16.1,211.6c-1.7,0-2.3,1.8-2.3,3.6s0.6,3.7,2.3,3.7
	c1.7,0,2.3-1.8,2.3-3.7S17.8,211.6,16.1,211.6z M21.2,220v-1.1c3.6-2.7,5.2-4.2,5.2-5.7c0-1.1-0.9-1.6-1.9-1.6c-1.1,0-2,0.5-2.6,1.2
	l-0.9-0.9c0.8-1,2.1-1.5,3.4-1.5c1.7,0,3.3,1,3.3,2.9s-1.8,3.5-4.4,5.5h4.5v1.3L21.2,220L21.2,220z M32.8,220v-7.7l-1.8,1.8
	l-0.8-0.9l2.8-2.8h1.2v9.5L32.8,220L32.8,220z M37.2,217.1V216h3.4v1.1H37.2z M41.7,220v-1.1c3.6-2.7,5.2-4.2,5.2-5.7
	c0-1.1-0.9-1.6-1.9-1.6c-1.1,0-2,0.5-2.6,1.2l-0.9-0.9c0.8-1,2.1-1.5,3.4-1.5c1.7,0,3.3,1,3.3,2.9s-1.8,3.5-4.4,5.5h4.5v1.3
	L41.7,220L41.7,220z M50.4,220v-1.1c3.6-2.7,5.2-4.2,5.2-5.7c0-1.1-0.9-1.6-1.9-1.6c-1.1,0-2,0.5-2.6,1.2l-0.9-0.9
	c0.8-1,2.1-1.5,3.4-1.5c1.7,0,3.3,1,3.3,2.9s-1.8,3.5-4.4,5.5H57v1.3L50.4,220L50.4,220z"/>
<path d="M82,219.9v-0.7c3.2-2.6,5.4-4.5,5.4-6.3c0-1.4-1.1-1.9-2.2-1.9c-1.2,0-2.1,0.5-2.6,1.2l-0.6-0.5c0.7-0.9,1.8-1.5,3.2-1.5
	s3,0.8,3,2.7c0,2.1-2.2,4-5,6.2h5v0.7H82V219.9z M93.8,210.2c2.6,0,3.5,2.6,3.5,4.9c0,2.3-1,4.9-3.5,4.9c-2.6,0-3.5-2.7-3.5-4.9
	C90.2,212.9,91.2,210.2,93.8,210.2z M93.8,211c-2,0-2.7,2.2-2.7,4.2s0.7,4.2,2.7,4.2s2.7-2.2,2.7-4.2C96.4,213.2,95.8,211,93.8,211z
	 M98.9,219.9v-0.7c3.2-2.6,5.4-4.5,5.4-6.3c0-1.4-1.1-1.9-2.2-1.9c-1.2,0-2.1,0.5-2.6,1.2l-0.6-0.5c0.7-0.9,1.8-1.5,3.2-1.5
	s3,0.8,3,2.7c0,2.1-2.2,4-5,6.2h5v0.7h-6.2V219.9z M110.6,210.2c2.6,0,3.5,2.6,3.5,4.9c0,2.3-1,4.9-3.5,4.9c-2.6,0-3.5-2.7-3.5-4.9
	C107.1,212.9,108,210.2,110.6,210.2z M110.6,211c-2,0-2.7,2.2-2.7,4.2s0.7,4.2,2.7,4.2c2,0,2.7-2.2,2.7-4.2
	C113.3,213.2,112.6,211,110.6,211z M115.9,216.8v-0.7h3.4v0.7H115.9z M120.4,219.9v-0.7c3.2-2.6,5.4-4.5,5.4-6.3
	c0-1.4-1.1-1.9-2.2-1.9c-1.2,0-2.1,0.5-2.6,1.2l-0.6-0.5c0.7-0.9,1.8-1.5,3.2-1.5s3,0.8,3,2.7c0,2.1-2.2,4-5,6.2h5v0.7h-6.2V219.9z
	 M132.1,219.9v-8.4l-2.2,2.4l-0.5-0.5l2.8-3h0.7v9.5H132.1z"/>
<path d="M158,219.8v-0.7c3.2-2.6,5.4-4.5,5.4-6.3c0-1.4-1.1-1.9-2.2-1.9c-1.2,0-2.1,0.5-2.6,1.2l-0.6-0.5c0.7-0.9,1.8-1.5,3.2-1.5
	s3,0.8,3,2.7c0,2.1-2.2,4-5,6.2h5v0.7H158V219.8z M169.7,210.2c2.6,0,3.5,2.6,3.5,4.9c0,2.3-1,4.9-3.5,4.9s-3.5-2.7-3.5-4.9
	C166.2,212.8,167.2,210.2,169.7,210.2z M169.7,210.9c-2,0-2.7,2.2-2.7,4.2s0.7,4.2,2.7,4.2s2.7-2.2,2.7-4.2S171.7,210.9,169.7,210.9
	z M178.3,219.8v-8.4l-2.2,2.4l-0.5-0.5l2.8-3h0.7v9.5H178.3z M183.3,218.2c0.5,0.6,1.1,1.1,2.1,1.1c2.1,0,2.8-2.2,2.8-4.2
	c0-0.1,0-0.3,0-0.4c-0.4,0.7-1.5,1.6-2.8,1.6c-1.7,0-3.1-1-3.1-3c0-1.6,1.2-3,3.2-3c2.6,0,3.5,2.4,3.5,4.9c0,2.4-1,4.9-3.6,4.9
	c-1.2,0-2-0.5-2.6-1.2L183.3,218.2z M185.5,210.9c-1.6,0-2.4,1.3-2.4,2.3c0,1.6,1,2.3,2.4,2.3c1,0,2.1-0.7,2.6-1.6
	C188,212.5,187.3,210.9,185.5,210.9z M191,216.7V216h3.4v0.7H191z M195.5,219.8v-0.7c3.2-2.6,5.4-4.5,5.4-6.3c0-1.4-1.1-1.9-2.2-1.9
	c-1.2,0-2.1,0.5-2.6,1.2l-0.6-0.5c0.7-0.9,1.8-1.5,3.2-1.5s3,0.8,3,2.7c0,2.1-2.2,4-5,6.2h5v0.7h-6.2V219.8z M207.2,210.2
	c2.6,0,3.5,2.6,3.5,4.9c0,2.3-1,4.9-3.5,4.9s-3.5-2.7-3.5-4.9C203.7,212.8,204.6,210.2,207.2,210.2z M207.2,210.9
	c-2,0-2.7,2.2-2.7,4.2s0.7,4.2,2.7,4.2s2.7-2.2,2.7-4.2S209.2,210.9,207.2,210.9z"/>
<path d="M237.7,219.8v-0.7c3.2-2.6,5.4-4.5,5.4-6.3c0-1.4-1.1-1.9-2.2-1.9c-1.2,0-2.1,0.5-2.6,1.2l-0.6-0.5c0.7-0.9,1.8-1.5,3.2-1.5
	c1.4,0,3,0.8,3,2.7c0,2.1-2.2,4-5,6.2h5v0.7h-6.2V219.8z M249.5,210.1c2.6,0,3.5,2.6,3.5,4.9c0,2.3-1,4.9-3.5,4.9s-3.5-2.7-3.5-4.9
	C245.9,212.7,246.9,210.1,249.5,210.1z M249.5,210.8c-2,0-2.7,2.2-2.7,4.2s0.7,4.2,2.7,4.2s2.7-2.2,2.7-4.2
	C252.1,213,251.5,210.8,249.5,210.8z M258,219.8v-8.4l-2.2,2.4l-0.5-0.5l2.8-3h0.7v9.5H258z M264.6,214.8c-1.1-0.3-2.2-1-2.2-2.3
	c0-1.7,1.6-2.5,3.1-2.5s3.1,0.8,3.1,2.5c0,1.3-1.1,2-2.2,2.3c1.2,0.3,2.4,1.2,2.4,2.5c0,1.5-1.4,2.6-3.2,2.6c-1.8,0-3.2-1-3.2-2.6
	C262.2,216,263.4,215.2,264.6,214.8z M265.5,215.2c-0.6,0.1-2.4,0.6-2.4,2.1c0,1.2,1.1,1.9,2.4,1.9c1.2,0,2.4-0.7,2.4-1.9
	C267.9,215.9,266,215.3,265.5,215.2z M265.5,210.8c-1.3,0-2.3,0.7-2.3,1.8c0,1.3,1.7,1.8,2.3,1.9c0.6-0.1,2.3-0.5,2.3-1.9
	C267.7,211.5,266.7,210.8,265.5,210.8z M270.5,216.6v-0.7h3.4v0.7H270.5z M278.3,219.8v-8.4l-2.2,2.4l-0.5-0.5l2.8-3h0.7v9.5H278.3z
	 M283.2,218.1c0.5,0.6,1.1,1.1,2.1,1.1c2.1,0,2.8-2.2,2.8-4.2c0-0.1,0-0.3,0-0.4c-0.4,0.7-1.5,1.6-2.8,1.6c-1.7,0-3.1-1-3.1-3
	c0-1.6,1.2-3,3.2-3c2.6,0,3.5,2.4,3.5,4.9c0,2.4-1,4.9-3.6,4.9c-1.2,0-2-0.5-2.6-1.2L283.2,218.1z M285.5,210.8
	c-1.6,0-2.4,1.3-2.4,2.3c0,1.6,1,2.3,2.4,2.3c1,0,2.1-0.7,2.6-1.6C288,212.5,287.3,210.8,285.5,210.8z"/>
<path d="M316.4,219.9v-0.7c3.2-2.6,5.4-4.5,5.4-6.3c0-1.4-1.1-1.9-2.2-1.9c-1.2,0-2.1,0.5-2.6,1.2l-0.6-0.5c0.7-0.9,1.8-1.5,3.2-1.5
	c1.4,0,3,0.8,3,2.7c0,2.1-2.2,4-5,6.2h5v0.7h-6.2V219.9z M328.1,210.2c2.6,0,3.5,2.6,3.5,4.9c0,2.3-1,4.9-3.5,4.9
	c-2.6,0-3.5-2.7-3.5-4.9S325.6,210.2,328.1,210.2z M328.1,211c-2,0-2.7,2.2-2.7,4.2s0.7,4.2,2.7,4.2s2.7-2.2,2.7-4.2
	C330.8,213.2,330.1,211,328.1,211z M336.7,219.9v-8.4l-2.2,2.4l-0.5-0.5l2.8-3h0.7v9.5H336.7z M342.1,219.9l4-8.8h-5.3v-0.7h6.2v0.6
	l-4.1,9h-0.8V219.9z M348,216.8v-0.7h3.4v0.7H348z M355.7,219.9v-8.4l-2.2,2.4l-0.5-0.5l2.8-3h0.7v9.5H355.7z M362.3,215
	c-1.1-0.3-2.2-1-2.2-2.3c0-1.7,1.6-2.5,3.1-2.5s3.1,0.8,3.1,2.5c0,1.3-1.1,2-2.2,2.3c1.2,0.3,2.4,1.2,2.4,2.5c0,1.5-1.4,2.6-3.2,2.6
	c-1.8,0-3.2-1-3.2-2.6C359.9,216.2,361.1,215.3,362.3,215z M363.2,215.4c-0.6,0.1-2.4,0.6-2.4,2.1c0,1.2,1.1,1.9,2.4,1.9
	c1.2,0,2.4-0.7,2.4-1.9C365.6,216,363.7,215.4,363.2,215.4z M363.2,211c-1.3,0-2.3,0.7-2.3,1.8c0,1.3,1.7,1.8,2.3,1.9
	c0.6-0.1,2.3-0.5,2.3-1.9C365.4,211.6,364.4,211,363.2,211z"/>
<g>
	<g>
		<path class="st1" d="M8.5,9.5l1-1.7c0.5,0.5,1.1,0.8,2,0.8c1.7,0,2.5-1.4,2.5-2.9c0-0.1,0-0.2,0-0.2c-0.5,0.7-1.5,1.3-2.6,1.3
			c-1.8,0-3.5-1.1-3.5-3.3c0-2,1.6-3.5,3.9-3.5c3.1,0.1,4.4,2.4,4.4,5.3c0,3.1-1.7,5.3-4.7,5.3C10.3,10.6,9.2,10.1,8.5,9.5z M14,4
			c-0.1-1-0.6-2.1-2.1-2.1c-1.2,0-1.8,0.8-1.8,1.5c0,1.1,0.9,1.5,1.9,1.5C12.8,5,13.5,4.6,14,4z M17.7,5.3c0-3.1,1.7-5.3,4.7-5.3
			c1.2,0,2.3,0.4,3,1.1l-1,1.7c-0.5-0.5-1.1-0.8-2-0.8c-1.5,0-2.5,1.3-2.5,2.9c0,0.1,0,0.1,0,0.2c0.5-0.7,1.5-1.3,2.6-1.3
			c1.8,0,3.5,1.1,3.5,3.3c0,2-1.6,3.5-3.9,3.5C18.9,10.6,17.7,8.2,17.7,5.3z M23.7,7.2c0-1.1-0.9-1.5-1.9-1.5c-0.8,0-1.5,0.4-2,1
			c0.1,1,0.6,2.1,2.1,2.1C23.1,8.6,23.7,7.9,23.7,7.2z M27.2,9.3c0-0.7,0.5-1.2,1.2-1.2s1.2,0.6,1.2,1.2c0,0.7-0.6,1.2-1.2,1.2
			S27.2,10,27.2,9.3z M33.5,10.4V3l-1.7,1.7l-1.2-1.3l3.2-3.2h1.9v10.2H33.5z M38.4,10.4V8.7c4.2-3.1,5.4-4.1,5.4-5.4
			C43.8,2.4,43,2,42.2,2c-1.2,0-2,0.5-2.7,1.2l-1.3-1.5c1-1.1,2.5-1.7,3.9-1.7C44.3,0,46,1.2,46,3.2c0,1.7-1.4,3.2-4.1,5.2H46v1.9
			h-7.6V10.4z"/>
		<path class="st2" d="M6.7,28.5l1-1.7c0.5,0.5,1.1,0.8,2,0.8c1.7,0,2.5-1.4,2.5-2.9c0-0.1,0-0.2,0-0.2c-0.5,0.7-1.5,1.3-2.6,1.3
			c-1.8,0-3.5-1.1-3.5-3.3c0-2,1.6-3.5,3.9-3.5c3.1,0,4.4,2.4,4.4,5.2c0,3.1-1.7,5.3-4.7,5.3C8.4,29.6,7.4,29.1,6.7,28.5z M12.2,23
			c-0.1-1-0.6-2.1-2.1-2.1c-1.2,0-1.8,0.8-1.8,1.5c0,1.1,0.9,1.5,1.9,1.5C11,24,11.7,23.6,12.2,23z M15.8,24.3
			c0-3.1,1.7-5.3,4.7-5.3c1.2,0,2.3,0.4,3,1.1l-1,1.7c-0.5-0.5-1.1-0.8-2-0.8C19,21,18,22.3,18,23.9c0,0.1,0,0.1,0,0.2
			c0.5-0.7,1.5-1.3,2.6-1.3c1.8,0,3.5,1.1,3.5,3.3c0,2-1.6,3.5-3.9,3.5C17.1,29.6,15.8,27.2,15.8,24.3z M21.9,26.2
			c0-1.1-0.9-1.5-1.9-1.5c-0.8,0-1.5,0.4-2,1c0.1,1,0.6,2.1,2.1,2.1C21.2,27.6,21.9,26.9,21.9,26.2z M25.3,28.3
			c0-0.7,0.6-1.2,1.2-1.2c0.7,0,1.2,0.6,1.2,1.2c0,0.7-0.6,1.2-1.2,1.2C25.9,29.6,25.3,29,25.3,28.3z M33.9,29.4v-2.1H29v-1.7l4-6.3
			h3v6.2h1.3v1.9H36v2.1L33.9,29.4L33.9,29.4z M33.9,21.1l-2.7,4.3h2.7V21.1z M39.8,29.4l3.6-8.3h-5.1v-1.9h7.6v1.5l-3.7,8.7H39.8z"
			/>
	</g>
	<g>
		<g>
			<g>
				<defs>
					<rect id="SVGID_1_" y="32.6" width="26" height="178.1"/>
				</defs>
				<clipPath id="SVGID_00000062179120516775677330000008311360516671607201_">
					<use xlink:href="#SVGID_1_"  style="overflow:visible;"/>
				</clipPath>
				
					<rect x="13.3" y="41.3" style="clip-path:url(#SVGID_00000062179120516775677330000008311360516671607201_);fill:#9ACA3E;" width="10.8" height="160.8"/>
			</g>
		</g>
	</g>
	<defs>
		<filter id="Adobe_OpacityMaskFilter" filterUnits="userSpaceOnUse" x="20.2" y="31.4" width="26" height="179.3">
			<feColorMatrix  type="matrix" values="1 0 0 0 0  0 1 0 0 0  0 0 1 0 0  0 0 0 1 0"/>
		</filter>
	</defs>
	
		<mask maskUnits="userSpaceOnUse" x="20.2" y="31.4" width="26" height="179.3" id="SVGID_00000138547814822103792430000009391948790953396399_">
		<g class="st4">
			
				<linearGradient id="SVGID_00000112607939129003030610000010502845681035986585_" gradientUnits="userSpaceOnUse" x1="-168.8618" y1="-151.8544" x2="-167.8999" y2="-151.8544" gradientTransform="matrix(-2.000000e-15 40.8253 -40.8253 -2.000000e-15 -6502.7026 7056.6162)">
				<stop  offset="0" style="stop-color:#FFFFFF"/>
				<stop  offset="1" style="stop-color:#000000"/>
			</linearGradient>
			
				<rect x="-1104.8" y="-35.1" style="fill:url(#SVGID_00000112607939129003030610000010502845681035986585_);" width="1603.2" height="572.6"/>
		</g>
	</mask>
	<g class="st6">
		<g>
			<g>
				<defs>
					<rect id="SVGID_00000065796998816917791880000011383278651588255885_" x="20.2" y="31.4" width="26" height="179.3"/>
				</defs>
				<clipPath id="SVGID_00000162312857259748499250000015418744325730599048_">
					<use xlink:href="#SVGID_00000065796998816917791880000011383278651588255885_"  style="overflow:visible;"/>
				</clipPath>
				
					<rect x="33.6" y="40" style="clip-path:url(#SVGID_00000162312857259748499250000015418744325730599048_);fill:#15BFF1;" width="10.8" height="162"/>
			</g>
		</g>
	</g>
	<line class="st8" x1="18.7" y1="202" x2="18.7" y2="38.7"/>
	<line class="st8" x1="39" y1="202" x2="39" y2="38.7"/>
</g>
<g>
	<g>
		<path class="st1" d="M86.2,8.4c0.5,0.6,1.1,1,2.2,1c2.1,0,2.9-2.1,2.9-4V5c-0.5,0.7-1.6,1.6-2.9,1.6c-1.8,0-3.3-1.1-3.3-3.2
			c0-1.8,1.3-3.3,3.6-3.3c2.8,0,3.9,2.5,3.9,5.3c0,2.7-1.3,5.2-4.1,5.2c-1.3,0-2.2-0.5-2.8-1.2L86.2,8.4z M88.7,1.2
			c-1.6,0-2.3,1.2-2.3,2.1c0,1.5,1.1,2.2,2.3,2.2c1,0,2-0.6,2.5-1.5C91.1,2.8,90.4,1.2,88.7,1.2z M95.2,8.1C95.9,9,96.8,9.4,98,9.4
			c1.4,0,2.3-0.9,2.3-2.2S99.4,5,98,5c-0.9,0-1.7,0.3-2.4,1l-0.9-0.3V0.2h6.2v1.1H96v3.5c0.5-0.5,1.4-0.9,2.4-0.9
			c1.7,0,3.2,1.2,3.2,3.2c0,2.1-1.6,3.3-3.6,3.3c-1.7,0-2.8-0.6-3.6-1.6L95.2,8.1z M104.2,8.9c0.5,0,0.8,0.4,0.8,0.8
			s-0.4,0.8-0.8,0.8c-0.5,0-0.8-0.4-0.8-0.8S103.7,8.9,104.2,8.9z M107.8,8.4c0.5,0.6,1.1,1,2.2,1c2.1,0,2.9-2.1,2.9-4V5
			c-0.5,0.7-1.6,1.6-2.9,1.6c-1.8,0-3.3-1.1-3.3-3.2c0-1.8,1.3-3.3,3.6-3.3c2.8,0,3.9,2.5,3.9,5.3c0,2.7-1.3,5.2-4.1,5.2
			c-1.3,0-2.2-0.5-2.8-1.2L107.8,8.4z M110.2,1.2c-1.6,0-2.3,1.2-2.3,2.1c0,1.5,1.1,2.2,2.3,2.2c1,0,2-0.6,2.5-1.5
			C112.7,2.8,112,1.2,110.2,1.2z M120.2,0.1c1.3,0,2.2,0.5,2.8,1.2l-0.7,0.9c-0.5-0.6-1.1-1-2.2-1c-2,0-2.9,2-2.9,4
			c0,0.1,0,0.3,0,0.4c0.4-0.7,1.6-1.6,2.9-1.6c1.8,0,3.3,1.1,3.3,3.2c0,1.8-1.3,3.3-3.5,3.3c-2.8,0-3.9-2.5-3.9-5.2
			S117.3,0.1,120.2,0.1z M119.9,5.1c-1,0-2,0.6-2.5,1.5c0.1,1.3,0.8,2.8,2.5,2.8c1.6,0,2.3-1.2,2.3-2.1
			C122.2,5.8,121.2,5.1,119.9,5.1z"/>
		<path class="st2" d="M86.9,27.4c0.5,0.6,1.1,1,2.2,1c2.1,0,2.9-2.1,2.9-4V24c-0.5,0.7-1.6,1.6-2.9,1.6c-1.8,0-3.3-1.1-3.3-3.2
			c0-1.8,1.3-3.3,3.6-3.3c2.8,0,3.9,2.5,3.9,5.3c0,2.7-1.3,5.2-4.1,5.2c-1.3,0-2.2-0.5-2.8-1.2L86.9,27.4z M89.4,20.2
			c-1.6,0-2.3,1.2-2.3,2.1c0,1.5,1.1,2.2,2.3,2.2c1,0,2-0.6,2.5-1.5C91.8,21.8,91.1,20.2,89.4,20.2z M99.3,19.1
			c1.3,0,2.2,0.5,2.8,1.2l-0.7,0.9c-0.5-0.6-1.1-1-2.2-1c-2,0-2.9,2-2.9,4c0,0.1,0,0.3,0,0.4c0.4-0.7,1.6-1.6,2.9-1.6
			c1.8,0,3.3,1.1,3.3,3.2c0,1.8-1.3,3.3-3.5,3.3c-2.8,0-3.9-2.5-3.9-5.2S96.5,19.1,99.3,19.1z M99,24.1c-1,0-2,0.6-2.5,1.5
			c0.1,1.3,0.8,2.8,2.5,2.8c1.6,0,2.3-1.2,2.3-2.1C101.4,24.8,100.3,24.1,99,24.1z M105.1,27.9c0.5,0,0.8,0.4,0.8,0.8
			s-0.4,0.8-0.8,0.8c-0.5,0-0.8-0.4-0.8-0.8S104.6,27.9,105.1,27.9z M108.7,29.4l4.1-9h-5.5v-1.1h6.9v0.8l-4.2,9.3H108.7z M117,27.1
			c0.7,0.9,1.6,1.3,2.8,1.3c1.4,0,2.3-0.9,2.3-2.2c0-1.3-0.9-2.2-2.3-2.2c-0.9,0-1.7,0.3-2.4,1l-0.9-0.3v-5.5h6.2v1.1h-4.9v3.5
			c0.5-0.5,1.4-0.9,2.4-0.9c1.7,0,3.2,1.2,3.2,3.2c0,2.1-1.6,3.3-3.6,3.3c-1.7,0-2.8-0.6-3.6-1.6L117,27.1z"/>
	</g>
	<defs>
		
			<filter id="Adobe_OpacityMaskFilter_00000132060087544804179710000005508000015613061560_" filterUnits="userSpaceOnUse" x="75.3" y="32.7" width="26" height="177.5">
			<feColorMatrix  type="matrix" values="1 0 0 0 0  0 1 0 0 0  0 0 1 0 0  0 0 0 1 0"/>
		</filter>
	</defs>
	
		<mask maskUnits="userSpaceOnUse" x="75.3" y="32.7" width="26" height="177.5" id="SVGID_00000151501846596397223880000002196631837466587030_">
		<g style="filter:url(#Adobe_OpacityMaskFilter_00000132060087544804179710000005508000015613061560_);">
			
				<linearGradient id="SVGID_00000152962101040199432710000009971430954615342734_" gradientUnits="userSpaceOnUse" x1="-168.0132" y1="-154.2734" x2="-167.0513" y2="-154.2734" gradientTransform="matrix(-3.000000e-15 46.4454 -46.4454 -3.000000e-15 -7450.6899 7960.3262)">
				<stop  offset="0" style="stop-color:#FFFFFF"/>
				<stop  offset="1" style="stop-color:#000000"/>
			</linearGradient>
			
				<rect x="-1087" y="-35.6" style="fill:url(#SVGID_00000152962101040199432710000009971430954615342734_);" width="1603.2" height="572.6"/>
		</g>
	</mask>
	<g class="st11">
		<g>
			<g>
				<defs>
					<rect id="SVGID_00000108275616561049470420000016364181140315855504_" x="75.3" y="32.7" width="26" height="177.5"/>
				</defs>
				<clipPath id="SVGID_00000006693446225314649610000001366322342440284585_">
					<use xlink:href="#SVGID_00000108275616561049470420000016364181140315855504_"  style="overflow:visible;"/>
				</clipPath>
				
					<rect x="88.6" y="41.3" style="clip-path:url(#SVGID_00000006693446225314649610000001366322342440284585_);fill:#CBE19C;" width="10.8" height="160.2"/>
			</g>
		</g>
	</g>
	<defs>
		
			<filter id="Adobe_OpacityMaskFilter_00000150066569606352398600000016234198822368753566_" filterUnits="userSpaceOnUse" x="95.5" y="29.9" width="26" height="180.3">
			<feColorMatrix  type="matrix" values="1 0 0 0 0  0 1 0 0 0  0 0 1 0 0  0 0 0 1 0"/>
		</filter>
	</defs>
	
		<mask maskUnits="userSpaceOnUse" x="95.5" y="29.9" width="26" height="180.3" id="SVGID_00000169516760490576688740000010022406363852458377_">
		<g style="filter:url(#Adobe_OpacityMaskFilter_00000150066569606352398600000016234198822368753566_);">
			
				<linearGradient id="SVGID_00000065767591148879968610000002180353828079946379_" gradientUnits="userSpaceOnUse" x1="-167.5987" y1="-155.1622" x2="-166.6369" y2="-155.1622" gradientTransform="matrix(-3.000000e-15 49.7427 -49.7427 -3.000000e-15 -8003.5845 8490.5352)">
				<stop  offset="0" style="stop-color:#FFFFFF"/>
				<stop  offset="1" style="stop-color:#000000"/>
			</linearGradient>
			
				<rect x="-1087" y="-35.6" style="fill:url(#SVGID_00000065767591148879968610000002180353828079946379_);" width="1603.2" height="572.6"/>
		</g>
	</mask>
	<g class="st15">
		<g>
			<g>
				<defs>
					<rect id="SVGID_00000072269869963754940700000009297472492757015171_" x="95.5" y="29.9" width="26" height="180.3"/>
				</defs>
				<clipPath id="SVGID_00000038385851478531951540000013284707372245358492_">
					<use xlink:href="#SVGID_00000072269869963754940700000009297472492757015171_"  style="overflow:visible;"/>
				</clipPath>
				
					<rect x="108.8" y="38.6" style="clip-path:url(#SVGID_00000038385851478531951540000013284707372245358492_);fill:#9EDDF9;" width="10.8" height="163"/>
			</g>
		</g>
	</g>
	<line class="st8" x1="94" y1="201.6" x2="94" y2="39.3"/>
	<line class="st8" x1="114.2" y1="201.6" x2="114.2" y2="38.2"/>
</g>
<g>
	<g>
		<path class="st1" d="M166.7,8.4c0.5,0.6,1.1,1,2.2,1c2.1,0,2.9-2.1,2.9-4V5c-0.5,0.7-1.6,1.6-2.9,1.6c-1.8,0-3.3-1.1-3.3-3.2
			c0-1.8,1.3-3.3,3.6-3.3c2.8,0,3.9,2.5,3.9,5.3c0,2.7-1.3,5.2-4.1,5.2c-1.3,0-2.2-0.5-2.8-1.2L166.7,8.4z M169.1,1.2
			c-1.6,0-2.3,1.2-2.3,2.1c0,1.5,1.1,2.2,2.3,2.2c1,0,2-0.6,2.5-1.5C171.5,2.8,170.9,1.2,169.1,1.2z M179,0.1c1.3,0,2.2,0.5,2.8,1.2
			l-0.6,0.9c-0.5-0.6-1.1-1-2.2-1c-2,0-2.9,2-2.9,4c0,0.1,0,0.3,0,0.4c0.4-0.7,1.6-1.6,2.9-1.6c1.8,0,3.3,1.1,3.3,3.2
			c0,1.8-1.3,3.3-3.5,3.3c-2.8,0-3.9-2.5-3.9-5.2S176.2,0.1,179,0.1z M178.8,5.1c-1,0-2,0.6-2.5,1.5c0.1,1.3,0.8,2.8,2.5,2.8
			c1.6,0,2.3-1.2,2.3-2.1C181.1,5.8,180.1,5.1,178.8,5.1z M184.8,8.9c0.5,0,0.8,0.4,0.8,0.8s-0.4,0.8-0.8,0.8s-0.8-0.4-0.8-0.8
			S184.4,8.9,184.8,8.9z M189.6,10.4V1.9l-2.1,2.2l-0.8-0.8l3-3.1h1.1v10.2C190.8,10.4,189.6,10.4,189.6,10.4z M195.3,8.4
			c0.5,0.6,1.1,1,2.2,1c2.1,0,2.9-2.1,2.9-4V5c-0.5,0.7-1.6,1.6-2.9,1.6c-1.8,0-3.3-1.1-3.3-3.2c0-1.8,1.3-3.3,3.6-3.3
			c2.8,0,3.9,2.5,3.9,5.3c0,2.7-1.3,5.2-4.1,5.2c-1.3,0-2.2-0.5-2.8-1.2L195.3,8.4z M197.7,1.2c-1.6,0-2.3,1.2-2.3,2.1
			c0,1.5,1.1,2.2,2.3,2.2c1,0,2-0.6,2.5-1.5C200.2,2.8,199.5,1.2,197.7,1.2z"/>
		<path class="st2" d="M164.6,27.4c0.5,0.6,1.1,1,2.2,1c2.1,0,2.9-2.1,2.9-4V24c-0.5,0.7-1.6,1.6-2.9,1.6c-1.8,0-3.3-1.1-3.3-3.2
			c0-1.8,1.3-3.3,3.6-3.3c2.8,0,3.9,2.5,3.9,5.3c0,2.7-1.3,5.2-4.1,5.2c-1.3,0-2.2-0.5-2.8-1.2L164.6,27.4z M167,20.2
			c-1.6,0-2.3,1.2-2.3,2.1c0,1.5,1.1,2.2,2.3,2.2c1,0,2-0.6,2.5-1.5C169.5,21.8,168.8,20.2,167,20.2z M177,19.1
			c1.3,0,2.2,0.5,2.8,1.2l-0.7,0.9c-0.5-0.6-1.1-1-2.2-1c-2,0-2.9,2-2.9,4c0,0.1,0,0.3,0,0.4c0.4-0.7,1.6-1.6,2.9-1.6
			c1.8,0,3.3,1.1,3.3,3.2c0,1.8-1.3,3.3-3.5,3.3c-2.8,0-3.9-2.5-3.9-5.2S174.1,19.1,177,19.1z M176.7,24.1c-1,0-2,0.6-2.5,1.5
			c0.1,1.3,0.8,2.8,2.5,2.8c1.6,0,2.3-1.2,2.3-2.1C179,24.8,178,24.1,176.7,24.1z M182.7,27.9c0.5,0,0.8,0.4,0.8,0.8
			s-0.4,0.8-0.8,0.8s-0.8-0.4-0.8-0.8S182.3,27.9,182.7,27.9z M189.2,19.1c1.3,0,2.2,0.5,2.8,1.2l-0.7,0.9c-0.5-0.6-1.1-1-2.2-1
			c-2,0-2.9,2-2.9,4c0,0.1,0,0.3,0,0.4c0.4-0.7,1.6-1.6,2.9-1.6c1.8,0,3.3,1.1,3.3,3.2c0,1.8-1.3,3.3-3.5,3.3
			c-2.8,0-3.9-2.5-3.9-5.2S186.3,19.1,189.2,19.1z M188.9,24.1c-1,0-2,0.6-2.5,1.5c0.1,1.3,0.8,2.8,2.5,2.8c1.6,0,2.3-1.2,2.3-2.1
			C191.3,24.8,190.2,24.1,188.9,24.1z M195,27.1c0.6,0.8,1.6,1.3,2.8,1.3c1.5,0,2.4-0.7,2.4-1.9c0-1.3-1-1.8-2.5-1.8
			c-0.4,0-0.9,0-1.1,0v-1.2c0.2,0,0.6,0,1.1,0c1.3,0,2.4-0.5,2.4-1.7c0-1.1-1-1.7-2.3-1.7c-1.1,0-1.9,0.4-2.7,1.2l-0.7-0.8
			c0.7-0.9,1.9-1.6,3.5-1.6c1.9,0,3.4,1,3.4,2.7c0,1.5-1.2,2.2-2.2,2.4c0.9,0.1,2.3,0.9,2.3,2.5c0,1.7-1.4,2.9-3.6,2.9
			c-1.7,0-3-0.8-3.6-1.7L195,27.1z"/>
	</g>
	<defs>
		
			<filter id="Adobe_OpacityMaskFilter_00000041296936414370374760000015090509755125731000_" filterUnits="userSpaceOnUse" x="155.5" y="31.9" width="26" height="178.4">
			<feColorMatrix  type="matrix" values="1 0 0 0 0  0 1 0 0 0  0 0 1 0 0  0 0 0 1 0"/>
		</filter>
	</defs>
	
		<mask maskUnits="userSpaceOnUse" x="155.5" y="31.9" width="26" height="178.4" id="SVGID_00000093136637942463079270000013314576807083615655_">
		<g style="filter:url(#Adobe_OpacityMaskFilter_00000041296936414370374760000015090509755125731000_);">
			
				<linearGradient id="SVGID_00000160907932261815018210000007663409751976155033_" gradientUnits="userSpaceOnUse" x1="-168.9158" y1="-151.8629" x2="-167.954" y2="-151.8629" gradientTransform="matrix(-2.000000e-15 40.5848 -40.5848 -2.000000e-15 -6426.0269 7017.9453)">
				<stop  offset="0" style="stop-color:#FFFFFF"/>
				<stop  offset="1" style="stop-color:#000000"/>
			</linearGradient>
			
				<rect x="-1064.3" y="-35.6" style="fill:url(#SVGID_00000160907932261815018210000007663409751976155033_);" width="1603.2" height="572.6"/>
		</g>
	</mask>
	<g class="st19">
		<g>
			<g>
				<defs>
					<rect id="SVGID_00000053527397833324816690000008590074496966635654_" x="155.5" y="31.9" width="26" height="178.4"/>
				</defs>
				<clipPath id="SVGID_00000034058887899829549590000010005025854129584309_">
					<use xlink:href="#SVGID_00000053527397833324816690000008590074496966635654_"  style="overflow:visible;"/>
				</clipPath>
				
					<rect x="168.8" y="40.5" style="clip-path:url(#SVGID_00000034058887899829549590000010005025854129584309_);fill:#CBE19C;" width="10.8" height="161.1"/>
			</g>
		</g>
	</g>
	<defs>
		
			<filter id="Adobe_OpacityMaskFilter_00000165951816720130028490000010225701162554139793_" filterUnits="userSpaceOnUse" x="175.7" y="30.2" width="26" height="180">
			<feColorMatrix  type="matrix" values="1 0 0 0 0  0 1 0 0 0  0 0 1 0 0  0 0 0 1 0"/>
		</filter>
	</defs>
	
		<mask maskUnits="userSpaceOnUse" x="175.7" y="30.2" width="26" height="180" id="SVGID_00000170983438547821501180000003195965749349116589_">
		<g style="filter:url(#Adobe_OpacityMaskFilter_00000165951816720130028490000010225701162554139793_);">
			
				<linearGradient id="SVGID_00000049928606282771209980000014760537086287549840_" gradientUnits="userSpaceOnUse" x1="-166.9938" y1="-156.7861" x2="-166.032" y2="-156.7861" gradientTransform="matrix(-3.000000e-15 55.4944 -55.4944 -3.000000e-15 -8963.4521 9415.4102)">
				<stop  offset="0" style="stop-color:#FFFFFF"/>
				<stop  offset="1" style="stop-color:#000000"/>
			</linearGradient>
			
				<rect x="-1064.3" y="-35.6" style="fill:url(#SVGID_00000049928606282771209980000014760537086287549840_);" width="1603.2" height="572.6"/>
		</g>
	</mask>
	<g class="st23">
		<g>
			<g>
				<defs>
					<rect id="SVGID_00000021831094932134539550000009175383316456093855_" x="175.7" y="30.2" width="26" height="180"/>
				</defs>
				<clipPath id="SVGID_00000165940917616160657920000000507184769163048096_">
					<use xlink:href="#SVGID_00000021831094932134539550000009175383316456093855_"  style="overflow:visible;"/>
				</clipPath>
				
					<rect x="189" y="38.9" style="clip-path:url(#SVGID_00000165940917616160657920000000507184769163048096_);fill:#9EDDF9;" width="10.8" height="162.7"/>
			</g>
		</g>
	</g>
	<line class="st8" x1="174.2" y1="201.6" x2="174.2" y2="39"/>
	<line class="st8" x1="194.4" y1="201.6" x2="194.4" y2="38.2"/>
</g>
<g>
	<g>
		<path class="st1" d="M243.3,8.4c0.5,0.6,1.1,1,2.2,1c2.1,0,2.9-2.1,2.9-4V5c-0.5,0.7-1.6,1.6-2.9,1.6c-1.8,0-3.3-1.1-3.3-3.2
			c0-1.8,1.3-3.3,3.6-3.3c2.8,0,3.9,2.5,3.9,5.3c0,2.7-1.3,5.2-4.1,5.2c-1.3,0-2.2-0.5-2.8-1.2L243.3,8.4z M245.7,1.2
			c-1.6,0-2.3,1.2-2.3,2.1c0,1.5,1.1,2.2,2.3,2.2c1,0,2-0.6,2.5-1.5C248.2,2.8,247.5,1.2,245.7,1.2z M252.3,8.1
			c0.7,0.9,1.6,1.3,2.8,1.3c1.4,0,2.3-0.9,2.3-2.2S256.5,5,255.1,5c-0.9,0-1.7,0.3-2.4,1l-0.9-0.3V0.2h6.2v1.1h-4.9v3.5
			c0.5-0.5,1.4-0.9,2.4-0.9c1.7,0,3.2,1.2,3.2,3.2c0,2.1-1.6,3.3-3.6,3.3c-1.7,0-2.8-0.6-3.6-1.6L252.3,8.1z M261.2,8.9
			c0.5,0,0.8,0.4,0.8,0.8s-0.4,0.8-0.8,0.8c-0.5,0-0.8-0.4-0.8-0.8S260.8,8.9,261.2,8.9z M267.6,0.1c1.3,0,2.2,0.5,2.8,1.2l-0.7,0.9
			c-0.5-0.6-1.1-1-2.2-1c-2,0-2.9,2-2.9,4c0,0.1,0,0.3,0,0.4c0.4-0.7,1.6-1.6,2.9-1.6c1.8,0,3.3,1.1,3.3,3.2c0,1.8-1.3,3.3-3.5,3.3
			c-2.8,0-3.9-2.5-3.9-5.2S264.8,0.1,267.6,0.1z M267.4,5.1c-1,0-2,0.6-2.5,1.5c0.1,1.3,0.8,2.8,2.5,2.8c1.6,0,2.3-1.2,2.3-2.1
			C269.7,5.8,268.7,5.1,267.4,5.1z M272.7,10.4v-1c3.7-2.9,5.6-4.6,5.6-6.3c0-1.3-1.1-1.9-2.1-1.9c-1.2,0-2.2,0.5-2.8,1.3l-0.8-0.8
			c0.8-1,2.1-1.6,3.5-1.6c1.7,0,3.4,1,3.4,3c0,2.1-2.1,4-4.9,6.2h5v1.1H272.7z"/>
		<path class="st2" d="M242.9,30.3c0.5,0.6,1.1,1,2.2,1c2.1,0,2.9-2.1,2.9-4v-0.4c-0.5,0.7-1.6,1.6-2.9,1.6c-1.8,0-3.3-1.1-3.3-3.2
			c0-1.8,1.3-3.3,3.6-3.3c2.8,0,3.9,2.5,3.9,5.3c0,2.7-1.3,5.2-4.1,5.2c-1.3,0-2.2-0.5-2.8-1.2L242.9,30.3z M245.4,23.1
			c-1.6,0-2.3,1.2-2.3,2.1c0,1.5,1.1,2.2,2.3,2.2c1,0,2-0.6,2.5-1.5C247.8,24.7,247.1,23.1,245.4,23.1z M255.3,22
			c1.3,0,2.2,0.5,2.8,1.2l-0.7,0.9c-0.5-0.6-1.1-1-2.2-1c-2,0-2.9,2-2.9,4c0,0.1,0,0.3,0,0.4c0.4-0.7,1.6-1.6,2.9-1.6
			c1.8,0,3.3,1.1,3.3,3.2c0,1.8-1.3,3.3-3.5,3.3c-2.8,0-3.9-2.5-3.9-5.2S252.5,22,255.3,22z M255.1,27c-1,0-2,0.6-2.5,1.5
			c0.1,1.3,0.8,2.8,2.5,2.8c1.6,0,2.3-1.2,2.3-2.1C257.4,27.7,256.3,27,255.1,27z M261.1,30.8c0.5,0,0.8,0.4,0.8,0.8
			c0,0.5-0.4,0.8-0.8,0.8c-0.5,0-0.8-0.4-0.8-0.8C260.3,31.2,260.6,30.8,261.1,30.8z M264.7,30.3c0.5,0.6,1.1,1,2.2,1
			c2.1,0,2.9-2.1,2.9-4v-0.4c-0.5,0.7-1.6,1.6-2.9,1.6c-1.8,0-3.3-1.1-3.3-3.2c0-1.8,1.3-3.3,3.6-3.3c2.8,0,3.9,2.5,3.9,5.3
			c0,2.7-1.3,5.2-4.1,5.2c-1.3,0-2.2-0.5-2.8-1.2L264.7,30.3z M267.2,23.1c-1.6,0-2.3,1.2-2.3,2.1c0,1.5,1.1,2.2,2.3,2.2
			c1,0,2-0.6,2.5-1.5C269.6,24.7,268.9,23.1,267.2,23.1z M276.2,32.3v-8.5l-2.1,2.2l-0.8-0.8l3-3.1h1.1v10.2H276.2z"/>
	</g>
	<defs>
		
			<filter id="Adobe_OpacityMaskFilter_00000053537800756275605800000013249588287390003640_" filterUnits="userSpaceOnUse" x="232.1" y="33.8" width="26" height="176.5">
			<feColorMatrix  type="matrix" values="1 0 0 0 0  0 1 0 0 0  0 0 1 0 0  0 0 0 1 0"/>
		</filter>
	</defs>
	
		<mask maskUnits="userSpaceOnUse" x="232.1" y="33.8" width="26" height="176.5" id="SVGID_00000095326095261842295660000008051263187163903164_">
		<g style="filter:url(#Adobe_OpacityMaskFilter_00000053537800756275605800000013249588287390003640_);">
			
				<linearGradient id="SVGID_00000178917993423855835340000009234911937927850654_" gradientUnits="userSpaceOnUse" x1="-168.056" y1="-154.0656" x2="-167.0941" y2="-154.0656" gradientTransform="matrix(-3.000000e-15 46.1293 -46.1293 -3.000000e-15 -7350.4399 7909.4941)">
				<stop  offset="0" style="stop-color:#FFFFFF"/>
				<stop  offset="1" style="stop-color:#000000"/>
			</linearGradient>
			
				<rect x="-1045.1" y="-35.6" style="fill:url(#SVGID_00000178917993423855835340000009234911937927850654_);" width="1603.2" height="572.6"/>
		</g>
	</mask>
	<g class="st27">
		<g>
			<g>
				<defs>
					<rect id="SVGID_00000098214435544485964660000003226562747845898674_" x="232.1" y="33.8" width="26" height="176.5"/>
				</defs>
				<clipPath id="SVGID_00000089547544420102533120000013359823960725189565_">
					<use xlink:href="#SVGID_00000098214435544485964660000003226562747845898674_"  style="overflow:visible;"/>
				</clipPath>
				
					<rect x="245.5" y="42.4" style="clip-path:url(#SVGID_00000089547544420102533120000013359823960725189565_);fill:#CBE19C;" width="10.8" height="159.1"/>
			</g>
		</g>
	</g>
	<defs>
		
			<filter id="Adobe_OpacityMaskFilter_00000166666332533757471100000004901222823979913660_" filterUnits="userSpaceOnUse" x="252.4" y="29.3" width="26" height="180.9">
			<feColorMatrix  type="matrix" values="1 0 0 0 0  0 1 0 0 0  0 0 1 0 0  0 0 0 1 0"/>
		</filter>
	</defs>
	
		<mask maskUnits="userSpaceOnUse" x="252.4" y="29.3" width="26" height="180.9" id="SVGID_00000029767603322004330620000003814658190864476333_">
		<g style="filter:url(#Adobe_OpacityMaskFilter_00000166666332533757471100000004901222823979913660_);">
			
				<linearGradient id="SVGID_00000056394016304439262470000004038456567055968926_" gradientUnits="userSpaceOnUse" x1="-166.3509" y1="-158.4582" x2="-165.3891" y2="-158.4582" gradientTransform="matrix(-4.000000e-15 63.2683 -63.2683 -4.000000e-15 -10268.8789 10665.4482)">
				<stop  offset="0" style="stop-color:#FFFFFF"/>
				<stop  offset="1" style="stop-color:#000000"/>
			</linearGradient>
			
				<rect x="-1045.1" y="-35.6" style="fill:url(#SVGID_00000056394016304439262470000004038456567055968926_);" width="1603.2" height="572.6"/>
		</g>
	</mask>
	<g class="st31">
		<g>
			<g>
				<defs>
					<rect id="SVGID_00000002369477967807598630000010688208466300354213_" x="252.4" y="29.3" width="26" height="180.9"/>
				</defs>
				<clipPath id="SVGID_00000149371693139716919810000007162351318268675200_">
					<use xlink:href="#SVGID_00000002369477967807598630000010688208466300354213_"  style="overflow:visible;"/>
				</clipPath>
				
					<rect x="265.7" y="38" style="clip-path:url(#SVGID_00000149371693139716919810000007162351318268675200_);fill:#9EDDF9;" width="10.8" height="163.6"/>
			</g>
		</g>
	</g>
	<line class="st8" x1="250.9" y1="201.6" x2="250.9" y2="38.2"/>
	<line class="st8" x1="271.1" y1="201.6" x2="271.1" y2="37.5"/>
</g>
<g>
	<g>
		<path class="st1" d="M320.9,8.4c0.5,0.6,1.1,1,2.2,1c2.1,0,2.9-2.1,2.9-4V5c-0.5,0.7-1.6,1.6-2.9,1.6c-1.8,0-3.3-1.1-3.3-3.2
			c0-1.8,1.3-3.3,3.6-3.3c2.8,0,3.9,2.5,3.9,5.3c0,2.7-1.3,5.2-4.1,5.2c-1.3,0-2.2-0.5-2.8-1.2L320.9,8.4z M323.3,1.2
			c-1.6,0-2.3,1.2-2.3,2.1c0,1.5,1.1,2.2,2.3,2.2c1,0,2-0.6,2.5-1.5C325.8,2.8,325.1,1.2,323.3,1.2z M329.9,8.1
			c0.7,0.9,1.6,1.3,2.8,1.3c1.4,0,2.3-0.9,2.3-2.2S334.1,5,332.7,5c-0.9,0-1.7,0.3-2.4,1l-0.9-0.3V0.2h6.2v1.1h-4.9v3.5
			c0.5-0.5,1.4-0.9,2.4-0.9c1.7,0,3.2,1.2,3.2,3.2c0,2.1-1.6,3.3-3.6,3.3c-1.7,0-2.8-0.6-3.6-1.6L329.9,8.1z M338.8,8.9
			c0.5,0,0.8,0.4,0.8,0.8s-0.4,0.8-0.8,0.8c-0.5,0-0.8-0.4-0.8-0.8S338.4,8.9,338.8,8.9z M342.5,8.4c0.5,0.6,1.1,1,2.2,1
			c2.1,0,2.9-2.1,2.9-4V5c-0.5,0.7-1.6,1.6-2.9,1.6c-1.8,0-3.3-1.1-3.3-3.2c0-1.8,1.3-3.3,3.6-3.3c2.8,0,3.9,2.5,3.9,5.3
			c0,2.7-1.3,5.2-4.1,5.2c-1.3,0-2.2-0.5-2.8-1.2L342.5,8.4z M344.9,1.2c-1.6,0-2.3,1.2-2.3,2.1c0,1.5,1.1,2.2,2.3,2.2
			c1,0,2-0.6,2.5-1.5C347.4,2.8,346.7,1.2,344.9,1.2z M355.4,10.4V7.8h-4.8v-1l4.4-6.5h1.7v6.5h1.4v1.1h-1.4v2.6L355.4,10.4
			L355.4,10.4z M355.4,1.4l-3.6,5.3h3.6V1.4z"/>
		<path class="st2" d="M320.7,27.4c0.5,0.6,1.1,1,2.2,1c2.1,0,2.9-2.1,2.9-4V24c-0.5,0.7-1.6,1.6-2.9,1.6c-1.8,0-3.3-1.1-3.3-3.2
			c0-1.8,1.3-3.3,3.6-3.3c2.8,0,3.9,2.5,3.9,5.3c0,2.7-1.3,5.2-4.1,5.2c-1.3,0-2.2-0.5-2.8-1.2L320.7,27.4z M323.2,20.2
			c-1.6,0-2.3,1.2-2.3,2.1c0,1.5,1.1,2.2,2.3,2.2c1,0,2-0.6,2.5-1.5C325.6,21.8,324.9,20.2,323.2,20.2z M333.1,19.1
			c1.3,0,2.2,0.5,2.8,1.2l-0.7,0.9c-0.5-0.6-1.1-1-2.2-1c-2,0-2.9,2-2.9,4c0,0.1,0,0.3,0,0.4c0.4-0.7,1.6-1.6,2.9-1.6
			c1.8,0,3.3,1.1,3.3,3.2c0,1.8-1.3,3.3-3.5,3.3c-2.8,0-3.9-2.5-3.9-5.2S330.3,19.1,333.1,19.1z M332.9,24.1c-1,0-2,0.6-2.5,1.5
			c0.1,1.3,0.8,2.8,2.5,2.8c1.6,0,2.3-1.2,2.3-2.1C335.2,24.8,334.2,24.1,332.9,24.1z M338.9,27.9c0.5,0,0.8,0.4,0.8,0.8
			s-0.4,0.8-0.8,0.8c-0.5,0-0.8-0.4-0.8-0.8S338.5,27.9,338.9,27.9z M343.9,24.1c-1.2-0.3-2.3-1.1-2.3-2.4c0-1.8,1.8-2.6,3.5-2.6
			s3.5,0.8,3.5,2.6c0,1.3-1.1,2.1-2.3,2.4c1.3,0.4,2.4,1.3,2.4,2.7c0,1.7-1.6,2.8-3.6,2.8s-3.6-1-3.6-2.8
			C341.5,25.5,342.7,24.5,343.9,24.1z M345.1,24.7c-0.6,0.1-2.4,0.6-2.4,2c0,1.1,1.1,1.8,2.4,1.8c1.2,0,2.4-0.7,2.4-1.8
			C347.5,25.3,345.8,24.8,345.1,24.7z M345.1,20.2c-1.2,0-2.2,0.6-2.2,1.7c0,1.2,1.6,1.6,2.2,1.8c0.6-0.1,2.2-0.5,2.2-1.8
			C347.3,20.8,346.4,20.2,345.1,20.2z M354.4,19.1c2.8,0,3.9,2.8,3.9,5.2c0,2.5-1.1,5.3-3.9,5.3s-3.9-2.8-3.9-5.3
			C350.5,21.8,351.6,19.1,354.4,19.1z M354.4,20.2c-1.9,0-2.6,2.1-2.6,4.1s0.7,4.1,2.6,4.1s2.6-2.1,2.6-4.1S356.3,20.2,354.4,20.2z"
			/>
	</g>
	<defs>
		
			<filter id="Adobe_OpacityMaskFilter_00000035523180595271503230000010187187108854293942_" filterUnits="userSpaceOnUse" x="312.1" y="32.7" width="26" height="177.5">
			<feColorMatrix  type="matrix" values="1 0 0 0 0  0 1 0 0 0  0 0 1 0 0  0 0 0 1 0"/>
		</filter>
	</defs>
	
		<mask maskUnits="userSpaceOnUse" x="312.1" y="32.7" width="26" height="177.5" id="SVGID_00000042707597439623606280000013035968335493652109_">
		<g style="filter:url(#Adobe_OpacityMaskFilter_00000035523180595271503230000010187187108854293942_);">
			
				<linearGradient id="SVGID_00000038380025168641840310000001339850382638059150_" gradientUnits="userSpaceOnUse" x1="-168.6393" y1="-152.6346" x2="-167.6775" y2="-152.6346" gradientTransform="matrix(-3.000000e-15 42.2168 -42.2168 -3.000000e-15 -6660.8467 7280.3696)">
				<stop  offset="0" style="stop-color:#FFFFFF"/>
				<stop  offset="1" style="stop-color:#000000"/>
			</linearGradient>
			
				<rect x="-1018.7" y="-35.6" style="fill:url(#SVGID_00000038380025168641840310000001339850382638059150_);" width="1603.2" height="572.6"/>
		</g>
	</mask>
	<g class="st35">
		<g>
			<g>
				<defs>
					<rect id="SVGID_00000136379701294722803260000003976466135302576532_" x="312.1" y="32.7" width="26" height="177.5"/>
				</defs>
				<clipPath id="SVGID_00000098196972575637239480000016133002456697720707_">
					<use xlink:href="#SVGID_00000136379701294722803260000003976466135302576532_"  style="overflow:visible;"/>
				</clipPath>
				
					<rect x="325.4" y="41.3" style="clip-path:url(#SVGID_00000098196972575637239480000016133002456697720707_);fill:#CBE19C;" width="10.8" height="160.2"/>
			</g>
		</g>
	</g>
	<defs>
		
			<filter id="Adobe_OpacityMaskFilter_00000049222509358686429390000017908148270956596881_" filterUnits="userSpaceOnUse" x="332.3" y="29.6" width="26" height="180.6">
			<feColorMatrix  type="matrix" values="1 0 0 0 0  0 1 0 0 0  0 0 1 0 0  0 0 0 1 0"/>
		</filter>
	</defs>
	
		<mask maskUnits="userSpaceOnUse" x="332.3" y="29.6" width="26" height="180.6" id="SVGID_00000072967159346527193630000006108738236417532094_">
		<g style="filter:url(#Adobe_OpacityMaskFilter_00000049222509358686429390000017908148270956596881_);">
			
				<linearGradient id="SVGID_00000019648856733489584330000003486224116144818332_" gradientUnits="userSpaceOnUse" x1="-167.5893" y1="-155.2101" x2="-166.6275" y2="-155.2101" gradientTransform="matrix(-3.000000e-15 49.8231 -49.8231 -3.000000e-15 -7950.147 8503.4658)">
				<stop  offset="0" style="stop-color:#FFFFFF"/>
				<stop  offset="1" style="stop-color:#000000"/>
			</linearGradient>
			
				<rect x="-1018.7" y="-35.6" style="fill:url(#SVGID_00000019648856733489584330000003486224116144818332_);" width="1603.2" height="572.6"/>
		</g>
	</mask>
	<g class="st39">
		<g>
			<g>
				<defs>
					<rect id="SVGID_00000065794774065681750570000001235391382690073276_" x="332.3" y="29.6" width="26" height="180.6"/>
				</defs>
				<clipPath id="SVGID_00000077324596381603636470000008066357508401102516_">
					<use xlink:href="#SVGID_00000065794774065681750570000001235391382690073276_"  style="overflow:visible;"/>
				</clipPath>
				
					<rect x="345.6" y="38.3" style="clip-path:url(#SVGID_00000077324596381603636470000008066357508401102516_);fill:#9EDDF9;" width="10.8" height="163.3"/>
			</g>
		</g>
	</g>
	<line class="st8" x1="330.8" y1="201.6" x2="330.8" y2="38.2"/>
	<line class="st8" x1="351" y1="201.6" x2="351" y2="38.2"/>
</g>
</svg>
