<?xml version="1.0" encoding="utf-8"?>
<!-- Generator: Adobe Illustrator 26.4.0, SVG Export Plug-In . SVG Version: 6.00 Build 0)  -->
<svg version="1.1" id="Layer_1" xmlns="http://www.w3.org/2000/svg" xmlns:xlink="http://www.w3.org/1999/xlink" x="0px" y="0px"
	 viewBox="0 0 595.3 114.9" style="enable-background:new 0 0 595.3 114.9;" xml:space="preserve">
<style type="text/css">
	.st0{fill:#E6E7E8;}
	.st1{fill:none;stroke:#0069AA;stroke-width:0.5;stroke-miterlimit:10;}
	.st2{fill:none;stroke:#6D6E71;stroke-width:0.25;stroke-miterlimit:10;}
	.st3{fill:none;stroke:#0069AA;stroke-miterlimit:10;}
	.st4{fill:#4D4D4F;}
</style>
<g>
	<path class="st0" d="M150,2.9h141.3v22.2H150V2.9z M0,2.9h150v22.2H0V2.9z"/>
	<line class="st1" x1="0" y1="25.1" x2="150" y2="25.1"/>
	<line class="st1" x1="150" y1="25.1" x2="291.4" y2="25.1"/>
	<line class="st2" x1="0" y1="46.8" x2="150" y2="46.8"/>
	<line class="st2" x1="150" y1="46.8" x2="291.4" y2="46.8"/>
	<line class="st2" x1="0" y1="68.6" x2="150" y2="68.6"/>
	<line class="st2" x1="150" y1="68.6" x2="291.4" y2="68.6"/>
	<line class="st2" x1="0" y1="90.3" x2="150" y2="90.3"/>
	<line class="st2" x1="150" y1="90.3" x2="291.4" y2="90.3"/>
	<line class="st3" x1="0" y1="112" x2="150" y2="112"/>
	<line class="st3" x1="150" y1="112" x2="291.4" y2="112"/>
	<g>
		<path class="st4" d="M3.8,14.4c0-2.1,1.6-3.5,3.6-3.5c1.4,0,2.2,0.7,2.7,1.5l-1,0.5c-0.3-0.6-1-1-1.7-1c-1.3,0-2.4,1-2.4,2.5
			s1,2.5,2.4,2.5c0.7,0,1.4-0.4,1.7-1l1,0.5c-0.5,0.8-1.4,1.5-2.7,1.5C5.4,17.9,3.8,16.5,3.8,14.4z"/>
		<path class="st4" d="M14.1,17.8v-0.5c-0.4,0.4-0.9,0.7-1.6,0.7c-0.8,0-1.7-0.5-1.7-1.6c0-1.1,0.9-1.6,1.7-1.6
			c0.7,0,1.2,0.2,1.6,0.6v-0.7c0-0.6-0.5-0.9-1.2-0.9c-0.6,0-1,0.2-1.5,0.6L11,13.6c0.6-0.5,1.3-0.8,2.1-0.8c1.1,0,2.1,0.5,2.1,1.8
			v3.3H14.1z M14.1,16.7v-0.7c-0.2-0.3-0.7-0.5-1.2-0.5c-0.6,0-1.1,0.3-1.1,0.9c0,0.5,0.4,0.9,1.1,0.9C13.4,17.2,13.9,17,14.1,16.7z
			"/>
		<path class="st4" d="M16.8,16.7v-2.9H16v-0.9h0.8v-1.3h1.1v1.3h1v0.9h-1v2.6c0,0.3,0.2,0.6,0.5,0.6c0.2,0,0.4-0.1,0.5-0.2l0.3,0.8
			c-0.2,0.2-0.5,0.3-1,0.3C17.2,17.9,16.8,17.5,16.8,16.7z"/>
		<path class="st4" d="M19.5,15.3c0-1.4,1-2.6,2.5-2.6c1.5,0,2.4,1.1,2.4,2.7v0.3h-3.8c0.1,0.7,0.6,1.4,1.6,1.4
			c0.5,0,1.1-0.2,1.4-0.5l0.5,0.7c-0.5,0.5-1.2,0.7-2,0.7C20.6,17.9,19.5,16.9,19.5,15.3z M22,13.6c-0.9,0-1.3,0.7-1.4,1.3h2.8
			C23.4,14.4,23,13.6,22,13.6z"/>
		<path class="st4" d="M25.5,19.1l0.5-0.8c0.4,0.5,0.9,0.6,1.6,0.6c0.7,0,1.5-0.3,1.5-1.3V17c-0.4,0.5-0.9,0.8-1.6,0.8
			c-1.3,0-2.2-0.9-2.2-2.5c0-1.6,0.9-2.5,2.2-2.5c0.6,0,1.2,0.3,1.6,0.8v-0.7h1.1v4.7c0,1.8-1.3,2.3-2.5,2.3
			C26.7,19.8,26.1,19.6,25.5,19.1z M29,16.2v-1.8c-0.2-0.4-0.8-0.7-1.3-0.7c-0.8,0-1.4,0.6-1.4,1.6c0,1,0.5,1.6,1.4,1.6
			C28.2,16.9,28.7,16.6,29,16.2z"/>
		<path class="st4" d="M31.1,15.3c0-1.4,1-2.6,2.5-2.6c1.6,0,2.5,1.2,2.5,2.6c0,1.4-1,2.6-2.5,2.6C32.1,17.9,31.1,16.8,31.1,15.3z
			 M35.1,15.3c0-0.9-0.5-1.6-1.4-1.6c-0.9,0-1.4,0.8-1.4,1.6c0,0.9,0.5,1.6,1.4,1.6C34.6,17,35.1,16.2,35.1,15.3z"/>
		<path class="st4" d="M37.3,17.8v-4.9h1.1v0.7c0.4-0.5,1-0.8,1.6-0.8v1.1c-0.1,0-0.2,0-0.3,0c-0.4,0-1.1,0.3-1.3,0.7v3.4H37.3z"/>
		<path class="st4" d="M40.8,18.8c0.1,0.1,0.3,0.1,0.4,0.1c0.3,0,0.6-0.1,0.7-0.4l0.2-0.6l-2-5h1.1l1.4,3.7l1.4-3.7h1.2l-2.4,5.8
			c-0.3,0.8-0.9,1.1-1.7,1.1c-0.2,0-0.4,0-0.6-0.1L40.8,18.8z"/>
	</g>
	<g>
		<path class="st4" d="M248.3,18.3l-2.4-3l-0.6,0.7v2.3H244v-7.2h1.3v3.4l2.8-3.4h1.6l-2.9,3.4l3.2,3.8H248.3z"/>
		<path class="st4" d="M250,15.7c0-1.5,1.1-2.7,2.7-2.7c1.6,0,2.6,1.2,2.6,2.8v0.3h-4c0.1,0.8,0.7,1.4,1.7,1.4
			c0.5,0,1.1-0.2,1.5-0.6l0.5,0.7c-0.5,0.5-1.3,0.8-2.1,0.8C251.2,18.4,250,17.3,250,15.7z M252.7,13.9c-1,0-1.4,0.7-1.5,1.4h2.9
			C254.1,14.6,253.7,13.9,252.7,13.9z"/>
		<path class="st4" d="M256.3,19.3c0.1,0.1,0.3,0.1,0.4,0.1c0.4,0,0.6-0.1,0.7-0.5l0.3-0.6l-2.1-5.3h1.2l1.5,3.9l1.5-3.9h1.2
			l-2.5,6.2c-0.4,0.9-1,1.2-1.8,1.2c-0.2,0-0.5,0-0.6-0.1L256.3,19.3z"/>
		<path class="st4" d="M264.2,17.3l0.7-1c0.5,0.5,1.3,1,2.3,1c1,0,1.5-0.5,1.5-1c0-1.5-4.2-0.6-4.2-3.2c0-1.2,1.1-2.1,2.6-2.1
			c1.1,0,2,0.4,2.7,1l-0.7,0.9c-0.6-0.6-1.3-0.8-2.1-0.8c-0.7,0-1.2,0.4-1.2,0.9c0,1.3,4.2,0.5,4.2,3.2c0,1.2-0.8,2.2-2.8,2.2
			C265.8,18.4,264.8,18,264.2,17.3z"/>
		<path class="st4" d="M271.1,17.1v-3h-0.9v-1h0.9v-1.4h1.1v1.4h1.1v1h-1.1v2.7c0,0.4,0.2,0.6,0.5,0.6c0.2,0,0.4-0.1,0.5-0.2
			l0.3,0.9c-0.2,0.2-0.5,0.3-1.1,0.3C271.6,18.4,271.1,18,271.1,17.1z"/>
		<path class="st4" d="M277.5,18.3v-0.6c-0.4,0.4-1,0.7-1.7,0.7c-0.9,0-1.8-0.6-1.8-1.7c0-1.2,1-1.7,1.8-1.7c0.7,0,1.3,0.2,1.7,0.7
			v-0.8c0-0.6-0.5-1-1.2-1c-0.6,0-1.1,0.2-1.5,0.7l-0.5-0.8c0.6-0.6,1.4-0.8,2.2-0.8c1.2,0,2.2,0.5,2.2,1.9v3.5H277.5z M277.5,17.1
			v-0.8c-0.3-0.4-0.7-0.5-1.2-0.5c-0.6,0-1.1,0.4-1.1,0.9c0,0.6,0.5,0.9,1.1,0.9C276.8,17.6,277.3,17.5,277.5,17.1z"/>
		<path class="st4" d="M280.4,17.1v-3h-0.9v-1h0.9v-1.4h1.1v1.4h1.1v1h-1.1v2.7c0,0.4,0.2,0.6,0.5,0.6c0.2,0,0.4-0.1,0.5-0.2
			l0.3,0.9c-0.2,0.2-0.5,0.3-1.1,0.3C280.8,18.4,280.4,18,280.4,17.1z"/>
		<path class="st4" d="M283.1,17.6l0.5-0.8c0.4,0.4,1.1,0.7,1.8,0.7c0.7,0,1-0.3,1-0.7c0-1-3.2-0.3-3.2-2.3c0-0.9,0.7-1.6,2.1-1.6
			c0.9,0,1.6,0.3,2,0.7l-0.5,0.8c-0.3-0.4-0.9-0.6-1.5-0.6c-0.6,0-1,0.3-1,0.6c0,0.9,3.2,0.2,3.2,2.3c0,0.9-0.8,1.6-2.2,1.6
			C284.5,18.4,283.7,18.1,283.1,17.6z"/>
	</g>
	<g>
		<path class="st4" d="M3.9,40v-0.7L7.7,34H3.9v-0.8h4.9v0.7L5,39.3h3.9V40H3.9z"/>
		<path class="st4" d="M10,33.9c0-0.3,0.2-0.5,0.5-0.5c0.3,0,0.5,0.2,0.5,0.5s-0.2,0.5-0.5,0.5C10.3,34.4,10,34.1,10,33.9z M10.2,40
			v-4.9h0.8V40H10.2z"/>
		<path class="st4" d="M15.8,40v-3.2c0-0.9-0.4-1.1-1.1-1.1c-0.6,0-1.2,0.4-1.5,0.8V40h-0.8v-4.9h0.8v0.7c0.3-0.4,1-0.8,1.8-0.8
			c1,0,1.6,0.5,1.6,1.6V40H15.8z"/>
		<path class="st4" d="M17.8,37.5c0-1.5,1-2.6,2.5-2.6c0.9,0,1.4,0.4,1.8,0.9l-0.5,0.5c-0.3-0.5-0.7-0.6-1.3-0.6
			c-1.1,0-1.7,0.8-1.7,1.9c0,1.1,0.7,1.9,1.7,1.9c0.5,0,0.9-0.2,1.3-0.6l0.5,0.5c-0.4,0.5-0.9,0.9-1.8,0.9
			C18.8,40.1,17.8,39,17.8,37.5z"/>
		<path class="st4" d="M25.4,39.1l0.5-0.6c0.4,0.5,1.2,1,2.1,1c1.2,0,1.6-0.7,1.6-1.2c0-1.8-4-0.8-4-3.2c0-1.1,1-1.9,2.3-1.9
			c1,0,1.9,0.3,2.4,1l-0.5,0.6c-0.5-0.6-1.2-0.8-2-0.8c-0.8,0-1.4,0.4-1.4,1.1c0,1.5,4,0.7,4,3.2c0,1-0.7,2-2.5,2
			C26.8,40.1,26,39.7,25.4,39.1z"/>
		<path class="st4" d="M37.7,40v-3.4c0-0.6-0.3-1-0.9-1c-0.5,0-1.1,0.4-1.3,0.8V40h-0.8v-3.4c0-0.6-0.3-1-0.9-1
			c-0.5,0-1,0.4-1.3,0.8V40h-0.8v-4.9h0.8v0.7c0.2-0.3,0.9-0.8,1.6-0.8c0.8,0,1.2,0.4,1.3,0.9c0.3-0.4,0.9-0.9,1.7-0.9
			c0.9,0,1.4,0.5,1.4,1.5V40H37.7z"/>
		<path class="st4" d="M39.8,37.5c0-1.4,1-2.6,2.4-2.6c1.5,0,2.4,1.2,2.4,2.6v0.2h-4c0.1,0.9,0.7,1.7,1.8,1.7c0.6,0,1.1-0.2,1.5-0.6
			l0.4,0.5c-0.5,0.5-1.2,0.8-2,0.8C40.8,40.1,39.8,39.1,39.8,37.5z M42.2,35.6c-1.1,0-1.6,0.9-1.6,1.6h3.2
			C43.8,36.5,43.3,35.6,42.2,35.6z"/>
		<path class="st4" d="M45.8,40v-6.8h0.8V40H45.8z"/>
		<path class="st4" d="M48.3,39v-3.2h-0.8v-0.7h0.8v-1.3H49v1.3h1v0.7h-1v3.1c0,0.4,0.2,0.6,0.5,0.6c0.2,0,0.4-0.1,0.5-0.2l0.2,0.6
			c-0.2,0.2-0.5,0.3-0.9,0.3C48.6,40.1,48.3,39.7,48.3,39z"/>
		<path class="st4" d="M51,33.9c0-0.3,0.2-0.5,0.5-0.5c0.3,0,0.5,0.2,0.5,0.5s-0.2,0.5-0.5,0.5C51.2,34.4,51,34.1,51,33.9z M51.1,40
			v-4.9h0.8V40H51.1z"/>
		<path class="st4" d="M56.7,40v-3.2c0-0.9-0.4-1.1-1.1-1.1c-0.6,0-1.2,0.4-1.5,0.8V40h-0.8v-4.9h0.8v0.7c0.3-0.4,1-0.8,1.8-0.8
			c1,0,1.6,0.5,1.6,1.6V40H56.7z"/>
		<path class="st4" d="M59,41.3l0.4-0.6c0.4,0.5,0.9,0.7,1.6,0.7c0.8,0,1.6-0.4,1.6-1.5v-0.7c-0.4,0.5-1,0.9-1.7,0.9
			c-1.3,0-2.2-1-2.2-2.6c0-1.6,0.9-2.6,2.2-2.6c0.7,0,1.3,0.3,1.7,0.9v-0.7h0.8v4.8c0,1.6-1.1,2.1-2.4,2.1
			C60.2,42,59.6,41.9,59,41.3z M62.6,38.6v-2.2c-0.3-0.4-0.9-0.8-1.5-0.8c-1,0-1.6,0.8-1.6,1.9c0,1.1,0.6,1.9,1.6,1.9
			C61.8,39.4,62.4,39,62.6,38.6z"/>
	</g>
	<g>
		<path class="st4" d="M230.8,39.3l0.4-0.6c0.3,0.4,0.8,0.7,1.5,0.7c1.4,0,1.9-1.4,1.9-2.7c0-0.1,0-0.2,0-0.3
			c-0.3,0.5-1.1,1.1-1.9,1.1c-1.2,0-2.2-0.7-2.2-2.2c0-1.2,0.9-2.2,2.4-2.2c1.9,0,2.6,1.7,2.6,3.5c0,1.8-0.9,3.5-2.8,3.5
			C231.9,40.1,231.3,39.8,230.8,39.3z M234.6,35.7c-0.1-0.8-0.5-1.9-1.7-1.9c-1,0-1.6,0.8-1.6,1.4c0,1,0.7,1.5,1.6,1.5
			C233.6,36.8,234.3,36.3,234.6,35.7z"/>
		<path class="st4" d="M236.7,41.3l-0.4-0.3c0.3-0.2,0.6-0.6,0.7-1c0,0-0.1,0-0.1,0c-0.3,0-0.5-0.2-0.5-0.5c0-0.3,0.2-0.6,0.5-0.6
			c0.3,0,0.6,0.3,0.6,0.8C237.5,40.4,237.2,41,236.7,41.3z"/>
		<path class="st4" d="M239.1,40v-5.7l-1.1,1.2l-0.5-0.5l1.7-1.8h0.7V40H239.1z"/>
		<path class="st4" d="M241,39l0.5-0.5c0.4,0.5,1.1,0.9,1.9,0.9c1,0,1.6-0.5,1.6-1.3c0-0.8-0.7-1.2-1.7-1.2c-0.3,0-0.6,0-0.7,0v-0.8
			c0.1,0,0.4,0,0.7,0c0.9,0,1.6-0.3,1.6-1.1c0-0.8-0.7-1.2-1.5-1.2c-0.7,0-1.3,0.3-1.8,0.8l-0.5-0.5c0.5-0.6,1.3-1.1,2.3-1.1
			c1.3,0,2.3,0.7,2.3,1.8c0,1-0.8,1.5-1.5,1.6c0.6,0.1,1.6,0.6,1.6,1.7c0,1.1-0.9,2-2.4,2C242.3,40.1,241.5,39.6,241,39z"/>
		<path class="st4" d="M247.4,41.3L247,41c0.3-0.2,0.6-0.6,0.7-1c0,0-0.1,0-0.1,0c-0.3,0-0.5-0.2-0.5-0.5c0-0.3,0.2-0.6,0.5-0.6
			c0.3,0,0.6,0.3,0.6,0.8C248.2,40.4,247.9,41,247.4,41.3z"/>
		<path class="st4" d="M249.3,36.6c0-1.7,0.7-3.5,2.6-3.5c1.9,0,2.6,1.9,2.6,3.5c0,1.7-0.7,3.5-2.6,3.5
			C250,40.1,249.3,38.3,249.3,36.6z M253.7,36.6c0-1.4-0.4-2.8-1.7-2.8s-1.7,1.4-1.7,2.8s0.4,2.8,1.7,2.8S253.7,38,253.7,36.6z"/>
		<path class="st4" d="M255.6,36.6c0-1.7,0.7-3.5,2.6-3.5c1.9,0,2.6,1.9,2.6,3.5c0,1.7-0.7,3.5-2.6,3.5
			C256.3,40.1,255.6,38.3,255.6,36.6z M259.9,36.6c0-1.4-0.4-2.8-1.7-2.8s-1.7,1.4-1.7,2.8s0.4,2.8,1.7,2.8S259.9,38,259.9,36.6z"/>
		<path class="st4" d="M261.8,36.6c0-1.7,0.7-3.5,2.6-3.5c1.9,0,2.6,1.9,2.6,3.5c0,1.7-0.7,3.5-2.6,3.5
			C262.6,40.1,261.8,38.3,261.8,36.6z M266.2,36.6c0-1.4-0.4-2.8-1.7-2.8s-1.7,1.4-1.7,2.8s0.4,2.8,1.7,2.8S266.2,38,266.2,36.6z"/>
		<path class="st4" d="M272.7,40V34h-2.2v-0.8h5.2V34h-2.2V40H272.7z"/>
		<path class="st4" d="M276.8,40v-6.8h2.7c1.4,0,2.1,0.9,2.1,2.1c0,1.1-0.8,2.1-2.1,2.1h-1.9V40H276.8z M280.8,35.3
			c0-0.8-0.6-1.3-1.4-1.3h-1.8v2.6h1.8C280.3,36.6,280.8,36,280.8,35.3z"/>
		<path class="st4" d="M286.9,40l-0.6-1.5h-3.4l-0.6,1.5h-1l2.7-6.8h1.1l2.8,6.8H286.9z M284.6,34.1l-1.5,3.7h2.9L284.6,34.1z"/>
	</g>
	<g>
		<path class="st4" d="M4.2,61.7v-6.8h0.8V61h3.2v0.8H4.2z"/>
		<path class="st4" d="M8.9,59.3c0-1.4,1-2.6,2.4-2.6c1.5,0,2.4,1.2,2.4,2.6v0.2h-4c0.1,0.9,0.7,1.7,1.8,1.7c0.6,0,1.1-0.2,1.5-0.6
			l0.4,0.5c-0.5,0.5-1.2,0.8-2,0.8C10,61.9,8.9,60.8,8.9,59.3z M11.3,57.3c-1.1,0-1.6,0.9-1.6,1.6H13C12.9,58.2,12.4,57.3,11.3,57.3
			z"/>
		<path class="st4" d="M18,61.7v-0.6c-0.4,0.5-1,0.7-1.6,0.7c-0.8,0-1.7-0.6-1.7-1.6c0-1.1,0.9-1.6,1.7-1.6c0.7,0,1.2,0.2,1.6,0.7
			v-0.9c0-0.7-0.5-1-1.2-1c-0.6,0-1.1,0.2-1.5,0.7l-0.4-0.5c0.5-0.6,1.2-0.8,2-0.8c1,0,1.9,0.5,1.9,1.7v3.4H18z M18,60.7v-0.9
			c-0.3-0.4-0.8-0.6-1.4-0.6c-0.7,0-1.2,0.5-1.2,1.1c0,0.6,0.5,1.1,1.2,1.1C17.2,61.3,17.7,61.1,18,60.7z"/>
		<path class="st4" d="M23.9,61.7V61c-0.4,0.5-1,0.9-1.7,0.9c-1.3,0-2.2-1-2.2-2.6c0-1.6,0.9-2.6,2.2-2.6c0.7,0,1.3,0.3,1.7,0.9
			v-2.6h0.8v6.8H23.9z M23.9,60.4v-2.2c-0.3-0.4-0.9-0.8-1.5-0.8c-1,0-1.6,0.8-1.6,1.9s0.6,1.9,1.6,1.9C23,61.2,23.6,60.8,23.9,60.4
			z"/>
		<path class="st4" d="M28.5,60.8l0.5-0.6c0.4,0.5,1.2,1,2.1,1c1.2,0,1.6-0.7,1.6-1.2c0-1.8-4-0.8-4-3.2c0-1.1,1-1.9,2.3-1.9
			c1,0,1.9,0.3,2.4,1l-0.5,0.6c-0.5-0.6-1.2-0.8-2-0.8c-0.8,0-1.4,0.4-1.4,1.1c0,1.5,4,0.7,4,3.2c0,1-0.7,2-2.5,2
			C29.9,61.9,29,61.4,28.5,60.8z"/>
		<path class="st4" d="M40.8,61.7v-3.4c0-0.6-0.3-1-0.9-1c-0.5,0-1.1,0.4-1.3,0.8v3.6h-0.8v-3.4c0-0.6-0.3-1-0.9-1
			c-0.5,0-1,0.4-1.3,0.8v3.6h-0.8v-4.9h0.8v0.7c0.2-0.3,0.9-0.8,1.6-0.8c0.8,0,1.2,0.4,1.3,0.9c0.3-0.4,0.9-0.9,1.7-0.9
			c0.9,0,1.4,0.5,1.4,1.5v3.6H40.8z"/>
		<path class="st4" d="M42.8,59.3c0-1.4,1-2.6,2.4-2.6c1.5,0,2.4,1.2,2.4,2.6v0.2h-4c0.1,0.9,0.7,1.7,1.8,1.7c0.6,0,1.1-0.2,1.5-0.6
			l0.4,0.5c-0.5,0.5-1.2,0.8-2,0.8C43.9,61.9,42.8,60.8,42.8,59.3z M45.2,57.3c-1.1,0-1.6,0.9-1.6,1.6h3.2
			C46.9,58.2,46.4,57.3,45.2,57.3z"/>
		<path class="st4" d="M48.9,61.7v-6.8h0.8v6.8H48.9z"/>
		<path class="st4" d="M51.3,60.7v-3.2h-0.8v-0.7h0.8v-1.4h0.8v1.4h1v0.7h-1v3.1c0,0.4,0.2,0.6,0.5,0.6c0.2,0,0.4-0.1,0.5-0.2
			l0.2,0.6c-0.2,0.2-0.5,0.3-0.9,0.3C51.7,61.9,51.3,61.4,51.3,60.7z"/>
		<path class="st4" d="M54,55.6c0-0.3,0.2-0.5,0.5-0.5c0.3,0,0.5,0.2,0.5,0.5c0,0.3-0.2,0.5-0.5,0.5C54.3,56.1,54,55.9,54,55.6z
			 M54.2,61.7v-4.9h0.8v4.9H54.2z"/>
		<path class="st4" d="M59.8,61.7v-3.2c0-0.9-0.4-1.1-1.1-1.1c-0.6,0-1.2,0.4-1.5,0.8v3.6h-0.8v-4.9h0.8v0.7c0.3-0.4,1-0.8,1.8-0.8
			c1,0,1.6,0.5,1.6,1.6v3.5H59.8z"/>
		<path class="st4" d="M62.1,63l0.4-0.6c0.4,0.5,0.9,0.7,1.6,0.7c0.8,0,1.6-0.4,1.6-1.5v-0.7c-0.4,0.5-1,0.9-1.7,0.9
			c-1.3,0-2.2-1-2.2-2.6c0-1.6,0.9-2.6,2.2-2.6c0.7,0,1.3,0.3,1.7,0.9v-0.7h0.8v4.8c0,1.6-1.1,2.1-2.4,2.1
			C63.3,63.7,62.7,63.6,62.1,63z M65.7,60.3v-2.2c-0.3-0.4-0.9-0.8-1.5-0.8c-1,0-1.6,0.8-1.6,1.9c0,1.1,0.6,1.9,1.6,1.9
			C64.8,61.1,65.4,60.7,65.7,60.3z"/>
	</g>
	<g>
		<path class="st4" d="M230,61.7v-0.7c2.5-1.9,3.8-3.1,3.8-4.2c0-0.9-0.7-1.2-1.4-1.2c-0.8,0-1.5,0.3-1.9,0.9l-0.5-0.5
			c0.5-0.7,1.4-1.1,2.4-1.1c1.1,0,2.3,0.6,2.3,2c0,1.4-1.4,2.7-3.3,4.2h3.3v0.8H230z"/>
		<path class="st4" d="M236.4,63l-0.4-0.3c0.3-0.2,0.6-0.6,0.7-1c0,0-0.1,0-0.1,0c-0.3,0-0.5-0.2-0.5-0.5c0-0.3,0.2-0.6,0.5-0.6
			c0.3,0,0.6,0.3,0.6,0.8C237.3,62.1,236.9,62.7,236.4,63z"/>
		<path class="st4" d="M238.9,61.7V56l-1.1,1.2l-0.5-0.5l1.7-1.8h0.7v6.8H238.9z"/>
		<path class="st4" d="M241,58.3c0-1.7,0.7-3.5,2.6-3.5c1.9,0,2.6,1.9,2.6,3.5c0,1.7-0.7,3.5-2.6,3.5C241.8,61.9,241,60,241,58.3z
			 M245.4,58.3c0-1.4-0.4-2.8-1.7-2.8s-1.7,1.4-1.7,2.8s0.4,2.8,1.7,2.8S245.4,59.7,245.4,58.3z"/>
		<path class="st4" d="M247.4,63l-0.4-0.3c0.3-0.2,0.6-0.6,0.7-1c0,0-0.1,0-0.1,0c-0.3,0-0.5-0.2-0.5-0.5c0-0.3,0.2-0.6,0.5-0.6
			c0.3,0,0.6,0.3,0.6,0.8C248.2,62.1,247.9,62.7,247.4,63z"/>
		<path class="st4" d="M249.3,58.3c0-1.7,0.7-3.5,2.6-3.5c1.9,0,2.6,1.9,2.6,3.5c0,1.7-0.7,3.5-2.6,3.5
			C250,61.9,249.3,60,249.3,58.3z M253.7,58.3c0-1.4-0.4-2.8-1.7-2.8s-1.7,1.4-1.7,2.8s0.4,2.8,1.7,2.8S253.7,59.7,253.7,58.3z"/>
		<path class="st4" d="M255.6,58.3c0-1.7,0.7-3.5,2.6-3.5c1.9,0,2.6,1.9,2.6,3.5c0,1.7-0.7,3.5-2.6,3.5
			C256.3,61.9,255.6,60,255.6,58.3z M259.9,58.3c0-1.4-0.4-2.8-1.7-2.8s-1.7,1.4-1.7,2.8s0.4,2.8,1.7,2.8S259.9,59.7,259.9,58.3z"/>
		<path class="st4" d="M261.8,58.3c0-1.7,0.7-3.5,2.6-3.5c1.9,0,2.6,1.9,2.6,3.5c0,1.7-0.7,3.5-2.6,3.5
			C262.6,61.9,261.8,60,261.8,58.3z M266.2,58.3c0-1.4-0.4-2.8-1.7-2.8s-1.7,1.4-1.7,2.8s0.4,2.8,1.7,2.8S266.2,59.7,266.2,58.3z"/>
		<path class="st4" d="M272.7,61.7v-6.1h-2.2v-0.8h5.2v0.8h-2.2v6.1H272.7z"/>
		<path class="st4" d="M276.8,61.7v-6.8h2.7c1.4,0,2.1,0.9,2.1,2.1c0,1.1-0.8,2.1-2.1,2.1h-1.9v2.7H276.8z M280.8,57
			c0-0.8-0.6-1.3-1.4-1.3h-1.8v2.6h1.8C280.3,58.3,280.8,57.7,280.8,57z"/>
		<path class="st4" d="M286.9,61.7l-0.6-1.5h-3.4l-0.6,1.5h-1l2.7-6.8h1.1l2.8,6.8H286.9z M284.6,55.8l-1.5,3.7h2.9L284.6,55.8z"/>
	</g>
	<g>
		<path class="st4" d="M3.8,82.5l0.5-0.6c0.4,0.5,1.2,1,2.1,1c1.2,0,1.6-0.7,1.6-1.2c0-1.8-4-0.8-4-3.2c0-1.1,1-1.9,2.3-1.9
			c1,0,1.9,0.3,2.4,1l-0.5,0.6c-0.5-0.6-1.2-0.8-2-0.8c-0.8,0-1.4,0.4-1.4,1.1c0,1.5,4,0.7,4,3.2c0,1-0.7,2-2.5,2
			C5.2,83.6,4.4,83.1,3.8,82.5z"/>
		<path class="st4" d="M10,77.3c0-0.3,0.2-0.5,0.5-0.5c0.3,0,0.5,0.2,0.5,0.5s-0.2,0.5-0.5,0.5C10.3,77.8,10,77.6,10,77.3z
			 M10.2,83.5v-4.9h0.8v4.9H10.2z"/>
		<path class="st4" d="M12.5,83.5v-6.8h0.8v6.8H12.5z"/>
		<path class="st4" d="M16.1,83.5L14,78.5h0.8l1.6,4l1.6-4H19l-2.1,4.9H16.1z"/>
		<path class="st4" d="M19.5,81c0-1.4,1-2.6,2.4-2.6c1.5,0,2.4,1.2,2.4,2.6v0.2h-4c0.1,0.9,0.7,1.7,1.8,1.7c0.6,0,1.1-0.2,1.5-0.6
			l0.4,0.5c-0.5,0.5-1.2,0.8-2,0.8C20.5,83.6,19.5,82.5,19.5,81z M21.9,79c-1.1,0-1.6,0.9-1.6,1.6h3.2C23.5,79.9,23,79,21.9,79z"/>
		<path class="st4" d="M25.5,83.5v-4.9h0.8v0.8c0.4-0.5,1-0.9,1.6-0.9v0.8c-0.1,0-0.2,0-0.3,0c-0.5,0-1.1,0.4-1.3,0.8v3.5H25.5z"/>
		<path class="st4" d="M35.5,83.5l-1.7-2.7h-1.4v2.7h-0.8v-6.8h2.7c1.2,0,2.1,0.8,2.1,2.1c0,1.2-0.8,1.9-1.8,2l1.8,2.8H35.5z
			 M35.6,78.7c0-0.8-0.6-1.3-1.4-1.3h-1.8V80h1.8C35,80,35.6,79.5,35.6,78.7z"/>
		<path class="st4" d="M37.2,81c0-1.4,1-2.6,2.4-2.6c1.5,0,2.4,1.2,2.4,2.6v0.2h-4c0.1,0.9,0.7,1.7,1.8,1.7c0.6,0,1.1-0.2,1.5-0.6
			l0.4,0.5c-0.5,0.5-1.2,0.8-2,0.8C38.2,83.6,37.2,82.5,37.2,81z M39.6,79c-1.1,0-1.6,0.9-1.6,1.6h3.2C41.2,79.9,40.7,79,39.6,79z"
			/>
		<path class="st4" d="M43.4,83.5v-4.3h-0.8v-0.7h0.8v-0.4c0-1,0.6-1.6,1.4-1.6c0.3,0,0.6,0.1,0.7,0.2l-0.2,0.6
			c-0.1-0.1-0.2-0.1-0.4-0.1c-0.5,0-0.8,0.3-0.8,1v0.4h1v0.7h-1v4.3H43.4z M46,77.3c0-0.3,0.2-0.5,0.5-0.5c0.3,0,0.5,0.2,0.5,0.5
			s-0.2,0.5-0.5,0.5C46.2,77.8,46,77.6,46,77.3z M46.1,83.5v-4.9h0.8v4.9H46.1z"/>
		<path class="st4" d="M51.8,83.5v-3.2c0-0.9-0.4-1.1-1.1-1.1c-0.6,0-1.2,0.4-1.5,0.8v3.6h-0.8v-4.9h0.8v0.7c0.3-0.4,1-0.8,1.8-0.8
			c1,0,1.6,0.5,1.6,1.6v3.5H51.8z"/>
		<path class="st4" d="M53.9,77.3c0-0.3,0.2-0.5,0.5-0.5c0.3,0,0.5,0.2,0.5,0.5s-0.2,0.5-0.5,0.5C54.2,77.8,53.9,77.6,53.9,77.3z
			 M54.1,83.5v-4.9h0.8v4.9H54.1z"/>
		<path class="st4" d="M59.7,83.5v-3.2c0-0.9-0.4-1.1-1.1-1.1c-0.6,0-1.2,0.4-1.5,0.8v3.6h-0.8v-4.9h0.8v0.7c0.3-0.4,1-0.8,1.8-0.8
			c1,0,1.6,0.5,1.6,1.6v3.5H59.7z"/>
		<path class="st4" d="M62,84.7l0.4-0.6c0.4,0.5,0.9,0.7,1.6,0.7c0.8,0,1.6-0.4,1.6-1.5v-0.7c-0.4,0.5-1,0.9-1.7,0.9
			c-1.3,0-2.2-1-2.2-2.6c0-1.6,0.9-2.6,2.2-2.6c0.7,0,1.3,0.3,1.7,0.9v-0.7h0.8v4.8c0,1.6-1.1,2.1-2.4,2.1
			C63.1,85.5,62.6,85.3,62,84.7z M65.6,82v-2.2c-0.3-0.4-0.9-0.8-1.5-0.8c-1,0-1.6,0.8-1.6,1.9c0,1.1,0.6,1.9,1.6,1.9
			C64.7,82.8,65.3,82.5,65.6,82z"/>
	</g>
	<g>
		<path class="st4" d="M249.6,81.7c0-0.9,0.8-1.5,1.6-1.8c-0.8-0.2-1.5-0.7-1.5-1.6c0-1.2,1.2-1.8,2.3-1.8c1.1,0,2.3,0.5,2.3,1.8
			c0,0.9-0.7,1.4-1.5,1.6c0.8,0.3,1.6,0.9,1.6,1.8c0,1.2-1.1,1.9-2.4,1.9C250.7,83.6,249.6,82.9,249.6,81.7z M253.7,81.6
			c0-0.9-1.2-1.3-1.6-1.3c-0.4,0.1-1.6,0.4-1.6,1.3c0,0.7,0.7,1.2,1.6,1.2C252.9,82.8,253.7,82.4,253.7,81.6z M253.6,78.4
			c0-0.7-0.7-1.1-1.5-1.1c-0.8,0-1.5,0.4-1.5,1.1c0,0.8,1.1,1.1,1.5,1.2C252.5,79.5,253.6,79.2,253.6,78.4z"/>
		<path class="st4" d="M255.6,80.1c0-1.7,0.7-3.5,2.6-3.5c1.9,0,2.6,1.9,2.6,3.5c0,1.7-0.7,3.5-2.6,3.5
			C256.3,83.6,255.6,81.7,255.6,80.1z M259.9,80.1c0-1.4-0.4-2.8-1.7-2.8s-1.7,1.4-1.7,2.8s0.4,2.8,1.7,2.8S259.9,81.4,259.9,80.1z"
			/>
		<path class="st4" d="M261.8,80.1c0-1.7,0.7-3.5,2.6-3.5c1.9,0,2.6,1.9,2.6,3.5c0,1.7-0.7,3.5-2.6,3.5
			C262.6,83.6,261.8,81.7,261.8,80.1z M266.2,80.1c0-1.4-0.4-2.8-1.7-2.8s-1.7,1.4-1.7,2.8s0.4,2.8,1.7,2.8S266.2,81.4,266.2,80.1z"
			/>
		<path class="st4" d="M272.7,83.5v-6.1h-2.2v-0.8h5.2v0.8h-2.2v6.1H272.7z"/>
		<path class="st4" d="M276.8,83.5v-6.8h2.7c1.4,0,2.1,0.9,2.1,2.1c0,1.1-0.8,2.1-2.1,2.1h-1.9v2.7H276.8z M280.8,78.7
			c0-0.8-0.6-1.3-1.4-1.3h-1.8V80h1.8C280.3,80,280.8,79.5,280.8,78.7z"/>
		<path class="st4" d="M286.9,83.5l-0.6-1.5h-3.4l-0.6,1.5h-1l2.7-6.8h1.1l2.8,6.8H286.9z M284.6,77.5l-1.5,3.7h2.9L284.6,77.5z"/>
	</g>
	<g>
		<path class="st4" d="M5.9,105.2v-6.1H3.7v-0.8h5.2v0.8H6.7v6.1H5.9z"/>
		<path class="st4" d="M13.3,105.2v-3.3c0-0.9-0.4-1.1-1.1-1.1c-0.6,0-1.2,0.4-1.5,0.8v3.6H10v-6.8h0.8v2.6c0.3-0.4,1-0.8,1.8-0.8
			c1,0,1.6,0.5,1.6,1.6v3.5H13.3z"/>
		<path class="st4" d="M15.4,102.7c0-1.4,1-2.6,2.4-2.6c1.5,0,2.4,1.2,2.4,2.6v0.2h-4c0.1,0.9,0.7,1.7,1.8,1.7
			c0.6,0,1.1-0.2,1.5-0.6l0.4,0.5c-0.5,0.5-1.2,0.8-2,0.8C16.4,105.3,15.4,104.2,15.4,102.7z M17.8,100.7c-1.1,0-1.6,0.9-1.6,1.6
			h3.2C19.4,101.7,18.9,100.7,17.8,100.7z"/>
		<path class="st4" d="M21.4,105.2v-4.9h0.8v0.8c0.4-0.5,1-0.9,1.6-0.9v0.8c-0.1,0-0.2,0-0.3,0c-0.5,0-1.1,0.4-1.3,0.8v3.5H21.4z"/>
		<path class="st4" d="M30.7,105.2v-3.4c0-0.6-0.3-1-0.9-1c-0.5,0-1.1,0.4-1.3,0.8v3.6h-0.8v-3.4c0-0.6-0.3-1-0.9-1
			c-0.5,0-1,0.4-1.3,0.8v3.6h-0.8v-4.9h0.8v0.7c0.2-0.3,0.9-0.8,1.6-0.8c0.8,0,1.2,0.4,1.3,0.9c0.3-0.4,0.9-0.9,1.7-0.9
			c0.9,0,1.4,0.5,1.4,1.5v3.6H30.7z"/>
		<path class="st4" d="M36.1,105.2v-0.6c-0.4,0.5-1,0.7-1.6,0.7c-0.8,0-1.7-0.6-1.7-1.6c0-1.1,0.9-1.6,1.7-1.6
			c0.7,0,1.2,0.2,1.6,0.7v-0.9c0-0.7-0.5-1-1.2-1c-0.6,0-1.1,0.2-1.5,0.7l-0.4-0.5c0.5-0.6,1.2-0.8,2-0.8c1,0,1.9,0.5,1.9,1.7v3.4
			H36.1z M36.1,104.1v-0.9c-0.3-0.4-0.8-0.6-1.4-0.6c-0.7,0-1.2,0.5-1.2,1.1c0,0.6,0.5,1.1,1.2,1.1
			C35.3,104.7,35.8,104.5,36.1,104.1z"/>
		<path class="st4" d="M38.4,105.2v-6.8h0.8v6.8H38.4z"/>
		<path class="st4" d="M43.4,105.2v-6.8h2.7c1.4,0,2.1,0.9,2.1,2.1c0,1.1-0.8,2.1-2.1,2.1h-1.9v2.7H43.4z M47.4,100.4
			c0-0.8-0.6-1.3-1.4-1.3h-1.8v2.6H46C46.8,101.7,47.4,101.2,47.4,100.4z"/>
		<path class="st4" d="M49,102.7c0-1.4,0.9-2.6,2.4-2.6s2.4,1.2,2.4,2.6c0,1.4-0.9,2.6-2.4,2.6S49,104.1,49,102.7z M53,102.7
			c0-1-0.6-1.9-1.6-1.9c-1.1,0-1.6,0.9-1.6,1.9c0,1,0.6,1.9,1.6,1.9C52.5,104.6,53,103.7,53,102.7z"/>
		<path class="st4" d="M59.4,105.2l-1.3-4l-1.3,4H56l-1.6-4.9h0.8l1.2,3.9l1.3-3.9h0.7l1.3,3.9l1.2-3.9h0.8l-1.6,4.9H59.4z"/>
		<path class="st4" d="M62.3,102.7c0-1.4,1-2.6,2.4-2.6c1.5,0,2.4,1.2,2.4,2.6v0.2h-4c0.1,0.9,0.7,1.7,1.8,1.7
			c0.6,0,1.1-0.2,1.5-0.6l0.4,0.5c-0.5,0.5-1.2,0.8-2,0.8C63.4,105.3,62.3,104.2,62.3,102.7z M64.7,100.7c-1.1,0-1.6,0.9-1.6,1.6
			h3.2C66.4,101.7,65.9,100.7,64.7,100.7z"/>
		<path class="st4" d="M68.4,105.2v-4.9h0.8v0.8c0.4-0.5,1-0.9,1.6-0.9v0.8c-0.1,0-0.2,0-0.3,0c-0.5,0-1.1,0.4-1.3,0.8v3.5H68.4z"/>
	</g>
	<g>
		<path class="st4" d="M242,104.2l0.5-0.6c0.4,0.6,1,0.9,1.9,0.9c0.9,0,1.6-0.6,1.6-1.5c0-0.9-0.6-1.5-1.6-1.5
			c-0.6,0-1.1,0.2-1.6,0.6l-0.6-0.2v-3.7h4.2v0.8h-3.3v2.4c0.3-0.3,0.9-0.6,1.6-0.6c1.1,0,2.2,0.8,2.2,2.2c0,1.4-1.1,2.2-2.4,2.2
			C243.2,105.3,242.5,104.9,242,104.2z"/>
		<path class="st4" d="M247.9,101.8c0-1.7,0.7-3.5,2.6-3.5c1.9,0,2.6,1.9,2.6,3.5c0,1.7-0.7,3.5-2.6,3.5
			C248.6,105.3,247.9,103.4,247.9,101.8z M252.2,101.8c0-1.4-0.4-2.8-1.7-2.8s-1.7,1.4-1.7,2.8s0.4,2.8,1.7,2.8
			S252.2,103.1,252.2,101.8z"/>
		<path class="st4" d="M254.3,104.2l0.5-0.6c0.4,0.6,1,0.9,1.9,0.9c0.9,0,1.6-0.6,1.6-1.5c0-0.9-0.6-1.5-1.6-1.5
			c-0.6,0-1.1,0.2-1.6,0.6l-0.6-0.2v-3.7h4.2v0.8h-3.3v2.4c0.3-0.3,0.9-0.6,1.6-0.6c1.1,0,2.2,0.8,2.2,2.2c0,1.4-1.1,2.2-2.4,2.2
			C255.5,105.3,254.8,104.9,254.3,104.2z"/>
		<path class="st4" d="M260.3,104.7c0-0.3,0.3-0.6,0.6-0.6s0.6,0.3,0.6,0.6s-0.3,0.6-0.6,0.6S260.3,105,260.3,104.7z"/>
		<path class="st4" d="M262.7,104.2l0.5-0.6c0.4,0.6,1,0.9,1.9,0.9c0.9,0,1.6-0.6,1.6-1.5c0-0.9-0.6-1.5-1.6-1.5
			c-0.6,0-1.1,0.2-1.6,0.6l-0.6-0.2v-3.7h4.2v0.8h-3.3v2.4c0.3-0.3,0.9-0.6,1.6-0.6c1.1,0,2.2,0.8,2.2,2.2c0,1.4-1.1,2.2-2.4,2.2
			C263.9,105.3,263.2,104.9,262.7,104.2z"/>
		<path class="st4" d="M277.3,105.2v-5.6l-2.3,5.6h-0.3l-2.3-5.6v5.6h-0.8v-6.8h1.2l2.1,5.1l2.1-5.1h1.2v6.8H277.3z"/>
		<path class="st4" d="M284.9,105.2l-1.5-5.5l-1.5,5.5H281l-1.9-6.8h0.9l1.5,5.7l1.6-5.7h0.7l1.6,5.7l1.5-5.7h0.9l-1.9,6.8H284.9z"
			/>
	</g>
	<path class="st0" d="M454,3h141.3v22.2H454V3z M307.3,3H454v22.2H307.3V3z"/>
	<line class="st1" x1="307.3" y1="25.2" x2="454" y2="25.2"/>
	<line class="st1" x1="454" y1="25.2" x2="595.3" y2="25.2"/>
	<line class="st2" x1="307.3" y1="46.9" x2="454" y2="46.9"/>
	<line class="st2" x1="454" y1="46.9" x2="595.3" y2="46.9"/>
	<line class="st2" x1="307.3" y1="68.6" x2="454" y2="68.6"/>
	<line class="st2" x1="454" y1="68.6" x2="595.3" y2="68.6"/>
	<line class="st3" x1="307.3" y1="90.3" x2="454" y2="90.3"/>
	<line class="st3" x1="454" y1="90.3" x2="595.3" y2="90.3"/>
	<g>
		<path class="st4" d="M311.1,14.5c0-2.1,1.6-3.5,3.6-3.5c1.4,0,2.2,0.7,2.7,1.5l-1,0.5c-0.3-0.6-1-1-1.7-1c-1.3,0-2.4,1-2.4,2.5
			s1,2.5,2.4,2.5c0.7,0,1.4-0.4,1.7-1l1,0.5c-0.5,0.8-1.4,1.5-2.7,1.5C312.7,18,311.1,16.6,311.1,14.5z"/>
		<path class="st4" d="M321.4,17.9v-0.5c-0.4,0.4-0.9,0.7-1.6,0.7c-0.8,0-1.7-0.5-1.7-1.6c0-1.1,0.9-1.6,1.7-1.6
			c0.7,0,1.2,0.2,1.6,0.6v-0.7c0-0.6-0.5-0.9-1.2-0.9c-0.6,0-1,0.2-1.5,0.6l-0.4-0.7c0.6-0.5,1.3-0.8,2.1-0.8c1.1,0,2.1,0.5,2.1,1.8
			v3.3H321.4z M321.4,16.8V16c-0.2-0.3-0.7-0.5-1.2-0.5c-0.6,0-1.1,0.3-1.1,0.9c0,0.5,0.5,0.9,1.1,0.9
			C320.7,17.3,321.2,17.1,321.4,16.8z"/>
		<path class="st4" d="M324.1,16.7v-2.9h-0.8V13h0.8v-1.3h1.1V13h1v0.9h-1v2.6c0,0.3,0.2,0.6,0.5,0.6c0.2,0,0.4-0.1,0.5-0.2l0.3,0.8
			c-0.2,0.2-0.5,0.3-1,0.3C324.5,18,324.1,17.6,324.1,16.7z"/>
		<path class="st4" d="M326.8,15.4c0-1.4,1-2.6,2.5-2.6c1.5,0,2.4,1.1,2.4,2.7v0.3H328c0.1,0.7,0.6,1.4,1.6,1.4
			c0.5,0,1.1-0.2,1.4-0.5l0.5,0.7c-0.5,0.5-1.2,0.7-2,0.7C327.9,18,326.8,17,326.8,15.4z M329.3,13.7c-0.9,0-1.3,0.7-1.4,1.3h2.8
			C330.7,14.4,330.3,13.7,329.3,13.7z"/>
		<path class="st4" d="M332.8,19.2l0.5-0.8c0.4,0.5,0.9,0.6,1.6,0.6c0.7,0,1.5-0.3,1.5-1.3v-0.6c-0.4,0.5-0.9,0.8-1.6,0.8
			c-1.3,0-2.2-0.9-2.2-2.5c0-1.6,0.9-2.5,2.2-2.5c0.6,0,1.2,0.3,1.6,0.8V13h1.1v4.7c0,1.8-1.3,2.3-2.5,2.3
			C334,19.9,333.4,19.7,332.8,19.2z M336.3,16.3v-1.8c-0.2-0.4-0.8-0.7-1.3-0.7c-0.8,0-1.4,0.6-1.4,1.6c0,1,0.5,1.6,1.4,1.6
			C335.5,17,336.1,16.7,336.3,16.3z"/>
		<path class="st4" d="M338.5,15.4c0-1.4,1-2.6,2.5-2.6c1.6,0,2.5,1.2,2.5,2.6c0,1.4-1,2.6-2.5,2.6C339.4,18,338.5,16.8,338.5,15.4z
			 M342.4,15.4c0-0.9-0.5-1.6-1.4-1.6c-0.9,0-1.4,0.8-1.4,1.6c0,0.9,0.5,1.6,1.4,1.6C341.9,17.1,342.4,16.3,342.4,15.4z"/>
		<path class="st4" d="M344.6,17.9V13h1.1v0.7c0.4-0.5,1-0.8,1.6-0.8v1.1c-0.1,0-0.2,0-0.3,0c-0.4,0-1.1,0.3-1.3,0.7v3.4H344.6z"/>
		<path class="st4" d="M348.1,18.9c0.1,0.1,0.3,0.1,0.4,0.1c0.3,0,0.6-0.1,0.7-0.4l0.2-0.6l-2-5h1.1l1.4,3.7l1.4-3.7h1.2l-2.4,5.8
			c-0.3,0.8-0.9,1.1-1.7,1.1c-0.2,0-0.5,0-0.6-0.1L348.1,18.9z"/>
	</g>
	<g>
		<path class="st4" d="M552.2,18.4l-2.4-3l-0.6,0.7v2.3h-1.3v-7.2h1.3v3.4l2.8-3.4h1.6l-2.9,3.4l3.2,3.8H552.2z"/>
		<path class="st4" d="M553.9,15.7c0-1.5,1.1-2.7,2.7-2.7c1.6,0,2.6,1.2,2.6,2.8v0.3h-4c0.1,0.8,0.7,1.4,1.7,1.4
			c0.5,0,1.1-0.2,1.5-0.6l0.5,0.7c-0.5,0.5-1.3,0.8-2.1,0.8C555.1,18.5,553.9,17.4,553.9,15.7z M556.6,13.9c-1,0-1.4,0.7-1.5,1.4
			h2.9C558,14.7,557.6,13.9,556.6,13.9z"/>
		<path class="st4" d="M560.2,19.4c0.1,0.1,0.3,0.1,0.4,0.1c0.4,0,0.6-0.1,0.7-0.5l0.3-0.6l-2.1-5.3h1.2l1.5,3.9l1.5-3.9h1.2
			l-2.5,6.2c-0.4,0.9-1,1.2-1.8,1.2c-0.2,0-0.5,0-0.6-0.1L560.2,19.4z"/>
		<path class="st4" d="M568.1,17.4l0.7-1c0.5,0.5,1.3,1,2.3,1c1,0,1.5-0.5,1.5-1c0-1.5-4.2-0.6-4.2-3.2c0-1.2,1.1-2.1,2.6-2.1
			c1.1,0,2,0.4,2.7,1l-0.7,0.9c-0.6-0.6-1.3-0.8-2.1-0.8c-0.7,0-1.2,0.4-1.2,0.9c0,1.3,4.2,0.5,4.2,3.2c0,1.2-0.8,2.2-2.8,2.2
			C569.7,18.5,568.7,18,568.1,17.4z"/>
		<path class="st4" d="M575,17.2v-3h-0.9v-1h0.9v-1.4h1.1v1.4h1.1v1h-1.1v2.7c0,0.4,0.2,0.6,0.5,0.6c0.2,0,0.4-0.1,0.5-0.2l0.3,0.9
			c-0.2,0.2-0.5,0.3-1.1,0.3C575.5,18.5,575,18,575,17.2z"/>
		<path class="st4" d="M581.4,18.4v-0.6c-0.4,0.4-1,0.7-1.7,0.7c-0.9,0-1.8-0.6-1.8-1.7c0-1.2,1-1.7,1.8-1.7c0.7,0,1.3,0.2,1.7,0.7
			V15c0-0.6-0.5-1-1.2-1c-0.6,0-1.1,0.2-1.5,0.7l-0.5-0.8c0.6-0.6,1.4-0.8,2.2-0.8c1.2,0,2.2,0.5,2.2,1.9v3.5H581.4z M581.4,17.2
			v-0.8c-0.3-0.4-0.7-0.5-1.2-0.5c-0.6,0-1.1,0.4-1.1,0.9c0,0.6,0.5,0.9,1.1,0.9C580.7,17.7,581.2,17.5,581.4,17.2z"/>
		<path class="st4" d="M584.3,17.2v-3h-0.9v-1h0.9v-1.4h1.1v1.4h1.1v1h-1.1v2.7c0,0.4,0.2,0.6,0.5,0.6c0.2,0,0.4-0.1,0.5-0.2
			l0.3,0.9c-0.2,0.2-0.5,0.3-1.1,0.3C584.7,18.5,584.3,18,584.3,17.2z"/>
		<path class="st4" d="M587,17.7l0.5-0.8c0.4,0.4,1.1,0.7,1.8,0.7s1-0.3,1-0.7c0-1-3.2-0.3-3.2-2.3c0-0.9,0.7-1.6,2.1-1.6
			c0.9,0,1.6,0.3,2,0.7l-0.5,0.8c-0.3-0.4-0.9-0.6-1.5-0.6c-0.6,0-1,0.3-1,0.6c0,0.9,3.2,0.2,3.2,2.3c0,0.9-0.8,1.6-2.2,1.6
			C588.4,18.5,587.6,18.2,587,17.7z"/>
	</g>
	<g>
		<path class="st4" d="M316.7,40.1l-1.5-5.5l-1.5,5.5h-0.9l-1.9-6.8h0.9l1.5,5.7l1.6-5.7h0.7l1.6,5.7l1.5-5.7h0.9l-1.9,6.8H316.7z"
			/>
		<path class="st4" d="M320.4,33.9c0-0.3,0.2-0.5,0.5-0.5c0.3,0,0.5,0.2,0.5,0.5s-0.2,0.5-0.5,0.5C320.6,34.4,320.4,34.2,320.4,33.9
			z M320.5,40.1v-4.9h0.8v4.9H320.5z"/>
		<path class="st4" d="M326.2,40.1v-3.2c0-0.9-0.4-1.1-1.1-1.1c-0.6,0-1.2,0.4-1.5,0.8v3.6h-0.8v-4.9h0.8v0.7c0.3-0.4,1-0.8,1.8-0.8
			c1,0,1.6,0.5,1.6,1.6v3.5H326.2z"/>
		<path class="st4" d="M332,40.1v-0.7c-0.4,0.5-1,0.9-1.7,0.9c-1.3,0-2.2-1-2.2-2.6c0-1.6,0.9-2.6,2.2-2.6c0.7,0,1.3,0.3,1.7,0.9
			v-2.6h0.8v6.8H332z M332,38.7v-2.2c-0.3-0.4-0.9-0.8-1.5-0.8c-1,0-1.6,0.8-1.6,1.9s0.6,1.9,1.6,1.9
			C331.2,39.5,331.8,39.2,332,38.7z"/>
		<path class="st4" d="M337,40.1v-6.8h2.7c1.4,0,2.1,0.9,2.1,2.1c0,1.1-0.8,2.1-2.1,2.1h-1.9v2.7H337z M341,35.3
			c0-0.8-0.6-1.3-1.4-1.3h-1.8v2.6h1.8C340.5,36.6,341,36.1,341,35.3z"/>
		<path class="st4" d="M342.6,37.6c0-1.4,0.9-2.6,2.4-2.6s2.4,1.2,2.4,2.6c0,1.4-0.9,2.6-2.4,2.6S342.6,39,342.6,37.6z M346.6,37.6
			c0-1-0.6-1.9-1.6-1.9s-1.6,0.9-1.6,1.9c0,1,0.6,1.9,1.6,1.9S346.6,38.6,346.6,37.6z"/>
		<path class="st4" d="M353,40.1l-1.3-4l-1.3,4h-0.8l-1.6-4.9h0.8l1.2,3.9l1.3-3.9h0.7l1.3,3.9l1.2-3.9h0.8l-1.6,4.9H353z"/>
		<path class="st4" d="M355.9,37.6c0-1.4,1-2.6,2.4-2.6c1.5,0,2.4,1.2,2.4,2.6v0.2h-4c0.1,0.9,0.7,1.7,1.8,1.7
			c0.6,0,1.1-0.2,1.5-0.6l0.4,0.5c-0.5,0.5-1.2,0.8-2,0.8C357,40.2,355.9,39.2,355.9,37.6z M358.3,35.7c-1.1,0-1.6,0.9-1.6,1.6h3.2
			C360,36.6,359.5,35.7,358.3,35.7z"/>
		<path class="st4" d="M362,40.1v-4.9h0.8v0.8c0.4-0.5,1-0.9,1.6-0.9v0.8c-0.1,0-0.2,0-0.3,0c-0.5,0-1.1,0.4-1.3,0.8v3.5H362z"/>
	</g>
	<g>
		<path class="st4" d="M547.1,40.1v-0.7c2.5-1.9,3.8-3.1,3.8-4.2c0-0.9-0.7-1.2-1.4-1.2c-0.8,0-1.5,0.3-1.9,0.9l-0.5-0.5
			c0.5-0.7,1.4-1.1,2.4-1.1c1.1,0,2.3,0.6,2.3,2c0,1.4-1.4,2.7-3.3,4.2h3.3v0.8H547.1z"/>
		<path class="st4" d="M553.8,40.1l2.8-6.1h-3.7v-0.8h4.7v0.6l-2.8,6.2H553.8z"/>
		<path class="st4" d="M558.1,39.1l0.5-0.5c0.4,0.5,1.1,0.9,1.9,0.9c1,0,1.6-0.5,1.6-1.3c0-0.8-0.7-1.2-1.7-1.2c-0.3,0-0.6,0-0.7,0
			v-0.8c0.1,0,0.4,0,0.7,0c0.9,0,1.6-0.3,1.6-1.1c0-0.8-0.7-1.2-1.5-1.2c-0.7,0-1.3,0.3-1.8,0.8l-0.5-0.5c0.5-0.6,1.3-1.1,2.3-1.1
			c1.3,0,2.3,0.7,2.3,1.8c0,1-0.8,1.5-1.5,1.6c0.6,0.1,1.6,0.6,1.6,1.7c0,1.1-0.9,2-2.4,2C559.4,40.2,558.6,39.7,558.1,39.1z"/>
		<path class="st4" d="M564.2,39.6c0-0.3,0.3-0.6,0.6-0.6s0.6,0.3,0.6,0.6s-0.3,0.6-0.6,0.6S564.2,39.9,564.2,39.6z"/>
		<path class="st4" d="M566.6,39.1l0.5-0.6c0.4,0.6,1,0.9,1.9,0.9c0.9,0,1.6-0.6,1.6-1.5c0-0.9-0.6-1.5-1.6-1.5
			c-0.6,0-1.1,0.2-1.6,0.6l-0.6-0.2v-3.7h4.2V34h-3.3v2.4c0.3-0.3,0.9-0.6,1.6-0.6c1.1,0,2.2,0.8,2.2,2.2c0,1.4-1.1,2.2-2.4,2.2
			C567.8,40.2,567.1,39.8,566.6,39.1z"/>
		<path class="st4" d="M581.2,40.1v-5.6l-2.3,5.6h-0.3l-2.3-5.6v5.6h-0.8v-6.8h1.2l2.1,5.1l2.1-5.1h1.2v6.8H581.2z"/>
		<path class="st4" d="M588.8,40.1l-1.5-5.5l-1.5,5.5h-0.9l-1.9-6.8h0.9l1.5,5.7l1.6-5.7h0.7l1.6,5.7l1.5-5.7h0.9l-1.9,6.8H588.8z"
			/>
	</g>
	<g>
		<path class="st4" d="M311.1,60.8l0.5-0.6c0.4,0.5,1.2,1,2.1,1c1.2,0,1.6-0.7,1.6-1.2c0-1.8-4-0.8-4-3.2c0-1.1,1-1.9,2.3-1.9
			c1,0,1.9,0.3,2.4,1l-0.5,0.6c-0.5-0.6-1.2-0.8-2-0.8c-0.8,0-1.4,0.4-1.4,1.1c0,1.5,4,0.7,4,3.2c0,1-0.7,2-2.5,2
			C312.5,61.9,311.7,61.5,311.1,60.8z"/>
		<path class="st4" d="M317.2,59.3c0-1.4,0.9-2.6,2.4-2.6s2.4,1.2,2.4,2.6c0,1.4-0.9,2.6-2.4,2.6S317.2,60.8,317.2,59.3z
			 M321.3,59.3c0-1-0.6-1.9-1.6-1.9s-1.6,0.9-1.6,1.9c0,1,0.6,1.9,1.6,1.9S321.3,60.3,321.3,59.3z"/>
		<path class="st4" d="M323.3,61.8V55h0.8v6.8H323.3z"/>
		<path class="st4" d="M328.7,61.8v-0.6c-0.4,0.5-1,0.7-1.6,0.7c-0.8,0-1.7-0.6-1.7-1.6c0-1.1,0.9-1.6,1.7-1.6
			c0.7,0,1.2,0.2,1.6,0.7v-0.9c0-0.7-0.5-1-1.2-1c-0.6,0-1.1,0.2-1.5,0.7l-0.4-0.5c0.5-0.6,1.2-0.8,2-0.8c1,0,1.9,0.5,1.9,1.7v3.4
			H328.7z M328.7,60.8v-0.9c-0.3-0.4-0.8-0.6-1.4-0.6c-0.7,0-1.2,0.5-1.2,1.1c0,0.6,0.5,1.1,1.2,1.1
			C327.9,61.4,328.4,61.2,328.7,60.8z"/>
		<path class="st4" d="M331,61.8v-4.9h0.8v0.8c0.4-0.5,1-0.9,1.6-0.9v0.8c-0.1,0-0.2,0-0.3,0c-0.5,0-1.1,0.4-1.3,0.8v3.5H331z"/>
		<path class="st4" d="M337.1,61.8V55h2.7c1.4,0,2.1,0.9,2.1,2.1c0,1.1-0.8,2.1-2.1,2.1h-1.9v2.7H337.1z M341.1,57
			c0-0.8-0.6-1.3-1.4-1.3h-1.8v2.6h1.8C340.5,58.3,341.1,57.8,341.1,57z"/>
		<path class="st4" d="M342.6,59.3c0-1.4,0.9-2.6,2.4-2.6s2.4,1.2,2.4,2.6c0,1.4-0.9,2.6-2.4,2.6S342.6,60.8,342.6,59.3z
			 M346.7,59.3c0-1-0.6-1.9-1.6-1.9s-1.6,0.9-1.6,1.9c0,1,0.6,1.9,1.6,1.9S346.7,60.3,346.7,59.3z"/>
		<path class="st4" d="M353,61.8l-1.3-4l-1.3,4h-0.8l-1.6-4.9h0.8l1.2,3.9l1.3-3.9h0.7l1.3,3.9l1.2-3.9h0.8l-1.6,4.9H353z"/>
		<path class="st4" d="M356,59.3c0-1.4,1-2.6,2.4-2.6c1.5,0,2.4,1.2,2.4,2.6v0.2h-4c0.1,0.9,0.7,1.7,1.8,1.7c0.6,0,1.1-0.2,1.5-0.6
			l0.4,0.5c-0.5,0.5-1.2,0.8-2,0.8C357,61.9,356,60.9,356,59.3z M358.4,57.4c-1.1,0-1.6,0.9-1.6,1.6h3.2
			C360,58.3,359.5,57.4,358.4,57.4z"/>
		<path class="st4" d="M362,61.8v-4.9h0.8v0.8c0.4-0.5,1-0.9,1.6-0.9v0.8c-0.1,0-0.2,0-0.3,0c-0.5,0-1.1,0.4-1.3,0.8v3.5H362z"/>
	</g>
	<g>
		<path class="st4" d="M549.8,61.8v-1.7h-3.2v-0.7l2.9-4.4h1.2v4.3h1v0.7h-1v1.7H549.8z M549.8,55.8l-2.4,3.6h2.4V55.8z"/>
		<path class="st4" d="M552.4,58.4c0-1.7,0.7-3.5,2.6-3.5c1.9,0,2.6,1.9,2.6,3.5c0,1.7-0.7,3.5-2.6,3.5
			C553.2,61.9,552.4,60.1,552.4,58.4z M556.8,58.4c0-1.4-0.4-2.8-1.7-2.8c-1.3,0-1.7,1.4-1.7,2.8s0.4,2.8,1.7,2.8
			C556.3,61.2,556.8,59.8,556.8,58.4z"/>
		<path class="st4" d="M558.5,61.3c0-0.3,0.3-0.6,0.6-0.6s0.6,0.3,0.6,0.6s-0.3,0.6-0.6,0.6S558.5,61.7,558.5,61.3z"/>
		<path class="st4" d="M563.8,61.8v-1.7h-3.2v-0.7l2.9-4.4h1.2v4.3h1v0.7h-1v1.7H563.8z M563.8,55.8l-2.4,3.6h2.4V55.8z"/>
		<path class="st4" d="M566.5,61.8v-0.7c2.5-1.9,3.8-3.1,3.8-4.2c0-0.9-0.7-1.2-1.4-1.2c-0.8,0-1.5,0.3-1.9,0.9l-0.5-0.5
			c0.5-0.7,1.4-1.1,2.4-1.1c1.1,0,2.3,0.6,2.3,2c0,1.4-1.4,2.7-3.3,4.2h3.3v0.8H566.5z"/>
		<path class="st4" d="M581.2,61.8v-5.6l-2.3,5.6h-0.3l-2.3-5.6v5.6h-0.8V55h1.2l2.1,5.1l2.1-5.1h1.2v6.8H581.2z"/>
		<path class="st4" d="M588.8,61.8l-1.5-5.5l-1.5,5.5h-0.9L583,55h0.9l1.5,5.7L587,55h0.7l1.6,5.7l1.5-5.7h0.9l-1.9,6.8H588.8z"/>
	</g>
	<g>
		<path class="st4" d="M316.7,83.5l-1.5-5.5l-1.5,5.5h-0.9l-1.9-6.8h0.9l1.5,5.7l1.6-5.7h0.7l1.6,5.7l1.5-5.7h0.9l-1.9,6.8H316.7z"
			/>
		<path class="st4" d="M325.4,83.5v-3.1h-4v3.1h-0.8v-6.8h0.8v2.9h4v-2.9h0.8v6.8H325.4z"/>
		<path class="st4" d="M331.8,83.5l-1.7-2.7h-1.4v2.7h-0.8v-6.8h2.7c1.2,0,2.1,0.8,2.1,2.1c0,1.2-0.8,1.9-1.8,2l1.8,2.8H331.8z
			 M331.8,78.8c0-0.8-0.6-1.3-1.4-1.3h-1.8v2.6h1.8C331.3,80.1,331.8,79.5,331.8,78.8z"/>
		<path class="st4" d="M334,83.5v-6.8h3c1.2,0,1.9,0.7,1.9,1.7c0,0.9-0.6,1.4-1.2,1.6c0.7,0.1,1.3,0.9,1.3,1.7c0,1.1-0.7,1.8-2,1.8
			H334z M338.1,78.6c0-0.6-0.4-1.1-1.2-1.1h-2v2.2h2C337.7,79.7,338.1,79.2,338.1,78.6z M338.3,81.6c0-0.6-0.4-1.2-1.3-1.2h-2.1v2.4
			h2.1C337.8,82.8,338.3,82.3,338.3,81.6z"/>
		<path class="st4" d="M343.1,83.5v-6.8h2.7c1.4,0,2.1,0.9,2.1,2.1c0,1.1-0.8,2.1-2.1,2.1H344v2.7H343.1z M347.1,78.8
			c0-0.8-0.6-1.3-1.4-1.3H344v2.6h1.8C346.6,80.1,347.1,79.5,347.1,78.8z"/>
		<path class="st4" d="M348.7,81.1c0-1.4,0.9-2.6,2.4-2.6s2.4,1.2,2.4,2.6c0,1.4-0.9,2.6-2.4,2.6S348.7,82.5,348.7,81.1z
			 M352.8,81.1c0-1-0.6-1.9-1.6-1.9s-1.6,0.9-1.6,1.9c0,1,0.6,1.9,1.6,1.9S352.8,82.1,352.8,81.1z"/>
		<path class="st4" d="M359.1,83.5l-1.3-4l-1.3,4h-0.8l-1.6-4.9h0.8l1.2,3.9l1.3-3.9h0.7l1.3,3.9l1.2-3.9h0.8l-1.6,4.9H359.1z"/>
		<path class="st4" d="M362,81.1c0-1.4,1-2.6,2.4-2.6c1.5,0,2.4,1.2,2.4,2.6v0.2h-4c0.1,0.9,0.7,1.7,1.8,1.7c0.6,0,1.1-0.2,1.5-0.6
			l0.4,0.5c-0.5,0.5-1.2,0.8-2,0.8C363.1,83.7,362,82.6,362,81.1z M364.5,79.1c-1.1,0-1.6,0.9-1.6,1.6h3.2
			C366.1,80,365.6,79.1,364.5,79.1z"/>
		<path class="st4" d="M368.1,83.5v-4.9h0.8v0.8c0.4-0.5,1-0.9,1.6-0.9v0.8c-0.1,0-0.2,0-0.3,0c-0.5,0-1.1,0.4-1.3,0.8v3.5H368.1z"
			/>
	</g>
	<g>
		<path class="st4" d="M550.2,83.5v-1.7h-3.2v-0.7l2.9-4.4h1.2v4.3h1v0.7h-1v1.7H550.2z M550.2,77.5l-2.4,3.6h2.4V77.5z"/>
		<path class="st4" d="M552.8,80.1c0-1.7,0.7-3.5,2.6-3.5c1.9,0,2.6,1.8,2.6,3.5c0,1.7-0.7,3.5-2.6,3.5
			C553.6,83.7,552.8,81.8,552.8,80.1z M557.2,80.1c0-1.4-0.4-2.8-1.7-2.8c-1.3,0-1.7,1.4-1.7,2.8s0.4,2.8,1.7,2.8
			C556.7,82.9,557.2,81.5,557.2,80.1z"/>
		<path class="st4" d="M558.9,83.1c0-0.3,0.3-0.6,0.6-0.6s0.6,0.3,0.6,0.6s-0.3,0.6-0.6,0.6S558.9,83.4,558.9,83.1z"/>
		<path class="st4" d="M561.1,80.1c0-1.8,0.9-3.5,2.8-3.5c0.9,0,1.5,0.3,1.9,0.8l-0.4,0.6c-0.3-0.4-0.7-0.7-1.5-0.7
			c-1.3,0-1.9,1.3-1.9,2.7c0,0.1,0,0.2,0,0.3c0.3-0.5,1.1-1.1,1.9-1.1c1.2,0,2.2,0.7,2.2,2.2c0,1.2-0.9,2.2-2.4,2.2
			C561.9,83.7,561.1,82,561.1,80.1z M565.3,81.5c0-1-0.7-1.5-1.6-1.5c-0.7,0-1.3,0.4-1.7,1c0.1,0.8,0.5,1.9,1.7,1.9
			C564.8,82.9,565.3,82.1,565.3,81.5z"/>
		<path class="st4" d="M567.9,83.5l2.8-6.1H567v-0.8h4.7v0.6l-2.8,6.2H567.9z"/>
		<path class="st4" d="M581.2,83.5v-5.6l-2.3,5.6h-0.3l-2.3-5.6v5.6h-0.8v-6.8h1.2l2.1,5.1l2.1-5.1h1.2v6.8H581.2z"/>
		<path class="st4" d="M588.8,83.5l-1.5-5.5l-1.5,5.5h-0.9l-1.9-6.8h0.9l1.5,5.7l1.6-5.7h0.7l1.6,5.7l1.5-5.7h0.9l-1.9,6.8H588.8z"
			/>
	</g>
</g>
</svg>
