<?xml version="1.0" encoding="utf-8"?>
<!-- Generator: Adobe Illustrator 26.4.0, SVG Export Plug-In . SVG Version: 6.00 Build 0)  -->
<svg version="1.1" id="Layer_1" xmlns="http://www.w3.org/2000/svg" xmlns:xlink="http://www.w3.org/1999/xlink" x="0px" y="0px"
	 viewBox="0 0 595.3 137.9" style="enable-background:new 0 0 595.3 137.9;" xml:space="preserve">
<style type="text/css">
	.st0{fill:#E6E7E8;}
	.st1{fill:none;stroke:#0069AA;stroke-width:0.5;stroke-miterlimit:10;}
	.st2{fill:none;stroke:#6D6E71;stroke-width:0.25;stroke-miterlimit:10;}
	.st3{fill:none;stroke:#0069AA;stroke-miterlimit:10;}
	.st4{fill:#4D4D4F;}
</style>
<path class="st0" d="M516.4,22.2h78.9v50.6h-78.9V22.2z M405.9,22.2h110.4v50.6H405.9V22.2z M305.9,22.2h100v50.6h-100V22.2z
	 M199.4,22.2h106.5v50.6H199.4V22.2z M199.4,0h395.9v22.2H199.4V0z M0,0h199.4v72.7H0V0z"/>
<line class="st1" x1="0" y1="72.7" x2="199.4" y2="72.7"/>
<line class="st1" x1="199.4" y1="72.7" x2="305.9" y2="72.7"/>
<line class="st1" x1="305.9" y1="72.7" x2="405.9" y2="72.7"/>
<line class="st1" x1="405.9" y1="72.7" x2="516.4" y2="72.7"/>
<line class="st1" x1="516.4" y1="72.7" x2="595.3" y2="72.7"/>
<line class="st1" x1="199.4" y1="22.2" x2="305.9" y2="22.2"/>
<line class="st1" x1="305.9" y1="22.2" x2="405.9" y2="22.2"/>
<line class="st1" x1="405.9" y1="22.2" x2="516.4" y2="22.2"/>
<line class="st1" x1="516.4" y1="22.2" x2="595.3" y2="22.2"/>
<line class="st2" x1="0" y1="94.5" x2="199.4" y2="94.5"/>
<line class="st2" x1="199.4" y1="94.5" x2="305.9" y2="94.5"/>
<line class="st2" x1="305.9" y1="94.5" x2="405.9" y2="94.5"/>
<line class="st2" x1="405.9" y1="94.5" x2="516.4" y2="94.5"/>
<line class="st2" x1="516.4" y1="94.5" x2="595.3" y2="94.5"/>
<line class="st2" x1="0" y1="116.2" x2="199.4" y2="116.2"/>
<line class="st2" x1="199.4" y1="116.2" x2="305.9" y2="116.2"/>
<line class="st2" x1="305.9" y1="116.2" x2="405.9" y2="116.2"/>
<line class="st2" x1="405.9" y1="116.2" x2="516.4" y2="116.2"/>
<line class="st2" x1="516.4" y1="116.2" x2="595.3" y2="116.2"/>
<line class="st3" x1="0" y1="137.9" x2="199.4" y2="137.9"/>
<line class="st3" x1="199.4" y1="137.9" x2="305.9" y2="137.9"/>
<line class="st3" x1="305.9" y1="137.9" x2="405.9" y2="137.9"/>
<line class="st3" x1="405.9" y1="137.9" x2="516.4" y2="137.9"/>
<line class="st3" x1="516.4" y1="137.9" x2="595.3" y2="137.9"/>
<g>
	<path class="st4" d="M3.7,39.4l0.7-0.9c0.5,0.5,1.2,0.9,2.2,0.9S8,38.9,8,38.5c0-1.4-4-0.5-4-3.1c0-1.1,1-2,2.5-2
		c1.1,0,1.9,0.3,2.6,1l-0.7,0.9c-0.5-0.5-1.3-0.8-2-0.8s-1.2,0.3-1.2,0.8c0,1.3,4,0.5,4,3c0,1.1-0.8,2.1-2.6,2.1
		C5.2,40.5,4.3,40.1,3.7,39.4z"/>
	<path class="st4" d="M16.2,40.4v-3.2c0-0.5-0.2-0.9-0.8-0.9c-0.5,0-0.9,0.3-1.1,0.7v3.5h-1.1v-3.2c0-0.5-0.2-0.9-0.8-0.9
		c-0.5,0-0.9,0.3-1.1,0.7v3.4h-1.1v-4.9h1.1v0.7c0.2-0.3,0.9-0.8,1.6-0.8c0.7,0,1.2,0.4,1.3,0.9c0.3-0.5,0.9-0.9,1.7-0.9
		c0.9,0,1.4,0.5,1.4,1.5v3.6h-1.1V40.4z"/>
	<path class="st4" d="M18.4,37.9c0-1.4,1-2.6,2.5-2.6s2.4,1.1,2.4,2.7v0.3h-3.8c0.1,0.7,0.6,1.4,1.6,1.4c0.5,0,1.1-0.2,1.4-0.5
		l0.5,0.7c-0.5,0.5-1.2,0.7-2,0.7C19.5,40.5,18.4,39.5,18.4,37.9z M20.9,36.2c-0.9,0-1.3,0.7-1.4,1.3h2.8
		C22.3,37,21.9,36.2,20.9,36.2z"/>
	<path class="st4" d="M24.4,40.4v-6.8h1.1v6.8H24.4z"/>
	<path class="st4" d="M27.1,39.3v-2.9h-0.8v-0.9h0.8v-1.3h1.1v1.3h1v0.9h-1V39c0,0.3,0.2,0.6,0.5,0.6c0.2,0,0.4-0.1,0.5-0.2l0.3,0.8
		c-0.2,0.2-0.5,0.3-1,0.3C27.5,40.5,27.1,40.1,27.1,39.3z"/>
	<path class="st4" d="M29.8,37.9c0-1.4,1-2.6,2.5-2.6s2.4,1.1,2.4,2.7v0.3h-3.8c0.1,0.7,0.6,1.4,1.6,1.4c0.5,0,1.1-0.2,1.4-0.5
		l0.5,0.7c-0.5,0.5-1.2,0.7-2,0.7C30.9,40.5,29.8,39.5,29.8,37.9z M32.3,36.2c-0.9,0-1.3,0.7-1.4,1.3h2.8
		C33.7,37,33.3,36.2,32.3,36.2z"/>
	<path class="st4" d="M35.8,40.4v-4.9h1.1v0.7c0.4-0.5,1-0.8,1.6-0.8v1.1c-0.1,0-0.2,0-0.3,0c-0.4,0-1.1,0.3-1.3,0.7v3.4h-1.1V40.4z
		"/>
	<path class="st4" d="M38.9,39.8l0.5-0.8c0.3,0.4,1,0.7,1.7,0.7s1-0.3,1-0.7c0-1-3-0.3-3-2.2c0-0.8,0.7-1.5,1.9-1.5
		c0.8,0,1.5,0.3,1.9,0.7l-0.4,0.8c-0.3-0.3-0.8-0.6-1.5-0.6c-0.6,0-0.9,0.3-0.9,0.6c0,0.9,3,0.2,3,2.2c0,0.9-0.7,1.5-2.1,1.5
		C40.2,40.5,39.4,40.3,38.9,39.8z"/>
</g>
<g>
	<path class="st4" d="M380.1,15.4l-2.4-3l-0.6,0.7v2.3h-1.3V8.2h1.3v3.4l2.8-3.4h1.6l-2.9,3.4l3.1,3.8
		C381.7,15.4,380.1,15.4,380.1,15.4z"/>
	<path class="st4" d="M381.8,12.7c0-1.5,1.1-2.7,2.7-2.7s2.6,1.2,2.6,2.8v0.3h-4c0.1,0.8,0.7,1.4,1.7,1.4c0.5,0,1.1-0.2,1.5-0.6
		l0.5,0.7c-0.5,0.5-1.3,0.8-2.1,0.8C383,15.5,381.8,14.4,381.8,12.7z M384.4,10.9c-1,0-1.4,0.7-1.5,1.4h2.9
		C385.9,11.7,385.5,10.9,384.4,10.9z"/>
	<path class="st4" d="M388.1,16.4c0.1,0.1,0.3,0.1,0.4,0.1c0.4,0,0.6-0.1,0.7-0.5l0.3-0.6l-2.1-5.3h1.2l1.5,3.9l1.5-3.9h1.2
		l-2.5,6.2c-0.4,0.9-1,1.2-1.8,1.2c-0.2,0-0.5,0-0.6-0.1L388.1,16.4z"/>
	<path class="st4" d="M395.9,14.3l0.7-1c0.5,0.5,1.3,1,2.3,1s1.4-0.5,1.4-1c0-1.5-4.2-0.6-4.2-3.2c0-1.2,1-2.1,2.6-2.1
		c1.1,0,2,0.4,2.7,1l-0.7,0.9c-0.6-0.6-1.3-0.8-2.1-0.8c-0.7,0-1.2,0.4-1.2,0.9c0,1.3,4.2,0.5,4.2,3.2c0,1.2-0.8,2.2-2.8,2.2
		C397.5,15.5,396.6,15,395.9,14.3z"/>
	<path class="st4" d="M402.9,14.2v-3H402v-1h0.9V8.7h1.1v1.4h1.1v1H404v2.7c0,0.4,0.2,0.6,0.5,0.6c0.2,0,0.4-0.1,0.5-0.2l0.3,0.9
		c-0.2,0.2-0.5,0.3-1.1,0.3C403.3,15.5,402.9,15,402.9,14.2z"/>
	<path class="st4" d="M409.3,15.4v-0.6c-0.4,0.4-1,0.7-1.7,0.7c-0.9,0-1.8-0.6-1.8-1.7c0-1.2,1-1.7,1.8-1.7c0.7,0,1.3,0.2,1.7,0.7
		V12c0-0.6-0.5-1-1.2-1c-0.6,0-1.1,0.2-1.5,0.7l-0.5-0.8c0.6-0.6,1.4-0.8,2.2-0.8c1.2,0,2.2,0.5,2.2,1.9v3.5L409.3,15.4L409.3,15.4z
		 M409.3,14.2v-0.8c-0.3-0.4-0.7-0.5-1.2-0.5c-0.6,0-1.1,0.4-1.1,0.9c0,0.6,0.5,0.9,1.1,0.9C408.5,14.7,409,14.5,409.3,14.2z"/>
	<path class="st4" d="M412.1,14.2v-3h-0.9v-1h0.9V8.7h1.1v1.4h1.1v1h-1.1v2.7c0,0.4,0.2,0.6,0.5,0.6c0.2,0,0.4-0.1,0.5-0.2l0.3,0.9
		c-0.2,0.2-0.5,0.3-1.1,0.3C412.6,15.5,412.1,15,412.1,14.2z"/>
	<path class="st4" d="M414.9,14.7l0.5-0.8c0.4,0.4,1.1,0.7,1.8,0.7s1-0.3,1-0.7c0-1-3.2-0.3-3.2-2.3c0-0.9,0.7-1.6,2.1-1.6
		c0.9,0,1.6,0.3,2,0.7l-0.5,0.8c-0.3-0.4-0.9-0.6-1.5-0.6s-1,0.3-1,0.6c0,0.9,3.2,0.2,3.2,2.3c0,0.9-0.8,1.6-2.2,1.6
		C416.2,15.5,415.4,15.2,414.9,14.7z"/>
</g>
<g>
	<path class="st4" d="M223.8,37.1v-6.8h3c1.4,0,2.2,1,2.2,2.1s-0.8,2.1-2.2,2.1H225V37h-1.2V37.1z M227.8,32.4
		c0-0.7-0.5-1.1-1.2-1.1H225v2.2h1.6C227.3,33.5,227.8,33,227.8,32.4z"/>
	<path class="st4" d="M230,38c0.1,0.1,0.3,0.1,0.4,0.1c0.3,0,0.6-0.1,0.7-0.4l0.2-0.6l-2-5h1.1l1.4,3.7l1.4-3.7h1.2l-2.4,5.8
		c-0.3,0.8-0.9,1.1-1.7,1.1c-0.2,0-0.4,0-0.6-0.1L230,38z"/>
	<path class="st4" d="M235.2,37.1v-4.9h1.1v0.7c0.4-0.5,1-0.8,1.6-0.8v1.1c-0.1,0-0.2,0-0.3,0c-0.4,0-1.1,0.3-1.3,0.7v3.4h-1.1V37.1
		z"/>
	<path class="st4" d="M238.4,34.6c0-1.4,1-2.6,2.5-2.6c1.6,0,2.5,1.2,2.5,2.6s-1,2.6-2.5,2.6C239.4,37.2,238.4,36,238.4,34.6z
		 M242.4,34.6c0-0.9-0.5-1.6-1.4-1.6s-1.4,0.8-1.4,1.6c0,0.9,0.5,1.6,1.4,1.6C241.9,36.2,242.4,35.5,242.4,34.6z"/>
	<path class="st4" d="M250.6,37.1v-3.2c0-0.5-0.2-0.9-0.8-0.9c-0.5,0-0.9,0.3-1.1,0.7v3.5h-1.1V34c0-0.5-0.2-0.9-0.8-0.9
		c-0.5,0-0.9,0.3-1.1,0.7v3.4h-1.1v-4.9h1.1V33c0.2-0.3,0.9-0.8,1.6-0.8c0.7,0,1.2,0.4,1.3,0.9c0.3-0.5,0.9-0.9,1.7-0.9
		c0.9,0,1.4,0.5,1.4,1.5v3.6h-1.1V37.1z"/>
	<path class="st4" d="M252.8,34.6c0-1.4,1-2.6,2.5-2.6c1.5,0,2.4,1.1,2.4,2.7V35h-3.8c0.1,0.7,0.6,1.4,1.6,1.4
		c0.5,0,1.1-0.2,1.4-0.5l0.5,0.7c-0.5,0.5-1.2,0.7-2,0.7C253.9,37.2,252.8,36.2,252.8,34.6z M255.3,32.9c-0.9,0-1.3,0.7-1.4,1.3h2.8
		C256.6,33.6,256.2,32.9,255.3,32.9z"/>
	<path class="st4" d="M259,35.9V33h-0.8v-0.9h0.8v-1.3h1.1v1.3h1V33h-1v2.6c0,0.3,0.2,0.6,0.5,0.6c0.2,0,0.4-0.1,0.5-0.2l0.3,0.8
		c-0.2,0.2-0.5,0.3-1,0.3C259.4,37.2,259,36.7,259,35.9z"/>
	<path class="st4" d="M265,37.1v-0.5c-0.4,0.4-0.9,0.7-1.6,0.7c-0.8,0-1.7-0.5-1.7-1.6s0.9-1.6,1.7-1.6c0.7,0,1.2,0.2,1.6,0.6V34
		c0-0.6-0.5-0.9-1.2-0.9c-0.6,0-1,0.2-1.5,0.6l-0.4-0.7c0.6-0.5,1.3-0.8,2.1-0.8c1.1,0,2.1,0.5,2.1,1.8v3.3H265V37.1z M265,35.9
		v-0.7c-0.2-0.3-0.7-0.5-1.2-0.5c-0.6,0-1.1,0.3-1.1,0.9c0,0.5,0.4,0.9,1.1,0.9C264.3,36.5,264.8,36.3,265,35.9z"/>
	<path class="st4" d="M267.5,37.1v-6.8h1.1v6.8H267.5z"/>
	<path class="st4" d="M270,37.1v-6.8h1.1v6.8H270z"/>
	<path class="st4" d="M275.8,37.1v-0.7c-0.4,0.4-1,0.8-1.7,0.8c-1.1,0-1.6-0.6-1.6-1.6v-3.5h1.1v3.1c0,0.8,0.4,1,1,1
		c0.5,0,1-0.3,1.3-0.6v-3.5h1.1V37L275.8,37.1L275.8,37.1z"/>
	<path class="st4" d="M278.2,37.1v-4.9h1.1v0.7c0.4-0.5,1-0.8,1.6-0.8v1.1c-0.1,0-0.2,0-0.3,0c-0.4,0-1.1,0.3-1.3,0.7v3.4h-1.1V37.1
		z"/>
	<path class="st4" d="M281.7,38.3l0.5-0.8c0.4,0.5,0.9,0.6,1.6,0.6s1.5-0.3,1.5-1.3v-0.6c-0.4,0.5-0.9,0.8-1.6,0.8
		c-1.3,0-2.2-0.9-2.2-2.5s0.9-2.5,2.2-2.5c0.6,0,1.2,0.3,1.6,0.8v-0.7h1.1v4.7c0,1.8-1.3,2.3-2.5,2.3
		C282.9,39.1,282.3,38.9,281.7,38.3z M285.2,35.5v-1.8c-0.2-0.4-0.8-0.7-1.3-0.7c-0.8,0-1.4,0.6-1.4,1.6s0.5,1.6,1.4,1.6
		C284.5,36.1,285,35.8,285.2,35.5z"/>
	<path class="st4" d="M287.6,30.9c0-0.4,0.3-0.7,0.7-0.7c0.4,0,0.7,0.3,0.7,0.7c0,0.4-0.3,0.7-0.7,0.7
		C287.9,31.5,287.6,31.2,287.6,30.9z M287.7,37.1v-4.9h1.1v4.9H287.7z"/>
	<path class="st4" d="M289.9,34.6c0-1.5,1.1-2.6,2.6-2.6c1,0,1.5,0.4,1.9,0.9l-0.7,0.7c-0.3-0.4-0.7-0.6-1.1-0.6
		c-0.9,0-1.5,0.7-1.5,1.6s0.6,1.6,1.5,1.6c0.5,0,0.9-0.2,1.1-0.6l0.7,0.7c-0.3,0.5-0.9,0.9-1.9,0.9
		C290.9,37.2,289.9,36.1,289.9,34.6z"/>
	<path class="st4" d="M298.3,37.1v-0.5c-0.4,0.4-0.9,0.7-1.6,0.7c-0.8,0-1.7-0.5-1.7-1.6s0.9-1.6,1.7-1.6c0.7,0,1.2,0.2,1.6,0.6V34
		c0-0.6-0.5-0.9-1.2-0.9c-0.6,0-1,0.2-1.5,0.6l-0.4-0.7c0.6-0.5,1.3-0.8,2.1-0.8c1.1,0,2.1,0.5,2.1,1.8v3.3h-1.1V37.1z M298.3,35.9
		v-0.7c-0.2-0.3-0.7-0.5-1.2-0.5c-0.6,0-1.1,0.3-1.1,0.9c0,0.5,0.4,0.9,1.1,0.9C297.6,36.5,298,36.3,298.3,35.9z"/>
	<path class="st4" d="M300.7,37.1v-6.8h1.1v6.8H300.7z"/>
</g>
<g>
	<path class="st4" d="M245.7,51.5v-1l3.5-4.8h-3.5v-1.1h5v1l-3.5,4.8h3.6v1.1H245.7z"/>
	<path class="st4" d="M251.8,45.3c0-0.4,0.3-0.7,0.7-0.7s0.7,0.3,0.7,0.7s-0.3,0.7-0.7,0.7C252.2,46,251.8,45.7,251.8,45.3z
		 M252,51.5v-4.9h1.1v4.9H252z"/>
	<path class="st4" d="M257.8,51.5v-3.1c0-0.8-0.4-1-1-1s-1,0.3-1.3,0.7v3.4h-1.1v-4.9h1.1v0.7c0.3-0.4,1-0.8,1.7-0.8
		c1.1,0,1.6,0.6,1.6,1.6v3.5h-1V51.5z"/>
	<path class="st4" d="M259.9,49c0-1.5,1.1-2.6,2.6-2.6c1,0,1.5,0.4,1.9,0.9l-0.7,0.7c-0.3-0.4-0.7-0.6-1.1-0.6
		c-0.9,0-1.5,0.7-1.5,1.6c0,1,0.6,1.6,1.5,1.6c0.5,0,0.9-0.2,1.1-0.6l0.7,0.7c-0.3,0.5-0.9,0.9-1.9,0.9
		C261,51.6,259.9,50.5,259.9,49z"/>
	<path class="st4" d="M267.5,50.5l0.7-0.9c0.5,0.5,1.2,0.9,2.2,0.9s1.4-0.5,1.4-0.9c0-1.4-4-0.5-4-3.1c0-1.1,1-2,2.5-2
		c1.1,0,1.9,0.3,2.6,1l-0.7,0.9c-0.5-0.5-1.3-0.8-2-0.8s-1.2,0.3-1.2,0.8c0,1.3,4,0.5,4,3c0,1.1-0.8,2.1-2.6,2.1
		C269,51.6,268.1,51.2,267.5,50.5z"/>
	<path class="st4" d="M280.1,51.5v-3.2c0-0.5-0.2-0.9-0.8-0.9c-0.5,0-0.9,0.3-1.1,0.7v3.5H277v-3.2c0-0.5-0.2-0.9-0.8-0.9
		c-0.5,0-0.9,0.3-1.1,0.7v3.4H274v-4.9h1.1v0.7c0.2-0.3,0.9-0.8,1.6-0.8s1.2,0.4,1.3,0.9c0.3-0.5,0.9-0.9,1.7-0.9
		c0.9,0,1.4,0.5,1.4,1.5v3.6h-1V51.5z"/>
	<path class="st4" d="M282.2,49c0-1.4,1-2.6,2.5-2.6s2.4,1.1,2.4,2.7v0.3h-3.8c0.1,0.7,0.6,1.4,1.6,1.4c0.5,0,1.1-0.2,1.4-0.5
		l0.5,0.7c-0.5,0.5-1.2,0.7-2,0.7C283.3,51.6,282.2,50.6,282.2,49z M284.7,47.3c-0.9,0-1.3,0.7-1.4,1.3h2.8
		C286.1,48,285.7,47.3,284.7,47.3z"/>
	<path class="st4" d="M288.2,51.5v-6.8h1.1v6.8H288.2z"/>
	<path class="st4" d="M290.9,50.4v-2.9h-0.8v-0.9h0.8v-1.3h1.1v1.3h1v0.9h-1v2.6c0,0.3,0.2,0.6,0.5,0.6c0.2,0,0.4-0.1,0.5-0.2
		l0.3,0.8c-0.2,0.2-0.5,0.3-1,0.3C291.3,51.6,290.9,51.2,290.9,50.4z"/>
	<path class="st4" d="M293.6,49c0-1.4,1-2.6,2.5-2.6s2.4,1.1,2.4,2.7v0.3h-3.8c0.1,0.7,0.6,1.4,1.6,1.4c0.5,0,1.1-0.2,1.4-0.5
		l0.5,0.7c-0.5,0.5-1.2,0.7-2,0.7C294.7,51.6,293.6,50.6,293.6,49z M296.1,47.3c-0.9,0-1.3,0.7-1.4,1.3h2.8
		C297.5,48,297.1,47.3,296.1,47.3z"/>
	<path class="st4" d="M299.6,51.5v-4.9h1.1v0.7c0.4-0.5,1-0.8,1.6-0.8v1.1c-0.1,0-0.2,0-0.3,0c-0.4,0-1.1,0.3-1.3,0.7v3.4h-1.1V51.5
		z"/>
</g>
<g>
	<path class="st4" d="M280.6,68c-1-1.2-1.5-2.9-1.5-4.5s0.6-3.3,1.5-4.5l0.7,0.5c-0.7,1.3-1,2.4-1,4s0.4,2.7,1,4L280.6,68z"/>
	<path class="st4" d="M283.8,65.9v-5.8h-2.1V59h5.3v1.1h-2v5.8H283.8z"/>
	<path class="st4" d="M288.1,65.9v-6.8h3c1.4,0,2.2,1,2.2,2.1s-0.8,2.1-2.2,2.1h-1.8v2.5L288.1,65.9L288.1,65.9z M292.1,61.3
		c0-0.7-0.5-1.1-1.2-1.1h-1.6v2.2h1.6C291.6,62.3,292.1,61.9,292.1,61.3z"/>
	<path class="st4" d="M298.3,65.9l-0.5-1.3h-3.1l-0.5,1.3h-1.4l2.7-6.8h1.5l2.7,6.8H298.3z M296.2,60.3l-1.2,3.3h2.5L296.2,60.3z"/>
	<path class="st4" d="M299.8,67.5c0.7-1.3,1.1-2.4,1.1-4s-0.4-2.8-1.1-4l0.7-0.5c1,1.2,1.6,2.9,1.6,4.5s-0.6,3.3-1.6,4.5L299.8,67.5
		z"/>
</g>
<g>
	<path class="st4" d="M323.8,37.1v-6.8h3c1.4,0,2.2,1,2.2,2.1s-0.8,2.1-2.2,2.1H325V37h-1.2V37.1z M327.8,32.4
		c0-0.7-0.5-1.1-1.2-1.1H325v2.2h1.6C327.4,33.5,327.8,33,327.8,32.4z"/>
	<path class="st4" d="M330,38c0.1,0.1,0.3,0.1,0.4,0.1c0.3,0,0.6-0.1,0.7-0.4l0.2-0.6l-2-5h1.1l1.4,3.7l1.4-3.7h1.2l-2.4,5.8
		c-0.3,0.8-0.9,1.1-1.7,1.1c-0.2,0-0.5,0-0.6-0.1L330,38z"/>
	<path class="st4" d="M335.2,37.1v-4.9h1.1v0.7c0.4-0.5,1-0.8,1.6-0.8v1.1c-0.1,0-0.2,0-0.3,0c-0.4,0-1.1,0.3-1.3,0.7v3.4h-1.1V37.1
		z"/>
	<path class="st4" d="M338.4,34.6c0-1.4,1-2.6,2.5-2.6c1.6,0,2.5,1.2,2.5,2.6s-1,2.6-2.5,2.6C339.4,37.2,338.4,36,338.4,34.6z
		 M342.4,34.6c0-0.9-0.5-1.6-1.4-1.6s-1.4,0.8-1.4,1.6c0,0.9,0.5,1.6,1.4,1.6C341.9,36.2,342.4,35.5,342.4,34.6z"/>
	<path class="st4" d="M350.6,37.1v-3.2c0-0.5-0.2-0.9-0.8-0.9c-0.5,0-0.9,0.3-1.1,0.7v3.5h-1.1V34c0-0.5-0.2-0.9-0.8-0.9
		c-0.5,0-0.9,0.3-1.1,0.7v3.4h-1.1v-4.9h1.1V33c0.2-0.3,0.9-0.8,1.6-0.8s1.2,0.4,1.3,0.9c0.3-0.5,0.9-0.9,1.7-0.9
		c0.9,0,1.4,0.5,1.4,1.5v3.6h-1.1V37.1z"/>
	<path class="st4" d="M352.8,34.6c0-1.4,1-2.6,2.5-2.6s2.4,1.1,2.4,2.7V35h-3.8c0.1,0.7,0.6,1.4,1.6,1.4c0.5,0,1.1-0.2,1.4-0.5
		l0.5,0.7c-0.5,0.5-1.2,0.7-2,0.7C353.9,37.2,352.8,36.2,352.8,34.6z M355.3,32.9c-0.9,0-1.3,0.7-1.4,1.3h2.8
		C356.7,33.6,356.3,32.9,355.3,32.9z"/>
	<path class="st4" d="M359,35.9V33h-0.8v-0.9h0.8v-1.3h1.1v1.3h1V33h-1v2.6c0,0.3,0.2,0.6,0.5,0.6c0.2,0,0.4-0.1,0.5-0.2l0.3,0.8
		c-0.2,0.2-0.5,0.3-1,0.3C359.4,37.2,359,36.7,359,35.9z"/>
	<path class="st4" d="M365.1,37.1v-0.5c-0.4,0.4-0.9,0.7-1.6,0.7c-0.8,0-1.7-0.5-1.7-1.6s0.9-1.6,1.7-1.6c0.7,0,1.2,0.2,1.6,0.6V34
		c0-0.6-0.5-0.9-1.2-0.9c-0.6,0-1,0.2-1.5,0.6L362,33c0.6-0.5,1.3-0.8,2.1-0.8c1.1,0,2.1,0.5,2.1,1.8v3.3h-1.1V37.1z M365.1,35.9
		v-0.7c-0.2-0.3-0.7-0.5-1.2-0.5c-0.6,0-1.1,0.3-1.1,0.9c0,0.5,0.5,0.9,1.1,0.9C364.4,36.5,364.8,36.3,365.1,35.9z"/>
	<path class="st4" d="M367.5,37.1v-6.8h1.1v6.8H367.5z"/>
	<path class="st4" d="M370,37.1v-6.8h1.1v6.8H370z"/>
	<path class="st4" d="M375.8,37.1v-0.7c-0.4,0.4-1,0.8-1.7,0.8c-1.1,0-1.6-0.6-1.6-1.6v-3.5h1.1v3.1c0,0.8,0.4,1,1,1
		c0.5,0,1-0.3,1.3-0.6v-3.5h1.1V37L375.8,37.1L375.8,37.1z"/>
	<path class="st4" d="M378.2,37.1v-4.9h1.1v0.7c0.4-0.5,1-0.8,1.6-0.8v1.1c-0.1,0-0.2,0-0.3,0c-0.4,0-1.1,0.3-1.3,0.7v3.4h-1.1V37.1
		z"/>
	<path class="st4" d="M381.7,38.3l0.5-0.8c0.4,0.5,0.9,0.6,1.6,0.6s1.5-0.3,1.5-1.3v-0.6c-0.4,0.5-0.9,0.8-1.6,0.8
		c-1.3,0-2.2-0.9-2.2-2.5s0.9-2.5,2.2-2.5c0.6,0,1.2,0.3,1.6,0.8v-0.7h1.1v4.7c0,1.8-1.3,2.3-2.5,2.3
		C383,39.1,382.3,38.9,381.7,38.3z M385.3,35.5v-1.8c-0.2-0.4-0.8-0.7-1.3-0.7c-0.8,0-1.4,0.6-1.4,1.6s0.5,1.6,1.4,1.6
		C384.5,36.1,385,35.8,385.3,35.5z"/>
	<path class="st4" d="M387.6,30.9c0-0.4,0.3-0.7,0.7-0.7c0.4,0,0.7,0.3,0.7,0.7c0,0.4-0.3,0.7-0.7,0.7
		C387.9,31.5,387.6,31.2,387.6,30.9z M387.7,37.1v-4.9h1.1v4.9H387.7z"/>
	<path class="st4" d="M389.9,34.6c0-1.5,1.1-2.6,2.6-2.6c1,0,1.5,0.4,1.9,0.9l-0.7,0.7c-0.3-0.4-0.7-0.6-1.1-0.6
		c-0.9,0-1.5,0.7-1.5,1.6s0.6,1.6,1.5,1.6c0.5,0,0.9-0.2,1.1-0.6l0.7,0.7c-0.3,0.5-0.9,0.9-1.9,0.9
		C390.9,37.2,389.9,36.1,389.9,34.6z"/>
	<path class="st4" d="M398.3,37.1v-0.5c-0.4,0.4-0.9,0.7-1.6,0.7c-0.8,0-1.7-0.5-1.7-1.6s0.9-1.6,1.7-1.6c0.7,0,1.2,0.2,1.6,0.6V34
		c0-0.6-0.5-0.9-1.2-0.9c-0.6,0-1,0.2-1.5,0.6l-0.4-0.7c0.6-0.5,1.3-0.8,2.1-0.8c1.1,0,2.1,0.5,2.1,1.8v3.3h-1.1V37.1z M398.3,35.9
		v-0.7c-0.2-0.3-0.7-0.5-1.2-0.5c-0.6,0-1.1,0.3-1.1,0.9c0,0.5,0.5,0.9,1.1,0.9C397.6,36.5,398,36.3,398.3,35.9z"/>
	<path class="st4" d="M400.7,37.1v-6.8h1.1v6.8H400.7z"/>
</g>
<g>
	<path class="st4" d="M343.1,51.5v-6.8h1.2v5.8h3v1.1L343.1,51.5L343.1,51.5z"/>
	<path class="st4" d="M347.9,49c0-1.4,1-2.6,2.5-2.6s2.4,1.1,2.4,2.7v0.3H349c0.1,0.7,0.6,1.4,1.6,1.4c0.5,0,1.1-0.2,1.4-0.5
		l0.5,0.7c-0.5,0.5-1.2,0.7-2,0.7C349,51.6,347.9,50.6,347.9,49z M350.4,47.3c-0.9,0-1.3,0.7-1.4,1.3h2.8
		C351.8,48,351.4,47.3,350.4,47.3z"/>
	<path class="st4" d="M356.9,51.5V51c-0.4,0.4-0.9,0.7-1.6,0.7c-0.8,0-1.7-0.5-1.7-1.6s0.9-1.6,1.7-1.6c0.7,0,1.2,0.2,1.6,0.6v-0.7
		c0-0.6-0.5-0.9-1.2-0.9c-0.6,0-1,0.2-1.5,0.6l-0.4-0.7c0.6-0.5,1.3-0.8,2.1-0.8c1.1,0,2.1,0.5,2.1,1.8v3.3h-1.1V51.5z M356.9,50.4
		v-0.7c-0.2-0.3-0.7-0.5-1.2-0.5c-0.6,0-1.1,0.3-1.1,0.9c0,0.5,0.5,0.9,1.1,0.9C356.2,50.9,356.7,50.7,356.9,50.4z"/>
	<path class="st4" d="M362.9,51.5v-0.7c-0.4,0.5-1,0.8-1.6,0.8c-1.3,0-2.2-1-2.2-2.6s0.9-2.6,2.2-2.6c0.6,0,1.2,0.3,1.6,0.8v-2.6
		h1.1v6.8L362.9,51.5L362.9,51.5z M362.9,50v-2c-0.2-0.4-0.8-0.7-1.3-0.7c-0.8,0-1.4,0.7-1.4,1.6c0,1,0.5,1.6,1.4,1.6
		C362.1,50.7,362.6,50.4,362.9,50z"/>
	<path class="st4" d="M367.6,50.5l0.7-0.9c0.5,0.5,1.2,0.9,2.2,0.9s1.4-0.5,1.4-0.9c0-1.4-4-0.5-4-3.1c0-1.1,1-2,2.5-2
		c1.1,0,1.9,0.3,2.6,1l-0.7,0.9c-0.5-0.5-1.3-0.8-2-0.8s-1.2,0.3-1.2,0.8c0,1.3,4,0.5,4,3c0,1.1-0.8,2.1-2.6,2.1
		C369.1,51.6,368.2,51.2,367.6,50.5z"/>
	<path class="st4" d="M380.1,51.5v-3.2c0-0.5-0.2-0.9-0.8-0.9c-0.5,0-0.9,0.3-1.1,0.7v3.5h-1.1v-3.2c0-0.5-0.2-0.9-0.8-0.9
		c-0.5,0-0.9,0.3-1.1,0.7v3.4H374v-4.9h1.1v0.7c0.2-0.3,0.9-0.8,1.6-0.8s1.2,0.4,1.3,0.9c0.3-0.5,0.9-0.9,1.7-0.9
		c0.9,0,1.4,0.5,1.4,1.5v3.6h-1V51.5z"/>
	<path class="st4" d="M382.2,49c0-1.4,1-2.6,2.5-2.6s2.4,1.1,2.4,2.7v0.3h-3.8c0.1,0.7,0.6,1.4,1.6,1.4c0.5,0,1.1-0.2,1.4-0.5
		l0.5,0.7c-0.5,0.5-1.2,0.7-2,0.7C383.3,51.6,382.2,50.6,382.2,49z M384.7,47.3c-0.9,0-1.3,0.7-1.4,1.3h2.8
		C386.1,48,385.7,47.3,384.7,47.3z"/>
	<path class="st4" d="M388.2,51.5v-6.8h1.1v6.8H388.2z"/>
	<path class="st4" d="M390.9,50.4v-2.9h-0.8v-0.9h0.8v-1.3h1.1v1.3h1v0.9h-1v2.6c0,0.3,0.2,0.6,0.5,0.6c0.2,0,0.4-0.1,0.5-0.2
		l0.3,0.8c-0.2,0.2-0.5,0.3-1,0.3C391.4,51.6,390.9,51.2,390.9,50.4z"/>
	<path class="st4" d="M393.7,49c0-1.4,1-2.6,2.5-2.6s2.4,1.1,2.4,2.7v0.3h-3.8c0.1,0.7,0.6,1.4,1.6,1.4c0.5,0,1.1-0.2,1.4-0.5
		l0.5,0.7c-0.5,0.5-1.2,0.7-2,0.7C394.8,51.6,393.7,50.6,393.7,49z M396.2,47.3c-0.9,0-1.3,0.7-1.4,1.3h2.8
		C397.5,48,397.1,47.3,396.2,47.3z"/>
	<path class="st4" d="M399.7,51.5v-4.9h1.1v0.7c0.4-0.5,1-0.8,1.6-0.8v1.1c-0.1,0-0.2,0-0.3,0c-0.4,0-1.1,0.3-1.3,0.7v3.4h-1.1V51.5
		z"/>
</g>
<g>
	<path class="st4" d="M380.6,68c-1-1.2-1.5-2.9-1.5-4.5s0.6-3.3,1.5-4.5l0.7,0.5c-0.7,1.3-1,2.4-1,4s0.4,2.7,1,4L380.6,68z"/>
	<path class="st4" d="M383.8,65.9v-5.8h-2.1V59h5.3v1.1h-2v5.8H383.8z"/>
	<path class="st4" d="M388.1,65.9v-6.8h3c1.4,0,2.2,1,2.2,2.1s-0.8,2.1-2.2,2.1h-1.8v2.5L388.1,65.9L388.1,65.9z M392.1,61.3
		c0-0.7-0.5-1.1-1.2-1.1h-1.6v2.2h1.6C391.6,62.3,392.1,61.9,392.1,61.3z"/>
	<path class="st4" d="M398.3,65.9l-0.5-1.3h-3.1l-0.5,1.3h-1.4l2.7-6.8h1.5l2.7,6.8H398.3z M396.2,60.3l-1.2,3.3h2.5L396.2,60.3z"/>
	<path class="st4" d="M399.9,67.5c0.7-1.3,1.1-2.4,1.1-4s-0.4-2.8-1.1-4l0.7-0.5c1,1.2,1.6,2.9,1.6,4.5s-0.6,3.3-1.6,4.5L399.9,67.5
		z"/>
</g>
<g>
	<path class="st4" d="M431.9,37.1v-3h-3.5v3h-1.2v-6.8h1.2V33h3.5v-2.8h1.2V37L431.9,37.1L431.9,37.1z"/>
	<path class="st4" d="M434.5,38c0.1,0.1,0.3,0.1,0.4,0.1c0.3,0,0.6-0.1,0.7-0.4l0.2-0.6l-2-5h1.1l1.4,3.7l1.4-3.7h1.2l-2.4,5.8
		c-0.3,0.8-0.9,1.1-1.7,1.1c-0.2,0-0.5,0-0.6-0.1L434.5,38z"/>
	<path class="st4" d="M443.2,37.1v-0.7c-0.4,0.5-1,0.8-1.6,0.8c-1.3,0-2.2-1-2.2-2.6s0.9-2.6,2.2-2.6c0.6,0,1.2,0.3,1.6,0.8v-2.6
		h1.1V37L443.2,37.1L443.2,37.1z M443.2,35.6v-2c-0.2-0.4-0.8-0.7-1.3-0.7c-0.8,0-1.4,0.7-1.4,1.6c0,1,0.5,1.6,1.4,1.6
		C442.4,36.2,442.9,36,443.2,35.6z"/>
	<path class="st4" d="M445.6,37.1v-4.9h1.1v0.7c0.4-0.5,1-0.8,1.6-0.8v1.1c-0.1,0-0.2,0-0.3,0c-0.4,0-1.1,0.3-1.3,0.7v3.4h-1.1V37.1
		z"/>
	<path class="st4" d="M448.9,34.6c0-1.4,1-2.6,2.5-2.6c1.6,0,2.5,1.2,2.5,2.6s-1,2.6-2.5,2.6C449.8,37.2,448.9,36,448.9,34.6z
		 M452.8,34.6c0-0.9-0.5-1.6-1.4-1.6s-1.4,0.8-1.4,1.6c0,0.9,0.5,1.6,1.4,1.6C452.3,36.2,452.8,35.5,452.8,34.6z"/>
	<path class="st4" d="M461.1,37.1v-3.2c0-0.5-0.2-0.9-0.8-0.9c-0.5,0-0.9,0.3-1.1,0.7v3.5h-1.1V34c0-0.5-0.2-0.9-0.8-0.9
		c-0.5,0-0.9,0.3-1.1,0.7v3.4H455v-4.9h1.1V33c0.2-0.3,0.9-0.8,1.6-0.8s1.2,0.4,1.3,0.9c0.3-0.5,0.9-0.9,1.7-0.9
		c0.9,0,1.4,0.5,1.4,1.5v3.6h-1V37.1z"/>
	<path class="st4" d="M463.2,34.6c0-1.4,1-2.6,2.5-2.6s2.4,1.1,2.4,2.7V35h-3.8c0.1,0.7,0.6,1.4,1.6,1.4c0.5,0,1.1-0.2,1.4-0.5
		l0.5,0.7c-0.5,0.5-1.2,0.7-2,0.7C464.3,37.2,463.2,36.2,463.2,34.6z M465.7,32.9c-0.9,0-1.3,0.7-1.4,1.3h2.8
		C467.1,33.6,466.7,32.9,465.7,32.9z"/>
	<path class="st4" d="M469.4,35.9V33h-0.8v-0.9h0.8v-1.3h1.1v1.3h1V33h-1v2.6c0,0.3,0.2,0.6,0.5,0.6c0.2,0,0.4-0.1,0.5-0.2l0.3,0.8
		c-0.2,0.2-0.5,0.3-1,0.3C469.9,37.2,469.4,36.7,469.4,35.9z"/>
	<path class="st4" d="M475.5,37.1v-0.5c-0.4,0.4-0.9,0.7-1.6,0.7c-0.8,0-1.7-0.5-1.7-1.6s0.9-1.6,1.7-1.6c0.7,0,1.2,0.2,1.6,0.6V34
		c0-0.6-0.5-0.9-1.2-0.9c-0.6,0-1,0.2-1.5,0.6l-0.4-0.7c0.6-0.5,1.3-0.8,2.1-0.8c1.1,0,2.1,0.5,2.1,1.8v3.3h-1.1V37.1z M475.5,35.9
		v-0.7c-0.2-0.3-0.7-0.5-1.2-0.5c-0.6,0-1.1,0.3-1.1,0.9c0,0.5,0.5,0.9,1.1,0.9C474.8,36.5,475.3,36.3,475.5,35.9z"/>
	<path class="st4" d="M478,37.1v-6.8h1.1v6.8H478z"/>
	<path class="st4" d="M480.4,37.1v-6.8h1.1v6.8H480.4z"/>
	<path class="st4" d="M486.2,37.1v-0.7c-0.4,0.4-1,0.8-1.7,0.8c-1.1,0-1.6-0.6-1.6-1.6v-3.5h1.1v3.1c0,0.8,0.4,1,1,1
		c0.5,0,1-0.3,1.3-0.6v-3.5h1.1V37L486.2,37.1L486.2,37.1z"/>
	<path class="st4" d="M488.7,37.1v-4.9h1.1v0.7c0.4-0.5,1-0.8,1.6-0.8v1.1c-0.1,0-0.2,0-0.3,0c-0.4,0-1.1,0.3-1.3,0.7v3.4h-1.1V37.1
		z"/>
	<path class="st4" d="M492.2,38.3l0.5-0.8c0.4,0.5,0.9,0.6,1.6,0.6s1.5-0.3,1.5-1.3v-0.6c-0.4,0.5-0.9,0.8-1.6,0.8
		c-1.3,0-2.2-0.9-2.2-2.5s0.9-2.5,2.2-2.5c0.6,0,1.2,0.3,1.6,0.8v-0.7h1.1v4.7c0,1.8-1.3,2.3-2.5,2.3
		C493.4,39.1,492.8,38.9,492.2,38.3z M495.7,35.5v-1.8c-0.2-0.4-0.8-0.7-1.3-0.7c-0.8,0-1.4,0.6-1.4,1.6s0.5,1.6,1.4,1.6
		C494.9,36.1,495.5,35.8,495.7,35.5z"/>
	<path class="st4" d="M498,30.9c0-0.4,0.3-0.7,0.7-0.7c0.4,0,0.7,0.3,0.7,0.7c0,0.4-0.3,0.7-0.7,0.7C498.3,31.5,498,31.2,498,30.9z
		 M498.2,37.1v-4.9h1.1v4.9H498.2z"/>
	<path class="st4" d="M500.3,34.6c0-1.5,1.1-2.6,2.6-2.6c1,0,1.5,0.4,1.9,0.9l-0.7,0.7c-0.3-0.4-0.7-0.6-1.1-0.6
		c-0.9,0-1.5,0.7-1.5,1.6s0.6,1.6,1.5,1.6c0.5,0,0.9-0.2,1.1-0.6l0.7,0.7c-0.3,0.5-0.9,0.9-1.9,0.9
		C501.4,37.2,500.3,36.1,500.3,34.6z"/>
	<path class="st4" d="M508.7,37.1v-0.5c-0.4,0.4-0.9,0.7-1.6,0.7c-0.8,0-1.7-0.5-1.7-1.6s0.9-1.6,1.7-1.6c0.7,0,1.2,0.2,1.6,0.6V34
		c0-0.6-0.5-0.9-1.2-0.9c-0.6,0-1,0.2-1.5,0.6l-0.4-0.7c0.6-0.5,1.3-0.8,2.1-0.8c1.1,0,2.1,0.5,2.1,1.8v3.3h-1.1V37.1z M508.7,35.9
		v-0.7c-0.2-0.3-0.7-0.5-1.2-0.5c-0.6,0-1.1,0.3-1.1,0.9c0,0.5,0.5,0.9,1.1,0.9C508,36.5,508.5,36.3,508.7,35.9z"/>
	<path class="st4" d="M511.2,37.1v-6.8h1.1v6.8H511.2z"/>
</g>
<g>
	<path class="st4" d="M456.2,51.5v-1l3.5-4.8h-3.5v-1.1h5v1l-3.5,4.8h3.6v1.1H456.2z"/>
	<path class="st4" d="M462.3,45.3c0-0.4,0.3-0.7,0.7-0.7c0.4,0,0.7,0.3,0.7,0.7S463.4,46,463,46C462.6,46,462.3,45.7,462.3,45.3z
		 M462.4,51.5v-4.9h1.1v4.9H462.4z"/>
	<path class="st4" d="M468.2,51.5v-3.1c0-0.8-0.4-1-1-1s-1,0.3-1.3,0.7v3.4h-1.1v-4.9h1.1v0.7c0.3-0.4,1-0.8,1.7-0.8
		c1.1,0,1.6,0.6,1.6,1.6v3.5h-1V51.5z"/>
	<path class="st4" d="M470.4,49c0-1.5,1.1-2.6,2.6-2.6c1,0,1.5,0.4,1.9,0.9l-0.7,0.7c-0.3-0.4-0.7-0.6-1.1-0.6
		c-0.9,0-1.5,0.7-1.5,1.6c0,1,0.6,1.6,1.5,1.6c0.5,0,0.9-0.2,1.1-0.6l0.7,0.7c-0.3,0.5-0.9,0.9-1.9,0.9
		C471.4,51.6,470.4,50.5,470.4,49z"/>
	<path class="st4" d="M478,50.5l0.7-0.9c0.5,0.5,1.2,0.9,2.2,0.9s1.4-0.5,1.4-0.9c0-1.4-4-0.5-4-3.1c0-1.1,1-2,2.5-2
		c1.1,0,1.9,0.3,2.6,1l-0.7,0.9c-0.5-0.5-1.3-0.8-2-0.8s-1.2,0.3-1.2,0.8c0,1.3,4,0.5,4,3c0,1.1-0.8,2.1-2.6,2.1
		C479.5,51.6,478.6,51.2,478,50.5z"/>
	<path class="st4" d="M490.5,51.5v-3.2c0-0.5-0.2-0.9-0.8-0.9c-0.5,0-0.9,0.3-1.1,0.7v3.5h-1.1v-3.2c0-0.5-0.2-0.9-0.8-0.9
		c-0.5,0-0.9,0.3-1.1,0.7v3.4h-1.1v-4.9h1.1v0.7c0.2-0.3,0.9-0.8,1.6-0.8s1.2,0.4,1.3,0.9c0.3-0.5,0.9-0.9,1.7-0.9
		c0.9,0,1.4,0.5,1.4,1.5v3.6h-1.1V51.5z"/>
	<path class="st4" d="M492.7,49c0-1.4,1-2.6,2.5-2.6s2.4,1.1,2.4,2.7v0.3h-3.8c0.1,0.7,0.6,1.4,1.6,1.4c0.5,0,1.1-0.2,1.4-0.5
		l0.5,0.7c-0.5,0.5-1.2,0.7-2,0.7C493.8,51.6,492.7,50.6,492.7,49z M495.2,47.3c-0.9,0-1.3,0.7-1.4,1.3h2.8
		C496.6,48,496.2,47.3,495.2,47.3z"/>
	<path class="st4" d="M498.7,51.5v-6.8h1.1v6.8H498.7z"/>
	<path class="st4" d="M501.4,50.4v-2.9h-0.8v-0.9h0.8v-1.3h1.1v1.3h1v0.9h-1v2.6c0,0.3,0.2,0.6,0.5,0.6c0.2,0,0.4-0.1,0.5-0.2
		l0.3,0.8c-0.2,0.2-0.5,0.3-1,0.3C501.8,51.6,501.4,51.2,501.4,50.4z"/>
	<path class="st4" d="M504.1,49c0-1.4,1-2.6,2.5-2.6s2.4,1.1,2.4,2.7v0.3h-3.8c0.1,0.7,0.6,1.4,1.6,1.4c0.5,0,1.1-0.2,1.4-0.5
		l0.5,0.7c-0.5,0.5-1.2,0.7-2,0.7C505.2,51.6,504.1,50.6,504.1,49z M506.6,47.3c-0.9,0-1.3,0.7-1.4,1.3h2.8
		C508,48,507.6,47.3,506.6,47.3z"/>
	<path class="st4" d="M510.1,51.5v-4.9h1.1v0.7c0.4-0.5,1-0.8,1.6-0.8v1.1c-0.1,0-0.2,0-0.3,0c-0.4,0-1.1,0.3-1.3,0.7v3.4h-1.1V51.5
		z"/>
</g>
<g>
	<path class="st4" d="M491.1,68c-1-1.2-1.5-2.9-1.5-4.5s0.6-3.3,1.5-4.5l0.7,0.5c-0.7,1.3-1,2.4-1,4s0.4,2.7,1,4L491.1,68z"/>
	<path class="st4" d="M494.3,65.9v-5.8h-2.1V59h5.3v1.1h-2.1v5.8H494.3z"/>
	<path class="st4" d="M498.5,65.9v-6.8h3c1.4,0,2.2,1,2.2,2.1s-0.8,2.1-2.2,2.1h-1.8v2.5L498.5,65.9L498.5,65.9z M502.5,61.3
		c0-0.7-0.5-1.1-1.2-1.1h-1.6v2.2h1.6C502,62.3,502.5,61.9,502.5,61.3z"/>
	<path class="st4" d="M508.8,65.9l-0.5-1.3h-3.1l-0.5,1.3h-1.4l2.7-6.8h1.5l2.7,6.8H508.8z M506.7,60.3l-1.2,3.3h2.5L506.7,60.3z"/>
	<path class="st4" d="M510.3,67.5c0.7-1.3,1.1-2.4,1.1-4s-0.4-2.8-1.1-4L511,59c1,1.2,1.6,2.9,1.6,4.5S512,66.8,511,68L510.3,67.5z"
		/>
</g>
<g>
	<path class="st4" d="M532.5,37.1v-6.8h1.2V36h3v1.1H532.5z"/>
	<path class="st4" d="M537.3,34.6c0-1.4,1-2.6,2.5-2.6s2.4,1.1,2.4,2.7V35h-3.8c0.1,0.7,0.6,1.4,1.6,1.4c0.5,0,1.1-0.2,1.4-0.5
		l0.5,0.7c-0.5,0.5-1.2,0.7-2,0.7C538.4,37.2,537.3,36.2,537.3,34.6z M539.8,32.9c-0.9,0-1.3,0.7-1.4,1.3h2.8
		C541.2,33.6,540.8,32.9,539.8,32.9z"/>
	<path class="st4" d="M546.3,37.1v-0.5c-0.4,0.4-0.9,0.7-1.6,0.7c-0.8,0-1.7-0.5-1.7-1.6s0.9-1.6,1.7-1.6c0.7,0,1.2,0.2,1.6,0.6V34
		c0-0.6-0.5-0.9-1.2-0.9c-0.6,0-1,0.2-1.5,0.6l-0.4-0.7c0.6-0.5,1.3-0.8,2.1-0.8c1.1,0,2.1,0.5,2.1,1.8v3.3h-1.1V37.1z M546.3,35.9
		v-0.7c-0.2-0.3-0.7-0.5-1.2-0.5c-0.6,0-1.1,0.3-1.1,0.9c0,0.5,0.5,0.9,1.1,0.9C545.6,36.5,546.1,36.3,546.3,35.9z"/>
	<path class="st4" d="M552.2,37.1v-0.7c-0.4,0.5-1,0.8-1.6,0.8c-1.3,0-2.2-1-2.2-2.6s0.9-2.6,2.2-2.6c0.6,0,1.2,0.3,1.6,0.8v-2.6
		h1.1V37L552.2,37.1L552.2,37.1z M552.2,35.6v-2c-0.2-0.4-0.8-0.7-1.3-0.7c-0.8,0-1.4,0.7-1.4,1.6c0,1,0.5,1.6,1.4,1.6
		C551.5,36.2,552,36,552.2,35.6z"/>
	<path class="st4" d="M556.9,36.1l0.7-0.9c0.5,0.5,1.2,0.9,2.2,0.9s1.4-0.5,1.4-0.9c0-1.4-4-0.5-4-3.1c0-1.1,1-2,2.5-2
		c1.1,0,1.9,0.3,2.6,1l-0.7,0.9c-0.5-0.5-1.3-0.8-2-0.8s-1.2,0.3-1.2,0.8c0,1.3,4,0.5,4,3c0,1.1-0.8,2.1-2.6,2.1
		C558.4,37.2,557.5,36.8,556.9,36.1z"/>
	<path class="st4" d="M569.5,37.1v-3.2c0-0.5-0.2-0.9-0.8-0.9c-0.5,0-0.9,0.3-1.1,0.7v3.5h-1.1V34c0-0.5-0.2-0.9-0.8-0.9
		c-0.5,0-0.9,0.3-1.1,0.7v3.4h-1.1v-4.9h1.1V33c0.2-0.3,0.9-0.8,1.6-0.8c0.7,0,1.2,0.4,1.3,0.9c0.3-0.5,0.9-0.9,1.7-0.9
		c0.9,0,1.4,0.5,1.4,1.5v3.6h-1.1V37.1z"/>
	<path class="st4" d="M571.6,34.6c0-1.4,1-2.6,2.5-2.6s2.4,1.1,2.4,2.7V35h-3.8c0.1,0.7,0.6,1.4,1.6,1.4c0.5,0,1.1-0.2,1.4-0.5
		l0.5,0.7c-0.5,0.5-1.2,0.7-2,0.7C572.7,37.2,571.6,36.2,571.6,34.6z M574.1,32.9c-0.9,0-1.3,0.7-1.4,1.3h2.8
		C575.5,33.6,575.1,32.9,574.1,32.9z"/>
	<path class="st4" d="M577.6,37.1v-6.8h1.1v6.8H577.6z"/>
	<path class="st4" d="M580.3,35.9V33h-0.8v-0.9h0.8v-1.3h1.1v1.3h1V33h-1v2.6c0,0.3,0.2,0.6,0.5,0.6c0.2,0,0.4-0.1,0.5-0.2l0.3,0.8
		c-0.2,0.2-0.5,0.3-1,0.3C580.7,37.2,580.3,36.7,580.3,35.9z"/>
	<path class="st4" d="M583,34.6c0-1.4,1-2.6,2.5-2.6s2.4,1.1,2.4,2.7V35h-3.8c0.1,0.7,0.6,1.4,1.6,1.4c0.5,0,1.1-0.2,1.4-0.5
		l0.5,0.7c-0.5,0.5-1.2,0.7-2,0.7C584.1,37.2,583,36.2,583,34.6z M585.5,32.9c-0.9,0-1.3,0.7-1.4,1.3h2.8
		C586.9,33.6,586.5,32.9,585.5,32.9z"/>
	<path class="st4" d="M589,37.1v-4.9h1.1v0.7c0.4-0.5,1-0.8,1.6-0.8v1.1c-0.1,0-0.2,0-0.3,0c-0.4,0-1.1,0.3-1.3,0.7v3.4H589V37.1z"
		/>
</g>
<g>
	<path class="st4" d="M534.2,55.6c-0.8-1-1.3-2.5-1.3-3.9s0.5-2.9,1.3-3.9l0.6,0.4c-0.6,1.1-0.9,2.1-0.9,3.5s0.3,2.4,0.9,3.5
		L534.2,55.6z"/>
	<path class="st4" d="M537,53.8v-5h-1.8v-0.9h4.6v0.9H538v5H537z"/>
	<path class="st4" d="M540.7,53.8v-5.9h2.6c1.2,0,1.9,0.9,1.9,1.9s-0.7,1.9-1.9,1.9h-1.6v2.2h-1V53.8z M544.2,49.7
		c0-0.6-0.4-0.9-1-0.9h-1.4v1.9h1.4C543.8,50.7,544.2,50.3,544.2,49.7z"/>
	<path class="st4" d="M549.6,53.8l-0.4-1.1h-2.7l-0.4,1.1h-1.2l2.3-5.9h1.3l2.3,5.9H549.6z M547.8,48.9l-1.1,2.8h2.1L547.8,48.9z"/>
	<path class="st4" d="M551,55.1c0.6-1.1,0.9-2.1,0.9-3.5s-0.3-2.4-0.9-3.5l0.6-0.4c0.8,1,1.3,2.5,1.3,3.9s-0.5,2.9-1.3,3.9L551,55.1
		z"/>
</g>
<g>
	<path class="st4" d="M3.9,84.2c0-2.1,1.5-3.5,3.5-3.5c1.2,0,2,0.6,2.6,1.3l-0.7,0.4c-0.4-0.6-1.1-1-1.9-1c-1.5,0-2.6,1.1-2.6,2.8
		c0,1.6,1.1,2.8,2.6,2.8c0.8,0,1.5-0.4,1.9-1l0.7,0.4c-0.6,0.8-1.4,1.3-2.6,1.3C5.5,87.8,3.9,86.3,3.9,84.2z"/>
	<path class="st4" d="M14.4,87.6v-3.3c0-0.9-0.4-1.1-1.1-1.1c-0.6,0-1.2,0.4-1.5,0.8v3.6H11v-6.8h0.8v2.6c0.3-0.4,1-0.8,1.8-0.8
		c1,0,1.6,0.5,1.6,1.6v3.5L14.4,87.6L14.4,87.6z"/>
	<path class="st4" d="M19.8,87.6V87c-0.4,0.5-1,0.7-1.6,0.7c-0.8,0-1.7-0.6-1.7-1.6c0-1.1,0.9-1.6,1.7-1.6c0.7,0,1.2,0.2,1.6,0.7
		v-0.9c0-0.7-0.5-1-1.2-1c-0.6,0-1.1,0.2-1.5,0.7l-0.4-0.5c0.5-0.6,1.2-0.8,2-0.8c1,0,1.9,0.5,1.9,1.7v3.4h-0.8V87.6z M19.8,86.6
		v-0.9c-0.3-0.4-0.8-0.6-1.4-0.6c-0.7,0-1.2,0.5-1.2,1.1s0.5,1.1,1.2,1.1C19,87.2,19.5,87,19.8,86.6z"/>
	<path class="st4" d="M25.4,87.6v-3.2c0-0.9-0.4-1.1-1.1-1.1c-0.6,0-1.2,0.4-1.5,0.8v3.6H22v-4.9h0.8v0.7c0.3-0.4,1-0.8,1.8-0.8
		c1,0,1.6,0.5,1.6,1.6v3.5h-0.8V87.6z"/>
	<path class="st4" d="M31.3,87.6v-0.7c-0.4,0.5-1,0.9-1.7,0.9c-1.3,0-2.2-1-2.2-2.6s0.9-2.6,2.2-2.6c0.7,0,1.3,0.3,1.7,0.9v-2.6h0.8
		v6.8h-0.8V87.6z M31.3,86.3v-2.2c-0.3-0.4-0.9-0.8-1.5-0.8c-1,0-1.6,0.8-1.6,1.9s0.6,1.9,1.6,1.9C30.4,87.1,31,86.7,31.3,86.3z"/>
	<path class="st4" d="M33.3,85.2c0-1.4,1-2.6,2.4-2.6c1.5,0,2.4,1.2,2.4,2.6v0.2h-4c0.1,0.9,0.7,1.7,1.8,1.7c0.6,0,1.1-0.2,1.5-0.6
		l0.4,0.5c-0.5,0.5-1.2,0.8-2,0.8C34.4,87.8,33.3,86.7,33.3,85.2z M35.8,83.2c-1.1,0-1.6,0.9-1.6,1.6h3.2
		C37.4,84.1,36.9,83.2,35.8,83.2z"/>
	<path class="st4" d="M39.4,87.6v-4.9h0.8v0.8c0.4-0.5,1-0.9,1.6-0.9v0.8c-0.1,0-0.2,0-0.3,0c-0.5,0-1.1,0.4-1.3,0.8v3.5h-0.8V87.6z
		"/>
	<path class="st4" d="M42.6,81.5c0-0.3,0.2-0.5,0.5-0.5s0.5,0.2,0.5,0.5S43.4,82,43.1,82C42.8,82,42.6,81.8,42.6,81.5z M42.7,87.6
		v-4.9h0.8v4.9H42.7z"/>
	<path class="st4" d="M44.9,88.9C45,89,45.2,89,45.3,89c0.3,0,0.6-0.1,0.7-0.5l0.3-0.7l-2.1-5H45l1.6,4l1.6-4H49l-2.5,5.9
		c-0.3,0.7-0.8,1-1.5,1c-0.2,0-0.4,0-0.6-0.1L44.9,88.9z"/>
	<path class="st4" d="M53.1,87.6V87c-0.4,0.5-1,0.7-1.6,0.7c-0.8,0-1.7-0.6-1.7-1.6c0-1.1,0.9-1.6,1.7-1.6c0.7,0,1.2,0.2,1.6,0.7
		v-0.9c0-0.7-0.5-1-1.2-1c-0.6,0-1.1,0.2-1.5,0.7L50,83.4c0.5-0.6,1.2-0.8,2-0.8c1,0,1.9,0.5,1.9,1.7v3.4L53.1,87.6L53.1,87.6z
		 M53.1,86.6v-0.9c-0.3-0.4-0.8-0.6-1.4-0.6c-0.7,0-1.2,0.5-1.2,1.1s0.5,1.1,1.2,1.1C52.3,87.2,52.8,87,53.1,86.6z"/>
	<path class="st4" d="M58.1,87.6v-6.8H59v6.1h3.2v0.8L58.1,87.6L58.1,87.6z"/>
	<path class="st4" d="M62.8,85.2c0-1.4,1-2.6,2.4-2.6c1.5,0,2.4,1.2,2.4,2.6v0.2h-4c0.1,0.9,0.7,1.7,1.8,1.7c0.6,0,1.1-0.2,1.5-0.6
		l0.4,0.5c-0.5,0.5-1.2,0.8-2,0.8C63.8,87.8,62.8,86.7,62.8,85.2z M65.2,83.2c-1.1,0-1.6,0.9-1.6,1.6h3.2
		C66.8,84.1,66.3,83.2,65.2,83.2z"/>
	<path class="st4" d="M71.9,87.6V87c-0.4,0.5-1,0.7-1.6,0.7c-0.8,0-1.7-0.6-1.7-1.6c0-1.1,0.9-1.6,1.7-1.6c0.7,0,1.2,0.2,1.6,0.7
		v-0.9c0-0.7-0.5-1-1.2-1c-0.6,0-1.1,0.2-1.5,0.7l-0.4-0.5c0.5-0.6,1.2-0.8,2-0.8c1,0,1.9,0.5,1.9,1.7v3.4h-0.8V87.6z M71.9,86.6
		v-0.9c-0.3-0.4-0.8-0.6-1.4-0.6c-0.7,0-1.2,0.5-1.2,1.1s0.5,1.1,1.2,1.1C71.1,87.2,71.6,87,71.9,86.6z"/>
	<path class="st4" d="M77.8,87.6v-0.7c-0.4,0.5-1,0.9-1.7,0.9c-1.3,0-2.2-1-2.2-2.6s0.9-2.6,2.2-2.6c0.7,0,1.3,0.3,1.7,0.9v-2.6h0.8
		v6.8h-0.8V87.6z M77.8,86.3v-2.2c-0.3-0.4-0.9-0.8-1.5-0.8c-1,0-1.6,0.8-1.6,1.9s0.6,1.9,1.6,1.9C76.9,87.1,77.5,86.7,77.8,86.3z"
		/>
	<path class="st4" d="M79.6,85.5v-0.7h2.5v0.7H79.6z"/>
	<path class="st4" d="M82.9,87.6v-0.7l3.8-5.4h-3.8v-0.8h4.9v0.7L84,86.9h3.9v0.8h-5V87.6z"/>
	<path class="st4" d="M89,81.5c0-0.3,0.2-0.5,0.5-0.5s0.5,0.2,0.5,0.5S89.8,82,89.5,82S89,81.8,89,81.5z M89.1,87.6v-4.9h0.8v4.9
		H89.1z"/>
	<path class="st4" d="M94.8,87.6v-3.2c0-0.9-0.4-1.1-1.1-1.1c-0.6,0-1.2,0.4-1.5,0.8v3.6h-0.8v-4.9h0.8v0.7c0.3-0.4,1-0.8,1.8-0.8
		c1,0,1.6,0.5,1.6,1.6v3.5h-0.8V87.6z"/>
	<path class="st4" d="M96.8,85.2c0-1.5,1-2.6,2.5-2.6c0.9,0,1.4,0.4,1.8,0.9l-0.5,0.5c-0.3-0.5-0.7-0.6-1.3-0.6
		c-1.1,0-1.7,0.8-1.7,1.9s0.7,1.9,1.7,1.9c0.5,0,0.9-0.2,1.3-0.6l0.5,0.5c-0.4,0.5-0.9,0.9-1.8,0.9C97.8,87.8,96.8,86.6,96.8,85.2z"
		/>
	<path class="st4" d="M104.4,86.7l0.5-0.6c0.4,0.5,1.2,1,2.1,1c1.2,0,1.6-0.7,1.6-1.2c0-1.8-4-0.8-4-3.2c0-1.1,1-1.9,2.3-1.9
		c1,0,1.9,0.3,2.4,1l-0.5,0.6c-0.5-0.6-1.2-0.8-2-0.8s-1.4,0.4-1.4,1.1c0,1.5,4,0.7,4,3.2c0,1-0.7,2-2.5,2
		C105.8,87.8,105,87.3,104.4,86.7z"/>
	<path class="st4" d="M116.7,87.6v-3.4c0-0.6-0.3-1-0.9-1c-0.5,0-1.1,0.4-1.3,0.8v3.6h-0.8v-3.4c0-0.6-0.3-1-0.9-1
		c-0.5,0-1,0.4-1.3,0.8v3.6h-0.8v-4.9h0.8v0.7c0.2-0.3,0.9-0.8,1.6-0.8c0.8,0,1.2,0.4,1.3,0.9c0.3-0.4,0.9-0.9,1.7-0.9
		c0.9,0,1.4,0.5,1.4,1.5v3.6L116.7,87.6L116.7,87.6z"/>
	<path class="st4" d="M118.7,85.2c0-1.4,1-2.6,2.4-2.6c1.5,0,2.4,1.2,2.4,2.6v0.2h-4c0.1,0.9,0.7,1.7,1.8,1.7c0.6,0,1.1-0.2,1.5-0.6
		l0.4,0.5c-0.5,0.5-1.2,0.8-2,0.8C119.8,87.8,118.7,86.7,118.7,85.2z M121.2,83.2c-1.1,0-1.6,0.9-1.6,1.6h3.2
		C122.8,84.1,122.3,83.2,121.2,83.2z"/>
	<path class="st4" d="M124.8,87.6v-6.8h0.8v6.8H124.8z"/>
	<path class="st4" d="M127.2,86.6v-3.2h-0.8v-0.7h0.8v-1.3h0.8v1.3h1v0.7h-1v3.1c0,0.4,0.2,0.6,0.5,0.6c0.2,0,0.4-0.1,0.5-0.2
		l0.2,0.6c-0.2,0.2-0.5,0.3-0.9,0.3C127.6,87.8,127.2,87.3,127.2,86.6z"/>
	<path class="st4" d="M129.8,85.2c0-1.4,1-2.6,2.4-2.6c1.5,0,2.4,1.2,2.4,2.6v0.2h-4c0.1,0.9,0.7,1.7,1.8,1.7c0.6,0,1.1-0.2,1.5-0.6
		l0.4,0.5c-0.5,0.5-1.2,0.8-2,0.8C130.8,87.8,129.8,86.7,129.8,85.2z M132.2,83.2c-1.1,0-1.6,0.9-1.6,1.6h3.2
		C133.8,84.1,133.3,83.2,132.2,83.2z"/>
	<path class="st4" d="M135.8,87.6v-4.9h0.8v0.8c0.4-0.5,1-0.9,1.6-0.9v0.8c-0.1,0-0.2,0-0.3,0c-0.5,0-1.1,0.4-1.3,0.8v3.5h-0.8V87.6
		z"/>
</g>
<g>
	<path class="st4" d="M265.1,87.6v-5.7l-1.1,1.2l-0.5-0.5l1.7-1.8h0.7v6.8H265.1z"/>
	<path class="st4" d="M267.7,88.9l-0.4-0.3c0.3-0.2,0.6-0.6,0.7-1h-0.1c-0.3,0-0.5-0.2-0.5-0.5s0.2-0.6,0.5-0.6s0.6,0.3,0.6,0.8
		C268.5,88,268.2,88.6,267.7,88.9z"/>
	<path class="st4" d="M269.6,84.2c0-1.7,0.7-3.5,2.6-3.5s2.6,1.8,2.6,3.5s-0.7,3.5-2.6,3.5C270.3,87.8,269.6,85.9,269.6,84.2z
		 M274,84.2c0-1.4-0.4-2.8-1.7-2.8s-1.7,1.4-1.7,2.8s0.4,2.8,1.7,2.8S274,85.6,274,84.2z"/>
	<path class="st4" d="M276,86.7l0.5-0.6c0.4,0.6,1,0.9,1.9,0.9s1.6-0.6,1.6-1.5s-0.6-1.5-1.6-1.5c-0.6,0-1.1,0.2-1.6,0.6l-0.6-0.2
		v-3.7h4.2v0.8h-3.3V84c0.3-0.3,0.9-0.6,1.6-0.6c1.1,0,2.2,0.8,2.2,2.2c0,1.4-1.1,2.2-2.4,2.2C277.3,87.8,276.5,87.3,276,86.7z"/>
	<path class="st4" d="M282.3,88.9l-0.4-0.3c0.3-0.2,0.6-0.6,0.7-1h-0.1c-0.3,0-0.5-0.2-0.5-0.5s0.2-0.6,0.5-0.6s0.6,0.3,0.6,0.8
		C283.2,88,282.8,88.6,282.3,88.9z"/>
	<path class="st4" d="M284.2,84.2c0-1.7,0.7-3.5,2.6-3.5s2.6,1.8,2.6,3.5s-0.7,3.5-2.6,3.5C285,87.8,284.2,85.9,284.2,84.2z
		 M288.6,84.2c0-1.4-0.4-2.8-1.7-2.8s-1.7,1.4-1.7,2.8s0.4,2.8,1.7,2.8S288.6,85.6,288.6,84.2z"/>
	<path class="st4" d="M290.5,84.2c0-1.7,0.7-3.5,2.6-3.5s2.6,1.8,2.6,3.5s-0.7,3.5-2.6,3.5C291.2,87.8,290.5,85.9,290.5,84.2z
		 M294.8,84.2c0-1.4-0.4-2.8-1.7-2.8s-1.7,1.4-1.7,2.8s0.4,2.8,1.7,2.8S294.8,85.6,294.8,84.2z"/>
	<path class="st4" d="M296.8,84.2c0-1.7,0.7-3.5,2.6-3.5s2.6,1.8,2.6,3.5s-0.7,3.5-2.6,3.5C297.5,87.8,296.8,85.9,296.8,84.2z
		 M301.1,84.2c0-1.4-0.4-2.8-1.7-2.8c-1.3,0-1.7,1.4-1.7,2.8s0.4,2.8,1.7,2.8S301.1,85.6,301.1,84.2z"/>
</g>
<g>
	<path class="st4" d="M370.3,86.9l0.4-0.6c0.3,0.4,0.8,0.7,1.5,0.7c1.4,0,1.9-1.4,1.9-2.7c0-0.1,0-0.2,0-0.3
		c-0.3,0.5-1.1,1.1-1.9,1.1c-1.2,0-2.2-0.7-2.2-2.2c0-1.2,0.9-2.2,2.4-2.2c1.9,0,2.6,1.7,2.6,3.5s-0.9,3.5-2.8,3.5
		C371.3,87.8,370.7,87.4,370.3,86.9z M374,83.4c-0.1-0.8-0.5-1.9-1.7-1.9c-1,0-1.6,0.8-1.6,1.4c0,1,0.7,1.5,1.6,1.5
		C373,84.4,373.7,84,374,83.4z"/>
	<path class="st4" d="M376,84.2c0-1.7,0.7-3.5,2.6-3.5s2.6,1.8,2.6,3.5s-0.7,3.5-2.6,3.5C376.7,87.8,376,85.9,376,84.2z M380.3,84.2
		c0-1.4-0.4-2.8-1.7-2.8c-1.3,0-1.7,1.4-1.7,2.8s0.4,2.8,1.7,2.8S380.3,85.6,380.3,84.2z"/>
	<path class="st4" d="M382.4,88.9l-0.4-0.3c0.3-0.2,0.6-0.6,0.7-1h-0.1c-0.3,0-0.5-0.2-0.5-0.5s0.2-0.6,0.5-0.6s0.6,0.3,0.6,0.8
		C383.2,88,382.8,88.6,382.4,88.9z"/>
	<path class="st4" d="M384.3,84.2c0-1.7,0.7-3.5,2.6-3.5s2.6,1.8,2.6,3.5s-0.7,3.5-2.6,3.5C385,87.8,384.3,85.9,384.3,84.2z
		 M388.6,84.2c0-1.4-0.4-2.8-1.7-2.8c-1.3,0-1.7,1.4-1.7,2.8s0.4,2.8,1.7,2.8S388.6,85.6,388.6,84.2z"/>
	<path class="st4" d="M390.5,84.2c0-1.7,0.7-3.5,2.6-3.5s2.6,1.8,2.6,3.5s-0.7,3.5-2.6,3.5C391.3,87.8,390.5,85.9,390.5,84.2z
		 M394.9,84.2c0-1.4-0.4-2.8-1.7-2.8c-1.3,0-1.7,1.4-1.7,2.8s0.4,2.8,1.7,2.8C394.4,87,394.9,85.6,394.9,84.2z"/>
	<path class="st4" d="M396.8,84.2c0-1.7,0.7-3.5,2.6-3.5s2.6,1.8,2.6,3.5s-0.7,3.5-2.6,3.5C397.5,87.8,396.8,85.9,396.8,84.2z
		 M401.1,84.2c0-1.4-0.4-2.8-1.7-2.8c-1.3,0-1.7,1.4-1.7,2.8s0.4,2.8,1.7,2.8S401.1,85.6,401.1,84.2z"/>
</g>
<g>
	<path class="st4" d="M475.5,87.6v-1.7h-3.2v-0.7l2.9-4.4h1.2v4.3h1v0.7h-1v1.7L475.5,87.6L475.5,87.6z M475.5,81.6l-2.4,3.6h2.4
		V81.6z"/>
	<path class="st4" d="M478.6,88.9l-0.4-0.3c0.3-0.2,0.6-0.6,0.7-1h-0.1c-0.3,0-0.5-0.2-0.5-0.5s0.2-0.6,0.5-0.6s0.6,0.3,0.6,0.8
		C479.4,88,479,88.6,478.6,88.9z"/>
	<path class="st4" d="M480.5,85.9c0-0.9,0.8-1.5,1.6-1.8c-0.8-0.2-1.5-0.7-1.5-1.6c0-1.2,1.2-1.8,2.3-1.8c1.1,0,2.3,0.5,2.3,1.8
		c0,0.9-0.7,1.4-1.5,1.6c0.8,0.3,1.6,0.9,1.6,1.8c0,1.2-1.1,1.9-2.4,1.9S480.5,87.1,480.5,85.9z M484.5,85.8c0-0.9-1.2-1.3-1.6-1.3
		c-0.4,0.1-1.6,0.4-1.6,1.3c0,0.7,0.7,1.2,1.6,1.2S484.5,86.6,484.5,85.8z M484.4,82.6c0-0.7-0.7-1.1-1.5-1.1s-1.5,0.4-1.5,1.1
		c0,0.8,1.1,1.1,1.5,1.2C483.4,83.7,484.4,83.4,484.4,82.6z"/>
	<path class="st4" d="M486.4,84.2c0-1.7,0.7-3.5,2.6-3.5s2.6,1.8,2.6,3.5s-0.7,3.5-2.6,3.5C487.2,87.8,486.4,85.9,486.4,84.2z
		 M490.8,84.2c0-1.4-0.4-2.8-1.7-2.8c-1.3,0-1.7,1.4-1.7,2.8s0.4,2.8,1.7,2.8C490.3,87,490.8,85.6,490.8,84.2z"/>
	<path class="st4" d="M492.8,88.9l-0.4-0.3c0.3-0.2,0.6-0.6,0.7-1H493c-0.3,0-0.5-0.2-0.5-0.5s0.2-0.6,0.5-0.6s0.6,0.3,0.6,0.8
		C493.6,88,493.3,88.6,492.8,88.9z"/>
	<path class="st4" d="M494.7,84.2c0-1.7,0.7-3.5,2.6-3.5s2.6,1.8,2.6,3.5s-0.7,3.5-2.6,3.5C495.4,87.8,494.7,85.9,494.7,84.2z
		 M499.1,84.2c0-1.4-0.4-2.8-1.7-2.8c-1.3,0-1.7,1.4-1.7,2.8s0.4,2.8,1.7,2.8C498.6,87,499.1,85.6,499.1,84.2z"/>
	<path class="st4" d="M501,84.2c0-1.7,0.7-3.5,2.6-3.5s2.6,1.8,2.6,3.5s-0.7,3.5-2.6,3.5C501.7,87.8,501,85.9,501,84.2z M505.3,84.2
		c0-1.4-0.4-2.8-1.7-2.8c-1.3,0-1.7,1.4-1.7,2.8s0.4,2.8,1.7,2.8S505.3,85.6,505.3,84.2z"/>
	<path class="st4" d="M507.2,84.2c0-1.7,0.7-3.5,2.6-3.5s2.6,1.8,2.6,3.5s-0.7,3.5-2.6,3.5C508,87.8,507.2,85.9,507.2,84.2z
		 M511.6,84.2c0-1.4-0.4-2.8-1.7-2.8c-1.3,0-1.7,1.4-1.7,2.8s0.4,2.8,1.7,2.8C511.1,87,511.6,85.6,511.6,84.2z"/>
</g>
<g>
	<path class="st4" d="M588.5,83.3v-0.6h2.1v0.6H588.5z"/>
</g>
<g>
	<path class="st4" d="M4.2,109.4v-6.8h2.3c2.1,0,3.5,1.5,3.5,3.4s-1.4,3.4-3.5,3.4H4.2z M9.2,105.9c0-1.5-0.9-2.7-2.6-2.7H5.1v5.3
		h1.5C8.2,108.6,9.2,107.4,9.2,105.9z"/>
	<path class="st4" d="M14.4,109.4v-0.6c-0.4,0.5-1,0.7-1.6,0.7c-0.8,0-1.7-0.6-1.7-1.6c0-1.1,0.9-1.6,1.7-1.6c0.7,0,1.2,0.2,1.6,0.7
		v-1c0-0.7-0.5-1-1.2-1c-0.6,0-1.1,0.2-1.5,0.7l-0.4-0.5c0.5-0.6,1.2-0.8,2-0.8c1,0,1.9,0.5,1.9,1.7v3.4L14.4,109.4L14.4,109.4z
		 M14.4,108.3v-0.9c-0.3-0.4-0.8-0.6-1.4-0.6c-0.7,0-1.2,0.5-1.2,1.1s0.5,1.1,1.2,1.1C13.6,108.9,14.1,108.7,14.4,108.3z"/>
	<path class="st4" d="M16.7,109.4v-4.9h0.8v0.8c0.4-0.5,1-0.9,1.6-0.9v0.8c-0.1,0-0.2,0-0.3,0c-0.5,0-1.1,0.4-1.3,0.8v3.5h-0.8
		V109.4z"/>
	<path class="st4" d="M20,103.2c0-0.3,0.2-0.5,0.5-0.5s0.5,0.2,0.5,0.5s-0.2,0.5-0.5,0.5S20,103.5,20,103.2z M20.1,109.4v-4.9h0.8
		v4.9H20.1z"/>
	<path class="st4" d="M22.4,109.4v-6.8h0.8v2.6c0.4-0.5,1-0.9,1.7-0.9c1.3,0,2.2,1,2.2,2.6s-0.9,2.6-2.2,2.6c-0.7,0-1.3-0.4-1.7-0.9
		v0.7h-0.8V109.4z M24.6,108.8c1,0,1.6-0.8,1.6-1.9s-0.6-1.9-1.6-1.9c-0.6,0-1.2,0.4-1.5,0.8v2.2C23.4,108.4,24,108.8,24.6,108.8z"
		/>
	<path class="st4" d="M31.3,109.4v-0.6c-0.4,0.5-1,0.7-1.6,0.7c-0.8,0-1.7-0.6-1.7-1.6c0-1.1,0.9-1.6,1.7-1.6c0.7,0,1.2,0.2,1.6,0.7
		v-1c0-0.7-0.5-1-1.2-1c-0.6,0-1.1,0.2-1.5,0.7l-0.4-0.5c0.5-0.6,1.2-0.8,2-0.8c1,0,1.9,0.5,1.9,1.7v3.4L31.3,109.4L31.3,109.4z
		 M31.3,108.3v-0.9c-0.3-0.4-0.8-0.6-1.4-0.6c-0.7,0-1.2,0.5-1.2,1.1s0.5,1.1,1.2,1.1C30.5,108.9,31.1,108.7,31.3,108.3z"/>
	<path class="st4" d="M35.9,108.4l0.5-0.6c0.4,0.5,1.2,1,2.1,1c1.2,0,1.6-0.7,1.6-1.2c0-1.8-4-0.8-4-3.2c0-1.1,1-1.9,2.3-1.9
		c1,0,1.9,0.3,2.4,1l-0.5,0.6c-0.5-0.6-1.2-0.8-2-0.8s-1.4,0.4-1.4,1.1c0,1.5,4,0.7,4,3.2c0,1-0.7,2-2.5,2
		C37.3,109.5,36.5,109,35.9,108.4z"/>
	<path class="st4" d="M48.2,109.4V106c0-0.6-0.3-1-0.9-1c-0.5,0-1.1,0.4-1.3,0.8v3.6h-0.8V106c0-0.6-0.3-1-0.9-1
		c-0.5,0-1,0.4-1.3,0.8v3.6h-0.8v-4.9H43v0.7c0.2-0.3,0.9-0.8,1.6-0.8c0.8,0,1.2,0.4,1.3,0.9c0.3-0.4,0.9-0.9,1.7-0.9
		c0.9,0,1.4,0.5,1.4,1.5v3.6L48.2,109.4L48.2,109.4z"/>
	<path class="st4" d="M50.2,106.9c0-1.4,1-2.6,2.4-2.6c1.5,0,2.4,1.2,2.4,2.6v0.2h-4c0.1,0.9,0.7,1.7,1.8,1.7c0.6,0,1.1-0.2,1.5-0.6
		l0.4,0.5c-0.5,0.5-1.2,0.8-2,0.8C51.3,109.5,50.2,108.4,50.2,106.9z M52.7,104.9c-1.1,0-1.6,0.9-1.6,1.6h3.2
		C54.3,105.8,53.8,104.9,52.7,104.9z"/>
	<path class="st4" d="M56.3,109.4v-6.8h0.8v6.8H56.3z"/>
	<path class="st4" d="M58.7,108.3v-3.2h-0.8v-0.7h0.8v-1.3h0.8v1.3h1v0.7h-1v3.1c0,0.4,0.2,0.6,0.5,0.6c0.2,0,0.4-0.1,0.5-0.2
		l0.2,0.6c-0.2,0.2-0.5,0.3-0.9,0.3C59.1,109.5,58.7,109.1,58.7,108.3z"/>
	<path class="st4" d="M61.5,103.2c0-0.3,0.2-0.5,0.5-0.5s0.5,0.2,0.5,0.5s-0.2,0.5-0.5,0.5S61.5,103.5,61.5,103.2z M61.6,109.4v-4.9
		h0.8v4.9H61.6z"/>
	<path class="st4" d="M67.2,109.4v-3.2c0-0.9-0.4-1.1-1.1-1.1c-0.6,0-1.2,0.4-1.5,0.8v3.6h-0.8v-4.9h0.8v0.7c0.3-0.4,1-0.8,1.8-0.8
		c1,0,1.6,0.5,1.6,1.6v3.5h-0.8V109.4z"/>
	<path class="st4" d="M69.5,110.6l0.4-0.6c0.4,0.5,0.9,0.7,1.6,0.7c0.8,0,1.6-0.4,1.6-1.5v-0.7c-0.4,0.5-1,0.9-1.7,0.9
		c-1.3,0-2.2-1-2.2-2.6s0.9-2.6,2.2-2.6c0.7,0,1.3,0.3,1.7,0.9v-0.7h0.8v4.8c0,1.6-1.1,2.1-2.4,2.1
		C70.7,111.4,70.1,111.2,69.5,110.6z M73.1,107.9v-2.2c-0.3-0.4-0.9-0.8-1.5-0.8c-1,0-1.6,0.8-1.6,1.9s0.6,1.9,1.6,1.9
		C72.2,108.7,72.8,108.4,73.1,107.9z"/>
	<path class="st4" d="M77.8,105.9c0-2.1,1.5-3.5,3.5-3.5c1.2,0,2,0.6,2.6,1.3l-0.7,0.4c-0.4-0.6-1.1-1-1.9-1c-1.5,0-2.6,1.1-2.6,2.8
		c0,1.6,1.1,2.8,2.6,2.8c0.8,0,1.5-0.4,1.9-1l0.7,0.4c-0.6,0.8-1.4,1.3-2.6,1.3C79.3,109.5,77.8,108,77.8,105.9z"/>
	<path class="st4" d="M84.6,106.9c0-1.4,0.9-2.6,2.4-2.6s2.4,1.2,2.4,2.6s-0.9,2.6-2.4,2.6S84.6,108.3,84.6,106.9z M88.7,106.9
		c0-1-0.6-1.9-1.6-1.9c-1.1,0-1.6,0.9-1.6,1.9s0.6,1.9,1.6,1.9S88.7,107.9,88.7,106.9z"/>
	<path class="st4" d="M96.7,109.4V106c0-0.6-0.3-1-0.9-1c-0.5,0-1.1,0.4-1.3,0.8v3.6h-0.8V106c0-0.6-0.3-1-0.9-1
		c-0.5,0-1,0.4-1.3,0.8v3.6h-0.8v-4.9h0.8v0.7c0.2-0.3,0.9-0.8,1.6-0.8c0.8,0,1.2,0.4,1.3,0.9c0.3-0.4,0.9-0.9,1.7-0.9
		c0.9,0,1.4,0.5,1.4,1.5v3.6L96.7,109.4L96.7,109.4z"/>
	<path class="st4" d="M99.8,108.6v2.6H99v-6.8h0.8v0.7c0.4-0.5,1-0.9,1.7-0.9c1.3,0,2.2,1,2.2,2.6s-0.9,2.6-2.2,2.6
		C100.8,109.5,100.2,109.2,99.8,108.6z M102.9,106.9c0-1.1-0.6-1.9-1.6-1.9c-0.6,0-1.2,0.4-1.5,0.8v2.2c0.3,0.4,0.9,0.8,1.5,0.8
		C102.3,108.8,102.9,108,102.9,106.9z"/>
	<path class="st4" d="M104.9,109.4v-6.8h0.8v6.8H104.9z"/>
	<path class="st4" d="M106.9,106.9c0-1.4,1-2.6,2.4-2.6c1.5,0,2.4,1.2,2.4,2.6v0.2h-4c0.1,0.9,0.7,1.7,1.8,1.7
		c0.6,0,1.1-0.2,1.5-0.6l0.4,0.5c-0.5,0.5-1.2,0.8-2,0.8C107.9,109.5,106.9,108.4,106.9,106.9z M109.3,104.9c-1.1,0-1.6,0.9-1.6,1.6
		h3.2C110.9,105.8,110.4,104.9,109.3,104.9z"/>
	<path class="st4" d="M115.8,109.4l-1.5-2l-1.5,2H112l1.9-2.5l-1.8-2.4h0.9l1.4,1.9l1.4-1.9h0.9l-1.8,2.4l1.9,2.5H115.8z"/>
</g>
<g>
	<path class="st4" d="M299.7,107.2v-0.7h2.5v0.7H299.7z"/>
</g>
<g>
	<path class="st4" d="M399.7,107.2v-0.7h2.5v0.7H399.7z"/>
</g>
<g>
	<path class="st4" d="M472.4,109.4v-0.7c2.5-1.9,3.8-3.1,3.8-4.2c0-0.9-0.7-1.2-1.4-1.2c-0.8,0-1.5,0.3-1.9,0.9l-0.5-0.5
		c0.5-0.7,1.4-1.1,2.4-1.1c1.1,0,2.3,0.6,2.3,2s-1.4,2.7-3.3,4.2h3.3v0.8h-4.7V109.4z"/>
	<path class="st4" d="M478.8,110.7l-0.4-0.3c0.3-0.2,0.6-0.6,0.7-1H479c-0.3,0-0.5-0.2-0.5-0.5s0.2-0.6,0.5-0.6s0.6,0.3,0.6,0.8
		C479.6,109.7,479.3,110.3,478.8,110.7z"/>
	<path class="st4" d="M483.8,109.4v-1.7h-3.2V107l2.9-4.4h1.2v4.3h1v0.7h-1v1.7L483.8,109.4L483.8,109.4z M483.8,103.3l-2.4,3.6h2.4
		V103.3z"/>
	<path class="st4" d="M486.4,105.9c0-1.7,0.7-3.5,2.6-3.5s2.6,1.9,2.6,3.5c0,1.7-0.7,3.5-2.6,3.5
		C487.2,109.5,486.4,107.6,486.4,105.9z M490.8,105.9c0-1.4-0.4-2.8-1.7-2.8c-1.3,0-1.7,1.4-1.7,2.8s0.4,2.8,1.7,2.8
		C490.3,108.7,490.8,107.3,490.8,105.9z"/>
	<path class="st4" d="M492.8,110.7l-0.4-0.3c0.3-0.2,0.6-0.6,0.7-1H493c-0.3,0-0.5-0.2-0.5-0.5s0.2-0.6,0.5-0.6s0.6,0.3,0.6,0.8
		C493.6,109.7,493.3,110.3,492.8,110.7z"/>
	<path class="st4" d="M494.7,105.9c0-1.7,0.7-3.5,2.6-3.5s2.6,1.9,2.6,3.5c0,1.7-0.7,3.5-2.6,3.5
		C495.5,109.5,494.7,107.6,494.7,105.9z M499.1,105.9c0-1.4-0.4-2.8-1.7-2.8c-1.3,0-1.7,1.4-1.7,2.8s0.4,2.8,1.7,2.8
		C498.6,108.7,499.1,107.3,499.1,105.9z"/>
	<path class="st4" d="M501,105.9c0-1.7,0.7-3.5,2.6-3.5s2.6,1.9,2.6,3.5c0,1.7-0.7,3.5-2.6,3.5C501.7,109.5,501,107.6,501,105.9z
		 M505.3,105.9c0-1.4-0.4-2.8-1.7-2.8c-1.3,0-1.7,1.4-1.7,2.8s0.4,2.8,1.7,2.8C504.9,108.7,505.3,107.3,505.3,105.9z"/>
	<path class="st4" d="M507.2,105.9c0-1.7,0.7-3.5,2.6-3.5s2.6,1.9,2.6,3.5c0,1.7-0.7,3.5-2.6,3.5C508,109.5,507.2,107.6,507.2,105.9
		z M511.6,105.9c0-1.4-0.4-2.8-1.7-2.8c-1.3,0-1.7,1.4-1.7,2.8s0.4,2.8,1.7,2.8C511.1,108.7,511.6,107.3,511.6,105.9z"/>
</g>
<g>
	<path class="st4" d="M558.8,106.6v-4.9l-1,1l-0.4-0.5l1.5-1.5h0.6v5.9H558.8z"/>
	<path class="st4" d="M561,107.8l-0.3-0.3c0.3-0.2,0.5-0.5,0.6-0.8h-0.1c-0.2,0-0.4-0.2-0.4-0.5s0.2-0.5,0.5-0.5
		c0.3,0,0.6,0.2,0.6,0.7C561.8,107,561.4,107.5,561,107.8z"/>
	<path class="st4" d="M562.7,106.6V106c2.1-1.7,3.3-2.7,3.3-3.7c0-0.8-0.6-1.1-1.2-1.1c-0.7,0-1.3,0.3-1.6,0.7l-0.5-0.3
		c0.5-0.6,1.2-0.9,2.1-0.9c1,0,2,0.6,2,1.7c0,1.2-1.2,2.3-2.9,3.6h2.9v0.7L562.7,106.6L562.7,106.6z"/>
	<path class="st4" d="M567.9,103.7c0-1.4,0.6-3.1,2.3-3.1c1.6,0,2.3,1.6,2.3,3.1c0,1.4-0.6,3.1-2.3,3.1
		C568.5,106.8,567.9,105.1,567.9,103.7z M571.7,103.7c0-1.2-0.4-2.4-1.5-2.4s-1.5,1.2-1.5,2.4c0,1.2,0.4,2.4,1.5,2.4
		S571.7,104.9,571.7,103.7z"/>
	<path class="st4" d="M573.4,107.8l-0.3-0.3c0.3-0.2,0.5-0.5,0.6-0.8h-0.1c-0.2,0-0.4-0.2-0.4-0.5s0.2-0.5,0.5-0.5
		c0.3,0,0.6,0.2,0.6,0.7C574.2,107,573.9,107.5,573.4,107.8z"/>
	<path class="st4" d="M575.1,103.7c0-1.4,0.6-3.1,2.3-3.1c1.6,0,2.3,1.6,2.3,3.1c0,1.4-0.6,3.1-2.3,3.1
		C575.7,106.8,575.1,105.1,575.1,103.7z M578.9,103.7c0-1.2-0.4-2.4-1.5-2.4s-1.5,1.2-1.5,2.4c0,1.2,0.4,2.4,1.5,2.4
		S578.9,104.9,578.9,103.7z"/>
	<path class="st4" d="M580.5,103.7c0-1.4,0.6-3.1,2.3-3.1c1.6,0,2.3,1.6,2.3,3.1c0,1.4-0.6,3.1-2.3,3.1
		C581.2,106.8,580.5,105.1,580.5,103.7z M584.2,103.7c0-1.2-0.4-2.4-1.5-2.4s-1.5,1.2-1.5,2.4c0,1.2,0.4,2.4,1.5,2.4
		S584.2,104.9,584.2,103.7z"/>
	<path class="st4" d="M586,103.7c0-1.4,0.6-3.1,2.3-3.1c1.6,0,2.3,1.6,2.3,3.1c0,1.4-0.6,3.1-2.3,3.1
		C586.6,106.8,586,105.1,586,103.7z M589.7,103.7c0-1.2-0.4-2.4-1.5-2.4s-1.5,1.2-1.5,2.4c0,1.2,0.4,2.4,1.5,2.4
		S589.7,104.9,589.7,103.7z"/>
</g>
<g>
	<path class="st4" d="M4.2,131.1v-6.8h2.3c2.1,0,3.5,1.5,3.5,3.4s-1.4,3.4-3.5,3.4H4.2z M9.2,127.7c0-1.5-0.9-2.7-2.6-2.7H5.1v5.3
		h1.5C8.2,130.3,9.2,129.1,9.2,127.7z"/>
	<path class="st4" d="M11,128.6c0-1.4,1-2.6,2.4-2.6c1.5,0,2.4,1.2,2.4,2.6v0.2h-4c0.1,0.9,0.7,1.7,1.8,1.7c0.6,0,1.1-0.2,1.5-0.6
		l0.4,0.5c-0.5,0.5-1.2,0.8-2,0.8C12.1,131.2,11,130.1,11,128.6z M13.5,126.6c-1.1,0-1.6,0.9-1.6,1.6h3.2
		C15.1,127.5,14.6,126.6,13.5,126.6z"/>
	<path class="st4" d="M17.1,131.1v-6.8h0.8v2.6c0.4-0.5,1-0.9,1.7-0.9c1.3,0,2.2,1,2.2,2.6s-0.9,2.6-2.2,2.6c-0.7,0-1.3-0.4-1.7-0.9
		v0.7L17.1,131.1L17.1,131.1z M19.3,130.5c1,0,1.6-0.8,1.6-1.9c0-1.1-0.6-1.9-1.6-1.9c-0.6,0-1.2,0.4-1.5,0.8v2.2
		C18.1,130.1,18.7,130.5,19.3,130.5z"/>
	<path class="st4" d="M26,131.1v-0.6c-0.4,0.5-1,0.7-1.6,0.7c-0.8,0-1.7-0.6-1.7-1.6c0-1.1,0.9-1.6,1.7-1.6c0.7,0,1.2,0.2,1.6,0.7
		v-0.9c0-0.7-0.5-1-1.2-1c-0.6,0-1.1,0.2-1.5,0.7l-0.4-0.5c0.5-0.6,1.2-0.8,2-0.8c1,0,1.9,0.5,1.9,1.7v3.4H26V131.1z M26,130v-0.9
		c-0.3-0.4-0.8-0.6-1.4-0.6c-0.7,0-1.2,0.5-1.2,1.1s0.5,1.1,1.2,1.1C25.2,130.6,25.7,130.4,26,130z"/>
	<path class="st4" d="M28.3,131.1v-4.9h0.8v0.8c0.4-0.5,1-0.9,1.6-0.9v0.8c-0.1,0-0.2,0-0.3,0c-0.5,0-1.1,0.4-1.3,0.8v3.5h-0.8
		V131.1z"/>
	<path class="st4" d="M31.6,124.9c0-0.3,0.2-0.5,0.5-0.5c0.3,0,0.5,0.2,0.5,0.5s-0.2,0.5-0.5,0.5S31.6,125.2,31.6,124.9z
		 M31.7,131.1v-4.9h0.8v4.9H31.7z"/>
	<path class="st4" d="M36.4,131.1v-0.7l3.8-5.4h-3.8v-0.8h4.9v0.7l-3.8,5.4h3.9v0.8H36.4z"/>
	<path class="st4" d="M42.5,124.9c0-0.3,0.2-0.5,0.5-0.5s0.5,0.2,0.5,0.5s-0.2,0.5-0.5,0.5S42.5,125.2,42.5,124.9z M42.6,131.1v-4.9
		h0.8v4.9H42.6z"/>
	<path class="st4" d="M48.3,131.1v-3.2c0-0.9-0.4-1.1-1.1-1.1c-0.6,0-1.2,0.4-1.5,0.8v3.6h-0.8v-4.9h0.8v0.7c0.3-0.4,1-0.8,1.8-0.8
		c1,0,1.6,0.5,1.6,1.6v3.5h-0.8V131.1z"/>
	<path class="st4" d="M50.3,128.6c0-1.5,1-2.6,2.5-2.6c0.9,0,1.4,0.4,1.8,0.9l-0.5,0.5c-0.3-0.5-0.7-0.6-1.3-0.6
		c-1.1,0-1.7,0.8-1.7,1.9c0,1.1,0.7,1.9,1.7,1.9c0.5,0,0.9-0.2,1.3-0.6l0.5,0.5c-0.4,0.5-0.9,0.9-1.8,0.9
		C51.3,131.2,50.3,130.1,50.3,128.6z"/>
	<path class="st4" d="M57.9,130.1l0.5-0.6c0.4,0.5,1.2,1,2.1,1c1.2,0,1.6-0.7,1.6-1.2c0-1.8-4-0.8-4-3.2c0-1.1,1-1.9,2.3-1.9
		c1,0,1.9,0.3,2.4,1l-0.5,0.6c-0.5-0.6-1.2-0.8-2-0.8s-1.4,0.4-1.4,1.1c0,1.5,4,0.7,4,3.2c0,1-0.7,2-2.5,2
		C59.3,131.2,58.4,130.7,57.9,130.1z"/>
	<path class="st4" d="M70.2,131.1v-3.4c0-0.6-0.3-1-0.9-1c-0.5,0-1.1,0.4-1.3,0.8v3.6h-0.8v-3.4c0-0.6-0.3-1-0.9-1
		c-0.5,0-1,0.4-1.3,0.8v3.6h-0.8v-4.9H65v0.7c0.2-0.3,0.9-0.8,1.6-0.8c0.8,0,1.2,0.4,1.3,0.9c0.3-0.4,0.9-0.9,1.7-0.9
		c0.9,0,1.4,0.5,1.4,1.5v3.6L70.2,131.1L70.2,131.1z"/>
	<path class="st4" d="M72.2,128.6c0-1.4,1-2.6,2.4-2.6c1.5,0,2.4,1.2,2.4,2.6v0.2h-4c0.1,0.9,0.7,1.7,1.8,1.7c0.6,0,1.1-0.2,1.5-0.6
		l0.4,0.5c-0.5,0.5-1.2,0.8-2,0.8C73.3,131.2,72.2,130.1,72.2,128.6z M74.6,126.6c-1.1,0-1.6,0.9-1.6,1.6h3.2
		C76.3,127.5,75.8,126.6,74.6,126.6z"/>
	<path class="st4" d="M78.3,131.1v-6.8H79v6.8H78.3z"/>
	<path class="st4" d="M80.7,130v-3.2h-0.8v-0.7h0.8v-1.3h0.8v1.3h1v0.7h-1v3.1c0,0.4,0.2,0.6,0.5,0.6c0.2,0,0.4-0.1,0.5-0.2l0.2,0.6
		c-0.2,0.2-0.5,0.3-0.9,0.3C81.1,131.2,80.7,130.8,80.7,130z"/>
	<path class="st4" d="M83.3,128.6c0-1.4,1-2.6,2.4-2.6c1.5,0,2.4,1.2,2.4,2.6v0.2h-4c0.1,0.9,0.7,1.7,1.8,1.7c0.6,0,1.1-0.2,1.5-0.6
		l0.4,0.5c-0.5,0.5-1.2,0.8-2,0.8C84.3,131.2,83.3,130.1,83.3,128.6z M85.7,126.6c-1.1,0-1.6,0.9-1.6,1.6h3.2
		C87.3,127.5,86.8,126.6,85.7,126.6z"/>
	<path class="st4" d="M89.3,131.1v-4.9h0.8v0.8c0.4-0.5,1-0.9,1.6-0.9v0.8c-0.1,0-0.2,0-0.3,0c-0.5,0-1.1,0.4-1.3,0.8v3.5h-0.8
		V131.1z"/>
</g>
<g>
	<path class="st4" d="M299.7,128.9v-0.7h2.5v0.7H299.7z"/>
</g>
<g>
	<path class="st4" d="M399.7,128.9v-0.7h2.5v0.7H399.7z"/>
</g>
<g>
	<path class="st4" d="M480.5,129.3c0-0.9,0.8-1.5,1.6-1.8c-0.8-0.2-1.5-0.7-1.5-1.6c0-1.2,1.2-1.8,2.3-1.8c1.1,0,2.3,0.5,2.3,1.8
		c0,0.9-0.7,1.4-1.5,1.6c0.8,0.3,1.6,0.9,1.6,1.8c0,1.2-1.1,1.9-2.4,1.9S480.5,130.5,480.5,129.3z M484.5,129.2
		c0-0.9-1.2-1.3-1.6-1.3c-0.4,0.1-1.6,0.4-1.6,1.3c0,0.7,0.7,1.2,1.6,1.2S484.5,130,484.5,129.2z M484.4,126c0-0.7-0.7-1.1-1.5-1.1
		s-1.5,0.4-1.5,1.1c0,0.8,1.1,1.1,1.5,1.2C483.4,127.1,484.4,126.8,484.4,126z"/>
	<path class="st4" d="M486.4,129.3c0-0.9,0.8-1.5,1.6-1.8c-0.8-0.2-1.5-0.7-1.5-1.6c0-1.2,1.2-1.8,2.3-1.8c1.1,0,2.3,0.5,2.3,1.8
		c0,0.9-0.7,1.4-1.5,1.6c0.8,0.3,1.6,0.9,1.6,1.8c0,1.2-1.1,1.9-2.4,1.9S486.4,130.5,486.4,129.3z M490.5,129.2
		c0-0.9-1.2-1.3-1.6-1.3c-0.4,0.1-1.6,0.4-1.6,1.3c0,0.7,0.7,1.2,1.6,1.2C489.7,130.4,490.5,130,490.5,129.2z M490.4,126
		c0-0.7-0.7-1.1-1.5-1.1s-1.5,0.4-1.5,1.1c0,0.8,1.1,1.1,1.5,1.2C489.3,127.1,490.4,126.8,490.4,126z"/>
	<path class="st4" d="M492.8,132.4l-0.4-0.3c0.3-0.2,0.6-0.6,0.7-1H493c-0.3,0-0.5-0.2-0.5-0.5s0.2-0.6,0.5-0.6s0.6,0.3,0.6,0.8
		C493.6,131.4,493.3,132,492.8,132.4z"/>
	<path class="st4" d="M494.7,127.7c0-1.7,0.7-3.5,2.6-3.5s2.6,1.9,2.6,3.5c0,1.7-0.7,3.5-2.6,3.5
		C495.4,131.2,494.7,129.3,494.7,127.7z M499.1,127.7c0-1.4-0.4-2.8-1.7-2.8c-1.3,0-1.7,1.4-1.7,2.8c0,1.4,0.4,2.8,1.7,2.8
		C498.6,130.4,499.1,129,499.1,127.7z"/>
	<path class="st4" d="M501,127.7c0-1.7,0.7-3.5,2.6-3.5s2.6,1.9,2.6,3.5c0,1.7-0.7,3.5-2.6,3.5S501,129.3,501,127.7z M505.3,127.7
		c0-1.4-0.4-2.8-1.7-2.8c-1.3,0-1.7,1.4-1.7,2.8c0,1.4,0.4,2.8,1.7,2.8C504.9,130.4,505.3,129,505.3,127.7z"/>
	<path class="st4" d="M507.2,127.7c0-1.7,0.7-3.5,2.6-3.5s2.6,1.9,2.6,3.5c0,1.7-0.7,3.5-2.6,3.5C508,131.2,507.2,129.3,507.2,127.7
		z M511.6,127.7c0-1.4-0.4-2.8-1.7-2.8c-1.3,0-1.7,1.4-1.7,2.8c0,1.4,0.4,2.8,1.7,2.8C511.1,130.4,511.6,129,511.6,127.7z"/>
</g>
<g>
	<path class="st4" d="M588.5,121v-0.6h2.1v0.6H588.5z"/>
</g>
</svg>
