<?xml version="1.0" encoding="utf-8"?>
<!-- Generator: Adobe Illustrator 26.4.0, SVG Export Plug-In . SVG Version: 6.00 Build 0)  -->
<svg version="1.1" id="Layer_1" xmlns="http://www.w3.org/2000/svg" xmlns:xlink="http://www.w3.org/1999/xlink" x="0px" y="0px"
	 viewBox="0 0 400 205.4" style="enable-background:new 0 0 400 205.4;" xml:space="preserve">
<style type="text/css">
	.st0{clip-path:url(#SVGID_00000090976103663158110460000014809911087741353149_);fill:#DEECC2;}
	.st1{fill:#010101;}
	.st2{fill:none;stroke:#010101;stroke-width:0.25;}
	.st3{fill:none;stroke:#939598;stroke-width:0.25;stroke-dasharray:0.75,0.5;}
	.st4{fill:#9FCC3B;}
	.st5{fill:#4E4E50;}
	.st6{fill:#076AAA;}
</style>
<g>
	<g>
		<g>
			<g>
				<defs>
					<rect id="SVGID_1_" x="55.6" y="-2.9" width="333.9" height="190.5"/>
				</defs>
				<clipPath id="SVGID_00000070116594610854038630000001066873380729746321_">
					<use xlink:href="#SVGID_1_"  style="overflow:visible;"/>
				</clipPath>
				<polygon style="clip-path:url(#SVGID_00000070116594610854038630000001066873380729746321_);fill:#DEECC2;" points="71.6,185.8 
					71.6,19.8 149.8,9.5 222.3,16.8 300.6,20.8 372.8,30.7 373.5,185.8 				"/>
			</g>
		</g>
	</g>
	<path class="st1" d="M3.3,180.2c2.4,0,3.3,2.5,3.3,4.6s-0.9,4.6-3.3,4.6S0,186.9,0,184.8C0,182.7,0.9,180.2,3.3,180.2z M3.3,180.9
		c-1.9,0-2.5,2.1-2.5,3.9c0,1.8,0.6,3.9,2.5,3.9s2.5-2.1,2.5-3.9C5.8,182.9,5.2,180.9,3.3,180.9z"/>
	<path class="st1" d="M1.6,144.2l3.8-8.2h-5v-0.7h5.8v0.5l-3.8,8.4H1.6z M7.3,143.2c0.3,0,0.6,0.3,0.6,0.6s-0.3,0.6-0.6,0.6
		c-0.3,0-0.6-0.3-0.6-0.6C6.7,143.5,6.9,143.2,7.3,143.2z M10.2,142.4c0.6,0.8,1.4,1.3,2.5,1.3c1.3,0,2.2-0.9,2.2-2.2
		c0-1.4-0.9-2.2-2.2-2.2c-0.8,0-1.5,0.3-2.2,0.9L9.9,140v-4.7h5.2v0.7h-4.4v3.5c0.4-0.4,1.2-0.8,2.1-0.8c1.5,0,2.8,1,2.8,2.8
		s-1.4,2.9-3,2.9c-1.5,0-2.4-0.6-3-1.5L10.2,142.4z"/>
	<path class="st1" d="M3.6,99.2v-7.9l-2.1,2.3L1,93.1l2.7-2.8h0.7v8.9H3.6z M8,97.4c0.6,0.8,1.4,1.3,2.5,1.3c1.3,0,2.2-0.9,2.2-2.2
		c0-1.4-0.9-2.2-2.2-2.2c-0.8,0-1.5,0.3-2.2,0.9L7.7,95v-4.7H13V91H8.6v3.5c0.4-0.4,1.2-0.8,2.1-0.8c1.5,0,2.8,1,2.8,2.8
		s-1.4,2.9-3,2.9c-1.5,0-2.4-0.6-3-1.5L8,97.4z M15.8,98.2c0.3,0,0.6,0.3,0.6,0.6c0,0.3-0.3,0.6-0.6,0.6c-0.3,0-0.6-0.3-0.6-0.6
		C15.2,98.5,15.5,98.2,15.8,98.2z M21.1,90.2c2.4,0,3.3,2.5,3.3,4.6s-0.9,4.6-3.3,4.6s-3.3-2.5-3.3-4.6
		C17.8,92.7,18.7,90.2,21.1,90.2z M21.1,90.9c-1.9,0-2.5,2.1-2.5,3.9s0.6,3.9,2.5,3.9s2.5-2.1,2.5-3.9C23.6,92.9,23,90.9,21.1,90.9z
		"/>
	<path class="st1" d="M0.3,54.3v-0.6c3-2.4,5.1-4.2,5.1-5.9c0-1.3-1.1-1.8-2-1.8c-1.1,0-2,0.5-2.4,1.2l-0.5-0.5
		c0.5-1,1.6-1.5,2.8-1.5c1.3,0,2.8,0.7,2.8,2.5c0,2-2.1,3.8-4.7,5.8h4.7v0.7L0.3,54.3L0.3,54.3z M8.2,54.3v-0.6
		c3-2.4,5.1-4.2,5.1-5.9c0-1.3-1.1-1.8-2-1.8c-1.1,0-2,0.5-2.4,1.2l-0.5-0.5c0.6-0.9,1.7-1.4,3-1.4s2.8,0.7,2.8,2.5
		c0,2-2.1,3.8-4.7,5.8h4.7v0.7H8.2z M16.7,53.2c0.3,0,0.6,0.3,0.6,0.6c0,0.3-0.3,0.6-0.6,0.6s-0.6-0.3-0.6-0.6S16.4,53.2,16.7,53.2z
		 M19.7,52.4c0.6,0.8,1.4,1.3,2.5,1.3c1.3,0,2.2-0.9,2.2-2.2c0-1.4-0.9-2.2-2.2-2.2c-0.8,0-1.5,0.3-2.2,0.9L19.4,50v-4.7h5.2V46
		h-4.4v3.5c0.4-0.4,1.2-0.8,2.1-0.8c1.5,0,2.8,1,2.8,2.8s-1.4,2.9-3,2.9c-1.5,0-2.4-0.6-3-1.5L19.7,52.4z"/>
	<path class="st1" d="M0.8,7.5c0.5,0.7,1.4,1.2,2.5,1.2c1.4,0,2.2-0.7,2.2-1.9C5.5,5.5,4.4,5,3.1,5C2.7,5,2.4,5,2.3,5V4.3
		c0.1,0,0.5,0,0.8,0c1.2,0,2.3-0.5,2.3-1.7c0-1.1-1-1.7-2.1-1.7c-1,0-1.7,0.4-2.4,1.1L0.4,1.5C1,0.8,2,0.2,3.3,0.2
		c1.6,0,2.9,0.8,2.9,2.4c0,1.4-1.1,2-1.9,2.1c0.8,0.1,2,0.7,2,2.2s-1.1,2.6-3,2.6c-1.5,0-2.5-0.7-3-1.5L0.8,7.5z M11.4,0.2
		c2.4,0,3.3,2.5,3.3,4.6s-0.9,4.6-3.3,4.6S8.1,6.9,8.1,4.8C8.1,2.7,9,0.2,11.4,0.2z M11.4,0.9C9.5,0.9,8.9,3,8.9,4.8
		s0.6,3.9,2.5,3.9s2.5-2.1,2.5-3.9C13.8,3,13.2,0.9,11.4,0.9z M16.6,8.2c0.3,0,0.6,0.3,0.6,0.6c0,0.3-0.3,0.6-0.6,0.6S16,9.1,16,8.8
		C16,8.5,16.3,8.2,16.6,8.2z M21.9,0.2c2.4,0,3.3,2.5,3.3,4.6s-0.9,4.6-3.3,4.6s-3.3-2.5-3.3-4.6S19.5,0.2,21.9,0.2z M21.9,0.9
		c-1.9,0-2.5,2.1-2.5,3.9s0.6,3.9,2.5,3.9s2.5-2.1,2.5-3.9S23.8,0.9,21.9,0.9z"/>
	<line class="st2" x1="38.1" y1="185.6" x2="400" y2="185.6"/>
	<line class="st3" x1="38.1" y1="140.6" x2="400" y2="140.6"/>
	<line class="st3" x1="38.1" y1="95.6" x2="400" y2="95.6"/>
	<line class="st3" x1="38.1" y1="50.6" x2="400" y2="50.6"/>
	<line class="st3" x1="38.1" y1="5.6" x2="400" y2="5.6"/>
	<rect x="369.4" y="27.7" class="st4" width="5.9" height="5.9"/>
	<rect x="297.7" y="17.9" class="st4" width="5.9" height="5.9"/>
	<rect x="219.4" y="13.9" class="st4" width="5.9" height="5.9"/>
	<rect x="146.9" y="6.6" class="st4" width="5.9" height="5.9"/>
	<rect x="69.6" y="16.8" class="st4" width="5.9" height="5.9"/>
	<path class="st5" d="M57.8,39v-0.7c3.2-2.6,5.4-4.5,5.4-6.3c0-1.4-1.1-1.9-2.2-1.9c-1.2,0-2.1,0.5-2.6,1.2l-0.6-0.5
		c0.7-0.9,1.8-1.5,3.2-1.5s3,0.8,3,2.7c0,2.1-2.2,4-5,6.2h5v0.7L57.8,39L57.8,39z M67.3,39l4-8.8H66v-0.7h6.2v0.6l-4,8.9
		C68.2,39,67.3,39,67.3,39z M73.3,37.9c0.3,0,0.6,0.3,0.6,0.6s-0.3,0.6-0.6,0.6c-0.3,0-0.6-0.3-0.6-0.6C72.7,38.2,73,37.9,73.3,37.9
		z M76.6,37.4c0.5,0.6,1.1,1.1,2.1,1.1c2.1,0,2.8-2.2,2.8-4.2c0-0.1,0-0.3,0-0.4c-0.4,0.7-1.5,1.6-2.8,1.6c-1.7,0-3.1-1-3.1-3
		c0-1.6,1.2-3,3.2-3c2.6,0,3.5,2.4,3.5,4.9c0,2.4-1,4.9-3.6,4.9c-1.2,0-2-0.5-2.6-1.2L76.6,37.4z M78.8,30.1c-1.6,0-2.4,1.3-2.4,2.3
		c0,1.6,1,2.3,2.4,2.3c1,0,2.1-0.7,2.6-1.6C81.3,31.7,80.6,30.1,78.8,30.1z M85.2,39l4-8.8h-5.3v-0.7h6.2v0.6l-4,8.9
		C86.1,39,85.2,39,85.2,39z"/>
	<path class="st5" d="M132.5,30.2v-0.7c3.2-2.6,5.4-4.5,5.4-6.3c0-1.4-1.1-1.9-2.2-1.9c-1.2,0-2.1,0.5-2.6,1.2l-0.6-0.5
		c0.7-0.9,1.8-1.5,3.2-1.5s3,0.8,3,2.7c0,2.1-2.2,4-5,6.2h5v0.8H132.5z M141.7,28.6c0.5,0.6,1.1,1.1,2.1,1.1c2.1,0,2.8-2.2,2.8-4.2
		c0-0.1,0-0.3,0-0.4c-0.4,0.7-1.5,1.6-2.8,1.6c-1.7,0-3.1-1-3.1-3c0-1.6,1.2-3,3.2-3c2.6,0,3.5,2.4,3.5,4.9c0,2.4-1,4.9-3.6,4.9
		c-1.2,0-2-0.5-2.6-1.2L141.7,28.6z M144,21.3c-1.6,0-2.4,1.3-2.4,2.3c0,1.6,1,2.3,2.4,2.3c1,0,2.1-0.7,2.6-1.6
		C146.5,23,145.8,21.3,144,21.3z M149.7,29.1c0.3,0,0.6,0.3,0.6,0.6s-0.3,0.6-0.6,0.6s-0.6-0.3-0.6-0.6
		C149,29.4,149.3,29.1,149.7,29.1z M152.9,28.6c0.5,0.6,1.1,1.1,2.1,1.1c2.1,0,2.8-2.2,2.8-4.2c0-0.1,0-0.3,0-0.4
		c-0.4,0.7-1.5,1.6-2.8,1.6c-1.7,0-3.1-1-3.1-3c0-1.6,1.2-3,3.2-3c2.6,0,3.5,2.4,3.5,4.9c0,2.4-1,4.9-3.6,4.9c-1.2,0-2-0.5-2.6-1.2
		L152.9,28.6z M155.2,21.3c-1.6,0-2.4,1.3-2.4,2.3c0,1.6,1,2.3,2.4,2.3c1,0,2.1-0.7,2.6-1.6C157.6,23,157,21.3,155.2,21.3z
		 M164.3,20.6c1.2,0,2,0.5,2.6,1.2l-0.5,0.6c-0.5-0.6-1-1.1-2.1-1.1c-2,0-2.8,2.1-2.8,4.2c0,0.1,0,0.3,0,0.4
		c0.4-0.7,1.5-1.6,2.8-1.6c1.7,0,3,1,3,3c0,1.6-1.2,3-3.2,3c-2.6,0-3.5-2.4-3.5-4.9C160.7,23,161.7,20.6,164.3,20.6z M164.1,25.1
		c-1,0-2.1,0.7-2.6,1.6c0.1,1.3,0.8,2.9,2.6,2.9c1.6,0,2.4-1.3,2.4-2.3C166.5,25.8,165.5,25.1,164.1,25.1z"/>
	<path class="st5" d="M205.4,37.7V37c3.2-2.6,5.4-4.5,5.4-6.3c0-1.4-1.1-1.9-2.2-1.9c-1.2,0-2.1,0.5-2.6,1.2l-0.6-0.5
		c0.7-0.9,1.8-1.5,3.2-1.5s3,0.8,3,2.7c0,2.1-2.2,4-5,6.2h5v0.7L205.4,37.7L205.4,37.7z M216.1,32.8c-1.1-0.3-2.2-1-2.2-2.3
		c0-1.7,1.6-2.4,3.1-2.4s3.1,0.8,3.1,2.4c0,1.3-1.1,2-2.2,2.3c1.2,0.3,2.3,1.2,2.3,2.5c0,1.5-1.4,2.5-3.2,2.5s-3.2-1-3.2-2.5
		C213.8,34,214.9,33.1,216.1,32.8z M217,33.2c-0.6,0.1-2.4,0.6-2.4,2.1c0,1.2,1.1,1.9,2.4,1.9c1.2,0,2.4-0.7,2.4-1.9
		C219.4,33.8,217.6,33.2,217,33.2z M217,28.8c-1.3,0-2.2,0.7-2.2,1.8c0,1.3,1.7,1.8,2.2,1.9c0.6-0.1,2.2-0.5,2.2-1.9
		C219.2,29.4,218.2,28.8,217,28.8z M222.7,36.6c0.3,0,0.6,0.3,0.6,0.6s-0.3,0.6-0.6,0.6s-0.6-0.3-0.6-0.6
		C222.1,36.9,222.3,36.6,222.7,36.6z M229.3,37.7v-2.6h-4.5v-0.7l4.2-6.2h1.1v6.2h1.4v0.7h-1.4v2.6H229.3z M229.3,29l-3.7,5.4h3.7
		V29z M233.9,36c0.5,0.6,1.1,1.1,2.1,1.1c2.1,0,2.8-2.2,2.8-4.2c0-0.1,0-0.3,0-0.4c-0.4,0.7-1.5,1.6-2.8,1.6c-1.7,0-3.1-1-3.1-3
		c0-1.6,1.2-3,3.2-3c2.6,0,3.5,2.4,3.5,4.9c0,2.4-1,4.9-3.6,4.9c-1.2,0-2-0.5-2.6-1.2L233.9,36z M236.1,28.8c-1.6,0-2.4,1.3-2.4,2.3
		c0,1.6,1,2.3,2.4,2.3c1,0,2.1-0.7,2.6-1.6C238.6,30.4,237.9,28.8,236.1,28.8z"/>
	<path class="st5" d="M284.5,40.1v-0.7c3.2-2.6,5.4-4.5,5.4-6.3c0-1.4-1.1-1.9-2.2-1.9c-1.2,0-2.1,0.5-2.6,1.2l-0.6-0.5
		c0.7-0.9,1.8-1.5,3.2-1.5c1.4,0,3,0.8,3,2.7c0,2.1-2.2,4-5,6.2h5V40L284.5,40.1L284.5,40.1z M294,40.1l4-8.8h-5.3v-0.7h6.2v0.6
		l-4,8.9H294z M300,39c0.3,0,0.6,0.3,0.6,0.6s-0.3,0.6-0.6,0.6s-0.6-0.3-0.6-0.6C299.4,39.2,299.7,39,300,39z M303.4,40.1l4-8.8
		h-5.3v-0.7h6.2v0.6l-4,8.9H303.4z M312.6,35.2c-1.1-0.3-2.2-1-2.2-2.3c0-1.7,1.6-2.4,3.1-2.4s3.1,0.8,3.1,2.4c0,1.3-1.1,2-2.2,2.3
		c1.2,0.3,2.3,1.2,2.3,2.5c0,1.5-1.4,2.5-3.2,2.5c-1.8,0-3.2-1-3.2-2.5C310.2,36.4,311.4,35.5,312.6,35.2z M313.5,35.5
		c-0.6,0.1-2.4,0.6-2.4,2.1c0,1.2,1.1,1.9,2.4,1.9c1.2,0,2.4-0.7,2.4-1.9C315.9,36.2,314,35.6,313.5,35.5z M313.5,31.2
		c-1.3,0-2.2,0.7-2.2,1.8c0,1.3,1.7,1.8,2.2,1.9c0.6-0.1,2.2-0.5,2.2-1.9C315.7,31.8,314.7,31.2,313.5,31.2z"/>
	<path class="st6" d="M353.9,21.4v-1.6c3.9-2.9,5-3.8,5-5c0-0.8-0.8-1.2-1.5-1.2c-1.1,0-1.9,0.4-2.5,1.1l-1.2-1.3
		c0.9-1.1,2.3-1.6,3.7-1.6c2,0,3.6,1.1,3.6,3c0,1.6-1.3,3-3.8,4.8h3.9v1.8H353.9z M362.6,20.2l1.1-1.4c0.6,0.7,1.5,1,2.5,1
		c1.1,0,1.8-0.6,1.8-1.4c0-0.8-0.6-1.4-1.7-1.4c-0.8,0-1.4,0.2-2,0.8l-1.4-0.4V12h6.5v1.8h-4.5v2.3c0.5-0.5,1.2-0.8,2.1-0.8
		c1.6,0,3,1.2,3,3.1c0,2-1.5,3.3-3.8,3.3C364.6,21.6,363.4,21,362.6,20.2z M371.2,20.4c0-0.6,0.5-1.2,1.2-1.2s1.2,0.5,1.2,1.2
		c0,0.6-0.5,1.2-1.2,1.2S371.2,21,371.2,20.4z M375,20.2l1.1-1.4c0.6,0.7,1.5,1,2.5,1c1.1,0,1.8-0.6,1.8-1.4c0-0.8-0.6-1.4-1.7-1.4
		c-0.8,0-1.4,0.2-2,0.8l-1.4-0.4V12h6.5v1.8h-4.5v2.3c0.5-0.5,1.2-0.8,2.1-0.8c1.6,0,3,1.2,3,3.1c0,2-1.5,3.3-3.8,3.3
		C377,21.6,375.8,21,375,20.2z M383.9,21.4v-1.6c3.9-2.9,5-3.8,5-5c0-0.8-0.8-1.2-1.5-1.2c-1.1,0-1.9,0.4-2.5,1.1l-1.2-1.3
		c0.9-1.1,2.3-1.6,3.7-1.6c2,0,3.6,1.1,3.6,3c0,1.6-1.3,3-3.8,4.8h3.9v1.8H383.9z"/>
	<path class="st1" d="M343.1,205.1v-1.5c3.6-2.7,4.7-3.6,4.7-4.7c0-0.8-0.7-1.2-1.4-1.2c-1,0-1.8,0.4-2.4,1l-1.1-1.3
		c0.9-1,2.2-1.5,3.4-1.5c1.9,0,3.4,1.1,3.4,2.8c0,1.5-1.3,2.8-3.6,4.5h3.6v1.7h-6.6V205.1z M351,200.7c0-2.3,1.1-4.6,3.7-4.6
		s3.7,2.3,3.7,4.6s-1.1,4.6-3.7,4.6S351,203,351,200.7z M356.4,200.7c0-1.6-0.5-2.9-1.8-2.9s-1.8,1.3-1.8,2.9c0,1.6,0.5,2.9,1.8,2.9
		C356,203.6,356.4,202.3,356.4,200.7z M359.5,205.1v-1.5c3.6-2.7,4.7-3.6,4.7-4.7c0-0.8-0.7-1.2-1.4-1.2c-1,0-1.8,0.4-2.4,1
		l-1.1-1.3c0.9-1,2.2-1.5,3.4-1.5c1.9,0,3.4,1.1,3.4,2.8c0,1.5-1.3,2.8-3.6,4.5h3.6v1.7h-6.6V205.1z M370.6,205.1v-6.5l-1.5,1.5
		L368,199l2.8-2.8h1.7v8.9L370.6,205.1L370.6,205.1z M374.9,202.6v-1.4h3.2v1.4H374.9z M379.1,205.1v-1.5c3.6-2.7,4.7-3.6,4.7-4.7
		c0-0.8-0.7-1.2-1.4-1.2c-1,0-1.8,0.4-2.4,1l-1.1-1.3c0.9-1,2.2-1.5,3.4-1.5c1.9,0,3.4,1.1,3.4,2.8c0,1.5-1.3,2.8-3.6,4.5h3.6v1.7
		h-6.6V205.1z M387.3,205.1v-1.5c3.6-2.7,4.7-3.6,4.7-4.7c0-0.8-0.7-1.2-1.4-1.2c-1,0-1.8,0.4-2.4,1l-1.1-1.3c0.9-1,2.2-1.5,3.4-1.5
		c1.9,0,3.4,1.1,3.4,2.8c0,1.5-1.3,2.8-3.6,4.5h3.6v1.7h-6.6V205.1z"/>
	<path class="st1" d="M269,205.1v-0.6c3-2.4,5.1-4.2,5.1-5.9c0-1.3-1.1-1.8-2-1.8c-1.1,0-2,0.5-2.4,1.2l-0.5-0.5
		c0.6-0.9,1.7-1.4,3-1.4s2.8,0.7,2.8,2.5c0,2-2.1,3.8-4.7,5.8h4.7v0.7H269z M280,196.1c2.4,0,3.3,2.5,3.3,4.6s-0.9,4.6-3.3,4.6
		s-3.3-2.5-3.3-4.6C276.7,198.5,277.6,196.1,280,196.1z M280,196.8c-1.9,0-2.5,2.1-2.5,3.9c0,1.8,0.6,3.9,2.5,3.9s2.5-2.1,2.5-3.9
		C282.4,198.8,281.8,196.8,280,196.8z M284.7,205.1v-0.6c3-2.4,5.1-4.2,5.1-5.9c0-1.3-1.1-1.8-2-1.8c-1.1,0-2,0.5-2.4,1.2l-0.5-0.5
		c0.6-0.9,1.7-1.4,3-1.4s2.8,0.7,2.8,2.5c0,2-2.1,3.8-4.7,5.8h4.7v0.7H284.7z M295.7,196.1c2.4,0,3.3,2.5,3.3,4.6s-0.9,4.6-3.3,4.6
		s-3.3-2.5-3.3-4.6C292.4,198.5,293.3,196.1,295.7,196.1z M295.7,196.8c-1.9,0-2.5,2.1-2.5,3.9c0,1.8,0.6,3.9,2.5,3.9
		s2.5-2.1,2.5-3.9C298.2,198.8,297.6,196.8,295.7,196.8z M300.7,202.2v-0.6h3.2v0.6H300.7z M304.9,205.1v-0.6c3-2.4,5.1-4.2,5.1-5.9
		c0-1.3-1.1-1.8-2-1.8c-1.1,0-2,0.5-2.4,1.2l-0.5-0.5c0.6-0.9,1.7-1.4,3-1.4s2.8,0.7,2.8,2.5c0,2-2.1,3.8-4.7,5.8h4.7v0.7H304.9z
		 M315.8,205.1v-7.9l-2.1,2.3l-0.5-0.5l2.7-2.8h0.7v8.9H315.8z"/>
	<path class="st1" d="M194.5,205.1v-0.6c3-2.4,5.1-4.2,5.1-5.9c0-1.3-1.1-1.8-2-1.8c-1.1,0-2,0.5-2.4,1.2l-0.5-0.5
		c0.6-0.9,1.7-1.4,3-1.4s2.8,0.7,2.8,2.5c0,2-2.1,3.8-4.7,5.8h4.7v0.7H194.5z M205.5,196.1c2.4,0,3.3,2.5,3.3,4.6s-0.9,4.6-3.3,4.6
		c-2.4,0-3.3-2.5-3.3-4.6C202.2,198.5,203.1,196.1,205.5,196.1z M205.5,196.8c-1.9,0-2.5,2.1-2.5,3.9c0,1.8,0.6,3.9,2.5,3.9
		s2.5-2.1,2.5-3.9C208,198.8,207.4,196.8,205.5,196.8z M213.5,205.1v-7.9l-2.1,2.3l-0.5-0.5l2.7-2.8h0.7v8.9H213.5z M218.1,203.6
		c0.4,0.6,1,1,2,1c2,0,2.6-2,2.6-3.9c0-0.1,0-0.3,0-0.4c-0.4,0.6-1.4,1.5-2.6,1.5c-1.6,0-2.9-0.9-2.9-2.8c0-1.5,1.1-2.8,3-2.8
		c2.4,0,3.3,2.2,3.3,4.6c0,2.3-1,4.6-3.4,4.6c-1.2,0-1.9-0.5-2.4-1.1L218.1,203.6z M220.3,196.7c-1.5,0-2.2,1.2-2.2,2.1
		c0,1.5,0.9,2.2,2.2,2.2c1,0,1.9-0.6,2.4-1.5C222.6,198.3,221.9,196.7,220.3,196.7z M225.3,202.2v-0.6h3.2v0.6H225.3z M229.6,205.1
		v-0.6c3-2.4,5.1-4.2,5.1-5.9c0-1.3-1.1-1.8-2-1.8c-1.1,0-2,0.5-2.4,1.2l-0.5-0.5c0.6-0.9,1.7-1.4,3-1.4s2.8,0.7,2.8,2.5
		c0,2-2.1,3.8-4.7,5.8h4.7v0.7H229.6z M240.5,196.1c2.4,0,3.3,2.5,3.3,4.6s-0.9,4.6-3.3,4.6c-2.4,0-3.3-2.5-3.3-4.6
		C237.2,198.5,238.1,196.1,240.5,196.1z M240.5,196.8c-1.9,0-2.5,2.1-2.5,3.9c0,1.8,0.6,3.9,2.5,3.9s2.5-2.1,2.5-3.9
		C243,198.8,242.4,196.8,240.5,196.8z"/>
	<path class="st1" d="M120.4,205.1v-0.6c3-2.4,5.1-4.2,5.1-5.9c0-1.3-1.1-1.8-2-1.8c-1.1,0-2,0.5-2.4,1.2l-0.5-0.5
		c0.6-0.9,1.7-1.4,3-1.4s2.8,0.7,2.8,2.5c0,2-2.1,3.8-4.7,5.8h4.7v0.7H120.4z M131.4,196.1c2.4,0,3.3,2.5,3.3,4.6s-0.9,4.6-3.3,4.6
		c-2.4,0-3.3-2.5-3.3-4.6C128,198.5,129,196.1,131.4,196.1z M131.4,196.8c-1.9,0-2.5,2.1-2.5,3.9c0,1.8,0.6,3.9,2.5,3.9
		s2.5-2.1,2.5-3.9C133.8,198.8,133.2,196.8,131.4,196.8z M139.4,205.1v-7.9l-2.1,2.3l-0.5-0.5l2.7-2.8h0.7v8.9H139.4z M145.5,200.5
		c-1.1-0.3-2.1-1-2.1-2.2c0-1.6,1.5-2.3,2.9-2.3s2.9,0.7,2.9,2.3c0,1.2-1,1.9-2.1,2.2c1.1,0.3,2.2,1.1,2.2,2.4c0,1.4-1.3,2.4-3,2.4
		s-3-0.9-3-2.4C143.3,201.6,144.4,200.8,145.5,200.5z M146.3,200.9c-0.5,0.1-2.3,0.6-2.3,2c0,1.1,1.1,1.8,2.3,1.8s2.3-0.7,2.3-1.8
		C148.6,201.5,146.8,200.9,146.3,200.9z M146.3,196.8c-1.2,0-2.1,0.6-2.1,1.7c0,1.2,1.6,1.6,2.1,1.8c0.5-0.1,2.1-0.5,2.1-1.8
		C148.4,197.4,147.5,196.8,146.3,196.8z M151.1,202.2v-0.6h3.2v0.6H151.1z M158.3,205.1v-7.9l-2.1,2.3l-0.5-0.5l2.7-2.8h0.7v8.9
		H158.3z M162.9,203.6c0.4,0.6,1,1,2,1c2,0,2.6-2,2.6-3.9c0-0.1,0-0.3,0-0.4c-0.4,0.6-1.4,1.5-2.6,1.5c-1.6,0-2.9-0.9-2.9-2.8
		c0-1.5,1.1-2.8,3-2.8c2.4,0,3.3,2.2,3.3,4.6c0,2.3-1,4.6-3.4,4.6c-1.2,0-1.9-0.5-2.4-1.1L162.9,203.6z M165.1,196.7
		c-1.5,0-2.2,1.2-2.2,2.1c0,1.5,0.9,2.2,2.2,2.2c1,0,1.9-0.6,2.4-1.5C167.4,198.3,166.7,196.7,165.1,196.7z"/>
	<path class="st1" d="M46.2,205.1v-0.6c3-2.4,5.1-4.2,5.1-5.9c0-1.3-1.1-1.8-2-1.8c-1.1,0-2,0.5-2.4,1.2l-0.5-0.5
		c0.6-0.9,1.7-1.4,3-1.4s2.8,0.7,2.8,2.5c0,2-2.1,3.8-4.7,5.8h4.7v0.7H46.2z M57.2,196.1c2.4,0,3.3,2.5,3.3,4.6s-0.9,4.6-3.3,4.6
		s-3.3-2.5-3.3-4.6C53.9,198.5,54.8,196.1,57.2,196.1z M57.2,196.8c-1.9,0-2.5,2.1-2.5,3.9c0,1.8,0.6,3.9,2.5,3.9s2.5-2.1,2.5-3.9
		C59.7,198.8,59.1,196.8,57.2,196.8z M65.2,205.1v-7.9l-2.1,2.3l-0.5-0.5l2.7-2.8H66v8.9H65.2z M70.2,205.1l3.8-8.2h-5v-0.7h5.8v0.5
		l-3.8,8.4H70.2z M75.8,202.2v-0.6H79v0.6H75.8z M83,205.1v-7.9l-2.1,2.3l-0.5-0.5l2.7-2.8h0.7v8.9H83z M89.1,200.5
		c-1.1-0.3-2.1-1-2.1-2.2c0-1.6,1.5-2.3,2.9-2.3s2.9,0.7,2.9,2.3c0,1.2-1,1.9-2.1,2.2c1.1,0.3,2.2,1.1,2.2,2.4c0,1.4-1.3,2.4-3,2.4
		s-3-0.9-3-2.4C86.9,201.6,88,200.8,89.1,200.5z M89.9,200.9c-0.5,0.1-2.3,0.6-2.3,2c0,1.1,1.1,1.8,2.3,1.8c1.2,0,2.3-0.7,2.3-1.8
		C92.2,201.5,90.5,200.9,89.9,200.9z M89.9,196.8c-1.2,0-2.1,0.6-2.1,1.7c0,1.2,1.6,1.6,2.1,1.8c0.5-0.1,2.1-0.5,2.1-1.8
		C92.1,197.4,91.1,196.8,89.9,196.8z"/>
</g>
</svg>
