<?xml version="1.0" encoding="utf-8"?>
<!-- Generator: Adobe Illustrator 26.4.0, SVG Export Plug-In . SVG Version: 6.00 Build 0)  -->
<svg version="1.1" id="Layer_1" xmlns="http://www.w3.org/2000/svg" xmlns:xlink="http://www.w3.org/1999/xlink" x="0px" y="0px"
	 viewBox="0 0 400 205.2" style="enable-background:new 0 0 400 205.2;" xml:space="preserve">
<style type="text/css">
	.st0{clip-path:url(#SVGID_00000092429716142368513710000009044021030002147725_);fill:#DEECC2;}
	.st1{fill:#010101;}
	.st2{fill:none;stroke:#010101;stroke-width:0.25;}
	.st3{fill:none;stroke:#939598;stroke-width:0.25;stroke-dasharray:0.75,0.5;}
	.st4{fill:#9FCC3B;}
	.st5{fill:#4E4E50;}
	.st6{fill:#076AAA;}
</style>
<g>
	<g>
		<g>
			<g>
				<defs>
					<rect id="SVGID_1_" x="55.6" y="12.8" width="333.9" height="174.6"/>
				</defs>
				<clipPath id="SVGID_00000025435809556827914060000008087691996485246117_">
					<use xlink:href="#SVGID_1_"  style="overflow:visible;"/>
				</clipPath>
				<polygon style="clip-path:url(#SVGID_00000025435809556827914060000008087691996485246117_);fill:#DEECC2;" points="71.6,185.6 
					72.5,35.4 144.9,25.2 222.6,25.2 295.1,32.3 372.8,40.5 373.5,185.6 				"/>
			</g>
		</g>
	</g>
	<path class="st1" d="M3.3,180c2.4,0,3.3,2.5,3.3,4.6s-0.9,4.6-3.3,4.6S0,186.7,0,184.6C0,182.5,0.9,180,3.3,180z M3.3,180.7
		c-1.9,0-2.5,2.1-2.5,3.9c0,1.8,0.6,3.9,2.5,3.9s2.5-2.1,2.5-3.9C5.8,182.7,5.2,180.7,3.3,180.7z"/>
	<path class="st1" d="M0.3,117v-0.6c3-2.4,5.1-4.2,5.1-5.9c0-1.3-1.1-1.8-2-1.8c-1.1,0-2,0.5-2.4,1.2l-0.5-0.5
		c0.6-0.9,1.7-1.4,3-1.4s2.8,0.7,2.8,2.5c0,2-2.1,3.8-4.7,5.8h4.7v0.7L0.3,117L0.3,117z M11.7,117v-2.4H7.5v-0.7l4-5.8h1v5.8h1.3
		v0.7h-1.3v2.4H11.7z M11.7,108.9l-3.4,5h3.4C11.7,113.9,11.7,108.9,11.7,108.9z"/>
	<path class="st1" d="M3.6,153v-7.9l-2.1,2.3L1,146.9l2.7-2.8h0.7v8.9L3.6,153L3.6,153z M7.4,153v-0.6c3-2.4,5.1-4.2,5.1-5.9
		c0-1.3-1.1-1.8-2-1.8c-1.1,0-2,0.5-2.4,1.2l-0.5-0.5c0.6-0.9,1.7-1.4,3-1.4s2.8,0.7,2.8,2.5c0,2-2.1,3.8-4.7,5.8h4.7v0.7H7.4z"/>
	<path class="st1" d="M0.8,79.3c0.5,0.7,1.4,1.2,2.5,1.2c1.4,0,2.2-0.7,2.2-1.9c0-1.3-1.1-1.8-2.4-1.8c-0.4,0-0.7,0-0.8,0v-0.7
		c0.1,0,0.5,0,0.8,0c1.2,0,2.3-0.5,2.3-1.7c0-1.1-1-1.7-2.1-1.7c-1,0-1.7,0.4-2.4,1.1l-0.5-0.5C1,72.6,2,72,3.3,72
		c1.6,0,2.9,0.8,2.9,2.4c0,1.4-1.1,2-1.9,2.1c0.8,0.1,2,0.7,2,2.2s-1.1,2.6-3,2.6c-1.5,0-2.5-0.7-3-1.5L0.8,79.3z M11.6,72
		c1.2,0,1.9,0.5,2.4,1.1l-0.4,0.6c-0.4-0.6-1-1-2-1c-1.9,0-2.6,2-2.6,3.9c0,0.1,0,0.3,0,0.4c0.4-0.6,1.4-1.5,2.6-1.5
		c1.6,0,2.9,0.9,2.9,2.8c0,1.5-1.1,2.8-3,2.8c-2.4,0-3.3-2.2-3.3-4.6C8.2,74.3,9.1,72,11.6,72z M11.4,76.2c-1,0-1.9,0.6-2.4,1.5
		c0.1,1.2,0.7,2.8,2.4,2.8c1.5,0,2.2-1.2,2.2-2.1C13.7,76.9,12.7,76.2,11.4,76.2z"/>
	<path class="st1" d="M4.4,45v-2.4H0.1v-0.7l4-5.8h1v5.8h1.3v0.7H5.1V45H4.4z M4.4,36.9l-3.4,5h3.4V36.9z M10.6,40.4
		c-1.1-0.3-2.1-1-2.1-2.2c0-1.6,1.5-2.3,2.9-2.3s2.9,0.7,2.9,2.3c0,1.2-1,1.9-2.1,2.2c1.1,0.3,2.2,1.1,2.2,2.4c0,1.4-1.3,2.4-3,2.4
		s-3-0.9-3-2.4C8.3,41.6,9.4,40.7,10.6,40.4z M11.4,40.8c-0.5,0.1-2.3,0.6-2.3,2c0,1.1,1.1,1.8,2.3,1.8s2.3-0.7,2.3-1.8
		C13.6,41.4,11.9,40.9,11.4,40.8z M11.4,36.7c-1.2,0-2.1,0.6-2.1,1.7c0,1.2,1.6,1.6,2.1,1.8c0.5-0.1,2.1-0.5,2.1-1.8
		C13.5,37.3,12.5,36.7,11.4,36.7z"/>
	<path class="st1" d="M3.6,0C4.8,0,5.5,0.5,6,1.1L5.6,1.7c-0.4-0.6-1-1-2-1C1.7,0.7,1,2.7,1,4.6C1,4.7,1,4.9,1,5
		c0.4-0.6,1.4-1.5,2.6-1.5c1.6,0,2.9,0.9,2.9,2.8c0,1.5-1.1,2.8-3,2.8c-2.4,0-3.3-2.2-3.3-4.6C0.2,2.3,1.2,0,3.6,0z M3.5,4.2
		c-1,0-1.9,0.6-2.4,1.5c0.1,1.2,0.7,2.8,2.4,2.8c1.5,0,2.2-1.2,2.2-2.1C5.7,4.9,4.8,4.2,3.5,4.2z M11.5,0c2.4,0,3.3,2.5,3.3,4.6
		s-0.9,4.6-3.3,4.6S8.2,6.7,8.2,4.6S9.1,0,11.5,0z M11.5,0.7C9.6,0.7,9,2.8,9,4.6s0.6,3.9,2.5,3.9S14,6.4,14,4.6
		C14,2.7,13.4,0.7,11.5,0.7z"/>
	<line class="st2" x1="38.1" y1="185.4" x2="400" y2="185.4"/>
	<line class="st3" x1="38.1" y1="149.4" x2="400" y2="149.4"/>
	<line class="st3" x1="38.1" y1="113.4" x2="400" y2="113.4"/>
	<line class="st3" x1="38.1" y1="41.4" x2="400" y2="41.4"/>
	<line class="st3" x1="38.1" y1="77.4" x2="400" y2="77.4"/>
	<line class="st3" x1="38.1" y1="5.4" x2="400" y2="5.4"/>
	<rect x="69.6" y="32.5" class="st4" width="5.9" height="5.9"/>
	<rect x="141.4" y="21.8" class="st4" width="5.9" height="5.9"/>
	<rect x="219.6" y="22.3" class="st4" width="5.9" height="5.9"/>
	<rect x="292.2" y="28.6" class="st4" width="5.9" height="5.9"/>
	<rect x="369.4" y="37.5" class="st4" width="5.9" height="5.9"/>
	<path class="st5" d="M59.9,26.5V24h-4.5v-0.7l4.2-6.2h1.1v6.2h1.4V24h-1.4v2.6L59.9,26.5L59.9,26.5z M59.9,17.9l-3.7,5.4h3.7V17.9z
		 M64.5,24.9c0.5,0.6,1.1,1.1,2.1,1.1c2.1,0,2.8-2.2,2.8-4.2c0-0.1,0-0.3,0-0.4C69,22.1,67.9,23,66.6,23c-1.7,0-3.1-1-3.1-3
		c0-1.6,1.2-3,3.2-3c2.6,0,3.5,2.4,3.5,4.9c0,2.4-1,4.9-3.6,4.9c-1.2,0-2-0.5-2.6-1.2L64.5,24.9z M66.7,17.6c-1.6,0-2.4,1.3-2.4,2.3
		c0,1.6,1,2.3,2.4,2.3c1,0,2.1-0.7,2.6-1.6C69.2,19.3,68.5,17.6,66.7,17.6z M72.4,25.4c0.3,0,0.6,0.3,0.6,0.6s-0.3,0.6-0.6,0.6
		c-0.3,0-0.6-0.3-0.6-0.6S72,25.4,72.4,25.4z M75.6,24.9c0.5,0.6,1.1,1.1,2.1,1.1c2.1,0,2.8-2.2,2.8-4.2c0-0.1,0-0.3,0-0.4
		C80.1,22.1,79,23,77.7,23c-1.7,0-3.1-1-3.1-3c0-1.6,1.2-3,3.2-3c2.6,0,3.5,2.4,3.5,4.9c0,2.4-1,4.9-3.6,4.9c-1.2,0-2-0.5-2.6-1.2
		L75.6,24.9z M77.9,17.6c-1.6,0-2.4,1.3-2.4,2.3c0,1.6,1,2.3,2.4,2.3c1,0,2.1-0.7,2.6-1.6C80.4,19.3,79.7,17.6,77.9,17.6z
		 M83.1,26.5v-0.7c3.2-2.6,5.4-4.5,5.4-6.3c0-1.4-1.1-1.9-2.2-1.9c-1.2,0-2.1,0.5-2.6,1.2l-0.6-0.5c0.7-0.9,1.8-1.5,3.2-1.5
		c1.4,0,3,0.8,3,2.7c0,2.1-2.2,4-5,6.2h5v0.7L83.1,26.5L83.1,26.5z"/>
	<path class="st5" d="M128.4,13.6c0.6,0.9,1.4,1.4,2.7,1.4c1.4,0,2.4-1,2.4-2.3c0-1.4-1-2.3-2.4-2.3c-0.9,0-1.6,0.3-2.3,0.9
		l-0.6-0.3V6h5.5v0.7H129v3.7c0.5-0.5,1.3-0.9,2.3-0.9c1.6,0,3,1.1,3,3s-1.5,3.1-3.2,3.1c-1.6,0-2.6-0.6-3.2-1.6L128.4,13.6z
		 M136.8,13.6c0.5,0.8,1.5,1.3,2.7,1.3c1.5,0,2.4-0.8,2.4-2c0-1.4-1.1-1.9-2.5-1.9c-0.4,0-0.7,0-0.9,0v-0.8c0.1,0,0.5,0,0.9,0
		c1.3,0,2.4-0.5,2.4-1.8c0-1.2-1.1-1.8-2.3-1.8c-1.1,0-1.9,0.4-2.5,1.2l-0.5-0.5c0.7-0.8,1.7-1.4,3.1-1.4c1.7,0,3.1,0.9,3.1,2.5
		c0,1.5-1.2,2.1-2,2.2c0.8,0.1,2.2,0.8,2.2,2.4s-1.2,2.7-3.2,2.7c-1.6,0-2.7-0.7-3.2-1.6L136.8,13.6z M145.1,14.4
		c0.3,0,0.6,0.3,0.6,0.6c0,0.3-0.3,0.6-0.6,0.6s-0.6-0.3-0.6-0.6C144.5,14.7,144.8,14.4,145.1,14.4z M151,5.9c1.2,0,2,0.5,2.6,1.2
		l-0.5,0.6c-0.5-0.6-1-1.1-2.1-1.1c-2,0-2.8,2.1-2.8,4.2c0,0.1,0,0.3,0,0.4c0.4-0.7,1.5-1.6,2.8-1.6c1.7,0,3,1,3,3
		c0,1.6-1.2,3-3.2,3c-2.6,0-3.5-2.4-3.5-4.9C147.3,8.3,148.3,5.9,151,5.9z M150.8,10.4c-1,0-2.1,0.7-2.6,1.6
		c0.1,1.3,0.8,2.9,2.6,2.9c1.6,0,2.4-1.3,2.4-2.3C153.2,11.1,152.2,10.4,150.8,10.4z M158.3,10.6c-1.1-0.3-2.2-1-2.2-2.3
		c0-1.7,1.6-2.4,3.1-2.4s3.1,0.8,3.1,2.4c0,1.3-1.1,2-2.2,2.3c1.2,0.3,2.3,1.2,2.3,2.5c0,1.5-1.4,2.5-3.2,2.5s-3.2-1-3.2-2.5
		C156,11.8,157.1,10.9,158.3,10.6z M159.2,11c-0.6,0.1-2.4,0.6-2.4,2.1c0,1.2,1.1,1.9,2.4,1.9c1.2,0,2.4-0.7,2.4-1.9
		C161.6,11.6,159.8,11,159.2,11z M159.2,6.6c-1.3,0-2.2,0.7-2.2,1.8c0,1.3,1.7,1.8,2.2,1.9c0.6-0.1,2.2-0.5,2.2-1.9
		C161.4,7.3,160.4,6.6,159.2,6.6z"/>
	<path class="st5" d="M206.4,14.9c0.6,0.9,1.4,1.4,2.7,1.4c1.4,0,2.4-1,2.4-2.3c0-1.4-1-2.3-2.4-2.3c-0.9,0-1.6,0.3-2.3,0.9
		l-0.6-0.3v-5h5.5V8H207v3.7c0.5-0.5,1.3-0.9,2.3-0.9c1.6,0,3,1.1,3,3s-1.5,3.1-3.2,3.1c-1.6,0-2.6-0.6-3.2-1.6L206.4,14.9z
		 M214.7,14.9c0.5,0.8,1.5,1.3,2.7,1.3c1.5,0,2.4-0.8,2.4-2c0-1.4-1.1-1.9-2.5-1.9c-0.4,0-0.7,0-0.9,0v-0.8c0.1,0,0.5,0,0.9,0
		c1.3,0,2.4-0.5,2.4-1.8c0-1.2-1.1-1.8-2.3-1.8c-1.1,0-1.9,0.4-2.5,1.2l-0.5-0.5c0.7-0.8,1.7-1.4,3.1-1.4c1.7,0,3.1,0.9,3.1,2.5
		c0,1.5-1.2,2.1-2,2.2c0.8,0.1,2.2,0.8,2.2,2.4s-1.2,2.7-3.2,2.7c-1.6,0-2.7-0.7-3.2-1.6L214.7,14.9z M223.1,15.7
		c0.3,0,0.6,0.3,0.6,0.6s-0.3,0.6-0.6,0.6s-0.6-0.3-0.6-0.6C222.4,15.9,222.7,15.7,223.1,15.7z M226.2,14.9c0.6,0.9,1.4,1.4,2.7,1.4
		c1.4,0,2.4-1,2.4-2.3c0-1.4-1-2.3-2.4-2.3c-0.9,0-1.6,0.3-2.3,0.9l-0.6-0.3v-5h5.5V8h-4.7v3.7c0.5-0.5,1.3-0.9,2.3-0.9
		c1.6,0,3,1.1,3,3s-1.5,3.1-3.2,3.1c-1.6,0-2.6-0.6-3.2-1.6L226.2,14.9z M236.3,16.8V8.4l-2.2,2.4l-0.5-0.5l2.8-3h0.7v9.5H236.3z"/>
	<path class="st5" d="M279.3,21.2c0.6,0.9,1.4,1.4,2.7,1.4c1.4,0,2.4-1,2.4-2.3c0-1.4-1-2.3-2.4-2.3c-0.9,0-1.6,0.3-2.3,0.9
		l-0.6-0.3v-5h5.5v0.7h-4.7V18c0.5-0.5,1.3-0.9,2.3-0.9c1.6,0,3,1.1,3,3s-1.5,3.1-3.2,3.1c-1.6,0-2.6-0.6-3.2-1.6L279.3,21.2z
		 M289.4,23.1v-8.4l-2.2,2.4l-0.5-0.5l2.8-3h0.7v9.5H289.4z M294.1,22c0.3,0,0.6,0.3,0.6,0.6s-0.3,0.6-0.6,0.6s-0.6-0.3-0.6-0.6
		S293.7,22,294.1,22z M296.8,23.1v-0.7c3.2-2.6,5.4-4.5,5.4-6.3c0-1.4-1.1-1.9-2.2-1.9c-1.2,0-2.1,0.5-2.6,1.2l-0.6-0.5
		c0.7-0.9,1.8-1.5,3.2-1.5c1.4,0,3,0.8,3,2.7c0,2.1-2.2,4-5,6.2h5V23L296.8,23.1L296.8,23.1z M308.7,13.5c1.2,0,2,0.5,2.6,1.2
		l-0.5,0.6c-0.5-0.6-1-1.1-2.1-1.1c-2,0-2.8,2.1-2.8,4.2c0,0.1,0,0.3,0,0.4c0.4-0.7,1.5-1.6,2.8-1.6c1.7,0,3,1,3,3
		c0,1.6-1.2,3-3.2,3c-2.6,0-3.5-2.4-3.5-4.9C305.1,16,306.1,13.5,308.7,13.5z M308.5,18c-1,0-2.1,0.7-2.6,1.6
		c0.1,1.3,0.8,2.9,2.6,2.9c1.6,0,2.4-1.3,2.4-2.3C310.9,18.7,309.9,18,308.5,18z"/>
	<path class="st6" d="M357.7,32.2v-2h-4.5v-1.6l3.8-5.9h2.8v5.8h1.2v1.8h-1.2v2L357.7,32.2L357.7,32.2z M357.7,24.5l-2.6,4h2.6V24.5
		z M362.3,29.8c0-1.2,0.9-2,2-2.4c-1.1-0.4-1.9-1.1-1.9-2.2c0-1.8,1.9-2.5,3.7-2.5c1.8,0,3.7,0.7,3.7,2.5c0,1.2-0.8,1.9-1.9,2.2
		c1.1,0.4,2,1.3,2,2.4c0,1.8-1.8,2.6-3.8,2.6C364.1,32.4,362.3,31.5,362.3,29.8z M367.9,29.5c0-0.8-1.2-1.2-1.8-1.2
		c-0.6,0.1-1.8,0.5-1.8,1.2s0.8,1.1,1.8,1.1S367.9,30.2,367.9,29.5z M367.7,25.4c0-0.7-0.7-1.1-1.6-1.1s-1.6,0.4-1.6,1.1
		c0,0.7,1,1,1.6,1.1C366.7,26.4,367.7,26.1,367.7,25.4z M371.2,31.2c0-0.6,0.5-1.2,1.2-1.2s1.2,0.5,1.2,1.2s-0.5,1.2-1.2,1.2
		S371.2,31.9,371.2,31.2z M379.3,32.2v-2h-4.5v-1.6l3.8-5.9h2.8v5.8h1.2v1.8h-1.2v2L379.3,32.2L379.3,32.2z M379.3,24.5l-2.6,4h2.6
		V24.5z M383.8,27.5c0-2.9,1.6-4.9,4.4-4.9c1.2,0,2.1,0.4,2.8,1l-0.9,1.6c-0.5-0.5-1.1-0.7-1.9-0.7c-1.4,0-2.4,1.2-2.4,2.7
		c0,0.1,0,0.1,0,0.2c0.4-0.6,1.4-1.2,2.4-1.2c1.7,0,3.2,1.1,3.2,3.1c0,1.9-1.5,3.3-3.6,3.3C385,32.4,383.8,30.2,383.8,27.5z
		 M389.5,29.2c0-1-0.9-1.4-1.8-1.4c-0.7,0-1.4,0.3-1.9,0.9c0.1,0.9,0.6,1.9,1.9,1.9C388.9,30.6,389.5,29.9,389.5,29.2z"/>
	<path class="st1" d="M343.1,204.9v-1.5c3.6-2.7,4.7-3.6,4.7-4.7c0-0.8-0.7-1.2-1.4-1.2c-1,0-1.8,0.4-2.4,1l-1.1-1.3
		c0.9-1,2.2-1.5,3.4-1.5c1.9,0,3.4,1.1,3.4,2.8c0,1.5-1.3,2.8-3.6,4.5h3.6v1.7h-6.6V204.9z M351,200.5c0-2.3,1.1-4.6,3.7-4.6
		s3.7,2.3,3.7,4.6s-1.1,4.6-3.7,4.6S351,202.8,351,200.5z M356.4,200.5c0-1.6-0.5-2.9-1.8-2.9s-1.8,1.3-1.8,2.9s0.5,2.9,1.8,2.9
		S356.4,202.1,356.4,200.5z M359.5,204.9v-1.5c3.6-2.7,4.7-3.6,4.7-4.7c0-0.8-0.7-1.2-1.4-1.2c-1,0-1.8,0.4-2.4,1l-1.1-1.3
		c0.9-1,2.2-1.5,3.4-1.5c1.9,0,3.4,1.1,3.4,2.8c0,1.5-1.3,2.8-3.6,4.5h3.6v1.7h-6.6V204.9z M370.6,204.9v-6.5l-1.5,1.5l-1.1-1.1
		l2.8-2.8h1.7v8.9L370.6,204.9L370.6,204.9z M374.9,202.4V201h3.2v1.4H374.9z M379.1,204.9v-1.5c3.6-2.7,4.7-3.6,4.7-4.7
		c0-0.8-0.7-1.2-1.4-1.2c-1,0-1.8,0.4-2.4,1l-1.1-1.3c0.9-1,2.2-1.5,3.4-1.5c1.9,0,3.4,1.1,3.4,2.8c0,1.5-1.3,2.8-3.6,4.5h3.6v1.7
		h-6.6V204.9z M387.3,204.9v-1.5c3.6-2.7,4.7-3.6,4.7-4.7c0-0.8-0.7-1.2-1.4-1.2c-1,0-1.8,0.4-2.4,1l-1.1-1.3c0.9-1,2.2-1.5,3.4-1.5
		c1.9,0,3.4,1.1,3.4,2.8c0,1.5-1.3,2.8-3.6,4.5h3.6v1.7h-6.6V204.9z"/>
	<path class="st1" d="M269,204.9v-0.6c3-2.4,5.1-4.2,5.1-5.9c0-1.3-1.1-1.8-2-1.8c-1.1,0-2,0.5-2.4,1.2l-0.5-0.5
		c0.6-0.9,1.7-1.4,3-1.4s2.8,0.7,2.8,2.5c0,2-2.1,3.8-4.7,5.8h4.7v0.7H269z M280,195.9c2.4,0,3.3,2.5,3.3,4.6s-0.9,4.6-3.3,4.6
		s-3.3-2.5-3.3-4.6C276.7,198.3,277.6,195.9,280,195.9z M280,196.6c-1.9,0-2.5,2.1-2.5,3.9c0,1.8,0.6,3.9,2.5,3.9s2.5-2.1,2.5-3.9
		C282.4,198.6,281.8,196.6,280,196.6z M284.7,204.9v-0.6c3-2.4,5.1-4.2,5.1-5.9c0-1.3-1.1-1.8-2-1.8c-1.1,0-2,0.5-2.4,1.2l-0.5-0.5
		c0.6-0.9,1.7-1.4,3-1.4s2.8,0.7,2.8,2.5c0,2-2.1,3.8-4.7,5.8h4.7v0.7H284.7z M295.7,195.9c2.4,0,3.3,2.5,3.3,4.6s-0.9,4.6-3.3,4.6
		s-3.3-2.5-3.3-4.6C292.4,198.3,293.3,195.9,295.7,195.9z M295.7,196.6c-1.9,0-2.5,2.1-2.5,3.9c0,1.8,0.6,3.9,2.5,3.9
		s2.5-2.1,2.5-3.9C298.2,198.6,297.6,196.6,295.7,196.6z M300.7,202v-0.6h3.2v0.6H300.7z M304.9,204.9v-0.6c3-2.4,5.1-4.2,5.1-5.9
		c0-1.3-1.1-1.8-2-1.8c-1.1,0-2,0.5-2.4,1.2l-0.5-0.5c0.6-0.9,1.7-1.4,3-1.4s2.8,0.7,2.8,2.5c0,2-2.1,3.8-4.7,5.8h4.7v0.7H304.9z
		 M315.8,204.9V197l-2.1,2.3l-0.5-0.5l2.7-2.8h0.7v8.9H315.8z"/>
	<path class="st1" d="M194.5,204.9v-0.6c3-2.4,5.1-4.2,5.1-5.9c0-1.3-1.1-1.8-2-1.8c-1.1,0-2,0.5-2.4,1.2l-0.5-0.5
		c0.6-0.9,1.7-1.4,3-1.4s2.8,0.7,2.8,2.5c0,2-2.1,3.8-4.7,5.8h4.7v0.7H194.5z M205.5,195.9c2.4,0,3.3,2.5,3.3,4.6s-0.9,4.6-3.3,4.6
		c-2.4,0-3.3-2.5-3.3-4.6C202.2,198.3,203.1,195.9,205.5,195.9z M205.5,196.6c-1.9,0-2.5,2.1-2.5,3.9c0,1.8,0.6,3.9,2.5,3.9
		s2.5-2.1,2.5-3.9C208,198.6,207.4,196.6,205.5,196.6z M213.5,204.9V197l-2.1,2.3l-0.5-0.5l2.7-2.8h0.7v8.9H213.5z M218.1,203.4
		c0.4,0.6,1,1,2,1c2,0,2.6-2,2.6-3.9c0-0.1,0-0.3,0-0.4c-0.4,0.6-1.4,1.5-2.6,1.5c-1.6,0-2.9-0.9-2.9-2.8c0-1.5,1.1-2.8,3-2.8
		c2.4,0,3.3,2.2,3.3,4.6c0,2.3-1,4.6-3.4,4.6c-1.2,0-1.9-0.5-2.4-1.1L218.1,203.4z M220.3,196.5c-1.5,0-2.2,1.2-2.2,2.1
		c0,1.5,0.9,2.2,2.2,2.2c1,0,1.9-0.6,2.4-1.5C222.6,198.1,221.9,196.5,220.3,196.5z M225.3,202v-0.6h3.2v0.6H225.3z M229.6,204.9
		v-0.6c3-2.4,5.1-4.2,5.1-5.9c0-1.3-1.1-1.8-2-1.8c-1.1,0-2,0.5-2.4,1.2l-0.5-0.5c0.6-0.9,1.7-1.4,3-1.4s2.8,0.7,2.8,2.5
		c0,2-2.1,3.8-4.7,5.8h4.7v0.7H229.6z M240.5,195.9c2.4,0,3.3,2.5,3.3,4.6s-0.9,4.6-3.3,4.6c-2.4,0-3.3-2.5-3.3-4.6
		C237.2,198.3,238.1,195.9,240.5,195.9z M240.5,196.6c-1.9,0-2.5,2.1-2.5,3.9c0,1.8,0.6,3.9,2.5,3.9s2.5-2.1,2.5-3.9
		C243,198.6,242.4,196.6,240.5,196.6z"/>
	<path class="st1" d="M120.4,204.9v-0.6c3-2.4,5.1-4.2,5.1-5.9c0-1.3-1.1-1.8-2-1.8c-1.1,0-2,0.5-2.4,1.2l-0.5-0.5
		c0.6-0.9,1.7-1.4,3-1.4s2.8,0.7,2.8,2.5c0,2-2.1,3.8-4.7,5.8h4.7v0.7H120.4z M131.4,195.9c2.4,0,3.3,2.5,3.3,4.6s-0.9,4.6-3.3,4.6
		c-2.4,0-3.3-2.5-3.3-4.6C128,198.3,129,195.9,131.4,195.9z M131.4,196.6c-1.9,0-2.5,2.1-2.5,3.9c0,1.8,0.6,3.9,2.5,3.9
		s2.5-2.1,2.5-3.9C133.8,198.6,133.2,196.6,131.4,196.6z M139.4,204.9V197l-2.1,2.3l-0.5-0.5l2.7-2.8h0.7v8.9H139.4z M145.5,200.3
		c-1.1-0.3-2.1-1-2.1-2.2c0-1.6,1.5-2.3,2.9-2.3s2.9,0.7,2.9,2.3c0,1.2-1,1.9-2.1,2.2c1.1,0.3,2.2,1.1,2.2,2.4c0,1.4-1.3,2.4-3,2.4
		s-3-0.9-3-2.4C143.3,201.4,144.4,200.6,145.5,200.3z M146.3,200.7c-0.5,0.1-2.3,0.6-2.3,2c0,1.1,1.1,1.8,2.3,1.8s2.3-0.7,2.3-1.8
		C148.6,201.3,146.8,200.7,146.3,200.7z M146.3,196.6c-1.2,0-2.1,0.6-2.1,1.7c0,1.2,1.6,1.6,2.1,1.8c0.5-0.1,2.1-0.5,2.1-1.8
		C148.4,197.2,147.5,196.6,146.3,196.6z M151.1,202v-0.6h3.2v0.6H151.1z M158.3,204.9V197l-2.1,2.3l-0.5-0.5l2.7-2.8h0.7v8.9H158.3z
		 M162.9,203.4c0.4,0.6,1,1,2,1c2,0,2.6-2,2.6-3.9c0-0.1,0-0.3,0-0.4c-0.4,0.6-1.4,1.5-2.6,1.5c-1.6,0-2.9-0.9-2.9-2.8
		c0-1.5,1.1-2.8,3-2.8c2.4,0,3.3,2.2,3.3,4.6c0,2.3-1,4.6-3.4,4.6c-1.2,0-1.9-0.5-2.4-1.1L162.9,203.4z M165.1,196.5
		c-1.5,0-2.2,1.2-2.2,2.1c0,1.5,0.9,2.2,2.2,2.2c1,0,1.9-0.6,2.4-1.5C167.4,198.1,166.7,196.5,165.1,196.5z"/>
	<path class="st1" d="M46.2,204.9v-0.6c3-2.4,5.1-4.2,5.1-5.9c0-1.3-1.1-1.8-2-1.8c-1.1,0-2,0.5-2.4,1.2l-0.5-0.5
		c0.6-0.9,1.7-1.4,3-1.4s2.8,0.7,2.8,2.5c0,2-2.1,3.8-4.7,5.8h4.7v0.7H46.2z M57.2,195.9c2.4,0,3.3,2.5,3.3,4.6s-0.9,4.6-3.3,4.6
		s-3.3-2.5-3.3-4.6C53.9,198.3,54.8,195.9,57.2,195.9z M57.2,196.6c-1.9,0-2.5,2.1-2.5,3.9c0,1.8,0.6,3.9,2.5,3.9s2.5-2.1,2.5-3.9
		C59.7,198.6,59.1,196.6,57.2,196.6z M65.2,204.9V197l-2.1,2.3l-0.5-0.5l2.7-2.8H66v8.9H65.2z M70.2,204.9l3.8-8.2h-5V196h5.8v0.5
		l-3.8,8.4H70.2z M75.8,202v-0.6H79v0.6H75.8z M83,204.9V197l-2.1,2.3l-0.5-0.5l2.7-2.8h0.7v8.9H83z M89.1,200.3
		c-1.1-0.3-2.1-1-2.1-2.2c0-1.6,1.5-2.3,2.9-2.3s2.9,0.7,2.9,2.3c0,1.2-1,1.9-2.1,2.2c1.1,0.3,2.2,1.1,2.2,2.4c0,1.4-1.3,2.4-3,2.4
		s-3-0.9-3-2.4C86.9,201.4,88,200.6,89.1,200.3z M89.9,200.7c-0.5,0.1-2.3,0.6-2.3,2c0,1.1,1.1,1.8,2.3,1.8c1.2,0,2.3-0.7,2.3-1.8
		C92.2,201.3,90.5,200.7,89.9,200.7z M89.9,196.6c-1.2,0-2.1,0.6-2.1,1.7c0,1.2,1.6,1.6,2.1,1.8c0.5-0.1,2.1-0.5,2.1-1.8
		C92.1,197.2,91.1,196.6,89.9,196.6z"/>
</g>
</svg>
