<?xml version="1.0" encoding="utf-8"?>
<!-- Generator: Adobe Illustrator 26.4.0, SVG Export Plug-In . SVG Version: 6.00 Build 0)  -->
<svg version="1.1" id="Layer_1" xmlns="http://www.w3.org/2000/svg" xmlns:xlink="http://www.w3.org/1999/xlink" x="0px" y="0px"
	 viewBox="0 0 595.3 92.3" style="enable-background:new 0 0 595.3 92.3;" xml:space="preserve">
<style type="text/css">
	.st0{fill:#0069AA;}
	.st1{fill:#E3E7F2;}
	.st2{fill:none;stroke:#6D6E71;stroke-width:0.25;stroke-miterlimit:10;}
	.st3{fill:none;stroke:#0069AA;stroke-width:0.5;stroke-miterlimit:10;}
	.st4{fill:none;stroke:#0069AA;stroke-width:0.75;stroke-miterlimit:10;}
	.st5{fill:none;stroke:#0069AA;stroke-width:0.25;stroke-miterlimit:10;}
	.st6{fill:#FFFFFF;}
	.st7{fill:none;stroke:#9FCC3B;stroke-width:4;}
	.st8{fill:#4D4D4F;}
	.st9{fill:none;stroke:#00C0F3;stroke-width:4;}
</style>
<g>
	<rect x="495.8" y="0.3" class="st0" width="99.5" height="30.6"/>
	<path class="st1" d="M495.8,61.4h99.5V92h-99.5V61.4z M495.8,30.8h99.5v30.6h-99.5V30.8z"/>
	<line class="st2" x1="0" y1="61.4" x2="97.9" y2="61.4"/>
	<line class="st3" x1="0" y1="0.2" x2="97.9" y2="0.2"/>
	<line class="st3" x1="97.9" y1="0.2" x2="197.4" y2="0.2"/>
	<line class="st3" x1="197.4" y1="0.2" x2="296.9" y2="0.2"/>
	<line class="st3" x1="296.9" y1="0.2" x2="396.3" y2="0.2"/>
	<line class="st3" x1="396.3" y1="0.2" x2="495.8" y2="0.2"/>
	<line class="st3" x1="495.8" y1="0.2" x2="595.3" y2="0.2"/>
	<line class="st3" x1="0" y1="30.8" x2="97.9" y2="30.8"/>
	<line class="st3" x1="97.9" y1="30.8" x2="197.4" y2="30.8"/>
	<line class="st3" x1="197.4" y1="30.8" x2="296.9" y2="30.8"/>
	<line class="st3" x1="296.9" y1="30.8" x2="396.3" y2="30.8"/>
	<line class="st3" x1="396.3" y1="30.8" x2="495.8" y2="30.8"/>
	<line class="st3" x1="495.8" y1="30.8" x2="595.3" y2="30.8"/>
	<line class="st4" x1="0" y1="92" x2="97.9" y2="92"/>
	<line class="st5" x1="97.9" y1="61.4" x2="197.4" y2="61.4"/>
	<line class="st4" x1="97.9" y1="92" x2="197.4" y2="92"/>
	<line class="st5" x1="197.4" y1="61.4" x2="296.9" y2="61.4"/>
	<line class="st4" x1="197.4" y1="92" x2="296.9" y2="92"/>
	<line class="st5" x1="296.9" y1="61.4" x2="396.3" y2="61.4"/>
	<line class="st4" x1="296.9" y1="92" x2="396.3" y2="92"/>
	<line class="st5" x1="396.3" y1="61.4" x2="495.8" y2="61.4"/>
	<line class="st4" x1="396.3" y1="92" x2="495.8" y2="92"/>
	<line class="st5" x1="495.8" y1="61.4" x2="595.3" y2="61.4"/>
	<line class="st4" x1="495.8" y1="92" x2="595.3" y2="92"/>
	<path d="M121.9,22.6v-0.9c4.3-3.5,7.3-6,7.3-8.5c0-1.8-1.5-2.6-2.9-2.6c-1.6,0-2.8,0.7-3.5,1.7l-0.7-0.7c0.9-1.2,2.5-2,4.2-2
		c1.9,0,4,1.1,4,3.6c0,2.8-3,5.4-6.7,8.4h6.7v1H121.9z M137.6,9.6c3.4,0,4.7,3.5,4.7,6.6c0,3-1.3,6.6-4.7,6.6
		c-3.4,0-4.7-3.6-4.7-6.6C132.9,13.2,134.2,9.6,137.6,9.6z M137.6,10.6c-2.7,0-3.6,2.9-3.6,5.6c0,2.6,0.9,5.6,3.6,5.6s3.6-3,3.6-5.6
		C141.2,13.6,140.3,10.6,137.6,10.6z M149.1,22.6V11.3l-3,3.2l-0.7-0.7l3.8-4h1v12.8H149.1z M156.3,22.6l5.4-11.8h-7.1v-1h8.3v0.8
		l-5.4,12H156.3z M164.2,18.4v-0.9h4.6v0.9H164.2z M174.6,22.6V11.3l-3,3.2l-0.7-0.7l3.8-4h1v12.8H174.6z M183.4,16
		c-1.5-0.4-3-1.4-3-3.1c0-2.3,2.1-3.3,4.1-3.3c2,0,4.1,1,4.1,3.3c0,1.7-1.5,2.7-3,3.1c1.6,0.4,3.2,1.6,3.2,3.4
		c0,2.1-1.9,3.4-4.3,3.4c-2.5,0-4.3-1.3-4.3-3.4C180.2,17.6,181.7,16.4,183.4,16z M184.5,16.5c-0.8,0.1-3.2,0.9-3.2,2.8
		c0,1.6,1.5,2.5,3.2,2.5c1.7,0,3.2-1,3.2-2.5C187.8,17.4,185.3,16.6,184.5,16.5z M184.5,10.6c-1.7,0-3,0.9-3,2.4
		c0,1.8,2.3,2.4,3,2.5c0.8-0.2,3-0.7,3-2.5C187.5,11.5,186.2,10.6,184.5,10.6z"/>
	<path d="M219.8,22.6v-0.9c4.3-3.5,7.3-6,7.3-8.5c0-1.8-1.5-2.6-2.9-2.6c-1.6,0-2.8,0.7-3.5,1.7l-0.7-0.7c0.9-1.2,2.5-2,4.2-2
		c1.9,0,4,1.1,4,3.6c0,2.8-3,5.4-6.7,8.4h6.7v1H219.8z M235.5,9.6c3.4,0,4.7,3.5,4.7,6.6c0,3-1.3,6.6-4.7,6.6
		c-3.4,0-4.7-3.6-4.7-6.6C230.8,13.2,232.1,9.6,235.5,9.6z M235.5,10.6c-2.7,0-3.6,2.9-3.6,5.6c0,2.6,0.9,5.6,3.6,5.6s3.6-3,3.6-5.6
		C239.1,13.6,238.2,10.6,235.5,10.6z M247,22.6V11.3l-3,3.2l-0.7-0.7l3.8-4h1v12.8H247z M255.7,16c-1.5-0.4-3-1.4-3-3.1
		c0-2.3,2.1-3.3,4.1-3.3c2,0,4.1,1,4.1,3.3c0,1.7-1.5,2.7-3,3.1c1.6,0.4,3.2,1.6,3.2,3.4c0,2.1-1.9,3.4-4.3,3.4
		c-2.5,0-4.3-1.3-4.3-3.4C252.6,17.6,254.1,16.4,255.7,16z M256.9,16.5c-0.8,0.1-3.2,0.9-3.2,2.8c0,1.6,1.5,2.5,3.2,2.5
		c1.7,0,3.2-1,3.2-2.5C260.1,17.4,257.7,16.6,256.9,16.5z M256.9,10.6c-1.7,0-3,0.9-3,2.4c0,1.8,2.3,2.4,3,2.5c0.8-0.2,3-0.7,3-2.5
		C259.9,11.5,258.6,10.6,256.9,10.6z M263.7,18.4v-0.9h4.6v0.9H263.7z M274,22.6V11.3l-3,3.2l-0.7-0.7l3.8-4h1v12.8H274z
		 M280.7,20.4c0.6,0.8,1.4,1.4,2.8,1.4c2.8,0,3.8-2.9,3.8-5.6c0-0.2,0-0.4,0-0.6c-0.5,0.9-2,2.1-3.7,2.1c-2.3,0-4.1-1.3-4.1-4.1
		c0-2.1,1.6-4.1,4.3-4.1c3.4,0,4.7,3.2,4.7,6.6c0,3.3-1.4,6.6-4.9,6.6c-1.7,0-2.7-0.7-3.4-1.6L280.7,20.4z M283.8,10.6
		c-2.2,0-3.2,1.7-3.2,3.1c0,2.1,1.4,3.1,3.2,3.1c1.4,0,2.8-0.9,3.5-2.2C287.1,12.8,286.2,10.6,283.8,10.6z"/>
	<path d="M317.6,22.6v-0.9c4.3-3.5,7.3-6,7.3-8.5c0-1.8-1.5-2.6-2.9-2.6c-1.6,0-2.8,0.7-3.5,1.7l-0.7-0.7c0.9-1.2,2.5-2,4.2-2
		c1.9,0,4,1.1,4,3.6c0,2.8-3,5.4-6.7,8.4h6.7v1H317.6z M333.3,9.6c3.4,0,4.7,3.5,4.7,6.6c0,3-1.3,6.6-4.7,6.6
		c-3.4,0-4.7-3.6-4.7-6.6C328.6,13.2,329.9,9.6,333.3,9.6z M333.3,10.6c-2.7,0-3.6,2.9-3.6,5.6c0,2.6,0.9,5.6,3.6,5.6
		c2.7,0,3.6-3,3.6-5.6C336.9,13.6,336,10.6,333.3,10.6z M344.8,22.6V11.3l-3,3.2l-0.7-0.7l3.8-4h1v12.8H344.8z M351.4,20.4
		c0.6,0.8,1.4,1.4,2.8,1.4c2.8,0,3.8-2.9,3.8-5.6c0-0.2,0-0.4,0-0.6c-0.5,0.9-2,2.1-3.7,2.1c-2.3,0-4.1-1.3-4.1-4.1
		c0-2.1,1.6-4.1,4.3-4.1c3.4,0,4.7,3.2,4.7,6.6c0,3.3-1.4,6.6-4.9,6.6c-1.7,0-2.7-0.7-3.4-1.6L351.4,20.4z M354.5,10.6
		c-2.2,0-3.2,1.7-3.2,3.1c0,2.1,1.4,3.1,3.2,3.1c1.4,0,2.8-0.9,3.5-2.2C357.8,12.8,356.9,10.6,354.5,10.6z M361.7,18.4v-0.9h4.6v0.9
		H361.7z M367.8,22.6v-0.9c4.3-3.5,7.3-6,7.3-8.5c0-1.8-1.5-2.6-2.9-2.6c-1.6,0-2.8,0.7-3.5,1.7l-0.7-0.7c0.9-1.2,2.5-2,4.2-2
		c1.9,0,4,1.1,4,3.6c0,2.8-3,5.4-6.7,8.4h6.7v1H367.8z M383.5,9.6c3.4,0,4.7,3.5,4.7,6.6c0,3-1.3,6.6-4.7,6.6
		c-3.4,0-4.7-3.6-4.7-6.6C378.8,13.2,380.1,9.6,383.5,9.6z M383.5,10.6c-2.7,0-3.6,2.9-3.6,5.6c0,2.6,0.9,5.6,3.6,5.6s3.6-3,3.6-5.6
		C387,13.6,386.2,10.6,383.5,10.6z"/>
	<path d="M416.3,22.6v-0.9c4.3-3.5,7.3-6,7.3-8.5c0-1.8-1.5-2.6-2.9-2.6c-1.6,0-2.8,0.7-3.5,1.7l-0.7-0.7c0.9-1.2,2.5-2,4.2-2
		c1.9,0,4,1.1,4,3.6c0,2.8-3,5.4-6.7,8.4h6.7v1H416.3z M432,9.6c3.4,0,4.7,3.5,4.7,6.6c0,3-1.3,6.6-4.7,6.6s-4.7-3.6-4.7-6.6
		C427.3,13.2,428.6,9.6,432,9.6z M432,10.6c-2.7,0-3.6,2.9-3.6,5.6c0,2.6,0.9,5.6,3.6,5.6s3.6-3,3.6-5.6
		C435.6,13.6,434.7,10.6,432,10.6z M438.9,22.6v-0.9c4.3-3.5,7.3-6,7.3-8.5c0-1.8-1.5-2.6-2.9-2.6c-1.6,0-2.8,0.7-3.5,1.7l-0.7-0.7
		c0.9-1.2,2.5-2,4.2-2c1.9,0,4,1.1,4,3.6c0,2.8-3,5.4-6.7,8.4h6.7v1H438.9z M454.6,9.6c3.4,0,4.7,3.5,4.7,6.6c0,3-1.3,6.6-4.7,6.6
		c-3.4,0-4.7-3.6-4.7-6.6C449.9,13.2,451.2,9.6,454.6,9.6z M454.6,10.6c-2.7,0-3.6,2.9-3.6,5.6c0,2.6,0.9,5.6,3.6,5.6
		c2.7,0,3.6-3,3.6-5.6C458.2,13.6,457.3,10.6,454.6,10.6z M461.7,18.4v-0.9h4.6v0.9H461.7z M467.8,22.6v-0.9c4.3-3.5,7.3-6,7.3-8.5
		c0-1.8-1.5-2.6-2.9-2.6c-1.6,0-2.8,0.7-3.5,1.7l-0.7-0.7c0.9-1.2,2.5-2,4.2-2c1.9,0,4,1.1,4,3.6c0,2.8-3,5.4-6.7,8.4h6.7v1H467.8z
		 M483.3,22.6V11.3l-3,3.2l-0.7-0.7l3.8-4h1v12.8H483.3z"/>
	<path class="st6" d="M514.1,22.6v-2.1c5.2-3.9,6.8-5.2,6.8-6.7c0-1.1-1-1.7-2.1-1.7c-1.5,0-2.6,0.6-3.4,1.5l-1.6-1.8
		c1.2-1.4,3.1-2.1,4.9-2.1c2.7,0,4.9,1.5,4.9,4.1c0,2.2-1.8,4.1-5.1,6.5h5.2v2.4H514.1z M525.4,16.2c0-3.3,1.6-6.6,5.3-6.6
		c3.7,0,5.3,3.3,5.3,6.6s-1.6,6.6-5.3,6.6C527,22.8,525.4,19.5,525.4,16.2z M533.2,16.2c0-2.4-0.7-4.2-2.5-4.2
		c-1.8,0-2.5,1.8-2.5,4.2s0.7,4.2,2.5,4.2C532.5,20.4,533.2,18.6,533.2,16.2z M537.6,22.6v-2.1c5.2-3.9,6.8-5.2,6.8-6.7
		c0-1.1-1-1.7-2.1-1.7c-1.5,0-2.6,0.6-3.4,1.5l-1.6-1.8c1.2-1.4,3.1-2.1,4.9-2.1c2.7,0,4.9,1.5,4.9,4.1c0,2.2-1.8,4.1-5.1,6.5h5.2
		v2.4H537.6z M553.5,22.6v-9.3l-2.1,2.2l-1.6-1.6l4-4h2.4v12.8H553.5z M559.6,19v-2.1h4.6V19H559.6z M565.7,22.6v-2.1
		c5.2-3.9,6.8-5.2,6.8-6.7c0-1.1-1-1.7-2.1-1.7c-1.5,0-2.6,0.6-3.4,1.5l-1.6-1.8c1.2-1.4,3.1-2.1,4.9-2.1c2.7,0,4.9,1.5,4.9,4.1
		c0,2.2-1.8,4.1-5.1,6.5h5.2v2.4H565.7z M577.4,22.6v-2.1c5.2-3.9,6.8-5.2,6.8-6.7c0-1.1-1-1.7-2.1-1.7c-1.5,0-2.6,0.6-3.4,1.5
		l-1.6-1.8c1.2-1.4,3.1-2.1,4.9-2.1c2.7,0,4.9,1.5,4.9,4.1c0,2.2-1.8,4.1-5.1,6.5h5.2v2.4H577.4z"/>
	<line class="st7" x1="7.2" y1="47.1" x2="27.1" y2="47.1"/>
	<g>
		<path d="M32.5,52.2v-1.2l6.7-9.4h-6.7v-1.3h8.6v1.2l-6.7,9.4h6.8v1.3H32.5z"/>
		<path d="M43.2,41.4c0-0.5,0.4-0.9,0.9-0.9c0.5,0,0.9,0.4,0.9,0.9c0,0.5-0.4,0.9-0.9,0.9C43.6,42.3,43.2,41.9,43.2,41.4z
			 M43.4,52.2v-8.6h1.3v8.6H43.4z"/>
		<path d="M53.3,52.2v-5.6c0-1.5-0.8-2-1.9-2c-1.1,0-2.1,0.6-2.6,1.3v6.3h-1.3v-8.6h1.3v1.2c0.6-0.7,1.8-1.5,3.1-1.5
			c1.8,0,2.7,0.9,2.7,2.8v6.1H53.3z"/>
		<path d="M56.8,47.8c0-2.6,1.7-4.5,4.3-4.5c1.6,0,2.5,0.6,3.2,1.5l-0.9,0.8c-0.6-0.8-1.3-1.1-2.2-1.1c-1.8,0-3,1.4-3,3.3
			c0,1.9,1.1,3.3,3,3.3c0.9,0,1.6-0.4,2.2-1.1l0.9,0.8c-0.7,0.9-1.6,1.5-3.2,1.5C58.5,52.4,56.8,50.4,56.8,47.8z"/>
	</g>
	<path class="st8" d="M113.1,54.2l5.7-12.5h-7.5v-1.1h8.9v0.8l-5.8,12.8H113.1z M120.8,56.2c0.7-0.4,1.1-1.2,1.2-1.9l-0.2,0
		c-0.5,0-0.8-0.4-0.8-0.9c0-0.5,0.4-0.9,0.9-0.9c0.6,0,1,0.5,1,1.3c0,1.1-0.7,2.2-1.5,2.8L120.8,56.2z M126.5,51.8
		c0.7,0.9,1.5,1.5,3,1.5c3,0,4-3.1,4-6c0-0.2,0-0.4,0-0.6c-0.6,0.9-2.1,2.3-4,2.3c-2.4,0-4.4-1.4-4.4-4.3c0-2.2,1.7-4.3,4.6-4.3
		c3.7,0,5,3.4,5,7c0,3.5-1.5,7-5.2,7c-1.8,0-2.9-0.7-3.7-1.7L126.5,51.8z M129.7,41.4c-2.3,0-3.4,1.8-3.4,3.3c0,2.2,1.4,3.3,3.4,3.3
		c1.5,0,2.9-1,3.7-2.3C133.3,43.8,132.3,41.4,129.7,41.4z M142,54.2v-12l-3.2,3.4l-0.7-0.8l4.1-4.3h1.1v13.6H142z M147.8,56.2
		c0.7-0.4,1.1-1.2,1.2-1.9l-0.2,0c-0.5,0-0.8-0.4-0.8-0.9c0-0.5,0.4-0.9,0.9-0.9c0.6,0,1,0.5,1,1.3c0,1.1-0.7,2.2-1.5,2.8
		L147.8,56.2z M158.3,54.2v-3.7h-6.4v-1l6-8.8h1.6v8.8h2v1.1h-2v3.7H158.3z M158.3,41.7l-5.2,7.7h5.2V41.7z M169.5,40.4
		c1.8,0,2.9,0.7,3.7,1.7l-0.7,0.9c-0.7-0.9-1.5-1.5-3-1.5c-2.9,0-4,3.1-4,6c0,0.2,0,0.4,0,0.6c0.6-0.9,2.1-2.3,4-2.3
		c2.4,0,4.4,1.4,4.4,4.3c0,2.2-1.7,4.3-4.6,4.3c-3.7,0-5-3.4-5-7C164.3,43.9,165.7,40.4,169.5,40.4z M169.2,46.8
		c-1.5,0-2.9,1-3.7,2.3c0.2,1.9,1.1,4.2,3.7,4.2c2.3,0,3.4-1.8,3.4-3.3C172.7,47.9,171.2,46.8,169.2,46.8z M179.9,54.2v-12l-3.2,3.4
		l-0.7-0.8l4.1-4.3h1.1v13.6H179.9z"/>
	<path class="st8" d="M212.9,40.4c1.8,0,2.9,0.7,3.7,1.7l-0.7,0.9c-0.7-0.9-1.5-1.5-3-1.5c-2.9,0-4,3.1-4,6c0,0.2,0,0.4,0,0.6
		c0.6-0.9,2.1-2.3,4-2.3c2.4,0,4.4,1.4,4.4,4.3c0,2.2-1.7,4.3-4.6,4.3c-3.7,0-5-3.4-5-7C207.7,43.9,209.2,40.4,212.9,40.4z
		 M212.7,46.8c-1.5,0-2.9,1-3.7,2.3c0.2,1.9,1.1,4.2,3.7,4.2c2.3,0,3.4-1.8,3.4-3.3C216.1,47.9,214.6,46.8,212.7,46.8z M219.5,56.2
		c0.7-0.4,1.1-1.2,1.2-1.9l-0.2,0c-0.5,0-0.8-0.4-0.8-0.9c0-0.5,0.4-0.9,0.9-0.9c0.6,0,1,0.5,1,1.3c0,1.1-0.7,2.2-1.5,2.8
		L219.5,56.2z M225.2,51.8c0.7,0.9,1.5,1.5,3,1.5c3,0,4-3.1,4-6c0-0.2,0-0.4,0-0.6c-0.6,0.9-2.1,2.3-4,2.3c-2.4,0-4.4-1.4-4.4-4.3
		c0-2.2,1.7-4.3,4.6-4.3c3.7,0,5,3.4,5,7c0,3.5-1.5,7-5.2,7c-1.8,0-2.9-0.7-3.7-1.7L225.2,51.8z M228.5,41.4c-2.3,0-3.4,1.8-3.4,3.3
		c0,2.2,1.4,3.3,3.4,3.3c1.5,0,2.9-1,3.7-2.3C232,43.8,231,41.4,228.5,41.4z M241.5,40.4c1.8,0,2.9,0.7,3.7,1.7l-0.7,0.9
		c-0.7-0.9-1.5-1.5-3-1.5c-2.9,0-4,3.1-4,6c0,0.2,0,0.4,0,0.6c0.6-0.9,2.1-2.3,4-2.3c2.4,0,4.4,1.4,4.4,4.3c0,2.2-1.7,4.3-4.6,4.3
		c-3.7,0-5-3.4-5-7C236.3,43.9,237.8,40.4,241.5,40.4z M241.3,46.8c-1.5,0-2.9,1-3.7,2.3c0.2,1.9,1.1,4.2,3.7,4.2
		c2.3,0,3.4-1.8,3.4-3.3C244.7,47.9,243.2,46.8,241.3,46.8z M248.2,56.2c0.7-0.4,1.1-1.2,1.2-1.9l-0.2,0c-0.5,0-0.8-0.4-0.8-0.9
		c0-0.5,0.4-0.9,0.9-0.9c0.6,0,1,0.5,1,1.3c0,1.1-0.7,2.2-1.5,2.8L248.2,56.2z M253.2,54.2v-1c4.6-3.7,7.7-6.4,7.7-9
		c0-2-1.6-2.8-3.1-2.8c-1.7,0-3,0.7-3.7,1.8l-0.8-0.7c1-1.3,2.6-2.1,4.5-2.1c2,0,4.3,1.1,4.3,3.8c0,3-3.2,5.7-7.1,8.9h7.2v1.1H253.2
		z M268.5,47.2c-1.6-0.4-3.2-1.5-3.2-3.3c0-2.4,2.2-3.5,4.4-3.5c2.1,0,4.4,1.1,4.4,3.5c0,1.8-1.5,2.9-3.2,3.3
		c1.7,0.5,3.4,1.7,3.4,3.6c0,2.2-2,3.6-4.6,3.6c-2.6,0-4.6-1.4-4.6-3.6C265.1,48.9,266.8,47.6,268.5,47.2z M269.7,47.7
		c-0.8,0.1-3.4,0.9-3.4,3c0,1.7,1.6,2.7,3.4,2.7c1.8,0,3.4-1,3.4-2.7C273.2,48.6,270.5,47.8,269.7,47.7z M269.7,41.4
		c-1.8,0-3.2,0.9-3.2,2.6c0,1.9,2.4,2.5,3.2,2.7c0.8-0.2,3.2-0.8,3.2-2.7C272.9,42.4,271.5,41.4,269.7,41.4z M278,51.5
		c0.8,1.1,2.1,1.9,3.8,1.9c2.1,0,3.4-1.1,3.4-2.9c0-2-1.6-2.8-3.6-2.8c-0.6,0-1.1,0-1.3,0v-1.1c0.2,0,0.7,0,1.3,0
		c1.8,0,3.4-0.8,3.4-2.6c0-1.7-1.5-2.6-3.3-2.6c-1.5,0-2.7,0.6-3.6,1.7l-0.7-0.7c1-1.2,2.5-2.1,4.4-2.1c2.4,0,4.4,1.3,4.4,3.6
		c0,2.1-1.8,3-2.9,3.2c1.2,0.1,3.1,1.1,3.1,3.4s-1.7,3.9-4.6,3.9c-2.2,0-3.9-1-4.6-2.3L278,51.5z"/>
	<path class="st8" d="M312.4,40.4c1.8,0,2.9,0.7,3.7,1.7l-0.7,0.9c-0.7-0.9-1.5-1.5-3-1.5c-2.9,0-4,3.1-4,6c0,0.2,0,0.4,0,0.6
		c0.6-0.9,2.1-2.3,4-2.3c2.4,0,4.4,1.4,4.4,4.3c0,2.2-1.7,4.3-4.6,4.3c-3.7,0-5-3.4-5-7C307.2,43.9,308.7,40.4,312.4,40.4z
		 M312.2,46.8c-1.5,0-2.9,1-3.7,2.3c0.2,1.9,1.1,4.2,3.7,4.2c2.3,0,3.4-1.8,3.4-3.3C315.6,47.9,314.1,46.8,312.2,46.8z M319.1,56.2
		c0.7-0.4,1.1-1.2,1.2-1.9l-0.2,0c-0.5,0-0.8-0.4-0.8-0.9c0-0.5,0.4-0.9,0.9-0.9c0.6,0,1,0.5,1,1.3c0,1.1-0.7,2.2-1.5,2.8
		L319.1,56.2z M327.1,47.2c-1.6-0.4-3.2-1.5-3.2-3.3c0-2.4,2.2-3.5,4.4-3.5c2.1,0,4.4,1.1,4.4,3.5c0,1.8-1.5,2.9-3.2,3.3
		c1.7,0.5,3.4,1.7,3.4,3.6c0,2.2-2,3.6-4.6,3.6c-2.6,0-4.6-1.4-4.6-3.6C323.7,48.9,325.3,47.6,327.1,47.2z M328.3,47.7
		c-0.8,0.1-3.4,0.9-3.4,3c0,1.7,1.6,2.7,3.4,2.7c1.8,0,3.4-1,3.4-2.7C331.8,48.6,329.1,47.8,328.3,47.7z M328.3,41.4
		c-1.8,0-3.2,0.9-3.2,2.6c0,1.9,2.4,2.5,3.2,2.7c0.8-0.2,3.2-0.8,3.2-2.7C331.5,42.4,330.1,41.4,328.3,41.4z M339.3,47.2
		c-1.6-0.4-3.2-1.5-3.2-3.3c0-2.4,2.2-3.5,4.4-3.5c2.1,0,4.4,1.1,4.4,3.5c0,1.8-1.5,2.9-3.2,3.3c1.7,0.5,3.4,1.7,3.4,3.6
		c0,2.2-2,3.6-4.6,3.6c-2.6,0-4.6-1.4-4.6-3.6C335.9,48.9,337.5,47.6,339.3,47.2z M340.5,47.7c-0.8,0.1-3.4,0.9-3.4,3
		c0,1.7,1.6,2.7,3.4,2.7c1.8,0,3.4-1,3.4-2.7C343.9,48.6,341.3,47.8,340.5,47.7z M340.5,41.4c-1.8,0-3.2,0.9-3.2,2.6
		c0,1.9,2.4,2.5,3.2,2.7c0.8-0.2,3.2-0.8,3.2-2.7C343.7,42.4,342.3,41.4,340.5,41.4z M347.6,56.2c0.7-0.4,1.1-1.2,1.2-1.9l-0.2,0
		c-0.5,0-0.8-0.4-0.8-0.9c0-0.5,0.4-0.9,0.9-0.9c0.6,0,1,0.5,1,1.3c0,1.1-0.7,2.2-1.5,2.8L347.6,56.2z M352.6,54.2v-1
		c4.6-3.7,7.7-6.4,7.7-9c0-2-1.6-2.8-3.1-2.8c-1.7,0-3,0.7-3.7,1.8l-0.8-0.7c1-1.3,2.6-2.1,4.5-2.1c2,0,4.3,1.1,4.3,3.8
		c0,3-3.2,5.7-7.1,8.9h7.2v1.1H352.6z M367.9,47.2c-1.6-0.4-3.2-1.5-3.2-3.3c0-2.4,2.2-3.5,4.4-3.5c2.1,0,4.4,1.1,4.4,3.5
		c0,1.8-1.5,2.9-3.2,3.3c1.7,0.5,3.4,1.7,3.4,3.6c0,2.2-2,3.6-4.6,3.6c-2.6,0-4.6-1.4-4.6-3.6C364.6,48.9,366.2,47.6,367.9,47.2z
		 M369.2,47.7c-0.8,0.1-3.4,0.9-3.4,3c0,1.7,1.6,2.7,3.4,2.7c1.8,0,3.4-1,3.4-2.7C372.6,48.6,370,47.8,369.2,47.7z M369.2,41.4
		c-1.8,0-3.2,0.9-3.2,2.6c0,1.9,2.4,2.5,3.2,2.7c0.8-0.2,3.2-0.8,3.2-2.7C372.4,42.4,371,41.4,369.2,41.4z M381.8,40.4
		c1.8,0,2.9,0.7,3.7,1.7l-0.7,0.9c-0.7-0.9-1.5-1.5-3-1.5c-2.9,0-4,3.1-4,6c0,0.2,0,0.4,0,0.6c0.6-0.9,2.1-2.3,4-2.3
		c2.4,0,4.4,1.4,4.4,4.3c0,2.2-1.7,4.3-4.6,4.3c-3.7,0-5-3.4-5-7C376.6,43.9,378.1,40.4,381.8,40.4z M381.6,46.8
		c-1.5,0-2.9,1-3.7,2.3c0.2,1.9,1.1,4.2,3.7,4.2c2.3,0,3.4-1.8,3.4-3.3C385,47.9,383.5,46.8,381.6,46.8z"/>
	<path class="st8" d="M411.8,54.2l5.7-12.5H410v-1.1h8.9v0.8l-5.8,12.8H411.8z M419.5,56.2c0.7-0.4,1.1-1.2,1.2-1.9l-0.2,0
		c-0.5,0-0.8-0.4-0.8-0.9c0-0.5,0.4-0.9,0.9-0.9c0.6,0,1,0.5,1,1.3c0,1.1-0.7,2.2-1.5,2.8L419.5,56.2z M427.3,54.2v-12l-3.2,3.4
		l-0.7-0.8l4.1-4.3h1.1v13.6H427.3z M434.1,51.4c0.9,1.2,2.1,1.9,3.8,1.9c2,0,3.4-1.4,3.4-3.3c0-2.1-1.4-3.3-3.4-3.3
		c-1.2,0-2.3,0.4-3.3,1.3l-0.9-0.4v-7.1h7.9v1.1h-6.7v5.3c0.7-0.7,1.8-1.3,3.2-1.3c2.3,0,4.3,1.5,4.3,4.3c0,2.7-2.1,4.4-4.6,4.4
		c-2.3,0-3.7-0.9-4.6-2.2L434.1,51.4z M444.8,56.2c0.7-0.4,1.1-1.2,1.2-1.9l-0.2,0c-0.5,0-0.8-0.4-0.8-0.9c0-0.5,0.4-0.9,0.9-0.9
		c0.6,0,1,0.5,1,1.3c0,1.1-0.7,2.2-1.5,2.8L444.8,56.2z M455.4,54.2v-3.7h-6.4v-1l6-8.8h1.6v8.8h2v1.1h-2v3.7H455.4z M455.4,41.7
		l-5.2,7.7h5.2V41.7z M467.7,54.2v-3.7h-6.4v-1l6-8.8h1.6v8.8h2v1.1h-2v3.7H467.7z M467.7,41.7l-5.2,7.7h5.2V41.7z M474,51.4
		c0.9,1.2,2.1,1.9,3.8,1.9c2,0,3.4-1.4,3.4-3.3c0-2.1-1.4-3.3-3.4-3.3c-1.2,0-2.3,0.4-3.3,1.3l-0.9-0.4v-7.1h7.9v1.1h-6.7v5.3
		c0.7-0.7,1.8-1.3,3.2-1.3c2.3,0,4.3,1.5,4.3,4.3c0,2.7-2.1,4.4-4.6,4.4c-2.3,0-3.7-0.9-4.6-2.2L474,51.4z"/>
	<path class="st0" d="M512.2,53.2l4.6-10.4h-6.4v-2.4h9.6v1.9l-4.7,10.9H512.2z M521.6,55.8l-1.1-0.9c0.6-0.3,1.3-1.1,1.5-1.8
		c-0.1,0-0.2,0.1-0.4,0.1c-0.7,0-1.3-0.6-1.3-1.4c0-0.8,0.7-1.5,1.5-1.5c0.9,0,1.7,0.7,1.7,2C523.6,53.7,522.8,54.9,521.6,55.8z
		 M526.7,53.2l4.6-10.4h-6.4v-2.4h9.6v1.9l-4.7,10.9H526.7z M536.3,51.5l1.5-1.9c0.9,0.9,2,1.4,3.4,1.4c1.5,0,2.4-0.9,2.4-1.9
		c0-1.1-0.8-1.9-2.3-1.9c-1.1,0-1.9,0.3-2.7,1l-1.9-0.5v-7.3h8.8v2.4h-6v3.1c0.6-0.6,1.6-1.1,2.8-1.1c2.2,0,4.1,1.6,4.1,4.1
		c0,2.7-2,4.4-5.1,4.4C539,53.4,537.4,52.7,536.3,51.5z M549.3,55.8l-1.1-0.9c0.6-0.3,1.3-1.1,1.5-1.8c-0.1,0-0.2,0.1-0.4,0.1
		c-0.7,0-1.3-0.6-1.3-1.4c0-0.8,0.7-1.5,1.5-1.5c0.9,0,1.7,0.7,1.7,2C551.2,53.7,550.4,54.9,549.3,55.8z M553,49.8
		c0-1.6,1.2-2.7,2.7-3.3c-1.4-0.5-2.5-1.4-2.5-3c0-2.4,2.5-3.4,4.9-3.4c2.4,0,4.9,1,4.9,3.4c0,1.6-1.1,2.5-2.5,3
		c1.5,0.5,2.7,1.7,2.7,3.3c0,2.4-2.5,3.5-5.1,3.5S553,52.2,553,49.8z M560.5,49.5c0-1.1-1.6-1.6-2.4-1.7c-0.8,0.1-2.4,0.6-2.4,1.7
		c0,0.9,1,1.5,2.4,1.5C559.4,51,560.5,50.4,560.5,49.5z M560.3,44c0-0.9-0.9-1.4-2.1-1.4c-1.3,0-2.2,0.5-2.2,1.4
		c0,0.9,1.4,1.3,2.2,1.5C558.9,45.4,560.3,45,560.3,44z M564.8,46.8c0-3.3,1.6-6.6,5.3-6.6s5.3,3.3,5.3,6.6s-1.6,6.6-5.3,6.6
		S564.8,50.1,564.8,46.8z M572.6,46.8c0-2.4-0.7-4.2-2.5-4.2c-1.8,0-2.5,1.8-2.5,4.2c0,2.4,0.7,4.2,2.5,4.2S572.6,49.1,572.6,46.8z
		 M577,49.8c0-1.6,1.2-2.7,2.7-3.3c-1.4-0.5-2.5-1.4-2.5-3c0-2.4,2.5-3.4,4.9-3.4c2.4,0,4.9,1,4.9,3.4c0,1.6-1.1,2.5-2.5,3
		c1.5,0.5,2.7,1.7,2.7,3.3c0,2.4-2.5,3.5-5.1,3.5S577,52.2,577,49.8z M584.5,49.5c0-1.1-1.6-1.6-2.4-1.7c-0.8,0.1-2.4,0.6-2.4,1.7
		c0,0.9,1,1.5,2.4,1.5C583.4,51,584.5,50.4,584.5,49.5z M584.3,44c0-0.9-0.9-1.4-2.1-1.4c-1.3,0-2.2,0.5-2.2,1.4
		c0,0.9,1.4,1.3,2.2,1.5C582.9,45.4,584.3,45,584.3,44z"/>
	<line class="st9" x1="7.2" y1="77.6" x2="27.1" y2="77.6"/>
	<g>
		<path d="M33,82.7V70.8h1.5v10.6h5.5v1.3H33z"/>
		<path d="M41.6,78.4c0-2.5,1.8-4.5,4.2-4.5c2.6,0,4.1,2,4.1,4.6v0.3h-7c0.1,1.6,1.2,3,3.1,3c1,0,2-0.4,2.7-1.1l0.6,0.9
			c-0.9,0.9-2,1.3-3.4,1.3C43.4,82.9,41.6,81.1,41.6,78.4z M45.8,75c-1.8,0-2.7,1.6-2.8,2.9h5.7C48.7,76.6,47.8,75,45.8,75z"/>
		<path d="M57.5,82.7v-1c-0.7,0.8-1.7,1.2-2.9,1.2c-1.5,0-3-1-3-2.9c0-1.9,1.6-2.8,3-2.8c1.2,0,2.2,0.4,2.9,1.2v-1.6
			c0-1.2-0.9-1.8-2.2-1.8c-1,0-1.9,0.4-2.6,1.2l-0.6-0.9c0.9-1,2-1.4,3.4-1.4c1.8,0,3.3,0.8,3.3,2.9v5.9H57.5z M57.5,80.9v-1.6
			c-0.5-0.7-1.4-1.1-2.4-1.1c-1.2,0-2.1,0.8-2.1,1.9c0,1.1,0.9,1.9,2.1,1.9C56.1,82,57,81.6,57.5,80.9z"/>
		<path d="M67.8,82.7v-1.3c-0.6,0.9-1.7,1.5-2.9,1.5c-2.2,0-3.8-1.7-3.8-4.5c0-2.7,1.6-4.5,3.8-4.5c1.2,0,2.2,0.6,2.9,1.5v-4.6h1.3
			v11.9H67.8z M67.8,80.4v-3.9c-0.5-0.8-1.5-1.4-2.6-1.4c-1.7,0-2.8,1.4-2.8,3.3s1,3.3,2.8,3.3C66.3,81.7,67.3,81.1,67.8,80.4z"/>
	</g>
	<path class="st8" d="M114.7,84.7v-12l-3.2,3.4l-0.7-0.8l4.1-4.3h1.1v13.6H114.7z M120.5,86.7c0.7-0.4,1.1-1.2,1.2-1.9l-0.2,0
		c-0.5,0-0.8-0.4-0.8-0.9c0-0.5,0.4-0.9,0.9-0.9c0.6,0,1,0.5,1,1.3c0,1.1-0.7,2.2-1.5,2.8L120.5,86.7z M130,70.9
		c1.8,0,2.9,0.7,3.7,1.7l-0.7,0.9c-0.7-0.9-1.5-1.5-3-1.5c-2.9,0-4,3.1-4,6c0,0.2,0,0.4,0,0.6c0.6-0.9,2.1-2.3,4-2.3
		c2.4,0,4.4,1.4,4.4,4.3c0,2.2-1.7,4.3-4.6,4.3c-3.7,0-5-3.4-5-7C124.8,74.5,126.2,70.9,130,70.9z M129.7,77.4c-1.5,0-2.9,1-3.7,2.3
		c0.2,1.9,1.1,4.2,3.7,4.2c2.3,0,3.4-1.8,3.4-3.3C133.2,78.4,131.7,77.4,129.7,77.4z M140.5,77.7c-1.6-0.4-3.2-1.5-3.2-3.3
		c0-2.4,2.2-3.5,4.4-3.5c2.1,0,4.4,1.1,4.4,3.5c0,1.8-1.5,2.9-3.2,3.3c1.7,0.5,3.4,1.7,3.4,3.6c0,2.2-2,3.6-4.6,3.6
		c-2.6,0-4.6-1.4-4.6-3.6C137.1,79.4,138.8,78.2,140.5,77.7z M141.8,78.3c-0.8,0.1-3.4,0.9-3.4,3c0,1.7,1.6,2.7,3.4,2.7
		c1.8,0,3.4-1,3.4-2.7C145.2,79.2,142.6,78.4,141.8,78.3z M141.8,72c-1.8,0-3.2,0.9-3.2,2.6c0,1.9,2.4,2.5,3.2,2.7
		c0.8-0.2,3.2-0.8,3.2-2.7C145,72.9,143.5,72,141.8,72z M148.9,86.7c0.7-0.4,1.1-1.2,1.2-1.9l-0.2,0c-0.5,0-0.8-0.4-0.8-0.9
		c0-0.5,0.4-0.9,0.9-0.9c0.6,0,1,0.5,1,1.3c0,1.1-0.7,2.2-1.5,2.8L148.9,86.7z M153.9,84.7v-1c4.6-3.7,7.7-6.4,7.7-9
		c0-2-1.6-2.8-3.1-2.8c-1.7,0-3,0.7-3.7,1.8L154,73c1-1.3,2.6-2.1,4.5-2.1c2,0,4.3,1.1,4.3,3.8c0,3-3.2,5.7-7.1,8.9h7.2v1.1H153.9z
		 M171.3,84.7V81h-6.4v-1l6-8.8h1.6V80h2V81h-2v3.7H171.3z M171.3,72.3L166,80h5.2V72.3z M178.3,84.7l5.7-12.5h-7.5v-1.1h8.9V72
		l-5.8,12.8H178.3z"/>
	<path class="st8" d="M218.6,84.7v-12l-3.2,3.4l-0.7-0.8l4.1-4.3h1.1v13.6H218.6z M224.4,86.7c0.7-0.4,1.1-1.2,1.2-1.9l-0.2,0
		c-0.5,0-0.8-0.4-0.8-0.9c0-0.5,0.4-0.9,0.9-0.9c0.6,0,1,0.5,1,1.3c0,1.1-0.7,2.2-1.5,2.8L224.4,86.7z M230.1,82.4
		c0.7,0.9,1.5,1.5,3,1.5c3,0,4-3.1,4-6c0-0.2,0-0.4,0-0.6c-0.6,0.9-2.1,2.3-4,2.3c-2.4,0-4.4-1.4-4.4-4.3c0-2.2,1.7-4.3,4.6-4.3
		c3.7,0,5,3.4,5,7c0,3.5-1.5,7-5.2,7c-1.8,0-2.9-0.7-3.7-1.7L230.1,82.4z M233.3,72c-2.3,0-3.4,1.8-3.4,3.3c0,2.2,1.4,3.3,3.4,3.3
		c1.5,0,2.9-1,3.7-2.3C236.8,74.3,235.8,72,233.3,72z M242.4,84.7l5.7-12.5h-7.5v-1.1h8.9V72l-5.8,12.8H242.4z M250.1,86.7
		c0.7-0.4,1.1-1.2,1.2-1.9l-0.2,0c-0.5,0-0.8-0.4-0.8-0.9c0-0.5,0.4-0.9,0.9-0.9c0.6,0,1,0.5,1,1.3c0,1.1-0.7,2.2-1.5,2.8
		L250.1,86.7z M258.1,77.7c-1.6-0.4-3.2-1.5-3.2-3.3c0-2.4,2.2-3.5,4.4-3.5c2.1,0,4.4,1.1,4.4,3.5c0,1.8-1.5,2.9-3.2,3.3
		c1.7,0.5,3.4,1.7,3.4,3.6c0,2.2-2,3.6-4.6,3.6c-2.6,0-4.6-1.4-4.6-3.6C254.7,79.4,256.4,78.2,258.1,77.7z M259.3,78.3
		c-0.8,0.1-3.4,0.9-3.4,3c0,1.7,1.6,2.7,3.4,2.7c1.8,0,3.4-1,3.4-2.7C262.8,79.2,260.1,78.4,259.3,78.3z M259.3,72
		c-1.8,0-3.2,0.9-3.2,2.6c0,1.9,2.4,2.5,3.2,2.7c0.8-0.2,3.2-0.8,3.2-2.7C262.6,72.9,261.1,72,259.3,72z M267.6,82
		c0.8,1.1,2.1,1.9,3.8,1.9c2.1,0,3.4-1.1,3.4-2.9c0-2-1.6-2.8-3.6-2.8c-0.6,0-1.1,0-1.3,0v-1.1c0.2,0,0.7,0,1.3,0
		c1.8,0,3.4-0.8,3.4-2.6c0-1.7-1.5-2.6-3.3-2.6c-1.5,0-2.7,0.6-3.6,1.7L267,73c1-1.2,2.5-2.1,4.4-2.1c2.4,0,4.4,1.3,4.4,3.6
		c0,2.1-1.8,3-2.9,3.2c1.2,0.1,3.1,1.1,3.1,3.4s-1.7,3.9-4.6,3.9c-2.2,0-3.9-1-4.6-2.3L267.6,82z M282.4,77.7
		c-1.6-0.4-3.2-1.5-3.2-3.3c0-2.4,2.2-3.5,4.4-3.5c2.1,0,4.4,1.1,4.4,3.5c0,1.8-1.5,2.9-3.2,3.3c1.7,0.5,3.4,1.7,3.4,3.6
		c0,2.2-2,3.6-4.6,3.6c-2.6,0-4.6-1.4-4.6-3.6C279,79.4,280.7,78.2,282.4,77.7z M283.6,78.3c-0.8,0.1-3.4,0.9-3.4,3
		c0,1.7,1.6,2.7,3.4,2.7c1.8,0,3.4-1,3.4-2.7C287.1,79.2,284.4,78.4,283.6,78.3z M283.6,72c-1.8,0-3.2,0.9-3.2,2.6
		c0,1.9,2.4,2.5,3.2,2.7c0.8-0.2,3.2-0.8,3.2-2.7C286.9,72.9,285.4,72,283.6,72z"/>
	<path class="st8" d="M314.1,84.7v-12l-3.2,3.4l-0.7-0.8l4.1-4.3h1.1v13.6H314.1z M319.9,86.7c0.7-0.4,1.1-1.2,1.2-1.9l-0.2,0
		c-0.5,0-0.8-0.4-0.8-0.9c0-0.5,0.4-0.9,0.9-0.9c0.6,0,1,0.5,1,1.3c0,1.1-0.7,2.2-1.5,2.8L319.9,86.7z M327.9,77.7
		c-1.6-0.4-3.2-1.5-3.2-3.3c0-2.4,2.2-3.5,4.4-3.5c2.1,0,4.4,1.1,4.4,3.5c0,1.8-1.5,2.9-3.2,3.3c1.7,0.5,3.4,1.7,3.4,3.6
		c0,2.2-2,3.6-4.6,3.6c-2.6,0-4.6-1.4-4.6-3.6C324.5,79.4,326.2,78.2,327.9,77.7z M329.1,78.3c-0.8,0.1-3.4,0.9-3.4,3
		c0,1.7,1.6,2.7,3.4,2.7c1.8,0,3.4-1,3.4-2.7C332.6,79.2,330,78.4,329.1,78.3z M329.1,72c-1.8,0-3.2,0.9-3.2,2.6
		c0,1.9,2.4,2.5,3.2,2.7c0.8-0.2,3.2-0.8,3.2-2.7C332.4,72.9,330.9,72,329.1,72z M341.1,84.7v-12l-3.2,3.4l-0.7-0.8l4.1-4.3h1.1
		v13.6H341.1z M346.9,86.7c0.7-0.4,1.1-1.2,1.2-1.9l-0.2,0c-0.5,0-0.8-0.4-0.8-0.9c0-0.5,0.4-0.9,0.9-0.9c0.6,0,1,0.5,1,1.3
		c0,1.1-0.7,2.2-1.5,2.8L346.9,86.7z M352.3,82c0.8,1.1,2.1,1.9,3.8,1.9c2.1,0,3.4-1.1,3.4-2.9c0-2-1.6-2.8-3.6-2.8
		c-0.6,0-1.1,0-1.3,0v-1.1c0.2,0,0.7,0,1.3,0c1.8,0,3.4-0.8,3.4-2.6c0-1.7-1.5-2.6-3.3-2.6c-1.5,0-2.7,0.6-3.6,1.7l-0.7-0.7
		c1-1.2,2.5-2.1,4.4-2.1c2.4,0,4.4,1.3,4.4,3.6c0,2.1-1.8,3-2.9,3.2c1.2,0.1,3.1,1.1,3.1,3.4s-1.7,3.9-4.6,3.9c-2.2,0-3.9-1-4.6-2.3
		L352.3,82z M365.2,84.7l5.7-12.5h-7.5v-1.1h8.9V72l-5.8,12.8H365.2z M379.5,70.9c3.6,0,5,3.8,5,7c0,3.2-1.4,7-5,7s-5-3.8-5-7
		C374.5,74.7,375.8,70.9,379.5,70.9z M379.5,72c-2.9,0-3.8,3.1-3.8,6c0,2.8,0.9,6,3.8,6s3.8-3.2,3.8-6C383.3,75.1,382.4,72,379.5,72
		z"/>
	<path class="st8" d="M408.4,84.7v-1c4.6-3.7,7.7-6.4,7.7-9c0-2-1.6-2.8-3.1-2.8c-1.7,0-3,0.7-3.7,1.8l-0.8-0.7
		c1-1.3,2.6-2.1,4.5-2.1c2,0,4.3,1.1,4.3,3.8c0,3-3.2,5.7-7.1,8.9h7.2v1.1H408.4z M420.3,86.7c0.7-0.4,1.1-1.2,1.2-1.9l-0.2,0
		c-0.5,0-0.8-0.4-0.8-0.9c0-0.5,0.4-0.9,0.9-0.9c0.6,0,1,0.5,1,1.3c0,1.1-0.7,2.2-1.5,2.8L420.3,86.7z M428.1,84.7v-12l-3.2,3.4
		l-0.7-0.8l4.1-4.3h1.1v13.6H428.1z M440.1,84.7V81h-6.4v-1l6-8.8h1.6V80h2V81h-2v3.7H440.1z M440.1,72.3l-5.2,7.7h5.2V72.3z
		 M445.4,86.7c0.7-0.4,1.1-1.2,1.2-1.9l-0.2,0c-0.5,0-0.8-0.4-0.8-0.9c0-0.5,0.4-0.9,0.9-0.9c0.6,0,1,0.5,1,1.3
		c0,1.1-0.7,2.2-1.5,2.8L445.4,86.7z M450.8,82c0.8,1.1,2.1,1.9,3.8,1.9c2.1,0,3.4-1.1,3.4-2.9c0-2-1.6-2.8-3.6-2.8
		c-0.6,0-1.1,0-1.3,0v-1.1c0.2,0,0.7,0,1.3,0c1.8,0,3.4-0.8,3.4-2.6c0-1.7-1.5-2.6-3.3-2.6c-1.5,0-2.7,0.6-3.6,1.7l-0.7-0.7
		c1-1.2,2.5-2.1,4.4-2.1c2.4,0,4.4,1.3,4.4,3.6c0,2.1-1.8,3-2.9,3.2c1.2,0.1,3.1,1.1,3.1,3.4s-1.7,3.9-4.6,3.9c-2.2,0-3.9-1-4.6-2.3
		L450.8,82z M463.4,82.4c0.7,0.9,1.5,1.5,3,1.5c3,0,4-3.1,4-6c0-0.2,0-0.4,0-0.6c-0.6,0.9-2.1,2.3-4,2.3c-2.4,0-4.4-1.4-4.4-4.3
		c0-2.2,1.7-4.3,4.6-4.3c3.7,0,5,3.4,5,7c0,3.5-1.5,7-5.2,7c-1.8,0-2.9-0.7-3.7-1.7L463.4,82.4z M466.6,72c-2.3,0-3.4,1.8-3.4,3.3
		c0,2.2,1.4,3.3,3.4,3.3c1.5,0,2.9-1,3.7-2.3C470.1,74.3,469.2,72,466.6,72z M475.6,82.4c0.7,0.9,1.5,1.5,3,1.5c3,0,4-3.1,4-6
		c0-0.2,0-0.4,0-0.6c-0.6,0.9-2.1,2.3-4,2.3c-2.4,0-4.4-1.4-4.4-4.3c0-2.2,1.7-4.3,4.6-4.3c3.7,0,5,3.4,5,7c0,3.5-1.5,7-5.2,7
		c-1.8,0-2.9-0.7-3.7-1.7L475.6,82.4z M478.9,72c-2.3,0-3.4,1.8-3.4,3.3c0,2.2,1.4,3.3,3.4,3.3c1.5,0,2.9-1,3.7-2.3
		C482.4,74.3,481.4,72,478.9,72z"/>
	<path class="st0" d="M517.3,83.7v-9.3l-2.1,2.2l-1.6-1.6l4-4h2.4v12.8H517.3z M524.7,86.4l-1.1-0.9c0.6-0.3,1.3-1.1,1.5-1.8
		c-0.1,0-0.2,0.1-0.4,0.1c-0.7,0-1.3-0.6-1.3-1.4c0-0.8,0.7-1.5,1.5-1.5c0.9,0,1.7,0.7,1.7,2C526.7,84.2,525.9,85.5,524.7,86.4z
		 M528.9,82.6l1.2-2.1c0.7,0.7,1.4,1,2.5,1c2.1,0,3.2-1.8,3.2-3.6c0-0.1,0-0.2,0-0.3c-0.6,0.9-1.9,1.6-3.3,1.6
		c-2.3,0-4.3-1.4-4.3-4.2c0-2.5,2-4.4,4.9-4.4c3.9,0,5.5,3,5.5,6.6c0,3.9-2.2,6.6-6,6.6C531.1,83.9,529.8,83.4,528.9,82.6z
		 M535.9,75.7c-0.1-1.2-0.8-2.6-2.6-2.6c-1.5,0-2.3,1-2.3,1.9c0,1.3,1.2,1.9,2.4,1.9C534.3,77,535.2,76.5,535.9,75.7z M544.8,83.7
		v-9.3l-2.1,2.2l-1.6-1.6l4-4h2.4v12.8H544.8z M552.3,86.4l-1.1-0.9c0.6-0.3,1.3-1.1,1.5-1.8c-0.1,0-0.2,0.1-0.4,0.1
		c-0.7,0-1.3-0.6-1.3-1.4c0-0.8,0.7-1.5,1.5-1.5c0.9,0,1.7,0.7,1.7,2C554.2,84.2,553.4,85.5,552.3,86.4z M559.1,83.7v-9.3l-2.1,2.2
		l-1.6-1.6l4-4h2.4v12.8H559.1z M565.2,80.4c0-1.6,1.2-2.7,2.7-3.3c-1.4-0.5-2.5-1.4-2.5-3c0-2.4,2.5-3.4,4.9-3.4
		c2.4,0,4.9,1,4.9,3.4c0,1.6-1.1,2.5-2.5,3c1.5,0.5,2.7,1.7,2.7,3.3c0,2.4-2.5,3.5-5.1,3.5S565.2,82.8,565.2,80.4z M572.7,80
		c0-1.1-1.6-1.6-2.4-1.7c-0.8,0.1-2.4,0.6-2.4,1.7c0,0.9,1,1.5,2.4,1.5C571.6,81.5,572.7,81,572.7,80z M572.4,74.6
		c0-0.9-0.9-1.4-2.1-1.4c-1.3,0-2.2,0.5-2.2,1.4c0,0.9,1.4,1.3,2.2,1.5C571.1,75.9,572.4,75.5,572.4,74.6z M577.2,82l1.5-1.9
		c0.9,0.9,2,1.4,3.4,1.4c1.5,0,2.4-0.9,2.4-1.9c0-1.1-0.8-1.9-2.3-1.9c-1.1,0-1.9,0.3-2.7,1l-1.9-0.5V71h8.8v2.4h-6v3.1
		c0.6-0.6,1.6-1.1,2.8-1.1c2.2,0,4.1,1.6,4.1,4.1c0,2.7-2,4.4-5.1,4.4C579.9,84,578.3,83.2,577.2,82z"/>
</g>
</svg>
