<?xml version="1.0" encoding="utf-8"?>
<!-- Generator: Adobe Illustrator 26.4.0, SVG Export Plug-In . SVG Version: 6.00 Build 0)  -->
<svg version="1.1" id="Layer_1" xmlns="http://www.w3.org/2000/svg" xmlns:xlink="http://www.w3.org/1999/xlink" x="0px" y="0px"
	 viewBox="0 0 399.9 208" style="enable-background:new 0 0 399.9 208;" xml:space="preserve">
<style type="text/css">
	.st0{fill:#0069AA;}
	.st1{clip-path:url(#SVGID_00000160188930362707435570000000168258524259482265_);fill:#9FCC3B;}
	.st2{filter:url(#Adobe_OpacityMaskFilter);}
	.st3{fill:url(#SVGID_00000017501594505537211990000015420266542089111725_);}
	.st4{mask:url(#SVGID_00000030455287852712247530000003907044918651528611_);}
	.st5{clip-path:url(#SVGID_00000028283604470782616380000001279512822072326568_);fill:#15BFF1;}
	.st6{fill:none;stroke:#FFFFFF;}
	.st7{fill:#076AAA;}
	.st8{filter:url(#Adobe_OpacityMaskFilter_00000036240993516779844840000003979153111616831390_);}
	.st9{fill:url(#SVGID_00000122701204441338405740000006323747195936656048_);}
	.st10{mask:url(#SVGID_00000022562286009353355200000008044142354898091179_);}
	.st11{clip-path:url(#SVGID_00000147217287426923923650000015630605908738308795_);fill:#9FCC3B;}
	.st12{filter:url(#Adobe_OpacityMaskFilter_00000070820959696964292460000015132115852799692673_);}
	.st13{fill:url(#SVGID_00000106859622880512871350000010529543761547353278_);}
	.st14{mask:url(#SVGID_00000057858783754819890220000011732095331278018232_);}
	.st15{clip-path:url(#SVGID_00000101093010471592639780000008594392941777283001_);fill:#15BFF1;}
	.st16{fill:#4E4E50;}
	.st17{filter:url(#Adobe_OpacityMaskFilter_00000165917892725120477910000007544748434361070507_);}
	.st18{fill:url(#SVGID_00000139256964119066559790000002213519033993654194_);}
	.st19{mask:url(#SVGID_00000112590436600196245050000010573102303803946384_);}
	.st20{clip-path:url(#SVGID_00000171695133793321650410000017583716709671195810_);fill:#9FCC3B;}
	.st21{filter:url(#Adobe_OpacityMaskFilter_00000069363800999881711400000012413526165439571636_);}
	.st22{fill:url(#SVGID_00000135676366837082271000000004563792220852936894_);}
	.st23{mask:url(#SVGID_00000046318384014611135790000016369016530648640404_);}
	.st24{clip-path:url(#SVGID_00000046332369412828079500000000691076314392550582_);fill:#15BFF1;}
	.st25{filter:url(#Adobe_OpacityMaskFilter_00000040551466563425330620000002319545416808891314_);}
	.st26{fill:url(#SVGID_00000034789293275632438240000003967127841746862749_);}
	.st27{mask:url(#SVGID_00000041284142222852693770000001122028691087337882_);}
	.st28{clip-path:url(#SVGID_00000025417757669721749200000006023550884741521582_);fill:#9FCC3B;}
	.st29{filter:url(#Adobe_OpacityMaskFilter_00000134219210518045113850000003137834465703371962_);}
	.st30{fill:url(#SVGID_00000168799363470232184820000012344314265776854672_);}
	.st31{mask:url(#SVGID_00000023977953429011120850000010982311560738509487_);}
	.st32{clip-path:url(#SVGID_00000129891513332353073730000009112232433028791959_);fill:#15BFF1;}
	.st33{filter:url(#Adobe_OpacityMaskFilter_00000183207874967371496860000015033581689326459071_);}
	.st34{fill:url(#SVGID_00000078745552502956305810000004505579586763113913_);}
	.st35{mask:url(#SVGID_00000048502681237347809860000014076836919783283893_);}
	.st36{clip-path:url(#SVGID_00000162330940437401256620000011951393509120667060_);fill:#9FCC3B;}
	.st37{filter:url(#Adobe_OpacityMaskFilter_00000103967045360582751820000017380796961166201013_);}
	.st38{fill:url(#SVGID_00000183238442930477840780000008417358992805058203_);}
	.st39{mask:url(#SVGID_00000000218868986180375550000014319115011769081485_);}
	.st40{clip-path:url(#SVGID_00000055679724559821536600000018089854358725190057_);fill:#15BFF1;}
</style>
<path class="st0" d="M5.3,207.8v-1.2c3.9-3,5.7-4.5,5.7-6.1c0-1.2-1-1.7-2-1.7c-1.2,0-2.2,0.5-2.8,1.3l-0.9-1
	c0.9-1.1,2.3-1.6,3.7-1.6c1.9,0,3.6,1.1,3.6,3.1s-1.9,3.8-4.8,6h4.8v1.4H5.3V207.8z M18.3,197.3c2.8,0,4,2.8,4,5.3
	c0,2.6-1.2,5.3-4,5.3c-2.9,0-4.1-2.8-4.1-5.3C14.3,200.1,15.5,197.3,18.3,197.3z M18.3,198.7c-1.8,0-2.5,1.9-2.5,3.9s0.6,4,2.5,4
	c1.8,0,2.4-1.9,2.4-4C20.8,200.6,20.2,198.7,18.3,198.7z M23.9,207.8v-1.2c3.9-3,5.7-4.5,5.7-6.1c0-1.2-1-1.7-2-1.7
	c-1.2,0-2.2,0.5-2.8,1.3l-0.9-1c0.9-1.1,2.3-1.6,3.7-1.6c1.9,0,3.6,1.1,3.6,3.1s-1.9,3.8-4.8,6h4.8v1.4h-7.3V207.8z M36.4,207.8
	v-8.3l-1.9,2l-0.9-0.9l3-3.1h1.3v10.3H36.4z M41.2,204.6v-1.2h3.7v1.2H41.2z M46.1,207.8v-1.2c3.9-3,5.7-4.5,5.7-6.1
	c0-1.2-1-1.7-2-1.7c-1.2,0-2.2,0.5-2.8,1.3l-0.9-1c0.9-1.1,2.3-1.6,3.7-1.6c1.9,0,3.6,1.1,3.6,3.1s-1.9,3.8-4.8,6h4.8v1.4h-7.3
	V207.8z M55.4,207.8v-1.2c3.9-3,5.7-4.5,5.7-6.1c0-1.2-1-1.7-2-1.7c-1.2,0-2.2,0.5-2.8,1.3l-0.9-1c0.9-1.1,2.3-1.6,3.7-1.6
	c1.9,0,3.6,1.1,3.6,3.1s-1.9,3.8-4.8,6h4.8v1.4h-7.3V207.8z"/>
<path d="M89.7,207.7V207c3.5-2.8,5.9-4.8,5.9-6.8c0-1.5-1.2-2.1-2.4-2.1c-1.3,0-2.3,0.6-2.8,1.3l-0.6-0.6c0.7-1,2-1.6,3.4-1.6
	c1.5,0,3.2,0.9,3.2,2.9c0,2.3-2.4,4.3-5.4,6.8h5.4v0.8L89.7,207.7L89.7,207.7z M102.4,197.2c2.8,0,3.8,2.9,3.8,5.3
	c0,2.4-1,5.3-3.8,5.3s-3.8-2.9-3.8-5.3S99.6,197.2,102.4,197.2z M102.4,198c-2.2,0-2.9,2.4-2.9,4.5s0.7,4.5,2.9,4.5
	c2.2,0,2.9-2.4,2.9-4.5S104.6,198,102.4,198z M107.9,207.7V207c3.5-2.8,5.9-4.8,5.9-6.8c0-1.5-1.2-2.1-2.4-2.1
	c-1.3,0-2.3,0.6-2.8,1.3l-0.6-0.6c0.7-1,2-1.6,3.4-1.6c1.5,0,3.2,0.9,3.2,2.9c0,2.3-2.4,4.3-5.4,6.8h5.4v0.8L107.9,207.7
	L107.9,207.7z M120.6,197.2c2.8,0,3.8,2.9,3.8,5.3c0,2.4-1,5.3-3.8,5.3s-3.8-2.9-3.8-5.3C116.8,200.1,117.8,197.2,120.6,197.2z
	 M120.6,198c-2.2,0-2.9,2.4-2.9,4.5s0.7,4.5,2.9,4.5s2.9-2.4,2.9-4.5S122.8,198,120.6,198z M126.4,204.3v-0.7h3.7v0.7H126.4z
	 M131.3,207.7V207c3.5-2.8,5.9-4.8,5.9-6.8c0-1.5-1.2-2.1-2.4-2.1c-1.3,0-2.3,0.6-2.8,1.3l-0.6-0.6c0.7-1,2-1.6,3.4-1.6
	c1.5,0,3.2,0.9,3.2,2.9c0,2.3-2.4,4.3-5.4,6.8h5.4v0.8L131.3,207.7L131.3,207.7z M143.8,207.7v-9.1l-2.4,2.6l-0.6-0.6l3.1-3.2h0.8
	v10.3H143.8z"/>
<path d="M171.9,207.6v-0.7c3.5-2.8,5.9-4.8,5.9-6.8c0-1.5-1.2-2.1-2.4-2.1c-1.3,0-2.3,0.6-2.8,1.3l-0.6-0.6c0.7-1,2-1.6,3.4-1.6
	c1.5,0,3.2,0.9,3.2,2.9c0,2.3-2.4,4.3-5.4,6.8h5.4v0.8L171.9,207.6L171.9,207.6z M184.6,197.1c2.8,0,3.8,2.9,3.8,5.3
	c0,2.4-1,5.3-3.8,5.3s-3.8-2.9-3.8-5.3C180.8,200,181.9,197.1,184.6,197.1z M184.6,197.9c-2.2,0-2.9,2.4-2.9,4.5s0.7,4.5,2.9,4.5
	s2.9-2.4,2.9-4.5C187.5,200.3,186.8,197.9,184.6,197.9z M193.9,207.6v-9.1l-2.4,2.6l-0.6-0.6l3.1-3.2h0.8v10.3H193.9z M199.3,205.8
	c0.5,0.7,1.1,1.1,2.3,1.1c2.3,0,3-2.4,3-4.5c0-0.2,0-0.3,0-0.5c-0.4,0.7-1.6,1.7-3,1.7c-1.9,0-3.3-1.1-3.3-3.3
	c0-1.7,1.3-3.3,3.5-3.3c2.8,0,3.8,2.6,3.8,5.3c0,2.6-1.1,5.3-3.9,5.3c-1.3,0-2.2-0.5-2.8-1.3L199.3,205.8z M201.7,197.9
	c-1.8,0-2.6,1.4-2.6,2.5c0,1.7,1.1,2.5,2.6,2.5c1.1,0,2.2-0.7,2.8-1.8C204.4,199.7,203.7,197.9,201.7,197.9z M207.6,204.2v-0.7h3.7
	v0.7H207.6z M212.5,207.6v-0.7c3.5-2.8,5.9-4.8,5.9-6.8c0-1.5-1.2-2.1-2.4-2.1c-1.3,0-2.3,0.6-2.8,1.3l-0.6-0.6c0.7-1,2-1.6,3.4-1.6
	c1.5,0,3.2,0.9,3.2,2.9c0,2.3-2.4,4.3-5.4,6.8h5.4v0.8L212.5,207.6L212.5,207.6z M225.2,197.1c2.8,0,3.8,2.9,3.8,5.3
	c0,2.4-1,5.3-3.8,5.3s-3.8-2.9-3.8-5.3C221.4,200,222.4,197.1,225.2,197.1z M225.2,197.9c-2.2,0-2.9,2.4-2.9,4.5s0.7,4.5,2.9,4.5
	s2.9-2.4,2.9-4.5S227.4,197.9,225.2,197.9z"/>
<path d="M256,207.5v-0.7c3.5-2.8,5.9-4.8,5.9-6.8c0-1.5-1.2-2.1-2.4-2.1c-1.3,0-2.3,0.6-2.8,1.3l-0.6-0.6c0.7-1,2-1.6,3.4-1.6
	c1.5,0,3.2,0.9,3.2,2.9c0,2.3-2.4,4.3-5.4,6.8h5.4v0.8L256,207.5L256,207.5z M268.7,197c2.8,0,3.8,2.9,3.8,5.3c0,2.4-1,5.3-3.8,5.3
	s-3.8-2.9-3.8-5.3S265.9,197,268.7,197z M268.7,197.9c-2.2,0-2.9,2.4-2.9,4.5s0.7,4.5,2.9,4.5c2.2,0,2.9-2.4,2.9-4.5
	C271.6,200.2,270.9,197.9,268.7,197.9z M277.9,207.5v-9.1l-2.4,2.6l-0.6-0.6l3.1-3.2h0.8v10.3H277.9z M285,202.2
	c-1.2-0.3-2.4-1.1-2.4-2.5c0-1.8,1.7-2.7,3.3-2.7c1.6,0,3.3,0.8,3.3,2.7c0,1.4-1.2,2.2-2.4,2.5c1.3,0.4,2.6,1.3,2.6,2.7
	c0,1.7-1.5,2.8-3.5,2.8s-3.5-1.1-3.5-2.8C282.5,203.5,283.7,202.6,285,202.2z M286,202.6c-0.6,0.1-2.6,0.7-2.6,2.3
	c0,1.3,1.2,2,2.6,2c1.3,0,2.6-0.8,2.6-2C288.6,203.3,286.6,202.7,286,202.6z M286,197.9c-1.4,0-2.4,0.7-2.4,1.9c0,1.4,1.8,1.9,2.4,2
	c0.6-0.1,2.4-0.6,2.4-2C288.4,198.6,287.3,197.9,286,197.9z M291.5,204.2v-0.7h3.7v0.7H291.5z M299.8,207.5v-9.1l-2.4,2.6l-0.6-0.6
	l3.1-3.2h0.8v10.3H299.8z M305.2,205.7c0.5,0.7,1.1,1.1,2.3,1.1c2.3,0,3-2.4,3-4.5c0-0.2,0-0.3,0-0.5c-0.4,0.7-1.6,1.7-3,1.7
	c-1.9,0-3.3-1.1-3.3-3.3c0-1.7,1.3-3.3,3.5-3.3c2.8,0,3.8,2.6,3.8,5.3c0,2.6-1.1,5.3-3.9,5.3c-1.3,0-2.2-0.5-2.8-1.3L305.2,205.7z
	 M307.7,197.8c-1.8,0-2.6,1.4-2.6,2.5c0,1.7,1.1,2.5,2.6,2.5c1.1,0,2.2-0.7,2.8-1.8C310.4,199.6,309.6,197.8,307.7,197.8z"/>
<path d="M339.9,207.7V207c3.5-2.8,5.9-4.8,5.9-6.8c0-1.5-1.2-2.1-2.4-2.1c-1.3,0-2.3,0.6-2.8,1.3l-0.6-0.6c0.7-1,2-1.6,3.4-1.6
	c1.5,0,3.2,0.9,3.2,2.9c0,2.3-2.4,4.3-5.4,6.8h5.4v0.8L339.9,207.7L339.9,207.7z M352.6,197.2c2.8,0,3.8,2.9,3.8,5.3
	c0,2.4-1,5.3-3.8,5.3s-3.8-2.9-3.8-5.3C348.8,200.1,349.8,197.2,352.6,197.2z M352.6,198c-2.2,0-2.9,2.4-2.9,4.5s0.7,4.5,2.9,4.5
	c2.2,0,2.9-2.4,2.9-4.5S354.8,198,352.6,198z M361.9,207.7v-9.1l-2.4,2.6l-0.6-0.6l3.1-3.2h0.8v10.3H361.9z M367.7,207.7l4.3-9.5
	h-5.7v-0.8h6.7v0.6l-4.4,9.7H367.7z M374.1,204.3v-0.7h3.7v0.7H374.1z M382.5,207.7v-9.1l-2.4,2.6l-0.6-0.6l3.1-3.2h0.8v10.3H382.5z
	 M389.6,202.4c-1.2-0.3-2.4-1.1-2.4-2.5c0-1.8,1.7-2.7,3.3-2.7c1.6,0,3.3,0.8,3.3,2.7c0,1.4-1.2,2.2-2.4,2.5
	c1.3,0.4,2.6,1.3,2.6,2.7c0,1.7-1.5,2.8-3.5,2.8s-3.5-1.1-3.5-2.8C387,203.7,388.3,202.7,389.6,202.4z M390.5,202.8
	c-0.6,0.1-2.6,0.7-2.6,2.3c0,1.3,1.2,2,2.6,2c1.3,0,2.6-0.8,2.6-2C393.1,203.5,391.1,202.8,390.5,202.8z M390.5,198
	c-1.4,0-2.4,0.7-2.4,1.9c0,1.4,1.8,1.9,2.4,2c0.6-0.1,2.4-0.6,2.4-2C393,198.7,391.9,198,390.5,198z"/>
<g>
	<g>
		<g>
			<g>
				<defs>
					<rect id="SVGID_1_" x="13.5" y="16.9" width="28.2" height="175.6"/>
				</defs>
				<clipPath id="SVGID_00000065788312788674640100000009163964376838872489_">
					<use xlink:href="#SVGID_1_"  style="overflow:visible;"/>
				</clipPath>
				
					<rect x="27.9" y="25.9" style="clip-path:url(#SVGID_00000065788312788674640100000009163964376838872489_);fill:#9FCC3B;" width="11.7" height="157.6"/>
			</g>
		</g>
	</g>
	<defs>
		<filter id="Adobe_OpacityMaskFilter" filterUnits="userSpaceOnUse" x="13.5" y="15.3" width="28.2" height="49.7">
			<feColorMatrix  type="matrix" values="1 0 0 0 0  0 1 0 0 0  0 0 1 0 0  0 0 0 1 0"/>
		</filter>
	</defs>
	
		<mask maskUnits="userSpaceOnUse" x="13.5" y="15.3" width="28.2" height="49.7" id="SVGID_00000030455287852712247530000003907044918651528611_">
		<g class="st2">
			
				<linearGradient id="SVGID_00000101809615158569321780000015315402904906684052_" gradientUnits="userSpaceOnUse" x1="-149.3792" y1="-168.2639" x2="-148.3791" y2="-168.2639" gradientTransform="matrix(-3.000000e-15 45.5875 -45.5875 -3.000000e-15 -7749.332 6867.7104)">
				<stop  offset="0" style="stop-color:#FFFFFF"/>
				<stop  offset="1" style="stop-color:#000000"/>
			</linearGradient>
			
				<rect x="-946.3" y="-64.8" style="fill:url(#SVGID_00000101809615158569321780000015315402904906684052_);" width="1735.4" height="595.3"/>
		</g>
	</mask>
	<g class="st4">
		<g>
			<g>
				<defs>
					<rect id="SVGID_00000164473859579562685280000008941935880110461318_" x="13.5" y="15.3" width="28.2" height="49.7"/>
				</defs>
				<clipPath id="SVGID_00000127035261827568725340000006519460591614422918_">
					<use xlink:href="#SVGID_00000164473859579562685280000008941935880110461318_"  style="overflow:visible;"/>
				</clipPath>
				
					<rect x="27.9" y="24.3" style="clip-path:url(#SVGID_00000127035261827568725340000006519460591614422918_);fill:#15BFF1;" width="11.7" height="31.7"/>
			</g>
		</g>
	</g>
	<line class="st6" x1="33.8" y1="183.5" x2="33.8" y2="25.9"/>
	<path class="st7" d="M0.5,10.3l1-1.8c0.6,0.6,1.2,0.9,2.2,0.9c1.8,0,2.8-1.5,2.8-3.1c0-0.1,0-0.2,0-0.2C6,6.8,4.9,7.5,3.7,7.5
		C1.7,7.5,0,6.3,0,3.9c0-2.1,1.7-3.8,4.2-3.8c3.3,0,4.7,2.6,4.7,5.7c0,3.3-1.9,5.7-5.1,5.7C2.4,11.4,1.3,11,0.5,10.3z M6.5,4.4
		C6.4,3.3,5.8,2.2,4.3,2.2c-1.3,0-2,0.9-2,1.6c0,1.2,1,1.6,2,1.6C5.1,5.4,5.9,5,6.5,4.4z M11,13.5l-0.9-0.7c0.5-0.3,1.1-1,1.3-1.5
		c0,0-0.2,0-0.3,0c-0.6,0-1.1-0.5-1.1-1.2s0.6-1.3,1.3-1.3c0.8,0,1.5,0.6,1.5,1.7C12.7,11.7,12,12.8,11,13.5z M13.9,5.8
		c0-3.3,1.9-5.7,5.1-5.7c1.3,0,2.5,0.4,3.2,1.1L21.1,3c-0.6-0.6-1.2-0.9-2.2-0.9c-1.6,0-2.8,1.4-2.8,3.1c0,0.1,0,0.1,0,0.2
		C16.6,4.7,17.7,4,18.9,4c2,0,3.8,1.2,3.8,3.6c0,2.1-1.7,3.8-4.2,3.8C15.3,11.5,13.9,8.9,13.9,5.8z M20.4,7.8c0-1.2-1-1.6-2-1.6
		c-0.8,0-1.6,0.4-2.2,1c0.1,1.1,0.7,2.2,2.2,2.2C19.7,9.4,20.4,8.5,20.4,7.8z M24.3,5.8c0-3.3,1.9-5.7,5.1-5.7
		c1.3,0,2.5,0.4,3.2,1.1L31.5,3c-0.6-0.6-1.2-0.9-2.2-0.9c-1.6,0-2.8,1.4-2.8,3.1c0,0.1,0,0.1,0,0.2C27,4.7,28.1,4,29.3,4
		c2,0,3.8,1.2,3.8,3.6c0,2.1-1.7,3.8-4.2,3.8C25.7,11.5,24.3,8.9,24.3,5.8z M30.8,7.8c0-1.2-1-1.6-2-1.6c-0.8,0-1.6,0.4-2.2,1
		c0.1,1.1,0.7,2.2,2.2,2.2C30.1,9.4,30.8,8.5,30.8,7.8z M35.6,13.5l-0.9-0.7c0.5-0.3,1.1-1,1.3-1.5c0,0-0.2,0-0.3,0
		c-0.6,0-1.1-0.5-1.1-1.2s0.6-1.3,1.3-1.3c0.8,0,1.5,0.6,1.5,1.7C37.3,11.7,36.7,12.8,35.6,13.5z M39.2,10.3l1-1.8
		c0.6,0.6,1.2,0.9,2.2,0.9c1.8,0,2.8-1.5,2.8-3.1c0-0.1,0-0.2,0-0.2c-0.5,0.7-1.6,1.4-2.8,1.4c-2,0-3.7-1.2-3.7-3.6
		c0-2.1,1.7-3.8,4.2-3.8c3.3,0,4.7,2.6,4.7,5.7c0,3.3-1.9,5.7-5.1,5.7C41.1,11.4,40,11,39.2,10.3z M45.2,4.4
		c-0.1-1.1-0.7-2.2-2.2-2.2c-1.3,0-2,0.9-2,1.6c0,1.2,1,1.6,2,1.6C43.8,5.4,44.6,5,45.2,4.4z M49.6,10.3l1-1.8
		c0.6,0.6,1.2,0.9,2.2,0.9c1.8,0,2.8-1.5,2.8-3.1c0-0.1,0-0.2,0-0.2c-0.5,0.7-1.6,1.4-2.8,1.4c-2,0-3.7-1.2-3.7-3.6
		c0-2.1,1.7-3.8,4.2-3.8c3.3,0,4.7,2.6,4.7,5.7c0,3.3-1.9,5.7-5.1,5.7C51.5,11.4,50.4,11,49.6,10.3z M55.5,4.4
		c-0.1-1.1-0.7-2.2-2.2-2.2c-1.3,0-2,0.9-2,1.6c0,1.2,1,1.6,2,1.6C54.2,5.4,55,5,55.5,4.4z M59,9.7l1.2-1.6c0.7,0.8,1.9,1.3,3,1.3
		c1.3,0,2.1-0.6,2.1-1.4c0-0.9-0.7-1.3-2.2-1.3c-0.5,0-1.2,0-1.4,0V4.6c0.2,0,1,0,1.4,0c1.2,0,2-0.4,2-1.2c0-0.9-0.9-1.3-2-1.3
		s-2,0.4-2.8,1.1l-1.2-1.5C60,0.7,61.4,0,63.3,0c2.6,0,4.2,1.2,4.2,3c0,1.4-1.2,2.3-2.4,2.5c1.1,0.1,2.6,1,2.6,2.6
		c0,1.9-1.7,3.2-4.3,3.2C61.3,11.5,59.8,10.7,59,9.7z"/>
</g>
<g>
	<defs>
		
			<filter id="Adobe_OpacityMaskFilter_00000046301482421697651430000016200922791095616162_" filterUnits="userSpaceOnUse" x="96.9" y="39" width="28.2" height="153.5">
			<feColorMatrix  type="matrix" values="1 0 0 0 0  0 1 0 0 0  0 0 1 0 0  0 0 0 1 0"/>
		</filter>
	</defs>
	
		<mask maskUnits="userSpaceOnUse" x="96.9" y="39" width="28.2" height="153.5" id="SVGID_00000022562286009353355200000008044142354898091179_">
		<g style="filter:url(#Adobe_OpacityMaskFilter_00000046301482421697651430000016200922791095616162_);">
			
				<linearGradient id="SVGID_00000013170573578709107740000006387342287370504383_" gradientUnits="userSpaceOnUse" x1="-149.6496" y1="-168.3804" x2="-148.6496" y2="-168.3804" gradientTransform="matrix(-3.000000e-15 42.8775 -42.8775 -3.000000e-15 -7244.6279 6557.2515)">
				<stop  offset="0" style="stop-color:#FFFFFF"/>
				<stop  offset="1" style="stop-color:#000000"/>
			</linearGradient>
			
				<rect x="-892.6" y="-64.8" style="fill:url(#SVGID_00000013170573578709107740000006387342287370504383_);" width="1735.4" height="595.3"/>
		</g>
	</mask>
	<g class="st10">
		<g>
			<g>
				<defs>
					<rect id="SVGID_00000086693476460575641700000013625599020255537062_" x="96.9" y="39" width="28.2" height="153.5"/>
				</defs>
				<clipPath id="SVGID_00000048466958177820036170000006939985379825056434_">
					<use xlink:href="#SVGID_00000086693476460575641700000013625599020255537062_"  style="overflow:visible;"/>
				</clipPath>
				
					<rect x="111.4" y="48" style="clip-path:url(#SVGID_00000048466958177820036170000006939985379825056434_);fill:#9FCC3B;" width="11.7" height="135.5"/>
			</g>
		</g>
	</g>
	<defs>
		
			<filter id="Adobe_OpacityMaskFilter_00000135661788865909646950000001738669884365402784_" filterUnits="userSpaceOnUse" x="96.9" y="21.4" width="28.2" height="53.4">
			<feColorMatrix  type="matrix" values="1 0 0 0 0  0 1 0 0 0  0 0 1 0 0  0 0 0 1 0"/>
		</filter>
	</defs>
	
		<mask maskUnits="userSpaceOnUse" x="96.9" y="21.4" width="28.2" height="53.4" id="SVGID_00000057858783754819890220000011732095331278018232_">
		<g style="filter:url(#Adobe_OpacityMaskFilter_00000135661788865909646950000001738669884365402784_);">
			
				<linearGradient id="SVGID_00000047776830088507727030000015025031452201120150_" gradientUnits="userSpaceOnUse" x1="-148.3875" y1="-172.8385" x2="-147.3875" y2="-172.8385" gradientTransform="matrix(-4.000000e-15 59.3397 -59.3397 -4.000000e-15 -10281.085 8873.5693)">
				<stop  offset="0" style="stop-color:#FFFFFF"/>
				<stop  offset="1" style="stop-color:#000000"/>
			</linearGradient>
			
				<rect x="-892.6" y="-64.8" style="fill:url(#SVGID_00000047776830088507727030000015025031452201120150_);" width="1735.4" height="595.3"/>
		</g>
	</mask>
	<g class="st14">
		<g>
			<g>
				<defs>
					<rect id="SVGID_00000102511080072856906510000003973919487634274195_" x="96.9" y="21.4" width="28.2" height="53.4"/>
				</defs>
				<clipPath id="SVGID_00000170238699686756944510000006930088593702641283_">
					<use xlink:href="#SVGID_00000102511080072856906510000003973919487634274195_"  style="overflow:visible;"/>
				</clipPath>
				
					<rect x="111.4" y="30.4" style="clip-path:url(#SVGID_00000170238699686756944510000006930088593702641283_);fill:#15BFF1;" width="11.7" height="35.4"/>
			</g>
		</g>
	</g>
	<line class="st6" x1="117.2" y1="183.5" x2="117.2" y2="25.9"/>
	<path class="st16" d="M88.3,9.4c0.5,0.7,1.2,1.2,2.4,1.2c2.4,0,3.2-2.5,3.2-4.8c0-0.2,0-0.3,0-0.5c-0.5,0.8-1.7,1.8-3.2,1.8
		c-2,0-3.5-1.2-3.5-3.5c0-1.8,1.3-3.5,3.7-3.5c3,0,4,2.7,4,5.7c0,2.8-1.2,5.7-4.2,5.7c-1.4,0-2.3-0.6-3-1.4L88.3,9.4z M90.9,0.9
		c-1.9,0-2.8,1.5-2.8,2.6c0,1.8,1.2,2.7,2.8,2.7c1.2,0,2.4-0.8,3-1.9C93.8,2.9,93,0.9,90.9,0.9z M96.6,12.9c0.5-0.4,0.9-1,1-1.5
		h-0.2c-0.4,0-0.7-0.3-0.7-0.7c0-0.4,0.3-0.7,0.7-0.7c0.4,0,0.8,0.4,0.8,1.1c0,0.9-0.5,1.8-1.2,2.3L96.6,12.9z M100.7,11.3v-0.8
		c3.7-3,6.2-5.2,6.2-7.3c0-1.6-1.3-2.2-2.5-2.2c-1.4,0-2.4,0.6-3,1.4l-0.6-0.6c0.8-1.1,2.1-1.7,3.7-1.7S108,1,108,3.2
		c0,2.4-2.6,4.6-5.7,7.2h5.8v0.9H100.7z M111.4,9.4c0.5,0.7,1.2,1.2,2.4,1.2c2.4,0,3.2-2.5,3.2-4.8c0-0.2,0-0.3,0-0.5
		c-0.5,0.8-1.7,1.8-3.2,1.8c-2,0-3.5-1.2-3.5-3.5c0-1.8,1.3-3.5,3.7-3.5c3,0,4,2.7,4,5.7c0,2.8-1.2,5.7-4.2,5.7
		c-1.4,0-2.3-0.6-3-1.4L111.4,9.4z M114,0.9c-1.9,0-2.8,1.5-2.8,2.6c0,1.8,1.2,2.7,2.8,2.7c1.2,0,2.4-0.8,3-1.9
		C116.9,2.9,116.1,0.9,114,0.9z M119.8,12.9c0.5-0.4,0.9-1,1-1.5h-0.2c-0.4,0-0.7-0.3-0.7-0.7c0-0.4,0.3-0.7,0.7-0.7
		c0.4,0,0.8,0.4,0.8,1.1c0,0.9-0.5,1.8-1.2,2.3L119.8,12.9z M126.2,5.6c-1.3-0.3-2.6-1.2-2.6-2.7c0-1.9,1.8-2.8,3.6-2.8
		c1.7,0,3.6,0.9,3.6,2.8c0,1.5-1.3,2.3-2.6,2.7c1.4,0.4,2.7,1.4,2.7,2.9c0,1.8-1.6,3-3.7,3c-2.1,0-3.7-1.2-3.7-3
		C123.5,7,124.8,6,126.2,5.6z M127.2,6c-0.7,0.1-2.8,0.7-2.8,2.4c0,1.3,1.3,2.2,2.8,2.2c1.4,0,2.8-0.8,2.8-2.2
		C130,6.8,127.9,6.1,127.2,6z M127.2,1c-1.5,0-2.6,0.8-2.6,2.1c0,1.5,1.9,2,2.6,2.2c0.7-0.1,2.6-0.6,2.6-2.2
		C129.8,1.7,128.7,1,127.2,1z M138.5,11.3v-3h-5.2V7.5l4.9-7.2h1.3v7.1h1.6v0.9h-1.6v3H138.5z M138.5,1.2l-4.2,6.2h4.2V1.2z
		 M148.4,11.3v-3h-5.2V7.5l4.9-7.2h1.3v7.1h1.6v0.9h-1.6v3H148.4z M148.4,1.2l-4.2,6.2h4.2V1.2z"/>
</g>
<g>
	<defs>
		
			<filter id="Adobe_OpacityMaskFilter_00000111884953857654430160000012466553134449744019_" filterUnits="userSpaceOnUse" x="180.4" y="34" width="28.2" height="158.4">
			<feColorMatrix  type="matrix" values="1 0 0 0 0  0 1 0 0 0  0 0 1 0 0  0 0 0 1 0"/>
		</filter>
	</defs>
	
		<mask maskUnits="userSpaceOnUse" x="180.4" y="34" width="28.2" height="158.4" id="SVGID_00000112590436600196245050000010573102303803946384_">
		<g style="filter:url(#Adobe_OpacityMaskFilter_00000111884953857654430160000012466553134449744019_);">
			
				<linearGradient id="SVGID_00000104687589861786135590000009279775554779975836_" gradientUnits="userSpaceOnUse" x1="-149.9179" y1="-168.8064" x2="-148.9178" y2="-168.8064" gradientTransform="matrix(-2.000000e-15 40.4902 -40.4902 -2.000000e-15 -6805.103 6213.2324)">
				<stop  offset="0" style="stop-color:#FFFFFF"/>
				<stop  offset="1" style="stop-color:#000000"/>
			</linearGradient>
			
				<rect x="-837.8" y="-64.8" style="fill:url(#SVGID_00000104687589861786135590000009279775554779975836_);" width="1735.4" height="595.3"/>
		</g>
	</mask>
	<g class="st19">
		<g>
			<g>
				<defs>
					<rect id="SVGID_00000013192190167984779240000004628559535535305388_" x="180.4" y="34" width="28.2" height="158.4"/>
				</defs>
				<clipPath id="SVGID_00000148634524418526957380000005074411982995455164_">
					<use xlink:href="#SVGID_00000013192190167984779240000004628559535535305388_"  style="overflow:visible;"/>
				</clipPath>
				
					<rect x="194.8" y="43" style="clip-path:url(#SVGID_00000148634524418526957380000005074411982995455164_);fill:#9FCC3B;" width="11.7" height="140.4"/>
			</g>
		</g>
	</g>
	<defs>
		
			<filter id="Adobe_OpacityMaskFilter_00000078040715185556331350000011626888550872796572_" filterUnits="userSpaceOnUse" x="180.4" y="31.1" width="28.2" height="48.3">
			<feColorMatrix  type="matrix" values="1 0 0 0 0  0 1 0 0 0  0 0 1 0 0  0 0 0 1 0"/>
		</filter>
	</defs>
	
		<mask maskUnits="userSpaceOnUse" x="180.4" y="31.1" width="28.2" height="48.3" id="SVGID_00000046318384014611135790000016369016530648640404_">
		<g style="filter:url(#Adobe_OpacityMaskFilter_00000078040715185556331350000011626888550872796572_);">
			
				<linearGradient id="SVGID_00000173119902373943191580000011213237028774453144_" gradientUnits="userSpaceOnUse" x1="-149.3252" y1="-170.8137" x2="-148.3252" y2="-170.8137" gradientTransform="matrix(-3.000000e-15 46.1699 -46.1699 -3.000000e-15 -7856.5498 6966.6846)">
				<stop  offset="0" style="stop-color:#FFFFFF"/>
				<stop  offset="1" style="stop-color:#000000"/>
			</linearGradient>
			
				<rect x="-837.8" y="-64.8" style="fill:url(#SVGID_00000173119902373943191580000011213237028774453144_);" width="1735.4" height="595.3"/>
		</g>
	</mask>
	<g class="st23">
		<g>
			<g>
				<defs>
					<rect id="SVGID_00000183239475335106259260000012850552174605415092_" x="180.4" y="31.1" width="28.2" height="48.3"/>
				</defs>
				<clipPath id="SVGID_00000006682832633757915680000015726156476350098858_">
					<use xlink:href="#SVGID_00000183239475335106259260000012850552174605415092_"  style="overflow:visible;"/>
				</clipPath>
				
					<rect x="194.8" y="40.1" style="clip-path:url(#SVGID_00000006682832633757915680000015726156476350098858_);fill:#15BFF1;" width="11.7" height="30.3"/>
			</g>
		</g>
	</g>
	<line class="st6" x1="200.6" y1="183.5" x2="200.6" y2="25.9"/>
	<path class="st16" d="M173.6,5.6c-1.3-0.3-2.6-1.2-2.6-2.7c0-1.9,1.8-2.8,3.6-2.8c1.7,0,3.6,0.9,3.6,2.8c0,1.5-1.3,2.3-2.6,2.7
		c1.4,0.4,2.7,1.4,2.7,2.9c0,1.8-1.6,3-3.7,3c-2.1,0-3.7-1.2-3.7-3C170.9,7,172.2,6,173.6,5.6z M174.6,6c-0.7,0.1-2.8,0.7-2.8,2.4
		c0,1.3,1.3,2.2,2.8,2.2c1.4,0,2.8-0.8,2.8-2.2C177.4,6.8,175.3,6.1,174.6,6z M174.6,1c-1.5,0-2.6,0.8-2.6,2.1c0,1.5,1.9,2,2.6,2.2
		c0.7-0.1,2.6-0.6,2.6-2.2C177.2,1.7,176,1,174.6,1z M180.3,12.9c0.5-0.4,0.9-1,1-1.5h-0.2c-0.4,0-0.7-0.3-0.7-0.7
		c0-0.4,0.3-0.7,0.7-0.7s0.8,0.4,0.8,1.1c0,0.9-0.5,1.8-1.2,2.3L180.3,12.9z M188,0.1c1.4,0,2.3,0.6,3,1.4l-0.5,0.7
		C190,1.5,189.3,1,188.1,1c-2.4,0-3.2,2.5-3.2,4.8c0,0.2,0,0.3,0,0.5c0.5-0.8,1.7-1.8,3.2-1.8c2,0,3.5,1.1,3.5,3.5
		c0,1.8-1.3,3.5-3.7,3.5c-3,0-4-2.7-4-5.7C183.8,2.9,184.9,0.1,188,0.1z M187.8,5.3c-1.2,0-2.4,0.8-3,1.9c0.1,1.5,0.9,3.4,3,3.4
		c1.9,0,2.8-1.5,2.8-2.6C190.5,6.2,189.4,5.3,187.8,5.3z M194.3,9.4c0.5,0.7,1.2,1.2,2.4,1.2c2.4,0,3.2-2.5,3.2-4.8
		c0-0.2,0-0.3,0-0.5c-0.5,0.8-1.7,1.8-3.2,1.8c-2,0-3.5-1.2-3.5-3.5c0-1.8,1.3-3.5,3.7-3.5c3,0,4,2.7,4,5.7c0,2.8-1.2,5.7-4.2,5.7
		c-1.4,0-2.3-0.6-3-1.4L194.3,9.4z M197,0.9c-1.9,0-2.8,1.5-2.8,2.6c0,1.8,1.2,2.7,2.8,2.7c1.2,0,2.4-0.8,3-1.9
		C199.8,2.9,199,0.9,197,0.9z M202.7,12.9c0.5-0.4,0.9-1,1-1.5h-0.2c-0.4,0-0.7-0.3-0.7-0.7c0-0.4,0.3-0.7,0.7-0.7s0.8,0.4,0.8,1.1
		c0,0.9-0.5,1.8-1.2,2.3L202.7,12.9z M210.3,0.1c1.4,0,2.3,0.6,3,1.4l-0.5,0.7c-0.5-0.7-1.2-1.2-2.4-1.2c-2.4,0-3.2,2.5-3.2,4.8
		c0,0.2,0,0.3,0,0.5c0.5-0.8,1.7-1.8,3.2-1.8c2,0,3.5,1.1,3.5,3.5c0,1.8-1.3,3.5-3.7,3.5c-3,0-4-2.7-4-5.7
		C206.1,2.9,207.3,0.1,210.3,0.1z M210.1,5.3c-1.2,0-2.4,0.8-3,1.9c0.1,1.5,0.9,3.4,3,3.4c1.9,0,2.8-1.5,2.8-2.6
		C212.9,6.2,211.7,5.3,210.1,5.3z M216.7,9c0.7,1,1.7,1.6,3.1,1.6c1.6,0,2.8-1.2,2.8-2.7c0-1.7-1.2-2.7-2.8-2.7
		c-1,0-1.9,0.3-2.7,1.1L216.4,6V0.2h6.4v0.9h-5.4v4.3c0.5-0.5,1.5-1,2.6-1c1.8,0,3.5,1.2,3.5,3.5c0,2.2-1.7,3.5-3.7,3.5
		c-1.8,0-3-0.7-3.7-1.8L216.7,9z M229.9,0.1c1.4,0,2.3,0.6,3,1.4l-0.5,0.7C231.9,1.5,231.2,1,230,1c-2.4,0-3.2,2.5-3.2,4.8
		c0,0.2,0,0.3,0,0.5c0.5-0.8,1.7-1.8,3.2-1.8c2,0,3.5,1.1,3.5,3.5c0,1.8-1.3,3.5-3.7,3.5c-3,0-4-2.7-4-5.7
		C225.7,2.9,226.9,0.1,229.9,0.1z M229.7,5.3c-1.2,0-2.4,0.8-3,1.9c0.1,1.5,0.9,3.4,3,3.4c1.9,0,2.8-1.5,2.8-2.6
		C232.5,6.2,231.3,5.3,229.7,5.3z"/>
</g>
<g>
	<defs>
		
			<filter id="Adobe_OpacityMaskFilter_00000078023255662368732830000006334439688057159073_" filterUnits="userSpaceOnUse" x="263.2" y="34" width="28.2" height="158.4">
			<feColorMatrix  type="matrix" values="1 0 0 0 0  0 1 0 0 0  0 0 1 0 0  0 0 0 1 0"/>
		</filter>
	</defs>
	
		<mask maskUnits="userSpaceOnUse" x="263.2" y="34" width="28.2" height="158.4" id="SVGID_00000041284142222852693770000001122028691087337882_">
		<g style="filter:url(#Adobe_OpacityMaskFilter_00000078023255662368732830000006334439688057159073_);">
			
				<linearGradient id="SVGID_00000163051458691342853690000003087821550950088589_" gradientUnits="userSpaceOnUse" x1="-150.1074" y1="-169.5808" x2="-149.1074" y2="-169.5808" gradientTransform="matrix(-2.000000e-15 38.9567 -38.9567 -2.000000e-15 -6522.8071 5992.2554)">
				<stop  offset="0" style="stop-color:#FFFFFF"/>
				<stop  offset="1" style="stop-color:#000000"/>
			</linearGradient>
			
				<rect x="-784.2" y="-64.8" style="fill:url(#SVGID_00000163051458691342853690000003087821550950088589_);" width="1735.4" height="595.3"/>
		</g>
	</mask>
	<g class="st27">
		<g>
			<g>
				<defs>
					<rect id="SVGID_00000026845521808469316750000005979922647077222530_" x="263.2" y="34" width="28.2" height="158.4"/>
				</defs>
				<clipPath id="SVGID_00000034058258611992919250000013106452290496620955_">
					<use xlink:href="#SVGID_00000026845521808469316750000005979922647077222530_"  style="overflow:visible;"/>
				</clipPath>
				
					<rect x="277.6" y="43" style="clip-path:url(#SVGID_00000034058258611992919250000013106452290496620955_);fill:#9FCC3B;" width="11.7" height="140.4"/>
			</g>
		</g>
	</g>
	<defs>
		
			<filter id="Adobe_OpacityMaskFilter_00000117664619698233332060000007679410426260695957_" filterUnits="userSpaceOnUse" x="263.2" y="27.5" width="28.2" height="51">
			<feColorMatrix  type="matrix" values="1 0 0 0 0  0 1 0 0 0  0 0 1 0 0  0 0 0 1 0"/>
		</filter>
	</defs>
	
		<mask maskUnits="userSpaceOnUse" x="263.2" y="27.5" width="28.2" height="51" id="SVGID_00000023977953429011120850000010982311560738509487_">
		<g style="filter:url(#Adobe_OpacityMaskFilter_00000117664619698233332060000007679410426260695957_);">
			
				<linearGradient id="SVGID_00000053511217641529972290000017755230814842688922_" gradientUnits="userSpaceOnUse" x1="-149.1237" y1="-172.5532" x2="-148.1237" y2="-172.5532" gradientTransform="matrix(-3.000000e-15 48.4821 -48.4821 -3.000000e-15 -8282.2422 7301.3774)">
				<stop  offset="0" style="stop-color:#FFFFFF"/>
				<stop  offset="1" style="stop-color:#000000"/>
			</linearGradient>
			
				<rect x="-784.2" y="-64.8" style="fill:url(#SVGID_00000053511217641529972290000017755230814842688922_);" width="1735.4" height="595.3"/>
		</g>
	</mask>
	<g class="st31">
		<g>
			<g>
				<defs>
					<rect id="SVGID_00000161626588535069429660000005963806818735588792_" x="263.2" y="27.5" width="28.2" height="51"/>
				</defs>
				<clipPath id="SVGID_00000165213585894877305730000006830792300691760521_">
					<use xlink:href="#SVGID_00000161626588535069429660000005963806818735588792_"  style="overflow:visible;"/>
				</clipPath>
				
					<rect x="277.6" y="36.5" style="clip-path:url(#SVGID_00000165213585894877305730000006830792300691760521_);fill:#15BFF1;" width="11.7" height="33"/>
			</g>
		</g>
	</g>
	<line class="st6" x1="283.5" y1="183.5" x2="283.5" y2="25.9"/>
	<path class="st16" d="M258.2,5.6c-1.3-0.3-2.6-1.2-2.6-2.7c0-1.9,1.8-2.8,3.6-2.8c1.7,0,3.6,0.9,3.6,2.8c0,1.5-1.3,2.3-2.6,2.7
		c1.4,0.4,2.7,1.4,2.7,2.9c0,1.8-1.6,3-3.7,3s-3.7-1.2-3.7-3C255.4,7,256.8,6,258.2,5.6z M259.2,6c-0.7,0.1-2.8,0.7-2.8,2.4
		c0,1.3,1.3,2.2,2.8,2.2c1.4,0,2.8-0.8,2.8-2.2C261.9,6.8,259.8,6.1,259.2,6z M259.2,1c-1.5,0-2.6,0.8-2.6,2.1c0,1.5,1.9,2,2.6,2.2
		c0.7-0.1,2.6-0.6,2.6-2.2C261.8,1.7,260.6,1,259.2,1z M264.9,12.9c0.5-0.4,0.9-1,1-1.5h-0.2c-0.4,0-0.7-0.3-0.7-0.7
		c0-0.4,0.3-0.7,0.7-0.7c0.4,0,0.8,0.4,0.8,1.1c0,0.9-0.5,1.8-1.2,2.3L264.9,12.9z M269.5,9.4c0.5,0.7,1.2,1.2,2.4,1.2
		c2.4,0,3.2-2.5,3.2-4.8c0-0.2,0-0.3,0-0.5c-0.5,0.8-1.7,1.8-3.2,1.8c-2,0-3.5-1.2-3.5-3.5c0-1.8,1.3-3.5,3.7-3.5c3,0,4,2.7,4,5.7
		c0,2.8-1.2,5.7-4.2,5.7c-1.4,0-2.3-0.6-3-1.4L269.5,9.4z M272.1,0.9c-1.9,0-2.8,1.5-2.8,2.6c0,1.8,1.2,2.7,2.8,2.7
		c1.2,0,2.4-0.8,3-1.9C275,2.9,274.2,0.9,272.1,0.9z M283.6,11.3v-3h-5.2V7.5l4.9-7.2h1.3v7.1h1.6v0.9h-1.6v3H283.6z M283.6,1.2
		l-4.2,6.2h4.2V1.2z M287.8,12.9c0.5-0.4,0.9-1,1-1.5h-0.2c-0.4,0-0.7-0.3-0.7-0.7c0-0.4,0.3-0.7,0.7-0.7c0.4,0,0.8,0.4,0.8,1.1
		c0,0.9-0.5,1.8-1.2,2.3L287.8,12.9z M294.1,11.3V1.6l-2.6,2.8l-0.6-0.6l3.3-3.5h0.9v11H294.1z M298.7,11.3v-0.8
		c3.7-3,6.2-5.2,6.2-7.3c0-1.6-1.3-2.2-2.5-2.2c-1.4,0-2.4,0.6-3,1.4l-0.6-0.6c0.8-1.1,2.1-1.7,3.7-1.7S306,1,306,3.2
		c0,2.4-2.6,4.6-5.7,7.2h5.8v0.9H298.7z M312.1,11.3V1.6l-2.6,2.8l-0.6-0.6l3.3-3.5h0.9v11H312.1z"/>
</g>
<g>
	<defs>
		
			<filter id="Adobe_OpacityMaskFilter_00000132782283868684706580000007211149622411595693_" filterUnits="userSpaceOnUse" x="348.7" y="44" width="28.2" height="148.4">
			<feColorMatrix  type="matrix" values="1 0 0 0 0  0 1 0 0 0  0 0 1 0 0  0 0 0 1 0"/>
		</filter>
	</defs>
	
		<mask maskUnits="userSpaceOnUse" x="348.7" y="44" width="28.2" height="148.4" id="SVGID_00000048502681237347809860000014076836919783283893_">
		<g style="filter:url(#Adobe_OpacityMaskFilter_00000132782283868684706580000007211149622411595693_);">
			
				<linearGradient id="SVGID_00000163779351609856845360000015161180214291163812_" gradientUnits="userSpaceOnUse" x1="-149.545" y1="-172.4935" x2="-148.545" y2="-172.4935" gradientTransform="matrix(-3.000000e-15 43.8861 -43.8861 -3.000000e-15 -7430.2686 6702.5854)">
				<stop  offset="0" style="stop-color:#FFFFFF"/>
				<stop  offset="1" style="stop-color:#000000"/>
			</linearGradient>
			
				<rect x="-727.9" y="-64.8" style="fill:url(#SVGID_00000163779351609856845360000015161180214291163812_);" width="1735.4" height="595.3"/>
		</g>
	</mask>
	<g class="st35">
		<g>
			<g>
				<defs>
					<rect id="SVGID_00000080911250859024265050000015200685288908306363_" x="348.7" y="44" width="28.2" height="148.4"/>
				</defs>
				<clipPath id="SVGID_00000092448526758595200560000003910751729479324818_">
					<use xlink:href="#SVGID_00000080911250859024265050000015200685288908306363_"  style="overflow:visible;"/>
				</clipPath>
				
					<rect x="363.1" y="53" style="clip-path:url(#SVGID_00000092448526758595200560000003910751729479324818_);fill:#9FCC3B;" width="11.7" height="130.4"/>
			</g>
		</g>
	</g>
	<defs>
		
			<filter id="Adobe_OpacityMaskFilter_00000123426073298315307440000008901259491693993356_" filterUnits="userSpaceOnUse" x="348.7" y="16.9" width="28.2" height="45.1">
			<feColorMatrix  type="matrix" values="1 0 0 0 0  0 1 0 0 0  0 0 1 0 0  0 0 0 1 0"/>
		</filter>
	</defs>
	
		<mask maskUnits="userSpaceOnUse" x="348.7" y="16.9" width="28.2" height="45.1" id="SVGID_00000000218868986180375550000014319115011769081485_">
		<g style="filter:url(#Adobe_OpacityMaskFilter_00000123426073298315307440000008901259491693993356_);">
			
				<linearGradient id="SVGID_00000089544817867840992540000006209315173975575700_" gradientUnits="userSpaceOnUse" x1="-149.1442" y1="-173.6608" x2="-148.1441" y2="-173.6608" gradientTransform="matrix(-3.000000e-15 48.2369 -48.2369 -3.000000e-15 -8237.0596 7249.2676)">
				<stop  offset="0" style="stop-color:#FFFFFF"/>
				<stop  offset="1" style="stop-color:#000000"/>
			</linearGradient>
			
				<rect x="-727.9" y="-64.8" style="fill:url(#SVGID_00000089544817867840992540000006209315173975575700_);" width="1735.4" height="595.3"/>
		</g>
	</mask>
	<g class="st39">
		<g>
			<g>
				<defs>
					<rect id="SVGID_00000178915435819498514180000002412111510483521444_" x="348.7" y="16.9" width="28.2" height="45.1"/>
				</defs>
				<clipPath id="SVGID_00000153665165069597724400000001098146341127220869_">
					<use xlink:href="#SVGID_00000178915435819498514180000002412111510483521444_"  style="overflow:visible;"/>
				</clipPath>
				
					<rect x="363.1" y="25.9" style="clip-path:url(#SVGID_00000153665165069597724400000001098146341127220869_);fill:#15BFF1;" width="11.7" height="27.1"/>
			</g>
		</g>
	</g>
	<line class="st6" x1="368.9" y1="183.5" x2="368.9" y2="25.9"/>
	<path class="st16" d="M339.1,9.4c0.5,0.7,1.2,1.2,2.4,1.2c2.4,0,3.2-2.5,3.2-4.8c0-0.2,0-0.3,0-0.5c-0.5,0.8-1.7,1.8-3.2,1.8
		c-2,0-3.5-1.2-3.5-3.5c0-1.8,1.3-3.5,3.7-3.5c3,0,4,2.7,4,5.7c0,2.8-1.2,5.7-4.2,5.7c-1.4,0-2.3-0.6-3-1.4L339.1,9.4z M341.7,0.9
		c-1.9,0-2.8,1.5-2.8,2.6c0,1.8,1.2,2.7,2.8,2.7c1.2,0,2.4-0.8,3-1.9C344.6,2.9,343.8,0.9,341.7,0.9z M347.4,12.9
		c0.5-0.4,0.9-1,1-1.5h-0.2c-0.4,0-0.7-0.3-0.7-0.7c0-0.4,0.3-0.7,0.7-0.7c0.4,0,0.8,0.4,0.8,1.1c0,0.9-0.5,1.8-1.2,2.3L347.4,12.9z
		 M351.9,9c0.7,1,1.7,1.6,3.1,1.6c1.6,0,2.8-1.2,2.8-2.7c0-1.7-1.2-2.7-2.8-2.7c-1,0-1.9,0.3-2.7,1.1L351.6,6V0.2h6.4v0.9h-5.4v4.3
		c0.5-0.5,1.5-1,2.6-1c1.8,0,3.5,1.2,3.5,3.5c0,2.2-1.7,3.5-3.7,3.5c-1.8,0-3-0.7-3.7-1.8L351.9,9z M361.6,9.4
		c0.5,0.7,1.2,1.2,2.4,1.2c2.4,0,3.2-2.5,3.2-4.8c0-0.2,0-0.3,0-0.5c-0.5,0.8-1.7,1.8-3.2,1.8c-2,0-3.5-1.2-3.5-3.5
		c0-1.8,1.3-3.5,3.7-3.5c3,0,4,2.7,4,5.7c0,2.8-1.2,5.7-4.2,5.7c-1.4,0-2.3-0.6-3-1.4L361.6,9.4z M364.2,0.9c-1.9,0-2.8,1.5-2.8,2.6
		c0,1.8,1.2,2.7,2.8,2.7c1.2,0,2.4-0.8,3-1.9C367,2.9,366.2,0.9,364.2,0.9z M369.9,12.9c0.5-0.4,0.9-1,1-1.5h-0.2
		c-0.4,0-0.7-0.3-0.7-0.7c0-0.4,0.3-0.7,0.7-0.7c0.4,0,0.8,0.4,0.8,1.1c0,0.9-0.5,1.8-1.2,2.3L369.9,12.9z M374.8,11.3l4.6-10.1
		h-6.1V0.3h7.2v0.6l-4.7,10.3h-1V11.3z M386.3,0.1c3,0,4.1,3,4.1,5.7c0,2.6-1.1,5.7-4.1,5.7s-4.1-3.1-4.1-5.7
		C382.2,3.1,383.3,0.1,386.3,0.1z M386.3,1c-2.3,0-3.1,2.5-3.1,4.8s0.8,4.8,3.1,4.8s3.1-2.6,3.1-4.8C389.4,3.5,388.6,1,386.3,1z
		 M395.2,5.6c-1.3-0.3-2.6-1.2-2.6-2.7c0-1.9,1.8-2.8,3.6-2.8c1.7,0,3.6,0.9,3.6,2.8c0,1.5-1.3,2.3-2.6,2.7c1.4,0.4,2.7,1.4,2.7,2.9
		c0,1.8-1.6,3-3.7,3s-3.7-1.2-3.7-3C392.4,7,393.8,6,395.2,5.6z M396.2,6c-0.7,0.1-2.8,0.7-2.8,2.4c0,1.3,1.3,2.2,2.8,2.2
		c1.4,0,2.8-0.8,2.8-2.2C399,6.8,396.8,6.1,396.2,6z M396.2,1c-1.5,0-2.6,0.8-2.6,2.1c0,1.5,1.9,2,2.6,2.2c0.7-0.1,2.6-0.6,2.6-2.2
		C398.8,1.7,397.6,1,396.2,1z"/>
</g>
</svg>
