<?xml version="1.0" encoding="utf-8"?>
<!-- Generator: Adobe Illustrator 26.4.0, SVG Export Plug-In . SVG Version: 6.00 Build 0)  -->
<svg version="1.1" id="Layer_1" xmlns="http://www.w3.org/2000/svg" xmlns:xlink="http://www.w3.org/1999/xlink" x="0px" y="0px"
	 viewBox="0 0 400 206.5" style="enable-background:new 0 0 400 206.5;" xml:space="preserve">
<style type="text/css">
	.st0{clip-path:url(#SVGID_00000001662117612365425120000008634502752221639578_);fill:#DEECC2;}
	.st1{fill:#010101;}
	.st2{fill:none;stroke:#010101;stroke-width:0.25;}
	.st3{fill:none;stroke:#939598;stroke-width:0.25;stroke-dasharray:0.75,0.5;}
	.st4{fill:#9FCC3B;}
	.st5{fill:#4E4E50;}
	.st6{fill:#076AAA;}
</style>
<g>
	<g>
		<g>
			<g>
				<defs>
					<rect id="SVGID_1_" x="55.7" y="-11.3" width="333.9" height="199.9"/>
				</defs>
				<clipPath id="SVGID_00000005251212448510665370000000633119776297452435_">
					<use xlink:href="#SVGID_1_"  style="overflow:visible;"/>
				</clipPath>
				<polygon style="clip-path:url(#SVGID_00000005251212448510665370000000633119776297452435_);fill:#DEECC2;" points="71.7,186.9 
					71.7,81.7 143.5,51.9 219,28.6 293.8,25.7 372.9,1.2 373.6,186.9 				"/>
			</g>
		</g>
	</g>
	<path class="st1" d="M3.3,181.3c2.4,0,3.3,2.5,3.3,4.6s-0.9,4.6-3.3,4.6S0,188,0,185.9C0,183.8,0.9,181.3,3.3,181.3z M3.3,182
		c-1.9,0-2.5,2.1-2.5,3.9c0,1.8,0.6,3.9,2.5,3.9s2.5-2.1,2.5-3.9C5.8,184,5.2,182,3.3,182z"/>
	<path class="st1" d="M0.3,130.3v-0.6c3-2.4,5.1-4.2,5.1-5.9c0-1.3-1.1-1.8-2-1.8c-1.1,0-2,0.5-2.4,1.2l-0.5-0.5
		c0.6-0.9,1.7-1.4,3-1.4s2.8,0.7,2.8,2.5c0,2-2.1,3.8-4.7,5.8h4.7v0.7H0.3z"/>
	<path class="st1" d="M0.8,98.6c0.5,0.7,1.4,1.2,2.5,1.2c1.4,0,2.2-0.7,2.2-1.9c0-1.3-1.1-1.8-2.4-1.8c-0.4,0-0.7,0-0.8,0v-0.7
		c0.1,0,0.5,0,0.8,0c1.2,0,2.3-0.5,2.3-1.7c0-1.1-1-1.7-2.1-1.7c-1,0-1.7,0.4-2.4,1.1l-0.5-0.5C1,91.9,2,91.3,3.3,91.3
		c1.6,0,2.9,0.8,2.9,2.4c0,1.4-1.1,2-1.9,2.1c0.8,0.1,2,0.7,2,2.2s-1.1,2.6-3,2.6c-1.5,0-2.5-0.7-3-1.5L0.8,98.6z"/>
	<path class="st1" d="M0.9,38.5c0.6,0.8,1.4,1.3,2.5,1.3c1.3,0,2.2-0.9,2.2-2.2c0-1.4-0.9-2.2-2.2-2.2c-0.8,0-1.5,0.3-2.2,0.9
		l-0.6-0.2v-4.7h5.2v0.7H1.4v3.5c0.4-0.4,1.2-0.8,2.1-0.8c1.5,0,2.8,1,2.8,2.8s-1.4,2.9-3,2.9c-1.5,0-2.4-0.6-3-1.5L0.9,38.5z"/>
	<path class="st1" d="M3.6,1.3c1.2,0,1.9,0.5,2.4,1.1L5.6,3c-0.4-0.6-1-1-2-1C1.7,2,1,4,1,5.9C1,6,1,6.2,1,6.3
		c0.4-0.6,1.4-1.5,2.6-1.5c1.6,0,2.9,0.9,2.9,2.8c0,1.5-1.1,2.8-3,2.8c-2.4,0-3.3-2.2-3.3-4.6C0.2,3.6,1.2,1.3,3.6,1.3z M3.5,5.5
		c-1,0-1.9,0.6-2.4,1.5c0.1,1.2,0.7,2.8,2.4,2.8c1.5,0,2.2-1.2,2.2-2.1C5.7,6.2,4.8,5.5,3.5,5.5z"/>
	<line class="st2" x1="38.1" y1="186.7" x2="400" y2="186.7"/>
	<line class="st3" x1="38.1" y1="156.7" x2="400" y2="156.7"/>
	<line class="st3" x1="38.1" y1="126.7" x2="400" y2="126.7"/>
	<line class="st3" x1="38.1" y1="96.7" x2="400" y2="96.7"/>
	<line class="st3" x1="38.1" y1="36.7" x2="400" y2="36.7"/>
	<line class="st3" x1="38.1" y1="66.7" x2="400" y2="66.7"/>
	<line class="st3" x1="38.1" y1="6.7" x2="400" y2="6.7"/>
	<rect x="69.6" y="78.7" class="st4" width="5.9" height="5.9"/>
	<rect x="141.4" y="48.5" class="st4" width="5.9" height="5.9"/>
	<rect x="216.1" y="26.3" class="st4" width="5.9" height="5.9"/>
	<rect x="369.4" class="st4" width="5.9" height="5.9"/>
	<rect x="290.8" y="22.8" class="st4" width="5.9" height="5.9"/>
	<path class="st5" d="M59.8,71.4c0.5,0.8,1.5,1.3,2.7,1.3c1.5,0,2.4-0.8,2.4-2c0-1.4-1.1-1.9-2.5-1.9c-0.4,0-0.7,0-0.9,0V68
		c0.1,0,0.5,0,0.9,0c1.3,0,2.4-0.5,2.4-1.8c0-1.2-1.1-1.8-2.3-1.8c-1.1,0-1.9,0.4-2.5,1.2l-0.5-0.5c0.7-0.8,1.7-1.4,3.1-1.4
		c1.7,0,3.1,0.9,3.1,2.5c0,1.5-1.2,2.1-2,2.2c0.8,0.1,2.2,0.8,2.2,2.4s-1.2,2.7-3.2,2.7c-1.6,0-2.7-0.7-3.2-1.6L59.8,71.4z
		 M68.2,72.2c0.3,0,0.6,0.3,0.6,0.6c0,0.3-0.3,0.6-0.6,0.6c-0.3,0-0.6-0.3-0.6-0.6C67.6,72.5,67.8,72.2,68.2,72.2z M71.3,71.4
		c0.6,0.9,1.4,1.4,2.7,1.4c1.4,0,2.4-1,2.4-2.3c0-1.4-1-2.3-2.4-2.3c-0.9,0-1.6,0.3-2.3,0.9l-0.6-0.3v-5h5.5v0.7h-4.7v3.8
		c0.5-0.5,1.3-0.9,2.3-0.9c1.6,0,3,1.1,3,3s-1.5,3.1-3.2,3.1c-1.6,0-2.6-0.6-3.2-1.6L71.3,71.4z M82.5,63.7c2.5,0,3.5,2.6,3.5,4.9
		c0,2.2-1,4.9-3.5,4.9S79,70.8,79,68.6C79,66.3,80,63.7,82.5,63.7z M82.5,64.4c-2,0-2.6,2.2-2.6,4.2s0.7,4.2,2.6,4.2
		s2.6-2.2,2.6-4.2C85.2,66.6,84.5,64.4,82.5,64.4z"/>
	<path class="st5" d="M135.5,42.7v-2.6H131v-0.7l4.2-6.2h1.1v6.2h1.4v0.7h-1.4v2.6H135.5z M135.5,34l-3.7,5.4h3.7V34z M139.9,41.6
		c0.3,0,0.6,0.3,0.6,0.6s-0.3,0.6-0.6,0.6s-0.6-0.3-0.6-0.6C139.3,41.9,139.5,41.6,139.9,41.6z M143,40.8c0.6,0.9,1.4,1.4,2.7,1.4
		c1.4,0,2.4-1,2.4-2.3c0-1.4-1-2.3-2.4-2.3c-0.9,0-1.6,0.3-2.3,0.9l-0.6-0.3v-5h5.5v0.7h-4.7v3.7c0.5-0.5,1.3-0.9,2.3-0.9
		c1.6,0,3,1.1,3,3s-1.5,3.1-3.2,3.1c-1.6,0-2.6-0.6-3.2-1.6L143,40.8z M154.2,33.1c2.5,0,3.5,2.6,3.5,4.9c0,2.2-1,4.9-3.5,4.9
		s-3.5-2.7-3.5-4.9C150.7,35.7,151.7,33.1,154.2,33.1z M154.2,33.8c-2,0-2.6,2.2-2.6,4.2s0.7,4.2,2.6,4.2c2,0,2.6-2.2,2.6-4.2
		C156.9,36,156.2,33.8,154.2,33.8z"/>
	<path class="st5" d="M206.5,19c0.6,0.9,1.4,1.4,2.7,1.4c1.4,0,2.4-1,2.4-2.3c0-1.4-1-2.3-2.4-2.3c-0.9,0-1.6,0.3-2.3,0.9l-0.6-0.3
		v-5h5.5v0.7h-4.7v3.7c0.5-0.5,1.3-0.9,2.3-0.9c1.6,0,3,1.1,3,3c0,1.9-1.5,3.1-3.2,3.1c-1.6,0-2.6-0.6-3.2-1.6L206.5,19z
		 M214.7,19.8c0.3,0,0.6,0.3,0.6,0.6S215,21,214.7,21s-0.6-0.3-0.6-0.6C214.1,20.1,214.4,19.8,214.7,19.8z M217.4,20.9v-0.6
		c3.2-2.6,5.4-4.5,5.4-6.3c0-1.4-1.1-1.9-2.2-1.9c-1.2,0-2.1,0.5-2.6,1.2l-0.6-0.5c0.7-0.9,1.8-1.5,3.2-1.5s3,0.8,3,2.7
		c0,2.1-2.2,4-5,6.2h5v0.7C223.6,20.9,217.4,20.9,217.4,20.9z M229.3,11.3c1.2,0,2,0.5,2.6,1.2l-0.5,0.6c-0.5-0.6-1-1.1-2.1-1.1
		c-2,0-2.8,2.1-2.8,4.2c0,0.1,0,0.3,0,0.4c0.4-0.7,1.5-1.6,2.8-1.6c1.7,0,3,1,3,3c0,1.6-1.2,3-3.2,3c-2.6,0-3.5-2.4-3.5-4.9
		C225.7,13.8,226.7,11.3,229.3,11.3z M229.2,15.8c-1,0-2.1,0.7-2.6,1.6c0.1,1.3,0.8,2.9,2.6,2.9c1.6,0,2.4-1.3,2.4-2.3
		C231.6,16.5,230.6,15.8,229.2,15.8z"/>
	<path class="st6" d="M359.1,15.5c0-2.9,1.6-4.9,4.4-4.9c1.2,0,2.1,0.4,2.8,1l-0.9,1.6c-0.5-0.5-1.1-0.7-1.9-0.7
		c-1.4,0-2.4,1.2-2.4,2.7c0,0.1,0,0.1,0,0.2c0.4-0.6,1.4-1.2,2.4-1.2c1.7,0,3.2,1.1,3.2,3.1c0,1.9-1.5,3.3-3.6,3.3
		C360.3,20.4,359.1,18.2,359.1,15.5z M364.7,17.2c0-1-0.9-1.4-1.8-1.4c-0.7,0-1.4,0.3-1.9,0.9c0.1,0.9,0.6,1.9,1.9,1.9
		C364.1,18.6,364.7,17.9,364.7,17.2z M368,19.2c0-0.6,0.5-1.2,1.2-1.2s1.2,0.5,1.2,1.2s-0.5,1.2-1.2,1.2S368,19.8,368,19.2z
		 M373.9,20.2v-6.9l-1.6,1.6l-1.2-1.2l3-3h1.8v9.5H373.9z M379.7,20.2l3.4-7.7h-4.8v-1.8h7.1v1.4l-3.5,8.1H379.7z"/>
	<path class="st5" d="M281.2,14.7c0.6,0.9,1.4,1.4,2.7,1.4c1.4,0,2.4-1,2.4-2.3c0-1.4-1-2.3-2.4-2.3c-0.9,0-1.6,0.3-2.3,0.9
		l-0.6-0.3v-5h5.5v0.7h-4.7v3.7c0.5-0.5,1.3-0.9,2.3-0.9c1.6,0,3,1.1,3,3s-1.5,3.1-3.2,3.1c-1.6,0-2.6-0.6-3.2-1.6L281.2,14.7z
		 M289.4,15.5c0.3,0,0.6,0.3,0.6,0.6c0,0.3-0.3,0.6-0.6,0.6s-0.6-0.3-0.6-0.6C288.8,15.8,289.1,15.5,289.4,15.5z M292.5,14.8
		c0.5,0.8,1.5,1.3,2.7,1.3c1.5,0,2.4-0.8,2.4-2c0-1.4-1.1-1.9-2.5-1.9c-0.4,0-0.7,0-0.9,0v-0.8c0.1,0,0.5,0,0.9,0
		c1.3,0,2.4-0.5,2.4-1.8c0-1.2-1.1-1.8-2.3-1.8c-1.1,0-1.9,0.4-2.5,1.2l-0.5-0.5c0.7-0.8,1.7-1.4,3.1-1.4c1.7,0,3.1,0.9,3.1,2.5
		c0,1.5-1.2,2.1-2,2.2c0.8,0.1,2.2,0.8,2.2,2.4s-1.2,2.7-3.2,2.7c-1.6,0-2.7-0.7-3.2-1.6L292.5,14.8z M301.3,15
		c0.5,0.6,1.1,1.1,2.1,1.1c2.1,0,2.8-2.2,2.8-4.2c0-0.1,0-0.3,0-0.4c-0.4,0.7-1.5,1.6-2.8,1.6c-1.7,0-3.1-1-3.1-3c0-1.6,1.2-3,3.2-3
		c2.6,0,3.5,2.4,3.5,4.9c0,2.4-1,4.9-3.6,4.9c-1.2,0-2-0.5-2.6-1.2L301.3,15z M303.5,7.7c-1.6,0-2.4,1.3-2.4,2.3
		c0,1.6,1,2.3,2.4,2.3c1,0,2.1-0.7,2.6-1.6C306,9.4,305.3,7.7,303.5,7.7z"/>
	<polygon class="st1" points="3.6,160.3 3.6,152.5 1.5,154.7 1,154.2 3.6,151.4 4.3,151.4 4.3,160.3 	"/>
	<path class="st1" d="M343.1,206.2v-1.5c3.6-2.7,4.7-3.6,4.7-4.7c0-0.8-0.7-1.2-1.4-1.2c-1,0-1.8,0.4-2.4,1l-1.1-1.3
		c0.9-1,2.2-1.5,3.4-1.5c1.9,0,3.4,1.1,3.4,2.8c0,1.5-1.3,2.8-3.6,4.5h3.6v1.7h-6.6V206.2z M351,201.8c0-2.3,1.1-4.6,3.7-4.6
		s3.7,2.3,3.7,4.6s-1.1,4.6-3.7,4.6S351,204.1,351,201.8z M356.4,201.8c0-1.6-0.5-2.9-1.8-2.9s-1.8,1.3-1.8,2.9
		c0,1.6,0.5,2.9,1.8,2.9C356,204.7,356.4,203.4,356.4,201.8z M359.5,206.2v-1.5c3.6-2.7,4.7-3.6,4.7-4.7c0-0.8-0.7-1.2-1.4-1.2
		c-1,0-1.8,0.4-2.4,1l-1.1-1.3c0.9-1,2.2-1.5,3.4-1.5c1.9,0,3.4,1.1,3.4,2.8c0,1.5-1.3,2.8-3.6,4.5h3.6v1.7h-6.6V206.2z
		 M370.6,206.2v-6.5l-1.5,1.5l-1.1-1.1l2.8-2.8h1.7v8.9L370.6,206.2L370.6,206.2z M374.9,203.7v-1.4h3.2v1.4H374.9z M379.1,206.2
		v-1.5c3.6-2.7,4.7-3.6,4.7-4.7c0-0.8-0.7-1.2-1.4-1.2c-1,0-1.8,0.4-2.4,1l-1.1-1.3c0.9-1,2.2-1.5,3.4-1.5c1.9,0,3.4,1.1,3.4,2.8
		c0,1.5-1.3,2.8-3.6,4.5h3.6v1.7h-6.6V206.2z M387.3,206.2v-1.5c3.6-2.7,4.7-3.6,4.7-4.7c0-0.8-0.7-1.2-1.4-1.2c-1,0-1.8,0.4-2.4,1
		l-1.1-1.3c0.9-1,2.2-1.5,3.4-1.5c1.9,0,3.4,1.1,3.4,2.8c0,1.5-1.3,2.8-3.6,4.5h3.6v1.7h-6.6V206.2z"/>
	<path class="st1" d="M269,206.2v-0.6c3-2.4,5.1-4.2,5.1-5.9c0-1.3-1.1-1.8-2-1.8c-1.1,0-2,0.5-2.4,1.2l-0.5-0.5
		c0.6-0.9,1.7-1.4,3-1.4s2.8,0.7,2.8,2.5c0,2-2.1,3.8-4.7,5.8h4.7v0.7H269z M280,197.2c2.4,0,3.3,2.5,3.3,4.6s-0.9,4.6-3.3,4.6
		s-3.3-2.5-3.3-4.6C276.7,199.6,277.6,197.2,280,197.2z M280,197.9c-1.9,0-2.5,2.1-2.5,3.9c0,1.8,0.6,3.9,2.5,3.9s2.5-2.1,2.5-3.9
		C282.4,199.9,281.8,197.9,280,197.9z M284.7,206.2v-0.6c3-2.4,5.1-4.2,5.1-5.9c0-1.3-1.1-1.8-2-1.8c-1.1,0-2,0.5-2.4,1.2l-0.5-0.5
		c0.6-0.9,1.7-1.4,3-1.4s2.8,0.7,2.8,2.5c0,2-2.1,3.8-4.7,5.8h4.7v0.7H284.7z M295.7,197.2c2.4,0,3.3,2.5,3.3,4.6s-0.9,4.6-3.3,4.6
		s-3.3-2.5-3.3-4.6C292.4,199.6,293.3,197.2,295.7,197.2z M295.7,197.9c-1.9,0-2.5,2.1-2.5,3.9c0,1.8,0.6,3.9,2.5,3.9
		s2.5-2.1,2.5-3.9C298.2,199.9,297.6,197.9,295.7,197.9z M300.7,203.3v-0.6h3.2v0.6H300.7z M304.9,206.2v-0.6c3-2.4,5.1-4.2,5.1-5.9
		c0-1.3-1.1-1.8-2-1.8c-1.1,0-2,0.5-2.4,1.2l-0.5-0.5c0.6-0.9,1.7-1.4,3-1.4s2.8,0.7,2.8,2.5c0,2-2.1,3.8-4.7,5.8h4.7v0.7H304.9z
		 M315.8,206.2v-7.9l-2.1,2.3l-0.5-0.5l2.7-2.8h0.7v8.9H315.8z"/>
	<path class="st1" d="M194.5,206.2v-0.6c3-2.4,5.1-4.2,5.1-5.9c0-1.3-1.1-1.8-2-1.8c-1.1,0-2,0.5-2.4,1.2l-0.5-0.5
		c0.6-0.9,1.7-1.4,3-1.4s2.8,0.7,2.8,2.5c0,2-2.1,3.8-4.7,5.8h4.7v0.7H194.5z M205.5,197.2c2.4,0,3.3,2.5,3.3,4.6s-0.9,4.6-3.3,4.6
		c-2.4,0-3.3-2.5-3.3-4.6C202.2,199.6,203.1,197.2,205.5,197.2z M205.5,197.9c-1.9,0-2.5,2.1-2.5,3.9c0,1.8,0.6,3.9,2.5,3.9
		s2.5-2.1,2.5-3.9C208,199.9,207.4,197.9,205.5,197.9z M213.5,206.2v-7.9l-2.1,2.3l-0.5-0.5l2.7-2.8h0.7v8.9H213.5z M218.1,204.7
		c0.4,0.6,1,1,2,1c2,0,2.6-2,2.6-3.9c0-0.1,0-0.3,0-0.4c-0.4,0.6-1.4,1.5-2.6,1.5c-1.6,0-2.9-0.9-2.9-2.8c0-1.5,1.1-2.8,3-2.8
		c2.4,0,3.3,2.2,3.3,4.6c0,2.3-1,4.6-3.4,4.6c-1.2,0-1.9-0.5-2.4-1.1L218.1,204.7z M220.3,197.8c-1.5,0-2.2,1.2-2.2,2.1
		c0,1.5,0.9,2.2,2.2,2.2c1,0,1.9-0.6,2.4-1.5C222.6,199.4,221.9,197.8,220.3,197.8z M225.3,203.3v-0.6h3.2v0.6H225.3z M229.6,206.2
		v-0.6c3-2.4,5.1-4.2,5.1-5.9c0-1.3-1.1-1.8-2-1.8c-1.1,0-2,0.5-2.4,1.2l-0.5-0.5c0.6-0.9,1.7-1.4,3-1.4s2.8,0.7,2.8,2.5
		c0,2-2.1,3.8-4.7,5.8h4.7v0.7H229.6z M240.5,197.2c2.4,0,3.3,2.5,3.3,4.6s-0.9,4.6-3.3,4.6c-2.4,0-3.3-2.5-3.3-4.6
		C237.2,199.6,238.1,197.2,240.5,197.2z M240.5,197.9c-1.9,0-2.5,2.1-2.5,3.9c0,1.8,0.6,3.9,2.5,3.9s2.5-2.1,2.5-3.9
		C243,199.9,242.4,197.9,240.5,197.9z"/>
	<path class="st1" d="M120.4,206.2v-0.6c3-2.4,5.1-4.2,5.1-5.9c0-1.3-1.1-1.8-2-1.8c-1.1,0-2,0.5-2.4,1.2l-0.5-0.5
		c0.6-0.9,1.7-1.4,3-1.4s2.8,0.7,2.8,2.5c0,2-2.1,3.8-4.7,5.8h4.7v0.7H120.4z M131.4,197.2c2.4,0,3.3,2.5,3.3,4.6s-0.9,4.6-3.3,4.6
		c-2.4,0-3.3-2.5-3.3-4.6C128.1,199.6,129,197.2,131.4,197.2z M131.4,197.9c-1.9,0-2.5,2.1-2.5,3.9c0,1.8,0.6,3.9,2.5,3.9
		s2.5-2.1,2.5-3.9C133.8,199.9,133.2,197.9,131.4,197.9z M139.4,206.2v-7.9l-2.1,2.3l-0.5-0.5l2.7-2.8h0.7v8.9H139.4z M145.5,201.6
		c-1.1-0.3-2.1-1-2.1-2.2c0-1.6,1.5-2.3,2.9-2.3s2.9,0.7,2.9,2.3c0,1.2-1,1.9-2.1,2.2c1.1,0.3,2.2,1.1,2.2,2.4c0,1.4-1.3,2.4-3,2.4
		s-3-0.9-3-2.4C143.3,202.7,144.4,201.9,145.5,201.6z M146.3,202c-0.5,0.1-2.3,0.6-2.3,2c0,1.1,1.1,1.8,2.3,1.8s2.3-0.7,2.3-1.8
		C148.6,202.6,146.8,202,146.3,202z M146.3,197.9c-1.2,0-2.1,0.6-2.1,1.7c0,1.2,1.6,1.6,2.1,1.8c0.5-0.1,2.1-0.5,2.1-1.8
		C148.4,198.5,147.5,197.9,146.3,197.9z M151.1,203.3v-0.6h3.2v0.6H151.1z M158.3,206.2v-7.9l-2.1,2.3l-0.5-0.5l2.7-2.8h0.7v8.9
		H158.3z M162.9,204.7c0.4,0.6,1,1,2,1c2,0,2.6-2,2.6-3.9c0-0.1,0-0.3,0-0.4c-0.4,0.6-1.4,1.5-2.6,1.5c-1.6,0-2.9-0.9-2.9-2.8
		c0-1.5,1.1-2.8,3-2.8c2.4,0,3.3,2.2,3.3,4.6c0,2.3-1,4.6-3.4,4.6c-1.2,0-1.9-0.5-2.4-1.1L162.9,204.7z M165.1,197.8
		c-1.5,0-2.2,1.2-2.2,2.1c0,1.5,0.9,2.2,2.2,2.2c1,0,1.9-0.6,2.4-1.5C167.4,199.4,166.7,197.8,165.1,197.8z"/>
	<path class="st1" d="M46.2,206.2v-0.6c3-2.4,5.1-4.2,5.1-5.9c0-1.3-1.1-1.8-2-1.8c-1.1,0-2,0.5-2.4,1.2l-0.5-0.5
		c0.6-0.9,1.7-1.4,3-1.4s2.8,0.7,2.8,2.5c0,2-2.1,3.8-4.7,5.8h4.7v0.7H46.2z M57.2,197.2c2.4,0,3.3,2.5,3.3,4.6s-0.9,4.6-3.3,4.6
		s-3.3-2.5-3.3-4.6C53.9,199.6,54.8,197.2,57.2,197.2z M57.2,197.9c-1.9,0-2.5,2.1-2.5,3.9c0,1.8,0.6,3.9,2.5,3.9s2.5-2.1,2.5-3.9
		C59.7,199.9,59.1,197.9,57.2,197.9z M65.2,206.2v-7.9l-2.1,2.3l-0.5-0.5l2.7-2.8H66v8.9H65.2z M70.2,206.2L74,198h-4.9v-0.7h5.8
		v0.5l-3.8,8.4H70.2z M75.8,203.3v-0.6H79v0.6H75.8z M83,206.2v-7.9l-2.1,2.3l-0.5-0.5l2.7-2.8h0.7v8.9H83z M89.1,201.6
		c-1.1-0.3-2.1-1-2.1-2.2c0-1.6,1.5-2.3,2.9-2.3s2.9,0.7,2.9,2.3c0,1.2-1,1.9-2.1,2.2c1.1,0.3,2.2,1.1,2.2,2.4c0,1.4-1.3,2.4-3,2.4
		s-3-0.9-3-2.4C86.9,202.7,88,201.9,89.1,201.6z M90,202c-0.5,0.1-2.3,0.6-2.3,2c0,1.1,1.1,1.8,2.3,1.8c1.2,0,2.3-0.7,2.3-1.8
		C92.2,202.6,90.5,202,90,202z M90,197.9c-1.2,0-2.1,0.6-2.1,1.7c0,1.2,1.6,1.6,2.1,1.8c0.5-0.1,2.1-0.5,2.1-1.8
		C92.1,198.5,91.1,197.9,90,197.9z"/>
	<path class="st1" d="M4.4,70.3v-2.4H0.1v-0.7l4-5.8h1v5.8h1.3v0.7H5.1v2.4H4.4z M4.4,62.2l-3.4,5h3.4V62.2z"/>
</g>
</svg>
