<?xml version="1.0" encoding="utf-8"?>
<!-- Generator: Adobe Illustrator 26.4.0, SVG Export Plug-In . SVG Version: 6.00 Build 0)  -->
<svg version="1.1" id="Layer_1" xmlns="http://www.w3.org/2000/svg" xmlns:xlink="http://www.w3.org/1999/xlink" x="0px" y="0px"
	 viewBox="0 0 400 205.2" style="enable-background:new 0 0 400 205.2;" xml:space="preserve">
<style type="text/css">
	.st0{clip-path:url(#SVGID_00000111895913982615513150000008858031194300865947_);fill:#DEECC2;}
	.st1{fill:#010101;}
	.st2{fill:none;stroke:#010101;stroke-width:0.25;}
	.st3{fill:none;stroke:#939598;stroke-width:0.25;stroke-dasharray:0.75,0.5;}
	.st4{fill:#9FCC3B;}
	.st5{fill:#4E4E50;}
	.st6{fill:#076AAA;}
</style>
<g>
	<g>
		<g>
			<g>
				<defs>
					<rect id="SVGID_1_" x="55.6" y="0.1" width="333.9" height="187.3"/>
				</defs>
				<clipPath id="SVGID_00000143586728260448485680000013087545468194348714_">
					<use xlink:href="#SVGID_1_"  style="overflow:visible;"/>
				</clipPath>
				<polygon style="clip-path:url(#SVGID_00000143586728260448485680000013087545468194348714_);fill:#DEECC2;" points="71.6,185.6 
					71.6,51.8 144.9,43.7 222.6,40.2 295.1,35.8 372.8,12.5 373.5,185.6 				"/>
			</g>
		</g>
	</g>
	<path class="st1" d="M3.3,180c2.4,0,3.3,2.5,3.3,4.6s-0.9,4.6-3.3,4.6S0,186.7,0,184.6C0,182.5,0.9,180,3.3,180z M3.3,180.7
		c-1.9,0-2.5,2.1-2.5,3.9c0,1.8,0.6,3.9,2.5,3.9s2.5-2.1,2.5-3.9C5.8,182.7,5.2,180.7,3.3,180.7z"/>
	<path class="st1" d="M0.9,142.2c0.6,0.8,1.4,1.3,2.5,1.3c1.3,0,2.2-0.9,2.2-2.2c0-1.4-0.9-2.2-2.2-2.2c-0.8,0-1.5,0.3-2.2,0.9
		l-0.6-0.2v-4.7h5.2v0.7H1.4v3.5c0.4-0.4,1.2-0.8,2.1-0.8c1.5,0,2.8,1,2.8,2.8s-1.4,2.9-3,2.9c-1.5,0-2.4-0.6-3-1.5L0.9,142.2z"/>
	<path class="st1" d="M3.6,99v-7.9l-2.1,2.3L1,92.9l2.7-2.8h0.7V99H3.6z M10.6,90c2.4,0,3.3,2.5,3.3,4.6s-0.9,4.6-3.3,4.6
		s-3.3-2.5-3.3-4.6S8.2,90,10.6,90z M10.6,90.7c-1.9,0-2.5,2.1-2.5,3.9s0.6,3.9,2.5,3.9s2.5-2.1,2.5-3.9
		C13.1,92.7,12.5,90.7,10.6,90.7z"/>
	<path class="st1" d="M3.6,54v-7.9l-2.1,2.3L1,47.9l2.7-2.8h0.7V54H3.6z M8,52.2c0.6,0.8,1.4,1.3,2.5,1.3c1.3,0,2.2-0.9,2.2-2.2
		c0-1.4-0.9-2.2-2.2-2.2c-0.8,0-1.5,0.3-2.2,0.9l-0.6-0.2v-4.7H13v0.7H8.6v3.5c0.4-0.4,1.2-0.8,2.1-0.8c1.5,0,2.8,1,2.8,2.8
		s-1.4,2.9-3,2.9c-1.5,0-2.4-0.6-3-1.5L8,52.2z"/>
	<path class="st1" d="M0.3,9.1V8.5c3-2.4,5.1-4.2,5.1-5.9c0-1.3-1.1-1.8-2-1.8C2.3,0.8,1.4,1.3,1,2L0.5,1.5C1,0.5,2.1,0,3.3,0
		c1.3,0,2.8,0.7,2.8,2.5c0,2-2.1,3.8-4.7,5.8h4.7V9H0.3V9.1z M11.3,0c2.4,0,3.3,2.5,3.3,4.6s-0.9,4.6-3.3,4.6S8,6.7,8,4.6
		S8.9,0,11.3,0z M11.3,0.7c-1.9,0-2.5,2.1-2.5,3.9s0.6,3.9,2.5,3.9s2.5-2.1,2.5-3.9C13.8,2.8,13.2,0.7,11.3,0.7z"/>
	<line class="st2" x1="38.1" y1="185.4" x2="400" y2="185.4"/>
	<line class="st3" x1="38.1" y1="140.4" x2="400" y2="140.4"/>
	<line class="st3" x1="38.1" y1="95.4" x2="400" y2="95.4"/>
	<line class="st3" x1="38.1" y1="50.4" x2="400" y2="50.4"/>
	<line class="st3" x1="38.1" y1="5.4" x2="400" y2="5.4"/>
	<rect x="69.6" y="49.3" class="st4" width="5.9" height="5.9"/>
	<rect x="141.4" y="40.8" class="st4" width="5.9" height="5.9"/>
	<rect x="219.6" y="37.3" class="st4" width="5.9" height="5.9"/>
	<rect x="292.2" y="32.9" class="st4" width="5.9" height="5.9"/>
	<rect x="369.4" y="10.2" class="st4" width="5.9" height="5.9"/>
	<path class="st5" d="M131.2,35.7v-8.4l-2.2,2.4l-0.5-0.5l2.8-3h0.7v9.5C132,35.7,131.2,35.7,131.2,35.7z M135.9,33.8
		c0.6,0.9,1.4,1.4,2.7,1.4c1.4,0,2.4-1,2.4-2.3c0-1.4-1-2.3-2.4-2.3c-0.9,0-1.6,0.3-2.3,0.9l-0.6-0.3v-5h5.5V27h-4.7v3.7
		c0.5-0.5,1.3-0.9,2.3-0.9c1.6,0,3,1.1,3,3s-1.5,3.1-3.2,3.1c-1.6,0-2.6-0.6-3.2-1.6L135.9,33.8z M144.2,34.6c0.3,0,0.6,0.3,0.6,0.6
		s-0.3,0.6-0.6,0.6s-0.6-0.3-0.6-0.6C143.5,34.9,143.8,34.6,144.2,34.6z M147.5,35.7l4-8.8h-5.3v-0.7h6.2v0.6l-4,8.9
		C148.4,35.7,147.5,35.7,147.5,35.7z M154.5,35.7V35c3.2-2.6,5.4-4.5,5.4-6.3c0-1.4-1.1-1.9-2.2-1.9c-1.2,0-2.1,0.5-2.6,1.2
		l-0.6-0.5c0.7-0.9,1.8-1.5,3.2-1.5s3,0.8,3,2.7c0,2.1-2.2,4-5,6.2h5v0.7L154.5,35.7L154.5,35.7z"/>
	<path class="st5" d="M210.1,32.2v-8.4l-2.2,2.4l-0.5-0.5l2.8-3h0.7v9.5C210.9,32.2,210.1,32.2,210.1,32.2z M217.9,22.6
		c1.2,0,2,0.5,2.6,1.2l-0.5,0.6c-0.5-0.6-1-1.1-2.1-1.1c-2,0-2.8,2.1-2.8,4.2c0,0.1,0,0.3,0,0.4c0.4-0.7,1.5-1.6,2.8-1.6
		c1.7,0,3,1,3,3c0,1.6-1.2,3-3.2,3c-2.6,0-3.5-2.4-3.5-4.9C214.3,25,215.3,22.6,217.9,22.6z M217.7,27.1c-1,0-2.1,0.7-2.6,1.6
		c0.1,1.3,0.8,2.9,2.6,2.9c1.6,0,2.4-1.3,2.4-2.3C220.1,27.8,219.1,27.1,217.7,27.1z M223.3,31.1c0.3,0,0.6,0.3,0.6,0.6
		s-0.3,0.6-0.6,0.6s-0.6-0.3-0.6-0.6C222.6,31.4,222.9,31.1,223.3,31.1z M227.8,32.2v-8.4l-2.2,2.4l-0.5-0.5l2.8-3h0.7v9.5
		C228.6,32.2,227.8,32.2,227.8,32.2z M235.3,22.6c2.5,0,3.5,2.6,3.5,4.9c0,2.2-1,4.9-3.5,4.9s-3.5-2.7-3.5-4.9
		C231.8,25.2,232.7,22.6,235.3,22.6z M235.3,23.3c-2,0-2.6,2.2-2.6,4.2s0.7,4.2,2.6,4.2s2.6-2.2,2.6-4.2
		C237.9,25.5,237.3,23.3,235.3,23.3z"/>
	<path class="st5" d="M281.9,27.8v-8.4l-2.2,2.4l-0.5-0.5l2.8-3h0.7v9.5C282.7,27.8,281.9,27.8,281.9,27.8z M289.7,18.2
		c1.2,0,2,0.5,2.6,1.2l-0.5,0.6c-0.5-0.6-1-1.1-2.1-1.1c-2,0-2.8,2.1-2.8,4.2c0,0.1,0,0.3,0,0.4c0.4-0.7,1.5-1.6,2.8-1.6
		c1.7,0,3,1,3,3c0,1.6-1.2,3-3.2,3c-2.6,0-3.5-2.4-3.5-4.9C286,20.7,287.1,18.2,289.7,18.2z M289.5,22.7c-1,0-2.1,0.7-2.6,1.6
		c0.1,1.3,0.8,2.9,2.6,2.9c1.6,0,2.4-1.3,2.4-2.3C291.9,23.4,290.9,22.7,289.5,22.7z M295.1,26.7c0.3,0,0.6,0.3,0.6,0.6
		s-0.3,0.6-0.6,0.6c-0.3,0-0.6-0.3-0.6-0.6C294.4,27,294.7,26.7,295.1,26.7z M298.4,27.8l4-8.8h-5.3v-0.7h6.2v0.6l-4,8.9
		C299.3,27.8,298.4,27.8,298.4,27.8z M306,25.9c0.6,0.9,1.4,1.4,2.7,1.4c1.4,0,2.4-1,2.4-2.3c0-1.4-1-2.3-2.4-2.3
		c-0.9,0-1.6,0.3-2.3,0.9l-0.6-0.3v-5h5.5V19h-4.7v3.7c0.5-0.5,1.3-0.9,2.3-0.9c1.6,0,3,1.1,3,3s-1.5,3.1-3.2,3.1
		c-1.6,0-2.6-0.6-3.2-1.6L306,25.9z"/>
	<path class="st6" d="M357.7,29.1v-6.9l-1.6,1.6l-1.2-1.2l3-3h1.8v9.5C359.7,29.1,357.7,29.1,357.7,29.1z M362.6,28.3l0.9-1.6
		c0.5,0.5,1.1,0.7,1.9,0.7c1.6,0,2.4-1.3,2.4-2.7c0-0.1,0-0.1,0-0.2c-0.5,0.6-1.4,1.2-2.4,1.2c-1.7,0-3.2-1.1-3.2-3.1
		c0-1.9,1.5-3.3,3.6-3.3c2.9,0,4.1,2.2,4.1,4.9c0,2.9-1.6,4.9-4.4,4.9C364.2,29.3,363.2,28.9,362.6,28.3z M367.7,23.2
		c-0.1-0.9-0.6-1.9-1.9-1.9c-1.1,0-1.7,0.7-1.7,1.4c0,1,0.9,1.4,1.8,1.4C366.6,24.1,367.3,23.7,367.7,23.2z M370.7,28.1
		c0-0.6,0.5-1.2,1.2-1.2s1.2,0.5,1.2,1.2s-0.5,1.2-1.2,1.2S370.7,28.7,370.7,28.1z M374.8,29.1v-1.6c3.9-2.9,5-3.8,5-5
		c0-0.8-0.8-1.2-1.5-1.2c-1.1,0-1.9,0.4-2.5,1.1l-1.2-1.3c0.9-1.1,2.3-1.6,3.7-1.6c2,0,3.6,1.1,3.6,3c0,1.6-1.3,3-3.8,4.8h3.9v1.8
		H374.8z M383.5,29.1v-1.6c3.9-2.9,5-3.8,5-5c0-0.8-0.8-1.2-1.5-1.2c-1.1,0-1.9,0.4-2.5,1.1l-1.2-1.3c0.9-1.1,2.3-1.6,3.7-1.6
		c2,0,3.6,1.1,3.6,3c0,1.6-1.3,3-3.8,4.8h3.9v1.8H383.5z"/>
	<path class="st5" d="M59.4,43.8v-8.4l-2.2,2.4l-0.5-0.5l2.8-3h0.7v9.5C60.2,43.8,59.4,43.8,59.4,43.8z M67.8,43.8v-2.6h-4.5v-0.7
		l4.2-6.2h1.1v6.2H70v0.7h-1.4v2.6H67.8z M67.8,35.1l-3.7,5.4h3.7V35.1z M72.2,42.7c0.3,0,0.6,0.3,0.6,0.6s-0.3,0.6-0.6,0.6
		c-0.3,0-0.6-0.3-0.6-0.6C71.5,43,71.8,42.7,72.2,42.7z M78,34.2c1.2,0,2,0.5,2.6,1.2L80.1,36c-0.5-0.6-1-1.1-2.1-1.1
		c-2,0-2.8,2.1-2.8,4.2c0,0.1,0,0.3,0,0.4c0.4-0.7,1.5-1.6,2.8-1.6c1.7,0,3,1,3,3c0,1.6-1.2,3-3.2,3c-2.6,0-3.5-2.4-3.5-4.9
		C74.4,36.7,75.4,34.2,78,34.2z M77.9,38.7c-1,0-2.1,0.7-2.6,1.6c0.1,1.3,0.8,2.9,2.6,2.9c1.6,0,2.4-1.3,2.4-2.3
		C80.2,39.4,79.2,38.7,77.9,38.7z M84.1,43.8l4-8.8h-5.3v-0.7H89v0.6l-4,8.9C85,43.8,84.1,43.8,84.1,43.8z"/>
	<path class="st1" d="M343.1,204.9v-1.5c3.6-2.7,4.7-3.6,4.7-4.7c0-0.8-0.7-1.2-1.4-1.2c-1,0-1.8,0.4-2.4,1l-1.1-1.3
		c0.9-1,2.2-1.5,3.4-1.5c1.9,0,3.4,1.1,3.4,2.8c0,1.5-1.3,2.8-3.6,4.5h3.6v1.7h-6.6V204.9z M351,200.5c0-2.3,1.1-4.6,3.7-4.6
		s3.7,2.3,3.7,4.6s-1.1,4.6-3.7,4.6S351,202.8,351,200.5z M356.4,200.5c0-1.6-0.5-2.9-1.8-2.9s-1.8,1.3-1.8,2.9
		c0,1.6,0.5,2.9,1.8,2.9S356.4,202.1,356.4,200.5z M359.5,204.9v-1.5c3.6-2.7,4.7-3.6,4.7-4.7c0-0.8-0.7-1.2-1.4-1.2
		c-1,0-1.8,0.4-2.4,1l-1.1-1.3c0.9-1,2.2-1.5,3.4-1.5c1.9,0,3.4,1.1,3.4,2.8c0,1.5-1.3,2.8-3.6,4.5h3.6v1.7h-6.6V204.9z
		 M370.6,204.9v-6.5l-1.5,1.5l-1.1-1.1l2.8-2.8h1.7v8.9L370.6,204.9L370.6,204.9z M374.9,202.4V201h3.2v1.4H374.9z M379.1,204.9
		v-1.5c3.6-2.7,4.7-3.6,4.7-4.7c0-0.8-0.7-1.2-1.4-1.2c-1,0-1.8,0.4-2.4,1l-1.1-1.3c0.9-1,2.2-1.5,3.4-1.5c1.9,0,3.4,1.1,3.4,2.8
		c0,1.5-1.3,2.8-3.6,4.5h3.6v1.7h-6.6V204.9z M387.3,204.9v-1.5c3.6-2.7,4.7-3.6,4.7-4.7c0-0.8-0.7-1.2-1.4-1.2c-1,0-1.8,0.4-2.4,1
		l-1.1-1.3c0.9-1,2.2-1.5,3.4-1.5c1.9,0,3.4,1.1,3.4,2.8c0,1.5-1.3,2.8-3.6,4.5h3.6v1.7h-6.6V204.9z"/>
	<path class="st1" d="M269,204.9v-0.6c3-2.4,5.1-4.2,5.1-5.9c0-1.3-1.1-1.8-2-1.8c-1.1,0-2,0.5-2.4,1.2l-0.5-0.5
		c0.6-0.9,1.7-1.4,3-1.4s2.8,0.7,2.8,2.5c0,2-2.1,3.8-4.7,5.8h4.7v0.7H269z M280,195.9c2.4,0,3.3,2.5,3.3,4.6s-0.9,4.6-3.3,4.6
		s-3.3-2.5-3.3-4.6C276.6,198.3,277.6,195.9,280,195.9z M280,196.6c-1.9,0-2.5,2.1-2.5,3.9c0,1.8,0.6,3.9,2.5,3.9s2.5-2.1,2.5-3.9
		C282.4,198.6,281.8,196.6,280,196.6z M284.7,204.9v-0.6c3-2.4,5.1-4.2,5.1-5.9c0-1.3-1.1-1.8-2-1.8c-1.1,0-2,0.5-2.4,1.2l-0.5-0.5
		c0.6-0.9,1.7-1.4,3-1.4s2.8,0.7,2.8,2.5c0,2-2.1,3.8-4.7,5.8h4.7v0.7H284.7z M295.7,195.9c2.4,0,3.3,2.5,3.3,4.6s-0.9,4.6-3.3,4.6
		s-3.3-2.5-3.3-4.6C292.4,198.3,293.3,195.9,295.7,195.9z M295.7,196.6c-1.9,0-2.5,2.1-2.5,3.9c0,1.8,0.6,3.9,2.5,3.9
		s2.5-2.1,2.5-3.9C298.2,198.6,297.6,196.6,295.7,196.6z M300.7,202v-0.6h3.2v0.6H300.7z M304.9,204.9v-0.6c3-2.4,5.1-4.2,5.1-5.9
		c0-1.3-1.1-1.8-2-1.8c-1.1,0-2,0.5-2.4,1.2l-0.5-0.5c0.6-0.9,1.7-1.4,3-1.4s2.8,0.7,2.8,2.5c0,2-2.1,3.8-4.7,5.8h4.7v0.7H304.9z
		 M315.8,204.9V197l-2.1,2.3l-0.5-0.5l2.7-2.8h0.7v8.9H315.8z"/>
	<path class="st1" d="M194.5,204.9v-0.6c3-2.4,5.1-4.2,5.1-5.9c0-1.3-1.1-1.8-2-1.8c-1.1,0-2,0.5-2.4,1.2l-0.5-0.5
		c0.6-0.9,1.7-1.4,3-1.4s2.8,0.7,2.8,2.5c0,2-2.1,3.8-4.7,5.8h4.7v0.7H194.5z M205.5,195.9c2.4,0,3.3,2.5,3.3,4.6s-0.9,4.6-3.3,4.6
		c-2.4,0-3.3-2.5-3.3-4.6C202.2,198.3,203.1,195.9,205.5,195.9z M205.5,196.6c-1.9,0-2.5,2.1-2.5,3.9c0,1.8,0.6,3.9,2.5,3.9
		s2.5-2.1,2.5-3.9C208,198.6,207.4,196.6,205.5,196.6z M213.5,204.9V197l-2.1,2.3l-0.5-0.5l2.7-2.8h0.7v8.9H213.5z M218.1,203.4
		c0.4,0.6,1,1,2,1c2,0,2.6-2,2.6-3.9c0-0.1,0-0.3,0-0.4c-0.4,0.6-1.4,1.5-2.6,1.5c-1.6,0-2.9-0.9-2.9-2.8c0-1.5,1.1-2.8,3-2.8
		c2.4,0,3.3,2.2,3.3,4.6c0,2.3-1,4.6-3.4,4.6c-1.2,0-1.9-0.5-2.4-1.1L218.1,203.4z M220.3,196.5c-1.5,0-2.2,1.2-2.2,2.1
		c0,1.5,0.9,2.2,2.2,2.2c1,0,1.9-0.6,2.4-1.5C222.6,198.1,221.9,196.5,220.3,196.5z M225.3,202v-0.6h3.2v0.6H225.3z M229.5,204.9
		v-0.6c3-2.4,5.1-4.2,5.1-5.9c0-1.3-1.1-1.8-2-1.8c-1.1,0-2,0.5-2.4,1.2l-0.5-0.5c0.6-0.9,1.7-1.4,3-1.4s2.8,0.7,2.8,2.5
		c0,2-2.1,3.8-4.7,5.8h4.7v0.7H229.5z M240.5,195.9c2.4,0,3.3,2.5,3.3,4.6s-0.9,4.6-3.3,4.6c-2.4,0-3.3-2.5-3.3-4.6
		C237.2,198.3,238.1,195.9,240.5,195.9z M240.5,196.6c-1.9,0-2.5,2.1-2.5,3.9c0,1.8,0.6,3.9,2.5,3.9s2.5-2.1,2.5-3.9
		C243,198.6,242.4,196.6,240.5,196.6z"/>
	<path class="st1" d="M120.4,204.9v-0.6c3-2.4,5.1-4.2,5.1-5.9c0-1.3-1.1-1.8-2-1.8c-1.1,0-2,0.5-2.4,1.2l-0.5-0.5
		c0.6-0.9,1.7-1.4,3-1.4s2.8,0.7,2.8,2.5c0,2-2.1,3.8-4.7,5.8h4.7v0.7H120.4z M131.3,195.9c2.4,0,3.3,2.5,3.3,4.6s-0.9,4.6-3.3,4.6
		c-2.4,0-3.3-2.5-3.3-4.6C128,198.3,129,195.9,131.3,195.9z M131.3,196.6c-1.9,0-2.5,2.1-2.5,3.9c0,1.8,0.6,3.9,2.5,3.9
		s2.5-2.1,2.5-3.9C133.8,198.6,133.2,196.6,131.3,196.6z M139.4,204.9V197l-2.1,2.3l-0.5-0.5l2.7-2.8h0.7v8.9H139.4z M145.5,200.3
		c-1.1-0.3-2.1-1-2.1-2.2c0-1.6,1.5-2.3,2.9-2.3s2.9,0.7,2.9,2.3c0,1.2-1,1.9-2.1,2.2c1.1,0.3,2.2,1.1,2.2,2.4c0,1.4-1.3,2.4-3,2.4
		s-3-0.9-3-2.4C143.3,201.4,144.4,200.6,145.5,200.3z M146.3,200.7c-0.5,0.1-2.3,0.6-2.3,2c0,1.1,1.1,1.8,2.3,1.8s2.3-0.7,2.3-1.8
		C148.6,201.3,146.8,200.7,146.3,200.7z M146.3,196.6c-1.2,0-2.1,0.6-2.1,1.7c0,1.2,1.6,1.6,2.1,1.8c0.5-0.1,2.1-0.5,2.1-1.8
		C148.4,197.2,147.5,196.6,146.3,196.6z M151.1,202v-0.6h3.2v0.6H151.1z M158.3,204.9V197l-2.1,2.3l-0.5-0.5l2.7-2.8h0.7v8.9H158.3z
		 M162.9,203.4c0.4,0.6,1,1,2,1c2,0,2.6-2,2.6-3.9c0-0.1,0-0.3,0-0.4c-0.4,0.6-1.4,1.5-2.6,1.5c-1.6,0-2.9-0.9-2.9-2.8
		c0-1.5,1.1-2.8,3-2.8c2.4,0,3.3,2.2,3.3,4.6c0,2.3-1,4.6-3.4,4.6c-1.2,0-1.9-0.5-2.4-1.1L162.9,203.4z M165.1,196.5
		c-1.5,0-2.2,1.2-2.2,2.1c0,1.5,0.9,2.2,2.2,2.2c1,0,1.9-0.6,2.4-1.5C167.4,198.1,166.7,196.5,165.1,196.5z"/>
	<path class="st1" d="M46.2,204.9v-0.6c3-2.4,5.1-4.2,5.1-5.9c0-1.3-1.1-1.8-2-1.8c-1.1,0-2,0.5-2.4,1.2l-0.5-0.5
		c0.6-0.9,1.7-1.4,3-1.4s2.8,0.7,2.8,2.5c0,2-2.1,3.8-4.7,5.8h4.7v0.7H46.2z M57.2,195.9c2.4,0,3.3,2.5,3.3,4.6s-0.9,4.6-3.3,4.6
		s-3.3-2.5-3.3-4.6C53.9,198.3,54.8,195.9,57.2,195.9z M57.2,196.6c-1.9,0-2.5,2.1-2.5,3.9c0,1.8,0.6,3.9,2.5,3.9s2.5-2.1,2.5-3.9
		C59.7,198.6,59.1,196.6,57.2,196.6z M65.2,204.9V197l-2.1,2.3l-0.5-0.5l2.7-2.8H66v8.9H65.2z M70.2,204.9l3.8-8.2h-5V196h5.8v0.5
		l-3.8,8.4H70.2z M75.8,202v-0.6H79v0.6H75.8z M83,204.9V197l-2.1,2.3l-0.5-0.5l2.7-2.8h0.7v8.9H83z M89.1,200.3
		c-1.1-0.3-2.1-1-2.1-2.2c0-1.6,1.5-2.3,2.9-2.3s2.9,0.7,2.9,2.3c0,1.2-1,1.9-2.1,2.2c1.1,0.3,2.2,1.1,2.2,2.4c0,1.4-1.3,2.4-3,2.4
		s-3-0.9-3-2.4C86.9,201.4,88,200.6,89.1,200.3z M89.9,200.7c-0.5,0.1-2.3,0.6-2.3,2c0,1.1,1.1,1.8,2.3,1.8c1.2,0,2.3-0.7,2.3-1.8
		C92.2,201.3,90.5,200.7,89.9,200.7z M89.9,196.6c-1.2,0-2.1,0.6-2.1,1.7c0,1.2,1.6,1.6,2.1,1.8c0.5-0.1,2.1-0.5,2.1-1.8
		C92.1,197.2,91.1,196.6,89.9,196.6z"/>
</g>
</svg>
