<?xml version="1.0" encoding="utf-8"?>
<!-- Generator: Adobe Illustrator 26.4.0, SVG Export Plug-In . SVG Version: 6.00 Build 0)  -->
<svg version="1.1" id="Layer_1" xmlns="http://www.w3.org/2000/svg" xmlns:xlink="http://www.w3.org/1999/xlink" x="0px" y="0px"
	 viewBox="0 0 595.3 157.5" style="enable-background:new 0 0 595.3 157.5;" xml:space="preserve">
<style type="text/css">
	.st0{fill:#E6E7E8;}
	.st1{fill:none;stroke:#0069AA;stroke-width:0.5;stroke-miterlimit:10;}
	.st2{fill:none;stroke:#6D6E71;stroke-width:0.25;stroke-miterlimit:10;}
	.st3{fill:none;stroke:#0069AA;stroke-miterlimit:10;}
	.st4{fill:#4D4D4F;}
</style>
<g>
	<path class="st0" d="M491.6,1.8h101.9v22H491.6V1.8z M409.3,1.8h82.3v22h-82.3V1.8z M52.5,1.8h356.9v22H52.5V1.8z M1.8,1.8h50.7v22
		H1.8V1.8z"/>
	<line class="st1" x1="1.8" y1="23.8" x2="52.5" y2="23.8"/>
	<line class="st1" x1="52.5" y1="23.8" x2="409.3" y2="23.8"/>
	<line class="st1" x1="409.3" y1="23.8" x2="491.6" y2="23.8"/>
	<line class="st1" x1="491.6" y1="23.8" x2="593.5" y2="23.8"/>
	<line class="st2" x1="1.8" y1="45.8" x2="52.5" y2="45.8"/>
	<line class="st2" x1="52.5" y1="45.8" x2="409.3" y2="45.8"/>
	<line class="st2" x1="409.3" y1="45.8" x2="491.6" y2="45.8"/>
	<line class="st2" x1="491.6" y1="45.8" x2="593.5" y2="45.8"/>
	<line class="st2" x1="1.8" y1="67.8" x2="52.5" y2="67.8"/>
	<line class="st2" x1="52.5" y1="67.8" x2="409.3" y2="67.8"/>
	<line class="st2" x1="409.3" y1="67.8" x2="491.6" y2="67.8"/>
	<line class="st2" x1="491.6" y1="67.8" x2="593.5" y2="67.8"/>
	<line class="st2" x1="1.8" y1="89.8" x2="52.5" y2="89.8"/>
	<line class="st2" x1="52.5" y1="89.8" x2="409.3" y2="89.8"/>
	<line class="st2" x1="409.3" y1="89.8" x2="491.6" y2="89.8"/>
	<line class="st2" x1="491.6" y1="89.8" x2="593.5" y2="89.8"/>
	<line class="st2" x1="1.8" y1="111.7" x2="52.5" y2="111.7"/>
	<line class="st2" x1="52.5" y1="111.7" x2="409.3" y2="111.7"/>
	<line class="st2" x1="409.3" y1="111.7" x2="491.6" y2="111.7"/>
	<line class="st2" x1="491.6" y1="111.7" x2="593.5" y2="111.7"/>
	<line class="st2" x1="1.8" y1="133.7" x2="52.5" y2="133.7"/>
	<line class="st2" x1="52.5" y1="133.7" x2="409.3" y2="133.7"/>
	<line class="st2" x1="409.3" y1="133.7" x2="491.6" y2="133.7"/>
	<line class="st2" x1="491.6" y1="133.7" x2="593.5" y2="133.7"/>
	<line class="st3" x1="1.8" y1="155.7" x2="52.5" y2="155.7"/>
	<line class="st3" x1="52.5" y1="155.7" x2="409.3" y2="155.7"/>
	<line class="st3" x1="409.3" y1="155.7" x2="491.6" y2="155.7"/>
	<line class="st3" x1="491.6" y1="155.7" x2="593.5" y2="155.7"/>
	<g>
		<path class="st4" d="M13.3,16.1l0.7-1c0.5,0.5,1.3,1,2.3,1c1,0,1.4-0.5,1.4-1c0-1.5-4.2-0.6-4.2-3.2c0-1.2,1-2.1,2.6-2.1
			c1.1,0,2,0.4,2.7,1l-0.7,0.9c-0.6-0.6-1.3-0.8-2.1-0.8c-0.7,0-1.2,0.4-1.2,0.9c0,1.3,4.2,0.5,4.2,3.2c0,1.2-0.8,2.2-2.8,2.2
			C14.9,17.2,14,16.7,13.3,16.1z"/>
		<path class="st4" d="M20,16.4c0-0.4,0.3-0.8,0.8-0.8s0.8,0.3,0.8,0.8s-0.3,0.8-0.8,0.8S20,16.8,20,16.4z"/>
		<path class="st4" d="M30.5,17.1L26.8,12v5.1h-1.3V9.9h1.3l3.7,5v-5h1.3v7.2H30.5z"/>
		<path class="st4" d="M32.9,14.5c0-1.5,1-2.7,2.7-2.7c1.7,0,2.7,1.2,2.7,2.7c0,1.5-1,2.7-2.7,2.7C33.9,17.2,32.9,16,32.9,14.5z
			 M37.1,14.5c0-0.9-0.5-1.7-1.5-1.7c-1,0-1.5,0.8-1.5,1.7c0,0.9,0.5,1.7,1.5,1.7C36.5,16.2,37.1,15.4,37.1,14.5z"/>
		<path class="st4" d="M39.2,16.4c0-0.4,0.3-0.8,0.8-0.8s0.8,0.3,0.8,0.8s-0.3,0.8-0.8,0.8S39.2,16.8,39.2,16.4z"/>
	</g>
	<g>
		<path class="st4" d="M58.3,17.1v-6h-2.2V9.9h5.6V11h-2.2v6H58.3z"/>
		<path class="st4" d="M62.3,18.1c0.1,0.1,0.3,0.1,0.4,0.1c0.4,0,0.6-0.1,0.7-0.5l0.3-0.6l-2.1-5.2h1.2l1.5,3.9l1.5-3.9H67L64.5,18
			c-0.4,0.9-1,1.2-1.8,1.2c-0.2,0-0.5,0-0.6-0.1L62.3,18.1z"/>
		<path class="st4" d="M68.9,16.4V19h-1.1v-7.2h1.1v0.7c0.4-0.5,1-0.8,1.7-0.8c1.3,0,2.3,1,2.3,2.7c0,1.7-1,2.7-2.3,2.7
			C69.9,17.2,69.3,16.9,68.9,16.4z M71.6,14.5c0-1-0.6-1.7-1.5-1.7c-0.5,0-1.1,0.3-1.3,0.7v2c0.2,0.4,0.8,0.7,1.3,0.7
			C71.1,16.2,71.6,15.5,71.6,14.5z"/>
		<path class="st4" d="M73.6,14.5c0-1.5,1.1-2.7,2.6-2.7c1.6,0,2.6,1.2,2.6,2.8v0.3h-4c0.1,0.8,0.7,1.4,1.7,1.4
			c0.5,0,1.1-0.2,1.5-0.6l0.5,0.7c-0.5,0.5-1.3,0.8-2.1,0.8C74.8,17.2,73.6,16.1,73.6,14.5z M76.2,12.7c-1,0-1.4,0.7-1.5,1.4h2.9
			C77.7,13.4,77.3,12.7,76.2,12.7z"/>
		<path class="st4" d="M79.4,16.4l0.5-0.8c0.4,0.4,1.1,0.7,1.8,0.7s1-0.3,1-0.7c0-1-3.1-0.3-3.1-2.3c0-0.8,0.7-1.6,2-1.6
			c0.9,0,1.5,0.3,2,0.7l-0.5,0.8c-0.3-0.4-0.9-0.6-1.5-0.6c-0.6,0-1,0.3-1,0.6c0,0.9,3.1,0.2,3.1,2.3c0,0.9-0.8,1.6-2.2,1.6
			C80.8,17.2,80,16.9,79.4,16.4z"/>
		<path class="st4" d="M87.4,14.5c0-1.5,1-2.7,2.7-2.7c1.7,0,2.7,1.2,2.7,2.7c0,1.5-1,2.7-2.7,2.7C88.4,17.2,87.4,16,87.4,14.5z
			 M91.6,14.5c0-0.9-0.5-1.7-1.5-1.7c-1,0-1.5,0.8-1.5,1.7c0,0.9,0.5,1.7,1.5,1.7C91,16.2,91.6,15.4,91.6,14.5z"/>
		<path class="st4" d="M94.1,17.1v-4.2h-0.9v-1h0.9v-0.3c0-1.1,0.7-1.8,1.6-1.8c0.5,0,0.9,0.1,1.2,0.5L96.6,11
			c-0.2-0.1-0.3-0.2-0.6-0.2c-0.4,0-0.7,0.3-0.7,0.9v0.3h1.1v1h-1.1v4.2H94.1z"/>
		<path class="st4" d="M99.6,13.5c0-2.2,1.6-3.7,3.8-3.7c1.4,0,2.3,0.8,2.9,1.6l-1.1,0.5c-0.3-0.6-1-1-1.8-1c-1.4,0-2.5,1.1-2.5,2.6
			s1.1,2.6,2.5,2.6c0.8,0,1.5-0.4,1.8-1l1.1,0.5c-0.5,0.9-1.4,1.6-2.9,1.6C101.3,17.2,99.6,15.7,99.6,13.5z"/>
		<path class="st4" d="M110.4,17.1v-0.6c-0.4,0.4-1,0.7-1.7,0.7c-0.8,0-1.8-0.6-1.8-1.7c0-1.2,1-1.7,1.8-1.7c0.7,0,1.3,0.2,1.7,0.7
			v-0.8c0-0.6-0.5-1-1.2-1c-0.6,0-1.1,0.2-1.5,0.7l-0.5-0.8c0.6-0.6,1.4-0.8,2.2-0.8c1.1,0,2.2,0.5,2.2,1.9v3.4H110.4z M110.4,15.9
			v-0.8c-0.3-0.4-0.7-0.5-1.2-0.5c-0.6,0-1.1,0.4-1.1,0.9c0,0.6,0.5,0.9,1.1,0.9C109.7,16.4,110.1,16.2,110.4,15.9z"/>
		<path class="st4" d="M113.2,15.9v-3h-0.9v-1h0.9v-1.4h1.1v1.4h1.1v1h-1.1v2.7c0,0.4,0.2,0.6,0.5,0.6c0.2,0,0.4-0.1,0.5-0.2
			l0.3,0.8c-0.2,0.2-0.5,0.3-1.1,0.3C113.7,17.2,113.2,16.7,113.2,15.9z"/>
		<path class="st4" d="M116.1,14.5c0-1.5,1.1-2.7,2.6-2.7c1.6,0,2.6,1.2,2.6,2.8v0.3h-4c0.1,0.8,0.7,1.4,1.7,1.4
			c0.5,0,1.1-0.2,1.5-0.6l0.5,0.7c-0.5,0.5-1.3,0.8-2.1,0.8C117.2,17.2,116.1,16.1,116.1,14.5z M118.7,12.7c-1,0-1.4,0.7-1.5,1.4
			h2.9C120.1,13.4,119.7,12.7,118.7,12.7z"/>
		<path class="st4" d="M122.3,18.4l0.5-0.8c0.4,0.5,1,0.7,1.6,0.7c0.7,0,1.5-0.3,1.5-1.4v-0.6c-0.4,0.5-1,0.9-1.7,0.9
			c-1.3,0-2.3-1-2.3-2.7c0-1.7,1-2.7,2.3-2.7c0.7,0,1.2,0.3,1.7,0.8v-0.7h1.1v4.9c0,1.9-1.4,2.4-2.7,2.4
			C123.6,19.2,122.9,19,122.3,18.4z M126,15.4v-1.9c-0.2-0.4-0.8-0.7-1.3-0.7c-0.9,0-1.5,0.7-1.5,1.7c0,1,0.6,1.7,1.5,1.7
			C125.2,16.1,125.8,15.8,126,15.4z"/>
		<path class="st4" d="M128.3,14.5c0-1.5,1-2.7,2.7-2.7c1.7,0,2.7,1.2,2.7,2.7c0,1.5-1,2.7-2.7,2.7C129.3,17.2,128.3,16,128.3,14.5z
			 M132.4,14.5c0-0.9-0.5-1.7-1.5-1.7c-1,0-1.5,0.8-1.5,1.7c0,0.9,0.5,1.7,1.5,1.7C131.9,16.2,132.4,15.4,132.4,14.5z"/>
		<path class="st4" d="M134.7,17.1v-5.2h1.1v0.8c0.4-0.5,1-0.9,1.7-0.9v1.1c-0.1,0-0.2,0-0.4,0c-0.5,0-1.1,0.3-1.3,0.7v3.5H134.7z"
			/>
		<path class="st4" d="M138.3,10.6c0-0.4,0.3-0.7,0.7-0.7c0.4,0,0.7,0.3,0.7,0.7c0,0.4-0.3,0.7-0.7,0.7
			C138.6,11.3,138.3,10.9,138.3,10.6z M138.5,17.1v-5.2h1.1v5.2H138.5z"/>
		<path class="st4" d="M140.7,14.5c0-1.5,1.1-2.7,2.6-2.7c1.6,0,2.6,1.2,2.6,2.8v0.3h-4c0.1,0.8,0.7,1.4,1.7,1.4
			c0.5,0,1.1-0.2,1.5-0.6l0.5,0.7c-0.5,0.5-1.3,0.8-2.1,0.8C141.9,17.2,140.7,16.1,140.7,14.5z M143.3,12.7c-1,0-1.4,0.7-1.5,1.4
			h2.9C144.8,13.4,144.4,12.7,143.3,12.7z"/>
		<path class="st4" d="M146.6,16.4l0.5-0.8c0.4,0.4,1.1,0.7,1.8,0.7s1-0.3,1-0.7c0-1-3.1-0.3-3.1-2.3c0-0.8,0.7-1.6,2-1.6
			c0.9,0,1.5,0.3,2,0.7l-0.5,0.8c-0.3-0.4-0.9-0.6-1.5-0.6c-0.6,0-1,0.3-1,0.6c0,0.9,3.1,0.2,3.1,2.3c0,0.9-0.8,1.6-2.2,1.6
			C147.9,17.2,147.1,16.9,146.6,16.4z"/>
	</g>
	<g>
		<path class="st4" d="M420.5,13.5c0-2.1,1.5-3.7,3.7-3.7s3.7,1.6,3.7,3.7s-1.5,3.7-3.7,3.7S420.5,15.6,420.5,13.5z M426.5,13.5
			c0-1.5-0.9-2.6-2.4-2.6c-1.4,0-2.4,1.1-2.4,2.6c0,1.5,0.9,2.6,2.4,2.6C425.6,16.1,426.5,15,426.5,13.5z"/>
		<path class="st4" d="M428.7,14.5c0-1.6,1.1-2.7,2.7-2.7c1,0,1.6,0.4,2,0.9l-0.7,0.7c-0.3-0.4-0.7-0.6-1.2-0.6
			c-0.9,0-1.6,0.7-1.6,1.7c0,1,0.6,1.7,1.6,1.7c0.5,0,0.9-0.2,1.2-0.6l0.7,0.7c-0.4,0.5-1,0.9-2,0.9C429.8,17.2,428.7,16,428.7,14.5
			z"/>
		<path class="st4" d="M434,14.5c0-1.6,1.1-2.7,2.7-2.7c1,0,1.6,0.4,2,0.9l-0.7,0.7c-0.3-0.4-0.7-0.6-1.2-0.6
			c-0.9,0-1.6,0.7-1.6,1.7c0,1,0.6,1.7,1.6,1.7c0.5,0,0.9-0.2,1.2-0.6l0.7,0.7c-0.4,0.5-1,0.9-2,0.9C435.1,17.2,434,16,434,14.5z"/>
		<path class="st4" d="M443.2,17.1v-0.7c-0.4,0.4-1,0.8-1.8,0.8c-1.1,0-1.7-0.6-1.7-1.6v-3.7h1.1v3.3c0,0.8,0.4,1.1,1,1.1
			c0.6,0,1.1-0.3,1.3-0.7v-3.6h1.1v5.2H443.2z"/>
		<path class="st4" d="M445.7,17.1v-5.2h1.1v0.8c0.4-0.5,1-0.9,1.7-0.9v1.1c-0.1,0-0.2,0-0.4,0c-0.5,0-1.1,0.3-1.3,0.7v3.5H445.7z"
			/>
		<path class="st4" d="M449.5,17.1v-5.2h1.1v0.8c0.4-0.5,1-0.9,1.7-0.9v1.1c-0.1,0-0.2,0-0.4,0c-0.5,0-1.1,0.3-1.3,0.7v3.5H449.5z"
			/>
		<path class="st4" d="M452.9,14.5c0-1.5,1.1-2.7,2.6-2.7c1.6,0,2.6,1.2,2.6,2.8v0.3h-4c0.1,0.8,0.7,1.4,1.7,1.4
			c0.5,0,1.1-0.2,1.5-0.6l0.5,0.7c-0.5,0.5-1.3,0.8-2.1,0.8C454,17.2,452.9,16.1,452.9,14.5z M455.5,12.7c-1,0-1.4,0.7-1.5,1.4h2.9
			C456.9,13.4,456.5,12.7,455.5,12.7z"/>
		<path class="st4" d="M462.6,17.1v-3.2c0-0.8-0.4-1.1-1-1.1c-0.6,0-1.1,0.3-1.3,0.7v3.6h-1.1v-5.2h1.1v0.7c0.3-0.4,1-0.8,1.8-0.8
			c1.1,0,1.7,0.6,1.7,1.7v3.6H462.6z"/>
		<path class="st4" d="M464.9,14.5c0-1.6,1.1-2.7,2.7-2.7c1,0,1.6,0.4,2,0.9l-0.7,0.7c-0.3-0.4-0.7-0.6-1.2-0.6
			c-0.9,0-1.6,0.7-1.6,1.7c0,1,0.6,1.7,1.6,1.7c0.5,0,0.9-0.2,1.2-0.6l0.7,0.7c-0.4,0.5-1,0.9-2,0.9C466,17.2,464.9,16,464.9,14.5z"
			/>
		<path class="st4" d="M470.2,14.5c0-1.5,1.1-2.7,2.6-2.7c1.6,0,2.6,1.2,2.6,2.8v0.3h-4c0.1,0.8,0.7,1.4,1.7,1.4
			c0.5,0,1.1-0.2,1.5-0.6l0.5,0.7c-0.5,0.5-1.3,0.8-2.1,0.8C471.4,17.2,470.2,16.1,470.2,14.5z M472.9,12.7c-1,0-1.4,0.7-1.5,1.4
			h2.9C474.3,13.4,473.9,12.7,472.9,12.7z"/>
		<path class="st4" d="M476.1,16.4l0.5-0.8c0.4,0.4,1.1,0.7,1.8,0.7s1-0.3,1-0.7c0-1-3.1-0.3-3.1-2.3c0-0.8,0.7-1.6,2-1.6
			c0.9,0,1.5,0.3,2,0.7l-0.5,0.8c-0.3-0.4-0.9-0.6-1.5-0.6c-0.6,0-1,0.3-1,0.6c0,0.9,3.1,0.2,3.1,2.3c0,0.9-0.8,1.6-2.2,1.6
			C477.4,17.2,476.6,16.9,476.1,16.4z"/>
	</g>
	<g>
		<path class="st4" d="M527.5,11.6c0-1,0.7-1.8,1.8-1.8c1.1,0,1.8,0.8,1.8,1.8c0,1-0.7,1.8-1.8,1.8
			C528.2,13.4,527.5,12.6,527.5,11.6z M530.3,11.6c0-0.6-0.4-1.1-1-1.1c-0.5,0-0.9,0.4-0.9,1.1c0,0.6,0.4,1.1,0.9,1.1
			C529.9,12.6,530.3,12.2,530.3,11.6z M528.6,17.1l4.6-7.2h0.7l-4.6,7.2H528.6z M531.4,15.4c0-1,0.7-1.8,1.8-1.8
			c1.1,0,1.8,0.8,1.8,1.8c0,1-0.7,1.8-1.8,1.8C532.1,17.2,531.4,16.4,531.4,15.4z M534.1,15.4c0-0.6-0.4-1.1-1-1.1
			c-0.6,0-0.9,0.4-0.9,1.1c0,0.6,0.4,1.1,0.9,1.1C533.7,16.5,534.1,16.1,534.1,15.4z"/>
		<path class="st4" d="M538.3,16.4l0.5-0.8c0.4,0.4,1.1,0.7,1.8,0.7s1-0.3,1-0.7c0-1-3.1-0.3-3.1-2.3c0-0.8,0.7-1.6,2-1.6
			c0.9,0,1.5,0.3,2,0.7l-0.5,0.8c-0.3-0.4-0.9-0.6-1.5-0.6c-0.6,0-1,0.3-1,0.6c0,0.9,3.1,0.2,3.1,2.3c0,0.9-0.8,1.6-2.2,1.6
			C539.6,17.2,538.8,16.9,538.3,16.4z"/>
		<path class="st4" d="M544.9,16.4V19h-1.1v-7.2h1.1v0.7c0.4-0.5,1-0.8,1.7-0.8c1.3,0,2.3,1,2.3,2.7c0,1.7-1,2.7-2.3,2.7
			C545.9,17.2,545.3,16.9,544.9,16.4z M547.7,14.5c0-1-0.6-1.7-1.5-1.7c-0.5,0-1.1,0.3-1.3,0.7v2c0.2,0.4,0.8,0.7,1.3,0.7
			C547.1,16.2,547.7,15.5,547.7,14.5z"/>
		<path class="st4" d="M550,17.1V9.9h1.1v7.2H550z"/>
		<path class="st4" d="M552.4,10.6c0-0.4,0.3-0.7,0.7-0.7c0.4,0,0.7,0.3,0.7,0.7c0,0.4-0.3,0.7-0.7,0.7
			C552.7,11.3,552.4,10.9,552.4,10.6z M552.6,17.1v-5.2h1.1v5.2H552.6z"/>
		<path class="st4" d="M555.4,15.9v-3h-0.9v-1h0.9v-1.4h1.1v1.4h1.1v1h-1.1v2.7c0,0.4,0.2,0.6,0.5,0.6c0.2,0,0.4-0.1,0.5-0.2
			l0.3,0.8c-0.2,0.2-0.5,0.3-1.1,0.3C555.8,17.2,555.4,16.7,555.4,15.9z"/>
	</g>
	<g>
		<path d="M27.2,39.1v-6l-1.1,1.2l-0.5-0.5l1.8-1.8h0.8v7.2H27.2z"/>
	</g>
	<g>
		<path d="M56.7,39.1v-7.2h4.7v0.8h-3.8V35h3.7v0.8h-3.7v2.5h3.8v0.8H56.7z"/>
		<path d="M69,39.1v-3.5c0-0.7-0.3-1.1-1-1.1c-0.5,0-1.1,0.4-1.4,0.8v3.8h-0.8v-3.5c0-0.7-0.3-1.1-1-1.1c-0.5,0-1.1,0.4-1.4,0.8v3.8
			h-0.8v-5.2h0.8v0.8c0.2-0.3,0.9-0.9,1.7-0.9c0.8,0,1.2,0.4,1.4,1c0.3-0.5,1-1,1.7-1c0.9,0,1.4,0.5,1.4,1.6v3.7H69z"/>
		<path d="M72.2,38.3V41h-0.8v-7.2h0.8v0.8c0.4-0.5,1-0.9,1.7-0.9c1.4,0,2.3,1,2.3,2.7c0,1.7-0.9,2.7-2.3,2.7
			C73.3,39.2,72.6,38.8,72.2,38.3z M75.4,36.5c0-1.1-0.6-2-1.7-2c-0.6,0-1.3,0.4-1.5,0.8v2.3c0.3,0.5,0.9,0.8,1.5,0.8
			C74.8,38.5,75.4,37.6,75.4,36.5z"/>
		<path d="M77.6,39.1v-7.2h0.8v7.2H77.6z"/>
		<path d="M79.7,36.5c0-1.5,1-2.7,2.6-2.7c1.6,0,2.6,1.2,2.6,2.7s-1,2.7-2.6,2.7C80.7,39.2,79.7,38,79.7,36.5z M83.9,36.5
			c0-1.1-0.6-2-1.7-2c-1.1,0-1.7,0.9-1.7,2c0,1.1,0.6,2,1.7,2C83.3,38.5,83.9,37.5,83.9,36.5z"/>
		<path d="M85.9,40.3c0.1,0.1,0.3,0.1,0.4,0.1c0.4,0,0.6-0.1,0.8-0.5l0.3-0.8l-2.2-5.2h0.9l1.7,4.2l1.7-4.2h0.9l-2.6,6.2
			c-0.3,0.8-0.8,1-1.5,1.1c-0.2,0-0.4,0-0.6-0.1L85.9,40.3z"/>
		<path d="M91.1,36.5c0-1.5,1.1-2.7,2.6-2.7c1.6,0,2.5,1.2,2.5,2.8v0.2h-4.2c0.1,1,0.8,1.8,1.9,1.8c0.6,0,1.2-0.2,1.6-0.7l0.4,0.5
			c-0.5,0.5-1.2,0.8-2.1,0.8C92.2,39.2,91.1,38.1,91.1,36.5z M93.6,34.4c-1.1,0-1.7,0.9-1.7,1.7h3.4C95.3,35.4,94.8,34.4,93.6,34.4z
			"/>
		<path d="M97.1,36.5c0-1.5,1.1-2.7,2.6-2.7c1.6,0,2.5,1.2,2.5,2.8v0.2h-4.2c0.1,1,0.8,1.8,1.9,1.8c0.6,0,1.2-0.2,1.6-0.7l0.4,0.5
			c-0.5,0.5-1.2,0.8-2.1,0.8C98.2,39.2,97.1,38.1,97.1,36.5z M99.6,34.4c-1.1,0-1.7,0.9-1.7,1.7h3.4
			C101.3,35.4,100.8,34.4,99.6,34.4z"/>
		<path d="M112.3,39.1v-5.9l-2.4,5.9h-0.4l-2.4-5.9v5.9h-0.9v-7.2h1.3l2.2,5.4l2.2-5.4h1.3v7.2H112.3z"/>
		<path d="M114.7,32.6c0-0.3,0.2-0.5,0.5-0.5c0.3,0,0.5,0.2,0.5,0.5c0,0.3-0.2,0.5-0.5,0.5C115,33.1,114.7,32.9,114.7,32.6z
			 M114.9,39.1v-5.2h0.8v5.2H114.9z"/>
		<path d="M116.8,38.4l0.4-0.6c0.3,0.4,1,0.7,1.7,0.7c0.8,0,1.2-0.4,1.2-0.9c0-1.3-3.2-0.5-3.2-2.4c0-0.8,0.7-1.5,1.9-1.5
			c0.9,0,1.5,0.3,1.9,0.8l-0.4,0.6c-0.3-0.4-0.9-0.7-1.5-0.7c-0.7,0-1.1,0.4-1.1,0.8c0,1.1,3.2,0.4,3.2,2.4c0,0.9-0.7,1.6-2,1.6
			C118.1,39.2,117.4,38.9,116.8,38.4z"/>
		<path d="M122,36.5c0-1.5,1-2.7,2.6-2.7c0.9,0,1.5,0.4,1.9,0.9l-0.5,0.5c-0.3-0.5-0.8-0.7-1.3-0.7c-1.1,0-1.8,0.8-1.8,2
			c0,1.1,0.7,2,1.8,2c0.5,0,1-0.2,1.3-0.7l0.5,0.5c-0.4,0.5-1,0.9-1.9,0.9C123,39.2,122,38,122,36.5z"/>
		<path d="M127.3,36.5c0-1.5,1-2.7,2.6-2.7c1.6,0,2.6,1.2,2.6,2.7s-1,2.7-2.6,2.7C128.3,39.2,127.3,38,127.3,36.5z M131.6,36.5
			c0-1.1-0.6-2-1.7-2c-1.1,0-1.7,0.9-1.7,2c0,1.1,0.6,2,1.7,2C130.9,38.5,131.6,37.5,131.6,36.5z"/>
		<path d="M137.2,39.1v-3.4c0-0.9-0.5-1.2-1.2-1.2c-0.6,0-1.2,0.4-1.5,0.8v3.8h-0.8v-5.2h0.8v0.8c0.4-0.4,1.1-0.9,1.8-0.9
			c1.1,0,1.7,0.5,1.7,1.7v3.6H137.2z"/>
		<path d="M143.4,39.1v-0.8c-0.4,0.5-1,0.9-1.7,0.9c-1.4,0-2.3-1-2.3-2.7c0-1.7,0.9-2.7,2.3-2.7c0.7,0,1.3,0.3,1.7,0.9v-2.8h0.8v7.2
			H143.4z M143.4,37.6v-2.3c-0.3-0.5-0.9-0.8-1.6-0.8c-1,0-1.7,0.9-1.7,2c0,1.1,0.6,2,1.7,2C142.5,38.5,143.1,38.1,143.4,37.6z"/>
		<path d="M149.3,39.1v-0.7c-0.4,0.5-1.1,0.9-1.8,0.9c-1.1,0-1.7-0.5-1.7-1.7v-3.7h0.8v3.4c0,0.9,0.5,1.2,1.2,1.2
			c0.6,0,1.2-0.4,1.5-0.8v-3.8h0.8v5.2H149.3z"/>
		<path d="M151.4,36.5c0-1.5,1-2.7,2.6-2.7c0.9,0,1.5,0.4,1.9,0.9l-0.5,0.5c-0.3-0.5-0.8-0.7-1.3-0.7c-1.1,0-1.8,0.8-1.8,2
			c0,1.1,0.7,2,1.8,2c0.5,0,1-0.2,1.3-0.7l0.5,0.5c-0.4,0.5-1,0.9-1.9,0.9C152.4,39.2,151.4,38,151.4,36.5z"/>
		<path d="M157.2,38v-3.4h-0.9v-0.7h0.9v-1.4h0.8v1.4h1.1v0.7H158v3.2c0,0.4,0.2,0.7,0.5,0.7c0.2,0,0.4-0.1,0.5-0.2l0.2,0.6
			c-0.2,0.2-0.5,0.3-1,0.3C157.5,39.2,157.2,38.7,157.2,38z"/>
	</g>
	<g>
		<path d="M447.9,39.1v-0.7c2.6-2,4-3.2,4-4.5c0-0.9-0.8-1.3-1.5-1.3c-0.9,0-1.5,0.4-1.9,0.9l-0.5-0.6c0.5-0.7,1.5-1.1,2.5-1.1
			c1.2,0,2.4,0.7,2.4,2.1c0,1.5-1.5,2.8-3.5,4.4h3.5v0.8H447.9z"/>
	</g>
	<g>
		<path d="M536.1,39.1v-1.8h-3.4v-0.7l3.1-4.6h1.2v4.6h1v0.8h-1v1.8H536.1z M536.1,32.7l-2.5,3.7h2.5V32.7z"/>
		<path d="M538.9,35.5c0-1.7,0.8-3.7,2.7-3.7c2,0,2.7,1.9,2.7,3.7c0,1.7-0.8,3.7-2.7,3.7C539.6,39.2,538.9,37.2,538.9,35.5z
			 M543.4,35.5c0-1.4-0.5-2.9-1.8-2.9s-1.8,1.5-1.8,2.9s0.5,2.9,1.8,2.9S543.4,36.9,543.4,35.5z"/>
		<path d="M545.2,33.6c0-1,0.7-1.8,1.7-1.8c1,0,1.7,0.8,1.7,1.8c0,1-0.7,1.7-1.7,1.7C545.9,35.3,545.2,34.6,545.2,33.6z M548,33.6
			c0-0.7-0.5-1.2-1.1-1.2c-0.6,0-1.1,0.5-1.1,1.2c0,0.7,0.4,1.2,1.1,1.2C547.6,34.8,548,34.2,548,33.6z M546.3,39.1l4.6-7.2h0.6
			l-4.6,7.2H546.3z M548.9,37.4c0-1,0.7-1.8,1.7-1.8c1,0,1.7,0.8,1.7,1.8c0,1-0.7,1.7-1.7,1.7C549.6,39.2,548.9,38.4,548.9,37.4z
			 M551.8,37.4c0-0.7-0.5-1.2-1.1-1.2s-1.1,0.5-1.1,1.2c0,0.7,0.4,1.2,1.1,1.2S551.8,38.1,551.8,37.4z"/>
	</g>
	<g>
		<path d="M24.6,61v-0.7c2.6-2,4-3.2,4-4.5c0-0.9-0.8-1.3-1.5-1.3c-0.9,0-1.5,0.4-1.9,0.9l-0.5-0.6c0.5-0.7,1.5-1.1,2.5-1.1
			c1.2,0,2.4,0.7,2.4,2.1c0,1.5-1.5,2.8-3.5,4.4h3.5V61H24.6z"/>
	</g>
	<g>
		<path d="M56.7,61v-7.2h3.2c1.2,0,2,0.8,2,1.8c0,0.9-0.6,1.5-1.3,1.6c0.8,0.1,1.4,0.9,1.4,1.8c0,1.1-0.8,1.9-2.1,1.9H56.7z
			 M60.9,55.8c0-0.6-0.4-1.2-1.2-1.2h-2.1V57h2.1C60.5,57,60.9,56.5,60.9,55.8z M61.1,59c0-0.7-0.5-1.2-1.3-1.2h-2.2v2.5h2.2
			C60.6,60.2,61.1,59.8,61.1,59z"/>
		<path d="M66.9,61v-0.7c-0.4,0.5-1.1,0.9-1.8,0.9c-1.1,0-1.7-0.5-1.7-1.7v-3.7h0.8v3.4c0,0.9,0.5,1.2,1.2,1.2
			c0.6,0,1.2-0.4,1.5-0.8v-3.8h0.8V61H66.9z"/>
		<path d="M68.8,60.3l0.4-0.6c0.3,0.4,1,0.7,1.7,0.7c0.8,0,1.2-0.4,1.2-0.9c0-1.3-3.2-0.5-3.2-2.4c0-0.8,0.7-1.5,1.9-1.5
			c0.9,0,1.5,0.3,1.9,0.8L72.5,57c-0.3-0.4-0.9-0.7-1.5-0.7c-0.7,0-1.1,0.4-1.1,0.8c0,1.1,3.2,0.4,3.2,2.4c0,0.9-0.7,1.6-2,1.6
			C70.1,61.2,69.4,60.9,68.8,60.3z"/>
		<path d="M74.1,54.6c0-0.3,0.2-0.5,0.5-0.5c0.3,0,0.5,0.2,0.5,0.5c0,0.3-0.2,0.5-0.5,0.5C74.4,55.1,74.1,54.9,74.1,54.6z M74.3,61
			v-5.2h0.8V61H74.3z"/>
		<path d="M80.2,61v-3.4c0-0.9-0.5-1.2-1.2-1.2c-0.6,0-1.2,0.4-1.5,0.8V61h-0.8v-5.2h0.8v0.8c0.4-0.4,1.1-0.9,1.8-0.9
			c1.1,0,1.7,0.5,1.7,1.7V61H80.2z"/>
		<path d="M82.3,58.4c0-1.5,1.1-2.7,2.6-2.7c1.6,0,2.5,1.2,2.5,2.8v0.2h-4.2c0.1,1,0.8,1.8,1.9,1.8c0.6,0,1.2-0.2,1.6-0.7l0.4,0.5
			c-0.5,0.5-1.2,0.8-2.1,0.8C83.4,61.2,82.3,60.1,82.3,58.4z M84.8,56.4c-1.1,0-1.7,0.9-1.7,1.7h3.4C86.5,57.3,86,56.4,84.8,56.4z"
			/>
		<path d="M88.2,60.3l0.4-0.6c0.3,0.4,1,0.7,1.7,0.7c0.8,0,1.2-0.4,1.2-0.9c0-1.3-3.2-0.5-3.2-2.4c0-0.8,0.7-1.5,1.9-1.5
			c0.9,0,1.5,0.3,1.9,0.8L91.8,57c-0.3-0.4-0.9-0.7-1.5-0.7c-0.7,0-1.1,0.4-1.1,0.8c0,1.1,3.2,0.4,3.2,2.4c0,0.9-0.7,1.6-2,1.6
			C89.4,61.2,88.7,60.9,88.2,60.3z"/>
		<path d="M93.2,60.3l0.4-0.6c0.3,0.4,1,0.7,1.7,0.7c0.8,0,1.2-0.4,1.2-0.9c0-1.3-3.2-0.5-3.2-2.4c0-0.8,0.7-1.5,1.9-1.5
			c0.9,0,1.5,0.3,1.9,0.8L96.8,57c-0.3-0.4-0.9-0.7-1.5-0.7c-0.7,0-1.1,0.4-1.1,0.8c0,1.1,3.2,0.4,3.2,2.4c0,0.9-0.7,1.6-2,1.6
			C94.4,61.2,93.7,60.9,93.2,60.3z"/>
		<path d="M101.4,61v-7.2h0.9V61H101.4z"/>
		<path d="M107.4,61v-3.4c0-0.9-0.5-1.2-1.2-1.2c-0.6,0-1.2,0.4-1.5,0.8V61h-0.8v-5.2h0.8v0.8c0.4-0.4,1.1-0.9,1.8-0.9
			c1.1,0,1.7,0.5,1.7,1.7V61H107.4z"/>
		<path d="M110,59.9v-3.4h-0.9v-0.7h0.9v-1.4h0.8v1.4h1.1v0.7h-1.1v3.2c0,0.4,0.2,0.7,0.5,0.7c0.2,0,0.4-0.1,0.5-0.2l0.2,0.6
			c-0.2,0.2-0.5,0.3-1,0.3C110.4,61.2,110,60.7,110,59.9z"/>
		<path d="M112.7,58.4c0-1.5,1.1-2.7,2.6-2.7c1.6,0,2.5,1.2,2.5,2.8v0.2h-4.2c0.1,1,0.8,1.8,1.9,1.8c0.6,0,1.2-0.2,1.6-0.7l0.4,0.5
			c-0.5,0.5-1.2,0.8-2.1,0.8C113.8,61.2,112.7,60.1,112.7,58.4z M115.2,56.4c-1.1,0-1.7,0.9-1.7,1.7h3.4
			C116.9,57.3,116.4,56.4,115.2,56.4z"/>
		<path d="M119,62.4l0.4-0.6c0.4,0.5,0.9,0.7,1.7,0.7c0.9,0,1.7-0.4,1.7-1.6v-0.7c-0.4,0.5-1,0.9-1.7,0.9c-1.4,0-2.3-1-2.3-2.7
			c0-1.7,0.9-2.7,2.3-2.7c0.7,0,1.3,0.3,1.7,0.9v-0.8h0.8v5c0,1.7-1.2,2.3-2.5,2.3C120.2,63.1,119.6,63,119,62.4z M122.8,59.5v-2.3
			c-0.3-0.5-0.9-0.8-1.5-0.8c-1,0-1.7,0.8-1.7,2c0,1.1,0.6,2,1.7,2C121.9,60.4,122.5,60,122.8,59.5z"/>
		<path d="M125.2,61v-5.2h0.8v0.8c0.4-0.5,1-0.9,1.7-0.9v0.8c-0.1,0-0.2,0-0.3,0c-0.5,0-1.2,0.4-1.4,0.8V61H125.2z"/>
		<path d="M128.6,54.6c0-0.3,0.2-0.5,0.5-0.5c0.3,0,0.5,0.2,0.5,0.5c0,0.3-0.2,0.5-0.5,0.5C128.8,55.1,128.6,54.9,128.6,54.6z
			 M128.7,61v-5.2h0.8V61H128.7z"/>
		<path d="M131.3,59.9v-3.4h-0.9v-0.7h0.9v-1.4h0.8v1.4h1.1v0.7h-1.1v3.2c0,0.4,0.2,0.7,0.5,0.7c0.2,0,0.4-0.1,0.5-0.2l0.2,0.6
			c-0.2,0.2-0.5,0.3-1,0.3C131.7,61.2,131.3,60.7,131.3,59.9z"/>
		<path d="M134.1,62.3c0.1,0.1,0.3,0.1,0.4,0.1c0.4,0,0.6-0.1,0.8-0.5l0.3-0.8l-2.2-5.2h0.9l1.7,4.2l1.7-4.2h0.9l-2.6,6.2
			c-0.3,0.8-0.8,1-1.5,1.1c-0.2,0-0.4,0-0.6-0.1L134.1,62.3z"/>
		<path d="M142.3,61v-7.2h3.2c1.2,0,2,0.8,2,1.8c0,0.9-0.6,1.5-1.3,1.6c0.8,0.1,1.4,0.9,1.4,1.8c0,1.1-0.8,1.9-2.1,1.9H142.3z
			 M146.6,55.8c0-0.6-0.4-1.2-1.2-1.2h-2.1V57h2.1C146.2,57,146.6,56.5,146.6,55.8z M146.8,59c0-0.7-0.5-1.2-1.3-1.2h-2.2v2.5h2.2
			C146.3,60.2,146.8,59.8,146.8,59z"/>
		<path d="M149.1,61v-5.2h0.8v0.8c0.4-0.5,1-0.9,1.7-0.9v0.8c-0.1,0-0.2,0-0.3,0c-0.5,0-1.2,0.4-1.4,0.8V61H149.1z"/>
		<path d="M152.3,58.4c0-1.5,1.1-2.7,2.6-2.7c1.6,0,2.5,1.2,2.5,2.8v0.2h-4.2c0.1,1,0.8,1.8,1.9,1.8c0.6,0,1.2-0.2,1.6-0.7l0.4,0.5
			c-0.5,0.5-1.2,0.8-2.1,0.8C153.4,61.2,152.3,60.1,152.3,58.4z M154.8,56.4c-1.1,0-1.7,0.9-1.7,1.7h3.4
			C156.5,57.3,156,56.4,154.8,56.4z"/>
		<path d="M161.9,61v-0.6c-0.4,0.5-1,0.7-1.7,0.7c-0.9,0-1.8-0.6-1.8-1.7c0-1.2,0.9-1.7,1.8-1.7c0.7,0,1.3,0.2,1.7,0.7v-0.9
			c0-0.7-0.6-1.1-1.3-1.1c-0.6,0-1.1,0.2-1.6,0.7l-0.4-0.6c0.6-0.6,1.2-0.9,2.1-0.9c1.1,0,2,0.5,2,1.7V61H161.9z M161.9,59.9v-1
			c-0.3-0.4-0.9-0.6-1.4-0.6c-0.8,0-1.3,0.5-1.3,1.1c0,0.7,0.5,1.1,1.3,1.1C161,60.6,161.6,60.4,161.9,59.9z"/>
		<path d="M164,58.4c0-1.5,1-2.7,2.6-2.7c0.9,0,1.5,0.4,1.9,0.9l-0.5,0.5c-0.3-0.5-0.8-0.7-1.3-0.7c-1.1,0-1.8,0.8-1.8,2
			c0,1.1,0.7,2,1.8,2c0.5,0,1-0.2,1.3-0.7l0.5,0.5c-0.4,0.5-1,0.9-1.9,0.9C165,61.2,164,60,164,58.4z"/>
		<path d="M173.1,61v-3.4c0-0.9-0.5-1.2-1.2-1.2c-0.6,0-1.2,0.4-1.5,0.8V61h-0.8v-7.2h0.8v2.7c0.4-0.4,1.1-0.9,1.9-0.9
			c1.1,0,1.7,0.5,1.7,1.7V61H173.1z"/>
	</g>
	<g>
		<path d="M447.9,61v-0.7c2.6-2,4-3.2,4-4.5c0-0.9-0.8-1.3-1.5-1.3c-0.9,0-1.5,0.4-1.9,0.9l-0.5-0.6c0.5-0.7,1.5-1.1,2.5-1.1
			c1.2,0,2.4,0.7,2.4,2.1c0,1.5-1.5,2.8-3.5,4.4h3.5V61H447.9z"/>
	</g>
	<g>
		<path d="M536.1,61v-1.8h-3.4v-0.7l3.1-4.6h1.2v4.6h1v0.8h-1V61H536.1z M536.1,54.7l-2.5,3.7h2.5V54.7z"/>
		<path d="M538.9,57.5c0-1.7,0.8-3.7,2.7-3.7c2,0,2.7,1.9,2.7,3.7c0,1.7-0.8,3.7-2.7,3.7C539.6,61.2,538.9,59.2,538.9,57.5z
			 M543.4,57.5c0-1.4-0.5-2.9-1.8-2.9s-1.8,1.5-1.8,2.9s0.5,2.9,1.8,2.9S543.4,58.9,543.4,57.5z"/>
		<path d="M545.2,55.6c0-1,0.7-1.8,1.7-1.8c1,0,1.7,0.8,1.7,1.8c0,1-0.7,1.7-1.7,1.7C545.9,57.3,545.2,56.5,545.2,55.6z M548,55.6
			c0-0.7-0.5-1.2-1.1-1.2c-0.6,0-1.1,0.5-1.1,1.2c0,0.7,0.4,1.2,1.1,1.2C547.6,56.8,548,56.2,548,55.6z M546.2,61l4.6-7.2h0.6
			l-4.6,7.2H546.2z M548.9,59.4c0-1,0.7-1.8,1.7-1.8c1,0,1.7,0.8,1.7,1.8c0,1-0.7,1.7-1.7,1.7C549.6,61.2,548.9,60.4,548.9,59.4z
			 M551.7,59.4c0-0.7-0.5-1.2-1.1-1.2s-1.1,0.5-1.1,1.2c0,0.7,0.4,1.2,1.1,1.2S551.7,60.1,551.7,59.4z"/>
	</g>
	<g>
		<path d="M24.5,82l0.5-0.6c0.4,0.6,1.1,0.9,2,0.9c1,0,1.7-0.5,1.7-1.3c0-0.9-0.7-1.3-1.8-1.3c-0.3,0-0.6,0-0.7,0v-0.8
			c0.1,0,0.5,0,0.7,0c0.9,0,1.7-0.4,1.7-1.2c0-0.8-0.7-1.2-1.6-1.2c-0.8,0-1.4,0.3-1.9,0.9l-0.5-0.6c0.5-0.6,1.3-1.1,2.4-1.1
			c1.4,0,2.4,0.7,2.4,1.9c0,1-0.9,1.5-1.5,1.7c0.7,0.1,1.7,0.6,1.7,1.8c0,1.2-1,2.1-2.5,2.1C25.8,83.1,24.9,82.6,24.5,82z"/>
	</g>
	<g>
		<path d="M62.1,83l-1.6-5.8L59,83h-1l-2-7.2h1l1.6,6l1.6-6h0.7l1.6,6l1.6-6h1l-2,7.2H62.1z"/>
		<path d="M65.4,80.4c0-1.5,1-2.7,2.6-2.7c1.6,0,2.6,1.2,2.6,2.7s-1,2.7-2.6,2.7C66.4,83.1,65.4,81.9,65.4,80.4z M69.7,80.4
			c0-1.1-0.6-2-1.7-2c-1.1,0-1.7,0.9-1.7,2c0,1.1,0.6,2,1.7,2C69,82.4,69.7,81.5,69.7,80.4z"/>
		<path d="M71.8,83v-5.2h0.8v0.8c0.4-0.5,1-0.9,1.7-0.9v0.8c-0.1,0-0.2,0-0.3,0c-0.5,0-1.2,0.4-1.4,0.8V83H71.8z"/>
		<path d="M78.9,83L77,80.7l-0.9,0.8V83h-0.8v-7.2h0.8v4.7l2.7-2.8h1l-2.3,2.3l2.3,2.8H78.9z"/>
		<path d="M81.7,82.2V85h-0.8v-7.2h0.8v0.8c0.4-0.5,1-0.9,1.7-0.9c1.4,0,2.3,1,2.3,2.7c0,1.7-0.9,2.7-2.3,2.7
			C82.7,83.1,82.1,82.8,81.7,82.2z M84.9,80.4c0-1.1-0.6-2-1.7-2c-0.6,0-1.3,0.4-1.5,0.8v2.3c0.3,0.5,0.9,0.8,1.5,0.8
			C84.3,82.4,84.9,81.6,84.9,80.4z"/>
		<path d="M87,83v-7.2h0.8V83H87z"/>
		<path d="M92.7,83v-0.6c-0.4,0.5-1,0.7-1.7,0.7c-0.9,0-1.8-0.6-1.8-1.7c0-1.2,0.9-1.7,1.8-1.7c0.7,0,1.3,0.2,1.7,0.7v-0.9
			c0-0.7-0.6-1.1-1.3-1.1c-0.6,0-1.1,0.2-1.6,0.7l-0.4-0.6c0.6-0.6,1.2-0.9,2.1-0.9c1.1,0,2,0.5,2,1.7V83H92.7z M92.7,81.9v-1
			c-0.3-0.4-0.9-0.6-1.4-0.6c-0.8,0-1.3,0.5-1.3,1.1c0,0.7,0.5,1.1,1.3,1.1C91.8,82.6,92.3,82.4,92.7,81.9z"/>
		<path d="M94.8,80.4c0-1.5,1-2.7,2.6-2.7c0.9,0,1.5,0.4,1.9,0.9l-0.5,0.5c-0.3-0.5-0.8-0.7-1.3-0.7c-1.1,0-1.8,0.8-1.8,2
			c0,1.1,0.7,2,1.8,2c0.5,0,1-0.2,1.3-0.7l0.5,0.5c-0.4,0.5-1,0.9-1.9,0.9C95.8,83.1,94.8,82,94.8,80.4z"/>
		<path d="M100.1,80.4c0-1.5,1.1-2.7,2.6-2.7c1.6,0,2.5,1.2,2.5,2.8v0.2h-4.2c0.1,1,0.8,1.8,1.9,1.8c0.6,0,1.2-0.2,1.6-0.7l0.4,0.5
			c-0.5,0.5-1.2,0.8-2.1,0.8C101.2,83.1,100.1,82,100.1,80.4z M102.6,78.4c-1.1,0-1.7,0.9-1.7,1.7h3.4
			C104.3,79.3,103.8,78.4,102.6,78.4z"/>
		<path d="M114.3,83v-3.3h-4.2V83h-0.9v-7.2h0.9v3.1h4.2v-3.1h0.9V83H114.3z"/>
		<path d="M120,83v-0.6c-0.4,0.5-1,0.7-1.7,0.7c-0.9,0-1.8-0.6-1.8-1.7c0-1.2,0.9-1.7,1.8-1.7c0.7,0,1.3,0.2,1.7,0.7v-0.9
			c0-0.7-0.6-1.1-1.3-1.1c-0.6,0-1.1,0.2-1.6,0.7l-0.4-0.6c0.6-0.6,1.2-0.9,2.1-0.9c1.1,0,2,0.5,2,1.7V83H120z M120,81.9v-1
			c-0.3-0.4-0.9-0.6-1.4-0.6c-0.8,0-1.3,0.5-1.3,1.1c0,0.7,0.5,1.1,1.3,1.1C119.2,82.6,119.7,82.4,120,81.9z"/>
		<path d="M122.5,83v-5.2h0.8v0.8c0.4-0.5,1-0.9,1.7-0.9v0.8c-0.1,0-0.2,0-0.3,0c-0.5,0-1.2,0.4-1.4,0.8V83H122.5z"/>
		<path d="M129.2,83v-0.6c-0.4,0.5-1,0.7-1.7,0.7c-0.9,0-1.8-0.6-1.8-1.7c0-1.2,0.9-1.7,1.8-1.7c0.7,0,1.3,0.2,1.7,0.7v-0.9
			c0-0.7-0.6-1.1-1.3-1.1c-0.6,0-1.1,0.2-1.6,0.7l-0.4-0.6c0.6-0.6,1.2-0.9,2.1-0.9c1.1,0,2,0.5,2,1.7V83H129.2z M129.2,81.9v-1
			c-0.3-0.4-0.9-0.6-1.4-0.6c-0.8,0-1.3,0.5-1.3,1.1c0,0.7,0.5,1.1,1.3,1.1C128.4,82.6,128.9,82.4,129.2,81.9z"/>
		<path d="M131.2,82.3l0.4-0.6c0.3,0.4,1,0.7,1.7,0.7c0.8,0,1.2-0.4,1.2-0.9c0-1.3-3.2-0.5-3.2-2.4c0-0.8,0.7-1.5,1.9-1.5
			c0.9,0,1.5,0.3,1.9,0.8l-0.4,0.6c-0.3-0.4-0.9-0.7-1.5-0.7c-0.7,0-1.1,0.4-1.1,0.8c0,1.1,3.2,0.4,3.2,2.4c0,0.9-0.7,1.6-2,1.6
			C132.4,83.1,131.7,82.9,131.2,82.3z"/>
		<path d="M136.2,82.3l0.4-0.6c0.3,0.4,1,0.7,1.7,0.7c0.8,0,1.2-0.4,1.2-0.9c0-1.3-3.2-0.5-3.2-2.4c0-0.8,0.7-1.5,1.9-1.5
			c0.9,0,1.5,0.3,1.9,0.8l-0.4,0.6c-0.3-0.4-0.9-0.7-1.5-0.7c-0.7,0-1.1,0.4-1.1,0.8c0,1.1,3.2,0.4,3.2,2.4c0,0.9-0.7,1.6-2,1.6
			C137.4,83.1,136.7,82.9,136.2,82.3z"/>
		<path d="M147.9,83v-3.5c0-0.7-0.3-1.1-1-1.1c-0.5,0-1.1,0.4-1.4,0.8V83h-0.8v-3.5c0-0.7-0.3-1.1-1-1.1c-0.5,0-1.1,0.4-1.4,0.8V83
			h-0.8v-5.2h0.8v0.8c0.2-0.3,0.9-0.9,1.7-0.9c0.8,0,1.2,0.4,1.4,1c0.3-0.5,1-1,1.7-1c0.9,0,1.4,0.5,1.4,1.6V83H147.9z"/>
		<path d="M150,80.4c0-1.5,1.1-2.7,2.6-2.7c1.6,0,2.5,1.2,2.5,2.8v0.2h-4.2c0.1,1,0.8,1.8,1.9,1.8c0.6,0,1.2-0.2,1.6-0.7l0.4,0.5
			c-0.5,0.5-1.2,0.8-2.1,0.8C151.1,83.1,150,82,150,80.4z M152.5,78.4c-1.1,0-1.7,0.9-1.7,1.7h3.4C154.2,79.3,153.7,78.4,152.5,78.4
			z"/>
		<path d="M159.8,83v-3.4c0-0.9-0.5-1.2-1.2-1.2c-0.6,0-1.2,0.4-1.5,0.8V83h-0.8v-5.2h0.8v0.8c0.4-0.4,1.1-0.9,1.8-0.9
			c1.1,0,1.7,0.5,1.7,1.7V83H159.8z"/>
		<path d="M162.4,81.9v-3.4h-0.9v-0.7h0.9v-1.4h0.8v1.4h1.1v0.7h-1.1v3.2c0,0.4,0.2,0.7,0.5,0.7c0.2,0,0.4-0.1,0.5-0.2l0.2,0.6
			c-0.2,0.2-0.5,0.3-1,0.3C162.8,83.1,162.4,82.7,162.4,81.9z"/>
		<path d="M171.4,83v-0.6c-0.4,0.5-1,0.7-1.7,0.7c-0.9,0-1.8-0.6-1.8-1.7c0-1.2,0.9-1.7,1.8-1.7c0.7,0,1.3,0.2,1.7,0.7v-0.9
			c0-0.7-0.6-1.1-1.3-1.1c-0.6,0-1.1,0.2-1.6,0.7l-0.4-0.6c0.6-0.6,1.2-0.9,2.1-0.9c1.1,0,2,0.5,2,1.7V83H171.4z M171.4,81.9v-1
			c-0.3-0.4-0.9-0.6-1.4-0.6c-0.8,0-1.3,0.5-1.3,1.1c0,0.7,0.5,1.1,1.3,1.1C170.5,82.6,171.1,82.4,171.4,81.9z"/>
		<path d="M177.3,83v-3.4c0-0.9-0.5-1.2-1.2-1.2c-0.6,0-1.2,0.4-1.5,0.8V83h-0.8v-5.2h0.8v0.8c0.4-0.4,1.1-0.9,1.8-0.9
			c1.1,0,1.7,0.5,1.7,1.7V83H177.3z"/>
		<path d="M183.5,83v-0.8c-0.4,0.5-1,0.9-1.7,0.9c-1.4,0-2.3-1-2.3-2.7c0-1.7,0.9-2.7,2.3-2.7c0.7,0,1.3,0.3,1.7,0.9v-2.8h0.8V83
			H183.5z M183.5,81.6v-2.3c-0.3-0.5-0.9-0.8-1.6-0.8c-1,0-1.7,0.9-1.7,2c0,1.1,0.6,2,1.7,2C182.6,82.4,183.2,82.1,183.5,81.6z"/>
		<path d="M188.7,83v-7.2h2.4c2.2,0,3.7,1.6,3.7,3.6c0,2-1.4,3.6-3.7,3.6H188.7z M193.9,79.4c0-1.5-1-2.8-2.7-2.8h-1.6v5.6h1.6
			C192.9,82.2,193.9,81,193.9,79.4z"/>
		<path d="M196,76.6c0-0.3,0.2-0.5,0.5-0.5c0.3,0,0.5,0.2,0.5,0.5c0,0.3-0.2,0.5-0.5,0.5C196.3,77.1,196,76.9,196,76.6z M196.1,83
			v-5.2h0.8V83H196.1z"/>
		<path d="M198.1,82.3l0.4-0.6c0.3,0.4,1,0.7,1.7,0.7c0.8,0,1.2-0.4,1.2-0.9c0-1.3-3.2-0.5-3.2-2.4c0-0.8,0.7-1.5,1.9-1.5
			c0.9,0,1.5,0.3,1.9,0.8l-0.4,0.6c-0.3-0.4-0.9-0.7-1.5-0.7c-0.7,0-1.1,0.4-1.1,0.8c0,1.1,3.2,0.4,3.2,2.4c0,0.9-0.7,1.6-2,1.6
			C199.4,83.1,198.6,82.9,198.1,82.3z"/>
		<path d="M203.2,80.4c0-1.5,1-2.7,2.6-2.7c0.9,0,1.5,0.4,1.9,0.9l-0.5,0.5c-0.3-0.5-0.8-0.7-1.3-0.7c-1.1,0-1.8,0.8-1.8,2
			c0,1.1,0.7,2,1.8,2c0.5,0,1-0.2,1.3-0.7l0.5,0.5c-0.4,0.5-1,0.9-1.9,0.9C204.3,83.1,203.2,82,203.2,80.4z"/>
		<path d="M208.9,83v-5.2h0.8v0.8c0.4-0.5,1-0.9,1.7-0.9v0.8c-0.1,0-0.2,0-0.3,0c-0.5,0-1.2,0.4-1.4,0.8V83H208.9z"/>
		<path d="M212.3,76.6c0-0.3,0.2-0.5,0.5-0.5c0.3,0,0.5,0.2,0.5,0.5c0,0.3-0.2,0.5-0.5,0.5C212.5,77.1,212.3,76.9,212.3,76.6z
			 M212.4,83v-5.2h0.8V83H212.4z"/>
		<path d="M221.1,83v-3.5c0-0.7-0.3-1.1-1-1.1c-0.5,0-1.1,0.4-1.4,0.8V83h-0.8v-3.5c0-0.7-0.3-1.1-1-1.1c-0.5,0-1.1,0.4-1.4,0.8V83
			h-0.8v-5.2h0.8v0.8c0.2-0.3,0.9-0.9,1.7-0.9c0.8,0,1.2,0.4,1.4,1c0.3-0.5,1-1,1.7-1c0.9,0,1.4,0.5,1.4,1.6V83H221.1z"/>
		<path d="M223.3,76.6c0-0.3,0.2-0.5,0.5-0.5c0.3,0,0.5,0.2,0.5,0.5c0,0.3-0.2,0.5-0.5,0.5C223.6,77.1,223.3,76.9,223.3,76.6z
			 M223.5,83v-5.2h0.8V83H223.5z"/>
		<path d="M229.4,83v-3.4c0-0.9-0.5-1.2-1.2-1.2c-0.6,0-1.2,0.4-1.5,0.8V83h-0.8v-5.2h0.8v0.8c0.4-0.4,1.1-0.9,1.8-0.9
			c1.1,0,1.7,0.5,1.7,1.7V83H229.4z"/>
		<path d="M235,83v-0.6c-0.4,0.5-1,0.7-1.7,0.7c-0.9,0-1.8-0.6-1.8-1.7c0-1.2,0.9-1.7,1.8-1.7c0.7,0,1.3,0.2,1.7,0.7v-0.9
			c0-0.7-0.6-1.1-1.3-1.1c-0.6,0-1.1,0.2-1.6,0.7l-0.4-0.6c0.6-0.6,1.2-0.9,2.1-0.9c1.1,0,2,0.5,2,1.7V83H235z M235,81.9v-1
			c-0.3-0.4-0.9-0.6-1.4-0.6c-0.8,0-1.3,0.5-1.3,1.1c0,0.7,0.5,1.1,1.3,1.1C234.2,82.6,234.7,82.4,235,81.9z"/>
		<path d="M237.6,81.9v-3.4h-0.9v-0.7h0.9v-1.4h0.8v1.4h1.1v0.7h-1.1v3.2c0,0.4,0.2,0.7,0.5,0.7c0.2,0,0.4-0.1,0.5-0.2l0.2,0.6
			c-0.2,0.2-0.5,0.3-1,0.3C238,83.1,237.6,82.7,237.6,81.9z"/>
		<path d="M240.5,76.6c0-0.3,0.2-0.5,0.5-0.5c0.3,0,0.5,0.2,0.5,0.5c0,0.3-0.2,0.5-0.5,0.5C240.7,77.1,240.5,76.9,240.5,76.6z
			 M240.6,83v-5.2h0.8V83H240.6z"/>
		<path d="M242.7,80.4c0-1.5,1-2.7,2.6-2.7c1.6,0,2.6,1.2,2.6,2.7s-1,2.7-2.6,2.7C243.7,83.1,242.7,81.9,242.7,80.4z M247,80.4
			c0-1.1-0.6-2-1.7-2c-1.1,0-1.7,0.9-1.7,2c0,1.1,0.6,2,1.7,2C246.4,82.4,247,81.5,247,80.4z"/>
		<path d="M252.6,83v-3.4c0-0.9-0.5-1.2-1.2-1.2c-0.6,0-1.2,0.4-1.5,0.8V83h-0.8v-5.2h0.8v0.8c0.4-0.4,1.1-0.9,1.8-0.9
			c1.1,0,1.7,0.5,1.7,1.7V83H252.6z"/>
	</g>
	<g>
		<path d="M447.7,79.4c0-1.7,0.8-3.7,2.7-3.7c2,0,2.7,1.9,2.7,3.7c0,1.7-0.8,3.7-2.7,3.7C448.5,83.1,447.7,81.2,447.7,79.4z
			 M452.3,79.4c0-1.4-0.5-2.9-1.8-2.9s-1.8,1.5-1.8,2.9s0.5,2.9,1.8,2.9S452.3,80.9,452.3,79.4z"/>
	</g>
	<g>
		<path d="M535.9,79.4c0-1.7,0.8-3.7,2.7-3.7c2,0,2.7,1.9,2.7,3.7c0,1.7-0.8,3.7-2.7,3.7C536.6,83.1,535.9,81.2,535.9,79.4z
			 M540.4,79.4c0-1.4-0.5-2.9-1.8-2.9s-1.8,1.5-1.8,2.9s0.5,2.9,1.8,2.9S540.4,80.9,540.4,79.4z"/>
		<path d="M542.2,77.5c0-1,0.7-1.8,1.7-1.8c1,0,1.7,0.8,1.7,1.8c0,1-0.7,1.7-1.7,1.7C542.9,79.3,542.2,78.5,542.2,77.5z M545,77.5
			c0-0.7-0.5-1.2-1.1-1.2c-0.6,0-1.1,0.5-1.1,1.2c0,0.7,0.4,1.2,1.1,1.2C544.6,78.7,545,78.2,545,77.5z M543.2,83l4.6-7.2h0.6
			l-4.6,7.2H543.2z M545.9,81.4c0-1,0.7-1.8,1.7-1.8c1,0,1.7,0.8,1.7,1.8c0,1-0.7,1.7-1.7,1.7C546.6,83.1,545.9,82.4,545.9,81.4z
			 M548.8,81.4c0-0.7-0.5-1.2-1.1-1.2s-1.1,0.5-1.1,1.2c0,0.7,0.4,1.2,1.1,1.2S548.8,82.1,548.8,81.4z"/>
	</g>
	<g>
		<path d="M27.9,105v-1.8h-3.4v-0.7l3.1-4.6h1.2v4.6h1v0.8h-1v1.8H27.9z M27.9,98.7l-2.5,3.7h2.5V98.7z"/>
	</g>
	<g>
		<path d="M61.7,105v-3.3h-4.2v3.3h-0.9v-7.2h0.9v3.1h4.2v-3.1h0.9v7.2H61.7z"/>
		<path d="M63.9,104l0.5-0.7c0.5,0.5,1.2,1,2.3,1c1.3,0,1.7-0.7,1.7-1.2c0-1.8-4.2-0.8-4.2-3.4c0-1.2,1.1-2,2.5-2
			c1.1,0,1.9,0.4,2.5,1l-0.5,0.7c-0.5-0.6-1.3-0.9-2.1-0.9c-0.9,0-1.5,0.5-1.5,1.1c0,1.6,4.2,0.7,4.2,3.4c0,1-0.7,2.1-2.6,2.1
			C65.4,105.1,64.5,104.7,63.9,104z"/>
		<path d="M70.6,105v-7.2h4.7v0.8h-3.8v2.3h3.7v0.8h-3.7v2.5h3.8v0.8H70.6z"/>
		<path d="M79.4,105v-7.2h3.2c1.2,0,2,0.8,2,1.8c0,0.9-0.6,1.5-1.3,1.6c0.8,0.1,1.4,0.9,1.4,1.8c0,1.1-0.8,1.9-2.1,1.9H79.4z
			 M83.7,99.8c0-0.6-0.4-1.2-1.2-1.2h-2.1v2.3h2.1C83.3,100.9,83.7,100.4,83.7,99.8z M83.9,103c0-0.7-0.5-1.2-1.3-1.2h-2.2v2.5h2.2
			C83.4,104.2,83.9,103.7,83.9,103z"/>
		<path d="M86.2,105v-5.2H87v0.8c0.4-0.5,1-0.9,1.7-0.9v0.8c-0.1,0-0.2,0-0.3,0c-0.5,0-1.2,0.4-1.4,0.8v3.7H86.2z"/>
		<path d="M89.4,102.4c0-1.5,1.1-2.7,2.6-2.7c1.6,0,2.5,1.2,2.5,2.8v0.2h-4.2c0.1,1,0.8,1.8,1.9,1.8c0.6,0,1.2-0.2,1.6-0.7l0.4,0.5
			c-0.5,0.5-1.2,0.8-2.1,0.8C90.5,105.1,89.4,104,89.4,102.4z M91.9,100.4c-1.1,0-1.7,0.9-1.7,1.7h3.4
			C93.6,101.3,93.1,100.4,91.9,100.4z"/>
		<path d="M99,105v-0.6c-0.4,0.5-1,0.7-1.7,0.7c-0.9,0-1.8-0.6-1.8-1.7c0-1.2,0.9-1.7,1.8-1.7c0.7,0,1.3,0.2,1.7,0.7v-0.9
			c0-0.7-0.6-1.1-1.3-1.1c-0.6,0-1.1,0.2-1.6,0.7l-0.4-0.6c0.6-0.6,1.2-0.9,2.1-0.9c1.1,0,2,0.5,2,1.7v3.6H99z M99,103.9v-1
			c-0.3-0.4-0.9-0.6-1.4-0.6c-0.8,0-1.3,0.5-1.3,1.1c0,0.7,0.5,1.1,1.3,1.1C98.1,104.5,98.7,104.3,99,103.9z"/>
		<path d="M101.1,102.4c0-1.5,1-2.7,2.6-2.7c0.9,0,1.5,0.4,1.9,0.9l-0.5,0.5c-0.3-0.5-0.8-0.7-1.3-0.7c-1.1,0-1.8,0.8-1.8,2
			c0,1.1,0.7,2,1.8,2c0.5,0,1-0.2,1.3-0.7l0.5,0.5c-0.4,0.5-1,0.9-1.9,0.9C102.1,105.1,101.1,103.9,101.1,102.4z"/>
		<path d="M110.2,105v-3.4c0-0.9-0.5-1.2-1.2-1.2c-0.6,0-1.2,0.4-1.5,0.8v3.8h-0.8v-7.2h0.8v2.7c0.4-0.4,1.1-0.9,1.9-0.9
			c1.1,0,1.7,0.5,1.7,1.7v3.7H110.2z"/>
	</g>
	<g>
		<path d="M447.7,101.4c0-1.7,0.8-3.7,2.7-3.7c2,0,2.7,1.9,2.7,3.7c0,1.7-0.8,3.7-2.7,3.7C448.5,105.1,447.7,103.2,447.7,101.4z
			 M452.3,101.4c0-1.4-0.5-2.9-1.8-2.9s-1.8,1.5-1.8,2.9s0.5,2.9,1.8,2.9S452.3,102.9,452.3,101.4z"/>
	</g>
	<g>
		<path d="M535.8,101.4c0-1.7,0.8-3.7,2.7-3.7c2,0,2.7,1.9,2.7,3.7c0,1.7-0.8,3.7-2.7,3.7C536.6,105.1,535.8,103.2,535.8,101.4z
			 M540.4,101.4c0-1.4-0.5-2.9-1.8-2.9s-1.8,1.5-1.8,2.9s0.5,2.9,1.8,2.9S540.4,102.9,540.4,101.4z"/>
		<path d="M542.2,99.5c0-1,0.7-1.8,1.7-1.8c1,0,1.7,0.8,1.7,1.8c0,1-0.7,1.7-1.7,1.7C542.9,101.3,542.2,100.5,542.2,99.5z M545,99.5
			c0-0.7-0.5-1.2-1.1-1.2c-0.6,0-1.1,0.5-1.1,1.2c0,0.7,0.4,1.2,1.1,1.2C544.6,100.7,545,100.2,545,99.5z M543.2,105l4.6-7.2h0.6
			l-4.6,7.2H543.2z M545.9,103.4c0-1,0.7-1.8,1.7-1.8c1,0,1.7,0.8,1.7,1.8c0,1-0.7,1.7-1.7,1.7C546.6,105.1,545.9,104.4,545.9,103.4
			z M548.7,103.4c0-0.7-0.5-1.2-1.1-1.2s-1.1,0.5-1.1,1.2c0,0.7,0.4,1.2,1.1,1.2S548.7,104.1,548.7,103.4z"/>
	</g>
	<g>
		<path d="M24.7,126l0.5-0.6c0.5,0.6,1.1,0.9,2,0.9c1,0,1.7-0.7,1.7-1.5c0-0.9-0.7-1.5-1.6-1.5c-0.6,0-1.2,0.2-1.7,0.7l-0.7-0.2
			v-3.9h4.4v0.8h-3.5v2.5c0.3-0.3,1-0.6,1.7-0.6c1.2,0,2.3,0.8,2.3,2.3c0,1.5-1.1,2.4-2.5,2.4C26,127.1,25.2,126.7,24.7,126z"/>
	</g>
	<g>
		<path d="M56.7,127v-7.2h2.4c2.2,0,3.7,1.6,3.7,3.6c0,2-1.4,3.6-3.7,3.6H56.7z M61.8,123.4c0-1.5-1-2.8-2.7-2.8h-1.6v5.6h1.6
			C60.8,126.2,61.8,124.9,61.8,123.4z"/>
		<path d="M67.4,127v-0.6c-0.4,0.5-1,0.7-1.7,0.7c-0.9,0-1.8-0.6-1.8-1.7c0-1.2,0.9-1.7,1.8-1.7c0.7,0,1.3,0.2,1.7,0.7v-0.9
			c0-0.7-0.6-1.1-1.3-1.1c-0.6,0-1.1,0.2-1.6,0.7l-0.4-0.6c0.6-0.6,1.2-0.9,2.1-0.9c1.1,0,2,0.5,2,1.7v3.6H67.4z M67.4,125.9v-1
			c-0.3-0.4-0.9-0.6-1.4-0.6c-0.8,0-1.3,0.5-1.3,1.1c0,0.7,0.5,1.1,1.3,1.1C66.5,126.5,67.1,126.3,67.4,125.9z"/>
		<path d="M69.9,125.9v-3.4h-0.9v-0.7h0.9v-1.4h0.8v1.4h1.1v0.7h-1.1v3.2c0,0.4,0.2,0.7,0.5,0.7c0.2,0,0.4-0.1,0.5-0.2l0.2,0.6
			c-0.2,0.2-0.5,0.3-1,0.3C70.3,127.1,69.9,126.7,69.9,125.9z"/>
		<path d="M76.2,127v-0.6c-0.4,0.5-1,0.7-1.7,0.7c-0.9,0-1.8-0.6-1.8-1.7c0-1.2,0.9-1.7,1.8-1.7c0.7,0,1.3,0.2,1.7,0.7v-0.9
			c0-0.7-0.6-1.1-1.3-1.1c-0.6,0-1.1,0.2-1.6,0.7l-0.4-0.6c0.6-0.6,1.2-0.9,2.1-0.9c1.1,0,2,0.5,2,1.7v3.6H76.2z M76.2,125.9v-1
			c-0.3-0.4-0.9-0.6-1.4-0.6c-0.8,0-1.3,0.5-1.3,1.1c0,0.7,0.5,1.1,1.3,1.1C75.3,126.5,75.9,126.3,76.2,125.9z"/>
		<path d="M84.6,127v-0.6c-0.4,0.5-1,0.7-1.7,0.7c-0.9,0-1.8-0.6-1.8-1.7c0-1.2,0.9-1.7,1.8-1.7c0.7,0,1.3,0.2,1.7,0.7v-0.9
			c0-0.7-0.6-1.1-1.3-1.1c-0.6,0-1.1,0.2-1.6,0.7l-0.4-0.6c0.6-0.6,1.2-0.9,2.1-0.9c1.1,0,2,0.5,2,1.7v3.6H84.6z M84.6,125.9v-1
			c-0.3-0.4-0.9-0.6-1.4-0.6c-0.8,0-1.3,0.5-1.3,1.1c0,0.7,0.5,1.1,1.3,1.1C83.7,126.5,84.3,126.3,84.6,125.9z"/>
		<path d="M90.5,127v-3.4c0-0.9-0.5-1.2-1.2-1.2c-0.6,0-1.2,0.4-1.5,0.8v3.8H87v-5.2h0.8v0.8c0.4-0.4,1.1-0.9,1.8-0.9
			c1.1,0,1.7,0.5,1.7,1.7v3.6H90.5z"/>
		<path d="M96.7,127v-0.8c-0.4,0.5-1,0.9-1.7,0.9c-1.4,0-2.3-1-2.3-2.7c0-1.7,0.9-2.7,2.3-2.7c0.7,0,1.3,0.3,1.7,0.9v-2.8h0.8v7.2
			H96.7z M96.7,125.6v-2.3c-0.3-0.5-0.9-0.8-1.6-0.8c-1,0-1.7,0.9-1.7,2c0,1.1,0.6,2,1.7,2C95.7,126.4,96.4,126,96.7,125.6z"/>
		<path d="M101.9,127v-7.2h2.9c1.4,0,2.2,1,2.2,2.2c0,1.2-0.8,2.2-2.2,2.2h-2v2.8H101.9z M106.1,122c0-0.8-0.6-1.4-1.4-1.4h-1.9v2.7
			h1.9C105.5,123.3,106.1,122.8,106.1,122z"/>
		<path d="M108.1,127v-5.2h0.8v0.8c0.4-0.5,1-0.9,1.7-0.9v0.8c-0.1,0-0.2,0-0.3,0c-0.5,0-1.2,0.4-1.4,0.8v3.7H108.1z"/>
		<path d="M111.5,120.5c0-0.3,0.2-0.5,0.5-0.5c0.3,0,0.5,0.2,0.5,0.5c0,0.3-0.2,0.5-0.5,0.5C111.8,121.1,111.5,120.8,111.5,120.5z
			 M111.7,127v-5.2h0.8v5.2H111.7z"/>
		<path d="M115.5,127l-2.2-5.2h0.9l1.7,4.2l1.7-4.2h0.9l-2.2,5.2H115.5z"/>
		<path d="M122.6,127v-0.6c-0.4,0.5-1,0.7-1.7,0.7c-0.9,0-1.8-0.6-1.8-1.7c0-1.2,0.9-1.7,1.8-1.7c0.7,0,1.3,0.2,1.7,0.7v-0.9
			c0-0.7-0.6-1.1-1.3-1.1c-0.6,0-1.1,0.2-1.6,0.7l-0.4-0.6c0.6-0.6,1.2-0.9,2.1-0.9c1.1,0,2,0.5,2,1.7v3.6H122.6z M122.6,125.9v-1
			c-0.3-0.4-0.9-0.6-1.4-0.6c-0.8,0-1.3,0.5-1.3,1.1c0,0.7,0.5,1.1,1.3,1.1C121.7,126.5,122.3,126.3,122.6,125.9z"/>
		<path d="M124.7,124.4c0-1.5,1-2.7,2.6-2.7c0.9,0,1.5,0.4,1.9,0.9l-0.5,0.5c-0.3-0.5-0.8-0.7-1.3-0.7c-1.1,0-1.8,0.8-1.8,2
			c0,1.1,0.7,2,1.8,2c0.5,0,1-0.2,1.3-0.7l0.5,0.5c-0.4,0.5-1,0.9-1.9,0.9C125.7,127.1,124.7,125.9,124.7,124.4z"/>
		<path d="M130.1,128.3c0.1,0.1,0.3,0.1,0.4,0.1c0.4,0,0.6-0.1,0.8-0.5l0.3-0.8l-2.2-5.2h0.9l1.7,4.2l1.7-4.2h0.9l-2.6,6.2
			c-0.3,0.8-0.8,1-1.5,1.1c-0.2,0-0.4,0-0.6-0.1L130.1,128.3z"/>
		<path d="M138.3,127v-7.2h3.2c1.2,0,2,0.8,2,1.8c0,0.9-0.6,1.5-1.3,1.6c0.8,0.1,1.4,0.9,1.4,1.8c0,1.1-0.8,1.9-2.1,1.9H138.3z
			 M142.6,121.8c0-0.6-0.4-1.2-1.2-1.2h-2.1v2.3h2.1C142.2,122.9,142.6,122.4,142.6,121.8z M142.8,125c0-0.7-0.5-1.2-1.3-1.2h-2.2
			v2.5h2.2C142.3,126.2,142.8,125.7,142.8,125z"/>
		<path d="M145.1,127v-5.2h0.8v0.8c0.4-0.5,1-0.9,1.7-0.9v0.8c-0.1,0-0.2,0-0.3,0c-0.5,0-1.2,0.4-1.4,0.8v3.7H145.1z"/>
		<path d="M148.3,124.4c0-1.5,1.1-2.7,2.6-2.7c1.6,0,2.5,1.2,2.5,2.8v0.2h-4.2c0.1,1,0.8,1.8,1.9,1.8c0.6,0,1.2-0.2,1.6-0.7l0.4,0.5
			c-0.5,0.5-1.2,0.8-2.1,0.8C149.4,127.1,148.3,126,148.3,124.4z M150.8,122.3c-1.1,0-1.7,0.9-1.7,1.7h3.4
			C152.5,123.3,152,122.3,150.8,122.3z"/>
		<path d="M157.9,127v-0.6c-0.4,0.5-1,0.7-1.7,0.7c-0.9,0-1.8-0.6-1.8-1.7c0-1.2,0.9-1.7,1.8-1.7c0.7,0,1.3,0.2,1.7,0.7v-0.9
			c0-0.7-0.6-1.1-1.3-1.1c-0.6,0-1.1,0.2-1.6,0.7l-0.4-0.6c0.6-0.6,1.2-0.9,2.1-0.9c1.1,0,2,0.5,2,1.7v3.6H157.9z M157.9,125.9v-1
			c-0.3-0.4-0.9-0.6-1.4-0.6c-0.8,0-1.3,0.5-1.3,1.1c0,0.7,0.5,1.1,1.3,1.1C157,126.5,157.6,126.3,157.9,125.9z"/>
		<path d="M160,124.4c0-1.5,1-2.7,2.6-2.7c0.9,0,1.5,0.4,1.9,0.9l-0.5,0.5c-0.3-0.5-0.8-0.7-1.3-0.7c-1.1,0-1.8,0.8-1.8,2
			c0,1.1,0.7,2,1.8,2c0.5,0,1-0.2,1.3-0.7l0.5,0.5c-0.4,0.5-1,0.9-1.9,0.9C161,127.1,160,125.9,160,124.4z"/>
		<path d="M169.1,127v-3.4c0-0.9-0.5-1.2-1.2-1.2c-0.6,0-1.2,0.4-1.5,0.8v3.8h-0.8v-7.2h0.8v2.7c0.4-0.4,1.1-0.9,1.9-0.9
			c1.1,0,1.7,0.5,1.7,1.7v3.7H169.1z"/>
	</g>
	<g>
		<path d="M447.7,123.4c0-1.7,0.8-3.7,2.7-3.7c2,0,2.7,1.9,2.7,3.7c0,1.7-0.8,3.7-2.7,3.7C448.5,127.1,447.7,125.1,447.7,123.4z
			 M452.3,123.4c0-1.4-0.5-2.9-1.8-2.9s-1.8,1.5-1.8,2.9s0.5,2.9,1.8,2.9S452.3,124.8,452.3,123.4z"/>
	</g>
	<g>
		<path d="M535.8,123.4c0-1.7,0.8-3.7,2.7-3.7c2,0,2.7,1.9,2.7,3.7c0,1.7-0.8,3.7-2.7,3.7C536.6,127.1,535.8,125.1,535.8,123.4z
			 M540.4,123.4c0-1.4-0.5-2.9-1.8-2.9s-1.8,1.5-1.8,2.9s0.5,2.9,1.8,2.9S540.4,124.8,540.4,123.4z"/>
		<path d="M542.2,121.5c0-1,0.7-1.8,1.7-1.8c1,0,1.7,0.8,1.7,1.8c0,1-0.7,1.7-1.7,1.7C542.9,123.2,542.2,122.5,542.2,121.5z
			 M545,121.5c0-0.7-0.5-1.2-1.1-1.2c-0.6,0-1.1,0.5-1.1,1.2c0,0.7,0.4,1.2,1.1,1.2C544.5,122.7,545,122.2,545,121.5z M543.2,127
			l4.6-7.2h0.6l-4.6,7.2H543.2z M545.9,125.4c0-1,0.7-1.8,1.7-1.8c1,0,1.7,0.8,1.7,1.8c0,1-0.7,1.7-1.7,1.7
			C546.6,127.1,545.9,126.4,545.9,125.4z M548.7,125.4c0-0.7-0.5-1.2-1.1-1.2s-1.1,0.5-1.1,1.2c0,0.7,0.4,1.2,1.1,1.2
			S548.7,126,548.7,125.4z"/>
	</g>
	<g>
		<path d="M24.5,145.4c0-1.9,0.9-3.7,2.9-3.7c0.9,0,1.5,0.4,2,0.9l-0.5,0.7c-0.4-0.4-0.8-0.7-1.5-0.7c-1.4,0-2,1.4-2,2.8
			c0,0.1,0,0.2,0,0.3c0.3-0.5,1.1-1.1,2-1.1c1.3,0,2.3,0.8,2.3,2.3c0,1.2-0.9,2.3-2.5,2.3C25.2,149.1,24.5,147.3,24.5,145.4z
			 M28.8,146.8c0-1.1-0.7-1.5-1.7-1.5c-0.7,0-1.4,0.4-1.8,1.1c0.1,0.9,0.6,2,1.8,2C28.3,148.3,28.8,147.5,28.8,146.8z"/>
	</g>
	<g>
		<path d="M56.4,145.4c0-2.1,1.4-3.7,3.6-3.7c2.1,0,3.6,1.6,3.6,3.7s-1.4,3.7-3.6,3.7C57.8,149.1,56.4,147.5,56.4,145.4z
			 M62.5,145.4c0-1.7-1-2.9-2.6-2.9c-1.6,0-2.6,1.2-2.6,2.9c0,1.7,1,2.9,2.6,2.9C61.5,148.3,62.5,147.1,62.5,145.4z"/>
		<path d="M65,147.9v-3.4h-0.9v-0.7H65v-1.4h0.8v1.4h1.1v0.7h-1.1v3.2c0,0.4,0.2,0.7,0.5,0.7c0.2,0,0.4-0.1,0.5-0.2l0.2,0.6
			c-0.2,0.2-0.5,0.3-1,0.3C65.4,149.1,65,148.6,65,147.9z"/>
		<path d="M71.5,149v-3.4c0-0.9-0.5-1.2-1.2-1.2c-0.6,0-1.2,0.4-1.5,0.8v3.8H68v-7.2h0.8v2.7c0.4-0.4,1.1-0.9,1.9-0.9
			c1.1,0,1.7,0.5,1.7,1.7v3.7H71.5z"/>
		<path d="M73.6,146.4c0-1.5,1.1-2.7,2.6-2.7c1.6,0,2.5,1.2,2.5,2.8v0.2h-4.2c0.1,1,0.8,1.8,1.9,1.8c0.6,0,1.2-0.2,1.6-0.7l0.4,0.5
			c-0.5,0.5-1.2,0.8-2.1,0.8C74.7,149.1,73.6,148,73.6,146.4z M76.1,144.3c-1.1,0-1.7,0.9-1.7,1.7h3.4
			C77.8,145.3,77.3,144.3,76.1,144.3z"/>
		<path d="M79.9,149v-5.2h0.8v0.8c0.4-0.5,1-0.9,1.7-0.9v0.8c-0.1,0-0.2,0-0.3,0c-0.5,0-1.2,0.4-1.4,0.8v3.7H79.9z"/>
		<path d="M83,148.3l0.4-0.6c0.3,0.4,1,0.7,1.7,0.7c0.8,0,1.2-0.4,1.2-0.9c0-1.3-3.2-0.5-3.2-2.4c0-0.8,0.7-1.5,1.9-1.5
			c0.9,0,1.5,0.3,1.9,0.8l-0.4,0.6c-0.3-0.4-0.9-0.7-1.5-0.7c-0.7,0-1.1,0.4-1.1,0.8c0,1.1,3.2,0.4,3.2,2.4c0,0.9-0.7,1.6-2,1.6
			C84.3,149.1,83.5,148.8,83,148.3z"/>
	</g>
	<g>
		<path d="M450.5,149v-6l-1.1,1.2l-0.5-0.5l1.8-1.8h0.8v7.2H450.5z"/>
	</g>
	<g>
		<path d="M532.7,149v-0.7c2.6-2,4-3.2,4-4.5c0-0.9-0.8-1.3-1.5-1.3c-0.9,0-1.5,0.4-1.9,0.9l-0.5-0.6c0.5-0.7,1.5-1.1,2.5-1.1
			c1.2,0,2.4,0.7,2.4,2.1c0,1.5-1.5,2.8-3.5,4.4h3.5v0.8H532.7z"/>
		<path d="M539,145.4c0-1.7,0.8-3.7,2.7-3.7c2,0,2.7,1.9,2.7,3.7c0,1.7-0.8,3.7-2.7,3.7C539.8,149.1,539,147.1,539,145.4z
			 M543.6,145.4c0-1.4-0.5-2.9-1.8-2.9s-1.8,1.5-1.8,2.9s0.5,2.9,1.8,2.9S543.6,146.8,543.6,145.4z"/>
		<path d="M545.4,143.5c0-1,0.7-1.8,1.7-1.8c1,0,1.7,0.8,1.7,1.8c0,1-0.7,1.7-1.7,1.7C546,145.2,545.4,144.5,545.4,143.5z
			 M548.2,143.5c0-0.7-0.5-1.2-1.1-1.2c-0.6,0-1.1,0.5-1.1,1.2c0,0.7,0.4,1.2,1.1,1.2C547.7,144.7,548.2,144.2,548.2,143.5z
			 M546.4,149l4.6-7.2h0.6L547,149H546.4z M549.1,147.3c0-1,0.7-1.8,1.7-1.8c1,0,1.7,0.8,1.7,1.8c0,1-0.7,1.7-1.7,1.7
			C549.8,149.1,549.1,148.3,549.1,147.3z M551.9,147.3c0-0.7-0.5-1.2-1.1-1.2s-1.1,0.5-1.1,1.2c0,0.7,0.4,1.2,1.1,1.2
			S551.9,148,551.9,147.3z"/>
	</g>
</g>
</svg>
