<?xml version="1.0" encoding="utf-8"?>
<!-- Generator: Adobe Illustrator 26.4.0, SVG Export Plug-In . SVG Version: 6.00 Build 0)  -->
<svg version="1.1" id="Layer_1" xmlns="http://www.w3.org/2000/svg" xmlns:xlink="http://www.w3.org/1999/xlink" x="0px" y="0px"
	 viewBox="0 0 1000 293.6" style="enable-background:new 0 0 1000 293.6;" xml:space="preserve">
<style type="text/css">
	.st0{fill:#34454F;}
	.st1{clip-path:url(#SVGID_00000145053307433988684480000003738368346435536287_);fill:#73BF44;}
	.st2{fill:#0EBFF1;}
</style>
<path class="st0" d="M0,15v175.5c0,57,46.2,103.1,103.1,103.1H1000V118.2c0-57-46.2-103.1-103.1-103.1H0z"/>
<g>
	<defs>
		<path id="SVGID_1_" d="M0,15v175.5c0,57,46.2,103.1,103.1,103.1H1000V118.2c0-57-46.2-103.1-103.1-103.1H0z"/>
	</defs>
	<clipPath id="SVGID_00000060718299048883765400000003207178084016160187_">
		<use xlink:href="#SVGID_1_"  style="overflow:visible;"/>
	</clipPath>
	<path style="clip-path:url(#SVGID_00000060718299048883765400000003207178084016160187_);fill:#73BF44;" d="M111.7,141.6
		c-3,0-5.9,0.3-8.7,0.8c-21.2,3.9-41.8,15.6-63.3,35.8c-19.6,18.5-37.9,41.9-56.4,66.4l0.5,0.3c40-52.6,74.2-93.6,119.3-101.9
		c16.6-3,37.3,3.1,59.6,17.8c21.2,13.9,42.3,34.6,59.6,58.3c33,45.3,59.1,94.5,84.3,142.1c23.1,43.6,45,84.8,69.5,117.4
		c27.4,36.4,54.5,57.3,85.4,65.8c16.1,4.3,32.1,2.5,48.8-5.7c15-7.3,30.3-19.6,46.9-37.6c30.9-33.6,61.5-82,93.9-133.3
		c16.1-25.4,32.7-51.7,49.8-77c31.9-46.9,80-100.2,119.4-109.4c45.3-10.4,84.1,17.7,119.2,49.7c17.3,15.7,33.8,32.6,49.7,49
		c23.2,23.8,45.1,46.3,69.8,65.9c37.1,29.4,84.1,46.1,119.8,42.4c40.3-4.2,71.9-20.6,102.4-36.4c40.9-21.2,79.5-41.2,136.6-33.5
		c43.7,6,79.6,31.9,117.7,59.2c36.7,26.4,74.7,53.7,121.3,63.1c36.3,7.2,83.3-10.6,119.8-45.5c31.9-30.5,59.3-68.2,88.3-108
		c10.1-13.9,20.6-28.3,31.3-42.4l-0.5-0.3c-10.7,14.1-21.2,28.5-31.3,42.4c-29,39.8-56.4,77.5-88.2,108
		c-36.3,34.7-83.1,52.5-119.2,45.3c-46.5-9.4-84.4-36.7-121.1-63c-38.1-27.4-74.2-53.3-118-59.3c-57.3-7.7-96,12.3-137,33.5
		c-30.5,15.8-62,32.1-102.2,36.3c-35.5,3.6-82.3-13-119.3-42.3c-24.6-19.6-46.6-42.1-69.8-65.9c-15.9-16.4-32.4-33.3-49.8-49
		c-22.3-20.2-39.9-33-57.2-41.2c-21.7-10.5-42.2-13.3-62.7-8.6c-17.3,4-38.1,17.2-60.2,38.2c-20,19-40.6,43.7-59.5,71.4
		c-17.2,25.2-33.8,51.6-49.8,77c-32.4,51.3-62.9,99.7-93.8,133.2c-34.6,37.6-64.8,51.3-95.1,43.2c-67.3-18.5-107.8-94.7-154.6-182.9
		c-25.2-47.6-51.4-96.8-84.3-142.2c-17.3-23.8-38.5-44.5-59.7-58.4C144.4,148,126.8,141.6,111.7,141.6"/>
	<path style="clip-path:url(#SVGID_00000060718299048883765400000003207178084016160187_);fill:#73BF44;" d="M116.8,152.6
		c-2.9,0-5.7,0.2-8.4,0.7C86.3,157,65.7,167.8,43.5,187c-19.9,17.2-38.8,39.5-58,62.7l0.5,0.3c41.1-49.7,76.3-88.3,122.5-96.2
		c32.8-5.7,81.4,24.3,118.3,72.9c32.1,43.4,57.5,90.5,82.1,136c46,85,85.6,158.3,151.5,175.8c15.8,3.8,31.4,1.8,47.7-6.2
		c14.6-7.2,29.6-19.1,45.8-36.5c30.2-32.4,60.1-79,91.8-128.3c16.6-25.8,33.7-52.4,51.5-78c18.7-27,39.1-50.9,58.9-69.2
		c21.8-20.2,42.4-33,59.5-36.8c45.1-10,85.2,19,118.6,48.7c17.3,15.1,33.7,31.3,49.6,47.1c24.2,23.9,47,46.6,73.1,65.9
		c36.9,28.4,83.5,44.3,118.8,40.4c39.5-4.3,70.4-20.4,100.4-35.9c39.9-20.7,77.6-40.3,133.1-33.3c43.1,5,78.6,29.2,116.2,54.8
		c36.3,24.7,73.8,50.3,120.1,58.8c35.9,6.5,82.6-10.9,118.8-44.4c31.6-29.4,58.9-65.5,87.8-103.7c10.1-13.3,20.5-27.1,31.1-40.6
		l-0.5-0.3c-10.6,13.5-21,27.3-31.1,40.6c-28.9,38.2-56.2,74.3-87.8,103.7c-36.1,33.4-82.5,50.8-118.3,44.3
		c-46.1-8.5-83.6-34-119.9-58.7c-37.6-25.6-73.2-49.9-116.5-54.9c-7.9-1-15.4-1.5-22.6-1.5c-43.8,0-76.5,17-110.9,34.9
		c-29.9,15.5-60.8,31.6-100.1,35.9c-35.1,3.9-81.6-11.9-118.3-40.2c-26-19.3-48.9-41.9-73.1-65.9c-15.9-15.7-32.3-32-49.6-47.1
		c-22.2-19.7-39.7-32.2-56.9-40.3c-21.6-10.2-42-13-62.3-8.5c-17.2,3.9-37.9,16.6-59.8,36.9c-19.8,18.4-40.2,42.3-58.9,69.3
		c-17.8,25.6-34.9,52.2-51.5,78c-31.6,49.3-61.5,95.8-91.7,128.2c-33.7,36.2-63.2,49.7-92.8,42.5c-65.6-17.4-105.3-90.6-151.2-175.5
		c-24.6-45.5-50.1-92.6-82.2-136.1C193.3,181.6,149.3,152.6,116.8,152.6"/>
	<path style="clip-path:url(#SVGID_00000060718299048883765400000003207178084016160187_);fill:#73BF44;" d="M122.2,163.5
		c-2.9,0-5.8,0.2-8.5,0.7c-22.7,3.5-43.9,13.6-66.6,31.6c-20.2,16-38.9,36.2-59.5,59l0.5,0.3c43.7-48.3,78.2-83.1,125.7-90.4
		c32.4-5.4,80.7,23.2,117.3,69.6c31.1,41.5,55.9,86.4,79.9,129.9c45,81.6,84,152,148.1,168.4c29.2,6.3,58.2-7.1,91.2-42.1
		c29.5-31.2,58.7-75.9,89.6-123.3c17-26.1,34.7-53.1,53.1-78.9c18.6-26.2,38.8-49.4,58.3-67.2c21.6-19.6,42.1-31.9,59.1-35.6
		c44.8-9.6,84.8,18.7,118,47.6c17.3,14.5,33.7,30.2,49.6,45.3c25.1,24,48.9,46.6,76.3,65.6c18.1,13.5,38.7,24.3,59.5,31.1
		c20.9,6.8,41.1,9.3,58.3,7.2c38.6-4.3,69-20.1,98.3-35.4c39-20.3,75.7-39.5,129.6-33.2c42.6,4,77.7,26.5,114.8,50.4
		c35.8,23,72.9,46.9,118.8,54.5c17.4,2.8,37.5,0.3,58.2-7.2c21.1-7.7,41.7-20.2,59.6-36.2c31.4-28.3,58.6-62.8,87.3-99.4
		c10-12.7,20.4-25.9,31-38.8l-0.5-0.3c-10.6,12.9-20.9,26.1-31,38.8c-28.8,36.6-55.9,71.1-87.3,99.3
		c-35.9,32.1-81.9,49.1-117.3,43.3c-45.8-7.5-82.8-31.3-118.6-54.4c-37.2-23.9-72.3-46.5-115-50.5c-7.1-0.8-14-1.2-20.5-1.2
		c-43.3,0-75.5,16.8-109.4,34.5c-29.3,15.3-59.6,31.1-98.1,35.4c-34.7,4.2-80.8-10.8-117.4-38.2c-27.4-19-51.1-41.6-76.2-65.6
		c-15.9-15.1-32.3-30.8-49.6-45.3c-22.1-19.2-39.6-31.4-56.7-39.3c-21.5-10-41.7-12.8-61.8-8.4c-17.4,3.7-37.3,15.7-59.4,35.7
		c-19.6,17.8-39.8,41-58.4,67.3c-18.4,25.9-36.1,52.8-53.1,78.9c-30.9,47.3-60.1,92-89.6,123.2c-32.9,34.8-61.7,48.2-90.6,41.9
		c-63.9-16.2-102.8-86.6-147.8-168.1c-24-43.5-48.8-88.4-80-129.9c-17.2-21.7-38-40.7-58.7-53.3
		C154.5,169.4,137.1,163.5,122.2,163.5"/>
	<path style="clip-path:url(#SVGID_00000060718299048883765400000003207178084016160187_);fill:#73BF44;" d="M127.5,174.5
		c-2.9,0-5.7,0.2-8.4,0.6c-52.6,7.5-91.5,46.8-129.2,84.8l0.4,0.3c37.6-38,76.4-77.2,128.8-84.7c16.4-2.6,36.5,2.8,58.3,15.6
		c20.4,12,41,30,58.1,50.7c30.2,39.5,54.4,82.4,77.7,123.8c44.1,78.2,82.3,145.8,144.8,160.9c28.5,5.4,56.8-7.8,89-41.5
		c28.7-30.1,57.3-73,87.5-118.4c17.5-26.4,35.7-53.6,54.7-79.7c40.2-55.5,83.7-92.7,116.5-99.4c44.4-9.2,84.3,18.4,117.4,46.6
		c17.4,14,33.8,29.1,49.7,43.7c26,23.9,50.6,46.6,79.4,65.2c18,13.1,38.4,23.3,59.1,29.8c20.7,6.4,40.7,8.7,57.8,6.5
		c37.7-4.4,67.5-19.9,96.3-35c38-19.9,73.9-38.6,126-33.1c42.1,3,76.7,23.9,113.3,46c35.4,21.4,72,43.5,117.5,50.1
		c17.2,2.5,37.2-0.1,57.7-7.5c20.8-7.5,41.3-19.6,59.2-35c31.1-27.1,58.2-60.1,86.8-95c10-12.2,20.3-24.8,30.8-37.1l-0.5-0.3
		c-10.5,12.3-20.9,24.9-30.9,37.1c-28.6,34.9-55.7,67.8-86.7,95c-35.7,30.7-81.3,47.3-116.4,42.3c-45.4-6.6-82-28.7-117.3-50
		c-36.7-22.2-71.4-43.1-113.6-46.1c-52.4-5.6-88.3,13.2-126.4,33.1c-28.7,15-58.4,30.6-96,34.9c-34.3,4.5-80-9.7-116.4-36.1
		c-28.8-18.6-53.3-41.2-79.3-65.2c-15.9-14.6-32.3-29.7-49.7-43.8c-21.7-18.5-39.6-30.7-56.5-38.4c-21.4-9.8-41.5-12.5-61.4-8.4
		c-17.3,3.6-37.1,15.2-58.9,34.4c-19.4,17.2-39.4,39.7-57.9,65.2c-19.1,26.1-37.2,53.4-54.7,79.8c-30.2,45.4-58.7,88.3-87.4,118.4
		c-32,33.5-60.1,46.6-88.4,41.3C396,511,357.9,443.6,313.8,365.5c-23.4-41.4-47.6-84.3-77.8-123.8c-17.1-20.7-37.8-38.8-58.2-50.8
		C159.5,180.1,142.3,174.5,127.5,174.5"/>
	<path style="clip-path:url(#SVGID_00000060718299048883765400000003207178084016160187_);fill:#73BF44;" d="M132.7,185.5
		c-2.9,0-5.7,0.2-8.4,0.6c-24,3.1-46.2,11.8-69.9,27.4c-20.9,13.8-40.7,31.6-62.5,51.6l0.4,0.3c38.5-35.4,78.2-72,132-78.9
		c16.3-2.5,36.3,2.7,57.9,14.9c20.1,11.4,40.5,28.5,57.6,48.1c29.3,37.6,52.8,78.3,75.5,117.7C358.7,442,396,506.7,456.9,520.7
		c27.9,4.5,55.4-8.5,86.8-40.9c28-28.9,55.8-70.1,85.3-113.6c18-26.6,36.6-54.1,56.4-80.5c39.8-53.8,83-89.7,115.5-96.1
		c44.1-8.8,83.8,18.1,116.7,45.6c17.5,13.6,33.9,28.2,49.8,42.3c26.9,23.9,52.3,46.4,82.4,64.7c17.9,12.6,38.2,22.4,58.6,28.5
		c20.6,6.1,40.4,8.1,57.3,5.7c36.9-4.4,66-19.7,94.2-34.5c37-19.4,72-37.8,122.5-32.9c41.6,2,75.8,21.2,112,41.6
		c34.9,19.7,71,40,116.2,45.7c17.1,2.1,36.9-0.5,57.2-7.7c20.6-7.3,40.9-18.9,58.7-33.7c30.8-26,57.7-57.4,86.2-90.6
		c10-11.6,20.3-23.7,30.8-35.4l-0.5-0.3c-10.5,11.7-20.8,23.8-30.8,35.4c-28.5,33.2-55.4,64.6-86.2,90.5
		c-36,29.9-80.2,45.7-115.4,41.3c-45-5.7-81.1-26-115.9-45.6c-36.2-20.4-70.5-39.7-112.2-41.7c-50.7-4.9-85.8,13.5-122.9,33
		c-28.1,14.8-57.2,30-94,34.4c-34.5,4.8-78.7-8.3-115.5-34.1c-30.1-18.2-55.5-40.8-82.3-64.6c-15.9-14.1-32.4-28.8-49.8-42.3
		c-21.6-18-39.5-29.9-56.3-37.4c-21.3-9.5-41.2-12.3-61-8.3c-32.6,6.4-75.9,42.4-115.8,96.3c-19.7,26.3-38.4,53.9-56.4,80.5
		c-29.5,43.5-57.3,84.6-85.3,113.5c-31.2,32.2-58.6,45.2-86.2,40.7c-60.5-14-97.9-78.5-141-153.3c-22.8-39.4-46.3-80.1-75.6-117.7
		c-17.1-19.7-37.6-36.8-57.7-48.3C164.5,190.7,147.5,185.5,132.7,185.5"/>
	<path style="clip-path:url(#SVGID_00000060718299048883765400000003207178084016160187_);fill:#73BF44;" d="M812.7,189.7
		c-5.6,0-11.2,0.5-16.9,1.6c-32.4,6.1-75.3,40.8-114.9,93c-20.4,26.5-39.5,54.3-58,81.1c-58,84.1-108.1,156.8-167.1,149
		c-58.9-12.8-95.4-74.5-137.7-145.9c-22.1-37.3-45-75.9-73.3-111.6c-30.6-33.7-78.1-65.2-115-59.9c-24.7,2.9-47.4,11-71.5,25.4
		c-21.4,12.8-41.6,29.3-64,48l0.4,0.3c39.3-32.8,79.9-66.7,135.2-73.2c36.7-5.3,83.9,26.2,114.5,59.7
		c28.3,35.7,51.2,74.2,73.3,111.5c42.4,71.5,79,133.2,138.1,146.1c59.4,7.9,109.6-64.9,167.7-149.2c18.5-26.8,37.6-54.6,58-81.1
		c39.5-52,82.3-86.7,114.5-92.8c43.8-8.4,83.3,17.8,116.1,44.6c17.6,13.1,34.1,27.3,50,41c27.7,23.8,53.9,46.2,85.3,64
		c36.7,24.9,80.7,37.2,115,32.1c36-4.5,64.6-19.5,92.2-34.1c36.1-19,70.1-36.9,119-32.8c41.1,0.9,74.9,18.6,110.7,37.2
		c34.4,18,70,36.5,114.7,41.3c35,3.7,79-11.7,114.9-40.4c30.5-24.8,57.2-54.6,85.6-86.1c10-11.1,20.3-22.6,30.8-33.8l-0.5-0.3
		c-10.5,11.2-20.8,22.7-30.8,33.8c-28.3,31.5-55.1,61.2-85.5,86c-35.8,28.5-79.6,44-114.4,40.3c-44.6-4.8-80.2-23.3-114.5-41.3
		c-35.8-18.7-69.6-36.4-110.9-37.3c-4.9-0.4-9.6-0.6-14.2-0.6c-41.6,0-72.6,16.3-105.1,33.4c-27.6,14.5-56.1,29.5-92,34
		c-34.1,5.1-78-7.2-114.5-32c-31.4-17.8-57.6-40.2-85.3-64c-16-13.7-32.5-27.9-50.1-41C883.8,212.6,850,189.7,812.7,189.7"/>
	<path style="clip-path:url(#SVGID_00000060718299048883765400000003207178084016160187_);fill:#73BF44;" d="M807.4,191.9
		c-5.4,0-10.9,0.5-16.5,1.5c-32.2,5.7-74.7,39.3-113.9,89.6c-21.1,26.7-40.7,54.6-59.7,81.6C560.9,445,512.1,514.4,454.6,508.5
		C397.4,496.8,361.6,438,320.2,370c-21.5-35.3-43.7-71.7-71.1-105.5c-30.5-31.8-77.6-61.6-114.1-56.6c-25.4,2.7-48.6,10.1-73.1,23.3
		C40,243,19.3,258.2-3.6,275.4l0.4,0.4c40-30.2,81.4-61.4,138.3-67.4c36.3-5,83.1,24.8,113.5,56.4c27.4,33.7,49.6,70.2,71.1,105.4
		c41.5,68.1,77.3,126.9,134.8,138.7c57.9,6,106.8-63.5,163.3-144c19-27,38.6-54.9,59.7-81.6C716.6,233,759,199.6,791,193.9
		c43.5-8,82.8,17.6,115.5,43.6c17.7,12.7,34.3,26.5,50.3,39.7c28.5,23.6,55.5,46,88.2,63.3c36.5,23.9,80.2,35.4,114,30.1
		c35.2-4.5,63.1-19.3,90.2-33.6c35.1-18.6,68.2-36.1,115.4-32.6c0.1,0,0.2,0,0.4,0c40.5,0,73.8,16,109,32.9
		c33.9,16.3,69,33.1,113.3,36.9c34.6,3,78.3-12.1,113.9-39.4c30.1-23.7,56.7-51.8,84.9-81.5c10-10.6,20.4-21.6,30.9-32.3l-0.4-0.3
		c-10.5,10.7-20.9,21.7-30.9,32.3c-28.1,29.8-54.7,57.9-84.8,81.5c-35.5,27.2-79,42.3-113.5,39.3c-44.2-3.8-79.2-20.6-113-36.9
		c-35.3-16.9-68.6-32.9-109.3-32.9c-0.1,0-0.2,0-0.4,0c-4.1-0.3-8.1-0.5-12-0.5c-41.1,0-71.6,16.1-103.8,33.1
		c-27,14.3-54.9,29-90,33.5c-33.7,5.3-77.2-6.1-113.6-30c-32.7-17.3-59.6-39.6-88.2-63.2c-16-13.3-32.6-27-50.3-39.8
		C878.3,214.3,844.6,191.9,807.4,191.9"/>
	<path style="clip-path:url(#SVGID_00000060718299048883765400000003207178084016160187_);fill:#73BF44;" d="M802,194.1
		c-5.3,0-10.6,0.4-16,1.4c-16.9,2.9-36.2,12.8-57.2,29.4c-18.6,14.8-37.9,34.4-55.8,56.9c-21.8,26.8-41.9,54.9-61.4,82.1
		c-54.9,76.6-102.3,142.8-158.3,138.7c-55.5-10.6-90.5-66.4-131.1-131c-20.8-33.2-42.4-67.6-68.8-99.4
		c-16.9-16.7-36.9-31.1-56.2-40.6c-21.1-10.4-40.8-14.8-56.9-12.7c-26.1,2.5-49.8,9.2-74.8,21.2c-22.6,10.9-43.7,24.8-67,40.6
		L-1,281c48.5-32.8,87-56.5,141.5-61.7c16-2.1,35.6,2.3,56.5,12.7c19.3,9.5,39.2,23.9,56,40.5c26.4,31.8,48,66.1,68.8,99.3
		c40.6,64.8,75.7,120.7,131.5,131.3c56.4,4.2,103.9-62.2,158.9-138.9c19.4-27.2,39.5-55.2,61.3-82c38.7-48.5,80.8-80.7,112.6-86.1
		c43.2-7.6,82.3,17.3,114.9,42.5c17.8,12.3,34.5,25.7,50.6,38.6c29.4,23.5,57.1,45.6,91.1,62.4c36.3,22.9,79.6,33.6,113.1,28
		c34.3-4.6,61.7-19.1,88.2-33.2c34.1-18.1,66.3-35.2,111.9-32.4c40.3-1.1,73.3,13.3,108.2,28.5c33.4,14.6,67.9,29.6,111.7,32.5
		c34.2,2.3,77.5-12.4,112.9-38.4c29.7-22.4,56.1-48.9,84-76.9c10.1-10.1,20.5-20.6,31.1-30.8l-0.4-0.3c-10.5,10.2-21,20.7-31.1,30.8
		c-27.9,28-54.3,54.4-84,76.8c-35.3,25.9-78.4,40.5-112.5,38.2c-43.7-2.9-78.2-18-111.5-32.5c-35-15.3-68.1-29.7-108.5-28.6
		c-45.7-2.8-78,14.3-112.2,32.5c-26.4,14-53.8,28.5-88,33.1c-33.3,5.6-76.4-5.1-112.6-27.9c-34-16.8-61.7-38.9-91-62.4
		c-16.1-12.9-32.8-26.2-50.6-38.6C872.8,215.9,839.1,194.1,802,194.1"/>
	<path style="clip-path:url(#SVGID_00000060718299048883765400000003207178084016160187_);fill:#73BF44;" d="M796.7,196.3
		c-5.1,0-10.3,0.4-15.6,1.3c-16.9,2.7-35.9,12.2-56.7,28.2c-18.4,14.2-37.5,33.1-55.3,54.8c-22.5,26.9-43.1,55.1-63,82.4
		c-52.3,71.7-97.7,133.8-151,133.8c-1,0-1.9,0-2.9-0.1c-53.8-9.4-88.1-62.3-127.8-123.6c-20.2-31.2-41-63.4-66.6-93.3
		c-16.9-15.6-36.6-29.1-55.7-38c-20.9-9.8-40.4-13.9-56.4-12C89.1,234.5,50,256,0.8,285.7l0.3,0.4c49.1-29.7,88.2-51.1,144.7-55.9
		c31-3.8,74.8,15.8,111.6,49.9c25.5,29.9,46.3,62.1,66.5,93.2c39.7,61.4,74.1,114.4,128.2,123.9c1,0,2,0.1,3,0.1
		c53.7,0,99.1-62.2,151.5-134c19.9-27.3,40.5-55.5,63-82.4c38.3-46.8,80.1-77.7,111.6-82.8c42.9-7.1,81.8,17,114.2,41.5
		c17.9,12,34.7,24.9,50.9,37.5c30.1,23.3,58.6,45.3,93.9,61.5c36.1,21.9,79.1,31.8,112.1,25.9c33.5-4.6,60.3-18.9,86.2-32.7
		c33.1-17.7,64.4-34.4,108.3-32.2c39.9-2.2,72.6,10.6,107.1,24.1c32.8,12.8,66.8,26.1,110.1,28.1c33.8,1.6,76.8-12.7,112-37.4
		c29.3-21.2,55.4-46,83.1-72.2c10.2-9.7,20.8-19.7,31.4-29.4l-0.4-0.3c-10.6,9.7-21.2,19.7-31.4,29.4c-27.6,26.2-53.7,50.9-83,72.1
		c-35.1,24.6-77.9,38.8-111.6,37.2c-43.2-2-77.1-15.3-109.9-28.1c-34.6-13.6-67.3-26.4-107.4-24.2c-2.5-0.1-5-0.2-7.5-0.2
		c-40.2,0-69.8,15.8-101.1,32.5c-25.9,13.8-52.6,28.1-86,32.7c-32.9,5.9-75.7-4-111.7-25.9c-35.3-16.3-63.7-38.2-93.8-61.5
		c-16.2-12.5-33-25.5-51-37.5C867.3,217.6,833.7,196.3,796.7,196.3"/>
	<path style="clip-path:url(#SVGID_00000060718299048883765400000003207178084016160187_);fill:#73BF44;" d="M791.3,198.5
		c-5,0-10,0.4-15.1,1.2c-16.8,2.5-35.7,11.6-56.3,26.9c-18.2,13.6-37.1,31.8-54.7,52.7c-23.3,27-44.4,55.3-64.8,82.7
		c-51.7,69.4-96.3,129.4-149.5,128.8c-52.2-8.3-85.7-58.3-124.5-116.2c-19.5-29.1-39.7-59.2-64.2-87.2
		c-36.8-31.9-80.4-50.2-111.2-46.7C92.3,245.1,52.6,264.3,3,290.9l0.3,0.4c49.6-26.6,89.2-45.8,147.8-50.2
		c30.6-3.5,74,14.8,110.7,46.6c24.5,27.9,44.7,58,64.2,87.1c38.9,58,72.5,108.1,125,116.4c0.3,0,0.5,0,0.8,0
		c53.2,0,97.7-59.8,149.3-129c20.4-27.4,41.5-55.7,64.7-82.6c37.9-45,79.3-74.8,110.7-79.5c42.6-6.7,81.3,16.7,113.6,40.5
		c18.1,11.6,35,24.2,51.3,36.4c30.9,23.1,60.1,44.9,96.7,60.6c35.9,20.9,78.5,30.1,111.1,23.9c32.6-4.7,58.9-18.7,84.2-32.3
		c32.2-17.2,62.6-33.5,104.7-32.1c39.6-3.2,71.9,7.9,106.2,19.8c32.2,11.1,65.6,22.6,108.3,23.8c33.5,0.9,76-13,111-36.3
		c28.8-19.9,54.6-43,81.9-67.3c10.4-9.3,21.1-18.8,31.9-28.1l-0.4-0.3c-10.8,9.3-21.5,18.9-31.9,28.1
		c-27.3,24.4-53.1,47.4-81.9,67.3c-34.9,23.3-77.3,37.1-110.6,36.2c-42.6-1.1-75.9-12.6-108.1-23.7c-34.3-11.9-66.7-23-106.4-19.8
		c-1.7-0.1-3.5-0.1-5.2-0.1c-39.7,0-69,15.7-99.9,32.2c-25.3,13.6-51.5,27.6-84,32.2c-32.5,6.1-74.9-3-110.7-23.8
		c-36.5-15.7-65.7-37.5-96.6-60.5c-16.3-12.2-33.2-24.8-51.3-36.4C861.8,219.2,828.2,198.5,791.3,198.5"/>
	<path style="clip-path:url(#SVGID_00000060718299048883765400000003207178084016160187_);fill:#73BF44;" d="M785.9,200.7
		c-4.8,0-9.7,0.3-14.6,1.1c-16.7,2.3-35.5,11-55.8,25.7c-18,13-36.8,30.5-54.2,50.6c-24.1,27-45.6,55.4-66.5,82.8
		c-50.1,65.9-93.4,122.8-145,123.9c-50.5-7.1-83.3-54.2-121.3-108.8c-18.8-27.1-38.3-55-61.9-81.1c-17.1-13.8-36-25.2-54.7-33
		c-20.5-8.5-39.7-12.2-55.5-10.5c-61.2,4-103,21.7-151.2,44.5l0.3,0.4c48.2-22.7,89.9-40.4,151-44.4c30.1-3.2,73.2,13.8,109.7,43.3
		c23.5,26,43,54,61.8,81c38.1,54.7,70.9,101.9,121.8,109c52-1.1,95.3-58.1,145.5-124.2c20.9-27.4,42.4-55.8,66.5-82.8
		c17.4-20.1,36.1-37.6,54.1-50.6c20.3-14.6,39-23.3,55.6-25.6c42.3-6.3,80.9,16.4,113,39.5c18.2,11.3,35.2,23.6,51.7,35.4
		c31.7,22.9,61.7,44.5,99.5,59.6c17.4,9.7,36.7,16.9,55.8,20.7c19.5,3.9,38.3,4.3,54.4,1.1c31.8-4.7,57.5-18.5,82.3-31.9
		c30.5-16.4,59.3-31.9,98.4-31.9c0.9,0,1.8,0,2.8,0c39.3-4.3,71.4,5.2,105.3,15.4c31.6,9.4,64.3,19.2,106.4,19.4c0.3,0,0.5,0,0.8,0
		c33,0,74.7-13.5,109.2-35.3c28.2-18.6,54.8-40.9,80.5-62.4c10.6-8.9,21.6-18.1,32.7-27l-0.4-0.3c-11,8.9-22,18.1-32.7,27
		c-25.7,21.5-52.3,43.7-80.5,62.4c-34.7,21.9-76.7,35.5-109.6,35.2c-42-0.2-74.6-9.9-106.2-19.4c-34-10.1-66.2-19.7-105.6-15.4
		c-0.9,0-1.9,0-2.8,0c-39.3,0-68.1,15.5-98.7,32c-24.8,13.3-50.3,27.1-82.1,31.8c-32.1,6.4-74.2-1.9-109.8-21.8
		c-37.8-15.1-67.7-36.7-99.4-59.6c-16.4-11.9-33.5-24.1-51.7-35.4C856.3,220.9,822.7,200.7,785.9,200.7"/>
	<path style="clip-path:url(#SVGID_00000060718299048883765400000003207178084016160187_);fill:#73BF44;" d="M1750.6,200.6
		c-11.4,8.5-22.7,17.4-33.7,26c-25.2,19.7-51.3,40-78.8,57.3c-34.4,20.6-76.1,33.7-108.7,34.2c-41.3,0.7-73.2-7.3-104.1-15
		c-33.8-8.4-65.7-16.4-104.9-11c-0.1,0-0.2,0-0.3,0c-38.8,0-67.3,15.4-97.5,31.7c-24.2,13.1-49.2,26.6-80.1,31.4
		c-32.2,6.8-72.9-0.6-108.8-19.7c-39.1-14.6-69.7-35.9-102.2-58.5c-16.6-11.5-33.7-23.5-52.1-34.5c-28.5-19.9-62.1-39.5-98.8-39.5
		c-4.6,0-9.3,0.3-14,1c-31.6,4.1-71.3,30.7-109.1,73c-24.9,27-46.9,55.4-68.3,82.9c-48.5,62.5-90.4,116.4-140.5,119.2
		c-48.9-5.9-81-50.1-118.1-101.3c-18.2-25-36.9-50.9-59.5-75c-29.1-21.8-73.1-43.7-109.2-40.2c-64.2,3.7-106.2,19-154.4,38.7
		l0.3,0.4c48.1-19.7,90-35,154.2-38.7c35.9-3.5,79.8,18.4,108.8,40c22.5,24.1,41.3,49.9,59.4,74.9c37.2,51.3,69.4,95.6,118.6,101.6
		c50.5-2.8,92.4-56.8,141-119.4c21.3-27.5,43.4-55.9,68.3-82.9c37.7-42.2,77.3-68.7,108.7-72.8c42-5.9,80.4,16.1,112.4,38.5
		c18.4,11,35.5,22.9,52.1,34.5c32.5,22.6,63.2,44,102.3,58.6c36,19.2,76.9,26.6,109.2,19.8c31-4.8,56.1-18.4,80.3-31.5
		c30.1-16.3,58.5-31.7,97.3-31.7h0.3c39.1-5.4,70.9,2.5,104.7,11c31,7.7,63,15.7,104.3,15c32.7-0.5,74.5-13.6,109-34.3
		c27.5-17.3,53.6-37.6,78.9-57.3c11-8.6,22.3-17.4,33.7-25.9L1750.6,200.6z"/>
	<path style="clip-path:url(#SVGID_00000060718299048883765400000003207178084016160187_);fill:#73BF44;" d="M1737.4,196.5
		c-11.9,8.2-23.7,16.8-35.2,25.1c-24.6,17.8-50,36.2-76.7,52c-34.8,19.6-75,32-107.7,33.2c-40.4,1.5-71.7-4.7-101.8-10.7
		c-33.7-6.7-65.5-13.1-104.5-6.5c-37.3,0.6-64.9,15.6-94.1,31.5c-23.7,12.9-48.1,26.2-78.2,31c-31.9,7-72.2,0.4-107.9-17.7
		c-40.4-14-71.7-35.1-104.9-57.5c-16.7-11.2-33.9-22.9-52.5-33.6c-28.5-19.3-62-38.4-98.7-38.4c-4.4,0-8.9,0.3-13.5,0.9
		c-31.4,3.8-70.8,29.2-108.1,69.7c-25.7,27-48.3,55.4-70.1,82.9c-46.9,59.1-87.3,110.1-136,114.5c-47.3-4.8-78.6-46.1-115-93.9
		c-17.5-23-35.5-46.7-57.1-68.9c-29.1-19.9-72.8-40.1-108.3-36.9c-61.7,3-103,13.9-157.5,33l0.2,0.4c54.5-19.1,95.7-29.9,157.4-32.9
		c35.3-3.2,78.8,16.9,107.8,36.7c21.5,22.1,39.5,45.9,57,68.8c36.4,47.9,67.9,89.3,115.5,94.1c49-4.4,89.5-55.5,136.5-114.7
		c21.8-27.5,44.4-55.9,70.1-82.9c37.3-40.4,76.6-65.7,107.8-69.5c41.7-5.5,79.9,15.9,111.8,37.5c18.6,10.7,35.8,22.3,52.5,33.5
		c33.2,22.4,64.6,43.5,105,57.5c35.8,18.1,76.3,24.8,108.3,17.7c30.2-4.9,54.7-18.2,78.4-31.1c29.2-15.9,56.7-30.8,93.9-31.4
		c38.9-6.6,70.7-0.2,104.3,6.5c30.2,6,61.5,12.3,102,10.8c32.8-1.2,73.2-13.6,108-33.3c26.7-15.9,52.1-34.3,76.7-52.1
		c11.5-8.3,23.3-16.9,35.2-25.1L1737.4,196.5z"/>
	<path style="clip-path:url(#SVGID_00000060718299048883765400000003207178084016160187_);fill:#73BF44;" d="M1724.2,192.5
		c-12.6,8-25.1,16.4-37.3,24.5c-23.8,15.8-48.3,32.2-74,46.6c-34.6,18.3-74.5,30.3-106.8,32.2c-39.4,2.3-69.8-2.2-99.2-6.5
		c-33.6-5-65.4-9.7-104.4-1.9c-35.6,1.2-62.2,15.8-90.5,31.3c-23.1,12.7-47.1,25.7-76.3,30.7c-31.5,7.3-71.5,1.4-106.9-15.6
		c-41.6-13.3-73.7-34.2-107.7-56.3c-16.8-10.9-34.2-22.3-52.9-32.7c-20.7-13.6-37.9-22.8-54.2-28.8c-20.3-7.5-39-10-57.3-7.8
		c-31.2,3.5-70.2,27.7-107.2,66.4c-26.6,26.9-49.7,55.4-72,82.9c-45.2,55.8-84.3,104-131.4,109.9c-45.7-3.6-76.4-42-111.9-86.5
		c-16.7-20.9-34-42.6-54.6-62.9c-17.1-10.6-35.4-19.4-53.1-25.3c-20.3-6.8-38.5-9.6-54.2-8.3c-65.8,2.7-108.7,12-160.7,27.2l0.2,0.5
		c51.9-15.2,94.8-24.5,160.5-27.2c29.4-2.4,69.4,10.1,106.9,33.5c20.5,20.2,37.8,41.8,54.5,62.8c35.6,44.6,66.4,83.1,112.4,86.7
		c47.4-5.9,86.6-54.2,131.9-110.1c22.3-27.5,45.3-56,71.9-82.9c36.9-38.6,75.8-62.7,106.8-66.2c41.4-5.1,79.4,15.6,111.1,36.4
		c18.7,10.4,36.1,21.7,52.9,32.7c34,22.1,66.1,43,107.8,56.4c35.6,17.1,75.7,23,107.3,15.7c29.4-4.9,53.3-18,76.5-30.7
		c28.1-15.4,54.7-29.9,90.2-31.2c38.9-7.8,70.6-3.1,104.2,1.9c29.4,4.4,59.8,8.9,99.4,6.5c32.4-1.9,72.4-13.9,107-32.3
		c25.7-14.4,50.2-30.8,74-46.6c12.2-8.1,24.7-16.5,37.3-24.5L1724.2,192.5z"/>
	<path style="clip-path:url(#SVGID_00000060718299048883765400000003207178084016160187_);fill:#73BF44;" d="M1711,188.5
		c-13.6,7.9-27.2,16.1-40.3,24.1c-22.6,13.8-46,28-70.3,40.8c-34.4,17-73.9,28.6-105.8,31.2c-38.3,3.1-67.7,0.3-96.2-2.5
		c-33.7-3.2-65.5-6.3-104.7,2.7c-33.9,1.9-59.6,16-86.7,31c-22.6,12.5-46,25.3-74.5,30.3c-31.1,7.5-70.7,2.5-106-13.6
		c-42.9-12.7-75.7-33.4-110.4-55.2c-16.9-10.7-34.5-21.7-53.4-31.8c-20.6-13.1-37.7-22-54-27.8c-20.2-7.2-38.8-9.8-56.9-7.7
		c-31,3.1-69.7,26.1-106.2,63c-27.5,26.9-51.1,55.3-73.9,82.8c-43.6,52.6-81.2,98-126.7,105.4c-44.1-2.4-74.2-37.9-108.9-79
		c-16-18.9-32.5-38.5-52-56.8l-0.1,0c-37.7-21.1-77.4-32.4-106.3-30.2c-63.3,2.1-106.2,7.7-163.8,21.5l0.2,0.5
		c57.6-13.8,100.4-19.4,163.7-21.4c28.7-2.1,68.3,9.1,105.9,30.2c19.4,18.3,36,37.8,51.9,56.7c34.9,41.2,65,76.8,109.4,79.2l0,0l0,0
		c45.8-7.4,83.5-52.9,127.1-105.6c22.8-27.5,46.3-55.9,73.9-82.8c36.4-36.8,75-59.7,105.8-62.9c41.2-4.7,79,15.3,110.5,35.4
		c18.9,10.1,36.4,21.1,53.3,31.8c34.8,21.9,67.6,42.5,110.5,55.3c35.3,16.1,75.1,21.2,106.4,13.6c28.6-5,52-17.9,74.7-30.4
		c27.1-14.9,52.7-29,86.5-30.9c39.1-9,69.4-6.1,104.5-2.7c28.5,2.7,58,5.6,96.3,2.5c32-2.6,71.6-14.2,106.1-31.3
		c24.3-12.8,47.7-27,70.4-40.8c13.1-8,26.7-16.3,40.3-24.1L1711,188.5z"/>
	<path style="clip-path:url(#SVGID_00000060718299048883765400000003207178084016160187_);fill:#73BF44;" d="M1697.8,184.5
		c-15,7.8-30.1,16.2-44.7,24.2c-21.1,11.6-42.8,23.6-65.3,34.6c-34.2,15.7-73.4,27-104.9,30.2c-36.8,3.8-66.4,2.6-92.5,1.4
		c-35.5-1.5-66.1-2.8-105.6,7.6c-32.2,2.5-58,16.8-83,30.7c-22.1,12.3-45,24.9-72.7,30c-30.8,7.8-70,3.5-105-11.5
		c-44.2-12.1-77.7-32.5-113.1-54.1c-17.1-10.4-34.7-21.1-53.8-31c-26.9-16.6-61.9-35.1-99.1-35.1c-3.7,0-7.5,0.2-11.2,0.6
		c-30.8,2.8-69.2,24.6-105.2,59.7c-28.5,26.7-52.6,55.1-75.9,82.6c-41.9,49.4-78,92.1-122,100.9c-42.6-1.2-72-33.8-106-71.5
		c-15.2-16.9-31-34.3-49.3-50.8l-0.1,0c-18.2-9-64.8-29.6-105.3-27c-71.8,1.8-114,5.8-167,15.7l0.1,0.5
		c52.9-9.9,95.1-13.9,166.9-15.7c40.4-2.7,86.8,17.9,104.9,26.9c18.3,16.4,34.1,33.8,49.3,50.7c34.1,37.9,63.6,70.5,106.5,71.7h0
		l0,0c44.2-8.8,80.4-51.6,122.4-101.1c23.3-27.5,47.3-55.9,75.8-82.6c36-35,74.2-56.8,104.9-59.5c41.1-4.3,80.3,16.2,109.9,34.4
		c19.1,9.8,36.7,20.6,53.8,31c35.5,21.6,69,42,113.2,54.1c35.1,15.1,74.5,19.4,105.4,11.5c27.8-5.1,50.7-17.8,72.9-30.1
		c26.1-14.4,50.7-28.1,82.8-30.6c39.5-10.4,70.1-9.1,105.5-7.6c26.1,1.1,55.8,2.4,92.6-1.4c31.5-3.2,70.8-14.5,105.1-30.3
		c22.4-11,44.2-23,65.3-34.6c14.6-8,29.7-16.4,44.7-24.2L1697.8,184.5z"/>
	<path style="clip-path:url(#SVGID_00000060718299048883765400000003207178084016160187_);fill:#73BF44;" d="M1684.6,180.5
		c-17.3,8-34.7,16.6-51.5,24.9c-18.7,9.2-38.1,18.8-57.8,27.8c-34,14.4-72.9,25.3-103.9,29.2c-34.8,4.4-63,4.7-87.8,5
		c-36.1,0.4-67.3,0.8-107.6,12.8c-30.4,3.2-55.2,17-79.2,30.4c-21.6,12.1-44,24.6-70.9,29.7c-30.4,8.1-69.3,4.5-104.1-9.5
		c-45.4-11.5-79.6-31.6-115.8-52.9c-17.2-10.1-35-20.6-54.2-30.2c-29.5-17.6-68.6-37.3-109.6-33.5c-30.6,2.5-68.6,23-104.3,56.4
		c-29.6,26.6-54.2,55-78,82.4c-40.2,46.3-74.8,86.3-117.2,96.4h-0.1c-41,0-69.8-29.7-103.1-64c-14.4-14.9-29.3-30.2-46.6-44.7
		l-0.1,0c-22.7-9.8-66.5-25.8-104.3-23.7c-67.9,1.2-112.8,2-170.1,9.9l0.1,0.5c57.3-7.9,102.1-8.7,170-9.9
		c37.7-2.2,81.3,13.8,104,23.6c17.2,14.5,32.1,29.8,46.5,44.7c33.4,34.4,62.3,64.2,103.6,64.2h0.2l0.1,0
		c42.6-10.1,77.3-50.2,117.6-96.6c23.8-27.4,48.4-55.8,77.9-82.4c35.5-33.3,73.4-53.8,103.9-56.2c40.9-3.8,79.9,15.8,109.3,33.4
		c19.2,9.6,37,20,54.2,30.1c36.2,21.3,70.5,41.5,116,52.9c34.9,14,73.9,17.6,104.4,9.5c27.1-5.2,49.5-17.7,71.1-29.8
		c25-14,48.6-27.1,79-30.3c40.2-12,71.4-12.3,107.4-12.8c24.9-0.3,53.1-0.6,87.9-5c31.1-3.9,70-14.8,104.1-29.2
		c19.8-9,39.2-18.6,57.9-27.8c16.8-8.3,34.2-16.9,51.5-24.9L1684.6,180.5z"/>
	<path style="clip-path:url(#SVGID_00000060718299048883765400000003207178084016160187_);fill:#73BF44;" d="M1671.4,176.5
		c-20.9,8.4-41.2,17.3-62.6,26.7c-15,6.6-30.5,13.4-46.1,19.9c-33.9,13.1-72.4,23.6-103,28.2c-32.1,4.8-58.4,6.6-81.6,8.1
		c-37.3,2.5-69.5,4.6-111,18.5c-28.7,3.8-52.4,17.1-75.3,30c-21.2,11.9-43,24.2-69.3,29.5c-30.5,8.4-68.1,5.7-103.1-7.4
		c-46.7-10.8-81.6-30.7-118.5-51.7c-17.3-9.9-35.3-20.1-54.7-29.4c-27-15.5-62.1-32.8-99.3-32.8c-3.2,0-6.5,0.1-9.7,0.4
		c-30.5,2.2-68.1,21.5-103.3,53.1c-30.7,26.5-57,56-80.1,82.1c-38.4,43.3-71.6,80.7-112.3,92c-39.6,1.3-67.9-25.5-100.6-56.5
		c-13.6-12.9-27.6-26.2-43.6-38.7l-0.1,0c-28.1-10.2-68.8-22.1-103.4-20.4c-19.1,0.2-35.9,0.2-52.3,0.2c-43.8,0-78.5,0.1-121,3.9
		l0.1,0.5c42.5-3.8,77.1-3.9,120.9-3.9c16.3,0,33.2,0,52.3-0.2c34.4-1.7,75,10.1,103.1,20.3c16,12.6,30,25.8,43.6,38.7
		c32.8,31.1,61.2,58,101.1,56.7l0.1,0c40.9-11.4,74.2-48.8,112.6-92.2c23.2-26.1,49.4-55.7,80.1-82.1
		c35.1-31.5,72.6-50.8,102.9-52.9c40.6-3.4,79.4,15.5,108.6,32.4c19.4,9.3,37.3,19.5,54.7,29.3c37,21,71.9,40.9,118.7,51.7
		c35.2,13.2,72.9,15.9,103.5,7.4c26.3-5.3,48.2-17.6,69.4-29.5c22.8-12.9,46.5-26.2,75.1-29.9c41.5-13.8,73.7-16,110.9-18.4
		c23.2-1.5,49.5-3.3,81.7-8.1c30.6-4.6,69.1-15.1,103.1-28.2c15.7-6.6,31.2-13.4,46.2-20c21.4-9.4,41.6-18.3,62.6-26.7L1671.4,176.5
		z"/>
	<path style="clip-path:url(#SVGID_00000060718299048883765400000003207178084016160187_);fill:#73BF44;" d="M1658.2,172.5
		c-27.6,9.4-54.4,19.8-82.8,30.8c-8.3,3.2-16.8,6.5-25.3,9.8c-34.4,12-71.6,21.9-102,27.2c-28.2,4.9-51.8,7.7-72.6,10.3
		c-41.1,5-73.6,8.9-117.3,25.1c-26.9,4.3-49.5,17.2-71.3,29.6c-20.7,11.8-42.1,23.9-67.7,29.3c-30.1,8.7-67.4,6.7-102.2-5.4
		c-48-10.2-83.6-29.7-121.3-50.5c-17.5-9.6-35.5-19.5-55.1-28.6c-27-15-62.2-31.7-99.5-31.7c-3,0-5.9,0.1-8.9,0.3
		c-16.1,1-33.7,6.2-52.3,15.7c-16.6,8.4-33.9,20.2-50,34c-31.9,26.3-58.7,55.8-82.4,81.9c-36.6,40.3-68.3,75.2-107.3,87.6
		c-38.2,2.6-66-21.3-98.2-48.9c-12.6-10.9-25.7-22.1-40.5-32.8l-0.1,0c-42.3-12.6-75.8-18.2-102.4-17.1c-30.6,0.1-56-0.6-80.5-1.3
		c-31.8-0.9-61.8-1.8-96-0.3l0,0.5c34.2-1.5,64.1-0.7,95.9,0.3c24.5,0.7,49.8,1.5,80.5,1.3c26.5-1.1,59.9,4.5,102.1,17
		c14.8,10.7,27.8,21.9,40.4,32.7c32.3,27.8,60.1,51.7,98.7,49.1l0.1,0c39.2-12.5,70.9-47.4,107.6-87.8c23.7-26,50.5-55.5,82.4-81.8
		c34.6-29.7,71.8-47.8,102-49.6c40.4-3,78.9,15.2,108,31.4c19.6,9,37.6,19,55.1,28.6c37.7,20.7,73.4,40.3,121.4,50.5
		c34.9,12.1,72.3,14.1,102.5,5.4c25.6-5.4,47.1-17.6,67.8-29.4c21.8-12.4,44.3-25.2,71.2-29.5c43.8-16.2,76.2-20.1,117.2-25
		c20.8-2.5,44.4-5.4,72.6-10.3c30.4-5.2,67.6-15.2,102.1-27.2c8.5-3.3,17.1-6.6,25.3-9.8c28.4-11,55.2-21.4,82.8-30.7L1658.2,172.5z
		"/>
	<path style="clip-path:url(#SVGID_00000060718299048883765400000003207178084016160187_);fill:#73BF44;" d="M1645,168.4
		c-37.2,10.4-75,23.2-107.5,34.4c-34.7,10.8-71.5,20.4-101,26.2c-21.9,4.3-41.1,7.6-57.9,10.6c-47.3,8.2-81.4,14.1-129.3,33.5
		c-25.1,4.9-46.5,17.2-67.2,29.1c-20.3,11.6-41.3,23.7-66.2,29.2c-29.8,8.9-66.7,7.7-101.2-3.3c-49.2-9.5-85.5-28.8-124-49.2
		c-17.6-9.4-35.8-19-55.6-27.8c-29-15.5-67.4-33-107.7-30.4c-41.4,2.1-81.3,30-101.4,46.4c-33.2,26.1-60.6,55.6-84.8,81.6
		c-34.8,37.4-64.9,69.8-102.2,83.3c-36.9,4-64.3-17-96-41.3c-11.6-8.9-23.6-18.1-37.1-26.9l-0.1,0c-32.2-7.4-69.4-14.8-101.4-13.8
		c-38-0.1-68.2-2-97.5-3.9c-26.8-1.7-52.2-3.4-81.1-3.4c-0.3,0-0.7,0-1,0v0.5c0.3,0,0.7,0,1,0c28.9,0,54.2,1.6,81,3.4
		c29.3,1.9,59.5,3.9,97.5,3.9c31.9-1,69,6.4,101.2,13.7c13.4,8.8,25.4,18,37,26.9c31.8,24.4,59.3,45.5,96.5,41.4l0.1,0
		c37.4-13.5,67.6-45.9,102.5-83.4c24.2-26,51.6-55.5,84.8-81.5c20.1-16.4,59.8-44.2,101-46.3c40.1-2.6,78.5,14.9,107.4,30.3
		c19.8,8.8,38,18.5,55.5,27.8c38.5,20.4,74.8,39.8,124.1,49.3c34.6,11.1,71.7,12.3,101.6,3.3c24.9-5.5,46-17.6,66.3-29.2
		c20.7-11.9,42-24.1,67.1-29c47.8-19.4,82-25.4,129.2-33.5c16.9-2.9,36-6.2,57.9-10.6c29.6-5.8,66.4-15.4,101.1-26.2
		c32.5-11.2,70.3-24.1,107.5-34.4L1645,168.4z"/>
	<path style="clip-path:url(#SVGID_00000060718299048883765400000003207178084016160187_);fill:#73BF44;" d="M1631.9,164.4
		c-33,7.1-67.9,16.4-106.9,28.3c-36.6,10-72.1,19-100.1,25.2c-10.6,2.3-20.3,4.4-29.6,6.5c-61.8,13.4-99.1,21.5-154.8,46.4
		c-23.3,5.4-43.5,17.1-63,28.5c-19.9,11.6-40.6,23.5-64.8,29.2c-29.5,9.2-66,8.7-100.3-1.3c-50.5-8.8-87.5-27.8-126.7-48
		c-17.7-9.1-36.1-18.5-56-27.1c-27.1-13.9-62.6-29.6-100.1-29.6c-2.3,0-4.7,0.1-7,0.2c-30.6,1.2-66.2,16.5-100.4,43.1
		c-34.7,25.9-62.7,55.3-87.4,81.3c-33,34.6-61.4,64.5-96.9,78.9c-35.7,5.4-62.8-12.6-94.3-33.6c-10.5-7-21.3-14.2-33.3-21.1l-0.1,0
		l-4.2-0.7c-29.1-4.7-65.3-10.5-96.2-9.8c-43-0.3-76.6-3.8-109-7.1c-24.4-2.5-47.4-4.9-73.7-5.9l0,0.5c26.3,1.1,49.3,3.4,73.6,5.9
		c32.5,3.3,66,6.8,109.1,7.1c30.9-0.7,67,5.1,96.1,9.8l4.1,0.7c11.9,6.9,22.7,14.1,33.2,21.1c31.5,21,58.8,39.1,94.8,33.7l0.1,0
		c35.6-14.4,64.1-44.4,97.1-79.1c24.7-26,52.7-55.4,87.3-81.2c34.1-26.5,69.6-41.8,100.1-42.9c40-2.1,78,14.6,106.8,29.3
		c19.9,8.6,38.3,18,56,27.1c39.2,20.1,76.2,39.2,126.8,48c34.4,10,71.1,10.5,100.6,1.3c24.3-5.7,45-17.6,65-29.2
		c19.5-11.3,39.7-23,62.9-28.4c55.7-24.8,93-32.9,154.8-46.4c9.4-2,19.1-4.2,29.6-6.5c28-6.2,63.5-15.1,100.1-25.2
		c38.9-11.9,73.8-21.2,106.8-28.3L1631.9,164.4z"/>
	<path style="clip-path:url(#SVGID_00000060718299048883765400000003207178084016160187_);fill:#73BF44;" d="M1618.7,160.4
		c-36.1,5.5-70.9,12.7-106.2,22.2c-28.8,6.8-59.5,14.4-86.7,21.1l-12.5,3.1c-78.9,19.4-117.5,30.4-181.7,61.6
		c-21.4,5.9-40.3,17-58.6,27.7c-19.6,11.5-39.9,23.4-63.6,29.3c-29.1,9.5-65.3,9.7-99.3,0.8c-51.8-8.2-89.5-26.9-129.4-46.7
		c-17.9-8.9-36.4-18.1-56.5-26.4c-42.5-20.9-75.3-29.7-106.5-28.4c-30.5,0.9-65.8,15-99.4,39.7c-36.2,25.6-64.9,55-90.2,81
		c-31,31.9-57.8,59.4-91.4,74.5c-34.7,7-61.8-8.1-93.1-25.7c-9.1-5.1-18.6-10.4-28.8-15.5l-0.1,0c-6.9-0.6-14.1-1.4-21.7-2.2
		c-24.8-2.5-52.9-5.4-77.7-5c-46.8-0.6-82.8-5.7-117.6-10.7c-21.6-3.1-43.9-6.2-68.3-8.2l-0.1,0.5c24.3,2,46.7,5.1,68.2,8.2
		c34.8,4.9,70.8,10,117.7,10.7c24.8-0.4,52.9,2.5,77.6,5c7.6,0.8,14.7,1.5,21.6,2.1c10.2,5.1,19.6,10.4,28.8,15.5
		c31.5,17.6,58.7,32.8,93.6,25.7l0.1,0c33.7-15.2,60.5-42.7,91.6-74.7c25.3-25.9,53.9-55.3,90.1-80.9c33.6-24.7,68.8-38.8,99.1-39.6
		c31-1.3,63.8,7.4,106.2,28.3c20.1,8.3,38.6,17.5,56.4,26.4c39.9,19.8,77.7,38.6,129.5,46.7c34.1,9,70.4,8.7,99.7-0.8
		c23.8-5.8,44.1-17.8,63.8-29.3c18.3-10.7,37.2-21.8,58.5-27.7c64.3-31.2,102.8-42.2,181.7-61.6l12.5-3.1
		c27.1-6.7,57.9-14.3,86.7-21.1c35.3-9.5,70.1-16.7,106.2-22.2L1618.7,160.4z"/>
	<path style="clip-path:url(#SVGID_00000060718299048883765400000003207178084016160187_);fill:#73BF44;" d="M1605.5,156.4
		c-38,3.3-72.5,8.6-105.6,16.1c-30.4,6-66.2,14.5-98.2,23.2c-79.5,21.5-116,37.1-179,70.4c-19.4,6.2-37,16.7-54,26.8
		c-19.4,11.6-39.5,23.5-62.8,29.6c-28.8,9.7-64.7,10.7-98.4,2.8c-53.1-7.5-91.5-25.9-132.1-45.4c-18-8.6-36.6-17.6-56.9-25.7
		c-26.2-12.3-65.7-28.6-105.8-27.3c-30.4,0.5-65.4,13.5-98.5,36.4c-38,25.3-67.3,54.8-93.2,80.8c-27.9,28-54.2,54.4-85.7,70.1
		c-33.9,8.7-60-2.9-92.9-17.6c-7.5-3.3-15.2-6.8-23.4-10.2l-0.1,0c-12.6-0.3-26-1-40.3-1.8c-19.4-1.1-39.5-2.2-58.2-2.1
		c-49.8-1-87.7-7.8-124.3-14.4c-20.5-3.7-41.6-7.5-64.7-10.2l-0.1,0.5c23,2.8,44.2,6.6,64.7,10.2c36.7,6.6,74.6,13.4,124.4,14.4
		c18.6-0.1,38.7,1,58.1,2.1c14.2,0.8,27.7,1.6,40.2,1.8c8.2,3.4,15.9,6.8,23.4,10.1c33.1,14.7,59.2,26.4,93.5,17.6
		c31.7-15.8,58.1-42.2,85.9-70.2c25.8-26,55.1-55.4,93.1-80.7c33-22.9,67.9-35.8,98.1-36.3c40-1.3,79.4,15,105.5,27.3
		c20.3,8.1,38.9,17,56.9,25.7c40.7,19.5,79.1,38,132.3,45.5c33.8,7.9,69.8,6.9,98.7-2.9c23.3-6.1,43.4-18,62.9-29.6
		c17-10.1,34.5-20.6,53.9-26.8c63-33.3,99.5-48.9,178.9-70.4c32-8.7,67.7-17.1,98.2-23.1c33.1-7.5,67.6-12.8,105.5-16.1
		L1605.5,156.4z"/>
	<path style="clip-path:url(#SVGID_00000060718299048883765400000003207178084016160187_);fill:#73BF44;" d="M1592.3,152.4
		c-39.1,0.8-73.4,4.1-105,10c-31.2,5-66.6,13-97.2,22.1c-78.2,23.1-113.5,43.3-171.9,76.7l-4.4,2.5c-17.3,6.5-33.4,16.2-48.9,25.6
		c-19.3,11.7-39.3,23.8-62.3,30.2c-28.9,10.1-63.5,11.9-97.4,4.9c-54.3-6.8-93.4-24.9-134.8-44.1c-18.2-8.4-36.9-17.1-57.3-25
		c-41.3-18.6-74.7-26.9-105.2-26.3c-30.4,0.2-65,11.9-97.5,33.1c-40,25.1-70,54.6-96.4,80.7c-25.9,25.5-50.3,49.5-79.7,65.6
		c-33.7,10.8-60.5,2.1-94.5-9c-5.3-1.7-10.7-3.5-16.3-5.2l-0.1,0l-0.1,0c-19,1-40.8,0.5-61.9,0c-11.8-0.3-24.1-0.6-35.6-0.6
		c-52.3-1.3-90-9.5-129.9-18.2c-19.7-4.3-40.1-8.7-62.2-12.2l-0.1,0.5c22.2,3.5,42.5,7.9,62.2,12.2c39.9,8.7,77.7,16.9,130,18.2
		c11.5,0,23.7,0.3,35.6,0.6c21.1,0.5,42.8,1,61.9,0c5.6,1.7,11,3.5,16.3,5.2c34.1,11.1,61,19.9,95,8.9c29.6-16.1,54-40.2,79.9-65.7
		c26.5-26,56.4-55.6,96.4-80.6c32.4-21.1,66.9-32.8,97.2-33c30.4-0.6,63.7,7.7,104.9,26.3c20.4,7.8,39.2,16.5,57.3,25
		c41.4,19.2,80.6,37.4,135,44.2c34,7,68.7,5.2,97.8-4.9c23-6.3,43.1-18.5,62.4-30.2c15.5-9.4,31.5-19.1,48.8-25.6l4.4-2.5
		c58.4-33.4,93.6-53.5,171.8-76.6c30.6-9.1,66-17.2,97.2-22.1c31.6-5.9,65.9-9.2,104.9-10L1592.3,152.4z"/>
	<path style="clip-path:url(#SVGID_00000060718299048883765400000003207178084016160187_);fill:#73BF44;" d="M1544.9,147.6
		c-25.6,0-48.5,1.6-70.2,4.7c-31.8,3.8-66,11.3-96.3,21.1c-68.2,21.9-104,44.4-149.4,72.9c-7.7,4.8-15.7,9.8-24.2,15.1
		c-15,6.6-29.3,15.4-43.2,24c-19.4,12-39.5,24.5-62.4,31.2c-28.6,10.4-62.9,12.8-96.5,6.9c-55.6-6.1-95.4-23.9-137.5-42.8
		c-18.3-8.2-37.2-16.7-57.8-24.3c-40.3-17.2-73.1-25.3-103.1-25.3c-0.5,0-1,0-1.5,0c-30.3-0.1-64.6,10.4-96.5,29.8
		c-42.2,24.7-71.6,53.2-100,80.7c-23.8,23-46.3,44.7-73.5,60.9c-34.3,13.6-63,7.8-99.3,0.5c-2-0.4-4-0.8-6-1.2l-0.1,0l-0.1,0
		c-27.6,3.4-59.4,3.1-90.2,2.7l-6.3-0.1c-54.5-1.6-93.5-11.5-134.7-22c-19.2-4.9-39-9.9-60.6-14.1l-0.1,0.5
		c21.6,4.2,41.4,9.2,60.5,14.1c41.3,10.5,80.3,20.4,134.9,22.1l6.3,0.1c30.8,0.3,62.6,0.7,90.2-2.7c2,0.4,4,0.8,5.9,1.2
		c36.4,7.3,65.2,13.1,99.8-0.6c27.3-16.2,49.8-38,73.6-61c28.4-27.5,57.8-55.9,99.9-80.6c31.8-19.3,66-29.8,96.2-29.7
		c30.3-0.3,63.4,7.8,104.3,25.2c20.6,7.6,39.5,16.1,57.8,24.3c42.2,18.9,82,36.7,137.7,42.8c33.7,5.9,68.1,3.5,96.8-7
		c23-6.7,43.1-19.2,62.6-31.3c13.8-8.5,28.1-17.4,43.1-24c8.5-5.3,16.5-10.2,24.2-15.1c45.3-28.4,81.1-50.9,149.2-72.8
		c30.3-9.8,64.4-17.3,96.2-21.1c30.9-4.5,64-5.7,104.2-3.9l0-0.5C1567.1,147.8,1555.8,147.6,1544.9,147.6"/>
	<path style="clip-path:url(#SVGID_00000060718299048883765400000003207178084016160187_);fill:#73BF44;" d="M1500.7,140.3
		c-13.5,0-26.2,0.6-38.5,1.9c-31.7,2.5-65.6,9.7-95.3,20.1c-62.4,21.7-96.9,45.7-136.9,73.5c-10.7,7.4-21.8,15.1-33.9,23.2
		c-12.4,6.3-24.6,14-36.3,21.5c-19.9,12.7-40.5,25.8-63.7,33c-28.3,10.7-62.3,13.8-95.5,9c-56.9-5.4-97.4-22.9-140.2-41.5
		c-18.4-8-37.5-16.2-58.2-23.6c-40.6-16.5-73.6-24.2-103.9-24.3c-30.4-0.5-64.3,8.9-95.6,26.4c-44.7,24.4-74.8,53.1-104,80.9
		c-21.6,20.6-42,40-66.8,56.1c-33.8,16.3-63.9,15.5-99.8,12.8l0,0l0,0c-24.5,4.8-54.8,6.7-95.5,6c-56.4-2-96.5-13.6-139-25.9
		c-18.8-5.5-38.3-11.1-59.4-15.9l-0.2,0.5c21.2,4.8,40.6,10.5,59.4,15.9c42.5,12.3,82.7,24,139.2,26c40.7,0.8,71-1.1,95.6-6
		c36,2.7,66.2,3.5,100.1-12.9c24.8-16.1,45.3-35.5,66.9-56.1c29.1-27.7,59.3-56.4,103.8-80.8c31.1-17.5,65-26.8,95.3-26.3
		c30.2,0.1,63.2,7.8,103.7,24.2c20.8,7.4,39.8,15.6,58.2,23.6c42.9,18.6,83.4,36.1,140.4,41.5c33.4,4.9,67.4,1.7,95.8-9
		c23.3-7.3,43.9-20.4,63.9-33.1c11.7-7.5,23.9-15.2,36.3-21.5c12.2-8.1,23.3-15.8,34-23.2c39.9-27.8,74.3-51.7,136.7-73.4
		c29.7-10.4,63.5-17.6,95.2-20.1c30.1-3.1,63-2.4,103.6,2.2l0.1-0.5C1541.8,141.6,1520.4,140.3,1500.7,140.3"/>
	<path style="clip-path:url(#SVGID_00000060718299048883765400000003207178084016160187_);fill:#73BF44;" d="M1467.9,131.5
		c-6.2,0-12.3,0.2-18.2,0.5c-31.6,1.2-65.1,8-94.4,19.1c-58.8,22-91.2,47-128.8,76c-12.3,9.5-25,19.3-39.3,29.4
		c-9.1,5.4-18.3,11.5-27.2,17.4c-21.1,13.9-42.8,28.4-67.2,36.5c-28.1,10.9-61.7,14.8-94.6,11c-58.2-4.7-99.4-21.9-143-40.1
		c-18.6-7.8-37.7-15.8-58.7-23c-39.6-15.2-73.4-22.8-103.3-23.3c-30.5-0.8-64.1,7.4-94.6,23.1c-47.5,24-78.4,53.2-108.3,81.3
		c-19.3,18.2-37.6,35.4-59.7,50.9c-27.6,16.1-54.9,23.7-94.2,26.3c-25.9,7.1-58.6,10.3-94.6,9.2c-58.1-2.3-99.3-15.7-142.9-29.9
		c-18.6-6-37.8-12.3-58.7-17.7l-0.2,0.5c20.9,5.5,40.1,11.7,58.7,17.7c43.6,14.2,84.9,27.6,143.1,29.9c36,1,68.8-2.2,94.7-9.3
		c39.4-2.6,66.8-10.2,94.5-26.4c22.2-15.5,40.5-32.8,59.8-51c29.9-28.2,60.8-57.3,108.2-81.3c30.4-15.7,63.9-23.9,94.3-23
		c29.8,0.4,63.5,8,103.1,23.2c20.9,7.2,40.1,15.2,58.6,22.9c43.6,18.2,84.9,35.5,143.1,40.2c33,3.8,66.7-0.1,94.9-11.1
		c24.5-8.2,46.3-22.6,67.4-36.6c8.9-5.9,18.1-12,27.2-17.4c14.3-10.2,27-20,39.3-29.5c37.5-29,69.9-54,128.6-75.9
		c29.2-11.1,62.7-17.8,94.2-19.1c29.5-1.8,62.2,0.8,102.9,8.3l0.1-0.5C1520.2,134.4,1492.7,131.5,1467.9,131.5"/>
	<path style="clip-path:url(#SVGID_00000060718299048883765400000003207178084016160187_);fill:#73BF44;" d="M1441.3,121.9
		c-1.4,0-2.8,0-4.2,0h-0.3c-31.3,0-64.4,6.4-93.1,18.1c-56.3,22.5-88.7,50.2-123.1,79.5c-13.2,11.3-26.8,22.9-42.3,34.7
		c-4.2,2.9-8.6,6-12.7,9c-23.9,16.9-48.5,34.4-76.2,44.4c-27.8,11.2-61.1,15.8-93.6,13.1c-59.5-4-101.4-20.9-145.7-38.8
		c-18.7-7.5-38-15.3-59.1-22.3c-39.1-14.2-72.7-21.4-102.6-22.2c-30.6-1.2-63.9,5.8-93.6,19.8c-50.7,23.5-82.4,53.3-113.1,82.2
		c-16.2,15.2-32.9,30.9-52.2,45.5c-28,19.8-56.2,32.5-88.7,39.9c-27.1,9.5-59.5,13.8-93.5,12.5c-59.7-2.7-101.9-17.8-146.5-33.8
		c-18.4-6.6-37.5-13.5-58.3-19.6l-0.2,0.5c20.7,6.1,39.8,12.9,58.2,19.5c44.7,16,86.9,31.2,146.7,33.8c34.1,1.3,66.6-3.1,93.8-12.6
		c32.6-7.4,60.8-20.1,88.9-39.9c19.3-14.6,36.1-30.3,52.2-45.5c30.7-28.8,62.4-58.6,113-82.1c29.7-13.9,62.8-20.9,93.3-19.7
		c29.9,0.8,63.4,8.1,102.4,22.2c21.1,7,40.4,14.8,59.1,22.3c44.4,17.9,86.3,34.8,145.9,38.8c32.7,2.8,66-1.9,93.9-13.1
		c27.7-10,52.4-27.5,76.3-44.4c4.2-3,8.5-6,12.7-9c15.5-11.8,29.1-23.4,42.3-34.7c34.3-29.3,66.7-56.9,122.9-79.4
		c28.6-11.7,61.6-18.1,92.9-18.1h0.3c29.1-0.5,61.6,4.1,102.3,14.4l0.2-0.5C1500.7,126.5,1469.4,121.9,1441.3,121.9"/>
	<path style="clip-path:url(#SVGID_00000060718299048883765400000003207178084016160187_);fill:#73BF44;" d="M1416,111.7
		c-28.6,0-58.1,6-84,17.3c-54.4,23.3-85.6,52.6-118.7,83.7c-13.7,12.9-27.8,26.1-44,39.3c-22,18-51.3,40.2-83.4,52.7
		c-27.6,11.5-60.5,16.9-92.7,15.1c-60.8-3.3-103.4-19.9-148.4-37.4c-18.8-7.3-38.3-14.9-59.5-21.7c-38.6-13.1-71.9-20-102-21.2
		c-30.9-1.6-63.8,4.3-92.7,16.4c-54.3,23-85.4,52.3-118.4,83.4c-13.7,12.9-27.9,26.3-44.2,39.5c-28.8,24.7-56.1,42.2-83.2,53.4
		c-27.8,11.8-59.8,17.3-92.5,15.8c-61.3-3-104.3-19.9-149.9-37.8c-18.4-7.2-37.4-14.6-58.1-21.4l-0.2,0.4
		c20.7,6.7,39.7,14.1,58,21.3c45.6,17.9,88.7,34.8,150.1,37.8c32.8,1.5,64.9-4,92.8-15.9c27.2-11.2,54.5-28.7,83.4-53.5
		c16.2-13.2,30.5-26.6,44.2-39.6c33-31.1,64.1-60.4,118.3-83.3c28.8-12.1,61.6-17.9,92.4-16.4c30,1.2,63.3,8.1,101.8,21.2
		c21.2,6.7,40.7,14.3,59.5,21.7c45.1,17.6,87.7,34.2,148.6,37.5c32.3,1.7,65.3-3.7,93-15.2c32.1-12.5,61.5-34.8,83.5-52.8
		c16.2-13.2,30.3-26.5,44-39.3c33-31,64.1-60.3,118.5-83.6c28.3-12.3,61.1-18.4,92.2-17.1c28.8,0.8,61.1,7.3,101.7,20.5l0.2-0.4
		c-40.7-13.2-73-19.7-101.8-20.5C1421.7,111.7,1418.9,111.7,1416,111.7"/>
</g>
<path class="st2" d="M72.9,6.4V0c-8.5,0-15.4,6.7-15.4,15v15h15.4V15h-8.8C64.1,10.3,68.1,6.4,72.9,6.4z M40.6,15v15H56V15h-8.8
	c0-4.7,3.9-8.6,8.8-8.6V0C47.5,0,40.6,6.7,40.6,15z"/>
</svg>
