<?xml version="1.0" encoding="utf-8"?>
<!-- Generator: Adobe Illustrator 26.4.0, SVG Export Plug-In . SVG Version: 6.00 Build 0)  -->
<svg version="1.1" id="Layer_1" xmlns="http://www.w3.org/2000/svg" xmlns:xlink="http://www.w3.org/1999/xlink" x="0px" y="0px"
	 viewBox="0 0 400 190.7" style="enable-background:new 0 0 400 190.7;" xml:space="preserve">
<style type="text/css">
	.st0{fill:#076AAA;}
	.st1{fill:#4E4E50;}
	.st2{filter:url(#Adobe_OpacityMaskFilter);}
	.st3{fill:url(#SVGID_00000059293877321046905310000000892308784569576070_);}
	.st4{mask:url(#SVGID_1_);}
	.st5{clip-path:url(#SVGID_00000088849576177310991820000002418413219597325709_);fill:#939598;}
	.st6{fill:none;stroke:#FFFFFF;}
	.st7{filter:url(#Adobe_OpacityMaskFilter_00000147908686281162702750000013064024564573461659_);}
	.st8{fill:url(#SVGID_00000049937882918330848340000012946629532017026197_);}
	.st9{mask:url(#SVGID_00000054978970221017056680000014440692274890638257_);}
	.st10{clip-path:url(#SVGID_00000055675402064897219370000010865582515005844636_);fill:#076AAA;}
	.st11{filter:url(#Adobe_OpacityMaskFilter_00000129927995400962459720000010022512693957355651_);}
	.st12{fill:url(#SVGID_00000168077396238172056140000004259168215748796340_);}
	.st13{mask:url(#SVGID_00000049209595373710584020000015031586994111230888_);}
	.st14{clip-path:url(#SVGID_00000149353865233246774140000017066635514140302221_);fill:#939598;}
	.st15{filter:url(#Adobe_OpacityMaskFilter_00000102514821266828035090000012211778109957026723_);}
	.st16{fill:url(#SVGID_00000167396077427300142690000000630900314434963354_);}
	.st17{mask:url(#SVGID_00000127766765317119555010000000665199282749254328_);}
	.st18{clip-path:url(#SVGID_00000012437554958644450520000010957368064177345682_);fill:#939598;}
	.st19{filter:url(#Adobe_OpacityMaskFilter_00000021103295353028293410000009088240236037584535_);}
	.st20{fill:url(#SVGID_00000150077488671205584000000009256925110262151810_);}
	.st21{mask:url(#SVGID_00000028316429945207876650000013796330024463772850_);}
	.st22{clip-path:url(#SVGID_00000098905972969963086780000010736706725560634795_);fill:#939598;}
	.st23{filter:url(#Adobe_OpacityMaskFilter_00000132047224532602031490000015324782574953172376_);}
	.st24{fill:url(#SVGID_00000032644505181937430790000003291803159789992873_);}
	.st25{mask:url(#SVGID_00000010994751301388979140000004684925024403784832_);}
	.st26{clip-path:url(#SVGID_00000154386659083737685760000001302987473605313209_);fill:#939598;}
</style>
<g>
	<g>
		<g>
			<g>
				<path class="st0" d="M3.2,175.5v-7.8H0.4v-1h6.7v1H4.3v7.8H3.2z"/>
				<path class="st0" d="M11.7,175.5v-0.7c-0.5,0.6-1.3,0.9-2.1,0.9c-1.1,0-2.2-0.7-2.2-2.1c0-1.4,1.1-2.1,2.2-2.1
					c0.9,0,1.6,0.3,2.1,0.9v-1.1c0-0.9-0.7-1.3-1.6-1.3c-0.8,0-1.4,0.3-1.9,0.9L7.7,170c0.7-0.7,1.5-1.1,2.5-1.1
					c1.3,0,2.5,0.6,2.5,2.1v4.4H11.7z M11.7,174.2V173c-0.4-0.5-1.1-0.8-1.8-0.8c-0.9,0-1.6,0.6-1.6,1.4c0,0.8,0.6,1.4,1.6,1.4
					C10.7,175,11.4,174.7,11.7,174.2z"/>
				<path class="st0" d="M14.9,175.5v-6.4h1v1c0.5-0.7,1.3-1.2,2.1-1.2v1c-0.1,0-0.2,0-0.4,0c-0.6,0-1.4,0.5-1.7,1v4.5H14.9z"/>
				<path class="st0" d="M19.4,177.1l0.5-0.7c0.5,0.6,1.2,0.9,2.1,0.9c1.1,0,2-0.5,2-1.9v-0.9c-0.5,0.6-1.2,1.1-2.1,1.1
					c-1.7,0-2.8-1.2-2.8-3.3c0-2,1.2-3.3,2.8-3.3c0.9,0,1.6,0.4,2.1,1.1v-1h1v6.2c0,2.1-1.5,2.8-3,2.8
					C20.9,178.1,20.2,177.9,19.4,177.1z M24,173.7v-2.8c-0.3-0.6-1.1-1-1.9-1c-1.3,0-2,1-2,2.4c0,1.4,0.8,2.4,2,2.4
					C22.9,174.7,23.7,174.2,24,173.7z"/>
				<path class="st0" d="M26.8,172.3c0-1.8,1.3-3.3,3.1-3.3c1.9,0,3.1,1.5,3.1,3.4v0.2h-5.1c0.1,1.2,0.9,2.2,2.3,2.2
					c0.7,0,1.5-0.3,2-0.8l0.5,0.6c-0.6,0.6-1.5,1-2.5,1C28.2,175.7,26.8,174.3,26.8,172.3z M30,169.8c-1.4,0-2,1.1-2.1,2.1h4.2
					C32,171,31.4,169.8,30,169.8z"/>
				<path class="st0" d="M35,174.2V170H34v-0.9H35v-1.7h1v1.7h1.3v0.9H36v4c0,0.5,0.2,0.8,0.6,0.8c0.3,0,0.5-0.1,0.7-0.3l0.3,0.7
					c-0.2,0.2-0.6,0.4-1.2,0.4C35.5,175.7,35,175.1,35,174.2z"/>
				<path class="st0" d="M38.4,172.3c0-1.8,1.3-3.3,3.1-3.3c1.9,0,3.1,1.5,3.1,3.4v0.2h-5.1c0.1,1.2,0.9,2.2,2.3,2.2
					c0.7,0,1.5-0.3,2-0.8l0.5,0.6c-0.6,0.6-1.5,1-2.5,1C39.8,175.7,38.4,174.3,38.4,172.3z M41.5,169.8c-1.4,0-2,1.1-2.1,2.1h4.2
					C43.6,171,43,169.8,41.5,169.8z"/>
				<path class="st0" d="M51.1,175.5v-0.9c-0.5,0.6-1.3,1.1-2.1,1.1c-1.7,0-2.8-1.3-2.8-3.3c0-2,1.2-3.3,2.8-3.3
					c0.9,0,1.6,0.4,2.1,1.1v-3.4h1v8.8H51.1z M51.1,173.8v-2.9c-0.4-0.6-1.1-1-1.9-1c-1.3,0-2,1.1-2,2.5s0.8,2.4,2,2.4
					C49.9,174.8,50.7,174.3,51.1,173.8z"/>
			</g>
			<path class="st0" d="M2.7,189.6v-1c3.3-2.5,4.8-3.8,4.8-5.2c0-1-0.9-1.5-1.7-1.5c-1.1,0-1.9,0.4-2.4,1.1L2.7,182
				c0.7-0.9,1.9-1.4,3.1-1.4c1.6,0,3.1,0.9,3.1,2.6c0,1.7-1.6,3.3-4.1,5.1h4.1v1.2H2.7z M13.9,180.6c2.4,0,3.4,2.4,3.4,4.5
				s-1,4.5-3.4,4.5c-2.4,0-3.5-2.4-3.5-4.5S11.4,180.6,13.9,180.6z M13.9,181.8c-1.6,0-2.1,1.6-2.1,3.4c0,1.7,0.5,3.4,2.1,3.4
				c1.5,0,2.1-1.7,2.1-3.4C15.9,183.5,15.4,181.8,13.9,181.8z M18.6,189.6v-1c3.3-2.5,4.8-3.8,4.8-5.2c0-1-0.9-1.5-1.7-1.5
				c-1.1,0-1.9,0.4-2.4,1.1l-0.8-0.9c0.7-0.9,1.9-1.4,3.1-1.4c1.6,0,3.1,0.9,3.1,2.6c0,1.7-1.6,3.3-4.1,5.1h4.1v1.2H18.6z
				 M30.2,189.6v-2.1H26v-1.1l3.7-5.6h1.8v5.5h1.2v1.2h-1.2v2.1H30.2z M30.2,182l-2.9,4.3h2.9V182z M34.2,186.9v-1h3.2v1H34.2z
				 M38.4,189.6v-1c3.3-2.5,4.8-3.8,4.8-5.2c0-1-0.9-1.5-1.7-1.5c-1.1,0-1.9,0.4-2.4,1.1l-0.8-0.9c0.7-0.9,1.9-1.4,3.1-1.4
				c1.6,0,3.1,0.9,3.1,2.6c0,1.7-1.6,3.3-4.1,5.1h4.1v1.2H38.4z M47.1,187.4c0.6,0.7,1.4,1.1,2.4,1.1c1.2,0,1.9-0.8,1.9-1.7
				c0-1.1-0.8-1.7-1.9-1.7c-0.8,0-1.4,0.2-2,0.8l-0.9-0.3v-4.8h5.6v1.2h-4.2v2.8c0.4-0.4,1.1-0.8,2-0.8c1.5,0,2.8,1,2.8,2.8
				c0,1.8-1.4,2.9-3.2,2.9c-1.5,0-2.5-0.5-3.2-1.4L47.1,187.4z"/>
		</g>
		<path d="M74.2,173.7v-0.6c3-2.4,5-4.1,5-5.8c0-1.3-1-1.8-2-1.8c-1.1,0-1.9,0.5-2.4,1.1l-0.5-0.5c0.6-0.8,1.7-1.4,2.9-1.4
			c1.3,0,2.8,0.7,2.8,2.5c0,1.9-2,3.7-4.6,5.8H80v0.7H74.2z M85,164.8c2.4,0,3.2,2.4,3.2,4.5c0,2.1-0.9,4.5-3.2,4.5
			c-2.4,0-3.3-2.5-3.3-4.5C81.8,167.2,82.7,164.8,85,164.8z M85,165.4c-1.8,0-2.5,2-2.5,3.8c0,1.8,0.6,3.9,2.5,3.9s2.5-2.1,2.5-3.9
			C87.5,167.5,86.9,165.4,85,165.4z M89.7,173.7v-0.6c3-2.4,5-4.1,5-5.8c0-1.3-1-1.8-2-1.8c-1.1,0-1.9,0.5-2.4,1.1l-0.5-0.5
			c0.6-0.8,1.7-1.4,2.9-1.4c1.3,0,2.8,0.7,2.8,2.5c0,1.9-2,3.7-4.6,5.8h4.6v0.7H89.7z M100.4,173.7v-7.8l-2.1,2.2l-0.5-0.5l2.6-2.8
			h0.7v8.8H100.4z M104.2,170.8v-0.6h3.2v0.6H104.2z M108.3,173.7v-0.6c3-2.4,5-4.1,5-5.8c0-1.3-1-1.8-2-1.8c-1.1,0-1.9,0.5-2.4,1.1
			l-0.5-0.5c0.6-0.8,1.7-1.4,2.9-1.4c1.3,0,2.8,0.7,2.8,2.5c0,1.9-2,3.7-4.6,5.8h4.6v0.7H108.3z M116.1,173.7v-0.6
			c3-2.4,5-4.1,5-5.8c0-1.3-1-1.8-2-1.8c-1.1,0-1.9,0.5-2.4,1.1l-0.5-0.5c0.6-0.8,1.7-1.4,2.9-1.4c1.3,0,2.8,0.7,2.8,2.5
			c0,1.9-2,3.7-4.6,5.8h4.6v0.7H116.1z"/>
		<path d="M143.8,173.7v-0.6c3-2.4,5-4.1,5-5.8c0-1.3-1-1.8-2-1.8c-1.1,0-1.9,0.5-2.4,1.1l-0.5-0.5c0.6-0.8,1.7-1.4,2.9-1.4
			c1.3,0,2.8,0.7,2.8,2.5c0,1.9-2,3.7-4.6,5.8h4.6v0.7H143.8z M154.6,164.8c2.4,0,3.2,2.4,3.2,4.5c0,2.1-0.9,4.5-3.2,4.5
			c-2.4,0-3.3-2.5-3.3-4.5C151.4,167.2,152.2,164.8,154.6,164.8z M154.6,165.4c-1.8,0-2.5,2-2.5,3.8c0,1.8,0.6,3.9,2.5,3.9
			c1.8,0,2.5-2.1,2.5-3.9C157.1,167.5,156.5,165.4,154.6,165.4z M159.3,173.7v-0.6c3-2.4,5-4.1,5-5.8c0-1.3-1-1.8-2-1.8
			c-1.1,0-1.9,0.5-2.4,1.1l-0.5-0.5c0.6-0.8,1.7-1.4,2.9-1.4c1.3,0,2.8,0.7,2.8,2.5c0,1.9-2,3.7-4.6,5.8h4.6v0.7H159.3z
			 M170.1,164.8c2.4,0,3.2,2.4,3.2,4.5c0,2.1-0.9,4.5-3.2,4.5c-2.4,0-3.3-2.5-3.3-4.5C166.9,167.2,167.8,164.8,170.1,164.8z
			 M170.1,165.4c-1.8,0-2.5,2-2.5,3.8c0,1.8,0.6,3.9,2.5,3.9c1.8,0,2.5-2.1,2.5-3.9C172.6,167.5,172,165.4,170.1,165.4z
			 M175.1,170.8v-0.6h3.2v0.6H175.1z M179.2,173.7v-0.6c3-2.4,5-4.1,5-5.8c0-1.3-1-1.8-2-1.8c-1.1,0-1.9,0.5-2.4,1.1l-0.5-0.5
			c0.6-0.8,1.7-1.4,2.9-1.4c1.3,0,2.8,0.7,2.8,2.5c0,1.9-2,3.7-4.6,5.8h4.6v0.7H179.2z M189.9,173.7v-7.8l-2.1,2.2l-0.5-0.5l2.6-2.8
			h0.7v8.8H189.9z"/>
		<path d="M215.7,173.7v-0.6c3-2.4,5-4.1,5-5.8c0-1.3-1-1.8-2-1.8c-1.1,0-1.9,0.5-2.4,1.1l-0.5-0.5c0.6-0.8,1.7-1.4,2.9-1.4
			c1.3,0,2.8,0.7,2.8,2.5c0,1.9-2,3.7-4.6,5.8h4.6v0.7H215.7z M226.6,164.8c2.4,0,3.2,2.4,3.2,4.5c0,2.1-0.9,4.5-3.2,4.5
			c-2.4,0-3.3-2.5-3.3-4.5C223.3,167.2,224.2,164.8,226.6,164.8z M226.6,165.5c-1.8,0-2.5,2-2.5,3.8c0,1.8,0.6,3.9,2.5,3.9
			c1.8,0,2.5-2.1,2.5-3.9C229,167.5,228.4,165.5,226.6,165.5z M234.4,173.7v-7.8l-2.1,2.2l-0.5-0.5l2.6-2.8h0.7v8.8H234.4z
			 M239,172.2c0.4,0.6,1,1,1.9,1c1.9,0,2.6-2,2.6-3.9c0-0.1,0-0.3,0-0.4c-0.4,0.6-1.4,1.5-2.6,1.5c-1.6,0-2.8-0.9-2.8-2.8
			c0-1.4,1.1-2.8,3-2.8c2.4,0,3.2,2.2,3.2,4.5c0,2.3-0.9,4.5-3.4,4.5c-1.1,0-1.8-0.5-2.4-1.1L239,172.2z M241.1,165.4
			c-1.5,0-2.2,1.2-2.2,2.1c0,1.4,0.9,2.1,2.2,2.1c1,0,1.9-0.6,2.4-1.5C243.4,167,242.8,165.4,241.1,165.4z M246.1,170.8v-0.6h3.2
			v0.6H246.1z M250.3,173.7v-0.6c3-2.4,5-4.1,5-5.8c0-1.3-1-1.8-2-1.8c-1.1,0-1.9,0.5-2.4,1.1l-0.5-0.5c0.6-0.8,1.7-1.4,2.9-1.4
			c1.3,0,2.8,0.7,2.8,2.5c0,1.9-2,3.7-4.6,5.8h4.6v0.7H250.3z M261.1,164.8c2.4,0,3.2,2.4,3.2,4.5c0,2.1-0.9,4.5-3.2,4.5
			c-2.4,0-3.3-2.5-3.3-4.5C257.9,167.2,258.8,164.8,261.1,164.8z M261.1,165.5c-1.8,0-2.5,2-2.5,3.8c0,1.8,0.6,3.9,2.5,3.9
			c1.8,0,2.5-2.1,2.5-3.9C263.6,167.5,263,165.5,261.1,165.5z"/>
		<path d="M287.3,173.7v-0.6c3-2.4,5-4.1,5-5.8c0-1.3-1-1.8-2-1.8c-1.1,0-1.9,0.5-2.4,1.1l-0.5-0.5c0.6-0.8,1.7-1.4,2.9-1.4
			c1.3,0,2.8,0.7,2.8,2.5c0,1.9-2,3.7-4.6,5.8h4.6v0.7H287.3z M298.1,164.8c2.4,0,3.2,2.4,3.2,4.5c0,2.1-0.9,4.5-3.2,4.5
			s-3.3-2.5-3.3-4.5C294.8,167.2,295.7,164.8,298.1,164.8z M298.1,165.4c-1.8,0-2.5,2-2.5,3.8c0,1.8,0.6,3.9,2.5,3.9
			c1.8,0,2.5-2.1,2.5-3.9C300.5,167.5,300,165.4,298.1,165.4z M306,173.7v-7.8l-2.1,2.2l-0.5-0.5l2.6-2.8h0.7v8.8H306z M313.2,164.8
			c1.1,0,1.9,0.5,2.4,1.1l-0.4,0.6c-0.4-0.6-1-1-1.9-1c-1.9,0-2.6,2-2.6,3.9c0,0.1,0,0.3,0,0.4c0.4-0.6,1.4-1.5,2.6-1.5
			c1.6,0,2.8,0.9,2.8,2.8c0,1.4-1.1,2.8-3,2.8c-2.4,0-3.2-2.2-3.2-4.5C309.8,167,310.8,164.8,313.2,164.8z M313.1,168.9
			c-1,0-1.9,0.6-2.4,1.5c0.1,1.2,0.7,2.7,2.4,2.7c1.5,0,2.2-1.2,2.2-2.1C315.3,169.6,314.3,168.9,313.1,168.9z M317.7,170.8v-0.6
			h3.2v0.6H317.7z M324.9,173.7v-7.8l-2.1,2.2l-0.5-0.5l2.6-2.8h0.7v8.8H324.9z M329.8,173.7l3.7-8.1h-4.9v-0.7h5.7v0.5l-3.7,8.3
			H329.8z"/>
		<path d="M352.9,173.7v-0.6c3-2.4,5-4.1,5-5.8c0-1.3-1-1.8-2-1.8c-1.1,0-1.9,0.5-2.4,1.1l-0.5-0.5c0.6-0.8,1.7-1.4,2.9-1.4
			c1.3,0,2.8,0.7,2.8,2.5c0,1.9-2,3.7-4.6,5.8h4.6v0.7H352.9z M363.7,164.8c2.4,0,3.2,2.4,3.2,4.5c0,2.1-0.9,4.5-3.2,4.5
			s-3.3-2.5-3.3-4.5C360.4,167.2,361.3,164.8,363.7,164.8z M363.7,165.4c-1.8,0-2.5,2-2.5,3.8c0,1.8,0.6,3.9,2.5,3.9
			s2.5-2.1,2.5-3.9C366.1,167.5,365.5,165.4,363.7,165.4z M371.6,173.7v-7.8l-2.1,2.2l-0.5-0.5l2.6-2.8h0.7v8.8H371.6z M375.8,171.9
			c0.5,0.7,1.3,1.2,2.5,1.2c1.4,0,2.2-0.7,2.2-1.9c0-1.3-1-1.8-2.4-1.8c-0.4,0-0.7,0-0.8,0v-0.7c0.1,0,0.5,0,0.8,0
			c1.2,0,2.2-0.5,2.2-1.7c0-1.1-1-1.7-2.1-1.7c-1,0-1.7,0.4-2.4,1.1l-0.5-0.5c0.6-0.8,1.6-1.3,2.9-1.3c1.5,0,2.8,0.8,2.8,2.3
			c0,1.3-1.1,1.9-1.9,2.1c0.8,0.1,2,0.7,2,2.2c0,1.4-1.1,2.5-3,2.5c-1.4,0-2.5-0.7-3-1.5L375.8,171.9z M383,170.8v-0.6h3.2v0.6H383z
			 M390.1,173.7v-7.8l-2.1,2.2l-0.5-0.5l2.6-2.8h0.7v8.8H390.1z M398,173.7v-2.4h-4.2v-0.7l3.9-5.7h1v5.7h1.3v0.7h-1.3v2.4H398z
			 M398,165.6l-3.4,5h3.4V165.6z"/>
	</g>
	<g>
		<path class="st1" d="M371.2,14.8v-0.7c3.2-2.6,5.3-4.4,5.3-6.2c0-1.3-1.1-1.9-2.1-1.9c-1.2,0-2.1,0.5-2.6,1.2l-0.5-0.5
			c0.7-0.9,1.8-1.4,3.1-1.4c1.4,0,2.9,0.8,2.9,2.6c0,2.1-2.2,3.9-4.9,6.1h4.9v0.7H371.2z M382.6,14.8V6.5l-2.2,2.4l-0.5-0.5l2.8-2.9
			h0.7v9.4H382.6z M390,5.2c2.5,0,3.5,2.6,3.5,4.8c0,2.2-0.9,4.8-3.5,4.8c-2.5,0-3.5-2.6-3.5-4.8C386.5,7.8,387.5,5.2,390,5.2z
			 M390,6c-2,0-2.6,2.2-2.6,4.1c0,1.9,0.6,4.1,2.6,4.1c2,0,2.6-2.2,2.6-4.1C392.6,8.1,392,6,390,6z"/>
		<defs>
			<filter id="Adobe_OpacityMaskFilter" filterUnits="userSpaceOnUse" x="365.6" y="129.6" width="24" height="35.7">
				<feColorMatrix  type="matrix" values="1 0 0 0 0  0 1 0 0 0  0 0 1 0 0  0 0 0 1 0"/>
			</filter>
		</defs>
		<mask maskUnits="userSpaceOnUse" x="365.6" y="129.6" width="24" height="35.7" id="SVGID_1_">
			<g class="st2">
				
					<linearGradient id="SVGID_00000038390210943945780450000012737717456854965398_" gradientUnits="userSpaceOnUse" x1="-122.3601" y1="450.0485" x2="-121.5142" y2="450.0485" gradientTransform="matrix(0 15.8039 15.8039 0 -7359.5464 2078.1111)">
					<stop  offset="0" style="stop-color:#FFFFFF"/>
					<stop  offset="1" style="stop-color:#000000"/>
				</linearGradient>
				
					<rect x="-986" y="-124.2" style="fill:url(#SVGID_00000038390210943945780450000012737717456854965398_);" width="1477.9" height="503.5"/>
			</g>
		</mask>
		<g class="st4">
			<g>
				<defs>
					<rect id="SVGID_00000047024833367353901200000011908356244328884413_" x="365.6" y="129.6" width="24" height="35.7"/>
				</defs>
				<clipPath id="SVGID_00000125571278455960014570000005964170300766956191_">
					<use xlink:href="#SVGID_00000047024833367353901200000011908356244328884413_"  style="overflow:visible;"/>
				</clipPath>
				
					<rect x="377.9" y="137.2" style="clip-path:url(#SVGID_00000125571278455960014570000005964170300766956191_);fill:#939598;" width="10" height="20.5"/>
			</g>
		</g>
		<line class="st6" x1="382.9" y1="157.8" x2="382.9" y2="137.3"/>
	</g>
	<g>
		<defs>
			
				<filter id="Adobe_OpacityMaskFilter_00000053540337862192641890000011491231597951398037_" filterUnits="userSpaceOnUse" x="10.8" y="15.5" width="24" height="149.9">
				<feColorMatrix  type="matrix" values="1 0 0 0 0  0 1 0 0 0  0 0 1 0 0  0 0 0 1 0"/>
			</filter>
		</defs>
		
			<mask maskUnits="userSpaceOnUse" x="10.8" y="15.5" width="24" height="149.9" id="SVGID_00000174583603812996755280000017986674411796073856_">
			<g style="filter:url(#Adobe_OpacityMaskFilter_00000053540337862192641890000011491231597951398037_);">
				
					<linearGradient id="SVGID_00000116237020726338855560000003286355059666727350_" gradientUnits="userSpaceOnUse" x1="-106.6583" y1="474.4456" x2="-105.8124" y2="474.4456" gradientTransform="matrix(0 38.7696 38.7696 0 -18871.4551 4260.063)">
					<stop  offset="0" style="stop-color:#FFFFFF"/>
					<stop  offset="1" style="stop-color:#000000"/>
				</linearGradient>
				
					<rect x="-1216.4" y="-124.2" style="fill:url(#SVGID_00000116237020726338855560000003286355059666727350_);" width="1477.9" height="503.5"/>
			</g>
		</mask>
		<g style="mask:url(#SVGID_00000174583603812996755280000017986674411796073856_);">
			<g>
				<defs>
					<rect id="SVGID_00000025424449132094783860000001196222629427098017_" x="10.8" y="15.5" width="24" height="149.9"/>
				</defs>
				<clipPath id="SVGID_00000157290375264432284240000001483677980249298328_">
					<use xlink:href="#SVGID_00000025424449132094783860000001196222629427098017_"  style="overflow:visible;"/>
				</clipPath>
				
					<rect x="23" y="23.1" style="clip-path:url(#SVGID_00000157290375264432284240000001483677980249298328_);fill:#076AAA;" width="10" height="134.7"/>
			</g>
		</g>
		<line class="st6" x1="28" y1="157.8" x2="28" y2="23.1"/>
		<path class="st0" d="M12.7,14.8V8l-1.6,1.6L10,8.4l2.9-3h1.7v9.4H12.7z M18.2,16.7L17.4,16c0.4-0.2,1-0.8,1.1-1.3c0,0-0.2,0-0.3,0
			c-0.5,0-1-0.4-1-1c0-0.6,0.5-1.1,1.1-1.1c0.7,0,1.2,0.5,1.2,1.4C19.6,15.1,19,16.1,18.2,16.7z M21,13.4l1.1-1.3
			c0.6,0.7,1.7,1.1,2.6,1.1c1.1,0,1.8-0.5,1.8-1.2c0-0.7-0.6-1.1-1.9-1.1c-0.4,0-1,0-1.2,0V9.1c0.2,0,0.8,0,1.2,0c1,0,1.7-0.3,1.7-1
			c0-0.7-0.8-1.1-1.7-1.1c-0.9,0-1.7,0.3-2.4,1l-1-1.2c0.8-0.9,1.9-1.5,3.6-1.5c2.2,0,3.5,1,3.5,2.5c0,1.2-1,2-2,2.1
			c1,0.1,2.2,0.8,2.2,2.2c0,1.6-1.4,2.8-3.7,2.8C22.9,14.9,21.6,14.3,21,13.4z M29.7,13.5l1.1-1.4c0.6,0.7,1.5,1,2.5,1
			c1.1,0,1.7-0.6,1.7-1.4c0-0.8-0.6-1.4-1.7-1.4c-0.8,0-1.4,0.2-2,0.8L30,10.8V5.4h6.4v1.8H32v2.3C32.4,9,33.2,8.6,34,8.6
			c1.6,0,3,1.1,3,3c0,2-1.5,3.2-3.7,3.2C31.7,14.9,30.5,14.4,29.7,13.5z M38.3,10.1c0-2.4,1.2-4.8,3.9-4.8c2.7,0,3.9,2.4,3.9,4.8
			c0,2.4-1.2,4.8-3.9,4.8C39.5,14.9,38.3,12.5,38.3,10.1z M44,10.1C44,8.4,43.5,7,42.1,7c-1.3,0-1.8,1.3-1.8,3.1
			c0,1.7,0.5,3.1,1.8,3.1C43.5,13.2,44,11.8,44,10.1z"/>
	</g>
	<g>
		<defs>
			
				<filter id="Adobe_OpacityMaskFilter_00000067932946779215033030000007307429430543163526_" filterUnits="userSpaceOnUse" x="79.7" y="48" width="24" height="117.3">
				<feColorMatrix  type="matrix" values="1 0 0 0 0  0 1 0 0 0  0 0 1 0 0  0 0 0 1 0"/>
			</filter>
		</defs>
		
			<mask maskUnits="userSpaceOnUse" x="79.7" y="48" width="24" height="117.3" id="SVGID_00000158725080908399055460000009837494328414960546_">
			<g style="filter:url(#Adobe_OpacityMaskFilter_00000067932946779215033030000007307429430543163526_);">
				
					<linearGradient id="SVGID_00000009575546129760886480000005526173569617549216_" gradientUnits="userSpaceOnUse" x1="-108.3362" y1="471.6731" x2="-107.4903" y2="471.6731" gradientTransform="matrix(0 33.5466 33.5466 0 -16256.749 3763.6807)">
					<stop  offset="0" style="stop-color:#FFFFFF"/>
					<stop  offset="1" style="stop-color:#000000"/>
				</linearGradient>
				
					<rect x="-1172.7" y="-124.2" style="fill:url(#SVGID_00000009575546129760886480000005526173569617549216_);" width="1477.9" height="503.5"/>
			</g>
		</mask>
		<g style="mask:url(#SVGID_00000158725080908399055460000009837494328414960546_);">
			<g>
				<defs>
					<rect id="SVGID_00000108278002137731861060000005853751519638498968_" x="79.7" y="48" width="24" height="117.3"/>
				</defs>
				<clipPath id="SVGID_00000103246493168428155440000003417546731633126283_">
					<use xlink:href="#SVGID_00000108278002137731861060000005853751519638498968_"  style="overflow:visible;"/>
				</clipPath>
				
					<rect x="92" y="55.6" style="clip-path:url(#SVGID_00000103246493168428155440000003417546731633126283_);fill:#939598;" width="10" height="102.1"/>
			</g>
		</g>
		<line class="st6" x1="97" y1="157.8" x2="97" y2="55.6"/>
		<path class="st1" d="M84,14.8V6.5l-2.2,2.4l-0.5-0.5l2.8-2.9h0.7v9.4H84z M88,16.1c0.4-0.3,0.8-0.9,0.8-1.3l-0.1,0
			c-0.3,0-0.6-0.3-0.6-0.6c0-0.3,0.3-0.6,0.6-0.6c0.4,0,0.7,0.3,0.7,0.9c0,0.8-0.5,1.5-1,1.9L88,16.1z M94.2,5.2
			c2.5,0,3.5,2.6,3.5,4.8c0,2.2-0.9,4.8-3.5,4.8c-2.5,0-3.5-2.6-3.5-4.8C90.7,7.8,91.7,5.2,94.2,5.2z M94.2,6c-2,0-2.6,2.2-2.6,4.1
			c0,1.9,0.6,4.1,2.6,4.1c2,0,2.6-2.2,2.6-4.1C96.8,8.1,96.2,6,94.2,6z M102.6,14.8V6.5l-2.2,2.4l-0.5-0.5l2.8-2.9h0.7v9.4H102.6z
			 M107.8,14.8l3.9-8.6h-5.2V5.4h6.1V6l-4,8.8H107.8z"/>
	</g>
	<g>
		<defs>
			
				<filter id="Adobe_OpacityMaskFilter_00000100348486751945334310000003766598378121517468_" filterUnits="userSpaceOnUse" x="150" y="52.7" width="24" height="112.6">
				<feColorMatrix  type="matrix" values="1 0 0 0 0  0 1 0 0 0  0 0 1 0 0  0 0 0 1 0"/>
			</filter>
		</defs>
		
			<mask maskUnits="userSpaceOnUse" x="150" y="52.7" width="24" height="112.6" id="SVGID_00000037692622329028275200000002795145567421109695_">
			<g style="filter:url(#Adobe_OpacityMaskFilter_00000100348486751945334310000003766598378121517468_);">
				
					<linearGradient id="SVGID_00000175316575186078644990000002407301789738695615_" gradientUnits="userSpaceOnUse" x1="-109.7195" y1="469.9911" x2="-108.8736" y2="469.9911" gradientTransform="matrix(0 30.2198 30.2198 0 -14590.9043 3447.8782)">
					<stop  offset="0" style="stop-color:#FFFFFF"/>
					<stop  offset="1" style="stop-color:#000000"/>
				</linearGradient>
				
					<rect x="-1126.8" y="-124.2" style="fill:url(#SVGID_00000175316575186078644990000002407301789738695615_);" width="1477.9" height="503.5"/>
			</g>
		</mask>
		<g style="mask:url(#SVGID_00000037692622329028275200000002795145567421109695_);">
			<g>
				<defs>
					<rect id="SVGID_00000013890247453827633590000011639307346577916847_" x="150" y="52.7" width="24" height="112.6"/>
				</defs>
				<clipPath id="SVGID_00000067935893875688855950000009134678573703709578_">
					<use xlink:href="#SVGID_00000013890247453827633590000011639307346577916847_"  style="overflow:visible;"/>
				</clipPath>
				
					<rect x="162.3" y="60.4" style="clip-path:url(#SVGID_00000067935893875688855950000009134678573703709578_);fill:#939598;" width="10" height="97.3"/>
			</g>
		</g>
		<line class="st6" x1="167.3" y1="157.8" x2="167.3" y2="60.4"/>
		<path class="st1" d="M157.3,13.2c0.5,0.6,1,1,2.1,1c2,0,2.8-2.1,2.8-4.1c0-0.1,0-0.3,0-0.4c-0.4,0.6-1.5,1.6-2.7,1.6
			c-1.7,0-3-1-3-3c0-1.5,1.1-3,3.1-3c2.5,0,3.4,2.3,3.4,4.8c0,2.4-1,4.8-3.6,4.8c-1.2,0-2-0.5-2.5-1.2L157.3,13.2z M159.5,6
			c-1.6,0-2.4,1.2-2.4,2.2c0,1.5,1,2.3,2.3,2.3c1,0,2-0.7,2.6-1.6C161.9,7.6,161.3,6,159.5,6z M165.8,14.8l3.9-8.6h-5.2V5.4h6.1V6
			l-4,8.8H165.8z M172.6,14.8v-0.7c3.2-2.6,5.3-4.4,5.3-6.2c0-1.3-1.1-1.9-2.1-1.9c-1.2,0-2.1,0.5-2.6,1.2l-0.5-0.5
			c0.7-0.9,1.8-1.4,3.1-1.4c1.4,0,2.9,0.8,2.9,2.6c0,2.1-2.2,3.9-4.9,6.1h4.9v0.7H172.6z"/>
	</g>
	<g>
		<defs>
			
				<filter id="Adobe_OpacityMaskFilter_00000142176322022069273180000001077235299628619187_" filterUnits="userSpaceOnUse" x="222.5" y="59.3" width="24" height="106">
				<feColorMatrix  type="matrix" values="1 0 0 0 0  0 1 0 0 0  0 0 1 0 0  0 0 0 1 0"/>
			</filter>
		</defs>
		
			<mask maskUnits="userSpaceOnUse" x="222.5" y="59.3" width="24" height="106" id="SVGID_00000143610275485842288480000005238159468727359393_">
			<g style="filter:url(#Adobe_OpacityMaskFilter_00000142176322022069273180000001077235299628619187_);">
				
					<linearGradient id="SVGID_00000011720184891265214300000008990449784022658944_" gradientUnits="userSpaceOnUse" x1="-111.6807" y1="467.4554" x2="-110.8348" y2="467.4554" gradientTransform="matrix(0 26.4743 26.4743 0 -12715.7568 3092.0066)">
					<stop  offset="0" style="stop-color:#FFFFFF"/>
					<stop  offset="1" style="stop-color:#000000"/>
				</linearGradient>
				
					<rect x="-1079.2" y="-124.2" style="fill:url(#SVGID_00000011720184891265214300000008990449784022658944_);" width="1477.9" height="503.5"/>
			</g>
		</mask>
		<g style="mask:url(#SVGID_00000143610275485842288480000005238159468727359393_);">
			<g>
				<defs>
					<rect id="SVGID_00000070086899227972306700000011946144749923184809_" x="222.5" y="59.3" width="24" height="106"/>
				</defs>
				<clipPath id="SVGID_00000112614974404992125210000001774210347475505839_">
					<use xlink:href="#SVGID_00000070086899227972306700000011946144749923184809_"  style="overflow:visible;"/>
				</clipPath>
				
					<rect x="234.8" y="67" style="clip-path:url(#SVGID_00000112614974404992125210000001774210347475505839_);fill:#939598;" width="10" height="90.7"/>
			</g>
		</g>
		<line class="st6" x1="239.8" y1="157.8" x2="239.8" y2="67"/>
		<path class="st1" d="M226.8,13.2c0.5,0.6,1,1,2.1,1c2,0,2.8-2.1,2.8-4.1c0-0.1,0-0.3,0-0.4c-0.4,0.6-1.5,1.6-2.7,1.6
			c-1.7,0-3-1-3-3c0-1.5,1.1-3,3.1-3c2.5,0,3.4,2.3,3.4,4.8c0,2.4-1,4.8-3.6,4.8c-1.2,0-2-0.5-2.5-1.2L226.8,13.2z M229,6
			c-1.6,0-2.4,1.2-2.4,2.2c0,1.5,1,2.3,2.3,2.3c1,0,2-0.7,2.6-1.6C231.4,7.6,230.7,6,229,6z M237.4,14.8V6.5l-2.2,2.4l-0.5-0.5
			l2.8-2.9h0.7v9.4H237.4z M242.7,14.8l3.9-8.6h-5.2V5.4h6.1V6l-4,8.8H242.7z"/>
	</g>
	<g>
		<defs>
			
				<filter id="Adobe_OpacityMaskFilter_00000130620712318926854100000003989012256047239612_" filterUnits="userSpaceOnUse" x="292.5" y="86.1" width="24" height="79.2">
				<feColorMatrix  type="matrix" values="1 0 0 0 0  0 1 0 0 0  0 0 1 0 0  0 0 0 1 0"/>
			</filter>
		</defs>
		
			<mask maskUnits="userSpaceOnUse" x="292.5" y="86.1" width="24" height="79.2" id="SVGID_00000097478957799378825680000004744443477659972018_">
			<g style="filter:url(#Adobe_OpacityMaskFilter_00000130620712318926854100000003989012256047239612_);">
				
					<linearGradient id="SVGID_00000023270433109573731770000015540076204462264486_" gradientUnits="userSpaceOnUse" x1="-114.0572" y1="464.4512" x2="-113.2113" y2="464.4512" gradientTransform="matrix(0 23.0485 23.0485 0 -11000.0439 2767.0774)">
					<stop  offset="0" style="stop-color:#FFFFFF"/>
					<stop  offset="1" style="stop-color:#000000"/>
				</linearGradient>
				
					<rect x="-1034.1" y="-124.2" style="fill:url(#SVGID_00000023270433109573731770000015540076204462264486_);" width="1477.9" height="503.5"/>
			</g>
		</mask>
		<g style="mask:url(#SVGID_00000097478957799378825680000004744443477659972018_);">
			<g>
				<defs>
					<rect id="SVGID_00000008110983792848749660000010361382974056711299_" x="292.5" y="86.1" width="24" height="79.2"/>
				</defs>
				<clipPath id="SVGID_00000008112299117487678030000000722922114656975264_">
					<use xlink:href="#SVGID_00000008110983792848749660000010361382974056711299_"  style="overflow:visible;"/>
				</clipPath>
				
					<rect x="304.8" y="93.7" style="clip-path:url(#SVGID_00000008112299117487678030000000722922114656975264_);fill:#939598;" width="10" height="64"/>
			</g>
		</g>
		<line class="st6" x1="309.7" y1="157.8" x2="309.7" y2="93.9"/>
		<path class="st1" d="M304.3,14.8v-2.6h-4.4v-0.7l4.2-6.1h1.1v6.1h1.4v0.7h-1.4v2.6H304.3z M304.3,6.2l-3.6,5.3h3.6V6.2z
			 M310.8,9.9c-1.1-0.3-2.2-1-2.2-2.3c0-1.7,1.5-2.4,3-2.4c1.5,0,3,0.8,3,2.4c0,1.2-1.1,2-2.2,2.3c1.2,0.3,2.3,1.2,2.3,2.5
			c0,1.5-1.4,2.5-3.2,2.5c-1.8,0-3.2-1-3.2-2.5C308.5,11.1,309.6,10.2,310.8,9.9z M311.7,10.3c-0.6,0.1-2.4,0.6-2.4,2.1
			c0,1.1,1.1,1.8,2.4,1.8c1.2,0,2.4-0.7,2.4-1.8C314.1,10.9,312.2,10.4,311.7,10.3z M311.7,6c-1.2,0-2.2,0.6-2.2,1.8
			c0,1.3,1.7,1.7,2.2,1.8c0.6-0.1,2.2-0.5,2.2-1.8C313.9,6.6,312.9,6,311.7,6z M319.9,14.8V6.5l-2.2,2.4l-0.5-0.5l2.8-2.9h0.7v9.4
			H319.9z"/>
	</g>
</g>
</svg>
