<?xml version="1.0" encoding="utf-8"?>
<!-- Generator: Adobe Illustrator 26.4.0, SVG Export Plug-In . SVG Version: 6.00 Build 0)  -->
<svg version="1.1" id="Layer_1" xmlns="http://www.w3.org/2000/svg" xmlns:xlink="http://www.w3.org/1999/xlink" x="0px" y="0px"
	 viewBox="0 0 400 190.7" style="enable-background:new 0 0 400 190.7;" xml:space="preserve">
<style type="text/css">
	.st0{fill:#076AAA;}
	.st1{fill:#010101;}
	.st2{filter:url(#Adobe_OpacityMaskFilter);}
	.st3{fill:url(#SVGID_00000024002760558467687860000008375570773660273341_);}
	.st4{mask:url(#SVGID_1_);}
	.st5{clip-path:url(#SVGID_00000162323438830098643330000018385937742243847083_);fill:#076AAA;}
	.st6{fill:none;stroke:#FFFFFF;}
	.st7{filter:url(#Adobe_OpacityMaskFilter_00000067944051321104519060000008919219361585832858_);}
	.st8{fill:url(#SVGID_00000173840670532366232860000011016775231328420488_);}
	.st9{mask:url(#SVGID_00000029003868017486487750000004070149898214599359_);}
	.st10{clip-path:url(#SVGID_00000125592156624009397330000003987288574362247612_);fill:#939598;}
	.st11{fill:#6E6F72;}
	.st12{filter:url(#Adobe_OpacityMaskFilter_00000173867355357654932920000013752009462617712810_);}
	.st13{fill:url(#SVGID_00000045606775863491996720000011381023797317536181_);}
	.st14{mask:url(#SVGID_00000119090648468936487490000001499223990338620322_);}
	.st15{clip-path:url(#SVGID_00000129911390221806603050000006744536737826979769_);fill:#939598;}
	.st16{filter:url(#Adobe_OpacityMaskFilter_00000006704204294747162860000011313447342563686077_);}
	.st17{fill:url(#SVGID_00000037691896288540329580000002953376209790582460_);}
	.st18{mask:url(#SVGID_00000145740429549143838250000016130848041455787421_);}
	.st19{clip-path:url(#SVGID_00000078046572803920079940000002392455688549079736_);fill:#939598;}
	.st20{filter:url(#Adobe_OpacityMaskFilter_00000099662362420962063010000002281060794924647590_);}
	.st21{fill:url(#SVGID_00000002381067354758919990000006359832111356860086_);}
	.st22{mask:url(#SVGID_00000128475079568308566500000017226547261447149222_);}
	.st23{clip-path:url(#SVGID_00000044863947700026908140000000705706417347131292_);fill:#939598;}
	.st24{filter:url(#Adobe_OpacityMaskFilter_00000121265726445273606070000015298880103649554102_);}
	.st25{fill:url(#SVGID_00000094614945186548242380000009388144218192032435_);}
	.st26{mask:url(#SVGID_00000060018916543899618170000009115012230418000271_);}
	.st27{clip-path:url(#SVGID_00000021107453909852792160000007046711936283390626_);fill:#939598;}
</style>
<g>
	<g>
		<path class="st0" d="M3.6,175.6v-7.8H0.9v-1h6.6v1H4.7v7.8H3.6z"/>
		<path class="st0" d="M12.2,175.6v-0.7c-0.5,0.6-1.2,0.9-2.1,0.9c-1.1,0-2.2-0.7-2.2-2.1c0-1.4,1.1-2.1,2.2-2.1
			c0.9,0,1.6,0.3,2.1,0.9v-1.1c0-0.9-0.7-1.3-1.6-1.3c-0.8,0-1.4,0.3-1.9,0.9l-0.5-0.7c0.7-0.7,1.5-1,2.5-1c1.3,0,2.5,0.6,2.5,2.1
			v4.4H12.2z M12.2,174.2V173c-0.4-0.5-1-0.8-1.7-0.8c-0.9,0-1.6,0.6-1.6,1.4c0,0.8,0.6,1.4,1.6,1.4C11.1,175,11.8,174.7,12.2,174.2
			z"/>
		<path class="st0" d="M15.3,175.6v-6.3h1v1c0.5-0.7,1.2-1.2,2.1-1.2v1c-0.1,0-0.2,0-0.4,0c-0.6,0-1.4,0.5-1.7,1v4.5H15.3z"/>
		<path class="st0" d="M19.8,177.2l0.5-0.7c0.5,0.6,1.2,0.9,2.1,0.9c1,0,2-0.5,2-1.9v-0.9c-0.5,0.6-1.2,1.1-2.1,1.1
			c-1.7,0-2.8-1.2-2.8-3.3c0-2,1.2-3.3,2.8-3.3c0.9,0,1.6,0.4,2.1,1.1v-1h1v6.2c0,2.1-1.5,2.8-3,2.8
			C21.3,178.1,20.5,177.9,19.8,177.2z M24.4,173.7V171c-0.3-0.6-1.1-1-1.9-1c-1.3,0-2,1-2,2.4c0,1.4,0.8,2.4,2,2.4
			C23.3,174.8,24,174.3,24.4,173.7z"/>
		<path class="st0" d="M27.2,172.4c0-1.8,1.3-3.3,3.1-3.3c1.9,0,3,1.5,3,3.4v0.2h-5.1c0.1,1.2,0.9,2.2,2.3,2.2c0.7,0,1.5-0.3,2-0.8
			l0.5,0.6c-0.6,0.6-1.5,1-2.5,1C28.6,175.7,27.2,174.4,27.2,172.4z M30.3,169.9c-1.4,0-2,1.1-2.1,2.1h4.2
			C32.4,171,31.8,169.9,30.3,169.9z"/>
		<path class="st0" d="M35.4,174.2v-4.1h-1v-0.9h1v-1.7h1v1.7h1.3v0.9h-1.3v3.9c0,0.5,0.2,0.8,0.6,0.8c0.3,0,0.5-0.1,0.7-0.3
			l0.3,0.7c-0.2,0.2-0.6,0.4-1.2,0.4C35.8,175.7,35.4,175.2,35.4,174.2z"/>
		<path class="st0" d="M38.8,172.4c0-1.8,1.3-3.3,3.1-3.3c1.9,0,3,1.5,3,3.4v0.2h-5.1c0.1,1.2,0.9,2.2,2.3,2.2c0.7,0,1.5-0.3,2-0.8
			l0.5,0.6c-0.6,0.6-1.5,1-2.5,1C40.1,175.7,38.8,174.4,38.8,172.4z M41.9,169.9c-1.4,0-2,1.1-2.1,2.1H44
			C43.9,171,43.3,169.9,41.9,169.9z"/>
		<path class="st0" d="M51.4,175.6v-0.9c-0.5,0.6-1.2,1.1-2.1,1.1c-1.7,0-2.8-1.3-2.8-3.3c0-2,1.2-3.3,2.8-3.3
			c0.9,0,1.6,0.4,2.1,1.1v-3.4h1v8.8H51.4z M51.4,173.8V171c-0.4-0.6-1.1-1-1.9-1c-1.3,0-2,1-2,2.5c0,1.4,0.8,2.4,2,2.4
			C50.2,174.8,51,174.4,51.4,173.8z"/>
	</g>
	<path class="st0" d="M3.2,189.6v-1c3.3-2.5,4.8-3.8,4.8-5.2c0-1-0.9-1.5-1.7-1.5c-1.1,0-1.9,0.4-2.4,1.1l-0.8-0.9
		c0.7-0.9,1.9-1.4,3.1-1.4c1.6,0,3.1,0.9,3.1,2.6c0,1.7-1.6,3.2-4,5.1h4.1v1.2H3.2z M14.3,180.7c2.4,0,3.4,2.4,3.4,4.5
		c0,2.2-1,4.5-3.4,4.5c-2.4,0-3.4-2.4-3.4-4.5C10.8,183,11.8,180.7,14.3,180.7z M14.3,181.8c-1.6,0-2.1,1.6-2.1,3.4
		c0,1.7,0.5,3.4,2.1,3.4c1.5,0,2.1-1.7,2.1-3.4C16.3,183.5,15.8,181.8,14.3,181.8z M19,189.6v-1c3.3-2.5,4.8-3.8,4.8-5.2
		c0-1-0.9-1.5-1.7-1.5c-1.1,0-1.9,0.4-2.4,1.1l-0.8-0.9c0.7-0.9,1.9-1.4,3.1-1.4c1.6,0,3.1,0.9,3.1,2.6c0,1.7-1.6,3.2-4,5.1h4.1v1.2
		H19z M30.6,189.6v-2.1h-4.2v-1.1l3.7-5.6h1.8v5.5h1.2v1.2h-1.2v2.1H30.6z M30.6,182l-2.9,4.3h2.9V182z M34.6,186.9v-1h3.2v1H34.6z
		 M38.7,189.6v-1c3.3-2.5,4.8-3.8,4.8-5.2c0-1-0.9-1.5-1.7-1.5c-1.1,0-1.9,0.4-2.4,1.1l-0.8-0.9c0.7-0.9,1.9-1.4,3.1-1.4
		c1.6,0,3.1,0.9,3.1,2.6c0,1.7-1.6,3.2-4,5.1h4.1v1.2H38.7z M47.4,187.4c0.6,0.7,1.4,1.1,2.4,1.1c1.2,0,1.9-0.7,1.9-1.7
		c0-1.1-0.7-1.7-1.9-1.7c-0.8,0-1.4,0.2-2,0.8l-0.9-0.3v-4.8h5.5v1.2h-4.2v2.8c0.4-0.4,1.1-0.8,2-0.8c1.5,0,2.8,1,2.8,2.8
		s-1.4,2.9-3.2,2.9c-1.5,0-2.5-0.5-3.2-1.4L47.4,187.4z"/>
</g>
<path d="M74.4,173.7v-0.6c3-2.4,5-4.1,5-5.8c0-1.3-1-1.8-2-1.8c-1.1,0-1.9,0.5-2.4,1.1l-0.5-0.5c0.6-0.8,1.7-1.4,2.9-1.4
	c1.3,0,2.8,0.7,2.8,2.5c0,1.9-2,3.7-4.6,5.7h4.6v0.7H74.4z M85.2,164.8c2.4,0,3.2,2.4,3.2,4.5c0,2.1-0.9,4.5-3.2,4.5
	c-2.4,0-3.2-2.5-3.2-4.5C82,167.3,82.9,164.8,85.2,164.8z M85.2,165.5c-1.8,0-2.4,2-2.4,3.8c0,1.8,0.6,3.9,2.4,3.9
	c1.8,0,2.4-2.1,2.4-3.9C87.7,167.5,87.1,165.5,85.2,165.5z M89.9,173.7v-0.6c3-2.4,5-4.1,5-5.8c0-1.3-1-1.8-2-1.8
	c-1.1,0-1.9,0.5-2.4,1.1l-0.5-0.5c0.6-0.8,1.7-1.4,2.9-1.4c1.3,0,2.8,0.7,2.8,2.5c0,1.9-2,3.7-4.6,5.7h4.6v0.7H89.9z M100.6,173.7
	V166l-2.1,2.2l-0.5-0.5l2.6-2.8h0.7v8.8H100.6z M104.3,170.9v-0.6h3.2v0.6H104.3z M108.4,173.7v-0.6c3-2.4,5-4.1,5-5.8
	c0-1.3-1-1.8-2-1.8c-1.1,0-1.9,0.5-2.4,1.1l-0.5-0.5c0.6-0.8,1.7-1.4,2.9-1.4c1.3,0,2.8,0.7,2.8,2.5c0,1.9-2,3.7-4.6,5.7h4.6v0.7
	H108.4z M116.2,173.7v-0.6c3-2.4,5-4.1,5-5.8c0-1.3-1-1.8-2-1.8c-1.1,0-1.9,0.5-2.4,1.1l-0.5-0.5c0.6-0.8,1.7-1.4,2.9-1.4
	c1.3,0,2.8,0.7,2.8,2.5c0,1.9-2,3.7-4.6,5.7h4.6v0.7H116.2z"/>
<path d="M143.8,173.7v-0.6c3-2.4,5-4.1,5-5.8c0-1.3-1-1.8-2-1.8c-1.1,0-1.9,0.5-2.4,1.1l-0.5-0.5c0.6-0.8,1.7-1.4,2.9-1.4
	c1.3,0,2.8,0.7,2.8,2.5c0,1.9-2,3.7-4.6,5.7h4.6v0.7H143.8z M154.6,164.8c2.4,0,3.2,2.4,3.2,4.5c0,2.1-0.9,4.5-3.2,4.5
	s-3.2-2.5-3.2-4.5C151.4,167.3,152.3,164.8,154.6,164.8z M154.6,165.5c-1.8,0-2.4,2-2.4,3.8c0,1.8,0.6,3.9,2.4,3.9
	c1.8,0,2.4-2.1,2.4-3.9C157,167.5,156.5,165.5,154.6,165.5z M159.3,173.7v-0.6c3-2.4,5-4.1,5-5.8c0-1.3-1-1.8-2-1.8
	c-1.1,0-1.9,0.5-2.4,1.1l-0.5-0.5c0.6-0.8,1.7-1.4,2.9-1.4c1.3,0,2.8,0.7,2.8,2.5c0,1.9-2,3.7-4.6,5.7h4.6v0.7H159.3z M170.1,164.8
	c2.4,0,3.2,2.4,3.2,4.5c0,2.1-0.9,4.5-3.2,4.5c-2.4,0-3.2-2.5-3.2-4.5C166.8,167.3,167.7,164.8,170.1,164.8z M170.1,165.5
	c-1.8,0-2.4,2-2.4,3.8c0,1.8,0.6,3.9,2.4,3.9s2.4-2.1,2.4-3.9C172.5,167.5,171.9,165.5,170.1,165.5z M175,170.9v-0.6h3.2v0.6H175z
	 M179.1,173.7v-0.6c3-2.4,5-4.1,5-5.8c0-1.3-1-1.8-2-1.8c-1.1,0-1.9,0.5-2.4,1.1l-0.5-0.5c0.6-0.8,1.7-1.4,2.9-1.4
	c1.3,0,2.8,0.7,2.8,2.5c0,1.9-2,3.7-4.6,5.7h4.6v0.7H179.1z M189.8,173.7V166l-2.1,2.2l-0.5-0.5l2.6-2.8h0.7v8.8H189.8z"/>
<path d="M215.6,173.7v-0.6c3-2.4,5-4.1,5-5.8c0-1.3-1-1.8-2-1.8c-1.1,0-1.9,0.5-2.4,1.1l-0.5-0.5c0.6-0.8,1.7-1.4,2.9-1.4
	c1.3,0,2.8,0.7,2.8,2.5c0,1.9-2,3.7-4.6,5.7h4.6v0.7H215.6z M226.3,164.8c2.4,0,3.2,2.4,3.2,4.5c0,2.1-0.9,4.5-3.2,4.5
	c-2.4,0-3.2-2.5-3.2-4.5C223.1,167.3,224,164.8,226.3,164.8z M226.3,165.5c-1.8,0-2.4,2-2.4,3.8c0,1.8,0.6,3.9,2.4,3.9
	c1.8,0,2.4-2.1,2.4-3.9C228.8,167.6,228.2,165.5,226.3,165.5z M234.2,173.7V166l-2.1,2.2l-0.5-0.5l2.6-2.8h0.7v8.8H234.2z
	 M238.8,172.2c0.4,0.6,1,1,1.9,1c1.9,0,2.6-2,2.6-3.9c0-0.1,0-0.3,0-0.4c-0.4,0.6-1.4,1.5-2.6,1.5c-1.6,0-2.8-0.9-2.8-2.8
	c0-1.4,1.1-2.8,2.9-2.8c2.4,0,3.2,2.2,3.2,4.5c0,2.2-0.9,4.5-3.4,4.5c-1.1,0-1.8-0.5-2.4-1.1L238.8,172.2z M240.9,165.5
	c-1.5,0-2.2,1.2-2.2,2.1c0,1.4,0.9,2.1,2.2,2.1c1,0,1.9-0.6,2.4-1.5C243.2,167,242.5,165.5,240.9,165.5z M245.9,170.9v-0.6h3.2v0.6
	H245.9z M250,173.7v-0.6c3-2.4,5-4.1,5-5.8c0-1.3-1-1.8-2-1.8c-1.1,0-1.9,0.5-2.4,1.1l-0.5-0.5c0.6-0.8,1.7-1.4,2.9-1.4
	c1.3,0,2.8,0.7,2.8,2.5c0,1.9-2,3.7-4.6,5.7h4.6v0.7H250z M260.8,164.8c2.4,0,3.2,2.4,3.2,4.5c0,2.1-0.9,4.5-3.2,4.5
	c-2.4,0-3.2-2.5-3.2-4.5C257.6,167.3,258.4,164.8,260.8,164.8z M260.8,165.5c-1.8,0-2.4,2-2.4,3.8c0,1.8,0.6,3.9,2.4,3.9
	c1.8,0,2.4-2.1,2.4-3.9C263.2,167.6,262.7,165.5,260.8,165.5z"/>
<path class="st1" d="M286.9,173.7v-0.6c3-2.4,5-4.1,5-5.8c0-1.3-1-1.8-2-1.8c-1.1,0-1.9,0.5-2.4,1.1l-0.5-0.5
	c0.6-0.8,1.7-1.4,2.9-1.4c1.3,0,2.8,0.7,2.8,2.5c0,1.9-2,3.7-4.6,5.7h4.6v0.7H286.9z M297.7,164.8c2.4,0,3.2,2.4,3.2,4.5
	c0,2.1-0.9,4.5-3.2,4.5c-2.4,0-3.2-2.5-3.2-4.5C294.4,167.3,295.3,164.8,297.7,164.8z M297.7,165.5c-1.8,0-2.4,2-2.4,3.8
	c0,1.8,0.6,3.9,2.4,3.9c1.8,0,2.4-2.1,2.4-3.9C300.1,167.5,299.5,165.5,297.7,165.5z M305.5,173.7V166l-2.1,2.2l-0.5-0.5l2.6-2.8
	h0.7v8.8H305.5z M311.6,169.2c-1-0.3-2-0.9-2-2.1c0-1.6,1.4-2.3,2.8-2.3c1.4,0,2.8,0.7,2.8,2.3c0,1.2-1,1.8-2,2.1
	c1.1,0.3,2.2,1.1,2.2,2.3c0,1.4-1.3,2.4-3,2.4c-1.7,0-3-0.9-3-2.4C309.4,170.3,310.4,169.5,311.6,169.2z M312.4,169.5
	c-0.5,0.1-2.2,0.6-2.2,1.9c0,1.1,1.1,1.7,2.2,1.7c1.1,0,2.2-0.7,2.2-1.7C314.6,170.1,312.9,169.6,312.4,169.5z M312.4,165.5
	c-1.2,0-2.1,0.6-2.1,1.7c0,1.2,1.6,1.6,2.1,1.7c0.5-0.1,2.1-0.5,2.1-1.7C314.4,166.1,313.5,165.5,312.4,165.5z M317,170.9v-0.6h3.2
	v0.6H317z M324.1,173.7V166l-2.1,2.2l-0.5-0.5l2.6-2.8h0.7v8.8H324.1z M328.7,172.2c0.4,0.6,1,1,1.9,1c1.9,0,2.6-2,2.6-3.9
	c0-0.1,0-0.3,0-0.4c-0.4,0.6-1.4,1.5-2.6,1.5c-1.6,0-2.8-0.9-2.8-2.8c0-1.4,1.1-2.8,2.9-2.8c2.4,0,3.2,2.2,3.2,4.5
	c0,2.2-0.9,4.5-3.4,4.5c-1.1,0-1.8-0.5-2.4-1.1L328.7,172.2z M330.8,165.5c-1.5,0-2.2,1.2-2.2,2.1c0,1.4,0.9,2.1,2.2,2.1
	c1,0,1.9-0.6,2.4-1.5C333.1,167,332.4,165.5,330.8,165.5z"/>
<path class="st1" d="M353.6,173.7v-0.6c3-2.4,5-4.1,5-5.8c0-1.3-1-1.8-2-1.8c-1.1,0-1.9,0.5-2.4,1.1l-0.5-0.5
	c0.6-0.8,1.7-1.4,2.9-1.4c1.3,0,2.8,0.7,2.8,2.5c0,1.9-2,3.7-4.6,5.7h4.6v0.7H353.6z M364.4,164.8c2.4,0,3.2,2.4,3.2,4.5
	c0,2.1-0.9,4.5-3.2,4.5c-2.4,0-3.2-2.5-3.2-4.5C361.1,167.3,362,164.8,364.4,164.8z M364.4,165.5c-1.8,0-2.4,2-2.4,3.8
	c0,1.8,0.6,3.9,2.4,3.9c1.8,0,2.4-2.1,2.4-3.9C366.8,167.6,366.2,165.5,364.4,165.5z M372.2,173.7V166l-2.1,2.2l-0.5-0.5l2.6-2.8
	h0.7v8.8H372.2z M377.2,173.7l3.7-8.1H376V165h5.7v0.5l-3.7,8.2H377.2z M382.7,170.9v-0.6h3.2v0.6H382.7z M389.7,173.7V166l-2.1,2.2
	l-0.5-0.5l2.6-2.8h0.7v8.8H389.7z M395.8,169.2c-1-0.3-2-0.9-2-2.1c0-1.6,1.4-2.3,2.8-2.3c1.4,0,2.8,0.7,2.8,2.3c0,1.2-1,1.8-2,2.1
	c1.1,0.3,2.2,1.1,2.2,2.3c0,1.4-1.3,2.4-3,2.4c-1.7,0-3-0.9-3-2.4C393.6,170.3,394.7,169.5,395.8,169.2z M396.6,169.6
	c-0.5,0.1-2.2,0.6-2.2,1.9c0,1.1,1.1,1.7,2.2,1.7c1.1,0,2.2-0.7,2.2-1.7C398.8,170.2,397.1,169.6,396.6,169.6z M396.6,165.5
	c-1.2,0-2.1,0.6-2.1,1.7c0,1.2,1.6,1.6,2.1,1.7c0.5-0.1,2.1-0.5,2.1-1.7C398.7,166.1,397.7,165.5,396.6,165.5z"/>
<g>
	<defs>
		<filter id="Adobe_OpacityMaskFilter" filterUnits="userSpaceOnUse" x="11" y="18.4" width="23.9" height="146">
			<feColorMatrix  type="matrix" values="1 0 0 0 0  0 1 0 0 0  0 0 1 0 0  0 0 0 1 0"/>
		</filter>
	</defs>
	<mask maskUnits="userSpaceOnUse" x="11" y="18.4" width="23.9" height="146" id="SVGID_1_">
		<g class="st2">
			
				<linearGradient id="SVGID_00000021087803163991653950000015108079082911784578_" gradientUnits="userSpaceOnUse" x1="-95.0407" y1="514.494" x2="-94.2166" y2="514.494" gradientTransform="matrix(0 38.7696 38.7696 0 -19682.832 3809.7913)">
				<stop  offset="0" style="stop-color:#FFFFFF"/>
				<stop  offset="1" style="stop-color:#000000"/>
			</linearGradient>
			
				<rect x="-472.9" y="-115.1" style="fill:url(#SVGID_00000021087803163991653950000015108079082911784578_);" width="1473.6" height="490.6"/>
		</g>
	</mask>
	<g class="st4">
		<g>
			<defs>
				<rect id="SVGID_00000103241372978168506520000015654395599915550385_" x="11" y="18.4" width="23.9" height="146"/>
			</defs>
			<clipPath id="SVGID_00000006692556775673125430000004756486552965718148_">
				<use xlink:href="#SVGID_00000103241372978168506520000015654395599915550385_"  style="overflow:visible;"/>
			</clipPath>
			
				<rect x="23.3" y="25.8" style="clip-path:url(#SVGID_00000006692556775673125430000004756486552965718148_);fill:#076AAA;" width="9.9" height="131.2"/>
		</g>
	</g>
	<line class="st6" x1="28.2" y1="157.1" x2="28.2" y2="25.8"/>
	<path class="st0" d="M14.3,15.6V14c3.8-2.8,4.9-3.8,4.9-4.9c0-0.8-0.7-1.2-1.5-1.2c-1.1,0-1.9,0.4-2.5,1.1l-1.1-1.3
		c0.9-1,2.3-1.5,3.6-1.5c2,0,3.6,1.1,3.6,3c0,1.6-1.3,3-3.7,4.7h3.8v1.7H14.3z M27.1,15.6v-1.9h-4.5v-1.6l3.7-5.8h2.7v5.7h1.2v1.7
		h-1.2v1.9H27.1z M27.1,8l-2.5,3.9h2.5V8z M31.5,14.6c0-0.6,0.5-1.1,1.1-1.1c0.6,0,1.1,0.5,1.1,1.1c0,0.6-0.5,1.1-1.1,1.1
		C32.1,15.7,31.5,15.2,31.5,14.6z M34.7,10.9c0-2.4,1.2-4.8,3.9-4.8c2.7,0,3.9,2.4,3.9,4.8c0,2.4-1.2,4.8-3.9,4.8
		C35.9,15.7,34.7,13.3,34.7,10.9z M40.4,10.9c0-1.7-0.5-3.1-1.8-3.1c-1.3,0-1.8,1.3-1.8,3.1c0,1.7,0.5,3.1,1.8,3.1
		S40.4,12.6,40.4,10.9z"/>
</g>
<g>
	<defs>
		
			<filter id="Adobe_OpacityMaskFilter_00000122708841143034953180000010264401099780953238_" filterUnits="userSpaceOnUse" x="79.9" y="40.6" width="23.9" height="123.8">
			<feColorMatrix  type="matrix" values="1 0 0 0 0  0 1 0 0 0  0 0 1 0 0  0 0 0 1 0"/>
		</filter>
	</defs>
	
		<mask maskUnits="userSpaceOnUse" x="79.9" y="40.6" width="23.9" height="123.8" id="SVGID_00000014636169129707141040000014883269020879361185_">
		<g style="filter:url(#Adobe_OpacityMaskFilter_00000122708841143034953180000010264401099780953238_);">
			
				<linearGradient id="SVGID_00000112616055541803396880000012296348924904423811_" gradientUnits="userSpaceOnUse" x1="-95.0043" y1="516.2826" x2="-94.1802" y2="516.2826" gradientTransform="matrix(0 37.1342 37.1342 0 -18864.1406 3654.354)">
				<stop  offset="0" style="stop-color:#FFFFFF"/>
				<stop  offset="1" style="stop-color:#000000"/>
			</linearGradient>
			
				<rect x="-429.2" y="-115.1" style="fill:url(#SVGID_00000112616055541803396880000012296348924904423811_);" width="1473.6" height="490.6"/>
		</g>
	</mask>
	<g style="mask:url(#SVGID_00000014636169129707141040000014883269020879361185_);">
		<g>
			<defs>
				<rect id="SVGID_00000175290475020095085650000006015112737100210075_" x="79.9" y="40.6" width="23.9" height="123.8"/>
			</defs>
			<clipPath id="SVGID_00000121966113069746516930000000207394127386540728_">
				<use xlink:href="#SVGID_00000175290475020095085650000006015112737100210075_"  style="overflow:visible;"/>
			</clipPath>
			
				<rect x="92.2" y="48" style="clip-path:url(#SVGID_00000121966113069746516930000000207394127386540728_);fill:#939598;" width="9.9" height="109"/>
		</g>
	</g>
	<line class="st6" x1="97.2" y1="157.1" x2="97.2" y2="27"/>
	<path class="st11" d="M84.6,15.3v-0.9c3.2-2.5,4.9-3.9,4.9-5.5c0-1.1-0.9-1.6-1.8-1.6c-1.1,0-1.9,0.4-2.4,1.1l-0.7-0.7
		c0.7-0.9,1.8-1.4,3-1.4c1.5,0,2.9,0.8,2.9,2.6c0,1.8-1.8,3.4-4.3,5.3h4.3v1H84.6z M95.6,6.4c2.4,0,3.4,2.4,3.4,4.5
		c0,2.1-1,4.5-3.4,4.5c-2.4,0-3.4-2.4-3.4-4.5C92.2,8.8,93.2,6.4,95.6,6.4z M95.6,7.4c-1.7,0-2.2,1.8-2.2,3.5s0.6,3.6,2.2,3.6
		c1.7,0,2.2-1.8,2.2-3.6S97.2,7.4,95.6,7.4z M100.8,14c0.4,0,0.7,0.3,0.7,0.7c0,0.4-0.3,0.7-0.7,0.7c-0.4,0-0.7-0.3-0.7-0.7
		C100.1,14.3,100.4,14,100.8,14z M106,6.4c2.4,0,3.4,2.4,3.4,4.5c0,2.1-1,4.5-3.4,4.5c-2.4,0-3.4-2.4-3.4-4.5
		C102.7,8.8,103.7,6.4,106,6.4z M106,7.4c-1.7,0-2.2,1.8-2.2,3.5s0.6,3.6,2.2,3.6s2.2-1.8,2.2-3.6S107.7,7.4,106,7.4z"/>
</g>
<g>
	<defs>
		
			<filter id="Adobe_OpacityMaskFilter_00000011739932074880327720000008386326183123361671_" filterUnits="userSpaceOnUse" x="150.2" y="64.1" width="23.9" height="100.3">
			<feColorMatrix  type="matrix" values="1 0 0 0 0  0 1 0 0 0  0 0 1 0 0  0 0 0 1 0"/>
		</filter>
	</defs>
	
		<mask maskUnits="userSpaceOnUse" x="150.2" y="64.1" width="23.9" height="100.3" id="SVGID_00000098903476685591763030000006648028902120881293_">
		<g style="filter:url(#Adobe_OpacityMaskFilter_00000011739932074880327720000008386326183123361671_);">
			
				<linearGradient id="SVGID_00000024709455081472352000000011224497012947781768_" gradientUnits="userSpaceOnUse" x1="-94.716" y1="523.6411" x2="-93.8919" y2="523.6411" gradientTransform="matrix(0 27.2326 27.2326 0 -13906.5869 2713.9497)">
				<stop  offset="0" style="stop-color:#FFFFFF"/>
				<stop  offset="1" style="stop-color:#000000"/>
			</linearGradient>
			
				<rect x="-383.3" y="-115.1" style="fill:url(#SVGID_00000024709455081472352000000011224497012947781768_);" width="1473.6" height="490.6"/>
		</g>
	</mask>
	<g style="mask:url(#SVGID_00000098903476685591763030000006648028902120881293_);">
		<g>
			<defs>
				<rect id="SVGID_00000110465273356581490380000017082489085579221393_" x="150.2" y="64.1" width="23.9" height="100.3"/>
			</defs>
			<clipPath id="SVGID_00000170277080928101794010000010231012291245679035_">
				<use xlink:href="#SVGID_00000110465273356581490380000017082489085579221393_"  style="overflow:visible;"/>
			</clipPath>
			
				<rect x="162.5" y="71.5" style="clip-path:url(#SVGID_00000170277080928101794010000010231012291245679035_);fill:#939598;" width="9.9" height="85.4"/>
		</g>
	</g>
	<line class="st6" x1="167.4" y1="157.1" x2="167.4" y2="25.8"/>
	<path class="st11" d="M158.2,15.3V8l-1.8,1.9l-0.7-0.7l2.6-2.7h1v8.8H158.2z M163,13.3c0.6,0.7,1.3,1.2,2.4,1.2c1.2,0,2-0.8,2-1.9
		c0-1.2-0.8-1.9-2-1.9c-0.8,0-1.4,0.2-2,0.8l-0.8-0.3V6.5h5.4v1h-4.3v3c0.4-0.4,1.2-0.8,2.1-0.8c1.5,0,2.8,1,2.8,2.8
		c0,1.8-1.4,2.9-3.1,2.9c-1.5,0-2.4-0.5-3.1-1.4L163,13.3z M170.7,14c0.4,0,0.7,0.3,0.7,0.7c0,0.4-0.3,0.7-0.7,0.7s-0.7-0.3-0.7-0.7
		C170,14.3,170.3,14,170.7,14z M173.8,13.3c0.6,0.7,1.3,1.2,2.4,1.2c1.2,0,2-0.8,2-1.9c0-1.2-0.8-1.9-2-1.9c-0.8,0-1.4,0.2-2,0.8
		l-0.8-0.3V6.5h5.4v1h-4.3v3c0.4-0.4,1.2-0.8,2-0.8c1.5,0,2.8,1,2.8,2.8c0,1.8-1.4,2.9-3.1,2.9c-1.5,0-2.4-0.5-3.1-1.4L173.8,13.3z"
		/>
</g>
<g>
	<defs>
		
			<filter id="Adobe_OpacityMaskFilter_00000109733517177435922310000013282709482173979036_" filterUnits="userSpaceOnUse" x="222.5" y="34.2" width="23.9" height="130.2">
			<feColorMatrix  type="matrix" values="1 0 0 0 0  0 1 0 0 0  0 0 1 0 0  0 0 0 1 0"/>
		</filter>
	</defs>
	
		<mask maskUnits="userSpaceOnUse" x="222.5" y="34.2" width="23.9" height="130.2" id="SVGID_00000104687406765420486780000014507755414980767124_">
		<g style="filter:url(#Adobe_OpacityMaskFilter_00000109733517177435922310000013282709482173979036_);">
			
				<linearGradient id="SVGID_00000159467881128152349440000007381402639448001427_" gradientUnits="userSpaceOnUse" x1="-94.9464" y1="520.1542" x2="-94.1223" y2="520.1542" gradientTransform="matrix(0 34.547 34.547 0 -17568.7188 3408.6858)">
				<stop  offset="0" style="stop-color:#FFFFFF"/>
				<stop  offset="1" style="stop-color:#000000"/>
			</linearGradient>
			
				<rect x="-335.8" y="-115.1" style="fill:url(#SVGID_00000159467881128152349440000007381402639448001427_);" width="1473.6" height="490.6"/>
		</g>
	</mask>
	<g style="mask:url(#SVGID_00000104687406765420486780000014507755414980767124_);">
		<g>
			<defs>
				<rect id="SVGID_00000147189938802583150630000009032549767638632088_" x="222.5" y="34.2" width="23.9" height="130.2"/>
			</defs>
			<clipPath id="SVGID_00000099643035138377949590000004098771154415623819_">
				<use xlink:href="#SVGID_00000147189938802583150630000009032549767638632088_"  style="overflow:visible;"/>
			</clipPath>
			
				<rect x="234.8" y="41.6" style="clip-path:url(#SVGID_00000099643035138377949590000004098771154415623819_);fill:#939598;" width="9.9" height="115.3"/>
		</g>
	</g>
	<line class="st6" x1="239.8" y1="157.1" x2="239.8" y2="25.8"/>
	<path class="st11" d="M227.1,15.6v-0.9c3.2-2.5,4.9-3.9,4.9-5.5c0-1.1-0.9-1.6-1.8-1.6c-1.1,0-1.9,0.4-2.4,1.1l-0.7-0.7
		c0.7-0.9,1.8-1.4,3-1.4c1.5,0,2.9,0.8,2.9,2.6c0,1.8-1.8,3.4-4.3,5.3h4.3v1H227.1z M237.7,15.6V8.3l-1.8,1.9l-0.7-0.7l2.6-2.7h1
		v8.8H237.7z M242.5,14.3c0.4,0,0.7,0.3,0.7,0.7c0,0.4-0.3,0.7-0.7,0.7c-0.4,0-0.7-0.3-0.7-0.7C241.8,14.6,242.1,14.3,242.5,14.3z
		 M247.7,6.7c2.4,0,3.4,2.4,3.4,4.5c0,2.1-1,4.5-3.4,4.5s-3.4-2.4-3.4-4.5C244.4,9.1,245.4,6.7,247.7,6.7z M247.7,7.7
		c-1.7,0-2.2,1.8-2.2,3.5c0,1.7,0.6,3.6,2.2,3.6s2.2-1.8,2.2-3.6C250,9.5,249.4,7.7,247.7,7.7z"/>
</g>
<g>
	<defs>
		
			<filter id="Adobe_OpacityMaskFilter_00000149345211313604220280000013898697785820329656_" filterUnits="userSpaceOnUse" x="292.1" y="61.5" width="23.9" height="102.8">
			<feColorMatrix  type="matrix" values="1 0 0 0 0  0 1 0 0 0  0 0 1 0 0  0 0 0 1 0"/>
		</filter>
	</defs>
	
		<mask maskUnits="userSpaceOnUse" x="292.1" y="61.5" width="23.9" height="102.8" id="SVGID_00000002350697058872061880000007363992697132364430_">
		<g style="filter:url(#Adobe_OpacityMaskFilter_00000149345211313604220280000013898697785820329656_);">
			
				<linearGradient id="SVGID_00000177453133353225725340000014307426415779415476_" gradientUnits="userSpaceOnUse" x1="-94.9" y1="522.7115" x2="-94.0759" y2="522.7115" gradientTransform="matrix(0 32.5581 32.5581 0 -16572.7148 3219.9707)">
				<stop  offset="0" style="stop-color:#FFFFFF"/>
				<stop  offset="1" style="stop-color:#000000"/>
			</linearGradient>
			
				<rect x="-291" y="-115.1" style="fill:url(#SVGID_00000177453133353225725340000014307426415779415476_);" width="1473.6" height="490.6"/>
		</g>
	</mask>
	<g style="mask:url(#SVGID_00000002350697058872061880000007363992697132364430_);">
		<g>
			<defs>
				<rect id="SVGID_00000031890875297936801320000006579766910298104991_" x="292.1" y="61.5" width="23.9" height="102.8"/>
			</defs>
			<clipPath id="SVGID_00000016055888586795412370000012284392711891516325_">
				<use xlink:href="#SVGID_00000031890875297936801320000006579766910298104991_"  style="overflow:visible;"/>
			</clipPath>
			
				<rect x="304.3" y="69" style="clip-path:url(#SVGID_00000016055888586795412370000012284392711891516325_);fill:#939598;" width="9.9" height="88"/>
		</g>
	</g>
	<line class="st6" x1="309.3" y1="157.1" x2="309.3" y2="25.8"/>
	<path class="st11" d="M300.7,15.6V8.3l-1.8,1.9l-0.7-0.7l2.6-2.7h1v8.8H300.7z M308.3,6.7c1.1,0,1.9,0.4,2.4,1.1l-0.6,0.8
		c-0.4-0.5-1-0.9-1.9-0.9c-1.7,0-2.5,1.7-2.5,3.4c0,0.1,0,0.2,0,0.3c0.4-0.6,1.3-1.4,2.5-1.4c1.6,0,2.9,0.9,2.9,2.8
		c0,1.5-1.2,2.9-3.1,2.9c-2.5,0-3.4-2.1-3.4-4.5C304.7,8.8,305.8,6.7,308.3,6.7z M308,11c-0.9,0-1.7,0.5-2.2,1.3
		c0.1,1.1,0.7,2.4,2.2,2.4c1.4,0,2-1,2-1.9C310.1,11.6,309.1,11,308,11z M313.3,14.3c0.4,0,0.7,0.3,0.7,0.7c0,0.4-0.3,0.7-0.7,0.7
		s-0.7-0.3-0.7-0.7C312.5,14.6,312.9,14.3,313.3,14.3z M318.5,6.7c2.4,0,3.4,2.4,3.4,4.5c0,2.1-1,4.5-3.4,4.5s-3.4-2.4-3.4-4.5
		C315.2,9.1,316.1,6.7,318.5,6.7z M318.5,7.7c-1.7,0-2.2,1.8-2.2,3.5c0,1.7,0.6,3.6,2.2,3.6c1.7,0,2.2-1.8,2.2-3.6
		C320.7,9.5,320.2,7.7,318.5,7.7z"/>
</g>
<g>
	<defs>
		
			<filter id="Adobe_OpacityMaskFilter_00000183242456783589246350000009040657045807052686_" filterUnits="userSpaceOnUse" x="361.7" y="83.7" width="23.9" height="80.7">
			<feColorMatrix  type="matrix" values="1 0 0 0 0  0 1 0 0 0  0 0 1 0 0  0 0 0 1 0"/>
		</filter>
	</defs>
	
		<mask maskUnits="userSpaceOnUse" x="361.7" y="83.7" width="23.9" height="80.7" id="SVGID_00000127010041954793588020000016539923783007893660_">
		<g style="filter:url(#Adobe_OpacityMaskFilter_00000183242456783589246350000009040657045807052686_);">
			
				<linearGradient id="SVGID_00000114073859571106458400000001362430765825514117_" gradientUnits="userSpaceOnUse" x1="-95.2413" y1="515.0139" x2="-94.4172" y2="515.0139" gradientTransform="matrix(0 52.1526 52.1526 0 -26368.8359 5081.1797)">
				<stop  offset="0" style="stop-color:#FFFFFF"/>
				<stop  offset="1" style="stop-color:#000000"/>
			</linearGradient>
			
				<rect x="-246.3" y="-115.1" style="fill:url(#SVGID_00000114073859571106458400000001362430765825514117_);" width="1473.6" height="490.6"/>
		</g>
	</mask>
	<g style="mask:url(#SVGID_00000127010041954793588020000016539923783007893660_);">
		<g>
			<defs>
				<rect id="SVGID_00000026869096371690379510000015756305087949502343_" x="361.7" y="83.7" width="23.9" height="80.7"/>
			</defs>
			<clipPath id="SVGID_00000072257034907223939080000004646318508675320960_">
				<use xlink:href="#SVGID_00000026869096371690379510000015756305087949502343_"  style="overflow:visible;"/>
			</clipPath>
			
				<rect x="374" y="91.2" style="clip-path:url(#SVGID_00000072257034907223939080000004646318508675320960_);fill:#939598;" width="9.9" height="65.8"/>
		</g>
	</g>
	<line class="st6" x1="378.9" y1="157.1" x2="378.9" y2="25.8"/>
	<path class="st11" d="M371.1,15V7.6l-1.8,1.9l-0.7-0.7l2.6-2.7h1V15H371.1z M375,15v-0.9c3.2-2.5,4.9-3.9,4.9-5.5
		c0-1.1-0.9-1.6-1.8-1.6c-1.1,0-1.9,0.4-2.4,1.1L375,7.4c0.7-0.9,1.8-1.4,3-1.4c1.5,0,2.9,0.8,2.9,2.6c0,1.8-1.8,3.4-4.3,5.3h4.3v1
		H375z M383.6,13.6c0.4,0,0.7,0.3,0.7,0.7c0,0.4-0.3,0.7-0.7,0.7c-0.4,0-0.7-0.3-0.7-0.7C382.9,14,383.2,13.6,383.6,13.6z
		 M388.8,6.1c2.4,0,3.4,2.4,3.4,4.5c0,2.1-1,4.5-3.4,4.5s-3.4-2.4-3.4-4.5C385.5,8.4,386.4,6.1,388.8,6.1z M388.8,7
		c-1.7,0-2.2,1.8-2.2,3.5s0.6,3.6,2.2,3.6c1.7,0,2.2-1.8,2.2-3.6S390.5,7,388.8,7z"/>
</g>
</svg>
