<?xml version="1.0" encoding="utf-8"?>
<!-- Generator: Adobe Illustrator 26.4.0, SVG Export Plug-In . SVG Version: 6.00 Build 0)  -->
<svg version="1.1" id="Layer_1" xmlns="http://www.w3.org/2000/svg" xmlns:xlink="http://www.w3.org/1999/xlink" x="0px" y="0px"
	 viewBox="0 0 400 190.7" style="enable-background:new 0 0 400 190.7;" xml:space="preserve">
<style type="text/css">
	.st0{fill:#076AAA;}
	.st1{fill:#6E6F72;}
	.st2{filter:url(#Adobe_OpacityMaskFilter);}
	.st3{fill:url(#SVGID_00000125575782527706146310000015249758319749717169_);}
	.st4{mask:url(#SVGID_1_);}
	.st5{clip-path:url(#SVGID_00000105417929532838607270000000159597147439511226_);fill:#939598;}
	.st6{fill:none;stroke:#FFFFFF;}
	.st7{fill:#010101;}
	.st8{filter:url(#Adobe_OpacityMaskFilter_00000155133989189351773800000008699703698284984980_);}
	.st9{fill:url(#SVGID_00000085216364173350419590000004630038575504141707_);}
	.st10{mask:url(#SVGID_00000076578124785495107040000015437087097947687577_);}
	.st11{clip-path:url(#SVGID_00000018232490573197517180000018282793926567542193_);fill:#076AAA;}
	.st12{filter:url(#Adobe_OpacityMaskFilter_00000182486360224843308300000001974500220631494074_);}
	.st13{fill:url(#SVGID_00000136400523211031826860000005116167835222478223_);}
	.st14{mask:url(#SVGID_00000035518099368440053720000015732525723466427565_);}
	.st15{clip-path:url(#SVGID_00000101088148231927452270000007018893148981761431_);fill:#939598;}
	.st16{filter:url(#Adobe_OpacityMaskFilter_00000083049963302411670430000000196600096990737292_);}
	.st17{fill:url(#SVGID_00000077299293130991441790000010336865429198487699_);}
	.st18{mask:url(#SVGID_00000091719022900643772970000017371962709945033662_);}
	.st19{clip-path:url(#SVGID_00000147901576475039907670000002978167495012275379_);fill:#939598;}
	.st20{filter:url(#Adobe_OpacityMaskFilter_00000132050682555209639230000015114935646120206768_);}
	.st21{fill:url(#SVGID_00000147196896847852686390000015385835528278600352_);}
	.st22{mask:url(#SVGID_00000098918986194706477060000015203090730616246176_);}
	.st23{clip-path:url(#SVGID_00000136381233618512191990000004408688708205158549_);fill:#939598;}
	.st24{filter:url(#Adobe_OpacityMaskFilter_00000130634492909949242280000005109347755663857285_);}
	.st25{fill:url(#SVGID_00000007415759493951019310000010753407416868227500_);}
	.st26{mask:url(#SVGID_00000033334946748047787030000014186619654351516567_);}
	.st27{clip-path:url(#SVGID_00000173148163367662640890000018178490376200867218_);fill:#939598;}
</style>
<g>
	<g>
		<path class="st0" d="M4.2,175.8v-7.7H1.4v-1H8v1H5.2v7.7H4.2z"/>
		<path class="st0" d="M12.6,175.8V175c-0.5,0.6-1.2,0.9-2.1,0.9c-1.1,0-2.2-0.7-2.2-2.1c0-1.4,1.1-2.1,2.2-2.1
			c0.9,0,1.6,0.3,2.1,0.9v-1.1c0-0.8-0.7-1.3-1.6-1.3c-0.8,0-1.4,0.3-1.9,0.9l-0.5-0.7c0.7-0.7,1.5-1,2.5-1c1.3,0,2.4,0.6,2.4,2.1
			v4.3H12.6z M12.6,174.4v-1.2c-0.4-0.5-1-0.8-1.7-0.8c-0.9,0-1.5,0.6-1.5,1.4c0,0.8,0.6,1.4,1.5,1.4
			C11.5,175.2,12.2,175,12.6,174.4z"/>
		<path class="st0" d="M15.6,175.8v-6.2h1v1c0.5-0.7,1.2-1.1,2.1-1.1v1c-0.1,0-0.2,0-0.4,0c-0.6,0-1.4,0.5-1.7,1v4.4H15.6z"/>
		<path class="st0" d="M20.1,177.4l0.5-0.7c0.5,0.6,1.1,0.9,2,0.9c1,0,2-0.5,2-1.9v-0.9c-0.5,0.6-1.2,1.1-2.1,1.1
			c-1.6,0-2.8-1.2-2.8-3.2c0-2,1.1-3.2,2.8-3.2c0.8,0,1.6,0.4,2.1,1.1v-0.9h1v6.1c0,2.1-1.4,2.7-3,2.7
			C21.5,178.3,20.8,178.1,20.1,177.4z M24.6,174v-2.7c-0.3-0.5-1.1-1-1.9-1c-1.3,0-2,1-2,2.4c0,1.4,0.8,2.4,2,2.4
			C23.5,175,24.3,174.5,24.6,174z"/>
		<path class="st0" d="M27.4,172.6c0-1.8,1.3-3.3,3.1-3.3c1.9,0,3,1.5,3,3.4v0.2h-5.1c0.1,1.2,0.9,2.2,2.3,2.2
			c0.7,0,1.4-0.3,1.9-0.8l0.5,0.6c-0.6,0.6-1.5,1-2.5,1C28.7,175.9,27.4,174.6,27.4,172.6z M30.5,170.2c-1.3,0-2,1.1-2,2.1h4.1
			C32.5,171.3,31.9,170.2,30.5,170.2z"/>
		<path class="st0" d="M35.4,174.5v-4.1h-1v-0.9h1v-1.7h1v1.7h1.3v0.9h-1.3v3.9c0,0.5,0.2,0.8,0.6,0.8c0.3,0,0.5-0.1,0.7-0.3
			l0.3,0.7c-0.2,0.2-0.6,0.4-1.2,0.4C35.9,175.9,35.4,175.4,35.4,174.5z"/>
		<path class="st0" d="M38.8,172.6c0-1.8,1.3-3.3,3.1-3.3c1.9,0,3,1.5,3,3.4v0.2h-5.1c0.1,1.2,0.9,2.2,2.3,2.2
			c0.7,0,1.4-0.3,1.9-0.8l0.5,0.6c-0.6,0.6-1.5,1-2.5,1C40.1,175.9,38.8,174.6,38.8,172.6z M41.8,170.2c-1.3,0-2,1.1-2,2.1h4.1
			C43.9,171.3,43.3,170.2,41.8,170.2z"/>
		<path class="st0" d="M51.2,175.8v-0.9c-0.5,0.6-1.2,1.1-2.1,1.1c-1.6,0-2.8-1.2-2.8-3.3c0-2,1.1-3.3,2.8-3.3
			c0.8,0,1.6,0.4,2.1,1.1v-3.3h1v8.6H51.2z M51.2,174.1v-2.8c-0.3-0.5-1.1-1-1.9-1c-1.3,0-2,1-2,2.4s0.8,2.4,2,2.4
			C50.1,175,50.8,174.6,51.2,174.1z"/>
	</g>
	<path class="st0" d="M3.7,189.6v-1c3.2-2.5,4.7-3.8,4.7-5.1c0-1-0.9-1.5-1.7-1.5c-1,0-1.8,0.4-2.3,1.1l-0.8-0.8
		c0.7-0.9,1.9-1.4,3.1-1.4c1.6,0,3,0.9,3,2.6c0,1.7-1.6,3.2-4,5h4v1.1H3.7z M14.6,180.8c2.4,0,3.4,2.3,3.4,4.5s-1,4.5-3.4,4.5
		c-2.4,0-3.4-2.3-3.4-4.5S12.2,180.8,14.6,180.8z M14.6,181.9c-1.5,0-2.1,1.6-2.1,3.3c0,1.7,0.5,3.3,2.1,3.3c1.5,0,2-1.6,2-3.3
		C16.7,183.6,16.2,181.9,14.6,181.9z M19.3,189.6v-1c3.2-2.5,4.7-3.8,4.7-5.1c0-1-0.9-1.5-1.7-1.5c-1,0-1.8,0.4-2.3,1.1l-0.8-0.8
		c0.7-0.9,1.9-1.4,3.1-1.4c1.6,0,3,0.9,3,2.6c0,1.7-1.6,3.2-4,5h4v1.1H19.3z M30.7,189.6v-2.1h-4.1v-1.1l3.6-5.5H32v5.4h1.2v1.1H32
		v2.1H30.7z M30.7,182.1l-2.8,4.2h2.8V182.1z M34.7,186.9v-1h3.1v1H34.7z M38.7,189.6v-1c3.2-2.5,4.7-3.8,4.7-5.1
		c0-1-0.9-1.5-1.7-1.5c-1,0-1.8,0.4-2.3,1.1l-0.8-0.8c0.7-0.9,1.9-1.4,3.1-1.4c1.6,0,3,0.9,3,2.6c0,1.7-1.6,3.2-4,5h4v1.1H38.7z
		 M47.3,187.5c0.6,0.7,1.3,1.1,2.4,1.1c1.1,0,1.9-0.7,1.9-1.7c0-1-0.7-1.7-1.9-1.7c-0.8,0-1.4,0.2-2,0.8l-0.9-0.3v-4.7h5.5v1.1h-4.2
		v2.8c0.4-0.4,1.1-0.8,2-0.8c1.5,0,2.8,1,2.8,2.8c0,1.8-1.3,2.9-3.2,2.9c-1.5,0-2.5-0.5-3.1-1.4L47.3,187.5z"/>
</g>
<path d="M73.9,174v-0.6c2.9-2.4,4.9-4.1,4.9-5.7c0-1.2-1-1.8-2-1.8c-1.1,0-1.9,0.5-2.4,1.1l-0.5-0.5c0.6-0.8,1.7-1.3,2.9-1.3
	c1.3,0,2.7,0.7,2.7,2.4c0,1.9-2,3.6-4.5,5.7h4.5v0.7H73.9z M84.6,165.2c2.3,0,3.2,2.4,3.2,4.5c0,2-0.9,4.5-3.2,4.5
	c-2.3,0-3.2-2.4-3.2-4.5C81.4,167.6,82.3,165.2,84.6,165.2z M84.6,165.9c-1.8,0-2.4,2-2.4,3.8c0,1.8,0.6,3.8,2.4,3.8s2.4-2,2.4-3.8
	C87,167.9,86.4,165.9,84.6,165.9z M89.2,174v-0.6c2.9-2.4,4.9-4.1,4.9-5.7c0-1.2-1-1.8-2-1.8c-1.1,0-1.9,0.5-2.4,1.1l-0.5-0.5
	c0.6-0.8,1.7-1.3,2.9-1.3c1.3,0,2.7,0.7,2.7,2.4c0,1.9-2,3.6-4.5,5.7h4.5v0.7H89.2z M99.7,174v-7.6l-2,2.2l-0.5-0.5l2.6-2.7h0.7v8.6
	H99.7z M103.4,171.1v-0.6h3.1v0.6H103.4z M107.5,174v-0.6c2.9-2.4,4.9-4.1,4.9-5.7c0-1.2-1-1.8-2-1.8c-1.1,0-1.9,0.5-2.4,1.1
	l-0.5-0.5c0.6-0.8,1.7-1.3,2.9-1.3c1.3,0,2.7,0.7,2.7,2.4c0,1.9-2,3.6-4.5,5.7h4.5v0.7H107.5z M115.1,174v-0.6
	c2.9-2.4,4.9-4.1,4.9-5.7c0-1.2-1-1.8-2-1.8c-1.1,0-1.9,0.5-2.4,1.1l-0.5-0.5c0.6-0.8,1.7-1.3,2.9-1.3c1.3,0,2.7,0.7,2.7,2.4
	c0,1.9-2,3.6-4.5,5.7h4.5v0.7H115.1z"/>
<path d="M142.3,174v-0.6c2.9-2.4,4.9-4.1,4.9-5.7c0-1.2-1-1.8-2-1.8c-1.1,0-1.9,0.5-2.4,1.1l-0.5-0.5c0.6-0.8,1.7-1.3,2.9-1.3
	c1.3,0,2.7,0.7,2.7,2.4c0,1.9-2,3.6-4.5,5.7h4.5v0.7H142.3z M152.9,165.2c2.3,0,3.2,2.4,3.2,4.5c0,2-0.9,4.5-3.2,4.5
	c-2.3,0-3.2-2.4-3.2-4.5C149.7,167.6,150.6,165.2,152.9,165.2z M152.9,165.9c-1.8,0-2.4,2-2.4,3.8c0,1.8,0.6,3.8,2.4,3.8
	c1.8,0,2.4-2,2.4-3.8C155.4,167.9,154.8,165.9,152.9,165.9z M157.6,174v-0.6c2.9-2.4,4.9-4.1,4.9-5.7c0-1.2-1-1.8-2-1.8
	c-1.1,0-1.9,0.5-2.4,1.1l-0.5-0.5c0.6-0.8,1.7-1.3,2.9-1.3c1.3,0,2.7,0.7,2.7,2.4c0,1.9-2,3.6-4.5,5.7h4.5v0.7H157.6z M168.2,165.2
	c2.3,0,3.2,2.4,3.2,4.5c0,2-0.9,4.5-3.2,4.5c-2.3,0-3.2-2.4-3.2-4.5C165,167.6,165.9,165.2,168.2,165.2z M168.2,165.9
	c-1.8,0-2.4,2-2.4,3.8c0,1.8,0.6,3.8,2.4,3.8c1.8,0,2.4-2,2.4-3.8C170.6,167.9,170,165.9,168.2,165.9z M173,171.1v-0.6h3.1v0.6H173z
	 M177.1,174v-0.6c2.9-2.4,4.9-4.1,4.9-5.7c0-1.2-1-1.8-2-1.8c-1.1,0-1.9,0.5-2.4,1.1l-0.5-0.5c0.6-0.8,1.7-1.3,2.9-1.3
	c1.3,0,2.7,0.7,2.7,2.4c0,1.9-2,3.6-4.5,5.7h4.5v0.7H177.1z M187.6,174v-7.6l-2,2.2l-0.5-0.5l2.6-2.7h0.7v8.6H187.6z"/>
<path d="M213,174v-0.6c2.9-2.4,4.9-4.1,4.9-5.7c0-1.2-1-1.8-2-1.8c-1.1,0-1.9,0.5-2.4,1.1l-0.5-0.5c0.6-0.8,1.7-1.3,2.9-1.3
	c1.3,0,2.7,0.7,2.7,2.4c0,1.9-2,3.6-4.5,5.7h4.5v0.7H213z M223.7,165.2c2.3,0,3.2,2.4,3.2,4.5c0,2-0.9,4.5-3.2,4.5
	c-2.3,0-3.2-2.4-3.2-4.5C220.5,167.6,221.3,165.2,223.7,165.2z M223.7,165.9c-1.8,0-2.4,2-2.4,3.8c0,1.8,0.6,3.8,2.4,3.8
	c1.8,0,2.4-2,2.4-3.8C226.1,167.9,225.5,165.9,223.7,165.9z M231.4,174v-7.6l-2,2.2l-0.5-0.5l2.6-2.7h0.7v8.6H231.4z M235.9,172.5
	c0.4,0.6,1,1,1.9,1c1.9,0,2.6-2,2.6-3.8c0-0.1,0-0.3,0-0.4c-0.4,0.6-1.4,1.5-2.5,1.5c-1.6,0-2.8-0.9-2.8-2.7c0-1.4,1-2.8,2.9-2.8
	c2.3,0,3.2,2.1,3.2,4.5c0,2.2-0.9,4.5-3.3,4.5c-1.1,0-1.8-0.5-2.3-1.1L235.9,172.5z M238,165.9c-1.5,0-2.2,1.1-2.2,2.1
	c0,1.4,0.9,2.1,2.2,2.1c0.9,0,1.9-0.6,2.4-1.5C240.2,167.4,239.6,165.9,238,165.9z M242.9,171.1v-0.6h3.1v0.6H242.9z M247,174v-0.6
	c2.9-2.4,4.9-4.1,4.9-5.7c0-1.2-1-1.8-2-1.8c-1.1,0-1.9,0.5-2.4,1.1l-0.5-0.5c0.6-0.8,1.7-1.3,2.9-1.3c1.3,0,2.7,0.7,2.7,2.4
	c0,1.9-2,3.6-4.5,5.7h4.5v0.7H247z M257.6,165.2c2.3,0,3.2,2.4,3.2,4.5c0,2-0.9,4.5-3.2,4.5s-3.2-2.4-3.2-4.5
	C254.4,167.6,255.3,165.2,257.6,165.2z M257.6,165.9c-1.8,0-2.4,2-2.4,3.8c0,1.8,0.6,3.8,2.4,3.8c1.8,0,2.4-2,2.4-3.8
	C260,167.9,259.4,165.9,257.6,165.9z"/>
<g>
	<path class="st1" d="M227.5,18.1v-2.2h-4.1V15l3.7-5.6h1.5V15h1.2v0.9h-1.2v2.2H227.5z M227.5,10.5l-3,4.5h3V10.5z M234.6,9.4
		c2.4,0,3.3,2.3,3.3,4.5c0,2.1-0.9,4.5-3.3,4.5c-2.4,0-3.3-2.4-3.3-4.5C231.3,11.7,232.3,9.4,234.6,9.4z M234.6,10.3
		c-1.6,0-2.2,1.8-2.2,3.5c0,1.7,0.6,3.5,2.2,3.5c1.6,0,2.2-1.8,2.2-3.5C236.8,12.1,236.3,10.3,234.6,10.3z M239.9,16.2
		c0.5,0.7,1.4,1.1,2.4,1.1c1.3,0,2-0.6,2-1.6c0-1.1-0.9-1.5-2.2-1.5c-0.4,0-0.8,0-0.9,0v-1c0.1,0,0.5,0,0.9,0c1.1,0,2-0.4,2-1.4
		c0-1-0.9-1.5-1.9-1.5c-0.9,0-1.6,0.4-2.3,1l-0.6-0.7c0.6-0.8,1.6-1.3,3-1.3c1.7,0,2.9,0.8,2.9,2.3c0,1.2-1,1.9-1.9,2
		c0.8,0.1,2,0.7,2,2.1c0,1.4-1.2,2.5-3.1,2.5c-1.5,0-2.5-0.6-3.1-1.4L239.9,16.2z"/>
	<defs>
		<filter id="Adobe_OpacityMaskFilter" filterUnits="userSpaceOnUse" x="219.9" y="44.4" width="23.6" height="120.2">
			<feColorMatrix  type="matrix" values="1 0 0 0 0  0 1 0 0 0  0 0 1 0 0  0 0 0 1 0"/>
		</filter>
	</defs>
	<mask maskUnits="userSpaceOnUse" x="219.9" y="44.4" width="23.6" height="120.2" id="SVGID_1_">
		<g class="st2">
			
				<linearGradient id="SVGID_00000071545802860621406160000012914936994497841306_" gradientUnits="userSpaceOnUse" x1="-99.5031" y1="504.3633" x2="-98.6779" y2="504.3633" gradientTransform="matrix(0 31.5236 31.5236 0 -15525.168 3267.9507)">
				<stop  offset="0" style="stop-color:#FFFFFF"/>
				<stop  offset="1" style="stop-color:#000000"/>
			</linearGradient>
			
				<rect x="-352" y="-126.9" style="fill:url(#SVGID_00000071545802860621406160000012914936994497841306_);" width="1452.4" height="491.2"/>
		</g>
	</mask>
	<g class="st4">
		<g>
			<defs>
				<rect id="SVGID_00000042738379287101642160000017550190321668336031_" x="219.9" y="44.4" width="23.6" height="120.2"/>
			</defs>
			<clipPath id="SVGID_00000106131936261019605880000016023865232475881870_">
				<use xlink:href="#SVGID_00000042738379287101642160000017550190321668336031_"  style="overflow:visible;"/>
			</clipPath>
			
				<rect x="232" y="51.8" style="clip-path:url(#SVGID_00000106131936261019605880000016023865232475881870_);fill:#939598;" width="9.8" height="105.4"/>
		</g>
	</g>
	<line class="st6" x1="236.9" y1="157.3" x2="236.9" y2="25.9"/>
</g>
<path class="st7" d="M283.3,174.3v-0.6c2.9-2.4,4.9-4.1,4.9-5.7c0-1.2-1-1.8-2-1.8c-1.1,0-1.9,0.5-2.4,1.1l-0.5-0.5
	c0.6-0.8,1.7-1.3,2.9-1.3c1.3,0,2.7,0.7,2.7,2.4c0,1.9-2,3.6-4.5,5.7h4.5v0.7H283.3z M294,165.6c2.3,0,3.2,2.4,3.2,4.5
	c0,2-0.9,4.5-3.2,4.5c-2.3,0-3.2-2.4-3.2-4.5C290.8,168,291.6,165.6,294,165.6z M294,166.2c-1.8,0-2.4,2-2.4,3.8
	c0,1.8,0.6,3.8,2.4,3.8c1.8,0,2.4-2,2.4-3.8C296.4,168.2,295.8,166.2,294,166.2z M301.7,174.3v-7.6l-2,2.2l-0.5-0.5l2.6-2.7h0.7v8.6
	H301.7z M308.6,165.6c2.3,0,3.2,2.4,3.2,4.5c0,2-0.9,4.5-3.2,4.5c-2.3,0-3.2-2.4-3.2-4.5C305.4,168,306.2,165.6,308.6,165.6z
	 M308.6,166.2c-1.8,0-2.4,2-2.4,3.8c0,1.8,0.6,3.8,2.4,3.8c1.8,0,2.4-2,2.4-3.8C311,168.2,310.4,166.2,308.6,166.2z M313.4,171.5
	v-0.6h3.1v0.6H313.4z M320.4,174.3v-7.6l-2,2.2l-0.5-0.5l2.6-2.7h0.7v8.6H320.4z M326.9,174.3v-7.6l-2,2.2l-0.5-0.5l2.6-2.7h0.7v8.6
	H326.9z"/>
<path class="st7" d="M349.2,173.9v-0.6c2.9-2.4,4.9-4.1,4.9-5.7c0-1.2-1-1.8-2-1.8c-1.1,0-1.9,0.5-2.4,1.1l-0.5-0.5
	c0.6-0.8,1.7-1.3,2.9-1.3c1.3,0,2.7,0.7,2.7,2.4c0,1.9-2,3.6-4.5,5.7h4.5v0.7H349.2z M359.9,165.1c2.3,0,3.2,2.4,3.2,4.5
	c0,2-0.9,4.5-3.2,4.5c-2.3,0-3.2-2.4-3.2-4.5C356.7,167.5,357.6,165.1,359.9,165.1z M359.9,165.8c-1.8,0-2.4,2-2.4,3.8
	c0,1.8,0.6,3.8,2.4,3.8c1.8,0,2.4-2,2.4-3.8C362.3,167.8,361.7,165.8,359.9,165.8z M367.9,165.1c2.3,0,3.2,2.4,3.2,4.5
	c0,2-0.9,4.5-3.2,4.5c-2.3,0-3.2-2.4-3.2-4.5C364.7,167.5,365.6,165.1,367.9,165.1z M367.9,165.8c-1.8,0-2.4,2-2.4,3.8
	c0,1.8,0.6,3.8,2.4,3.8c1.8,0,2.4-2,2.4-3.8C370.3,167.8,369.7,165.8,367.9,165.8z M373.1,172.2c0.5,0.7,1.3,1.2,2.4,1.2
	c1.3,0,2.2-0.7,2.2-1.8c0-1.2-1-1.7-2.3-1.7c-0.3,0-0.7,0-0.8,0v-0.7c0.1,0,0.5,0,0.8,0c1.1,0,2.2-0.5,2.2-1.6c0-1.1-1-1.7-2.1-1.7
	c-1,0-1.7,0.4-2.3,1.1l-0.5-0.5c0.6-0.7,1.6-1.3,2.8-1.3c1.5,0,2.8,0.8,2.8,2.3c0,1.3-1.1,1.9-1.9,2c0.8,0.1,2,0.7,2,2.1
	c0,1.4-1.1,2.5-2.9,2.5c-1.4,0-2.4-0.7-2.9-1.4L373.1,172.2z M380.1,171.1v-0.6h3.1v0.6H380.1z M388.1,165.1c2.3,0,3.2,2.4,3.2,4.5
	c0,2-0.9,4.5-3.2,4.5s-3.2-2.4-3.2-4.5C384.9,167.5,385.7,165.1,388.1,165.1z M388.1,165.8c-1.8,0-2.4,2-2.4,3.8
	c0,1.8,0.6,3.8,2.4,3.8c1.8,0,2.4-2,2.4-3.8C390.5,167.8,389.9,165.8,388.1,165.8z M397,173.9v-2.4h-4.1v-0.7l3.8-5.6h1v5.6h1.3v0.7
	h-1.3v2.4H397z M397,166l-3.3,4.9h3.3V166z"/>
<g>
	<defs>
		
			<filter id="Adobe_OpacityMaskFilter_00000027577184047304395080000015807981613197439418_" filterUnits="userSpaceOnUse" x="12.1" y="18.5" width="23.6" height="146.2">
			<feColorMatrix  type="matrix" values="1 0 0 0 0  0 1 0 0 0  0 0 1 0 0  0 0 0 1 0"/>
		</filter>
	</defs>
	
		<mask maskUnits="userSpaceOnUse" x="12.1" y="18.5" width="23.6" height="146.2" id="SVGID_00000169539207476022810710000010031186542717588108_">
		<g style="filter:url(#Adobe_OpacityMaskFilter_00000027577184047304395080000015807981613197439418_);">
			
				<linearGradient id="SVGID_00000026841767678465191250000009468170156688302728_" gradientUnits="userSpaceOnUse" x1="-98.8122" y1="500.2051" x2="-97.9871" y2="500.2051" gradientTransform="matrix(0 38.7696 38.7696 0 -19153.0449 3956.2007)">
				<stop  offset="0" style="stop-color:#FFFFFF"/>
				<stop  offset="1" style="stop-color:#000000"/>
			</linearGradient>
			
				<rect x="-486.5" y="-126.9" style="fill:url(#SVGID_00000026841767678465191250000009468170156688302728_);" width="1452.4" height="491.2"/>
		</g>
	</mask>
	<g style="mask:url(#SVGID_00000169539207476022810710000010031186542717588108_);">
		<g>
			<defs>
				<rect id="SVGID_00000038405907654714675510000009515143053384894117_" x="12.1" y="18.5" width="23.6" height="146.2"/>
			</defs>
			<clipPath id="SVGID_00000136382419288936001700000010220032910558347441_">
				<use xlink:href="#SVGID_00000038405907654714675510000009515143053384894117_"  style="overflow:visible;"/>
			</clipPath>
			
				<rect x="24.2" y="25.9" style="clip-path:url(#SVGID_00000136382419288936001700000010220032910558347441_);fill:#076AAA;" width="9.8" height="131.4"/>
		</g>
	</g>
	<line class="st6" x1="29.1" y1="157.3" x2="29.1" y2="25.9"/>
	<path class="st0" d="M16.3,16.5l1.1-1.4c0.6,0.6,1.5,1,2.4,1c1.1,0,1.7-0.6,1.7-1.4c0-0.8-0.6-1.4-1.7-1.4c-0.8,0-1.4,0.2-1.9,0.7
		l-1.4-0.4V8.6h6.3v1.7h-4.4v2.2c0.4-0.4,1.2-0.8,2-0.8c1.6,0,3,1.1,3,3c0,1.9-1.5,3.2-3.7,3.2C18.3,17.9,17.1,17.4,16.3,16.5z
		 M24.8,13.2c0-2.4,1.2-4.7,3.8-4.7c2.6,0,3.8,2.4,3.8,4.7c0,2.4-1.2,4.8-3.8,4.8C25.9,17.9,24.8,15.5,24.8,13.2z M30.4,13.2
		c0-1.7-0.5-3-1.8-3c-1.3,0-1.8,1.3-1.8,3c0,1.7,0.5,3,1.8,3C29.9,16.2,30.4,14.9,30.4,13.2z M33.6,13.2c0-2.4,1.2-4.7,3.8-4.7
		c2.6,0,3.8,2.4,3.8,4.7c0,2.4-1.2,4.8-3.8,4.8C34.7,17.9,33.6,15.5,33.6,13.2z M39.2,13.2c0-1.7-0.5-3-1.8-3c-1.3,0-1.8,1.3-1.8,3
		c0,1.7,0.5,3,1.8,3S39.2,14.9,39.2,13.2z M46,13.6v2.8h-1.2v-2.8h-2.5v-1.1h2.5V9.9H46v2.7h2.5v1.1H46z"/>
</g>
<g>
	<defs>
		
			<filter id="Adobe_OpacityMaskFilter_00000013164877031723640600000010500192969401608833_" filterUnits="userSpaceOnUse" x="79.2" y="32.6" width="23.6" height="132">
			<feColorMatrix  type="matrix" values="1 0 0 0 0  0 1 0 0 0  0 0 1 0 0  0 0 0 1 0"/>
		</filter>
	</defs>
	
		<mask maskUnits="userSpaceOnUse" x="79.2" y="32.6" width="23.6" height="132" id="SVGID_00000016053501230975472280000006004234577618254727_">
		<g style="filter:url(#Adobe_OpacityMaskFilter_00000013164877031723640600000010500192969401608833_);">
			
				<linearGradient id="SVGID_00000113316357829723502790000009605159171039490690_" gradientUnits="userSpaceOnUse" x1="-98.7712" y1="501.2719" x2="-97.9461" y2="501.2719" gradientTransform="matrix(0 39.4544 39.4544 0 -19495.4258 4021.6848)">
				<stop  offset="0" style="stop-color:#FFFFFF"/>
				<stop  offset="1" style="stop-color:#000000"/>
			</linearGradient>
			
				<rect x="-444.2" y="-126.9" style="fill:url(#SVGID_00000113316357829723502790000009605159171039490690_);" width="1452.4" height="491.2"/>
		</g>
	</mask>
	<g style="mask:url(#SVGID_00000016053501230975472280000006004234577618254727_);">
		<g>
			<defs>
				<rect id="SVGID_00000000181786606034627680000009678584606529125768_" x="79.2" y="32.6" width="23.6" height="132"/>
			</defs>
			<clipPath id="SVGID_00000158010057641905570030000011493385057476618168_">
				<use xlink:href="#SVGID_00000000181786606034627680000009678584606529125768_"  style="overflow:visible;"/>
			</clipPath>
			
				<rect x="91.3" y="40" style="clip-path:url(#SVGID_00000158010057641905570030000011493385057476618168_);fill:#939598;" width="9.8" height="117.2"/>
		</g>
	</g>
	<line class="st6" x1="96.2" y1="157.3" x2="96.2" y2="25.9"/>
	<path class="st1" d="M90,19.2V17h-4.1v-0.9l3.7-5.6H91v5.5h1.2V17H91v2.2H90z M90,11.6l-3,4.5h3V11.6z M97.9,19.2V17h-4.1v-0.9
		l3.7-5.6H99v5.5h1.2V17H99v2.2H97.9z M97.9,11.6l-3,4.5h3V11.6z M103.9,14.8c-1-0.3-1.9-0.9-1.9-2.1c0-1.6,1.5-2.2,3-2.2
		c1.4,0,3,0.7,3,2.2c0,1.1-0.9,1.8-1.9,2.1c1.1,0.3,2.1,1.1,2.1,2.3c0,1.5-1.4,2.3-3.1,2.3c-1.7,0-3.1-0.9-3.1-2.3
		C101.9,15.9,102.8,15.1,103.9,14.8z M105,15.2c-0.5,0.1-2,0.5-2,1.7c0,0.9,0.9,1.5,2,1.5c1.1,0,2-0.6,2-1.5
		C107,15.8,105.5,15.3,105,15.2z M105,11.4c-1,0-1.9,0.5-1.9,1.4c0,1,1.4,1.4,1.9,1.5c0.5-0.1,1.9-0.4,1.9-1.5
		C106.8,11.9,106,11.4,105,11.4z"/>
</g>
<g>
	<defs>
		
			<filter id="Adobe_OpacityMaskFilter_00000177464715069713018070000009481878164039747755_" filterUnits="userSpaceOnUse" x="148.4" y="32.7" width="23.6" height="131.9">
			<feColorMatrix  type="matrix" values="1 0 0 0 0  0 1 0 0 0  0 0 1 0 0  0 0 0 1 0"/>
		</filter>
	</defs>
	
		<mask maskUnits="userSpaceOnUse" x="148.4" y="32.7" width="23.6" height="131.9" id="SVGID_00000174591660970374941060000005243047416044628865_">
		<g style="filter:url(#Adobe_OpacityMaskFilter_00000177464715069713018070000009481878164039747755_);">
			
				<linearGradient id="SVGID_00000183219191118701906080000010663924088383333021_" gradientUnits="userSpaceOnUse" x1="-98.943" y1="502.5216" x2="-98.1179" y2="502.5216" gradientTransform="matrix(0 37.2682 37.2682 0 -18400.9375 3813.9543)">
				<stop  offset="0" style="stop-color:#FFFFFF"/>
				<stop  offset="1" style="stop-color:#000000"/>
			</linearGradient>
			
				<rect x="-399.1" y="-126.9" style="fill:url(#SVGID_00000183219191118701906080000010663924088383333021_);" width="1452.4" height="491.2"/>
		</g>
	</mask>
	<g style="mask:url(#SVGID_00000174591660970374941060000005243047416044628865_);">
		<g>
			<defs>
				<rect id="SVGID_00000006682815940598163810000000536912668853449377_" x="148.4" y="32.7" width="23.6" height="131.9"/>
			</defs>
			<clipPath id="SVGID_00000005965588806601042150000009682533457750381995_">
				<use xlink:href="#SVGID_00000006682815940598163810000000536912668853449377_"  style="overflow:visible;"/>
			</clipPath>
			
				<rect x="160.5" y="40.1" style="clip-path:url(#SVGID_00000005965588806601042150000009682533457750381995_);fill:#939598;" width="9.8" height="117.1"/>
		</g>
	</g>
	<line class="st6" x1="165.4" y1="157.3" x2="165.4" y2="25.9"/>
	<path class="st1" d="M158.7,19.2V17h-4.1v-0.9l3.7-5.6h1.5v5.5h1.2V17h-1.2v2.2H158.7z M158.7,11.6l-3,4.5h3V11.6z M166.7,19.2V17
		h-4.1v-0.9l3.7-5.6h1.5v5.5h1.2V17h-1.2v2.2H166.7z M166.7,11.6l-3,4.5h3V11.6z M172.7,14.8c-1-0.3-1.9-0.9-1.9-2.1
		c0-1.6,1.5-2.2,3-2.2c1.4,0,3,0.7,3,2.2c0,1.1-0.9,1.8-1.9,2.1c1.1,0.3,2.1,1.1,2.1,2.3c0,1.5-1.4,2.3-3.1,2.3
		c-1.7,0-3.1-0.9-3.1-2.3C170.6,15.9,171.6,15.1,172.7,14.8z M173.7,15.2c-0.5,0.1-2,0.5-2,1.7c0,0.9,0.9,1.5,2,1.5
		c1.1,0,2-0.6,2-1.5C175.7,15.8,174.2,15.3,173.7,15.2z M173.7,11.4c-1,0-1.9,0.5-1.9,1.4c0,1,1.4,1.4,1.9,1.5
		c0.5-0.1,1.9-0.4,1.9-1.5C175.6,11.9,174.8,11.4,173.7,11.4z"/>
</g>
<g>
	<defs>
		
			<filter id="Adobe_OpacityMaskFilter_00000033332122761675865280000011377117791635688338_" filterUnits="userSpaceOnUse" x="289" y="67.8" width="23.6" height="96.8">
			<feColorMatrix  type="matrix" values="1 0 0 0 0  0 1 0 0 0  0 0 1 0 0  0 0 0 1 0"/>
		</filter>
	</defs>
	
		<mask maskUnits="userSpaceOnUse" x="289" y="67.8" width="23.6" height="96.8" id="SVGID_00000127032439951920776380000005768660186949229997_">
		<g style="filter:url(#Adobe_OpacityMaskFilter_00000033332122761675865280000011377117791635688338_);">
			
				<linearGradient id="SVGID_00000167378049603814521050000013193174438562438319_" gradientUnits="userSpaceOnUse" x1="-99.6635" y1="505.9776" x2="-98.8383" y2="505.9776" gradientTransform="matrix(0 30.293 30.293 0 -14908.7012 3151.375)">
				<stop  offset="0" style="stop-color:#FFFFFF"/>
				<stop  offset="1" style="stop-color:#000000"/>
			</linearGradient>
			
				<rect x="-307.3" y="-126.9" style="fill:url(#SVGID_00000167378049603814521050000013193174438562438319_);" width="1452.4" height="491.2"/>
		</g>
	</mask>
	<g style="mask:url(#SVGID_00000127032439951920776380000005768660186949229997_);">
		<g>
			<defs>
				<rect id="SVGID_00000083073924972573227850000009249814404755145109_" x="289" y="67.8" width="23.6" height="96.8"/>
			</defs>
			<clipPath id="SVGID_00000094596490389330999650000009360183132677842095_">
				<use xlink:href="#SVGID_00000083073924972573227850000009249814404755145109_"  style="overflow:visible;"/>
			</clipPath>
			
				<rect x="301.1" y="75.2" style="clip-path:url(#SVGID_00000094596490389330999650000009360183132677842095_);fill:#939598;" width="9.8" height="82"/>
		</g>
	</g>
	<line class="st6" x1="306" y1="157.3" x2="306" y2="25.9"/>
	<path class="st1" d="M296.4,15.5c0.5,0.7,1.4,1.1,2.4,1.1c1.3,0,2-0.6,2-1.6c0-1.1-0.9-1.5-2.1-1.5c-0.4,0-0.8,0-0.9,0v-1
		c0.1,0,0.5,0,0.9,0c1.1,0,2-0.4,2-1.4c0-1-0.9-1.5-1.9-1.5c-0.9,0-1.6,0.4-2.3,1l-0.6-0.7c0.6-0.8,1.6-1.3,3-1.3
		c1.7,0,2.9,0.8,2.9,2.3c0,1.2-1,1.9-1.9,2c0.8,0.1,2,0.7,2,2.1c0,1.4-1.2,2.5-3.1,2.5c-1.5,0-2.5-0.6-3.1-1.4L296.4,15.5z
		 M306.3,17.4v-7.2l-1.8,1.9l-0.6-0.7l2.5-2.6h0.9v8.6H306.3z M310.8,15.5c0.5,0.7,1.4,1.1,2.4,1.1c1.3,0,2-0.6,2-1.6
		c0-1.1-0.9-1.5-2.1-1.5c-0.4,0-0.8,0-0.9,0v-1c0.1,0,0.5,0,0.9,0c1.1,0,2-0.4,2-1.4c0-1-0.9-1.5-1.9-1.5c-0.9,0-1.6,0.4-2.3,1
		l-0.6-0.7c0.6-0.8,1.6-1.3,3-1.3c1.7,0,2.9,0.8,2.9,2.3c0,1.2-1,1.9-1.9,2c0.8,0.1,2,0.7,2,2.1c0,1.4-1.2,2.5-3.1,2.5
		c-1.5,0-2.5-0.6-3.1-1.4L310.8,15.5z"/>
</g>
<g>
	<defs>
		
			<filter id="Adobe_OpacityMaskFilter_00000144302811664863528110000005506267390998299799_" filterUnits="userSpaceOnUse" x="360.3" y="111.8" width="23.6" height="52.9">
			<feColorMatrix  type="matrix" values="1 0 0 0 0  0 1 0 0 0  0 0 1 0 0  0 0 0 1 0"/>
		</filter>
	</defs>
	
		<mask maskUnits="userSpaceOnUse" x="360.3" y="111.8" width="23.6" height="52.9" id="SVGID_00000090276468345928525170000014623362614204508065_">
		<g style="filter:url(#Adobe_OpacityMaskFilter_00000144302811664863528110000005506267390998299799_);">
			
				<linearGradient id="SVGID_00000110461973911131849170000004528047491576915897_" gradientUnits="userSpaceOnUse" x1="-99.6803" y1="507.1019" x2="-98.8552" y2="507.1019" gradientTransform="matrix(0 30.0871 30.0871 0 -14791.6768 3131.5295)">
				<stop  offset="0" style="stop-color:#FFFFFF"/>
				<stop  offset="1" style="stop-color:#000000"/>
			</linearGradient>
			
				<rect x="-260.7" y="-126.9" style="fill:url(#SVGID_00000110461973911131849170000004528047491576915897_);" width="1452.4" height="491.2"/>
		</g>
	</mask>
	<g style="mask:url(#SVGID_00000090276468345928525170000014623362614204508065_);">
		<g>
			<defs>
				<rect id="SVGID_00000101790911489564347410000010325858017465565885_" x="360.3" y="111.8" width="23.6" height="52.9"/>
			</defs>
			<clipPath id="SVGID_00000080170822776950585510000012037009621501805500_">
				<use xlink:href="#SVGID_00000101790911489564347410000010325858017465565885_"  style="overflow:visible;"/>
			</clipPath>
			
				<rect x="372.4" y="119.2" style="clip-path:url(#SVGID_00000080170822776950585510000012037009621501805500_);fill:#939598;" width="9.8" height="38"/>
		</g>
	</g>
	<line class="st6" x1="377.3" y1="157.3" x2="377.3" y2="25.9"/>
	<path class="st1" d="M368.2,17.9v-7.2l-1.8,1.9l-0.6-0.7l2.5-2.6h0.9v8.6H368.2z M376.1,17.9v-2.2H372v-0.9l3.7-5.6h1.5v5.5h1.2
		v0.9h-1.2v2.2H376.1z M376.1,10.3l-3,4.5h3V10.3z M383.5,9.2c1.1,0,1.9,0.4,2.4,1l-0.6,0.8c-0.4-0.5-0.9-0.9-1.8-0.9
		c-1.7,0-2.4,1.7-2.4,3.4c0,0.1,0,0.2,0,0.3c0.4-0.6,1.3-1.3,2.4-1.3c1.6,0,2.8,0.9,2.8,2.8c0,1.5-1.1,2.8-3,2.8
		c-2.4,0-3.3-2.1-3.3-4.5C380,11.3,381.1,9.2,383.5,9.2z M383.3,13.4c-0.9,0-1.7,0.5-2.2,1.3c0.1,1.1,0.7,2.4,2.2,2.4
		c1.3,0,2-1,2-1.8C385.3,14,384.4,13.4,383.3,13.4z"/>
</g>
</svg>
