<?xml version="1.0" encoding="utf-8"?>
<!-- Generator: Adobe Illustrator 26.4.0, SVG Export Plug-In . SVG Version: 6.00 Build 0)  -->
<svg version="1.1" id="Layer_1" xmlns="http://www.w3.org/2000/svg" xmlns:xlink="http://www.w3.org/1999/xlink" x="0px" y="0px"
	 viewBox="0 0 1000 490.4" style="enable-background:new 0 0 1000 490.4;" xml:space="preserve">
<style type="text/css">
	.st0{fill:#A9E0F9;}
	.st1{fill:none;stroke:#020303;stroke-miterlimit:10;}
</style>
<g>
	<path class="st0" d="M643.8,484.4c10.1,0,19.9-1.1,29.3-3.4c67.1-16.4,126.1-75.6,188.7-138.3c11.6-11.7,23.7-23.7,35.7-35.5
		c39.6-38.5,77-67,111.4-84.7c40.9-21.1,78.7-27.6,112.5-19.4c66.9,16.4,125.9,75.5,188.4,138.1c11.6,11.7,23.7,23.7,35.7,35.5
		c39.6,38.5,77.1,67,111.6,84.8c41.1,21.2,79.1,27.7,113.1,19.5c67-16.4,126.1-75.6,188.6-138.2c11.7-11.7,23.8-23.8,35.8-35.6
		l-0.5-0.3c-12.1,11.8-24.2,23.9-35.8,35.6c-62.4,62.6-121.4,121.7-188.3,138c-33.7,8.2-71.6,1.6-112.5-19.4
		c-34.4-17.7-71.9-46.2-111.4-84.7c-12-11.7-24.1-23.8-35.7-35.5c-62.5-62.7-121.6-121.9-188.7-138.3c-33.9-8.2-72-1.7-113.1,19.5
		c-34.4,17.7-72,46.3-111.6,84.8c-12.1,11.7-24.1,23.8-35.7,35.5C798.8,405,739.8,464.2,672.9,480.5c-33.7,8.2-71.6,1.6-112.5-19.4
		c-34.4-17.7-71.9-46.2-111.4-84.7c-12.1-11.8-24.2-23.9-35.8-35.6C350.7,278.2,291.7,219,224.6,202.6c-33.9-8.2-72-1.7-113.1,19.5
		c-34.4,17.7-72,46.3-111.6,84.8l0.5,0.3c39.6-38.5,77-67,111.4-84.7c40.9-21.1,78.7-27.6,112.5-19.4
		c66.9,16.3,125.8,75.5,188.3,138c11.7,11.7,23.8,23.8,35.8,35.6c39.6,38.5,77.1,67,111.6,84.8C589.7,476.7,617.7,484.4,643.8,484.4
		"/>
	<path class="st0" d="M652.9,472.4c10.1,0,19.8-1.1,29.3-3.3C749,453.6,808,397.6,870.4,338.3c11.6-11,23.6-22.5,35.7-33.6
		c39.5-36.4,76.9-63.3,111.2-80.1c40.8-19.9,78.6-26.1,112.2-18.4c66.7,15.5,125.6,71.4,187.9,130.6c11.6,11,23.6,22.5,35.7,33.6
		c39.5,36.4,77,63.4,111.3,80.2c41,20,78.9,26.2,112.8,18.4c66.9-15.5,125.8-71.5,188.1-130.7c11.7-11.1,23.7-22.5,35.8-33.6
		l-0.5-0.3c-12.1,11.1-24.1,22.6-35.8,33.6c-62.3,59.2-121.1,115.1-187.8,130.6c-33.7,7.7-71.4,1.6-112.2-18.4
		c-34.3-16.7-71.7-43.7-111.2-80.1c-12-11.1-24-22.5-35.7-33.6c-62.4-59.3-121.3-115.3-188.2-130.8c-33.9-7.8-71.8-1.6-112.8,18.4
		C982.4,241,945,268,905.5,304.4c-12,11.1-24,22.5-35.7,33.6c-62.3,59.2-121.2,115.2-187.9,130.6c-33.7,7.7-71.4,1.6-112.2-18.4
		c-34.3-16.7-71.7-43.7-111.1-80.1c-12.1-11.1-24.1-22.6-35.8-33.6c-62.4-59.3-121.2-115.2-188.1-130.7
		c-33.9-7.8-71.8-1.6-112.8,18.4C87.5,241,50.1,268,10.5,304.4l0.5,0.3c39.5-36.4,76.9-63.3,111.2-80.1
		c40.8-19.9,78.6-26.1,112.2-18.4c66.7,15.5,125.5,71.4,187.8,130.6c11.7,11.1,23.7,22.5,35.8,33.6c39.5,36.4,76.9,63.4,111.3,80.2
		C598.9,465.1,626.9,472.4,652.9,472.4"/>
	<path class="st0" d="M661.9,460.3c10,0,19.8-1,29.2-3.1c66.8-14.6,125.6-67.4,187.8-123.3c11.6-10.4,23.6-21.2,35.6-31.6
		c39.4-34.3,76.7-59.7,110.9-75.5c40.7-18.8,78.4-24.6,112-17.3c66.6,14.6,125.3,67.3,187.5,123.2c11.6,10.4,23.6,21.2,35.6,31.6
		c39.4,34.3,76.8,59.8,111.1,75.6c40.9,18.9,78.7,24.7,112.5,17.4c66.7-14.6,125.5-67.4,187.7-123.2c11.6-10.4,23.6-21.2,35.7-31.7
		l-0.5-0.3c-12,10.5-24,21.3-35.7,31.7c-62.1,55.8-120.8,108.5-187.4,123.1c-33.6,7.3-71.3,1.5-112-17.3
		c-34.2-15.8-71.5-41.2-110.9-75.5c-12-10.5-24-21.2-35.6-31.6c-62.2-55.9-121-108.7-187.8-123.3c-33.8-7.3-71.6-1.5-112.5,17.4
		c-34.3,15.8-71.6,41.2-111,75.6c-12,10.5-24,21.2-35.6,31.6c-62.2,55.8-120.9,108.6-187.5,123.2c-33.6,7.3-71.3,1.5-112-17.3
		c-34.2-15.8-71.5-41.2-110.9-75.5c-12-10.5-24-21.3-35.7-31.7c-62.2-55.9-121-108.6-187.7-123.2c-33.8-7.3-71.6-1.5-112.5,17.4
		C97.9,242.2,60.5,267.6,21.1,302l0.5,0.3C61,268,98.3,242.6,132.5,226.8c40.7-18.8,78.4-24.6,112-17.3
		c66.5,14.6,125.2,67.3,187.4,123.1c11.6,10.4,23.6,21.2,35.7,31.7c39.4,34.3,76.8,59.8,111,75.6C608.1,453.5,636,460.3,661.9,460.3
		"/>
	<path class="st0" d="M671,448.3c10,0,19.7-1,29.1-2.9c66.6-13.7,125.3-63.3,187.4-115.8c11.6-9.8,23.5-19.9,35.5-29.7
		c39.3-32.2,76.5-56.1,110.6-70.9c40.6-17.6,78.2-23.1,111.7-16.3c66.4,13.7,125,63.2,187.1,115.7c11.6,9.8,23.5,19.9,35.5,29.7
		c39.3,32.3,76.6,56.1,110.8,71c40.8,17.7,78.6,23.2,112.3,16.3c66.6-13.7,125.2-63.3,187.3-115.7c11.6-9.8,23.6-19.9,35.6-29.8
		l-0.5-0.3c-12,9.8-24,20-35.6,29.8c-62,52.4-120.6,101.9-187,115.6c-33.5,6.9-71.1,1.4-111.7-16.3c-34.1-14.8-71.4-38.7-110.6-70.9
		c-12-9.8-23.9-19.9-35.5-29.7c-62.1-52.5-120.8-102.1-187.4-115.8c-33.7-6.9-71.5-1.4-112.3,16.3c-34.2,14.9-71.5,38.7-110.8,71
		c-12,9.8-23.9,19.9-35.5,29.7c-62,52.4-120.6,102-187.1,115.7c-33.5,6.9-71.1,1.4-111.7-16.3c-34.1-14.8-71.4-38.7-110.6-70.9
		c-12-9.8-24-20-35.6-29.8c-62.1-52.5-120.7-102-187.3-115.7c-33.7-6.9-71.5-1.4-112.2,16.3c-34.2,14.8-71.5,38.7-110.8,71l0.5,0.3
		c39.3-32.2,76.5-56.1,110.6-70.9c40.6-17.6,78.2-23.1,111.7-16.3c66.4,13.7,125,63.2,187,115.6c11.6,9.8,23.6,19.9,35.6,29.8
		c39.3,32.3,76.6,56.1,110.8,71C617.3,441.8,645.1,448.3,671,448.3"/>
	<path class="st0" d="M680.1,436.2c10,0,19.7-0.9,29-2.7c66.5-12.8,125-59.2,186.9-108.3c11.5-9.1,23.5-18.6,35.4-27.8
		c39.2-30.1,76.3-52.4,110.4-66.3c40.5-16.5,78-21.6,111.5-15.2c66.3,12.8,124.7,59.1,186.6,108.2c11.5,9.1,23.5,18.6,35.4,27.8
		c39.2,30.2,76.4,52.5,110.5,66.4c40.7,16.6,78.4,21.7,112,15.3c66.4-12.8,124.9-59.2,186.8-108.3c11.6-9.2,23.5-18.6,35.5-27.9
		l-0.5-0.3c-12,9.2-23.9,18.7-35.5,27.9c-61.9,49-120.3,95.3-186.5,108.1c-33.4,6.4-70.9,1.3-111.5-15.2
		c-34.1-13.9-71.2-36.2-110.4-66.3c-11.9-9.2-23.9-18.6-35.4-27.8c-62-49.1-120.5-95.5-186.9-108.3c-33.6-6.4-71.3-1.3-112,15.3
		c-34.1,13.9-71.3,36.2-110.5,66.4c-11.9,9.2-23.9,18.6-35.4,27.8c-61.9,49.1-120.4,95.4-186.6,108.2c-33.4,6.4-71,1.3-111.5-15.2
		c-34.1-13.9-71.2-36.2-110.4-66.3c-12-9.2-23.9-18.7-35.5-27.9c-61.9-49.1-120.4-95.4-186.9-108.3c-33.6-6.4-71.3-1.3-112,15.3
		c-34.1,13.9-71.3,36.2-110.5,66.4l0.5,0.3c39.2-30.1,76.3-52.4,110.4-66.3c40.5-16.5,78-21.6,111.5-15.2
		C330.8,228.7,389.2,275,451.1,324c11.6,9.2,23.5,18.6,35.5,27.9c39.2,30.2,76.4,52.5,110.5,66.4
		C626.5,430.2,654.2,436.2,680.1,436.2"/>
	<path class="st0" d="M689.1,424.1c10,0,19.6-0.8,29-2.5c66.3-12,124.7-55.1,186.5-100.8c11.5-8.5,23.4-17.3,35.3-25.9
		c39.1-28.1,76.1-48.8,110.1-61.7c40.4-15.4,77.9-20.1,111.2-14.2c66.1,11.9,124.4,55,186.2,100.7c11.5,8.5,23.4,17.3,35.3,25.9
		c39.1,28.1,76.2,48.9,110.3,61.8c40.6,15.4,78.2,20.2,111.7,14.2c66.3-12,124.6-55.1,186.4-100.8c11.5-8.5,23.5-17.4,35.4-25.9
		l-0.5-0.3c-11.9,8.6-23.9,17.4-35.4,25.9c-61.7,45.6-120,88.7-186.1,100.6c-33.4,6-70.8,1.2-111.2-14.2
		c-34-12.9-71-33.7-110.1-61.7c-11.9-8.6-23.8-17.4-35.3-25.9c-61.8-45.7-120.2-88.9-186.5-100.8c-33.5-6-71.1-1.2-111.7,14.2
		c-34,12.9-71.1,33.7-110.3,61.8c-11.9,8.6-23.8,17.4-35.3,25.9c-61.7,45.7-120.1,88.8-186.2,100.7c-33.4,6-70.8,1.2-111.2-14.2
		c-34-12.9-71-33.7-110.1-61.7c-11.9-8.6-23.9-17.4-35.4-25.9c-61.8-45.7-120.1-88.8-186.4-100.8c-33.5-6-71.1-1.2-111.7,14.2
		c-34,12.9-71.1,33.7-110.3,61.8l0.5,0.3c39.1-28.1,76.2-48.8,110.1-61.7c40.4-15.4,77.9-20.1,111.2-14.2
		c66.1,11.9,124.4,55,186.1,100.6c11.5,8.5,23.5,17.4,35.4,25.9c39.1,28.1,76.2,48.9,110.3,61.8
		C635.7,418.6,663.4,424.1,689.1,424.1"/>
	<path class="st0" d="M698.2,412.1c9.9,0,19.6-0.8,28.9-2.3c66.1-11.1,124.4-51,186.1-93.3c11.5-7.9,23.4-16,35.2-23.9
		c85.3-56.8,159.6-80.4,220.9-70.2c66,11,124.2,51,185.8,93.2c11.5,7.9,23.4,16,35.3,23.9c39.1,26,76.1,45.2,110,57.2
		c40.5,14.3,78,18.7,111.4,13.1c66.1-11.1,124.3-51,186-93.3c11.5-7.9,23.4-16.1,35.3-24l-0.4-0.3c-11.9,7.9-23.8,16.1-35.4,24
		c-61.6,42.2-119.7,82.1-185.7,93.2c-61.3,10.2-135.6-13.5-220.9-70.2c-11.9-7.9-23.8-16.1-35.2-23.9
		c-61.7-42.3-119.9-82.3-186.1-93.3c-33.4-5.6-70.9-1.1-111.4,13.1c-34,12-71,31.2-110,57.2c-11.9,7.9-23.8,16.1-35.3,23.9
		c-61.6,42.3-119.8,82.2-185.8,93.2c-61.3,10.2-135.6-13.5-220.9-70.2c-11.9-7.9-23.8-16.1-35.3-24c-61.6-42.3-119.9-82.2-186-93.3
		c-33.4-5.6-70.9-1.1-111.4,13.1c-33.9,12-71,31.2-110,57.2l0.4,0.3c85.3-56.8,159.6-80.4,220.9-70.2c65.9,11,124.1,50.9,185.7,93.2
		c11.5,7.9,23.4,16.1,35.3,24c39,26,76.1,45.2,110,57.2C644.9,406.9,672.5,412.1,698.2,412.1"/>
	<path class="st0" d="M707.3,400c9.9,0,19.5-0.7,28.8-2.1c66-10.2,124.1-46.9,185.6-85.8c11.5-7.2,23.3-14.7,35.2-22
		c85.1-52.2,159.2-74,220.4-64.6c65.8,10.2,123.9,46.9,185.3,85.7c11.5,7.2,23.3,14.7,35.2,22c39,23.9,75.9,41.6,109.8,52.6
		c40.4,13.1,77.8,17.2,111.2,12.1c66-10.2,124-46.9,185.5-85.8c11.5-7.3,23.4-14.8,35.3-22.1l-0.4-0.4
		c-11.9,7.3-23.8,14.8-35.3,22.1c-61.4,38.8-119.4,75.5-185.2,85.7c-61.1,9.3-135.3-12.4-220.4-64.6c-11.9-7.3-23.7-14.8-35.2-22
		c-61.5-38.9-119.6-75.7-185.6-85.8c-33.4-5.1-70.8-1-111.2,12.1c-33.9,11-70.8,28.7-109.8,52.6c-11.9,7.3-23.7,14.8-35.2,22
		c-61.5,38.9-119.5,75.6-185.3,85.7c-61.2,9.4-135.3-12.4-220.4-64.6c-11.9-7.3-23.8-14.8-35.3-22.1
		c-61.5-38.9-119.6-75.6-185.5-85.8c-33.4-5.1-70.8-1-111.2,12.1c-33.9,11-70.8,28.7-109.8,52.6l0.4,0.4
		c85.1-52.2,159.3-74,220.4-64.6c65.8,10.1,123.8,46.8,185.2,85.7c11.5,7.3,23.4,14.8,35.3,22.1c38.9,23.9,75.9,41.6,109.8,52.6
		C654.1,395.3,681.6,400,707.3,400"/>
	<path class="st0" d="M716.3,388c9.9,0,19.5-0.6,28.8-1.9c65.8-9.3,123.8-42.8,185.2-78.3c11.4-6.6,23.3-13.5,35.1-20.1
		c84.9-47.7,158.9-67.5,219.9-59c65.7,9.3,123.6,42.8,184.9,78.2c11.4,6.6,23.3,13.5,35.1,20.1c38.9,21.8,75.7,38,109.5,48
		c40.3,12,77.6,15.7,110.9,11c65.8-9.3,123.7-42.8,185.1-78.3c11.5-6.6,23.3-13.5,35.2-20.1l-0.4-0.4c-11.9,6.7-23.7,13.5-35.2,20.2
		c-61.3,35.4-119.2,68.9-184.8,78.2c-61,8.5-135-11.3-219.9-59c-11.8-6.6-23.6-13.5-35.1-20.1c-61.4-35.5-119.4-69-185.2-78.3
		c-33.3-4.7-70.6-0.9-110.9,11c-33.8,10-70.6,26.2-109.5,48c-11.8,6.6-23.7,13.5-35.1,20.1c-61.3,35.5-119.2,69-184.9,78.2
		c-61,8.5-135-11.3-219.9-59c-11.9-6.7-23.7-13.5-35.2-20.1c-61.4-35.5-119.3-69-185.1-78.3c-33.3-4.7-70.6-0.9-110.9,11
		c-33.8,10-70.6,26.2-109.5,48l0.4,0.4c84.9-47.7,158.9-67.5,219.9-59c65.6,9.3,123.5,42.7,184.8,78.2c11.5,6.6,23.3,13.5,35.2,20.1
		c38.9,21.8,75.7,38,109.5,48C663.3,383.6,690.8,388,716.3,388"/>
	<path class="st0" d="M725.4,375.9c9.9,0,19.4-0.6,28.7-1.8c65.7-8.4,123.5-38.7,184.8-70.8c11.4-6,23.2-12.2,35-18.2
		c84.7-43.1,158.5-61,219.4-53.3c65.5,8.4,123.3,38.7,184.5,70.8c11.4,6,23.2,12.2,35,18.2c38.8,19.7,75.5,34.3,109.3,43.4
		c40.2,10.8,77.4,14.2,110.6,10c65.6-8.4,123.5-38.7,184.7-70.8c11.4-6,23.3-12.2,35.1-18.2l-0.4-0.4c-11.8,6-23.7,12.2-35.1,18.2
		c-61.1,32.1-118.9,62.3-184.4,70.7c-60.9,7.7-134.7-10.2-219.4-53.3c-11.8-6-23.6-12.2-35-18.2c-61.2-32.1-119.1-62.4-184.8-70.8
		c-33.2-4.2-70.4-0.9-110.6,10c-33.7,9.1-70.5,23.7-109.3,43.4c-11.8,6-23.6,12.2-35,18.2c-61.2,32.1-119,62.4-184.5,70.8
		c-60.9,7.7-134.7-10.2-219.4-53.3c-11.8-6-23.7-12.2-35.1-18.2c-61.2-32.1-119-62.4-184.7-70.8c-33.2-4.2-70.4-0.9-110.6,10
		c-33.7,9.1-70.5,23.7-109.3,43.4l0.4,0.4c84.7-43.1,158.6-61,219.4-53.3c65.5,8.4,123.2,38.7,184.4,70.7
		c11.4,6,23.3,12.2,35.1,18.2c38.8,19.7,75.5,34.3,109.3,43.4C672.5,372,699.9,375.9,725.4,375.9"/>
	<path class="st0" d="M734.5,363.9c9.8,0,19.4-0.5,28.6-1.6c65.5-7.5,123.2-34.6,184.3-63.3c11.4-5.3,23.1-10.9,34.9-16.2
		c84.5-38.5,158.2-54.6,218.9-47.7c65.4,7.5,123,34.6,184.1,63.3c11.4,5.3,23.1,10.9,34.9,16.3c38.7,17.6,75.4,30.7,109,38.8
		c40.1,9.7,77.2,12.7,110.3,8.9c65.5-7.5,123.2-34.6,184.2-63.3c11.4-5.4,23.2-10.9,35-16.3l-0.4-0.4c-11.8,5.4-23.6,10.9-35,16.3
		c-61,28.7-118.6,55.7-184,63.2c-60.7,6.9-134.4-9.1-218.9-47.7c-11.8-5.4-23.5-10.9-34.9-16.2c-61.1-28.7-118.8-55.8-184.3-63.3
		c-33.1-3.8-70.2-0.8-110.3,8.9c-33.6,8.1-70.3,21.2-109,38.8c-11.8,5.4-23.5,10.9-34.9,16.3c-61,28.7-118.7,55.8-184.1,63.3
		c-60.7,6.9-134.4-9.1-218.9-47.7c-11.8-5.4-23.6-10.9-35-16.3c-61.1-28.7-118.7-55.8-184.2-63.3c-33.1-3.8-70.2-0.8-110.3,8.9
		c-33.6,8.1-70.3,21.2-109,38.8l0.4,0.4c84.5-38.5,158.2-54.6,218.9-47.7c65.3,7.5,123,34.6,184,63.2c11.4,5.4,23.2,10.9,35,16.3
		c38.7,17.6,75.3,30.7,109,38.8C681.7,360.4,709,363.9,734.5,363.9"/>
	<path class="st0" d="M743.5,351.8c9.8,0,19.3-0.5,28.5-1.4c65.4-6.6,122.9-30.5,183.9-55.8c11.4-4.7,23.1-9.6,34.8-14.3
		c84.3-34,157.8-48.1,218.4-42c65.2,6.6,122.8,30.5,183.6,55.8c11.4,4.7,23.1,9.6,34.8,14.3c38.6,15.6,75.2,27.1,108.7,34.2
		c40,8.5,77,11.2,110.1,7.9c65.3-6.6,122.9-30.5,183.8-55.8c11.4-4.7,23.2-9.6,34.9-14.4l-0.3-0.4c-11.8,4.7-23.6,9.6-34.9,14.4
		c-60.9,25.3-118.4,49.1-183.5,55.7c-60.6,6.1-134.1-8.1-218.4-42c-11.7-4.7-23.5-9.6-34.8-14.3c-61-25.3-118.5-49.2-183.9-55.8
		c-33-3.3-70.1-0.7-110.1,7.9c-33.6,7.2-70.1,18.7-108.7,34.2c-11.7,4.7-23.5,9.6-34.8,14.3C894.7,319.5,837.2,343.4,772,350
		c-60.6,6.1-134.1-8.1-218.4-42c-11.8-4.7-23.5-9.6-34.9-14.4c-60.9-25.3-118.5-49.2-183.8-55.8c-33-3.3-70.1-0.7-110.1,7.9
		c-33.5,7.2-70.1,18.7-108.7,34.2l0.3,0.4c84.3-34,157.8-48.1,218.4-42c65.2,6.6,122.7,30.5,183.5,55.8c11.4,4.7,23.2,9.6,34.9,14.4
		c38.6,15.6,75.2,27.1,108.7,34.2C690.9,348.7,718.2,351.8,743.5,351.8"/>
	<path class="st0" d="M1625,339.8c9.8,0,19.3-0.4,28.5-1.2c65.2-5.7,122.6-26.4,183.3-48.3c11.4-4.1,23.1-8.3,34.8-12.4l-0.3-0.4
		c-11.8,4.1-23.5,8.3-34.9,12.4c-60.7,21.9-118.1,42.6-183.1,48.3c-60.5,5.3-133.8-7-217.9-36.4c-11.7-4.1-23.4-8.3-34.8-12.4
		c-60.8-21.9-118.2-42.6-183.4-48.3c-32.9-2.9-69.9-0.6-109.8,6.8c-33.5,6.2-70,16.2-108.5,29.6c-11.7,4.1-23.4,8.3-34.7,12.4
		c-60.8,21.9-118.1,42.6-183.2,48.3c-60.5,5.3-133.8-7-217.9-36.4c-11.7-4.1-23.5-8.3-34.8-12.4c-60.8-21.9-118.2-42.6-183.3-48.3
		c-32.9-2.9-69.9-0.6-109.8,6.8c-33.5,6.2-70,16.2-108.5,29.6l0.3,0.4c84.2-29.4,157.5-41.7,217.9-36.4
		c65.1,5.7,122.4,26.4,183.1,48.3c11.4,4.1,23.1,8.3,34.9,12.4c71.5,25,135.3,37.6,190,37.6c9.7,0,19.1-0.4,28.3-1.2
		c65.2-5.7,122.6-26.4,183.4-48.3c11.3-4.1,23-8.3,34.7-12.4c84.1-29.4,157.5-41.7,217.9-36.4c65.1,5.7,122.5,26.4,183.2,48.3
		c11.3,4.1,23,8.3,34.8,12.4c38.5,13.5,75,23.4,108.5,29.6C1572.4,337.1,1599.7,339.8,1625,339.8"/>
	<path class="st0" d="M761.8,327.7c9.7,0,19.1-0.3,28.2-1c65-4.8,122.3-22.3,183-40.9c11.3-3.4,23-7,34.7-10.5
		c83.9-24.9,157.1-35.2,217.4-30.8c64.9,4.8,122.2,22.3,182.8,40.8c11.3,3.5,23,7,34.7,10.5c84,24.9,157.3,35.3,217.7,30.8
		c65-4.8,122.3-22.3,182.9-40.8c11.3-3.5,23-7,34.8-10.5l-0.3-0.4c-11.7,3.5-23.4,7-34.8,10.5c-60.6,18.5-117.8,36-182.7,40.8
		c-60.3,4.5-133.5-5.9-217.4-30.8c-11.7-3.5-23.4-7-34.7-10.5c-60.7-18.5-118-36-183-40.8c-60.4-4.5-133.7,5.9-217.7,30.8
		c-11.7,3.5-23.4,7-34.7,10.5c-60.6,18.5-117.9,36-182.8,40.8c-60.3,4.5-133.5-5.9-217.4-30.8c-11.7-3.5-23.4-7-34.8-10.5
		c-60.6-18.5-117.9-36-182.9-40.8c-60.4-4.5-133.7,5.9-217.7,30.8l0.2,0.4c84-24.9,157.1-35.2,217.4-30.8
		c64.9,4.8,122.1,22.3,182.7,40.8c11.3,3.5,23.1,7,34.8,10.5C643.7,317.1,707.3,327.7,761.8,327.7"/>
	<path class="st0" d="M770.9,315.7c9.7,0,19.1-0.3,28.1-0.8c64.9-4,122-18.2,182.6-33.4c11.3-2.8,22.9-5.7,34.6-8.6
		c83.8-20.3,156.7-28.8,216.9-25.1c64.8,3.9,121.9,18.2,182.4,33.3c11.3,2.8,22.9,5.7,34.6,8.6c83.8,20.3,156.9,28.8,217.2,25.1
		c64.8-4,122-18.2,182.5-33.3c11.3-2.8,23-5.7,34.7-8.6l-0.2-0.4c-11.7,2.8-23.4,5.8-34.7,8.6c-60.4,15.1-117.5,29.4-182.3,33.3
		c-60.2,3.6-133.2-4.8-216.9-25.1c-11.7-2.8-23.3-5.7-34.6-8.6c-60.5-15.1-117.7-29.4-182.5-33.4c-60.3-3.6-133.4,4.8-217.2,25.1
		c-11.7,2.8-23.3,5.7-34.6,8.6c-60.5,15.1-117.6,29.4-182.4,33.3c-60.2,3.6-133.2-4.8-216.9-25.1c-11.7-2.8-23.4-5.8-34.7-8.6
		c-60.5-15.1-117.6-29.4-182.5-33.3c-60.3-3.6-133.3,4.8-217.2,25.1l0.2,0.4c83.8-20.3,156.8-28.8,216.9-25.1
		c64.8,3.9,121.8,18.2,182.3,33.3c11.3,2.8,23,5.7,34.7,8.6C653,307,716.5,315.7,770.9,315.7"/>
	<path class="st0" d="M780,303.6c9.6,0,19-0.2,28.1-0.6c64.7-3.1,121.7-14.1,182.1-25.9c11.2-2.2,22.9-4.4,34.5-6.6
		c83.6-15.7,156.4-22.3,216.4-19.5c64.6,3.1,121.6,14.1,182,25.8c11.2,2.2,22.9,4.4,34.5,6.6c83.6,15.8,156.5,22.3,216.7,19.5
		c64.7-3.1,121.7-14.1,182-25.8c11.3-2.2,22.9-4.5,34.6-6.7l-0.2-0.5c-11.7,2.2-23.3,4.5-34.6,6.7c-60.3,11.7-117.3,22.8-181.9,25.8
		c-60.1,2.8-132.9-3.7-216.4-19.5c-11.6-2.2-23.3-4.5-34.5-6.6c-60.4-11.7-117.4-22.8-182.1-25.9c-60.1-2.8-133,3.7-216.7,19.5
		c-11.6,2.2-23.3,4.5-34.5,6.6c-60.3,11.7-117.3,22.8-182,25.8c-60.1,2.8-132.9-3.7-216.4-19.5c-11.7-2.2-23.3-4.5-34.6-6.7
		c-60.3-11.7-117.3-22.8-182-25.8c-60.1-2.8-133,3.7-216.7,19.5l0.2,0.5c83.6-15.7,156.4-22.3,216.4-19.5
		c64.6,3.1,121.6,14.1,181.9,25.8c11.3,2.2,22.9,4.5,34.6,6.7C662.4,296.9,725.7,303.6,780,303.6"/>
	<path class="st0" d="M789.1,291.6c9.6,0,18.9-0.2,28-0.5c64.6-2.2,121.4-10,181.7-18.4c11.2-1.5,22.8-3.2,34.4-4.7
		c83.4-11.2,156-15.8,216-13.8c64.5,2.2,121.4,10,181.6,18.4c11.2,1.6,22.8,3.2,34.4,4.7c83.4,11.2,156.1,15.8,216.1,13.8
		c64.5-2.2,121.4-10,181.6-18.4c11.2-1.6,22.9-3.2,34.5-4.7l-0.1-0.5c-11.6,1.6-23.3,3.2-34.5,4.7c-60.2,8.3-117,16.2-181.5,18.3
		c-59.9,2-132.6-2.7-216-13.8c-11.6-1.6-23.2-3.2-34.4-4.7c-60.2-8.3-117.1-16.2-181.6-18.4c-60-2-132.7,2.6-216.1,13.8
		c-11.6,1.6-23.2,3.2-34.4,4.7c-60.2,8.3-117.1,16.2-181.6,18.4c-59.9,2-132.6-2.6-216-13.8c-11.6-1.6-23.3-3.2-34.5-4.7
		c-60.2-8.3-117-16.2-181.5-18.3c-60-2-132.7,2.7-216.1,13.8l0.1,0.5c83.4-11.2,156.1-15.8,216-13.8c64.5,2.2,121.3,10,181.5,18.3
		c11.3,1.6,22.9,3.2,34.5,4.7C671.8,286.8,734.9,291.6,789.1,291.6"/>
	<path class="st0" d="M798.1,279.5c9.6,0,18.9-0.1,27.9-0.3c64.4-1.3,121.2-5.9,181.3-10.9c11.2-0.9,22.7-1.9,34.3-2.8
		c83.2-6.6,155.7-9.4,215.5-8.2c64.4,1.3,121.1,5.9,181.1,10.9c11.2,0.9,22.8,1.9,34.4,2.8c83.2,6.6,155.7,9.4,215.6,8.2
		c64.4-1.3,121.1-5.9,181.1-10.9c11.2-0.9,22.8-1.9,34.4-2.8l-0.1-0.5c-11.6,0.9-23.2,1.9-34.4,2.8c-60,4.9-116.7,9.6-181.1,10.9
		c-59.8,1.2-132.3-1.6-215.5-8.2c-11.6-0.9-23.2-1.9-34.4-2.8c-60.1-4.9-116.8-9.6-181.2-10.9c-59.8-1.2-132.3,1.6-215.6,8.2
		c-11.6,0.9-23.1,1.9-34.3,2.8c-60.1,4.9-116.8,9.6-181.2,10.9c-59.8,1.2-132.3-1.6-215.5-8.2c-11.6-0.9-23.2-1.9-34.4-2.8
		c-60-4.9-116.7-9.6-181.1-10.9c-59.8-1.2-132.3,1.6-215.6,8.2l0.1,0.5c83.2-6.6,155.7-9.4,215.5-8.2c64.3,1.3,121,5.9,181,10.9
		c11.2,0.9,22.8,1.9,34.5,2.8C681.1,276.7,744.1,279.5,798.1,279.5"/>
	<path class="st0" d="M807.2,267.5c9.6,0,18.9,0,27.9-0.1c64.3-0.4,120.9-1.8,180.9-3.4c11.3-0.3,22.6-0.6,34.1-0.9
		c83-2.1,155.4-2.9,215-2.5c64.2,0.4,120.8,1.8,180.7,3.4c11.3,0.3,22.7,0.6,34.3,0.9c83,2.1,155.3,2.9,215,2.5
		c64.2-0.4,120.7-1.8,180.6-3.4c11.4-0.3,22.8-0.6,34.5-0.9l0-0.5c-11.6,0.3-23.1,0.6-34.5,0.9c-59.9,1.5-116.4,3-180.5,3.4
		c-59.7,0.4-132-0.5-215-2.5c-11.6-0.3-23-0.6-34.3-0.9c-59.9-1.5-116.5-3-180.7-3.4c-59.6-0.4-132,0.5-215,2.5
		c-11.5,0.3-22.9,0.6-34.1,0.9c-60,1.5-116.6,3-180.9,3.4c-59.7,0.4-132.1-0.5-215-2.5c-11.6-0.3-23.1-0.6-34.4-0.9
		c-59.9-1.5-116.4-3-180.6-3.4c-59.7-0.4-132,0.5-215,2.5l0,0.5c83-2.1,155.3-2.9,215-2.5c64.2,0.4,120.7,1.8,180.5,3.4
		c11.4,0.3,22.8,0.6,34.4,0.9C690.5,266.6,753.3,267.5,807.2,267.5"/>
	<path class="st0" d="M1245.2,263.9c9.5,0,18.8,0,27.8-0.1c64.1-0.5,120.5-2.3,180.3-4.1c11.3-0.4,22.7-0.7,34.2-1.1
		c82.8-2.5,155-3.6,214.5-3.1c64.1,0.5,120.5,2.2,180.3,4.1c11.3,0.4,22.7,0.7,34.2,1.1l0-0.5c-11.5-0.3-22.9-0.7-34.2-1.1
		c-59.8-1.9-116.2-3.6-180.3-4.1c-59.5-0.5-131.7,0.6-214.5,3.1c-11.5,0.4-22.9,0.7-34.2,1.1c-59.8,1.9-116.2,3.6-180.3,4.1
		c-59.5,0.4-131.7-0.6-214.5-3.1c-11.6-0.4-23-0.7-34.3-1.1c-59.8-1.9-116.2-3.6-180.2-4.1c-59.5-0.5-131.7,0.6-214.5,3.1
		c-11.5,0.4-22.9,0.7-34.2,1.1c-59.8,1.9-116.2,3.6-180.2,4.1c-59.5,0.4-131.6-0.6-214.5-3.1l0,0.5c82.9,2.5,155,3.6,214.5,3.1
		c64-0.5,120.5-2.2,180.2-4.1c11.3-0.4,22.7-0.7,34.3-1.1c82.8-2.5,155-3.6,214.5-3.1c64,0.5,120.5,2.2,180.2,4.1
		c11.3,0.4,22.7,0.7,34.3,1.1C1128.8,262.8,1191.5,263.9,1245.2,263.9"/>
	<path class="st0" d="M1253.3,267.3c9.5,0,18.8-0.1,27.7-0.3c63.9-1.4,120.3-6.3,179.9-11.6c11.1-1,22.6-2,34.1-3
		c82.6-7.1,154.6-10,213.9-8.7c63.9,1.4,120.2,6.3,179.8,11.6c11.1,1,22.6,2,34.2,3l0.1-0.5c-11.5-1-23-2-34.2-3
		c-59.6-5.3-115.9-10.2-179.8-11.6c-59.4-1.3-131.4,1.7-214,8.8c-11.5,1-23,2-34.1,3c-59.6,5.3-116,10.2-179.9,11.6
		c-59.4,1.3-131.3-1.7-213.9-8.7c-11.5-1-23-2-34.1-3c-59.6-5.3-116-10.2-179.9-11.6c-59.4-1.3-131.4,1.7-214,8.8
		c-11.5,1-23,2-34.1,3c-59.6,5.3-115.9,10.2-179.8,11.6c-59.3,1.3-131.3-1.7-213.9-8.7l-0.1,0.5c82.6,7.1,154.6,10,214,8.8
		c63.9-1.4,120.2-6.3,179.9-11.6c11.1-1,22.6-2,34.1-3c82.6-7.1,154.6-10,213.9-8.7c63.9,1.4,120.2,6.3,179.8,11.6
		c11.1,1,22.6,2,34.1,3C1137.1,264.2,1199.7,267.3,1253.3,267.3"/>
	<path class="st0" d="M1261.3,270.6c9.5,0,18.7-0.2,27.7-0.5c63.8-2.3,120-10.4,179.5-19.1c11.1-1.6,22.5-3.3,34-4.9
		c82.4-11.6,154.2-16.5,213.4-14.4c63.7,2.3,119.9,10.4,179.3,19.1c11.1,1.6,22.6,3.3,34.1,4.9l0.1-0.5c-11.5-1.6-23-3.3-34.1-4.9
		c-59.5-8.7-115.7-16.8-179.4-19.1c-59.3-2.1-131.1,2.8-213.5,14.4c-11.5,1.6-22.9,3.3-34,4.9c-59.5,8.7-115.7,16.8-179.4,19.1
		c-59.2,2.1-131-2.8-213.4-14.4c-11.5-1.6-23-3.3-34-4.9c-59.5-8.7-115.7-16.8-179.5-19.1c-59.3-2.1-131.1,2.8-213.5,14.4
		c-11.5,1.6-23,3.3-34.1,4.9c-59.5,8.7-115.6,16.8-179.3,19.1c-59.2,2.1-131-2.8-213.4-14.4l-0.1,0.5
		c82.5,11.6,154.3,16.5,213.5,14.4c63.8-2.3,119.9-10.4,179.4-19.1c11.1-1.6,22.6-3.3,34.1-4.9c82.4-11.6,154.2-16.5,213.4-14.4
		c63.7,2.3,119.9,10.4,179.4,19.1c11.1,1.6,22.6,3.3,34.1,4.9C1145.4,265.7,1207.8,270.6,1261.3,270.6"/>
	<path class="st0" d="M1269.4,274c9.5,0,18.7-0.2,27.6-0.7c63.6-3.2,119.7-14.5,179.1-26.6c11.1-2.2,22.5-4.6,33.9-6.8
		c82.2-16.2,153.8-22.9,212.8-20c63.5,3.1,119.6,14.5,178.9,26.6c11.1,2.3,22.5,4.6,34,6.8l0.2-0.5c-11.5-2.3-22.9-4.6-34-6.8
		c-59.3-12.1-115.4-23.4-179-26.6c-59.1-2.9-130.8,3.8-213.1,20c-11.4,2.3-22.9,4.6-33.9,6.8c-59.3,12.1-115.4,23.4-179,26.6
		c-59.1,2.9-130.7-3.8-212.8-20c-11.4-2.3-22.9-4.6-34-6.8c-59.4-12.1-115.4-23.4-179.1-26.6c-59.1-2.9-130.8,3.8-213.1,20
		c-11.5,2.3-22.9,4.6-34,6.8c-59.3,12-115.3,23.4-178.9,26.6c-59,2.9-130.6-3.8-212.8-20l-0.2,0.5c82.3,16.2,154,23,213.1,20.1
		c63.6-3.2,119.7-14.5,179-26.6c11.1-2.2,22.5-4.6,34-6.8c82.2-16.2,153.8-22.9,212.8-20c63.6,3.1,119.6,14.5,178.9,26.6
		c11.1,2.2,22.5,4.6,34,6.8C1153.8,267.1,1216,274,1269.4,274"/>
	<path class="st0" d="M1277.4,277.4c9.5,0,18.6-0.3,27.5-0.8c63.5-4,119.4-18.6,178.7-34.1c11-2.9,22.4-5.9,33.8-8.7
		c82-20.8,153.4-29.4,212.3-25.7c63.4,4,119.3,18.6,178.4,34c11.1,2.9,22.5,5.9,33.9,8.8l0.2-0.4c-11.4-2.9-22.9-5.9-33.9-8.8
		c-59.2-15.4-115.1-30-178.6-34.1c-59-3.7-130.5,4.9-212.6,25.7c-11.4,2.9-22.8,5.9-33.9,8.7c-59.2,15.4-115.1,30-178.5,34.1
		c-58.9,3.7-130.3-4.9-212.3-25.7c-11.4-2.9-22.8-5.9-33.9-8.8c-59.2-15.5-115.2-30.1-178.7-34.1c-59-3.7-130.5,4.9-212.6,25.7
		c-11.4,2.9-22.9,5.9-33.9,8.8c-59.2,15.4-115,30-178.4,34.1c-58.9,3.7-130.3-4.9-212.3-25.7l-0.2,0.4
		c82.1,20.8,153.6,29.4,212.6,25.7c63.5-4,119.4-18.6,178.6-34.1c11.1-2.9,22.5-5.9,33.9-8.8c82-20.8,153.4-29.4,212.3-25.7
		c63.4,4,119.3,18.6,178.5,34.1c11,2.9,22.4,5.9,33.9,8.8C1162.1,268.5,1224.1,277.4,1277.4,277.4"/>
	<path class="st0" d="M428.6,282.1c10.8,0,21.3-0.4,31.3-1.1c61.6-4.4,116-18.9,173.6-34.2c10.9-2.9,22.1-5.9,33.4-8.8
		c5.7-1.5,11.4-2.9,17.1-4.3c72.5-17.6,136.4-25,189.9-22.1c63.6,3.5,119.7,17.9,179.2,33.2c9.3,2.4,18.9,4.9,28.5,7.3
		c81.7,20.5,149.5,29,207.5,26c62-3.4,116.7-16.8,174.6-31c10.6-2.6,21.5-5.3,32.4-7.9c5.7-1.4,11.5-2.7,17.1-3.9
		c72.8-16.1,136.7-22.5,189.9-18.8c60.5,4.2,114,17.8,170.6,32.1c12.1,3.1,24.6,6.3,37.1,9.3l0.2-0.4c-12.5-3.1-25-6.2-37.1-9.3
		c-56.6-14.4-110.1-28-170.7-32.2c-53.3-3.6-117.2,2.7-190.1,18.9c-5.6,1.2-11.4,2.6-17.1,3.9c-10.9,2.6-21.9,5.3-32.4,7.9
		c-57.9,14.2-112.5,27.6-174.4,31c-57.8,3-125.6-5.5-207.2-26c-9.6-2.4-19.2-4.9-28.5-7.3c-59.5-15.3-115.7-29.7-179.4-33.2
		c-53.6-3-117.6,4.5-190.1,22.1c-5.6,1.4-11.4,2.8-17.1,4.3c-11.3,2.9-22.5,5.9-33.4,8.8c-57.6,15.3-111.9,29.8-173.5,34.2
		c-57.7,4.2-127.4-3.6-207.2-23.1l-0.2,0.4C318.4,274,377.5,282.1,428.6,282.1"/>
	<path class="st0" d="M429.4,286.9c12.2,0,24-0.5,35.4-1.4c59.8-4.7,112.7-19.1,168.7-34.4c10.7-2.9,21.8-5.9,32.8-8.9
		c5.6-1.5,11.2-2.9,16.6-4.3c70.5-17.6,132.7-25.2,185-22.7c63.9,3,120.4,17.3,180.2,32.4c7.5,1.9,15.1,3.8,22.8,5.7
		c80.2,20,146.4,28.6,202.3,26.4c60.5-2.7,113.9-14.9,170.5-27.9c10.1-2.3,20.5-4.7,31-7c5.6-1.2,11.2-2.4,16.6-3.6
		c72.1-14.8,132.6-20.2,185-16.3c57.5,4.3,108.5,16.9,162.5,30.2c13.2,3.3,26.9,6.6,40.6,9.9l0.2-0.4c-13.7-3.2-27.3-6.6-40.5-9.9
		c-54-13.3-105-25.9-162.7-30.2c-52.5-3.9-113.1,1.5-185.2,16.3c-5.4,1.1-11,2.3-16.6,3.6c-10.4,2.3-20.9,4.7-31,7
		c-56.6,13-110,25.3-170.3,27.9c-55.9,2.2-122-6.4-202.1-26.3c-7.7-1.9-15.3-3.8-22.8-5.7c-59.9-15.1-116.4-29.4-180.4-32.4
		c-52.4-2.5-114.7,5.2-185.2,22.8c-5.4,1.3-11,2.8-16.6,4.3c-11.1,2.9-22.1,5.9-32.8,8.9c-55.9,15.3-108.8,29.7-168.5,34.4
		c-56.6,4.6-124.6-2.3-202.1-20.6l-0.2,0.4C324.5,279.5,380.5,286.9,429.4,286.9"/>
	<path class="st0" d="M429.9,291.7c13.8,0,27-0.6,39.6-1.7c58-5.1,109.3-19.4,163.7-34.6c10.5-2.9,21.4-6,32.3-8.9
		c5.4-1.5,10.8-2.9,16.2-4.3c68.5-17.5,129.1-25.4,180.1-23.4c64.3,2.5,121.3,16.6,181.7,31.6c5.5,1.4,11.1,2.8,16.7,4.1
		c78.8,19.4,143.3,28.2,197.2,26.7c59-2,111.2-13.1,166.5-24.8c9.6-2,19.6-4.2,29.5-6.2c5.4-1.1,10.9-2.2,16.2-3.2
		c70.4-13.3,129.3-17.8,180.1-13.8c54.5,4.4,103,16,154.3,28.3c14.4,3.4,29.2,7,44.1,10.4l0.2-0.5c-14.9-3.4-29.8-6.9-44.1-10.4
		c-51.3-12.3-99.8-23.9-154.4-28.3c-50.9-4-109.9,0.5-180.3,13.8c-5.3,1-10.7,2.1-16.2,3.2c-9.9,2.1-19.9,4.2-29.5,6.2
		c-55.2,11.7-107.4,22.8-166.3,24.8c-53.8,1.5-118.3-7.3-197-26.7c-5.6-1.4-11.1-2.8-16.7-4.1c-60.4-15-117.5-29.2-181.9-31.7
		c-51.1-2-111.8,5.9-180.3,23.4c-5.3,1.4-10.8,2.8-16.2,4.3c-10.9,2.9-21.7,6-32.3,8.9c-54.3,15.2-105.7,29.5-163.6,34.5
		c-55.4,5.1-121.7-1-197-18l-0.2,0.5C330.5,285.1,383.3,291.7,429.9,291.7"/>
	<path class="st0" d="M430.2,296.6c15.4,0,30.1-0.7,44.1-2.1c56.1-5.4,106-19.6,158.7-34.7c10.3-3,21-6,31.7-9
		c5.3-1.5,10.6-2.9,15.7-4.2c66.5-17.5,125.4-25.6,175.2-24.1c64.9,1.9,122.6,16,183.6,30.9c3.4,0.8,6.7,1.6,10.1,2.5
		c78.5,19.2,139.6,27.7,192.1,27c57.5-1.3,108.5-11.2,162.5-21.7c9.1-1.8,18.6-3.6,28-5.4c5.3-1,10.6-2,15.7-2.9
		c68.6-11.8,126-15.4,175.2-11.2c51.4,4.5,97.3,15.1,145.8,26.4c15.6,3.6,31.7,7.4,48,10.9l0.2-0.5c-16.2-3.5-32.3-7.3-47.9-10.9
		c-48.6-11.3-94.5-22-145.9-26.5c-49.3-4.2-106.7-0.5-175.4,11.3c-5.2,0.9-10.5,1.9-15.7,2.9c-9.4,1.8-18.9,3.6-28,5.4
		c-54,10.5-104.9,20.4-162.3,21.7c-52.5,0.7-113.4-7.8-191.9-27c-3.4-0.8-6.7-1.6-10.1-2.5c-61.1-15-118.8-29.1-183.8-31
		c-49.9-1.5-108.9,6.6-175.4,24.1c-5.1,1.3-10.4,2.8-15.7,4.2c-10.7,3-21.4,6-31.7,9c-52.7,15.1-102.5,29.3-158.6,34.7
		c-54.3,5.5-118.9,0.3-191.8-15.4l-0.2,0.5C336.4,290.7,386,296.6,430.2,296.6"/>
	<path class="st0" d="M430.3,301.5c17.1,0,33.3-0.9,48.8-2.6c54.3-5.7,102.6-19.9,153.8-34.9c10.2-3,20.6-6,31.1-9
		c5.1-1.5,10.3-2.9,15.3-4.2c64.4-17.4,121.7-25.8,170.3-24.8c65.7,1.3,124.2,15.4,186.2,30.4l2.9,0.7
		c48.6,11.7,120.8,27.3,187,27.3h0c56-0.5,105.8-9.3,158.5-18.6c8.6-1.5,17.5-3.1,26.4-4.6c5.2-0.9,10.3-1.7,15.3-2.5
		c66.9-10.2,122.7-13.1,170.3-8.7c48.2,4.5,91.4,14.3,137.1,24.6c16.9,3.8,34.4,7.8,52,11.4l0.2-0.5c-17.6-3.6-35.1-7.6-52-11.4
		c-43.7-9.9-88.9-20.1-137.2-24.6c-47.7-4.4-103.5-1.5-170.5,8.7c-5,0.8-10.1,1.6-15.3,2.5c-8.9,1.5-17.8,3.1-26.4,4.6
		c-52.7,9.3-102.5,18-158.4,18.6h0c-66,0-138.2-15.6-186.7-27.3l-2.9-0.7c-62-15-120.5-29.1-186.4-30.4c-48.6-1-106,7.3-170.5,24.8
		c-5,1.3-10.1,2.8-15.3,4.2c-10.5,3-21,6.1-31.2,9c-51.1,15-99.4,29.1-153.6,34.8c-53.2,6-116,1.6-186.7-12.9l-0.2,0.5
		C342.4,296.3,388.6,301.5,430.3,301.5"/>
	<path class="st0" d="M430.1,306.5c18.8,0,36.8-1,53.8-3.2c52.5-6.1,99.3-20.1,148.8-35c10-3,20.3-6.1,30.6-9.1
		c5-1.5,10-2.9,14.8-4.2c62.4-17.4,118.1-25.9,165.4-25.4c66.6,0.6,126.5,14.9,184.4,28.7c51.9,12.4,119.5,26.8,181.9,27.7
		c54.5,0.2,103.2-7.4,154.7-15.4c8.1-1.3,16.4-2.6,24.8-3.8c5-0.7,10-1.5,14.8-2.1c65.3-8.7,119.4-10.7,165.4-6.2
		c44.9,4.5,87.2,13.8,128.1,22.7c18.3,4,37.3,8.2,56.4,11.9l0.2-0.5c-19.1-3.7-38-7.8-56.3-11.9c-40.9-9-83.2-18.2-128.2-22.7
		c-46.1-4.5-100.3-2.5-165.6,6.2c-4.8,0.7-9.8,1.4-14.8,2.1c-8.3,1.3-16.7,2.6-24.8,3.8c-50.9,7.9-99,15.4-152.7,15.4
		c-0.6,0-1.2,0-1.8,0c-62.2-0.9-129.8-15.3-181.7-27.7c-57.9-13.8-117.9-28.2-184.6-28.7c-47.4-0.5-103.1,8-165.6,25.5
		c-4.9,1.3-9.9,2.8-14.8,4.2c-10.3,3-20.6,6.1-30.6,9.1c-49.5,14.9-96.3,28.9-148.7,35c-52.1,6.4-113.2,3-181.6-10.3l-0.2,0.5
		C348.2,302,391.1,306.5,430.1,306.5"/>
	<path class="st0" d="M429.7,311.6c20.7,0,40.4-1.3,59-3.8c50.6-6.4,95.9-20.4,143.9-35.1c9.8-3,19.9-6.1,30-9.2
		c4.8-1.5,9.6-2.9,14.4-4.2c60.3-17.3,114.3-26.1,160.3-26.1c0.4,0,0.8,0,1.3,0c61.9,0,117.6,11.9,178.7,26.4
		c54.4,12.9,118,26.2,176.7,28c53.1,0.9,100.6-5.5,150.9-12.2c7.5-1,15.3-2.1,23-3.1c4.8-0.6,9.6-1.2,14.4-1.8
		c63.6-7.1,116.1-8.3,160.5-3.6c41.6,4.5,80.8,12.8,118.8,20.9c19.8,4.2,40.4,8.6,61,12.3l0.2-0.5c-20.6-3.8-41.1-8.1-61-12.3
		c-38-8.1-77.3-16.4-118.9-20.9c-44.5-4.7-97.1-3.5-160.7,3.6c-4.7,0.6-9.6,1.1-14.4,1.8c-7.7,1-15.5,2.1-23,3.1
		c-50.2,6.7-97.7,13.1-150.8,12.2c-58.6-1.8-122.2-15.1-176.6-28c-61.2-14.4-116.9-26.4-178.9-26.4c-0.4,0-0.8,0-1.3,0
		c-46.1,0-100.1,8.8-160.5,26.1c-4.7,1.3-9.6,2.8-14.4,4.2c-10.1,3-20.3,6.2-30,9.2c-47.9,14.8-93.2,28.7-143.7,35.1
		c-51,6.9-110.4,4.3-176.5-7.7l-0.2,0.5C354,307.8,393.4,311.6,429.7,311.6"/>
	<path class="st0" d="M429,316.8c22.7,0,44.2-1.5,64.5-4.5c48.8-6.7,92.6-20.6,138.9-35.3c9.6-3,19.5-6.2,29.5-9.3
		c4.7-1.4,9.3-2.9,13.9-4.2c58.4-17.3,110.8-26.3,155.6-26.8c62.8-0.8,118.7,10.9,175.1,24c56.6,13.2,116.6,25.8,171.6,28.3
		c51.8,1.6,98.1-3.5,147.2-9c7-0.8,14.1-1.6,21.2-2.3c4.7-0.5,9.4-1,13.9-1.4c62.8-5.6,112.3-6,155.6-1.1
		c38.1,4.4,74.2,11.8,109.2,19.1c21.5,4.4,43.7,9,66,12.8l0.2-0.5c-22.3-3.8-44.5-8.4-66-12.8c-35-7.2-71.1-14.7-109.2-19.1
		c-43.4-4.9-92.9-4.5-155.8,1.1c-4.5,0.4-9.2,0.9-13.9,1.4c-7.1,0.8-14.2,1.6-21.2,2.3c-49.1,5.5-95.4,10.6-147.1,9
		c-54.9-2.6-114.9-15.1-171.4-28.3c-56.5-13.2-112.4-24.9-175.3-24c-44.9,0.5-97.3,9.5-155.8,26.8c-4.6,1.3-9.3,2.8-13.9,4.2
		c-9.9,3.1-19.9,6.2-29.5,9.3c-46.3,14.7-90,28.5-138.8,35.2c-49.9,7.4-107.5,5.7-171.4-5.2l-0.2,0.5
		C359.8,313.6,395.7,316.8,429,316.8"/>
	<path class="st0" d="M428,322.1c24.8,0,48.2-1.8,70.2-5.4c47-7,89.2-20.8,133.9-35.4c9.4-3.1,19.2-6.3,28.9-9.4
		c4.5-1.4,9.1-2.9,13.5-4.2c56.4-17.2,107.1-26.5,150.7-27.4c56.8-1.5,109.2,7.6,170.4,21.7c54.9,12.6,112.9,25.2,166.5,28.7
		c50.4,2.4,95.7-1.6,143.7-5.8c6.4-0.6,12.8-1.1,19.2-1.7c4.6-0.4,9.1-0.7,13.5-1c61.2-4.1,109.1-3.6,150.7,1.4
		c34.4,4.3,67.3,10.9,99.1,17.2c23.2,4.7,47.2,9.5,71.4,13.3l0.1-0.5c-24.1-3.8-48.1-8.6-71.3-13.2c-31.8-6.4-64.7-13-99.2-17.2
		c-41.7-5-89.6-5.5-150.9-1.4c-4.4,0.3-8.9,0.7-13.5,1c-6.5,0.5-12.9,1.1-19.2,1.7c-47.9,4.2-93.2,8.1-143.5,5.8
		c-53.5-3.4-111.5-16-166.3-28.6c-61.3-14.1-113.8-23.2-170.6-21.7c-43.7,1-94.5,10.2-150.9,27.5c-4.4,1.3-8.9,2.7-13.5,4.2
		c-9.7,3.1-19.5,6.3-28.9,9.4c-44.7,14.6-86.9,28.3-133.8,35.4c-48.8,7.9-104.7,7-166.3-2.6l-0.1,0.5
		C365.6,319.5,397.8,322.1,428,322.1"/>
	<path class="st0" d="M426.8,327.6c26.9,0,52.4-2.1,76.2-6.3c45.1-7.4,85.9-21,129-35.5c9.3-3.1,18.8-6.3,28.4-9.4
		c4.4-1.4,8.7-2.8,13-4.2c54.4-17.2,103.5-26.6,145.8-28.1c60.4-2.4,115.3,7.9,165.8,19.3c50.9,11.5,108.7,24.6,161.4,29
		c49.2,3.2,93.4,0.4,140.3-2.4c5.6-0.3,11.3-0.7,17-1c4.4-0.2,8.8-0.5,13-0.7c37.6-1.5,93.6-2.8,145.8,4
		c30.7,4.1,60.2,9.8,88.7,15.4c25.1,4.9,51.1,10,77.2,13.7l0.1-0.5c-26.1-3.7-52-8.8-77.2-13.7c-28.5-5.6-58-11.3-88.7-15.4
		c-52.4-6.8-108.4-5.5-146-4c-4.3,0.2-8.6,0.4-13,0.7c-5.7,0.3-11.4,0.7-17,1c-46.9,2.9-91.1,5.6-140.2,2.4
		c-52.6-4.4-110.3-17.4-161.2-29c-50.5-11.4-105.5-21.7-166-19.3c-42.4,1.5-91.6,11-146,28.2c-4.3,1.3-8.7,2.7-13,4.2
		c-9.6,3.1-19.1,6.3-28.4,9.5c-43.1,14.5-83.8,28.1-128.9,35.5c-47.7,8.4-102,8.4-161.2-0.1l-0.1,0.5
		C371.3,325.5,399.8,327.6,426.8,327.6"/>
	<path class="st0" d="M425.4,333.2c29.1,0,56.6-2.5,82.4-7.4c43.3-7.7,82.5-21.2,124-35.6c9.1-3.1,18.5-6.4,27.8-9.6
		c4.2-1.4,8.4-2.8,12.6-4.2c52.4-17.1,99.8-26.8,140.9-28.8c60.6-3.2,115.4,6.8,161.1,17c4.2,0.9,8.4,1.9,12.6,2.8
		c47.6,10.7,96.9,21.7,143.7,26.5c48,4,91.4,2.5,137.3,0.9c4.8-0.2,9.7-0.3,14.6-0.5c4.2-0.1,8.4-0.2,12.6-0.3
		c39.8-0.6,91.7-0.3,141,6.5c26.8,3.8,52.7,8.7,77.7,13.5c28.5,5.4,55.3,10.6,83.5,14.2l0.1-0.5c-28.1-3.6-55-8.8-83.5-14.2
		c-25.1-4.8-51-9.7-77.8-13.5c-49.3-6.8-101.3-7.1-141.1-6.5c-4.2,0.1-8.4,0.2-12.6,0.3c-4.9,0.2-9.7,0.3-14.6,0.5
		c-45.9,1.5-89.2,3-137.2-0.9c-46.7-4.8-95.9-15.8-143.5-26.5c-4.2-0.9-8.4-1.9-12.6-2.8c-45.7-10.2-100.7-20.2-161.3-17
		c-41.2,2-88.7,11.7-141.1,28.8c-4.1,1.3-8.3,2.7-12.6,4.2c-9.4,3.2-18.8,6.4-27.8,9.6c-41.5,14.4-80.6,27.9-123.9,35.6
		c-46.7,9-99.2,9.8-156.1,2.5l-0.1,0.5C377,331.5,401.7,333.2,425.4,333.2"/>
	<path class="st0" d="M423.3,338.8c31.6,0,61.8-2.9,89.3-8.6c41.5-8,79.1-21.4,119-35.7c8.9-3.2,18.1-6.5,27.3-9.7
		c4.1-1.4,8.2-2.8,12.1-4.1c50.4-17.1,96.2-27,136-29.5c48.1-3.2,94.9,1.1,156.4,14.6c8.4,1.8,17,3.8,25.3,5.6
		c41.7,9.3,84.9,19,125.8,24c47,4.8,89.6,4.6,134.7,4.4c3.9,0,7.8,0,11.7,0c4.3,0,8.2,0,12.1,0c41.3,0.6,89.8,2.2,136.1,9
		c22.7,3.4,44.8,7.6,66.2,11.6c30.8,5.8,59.9,11.3,90.4,14.7l0.1-0.5c-30.4-3.4-59.5-8.9-90.3-14.7c-21.4-4-43.5-8.2-66.2-11.6
		c-46.4-6.9-94.9-8.4-136.2-9c-3.9,0-7.8,0-12.1,0c-3.9,0-7.8,0-11.7,0c-45.1,0.2-87.6,0.4-134.5-4.4c-40.9-5.1-84-14.7-125.7-24
		c-8.3-1.9-17-3.8-25.3-5.6c-61.6-13.5-108.5-17.9-156.7-14.6c-39.9,2.5-85.7,12.4-136.2,29.5c-4,1.3-8,2.7-12.1,4.1
		c-9.2,3.2-18.4,6.5-27.3,9.7c-39.9,14.2-77.5,27.7-118.9,35.7c-45,9.4-97.2,11.1-150.9,5.1l-0.1,0.5
		C382.4,337.6,403.1,338.8,423.3,338.8"/>
	<path class="st0" d="M421.5,344.7c33.8,0,66.3-3.4,95.9-10.1c39.7-8.3,75.8-21.6,114.1-35.8c8.7-3.2,17.7-6.6,26.7-9.8
		c3.9-1.4,7.9-2.8,11.7-4.1c48.4-17,92.6-27.1,131.1-30.1c47.3-3.9,94.1-0.1,151.8,12.3c12.5,2.7,25.5,5.6,38,8.4
		c35.8,8.1,72.8,16.4,108,21.5c46.1,5.7,88.2,6.9,132.7,8.1l8.2,0.2c3.9,0.1,7.7,0.3,11.7,0.4c42.6,2,87.9,4.7,131.2,11.6
		c18.4,3,36.5,6.4,54,9.6c33.4,6.3,65,12.2,97.9,15.3l0.1-0.5c-32.9-3.2-64.4-9.1-97.8-15.3c-17.5-3.3-35.6-6.7-54-9.7
		c-43.3-6.8-88.7-9.6-131.3-11.6c-3.9-0.1-7.8-0.3-11.7-0.4l-8.2-0.2c-44.5-1.2-86.5-2.4-132.6-8.1c-35.1-5.1-72.1-13.5-107.9-21.5
		c-12.5-2.8-25.5-5.7-38-8.4c-57.8-12.4-104.7-16.2-152-12.3c-38.6,3-82.8,13.2-131.3,30.2c-3.8,1.3-7.7,2.7-11.7,4.1
		c-9,3.2-18,6.6-26.8,9.8c-38.2,14.1-74.4,27.5-114,35.8c-44,9.9-94.4,12.6-145.8,7.6l-0.1,0.5C388.2,343.9,405,344.7,421.5,344.7"
		/>
	<path class="st0" d="M419.9,350.9c35.8,0,70.6-4,102.3-11.7c37.8-8.6,72.4-21.8,109.1-35.8c8.6-3.3,17.4-6.7,26.2-10
		c3.8-1.4,7.5-2.8,11.2-4.1c46.5-16.9,88.9-27.3,126.2-30.8c46.4-4.6,93.1-1.5,147.1,9.9c16.7,3.5,34,7.5,50.7,11.3
		c29.9,6.9,60.8,13.9,90.1,19c45.7,6.7,87.5,9.3,131.8,12.1l3.5,0.2c3.7,0.2,7.4,0.5,11.2,0.8c41.1,3.3,84.6,7,126.3,14.1
		c13.9,2.4,27.7,5,41.1,7.5c36.3,6.8,70.6,13.3,106.2,16.1l0.1-0.5c-35.5-2.8-69.8-9.3-106.1-16.1c-13.4-2.5-27.2-5.1-41.1-7.5
		c-41.7-7.1-85.3-10.8-126.4-14.1c-3.8-0.3-7.5-0.5-11.2-0.8l-3.5-0.2c-44.3-2.8-86.1-5.3-131.7-12c-29.4-5-60.2-12.1-90.1-19
		c-16.8-3.8-34.1-7.8-50.7-11.3c-54.1-11.4-100.9-14.5-147.4-9.9c-37.4,3.5-79.9,13.9-126.4,30.9c-3.7,1.3-7.5,2.7-11.2,4.1
		c-8.8,3.3-17.7,6.7-26.2,10c-36.6,14-71.2,27.3-109,35.8c-43,10.5-91.6,14-140.7,10.2l-0.1,0.5
		C394.1,350.4,407.1,350.9,419.9,350.9"/>
	<path class="st0" d="M418.5,357.2c37.6,0,74.6-4.6,108.4-13.6c36-8.9,69-22,104.1-35.9c8.4-3.3,17.1-6.8,25.7-10.1
		c3.7-1.4,7.3-2.8,10.8-4.1C712,276.6,752.8,266,788.8,262c46-5.4,91.2-3,142.5,7.5c20.9,4.3,42.6,9.5,63.5,14.4
		c23.9,5.7,48.6,11.5,72.2,16.2c45.9,7.9,88.6,12.1,129.8,16.2c3.6,0.4,7.1,0.7,10.8,1.1l1.8,0.2c39.4,4.6,80.1,9.3,119.7,16.4
		c9.2,1.7,18.4,3.5,27.3,5.2c39.5,7.6,76.9,14.8,115.4,17.1l0.1-0.5c-38.5-2.3-75.8-9.5-115.3-17.1c-8.9-1.7-18.1-3.5-27.3-5.2
		c-39.6-7.2-80.3-11.9-119.7-16.4l-1.8-0.2c-3.6-0.4-7.2-0.8-10.8-1.1c-41.2-4.1-83.8-8.3-129.7-16.2c-23.6-4.6-48.3-10.5-72.2-16.2
		c-21-5-42.7-10.1-63.6-14.4c-51.3-10.6-96.7-13-142.7-7.6c-36.1,4-77,14.7-121.5,31.5c-3.5,1.3-7.1,2.7-10.8,4.1
		c-8.7,3.4-17.3,6.8-25.7,10.1c-35,13.9-68,27-104,35.9c-42,11.1-88.9,15.5-135.6,12.7l-0.1,0.5
		C400.2,356.9,409.4,357.2,418.5,357.2"/>
	<path class="st0" d="M417.8,363.7c39,0,78-5.3,114-15.7c34.1-9.1,65.7-22.1,99-35.9c8.2-3.4,16.7-6.9,25.2-10.3
		c3.5-1.4,7-2.8,10.3-4.1c42.5-16.8,81.7-27.6,116.4-32.2c45.5-6.2,89.2-4.6,137.8,5.2c25.2,5.1,51.3,11.6,76.5,17.9
		c17.9,4.5,36.4,9.1,54.1,13.1c43.5,8.7,83.6,14.5,124.3,20.1c3.4,0.5,6.8,1,10.3,1.5c6.3,1,12.6,1.9,19,2.9
		c32.1,4.9,65.3,10,97.5,16.2c4.1,0.8,8.3,1.6,12.4,2.5c43.1,8.6,83.9,16.7,125.6,18.4l0-0.5c-41.7-1.7-82.4-9.8-125.5-18.4
		c-4.1-0.8-8.2-1.6-12.4-2.5c-32.2-6.2-65.4-11.3-97.5-16.2c-6.4-1-12.8-2-19.1-2.9c-3.5-0.5-6.9-1-10.3-1.5
		c-40.7-5.7-80.8-11.5-124.2-20.1c-17.7-4-36.2-8.6-54.1-13.1c-25.2-6.3-51.3-12.8-76.5-17.9c-48.7-9.8-92.5-11.4-138.1-5.2
		c-34.8,4.6-74.1,15.4-116.6,32.2c-3.3,1.3-6.8,2.7-10.3,4.1c-8.5,3.4-17,6.9-25.2,10.3c-33.4,13.8-64.9,26.7-99,35.9
		c-41,11.8-86.1,17.1-130.5,15.3l0,0.5C406.6,363.6,412.2,363.7,417.8,363.7"/>
	<path class="st0" d="M417.8,370.5c39.9,0,80.8-6.2,118.7-18c32.3-9.4,62.3-22.3,94-35.9c8.1-3.5,16.4-7,24.8-10.5
		c3.3-1.4,6.7-2.8,9.9-4.1c40.6-16.7,78.1-27.8,111.6-32.8c44.2-7,87.8-6,133.1,2.8c29.6,5.8,60.1,13.9,89.5,21.8
		c11.8,3.2,24.1,6.4,36,9.5c43.8,10.1,84.6,17.8,118.7,24.1c3.3,0.6,6.6,1.2,9.9,1.8c14,2.8,28.7,5.5,42.8,8.2
		c22.7,4.3,46.1,8.7,68.8,13.5c43.3,9.2,88,18.7,133.4,19.5l0-0.5c-45.2-0.8-90-10.3-133.2-19.5c-22.7-4.7-46.2-9.2-68.8-13.5
		c-14.2-2.7-28.8-5.5-42.8-8.2c-3.3-0.6-6.6-1.2-9.9-1.8c-34.1-6.2-74.9-14-118.7-24.1c-11.8-3-24.1-6.3-35.9-9.5
		c-29.5-7.9-60-16-89.6-21.8c-45.5-8.9-89.1-9.8-133.4-2.9c-33.5,5.1-71.1,16.2-111.7,32.9c-3.2,1.3-6.5,2.7-9.9,4.1
		c-8.3,3.5-16.7,7.1-24.8,10.5c-31.7,13.6-61.7,26.5-93.9,35.9c-40.1,12.4-83.4,18.6-125.4,17.9l0,0.5
		C413.2,370.5,415.5,370.5,417.8,370.5"/>
	<path class="st0" d="M1376,377.5c0.5,0,1,0,1.6,0l0-0.5c-0.5,0-1,0-1.6,0c-43.5,0-86.6-8.9-127-18.1c-8.1-1.8-16.3-3.6-24.6-5.5
		c-27.3-6-55.5-12.3-82.2-18.8l-9.4-2.2c-38.8-9-74.8-17.9-113.2-28c-5.9-1.7-11.8-3.4-17.7-5.1c-33.7-9.8-68.6-20-102.7-26.5
		c-43-8.2-85.2-8.3-128.8-0.5c-32.2,5.6-68.2,16.9-106.8,33.6c-3.1,1.3-6.2,2.7-9.4,4.1c-8.2,3.6-16.4,7.2-24.3,10.8
		c-30.1,13.5-58.5,26.2-88.8,35.8c-39.7,13.3-80.2,20.2-120.3,20.4l0,0.5c40.2-0.2,80.8-7.1,120.5-20.5
		c30.4-9.7,58.8-22.4,88.9-35.8c7.9-3.6,16.1-7.2,24.3-10.8c3.2-1.4,6.3-2.8,9.4-4.1c38.6-16.6,74.5-27.9,106.7-33.5
		c43.5-7.8,85.5-7.7,128.5,0.5c34.1,6.5,68.9,16.6,102.6,26.5c5.9,1.7,11.9,3.5,17.7,5.1c38.4,10.1,74.4,19,113.2,28l9.4,2.2
		c26.7,6.5,54.9,12.7,82.2,18.8c8.2,1.8,16.4,3.6,24.6,5.5C1289.3,368.5,1332.4,377.5,1376,377.5"/>
	<path class="st0" d="M1337.8,384.6c2.8,0,5.6,0,8.4-0.1l0-0.5c-43.2,1.3-86.9-7.7-123.9-16.7c-39.6-9.5-72.9-18.2-101.8-26.8
		c-3-0.9-6-1.7-9-2.6c-31.2-8.9-60.9-17.8-92.3-27.3c-5.1-1.5-10.2-3.1-15.4-4.6c-37.7-12.2-76.6-24.8-115.3-32
		c-40.7-7.5-81.3-6.9-124.2,1.9c-30.9,6.1-65.2,17.7-101.9,34.2c-2.9,1.3-5.9,2.7-9,4.1c-8,3.7-16.1,7.5-23.9,11.1
		c-28.4,13.3-55.2,25.8-83.7,35.7c-38.8,14.1-77.5,21.8-115.2,23l0,0.5c37.8-1.1,76.6-8.9,115.4-23c28.5-9.9,55.4-22.4,83.8-35.7
		c7.8-3.7,15.9-7.4,23.9-11.1c3-1.4,6-2.7,8.9-4.1c36.7-16.5,70.9-28.1,101.8-34.2c42.7-8.7,83.2-9.3,123.8-1.8
		c38.7,7.1,77.6,19.7,115.2,31.9c5.2,1.6,10.3,3.1,15.4,4.6c31.4,9.5,61.2,18.4,92.3,27.3c3,0.9,6,1.7,9,2.6
		c29,8.5,62.3,17.3,101.9,26.8C1256.7,376.2,1297.2,384.6,1337.8,384.6"/>
	<path class="st0" d="M1299.8,392c5.1,0,10.1-0.1,15-0.4l-0.1-0.5c-34.2,2-71-2.8-119.2-15.4c-33.4-8.6-66-18.5-96.9-29.3
		c-2.8-1-5.7-2-8.5-2.9c-17.3-5.9-34.5-12-51.2-18c-16.6-5.9-33.7-12-51-17.9c-33.2-12-71.8-25.4-110.2-32.3
		c-38.5-6.8-77.6-5.4-119.5,4.2c-29.6,6.7-62.2,18.4-97,34.9c-2.8,1.3-5.7,2.7-8.5,4c-7.9,3.8-15.9,7.7-23.6,11.5
		c-26.7,13.1-51.9,25.4-78.5,35.5c-37.8,14.9-74.9,23.5-110,25.5l0.1,0.5c35.3-2,72.4-10.6,110.3-25.6
		c26.6-10.1,51.9-22.5,78.6-35.6c7.7-3.8,15.7-7.7,23.6-11.5c2.8-1.4,5.7-2.7,8.5-4c34.8-16.5,67.4-28.2,96.9-34.9
		c41.8-9.6,80.8-11,119.1-4.2c38.4,6.8,77,20.2,110.1,32.3c17.2,5.9,34.4,12,51,17.9c16.7,5.9,33.9,12.1,51.2,18
		c2.8,1,5.7,2,8.5,2.9c30.9,10.8,63.5,20.7,97,29.3C1236.7,386.9,1269.6,392,1299.8,392"/>
	<path class="st0" d="M1263.2,399.4c6.9,0,13.6-0.3,20.2-0.9l-0.1-0.5c-33.7,2.9-70.1-1.5-114.5-14c-30.1-8.4-61-19.1-92-31.8
		c-2.7-1.1-5.4-2.2-8.1-3.3c-12.4-5.1-24.9-10.3-36.9-15.3c-19.5-8.2-39.6-16.6-59.8-24.5c-30.9-12.5-67.5-26.2-105.1-32.6
		c-36.3-6.2-73.9-4-114.9,6.6c-28.2,7.2-59.2,19.2-92.1,35.6c-2.7,1.3-5.4,2.7-8.1,4c-7.9,4-15.8,8.1-23.5,12
		c-24.9,12.8-48.5,25-73.2,35.2c-37.5,16-71.8,25.2-104.9,28.1l0.1,0.5c33.2-2.9,67.7-12.1,105.2-28.2
		c24.7-10.3,48.3-22.4,73.2-35.3c7.7-3.9,15.6-8,23.5-12c2.7-1.4,5.4-2.7,8-4c32.9-16.4,63.8-28.3,92-35.5
		c40.8-10.6,78.3-12.7,114.5-6.5c37.6,6.4,74.1,20.1,105,32.6c20.1,7.9,40.3,16.3,59.7,24.5c12,5,24.5,10.3,36.9,15.3
		c2.7,1.1,5.4,2.2,8.1,3.3c31,12.8,62,23.5,92.1,31.9C1204.5,394.6,1235.1,399.4,1263.2,399.4"/>
	<path class="st0" d="M1227.6,407c8.4,0,16.5-0.5,24.5-1.4l-0.1-0.5c-32.8,3.9-68.7-0.2-109.8-12.6c-27.5-8.3-56.9-19.8-87.1-34.4
		c-2.5-1.2-5.1-2.4-7.6-3.6c-9.8-4.7-19.7-9.6-29.2-14.3c-20.2-10-41.2-20.3-62-29.5c-39.7-18-70.6-28.2-100.1-33
		c-34.3-5.6-70.3-2.6-110.2,8.9c-26.8,7.7-56.2,19.9-87.2,36.3c-2.5,1.3-5.1,2.7-7.6,4c-7.9,4.2-15.8,8.5-23.5,12.7
		c-22.1,12-44.9,24.4-67.6,34.8c-36.6,17-69.2,27-99.8,30.7l0.1,0.5c30.7-3.7,63.4-13.7,100.1-30.7c22.7-10.4,45.6-22.8,67.7-34.8
		c7.7-4.2,15.6-8.5,23.5-12.7c2.5-1.3,5.1-2.7,7.6-4c31-16.3,60.3-28.5,87.1-36.2c39.7-11.5,75.7-14.4,109.8-8.9
		c29.4,4.8,60.2,14.9,99.8,32.9c20.8,9.2,41.7,19.5,61.9,29.5c9.5,4.7,19.4,9.5,29.2,14.3c2.5,1.2,5.1,2.4,7.6,3.6
		c30.3,14.6,59.6,26.1,87.2,34.4C1173.2,402.4,1201.4,407,1227.6,407"/>
	<path class="st0" d="M1192.7,414.7c9.6,0,19-0.7,28.1-2.1l-0.1-0.5c-53.3,8.2-114.6-7.6-187.3-48.1c-10.5-5.8-21-11.9-31.2-17.7
		C949.3,316,899.5,287.4,845.5,279c-53.5-8.2-114.9,7.6-187.9,48.2c-10.4,5.8-20.9,11.9-31.1,17.7c-52.7,30.3-102.5,58.9-156.4,67.2
		l0.1,0.5c54-8.3,103.9-37,156.7-67.3c10.2-5.8,20.7-11.9,31.1-17.7c72.8-40.6,134.1-56.3,187.3-48.1
		c53.8,8.3,103.6,36.9,156.3,67.2c10.2,5.8,20.7,11.9,31.2,17.7C1093.4,398.1,1146,414.7,1192.7,414.7"/>
	<path class="st1" d="M422.7,236.3v39.4c0,2.6,2.2,4.8,4.8,4.8h22.4 M665.9,86.6V47c0-2.6-2.1-4.8-4.8-4.8h-52.6 M638.7,280.6h22.4
		c2.7,0,4.8-2.2,4.8-4.8v-39.4 M480.1,42.2h-52.6c-2.6,0-4.8,2.2-4.8,4.8v39.6 M426.2,148.6c14.5,0,26.3-11.8,26.3-26.3
		c0-14.5-11.8-26.2-26.3-26.2c-14.5,0-26.2,11.8-26.2,26.2C400,136.7,411.7,148.6,426.2,148.6z M687.5,166.1
		c-6.7-6.7-15.6-10.4-25-10.4c-19.6,0-35.5,15.9-35.5,35.5v30.7c0,2.6,2.2,4.8,4.8,4.8h61.3c2.6,0,4.8-2.2,4.8-4.8v-30.7
		C697.9,181.8,694.2,172.9,687.5,166.1z M636.2,122.3c0,14.5,11.8,26.3,26.2,26.3s26.2-11.8,26.2-26.3c0-14.5-11.8-26.2-26.2-26.2
		S636.2,107.8,636.2,122.3z M461.7,221.9v-30.7c0-9.4-3.6-18.3-10.4-25.1c-6.8-6.7-15.7-10.4-25.1-10.4c-19.5,0-35.5,15.9-35.5,35.5
		v30.7c0,2.6,2.2,4.8,4.8,4.8h61.3C459.6,226.7,461.7,224.6,461.7,221.9z M549.1,219.7c0,2.7-2.1,4.8-4.8,4.8
		c-2.7,0-4.8-2.1-4.8-4.8v-9.6c0-2.7,2.1-4.8,4.8-4.8c2.7,0,4.8,2.1,4.8,4.8V219.7z M549.1,286.8c0,2.7-2.1,4.8-4.8,4.8
		c-2.7,0-4.8-2.1-4.8-4.8V239c0-2.7,2.1-4.8,4.8-4.8c2.7,0,4.8,2.1,4.8,4.8V286.8z M559.2,180.2c-3.4-4.9-8.9-7.9-14.8-7.9
		c-5.9,0-11.5,2.9-14.8,7.9L457.1,287c-3.7,5.5-4.1,12.6-1,18.4c3.1,5.9,9.2,9.5,15.8,9.5h144.8c6.6,0,12.7-3.6,15.8-9.5
		c3.1-5.9,2.7-12.9-1-18.4L559.2,180.2z M544.3,51.9c12.4,0,22.6,10.1,22.6,22.6c0,12.4-10.1,22.6-22.6,22.6
		c-12.4,0-22.5-10.1-22.5-22.6C521.8,62,531.9,51.9,544.3,51.9z M495.4,48.2c-1.8,3.3-3.2,6.7-4.3,10.3l-9.5,1.7
		c-2.3,0.4-3.9,2.4-3.9,4.7v19.2c0,2.3,1.7,4.3,4,4.7l9.4,1.7c1.1,3.5,2.5,7,4.3,10.2l-5.5,7.9c-1.3,1.9-1.1,4.5,0.5,6.1l13.6,13.7
		c1.6,1.7,4.3,1.9,6.1,0.6l7.9-5.6c3.3,1.8,6.7,3.2,10.3,4.2l1.7,9.5c0.4,2.3,2.4,3.9,4.7,3.9H554c2.3,0,4.3-1.6,4.7-3.9l1.7-9.5
		c3.6-1.1,7.1-2.4,10.2-4.2l7.9,5.5c1.9,1.3,4.5,1.1,6.1-0.6l13.7-13.7c1.6-1.6,1.9-4.2,0.5-6.1l-5.5-7.9c1.8-3.3,3.2-6.7,4.2-10.2
		l9.5-1.7c2.3-0.4,3.9-2.4,3.9-4.7V64.9c0-2.3-1.6-4.3-3.9-4.7l-9.5-1.7c-1.1-3.6-2.5-7-4.2-10.3l5.5-7.9c1.3-1.9,1.1-4.5-0.5-6.1
		l-13.7-13.6c-1.7-1.6-4.2-1.8-6.1-0.5l-7.9,5.5c-3.2-1.7-6.6-3.1-10.2-4.2l-1.7-9.5c-0.4-2.3-2.4-4-4.7-4h-19.2
		c-2.3,0-4.3,1.7-4.7,4l-1.7,9.5c-3.6,1.1-7,2.4-10.3,4.2l-7.9-5.5c-1.9-1.3-4.5-1.1-6.1,0.5l-13.6,13.6c-1.6,1.7-1.9,4.3-0.5,6.1
		L495.4,48.2z"/>
</g>
</svg>
