<?xml version="1.0" encoding="utf-8"?>
<!-- Generator: Adobe Illustrator 26.4.0, SVG Export Plug-In . SVG Version: 6.00 Build 0)  -->
<svg version="1.1" id="Layer_1" xmlns="http://www.w3.org/2000/svg" xmlns:xlink="http://www.w3.org/1999/xlink" x="0px" y="0px"
	 viewBox="0 0 500 500" style="enable-background:new 0 0 500 500;" xml:space="preserve">
<style type="text/css">
	.st0{fill:#006AAB;}
	.st1{fill:#7EB342;}
	.st2{fill:#F04F38;}
	.st3{fill:#4D4E4F;}
	.st4{fill:none;stroke:#006AAB;stroke-width:0.25;stroke-miterlimit:10;}
	.st5{fill:none;stroke:#FFFFFF;stroke-miterlimit:10;}
</style>
<g>
	<path class="st0" d="M311,116.2c-10.8,22.3-33.3,37.1-58.1,38.2c-0.4-1.3-1.5-2.3-3-2.3c-1.7,0-3.1,1.4-3.1,3.1
		c0,1.7,1.4,3.1,3.1,3.1c1.5,0,2.7-1,3-2.4c12.2-0.5,24-4.2,34.3-10.8c10.8-6.9,19.5-16.7,25.1-28.2c13.2-27.3,41.4-45,71.9-45
		c44,0,79.7,35.8,79.7,79.7c0,24.4-10.9,47.1-30,62.3c-0.3,0.2-0.4,0.7-0.1,1c0.1,0.2,0.4,0.3,0.6,0.3c0.2,0,0.3-0.1,0.5-0.2
		c4.7-3.7,8.9-7.9,12.6-12.6c3.8-4.7,7-9.7,9.6-15.1c2.7-5.5,4.8-11.2,6.1-17.1c1.4-6.1,2.2-12.4,2.2-18.7c0-11-2.1-21.6-6.4-31.6
		c-4.1-9.7-9.9-18.3-17.4-25.8c-7.5-7.5-16.1-13.3-25.8-17.4c-10-4.2-20.6-6.4-31.6-6.4c-15.6,0-30.7,4.4-43.7,12.7
		C327.7,91.2,317.5,102.6,311,116.2"/>
	<path class="st0" d="M58.3,208.9c7.5,7.5,16.1,13.3,25.8,17.4c10,4.2,20.6,6.4,31.6,6.4c11,0,21.6-2.1,31.6-6.4
		c9.7-4.1,18.3-9.9,25.8-17.4c7.5-7.5,13.3-16.1,17.4-25.8c4.2-10,6.4-20.6,6.4-31.6c0-6.3-0.7-12.5-2.1-18.5
		c-1.4-5.9-3.4-11.6-6-17c-4.3-9-6.5-18.9-6.5-29.2c0-36.7,29.4-66.7,65.8-67.6v6l12.3-6.7l-12.3-6.7v6c-8.7,0.2-17.1,2-25.1,5.4
		c-8.2,3.5-15.6,8.5-22,14.8c-6.3,6.3-11.3,13.7-14.8,22c-3.6,8.5-5.4,17.6-5.4,26.9c0,10.6,2.2,20.6,6.7,29.8
		c5.3,10.8,7.9,22.5,7.9,34.9c0,44-35.8,79.7-79.7,79.7c-44,0-79.7-35.8-79.7-79.7c0-44,35.8-79.7,79.7-79.7
		c17.9,0,34.8,5.8,48.9,16.8c0.3,0.2,0.8,0.2,1-0.1c0.2-0.3,0.2-0.8-0.1-1c-7-5.4-14.7-9.7-23-12.6c-8.6-3-17.6-4.5-26.8-4.5
		c-11,0-21.6,2.1-31.6,6.4c-9.7,4.1-18.3,9.9-25.8,17.4c-7.5,7.5-13.3,16.1-17.4,25.8c-4.2,10-6.4,20.6-6.4,31.6
		c0,11,2.1,21.6,6.4,31.6C45,192.7,50.9,201.4,58.3,208.9"/>
	<path class="st1" d="M133.2,360.3C133.2,360.3,133.2,360.3,133.2,360.3c11.9-9.5,26.9-14.7,42.3-14.7c9.3,0,18.2,1.8,26.6,5.4
		c0,0.2,0,0.3,0,0.5c0,1.7,1.4,3.1,3.1,3.1s3.1-1.4,3.1-3.1c0-1.7-1.4-3.1-3.1-3.1c-1,0-1.9,0.5-2.5,1.2c-8.6-3.7-17.7-5.6-27.2-5.6
		c-8,0-15.8,1.3-23.3,4c-7.2,2.6-13.9,6.3-19.9,11c-14,11.1-31.6,17.2-49.7,17.2c-44,0-79.7-35.8-79.7-79.7
		c0-37.2,25.3-69.1,61.4-77.6c0.4-0.1,0.6-0.5,0.5-0.9s-0.5-0.6-0.9-0.5c-8.8,2.1-17.2,5.6-24.9,10.5c-7.5,4.8-14.2,10.8-19.8,17.8
		c-5.7,7-10.1,14.9-13.1,23.4c-3.1,8.8-4.7,18-4.7,27.4c0,11,2.1,21.6,6.4,31.6c4.1,9.7,9.9,18.3,17.4,25.8
		c7.5,7.5,16.1,13.3,25.8,17.4c10,4.2,20.6,6.4,31.6,6.4c9.4,0,18.5-1.6,27.2-4.6C118.3,370.2,126.2,365.9,133.2,360.3"/>
	<path class="st1" d="M154.7,332.5c0.1,0,0.2,0.1,0.3,0.1c0.3,0,0.5-0.2,0.7-0.4c2.6-5.4,4.7-11.1,6-17c1.4-6,2.1-12.2,2.1-18.5
		c0-24.5-10.9-47.4-29.8-62.9c-0.3-0.3-0.8-0.2-1,0.1c-0.3,0.3-0.2,0.8,0.1,1c18.6,15.2,29.3,37.7,29.3,61.8c0,12.2-2.7,23.9-8,34.8
		C154.2,331.9,154.3,332.3,154.7,332.5"/>
	<path class="st1" d="M492.2,265.1c-4.1-9.7-9.9-18.3-17.4-25.8c-7.5-7.5-16.1-13.3-25.8-17.4c-10-4.2-20.6-6.4-31.6-6.4
		c-6.2,0-12.3,0.7-18.1,2c-4.8,1.1-9.9,1.7-15.1,1.7c-19.8,0-38.3-8.5-51.2-23.4c0.3-0.5,0.5-1,0.5-1.6c0-1.7-1.4-3.1-3.1-3.1
		c-1.7,0-3.1,1.4-3.1,3.1c0,1.7,1.4,3.1,3.1,3.1c0.6,0,1.1-0.2,1.6-0.4c6,7,13.5,12.7,21.7,16.8c9.5,4.7,19.8,7.1,30.5,7.1
		c5.3,0,10.5-0.6,15.4-1.7c5.7-1.3,11.7-1.9,17.8-1.9c44,0,79.7,35.8,79.7,79.7c0,44-35.8,79.7-79.7,79.7c-5.7,0-11.3-0.6-16.8-1.8
		c-0.4-0.1-0.8,0.2-0.9,0.6c-0.1,0.4,0.2,0.8,0.6,0.9c5.6,1.2,11.3,1.8,17.1,1.8c11,0,21.6-2.1,31.6-6.4c9.7-4.1,18.3-9.9,25.8-17.4
		c7.5-7.5,13.3-16.1,17.4-25.8c4.2-10,6.4-20.6,6.4-31.6S496.4,275.1,492.2,265.1"/>
	<path class="st1" d="M481.1,269.8c-3.5-8.2-8.5-15.6-14.8-22c-6.3-6.3-13.7-11.3-22-14.8c-8.5-3.6-17.6-5.4-26.9-5.4
		c-5.3,0-10.4,0.6-15.3,1.7c-5.7,1.3-11.7,2-17.9,2c-44,0-79.7-35.8-79.7-79.7c0-0.4-0.3-0.7-0.7-0.7c-0.4,0-0.7,0.3-0.7,0.7
		c0,11,2.1,21.6,6.4,31.6c4.1,9.7,9.9,18.3,17.4,25.8c7.5,7.5,16.1,13.3,25.8,17.4c10,4.2,20.6,6.4,31.6,6.4c6.3,0,12.4-0.7,18.2-2
		c4.8-1.1,9.8-1.6,15-1.6c37.3,0,67.6,30.3,67.6,67.6c0,4.9-0.5,9.9-1.6,14.6l-5.9-1.4l3.7,13.5l9.4-10.4l-5.7-1.4
		c1.1-4.9,1.6-9.9,1.6-15C486.5,287.3,484.7,278.3,481.1,269.8"/>
	<path class="st2" d="M375.3,349.9c-16.2-12.8-25.6-32.2-25.6-53.2c0-4.1,0.4-8.1,1.1-12.1c0,0,0,0,0,0c1.7,0,3.1-1.4,3.1-3.1
		s-1.4-3.1-3.1-3.1c-1.7,0-3.1,1.4-3.1,3.1c0,1.2,0.7,2.2,1.6,2.7c-0.7,4.1-1.1,8.3-1.1,12.4c0,10.8,2.4,21.2,7,30.7
		c4.5,9.2,11.1,17.4,19.1,23.6c18.8,15.1,29.6,37.8,29.6,62.2c0,44-35.8,79.7-79.7,79.7c-30.7,0-58.2-17.2-71.7-44.8
		c-0.2-0.4-0.6-0.5-1-0.3c-0.4,0.2-0.5,0.6-0.3,1c6.6,13.5,16.7,24.9,29.4,33c13,8.3,28.1,12.7,43.6,12.7c11,0,21.6-2.1,31.6-6.4
		c9.7-4.1,18.3-9.9,25.8-17.4c7.5-7.5,13.3-16.1,17.4-25.8c4.2-10,6.4-20.6,6.4-31.6C405.4,388.3,394.5,365.2,375.3,349.9"/>
	<path class="st2" d="M382.5,450.4c7.1-11.1,10.8-23.9,10.8-37.2c0-5.4-0.6-10.7-1.8-15.9c-1.2-5-2.9-10-5.2-14.6
		c-4.4-9.1-10.9-17.3-18.8-23.6c-19-15.2-29.9-38-29.9-62.5c0-24.2,10.8-46.8,29.7-62.1c0.3-0.3,0.4-0.7,0.1-1
		c-0.3-0.3-0.7-0.4-1-0.1c-4.6,3.7-8.8,7.9-12.5,12.6c-3.7,4.6-6.9,9.7-9.5,15c-2.7,5.4-4.7,11.2-6.1,17c-1.4,6-2.1,12.3-2.1,18.6
		c0,6.3,0.7,12.6,2.1,18.7c1.4,5.9,3.4,11.7,6.1,17.2c2.6,5.4,5.9,10.5,9.6,15.2c3.7,4.7,8,8.9,12.6,12.6
		c16,12.9,25.2,32.2,25.2,52.9c0,26.1-14.6,49.4-38.1,60.9l-2.7-5.6L343,480l14,0.6l-2.5-5.2C366,469.8,375.7,461.2,382.5,450.4"/>
	<path class="st0" d="M292.4,353.6c0.6,0.7,1.4,1.1,2.3,1.1c1.7,0,3.1-1.4,3.1-3.1c0-1.7-1.4-3.1-3.1-3.1c-1.7,0-3.1,1.4-3.1,3.1
		c0,0.2,0,0.5,0.1,0.7c-10.4,5.6-19.2,13.7-25.7,23.7c-7.1,11.1-10.9,24-10.9,37.3c0,44-35.8,79.7-79.7,79.7
		c-44,0-79.7-35.8-79.7-79.7c0-12.1,2.7-23.8,7.9-34.6c0.2-0.4,0-0.8-0.3-1c-0.4-0.2-0.8,0-1,0.3c-2.6,5.4-4.6,11.1-6,16.9
		c-1.4,6-2.1,12.2-2.1,18.4c0,11,2.1,21.6,6.4,31.6c4.1,9.7,9.9,18.3,17.4,25.8c7.5,7.5,16.1,13.3,25.8,17.4
		c10,4.2,20.6,6.4,31.6,6.4c11,0,21.6-2.1,31.6-6.4c9.7-4.1,18.3-9.9,25.8-17.4c7.5-7.5,13.3-16.1,17.4-25.8
		c4.2-10,6.4-20.6,6.4-31.6C256.6,388.4,270.6,365.2,292.4,353.6"/>
	<path class="st0" d="M444.6,118.1l-2.2-13.8l-4.6,3.6c-6.3-7.7-14.3-14.1-23.1-18.4c-9.5-4.7-19.8-7.1-30.5-7.1
		c-13.2,0-26.1,3.7-37.2,10.8c-10.8,6.9-19.5,16.7-25.1,28.2c-13.2,27.4-41.4,45.1-71.9,45.1c-18.1,0-35.2-5.9-49.4-17.2
		c-0.3-0.2-0.8-0.2-1,0.1c-0.2,0.3-0.2,0.8,0.1,1c7,5.6,14.8,9.9,23.2,12.9c8.7,3.1,17.8,4.6,27.1,4.6c15.6,0,30.7-4.4,43.8-12.8
		c12.7-8.1,22.9-19.6,29.5-33.1c11.2-23.2,35.2-38.2,61-38.2c20.5,0,39.5,9.1,52.5,24.9l-4.8,3.7L444.6,118.1z"/>
	<path class="st0" d="M135.2,468.9l7.7,11.7l2.7-5c9.4,4.5,19.4,6.8,29.9,6.8c9.3,0,18.4-1.8,26.9-5.4c8.2-3.5,15.6-8.5,22-14.8
		c6.3-6.3,11.3-13.7,14.8-22c3.6-8.5,5.4-17.6,5.4-26.9c0-44,35.8-79.7,79.7-79.7c5.8,0,11.5,0.6,17.1,1.8c0.4,0.1,0.8-0.2,0.9-0.6
		c0.1-0.4-0.2-0.8-0.6-0.9c-5.7-1.2-11.5-1.9-17.4-1.9c-11,0-21.6,2.1-31.6,6.4c-9.7,4.1-18.3,9.9-25.8,17.4
		c-7.5,7.5-13.3,16.1-17.4,25.8c-4.2,10-6.4,20.6-6.4,31.6c0,37.3-30.3,67.6-67.6,67.6c-10.2,0-20.1-2.2-29.2-6.6l2.9-5.5
		L135.2,468.9z"/>
	<path class="st1" d="M13.2,300.3l-3.5,13.6l5.7-1.4c1.7,7.4,4.7,14.5,8.8,21c4.1,6.5,9.2,12.2,15.1,17c6,4.9,12.7,8.6,20,11.3
		c7.5,2.7,15.4,4.1,23.4,4.1c8,0,15.8-1.3,23.2-3.9c7.2-2.5,13.9-6.2,19.9-11c14-11.2,31.7-17.3,49.8-17.3
		c30.4,0,58.6,17.7,71.8,45.1c0.1,0.3,0.4,0.4,0.7,0.4c0.1,0,0.2,0,0.3-0.1c0.4-0.2,0.5-0.6,0.3-1c-6.5-13.5-16.7-25-29.4-33.1
		c-13-8.3-28.2-12.8-43.7-12.8c-9.4,0-18.6,1.6-27.3,4.7c-8.5,3-16.4,7.4-23.4,13c-11.8,9.4-26.8,14.6-42.1,14.6
		c-31.7,0-58.7-21.4-65.9-52.2l5.9-1.5L13.2,300.3z"/>
	<path class="st2" d="M61.5,108.6c-4.7,5.9-8.3,12.5-10.9,19.6c-2.7,7.4-4,15.3-4,23.2c0,9.3,1.8,18.4,5.4,26.9
		c3.5,8.2,8.5,15.6,14.8,22c6.3,6.3,13.7,11.3,22,14.8c8.5,3.6,17.6,5.4,26.9,5.4c9.3,0,18.4-1.8,26.9-5.4c8.2-3.5,15.6-8.5,22-14.8
		c6.3-6.3,11.3-13.7,14.8-22c3.6-8.5,5.4-17.6,5.4-26.9c0-5.3-0.6-10.6-1.7-15.7c-1.1-5-2.8-9.9-5-14.4c-5.2-10.7-7.8-22.4-7.8-34.6
		c0-44,35.8-79.7,79.7-79.7c43.4,0,79.1,35.3,79.7,78.7c0,0.4,0.3,0.7,0.7,0.7c0.4,0,0.7-0.3,0.7-0.7c-0.1-10.8-2.4-21.3-6.7-31.2
		c-4.1-9.5-10-18.1-17.4-25.5c-7.4-7.3-16.1-13.1-25.7-17.1c-9.9-4.2-20.5-6.3-31.4-6.3c-11,0-21.6,2.1-31.6,6.4
		c-9.7,4.1-18.3,9.9-25.8,17.4c-7.5,7.5-13.3,16.1-17.4,25.8c-4.2,10-6.4,20.6-6.4,31.6c0,6.2,0.7,12.4,2,18.4
		c1.3,5.9,3.3,11.5,5.9,16.9c4.4,9.1,6.6,19,6.6,29.5c0,37.3-30.3,67.6-67.6,67.6s-67.6-30.3-67.6-67.6c0-15.4,5-29.9,14.5-41.9"/>
	<path class="st2" d="M63.1,112.3c1.7,0,3.1-1.4,3.1-3.1c0-1.7-1.4-3.1-3.1-3.1c-1.7,0-3.1,1.4-3.1,3.1
		C60,111,61.4,112.3,63.1,112.3"/>
	<g>
		<path class="st0" d="M203.4,256.6l-2.6-3.4l-0.7,0.8v2.6h-1.8v-8.5h1.8v3.8l3-3.8h2.2l-3.4,4l3.6,4.5H203.4z"/>
		<path class="st0" d="M206.5,256.6v-8.5h6v1.6h-4.2v1.8h4.1v1.6h-4.1v1.9h4.2v1.6H206.5z"/>
		<path class="st0" d="M216.3,256.6v-3.5l-3.3-5h2.1l2.1,3.4l2.1-3.4h2.1l-3.2,5v3.5H216.3z"/>
		<path class="st0" d="M225.4,256.6v-8.5h1.8v8.5H225.4z"/>
		<path class="st0" d="M234.7,256.6l-4.1-5.5v5.5h-1.8v-8.5h1.9l3.9,5.3v-5.3h1.8v8.5H234.7z"/>
		<path class="st0" d="M240.5,256.6l-3.3-8.5h2.1l2.4,6.5l2.3-6.5h2.1l-3.3,8.5H240.5z"/>
		<path class="st0" d="M246.9,256.6v-8.5h6v1.6h-4.2v1.8h4.1v1.6h-4.1v1.9h4.2v1.6H246.9z"/>
		<path class="st0" d="M253.7,255.4l1-1.4c0.6,0.6,1.5,1.1,2.7,1.1c1,0,1.5-0.5,1.5-0.9c0-1.5-4.9-0.5-4.9-3.7
			c0-1.4,1.2-2.6,3.2-2.6c1.4,0,2.5,0.4,3.3,1.2l-1,1.3c-0.7-0.6-1.6-0.9-2.5-0.9c-0.8,0-1.2,0.3-1.2,0.9c0,1.4,4.9,0.4,4.9,3.6
			c0,1.6-1.1,2.7-3.4,2.7C255.7,256.7,254.5,256.2,253.7,255.4z"/>
		<path class="st0" d="M263.8,256.6v-6.9h-2.5v-1.6h6.8v1.6h-2.5v6.9H263.8z"/>
		<path class="st0" d="M276.6,256.6v-6l-2.4,6h-0.8l-2.4-6v6h-1.8v-8.5h2.5l2.1,5.1l2.1-5.1h2.5v8.5H276.6z"/>
		<path class="st0" d="M280.1,256.6v-8.5h6v1.6h-4.2v1.8h4.1v1.6h-4.1v1.9h4.2v1.6H280.1z"/>
		<path class="st0" d="M293.4,256.6l-4.1-5.5v5.5h-1.8v-8.5h1.9l3.9,5.3v-5.3h1.8v8.5H293.4z"/>
		<path class="st0" d="M298.8,256.6v-6.9h-2.5v-1.6h6.8v1.6h-2.5v6.9H298.8z"/>
	</g>
	<g>
		<path class="st0" d="M205.1,271.9v-8.5h4c1.8,0,2.9,1.2,2.9,2.7c0,1.5-1,2.7-2.9,2.7H207v3H205.1z M210.1,266.1
			c0-0.7-0.5-1.1-1.2-1.1H207v2.3h1.9C209.6,267.3,210.1,266.8,210.1,266.1z"/>
		<path class="st0" d="M217.9,271.9l-1.7-3h-1.3v3h-1.8v-8.5h4c1.8,0,2.9,1.2,2.9,2.7c0,1.5-0.9,2.3-1.9,2.5l1.9,3.2H217.9z
			 M218.1,266.1c0-0.7-0.5-1.1-1.3-1.1h-1.9v2.3h1.9C217.5,267.3,218.1,266.8,218.1,266.1z"/>
		<path class="st0" d="M220.9,267.6c0-2.6,1.9-4.4,4.4-4.4c2.6,0,4.4,1.8,4.4,4.4c0,2.6-1.9,4.4-4.4,4.4
			C222.8,272,220.9,270.2,220.9,267.6z M227.9,267.6c0-1.6-1-2.8-2.6-2.8c-1.6,0-2.6,1.2-2.6,2.8c0,1.6,1,2.8,2.6,2.8
			C226.9,270.4,227.9,269.2,227.9,267.6z"/>
		<path class="st0" d="M231,271.9v-8.5h4c1.8,0,2.9,1.2,2.9,2.7c0,1.5-1,2.7-2.9,2.7h-2.2v3H231z M236,266.1c0-0.7-0.5-1.1-1.2-1.1
			h-1.9v2.3h1.9C235.5,267.3,236,266.8,236,266.1z"/>
		<path class="st0" d="M238.6,267.6c0-2.6,1.9-4.4,4.4-4.4c2.6,0,4.4,1.8,4.4,4.4c0,2.6-1.9,4.4-4.4,4.4
			C240.4,272,238.6,270.2,238.6,267.6z M245.6,267.6c0-1.6-1-2.8-2.6-2.8c-1.6,0-2.6,1.2-2.6,2.8c0,1.6,1,2.8,2.6,2.8
			C244.6,270.4,245.6,269.2,245.6,267.6z"/>
		<path class="st0" d="M248.2,270.7l1-1.4c0.6,0.6,1.5,1.1,2.7,1.1c1,0,1.5-0.5,1.5-0.9c0-1.5-4.9-0.5-4.9-3.7
			c0-1.4,1.2-2.6,3.2-2.6c1.4,0,2.5,0.4,3.3,1.2l-1,1.3c-0.7-0.6-1.6-0.9-2.5-0.9c-0.8,0-1.2,0.3-1.2,0.9c0,1.4,4.9,0.4,4.9,3.6
			c0,1.6-1.1,2.7-3.4,2.7C250.1,272,248.9,271.5,248.2,270.7z"/>
		<path class="st0" d="M256.4,271.9v-8.5h1.8v8.5H256.4z"/>
		<path class="st0" d="M261.8,271.9V265h-2.5v-1.6h6.8v1.6h-2.5v6.9H261.8z"/>
		<path class="st0" d="M267.3,271.9v-8.5h1.8v8.5H267.3z"/>
		<path class="st0" d="M270.4,267.6c0-2.6,1.9-4.4,4.4-4.4c2.6,0,4.4,1.8,4.4,4.4c0,2.6-1.9,4.4-4.4,4.4
			C272.2,272,270.4,270.2,270.4,267.6z M277.4,267.6c0-1.6-1-2.8-2.6-2.8s-2.6,1.2-2.6,2.8c0,1.6,1,2.8,2.6,2.8
			S277.4,269.2,277.4,267.6z"/>
		<path class="st0" d="M286.4,271.9l-4.1-5.5v5.5h-1.8v-8.5h1.9l3.9,5.3v-5.3h1.8v8.5H286.4z"/>
		<path class="st0" d="M289.2,270.7l1-1.4c0.6,0.6,1.5,1.1,2.7,1.1c1,0,1.5-0.5,1.5-0.9c0-1.5-4.9-0.5-4.9-3.7
			c0-1.4,1.2-2.6,3.2-2.6c1.4,0,2.5,0.4,3.3,1.2l-1,1.3c-0.7-0.6-1.6-0.9-2.5-0.9c-0.8,0-1.2,0.3-1.2,0.9c0,1.4,4.9,0.4,4.9,3.6
			c0,1.6-1.1,2.7-3.4,2.7C291.2,272,290,271.5,289.2,270.7z"/>
	</g>
	<g>
		<path class="st3" d="M217.3,101v-3.9h-5v3.9h-1.1v-8.5h1.1v3.7h5v-3.7h1.1v8.5H217.3z"/>
		<path class="st3" d="M220.2,93.4c0-0.4,0.3-0.6,0.6-0.6c0.4,0,0.6,0.3,0.6,0.6c0,0.4-0.3,0.6-0.6,0.6
			C220.5,94,220.2,93.7,220.2,93.4z M220.3,101v-6.2h1v6.2H220.3z"/>
		<path class="st3" d="M223.2,102.6l0.5-0.7c0.5,0.6,1.1,0.8,2,0.8c1,0,2-0.5,2-1.8V100c-0.4,0.6-1.2,1.1-2.1,1.1
			c-1.6,0-2.7-1.2-2.7-3.2c0-2,1.1-3.2,2.7-3.2c0.8,0,1.6,0.4,2.1,1.1v-0.9h1v6c0,2-1.4,2.7-2.9,2.7
			C224.6,103.5,223.9,103.3,223.2,102.6z M227.7,99.3v-2.7c-0.3-0.5-1.1-1-1.8-1c-1.2,0-2,1-2,2.3c0,1.4,0.7,2.3,2,2.3
			C226.6,100.3,227.3,99.8,227.7,99.3z"/>
		<path class="st3" d="M234.7,101V97c0-1.1-0.6-1.4-1.4-1.4c-0.7,0-1.5,0.5-1.8,1v4.5h-1v-8.5h1v3.2c0.4-0.5,1.3-1,2.2-1
			c1.3,0,2,0.6,2,2v4.3H234.7z"/>
		<path class="st3" d="M240.9,101v-8.5h1.1v7.6h3.9v0.9H240.9z"/>
		<path class="st3" d="M246.7,97.9c0-1.8,1.3-3.2,3-3.2c1.9,0,3,1.5,3,3.3v0.2h-5c0.1,1.2,0.9,2.1,2.2,2.1c0.7,0,1.4-0.3,1.9-0.8
			l0.5,0.6c-0.6,0.6-1.4,0.9-2.4,0.9C248,101.2,246.7,99.9,246.7,97.9z M249.7,95.5c-1.3,0-2,1.1-2,2.1h4
			C251.7,96.6,251.1,95.5,249.7,95.5z"/>
		<path class="st3" d="M255.9,101l-2.6-6.2h1l2.1,5l2-5h1l-2.6,6.2H255.9z"/>
		<path class="st3" d="M260.1,97.9c0-1.8,1.3-3.2,3-3.2c1.9,0,3,1.5,3,3.3v0.2h-5c0.1,1.2,0.9,2.1,2.2,2.1c0.7,0,1.4-0.3,1.9-0.8
			l0.5,0.6c-0.6,0.6-1.4,0.9-2.4,0.9C261.4,101.2,260.1,99.9,260.1,97.9z M263.2,95.5c-1.3,0-2,1.1-2,2.1h4
			C265.2,96.6,264.6,95.5,263.2,95.5z"/>
		<path class="st3" d="M267.7,101v-8.5h1v8.5H267.7z"/>
		<path class="st3" d="M270,100.2l0.5-0.7c0.4,0.5,1.2,0.9,2,0.9c0.9,0,1.5-0.4,1.5-1.1c0-1.5-3.8-0.6-3.8-2.9c0-1,0.8-1.8,2.3-1.8
			c1,0,1.8,0.4,2.3,0.9l-0.4,0.7c-0.4-0.4-1-0.8-1.8-0.8c-0.8,0-1.4,0.4-1.4,1c0,1.4,3.8,0.5,3.8,2.9c0,1-0.8,1.9-2.4,1.9
			C271.5,101.2,270.6,100.9,270,100.2z"/>
		<path class="st3" d="M279.4,97.9c0-1.8,1.2-3.2,3-3.2c1.9,0,3,1.4,3,3.2s-1.2,3.2-3,3.2C280.6,101.2,279.4,99.7,279.4,97.9z
			 M284.5,97.9c0-1.2-0.7-2.4-2-2.4c-1.3,0-2.1,1.1-2.1,2.4c0,1.3,0.7,2.4,2.1,2.4C283.7,100.3,284.5,99.2,284.5,97.9z"/>
		<path class="st3" d="M287.3,101v-5.3h-1v-0.8h1v-0.5c0-1.3,0.7-2,1.8-2c0.5,0,0.9,0.1,1.3,0.5l-0.4,0.6c-0.2-0.2-0.4-0.3-0.8-0.3
			c-0.6,0-1,0.4-1,1.2v0.5h1.2v0.8h-1.2v5.3H287.3z"/>
	</g>
	<g>
		<path class="st3" d="M217.8,112.1c0-2.5,1.7-4.4,4.2-4.4c2.5,0,4.2,1.9,4.2,4.4c0,2.5-1.7,4.4-4.2,4.4
			C219.5,116.5,217.8,114.6,217.8,112.1z M225.2,112.1c0-2-1.2-3.5-3.1-3.5c-1.9,0-3.1,1.5-3.1,3.5c0,2,1.2,3.5,3.1,3.5
			C223.9,115.5,225.2,114.1,225.2,112.1z"/>
		<path class="st3" d="M228.8,115.4v3.3h-1v-8.5h1v0.9c0.4-0.6,1.2-1.1,2.1-1.1c1.6,0,2.7,1.2,2.7,3.2c0,2-1.1,3.2-2.7,3.2
			C230.1,116.5,229.3,116.1,228.8,115.4z M232.6,113.2c0-1.4-0.7-2.4-2-2.4c-0.8,0-1.5,0.4-1.8,1v2.8c0.3,0.5,1.1,1,1.8,1
			C231.9,115.6,232.6,114.6,232.6,113.2z"/>
		<path class="st3" d="M234.8,113.2c0-1.8,1.3-3.2,3-3.2c1.9,0,3,1.5,3,3.3v0.2h-5c0.1,1.2,0.9,2.1,2.2,2.1c0.7,0,1.4-0.3,1.9-0.8
			l0.5,0.6c-0.6,0.6-1.4,0.9-2.4,0.9C236.1,116.5,234.8,115.2,234.8,113.2z M237.8,110.8c-1.3,0-2,1.1-2,2.1h4
			C239.8,111.9,239.2,110.8,237.8,110.8z"/>
		<path class="st3" d="M242.3,116.3v-6.2h1v1c0.5-0.6,1.2-1.1,2.1-1.1v1c-0.1,0-0.2,0-0.4,0c-0.6,0-1.4,0.5-1.7,1v4.4H242.3z"/>
		<path class="st3" d="M250.4,116.3v-0.7c-0.5,0.6-1.2,0.9-2,0.9c-1,0-2.2-0.7-2.2-2c0-1.4,1.1-2,2.2-2c0.8,0,1.5,0.3,2,0.8v-1.1
			c0-0.8-0.7-1.3-1.6-1.3c-0.7,0-1.3,0.3-1.9,0.9l-0.4-0.7c0.7-0.7,1.5-1,2.5-1c1.3,0,2.4,0.6,2.4,2.1v4.2H250.4z M250.4,115v-1.2
			c-0.4-0.5-1-0.8-1.7-0.8c-0.9,0-1.5,0.6-1.5,1.4c0,0.8,0.6,1.3,1.5,1.3C249.4,115.8,250,115.5,250.4,115z"/>
		<path class="st3" d="M253.4,115v-4h-1v-0.8h1v-1.7h1v1.7h1.2v0.8h-1.2v3.8c0,0.5,0.2,0.8,0.6,0.8c0.3,0,0.5-0.1,0.6-0.3l0.3,0.7
			c-0.2,0.2-0.6,0.4-1.1,0.4C253.9,116.5,253.4,116,253.4,115z"/>
		<path class="st3" d="M256.8,108.7c0-0.4,0.3-0.6,0.6-0.6c0.4,0,0.7,0.3,0.7,0.6c0,0.4-0.3,0.6-0.7,0.6
			C257.1,109.3,256.8,109,256.8,108.7z M257,116.3v-6.2h1v6.2H257z"/>
		<path class="st3" d="M259.5,113.2c0-1.8,1.2-3.2,3-3.2c1.9,0,3,1.4,3,3.2s-1.2,3.2-3,3.2C260.7,116.5,259.5,115,259.5,113.2z
			 M264.6,113.2c0-1.2-0.7-2.4-2-2.4c-1.3,0-2.1,1.1-2.1,2.4c0,1.3,0.7,2.4,2.1,2.4C263.9,115.6,264.6,114.5,264.6,113.2z"/>
		<path class="st3" d="M271.3,116.3v-4c0-1.1-0.5-1.4-1.4-1.4c-0.8,0-1.5,0.5-1.8,1v4.5h-1v-6.2h1v0.9c0.4-0.5,1.3-1,2.2-1
			c1.3,0,2,0.6,2,2v4.3H271.3z"/>
		<path class="st3" d="M278,116.3v-0.7c-0.5,0.6-1.2,0.9-2,0.9c-1,0-2.2-0.7-2.2-2c0-1.4,1.1-2,2.2-2c0.8,0,1.5,0.3,2,0.8v-1.1
			c0-0.8-0.7-1.3-1.6-1.3c-0.7,0-1.3,0.3-1.9,0.9l-0.4-0.7c0.7-0.7,1.5-1,2.5-1c1.3,0,2.4,0.6,2.4,2.1v4.2H278z M278,115v-1.2
			c-0.4-0.5-1-0.8-1.7-0.8c-0.9,0-1.5,0.6-1.5,1.4c0,0.8,0.6,1.3,1.5,1.3C277,115.8,277.7,115.5,278,115z"/>
		<path class="st3" d="M280.9,116.3v-8.5h1v8.5H280.9z"/>
	</g>
	<g>
		<path class="st3" d="M221,131.6v-8.5h5.6v0.9h-4.5v2.7h4.4v0.9h-4.4v2.9h4.5v0.9H221z"/>
		<path class="st3" d="M232.2,131.6l-1.8-2.5l-1.8,2.5h-1.1l2.4-3.2l-2.2-3h1.1l1.7,2.3l1.7-2.3h1.1l-2.2,3l2.4,3.2H232.2z"/>
		<path class="st3" d="M233.7,128.5c0-1.8,1.2-3.2,3.1-3.2c1.1,0,1.8,0.5,2.3,1.1l-0.6,0.6c-0.4-0.6-0.9-0.8-1.6-0.8
			c-1.3,0-2.1,1-2.1,2.4s0.8,2.4,2.1,2.4c0.6,0,1.2-0.3,1.6-0.8l0.6,0.6c-0.5,0.6-1.1,1.1-2.3,1.1
			C234.9,131.8,233.7,130.4,233.7,128.5z"/>
		<path class="st3" d="M240,128.5c0-1.8,1.3-3.2,3-3.2c1.9,0,3,1.5,3,3.3v0.2h-5c0.1,1.2,0.9,2.1,2.2,2.1c0.7,0,1.4-0.3,1.9-0.8
			l0.5,0.6c-0.6,0.6-1.4,0.9-2.4,0.9C241.3,131.8,240,130.5,240,128.5z M243,126.1c-1.3,0-2,1.1-2,2.1h4
			C245,127.2,244.4,126.1,243,126.1z"/>
		<path class="st3" d="M247.5,131.6v-8.5h1v8.5H247.5z"/>
		<path class="st3" d="M250.4,131.6v-8.5h1v8.5H250.4z"/>
		<path class="st3" d="M252.9,128.5c0-1.8,1.3-3.2,3-3.2c1.9,0,3,1.5,3,3.3v0.2h-5c0.1,1.2,0.9,2.1,2.2,2.1c0.7,0,1.4-0.3,1.9-0.8
			l0.5,0.6c-0.6,0.6-1.4,0.9-2.4,0.9C254.2,131.8,252.9,130.5,252.9,128.5z M255.9,126.1c-1.3,0-2,1.1-2,2.1h4
			C257.9,127.2,257.3,126.1,255.9,126.1z"/>
		<path class="st3" d="M264.6,131.6v-4c0-1.1-0.5-1.4-1.4-1.4c-0.8,0-1.5,0.5-1.8,1v4.5h-1v-6.2h1v0.9c0.4-0.5,1.3-1,2.2-1
			c1.3,0,2,0.6,2,2v4.3H264.6z"/>
		<path class="st3" d="M267.1,128.5c0-1.8,1.2-3.2,3.1-3.2c1.1,0,1.8,0.5,2.3,1.1l-0.6,0.6c-0.4-0.6-0.9-0.8-1.6-0.8
			c-1.3,0-2.1,1-2.1,2.4s0.8,2.4,2.1,2.4c0.6,0,1.2-0.3,1.6-0.8l0.6,0.6c-0.5,0.6-1.1,1.1-2.3,1.1
			C268.3,131.8,267.1,130.4,267.1,128.5z"/>
		<path class="st3" d="M273.4,128.5c0-1.8,1.3-3.2,3-3.2c1.9,0,3,1.5,3,3.3v0.2h-5c0.1,1.2,0.9,2.1,2.2,2.1c0.7,0,1.4-0.3,1.9-0.8
			l0.5,0.6c-0.6,0.6-1.4,0.9-2.4,0.9C274.7,131.8,273.4,130.5,273.4,128.5z M276.4,126.1c-1.3,0-2,1.1-2,2.1h4
			C278.4,127.2,277.8,126.1,276.4,126.1z"/>
	</g>
	<g>
		<path class="st3" d="M341.8,171.8l0.6-0.8c0.6,0.6,1.5,1.2,2.7,1.2c1.5,0,2-0.8,2-1.5c0-2.2-5-1-5-4c0-1.4,1.2-2.4,2.9-2.4
			c1.3,0,2.3,0.4,3,1.2l-0.6,0.8c-0.6-0.7-1.5-1-2.5-1c-1,0-1.7,0.5-1.7,1.4c0,1.9,5,0.8,5,4c0,1.2-0.8,2.5-3.1,2.5
			C343.6,173.1,342.5,172.6,341.8,171.8z"/>
		<path class="st3" d="M349.7,171.7v-4h-1v-0.8h1v-1.7h1v1.7h1.2v0.8h-1.2v3.8c0,0.5,0.2,0.8,0.6,0.8c0.3,0,0.5-0.1,0.6-0.3l0.3,0.7
			c-0.2,0.2-0.6,0.4-1.1,0.4C350.2,173.1,349.7,172.6,349.7,171.7z"/>
		<path class="st3" d="M353.3,173v-6.2h1v1c0.5-0.6,1.2-1.1,2.1-1.1v1c-0.1,0-0.2,0-0.4,0c-0.6,0-1.4,0.5-1.7,1v4.4H353.3z"/>
		<path class="st3" d="M357.1,169.9c0-1.8,1.2-3.2,3-3.2c1.9,0,3,1.4,3,3.2s-1.2,3.2-3,3.2C358.3,173.1,357.1,171.7,357.1,169.9z
			 M362.2,169.9c0-1.2-0.7-2.4-2-2.4c-1.3,0-2.1,1.1-2.1,2.4c0,1.3,0.7,2.4,2.1,2.4C361.5,172.3,362.2,171.2,362.2,169.9z"/>
		<path class="st3" d="M368.9,173v-4c0-1.1-0.5-1.4-1.4-1.4c-0.8,0-1.5,0.5-1.8,1v4.5h-1v-6.2h1v0.9c0.4-0.5,1.3-1,2.2-1
			c1.3,0,2,0.6,2,2v4.3H368.9z"/>
		<path class="st3" d="M371.8,174.6l0.5-0.7c0.5,0.6,1.1,0.8,2,0.8c1,0,2-0.5,2-1.8V172c-0.4,0.6-1.2,1.1-2.1,1.1
			c-1.6,0-2.7-1.2-2.7-3.2c0-2,1.1-3.2,2.7-3.2c0.8,0,1.6,0.4,2.1,1.1v-0.9h1v6c0,2-1.4,2.7-2.9,2.7
			C373.2,175.5,372.5,175.3,371.8,174.6z M376.3,171.2v-2.7c-0.3-0.5-1.1-1-1.8-1c-1.2,0-2,1-2,2.3c0,1.4,0.7,2.3,2,2.3
			C375.2,172.2,375.9,171.7,376.3,171.2z"/>
		<path class="st3" d="M382.5,173v-8.5h5.6v0.9h-4.5v2.7h4.4v0.9h-4.4v2.9h4.5v0.9H382.5z"/>
		<path class="st3" d="M393.6,173l-1.8-2.5L390,173h-1.1l2.4-3.2l-2.2-3h1.1l1.7,2.3l1.7-2.3h1.1l-2.2,3l2.4,3.2H393.6z"/>
		<path class="st3" d="M395.1,169.9c0-1.8,1.3-3.2,3-3.2c1.9,0,3,1.5,3,3.3v0.2h-5c0.1,1.2,0.9,2.1,2.2,2.1c0.7,0,1.4-0.3,1.9-0.8
			l0.5,0.6c-0.6,0.6-1.4,0.9-2.4,0.9C396.4,173.1,395.1,171.8,395.1,169.9z M398.1,167.5c-1.3,0-2,1.1-2,2.1h4
			C400.1,168.6,399.5,167.5,398.1,167.5z"/>
		<path class="st3" d="M402.3,169.9c0-1.8,1.2-3.2,3.1-3.2c1.1,0,1.8,0.5,2.3,1.1l-0.6,0.6c-0.4-0.6-0.9-0.8-1.6-0.8
			c-1.3,0-2.1,1-2.1,2.4s0.8,2.4,2.1,2.4c0.6,0,1.2-0.3,1.6-0.8l0.6,0.6c-0.5,0.6-1.1,1.1-2.3,1.1
			C403.5,173.1,402.3,171.7,402.3,169.9z"/>
		<path class="st3" d="M413.1,173v-0.9c-0.5,0.5-1.3,1-2.2,1c-1.3,0-2-0.6-2-2v-4.3h1v4.1c0,1.1,0.5,1.4,1.4,1.4
			c0.8,0,1.5-0.4,1.8-0.9v-4.5h1v6.2H413.1z"/>
		<path class="st3" d="M416.2,171.7v-4h-1v-0.8h1v-1.7h1v1.7h1.2v0.8h-1.2v3.8c0,0.5,0.2,0.8,0.6,0.8c0.3,0,0.5-0.1,0.6-0.3l0.3,0.7
			c-0.2,0.2-0.6,0.4-1.1,0.4C416.6,173.1,416.2,172.6,416.2,171.7z"/>
		<path class="st3" d="M419.5,165.3c0-0.4,0.3-0.6,0.6-0.6c0.4,0,0.7,0.3,0.7,0.6c0,0.4-0.3,0.6-0.7,0.6
			C419.8,166,419.5,165.7,419.5,165.3z M419.7,173v-6.2h1v6.2H419.7z"/>
		<path class="st3" d="M422.2,169.9c0-1.8,1.2-3.2,3-3.2c1.9,0,3,1.4,3,3.2s-1.2,3.2-3,3.2C423.4,173.1,422.2,171.7,422.2,169.9z
			 M427.3,169.9c0-1.2-0.7-2.4-2-2.4c-1.3,0-2.1,1.1-2.1,2.4c0,1.3,0.7,2.4,2.1,2.4C426.6,172.3,427.3,171.2,427.3,169.9z"/>
		<path class="st3" d="M434,173v-4c0-1.1-0.5-1.4-1.4-1.4c-0.8,0-1.5,0.5-1.8,1v4.5h-1v-6.2h1v0.9c0.4-0.5,1.3-1,2.2-1
			c1.3,0,2,0.6,2,2v4.3H434z"/>
	</g>
	<g>
		<path class="st3" d="M375.1,188.3v-8.5h5.6v0.9h-4.5v2.7h4.4v0.9h-4.4v2.9h4.5v0.9H375.1z"/>
		<path class="st3" d="M386.8,188.3v-0.9c-0.5,0.6-1.2,1.1-2.1,1.1c-1.6,0-2.7-1.2-2.7-3.2c0-2,1.1-3.2,2.7-3.2
			c0.8,0,1.6,0.4,2.1,1.1v-3.3h1v8.5H386.8z M386.8,186.6v-2.8c-0.3-0.5-1.1-1-1.8-1c-1.2,0-2,1-2,2.4s0.7,2.4,2,2.4
			C385.7,187.6,386.4,187.1,386.8,186.6z"/>
		<path class="st3" d="M389.6,189.9l0.5-0.7c0.5,0.6,1.1,0.8,2,0.8c1,0,2-0.5,2-1.8v-0.9c-0.4,0.6-1.2,1.1-2.1,1.1
			c-1.6,0-2.7-1.2-2.7-3.2c0-2,1.1-3.2,2.7-3.2c0.8,0,1.6,0.4,2.1,1.1v-0.9h1v6c0,2-1.4,2.7-2.9,2.7
			C391.1,190.8,390.4,190.6,389.6,189.9z M394.1,186.5v-2.7c-0.3-0.5-1.1-1-1.8-1c-1.2,0-2,1-2,2.3c0,1.4,0.7,2.3,2,2.3
			C393,187.5,393.8,187,394.1,186.5z"/>
		<path class="st3" d="M396.6,185.2c0-1.8,1.3-3.2,3-3.2c1.9,0,3,1.5,3,3.3v0.2h-5c0.1,1.2,0.9,2.1,2.2,2.1c0.7,0,1.4-0.3,1.9-0.8
			l0.5,0.6c-0.6,0.6-1.4,0.9-2.4,0.9C397.9,188.4,396.6,187.1,396.6,185.2z M399.6,182.8c-1.3,0-2,1.1-2,2.1h4
			C401.6,183.9,401,182.8,399.6,182.8z"/>
	</g>
	<g>
		<path class="st3" d="M381,305.5V298h-2.7V297h6.4v0.9H382v7.6H381z"/>
		<path class="st3" d="M385,305.5v-6.2h1v1c0.5-0.6,1.2-1.1,2.1-1.1v1c-0.1,0-0.2,0-0.4,0c-0.6,0-1.4,0.5-1.7,1v4.4H385z"/>
		<path class="st3" d="M393.1,305.5v-0.7c-0.5,0.6-1.2,0.9-2,0.9c-1,0-2.2-0.7-2.2-2c0-1.4,1.1-2,2.2-2c0.8,0,1.5,0.3,2,0.8v-1.1
			c0-0.8-0.7-1.3-1.6-1.3c-0.7,0-1.3,0.3-1.9,0.9l-0.4-0.7c0.7-0.7,1.5-1,2.5-1c1.3,0,2.4,0.6,2.4,2.1v4.2H393.1z M393.1,304.2v-1.2
			c-0.4-0.5-1-0.8-1.7-0.8c-0.9,0-1.5,0.6-1.5,1.4c0,0.8,0.6,1.3,1.5,1.3C392.1,305,392.7,304.7,393.1,304.2z"/>
		<path class="st3" d="M395.6,302.4c0-1.8,1.2-3.2,3.1-3.2c1.1,0,1.8,0.5,2.3,1.1l-0.6,0.6c-0.4-0.6-0.9-0.8-1.6-0.8
			c-1.3,0-2.1,1-2.1,2.4s0.8,2.4,2.1,2.4c0.6,0,1.2-0.3,1.6-0.8l0.6,0.6c-0.5,0.6-1.1,1.1-2.3,1.1
			C396.8,305.7,395.6,304.3,395.6,302.4z"/>
		<path class="st3" d="M406.5,305.5l-2.2-2.8l-1,1v1.8h-1V297h1v5.6l3.2-3.3h1.2l-2.7,2.8l2.7,3.4H406.5z"/>
		<path class="st3" d="M417.1,305.5l-2.2-3.4h-1.7v3.4h-1.1V297h3.4c1.6,0,2.7,1,2.7,2.6c0,1.5-1,2.4-2.2,2.5l2.3,3.5H417.1z
			 M417.1,299.6c0-1-0.7-1.6-1.7-1.6h-2.2v3.2h2.2C416.4,301.2,417.1,300.5,417.1,299.6z"/>
		<path class="st3" d="M419.1,302.4c0-1.8,1.3-3.2,3-3.2c1.9,0,3,1.5,3,3.3v0.2h-5c0.1,1.2,0.9,2.1,2.2,2.1c0.7,0,1.4-0.3,1.9-0.8
			l0.5,0.6c-0.6,0.6-1.4,0.9-2.4,0.9C420.4,305.7,419.1,304.4,419.1,302.4z M422.1,300c-1.3,0-2,1.1-2,2.1h4
			C424.1,301.1,423.5,300,422.1,300z"/>
		<path class="st3" d="M426.3,302.4c0-1.8,1.2-3.2,3.1-3.2c1.1,0,1.8,0.5,2.3,1.1l-0.6,0.6c-0.4-0.6-0.9-0.8-1.6-0.8
			c-1.3,0-2.1,1-2.1,2.4s0.8,2.4,2.1,2.4c0.6,0,1.2-0.3,1.6-0.8l0.6,0.6c-0.5,0.6-1.1,1.1-2.3,1.1
			C427.5,305.7,426.3,304.3,426.3,302.4z"/>
		<path class="st3" d="M432.6,302.4c0-1.8,1.2-3.2,3-3.2c1.9,0,3,1.4,3,3.2c0,1.8-1.2,3.2-3,3.2
			C433.8,305.7,432.6,304.2,432.6,302.4z M437.7,302.4c0-1.2-0.7-2.4-2-2.4c-1.3,0-2.1,1.1-2.1,2.4c0,1.3,0.7,2.4,2.1,2.4
			C436.9,304.8,437.7,303.7,437.7,302.4z"/>
		<path class="st3" d="M440.2,305.5v-6.2h1v1c0.5-0.6,1.2-1.1,2.1-1.1v1c-0.1,0-0.2,0-0.4,0c-0.6,0-1.4,0.5-1.7,1v4.4H440.2z"/>
		<path class="st3" d="M448.9,305.5v-0.9c-0.5,0.6-1.2,1.1-2.1,1.1c-1.6,0-2.7-1.2-2.7-3.2c0-2,1.1-3.2,2.7-3.2
			c0.8,0,1.6,0.4,2.1,1.1V297h1v8.5H448.9z M448.9,303.9v-2.8c-0.3-0.5-1.1-1-1.8-1c-1.2,0-2,1-2,2.4s0.7,2.4,2,2.4
			C447.8,304.8,448.6,304.4,448.9,303.9z"/>
		<path class="st3" d="M454.7,302.4c0-1.8,1.2-3.2,3-3.2c1.9,0,3,1.4,3,3.2c0,1.8-1.2,3.2-3,3.2
			C455.9,305.7,454.7,304.2,454.7,302.4z M459.8,302.4c0-1.2-0.7-2.4-2-2.4c-1.3,0-2.1,1.1-2.1,2.4c0,1.3,0.7,2.4,2.1,2.4
			C459,304.8,459.8,303.7,459.8,302.4z"/>
		<path class="st3" d="M462.6,305.5v-5.3h-1v-0.8h1v-0.5c0-1.3,0.7-2,1.8-2c0.5,0,0.9,0.1,1.3,0.5l-0.4,0.6
			c-0.2-0.2-0.4-0.3-0.8-0.3c-0.6,0-1,0.4-1,1.2v0.5h1.2v0.8h-1.2v5.3H462.6z"/>
	</g>
	<g>
		<path class="st3" d="M394.1,320.8v-8.5h2.9c2.6,0,4.4,1.8,4.4,4.3c0,2.4-1.7,4.2-4.4,4.2H394.1z M400.3,316.6
			c0-1.8-1.2-3.3-3.3-3.3h-1.8v6.6h1.8C399.1,319.9,400.3,318.4,400.3,316.6z"/>
		<path class="st3" d="M402.6,317.7c0-1.8,1.3-3.2,3-3.2c1.9,0,3,1.5,3,3.3v0.2h-5c0.1,1.2,0.9,2.1,2.2,2.1c0.7,0,1.4-0.3,1.9-0.8
			l0.5,0.6c-0.6,0.6-1.4,0.9-2.4,0.9C403.9,321,402.6,319.7,402.6,317.7z M405.6,315.3c-1.3,0-2,1.1-2,2.1h4
			C407.7,316.4,407,315.3,405.6,315.3z"/>
		<path class="st3" d="M410.2,320.8v-8.5h1v8.5H410.2z"/>
		<path class="st3" d="M412.9,313.2c0-0.4,0.3-0.7,0.6-0.7c0.4,0,0.7,0.3,0.7,0.7c0,0.4-0.3,0.6-0.7,0.6
			C413.1,313.8,412.9,313.5,412.9,313.2z M413,320.8v-6.2h1v6.2H413z"/>
		<path class="st3" d="M417.5,320.8l-2.6-6.2h1l2.1,5l2-5h1l-2.6,6.2H417.5z"/>
		<path class="st3" d="M421.8,317.7c0-1.8,1.3-3.2,3-3.2c1.9,0,3,1.5,3,3.3v0.2h-5c0.1,1.2,0.9,2.1,2.2,2.1c0.7,0,1.4-0.3,1.9-0.8
			l0.5,0.6c-0.6,0.6-1.4,0.9-2.4,0.9C423.1,321,421.8,319.7,421.8,317.7z M424.8,315.3c-1.3,0-2,1.1-2,2.1h4
			C426.8,316.4,426.2,315.3,424.8,315.3z"/>
		<path class="st3" d="M429.3,320.8v-6.2h1v1c0.5-0.6,1.2-1.1,2.1-1.1v1c-0.1,0-0.2,0-0.4,0c-0.6,0-1.4,0.5-1.7,1v4.4H429.3z"/>
		<path class="st3" d="M433.3,313.2c0-0.4,0.3-0.7,0.6-0.7c0.4,0,0.7,0.3,0.7,0.7c0,0.4-0.3,0.6-0.7,0.6
			C433.6,313.8,433.3,313.5,433.3,313.2z M433.5,320.8v-6.2h1v6.2H433.5z"/>
		<path class="st3" d="M440.5,320.8v-4c0-1.1-0.5-1.4-1.4-1.4c-0.8,0-1.5,0.5-1.8,1v4.5h-1v-6.2h1v0.9c0.4-0.5,1.3-1,2.2-1
			c1.3,0,2,0.6,2,2v4.3H440.5z"/>
		<path class="st3" d="M443.4,322.4l0.5-0.7c0.5,0.6,1.1,0.8,2,0.8c1,0,2-0.5,2-1.8v-0.9c-0.4,0.6-1.2,1.1-2.1,1.1
			c-1.6,0-2.7-1.2-2.7-3.2c0-2,1.1-3.2,2.7-3.2c0.8,0,1.6,0.4,2.1,1.1v-0.9h1v6c0,2-1.4,2.7-2.9,2.7
			C444.8,323.3,444.1,323.1,443.4,322.4z M447.8,319v-2.7c-0.3-0.5-1.1-1-1.8-1c-1.2,0-2,1-2,2.3c0,1.4,0.7,2.3,2,2.3
			C446.8,320.1,447.5,319.6,447.8,319z"/>
	</g>
	<g>
		<path class="st3" d="M385,336.1l-0.8-1.9H380l-0.8,1.9H378l3.4-8.5h1.3l3.4,8.5H385z M382.1,328.7l-1.8,4.6h3.6L382.1,328.7z"/>
		<path class="st3" d="M386.9,333c0-1.8,1.2-3.2,3.1-3.2c1.1,0,1.8,0.5,2.3,1.1l-0.6,0.6c-0.4-0.6-0.9-0.8-1.6-0.8
			c-1.3,0-2.1,1-2.1,2.4s0.8,2.4,2.1,2.4c0.6,0,1.2-0.3,1.6-0.8l0.6,0.6c-0.5,0.6-1.1,1.1-2.3,1.1
			C388.1,336.3,386.9,334.9,386.9,333z"/>
		<path class="st3" d="M393.2,333c0-1.8,1.2-3.2,3.1-3.2c1.1,0,1.8,0.5,2.3,1.1l-0.6,0.6c-0.4-0.6-0.9-0.8-1.6-0.8
			c-1.3,0-2.1,1-2.1,2.4s0.8,2.4,2.1,2.4c0.6,0,1.2-0.3,1.6-0.8l0.6,0.6c-0.5,0.6-1.1,1.1-2.3,1.1
			C394.4,336.3,393.2,334.9,393.2,333z"/>
		<path class="st3" d="M399.9,336.1V330h1v1c0.5-0.6,1.2-1.1,2.1-1.1v1c-0.1,0-0.2,0-0.4,0c-0.6,0-1.4,0.5-1.7,1v4.4H399.9z"/>
		<path class="st3" d="M403.7,333c0-1.8,1.3-3.2,3-3.2c1.9,0,3,1.5,3,3.3v0.2h-5c0.1,1.2,0.9,2.1,2.2,2.1c0.7,0,1.4-0.3,1.9-0.8
			l0.5,0.6c-0.6,0.6-1.4,0.9-2.4,0.9C405,336.3,403.7,335,403.7,333z M406.7,330.6c-1.3,0-2,1.1-2,2.1h4
			C408.7,331.7,408.1,330.6,406.7,330.6z"/>
		<path class="st3" d="M411.4,334.8v-4h-1V330h1v-1.7h1v1.7h1.2v0.8h-1.2v3.8c0,0.5,0.2,0.8,0.6,0.8c0.3,0,0.5-0.1,0.6-0.3l0.3,0.7
			c-0.2,0.2-0.6,0.4-1.1,0.4C411.9,336.3,411.4,335.7,411.4,334.8z"/>
		<path class="st3" d="M414.8,328.4c0-0.4,0.3-0.7,0.6-0.7c0.4,0,0.7,0.3,0.7,0.7c0,0.4-0.3,0.6-0.7,0.6
			C415.1,329.1,414.8,328.8,414.8,328.4z M415,336.1V330h1v6.2H415z"/>
		<path class="st3" d="M419.5,336.1l-2.6-6.2h1l2.1,5l2-5h1l-2.6,6.2H419.5z"/>
		<path class="st3" d="M423.7,333c0-1.8,1.3-3.2,3-3.2c1.9,0,3,1.5,3,3.3v0.2h-5c0.1,1.2,0.9,2.1,2.2,2.1c0.7,0,1.4-0.3,1.9-0.8
			l0.5,0.6c-0.6,0.6-1.4,0.9-2.4,0.9C425,336.3,423.7,335,423.7,333z M426.8,330.6c-1.3,0-2,1.1-2,2.1h4
			C428.8,331.7,428.2,330.6,426.8,330.6z"/>
		<path class="st3" d="M437.1,336.1l-3.4-8.5h1.2l2.9,7.3l2.9-7.3h1.2l-3.4,8.5H437.1z"/>
		<path class="st3" d="M446,336.1v-0.7c-0.5,0.6-1.2,0.9-2,0.9c-1,0-2.2-0.7-2.2-2c0-1.4,1.1-2,2.2-2c0.8,0,1.5,0.3,2,0.8v-1.1
			c0-0.8-0.7-1.3-1.6-1.3c-0.7,0-1.3,0.3-1.9,0.9l-0.4-0.7c0.7-0.7,1.5-1,2.5-1c1.3,0,2.4,0.6,2.4,2.1v4.2H446z M446,334.8v-1.2
			c-0.4-0.5-1-0.8-1.7-0.8c-0.9,0-1.5,0.6-1.5,1.4c0,0.8,0.6,1.3,1.5,1.3C445,335.6,445.6,335.3,446,334.8z"/>
		<path class="st3" d="M448.8,336.1v-8.5h1v8.5H448.8z"/>
		<path class="st3" d="M455.9,336.1v-0.9c-0.5,0.5-1.3,1-2.2,1c-1.3,0-2-0.6-2-2V330h1v4.1c0,1.1,0.5,1.4,1.4,1.4
			c0.8,0,1.5-0.4,1.8-0.9V330h1v6.2H455.9z"/>
		<path class="st3" d="M458.4,333c0-1.8,1.3-3.2,3-3.2c1.9,0,3,1.5,3,3.3v0.2h-5c0.1,1.2,0.9,2.1,2.2,2.1c0.7,0,1.4-0.3,1.9-0.8
			l0.5,0.6c-0.6,0.6-1.4,0.9-2.4,0.9C459.7,336.3,458.4,335,458.4,333z M461.4,330.6c-1.3,0-2,1.1-2,2.1h4
			C463.4,331.7,462.8,330.6,461.4,330.6z"/>
	</g>
	<g>
		<path class="st3" d="M266.6,426.3c0-2.6,1.9-4.4,4.4-4.4c1.5,0,2.5,0.7,3.2,1.7l-0.9,0.5c-0.5-0.7-1.4-1.2-2.3-1.2
			c-1.9,0-3.3,1.4-3.3,3.5c0,2,1.4,3.5,3.3,3.5c1,0,1.8-0.5,2.3-1.2l0.9,0.5c-0.7,1-1.7,1.7-3.2,1.7
			C268.6,430.7,266.6,428.9,266.6,426.3z"/>
		<path class="st3" d="M275.2,427.5c0-1.8,1.2-3.2,3-3.2c1.9,0,3,1.4,3,3.2c0,1.8-1.2,3.2-3,3.2
			C276.4,430.7,275.2,429.2,275.2,427.5z M280.3,427.5c0-1.2-0.7-2.4-2-2.4c-1.3,0-2.1,1.1-2.1,2.4c0,1.3,0.7,2.4,2.1,2.4
			C279.6,429.8,280.3,428.7,280.3,427.5z"/>
		<path class="st3" d="M287,430.5v-4c0-1.1-0.5-1.4-1.4-1.4c-0.8,0-1.5,0.5-1.8,1v4.5h-1v-6.2h1v0.9c0.4-0.5,1.3-1,2.2-1
			c1.3,0,2,0.6,2,2v4.3H287z"/>
		<path class="st3" d="M290,429.3v-4h-1v-0.8h1v-1.7h1v1.7h1.2v0.8H291v3.8c0,0.5,0.2,0.8,0.6,0.8c0.3,0,0.5-0.1,0.6-0.3l0.3,0.7
			c-0.2,0.2-0.6,0.4-1.1,0.4C290.5,430.7,290,430.2,290,429.3z"/>
		<path class="st3" d="M293.4,422.9c0-0.4,0.3-0.7,0.6-0.7c0.4,0,0.7,0.3,0.7,0.7c0,0.4-0.3,0.6-0.7,0.6
			C293.7,423.5,293.4,423.2,293.4,422.9z M293.6,430.5v-6.2h1v6.2H293.6z"/>
		<path class="st3" d="M300.6,430.5v-4c0-1.1-0.5-1.4-1.4-1.4c-0.8,0-1.5,0.5-1.8,1v4.5h-1v-6.2h1v0.9c0.4-0.5,1.3-1,2.2-1
			c1.3,0,2,0.6,2,2v4.3H300.6z"/>
		<path class="st3" d="M307.6,430.5v-0.9c-0.5,0.5-1.3,1-2.2,1c-1.3,0-2-0.6-2-2v-4.3h1v4.1c0,1.1,0.5,1.4,1.4,1.4
			c0.8,0,1.5-0.4,1.8-0.9v-4.5h1v6.2H307.6z"/>
		<path class="st3" d="M314.4,430.5v-0.7c-0.5,0.6-1.2,0.9-2,0.9c-1,0-2.2-0.7-2.2-2c0-1.4,1.1-2,2.2-2c0.8,0,1.5,0.3,2,0.8v-1.1
			c0-0.8-0.7-1.3-1.6-1.3c-0.7,0-1.3,0.3-1.9,0.9l-0.4-0.7c0.7-0.7,1.5-1,2.5-1c1.3,0,2.4,0.6,2.4,2.1v4.2H314.4z M314.4,429.2v-1.2
			c-0.4-0.5-1-0.8-1.7-0.8c-0.9,0-1.5,0.6-1.5,1.4c0,0.8,0.6,1.3,1.5,1.3C313.3,430,314,429.8,314.4,429.2z"/>
		<path class="st3" d="M317.2,430.5v-8.5h1v8.5H317.2z"/>
		<path class="st3" d="M323.4,430.5v-8.5h5.6v0.9h-4.5v2.7h4.4v0.9h-4.4v2.9h4.5v0.9H323.4z"/>
		<path class="st3" d="M334.6,430.5l-1.8-2.5l-1.8,2.5h-1.1l2.4-3.2l-2.2-3h1.1l1.7,2.3l1.7-2.3h1.1l-2.2,3l2.4,3.2H334.6z"/>
		<path class="st3" d="M337.8,429.6v3.3h-1v-8.5h1v0.9c0.4-0.6,1.2-1.1,2.1-1.1c1.6,0,2.7,1.2,2.7,3.2c0,2-1.1,3.2-2.7,3.2
			C339,430.7,338.3,430.3,337.8,429.6z M341.6,427.5c0-1.4-0.7-2.4-2-2.4c-0.8,0-1.5,0.4-1.8,1v2.8c0.3,0.5,1.1,1,1.8,1
			C340.8,429.8,341.6,428.8,341.6,427.5z"/>
		<path class="st3" d="M348,430.5v-0.7c-0.5,0.6-1.2,0.9-2,0.9c-1,0-2.2-0.7-2.2-2c0-1.4,1.1-2,2.2-2c0.8,0,1.5,0.3,2,0.8v-1.1
			c0-0.8-0.7-1.3-1.6-1.3c-0.7,0-1.3,0.3-1.9,0.9l-0.4-0.7c0.7-0.7,1.5-1,2.5-1c1.3,0,2.4,0.6,2.4,2.1v4.2H348z M348,429.2v-1.2
			c-0.4-0.5-1-0.8-1.7-0.8c-0.9,0-1.5,0.6-1.5,1.4c0,0.8,0.6,1.3,1.5,1.3C346.9,430,347.6,429.8,348,429.2z"/>
		<path class="st3" d="M355,430.5v-4c0-1.1-0.5-1.4-1.4-1.4c-0.8,0-1.5,0.5-1.8,1v4.5h-1v-6.2h1v0.9c0.4-0.5,1.3-1,2.2-1
			c1.3,0,2,0.6,2,2v4.3H355z"/>
		<path class="st3" d="M357.3,429.7l0.5-0.7c0.4,0.5,1.2,0.9,2,0.9c0.9,0,1.5-0.4,1.5-1.1c0-1.5-3.8-0.6-3.8-2.9
			c0-1,0.8-1.8,2.3-1.8c1,0,1.8,0.4,2.3,0.9l-0.4,0.7c-0.4-0.4-1-0.8-1.8-0.8c-0.8,0-1.4,0.4-1.4,1c0,1.4,3.8,0.5,3.8,2.9
			c0,1-0.8,1.9-2.4,1.9C358.8,430.7,357.9,430.4,357.3,429.7z"/>
		<path class="st3" d="M363.6,422.9c0-0.4,0.3-0.7,0.6-0.7c0.4,0,0.7,0.3,0.7,0.7c0,0.4-0.3,0.6-0.7,0.6
			C363.9,423.5,363.6,423.2,363.6,422.9z M363.8,430.5v-6.2h1v6.2H363.8z"/>
		<path class="st3" d="M366.3,427.5c0-1.8,1.2-3.2,3-3.2c1.9,0,3,1.4,3,3.2c0,1.8-1.2,3.2-3,3.2
			C367.5,430.7,366.3,429.2,366.3,427.5z M371.4,427.5c0-1.2-0.7-2.4-2-2.4c-1.3,0-2.1,1.1-2.1,2.4c0,1.3,0.7,2.4,2.1,2.4
			C370.6,429.8,371.4,428.7,371.4,427.5z"/>
		<path class="st3" d="M378.1,430.5v-4c0-1.1-0.5-1.4-1.4-1.4c-0.8,0-1.5,0.5-1.8,1v4.5h-1v-6.2h1v0.9c0.4-0.5,1.3-1,2.2-1
			c1.3,0,2,0.6,2,2v4.3H378.1z"/>
	</g>
	<g>
		<path class="st3" d="M303.4,445.8c-0.3-0.2-0.6-0.5-0.9-0.9c-0.6,0.6-1.4,1-2.4,1c-1.5,0-2.6-0.8-2.6-2.4c0-1.3,0.9-2,1.9-2.5
			c-0.4-0.7-0.7-1.3-0.7-1.9c0-1.1,0.9-2,2.1-2c1.1,0,1.9,0.6,1.9,1.7c0,1.3-1.1,1.8-2.2,2.4c0.3,0.5,0.7,0.9,1,1.2
			c0.3,0.4,0.7,0.8,1,1.1c0.5-0.7,0.8-1.5,0.9-1.9l0.8,0.4c-0.3,0.7-0.6,1.5-1.2,2.2c0.5,0.5,1,1,1.7,1.6H303.4z M301.9,444.4
			c-0.5-0.5-0.9-1-1.2-1.3c-0.4-0.4-0.7-0.9-1.1-1.4c-0.7,0.4-1.2,1-1.2,1.8c0,1.1,0.8,1.6,1.7,1.6
			C300.8,445.2,301.4,444.8,301.9,444.4z M300.1,440.7c0.9-0.4,1.7-0.9,1.7-1.7c0-0.6-0.4-1-1-1c-0.6,0-1.2,0.5-1.2,1.2
			C299.6,439.6,299.8,440.2,300.1,440.7z"/>
		<path class="st3" d="M309,441.6c0-2.6,2-4.4,4.4-4.4c1.5,0,2.5,0.7,3.3,1.6l-0.8,0.5c-0.5-0.7-1.4-1.2-2.5-1.2
			c-1.9,0-3.3,1.4-3.3,3.5c0,2,1.4,3.5,3.3,3.5c1,0,1.9-0.5,2.3-0.9v-1.7h-2.9v-0.9h4v3.1c-0.8,0.9-1.9,1.5-3.3,1.5
			C311,446,309,444.2,309,441.6z"/>
		<path class="st3" d="M318.4,445.8v-6.2h1v1c0.5-0.6,1.2-1.1,2.1-1.1v1c-0.1,0-0.2,0-0.4,0c-0.6,0-1.4,0.5-1.7,1v4.4H318.4z"/>
		<path class="st3" d="M322.3,442.8c0-1.8,1.2-3.2,3-3.2c1.9,0,3,1.4,3,3.2c0,1.8-1.2,3.2-3,3.2C323.4,446,322.3,444.5,322.3,442.8z
			 M327.3,442.8c0-1.2-0.7-2.4-2-2.4c-1.3,0-2.1,1.1-2.1,2.4c0,1.3,0.7,2.4,2.1,2.4C326.6,445.1,327.3,444,327.3,442.8z"/>
		<path class="st3" d="M335.2,445.8l-1.6-4.9l-1.6,4.9h-1l-2-6.2h1l1.5,4.9l1.6-4.9h0.8l1.6,4.9l1.5-4.9h1l-2,6.2H335.2z"/>
		<path class="st3" d="M339.4,444.6v-4h-1v-0.8h1V438h1v1.7h1.2v0.8h-1.2v3.8c0,0.5,0.2,0.8,0.6,0.8c0.3,0,0.5-0.1,0.6-0.3l0.3,0.7
			c-0.2,0.2-0.6,0.4-1.1,0.4C339.9,446,339.4,445.5,339.4,444.6z"/>
		<path class="st3" d="M347.2,445.8v-4.1c0-1.1-0.6-1.4-1.4-1.4c-0.7,0-1.5,0.5-1.8,1v4.5h-1v-8.5h1v3.2c0.4-0.5,1.3-1,2.2-1
			c1.3,0,2,0.6,2,2v4.3H347.2z"/>
	</g>
	<g>
		<path class="st3" d="M138.4,430.5v-8.5h3.4c1.7,0,2.7,1.2,2.7,2.6s-1,2.6-2.7,2.6h-2.4v3.4H138.4z M143.4,424.6
			c0-1-0.7-1.6-1.7-1.6h-2.2v3.2h2.2C142.7,426.2,143.4,425.6,143.4,424.6z"/>
		<path class="st3" d="M145.9,430.5v-6.2h1v1c0.5-0.6,1.2-1.1,2.1-1.1v1c-0.1,0-0.2,0-0.4,0c-0.6,0-1.4,0.5-1.7,1v4.4H145.9z"/>
		<path class="st3" d="M154.2,430.5v-0.9c-0.5,0.5-1.3,1-2.2,1c-1.3,0-2-0.6-2-2v-4.3h1v4.1c0,1.1,0.5,1.4,1.4,1.4
			c0.8,0,1.5-0.4,1.8-0.9v-4.5h1v6.2H154.2z"/>
		<path class="st3" d="M161.6,430.5v-0.9c-0.5,0.6-1.2,1.1-2.1,1.1c-1.6,0-2.7-1.2-2.7-3.2c0-2,1.1-3.2,2.7-3.2
			c0.8,0,1.6,0.4,2.1,1.1v-3.3h1v8.5H161.6z M161.6,428.9v-2.8c-0.3-0.5-1.1-1-1.8-1c-1.2,0-2,1-2,2.4s0.7,2.4,2,2.4
			C160.5,429.8,161.2,429.4,161.6,428.9z"/>
		<path class="st3" d="M164.1,427.5c0-1.8,1.3-3.2,3-3.2c1.9,0,3,1.5,3,3.3v0.2h-5c0.1,1.2,0.9,2.1,2.2,2.1c0.7,0,1.4-0.3,1.9-0.8
			l0.5,0.6c-0.6,0.6-1.4,0.9-2.4,0.9C165.4,430.7,164.1,429.4,164.1,427.5z M167.1,425c-1.3,0-2,1.1-2,2.1h4
			C169.1,426.2,168.5,425,167.1,425z"/>
		<path class="st3" d="M175.7,430.5v-4c0-1.1-0.5-1.4-1.4-1.4c-0.8,0-1.5,0.5-1.8,1v4.5h-1v-6.2h1v0.9c0.4-0.5,1.3-1,2.2-1
			c1.3,0,2,0.6,2,2v4.3H175.7z"/>
		<path class="st3" d="M178.8,429.3v-4h-1v-0.8h1v-1.7h1v1.7h1.2v0.8h-1.2v3.8c0,0.5,0.2,0.8,0.6,0.8c0.3,0,0.5-0.1,0.6-0.3l0.3,0.7
			c-0.2,0.2-0.6,0.4-1.1,0.4C179.3,430.7,178.8,430.2,178.8,429.3z"/>
		<path class="st3" d="M185.3,426.3c0-2.6,1.9-4.4,4.4-4.4c1.5,0,2.5,0.7,3.2,1.7l-0.9,0.5c-0.5-0.7-1.4-1.2-2.3-1.2
			c-1.9,0-3.3,1.4-3.3,3.5c0,2,1.4,3.5,3.3,3.5c1,0,1.8-0.5,2.3-1.2l0.9,0.5c-0.7,1-1.7,1.7-3.2,1.7
			C187.3,430.7,185.3,428.9,185.3,426.3z"/>
		<path class="st3" d="M193.9,427.5c0-1.8,1.2-3.2,3-3.2s3,1.4,3,3.2c0,1.8-1.2,3.2-3,3.2S193.9,429.2,193.9,427.5z M199,427.5
			c0-1.2-0.7-2.4-2-2.4c-1.3,0-2.1,1.1-2.1,2.4c0,1.3,0.7,2.4,2.1,2.4C198.3,429.8,199,428.7,199,427.5z"/>
		<path class="st3" d="M201,429.7l0.5-0.7c0.4,0.5,1.2,0.9,2,0.9c0.9,0,1.5-0.4,1.5-1.1c0-1.5-3.8-0.6-3.8-2.9c0-1,0.8-1.8,2.3-1.8
			c1,0,1.8,0.4,2.3,0.9l-0.4,0.7c-0.4-0.4-1-0.8-1.8-0.8c-0.8,0-1.4,0.4-1.4,1c0,1.4,3.8,0.5,3.8,2.9c0,1-0.8,1.9-2.4,1.9
			C202.5,430.7,201.6,430.4,201,429.7z"/>
		<path class="st3" d="M207.7,429.3v-4h-1v-0.8h1v-1.7h1v1.7h1.2v0.8h-1.2v3.8c0,0.5,0.2,0.8,0.6,0.8c0.3,0,0.5-0.1,0.6-0.3l0.3,0.7
			c-0.2,0.2-0.6,0.4-1.1,0.4C208.1,430.7,207.7,430.2,207.7,429.3z"/>
	</g>
	<g>
		<path class="st3" d="M145.4,445.8v-7l-2.9,7H142l-2.9-7v7h-1.1v-8.5h1.5l2.6,6.4l2.6-6.4h1.5v8.5H145.4z"/>
		<path class="st3" d="M152.2,445.8v-0.7c-0.5,0.6-1.2,0.9-2,0.9c-1,0-2.2-0.7-2.2-2c0-1.4,1.1-2,2.2-2c0.8,0,1.5,0.3,2,0.8v-1.1
			c0-0.8-0.7-1.3-1.6-1.3c-0.7,0-1.3,0.3-1.9,0.9l-0.4-0.7c0.7-0.7,1.5-1,2.5-1c1.3,0,2.4,0.6,2.4,2.1v4.2H152.2z M152.2,444.5v-1.2
			c-0.4-0.5-1-0.8-1.7-0.8c-0.9,0-1.5,0.6-1.5,1.4c0,0.8,0.6,1.3,1.5,1.3C151.2,445.3,151.8,445,152.2,444.5z"/>
		<path class="st3" d="M159.2,445.8v-4c0-1.1-0.5-1.4-1.4-1.4c-0.8,0-1.5,0.5-1.8,1v4.5h-1v-6.2h1v0.9c0.4-0.5,1.3-1,2.2-1
			c1.3,0,2,0.6,2,2v4.3H159.2z"/>
		<path class="st3" d="M165.9,445.8v-0.7c-0.5,0.6-1.2,0.9-2,0.9c-1,0-2.2-0.7-2.2-2c0-1.4,1.1-2,2.2-2c0.8,0,1.5,0.3,2,0.8v-1.1
			c0-0.8-0.7-1.3-1.6-1.3c-0.7,0-1.3,0.3-1.9,0.9l-0.4-0.7c0.7-0.7,1.5-1,2.5-1c1.3,0,2.4,0.6,2.4,2.1v4.2H165.9z M165.9,444.5v-1.2
			c-0.4-0.5-1-0.8-1.7-0.8c-0.9,0-1.5,0.6-1.5,1.4c0,0.8,0.6,1.3,1.5,1.3C164.9,445.3,165.6,445,165.9,444.5z"/>
		<path class="st3" d="M168.8,447.4l0.5-0.7c0.5,0.6,1.1,0.8,2,0.8c1,0,2-0.5,2-1.8v-0.9c-0.4,0.6-1.2,1.1-2.1,1.1
			c-1.6,0-2.7-1.2-2.7-3.2c0-2,1.1-3.2,2.7-3.2c0.8,0,1.6,0.4,2.1,1.1v-0.9h1v6c0,2-1.4,2.7-2.9,2.7
			C170.2,448.3,169.5,448.1,168.8,447.4z M173.3,444.1v-2.7c-0.3-0.5-1.1-1-1.8-1c-1.2,0-2,1-2,2.3c0,1.4,0.7,2.3,2,2.3
			C172.2,445.1,172.9,444.6,173.3,444.1z"/>
		<path class="st3" d="M175.8,442.8c0-1.8,1.3-3.2,3-3.2c1.9,0,3,1.5,3,3.3v0.2h-5c0.1,1.2,0.9,2.1,2.2,2.1c0.7,0,1.4-0.3,1.9-0.8
			l0.5,0.6c-0.6,0.6-1.4,0.9-2.4,0.9C177.1,446,175.8,444.7,175.8,442.8z M178.8,440.3c-1.3,0-2,1.1-2,2.1h4
			C180.8,441.5,180.2,440.3,178.8,440.3z"/>
		<path class="st3" d="M190.7,445.8v-4.2c0-0.8-0.3-1.3-1.1-1.3c-0.6,0-1.3,0.5-1.6,0.9v4.5h-1v-4.2c0-0.8-0.3-1.3-1.1-1.3
			c-0.6,0-1.3,0.5-1.6,1v4.5h-1v-6.2h1v0.9c0.3-0.4,1.1-1,2-1c0.9,0,1.5,0.5,1.7,1.1c0.3-0.6,1.2-1.1,2.1-1.1c1.1,0,1.7,0.6,1.7,1.9
			v4.4H190.7z"/>
		<path class="st3" d="M193.2,442.8c0-1.8,1.3-3.2,3-3.2c1.9,0,3,1.5,3,3.3v0.2h-5c0.1,1.2,0.9,2.1,2.2,2.1c0.7,0,1.4-0.3,1.9-0.8
			l0.5,0.6c-0.6,0.6-1.4,0.9-2.4,0.9C194.6,446,193.2,444.7,193.2,442.8z M196.3,440.3c-1.3,0-2,1.1-2,2.1h4
			C198.3,441.5,197.7,440.3,196.3,440.3z"/>
		<path class="st3" d="M204.9,445.8v-4c0-1.1-0.5-1.4-1.4-1.4c-0.8,0-1.5,0.5-1.8,1v4.5h-1v-6.2h1v0.9c0.4-0.5,1.3-1,2.2-1
			c1.3,0,2,0.6,2,2v4.3H204.9z"/>
		<path class="st3" d="M208,444.6v-4h-1v-0.8h1V438h1v1.7h1.2v0.8h-1.2v3.8c0,0.5,0.2,0.8,0.6,0.8c0.3,0,0.5-0.1,0.6-0.3l0.3,0.7
			c-0.2,0.2-0.6,0.4-1.1,0.4C208.4,446,208,445.5,208,444.6z"/>
	</g>
	<g>
		<path class="st3" d="M30,313.1l0.6-0.8c0.6,0.6,1.5,1.2,2.7,1.2c1.5,0,2-0.8,2-1.5c0-2.2-5-1-5-4c0-1.4,1.2-2.4,2.9-2.4
			c1.3,0,2.3,0.4,3,1.2l-0.6,0.8c-0.6-0.7-1.5-1-2.5-1c-1,0-1.7,0.5-1.7,1.4c0,1.9,5,0.8,5,4c0,1.2-0.8,2.5-3.1,2.5
			C31.8,314.4,30.7,313.9,30,313.1z"/>
		<path class="st3" d="M42.1,314.3v-4.1c0-1.1-0.6-1.4-1.4-1.4c-0.7,0-1.5,0.5-1.8,1v4.5h-1v-8.5h1v3.2c0.4-0.5,1.3-1,2.2-1
			c1.3,0,2,0.6,2,2v4.3H42.1z"/>
		<path class="st3" d="M48.8,314.3v-0.7c-0.5,0.6-1.2,0.9-2,0.9c-1,0-2.2-0.7-2.2-2c0-1.4,1.1-2,2.2-2c0.8,0,1.5,0.3,2,0.8v-1.1
			c0-0.8-0.7-1.3-1.6-1.3c-0.7,0-1.3,0.3-1.9,0.9l-0.4-0.7c0.7-0.7,1.5-1,2.5-1c1.3,0,2.4,0.6,2.4,2.1v4.2H48.8z M48.8,313v-1.2
			c-0.4-0.5-1-0.8-1.7-0.8c-0.9,0-1.5,0.6-1.5,1.4c0,0.8,0.6,1.3,1.5,1.3C47.8,313.7,48.4,313.5,48.8,313z"/>
		<path class="st3" d="M51.7,314.3v-6.2h1v1c0.5-0.6,1.2-1.1,2.1-1.1v1c-0.1,0-0.2,0-0.4,0c-0.6,0-1.4,0.5-1.7,1v4.4H51.7z"/>
		<path class="st3" d="M56.8,313.4v3.3h-1v-8.5h1v0.9c0.4-0.6,1.2-1.1,2.1-1.1c1.6,0,2.7,1.2,2.7,3.2c0,2-1.1,3.2-2.7,3.2
			C58.1,314.4,57.3,314,56.8,313.4z M60.6,311.2c0-1.4-0.7-2.4-2-2.4c-0.8,0-1.5,0.4-1.8,1v2.8c0.3,0.5,1.1,1,1.8,1
			C59.9,313.6,60.6,312.6,60.6,311.2z"/>
		<path class="st3" d="M66,313.1l0.6-0.8c0.6,0.6,1.5,1.2,2.7,1.2c1.5,0,2-0.8,2-1.5c0-2.2-5-1-5-4c0-1.4,1.2-2.4,2.9-2.4
			c1.3,0,2.3,0.4,3,1.2l-0.6,0.8c-0.6-0.7-1.5-1-2.5-1c-1,0-1.7,0.5-1.7,1.4c0,1.9,5,0.8,5,4c0,1.2-0.8,2.5-3.1,2.5
			C67.8,314.4,66.7,313.9,66,313.1z"/>
		<path class="st3" d="M78.1,314.3v-0.9c-0.5,0.5-1.3,1-2.2,1c-1.3,0-2-0.6-2-2v-4.3h1v4.1c0,1.1,0.5,1.4,1.4,1.4
			c0.8,0,1.5-0.4,1.8-0.9v-4.5h1v6.2H78.1z"/>
		<path class="st3" d="M80.4,313.5l0.5-0.7c0.4,0.5,1.2,0.9,2,0.9c0.9,0,1.5-0.4,1.5-1.1c0-1.5-3.8-0.6-3.8-2.9c0-1,0.8-1.8,2.3-1.8
			c1,0,1.8,0.4,2.3,0.9l-0.4,0.7c-0.4-0.4-1-0.8-1.8-0.8c-0.8,0-1.4,0.4-1.4,1c0,1.4,3.8,0.5,3.8,2.9c0,1-0.8,1.9-2.4,1.9
			C81.9,314.4,81,314.1,80.4,313.5z"/>
		<path class="st3" d="M87.1,313v-4h-1v-0.8h1v-1.7h1v1.7h1.2v0.8H88v3.8c0,0.5,0.2,0.8,0.6,0.8c0.3,0,0.5-0.1,0.6-0.3l0.3,0.7
			c-0.2,0.2-0.6,0.4-1.1,0.4C87.5,314.4,87.1,313.9,87.1,313z"/>
		<path class="st3" d="M94.5,314.3v-0.7c-0.5,0.6-1.2,0.9-2,0.9c-1,0-2.2-0.7-2.2-2c0-1.4,1.1-2,2.2-2c0.8,0,1.5,0.3,2,0.8v-1.1
			c0-0.8-0.7-1.3-1.6-1.3c-0.7,0-1.3,0.3-1.9,0.9l-0.4-0.7c0.7-0.7,1.5-1,2.5-1c1.3,0,2.4,0.6,2.4,2.1v4.2H94.5z M94.5,313v-1.2
			c-0.4-0.5-1-0.8-1.7-0.8c-0.9,0-1.5,0.6-1.5,1.4c0,0.8,0.6,1.3,1.5,1.3C93.4,313.7,94.1,313.5,94.5,313z"/>
		<path class="st3" d="M97.2,306.6c0-0.4,0.3-0.7,0.6-0.7c0.4,0,0.6,0.3,0.6,0.7c0,0.4-0.3,0.6-0.6,0.6
			C97.5,307.3,97.2,307,97.2,306.6z M97.3,314.3v-6.2h1v6.2H97.3z"/>
		<path class="st3" d="M104.3,314.3v-4c0-1.1-0.5-1.4-1.4-1.4c-0.8,0-1.5,0.5-1.8,1v4.5h-1v-6.2h1v0.9c0.4-0.5,1.3-1,2.2-1
			c1.3,0,2,0.6,2,2v4.3H104.3z"/>
		<path class="st3" d="M111.1,314.3v-0.7c-0.5,0.6-1.2,0.9-2,0.9c-1,0-2.2-0.7-2.2-2c0-1.4,1.1-2,2.2-2c0.8,0,1.5,0.3,2,0.8v-1.1
			c0-0.8-0.7-1.3-1.6-1.3c-0.7,0-1.3,0.3-1.9,0.9l-0.4-0.7c0.7-0.7,1.5-1,2.5-1c1.3,0,2.4,0.6,2.4,2.1v4.2H111.1z M111.1,313v-1.2
			c-0.4-0.5-1-0.8-1.7-0.8c-0.9,0-1.5,0.6-1.5,1.4c0,0.8,0.6,1.3,1.5,1.3C110,313.7,110.7,313.5,111.1,313z"/>
		<path class="st3" d="M113.9,314.3v-8.5h1v3.3c0.5-0.7,1.2-1.1,2.1-1.1c1.6,0,2.7,1.3,2.7,3.2c0,2-1.1,3.2-2.7,3.2
			c-0.9,0-1.6-0.4-2.1-1.1v0.9H113.9z M116.7,313.6c1.2,0,2-1,2-2.4s-0.7-2.4-2-2.4c-0.8,0-1.5,0.5-1.8,1v2.8
			C115.2,313.2,116,313.6,116.7,313.6z"/>
		<path class="st3" d="M121.1,306.6c0-0.4,0.3-0.7,0.6-0.7c0.4,0,0.6,0.3,0.6,0.7c0,0.4-0.3,0.6-0.6,0.6
			C121.4,307.3,121.1,307,121.1,306.6z M121.3,314.3v-6.2h1v6.2H121.3z"/>
		<path class="st3" d="M124.1,314.3v-8.5h1v8.5H124.1z"/>
		<path class="st3" d="M126.8,306.6c0-0.4,0.3-0.7,0.6-0.7c0.4,0,0.6,0.3,0.6,0.7c0,0.4-0.3,0.6-0.6,0.6
			C127.1,307.3,126.8,307,126.8,306.6z M127,314.3v-6.2h1v6.2H127z"/>
		<path class="st3" d="M130,313v-4h-1v-0.8h1v-1.7h1v1.7h1.2v0.8H131v3.8c0,0.5,0.2,0.8,0.6,0.8c0.3,0,0.5-0.1,0.6-0.3l0.3,0.7
			c-0.2,0.2-0.6,0.4-1.1,0.4C130.5,314.4,130,313.9,130,313z"/>
		<path class="st3" d="M133.4,315.8c0.1,0.1,0.4,0.1,0.5,0.1c0.4,0,0.7-0.1,0.9-0.6l0.4-0.9l-2.6-6.2h1l2.1,5l2-5h1l-3.1,7.4
			c-0.4,0.9-1,1.2-1.8,1.2c-0.2,0-0.5,0-0.7-0.1L133.4,315.8z"/>
	</g>
	<g>
		<path class="st3" d="M68.4,329.6v-8.5H74v0.9h-4.5v2.7h4.4v0.9h-4.4v3.9H68.4z"/>
		<path class="st3" d="M75,326.5c0-1.8,1.2-3.2,3-3.2s3,1.4,3,3.2c0,1.8-1.2,3.2-3,3.2S75,328.3,75,326.5z M80.1,326.5
			c0-1.2-0.7-2.4-2-2.4c-1.3,0-2.1,1.1-2.1,2.4c0,1.3,0.7,2.4,2.1,2.4C79.4,328.9,80.1,327.8,80.1,326.5z"/>
		<path class="st3" d="M82.3,326.5c0-1.8,1.2-3.2,3.1-3.2c1.1,0,1.8,0.5,2.3,1.1l-0.6,0.6c-0.4-0.6-0.9-0.8-1.6-0.8
			c-1.3,0-2.1,1-2.1,2.4s0.8,2.4,2.1,2.4c0.6,0,1.2-0.3,1.6-0.8l0.6,0.6c-0.5,0.6-1.1,1.1-2.3,1.1C83.6,329.7,82.3,328.3,82.3,326.5
			z"/>
		<path class="st3" d="M93.1,329.6v-0.9c-0.5,0.5-1.3,1-2.2,1c-1.3,0-2-0.6-2-2v-4.3h1v4.1c0,1.1,0.5,1.4,1.4,1.4
			c0.8,0,1.5-0.4,1.8-0.9v-4.5h1v6.2H93.1z"/>
		<path class="st3" d="M95.5,328.8l0.5-0.7c0.4,0.5,1.2,0.9,2,0.9c0.9,0,1.5-0.4,1.5-1.1c0-1.5-3.8-0.6-3.8-2.9c0-1,0.8-1.8,2.3-1.8
			c1,0,1.8,0.4,2.3,0.9l-0.4,0.7c-0.4-0.4-1-0.8-1.8-0.8c-0.8,0-1.4,0.4-1.4,1c0,1.4,3.8,0.5,3.8,2.9c0,1-0.8,1.9-2.4,1.9
			C97,329.7,96.1,329.4,95.5,328.8z"/>
	</g>
	<g>
		<path class="st3" d="M87.7,161.3v-8.5h5.6v0.9h-4.5v2.7h4.4v0.9h-4.4v2.9h4.5v0.9H87.7z"/>
		<path class="st3" d="M98.9,161.3l-1.8-2.5l-1.8,2.5h-1.1l2.4-3.2l-2.2-3h1.1l1.7,2.3l1.7-2.3h1.1l-2.2,3l2.4,3.2H98.9z"/>
		<path class="st3" d="M100.4,158.2c0-1.8,1.3-3.2,3-3.2c1.9,0,3,1.5,3,3.3v0.2h-5c0.1,1.2,0.9,2.1,2.2,2.1c0.7,0,1.4-0.3,1.9-0.8
			l0.5,0.6c-0.6,0.6-1.4,0.9-2.4,0.9C101.7,161.4,100.4,160.1,100.4,158.2z M103.4,155.8c-1.3,0-2,1.1-2,2.1h4
			C105.4,156.9,104.8,155.8,103.4,155.8z"/>
		<path class="st3" d="M115.4,161.3v-4.2c0-0.8-0.3-1.3-1.1-1.3c-0.6,0-1.3,0.5-1.6,0.9v4.5h-1v-4.2c0-0.8-0.3-1.3-1.1-1.3
			c-0.6,0-1.3,0.5-1.6,1v4.5h-1v-6.2h1v0.9c0.3-0.4,1.1-1,2-1c0.9,0,1.5,0.5,1.7,1.1c0.3-0.6,1.2-1.1,2.1-1.1c1.1,0,1.7,0.6,1.7,1.9
			v4.4H115.4z"/>
		<path class="st3" d="M119.2,160.4v3.3h-1v-8.5h1v0.9c0.4-0.6,1.2-1.1,2.1-1.1c1.6,0,2.7,1.2,2.7,3.2c0,2-1.1,3.2-2.7,3.2
			C120.4,161.4,119.7,161,119.2,160.4z M123,158.2c0-1.4-0.7-2.4-2-2.4c-0.8,0-1.5,0.4-1.8,1v2.8c0.3,0.5,1.1,1,1.8,1
			C122.2,160.6,123,159.6,123,158.2z"/>
		<path class="st3" d="M125.5,161.3v-8.5h1v8.5H125.5z"/>
		<path class="st3" d="M132.2,161.3v-0.7c-0.5,0.6-1.2,0.9-2,0.9c-1,0-2.2-0.7-2.2-2c0-1.4,1.1-2,2.2-2c0.8,0,1.5,0.3,2,0.8v-1.1
			c0-0.8-0.7-1.3-1.6-1.3c-0.7,0-1.3,0.3-1.9,0.9l-0.4-0.7c0.7-0.7,1.5-1,2.5-1c1.3,0,2.4,0.6,2.4,2.1v4.2H132.2z M132.2,160v-1.2
			c-0.4-0.5-1-0.8-1.7-0.8c-0.9,0-1.5,0.6-1.5,1.4c0,0.8,0.6,1.3,1.5,1.3C131.2,160.8,131.9,160.5,132.2,160z"/>
		<path class="st3" d="M135.1,161.3v-6.2h1v1c0.5-0.6,1.2-1.1,2.1-1.1v1c-0.1,0-0.2,0-0.4,0c-0.6,0-1.4,0.5-1.7,1v4.4H135.1z"/>
		<path class="st3" d="M139.1,162.8c0.1,0.1,0.4,0.1,0.5,0.1c0.4,0,0.7-0.1,0.9-0.6l0.4-0.9l-2.6-6.2h1l2.1,5l2-5h1l-3.1,7.4
			c-0.4,0.9-1,1.2-1.8,1.2c-0.2,0-0.5,0-0.7-0.1L139.1,162.8z"/>
	</g>
	<g>
		<path class="st3" d="M60.9,172.3c0-2.6,1.9-4.4,4.4-4.4c1.5,0,2.5,0.7,3.2,1.7l-0.9,0.5c-0.5-0.7-1.4-1.2-2.3-1.2
			c-1.9,0-3.3,1.4-3.3,3.5c0,2,1.4,3.5,3.3,3.5c1,0,1.8-0.5,2.3-1.2l0.9,0.5c-0.7,1-1.7,1.7-3.2,1.7
			C62.8,176.7,60.9,174.9,60.9,172.3z"/>
		<path class="st3" d="M74,176.6v-0.9c-0.5,0.5-1.3,1-2.2,1c-1.3,0-2-0.6-2-2v-4.3h1v4.1c0,1.1,0.5,1.4,1.4,1.4
			c0.8,0,1.5-0.4,1.8-0.9v-4.5h1v6.2H74z"/>
		<path class="st3" d="M76.3,175.8l0.5-0.7c0.4,0.5,1.2,0.9,2,0.9c0.9,0,1.5-0.4,1.5-1.1c0-1.5-3.8-0.6-3.8-2.9c0-1,0.8-1.8,2.3-1.8
			c1,0,1.8,0.4,2.3,0.9l-0.4,0.7c-0.4-0.4-1-0.8-1.8-0.8c-0.8,0-1.4,0.4-1.4,1c0,1.4,3.8,0.5,3.8,2.9c0,1-0.8,1.9-2.4,1.9
			C77.8,176.7,76.9,176.4,76.3,175.8z"/>
		<path class="st3" d="M83,175.3v-4h-1v-0.8h1v-1.7h1v1.7h1.2v0.8h-1.2v3.8c0,0.5,0.2,0.8,0.6,0.8c0.3,0,0.5-0.1,0.6-0.3l0.3,0.7
			c-0.2,0.2-0.6,0.4-1.1,0.4C83.4,176.7,83,176.2,83,175.3z"/>
		<path class="st3" d="M86.1,173.5c0-1.8,1.2-3.2,3-3.2s3,1.4,3,3.2s-1.2,3.2-3,3.2S86.1,175.3,86.1,173.5z M91.2,173.5
			c0-1.2-0.7-2.4-2-2.4c-1.3,0-2.1,1.1-2.1,2.4c0,1.3,0.7,2.4,2.1,2.4C90.5,175.9,91.2,174.8,91.2,173.5z"/>
		<path class="st3" d="M101.2,176.6v-4.2c0-0.8-0.3-1.3-1.1-1.3c-0.6,0-1.3,0.5-1.6,0.9v4.5h-1v-4.2c0-0.8-0.3-1.3-1.1-1.3
			c-0.6,0-1.3,0.5-1.6,1v4.5h-1v-6.2h1v0.9c0.3-0.4,1.1-1,2-1c0.9,0,1.5,0.5,1.7,1.1c0.3-0.6,1.2-1.1,2.1-1.1c1.1,0,1.7,0.6,1.7,1.9
			v4.4H101.2z"/>
		<path class="st3" d="M103.7,173.5c0-1.8,1.3-3.2,3-3.2c1.9,0,3,1.5,3,3.3v0.2h-5c0.1,1.2,0.9,2.1,2.2,2.1c0.7,0,1.4-0.3,1.9-0.8
			l0.5,0.6c-0.6,0.6-1.4,0.9-2.4,0.9C105,176.7,103.7,175.4,103.7,173.5z M106.8,171.1c-1.3,0-2,1.1-2,2.1h4
			C108.8,172.2,108.2,171.1,106.8,171.1z"/>
		<path class="st3" d="M111.3,176.6v-6.2h1v1c0.5-0.6,1.2-1.1,2.1-1.1v1c-0.1,0-0.2,0-0.4,0c-0.6,0-1.4,0.5-1.7,1v4.4H111.3z"/>
		<path class="st3" d="M114.9,173.9v-0.8h3.1v0.8H114.9z"/>
		<path class="st3" d="M119,172.3c0-2.6,1.9-4.4,4.4-4.4c1.5,0,2.5,0.7,3.2,1.7l-0.9,0.5c-0.5-0.7-1.4-1.2-2.3-1.2
			c-1.9,0-3.3,1.4-3.3,3.5c0,2,1.4,3.5,3.3,3.5c1,0,1.8-0.5,2.3-1.2l0.9,0.5c-0.7,1-1.7,1.7-3.2,1.7
			C120.9,176.7,119,174.9,119,172.3z"/>
		<path class="st3" d="M127.5,173.5c0-1.8,1.3-3.2,3-3.2c1.9,0,3,1.5,3,3.3v0.2h-5c0.1,1.2,0.9,2.1,2.2,2.1c0.7,0,1.4-0.3,1.9-0.8
			l0.5,0.6c-0.6,0.6-1.4,0.9-2.4,0.9C128.9,176.7,127.5,175.4,127.5,173.5z M130.6,171.1c-1.3,0-2,1.1-2,2.1h4
			C132.6,172.2,132,171.1,130.6,171.1z"/>
		<path class="st3" d="M139.2,176.6v-4c0-1.1-0.5-1.4-1.4-1.4c-0.8,0-1.5,0.5-1.8,1v4.5h-1v-6.2h1v0.9c0.4-0.5,1.3-1,2.2-1
			c1.3,0,2,0.6,2,2v4.3H139.2z"/>
		<path class="st3" d="M142.3,175.3v-4h-1v-0.8h1v-1.7h1v1.7h1.2v0.8h-1.2v3.8c0,0.5,0.2,0.8,0.6,0.8c0.3,0,0.5-0.1,0.6-0.3l0.3,0.7
			c-0.2,0.2-0.6,0.4-1.1,0.4C142.7,176.7,142.3,176.2,142.3,175.3z"/>
		<path class="st3" d="M145.8,176.6v-6.2h1v1c0.5-0.6,1.2-1.1,2.1-1.1v1c-0.1,0-0.2,0-0.4,0c-0.6,0-1.4,0.5-1.7,1v4.4H145.8z"/>
		<path class="st3" d="M149.9,168.9c0-0.4,0.3-0.6,0.6-0.6c0.4,0,0.6,0.3,0.6,0.6c0,0.4-0.3,0.6-0.6,0.6
			C150.2,169.5,149.9,169.3,149.9,168.9z M150,176.6v-6.2h1v6.2H150z"/>
		<path class="st3" d="M152.6,173.5c0-1.8,1.2-3.2,3.1-3.2c1.1,0,1.8,0.5,2.3,1.1l-0.6,0.6c-0.4-0.6-0.9-0.8-1.6-0.8
			c-1.3,0-2.1,1-2.1,2.4s0.8,2.4,2.1,2.4c0.6,0,1.2-0.3,1.6-0.8l0.6,0.6c-0.5,0.6-1.1,1.1-2.3,1.1
			C153.8,176.7,152.6,175.3,152.6,173.5z"/>
		<path class="st3" d="M159.1,168.9c0-0.4,0.3-0.6,0.6-0.6c0.4,0,0.6,0.3,0.6,0.6c0,0.4-0.3,0.6-0.6,0.6
			C159.3,169.5,159.1,169.3,159.1,168.9z M159.2,176.6v-6.2h1v6.2H159.2z"/>
		<path class="st3" d="M162.3,175.3v-4h-1v-0.8h1v-1.7h1v1.7h1.2v0.8h-1.2v3.8c0,0.5,0.2,0.8,0.6,0.8c0.3,0,0.5-0.1,0.6-0.3l0.3,0.7
			c-0.2,0.2-0.6,0.4-1.1,0.4C162.7,176.7,162.3,176.2,162.3,175.3z"/>
		<path class="st3" d="M165.6,178.1c0.1,0.1,0.4,0.1,0.5,0.1c0.4,0,0.7-0.1,0.9-0.6l0.4-0.9l-2.6-6.2h1l2.1,5l2-5h1l-3.1,7.4
			c-0.4,0.9-1,1.2-1.8,1.2c-0.2,0-0.5,0-0.7-0.1L165.6,178.1z"/>
	</g>
	<path class="st0" d="M250,71c-3.8,0-6.9-3.1-6.9-6.9c0-3.8,3.1-6.9,6.9-6.9c3.8,0,6.9,3.1,6.9,6.9C256.9,67.9,253.8,71,250,71
		 M250,56.3c-2.1,0-4.1,0.8-5.6,2.3c-1.5,1.5-2.3,3.5-2.3,5.6c0,2.1,0.8,4.1,2.3,5.6c1.5,1.5,3.5,2.3,5.6,2.3c2.1,0,4.1-0.8,5.6-2.3
		c1.5-1.5,2.3-3.5,2.3-5.6c0-2.1-0.8-4.1-2.3-5.6C254.1,57.1,252.1,56.3,250,56.3"/>
	<path class="st4" d="M250,71c-3.8,0-6.9-3.1-6.9-6.9c0-3.8,3.1-6.9,6.9-6.9c3.8,0,6.9,3.1,6.9,6.9C256.9,67.9,253.8,71,250,71z
		 M250,56.3c-2.1,0-4.1,0.8-5.6,2.3c-1.5,1.5-2.3,3.5-2.3,5.6c0,2.1,0.8,4.1,2.3,5.6c1.5,1.5,3.5,2.3,5.6,2.3c2.1,0,4.1-0.8,5.6-2.3
		c1.5-1.5,2.3-3.5,2.3-5.6c0-2.1-0.8-4.1-2.3-5.6C254.1,57.1,252.1,56.3,250,56.3z"/>
	<path class="st0" d="M265,67.5c-0.4,1.7-1.1,3.4-2,4.8c-0.1,0.1-0.2,0.2-0.3,0.1l-0.9-0.4c-0.6-0.3-1.3-0.2-1.7,0.3l-1.9,1.9
		c-0.5,0.5-0.6,1.2-0.3,1.7l0.4,0.9c0.1,0.1,0,0.3-0.1,0.3c-1.5,0.9-3.1,1.6-4.8,2c-0.1,0-0.3,0-0.3-0.2l-0.3-1
		c-0.2-0.6-0.8-1-1.4-1h-2.7c-0.6,0-1.2,0.4-1.4,1l-0.3,1c0,0.1-0.2,0.2-0.3,0.2c-1.7-0.4-3.3-1.1-4.8-2c-0.1-0.1-0.2-0.2-0.1-0.3
		l0.4-0.9c0.3-0.6,0.2-1.3-0.3-1.7l-1.9-1.9c-0.3-0.3-0.7-0.4-1.1-0.4c-0.2,0-0.5,0.1-0.7,0.2l-0.9,0.4c-0.1,0.1-0.3,0-0.3-0.1
		c-0.9-1.5-1.6-3.1-2-4.8c0-0.1,0-0.3,0.2-0.3l0.9-0.3c0.6-0.2,1-0.8,1-1.4v-2.7c0-0.6-0.4-1.2-1-1.4l-0.9-0.3
		c-0.1,0-0.2-0.2-0.2-0.3c0.4-1.7,1.1-3.3,2-4.8c0.1-0.1,0.2-0.2,0.3-0.1l0.9,0.4c0.6,0.3,1.3,0.2,1.7-0.3l1.9-1.9
		c0.5-0.5,0.6-1.2,0.3-1.7l-0.4-0.9c-0.1-0.1,0-0.3,0.1-0.3c1.5-0.9,3.1-1.6,4.8-2c0.1,0,0.3,0,0.3,0.2l0.3,0.9c0.2,0.6,0.8,1,1.4,1
		h2.7c0.6,0,1.2-0.4,1.4-1l0.3-0.9c0-0.1,0.2-0.2,0.3-0.2c1.7,0.4,3.3,1.1,4.8,2c0.1,0.1,0.2,0.2,0.1,0.3l-0.4,0.9
		c-0.3,0.6-0.2,1.3,0.3,1.7L260,56c0.5,0.5,1.2,0.6,1.7,0.3l0.9-0.4c0.1-0.1,0.3,0,0.3,0.1c0.9,1.5,1.6,3.1,2,4.8
		c0,0.1,0,0.3-0.2,0.3l-0.9,0.3c-0.6,0.2-1,0.8-1,1.4v2.7c0,0.6,0.4,1.2,1,1.4l0.9,0.3C264.9,67.2,265,67.4,265,67.5L265,67.5z
		 M265.2,66.3l-0.9-0.3c-0.2-0.1-0.4-0.3-0.4-0.5v-2.7c0-0.2,0.1-0.4,0.4-0.5l0.9-0.3c0.6-0.2,1-0.8,0.8-1.5
		c-0.4-1.8-1.1-3.6-2.1-5.1c-0.3-0.5-1-0.7-1.6-0.5l-0.9,0.4c-0.2,0.1-0.4,0.1-0.6-0.1l-1.9-1.9c-0.2-0.2-0.2-0.4-0.1-0.6l0.4-0.9
		c0.3-0.6,0.1-1.3-0.5-1.6c-1.6-1-3.3-1.7-5.2-2.1c-0.6-0.1-1.2,0.2-1.5,0.8l-0.3,0.9c-0.1,0.2-0.3,0.4-0.5,0.4h-2.7
		c-0.2,0-0.4-0.1-0.5-0.4l-0.3-0.9c-0.2-0.6-0.8-1-1.5-0.8c-1.8,0.4-3.6,1.1-5.2,2.1c-0.5,0.3-0.7,1-0.5,1.6l0.4,0.9
		c0.1,0.2,0.1,0.4-0.1,0.6l-1.9,1.9c-0.2,0.2-0.4,0.2-0.6,0.1l-0.9-0.4c-0.6-0.3-1.3-0.1-1.6,0.5c-1,1.6-1.7,3.3-2.1,5.1
		c-0.1,0.6,0.2,1.2,0.8,1.5l0.9,0.3c0.2,0.1,0.4,0.3,0.4,0.5v2.7c0,0.2-0.1,0.4-0.4,0.5l-0.9,0.3c-0.6,0.2-1,0.8-0.8,1.4
		c0.4,1.8,1.1,3.6,2.1,5.2c0.3,0.5,1,0.7,1.6,0.5l0.9-0.4c0.2-0.1,0.4-0.1,0.6,0.1l1.9,1.9c0.2,0.2,0.2,0.4,0.1,0.6l-0.4,0.9
		c-0.3,0.6-0.1,1.3,0.5,1.6c1.6,1,3.3,1.7,5.2,2.1c0.6,0.1,1.2-0.2,1.5-0.8l0.3-1c0.1-0.2,0.3-0.4,0.5-0.4h2.7
		c0.2,0,0.4,0.1,0.5,0.4l0.3,1c0.2,0.5,0.7,0.8,1.2,0.8c0.1,0,0.2,0,0.3,0c1.8-0.4,3.6-1.1,5.2-2.1c0.5-0.3,0.7-1,0.5-1.6l-0.4-0.9
		c-0.1-0.2-0.1-0.4,0.1-0.6l1.9-1.9c0.2-0.2,0.4-0.2,0.6-0.1l0.9,0.4c0.6,0.3,1.3,0.1,1.6-0.5c1-1.6,1.7-3.3,2.1-5.2
		C266.1,67.1,265.8,66.5,265.2,66.3L265.2,66.3z"/>
	<path class="st4" d="M265,67.5c-0.4,1.7-1.1,3.4-2,4.8c-0.1,0.1-0.2,0.2-0.3,0.1l-0.9-0.4c-0.6-0.3-1.3-0.2-1.7,0.3l-1.9,1.9
		c-0.5,0.5-0.6,1.2-0.3,1.7l0.4,0.9c0.1,0.1,0,0.3-0.1,0.3c-1.5,0.9-3.1,1.6-4.8,2c-0.1,0-0.3,0-0.3-0.2l-0.3-1
		c-0.2-0.6-0.8-1-1.4-1h-2.7c-0.6,0-1.2,0.4-1.4,1l-0.3,1c0,0.1-0.2,0.2-0.3,0.2c-1.7-0.4-3.3-1.1-4.8-2c-0.1-0.1-0.2-0.2-0.1-0.3
		l0.4-0.9c0.3-0.6,0.2-1.3-0.3-1.7l-1.9-1.9c-0.3-0.3-0.7-0.4-1.1-0.4c-0.2,0-0.5,0.1-0.7,0.2l-0.9,0.4c-0.1,0.1-0.3,0-0.3-0.1
		c-0.9-1.5-1.6-3.1-2-4.8c0-0.1,0-0.3,0.2-0.3l0.9-0.3c0.6-0.2,1-0.8,1-1.4v-2.7c0-0.6-0.4-1.2-1-1.4l-0.9-0.3
		c-0.1,0-0.2-0.2-0.2-0.3c0.4-1.7,1.1-3.3,2-4.8c0.1-0.1,0.2-0.2,0.3-0.1l0.9,0.4c0.6,0.3,1.3,0.2,1.7-0.3l1.9-1.9
		c0.5-0.5,0.6-1.2,0.3-1.7l-0.4-0.9c-0.1-0.1,0-0.3,0.1-0.3c1.5-0.9,3.1-1.6,4.8-2c0.1,0,0.3,0,0.3,0.2l0.3,0.9c0.2,0.6,0.8,1,1.4,1
		h2.7c0.6,0,1.2-0.4,1.4-1l0.3-0.9c0-0.1,0.2-0.2,0.3-0.2c1.7,0.4,3.3,1.1,4.8,2c0.1,0.1,0.2,0.2,0.1,0.3l-0.4,0.9
		c-0.3,0.6-0.2,1.3,0.3,1.7L260,56c0.5,0.5,1.2,0.6,1.7,0.3l0.9-0.4c0.1-0.1,0.3,0,0.3,0.1c0.9,1.5,1.6,3.1,2,4.8
		c0,0.1,0,0.3-0.2,0.3l-0.9,0.3c-0.6,0.2-1,0.8-1,1.4v2.7c0,0.6,0.4,1.2,1,1.4l0.9,0.3C264.9,67.2,265,67.4,265,67.5L265,67.5z
		 M265.2,66.3l-0.9-0.3c-0.2-0.1-0.4-0.3-0.4-0.5v-2.7c0-0.2,0.1-0.4,0.4-0.5l0.9-0.3c0.6-0.2,1-0.8,0.8-1.5
		c-0.4-1.8-1.1-3.6-2.1-5.1c-0.3-0.5-1-0.7-1.6-0.5l-0.9,0.4c-0.2,0.1-0.4,0.1-0.6-0.1l-1.9-1.9c-0.2-0.2-0.2-0.4-0.1-0.6l0.4-0.9
		c0.3-0.6,0.1-1.3-0.5-1.6c-1.6-1-3.3-1.7-5.2-2.1c-0.6-0.1-1.2,0.2-1.5,0.8l-0.3,0.9c-0.1,0.2-0.3,0.4-0.5,0.4h-2.7
		c-0.2,0-0.4-0.1-0.5-0.4l-0.3-0.9c-0.2-0.6-0.8-1-1.5-0.8c-1.8,0.4-3.6,1.1-5.2,2.1c-0.5,0.3-0.7,1-0.5,1.6l0.4,0.9
		c0.1,0.2,0.1,0.4-0.1,0.6l-1.9,1.9c-0.2,0.2-0.4,0.2-0.6,0.1l-0.9-0.4c-0.6-0.3-1.3-0.1-1.6,0.5c-1,1.6-1.7,3.3-2.1,5.1
		c-0.1,0.6,0.2,1.2,0.8,1.5l0.9,0.3c0.2,0.1,0.4,0.3,0.4,0.5v2.7c0,0.2-0.1,0.4-0.4,0.5l-0.9,0.3c-0.6,0.2-1,0.8-0.8,1.4
		c0.4,1.8,1.1,3.6,2.1,5.2c0.3,0.5,1,0.7,1.6,0.5l0.9-0.4c0.2-0.1,0.4-0.1,0.6,0.1l1.9,1.9c0.2,0.2,0.2,0.4,0.1,0.6l-0.4,0.9
		c-0.3,0.6-0.1,1.3,0.5,1.6c1.6,1,3.3,1.7,5.2,2.1c0.6,0.1,1.2-0.2,1.5-0.8l0.3-1c0.1-0.2,0.3-0.4,0.5-0.4h2.7
		c0.2,0,0.4,0.1,0.5,0.4l0.3,1c0.2,0.5,0.7,0.8,1.2,0.8c0.1,0,0.2,0,0.3,0c1.8-0.4,3.6-1.1,5.2-2.1c0.5-0.3,0.7-1,0.5-1.6l-0.4-0.9
		c-0.1-0.2-0.1-0.4,0.1-0.6l1.9-1.9c0.2-0.2,0.4-0.2,0.6-0.1l0.9,0.4c0.6,0.3,1.3,0.1,1.6-0.5c1-1.6,1.7-3.3,2.1-5.2
		C266.1,67.1,265.8,66.5,265.2,66.3L265.2,66.3z"/>
	<path class="st0" d="M244.5,41.7h2.3v4.1c0,0.3,0.2,0.5,0.5,0.5s0.5-0.2,0.5-0.5v-4.6c0-0.3-0.2-0.5-0.5-0.5h-1.8l4.5-6.1l4.5,6.1
		h-1.8c-0.3,0-0.5,0.2-0.5,0.5v4.6c0,0.3,0.2,0.5,0.5,0.5c0.3,0,0.5-0.2,0.5-0.5v-4.1h2.3c0.2,0,0.4-0.1,0.4-0.3
		c0.1-0.2,0.1-0.4,0-0.5l-5.5-7.4c-0.1-0.1-0.2-0.2-0.4-0.2h0h0c-0.1,0-0.3,0.1-0.4,0.2l-5.5,7.4c-0.1,0.1-0.1,0.3,0,0.5
		C244.2,41.6,244.3,41.7,244.5,41.7z"/>
	<path class="st4" d="M244.5,41.7h2.3v4.1c0,0.3,0.2,0.5,0.5,0.5s0.5-0.2,0.5-0.5v-4.6c0-0.3-0.2-0.5-0.5-0.5h-1.8l4.5-6.1l4.5,6.1
		h-1.8c-0.3,0-0.5,0.2-0.5,0.5v4.6c0,0.3,0.2,0.5,0.5,0.5c0.3,0,0.5-0.2,0.5-0.5v-4.1h2.3c0.2,0,0.4-0.1,0.4-0.3
		c0.1-0.2,0.1-0.4,0-0.5l-5.5-7.4c-0.1-0.1-0.2-0.2-0.4-0.2h0h0c-0.1,0-0.3,0.1-0.4,0.2l-5.5,7.4c-0.1,0.1-0.1,0.3,0,0.5
		C244.2,41.6,244.3,41.7,244.5,41.7z"/>
	<path class="st0" d="M236,53.2c0,0.3,0.2,0.5,0.5,0.5s0.5-0.2,0.5-0.5v-6.5c0-0.3-0.2-0.5-0.5-0.5h-1.8l4.5-6.1l4.5,6.1h-1.8
		c-0.3,0-0.5,0.2-0.5,0.5v0.9c0,0.3,0.2,0.5,0.5,0.5c0.3,0,0.5-0.2,0.5-0.5v-0.4h2.3c0.2,0,0.4-0.1,0.4-0.3c0.1-0.2,0.1-0.4,0-0.5
		l-5.5-7.4c-0.1-0.1-0.2-0.2-0.4-0.2h0h0c-0.1,0-0.3,0.1-0.4,0.2l-5.5,7.4c-0.1,0.1-0.1,0.3,0,0.5c0.1,0.2,0.3,0.3,0.4,0.3h2.3V53.2
		z"/>
	<path class="st4" d="M236,53.2c0,0.3,0.2,0.5,0.5,0.5s0.5-0.2,0.5-0.5v-6.5c0-0.3-0.2-0.5-0.5-0.5h-1.8l4.5-6.1l4.5,6.1h-1.8
		c-0.3,0-0.5,0.2-0.5,0.5v0.9c0,0.3,0.2,0.5,0.5,0.5c0.3,0,0.5-0.2,0.5-0.5v-0.4h2.3c0.2,0,0.4-0.1,0.4-0.3c0.1-0.2,0.1-0.4,0-0.5
		l-5.5-7.4c-0.1-0.1-0.2-0.2-0.4-0.2h0h0c-0.1,0-0.3,0.1-0.4,0.2l-5.5,7.4c-0.1,0.1-0.1,0.3,0,0.5c0.1,0.2,0.3,0.3,0.4,0.3h2.3V53.2
		z"/>
	<path class="st0" d="M266.7,46.5l-5.5-7.4c-0.1-0.1-0.2-0.2-0.4-0.2h0h0c-0.1,0-0.3,0.1-0.4,0.2l-5.5,7.4c-0.1,0.1-0.1,0.3,0,0.5
		c0.1,0.2,0.3,0.3,0.4,0.3h2.3v0.4c0,0.3,0.2,0.5,0.5,0.5c0.3,0,0.5-0.2,0.5-0.5v-0.9c0-0.3-0.2-0.5-0.5-0.5h-1.8l4.5-6.1l4.5,6.1
		h-1.8c-0.3,0-0.5,0.2-0.5,0.5v6.5c0,0.3,0.2,0.5,0.5,0.5c0.3,0,0.5-0.2,0.5-0.5v-6h2.3c0.2,0,0.4-0.1,0.4-0.3
		C266.8,46.8,266.8,46.6,266.7,46.5L266.7,46.5z"/>
	<path class="st4" d="M266.7,46.5l-5.5-7.4c-0.1-0.1-0.2-0.2-0.4-0.2h0h0c-0.1,0-0.3,0.1-0.4,0.2l-5.5,7.4c-0.1,0.1-0.1,0.3,0,0.5
		c0.1,0.2,0.3,0.3,0.4,0.3h2.3v0.4c0,0.3,0.2,0.5,0.5,0.5c0.3,0,0.5-0.2,0.5-0.5v-0.9c0-0.3-0.2-0.5-0.5-0.5h-1.8l4.5-6.1l4.5,6.1
		h-1.8c-0.3,0-0.5,0.2-0.5,0.5v6.5c0,0.3,0.2,0.5,0.5,0.5c0.3,0,0.5-0.2,0.5-0.5v-6h2.3c0.2,0,0.4-0.1,0.4-0.3
		C266.8,46.8,266.8,46.6,266.7,46.5L266.7,46.5z"/>
	<path class="st0" d="M413,283.1c-2.9,0-5.7-1.1-7.7-3.2c-2-2-3.2-4.8-3.2-7.7c0-2.9,1.1-5.7,3.2-7.7c2-2,4.8-3.2,7.7-3.2
		c2.9,0,5.7,1.1,7.7,3.2c2,2,3.2,4.8,3.2,7.7c0,2.9-1.2,5.7-3.2,7.7C418.7,281.9,415.9,283.1,413,283.1z M413,258.1
		c-3.7,0-7.3,1.5-10,4.1c-2.6,2.6-4.1,6.2-4.1,10c0,3.7,1.5,7.3,4.1,9.9c2.6,2.6,6.2,4.1,10,4.1c3.7,0,7.3-1.5,10-4.1
		c2.6-2.6,4.1-6.2,4.1-9.9c0-3.7-1.5-7.3-4.1-9.9C420.3,259.6,416.8,258.1,413,258.1z"/>
	<path class="st5" d="M413,283.1c-2.9,0-5.7-1.1-7.7-3.2c-2-2-3.2-4.8-3.2-7.7c0-2.9,1.1-5.7,3.2-7.7c2-2,4.8-3.2,7.7-3.2
		c2.9,0,5.7,1.1,7.7,3.2c2,2,3.2,4.8,3.2,7.7c0,2.9-1.2,5.7-3.2,7.7C418.7,281.9,415.9,283.1,413,283.1z M413,258.1
		c-3.7,0-7.3,1.5-10,4.1c-2.6,2.6-4.1,6.2-4.1,10c0,3.7,1.5,7.3,4.1,9.9c2.6,2.6,6.2,4.1,10,4.1c3.7,0,7.3-1.5,10-4.1
		c2.6-2.6,4.1-6.2,4.1-9.9c0-3.7-1.5-7.3-4.1-9.9C420.3,259.6,416.8,258.1,413,258.1z"/>
	<path class="st0" d="M401.6,252.6h36.1c0.6,0,1.1-0.3,1.4-0.8c0.3-0.5,0.3-1.1,0-1.6c-0.3-0.5-0.8-0.8-1.4-0.8h-36.1
		c-0.6,0-1.1,0.3-1.4,0.8c-0.3,0.5-0.3,1.1,0,1.6C400.5,252.3,401,252.6,401.6,252.6"/>
	<path class="st5" d="M401.6,252.6h36.1c0.6,0,1.1-0.3,1.4-0.8c0.3-0.5,0.3-1.1,0-1.6c-0.3-0.5-0.8-0.8-1.4-0.8h-36.1
		c-0.6,0-1.1,0.3-1.4,0.8c-0.3,0.5-0.3,1.1,0,1.6C400.5,252.3,401,252.6,401.6,252.6z"/>
	<path class="st0" d="M437.7,260h-10.6c-0.6,0-1.1,0.3-1.4,0.8c-0.3,0.5-0.3,1.1,0,1.6c0.3,0.5,0.8,0.8,1.4,0.8h10.6
		c0.6,0,1.1-0.3,1.4-0.8c0.3-0.5,0.3-1.1,0-1.6C438.8,260.3,438.3,260,437.7,260"/>
	<path class="st5" d="M437.7,260h-10.6c-0.6,0-1.1,0.3-1.4,0.8c-0.3,0.5-0.3,1.1,0,1.6c0.3,0.5,0.8,0.8,1.4,0.8h10.6
		c0.6,0,1.1-0.3,1.4-0.8c0.3-0.5,0.3-1.1,0-1.6C438.8,260.3,438.3,260,437.7,260z"/>
	<path class="st0" d="M437.7,281.2h-9.6c-0.6,0-1.1,0.3-1.4,0.8c-0.3,0.5-0.3,1.1,0,1.6c0.3,0.5,0.8,0.8,1.4,0.8h9.6
		c0.6,0,1.1-0.3,1.4-0.8c0.3-0.5,0.3-1.1,0-1.6C438.8,281.5,438.3,281.2,437.7,281.2"/>
	<path class="st5" d="M437.7,281.2h-9.6c-0.6,0-1.1,0.3-1.4,0.8c-0.3,0.5-0.3,1.1,0,1.6c0.3,0.5,0.8,0.8,1.4,0.8h9.6
		c0.6,0,1.1-0.3,1.4-0.8c0.3-0.5,0.3-1.1,0-1.6C438.8,281.5,438.3,281.2,437.7,281.2z"/>
	<path class="st0" d="M437.7,270.6h-6.4h0c-0.6,0-1.1,0.3-1.4,0.8c-0.3,0.5-0.3,1.1,0,1.6c0.3,0.5,0.8,0.8,1.4,0.8h6.4
		c0.6,0,1.1-0.3,1.4-0.8c0.3-0.5,0.3-1.1,0-1.6C438.8,270.9,438.3,270.6,437.7,270.6"/>
	<path class="st5" d="M437.7,270.6h-6.4h0c-0.6,0-1.1,0.3-1.4,0.8c-0.3,0.5-0.3,1.1,0,1.6c0.3,0.5,0.8,0.8,1.4,0.8h6.4
		c0.6,0,1.1-0.3,1.4-0.8c0.3-0.5,0.3-1.1,0-1.6C438.8,270.9,438.3,270.6,437.7,270.6z"/>
	<path class="st0" d="M414.7,272.9c0,0,0-0.1,0.1-0.1c0-0.1,0-0.1,0.1-0.2v-0.1c0-0.1,0-0.2,0-0.3v-7.4c0-0.6-0.3-1.1-0.8-1.4
		c-0.5-0.3-1.1-0.3-1.6,0s-0.8,0.8-0.8,1.4v6.6l-2.5,1.6c-0.4,0.3-0.6,0.7-0.7,1.1c-0.1,0.5,0.1,0.9,0.4,1.3
		c0.3,0.3,0.8,0.5,1.2,0.5c0.3,0,0.6-0.1,0.9-0.3l3.2-2.1c0.1-0.1,0.2-0.1,0.2-0.2l0.1-0.1l0.1-0.1C414.6,273,414.7,273,414.7,272.9
		"/>
	<path class="st5" d="M414.7,272.9c0,0,0-0.1,0.1-0.1c0-0.1,0-0.1,0.1-0.2v-0.1c0-0.1,0-0.2,0-0.3v-7.4c0-0.6-0.3-1.1-0.8-1.4
		c-0.5-0.3-1.1-0.3-1.6,0s-0.8,0.8-0.8,1.4v6.6l-2.5,1.6c-0.4,0.3-0.6,0.7-0.7,1.1c-0.1,0.5,0.1,0.9,0.4,1.3
		c0.3,0.3,0.8,0.5,1.2,0.5c0.3,0,0.6-0.1,0.9-0.3l3.2-2.1c0.1-0.1,0.2-0.1,0.2-0.2l0.1-0.1l0.1-0.1C414.6,273,414.7,273,414.7,272.9
		z"/>
	<rect x="330.2" y="409.9" class="st0" width="2.9" height="1.1"/>
	<rect x="330.2" y="409.9" class="st4" width="2.9" height="1.1"/>
	<rect x="334.2" y="409.9" class="st0" width="2.9" height="1.1"/>
	<rect x="334.2" y="409.9" class="st4" width="2.9" height="1.1"/>
	<rect x="338.2" y="409.9" class="st0" width="2.9" height="1.1"/>
	<rect x="338.2" y="409.9" class="st4" width="2.9" height="1.1"/>
	<rect x="344.6" y="375.5" class="st0" width="1.1" height="2.9"/>
	<rect x="344.6" y="375.5" class="st4" width="1.1" height="2.9"/>
	<rect x="344.6" y="379.5" class="st0" width="1.1" height="2.9"/>
	<rect x="344.6" y="379.5" class="st4" width="1.1" height="2.9"/>
	<rect x="344.6" y="383.5" class="st0" width="1.1" height="2.9"/>
	<rect x="344.6" y="383.5" class="st4" width="1.1" height="2.9"/>
	<rect x="344.6" y="391.5" class="st0" width="1.1" height="2.9"/>
	<rect x="344.6" y="391.5" class="st4" width="1.1" height="2.9"/>
	<rect x="344.6" y="395.5" class="st0" width="1.1" height="2.9"/>
	<rect x="344.6" y="395.5" class="st4" width="1.1" height="2.9"/>
	<rect x="344.6" y="399.6" class="st0" width="1.1" height="2.9"/>
	<rect x="344.6" y="399.6" class="st4" width="1.1" height="2.9"/>
	<rect x="344.6" y="403.6" class="st0" width="1.1" height="2.9"/>
	<rect x="344.6" y="403.6" class="st4" width="1.1" height="2.9"/>
	<rect x="344.6" y="387.5" class="st0" width="1.1" height="2.9"/>
	<rect x="344.6" y="387.5" class="st4" width="1.1" height="2.9"/>
	
		<rect x="339.1" y="370" transform="matrix(1.271528e-03 -1 1 1.271528e-03 -32.2554 710.6563)" class="st0" width="1.1" height="2.9"/>
	<rect x="338.2" y="370.9" class="st4" width="2.9" height="1.1"/>
	<rect x="334.2" y="370.9" class="st0" width="2.9" height="1.1"/>
	<rect x="334.2" y="370.9" class="st4" width="2.9" height="1.1"/>
	<rect x="330.2" y="370.9" class="st0" width="2.9" height="1.1"/>
	<rect x="330.2" y="370.9" class="st4" width="2.9" height="1.1"/>
	<rect x="322.2" y="370.9" class="st0" width="2.9" height="1.1"/>
	<rect x="322.2" y="370.9" class="st4" width="2.9" height="1.1"/>
	
		<rect x="319" y="370" transform="matrix(1.271528e-03 -1 1 1.271528e-03 -52.281 690.6052)" class="st0" width="1.1" height="2.9"/>
	<rect x="318.1" y="370.9" class="st4" width="2.9" height="1.1"/>
	
		<rect x="315" y="370" transform="matrix(1.271528e-03 -1 1 1.271528e-03 -56.2844 686.5967)" class="st0" width="1.1" height="2.9"/>
	<rect x="314.1" y="370.9" class="st4" width="2.9" height="1.1"/>
	<rect x="310.1" y="370.9" class="st0" width="2.9" height="1.1"/>
	<rect x="310.1" y="370.9" class="st4" width="2.9" height="1.1"/>
	<rect x="326.2" y="370.9" class="st0" width="2.9" height="1.1"/>
	<rect x="326.2" y="370.9" class="st4" width="2.9" height="1.1"/>
	<rect x="305.6" y="383.5" class="st0" width="1.1" height="2.9"/>
	<rect x="305.6" y="383.5" class="st4" width="1.1" height="2.9"/>
	<rect x="305.6" y="379.5" class="st0" width="1.1" height="2.9"/>
	<rect x="305.6" y="379.5" class="st4" width="1.1" height="2.9"/>
	<rect x="305.6" y="375.5" class="st0" width="1.1" height="2.9"/>
	<rect x="305.6" y="375.5" class="st4" width="1.1" height="2.9"/>
	<path class="st0" d="M306.7,374.4h-1.1l0-2.9c0-0.3,0.3-0.6,0.6-0.6h2.9v1.1h-2.3V374.4z"/>
	<path class="st4" d="M306.7,374.4h-1.1l0-2.9c0-0.3,0.3-0.6,0.6-0.6h2.9v1.1h-2.3V374.4z"/>
	<path class="st0" d="M314,399.3c0-0.9,0.3-1.8,1-2.5c0.7-0.7,1.5-1.1,2.5-1.1h0c0.9,0,1.8,0.4,2.5,1c0.7,0.7,1,1.5,1.1,2.5
		c0,0.9-0.4,1.8-1,2.5c-0.7,0.7-1.5,1.1-2.5,1.1c-1,0-1.8-0.4-2.5-1C314.4,401.1,314,400.2,314,399.3 M314.2,395.9
		c-0.9,0.9-1.3,2.1-1.3,3.3c0,1.3,0.5,2.4,1.4,3.3c0.9,0.9,2,1.3,3.2,1.3h0.1c1.2,0,2.4-0.5,3.3-1.4c0.9-0.9,1.3-2.1,1.3-3.3
		c0-1.2-0.5-2.4-1.4-3.3c-0.9-0.9-2.1-1.3-3.3-1.3C316.2,394.6,315.1,395.1,314.2,395.9 M308.4,398.4c0,0,0.1,0,0.1,0l2.4-0.5
		c0.2,0,0.4-0.2,0.4-0.4c0.1-0.4,0.3-0.7,0.4-1c0.1-0.2,0.1-0.4,0-0.6l-1.4-2l1.5-1.6c0,0,0.1,0,0.1,0.1l2,1.3
		c0.2,0.1,0.4,0.1,0.6,0c0.3-0.2,0.7-0.3,1-0.4c0.2-0.1,0.3-0.2,0.4-0.4l0.5-2.4c0,0,0,0,0-0.1l2.2,0c0,0,0,0,0,0l0.5,2.4
		c0,0.2,0.2,0.4,0.4,0.4c0.4,0.1,0.7,0.2,1,0.4c0.2,0.1,0.4,0.1,0.6,0l2-1.4l1.5,1.5c0,0,0,0,0,0l-1.3,2c-0.1,0.2-0.1,0.4,0,0.6
		c0.2,0.3,0.3,0.7,0.4,1c0.1,0.2,0.2,0.3,0.4,0.4l2.4,0.4l0.1,2.1c0,0,0,0-0.1,0l-2.4,0.5c-0.2,0-0.4,0.2-0.4,0.4
		c-0.1,0.4-0.3,0.7-0.4,1c-0.1,0.2-0.1,0.4,0,0.6l1.4,2l-1.5,1.6c0,0-0.1,0-0.1-0.1l-2-1.3c-0.2-0.1-0.4-0.1-0.6,0
		c-0.3,0.2-0.7,0.3-1,0.4c-0.2,0.1-0.3,0.2-0.4,0.4l-0.4,2.4l-2.2,0c0,0,0,0,0,0l-0.5-2.4c0-0.2-0.2-0.4-0.4-0.4
		c-0.4-0.1-0.7-0.2-1-0.4c-0.1,0-0.2-0.1-0.3-0.1c-0.1,0-0.2,0-0.3,0.1l-2,1.4l-1.5-1.5c0,0,0,0,0,0l1.3-2c0.1-0.2,0.1-0.4,0-0.6
		c-0.2-0.3-0.3-0.7-0.4-1c-0.1-0.2-0.2-0.3-0.4-0.4l-2.4-0.4L308.4,398.4z M307.6,397.6c-0.2,0.2-0.3,0.5-0.3,0.8l0,2.2
		c0,0.3,0.1,0.6,0.3,0.7c0.2,0.2,0.4,0.3,0.7,0.3l2,0.4c0.1,0.2,0.2,0.4,0.2,0.6l-1.1,1.7c-0.2,0.2-0.3,0.4-0.3,0.7
		c0,0.3,0.1,0.5,0.3,0.7l1.6,1.5c0.4,0.4,1,0.4,1.5,0l1.7-1.2c0.2,0.1,0.4,0.2,0.6,0.2l0.4,2c0,0.3,0.1,0.5,0.3,0.7
		c0.2,0.2,0.5,0.3,0.7,0.3h0l2.2,0c0.6,0,1-0.5,1.1-1l0.4-2c0.2-0.1,0.4-0.2,0.6-0.3l1.7,1.1c0.4,0.4,1.1,0.3,1.5-0.1l1.6-1.6
		c0.2-0.2,0.3-0.5,0.3-0.8c0-0.3-0.1-0.5-0.3-0.7l-1.2-1.7c0.1-0.2,0.2-0.4,0.2-0.6l2-0.4c0.6,0,1-0.5,1-1.1l0-2.2
		c0-0.3-0.1-0.5-0.3-0.7c-0.2-0.2-0.4-0.3-0.7-0.3l-2-0.4c-0.1-0.2-0.2-0.4-0.2-0.6l1.1-1.7c0.2-0.2,0.3-0.4,0.3-0.7
		c0-0.3-0.1-0.5-0.3-0.7l-1.6-1.5c-0.4-0.4-1-0.4-1.5,0l-1.7,1.2c-0.2-0.1-0.4-0.2-0.6-0.2l-0.4-2c0-0.3-0.1-0.5-0.3-0.7
		c-0.2-0.2-0.5-0.3-0.8-0.3l-2.2,0c-0.6,0-1,0.5-1.1,1l-0.4,2c-0.2,0.1-0.4,0.2-0.6,0.3l-1.7-1.1c-0.4-0.4-1.1-0.3-1.5,0.1l-1.6,1.6
		c-0.2,0.2-0.3,0.5-0.3,0.8c0,0.3,0.1,0.5,0.3,0.7l1.2,1.7c-0.1,0.2-0.2,0.4-0.2,0.6l-2,0.4C308.1,397.3,307.8,397.4,307.6,397.6
		 M328.2,409.9h-21.5v-21.3h21.5c0,0,0.1,0,0.1,0.1V409.9z M340.7,382.9v-6.4c0-0.3-0.3-0.6-0.6-0.6h-6.4c-0.3,0-0.6,0.3-0.6,0.6
		c0,0.3,0.3,0.6,0.6,0.6h5.1l-10.5,10.5h-22.2c-0.3,0-0.6,0.3-0.6,0.6v22.4c0,0.3,0.2,0.6,0.6,0.6h22.7c0.3,0,0.6-0.3,0.6-0.6
		l0-22.4l10.2-10.2v5.1c0,0.3,0.3,0.6,0.6,0.6C340.4,383.4,340.7,383.2,340.7,382.9"/>
	<path class="st4" d="M314,399.3c0-0.9,0.3-1.8,1-2.5c0.7-0.7,1.5-1.1,2.5-1.1h0c0.9,0,1.8,0.4,2.5,1c0.7,0.7,1,1.5,1.1,2.5
		c0,0.9-0.4,1.8-1,2.5c-0.7,0.7-1.5,1.1-2.5,1.1c-1,0-1.8-0.4-2.5-1C314.4,401.1,314,400.2,314,399.3z M314.2,395.9
		c-0.9,0.9-1.3,2.1-1.3,3.3c0,1.3,0.5,2.4,1.4,3.3c0.9,0.9,2,1.3,3.2,1.3h0.1c1.2,0,2.4-0.5,3.3-1.4c0.9-0.9,1.3-2.1,1.3-3.3
		c0-1.2-0.5-2.4-1.4-3.3c-0.9-0.9-2.1-1.3-3.3-1.3C316.2,394.6,315.1,395.1,314.2,395.9z M308.4,398.4c0,0,0.1,0,0.1,0l2.4-0.5
		c0.2,0,0.4-0.2,0.4-0.4c0.1-0.4,0.3-0.7,0.4-1c0.1-0.2,0.1-0.4,0-0.6l-1.4-2l1.5-1.6c0,0,0.1,0,0.1,0.1l2,1.3
		c0.2,0.1,0.4,0.1,0.6,0c0.3-0.2,0.7-0.3,1-0.4c0.2-0.1,0.3-0.2,0.4-0.4l0.5-2.4c0,0,0,0,0-0.1l2.2,0c0,0,0,0,0,0l0.5,2.4
		c0,0.2,0.2,0.4,0.4,0.4c0.4,0.1,0.7,0.2,1,0.4c0.2,0.1,0.4,0.1,0.6,0l2-1.4l1.5,1.5c0,0,0,0,0,0l-1.3,2c-0.1,0.2-0.1,0.4,0,0.6
		c0.2,0.3,0.3,0.7,0.4,1c0.1,0.2,0.2,0.3,0.4,0.4l2.4,0.4l0.1,2.1c0,0,0,0-0.1,0l-2.4,0.5c-0.2,0-0.4,0.2-0.4,0.4
		c-0.1,0.4-0.3,0.7-0.4,1c-0.1,0.2-0.1,0.4,0,0.6l1.4,2l-1.5,1.6c0,0-0.1,0-0.1-0.1l-2-1.3c-0.2-0.1-0.4-0.1-0.6,0
		c-0.3,0.2-0.7,0.3-1,0.4c-0.2,0.1-0.3,0.2-0.4,0.4l-0.4,2.4l-2.2,0c0,0,0,0,0,0l-0.5-2.4c0-0.2-0.2-0.4-0.4-0.4
		c-0.4-0.1-0.7-0.2-1-0.4c-0.1,0-0.2-0.1-0.3-0.1c-0.1,0-0.2,0-0.3,0.1l-2,1.4l-1.5-1.5c0,0,0,0,0,0l1.3-2c0.1-0.2,0.1-0.4,0-0.6
		c-0.2-0.3-0.3-0.7-0.4-1c-0.1-0.2-0.2-0.3-0.4-0.4l-2.4-0.4L308.4,398.4z M307.6,397.6c-0.2,0.2-0.3,0.5-0.3,0.8l0,2.2
		c0,0.3,0.1,0.6,0.3,0.7c0.2,0.2,0.4,0.3,0.7,0.3l2,0.4c0.1,0.2,0.2,0.4,0.2,0.6l-1.1,1.7c-0.2,0.2-0.3,0.4-0.3,0.7
		c0,0.3,0.1,0.5,0.3,0.7l1.6,1.5c0.4,0.4,1,0.4,1.5,0l1.7-1.2c0.2,0.1,0.4,0.2,0.6,0.2l0.4,2c0,0.3,0.1,0.5,0.3,0.7
		c0.2,0.2,0.5,0.3,0.7,0.3h0l2.2,0c0.6,0,1-0.5,1.1-1l0.4-2c0.2-0.1,0.4-0.2,0.6-0.3l1.7,1.1c0.4,0.4,1.1,0.3,1.5-0.1l1.6-1.6
		c0.2-0.2,0.3-0.5,0.3-0.8c0-0.3-0.1-0.5-0.3-0.7l-1.2-1.7c0.1-0.2,0.2-0.4,0.2-0.6l2-0.4c0.6,0,1-0.5,1-1.1l0-2.2
		c0-0.3-0.1-0.5-0.3-0.7c-0.2-0.2-0.4-0.3-0.7-0.3l-2-0.4c-0.1-0.2-0.2-0.4-0.2-0.6l1.1-1.7c0.2-0.2,0.3-0.4,0.3-0.7
		c0-0.3-0.1-0.5-0.3-0.7l-1.6-1.5c-0.4-0.4-1-0.4-1.5,0l-1.7,1.2c-0.2-0.1-0.4-0.2-0.6-0.2l-0.4-2c0-0.3-0.1-0.5-0.3-0.7
		c-0.2-0.2-0.5-0.3-0.8-0.3l-2.2,0c-0.6,0-1,0.5-1.1,1l-0.4,2c-0.2,0.1-0.4,0.2-0.6,0.3l-1.7-1.1c-0.4-0.4-1.1-0.3-1.5,0.1l-1.6,1.6
		c-0.2,0.2-0.3,0.5-0.3,0.8c0,0.3,0.1,0.5,0.3,0.7l1.2,1.7c-0.1,0.2-0.2,0.4-0.2,0.6l-2,0.4C308.1,397.3,307.8,397.4,307.6,397.6z
		 M328.2,409.9h-21.5v-21.3h21.5c0,0,0.1,0,0.1,0.1V409.9z M340.7,382.9v-6.4c0-0.3-0.3-0.6-0.6-0.6h-6.4c-0.3,0-0.6,0.3-0.6,0.6
		c0,0.3,0.3,0.6,0.6,0.6h5.1l-10.5,10.5h-22.2c-0.3,0-0.6,0.3-0.6,0.6v22.4c0,0.3,0.2,0.6,0.6,0.6h22.7c0.3,0,0.6-0.3,0.6-0.6
		l0-22.4l10.2-10.2v5.1c0,0.3,0.3,0.6,0.6,0.6C340.4,383.4,340.7,383.2,340.7,382.9z"/>
	<path class="st0" d="M190.3,405.9C190.3,406,190.2,406,190.3,405.9l-2.7,0.1c0,0-0.1,0-0.1-0.1v-1.1c0,0,0-0.1,0.1-0.1h2.6
		c0,0,0.1,0,0.1,0.1V405.9z M190.2,403.4h-2.6c-0.8,0-1.4,0.6-1.4,1.4v1.1c0,0.8,0.6,1.4,1.4,1.4h2.6c0.8,0,1.4-0.6,1.4-1.4v-1.1
		C191.6,404,191,403.4,190.2,403.4 M183.4,405.9C183.4,406,183.4,406,183.4,405.9l-2.7,0.1c0,0-0.1,0-0.1-0.1v-1.1
		c0,0,0-0.1,0.1-0.1h2.6c0,0,0.1,0,0.1,0.1V405.9z M183.4,403.4h-2.6c-0.8,0-1.4,0.6-1.4,1.4v1.1c0,0.8,0.6,1.4,1.4,1.4h2.6
		c0.8,0,1.4-0.6,1.4-1.4v-1.1C184.8,404,184.1,403.4,183.4,403.4 M176.6,405.9C176.6,406,176.6,406,176.6,405.9l-2.7,0.1
		c0,0-0.1,0-0.1-0.1v-1.1c0,0,0-0.1,0.1-0.1h2.6c0,0,0.1,0,0.1,0.1V405.9z M176.5,403.4h-2.6c-0.8,0-1.4,0.6-1.4,1.4v1.1
		c0,0.8,0.6,1.4,1.4,1.4h2.6c0.8,0,1.4-0.6,1.4-1.4v-1.1C177.9,404,177.3,403.4,176.5,403.4 M190.3,401.3
		C190.3,401.3,190.2,401.4,190.3,401.3l-2.7,0.1c0,0-0.1,0-0.1-0.1v-1.1c0,0,0-0.1,0.1-0.1h2.6c0,0,0.1,0,0.1,0.1V401.3z
		 M190.2,398.7h-2.6c-0.8,0-1.4,0.6-1.4,1.4v1.1c0,0.8,0.6,1.4,1.4,1.4h2.6c0.8,0,1.4-0.6,1.4-1.4v-1.1
		C191.6,399.4,191,398.7,190.2,398.7 M183.4,401.3C183.4,401.3,183.4,401.4,183.4,401.3l-2.7,0.1c0,0-0.1,0-0.1-0.1v-1.1
		c0,0,0-0.1,0.1-0.1h2.6c0,0,0.1,0,0.1,0.1V401.3z M183.4,398.7h-2.6c-0.8,0-1.4,0.6-1.4,1.4v1.1c0,0.8,0.6,1.4,1.4,1.4h2.6
		c0.8,0,1.4-0.6,1.4-1.4v-1.1C184.8,399.4,184.1,398.7,183.4,398.7 M176.6,401.3C176.6,401.3,176.6,401.4,176.6,401.3l-2.7,0.1
		c0,0-0.1,0-0.1-0.1v-1.1c0,0,0-0.1,0.1-0.1h2.6c0,0,0.1,0,0.1,0.1V401.3z M176.5,398.7h-2.6c-0.8,0-1.4,0.6-1.4,1.4v1.1
		c0,0.8,0.6,1.4,1.4,1.4h2.6c0.8,0,1.4-0.6,1.4-1.4v-1.1C177.9,399.4,177.3,398.7,176.5,398.7 M190.3,396.6
		C190.3,396.6,190.2,396.7,190.3,396.6l-2.7,0.1c0,0-0.1,0-0.1-0.1v-1.1c0,0,0-0.1,0.1-0.1h2.6c0,0,0.1,0,0.1,0.1V396.6z
		 M190.2,394.1h-2.6c-0.8,0-1.4,0.6-1.4,1.4v1.1c0,0.8,0.6,1.4,1.4,1.4h2.6c0.8,0,1.4-0.6,1.4-1.4v-1.1
		C191.6,394.7,191,394.1,190.2,394.1 M183.4,396.6C183.4,396.6,183.4,396.7,183.4,396.6l-2.7,0.1c0,0-0.1,0-0.1-0.1v-1.1
		c0,0,0-0.1,0.1-0.1h2.6c0,0,0.1,0,0.1,0.1V396.6z M183.4,394.1h-2.6c-0.8,0-1.4,0.6-1.4,1.4v1.1c0,0.8,0.6,1.4,1.4,1.4h2.6
		c0.8,0,1.4-0.6,1.4-1.4v-1.1C184.8,394.7,184.1,394.1,183.4,394.1 M176.6,396.6C176.6,396.6,176.6,396.7,176.6,396.6l-2.7,0.1
		c0,0-0.1,0-0.1-0.1v-1.1c0,0,0-0.1,0.1-0.1h2.6c0,0,0.1,0,0.1,0.1V396.6z M176.5,394.1h-2.6c-0.8,0-1.4,0.6-1.4,1.4v1.1
		c0,0.8,0.6,1.4,1.4,1.4h2.6c0.8,0,1.4-0.6,1.4-1.4v-1.1C177.9,394.7,177.3,394.1,176.5,394.1 M190.3,390.9c0,0.2-0.1,0.3-0.3,0.3
		h-15.9c-0.2,0-0.3-0.1-0.3-0.3v-4.6c0-0.2,0.1-0.3,0.3-0.3H190c0.2,0,0.3,0.1,0.3,0.3V390.9z M190,384.7h-15.9
		c-0.9,0-1.6,0.7-1.6,1.6v4.6c0,0.9,0.7,1.6,1.6,1.6H190c0.9,0,1.6-0.7,1.6-1.6v-4.6C191.6,385.4,190.9,384.7,190,384.7
		 M193.1,407.1c0,1.5-1.2,2.8-2.8,2.8h-16.6c-1.5,0-2.8-1.2-2.8-2.8v-22.3c0-1.5,1.2-2.8,2.8-2.8h16.6c1.5,0,2.8,1.2,2.8,2.8
		L193.1,407.1L193.1,407.1z M169.6,384.8V397c-0.1,0-0.2,0-0.2,0c-4.1-0.9-7.1-4.6-7.1-8.8c0-5,4-9,9-9c1.8,0,3.6,0.5,5,1.5h-2.7
		C171.5,380.7,169.6,382.6,169.6,384.8L169.6,384.8z M169.3,403.9l-0.3-0.7c-0.1-0.2-0.3-0.4-0.5-0.4c-1.9-0.4-3.8-1.1-5.4-2.2
		c-0.2-0.1-0.4-0.1-0.6-0.1l-2.6,1.2l-2-2l0.9-1.9l0.3-0.7c0.1-0.2,0.1-0.4-0.1-0.6c-1.1-1.6-1.9-3.5-2.2-5.4c0-0.2-0.2-0.4-0.4-0.5
		l-2.6-1v-2.8l2-0.8l0.7-0.3c0.2-0.1,0.4-0.3,0.4-0.5c0.4-1.9,1.1-3.8,2.2-5.4c0.1-0.2,0.1-0.4,0.1-0.6l-1.2-2.6l2-2l2.6,1.2
		c0.2,0.1,0.4,0.1,0.6-0.1c1.6-1.1,3.5-1.9,5.4-2.2c0.2,0,0.4-0.2,0.5-0.4l1-2.7h2.8l1,2.7c0.1,0.2,0.3,0.4,0.5,0.4
		c1.9,0.4,3.8,1.1,5.4,2.2c0.2,0.1,0.4,0.1,0.6,0.1l2.6-1.2l2,2l-0.9,1.9l-0.3,0.7c-0.1,0.2-0.1,0.4,0.1,0.6
		c0.2,0.3,0.4,0.6,0.5,0.8h-5.8c-1.9-1.8-4.4-2.9-7.1-2.9c-5.7,0-10.3,4.6-10.3,10.3c0,2.4,0.8,4.7,2.3,6.5c1.5,1.8,3.5,3.1,5.8,3.6
		c0.1,0,0.2,0,0.4,0.1v6.6L169.3,403.9z M190.4,380.7h-4.6c-0.2-0.4-0.5-0.9-0.7-1.3l1.2-2.7c0.1-0.2,0.1-0.5-0.1-0.7l-2.6-2.6
		c-0.2-0.2-0.5-0.2-0.7-0.1l-2.7,1.2c-1.6-1-3.4-1.8-5.2-2.2l-1.1-2.7c-0.1-0.3-0.3-0.4-0.6-0.4h-3.7c-0.3,0-0.5,0.2-0.6,0.4
		L168,372l-0.1,0.4c-1.9,0.4-3.6,1.1-5.2,2.2l-2.7-1.2c-0.2-0.1-0.5-0.1-0.7,0.1l-2.6,2.6c-0.2,0.2-0.2,0.5-0.1,0.7l1,2.3l0.2,0.4
		c-1,1.6-1.8,3.4-2.2,5.2l-2.7,1.1c-0.3,0.1-0.4,0.3-0.4,0.6v3.7c0,0.3,0.2,0.5,0.4,0.6l2.7,1.1c0.4,1.9,1.1,3.6,2.2,5.2l-1.2,2.7
		c-0.1,0.2-0.1,0.5,0.1,0.7l2.6,2.6c0.2,0.2,0.5,0.2,0.7,0.1l2.3-1l0.4-0.2c1.6,1,3.4,1.8,5.2,2.2l1.1,2.7c0.1,0.3,0.3,0.4,0.6,0.4
		c0,0,0.1,0,0.1,0c0,2.2,1.8,4.1,4.1,4.1h16.6c2.2,0,4.1-1.8,4.1-4.1v-22.3C194.4,382.6,192.6,380.7,190.4,380.7z"/>
	<path class="st0" d="M73.3,256L73.3,256l-5.7,0c-0.3,0-0.6-0.3-0.6-0.6l0-5.7c0-0.3,0.3-0.6,0.6-0.6h0c0.3,0,0.6,0.3,0.6,0.6l0,5.1
		l5.1,0c0.3,0,0.6,0.3,0.6,0.6C73.8,255.8,73.6,256,73.3,256z"/>
	<path class="st4" d="M73.3,256L73.3,256l-5.7,0c-0.3,0-0.6-0.3-0.6-0.6l0-5.7c0-0.3,0.3-0.6,0.6-0.6h0c0.3,0,0.6,0.3,0.6,0.6l0,5.1
		l5.1,0c0.3,0,0.6,0.3,0.6,0.6C73.8,255.8,73.6,256,73.3,256z"/>
	<path class="st0" d="M100.8,284.9c-0.1,0-0.2,0-0.3-0.1c-0.3-0.2-0.3-0.5-0.2-0.8c2.4-3.6,3.7-7.8,3.7-12.1
		c0-11.9-9.7-21.6-21.6-21.6c-5.1,0-10.1,1.8-14,5.2c-0.2,0.2-0.6,0.2-0.8-0.1c-0.2-0.2-0.2-0.6,0.1-0.8c4.1-3.5,9.4-5.4,14.8-5.4
		c12.5,0,22.8,10.2,22.8,22.8c0,4.6-1.3,9-3.9,12.7C101.2,284.8,101,284.9,100.8,284.9z"/>
	<path class="st4" d="M100.8,284.9c-0.1,0-0.2,0-0.3-0.1c-0.3-0.2-0.3-0.5-0.2-0.8c2.4-3.6,3.7-7.8,3.7-12.1
		c0-11.9-9.7-21.6-21.6-21.6c-5.1,0-10.1,1.8-14,5.2c-0.2,0.2-0.6,0.2-0.8-0.1c-0.2-0.2-0.2-0.6,0.1-0.8c4.1-3.5,9.4-5.4,14.8-5.4
		c12.5,0,22.8,10.2,22.8,22.8c0,4.6-1.3,9-3.9,12.7C101.2,284.8,101,284.9,100.8,284.9z"/>
	<path class="st0" d="M82.4,294.7c-12.5,0-22.8-10.2-22.8-22.8c0-4.6,1.3-9,3.9-12.7c0.2-0.3,0.5-0.3,0.8-0.2
		c0.3,0.2,0.3,0.5,0.2,0.8c-2.4,3.6-3.7,7.8-3.7,12.1c0,11.9,9.7,21.6,21.6,21.6c5.3,0,10.4-1.9,14.3-5.4c0.2-0.2,0.6-0.2,0.8,0
		c0.2,0.2,0.2,0.6,0,0.8C93.4,292.6,88,294.7,82.4,294.7z"/>
	<path class="st4" d="M82.4,294.7c-12.5,0-22.8-10.2-22.8-22.8c0-4.6,1.3-9,3.9-12.7c0.2-0.3,0.5-0.3,0.8-0.2
		c0.3,0.2,0.3,0.5,0.2,0.8c-2.4,3.6-3.7,7.8-3.7,12.1c0,11.9,9.7,21.6,21.6,21.6c5.3,0,10.4-1.9,14.3-5.4c0.2-0.2,0.6-0.2,0.8,0
		c0.2,0.2,0.2,0.6,0,0.8C93.4,292.6,88,294.7,82.4,294.7z"/>
	<path class="st0" d="M97.3,294.7c-0.3,0-0.6-0.3-0.6-0.6l0-5.1h-5.1c-0.3,0-0.6-0.3-0.6-0.6c0-0.3,0.3-0.6,0.6-0.6h5.7
		c0.3,0,0.6,0.3,0.6,0.6l0,5.7C97.8,294.4,97.6,294.7,97.3,294.7z"/>
	<path class="st4" d="M97.3,294.7c-0.3,0-0.6-0.3-0.6-0.6l0-5.1h-5.1c-0.3,0-0.6-0.3-0.6-0.6c0-0.3,0.3-0.6,0.6-0.6h5.7
		c0.3,0,0.6,0.3,0.6,0.6l0,5.7C97.8,294.4,97.6,294.7,97.3,294.7z"/>
	<path class="st0" d="M82.4,287.8c-0.3,0-0.6-0.3-0.6-0.6v-21c0-0.3,0.3-0.6,0.6-0.6c0.3,0,0.6,0.3,0.6,0.6v21
		C83,287.6,82.8,287.8,82.4,287.8z"/>
	<path class="st4" d="M82.4,287.8c-0.3,0-0.6-0.3-0.6-0.6v-21c0-0.3,0.3-0.6,0.6-0.6c0.3,0,0.6,0.3,0.6,0.6v21
		C83,287.6,82.8,287.8,82.4,287.8z"/>
	<path class="st0" d="M82.4,278.7c-2.2,0-4.3-1.1-5.5-2.9c-0.2-0.3-0.1-0.6,0.2-0.8c0.3-0.2,0.6-0.1,0.8,0.2c1,1.5,2.7,2.4,4.5,2.4
		c1.8,0,3.5-0.9,4.5-2.4c0.2-0.3,0.5-0.3,0.8-0.2c0.3,0.2,0.3,0.5,0.2,0.8C86.7,277.6,84.7,278.7,82.4,278.7z"/>
	<path class="st4" d="M82.4,278.7c-2.2,0-4.3-1.1-5.5-2.9c-0.2-0.3-0.1-0.6,0.2-0.8c0.3-0.2,0.6-0.1,0.8,0.2c1,1.5,2.7,2.4,4.5,2.4
		c1.8,0,3.5-0.9,4.5-2.4c0.2-0.3,0.5-0.3,0.8-0.2c0.3,0.2,0.3,0.5,0.2,0.8C86.7,277.6,84.7,278.7,82.4,278.7z"/>
	<path class="st0" d="M82.4,271.6c-1.6,0-3.1-0.8-3.9-2.1c-0.2-0.3-0.1-0.6,0.2-0.8c0.3-0.2,0.6-0.1,0.8,0.2c0.7,1,1.8,1.6,3,1.6
		c1.2,0,2.3-0.6,3-1.6c0.2-0.3,0.5-0.3,0.8-0.2c0.3,0.2,0.3,0.5,0.2,0.8C85.5,270.8,84,271.6,82.4,271.6z"/>
	<path class="st4" d="M82.4,271.6c-1.6,0-3.1-0.8-3.9-2.1c-0.2-0.3-0.1-0.6,0.2-0.8c0.3-0.2,0.6-0.1,0.8,0.2c0.7,1,1.8,1.6,3,1.6
		c1.2,0,2.3-0.6,3-1.6c0.2-0.3,0.5-0.3,0.8-0.2c0.3,0.2,0.3,0.5,0.2,0.8C85.5,270.8,84,271.6,82.4,271.6z"/>
	<path class="st0" d="M82.4,257.3c-1.8,1.6-10.2,9.1-10.2,15.8c0,5.6,4.6,10.2,10.2,10.2c5.6,0,10.2-4.6,10.2-10.2
		C92.6,266.4,84.3,258.9,82.4,257.3 M82.4,284.5c-6.2,0-11.3-5.1-11.3-11.3c0-8.1,10.5-16.7,11-17c0.2-0.2,0.5-0.2,0.7,0
		c0.4,0.4,11,8.9,11,17C93.8,279.4,88.7,284.5,82.4,284.5L82.4,284.5z"/>
	<path class="st4" d="M82.4,257.3c-1.8,1.6-10.2,9.1-10.2,15.8c0,5.6,4.6,10.2,10.2,10.2c5.6,0,10.2-4.6,10.2-10.2
		C92.6,266.4,84.3,258.9,82.4,257.3z M82.4,284.5c-6.2,0-11.3-5.1-11.3-11.3c0-8.1,10.5-16.7,11-17c0.2-0.2,0.5-0.2,0.7,0
		c0.4,0.4,11,8.9,11,17C93.8,279.4,88.7,284.5,82.4,284.5L82.4,284.5z"/>
	<path class="st0" d="M115.9,126.5c-4,0-7.2-3.3-7.2-7.2c0-4,3.3-7.2,7.2-7.2c4,0,7.2,3.3,7.2,7.2
		C123.1,123.3,119.9,126.5,115.9,126.5 M115.9,110.7c-4.8,0-8.7,3.9-8.7,8.7c0,4.7,3.9,8.6,8.7,8.6c4.8,0,8.7-3.9,8.7-8.7
		C124.6,114.6,120.7,110.7,115.9,110.7"/>
	<path class="st0" d="M115.4,108.9c0.3,0.3,0.7,0.3,1,0l3.9-3.9c0.3-0.3,0.3-0.7,0-1c-0.3-0.3-0.7-0.3-1,0l-2.7,2.7v-7.9
		c0-0.4-0.3-0.7-0.7-0.7s-0.7,0.3-0.7,0.7v7.9l-2.7-2.7c-0.3-0.3-0.7-0.3-1,0c-0.3,0.3-0.3,0.7,0,1L115.4,108.9z"/>
	<path class="st0" d="M137.1,119.2h-7.9l2.7-2.7c0.3-0.3,0.3-0.7,0-1c-0.3-0.3-0.7-0.3-1,0l-3.9,3.9c-0.3,0.3-0.3,0.7,0,1l3.9,3.9
		c0.3,0.3,0.7,0.3,1,0c0.3-0.3,0.3-0.7,0-1l-2.7-2.7h7.9c0.4,0,0.7-0.3,0.7-0.7C137.8,119.5,137.4,119.2,137.1,119.2"/>
	<path class="st0" d="M104.9,119.4l-3.9-3.9c-0.3-0.3-0.7-0.3-1,0c-0.3,0.3-0.3,0.7,0,1l2.7,2.7h-7.9c-0.4,0-0.7,0.3-0.7,0.7
		c0,0.4,0.3,0.7,0.7,0.7h7.9l-2.7,2.7c-0.3,0.3-0.3,0.7,0,1c0.3,0.3,0.7,0.3,1,0l3.9-3.9C105.2,120.1,105.2,119.7,104.9,119.4z"/>
	<path class="st0" d="M124,112.5h5.5c0.4,0,0.7-0.3,0.7-0.7c0-0.4-0.3-0.7-0.7-0.7h-3.8l5.6-5.6c0.3-0.3,0.3-0.7,0-1
		c-0.3-0.3-0.7-0.3-1,0l-5.6,5.6v-3.8c0-0.4-0.3-0.7-0.7-0.7c-0.4,0-0.7,0.3-0.7,0.7v5.5C123.3,112.1,123.6,112.5,124,112.5z"/>
	<path class="st0" d="M106,111h-3.8c-0.4,0-0.7,0.3-0.7,0.7c0,0.4,0.3,0.7,0.7,0.7l5.5,0c0.4,0,0.7-0.4,0.7-0.7v-5.5
		c0-0.4-0.3-0.7-0.7-0.7c-0.4,0-0.7,0.3-0.7,0.7v3.8l-5.6-5.6c-0.3-0.3-0.7-0.3-1,0c-0.3,0.3-0.3,0.7,0,1L106,111z"/>
	<path class="st0" d="M130.3,137.7c-0.8-5.2-5.3-9.1-10.7-9.1h-7.4c-5.4,0-9.8,3.9-10.7,9.1c-5.2-4.2-8.5-10.6-8.5-17.8
		c0-12.6,10.3-22.9,22.9-22.9c12.6,0,22.9,10.3,22.9,22.9C138.8,127.1,135.4,133.5,130.3,137.7z M102.8,138.7
		c0.4-4.9,4.4-8.6,9.3-8.6h7.5c4.9,0,8.9,3.8,9.3,8.6c-3.6,2.6-8.1,4.1-13,4.1C111,142.8,106.5,141.2,102.8,138.7L102.8,138.7z
		 M140.2,119.9c0-13.4-10.9-24.4-24.4-24.4c-13.4,0-24.4,10.9-24.4,24.4c0,13.4,10.9,24.4,24.4,24.4
		C129.3,144.3,140.2,133.3,140.2,119.9"/>
	<path class="st0" d="M386.7,142.8c-5.2,0-9.5-4.3-9.5-9.5c0-5.2,4.3-9.5,9.5-9.5c5.2,0,9.5,4.3,9.5,9.5
		C396.2,138.5,391.9,142.8,386.7,142.8 M386.7,122.7c-5.8,0-10.6,4.7-10.6,10.6c0,5.8,4.7,10.6,10.6,10.6c5.8,0,10.6-4.8,10.6-10.6
		C397.3,127.4,392.5,122.7,386.7,122.7"/>
	<path class="st4" d="M386.7,142.8c-5.2,0-9.5-4.3-9.5-9.5c0-5.2,4.3-9.5,9.5-9.5c5.2,0,9.5,4.3,9.5,9.5
		C396.2,138.5,391.9,142.8,386.7,142.8z M386.7,122.7c-5.8,0-10.6,4.7-10.6,10.6c0,5.8,4.7,10.6,10.6,10.6c5.8,0,10.6-4.8,10.6-10.6
		C397.3,127.4,392.5,122.7,386.7,122.7z"/>
	<path class="st0" d="M391.1,131c0.2-0.2,0.2-0.6,0-0.8c-0.2-0.2-0.6-0.2-0.8,0l-4.7,4.6l-2.5-2.5c-0.2-0.2-0.6-0.2-0.8,0
		c-0.2,0.2-0.2,0.6,0,0.8l3,3l0.3,0.1c0,0,0.1,0,0.1,0l0.1,0l0.3,0.4l-0.2-0.4L391.1,131z"/>
	<path class="st4" d="M391.1,131c0.2-0.2,0.2-0.6,0-0.8c-0.2-0.2-0.6-0.2-0.8,0l-4.7,4.6l-2.5-2.5c-0.2-0.2-0.6-0.2-0.8,0
		c-0.2,0.2-0.2,0.6,0,0.8l3,3l0.3,0.1c0,0,0.1,0,0.1,0l0.1,0l0.3,0.4l-0.2-0.4L391.1,131z"/>
	<path class="st0" d="M401.1,139.2c-0.6,1.5-0.3,3.2,0.9,4.4l2.1,2.1l-4.9,4.9l-2.1-2.1c-1.2-1.2-2.9-1.5-4.4-0.9
		c-1.5,0.6-2.5,2.1-2.5,3.7v2.9h-6.9v-2.9c0-1.7-1-3.1-2.5-3.7c-1.5-0.6-3.2-0.3-4.4,0.9l-2.1,2.1l-4.9-4.9l2.1-2.1
		c1.2-1.2,1.5-2.9,0.9-4.4c-0.6-1.5-2.1-2.5-3.7-2.5h-2.9v-6.9h2.9c1.7,0,3.1-1,3.7-2.5c0.6-1.5,0.3-3.2-0.9-4.4l-2.1-2.1l4.9-4.9
		l2.1,2.1c1.2,1.2,2.9,1.5,4.4,0.9c1.5-0.6,2.5-2.1,2.5-3.7v-2.9h6.9v2.9c0,1.7,1,3.1,2.5,3.7c1.5,0.6,3.2,0.3,4.4-0.9l2.1-2.1
		l4.9,4.9l-2.1,2.1c-1.2,1.2-1.5,2.9-0.9,4.4c0.6,1.5,2.1,2.5,3.7,2.5h2.9v6.9h-2.9C403.1,136.7,401.7,137.7,401.1,139.2
		 M408.3,137.8c0.3,0,0.5-0.2,0.5-0.5v-8c0-0.3-0.2-0.5-0.5-0.5h-3.5c-1.4,0-2.4-0.9-2.7-1.8c-0.4-0.9-0.4-2.2,0.6-3.2l2.5-2.5
		c0.1-0.1,0.2-0.2,0.2-0.4s-0.1-0.3-0.2-0.4l-5.7-5.7c-0.2-0.2-0.6-0.2-0.8,0l-2.5,2.5c-0.7,0.7-1.5,0.9-2.1,0.9
		c-0.4,0-0.8-0.1-1.1-0.2c-0.9-0.4-1.8-1.3-1.8-2.7v-3.5c0-0.3-0.2-0.5-0.5-0.5h-8c-0.3,0-0.5,0.2-0.5,0.5v3.5
		c0,1.4-0.9,2.4-1.8,2.7c-0.4,0.1-0.8,0.2-1.1,0.2c-0.5,0-1.3-0.2-2.1-0.9l-2.5-2.5c-0.2-0.2-0.6-0.2-0.8,0l-5.7,5.7
		c-0.2,0.2-0.2,0.6,0,0.8l2.5,2.5c1,1,1,2.3,0.6,3.2c-0.4,0.9-1.3,1.8-2.7,1.8h-3.5c-0.3,0-0.5,0.2-0.5,0.5v8c0,0.3,0.2,0.5,0.5,0.5
		h3.5c1.4,0,2.4,0.9,2.7,1.8c0.4,0.9,0.4,2.2-0.6,3.2l-2.5,2.5c-0.1,0.1-0.2,0.2-0.2,0.4c0,0.1,0.1,0.3,0.2,0.4l5.7,5.7
		c0.2,0.2,0.6,0.2,0.8,0l2.5-2.5c0.7-0.7,1.5-0.9,2.1-0.9c0.4,0,0.8,0.1,1.1,0.2c0.9,0.4,1.8,1.3,1.8,2.7v3.5c0,0.3,0.2,0.5,0.5,0.5
		h8c0.3,0,0.5-0.2,0.5-0.5v-3.5c0-1.4,0.9-2.4,1.8-2.7c0.4-0.1,0.8-0.2,1.1-0.2c0.5,0,1.3,0.2,2.1,0.9l2.5,2.5
		c0.2,0.2,0.6,0.2,0.8,0l5.7-5.7c0.2-0.2,0.2-0.6,0-0.8l-2.5-2.5c-1-1-1-2.3-0.6-3.2c0.4-0.9,1.3-1.8,2.7-1.8H408.3z"/>
	<path class="st4" d="M401.1,139.2c-0.6,1.5-0.3,3.2,0.9,4.4l2.1,2.1l-4.9,4.9l-2.1-2.1c-1.2-1.2-2.9-1.5-4.4-0.9
		c-1.5,0.6-2.5,2.1-2.5,3.7v2.9h-6.9v-2.9c0-1.7-1-3.1-2.5-3.7c-1.5-0.6-3.2-0.3-4.4,0.9l-2.1,2.1l-4.9-4.9l2.1-2.1
		c1.2-1.2,1.5-2.9,0.9-4.4c-0.6-1.5-2.1-2.5-3.7-2.5h-2.9v-6.9h2.9c1.7,0,3.1-1,3.7-2.5c0.6-1.5,0.3-3.2-0.9-4.4l-2.1-2.1l4.9-4.9
		l2.1,2.1c1.2,1.2,2.9,1.5,4.4,0.9c1.5-0.6,2.5-2.1,2.5-3.7v-2.9h6.9v2.9c0,1.7,1,3.1,2.5,3.7c1.5,0.6,3.2,0.3,4.4-0.9l2.1-2.1
		l4.9,4.9l-2.1,2.1c-1.2,1.2-1.5,2.9-0.9,4.4c0.6,1.5,2.1,2.5,3.7,2.5h2.9v6.9h-2.9C403.1,136.7,401.7,137.7,401.1,139.2z
		 M408.3,137.8c0.3,0,0.5-0.2,0.5-0.5v-8c0-0.3-0.2-0.5-0.5-0.5h-3.5c-1.4,0-2.4-0.9-2.7-1.8c-0.4-0.9-0.4-2.2,0.6-3.2l2.5-2.5
		c0.1-0.1,0.2-0.2,0.2-0.4s-0.1-0.3-0.2-0.4l-5.7-5.7c-0.2-0.2-0.6-0.2-0.8,0l-2.5,2.5c-0.7,0.7-1.5,0.9-2.1,0.9
		c-0.4,0-0.8-0.1-1.1-0.2c-0.9-0.4-1.8-1.3-1.8-2.7v-3.5c0-0.3-0.2-0.5-0.5-0.5h-8c-0.3,0-0.5,0.2-0.5,0.5v3.5
		c0,1.4-0.9,2.4-1.8,2.7c-0.4,0.1-0.8,0.2-1.1,0.2c-0.5,0-1.3-0.2-2.1-0.9l-2.5-2.5c-0.2-0.2-0.6-0.2-0.8,0l-5.7,5.7
		c-0.2,0.2-0.2,0.6,0,0.8l2.5,2.5c1,1,1,2.3,0.6,3.2c-0.4,0.9-1.3,1.8-2.7,1.8h-3.5c-0.3,0-0.5,0.2-0.5,0.5v8c0,0.3,0.2,0.5,0.5,0.5
		h3.5c1.4,0,2.4,0.9,2.7,1.8c0.4,0.9,0.4,2.2-0.6,3.2l-2.5,2.5c-0.1,0.1-0.2,0.2-0.2,0.4c0,0.1,0.1,0.3,0.2,0.4l5.7,5.7
		c0.2,0.2,0.6,0.2,0.8,0l2.5-2.5c0.7-0.7,1.5-0.9,2.1-0.9c0.4,0,0.8,0.1,1.1,0.2c0.9,0.4,1.8,1.3,1.8,2.7v3.5c0,0.3,0.2,0.5,0.5,0.5
		h8c0.3,0,0.5-0.2,0.5-0.5v-3.5c0-1.4,0.9-2.4,1.8-2.7c0.4-0.1,0.8-0.2,1.1-0.2c0.5,0,1.3,0.2,2.1,0.9l2.5,2.5
		c0.2,0.2,0.6,0.2,0.8,0l5.7-5.7c0.2-0.2,0.2-0.6,0-0.8l-2.5-2.5c-1-1-1-2.3-0.6-3.2c0.4-0.9,1.3-1.8,2.7-1.8H408.3z"/>
</g>
</svg>
