<?xml version="1.0" encoding="utf-8"?>
<!-- Generator: Adobe Illustrator 26.4.0, SVG Export Plug-In . SVG Version: 6.00 Build 0)  -->
<svg version="1.1" id="Layer_1" xmlns="http://www.w3.org/2000/svg" xmlns:xlink="http://www.w3.org/1999/xlink" x="0px" y="0px"
	 viewBox="0 0 150 150" style="enable-background:new 0 0 150 150;" xml:space="preserve">
<style type="text/css">
	.st0{fill:#9FCC3B;}
	.st1{fill:none;stroke:#FFFFFF;stroke-width:0.75;stroke-miterlimit:10;}
</style>
<g>
	<rect class="st0" width="150" height="150"/>
	<path class="st1" d="M38.4,44.3h12.8 M38.4,36.1H64 M70,96.1v18.4 M53.6,106.5v11.6 M25.3,132.3v-14.2h99.4v14.2 M76.7,87.2l9.1,7
		c1.6,1.2,3.7,1.5,5.5,0.8l10-3.8c1.4-0.5,2.4-1.6,2.8-3.1l5.1-16.4c0.9-2.8,3.7-4.4,6.4-3.7c3,0.8,4.8,3.9,3.9,6.9l-6.1,20.9
		c-0.4,1.4-1.4,2.5-2.7,3.1l-18.5,7.9c-1.4,0.6-2.3,2-2.3,3.6v7.8 M64,87.2l-16.6,9.3c-2.7,1.5-4.3,4.3-4.3,7.4v14.2 M70.4,88.5
		L70.4,88.5c-6.1,0-11.1-5.1-11.1-11.3v-4.7c0-6.3,5-11.3,11.1-11.3c6.1,0,11.1,5.1,11.1,11.3v4.7C81.5,83.5,76.5,88.5,70.4,88.5z
		 M70,26.7H32.3v26.1h8l10.8,11.9V52.8H70V26.7z"/>
</g>
</svg>
