<?xml version="1.0" encoding="utf-8"?>
<!-- Generator: Adobe Illustrator 26.4.0, SVG Export Plug-In . SVG Version: 6.00 Build 0)  -->
<svg version="1.1" id="Layer_1" xmlns="http://www.w3.org/2000/svg" xmlns:xlink="http://www.w3.org/1999/xlink" x="0px" y="0px"
	 viewBox="0 0 150 150" style="enable-background:new 0 0 150 150;" xml:space="preserve">
<style type="text/css">
	.st0{fill:#9FCC3B;}
	.st1{fill:none;stroke:#FFFFFF;stroke-width:0.75;stroke-miterlimit:10;}
</style>
<g>
	<rect y="0" class="st0" width="150" height="150"/>
	<path class="st1" d="M41.6,107.7c8,9.9,18.8,19.2,33.5,26.2c14.7-6.9,25.5-16.2,33.5-26.2 M124.6,78.8c5.9-16.2,6.3-29,6.3-29
		L75,16.3L19.2,49.9c0,0,0.4,13.8,7,31 M119.1,105.1V100c0-8.1-6.6-14.7-14.8-14.7h-3.7 M31.3,105.1V100c0-8.1,6.6-14.7,14.8-14.7
		h3.7 M49.8,105.1V100c0-8.1,6.6-14.7,14.8-14.7h21.3c8.2,0,14.8,6.6,14.8,14.7v5.1 M99,63c0-4.5,3.6-8.1,8.2-8.1
		c4.5,0,8.2,3.6,8.2,8.1c0,4.5-3.6,8.1-8.2,8.1C102.7,71.2,99,67.5,99,63z M34.9,63c0-4.5,3.6-8.1,8.2-8.1c4.5,0,8.2,3.6,8.2,8.1
		c0,4.5-3.6,8.1-8.2,8.1C38.6,71.2,34.9,67.5,34.9,63z M60.1,56.2c0-8.3,6.7-15,15-15c8.3,0,15,6.7,15,15c0,8.3-6.7,15-15,15
		C66.8,71.2,60.1,64.4,60.1,56.2z"/>
</g>
</svg>
