<?xml version="1.0" encoding="utf-8"?>
<!-- Generator: Adobe Illustrator 26.4.0, SVG Export Plug-In . SVG Version: 6.00 Build 0)  -->
<svg version="1.1" id="Layer_1" xmlns="http://www.w3.org/2000/svg" xmlns:xlink="http://www.w3.org/1999/xlink" x="0px" y="0px"
	 viewBox="0 0 150 150" style="enable-background:new 0 0 150 150;" xml:space="preserve">
<style type="text/css">
	.st0{fill:#9FCC3B;}
	.st1{fill:none;stroke:#FFFFFF;stroke-width:0.75;stroke-miterlimit:10;}
</style>
<g>
	<rect class="st0" width="150" height="150"/>
	<path class="st1" d="M76.7,104.4v4.9 M76.7,82.8v17.4 M97.9,98.5h22.5c7.1,0,12.8-6.2,12.8-13.8c0-12.7-9.7-23.1-21.5-23.1h-7.3
		c0.9-2.6,1.3-5.2,1.3-8c0-12.7-9.7-23.1-21.5-23.1c-8.2,0-15.5,5.3-19,12.9c-2.4-0.9-4.9-1.3-7.6-1.3c-11.8,0-21.4,9-21.6,20.3
		c-9.4,2.5-16.4,11.6-16.4,22.4c0,7.6,5.8,13.8,12.8,13.8h23.6 M93,97.6L76.7,69.7L60.1,97.9l-10.6,18.3h54.3L93,97.6z"/>
</g>
</svg>
