<?xml version="1.0" encoding="utf-8"?>
<!-- Generator: Adobe Illustrator 26.4.0, SVG Export Plug-In . SVG Version: 6.00 Build 0)  -->
<svg version="1.1" id="Layer_1" xmlns="http://www.w3.org/2000/svg" xmlns:xlink="http://www.w3.org/1999/xlink" x="0px" y="0px"
	 viewBox="0 0 150 150" style="enable-background:new 0 0 150 150;" xml:space="preserve">
<style type="text/css">
	.st0{fill:#9FCC3B;}
	.st1{fill:none;stroke:#FFFFFF;stroke-width:0.75;stroke-miterlimit:10;}
</style>
<g>
	<rect class="st0" width="150" height="150"/>
	<path class="st1" d="M64.7,33.7l7.3,6.9l16-13.3 M56.3,31.5c0-10.5,9-19.1,20-19.1c11,0,20,8.5,20,19.1c0,10.5-9,19.1-20,19.1
		C65.2,50.6,56.3,42.1,56.3,31.5z M72,104.8l22.7-19.9c-16,0.2-16.9-11.1-16.9-11.1h33.3v15.5l-14.8,33.1v16.3 M85.6,58v15.7 M72,58
		v26.8h-5.4 M58,58v26.8H48V74.3 M99,73.3V58H58L38.9,72.3v30.2l18.7,22.2v14.8"/>
</g>
</svg>
