<?xml version="1.0" encoding="utf-8"?>
<!-- Generator: Adobe Illustrator 26.4.0, SVG Export Plug-In . SVG Version: 6.00 Build 0)  -->
<svg version="1.1" id="Layer_1" xmlns="http://www.w3.org/2000/svg" xmlns:xlink="http://www.w3.org/1999/xlink" x="0px" y="0px"
	 viewBox="0 0 150 150" style="enable-background:new 0 0 150 150;" xml:space="preserve">
<style type="text/css">
	.st0{fill:#9FCC3B;}
	.st1{fill:none;stroke:#FFFFFF;stroke-width:0.75;stroke-miterlimit:10;}
</style>
<g>
	<rect class="st0" width="150" height="150"/>
	<path class="st1" d="M96.2,119.4H54c-3.1,0-5.5,2.6-5.5,5.7v6.5h53.2v-6.5C101.8,122,99.3,119.4,96.2,119.4z M83.8,119.4H66.2V98
		h17.6V119.4z M123.5,23.6l-6.1,6.2 M131.6,43.2H123 M85.4,24.1l6.1,6.2 M104.3,15.7v8.8 M93.9,46.2c-0.2-0.9-0.3-1.8-0.3-2.7
		c0-6.3,4.9-11.3,11-11.3c6.1,0,11,5.1,11,11.3c0,1.8-0.4,3.5-1.2,5.1 M30.9,75.1H119 M86.5,54.5L93.4,98 M63.4,54.5L56.5,98
		 M130.1,98l-20.8-43.5H40.7L19.9,98H130.1z"/>
</g>
</svg>
