<?xml version="1.0" encoding="utf-8"?>
<!-- Generator: Adobe Illustrator 26.4.0, SVG Export Plug-In . SVG Version: 6.00 Build 0)  -->
<svg version="1.1" id="Layer_1" xmlns="http://www.w3.org/2000/svg" xmlns:xlink="http://www.w3.org/1999/xlink" x="0px" y="0px"
	 viewBox="0 0 150 150" style="enable-background:new 0 0 150 150;" xml:space="preserve">
<style type="text/css">
	.st0{fill:#9FCC3B;}
	.st1{fill:none;stroke:#FFFFFF;stroke-width:0.75;stroke-miterlimit:10;}
</style>
<g>
	<rect class="st0" width="150" height="150"/>
	<path class="st1" d="M90.2,85.6c4.5,0.6,8.8,1.3,12.6,2.3 M117.8,94.1c4.4,2.8,6.9,6.2,6.9,9.7c0,10.5-22.2,19-49.7,19
		c-27.4,0-49.7-8.5-49.7-19c0-3.2,2.1-6.3,5.8-8.9 M46.1,88.3c4.2-1.1,8.8-2,13.8-2.6 M103.1,47.7l7.1,10.4l7.2-10.4 M103,40.7
		c0-3.9,3.3-7,7.3-7c4,0,7.3,3.1,7.3,7s-3.3,7-7.3,7C106.3,47.7,103,44.5,103,40.7z M117.8,97.9h-15v-20h15V97.9z M121.4,77.9H99.1
		v-25c0-2.9,2.4-5.2,5.4-5.2H116c3,0,5.4,2.3,5.4,5.2V77.9z M31.4,47.7l7.2,10.4l7.1-10.4 M31.3,40.7c0-3.9,3.3-7,7.3-7
		c4,0,7.3,3.1,7.3,7s-3.3,7-7.3,7C34.6,47.7,31.3,44.5,31.3,40.7z M46.1,97.9h-15v-20h15V97.9z M49.7,77.9H27.5v-25
		c0-2.9,2.4-5.2,5.4-5.2h11.4c3,0,5.4,2.3,5.4,5.2V77.9z M65.3,46.2L75,60.4l9.7-14.2 M65.1,36.7c0-5.3,4.4-9.5,9.9-9.5
		c5.5,0,9.9,4.3,9.9,9.5s-4.4,9.5-9.9,9.5C69.5,46.2,65.1,42,65.1,36.7z M85.2,114.6H64.8V87.3h20.4V114.6z M90.2,87.3H59.8V51.4
		c0-2.9,2.4-5.2,5.4-5.2h19.5c3,0,5.4,2.3,5.4,5.2V87.3z"/>
</g>
</svg>
