<?xml version="1.0" encoding="utf-8"?>
<!-- Generator: Adobe Illustrator 26.4.0, SVG Export Plug-In . SVG Version: 6.00 Build 0)  -->
<svg version="1.1" id="Layer_1" xmlns="http://www.w3.org/2000/svg" xmlns:xlink="http://www.w3.org/1999/xlink" x="0px" y="0px"
	 viewBox="0 0 150 150" style="enable-background:new 0 0 150 150;" xml:space="preserve">
<style type="text/css">
	.st0{fill:#9FCC3B;}
	.st1{fill:none;stroke:#FFFFFF;stroke-width:0.75;stroke-miterlimit:10;}
</style>
<g>
	<rect class="st0" width="150" height="150"/>
	<path class="st1" d="M102.1,113.5c-3.7,3.6-9.5,3.8-13,0.4c-3.5-3.4-9.3-3.2-13,0.4 M76.1,114.3c-3.7,3.6-9.5,3.8-13,0.4
		c-3.5-3.4-9.3-3.2-13,0.4 M50,115.1c-3.7,3.6-9.5,3.8-13,0.4c-3.5-3.4-9.3-3.3-13,0.4 M104.1,104.3c-3.7,3.6-9.5,3.8-13,0.4
		c-3.5-3.4-9.3-3.3-13,0.4 M78,105.1c-3.7,3.6-9.5,3.8-13,0.4c-3.5-3.4-9.3-3.2-13,0.4 M52,105.8c-3.7,3.6-9.5,3.8-13,0.4
		c-3.5-3.4-9.3-3.2-13,0.4 M115.7,40.9l-15.1,79.9 M89,103.2L89,103.2c-0.4-26.7,6.4-36.8,6.4-36.8h3.2V51.1H85v11.5
		c0,0-10.7,21.1-11.1,45 M46.9,108.8v-0.3C47,84.2,58,62.5,58,62.5V51.1h13.6v15.4h-3.2c0,0-6.8,10.2-6.4,37.1 M126.9,121.4V30.2
		H118l-2.3,10.7h-67V30.2h-8.2l-17.5,91.2"/>
</g>
</svg>
