<?xml version="1.0" encoding="utf-8"?>
<!-- Generator: Adobe Illustrator 26.4.0, SVG Export Plug-In . SVG Version: 6.00 Build 0)  -->
<svg version="1.1" id="Layer_1" xmlns="http://www.w3.org/2000/svg" xmlns:xlink="http://www.w3.org/1999/xlink" x="0px" y="0px"
	 viewBox="0 0 150 150" style="enable-background:new 0 0 150 150;" xml:space="preserve">
<style type="text/css">
	.st0{fill:#9FCC3B;}
	.st1{fill:none;stroke:#FFFFFF;stroke-width:0.75;stroke-miterlimit:10;}
</style>
<g>
	<rect x="-0.5" y="-0.2" class="st0" width="150.2" height="150.2"/>
	<path class="st1" d="M119.7,104.7c-9.3,14.4-25.1,23.9-43,23.9c-28.5,0-51.7-24-51.7-53.7"/>
	<path class="st1" d="M31.3,49.3C40,32.6,57.1,21.2,76.7,21.2c28.5,0,51.7,24.1,51.7,53.7"/>
	<path class="st1" d="M34.5,105.8c8-0.5,14.2-8.1,14.2-8.1c15,17.5,27.3,0,27.3,0c16.1,16.4,28.6,0,28.6,0c4.2,6.6,13,7.4,14.8,7.5
		c0.2,0,0.3,0,0.3,0"/>
	<path class="st1" d="M46.2,118.2c9.7,2.3,17.9-7.8,17.9-7.8c15,17.5,27.3,0,27.3,0c6.3,6.4,12,7.8,16.7,7.2"/>
	<path class="st1" d="M103,68.4c0,7.5-5.8,13.5-13,13.5c-7.2,0-13-6.1-13-13.5c0-7.5,12.3-24.6,12.3-24.6S103,61,103,68.4z"/>
	<path class="st1" d="M70.6,54.5c0,5.2-4.1,9.5-9.1,9.5c-5,0-9.1-4.2-9.1-9.5c0-5.2,8.6-17.2,8.6-17.2S70.6,49.2,70.6,54.5z"/>
	<polyline class="st1" points="135.3,69.5 128.3,77.9 121.3,69.5 	"/>
	<polyline class="st1" points="32.2,79.1 25.3,70.7 18.3,79.1 	"/>
</g>
</svg>
