<?xml version="1.0" encoding="utf-8"?>
<!-- Generator: Adobe Illustrator 26.4.0, SVG Export Plug-In . SVG Version: 6.00 Build 0)  -->
<svg version="1.1" id="Layer_1" xmlns="http://www.w3.org/2000/svg" xmlns:xlink="http://www.w3.org/1999/xlink" x="0px" y="0px"
	 viewBox="0 0 312.9 311.9" style="enable-background:new 0 0 312.9 311.9;" xml:space="preserve">
<style type="text/css">
	.st0{fill:#F36F26;}
	.st1{fill:#FFFFFF;}
	.st2{fill:#CD8C2A;}
	.st3{fill:#1E3768;}
</style>
<g>
	<rect class="st0" width="151.3" height="150.2"/>
	<path class="st1" d="M14,40.3c-1.1-1.2-1.7-3-1.7-5.5v-0.4h5.2c0,1.3,0.1,2.2,0.4,2.8c0.3,0.5,0.8,0.8,1.7,0.8c0.6,0,1-0.2,1.3-0.5
		c0.3-0.4,0.5-0.9,0.6-1.7c0.1-0.8,0.2-2,0.2-3.5v-2.9c-0.3,0.5-0.8,0.9-1.5,1.2c-0.7,0.3-1.4,0.4-2.3,0.4c-2.1,0-3.7-0.8-4.7-2.3
		c-1-1.6-1.5-3.6-1.5-6.2c0-6.4,2.6-9.6,7.8-9.6c2.7,0,4.6,0.8,5.9,2.4c1.3,1.6,1.9,3.9,1.9,6.7v10.4c0,3.1-0.6,5.5-1.7,7.2
		c-1.2,1.7-3.2,2.6-6.1,2.6C17,42.1,15.2,41.5,14,40.3 M21.8,25.4v-4.6c0-1.3-0.2-2.2-0.5-3c-0.3-0.7-0.9-1.1-1.7-1.1
		c-0.9,0-1.4,0.4-1.7,1.2c-0.3,0.8-0.4,2-0.4,3.8c0,1.2,0,2.2,0.1,2.8c0.1,0.6,0.3,1.2,0.6,1.6c0.3,0.4,0.8,0.6,1.5,0.6
		C20.5,26.7,21.2,26.3,21.8,25.4"/>
	<rect x="33.8" y="12.9" class="st1" width="2" height="10.9"/>
	<polygon class="st1" points="36.8,23.8 36.8,12.8 38.1,12.8 40.8,19 40.8,12.8 42.5,12.8 42.5,23.8 41.2,23.8 38.5,17.3 38.5,23.8 
			"/>
	<path class="st1" d="M43.4,23.8V12.9H46c0.7,0,1.2,0.1,1.7,0.2c0.4,0.1,0.8,0.3,1.1,0.6c0.3,0.3,0.5,0.6,0.6,1.1
		c0.1,0.4,0.2,0.9,0.2,1.5v3.9c0,0.6-0.1,1.2-0.2,1.6c-0.1,0.4-0.3,0.8-0.6,1.1c-0.3,0.3-0.6,0.5-1.1,0.7c-0.4,0.1-1,0.2-1.6,0.2
		H43.4z M45.5,22.4H46c0.2,0,0.4,0,0.5-0.1c0.2,0,0.3-0.1,0.4-0.1c0.1,0,0.2-0.1,0.3-0.2c0.1-0.1,0.1-0.2,0.2-0.3
		c0-0.1,0.1-0.2,0.1-0.4c0-0.2,0-0.3,0-0.5c0-0.1,0-0.3,0-0.6v-4c0-0.3,0-0.5,0-0.6c0-0.2,0-0.3-0.1-0.5c0-0.2-0.1-0.3-0.1-0.4
		c-0.1-0.1-0.2-0.2-0.3-0.2c-0.1-0.1-0.2-0.1-0.4-0.2c-0.2,0-0.3,0-0.6,0h-0.6V22.4z"/>
	<path class="st1" d="M53.3,23.9c-0.5,0-0.9-0.1-1.3-0.2c-0.4-0.1-0.7-0.3-0.9-0.5c-0.2-0.2-0.4-0.5-0.6-0.8c-0.1-0.3-0.2-0.7-0.3-1
		c-0.1-0.4-0.1-0.8-0.1-1.3v-7.3h2v7.5c0,0.3,0,0.5,0,0.7c0,0.2,0,0.4,0.1,0.6c0,0.2,0.1,0.4,0.2,0.5c0.1,0.1,0.2,0.2,0.3,0.3
		c0.1,0.1,0.3,0.1,0.5,0.1c0.2,0,0.4,0,0.5-0.1c0.1-0.1,0.3-0.2,0.3-0.3s0.1-0.3,0.2-0.5c0-0.2,0.1-0.4,0.1-0.6c0-0.2,0-0.4,0-0.7
		v-7.5h1.9v7.3c0,0.5,0,0.9-0.1,1.3c-0.1,0.4-0.2,0.7-0.3,1c-0.1,0.3-0.3,0.6-0.6,0.8c-0.2,0.2-0.5,0.4-0.9,0.5
		C54.2,23.9,53.8,23.9,53.3,23.9"/>
	<path class="st1" d="M60,23.9c-1.9,0-3-1.1-3.1-3.3l1.7-0.4c0,1.4,0.5,2.2,1.2,2.2c0.3,0,0.5-0.1,0.7-0.3c0.1-0.2,0.2-0.4,0.2-0.7
		c0-0.3-0.1-0.6-0.2-0.8c-0.1-0.3-0.2-0.5-0.4-0.6c-0.1-0.2-0.4-0.4-0.6-0.6l-1.4-1.2c-0.4-0.4-0.7-0.8-1-1.1
		C57.1,16.5,57,16,57,15.4c0-0.8,0.3-1.5,0.8-2c0.5-0.5,1.2-0.7,2.1-0.7c0.4,0,0.8,0,1.1,0.1c0.3,0.1,0.6,0.2,0.8,0.4
		c0.2,0.2,0.4,0.4,0.5,0.6c0.1,0.3,0.2,0.5,0.3,0.8c0.1,0.3,0.1,0.6,0.1,0.9L60.9,16c0-0.2,0-0.4,0-0.6c0-0.2-0.1-0.3-0.1-0.5
		c0-0.2-0.1-0.3-0.2-0.4c-0.1-0.1-0.2-0.2-0.3-0.3c-0.1-0.1-0.3-0.1-0.5-0.1c-0.3,0-0.5,0.1-0.7,0.3c-0.2,0.2-0.2,0.4-0.2,0.7
		c0,0.4,0.1,0.6,0.2,0.9c0.1,0.2,0.4,0.5,0.7,0.7l1.4,1.2c0.2,0.2,0.5,0.4,0.6,0.6c0.2,0.2,0.3,0.4,0.5,0.7c0.2,0.3,0.3,0.5,0.4,0.9
		c0.1,0.3,0.1,0.6,0.1,1c0,0.8-0.3,1.4-0.8,1.9C61.5,23.7,60.8,23.9,60,23.9"/>
	<polygon class="st1" points="64.3,23.8 64.3,14.3 62.5,14.3 62.5,12.8 68.1,12.8 68.1,14.3 66.3,14.3 66.3,23.8 	"/>
	<path class="st1" d="M68.3,23.8V12.9h2.5c0.6,0,1.1,0,1.5,0.1c0.4,0.1,0.8,0.3,1.1,0.5c0.3,0.2,0.5,0.5,0.7,0.9
		c0.2,0.4,0.2,0.8,0.2,1.4c0,0.7-0.1,1.2-0.3,1.7c-0.2,0.4-0.6,0.8-1,0.9l1.5,5.4h-2l-1.3-5h-0.9v5H68.3z M70.3,17.5h0.5
		c0.6,0,1-0.1,1.3-0.4c0.2-0.3,0.4-0.7,0.4-1.3c0-0.6-0.1-1-0.3-1.3c-0.2-0.3-0.6-0.4-1.2-0.4h-0.6V17.5z"/>
	<polygon class="st1" points="76.7,23.8 76.7,19.6 74.4,12.8 76.3,12.8 77.7,17.2 79,12.8 80.8,12.8 78.6,19.6 78.6,23.8 	"/>
	<path class="st1" d="M80.9,25.6L80.7,25c0.3-0.1,0.5-0.2,0.6-0.4c0.2-0.2,0.3-0.5,0.3-0.8h-1V22h1.8v1.7
		C82.4,24.8,81.9,25.4,80.9,25.6"/>
	<rect x="85.7" y="12.9" class="st1" width="2" height="10.9"/>
	<polygon class="st1" points="88.7,23.8 88.7,12.8 90.1,12.8 92.8,19 92.8,12.8 94.4,12.8 94.4,23.8 93.1,23.8 90.4,17.3 90.4,23.8 
			"/>
	<polygon class="st1" points="95.4,23.8 95.4,12.8 96.8,12.8 99.4,19 99.4,12.8 101.1,12.8 101.1,23.8 99.8,23.8 97.1,17.3 
		97.1,23.8 	"/>
	<path class="st1" d="M105.1,23.9c-1.1,0-2-0.3-2.4-0.9c-0.5-0.6-0.7-1.5-0.7-2.7v-4c0-0.6,0.1-1.1,0.2-1.5c0.1-0.4,0.3-0.8,0.5-1.1
		c0.2-0.3,0.6-0.6,1-0.7c0.4-0.2,0.9-0.2,1.5-0.2c1.1,0,1.9,0.3,2.4,0.9c0.5,0.6,0.7,1.5,0.7,2.7v4c0,0.6-0.1,1.1-0.2,1.5
		c-0.1,0.4-0.3,0.8-0.5,1.1c-0.2,0.3-0.6,0.6-1,0.7C106.1,23.8,105.6,23.9,105.1,23.9 M104.6,22.4c0.1,0.1,0.3,0.1,0.5,0.1
		c0.2,0,0.4,0,0.5-0.1c0.1-0.1,0.2-0.1,0.3-0.2c0.1-0.1,0.1-0.2,0.2-0.4c0-0.1,0.1-0.3,0.1-0.4c0-0.2,0-0.3,0-0.5v-5
		c0-0.3,0-0.5,0-0.7c0-0.2-0.1-0.3-0.2-0.5c-0.1-0.2-0.2-0.3-0.3-0.3c-0.2-0.1-0.4-0.1-0.6-0.1c-0.2,0-0.4,0-0.6,0.1
		c-0.2,0.1-0.3,0.2-0.3,0.3c-0.1,0.2-0.1,0.3-0.2,0.5c0,0.2,0,0.4,0,0.7v5c0,0.2,0,0.4,0,0.5c0,0.1,0,0.3,0.1,0.4
		c0,0.2,0.1,0.3,0.2,0.4C104.3,22.2,104.4,22.3,104.6,22.4"/>
	<polygon class="st1" points="110.7,23.8 108.5,12.8 110.3,12.8 111.7,20.5 113.1,12.8 114.9,12.8 112.7,23.8 	"/>
	<path class="st1" d="M114.4,23.8l2.2-10.9h2.1l2.2,10.9h-1.9l-0.4-2.5h-1.9l-0.5,2.5H114.4z M117,20h1.5l-0.7-4.5L117,20z"/>
	<polygon class="st1" points="122,23.8 122,14.3 120.2,14.3 120.2,12.8 125.8,12.8 125.8,14.3 124,14.3 124,23.8 	"/>
	<rect x="126.1" y="12.9" class="st1" width="2" height="10.9"/>
	<path class="st1" d="M132,23.9c-1.1,0-2-0.3-2.4-0.9c-0.5-0.6-0.7-1.5-0.7-2.7v-4c0-0.6,0.1-1.1,0.2-1.5c0.1-0.4,0.3-0.8,0.5-1.1
		c0.2-0.3,0.6-0.6,1-0.7c0.4-0.2,0.9-0.2,1.5-0.2c1.1,0,1.9,0.3,2.4,0.9c0.5,0.6,0.7,1.5,0.7,2.7v4c0,0.6-0.1,1.1-0.2,1.5
		c-0.1,0.4-0.3,0.8-0.5,1.1c-0.2,0.3-0.6,0.6-1,0.7C133.1,23.8,132.6,23.9,132,23.9 M131.5,22.4c0.1,0.1,0.3,0.1,0.5,0.1
		c0.2,0,0.4,0,0.5-0.1c0.1-0.1,0.2-0.1,0.3-0.2c0.1-0.1,0.1-0.2,0.2-0.4c0-0.1,0.1-0.3,0.1-0.4c0-0.2,0-0.3,0-0.5v-5
		c0-0.3,0-0.5,0-0.7c0-0.2-0.1-0.3-0.2-0.5c-0.1-0.2-0.2-0.3-0.3-0.3c-0.2-0.1-0.4-0.1-0.6-0.1c-0.2,0-0.4,0-0.6,0.1
		c-0.2,0.1-0.3,0.2-0.3,0.3c-0.1,0.2-0.1,0.3-0.2,0.5c0,0.2,0,0.4,0,0.7v5c0,0.2,0,0.4,0,0.5c0,0.1,0,0.3,0.1,0.4
		c0,0.2,0.1,0.3,0.2,0.4C131.3,22.2,131.4,22.3,131.5,22.4"/>
	<polygon class="st1" points="136,23.8 136,12.8 137.4,12.8 140,19 140,12.8 141.7,12.8 141.7,23.8 140.4,23.8 137.7,17.3 
		137.7,23.8 	"/>
	<path class="st1" d="M33.2,41.7l2.2-10.9h2.1l2.2,10.9h-1.9l-0.4-2.5h-1.9l-0.5,2.5H33.2z M35.7,37.8h1.5l-0.7-4.5L35.7,37.8z"/>
	<polygon class="st1" points="40.3,41.7 40.3,30.7 41.7,30.7 44.4,36.9 44.4,30.7 46,30.7 46,41.7 44.7,41.7 42,35.2 42,41.7 	"/>
	<path class="st1" d="M47.1,41.7V30.7h2.6c0.7,0,1.2,0.1,1.7,0.2c0.4,0.1,0.8,0.3,1.1,0.6c0.3,0.3,0.5,0.6,0.6,1.1
		c0.1,0.4,0.2,0.9,0.2,1.5v3.9c0,0.6-0.1,1.2-0.2,1.6c-0.1,0.4-0.3,0.8-0.6,1.1c-0.3,0.3-0.6,0.5-1.1,0.7c-0.4,0.1-1,0.2-1.6,0.2
		H47.1z M49.2,40.3h0.6c0.2,0,0.4,0,0.5-0.1c0.2,0,0.3-0.1,0.4-0.1c0.1,0,0.2-0.1,0.3-0.2c0.1-0.1,0.1-0.2,0.2-0.3
		c0-0.1,0.1-0.2,0.1-0.4c0-0.2,0-0.3,0-0.5c0-0.1,0-0.3,0-0.6v-4c0-0.3,0-0.5,0-0.6c0-0.2,0-0.3-0.1-0.5c0-0.2-0.1-0.3-0.1-0.4
		c-0.1-0.1-0.2-0.2-0.3-0.2c-0.1-0.1-0.2-0.1-0.4-0.2c-0.2,0-0.3,0-0.6,0h-0.6V40.3z"/>
	<rect x="57" y="30.7" class="st1" width="2" height="10.9"/>
	<polygon class="st1" points="60.1,41.7 60.1,30.7 61.5,30.7 64.2,36.9 64.2,30.7 65.9,30.7 65.9,41.7 64.6,41.7 61.8,35.2 
		61.8,41.7 	"/>
	<polygon class="st1" points="67,30.7 67,41.7 69,41.7 69,36.7 71,36.7 71,35.3 69,35.3 69,32.1 71.5,32.1 71.5,30.7 	"/>
	<path class="st1" d="M72.1,41.7V30.7h2.5c0.6,0,1.1,0,1.5,0.1c0.4,0.1,0.8,0.3,1.1,0.5c0.3,0.2,0.5,0.5,0.7,0.9
		c0.2,0.4,0.2,0.8,0.2,1.4c0,0.7-0.1,1.2-0.3,1.7c-0.2,0.4-0.6,0.8-1,0.9l1.5,5.4h-2l-1.3-5h-0.9v5H72.1z M74.1,35.4h0.5
		c0.6,0,1-0.1,1.3-0.4c0.2-0.3,0.4-0.7,0.4-1.3c0-0.6-0.1-1-0.3-1.3c-0.2-0.3-0.6-0.4-1.2-0.4h-0.6V35.4z"/>
	<path class="st1" d="M78.5,41.7l2.2-10.9h2.1l2.2,10.9h-1.9l-0.4-2.5h-1.9l-0.5,2.5H78.5z M81.1,37.8h1.5l-0.7-4.5L81.1,37.8z"/>
	<path class="st1" d="M88.4,41.8c-1.9,0-3-1.1-3.1-3.3l1.7-0.4c0,1.4,0.5,2.2,1.2,2.2c0.3,0,0.5-0.1,0.7-0.3
		c0.1-0.2,0.2-0.4,0.2-0.7c0-0.3-0.1-0.6-0.2-0.8c-0.1-0.3-0.2-0.5-0.4-0.6c-0.1-0.2-0.4-0.4-0.6-0.6L86.6,36
		c-0.4-0.4-0.7-0.8-1-1.1c-0.2-0.4-0.3-0.9-0.3-1.5c0-0.8,0.3-1.5,0.8-2c0.5-0.5,1.2-0.7,2.1-0.7c0.4,0,0.8,0,1.1,0.1
		c0.3,0.1,0.6,0.2,0.8,0.4c0.2,0.2,0.4,0.4,0.5,0.6c0.1,0.3,0.2,0.5,0.3,0.8c0.1,0.3,0.1,0.6,0.1,0.9l-1.7,0.3c0-0.2,0-0.4,0-0.6
		c0-0.2-0.1-0.3-0.1-0.5c0-0.2-0.1-0.3-0.2-0.4c-0.1-0.1-0.2-0.2-0.3-0.3c-0.1-0.1-0.3-0.1-0.5-0.1c-0.3,0-0.5,0.1-0.7,0.3
		s-0.2,0.4-0.2,0.7c0,0.4,0.1,0.6,0.2,0.9c0.1,0.2,0.4,0.5,0.7,0.7l1.4,1.2c0.2,0.2,0.5,0.4,0.6,0.6c0.2,0.2,0.3,0.4,0.5,0.7
		c0.2,0.3,0.3,0.5,0.4,0.9c0.1,0.3,0.1,0.6,0.1,1c0,0.8-0.3,1.4-0.8,1.9C89.9,41.6,89.2,41.8,88.4,41.8"/>
	<polygon class="st1" points="92.9,41.7 92.9,32.2 91.1,32.2 91.1,30.7 96.7,30.7 96.7,32.2 94.9,32.2 94.9,41.7 	"/>
	<path class="st1" d="M97,41.7V30.7h2.5c0.6,0,1.1,0,1.5,0.1c0.4,0.1,0.8,0.3,1.1,0.5c0.3,0.2,0.5,0.5,0.7,0.9
		c0.2,0.4,0.2,0.8,0.2,1.4c0,0.7-0.1,1.2-0.3,1.7c-0.2,0.4-0.6,0.8-1,0.9l1.5,5.4h-2l-1.3-5h-0.9v5H97z M99.1,35.4h0.5
		c0.6,0,1-0.1,1.3-0.4c0.2-0.3,0.4-0.7,0.4-1.3c0-0.6-0.1-1-0.3-1.3c-0.2-0.3-0.6-0.4-1.2-0.4h-0.6V35.4z"/>
	<path class="st1" d="M107.1,41.8c-0.5,0-0.9-0.1-1.3-0.2c-0.4-0.1-0.7-0.3-0.9-0.5c-0.2-0.2-0.4-0.5-0.6-0.8
		c-0.1-0.3-0.2-0.7-0.3-1c-0.1-0.4-0.1-0.8-0.1-1.3v-7.3h2v7.5c0,0.3,0,0.5,0,0.7c0,0.2,0,0.4,0.1,0.6s0.1,0.4,0.2,0.5
		c0.1,0.1,0.2,0.2,0.3,0.3c0.1,0.1,0.3,0.1,0.5,0.1c0.2,0,0.4,0,0.5-0.1c0.1-0.1,0.3-0.2,0.3-0.3c0.1-0.1,0.1-0.3,0.2-0.5
		c0-0.2,0.1-0.4,0.1-0.6c0-0.2,0-0.4,0-0.7v-7.5h1.9V38c0,0.5,0,0.9-0.1,1.3c-0.1,0.4-0.2,0.7-0.3,1c-0.1,0.3-0.3,0.6-0.6,0.8
		c-0.2,0.2-0.5,0.4-0.9,0.5C108,41.8,107.6,41.8,107.1,41.8"/>
	<path class="st1" d="M114.2,41.8c-0.5,0-0.9-0.1-1.3-0.2c-0.4-0.1-0.7-0.3-0.9-0.5c-0.2-0.2-0.4-0.5-0.6-0.8
		c-0.1-0.3-0.3-0.6-0.3-1c-0.1-0.4-0.1-0.8-0.1-1.2v-3.8c0-0.5,0-0.9,0.1-1.3c0.1-0.4,0.2-0.7,0.3-1c0.1-0.3,0.3-0.6,0.6-0.8
		c0.2-0.2,0.5-0.4,0.9-0.5c0.4-0.1,0.8-0.2,1.3-0.2c0.6,0,1,0.1,1.4,0.2c0.4,0.1,0.7,0.4,0.9,0.6c0.2,0.3,0.4,0.6,0.5,1
		c0.1,0.4,0.2,0.8,0.2,1.3v0.9h-1.9v-0.9c0-0.5,0-0.9-0.1-1.1c-0.1-0.4-0.4-0.6-0.8-0.6h-0.1c-0.2,0-0.3,0-0.4,0.1
		c-0.1,0-0.2,0.1-0.3,0.2c-0.1,0.1-0.1,0.2-0.2,0.3c0,0.1-0.1,0.2-0.1,0.4c0,0.2,0,0.3,0,0.4c0,0.1,0,0.3,0,0.5v4.6
		c0,0.6,0.1,1.1,0.2,1.4c0.2,0.3,0.5,0.4,0.9,0.4c0.1,0,0.3,0,0.4,0c0.1,0,0.2-0.1,0.3-0.1c0.1-0.1,0.1-0.1,0.2-0.2
		c0.1-0.1,0.1-0.2,0.1-0.3c0-0.1,0-0.2,0.1-0.3c0-0.1,0-0.3,0-0.4c0-0.1,0-0.2,0-0.4v-1h1.9v0.9c0,0.4,0,0.8-0.1,1.1
		c-0.1,0.3-0.2,0.6-0.3,0.9c-0.1,0.3-0.3,0.5-0.5,0.7c-0.2,0.2-0.5,0.3-0.9,0.4C115,41.8,114.6,41.8,114.2,41.8"/>
	<polygon class="st1" points="119.1,41.7 119.1,32.2 117.2,32.2 117.2,30.7 122.9,30.7 122.9,32.2 121.1,32.2 121.1,41.7 	"/>
	<path class="st1" d="M126.2,41.8c-0.5,0-0.9-0.1-1.3-0.2c-0.4-0.1-0.7-0.3-0.9-0.5c-0.2-0.2-0.4-0.5-0.6-0.8
		c-0.1-0.3-0.2-0.7-0.3-1c-0.1-0.4-0.1-0.8-0.1-1.3v-7.3h2v7.5c0,0.3,0,0.5,0,0.7c0,0.2,0,0.4,0.1,0.6c0,0.2,0.1,0.4,0.2,0.5
		c0.1,0.1,0.2,0.2,0.3,0.3c0.1,0.1,0.3,0.1,0.5,0.1c0.2,0,0.4,0,0.5-0.1c0.1-0.1,0.3-0.2,0.3-0.3c0.1-0.1,0.1-0.3,0.2-0.5
		c0-0.2,0.1-0.4,0.1-0.6c0-0.2,0-0.4,0-0.7v-7.5h1.9V38c0,0.5,0,0.9-0.1,1.3c-0.1,0.4-0.2,0.7-0.3,1c-0.1,0.3-0.3,0.6-0.6,0.8
		c-0.2,0.2-0.5,0.4-0.9,0.5C127.2,41.8,126.7,41.8,126.2,41.8"/>
	<path class="st1" d="M130.4,41.7V30.7h2.5c0.6,0,1.1,0,1.5,0.1c0.4,0.1,0.8,0.3,1.1,0.5c0.3,0.2,0.5,0.5,0.7,0.9
		c0.2,0.4,0.2,0.8,0.2,1.4c0,0.7-0.1,1.2-0.3,1.7c-0.2,0.4-0.6,0.8-1,0.9l1.5,5.4h-2l-1.3-5h-0.9v5H130.4z M132.4,35.4h0.5
		c0.6,0,1-0.1,1.3-0.4c0.2-0.3,0.4-0.7,0.4-1.3c0-0.6-0.1-1-0.3-1.3c-0.2-0.3-0.6-0.4-1.2-0.4h-0.6V35.4z"/>
	<polygon class="st1" points="137.4,30.7 137.4,41.7 142,41.7 142,40.3 139.4,40.3 139.4,36.7 141.5,36.7 141.5,35.3 139.4,35.3 
		139.4,32.1 142,32.1 142,30.7 	"/>
	<path class="st1" d="M114.5,98.8L96.4,88.5V67.8c0-0.4-0.2-0.8-0.6-1.1L77.1,56c-0.4-0.2-0.9-0.2-1.2,0L57.2,66.7
		c-0.4,0.2-0.6,0.6-0.6,1.1v20.7L38.5,98.8c-0.4,0.2-0.6,0.6-0.6,1.1v21.4c0,0.4,0.2,0.8,0.6,1.1L57.2,133c0.2,0.1,0.4,0.2,0.6,0.2
		c0.2,0,0.4-0.1,0.6-0.2l18.1-10.3L94.6,133c0.2,0.1,0.4,0.2,0.6,0.2s0.4-0.1,0.6-0.2l18.7-10.7c0.4-0.2,0.6-0.6,0.6-1.1V99.9
		C115.1,99.4,114.9,99,114.5,98.8 M75.3,119.2l-15-8.6l15-8.6V119.2z M92.7,89.2l-15,8.6V80.6L92.7,89.2z M75.3,97.7l-15-8.6l15-8.6
		V97.7z M79,99.9l16.2-9.3l16.2,9.3l-16.2,9.3L79,99.9z M93.9,87l-15-8.6l15-8.6V87z M74,78.5L59,87V69.9L74,78.5z M56.6,129.9
		l-16.2-9.3V102l16.2,9.3V129.9z M59,129.9v-17.2l15,8.6L59,129.9z M112.6,120.6l-16.2,9.3v-18.6l16.2-9.3V120.6z"/>
	<rect y="161.8" class="st2" width="151.3" height="150.2"/>
	<path class="st1" d="M13,180.5c-0.3,0.1-1,0.4-2.3,0.9c-1,0.3-1.6,0.6-1.9,0.7V178c0.8-0.3,1.8-0.8,2.9-1.4c1.1-0.6,2-1.2,2.4-1.7
		h4.3v28.6H13V180.5z"/>
	<path class="st1" d="M21.6,199.6l7-10.7l0.4-0.6c0.9-1.3,1.6-2.5,2-3.4c0.4-0.9,0.6-1.9,0.6-3c0-0.9-0.2-1.6-0.5-2.1
		c-0.4-0.5-0.9-0.7-1.5-0.7c-1,0-1.7,0.4-2.1,1.1c-0.4,0.8-0.6,1.8-0.6,3.1v1.3h-5.3v-1.4c0-2.7,0.6-4.8,1.9-6.4
		c1.3-1.6,3.3-2.3,6-2.3c2.5,0,4.4,0.6,5.7,2c1.3,1.3,1.9,3.2,1.9,5.6c0,1.1-0.2,2.1-0.5,3.1c-0.3,1-0.7,1.8-1.2,2.6
		c-0.5,0.8-1.2,1.8-2.1,3.2l-5.6,8.3h8.6v4.3H21.6V199.6z"/>
	<path class="st1" d="M48.1,185.7v-10.9h2.5c0.6,0,1.1,0,1.5,0.1c0.4,0.1,0.8,0.3,1.1,0.5c0.3,0.2,0.5,0.5,0.7,0.9
		c0.2,0.4,0.2,0.8,0.2,1.4c0,0.7-0.1,1.2-0.3,1.7c-0.2,0.4-0.6,0.8-1,0.9l1.5,5.4h-2l-1.3-5h-0.9v5H48.1z M50.2,179.5h0.5
		c0.6,0,1-0.1,1.3-0.4c0.3-0.3,0.4-0.7,0.4-1.3c0-0.6-0.1-1-0.3-1.3c-0.2-0.3-0.6-0.4-1.2-0.4h-0.6V179.5z"/>
	<polygon class="st1" points="55.3,174.8 55.3,185.7 59.9,185.7 59.9,184.4 57.3,184.4 57.3,180.8 59.4,180.8 59.4,179.3 
		57.3,179.3 57.3,176.2 59.9,176.2 59.9,174.8 	"/>
	<path class="st1" d="M63.5,185.9c-1.9,0-3-1.1-3.1-3.3l1.7-0.4c0,1.4,0.5,2.2,1.2,2.2c0.3,0,0.5-0.1,0.7-0.3
		c0.1-0.2,0.2-0.4,0.2-0.7c0-0.3-0.1-0.6-0.2-0.8c-0.1-0.3-0.2-0.5-0.4-0.6c-0.1-0.2-0.4-0.4-0.6-0.6l-1.4-1.2
		c-0.4-0.4-0.7-0.8-1-1.1c-0.2-0.4-0.3-0.9-0.3-1.5c0-0.8,0.3-1.5,0.8-2c0.5-0.5,1.2-0.7,2.1-0.7c0.4,0,0.8,0,1.1,0.1
		c0.3,0.1,0.6,0.2,0.8,0.4c0.2,0.2,0.4,0.4,0.5,0.6c0.1,0.3,0.2,0.5,0.3,0.8c0.1,0.3,0.1,0.6,0.1,0.9l-1.7,0.3c0-0.2,0-0.4,0-0.6
		c0-0.2-0.1-0.3-0.1-0.5c0-0.2-0.1-0.3-0.2-0.4c-0.1-0.1-0.2-0.2-0.3-0.3c-0.1-0.1-0.3-0.1-0.5-0.1c-0.3,0-0.5,0.1-0.7,0.3
		c-0.2,0.2-0.2,0.4-0.2,0.7c0,0.4,0.1,0.6,0.2,0.9c0.1,0.2,0.4,0.5,0.7,0.7l1.4,1.2c0.2,0.2,0.4,0.4,0.6,0.6
		c0.2,0.2,0.3,0.4,0.5,0.7c0.2,0.3,0.3,0.5,0.4,0.9c0.1,0.3,0.1,0.6,0.1,1c0,0.8-0.3,1.4-0.8,1.9C65,185.6,64.3,185.9,63.5,185.9"/>
	<path class="st1" d="M67,185.7v-10.9h3.2c1.9,0,2.8,1,2.8,3.1c0,1-0.3,1.8-0.8,2.2c-0.5,0.5-1.2,0.7-2.2,0.7h-1v4.9H67z M69,179.5
		h0.6c0.6,0,1-0.1,1.1-0.3c0.2-0.2,0.3-0.6,0.3-1.2c0-0.3,0-0.6,0-0.8s-0.1-0.4-0.2-0.5c-0.1-0.2-0.2-0.3-0.4-0.3
		c-0.2-0.1-0.5-0.1-0.8-0.1H69V179.5z"/>
	<path class="st1" d="M76.6,185.9c-1.1,0-2-0.3-2.4-0.9c-0.5-0.6-0.7-1.5-0.7-2.7v-4c0-0.6,0.1-1.1,0.2-1.5c0.1-0.4,0.3-0.8,0.5-1.1
		c0.2-0.3,0.6-0.5,1-0.7c0.4-0.2,0.9-0.2,1.5-0.2c1.1,0,1.9,0.3,2.4,0.9c0.5,0.6,0.7,1.5,0.7,2.7v4c0,0.6-0.1,1.1-0.2,1.5
		c-0.1,0.4-0.3,0.8-0.5,1.1c-0.3,0.3-0.6,0.6-1,0.7C77.7,185.8,77.2,185.9,76.6,185.9 M76.1,184.3c0.1,0.1,0.3,0.1,0.5,0.1
		c0.2,0,0.4,0,0.5-0.1c0.1-0.1,0.2-0.1,0.3-0.2c0.1-0.1,0.1-0.2,0.2-0.4c0-0.1,0.1-0.3,0.1-0.4c0-0.2,0-0.3,0-0.5v-5
		c0-0.3,0-0.5,0-0.7c0-0.2-0.1-0.3-0.2-0.5c-0.1-0.2-0.2-0.3-0.3-0.3c-0.2-0.1-0.4-0.1-0.6-0.1s-0.4,0-0.6,0.1
		c-0.2,0.1-0.3,0.2-0.3,0.3c-0.1,0.2-0.1,0.3-0.2,0.5c0,0.2,0,0.4,0,0.7v5c0,0.2,0,0.4,0,0.5c0,0.1,0,0.3,0.1,0.4
		c0,0.2,0.1,0.3,0.2,0.4C75.9,184.2,76,184.3,76.1,184.3"/>
	<polygon class="st1" points="80.9,185.7 80.9,174.8 82.3,174.8 85,181 85,174.8 86.6,174.8 86.6,185.7 85.3,185.7 82.6,179.2 
		82.6,185.7 	"/>
	<path class="st1" d="M90.7,185.9c-1.9,0-3-1.1-3.1-3.3l1.7-0.4c0,1.4,0.5,2.2,1.2,2.2c0.3,0,0.5-0.1,0.7-0.3
		c0.1-0.2,0.2-0.4,0.2-0.7c0-0.3-0.1-0.6-0.2-0.8c-0.1-0.3-0.2-0.5-0.4-0.6c-0.1-0.2-0.4-0.4-0.6-0.6l-1.4-1.2
		c-0.4-0.4-0.7-0.8-1-1.1c-0.2-0.4-0.3-0.9-0.3-1.5c0-0.8,0.3-1.5,0.8-2c0.5-0.5,1.2-0.7,2.1-0.7c0.4,0,0.8,0,1.1,0.1
		c0.3,0.1,0.6,0.2,0.8,0.4c0.2,0.2,0.4,0.4,0.5,0.6c0.1,0.3,0.2,0.5,0.3,0.8c0.1,0.3,0.1,0.6,0.1,0.9l-1.7,0.3c0-0.2,0-0.4,0-0.6
		c0-0.2-0.1-0.3-0.1-0.5c0-0.2-0.1-0.3-0.2-0.4c-0.1-0.1-0.2-0.2-0.3-0.3c-0.1-0.1-0.3-0.1-0.5-0.1c-0.3,0-0.5,0.1-0.7,0.3
		c-0.2,0.2-0.2,0.4-0.2,0.7c0,0.4,0.1,0.6,0.2,0.9c0.1,0.2,0.4,0.5,0.7,0.7l1.4,1.2c0.2,0.2,0.4,0.4,0.6,0.6
		c0.2,0.2,0.3,0.4,0.5,0.7c0.2,0.3,0.3,0.5,0.4,0.9c0.1,0.3,0.1,0.6,0.1,1c0,0.8-0.3,1.4-0.8,1.9C92.1,185.6,91.5,185.9,90.7,185.9"
		/>
	<rect x="94.2" y="174.8" class="st1" width="2" height="10.9"/>
	<path class="st1" d="M97.5,185.7v-10.9h2.7c0.5,0,1,0,1.3,0.1c0.4,0.1,0.7,0.2,1,0.4c0.3,0.2,0.5,0.5,0.7,0.9
		c0.1,0.4,0.2,0.8,0.2,1.3c0,1.4-0.5,2.1-1.6,2.3c0.7,0.1,1.1,0.4,1.5,0.8c0.3,0.4,0.5,1.1,0.5,1.9c0,1-0.3,1.8-0.8,2.4
		c-0.5,0.5-1.3,0.8-2.3,0.8H97.5z M99.5,179.3h0.6c0.6,0,1-0.1,1.2-0.4c0.2-0.3,0.3-0.7,0.3-1.3c0-0.3,0-0.6-0.1-0.7
		c-0.1-0.2-0.2-0.3-0.4-0.4c-0.2-0.1-0.4-0.2-0.6-0.2c-0.2,0-0.5,0-0.8,0h-0.3V179.3z M99.5,184.3h0.7c0.6,0,1-0.1,1.2-0.4
		c0.2-0.3,0.3-0.7,0.3-1.4c0-0.7-0.1-1.1-0.4-1.4c-0.3-0.3-0.7-0.4-1.3-0.4h-0.6V184.3z"/>
	<polygon class="st1" points="104.7,174.8 104.7,185.7 109.3,185.7 109.3,184.4 106.7,184.4 106.7,174.8 	"/>
	<polygon class="st1" points="110,174.8 110,185.7 114.6,185.7 114.6,184.4 112,184.4 112,180.8 114,180.8 114,179.3 112,179.3 
		112,176.2 114.6,176.2 114.6,174.8 	"/>
	<path class="st1" d="M51.1,203.8c-0.5,0-0.9-0.1-1.3-0.2c-0.4-0.1-0.7-0.3-0.9-0.5c-0.2-0.2-0.4-0.5-0.6-0.8
		c-0.1-0.3-0.3-0.6-0.3-1c-0.1-0.4-0.1-0.8-0.1-1.2v-3.8c0-0.5,0-0.9,0.1-1.3c0.1-0.4,0.2-0.7,0.3-1c0.1-0.3,0.3-0.6,0.6-0.8
		c0.2-0.2,0.5-0.4,0.9-0.5c0.4-0.1,0.8-0.2,1.3-0.2c0.6,0,1,0.1,1.4,0.2c0.4,0.1,0.7,0.4,0.9,0.6c0.2,0.3,0.4,0.6,0.5,1
		c0.1,0.4,0.2,0.8,0.2,1.3v0.9h-1.9v-0.9c0-0.5,0-0.9-0.1-1.1c-0.1-0.4-0.4-0.6-0.8-0.6h-0.1c-0.2,0-0.3,0-0.4,0.1s-0.2,0.1-0.3,0.2
		c-0.1,0.1-0.1,0.2-0.2,0.3c0,0.1-0.1,0.2-0.1,0.4c0,0.2,0,0.3,0,0.4c0,0.1,0,0.3,0,0.5v4.6c0,0.6,0.1,1.1,0.2,1.4
		c0.2,0.3,0.5,0.4,0.9,0.4c0.1,0,0.3,0,0.4,0c0.1,0,0.2-0.1,0.3-0.1c0.1-0.1,0.1-0.1,0.2-0.2c0.1-0.1,0.1-0.2,0.1-0.3
		c0-0.1,0-0.2,0.1-0.3c0-0.1,0-0.3,0-0.4c0-0.1,0-0.2,0-0.4v-1h1.9v0.9c0,0.4,0,0.8-0.1,1.1c-0.1,0.3-0.2,0.6-0.3,0.9
		c-0.1,0.3-0.3,0.5-0.5,0.7c-0.2,0.2-0.5,0.3-0.9,0.4C52,203.7,51.6,203.8,51.1,203.8"/>
	<path class="st1" d="M58.1,203.8c-1.1,0-2-0.3-2.4-0.9c-0.5-0.6-0.7-1.5-0.7-2.7v-4c0-0.6,0.1-1.1,0.2-1.5c0.1-0.4,0.3-0.8,0.5-1.1
		c0.2-0.3,0.6-0.6,1-0.7c0.4-0.2,0.9-0.2,1.5-0.2c1.1,0,1.9,0.3,2.4,0.9c0.5,0.6,0.7,1.5,0.7,2.7v4c0,0.6-0.1,1.1-0.2,1.5
		c-0.1,0.4-0.3,0.8-0.5,1.1c-0.3,0.3-0.6,0.6-1,0.7C59.1,203.7,58.6,203.8,58.1,203.8 M57.6,202.2c0.1,0.1,0.3,0.1,0.5,0.1
		c0.2,0,0.4,0,0.5-0.1c0.1-0.1,0.2-0.1,0.3-0.2c0.1-0.1,0.1-0.2,0.2-0.4c0-0.1,0.1-0.3,0.1-0.4c0-0.2,0-0.3,0-0.5v-5
		c0-0.3,0-0.5,0-0.7c0-0.2-0.1-0.3-0.2-0.5c-0.1-0.2-0.2-0.3-0.3-0.3c-0.2-0.1-0.4-0.1-0.6-0.1c-0.2,0-0.4,0-0.6,0.1
		c-0.2,0.1-0.3,0.2-0.3,0.3c-0.1,0.2-0.1,0.3-0.2,0.5c0,0.2,0,0.4,0,0.7v5c0,0.2,0,0.4,0,0.5c0,0.1,0,0.3,0.1,0.4
		c0,0.2,0.1,0.3,0.2,0.4C57.3,202.1,57.4,202.1,57.6,202.2"/>
	<polygon class="st1" points="62.3,203.6 62.3,192.7 63.7,192.7 66.4,198.9 66.4,192.7 68,192.7 68,203.6 66.7,203.6 64,197.1 
		64,203.6 	"/>
	<path class="st1" d="M72.1,203.8c-1.9,0-3-1.1-3.1-3.3l1.7-0.4c0,1.4,0.5,2.2,1.2,2.2c0.3,0,0.5-0.1,0.7-0.3
		c0.1-0.2,0.2-0.4,0.2-0.7c0-0.3-0.1-0.6-0.2-0.8c-0.1-0.3-0.2-0.5-0.4-0.6c-0.1-0.2-0.4-0.4-0.6-0.6l-1.4-1.2
		c-0.4-0.4-0.7-0.8-1-1.1c-0.2-0.4-0.3-0.9-0.3-1.5c0-0.8,0.3-1.5,0.8-2c0.5-0.5,1.2-0.7,2.1-0.7c0.4,0,0.8,0,1.1,0.1
		c0.3,0.1,0.6,0.2,0.8,0.4c0.2,0.2,0.4,0.4,0.5,0.6c0.1,0.3,0.2,0.5,0.3,0.8c0.1,0.3,0.1,0.6,0.1,0.9l-1.7,0.3c0-0.2,0-0.4,0-0.6
		c0-0.2-0.1-0.3-0.1-0.5c0-0.2-0.1-0.3-0.2-0.4c-0.1-0.1-0.2-0.2-0.3-0.3c-0.1-0.1-0.3-0.1-0.5-0.1c-0.3,0-0.5,0.1-0.7,0.3
		c-0.2,0.2-0.2,0.4-0.2,0.7c0,0.4,0.1,0.6,0.2,0.9c0.1,0.2,0.4,0.5,0.7,0.7l1.4,1.2c0.2,0.2,0.5,0.4,0.6,0.6
		c0.2,0.2,0.3,0.4,0.5,0.7c0.2,0.3,0.3,0.5,0.4,0.9c0.1,0.3,0.1,0.6,0.1,1c0,0.8-0.3,1.4-0.8,1.9C73.6,203.5,72.9,203.8,72.1,203.8"
		/>
	<path class="st1" d="M78.6,203.8c-0.5,0-0.9-0.1-1.3-0.2c-0.4-0.1-0.7-0.3-0.9-0.5c-0.2-0.2-0.4-0.5-0.6-0.8
		c-0.1-0.3-0.2-0.7-0.3-1c-0.1-0.4-0.1-0.8-0.1-1.3v-7.3h2v7.5c0,0.3,0,0.5,0,0.7c0,0.2,0,0.4,0.1,0.6c0,0.2,0.1,0.4,0.2,0.5
		c0.1,0.1,0.2,0.2,0.3,0.3c0.1,0.1,0.3,0.1,0.5,0.1c0.2,0,0.4,0,0.5-0.1c0.1-0.1,0.3-0.2,0.3-0.3c0.1-0.1,0.1-0.3,0.2-0.5
		c0-0.2,0.1-0.4,0.1-0.6c0-0.2,0-0.4,0-0.7v-7.5h1.9v7.3c0,0.5,0,0.9-0.1,1.3c-0.1,0.4-0.2,0.7-0.3,1c-0.1,0.3-0.3,0.6-0.6,0.8
		c-0.2,0.2-0.5,0.4-0.9,0.5C79.5,203.7,79.1,203.8,78.6,203.8"/>
	<polygon class="st1" points="82.8,203.6 83,192.7 85.1,192.7 86.7,200.4 88.3,192.7 90.3,192.7 90.5,203.6 89,203.6 88.9,196.1 
		87.3,203.6 86.1,203.6 84.5,196.1 84.4,203.6 	"/>
	<path class="st1" d="M91.7,203.6v-10.9h3.2c1.9,0,2.8,1,2.8,3.1c0,1-0.3,1.8-0.8,2.2c-0.5,0.5-1.2,0.7-2.2,0.7h-1v4.9H91.7z
		 M93.7,197.3h0.6c0.6,0,1-0.1,1.1-0.3c0.2-0.2,0.3-0.6,0.3-1.2c0-0.3,0-0.6,0-0.8c0-0.2-0.1-0.4-0.2-0.5c-0.1-0.2-0.2-0.3-0.4-0.3
		c-0.2-0.1-0.5-0.1-0.8-0.1h-0.7V197.3z"/>
	<polygon class="st1" points="99.5,203.6 99.5,194.2 97.6,194.2 97.6,192.7 103.3,192.7 103.3,194.2 101.5,194.2 101.5,203.6 	"/>
	<rect x="103.8" y="192.7" class="st1" width="2" height="10.9"/>
	<path class="st1" d="M110.1,203.8c-1.1,0-2-0.3-2.4-0.9c-0.5-0.6-0.7-1.5-0.7-2.7v-4c0-0.6,0.1-1.1,0.2-1.5
		c0.1-0.4,0.3-0.8,0.5-1.1c0.3-0.3,0.6-0.6,1-0.7c0.4-0.2,0.9-0.2,1.5-0.2c1.1,0,1.9,0.3,2.4,0.9c0.5,0.6,0.7,1.5,0.7,2.7v4
		c0,0.6-0.1,1.1-0.2,1.5c-0.1,0.4-0.3,0.8-0.5,1.1c-0.3,0.3-0.6,0.6-1,0.7C111.1,203.7,110.6,203.8,110.1,203.8 M109.6,202.2
		c0.1,0.1,0.3,0.1,0.5,0.1c0.2,0,0.4,0,0.5-0.1c0.1-0.1,0.2-0.1,0.3-0.2c0.1-0.1,0.1-0.2,0.2-0.4c0-0.1,0.1-0.3,0.1-0.4
		c0-0.2,0-0.3,0-0.5v-5c0-0.3,0-0.5,0-0.7c0-0.2-0.1-0.3-0.2-0.5c-0.1-0.2-0.2-0.3-0.3-0.3c-0.2-0.1-0.4-0.1-0.6-0.1
		c-0.2,0-0.4,0-0.6,0.1c-0.2,0.1-0.3,0.2-0.3,0.3c-0.1,0.2-0.1,0.3-0.2,0.5c0,0.2,0,0.4,0,0.7v5c0,0.2,0,0.4,0,0.5
		c0,0.1,0,0.3,0.1,0.4c0,0.2,0.1,0.3,0.2,0.4C109.3,202.1,109.4,202.1,109.6,202.2"/>
	<polygon class="st1" points="114.3,203.6 114.3,192.7 115.7,192.7 118.4,198.9 118.4,192.7 120,192.7 120,203.6 118.7,203.6 
		116,197.1 116,203.6 	"/>
	<path class="st1" d="M47.6,221.5l2.2-10.9h2.1l2.2,10.9h-1.9l-0.4-2.5h-1.9l-0.5,2.5H47.6z M50.1,217.7h1.5l-0.7-4.5L50.1,217.7z"
		/>
	<polygon class="st1" points="54.8,221.5 54.8,210.6 56.2,210.6 58.9,216.8 58.9,210.6 60.6,210.6 60.6,221.5 59.2,221.5 56.5,215 
		56.5,221.5 	"/>
	<path class="st1" d="M61.8,221.5v-10.9h2.6c0.7,0,1.2,0.1,1.7,0.2c0.4,0.1,0.8,0.3,1.1,0.6c0.3,0.3,0.5,0.6,0.6,1.1
		c0.1,0.4,0.2,0.9,0.2,1.5v3.9c0,0.6-0.1,1.2-0.2,1.6c-0.1,0.4-0.3,0.8-0.6,1.1c-0.3,0.3-0.6,0.5-1.1,0.7c-0.4,0.1-1,0.2-1.6,0.2
		H61.8z M63.8,220.1h0.6c0.2,0,0.4,0,0.5-0.1c0.2,0,0.3-0.1,0.4-0.1c0.1,0,0.2-0.1,0.3-0.2c0.1-0.1,0.1-0.2,0.2-0.3
		c0-0.1,0.1-0.2,0.1-0.4c0-0.2,0-0.3,0-0.5c0-0.1,0-0.3,0-0.6v-4c0-0.3,0-0.5,0-0.6c0-0.2,0-0.3-0.1-0.5c0-0.2-0.1-0.3-0.1-0.4
		c-0.1-0.1-0.2-0.2-0.3-0.2c-0.1-0.1-0.2-0.1-0.4-0.2c-0.2,0-0.3,0-0.6,0h-0.6V220.1z"/>
	<path class="st1" d="M71.8,221.5v-10.9H75c1.9,0,2.8,1,2.8,3.1c0,1-0.3,1.8-0.8,2.2c-0.5,0.5-1.2,0.7-2.2,0.7h-1v4.9H71.8z
		 M73.9,215.2h0.6c0.6,0,1-0.1,1.1-0.3c0.2-0.2,0.3-0.6,0.3-1.2c0-0.3,0-0.6,0-0.8c0-0.2-0.1-0.4-0.2-0.5c-0.1-0.2-0.2-0.3-0.4-0.3
		c-0.2-0.1-0.5-0.1-0.8-0.1h-0.7V215.2z"/>
	<path class="st1" d="M78.5,221.5v-10.9H81c0.6,0,1.1,0,1.5,0.1c0.4,0.1,0.8,0.3,1.1,0.5c0.3,0.2,0.5,0.5,0.7,0.9
		c0.2,0.4,0.2,0.8,0.2,1.4c0,0.7-0.1,1.2-0.3,1.7c-0.2,0.4-0.6,0.8-1,0.9l1.5,5.4h-2l-1.3-5h-0.9v5H78.5z M80.5,215.2H81
		c0.6,0,1-0.1,1.3-0.4c0.3-0.3,0.4-0.7,0.4-1.3c0-0.6-0.1-1-0.3-1.3c-0.2-0.3-0.6-0.4-1.2-0.4h-0.6V215.2z"/>
	<path class="st1" d="M88.6,221.6c-1.1,0-2-0.3-2.4-0.9c-0.5-0.6-0.7-1.5-0.7-2.7v-4c0-0.6,0.1-1.1,0.2-1.5c0.1-0.4,0.3-0.8,0.5-1.1
		c0.3-0.3,0.6-0.6,1-0.7c0.4-0.2,0.9-0.2,1.5-0.2c1.1,0,1.9,0.3,2.4,0.9c0.5,0.6,0.7,1.5,0.7,2.7v4c0,0.6-0.1,1.1-0.2,1.5
		c-0.1,0.4-0.3,0.8-0.5,1.1c-0.3,0.3-0.6,0.6-1,0.7C89.7,221.6,89.2,221.6,88.6,221.6 M88.1,220.1c0.1,0.1,0.3,0.1,0.5,0.1
		c0.2,0,0.4,0,0.5-0.1c0.1-0.1,0.2-0.1,0.3-0.2c0.1-0.1,0.1-0.2,0.2-0.4c0-0.1,0.1-0.3,0.1-0.4c0-0.2,0-0.3,0-0.5v-5
		c0-0.3,0-0.5,0-0.7c0-0.2-0.1-0.3-0.2-0.5c-0.1-0.2-0.2-0.3-0.3-0.3c-0.2-0.1-0.4-0.1-0.6-0.1c-0.2,0-0.4,0-0.6,0.1
		c-0.2,0.1-0.3,0.2-0.3,0.3c-0.1,0.2-0.1,0.3-0.2,0.5c0,0.2,0,0.4,0,0.7v5c0,0.2,0,0.4,0,0.5c0,0.1,0,0.3,0.1,0.4
		c0,0.2,0.1,0.3,0.2,0.4C87.9,219.9,88,220,88.1,220.1"/>
	<path class="st1" d="M92.9,221.5v-10.9h2.6c0.7,0,1.2,0.1,1.7,0.2c0.4,0.1,0.8,0.3,1.1,0.6c0.3,0.3,0.5,0.6,0.6,1.1
		c0.1,0.4,0.2,0.9,0.2,1.5v3.9c0,0.6-0.1,1.2-0.2,1.6c-0.1,0.4-0.3,0.8-0.6,1.1c-0.3,0.3-0.6,0.5-1.1,0.7c-0.4,0.1-1,0.2-1.6,0.2
		H92.9z M94.9,220.1h0.6c0.2,0,0.4,0,0.5-0.1c0.2,0,0.3-0.1,0.4-0.1c0.1,0,0.2-0.1,0.3-0.2c0.1-0.1,0.1-0.2,0.2-0.3
		c0-0.1,0.1-0.2,0.1-0.4c0-0.2,0-0.3,0-0.5c0-0.1,0-0.3,0-0.6v-4c0-0.3,0-0.5,0-0.6c0-0.2,0-0.3-0.1-0.5c0-0.2-0.1-0.3-0.1-0.4
		c-0.1-0.1-0.2-0.2-0.3-0.2c-0.1-0.1-0.2-0.1-0.4-0.2c-0.2,0-0.3,0-0.6,0h-0.6V220.1z"/>
	<path class="st1" d="M103,221.6c-0.5,0-0.9-0.1-1.3-0.2c-0.4-0.1-0.7-0.3-0.9-0.5c-0.2-0.2-0.4-0.5-0.6-0.8c-0.1-0.3-0.2-0.7-0.3-1
		c-0.1-0.4-0.1-0.8-0.1-1.3v-7.3h2v7.5c0,0.3,0,0.5,0,0.7c0,0.2,0,0.4,0.1,0.6c0,0.2,0.1,0.4,0.2,0.5c0.1,0.1,0.2,0.2,0.3,0.3
		c0.1,0.1,0.3,0.1,0.5,0.1c0.2,0,0.4,0,0.5-0.1c0.1-0.1,0.3-0.2,0.3-0.3c0.1-0.1,0.1-0.3,0.2-0.5c0-0.2,0.1-0.4,0.1-0.6
		c0-0.2,0-0.4,0-0.7v-7.5h1.9v7.3c0,0.5,0,0.9-0.1,1.3c-0.1,0.4-0.2,0.7-0.3,1c-0.1,0.3-0.3,0.6-0.6,0.8c-0.2,0.2-0.5,0.4-0.9,0.5
		C103.9,221.6,103.5,221.6,103,221.6"/>
	<path class="st1" d="M110.2,221.6c-0.5,0-0.9-0.1-1.3-0.2c-0.4-0.1-0.7-0.3-0.9-0.5c-0.2-0.2-0.4-0.5-0.6-0.8
		c-0.1-0.3-0.3-0.6-0.3-1c-0.1-0.4-0.1-0.8-0.1-1.2v-3.8c0-0.5,0-0.9,0.1-1.3c0.1-0.4,0.2-0.7,0.3-1c0.1-0.3,0.3-0.6,0.6-0.8
		c0.2-0.2,0.5-0.4,0.9-0.5c0.4-0.1,0.8-0.2,1.3-0.2c0.6,0,1,0.1,1.4,0.2c0.4,0.1,0.7,0.4,0.9,0.6c0.2,0.3,0.4,0.6,0.5,1
		c0.1,0.4,0.2,0.8,0.2,1.3v0.9h-1.9v-0.9c0-0.5,0-0.9-0.1-1.1c-0.1-0.4-0.4-0.6-0.8-0.6h-0.1c-0.2,0-0.3,0-0.4,0.1
		c-0.1,0-0.2,0.1-0.3,0.2c-0.1,0.1-0.1,0.2-0.2,0.3c0,0.1-0.1,0.2-0.1,0.4c0,0.2,0,0.3,0,0.4c0,0.1,0,0.3,0,0.5v4.6
		c0,0.6,0.1,1.1,0.2,1.4c0.2,0.3,0.5,0.4,0.9,0.4c0.1,0,0.3,0,0.4,0c0.1,0,0.2-0.1,0.3-0.1c0.1-0.1,0.1-0.1,0.2-0.2
		c0.1-0.1,0.1-0.2,0.1-0.3c0-0.1,0-0.2,0.1-0.3c0-0.1,0-0.3,0-0.4c0-0.1,0-0.2,0-0.4v-1h1.9v0.9c0,0.4,0,0.8-0.1,1.1
		c-0.1,0.3-0.2,0.6-0.3,0.9c-0.1,0.3-0.3,0.5-0.5,0.7c-0.2,0.2-0.5,0.3-0.9,0.4C111.1,221.6,110.7,221.6,110.2,221.6"/>
	<polygon class="st1" points="115.3,221.5 115.3,212 113.4,212 113.4,210.6 119.1,210.6 119.1,212 117.3,212 117.3,221.5 	"/>
	<rect x="119.6" y="210.6" class="st1" width="2" height="10.9"/>
	<path class="st1" d="M125.9,221.6c-1.1,0-2-0.3-2.4-0.9c-0.5-0.6-0.7-1.5-0.7-2.7v-4c0-0.6,0.1-1.1,0.2-1.5
		c0.1-0.4,0.3-0.8,0.5-1.1c0.2-0.3,0.6-0.6,1-0.7c0.4-0.2,0.9-0.2,1.5-0.2c1.1,0,1.9,0.3,2.4,0.9c0.5,0.6,0.7,1.5,0.7,2.7v4
		c0,0.6-0.1,1.1-0.2,1.5c-0.1,0.4-0.3,0.8-0.5,1.1c-0.2,0.3-0.6,0.6-1,0.7C126.9,221.6,126.4,221.6,125.9,221.6 M125.4,220.1
		c0.1,0.1,0.3,0.1,0.5,0.1c0.2,0,0.4,0,0.5-0.1c0.1-0.1,0.2-0.1,0.3-0.2c0.1-0.1,0.1-0.2,0.2-0.4c0-0.1,0.1-0.3,0.1-0.4
		c0-0.2,0-0.3,0-0.5v-5c0-0.3,0-0.5,0-0.7c0-0.2-0.1-0.3-0.2-0.5c-0.1-0.2-0.2-0.3-0.3-0.3c-0.2-0.1-0.4-0.1-0.6-0.1
		c-0.2,0-0.4,0-0.6,0.1c-0.2,0.1-0.3,0.2-0.3,0.3c-0.1,0.2-0.1,0.3-0.2,0.5c0,0.2,0,0.4,0,0.7v5c0,0.2,0,0.4,0,0.5
		c0,0.1,0,0.3,0.1,0.4c0,0.2,0.1,0.3,0.2,0.4C125.1,219.9,125.2,220,125.4,220.1"/>
	<polygon class="st1" points="130.1,221.5 130.1,210.6 131.5,210.6 134.2,216.8 134.2,210.6 135.8,210.6 135.8,221.5 134.5,221.5 
		131.8,215 131.8,221.5 	"/>
	<path class="st1" d="M114.2,239.7c-6.7-5.3-15.6-5.4-18.9-4.6l-0.4,0.1c-3.8,0.9-9.7,2.3-16.7,11c0,0-0.1,0.1-0.1,0.1l-0.1,0.1
		c-0.1,0.1-0.1,0.2-0.1,0.3c0,0.1,0,0.2,0.1,0.3l0.2,0.3c0.9,1.5,2,3.3,2.9,5.1c0,0,0,0,0,0.1c0.1,0.2,0.3,0.3,0.5,0.3
		c0.2,0,0.3-0.1,0.4-0.2c0-0.1,0.1-0.1,0.1-0.2c6.2-8.5,11.1-9.7,14.4-10.5l0.4-0.1c1.7-0.4,8.2-0.4,12.9,3.3
		c3.7,2.9,5.5,7.4,5.5,13.6c0,10.3-5.1,14.4-9.3,15.9c-6.6,2.4-12.9-0.8-12.9-0.8l-0.3-0.1c-3.6-1.6-9-4.8-14.1-14.9
		c-10.2-20.4-18.8-22.3-24.5-23.6l-0.3-0.1c-2.6-0.6-11.5-1-18.6,4.6c-3.7,2.9-8.1,8.6-8.1,19c0,6.4,1.3,10.6,4.7,15
		c0.7,1,8.3,10.7,23,7.9c2.3-0.4,5.5-1.6,9-4.2l3.2,2.9c0.2,0.2,0.6,0.2,0.7,0c0.1-0.1,0.1-0.2,0.1-0.3v0l2.3-14.2v-0.2
		c0-0.1-0.1-0.3-0.2-0.4c-0.1-0.1-0.2-0.1-0.3-0.1l-0.1,0l-0.2,0l-13.7,3.8l-0.3,0c-0.1,0-0.2,0.1-0.3,0.2c-0.2,0.2-0.2,0.5,0,0.7
		l0.2,0.1l3.1,2.8c-2,1.3-3.7,1.9-5,2.1c-10.6,2-15.8-4.9-16-5.2l-0.1-0.1c-2.5-3.2-3.3-5.9-3.3-10.8c0-6.2,1.8-10.7,5.4-13.6
		c4.6-3.6,10.9-3.7,12.7-3.2l0.3,0.1c4.6,1,11,2.5,19.8,19.9c4.6,9.1,10.3,15,17.4,18.1c0.9,0.5,5.3,2.5,10.9,2.5
		c2.4,0,5-0.4,7.6-1.3c4.2-1.5,13.8-6.8,13.8-22.4C122.4,248.3,118,242.6,114.2,239.7"/>
	<rect x="162.8" class="st3" width="150.1" height="150.5"/>
	<path class="st1" d="M175.9,18.8c-0.3,0.1-1,0.4-2.3,0.9c-1,0.3-1.6,0.6-1.9,0.7v-4.1c0.8-0.3,1.8-0.8,2.9-1.4
		c1.1-0.6,2-1.2,2.4-1.7h4.3v28.7h-5.5V18.8z"/>
	<polygon class="st1" points="192.4,17.3 184.6,17.3 184.6,13.1 197.7,13.1 197.7,16.7 191.7,41.8 186.4,41.8 	"/>
	<path class="st1" d="M210.8,24v-11h3.1c1.9,0,2.8,1,2.8,3.1c0,1-0.3,1.8-0.8,2.2c-0.5,0.5-1.2,0.7-2.2,0.7h-1V24H210.8z
		 M212.8,17.7h0.6c0.6,0,0.9-0.1,1.1-0.3c0.2-0.2,0.3-0.6,0.3-1.2c0-0.3,0-0.6,0-0.8c0-0.2-0.1-0.4-0.2-0.5
		c-0.1-0.1-0.2-0.3-0.4-0.3c-0.2-0.1-0.5-0.1-0.8-0.1h-0.6V17.7z"/>
	<path class="st1" d="M216.4,24l2.2-11h2.1l2.2,11h-1.9l-0.4-2.5h-1.9l-0.4,2.5H216.4z M218.9,20.2h1.5l-0.7-4.5L218.9,20.2z"/>
	<path class="st1" d="M223.7,24v-11h2.5c0.6,0,1.1,0,1.5,0.1c0.4,0.1,0.8,0.3,1.1,0.5c0.3,0.2,0.5,0.5,0.7,0.9
		c0.2,0.4,0.2,0.9,0.2,1.4c0,0.7-0.1,1.2-0.3,1.7c-0.2,0.4-0.5,0.8-1,0.9l1.5,5.4h-2l-1.3-5h-0.9v5H223.7z M225.7,17.8h0.5
		c0.6,0,1-0.1,1.3-0.4c0.2-0.3,0.4-0.7,0.4-1.3c0-0.6-0.1-1-0.3-1.3c-0.2-0.3-0.6-0.4-1.2-0.4h-0.6V17.8z"/>
	<polygon class="st1" points="232,24 232,14.5 230.1,14.5 230.1,13.1 235.7,13.1 235.7,14.5 233.9,14.5 233.9,24 	"/>
	<polygon class="st1" points="236.3,24 236.3,13.1 237.7,13.1 240.3,19.3 240.3,13.1 242,13.1 242,24 240.7,24 238,17.5 238,24 	"/>
	<polygon class="st1" points="243.3,13.1 243.3,24 247.9,24 247.9,22.7 245.3,22.7 245.3,19 247.4,19 247.4,17.6 245.3,17.6 
		245.3,14.5 247.9,14.5 247.9,13.1 	"/>
	<path class="st1" d="M248.8,24v-11h2.5c0.6,0,1.1,0,1.5,0.1c0.4,0.1,0.8,0.3,1.1,0.5c0.3,0.2,0.5,0.5,0.7,0.9
		c0.2,0.4,0.2,0.9,0.2,1.4c0,0.7-0.1,1.2-0.3,1.7c-0.2,0.4-0.5,0.8-1,0.9L255,24h-2l-1.3-5h-0.9v5H248.8z M250.8,17.8h0.5
		c0.6,0,1-0.1,1.3-0.4c0.2-0.3,0.4-0.7,0.4-1.3c0-0.6-0.1-1-0.3-1.3c-0.2-0.3-0.6-0.4-1.2-0.4h-0.6V17.8z"/>
	<path class="st1" d="M258.7,24.2c-1.9,0-2.9-1.1-3-3.3l1.7-0.4c0,1.4,0.5,2.2,1.2,2.2c0.3,0,0.5-0.1,0.7-0.3
		c0.1-0.2,0.2-0.4,0.2-0.7c0-0.3-0.1-0.6-0.2-0.8c-0.1-0.3-0.2-0.5-0.4-0.6c-0.1-0.2-0.3-0.4-0.6-0.6l-1.4-1.3
		c-0.4-0.4-0.7-0.8-0.9-1.1c-0.2-0.4-0.3-0.9-0.3-1.5c0-0.9,0.2-1.5,0.7-2c0.5-0.5,1.2-0.7,2.1-0.7c0.4,0,0.8,0,1.1,0.1
		c0.3,0.1,0.6,0.2,0.8,0.4c0.2,0.2,0.4,0.4,0.5,0.7c0.1,0.3,0.2,0.5,0.3,0.8c0.1,0.3,0.1,0.6,0.1,0.9l-1.7,0.3c0-0.2,0-0.4,0-0.6
		c0-0.2-0.1-0.3-0.1-0.5c0-0.2-0.1-0.3-0.2-0.4c-0.1-0.1-0.2-0.2-0.3-0.3c-0.1-0.1-0.3-0.1-0.5-0.1c-0.3,0-0.5,0.1-0.7,0.3
		c-0.2,0.2-0.2,0.4-0.2,0.7c0,0.3,0.1,0.6,0.2,0.9c0.1,0.2,0.4,0.5,0.6,0.7l1.4,1.2c0.2,0.2,0.4,0.4,0.6,0.6
		c0.2,0.2,0.3,0.4,0.5,0.7c0.2,0.3,0.3,0.6,0.4,0.9c0.1,0.3,0.1,0.6,0.1,1c0,0.8-0.3,1.4-0.8,1.9C260.2,23.9,259.6,24.2,258.7,24.2"
		/>
	<polygon class="st1" points="262.4,24 262.4,13.1 264.4,13.1 264.4,17.7 266.6,17.7 266.6,13.1 268.6,13.1 268.6,24 266.6,24 
		266.6,19.1 264.4,19.1 264.4,24 	"/>
	<rect x="270" y="13.1" class="st1" width="2" height="11"/>
	<path class="st1" d="M273.3,24v-11h3.1c1.9,0,2.8,1,2.8,3.1c0,1-0.3,1.8-0.8,2.2c-0.5,0.5-1.2,0.7-2.2,0.7h-1V24H273.3z
		 M275.3,17.7h0.6c0.6,0,0.9-0.1,1.1-0.3c0.2-0.2,0.3-0.6,0.3-1.2c0-0.3,0-0.6,0-0.8c0-0.2-0.1-0.4-0.2-0.5
		c-0.1-0.1-0.2-0.3-0.4-0.3c-0.2-0.1-0.5-0.1-0.8-0.1h-0.6V17.7z"/>
	<path class="st1" d="M282.8,24.2c-1.9,0-2.9-1.1-3-3.3l1.7-0.4c0,1.4,0.5,2.2,1.2,2.2c0.3,0,0.5-0.1,0.7-0.3
		c0.1-0.2,0.2-0.4,0.2-0.7c0-0.3-0.1-0.6-0.2-0.8c-0.1-0.3-0.2-0.5-0.4-0.6c-0.1-0.2-0.3-0.4-0.6-0.6l-1.4-1.3
		c-0.4-0.4-0.7-0.8-0.9-1.1c-0.2-0.4-0.3-0.9-0.3-1.5c0-0.9,0.3-1.5,0.7-2c0.5-0.5,1.2-0.7,2.1-0.7c0.4,0,0.8,0,1.1,0.1
		c0.3,0.1,0.6,0.2,0.8,0.4c0.2,0.2,0.4,0.4,0.5,0.7c0.1,0.3,0.2,0.5,0.3,0.8c0.1,0.3,0.1,0.6,0.1,0.9l-1.7,0.3c0-0.2,0-0.4,0-0.6
		c0-0.2-0.1-0.3-0.1-0.5c0-0.2-0.1-0.3-0.2-0.4c-0.1-0.1-0.2-0.2-0.3-0.3c-0.1-0.1-0.3-0.1-0.5-0.1c-0.3,0-0.5,0.1-0.7,0.3
		c-0.2,0.2-0.2,0.4-0.2,0.7c0,0.3,0.1,0.6,0.2,0.9c0.1,0.2,0.4,0.5,0.6,0.7l1.4,1.2c0.2,0.2,0.4,0.4,0.6,0.6
		c0.2,0.2,0.3,0.4,0.5,0.7c0.2,0.3,0.3,0.6,0.4,0.9c0.1,0.3,0.1,0.6,0.1,1c0,0.8-0.3,1.4-0.8,1.9C284.3,23.9,283.6,24.2,282.8,24.2"
		/>
	<polygon class="st1" points="210.8,31 210.8,42 212.8,42 212.8,37 214.8,37 214.8,35.6 212.8,35.6 212.8,32.4 215.3,32.4 215.3,31 
			"/>
	<path class="st1" d="M218.9,42.1c-1.1,0-1.9-0.3-2.4-0.9c-0.5-0.6-0.7-1.5-0.7-2.7v-4c0-0.6,0.1-1.1,0.2-1.5
		c0.1-0.4,0.3-0.8,0.5-1.1c0.2-0.3,0.6-0.5,1-0.7c0.4-0.2,0.9-0.2,1.5-0.2c1.1,0,1.9,0.3,2.4,0.9c0.5,0.6,0.7,1.5,0.7,2.7v4
		c0,0.6-0.1,1.1-0.2,1.5c-0.1,0.4-0.3,0.8-0.5,1.1c-0.2,0.3-0.6,0.6-1,0.7C220,42,219.5,42.1,218.9,42.1 M218.4,40.5
		c0.1,0.1,0.3,0.1,0.5,0.1c0.2,0,0.4,0,0.5-0.1c0.1-0.1,0.2-0.1,0.3-0.2c0.1-0.1,0.1-0.2,0.2-0.4c0-0.2,0.1-0.3,0.1-0.5
		c0-0.1,0-0.3,0-0.5v-5c0-0.3,0-0.5,0-0.7c0-0.2-0.1-0.3-0.2-0.5c-0.1-0.2-0.2-0.3-0.3-0.3c-0.2-0.1-0.3-0.1-0.6-0.1
		c-0.2,0-0.4,0-0.6,0.1c-0.2,0.1-0.3,0.2-0.3,0.3c-0.1,0.2-0.1,0.3-0.2,0.5c0,0.2,0,0.4,0,0.7v5c0,0.2,0,0.4,0,0.5
		c0,0.2,0,0.3,0.1,0.5c0,0.1,0.1,0.3,0.2,0.4C218.2,40.4,218.3,40.5,218.4,40.5"/>
	<path class="st1" d="M223.1,42V31h2.5c0.6,0,1.1,0,1.5,0.1c0.4,0.1,0.8,0.3,1.1,0.5c0.3,0.2,0.5,0.5,0.7,0.9
		c0.2,0.4,0.2,0.8,0.2,1.4c0,0.7-0.1,1.3-0.3,1.7c-0.2,0.4-0.5,0.8-1,1l1.5,5.4h-2l-1.3-5h-0.9v5H223.1z M225.1,35.7h0.5
		c0.6,0,1-0.1,1.3-0.4c0.2-0.3,0.4-0.7,0.4-1.3c0-0.6-0.1-1-0.3-1.3c-0.2-0.3-0.6-0.4-1.2-0.4h-0.6V35.7z"/>
	<polygon class="st1" points="234.1,42 234.1,32.5 232.3,32.5 232.3,31 237.9,31 237.9,32.5 236.1,32.5 236.1,42 	"/>
	<polygon class="st1" points="238.4,42 238.4,31 240.4,31 240.4,35.6 242.6,35.6 242.6,31 244.6,31 244.6,42 242.6,42 242.6,37 
		240.4,37 240.4,42 	"/>
	<polygon class="st1" points="245.9,31 245.9,42 250.5,42 250.5,40.6 247.8,40.6 247.8,37 249.9,37 249.9,35.6 247.8,35.6 
		247.8,32.4 250.4,32.4 250.4,31 	"/>
	<path class="st1" d="M256.8,42.1c-1,0-1.8-0.3-2.2-1c-0.5-0.6-0.7-1.6-0.7-2.8v-3.6c0-0.6,0-1.2,0.1-1.6c0.1-0.5,0.3-0.9,0.5-1.2
		c0.2-0.3,0.6-0.6,1-0.8c0.4-0.2,0.9-0.3,1.5-0.3c1.1,0,1.9,0.3,2.3,0.8c0.5,0.5,0.7,1.3,0.7,2.4v0.5h-1.9v-0.6c0-0.2,0-0.4,0-0.6
		c0-0.2,0-0.3-0.1-0.5c0-0.2-0.1-0.3-0.2-0.4c-0.1-0.1-0.2-0.2-0.3-0.2c-0.1,0-0.3-0.1-0.5-0.1c-0.1,0-0.3,0-0.4,0.1
		c-0.1,0-0.2,0.1-0.3,0.1c-0.1,0.1-0.1,0.1-0.2,0.2c-0.1,0.1-0.1,0.2-0.1,0.3c0,0.1,0,0.2-0.1,0.4c0,0.2,0,0.3,0,0.4
		c0,0.1,0,0.3,0,0.4v4.4c0,0.7,0.1,1.1,0.2,1.4c0.2,0.3,0.5,0.5,0.9,0.5c0.2,0,0.4,0,0.6-0.1c0.2-0.1,0.3-0.2,0.4-0.4
		c0.1-0.2,0.2-0.4,0.2-0.6c0-0.2,0.1-0.5,0.1-0.9v-0.9h-1.2v-1.3h3V42h-1.3l-0.1-1.1C258.4,41.7,257.7,42.1,256.8,42.1"/>
	<path class="st1" d="M264.2,42.1c-1.1,0-1.9-0.3-2.4-0.9c-0.5-0.6-0.7-1.5-0.7-2.7v-4c0-0.6,0.1-1.1,0.2-1.5
		c0.1-0.4,0.3-0.8,0.5-1.1c0.2-0.3,0.6-0.5,1-0.7c0.4-0.2,0.9-0.2,1.5-0.2c1.1,0,1.9,0.3,2.4,0.9c0.5,0.6,0.7,1.5,0.7,2.7v4
		c0,0.6-0.1,1.1-0.2,1.5c-0.1,0.4-0.3,0.8-0.5,1.1c-0.2,0.3-0.6,0.6-1,0.7C265.3,42,264.8,42.1,264.2,42.1 M263.7,40.5
		c0.1,0.1,0.3,0.1,0.5,0.1c0.2,0,0.4,0,0.5-0.1c0.1-0.1,0.2-0.1,0.3-0.2c0.1-0.1,0.1-0.2,0.2-0.4c0-0.2,0.1-0.3,0.1-0.5
		c0-0.1,0-0.3,0-0.5v-5c0-0.3,0-0.5,0-0.7c0-0.2-0.1-0.3-0.2-0.5c-0.1-0.2-0.2-0.3-0.3-0.3c-0.2-0.1-0.3-0.1-0.6-0.1
		c-0.2,0-0.4,0-0.6,0.1c-0.2,0.1-0.3,0.2-0.3,0.3c-0.1,0.2-0.1,0.3-0.2,0.5c0,0.2,0,0.4,0,0.7v5c0,0.2,0,0.4,0,0.5
		c0,0.2,0,0.3,0.1,0.5c0,0.1,0.1,0.3,0.2,0.4C263.5,40.4,263.6,40.5,263.7,40.5"/>
	<path class="st1" d="M267.8,42l2.2-11h2.1l2.2,11h-1.9l-0.4-2.5h-1.9l-0.4,2.5H267.8z M270.4,38.1h1.5l-0.7-4.5L270.4,38.1z"/>
	<polygon class="st1" points="275,31 275,42 279.6,42 279.6,40.6 277,40.6 277,31 	"/>
	<path class="st1" d="M283,42.1c-1.9,0-2.9-1.1-3-3.3l1.7-0.4c0,1.4,0.5,2.2,1.2,2.2c0.3,0,0.5-0.1,0.7-0.3c0.1-0.2,0.2-0.4,0.2-0.8
		c0-0.3-0.1-0.6-0.2-0.8c-0.1-0.3-0.2-0.5-0.4-0.6c-0.1-0.2-0.3-0.4-0.6-0.6l-1.4-1.3c-0.4-0.4-0.7-0.8-0.9-1.1s-0.3-0.9-0.3-1.5
		c0-0.9,0.3-1.5,0.7-2c0.5-0.5,1.2-0.7,2.1-0.7c0.4,0,0.8,0,1.1,0.1c0.3,0.1,0.6,0.2,0.8,0.4c0.2,0.2,0.4,0.4,0.5,0.7
		c0.1,0.3,0.2,0.5,0.3,0.8c0.1,0.3,0.1,0.6,0.1,0.9l-1.7,0.3c0-0.2,0-0.4,0-0.6c0-0.2-0.1-0.3-0.1-0.5c0-0.2-0.1-0.3-0.2-0.4
		c-0.1-0.1-0.2-0.2-0.3-0.3c-0.1-0.1-0.3-0.1-0.5-0.1c-0.3,0-0.5,0.1-0.7,0.3s-0.2,0.4-0.2,0.7c0,0.3,0.1,0.6,0.2,0.9
		c0.1,0.2,0.4,0.5,0.6,0.7l1.4,1.2c0.2,0.2,0.4,0.4,0.6,0.6c0.2,0.2,0.3,0.4,0.5,0.7c0.2,0.3,0.3,0.6,0.4,0.9c0.1,0.3,0.1,0.6,0.1,1
		c0,0.8-0.3,1.4-0.8,1.9C284.5,41.8,283.9,42.1,283,42.1"/>
	<path class="st1" d="M276.2,91.3c0-10.6-8.4-19.3-18.9-19.7c-2.7-7.6-10-13.1-18.5-13.1c-8.5,0-15.8,5.5-18.5,13.1
		c-10.5,0.4-18.9,9.1-18.9,19.7c0,6.3,3,11.9,7.6,15.5c-0.5,1.7-0.8,3.6-0.8,5.5c0,10.9,8.8,19.7,19.6,19.7c4.1,0,7.9-1.3,11.1-3.4
		c3.1,2.1,6.9,3.3,10.9,3.3c10.8,0,19.6-8.8,19.6-19.7c0-1.9-0.3-3.7-0.7-5.4C273.2,103.2,276.2,97.6,276.2,91.3 M254.4,78.2
		c0,7.9-5.8,14.4-13.4,15.5c-0.1-0.8-0.2-1.6-0.2-2.4c0-7.9,5.8-14.4,13.4-15.5C254.3,76.6,254.4,77.4,254.4,78.2 M238.8,123.5
		c-2.9-2.9-4.8-6.9-4.8-11.3c0-4.3,1.8-8.3,4.6-11.1c2.9,2.9,4.8,6.9,4.8,11.3C243.4,116.7,241.7,120.6,238.8,123.5 M223.3,75.8
		c7.5,1.1,13.4,7.7,13.4,15.5c0,0.8-0.1,1.6-0.2,2.4c-7.6-1.1-13.4-7.7-13.4-15.5C223.1,77.4,223.2,76.6,223.3,75.8 M235,98.4
		c-2.6,5.1-7.9,8.7-14,8.7c-2.6,0-5-0.6-7.2-1.8c2.6-5.1,7.9-8.7,14-8.7C230.4,96.6,232.8,97.3,235,98.4 M242.5,98.3
		c2.2-1.1,4.6-1.8,7.3-1.8c6.2,0,11.5,3.6,14.1,8.8c-2.2,1.1-4.6,1.8-7.3,1.8C250.4,107.1,245,103.5,242.5,98.3 M238.8,62.5
		c6.4,0,12,3.9,14.4,9.5c-6.4,1.1-11.7,5.4-14.4,11.1c-2.7-5.7-8-9.9-14.4-11.1C226.8,66.4,232.3,62.5,238.8,62.5 M205.3,91.3
		c0-8.1,6.1-14.8,14-15.6c-0.1,0.8-0.2,1.7-0.2,2.5c0,5.8,2.5,10.9,6.4,14.5c-6.5,0.7-12.1,4.7-15.1,10.2
		C207.3,100.1,205.3,96,205.3,91.3 M212.1,112.3c0-1.1,0.1-2.2,0.3-3.3c2.6,1.3,5.5,2,8.5,2c3.4,0,6.7-0.9,9.5-2.5
		c-0.2,1.2-0.3,2.4-0.3,3.6c0,5.3,2.1,10.1,5.6,13.7c-2.3,1.4-5,2.2-7.9,2.2C219.1,128.1,212.1,121,212.1,112.3 M265.4,112.2
		c0,8.7-7,15.7-15.7,15.7c-2.8,0-5.4-0.8-7.7-2.1c3.3-3.5,5.4-8.3,5.4-13.5c0-1.3-0.1-2.5-0.4-3.8c2.8,1.6,6.1,2.5,9.5,2.5
		c3.1,0,6-0.7,8.6-2C265.3,110.1,265.4,111.1,265.4,112.2 M252.1,92.7c3.9-3.6,6.3-8.7,6.3-14.4c0-0.9-0.1-1.7-0.2-2.5
		c7.9,0.8,14,7.5,14,15.6c0,4.6-2,8.7-5.2,11.6C264.1,97.4,258.6,93.4,252.1,92.7"/>
</g>
</svg>
