<?xml version="1.0" encoding="utf-8"?>
<!-- Generator: Adobe Illustrator 26.4.0, SVG Export Plug-In . SVG Version: 6.00 Build 0)  -->
<svg version="1.1" id="Layer_1" xmlns="http://www.w3.org/2000/svg" xmlns:xlink="http://www.w3.org/1999/xlink" x="0px" y="0px"
	 viewBox="0 0 312.9 311.9" style="enable-background:new 0 0 312.9 311.9;" xml:space="preserve">
<style type="text/css">
	.st0{fill:#901939;}
	.st1{fill:#FFFFFF;}
	.st2{fill:#2E9A47;}
	.st3{fill:#EF4229;}
</style>
<g>
	<rect x="162.7" class="st0" width="150.1" height="150.1"/>
	<path class="st1" d="M174.5,33.4c0-1.6,0.3-3,0.8-4.2c0.6-1.2,1.4-2,2.5-2.6c-0.9-0.6-1.6-1.5-2.1-2.6c-0.5-1.1-0.8-2.4-0.8-3.9
		c0-2.4,0.6-4.2,1.9-5.5c1.2-1.3,3-2,5.4-2s4.1,0.6,5.3,1.9c1.2,1.3,1.8,3.1,1.8,5.4c0,1.6-0.3,2.9-0.8,4c-0.5,1.1-1.2,1.9-2.1,2.5
		c1.1,0.6,1.9,1.5,2.5,2.7c0.6,1.2,0.9,2.7,0.9,4.3c0,2.7-0.6,4.7-1.8,6.2c-1.2,1.5-3.2,2.2-5.8,2.2C177,42.1,174.5,39.2,174.5,33.4
		 M184,36.8c0.3-0.8,0.5-1.9,0.5-3.2c0-1.4-0.2-2.5-0.5-3.4c-0.3-0.8-0.9-1.2-1.9-1.2s-1.5,0.4-1.9,1.3c-0.3,0.8-0.5,2-0.5,3.3
		c0,1.3,0.2,2.3,0.5,3.2c0.3,0.8,0.9,1.3,1.9,1.3S183.7,37.6,184,36.8 M184.1,20.2c0-1-0.2-1.9-0.5-2.5c-0.3-0.6-0.8-0.9-1.5-0.9
		c-0.7,0-1.2,0.3-1.6,0.9c-0.4,0.6-0.5,1.4-0.5,2.5c0,2.9,0.7,4.4,2.1,4.4C183.5,24.6,184.1,23.1,184.1,20.2"/>
	<path class="st1" d="M200.5,24V13h2.5c0.7,0,1.2,0.1,1.7,0.2c0.4,0.1,0.8,0.3,1.1,0.6c0.3,0.3,0.5,0.6,0.6,1.1
		c0.1,0.4,0.2,0.9,0.2,1.5v3.9c0,0.6-0.1,1.2-0.2,1.6c-0.1,0.4-0.3,0.8-0.6,1.1c-0.3,0.3-0.6,0.5-1,0.7c-0.4,0.1-1,0.2-1.6,0.2
		H200.5z M202.5,22.6h0.6c0.2,0,0.4,0,0.5-0.1c0.1,0,0.3-0.1,0.4-0.1c0.1,0,0.2-0.1,0.3-0.2c0.1-0.1,0.1-0.2,0.2-0.3
		c0-0.1,0.1-0.2,0.1-0.4c0-0.2,0-0.3,0-0.5c0-0.1,0-0.3,0-0.6v-4c0-0.3,0-0.5,0-0.6c0-0.2,0-0.3-0.1-0.5c0-0.2-0.1-0.3-0.1-0.4
		c-0.1-0.1-0.1-0.2-0.3-0.2c-0.1-0.1-0.2-0.1-0.4-0.2c-0.2,0-0.4,0-0.6,0h-0.5V22.6z"/>
	<polygon class="st1" points="207.7,13 207.7,24 212.3,24 212.3,22.6 209.6,22.6 209.6,19 211.7,19 211.7,17.6 209.6,17.6 
		209.6,14.4 212.2,14.4 212.2,13 	"/>
	<path class="st1" d="M216,24.1c-0.5,0-0.9-0.1-1.2-0.2c-0.4-0.1-0.7-0.3-0.9-0.5c-0.2-0.2-0.4-0.5-0.6-0.8c-0.1-0.3-0.2-0.6-0.3-1
		c-0.1-0.4-0.1-0.8-0.1-1.2v-3.8c0-0.5,0-0.9,0.1-1.3c0.1-0.4,0.2-0.7,0.3-1c0.1-0.3,0.3-0.6,0.6-0.8c0.2-0.2,0.5-0.4,0.9-0.5
		c0.4-0.1,0.8-0.2,1.3-0.2c0.5,0,1,0.1,1.4,0.2c0.4,0.1,0.7,0.4,0.9,0.6c0.2,0.3,0.4,0.6,0.5,1c0.1,0.4,0.2,0.8,0.2,1.3V17H217v-0.9
		c0-0.5,0-0.9-0.1-1.1c-0.1-0.4-0.4-0.6-0.8-0.6H216c-0.2,0-0.3,0-0.4,0.1c-0.1,0-0.2,0.1-0.3,0.2c-0.1,0.1-0.1,0.2-0.2,0.3
		c0,0.1-0.1,0.2-0.1,0.4c0,0.2,0,0.3,0,0.4c0,0.1,0,0.3,0,0.5v4.6c0,0.6,0.1,1.1,0.2,1.4c0.2,0.3,0.4,0.4,0.9,0.4c0.1,0,0.3,0,0.4,0
		c0.1,0,0.2-0.1,0.3-0.1c0.1-0.1,0.1-0.1,0.2-0.2c0.1-0.1,0.1-0.2,0.1-0.3c0-0.1,0-0.2,0.1-0.3c0-0.1,0-0.3,0-0.4c0-0.1,0-0.2,0-0.4
		v-1h1.9v0.9c0,0.4,0,0.8-0.1,1.1c-0.1,0.3-0.2,0.6-0.3,0.9c-0.1,0.3-0.3,0.5-0.5,0.7c-0.2,0.2-0.5,0.3-0.8,0.4
		C216.8,24.1,216.4,24.1,216,24.1"/>
	<polygon class="st1" points="220,13 220,24 224.6,24 224.6,22.6 222,22.6 222,19 224,19 224,17.6 222,17.6 222,14.4 224.6,14.4 
		224.6,13 	"/>
	<polygon class="st1" points="225.4,24 225.4,13 226.8,13 229.4,19.2 229.4,13 231.1,13 231.1,24 229.8,24 227.1,17.5 227.1,24 	"/>
	<polygon class="st1" points="233.4,24 233.4,14.5 231.6,14.5 231.6,13 237.2,13 237.2,14.5 235.4,14.5 235.4,24 	"/>
	<polygon class="st1" points="241.9,24 240.3,13 242,13 242.9,20.1 244,13 245.4,13 246.6,20.1 247.5,13 249.1,13 247.5,24 246,24 
		244.7,16.7 243.5,24 	"/>
	<path class="st1" d="M252.9,24.1c-1.1,0-1.9-0.3-2.4-0.9c-0.5-0.6-0.7-1.5-0.7-2.7v-4c0-0.6,0.1-1.1,0.2-1.5
		c0.1-0.4,0.3-0.8,0.5-1.1c0.2-0.3,0.6-0.5,1-0.7c0.4-0.2,0.9-0.2,1.5-0.2c1.1,0,1.9,0.3,2.4,0.9c0.5,0.6,0.7,1.5,0.7,2.6v4
		c0,0.6-0.1,1.1-0.2,1.5c-0.1,0.4-0.3,0.8-0.5,1.1c-0.2,0.3-0.6,0.6-1,0.7C254,24,253.5,24.1,252.9,24.1 M252.4,22.5
		c0.1,0.1,0.3,0.1,0.5,0.1c0.2,0,0.4,0,0.5-0.1c0.1-0.1,0.2-0.1,0.3-0.2c0.1-0.1,0.1-0.2,0.2-0.4c0-0.2,0.1-0.3,0.1-0.4
		c0-0.2,0-0.3,0-0.5v-5c0-0.3,0-0.5,0-0.7c0-0.2-0.1-0.3-0.2-0.5c-0.1-0.2-0.2-0.3-0.3-0.4c-0.2-0.1-0.4-0.1-0.6-0.1
		c-0.2,0-0.4,0-0.6,0.1c-0.2,0.1-0.3,0.2-0.3,0.4c-0.1,0.2-0.1,0.3-0.2,0.5c0,0.2,0,0.4,0,0.7v5c0,0.2,0,0.4,0,0.5
		c0,0.2,0,0.3,0.1,0.4c0,0.2,0.1,0.3,0.2,0.4C252.2,22.4,252.3,22.5,252.4,22.5"/>
	<path class="st1" d="M257.2,24V13h2.5c0.6,0,1.1,0,1.5,0.1c0.4,0.1,0.8,0.3,1.1,0.5c0.3,0.2,0.5,0.5,0.7,0.9
		c0.2,0.4,0.2,0.8,0.2,1.4c0,0.7-0.1,1.2-0.3,1.7c-0.2,0.4-0.5,0.8-1,0.9l1.5,5.4h-2l-1.3-5h-0.9v5H257.2z M259.2,17.7h0.5
		c0.6,0,1-0.1,1.3-0.4c0.2-0.2,0.4-0.7,0.4-1.3c0-0.6-0.1-1-0.3-1.3c-0.2-0.3-0.6-0.4-1.2-0.4h-0.6V17.7z"/>
	<polygon class="st1" points="264.3,24 264.3,13 266.3,13 266.3,17.8 268.5,13 270.4,13 268.3,17.9 270.6,24 268.6,24 266.7,18.8 
		266.3,19.5 266.3,24 	"/>
	<path class="st1" d="M273.5,24l2.2-10.9h2.1L280,24h-1.9l-0.4-2.5h-1.9l-0.4,2.5H273.5z M276,20.1h1.5l-0.7-4.5L276,20.1z"/>
	<polygon class="st1" points="280.7,24 280.7,13 282.1,13 284.8,19.2 284.8,13 286.4,13 286.4,24 285.1,24 282.4,17.5 282.4,24 	"/>
	<path class="st1" d="M287.7,24V13h2.5c0.7,0,1.2,0.1,1.7,0.2c0.4,0.1,0.8,0.3,1.1,0.6c0.3,0.3,0.5,0.6,0.6,1.1
		c0.1,0.4,0.2,0.9,0.2,1.5v3.9c0,0.6-0.1,1.2-0.2,1.6c-0.1,0.4-0.3,0.8-0.6,1.1c-0.3,0.3-0.6,0.5-1,0.7c-0.4,0.1-1,0.2-1.6,0.2
		H287.7z M289.7,22.6h0.6c0.2,0,0.4,0,0.5-0.1c0.1,0,0.3-0.1,0.4-0.1c0.1,0,0.2-0.1,0.3-0.2c0.1-0.1,0.1-0.2,0.2-0.3
		c0-0.1,0.1-0.2,0.1-0.4c0-0.2,0-0.3,0-0.5c0-0.1,0-0.3,0-0.6v-4c0-0.3,0-0.5,0-0.6c0-0.2,0-0.3-0.1-0.5c0-0.2-0.1-0.3-0.1-0.4
		c-0.1-0.1-0.1-0.2-0.3-0.2c-0.1-0.1-0.2-0.1-0.4-0.2c-0.2,0-0.4,0-0.6,0h-0.5V22.6z"/>
	<polygon class="st1" points="200.5,30.9 200.5,41.8 205.1,41.8 205.1,40.5 202.5,40.5 202.5,36.9 204.6,36.9 204.6,35.5 
		202.5,35.5 202.5,32.3 205.1,32.3 205.1,30.9 	"/>
	<path class="st1" d="M209,42c-0.5,0-0.9-0.1-1.2-0.2c-0.4-0.1-0.7-0.3-0.9-0.5c-0.2-0.2-0.4-0.5-0.6-0.8c-0.1-0.3-0.2-0.6-0.3-1
		c-0.1-0.4-0.1-0.8-0.1-1.2v-3.8c0-0.5,0-0.9,0.1-1.3c0.1-0.4,0.2-0.7,0.3-1c0.1-0.3,0.3-0.6,0.6-0.8c0.2-0.2,0.5-0.4,0.9-0.5
		c0.4-0.1,0.8-0.2,1.3-0.2c0.5,0,1,0.1,1.4,0.2c0.4,0.1,0.7,0.4,0.9,0.6s0.4,0.6,0.5,1c0.1,0.4,0.2,0.8,0.2,1.3v0.9H210V34
		c0-0.5,0-0.9-0.1-1.1c-0.1-0.4-0.4-0.6-0.8-0.6H209c-0.2,0-0.3,0-0.4,0.1c-0.1,0-0.2,0.1-0.3,0.2c-0.1,0.1-0.1,0.2-0.2,0.3
		s-0.1,0.2-0.1,0.4c0,0.2,0,0.3,0,0.4c0,0.1,0,0.3,0,0.5v4.6c0,0.6,0.1,1.1,0.2,1.4c0.2,0.3,0.4,0.4,0.9,0.4c0.1,0,0.3,0,0.4,0
		c0.1,0,0.2-0.1,0.3-0.1c0.1-0.1,0.1-0.1,0.2-0.2c0.1-0.1,0.1-0.2,0.1-0.3c0-0.1,0-0.2,0.1-0.3c0-0.1,0-0.3,0-0.4c0-0.1,0-0.2,0-0.4
		v-1h1.9v0.9c0,0.4,0,0.8-0.1,1.1c-0.1,0.3-0.2,0.6-0.3,0.9c-0.1,0.3-0.3,0.5-0.5,0.7c-0.2,0.2-0.5,0.3-0.8,0.4
		C209.8,41.9,209.4,42,209,42"/>
	<path class="st1" d="M216,42c-1.1,0-1.9-0.3-2.4-0.9c-0.5-0.6-0.7-1.5-0.7-2.7v-4c0-0.6,0.1-1.1,0.2-1.5c0.1-0.4,0.3-0.8,0.5-1.1
		c0.2-0.3,0.6-0.5,1-0.7c0.4-0.2,0.9-0.2,1.5-0.2c1.1,0,1.9,0.3,2.4,0.9c0.5,0.6,0.7,1.5,0.7,2.6v4c0,0.6-0.1,1.1-0.2,1.5
		c-0.1,0.4-0.3,0.8-0.5,1.1c-0.2,0.3-0.6,0.6-1,0.7C217.1,41.9,216.6,42,216,42 M215.5,40.4c0.1,0.1,0.3,0.1,0.5,0.1
		c0.2,0,0.4,0,0.5-0.1c0.1-0.1,0.2-0.1,0.3-0.2c0.1-0.1,0.1-0.2,0.2-0.4c0-0.2,0.1-0.3,0.1-0.4c0-0.2,0-0.3,0-0.5v-5
		c0-0.3,0-0.5,0-0.7c0-0.2-0.1-0.3-0.2-0.5c-0.1-0.2-0.2-0.3-0.3-0.4c-0.2-0.1-0.4-0.1-0.6-0.1c-0.2,0-0.4,0-0.6,0.1
		c-0.2,0.1-0.3,0.2-0.3,0.4c-0.1,0.2-0.1,0.3-0.2,0.5c0,0.2,0,0.4,0,0.7v5c0,0.2,0,0.4,0,0.5c0,0.2,0,0.3,0.1,0.4
		c0,0.2,0.1,0.3,0.2,0.4C215.2,40.3,215.4,40.4,215.5,40.4"/>
	<polygon class="st1" points="220.3,41.8 220.3,30.9 221.7,30.9 224.4,37.1 224.4,30.9 226,30.9 226,41.8 224.7,41.8 222,35.3 
		222,41.8 	"/>
	<path class="st1" d="M230.4,42c-1.1,0-1.9-0.3-2.4-0.9c-0.5-0.6-0.7-1.5-0.7-2.7v-4c0-0.6,0.1-1.1,0.2-1.5c0.1-0.4,0.3-0.8,0.5-1.1
		c0.2-0.3,0.6-0.5,1-0.7c0.4-0.2,0.9-0.2,1.5-0.2c1.1,0,1.9,0.3,2.4,0.9c0.5,0.6,0.7,1.5,0.7,2.6v4c0,0.6-0.1,1.1-0.2,1.5
		c-0.1,0.4-0.3,0.8-0.5,1.1c-0.2,0.3-0.6,0.6-1,0.7C231.4,41.9,230.9,42,230.4,42 M229.9,40.4c0.1,0.1,0.3,0.1,0.5,0.1
		c0.2,0,0.4,0,0.5-0.1c0.1-0.1,0.2-0.1,0.3-0.2c0.1-0.1,0.1-0.2,0.2-0.4c0-0.2,0.1-0.3,0.1-0.4c0-0.2,0-0.3,0-0.5v-5
		c0-0.3,0-0.5,0-0.7c0-0.2-0.1-0.3-0.2-0.5c-0.1-0.2-0.2-0.3-0.3-0.4c-0.2-0.1-0.4-0.1-0.6-0.1c-0.2,0-0.4,0-0.6,0.1
		c-0.2,0.1-0.3,0.2-0.3,0.4c-0.1,0.2-0.1,0.3-0.2,0.5c0,0.2,0,0.4,0,0.7v5c0,0.2,0,0.4,0,0.5c0,0.2,0,0.3,0.1,0.4
		c0,0.2,0.1,0.3,0.2,0.4C229.6,40.3,229.7,40.4,229.9,40.4"/>
	<polygon class="st1" points="234.7,41.8 234.9,30.9 236.9,30.9 238.5,38.6 240.1,30.9 242.1,30.9 242.3,41.8 240.8,41.8 
		240.7,34.3 239.1,41.8 237.9,41.8 236.3,34.3 236.2,41.8 	"/>
	<rect x="243.7" y="30.9" class="st1" width="2" height="10.9"/>
	<path class="st1" d="M250,42c-0.5,0-0.9-0.1-1.2-0.2c-0.4-0.1-0.7-0.3-0.9-0.5c-0.2-0.2-0.4-0.5-0.6-0.8c-0.1-0.3-0.2-0.6-0.3-1
		c-0.1-0.4-0.1-0.8-0.1-1.2v-3.8c0-0.5,0-0.9,0.1-1.3c0.1-0.4,0.2-0.7,0.3-1c0.1-0.3,0.3-0.6,0.6-0.8c0.2-0.2,0.5-0.4,0.9-0.5
		c0.4-0.1,0.8-0.2,1.3-0.2c0.5,0,1,0.1,1.4,0.2c0.4,0.1,0.7,0.4,0.9,0.6c0.2,0.3,0.4,0.6,0.5,1c0.1,0.4,0.2,0.8,0.2,1.3v0.9h-1.9V34
		c0-0.5,0-0.9-0.1-1.1c-0.1-0.4-0.4-0.6-0.8-0.6H250c-0.2,0-0.3,0-0.4,0.1c-0.1,0-0.2,0.1-0.3,0.2c-0.1,0.1-0.1,0.2-0.2,0.3
		S249,33,249,33.2c0,0.2,0,0.3,0,0.4c0,0.1,0,0.3,0,0.5v4.6c0,0.6,0.1,1.1,0.2,1.4c0.2,0.3,0.4,0.4,0.9,0.4c0.1,0,0.3,0,0.4,0
		c0.1,0,0.2-0.1,0.3-0.1c0.1-0.1,0.1-0.1,0.2-0.2c0.1-0.1,0.1-0.2,0.1-0.3c0-0.1,0-0.2,0.1-0.3c0-0.1,0-0.3,0-0.4c0-0.1,0-0.2,0-0.4
		v-1h1.9v0.9c0,0.4,0,0.8-0.1,1.1c-0.1,0.3-0.2,0.6-0.3,0.9c-0.1,0.3-0.3,0.5-0.5,0.7c-0.2,0.2-0.5,0.3-0.8,0.4
		C250.9,41.9,250.5,42,250,42"/>
	<path class="st1" d="M259.9,42c-1,0-1.8-0.3-2.2-1c-0.5-0.6-0.7-1.6-0.7-2.8v-3.6c0-0.6,0-1.2,0.1-1.6c0.1-0.5,0.3-0.9,0.5-1.2
		c0.2-0.3,0.6-0.6,1-0.8c0.4-0.2,0.9-0.3,1.5-0.3c1.1,0,1.9,0.3,2.3,0.8s0.7,1.3,0.7,2.4v0.5h-1.9V34c0-0.2,0-0.4,0-0.6
		c0-0.2,0-0.3-0.1-0.5c0-0.2-0.1-0.3-0.2-0.4c-0.1-0.1-0.2-0.2-0.3-0.2c-0.1-0.1-0.3-0.1-0.5-0.1c-0.2,0-0.3,0-0.4,0.1
		c-0.1,0-0.2,0.1-0.3,0.1c-0.1,0.1-0.1,0.1-0.2,0.2c-0.1,0.1-0.1,0.2-0.1,0.3c0,0.1-0.1,0.2-0.1,0.4c0,0.1,0,0.3,0,0.4
		c0,0.1,0,0.3,0,0.4v4.4c0,0.7,0.1,1.1,0.2,1.4s0.5,0.5,0.9,0.5c0.2,0,0.4,0,0.6-0.1c0.2-0.1,0.3-0.2,0.4-0.4
		c0.1-0.2,0.2-0.4,0.2-0.6c0-0.2,0.1-0.5,0.1-0.9v-0.9h-1.2v-1.3h3v5.6h-1.3l-0.1-1.1C261.4,41.6,260.8,42,259.9,42"/>
	<path class="st1" d="M264.4,41.8V30.9h2.5c0.6,0,1.1,0,1.5,0.1c0.4,0.1,0.8,0.3,1.1,0.5c0.3,0.2,0.5,0.5,0.7,0.9
		c0.2,0.4,0.2,0.8,0.2,1.4c0,0.7-0.1,1.2-0.3,1.7c-0.2,0.4-0.5,0.8-1,0.9l1.5,5.4h-2l-1.3-5h-0.9v5H264.4z M266.4,35.6h0.5
		c0.6,0,1-0.1,1.3-0.4c0.2-0.2,0.4-0.7,0.4-1.3c0-0.6-0.1-1-0.3-1.3c-0.2-0.3-0.6-0.4-1.2-0.4h-0.6V35.6z"/>
	<path class="st1" d="M274.6,42c-1.1,0-1.9-0.3-2.4-0.9c-0.5-0.6-0.7-1.5-0.7-2.7v-4c0-0.6,0.1-1.1,0.2-1.5c0.1-0.4,0.3-0.8,0.5-1.1
		c0.2-0.3,0.6-0.5,1-0.7c0.4-0.2,0.9-0.2,1.5-0.2c1.1,0,1.9,0.3,2.4,0.9c0.5,0.6,0.7,1.5,0.7,2.6v4c0,0.6-0.1,1.1-0.2,1.5
		c-0.1,0.4-0.3,0.8-0.5,1.1c-0.2,0.3-0.6,0.6-1,0.7C275.6,41.9,275.2,42,274.6,42 M274.1,40.4c0.1,0.1,0.3,0.1,0.5,0.1
		c0.2,0,0.4,0,0.5-0.1c0.1-0.1,0.2-0.1,0.3-0.2c0.1-0.1,0.1-0.2,0.2-0.4c0-0.2,0.1-0.3,0.1-0.4c0-0.2,0-0.3,0-0.5v-5
		c0-0.3,0-0.5,0-0.7c0-0.2-0.1-0.3-0.2-0.5c-0.1-0.2-0.2-0.3-0.3-0.4c-0.2-0.1-0.4-0.1-0.6-0.1s-0.4,0-0.6,0.1
		c-0.2,0.1-0.3,0.2-0.3,0.4c-0.1,0.2-0.1,0.3-0.2,0.5c0,0.2,0,0.4,0,0.7v5c0,0.2,0,0.4,0,0.5c0,0.2,0,0.3,0.1,0.4
		c0,0.2,0.1,0.3,0.2,0.4C273.8,40.3,273.9,40.4,274.1,40.4"/>
	<polygon class="st1" points="280.1,41.8 278.5,30.9 280.2,30.9 281.1,38 282.3,30.9 283.6,30.9 284.8,38 285.7,30.9 287.4,30.9 
		285.8,41.8 284.2,41.8 283,34.5 281.7,41.8 	"/>
	<polygon class="st1" points="289.4,41.8 289.4,32.4 287.6,32.4 287.6,30.9 293.2,30.9 293.2,32.4 291.4,32.4 291.4,41.8 	"/>
	<polygon class="st1" points="293.8,41.8 293.8,30.9 295.8,30.9 295.8,35.5 298,35.5 298,30.9 300,30.9 300,41.8 298,41.8 298,36.9 
		295.8,36.9 295.8,41.8 	"/>
	<path class="st1" d="M266.4,73.8L251,88.4c-0.6,0.6-0.9,1-0.9,2.2v40.9c0,0.5,0.4,0.9,0.9,0.9h15.8c0.5,0,0.9-0.4,0.9-0.9V74.2
		C267.7,73.7,267.4,72.8,266.4,73.8"/>
	<path class="st1" d="M222.2,92.8l-15.3,14.6c-0.6,0.6-0.9,1-0.9,2.2v21.9c0,0.5,0.4,0.9,0.9,0.9h15.8c0.5,0,0.9-0.4,0.9-0.9V93.2
		C223.6,92.7,223.2,91.8,222.2,92.8"/>
	<path class="st1" d="M273.3,56.2c0-0.1,0-0.2-0.1-0.3c-0.1-0.1-0.2-0.1-0.3-0.1l-0.1,0l-0.1,0L261,58.4l-0.2,0
		c-0.1,0-0.2,0.1-0.2,0.1c-0.2,0.2-0.2,0.5,0,0.6l0.1,0.1l2.7,2.7l-26.6,26.6l-12.3-12.3c-0.1-0.1-0.4-0.1-0.5,0l-3.3,3.3
		c0,0,0,0,0,0l-19.7,19.7c-0.1,0.1-0.1,0.4,0,0.5l3.3,3.3c0.1,0.1,0.4,0.1,0.5,0l19.4-19.4l8.9,8.9c0,0,0,0,0,0l3.3,3.3
		c0.1,0.1,0.4,0.1,0.5,0l30.2-30.2l2.8,2.8c0.2,0.2,0.5,0.2,0.6,0c0.1-0.1,0.1-0.2,0.1-0.3v0l2.6-12L273.3,56.2z"/>
	<path class="st1" d="M244.4,95.4l-7.4,7.5c-0.1,0.1-0.3,0.1-0.5,0l-6.7-6.8c-1.2-1.2-1.5-0.2-1.5,0.2v35.2c0,0.5,0.4,0.9,0.9,0.9
		H245c0.5,0,0.9-0.4,0.9-0.9V95.7C245.8,95.2,245.5,94.3,244.4,95.4"/>
	<rect x="1" class="st2" width="150.1" height="150.1"/>
	<path class="st1" d="M14.7,39.9c-1.2-1.5-1.8-3.6-1.8-6.4v-1h5.4v1c0,1.5,0.2,2.5,0.5,3.1c0.3,0.6,0.9,1,1.8,1c0.9,0,1.5-0.3,1.7-1
		c0.3-0.6,0.4-1.7,0.4-3.2c0-1.5-0.2-2.7-0.7-3.4c-0.4-0.7-1.3-1.1-2.5-1.1c-0.1,0-0.4,0-1,0v-4h0.9c1.2,0,2.1-0.3,2.5-1
		c0.5-0.7,0.7-1.7,0.7-3.2c0-1.2-0.2-2.1-0.5-2.7C22,17.3,21.4,17,20.5,17c-0.8,0-1.4,0.3-1.7,1c-0.3,0.6-0.5,1.6-0.5,2.8v1.3h-5.4
		v-1.6c0-2.5,0.7-4.4,2-5.8c1.3-1.4,3.2-2.1,5.6-2.1c2.5,0,4.4,0.7,5.7,2c1.3,1.3,2,3.2,2,5.7c0,1.7-0.3,3-1,4.2
		c-0.7,1.1-1.6,1.8-2.6,2.1c2.4,0.9,3.6,3.1,3.6,6.7c0,2.8-0.6,4.9-1.8,6.5c-1.2,1.6-3.2,2.3-5.8,2.3C17.9,42.2,15.9,41.4,14.7,39.9
		"/>
	<path class="st1" d="M43.2,24.1c-1,0-1.8-0.3-2.2-1c-0.5-0.6-0.7-1.6-0.7-2.8v-3.6c0-0.6,0-1.2,0.1-1.6c0.1-0.5,0.3-0.9,0.5-1.2
		c0.2-0.3,0.6-0.6,1-0.8c0.4-0.2,0.9-0.3,1.5-0.3c1.1,0,1.9,0.3,2.3,0.8c0.5,0.5,0.7,1.3,0.7,2.4v0.5h-1.9v-0.6c0-0.2,0-0.4,0-0.6
		c0-0.2,0-0.3-0.1-0.5c0-0.2-0.1-0.3-0.2-0.4c-0.1-0.1-0.2-0.2-0.3-0.2c-0.1-0.1-0.3-0.1-0.5-0.1c-0.2,0-0.3,0-0.4,0.1
		c-0.1,0-0.2,0.1-0.3,0.1c-0.1,0.1-0.1,0.1-0.2,0.2c-0.1,0.1-0.1,0.2-0.1,0.3c0,0.1-0.1,0.2-0.1,0.4c0,0.1,0,0.3,0,0.4
		c0,0.1,0,0.3,0,0.4v4.4c0,0.7,0.1,1.1,0.2,1.4c0.2,0.3,0.5,0.5,0.9,0.5c0.2,0,0.4,0,0.6-0.1c0.2-0.1,0.3-0.2,0.4-0.4
		c0.1-0.2,0.2-0.4,0.2-0.6c0-0.2,0.1-0.5,0.1-0.9v-0.9h-1.2v-1.3h3V24h-1.3l-0.1-1.1C44.7,23.7,44.1,24.1,43.2,24.1"/>
	<path class="st1" d="M50.9,24.1c-1.1,0-1.9-0.3-2.4-0.9c-0.5-0.6-0.7-1.5-0.7-2.7v-4c0-0.6,0.1-1.1,0.2-1.5
		c0.1-0.4,0.3-0.8,0.5-1.1c0.2-0.3,0.6-0.5,1-0.7c0.4-0.2,0.9-0.2,1.5-0.2c1.1,0,1.9,0.3,2.4,0.9c0.5,0.6,0.7,1.5,0.7,2.6v4
		c0,0.6-0.1,1.1-0.2,1.5c-0.1,0.4-0.3,0.8-0.5,1.1c-0.2,0.3-0.6,0.6-1,0.7C52,24,51.5,24.1,50.9,24.1 M50.4,22.5
		c0.1,0.1,0.3,0.1,0.5,0.1c0.2,0,0.4,0,0.5-0.1c0.1-0.1,0.2-0.1,0.3-0.2c0.1-0.1,0.1-0.2,0.2-0.4c0-0.2,0.1-0.3,0.1-0.4
		c0-0.2,0-0.3,0-0.5v-5c0-0.3,0-0.5,0-0.7c0-0.2-0.1-0.3-0.2-0.5c-0.1-0.2-0.2-0.3-0.3-0.4c-0.2-0.1-0.4-0.1-0.6-0.1
		c-0.2,0-0.4,0-0.6,0.1c-0.2,0.1-0.3,0.2-0.3,0.4c-0.1,0.2-0.1,0.3-0.2,0.5c0,0.2,0,0.4,0,0.7v5c0,0.2,0,0.4,0,0.5
		c0,0.2,0,0.3,0.1,0.4c0,0.2,0.1,0.3,0.2,0.4C50.2,22.4,50.3,22.5,50.4,22.5"/>
	<path class="st1" d="M58.4,24.1c-1.1,0-1.9-0.3-2.4-0.9c-0.5-0.6-0.7-1.5-0.7-2.7v-4c0-0.6,0.1-1.1,0.2-1.5
		c0.1-0.4,0.3-0.8,0.5-1.1c0.2-0.3,0.6-0.5,1-0.7c0.4-0.2,0.9-0.2,1.5-0.2c1.1,0,1.9,0.3,2.4,0.9c0.5,0.6,0.7,1.5,0.7,2.6v4
		c0,0.6-0.1,1.1-0.2,1.5c-0.1,0.4-0.3,0.8-0.5,1.1c-0.2,0.3-0.6,0.6-1,0.7C59.5,24,59,24.1,58.4,24.1 M57.9,22.5
		c0.1,0.1,0.3,0.1,0.5,0.1c0.2,0,0.4,0,0.5-0.1c0.1-0.1,0.2-0.1,0.3-0.2c0.1-0.1,0.1-0.2,0.2-0.4c0-0.2,0.1-0.3,0.1-0.4
		c0-0.2,0-0.3,0-0.5v-5c0-0.3,0-0.5,0-0.7c0-0.2-0.1-0.3-0.2-0.5c-0.1-0.2-0.2-0.3-0.3-0.4c-0.2-0.1-0.4-0.1-0.6-0.1
		c-0.2,0-0.4,0-0.6,0.1c-0.2,0.1-0.3,0.2-0.3,0.4c-0.1,0.2-0.1,0.3-0.2,0.5c0,0.2,0,0.4,0,0.7v5c0,0.2,0,0.4,0,0.5
		c0,0.2,0,0.3,0.1,0.4c0,0.2,0.1,0.3,0.2,0.4C57.7,22.4,57.8,22.5,57.9,22.5"/>
	<path class="st1" d="M63,24V13h2.5c0.7,0,1.2,0.1,1.7,0.2c0.4,0.1,0.8,0.3,1.1,0.6c0.3,0.3,0.5,0.6,0.6,1.1
		c0.1,0.4,0.2,0.9,0.2,1.5v3.9c0,0.6-0.1,1.2-0.2,1.6c-0.1,0.4-0.3,0.8-0.6,1.1c-0.3,0.3-0.6,0.5-1,0.7c-0.4,0.1-1,0.2-1.6,0.2H63z
		 M65,22.6h0.6c0.2,0,0.4,0,0.5-0.1c0.1,0,0.3-0.1,0.4-0.1c0.1,0,0.2-0.1,0.3-0.2c0.1-0.1,0.1-0.2,0.2-0.3c0-0.1,0.1-0.2,0.1-0.4
		c0-0.2,0-0.3,0-0.5c0-0.1,0-0.3,0-0.6v-4c0-0.3,0-0.5,0-0.6c0-0.2,0-0.3-0.1-0.5c0-0.2-0.1-0.3-0.1-0.4c-0.1-0.1-0.1-0.2-0.3-0.2
		c-0.1-0.1-0.2-0.1-0.4-0.2c-0.2,0-0.4,0-0.6,0H65V22.6z"/>
	<polygon class="st1" points="73.6,24 73.6,13 75.6,13 75.6,17.6 77.9,17.6 77.9,13 79.9,13 79.9,24 77.9,24 77.9,19 75.6,19 
		75.6,24 	"/>
	<polygon class="st1" points="81.4,13 81.4,24 86.1,24 86.1,22.6 83.4,22.6 83.4,19 85.5,19 85.5,17.6 83.4,17.6 83.4,14.4 86,14.4 
		86,13 	"/>
	<path class="st1" d="M86.6,24L88.8,13h2.1L93.1,24h-1.9l-0.4-2.5h-1.9L88.4,24H86.6z M89.1,20.1h1.5l-0.7-4.5L89.1,20.1z"/>
	<polygon class="st1" points="94.1,13 94.1,24 98.7,24 98.7,22.6 96.1,22.6 96.1,13 	"/>
	<polygon class="st1" points="100.5,24 100.5,14.5 98.6,14.5 98.6,13 104.2,13 104.2,14.5 102.5,14.5 102.5,24 	"/>
	<polygon class="st1" points="105.1,24 105.1,13 107.1,13 107.1,17.6 109.3,17.6 109.3,13 111.3,13 111.3,24 109.3,24 109.3,19 
		107.1,19 107.1,24 	"/>
	<path class="st1" d="M39.9,41.8l2.2-10.9h2.1l2.2,10.9h-1.9l-0.4-2.5h-1.9l-0.4,2.5H39.9z M42.5,38h1.5l-0.7-4.5L42.5,38z"/>
	<polygon class="st1" points="47.4,41.8 47.4,30.9 48.8,30.9 51.5,37.1 51.5,30.9 53.1,30.9 53.1,41.8 51.8,41.8 49.1,35.3 
		49.1,41.8 	"/>
	<path class="st1" d="M54.7,41.8V30.9h2.5c0.7,0,1.2,0.1,1.7,0.2c0.4,0.1,0.8,0.3,1.1,0.6c0.3,0.3,0.5,0.6,0.6,1.1s0.2,0.9,0.2,1.5
		v3.9c0,0.6-0.1,1.2-0.2,1.6c-0.1,0.4-0.3,0.8-0.6,1.1c-0.3,0.3-0.6,0.5-1,0.7c-0.4,0.1-1,0.2-1.6,0.2H54.7z M56.7,40.4h0.6
		c0.2,0,0.4,0,0.5-0.1c0.1,0,0.3-0.1,0.4-0.1c0.1,0,0.2-0.1,0.3-0.2c0.1-0.1,0.1-0.2,0.2-0.3s0.1-0.2,0.1-0.4c0-0.2,0-0.3,0-0.5
		c0-0.1,0-0.3,0-0.6v-4c0-0.3,0-0.5,0-0.6c0-0.2,0-0.3-0.1-0.5c0-0.2-0.1-0.3-0.1-0.4c-0.1-0.1-0.1-0.2-0.3-0.2
		c-0.1-0.1-0.2-0.1-0.4-0.2c-0.2,0-0.4,0-0.6,0h-0.5V40.4z"/>
	<polygon class="st1" points="66.5,41.8 65,30.9 66.7,30.9 67.5,38 68.7,30.9 70.1,30.9 71.2,38 72.1,30.9 73.8,30.9 72.2,41.8 
		70.6,41.8 69.4,34.5 68.2,41.8 	"/>
	<polygon class="st1" points="75,30.9 75,41.8 79.6,41.8 79.6,40.5 77,40.5 77,36.9 79,36.9 79,35.5 77,35.5 77,32.3 79.6,32.3 
		79.6,30.9 	"/>
	<polygon class="st1" points="80.7,30.9 80.7,41.8 85.3,41.8 85.3,40.5 82.7,40.5 82.7,30.9 	"/>
	<polygon class="st1" points="86.3,30.9 86.3,41.8 90.9,41.8 90.9,40.5 88.3,40.5 88.3,30.9 	"/>
	<rect x="91.8" y="36.9" class="st1" width="3.3" height="1.3"/>
	<path class="st1" d="M96.6,41.8V30.9h2.7c0.5,0,0.9,0,1.3,0.1c0.4,0.1,0.7,0.2,1,0.4c0.3,0.2,0.5,0.5,0.7,0.9
		c0.1,0.4,0.2,0.8,0.2,1.3c0,1.3-0.5,2.1-1.6,2.3c0.6,0.1,1.1,0.4,1.4,0.8c0.3,0.4,0.5,1.1,0.5,1.9c0,1-0.3,1.8-0.8,2.4
		c-0.5,0.5-1.3,0.8-2.3,0.8H96.6z M98.6,35.4h0.6c0.6,0,1-0.1,1.2-0.4c0.2-0.2,0.3-0.7,0.3-1.3c0-0.3,0-0.6-0.1-0.8
		c-0.1-0.2-0.2-0.3-0.4-0.4c-0.2-0.1-0.4-0.2-0.6-0.2c-0.2,0-0.5,0-0.8,0h-0.3V35.4z M98.6,40.4h0.7c0.6,0,1-0.1,1.2-0.4
		c0.2-0.3,0.3-0.7,0.3-1.4c0-0.7-0.1-1.1-0.4-1.4c-0.3-0.3-0.7-0.4-1.3-0.4h-0.6V40.4z"/>
	<polygon class="st1" points="104,30.9 104,41.8 108.6,41.8 108.6,40.5 106,40.5 106,36.9 108,36.9 108,35.5 106,35.5 106,32.3 
		108.6,32.3 108.6,30.9 	"/>
	<rect x="109.8" y="30.9" class="st1" width="2" height="10.9"/>
	<polygon class="st1" points="113.3,41.8 113.3,30.9 114.7,30.9 117.4,37.1 117.4,30.9 119,30.9 119,41.8 117.7,41.8 115,35.3 
		115,41.8 	"/>
	<path class="st1" d="M123.3,42c-1,0-1.8-0.3-2.2-1c-0.5-0.6-0.7-1.6-0.7-2.8v-3.6c0-0.6,0-1.2,0.1-1.6c0.1-0.5,0.3-0.9,0.5-1.2
		c0.2-0.3,0.6-0.6,1-0.8c0.4-0.2,0.9-0.3,1.5-0.3c1.1,0,1.9,0.3,2.3,0.8s0.7,1.3,0.7,2.4v0.5h-1.9V34c0-0.2,0-0.4,0-0.6
		c0-0.2,0-0.3-0.1-0.5c0-0.2-0.1-0.3-0.2-0.4c-0.1-0.1-0.2-0.2-0.3-0.2c-0.1-0.1-0.3-0.1-0.5-0.1c-0.2,0-0.3,0-0.4,0.1
		c-0.1,0-0.2,0.1-0.3,0.1c-0.1,0.1-0.1,0.1-0.2,0.2c-0.1,0.1-0.1,0.2-0.1,0.3c0,0.1-0.1,0.2-0.1,0.4c0,0.1,0,0.3,0,0.4
		c0,0.1,0,0.3,0,0.4v4.4c0,0.7,0.1,1.1,0.2,1.4s0.5,0.5,0.9,0.5c0.2,0,0.4,0,0.6-0.1c0.2-0.1,0.3-0.2,0.4-0.4
		c0.1-0.2,0.2-0.4,0.2-0.6c0-0.2,0.1-0.5,0.1-0.9v-0.9h-1.2v-1.3h3v5.6h-1.3l-0.1-1.1C124.9,41.6,124.2,42,123.3,42"/>
	<path class="st1" d="M126.7,93.9c0-4.2-2.7-7.7-6.8-7.7c-2.1,0-4.5,2.3-5.9,3.6c-1.3-1.4-3.7-3.6-5.7-3.6c-4.1,0-7,3.4-7,7.7
		c0,2.1,0.8,4,2.2,5.4l10.6,10.6l10.6-10.6l0,0C125.8,97.9,126.7,96,126.7,93.9"/>
	<path class="st1" d="M81.7,127.2c0,0-0.1,0-0.1,0c-0.8,0-1.5-0.6-1.6-1.4l-5.4-31.3l-8.1,15.1c-0.4,0.7-1.1,1-1.8,0.9
		c-0.7-0.1-1.3-0.7-1.4-1.5l-3.5-24.1L53.5,99c-0.3,0.6-0.9,1-1.6,1H27.3c-1,0-1.7-0.8-1.7-1.7c0-1,0.8-1.7,1.7-1.7h23.4l8.3-18.7
		c0.3-0.7,1.1-1.1,1.8-1c0.8,0.1,1.4,0.7,1.5,1.5l3.6,24.9l8-14.9c0.4-0.7,1.1-1,1.8-0.9c0.7,0.1,1.3,0.7,1.4,1.4l5,29l18.1-60.2
		c0.2-0.7,0.8-1.2,1.5-1.2c0.7,0,1.4,0.3,1.7,1l9.5,19.8c0.4,0.9,0.1,1.9-0.8,2.3c-0.9,0.4-1.9,0.1-2.3-0.8L102.3,63l-19,63
		C83.1,126.7,82.4,127.2,81.7,127.2"/>
	<rect x="1" y="161.8" class="st3" width="150.1" height="150.1"/>
	<path class="st1" d="M16,202.9c-1.1-0.7-1.8-1.7-2.2-3c-0.4-1.3-0.6-2.9-0.6-4.8h5.3c0,1.6,0.2,2.8,0.5,3.6
		c0.3,0.7,0.9,1.1,1.8,1.1c0.7,0,1.2-0.2,1.6-0.7c0.3-0.5,0.5-1.1,0.6-1.9c0.1-0.8,0.1-2,0.1-3.5c0-1.7-0.2-3-0.5-3.9
		c-0.3-0.9-1-1.3-2-1.3c-1.3,0-2.1,0.9-2.4,2.6h-4.7l0.4-16.3h13.2v4.7h-8.7l-0.3,6.3c0.3-0.4,0.9-0.7,1.7-1
		c0.8-0.3,1.7-0.4,2.6-0.4c2,0,3.4,0.8,4.4,2.4c1,1.6,1.5,3.8,1.5,6.6c0,2.3-0.2,4.1-0.6,5.6c-0.4,1.5-1.2,2.7-2.3,3.5
		c-1.1,0.9-2.7,1.3-4.8,1.3C18.6,204,17.1,203.6,16,202.9"/>
	<path class="st1" d="M43.2,185.9c-1,0-1.8-0.3-2.2-1c-0.5-0.6-0.7-1.6-0.7-2.8v-3.6c0-0.6,0-1.2,0.1-1.6c0.1-0.5,0.3-0.9,0.5-1.2
		c0.2-0.3,0.6-0.6,1-0.8c0.4-0.2,0.9-0.3,1.5-0.3c1.1,0,1.9,0.3,2.3,0.8c0.5,0.5,0.7,1.3,0.7,2.4v0.5h-1.9v-0.6c0-0.2,0-0.4,0-0.6
		c0-0.2,0-0.3-0.1-0.5c0-0.2-0.1-0.3-0.2-0.4c-0.1-0.1-0.2-0.2-0.3-0.2c-0.1-0.1-0.3-0.1-0.5-0.1c-0.2,0-0.3,0-0.4,0.1
		c-0.1,0-0.2,0.1-0.3,0.1c-0.1,0.1-0.1,0.1-0.2,0.2c-0.1,0.1-0.1,0.2-0.1,0.3c0,0.1,0,0.2-0.1,0.4c0,0.1,0,0.3,0,0.4
		c0,0.1,0,0.3,0,0.4v4.4c0,0.7,0.1,1.1,0.2,1.4c0.2,0.3,0.5,0.5,0.9,0.5c0.2,0,0.4,0,0.6-0.1c0.2-0.1,0.3-0.2,0.4-0.4
		c0.1-0.2,0.2-0.4,0.2-0.6c0-0.2,0.1-0.5,0.1-0.9v-0.9h-1.2v-1.3h3v5.6h-1.3l-0.1-1.1C44.7,185.5,44.1,185.9,43.2,185.9"/>
	<polygon class="st1" points="48,174.9 48,185.8 52.6,185.8 52.6,184.4 50,184.4 50,180.8 52,180.8 52,179.4 50,179.4 50,176.3 
		52.5,176.3 52.5,174.9 	"/>
	<polygon class="st1" points="53.6,185.8 53.6,174.9 55,174.9 57.7,181.1 57.7,174.9 59.3,174.9 59.3,185.8 58,185.8 55.3,179.3 
		55.3,185.8 	"/>
	<path class="st1" d="M60.9,185.8v-10.9h2.5c0.7,0,1.2,0.1,1.7,0.2c0.4,0.1,0.8,0.3,1.1,0.6c0.3,0.3,0.5,0.6,0.6,1.1
		s0.2,0.9,0.2,1.5v3.9c0,0.6-0.1,1.2-0.2,1.6c-0.1,0.4-0.3,0.8-0.6,1.1c-0.3,0.3-0.6,0.5-1,0.7c-0.4,0.1-1,0.2-1.6,0.2H60.9z
		 M62.9,184.4h0.6c0.2,0,0.4,0,0.5-0.1c0.2,0,0.3-0.1,0.4-0.1c0.1,0,0.2-0.1,0.3-0.2c0.1-0.1,0.1-0.2,0.2-0.3c0-0.1,0.1-0.2,0.1-0.4
		c0-0.2,0-0.3,0-0.5c0-0.1,0-0.3,0-0.6v-4c0-0.3,0-0.5,0-0.6c0-0.2,0-0.3-0.1-0.5c0-0.2-0.1-0.3-0.1-0.4c-0.1-0.1-0.1-0.2-0.3-0.2
		c-0.1-0.1-0.2-0.1-0.4-0.2c-0.2,0-0.4,0-0.6,0h-0.5V184.4z"/>
	<polygon class="st1" points="68.3,174.9 68.3,185.8 72.9,185.8 72.9,184.4 70.3,184.4 70.3,180.8 72.4,180.8 72.4,179.4 
		70.3,179.4 70.3,176.3 72.9,176.3 72.9,174.9 	"/>
	<path class="st1" d="M74,185.8v-10.9h2.5c0.6,0,1.1,0,1.5,0.1c0.4,0.1,0.8,0.3,1.1,0.5c0.3,0.2,0.5,0.5,0.7,0.9
		c0.2,0.4,0.2,0.8,0.2,1.4c0,0.7-0.1,1.2-0.3,1.7c-0.2,0.4-0.5,0.8-1,0.9l1.5,5.4h-2l-1.3-5H76v5H74z M76,179.5h0.5
		c0.6,0,1-0.1,1.3-0.4c0.2-0.2,0.4-0.7,0.4-1.3c0-0.6-0.1-1-0.3-1.3c-0.2-0.3-0.6-0.4-1.2-0.4H76V179.5z"/>
	<polygon class="st1" points="40.5,192.7 40.5,203.7 45.1,203.7 45.1,202.3 42.5,202.3 42.5,198.7 44.5,198.7 44.5,197.3 
		42.5,197.3 42.5,194.1 45.1,194.1 45.1,192.7 	"/>
	<path class="st1" d="M51.5,205.9c-0.3-0.2-0.7-0.4-1.1-0.8c-0.4-0.4-0.7-0.8-1-1.2c0,0-0.1,0-0.2,0c-1.1,0-1.9-0.3-2.4-0.9
		c-0.5-0.6-0.7-1.5-0.7-2.7v-4c0-0.6,0.1-1.1,0.2-1.5c0.1-0.4,0.3-0.8,0.5-1.1c0.2-0.3,0.6-0.5,1-0.7c0.4-0.2,0.9-0.2,1.5-0.2
		c1.1,0,1.9,0.3,2.4,0.9c0.5,0.6,0.7,1.5,0.7,2.6v4c0,1.7-0.5,2.8-1.5,3.3c0.4,0.5,0.8,0.9,1.1,1L51.5,205.9z M48.7,202.2
		c0.1,0.1,0.3,0.1,0.5,0.1c0.2,0,0.4,0,0.5-0.1c0.1-0.1,0.2-0.1,0.3-0.2c0.1-0.1,0.1-0.2,0.2-0.4c0-0.2,0.1-0.3,0.1-0.4
		c0-0.2,0-0.3,0-0.5v-5c0-0.3,0-0.5,0-0.7c0-0.2-0.1-0.3-0.2-0.5c-0.1-0.2-0.2-0.3-0.3-0.4c-0.2-0.1-0.4-0.1-0.6-0.1
		c-0.2,0-0.4,0-0.6,0.1c-0.2,0.1-0.3,0.2-0.3,0.4c-0.1,0.2-0.1,0.3-0.2,0.5c0,0.2,0,0.4,0,0.7v5c0,0.2,0,0.4,0,0.5
		c0,0.2,0,0.3,0.1,0.4c0,0.2,0.1,0.3,0.2,0.4C48.4,202.1,48.5,202.2,48.7,202.2"/>
	<path class="st1" d="M56.7,203.8c-0.5,0-0.9-0.1-1.3-0.2c-0.4-0.1-0.7-0.3-0.9-0.5c-0.2-0.2-0.4-0.5-0.6-0.8
		c-0.1-0.3-0.2-0.7-0.3-1.1c-0.1-0.4-0.1-0.8-0.1-1.3v-7.3h1.9v7.5c0,0.3,0,0.5,0,0.7c0,0.2,0,0.4,0.1,0.6c0,0.2,0.1,0.4,0.2,0.5
		c0.1,0.1,0.2,0.2,0.3,0.3c0.1,0.1,0.3,0.1,0.5,0.1c0.2,0,0.4,0,0.5-0.1c0.1-0.1,0.3-0.2,0.3-0.3c0.1-0.1,0.1-0.3,0.2-0.5
		c0-0.2,0.1-0.4,0.1-0.6c0-0.2,0-0.4,0-0.7v-7.5h1.9v7.3c0,0.5,0,0.9-0.1,1.3c-0.1,0.4-0.2,0.7-0.3,1.1c-0.1,0.3-0.3,0.6-0.6,0.8
		c-0.2,0.2-0.5,0.4-0.9,0.5C57.6,203.7,57.2,203.8,56.7,203.8"/>
	<path class="st1" d="M60.7,203.7l2.2-10.9H65l2.2,10.9h-1.9l-0.4-2.5H63l-0.4,2.5H60.7z M63.2,199.8h1.5l-0.7-4.5L63.2,199.8z"/>
	<polygon class="st1" points="68.2,192.7 68.2,203.7 72.8,203.7 72.8,202.3 70.2,202.3 70.2,192.7 	"/>
	<rect x="73.9" y="192.7" class="st1" width="2" height="10.9"/>
	<polygon class="st1" points="78.5,203.7 78.5,194.2 76.7,194.2 76.7,192.7 82.3,192.7 82.3,194.2 80.5,194.2 80.5,203.7 	"/>
	<polygon class="st1" points="84.6,203.7 84.6,199.5 82.4,192.7 84.2,192.7 85.6,197.1 86.9,192.7 88.7,192.7 86.5,199.5 
		86.5,203.7 	"/>
	<path class="st1" d="M110.5,218.5H91.7c-0.1,0-0.2,0.1-0.2,0.2v6.2c0,0.1,0.1,0.2,0.2,0.2h7.5l-8.3,8.3c-4.2-3.3-9.4-5.2-15.1-5.2
		c-13.5,0-24.5,11-24.5,24.5c0,12.5,9.3,22.8,21.4,24.3v7.2h-7.4c-0.1,0-0.2,0.1-0.2,0.2v6.7c0,0.1,0.1,0.2,0.2,0.2h7.4v7.1
		c0,0.1,0.1,0.2,0.2,0.2h6.7c0.1,0,0.2-0.1,0.2-0.2v-7.1h7.4c0.1,0,0.2-0.1,0.2-0.2v-6.7c0-0.1-0.1-0.2-0.2-0.2h-7.4V277
		c11.6-1.9,20.6-12,20.6-24.2c0-5.3-1.7-10.1-4.5-14.1l8.2-8.2v7c0,0.1,0.1,0.2,0.2,0.2h6.2c0.1,0,0.2-0.1,0.2-0.2v-18.7
		C110.7,218.6,110.6,218.5,110.5,218.5 M75.8,270.9c-10,0-18.1-8.1-18.1-18.1c0-10,8.1-18.1,18.1-18.1c10,0,18.1,8.1,18.1,18.1
		C93.8,262.8,85.7,270.9,75.8,270.9"/>
	<path class="st1" d="M86.8,245.4H64.9c-0.1,0-0.2,0.1-0.2,0.2v5.3c0,0.1,0.1,0.2,0.2,0.2h21.9c0.1,0,0.2-0.1,0.2-0.2v-5.3
		C87.1,245.5,87,245.4,86.8,245.4"/>
	<path class="st1" d="M86.8,254.9H64.9c-0.1,0-0.2,0.1-0.2,0.2v5.3c0,0.1,0.1,0.2,0.2,0.2h21.9c0.1,0,0.2-0.1,0.2-0.2v-5.3
		C87.1,255,87,254.9,86.8,254.9"/>
</g>
</svg>
