<?xml version="1.0" encoding="utf-8"?>
<!-- Generator: Adobe Illustrator 26.4.0, SVG Export Plug-In . SVG Version: 6.00 Build 0)  -->
<svg version="1.1" id="Layer_1" xmlns="http://www.w3.org/2000/svg" xmlns:xlink="http://www.w3.org/1999/xlink" x="0px" y="0px"
	 viewBox="0 0 312.9 150" style="enable-background:new 0 0 312.9 150;" xml:space="preserve">
<style type="text/css">
	.st0{fill:#F36F26;}
	.st1{fill:#FFFFFF;}
	.st2{fill:#CD8C2A;}
</style>
<g>
	<g>
		<rect class="st0" width="151" height="149.8"/>
		<path class="st1" d="M14,40.2c-1.1-1.2-1.7-3-1.7-5.5v-0.4h5.2c0,1.3,0.1,2.2,0.4,2.8c0.3,0.5,0.8,0.8,1.7,0.8
			c0.6,0,1-0.2,1.3-0.5c0.3-0.4,0.5-0.9,0.6-1.7c0.1-0.8,0.2-2,0.2-3.5v-2.9c-0.3,0.5-0.8,0.9-1.5,1.2c-0.7,0.3-1.4,0.4-2.3,0.4
			c-2.1,0-3.7-0.8-4.7-2.3c-1-1.5-1.5-3.6-1.5-6.2c0-6.4,2.6-9.6,7.7-9.6c2.7,0,4.6,0.8,5.9,2.4c1.3,1.6,1.9,3.9,1.9,6.7v10.4
			c0,3.1-0.6,5.5-1.7,7.2c-1.2,1.7-3.2,2.6-6.1,2.6C17,42,15.1,41.4,14,40.2 M21.7,25.3v-4.5c0-1.3-0.2-2.2-0.5-3
			c-0.3-0.7-0.9-1.1-1.7-1.1c-0.9,0-1.4,0.4-1.7,1.2c-0.3,0.8-0.4,2-0.4,3.8c0,1.2,0,2.2,0.1,2.8c0.1,0.6,0.3,1.2,0.6,1.6
			c0.3,0.4,0.8,0.6,1.5,0.6C20.5,26.6,21.2,26.2,21.7,25.3"/>
		<rect x="33.7" y="12.8" class="st1" width="2" height="10.9"/>
		<polygon class="st1" points="36.7,23.7 36.7,12.8 38.1,12.8 40.7,19 40.7,12.8 42.4,12.8 42.4,23.7 41.1,23.7 38.4,17.2 
			38.4,23.7 		"/>
		<path class="st1" d="M43.3,23.7V12.8h2.6c0.7,0,1.2,0.1,1.7,0.2c0.4,0.1,0.8,0.3,1.1,0.6c0.3,0.3,0.5,0.6,0.6,1.1
			c0.1,0.4,0.2,0.9,0.2,1.5v3.9c0,0.6-0.1,1.2-0.2,1.6c-0.1,0.4-0.3,0.8-0.6,1.1c-0.3,0.3-0.6,0.5-1,0.7c-0.4,0.1-1,0.2-1.6,0.2
			H43.3z M45.4,22.3h0.6c0.2,0,0.4,0,0.5-0.1c0.2,0,0.3-0.1,0.4-0.1c0.1,0,0.2-0.1,0.3-0.2c0.1-0.1,0.1-0.2,0.2-0.3
			c0-0.1,0.1-0.2,0.1-0.4c0-0.2,0-0.3,0-0.5c0-0.1,0-0.3,0-0.6v-4c0-0.3,0-0.5,0-0.6c0-0.2,0-0.3-0.1-0.5c0-0.2-0.1-0.3-0.1-0.4
			c-0.1-0.1-0.2-0.2-0.3-0.2c-0.1-0.1-0.2-0.1-0.4-0.2c-0.2,0-0.3,0-0.6,0h-0.5V22.3z"/>
		<path class="st1" d="M53.2,23.9c-0.5,0-0.9-0.1-1.3-0.2c-0.4-0.1-0.7-0.3-0.9-0.5c-0.2-0.2-0.4-0.5-0.6-0.8
			c-0.1-0.3-0.2-0.7-0.3-1c-0.1-0.4-0.1-0.8-0.1-1.3v-7.2H52v7.5c0,0.3,0,0.5,0,0.7c0,0.2,0,0.4,0.1,0.6c0,0.2,0.1,0.4,0.2,0.5
			c0.1,0.1,0.2,0.2,0.3,0.3c0.1,0.1,0.3,0.1,0.5,0.1c0.2,0,0.4,0,0.5-0.1c0.1-0.1,0.3-0.2,0.3-0.3c0.1-0.1,0.1-0.3,0.2-0.5
			c0-0.2,0.1-0.4,0.1-0.6c0-0.2,0-0.4,0-0.7v-7.5h1.9v7.2c0,0.5,0,0.9-0.1,1.3c-0.1,0.4-0.2,0.7-0.3,1c-0.1,0.3-0.3,0.6-0.5,0.8
			c-0.2,0.2-0.5,0.4-0.9,0.5C54.1,23.8,53.7,23.9,53.2,23.9"/>
		<path class="st1" d="M59.9,23.9c-1.9,0-3-1.1-3.1-3.3l1.7-0.4c0,1.4,0.5,2.2,1.2,2.2c0.3,0,0.5-0.1,0.7-0.3
			c0.1-0.2,0.2-0.4,0.2-0.7c0-0.3-0.1-0.6-0.2-0.8c-0.1-0.3-0.2-0.5-0.4-0.6c-0.1-0.2-0.4-0.4-0.6-0.6L58.1,18
			c-0.4-0.4-0.7-0.8-1-1.1c-0.2-0.4-0.3-0.9-0.3-1.5c0-0.8,0.3-1.5,0.8-2c0.5-0.5,1.2-0.7,2.1-0.7c0.4,0,0.8,0,1.1,0.1
			c0.3,0.1,0.6,0.2,0.8,0.4c0.2,0.2,0.4,0.4,0.5,0.6c0.1,0.3,0.2,0.5,0.3,0.8c0.1,0.3,0.1,0.6,0.1,0.9L60.7,16c0-0.2,0-0.4,0-0.6
			c0-0.2-0.1-0.3-0.1-0.5c0-0.2-0.1-0.3-0.2-0.4c-0.1-0.1-0.2-0.2-0.3-0.3c-0.1-0.1-0.3-0.1-0.5-0.1c-0.3,0-0.5,0.1-0.7,0.3
			c-0.2,0.2-0.2,0.4-0.2,0.7c0,0.4,0.1,0.6,0.2,0.9c0.1,0.2,0.4,0.5,0.7,0.7L61,18c0.2,0.2,0.5,0.4,0.6,0.6c0.2,0.2,0.3,0.4,0.5,0.7
			c0.2,0.3,0.3,0.5,0.4,0.9c0.1,0.3,0.1,0.6,0.1,1c0,0.8-0.3,1.4-0.8,1.9C61.4,23.6,60.7,23.9,59.9,23.9"/>
		<polygon class="st1" points="64.2,23.7 64.2,14.3 62.3,14.3 62.3,12.8 68,12.8 68,14.3 66.2,14.3 66.2,23.7 		"/>
		<path class="st1" d="M68.1,23.7V12.8h2.5c0.6,0,1.1,0,1.5,0.1c0.4,0.1,0.8,0.3,1.1,0.5c0.3,0.2,0.5,0.5,0.7,0.9
			c0.2,0.4,0.2,0.8,0.2,1.4c0,0.7-0.1,1.2-0.3,1.7c-0.2,0.4-0.5,0.8-1,0.9l1.5,5.4h-2l-1.3-5h-0.9v5H68.1z M70.1,17.5h0.5
			c0.6,0,1-0.1,1.3-0.4c0.2-0.3,0.4-0.7,0.4-1.3c0-0.6-0.1-1-0.3-1.3c-0.2-0.3-0.6-0.4-1.2-0.4h-0.6V17.5z"/>
		<polygon class="st1" points="76.5,23.7 76.5,19.6 74.2,12.8 76.1,12.8 77.5,17.2 78.8,12.8 80.6,12.8 78.4,19.6 78.4,23.7 		"/>
		<path class="st1" d="M80.7,25.6l-0.2-0.7c0.3-0.1,0.5-0.2,0.6-0.4c0.2-0.2,0.3-0.5,0.3-0.8h-1V22h1.8v1.7
			C82.2,24.7,81.7,25.4,80.7,25.6"/>
		<rect x="85.5" y="12.8" class="st1" width="2" height="10.9"/>
		<polygon class="st1" points="88.5,23.7 88.5,12.8 89.9,12.8 92.5,19 92.5,12.8 94.2,12.8 94.2,23.7 92.9,23.7 90.2,17.2 
			90.2,23.7 		"/>
		<polygon class="st1" points="95.1,23.7 95.1,12.8 96.5,12.8 99.2,19 99.2,12.8 100.9,12.8 100.9,23.7 99.6,23.7 96.8,17.2 
			96.8,23.7 		"/>
		<path class="st1" d="M104.8,23.9c-1.1,0-1.9-0.3-2.4-0.9c-0.5-0.6-0.7-1.5-0.7-2.7v-4c0-0.6,0.1-1.1,0.2-1.5
			c0.1-0.4,0.3-0.8,0.5-1.1c0.2-0.3,0.6-0.5,1-0.7c0.4-0.2,0.9-0.2,1.5-0.2c1.1,0,1.9,0.3,2.4,0.9c0.5,0.6,0.7,1.5,0.7,2.6v4
			c0,0.6-0.1,1.1-0.2,1.5c-0.1,0.4-0.3,0.8-0.5,1.1c-0.2,0.3-0.6,0.6-1,0.7C105.9,23.8,105.4,23.9,104.8,23.9 M104.3,22.3
			c0.1,0.1,0.3,0.1,0.5,0.1c0.2,0,0.4,0,0.5-0.1c0.1-0.1,0.2-0.1,0.3-0.2c0.1-0.1,0.1-0.2,0.2-0.4c0-0.1,0.1-0.3,0.1-0.4
			c0-0.2,0-0.3,0-0.5v-5c0-0.3,0-0.5,0-0.7c0-0.2-0.1-0.3-0.2-0.5c-0.1-0.2-0.2-0.3-0.3-0.3c-0.2-0.1-0.4-0.1-0.6-0.1
			c-0.2,0-0.4,0-0.6,0.1c-0.2,0.1-0.3,0.2-0.3,0.3c-0.1,0.2-0.1,0.3-0.2,0.5c0,0.2,0,0.4,0,0.7v5c0,0.2,0,0.4,0,0.5
			c0,0.1,0,0.3,0.1,0.4c0,0.2,0.1,0.3,0.2,0.4C104.1,22.2,104.2,22.3,104.3,22.3"/>
		<polygon class="st1" points="110.5,23.7 108.2,12.8 110,12.8 111.5,20.4 112.8,12.8 114.6,12.8 112.4,23.7 		"/>
		<path class="st1" d="M114.1,23.7l2.2-10.9h2.1l2.2,10.9h-1.9l-0.4-2.5h-1.9l-0.5,2.5H114.1z M116.7,19.9h1.5l-0.7-4.5L116.7,19.9z
			"/>
		<polygon class="st1" points="121.7,23.7 121.7,14.3 119.9,14.3 119.9,12.8 125.5,12.8 125.5,14.3 123.8,14.3 123.8,23.7 		"/>
		<rect x="125.8" y="12.8" class="st1" width="2" height="10.9"/>
		<path class="st1" d="M131.7,23.9c-1.1,0-1.9-0.3-2.4-0.9c-0.5-0.6-0.7-1.5-0.7-2.7v-4c0-0.6,0.1-1.1,0.2-1.5
			c0.1-0.4,0.3-0.8,0.5-1.1c0.2-0.3,0.6-0.5,1-0.7c0.4-0.2,0.9-0.2,1.5-0.2c1.1,0,1.9,0.3,2.4,0.9c0.5,0.6,0.7,1.5,0.7,2.6v4
			c0,0.6-0.1,1.1-0.2,1.5c-0.1,0.4-0.3,0.8-0.5,1.1c-0.2,0.3-0.6,0.6-1,0.7C132.8,23.8,132.3,23.9,131.7,23.9 M131.2,22.3
			c0.1,0.1,0.3,0.1,0.5,0.1c0.2,0,0.4,0,0.5-0.1c0.1-0.1,0.2-0.1,0.3-0.2c0.1-0.1,0.1-0.2,0.2-0.4c0-0.1,0.1-0.3,0.1-0.4
			c0-0.2,0-0.3,0-0.5v-5c0-0.3,0-0.5,0-0.7c0-0.2-0.1-0.3-0.2-0.5c-0.1-0.2-0.2-0.3-0.3-0.3c-0.2-0.1-0.4-0.1-0.6-0.1
			c-0.2,0-0.4,0-0.6,0.1c-0.2,0.1-0.3,0.2-0.3,0.3c-0.1,0.2-0.1,0.3-0.2,0.5c0,0.2,0,0.4,0,0.7v5c0,0.2,0,0.4,0,0.5
			c0,0.1,0,0.3,0.1,0.4c0,0.2,0.1,0.3,0.2,0.4C131,22.2,131.1,22.3,131.2,22.3"/>
		<polygon class="st1" points="135.7,23.7 135.7,12.8 137,12.8 139.7,19 139.7,12.8 141.4,12.8 141.4,23.7 140.1,23.7 137.3,17.2 
			137.3,23.7 		"/>
		<path class="st1" d="M33.1,41.6l2.2-10.9h2.1l2.2,10.9h-1.9L37.3,39h-1.9L35,41.6H33.1z M35.6,37.7h1.5l-0.7-4.5L35.6,37.7z"/>
		<polygon class="st1" points="40.2,41.6 40.2,30.7 41.6,30.7 44.3,36.8 44.3,30.7 45.9,30.7 45.9,41.6 44.6,41.6 41.9,35.1 
			41.9,41.6 		"/>
		<path class="st1" d="M47,41.6V30.7h2.6c0.7,0,1.2,0.1,1.7,0.2c0.4,0.1,0.8,0.3,1.1,0.6c0.3,0.3,0.5,0.6,0.6,1.1
			c0.1,0.4,0.2,0.9,0.2,1.5V38c0,0.6-0.1,1.2-0.2,1.6c-0.1,0.4-0.3,0.8-0.6,1.1c-0.3,0.3-0.6,0.5-1,0.7c-0.4,0.1-1,0.2-1.6,0.2H47z
			 M49,40.2h0.6c0.2,0,0.4,0,0.5-0.1c0.2,0,0.3-0.1,0.4-0.1c0.1,0,0.2-0.1,0.3-0.2c0.1-0.1,0.1-0.2,0.2-0.3c0-0.1,0.1-0.2,0.1-0.4
			c0-0.2,0-0.3,0-0.5c0-0.1,0-0.3,0-0.6v-4c0-0.3,0-0.5,0-0.6c0-0.2,0-0.3-0.1-0.5c0-0.2-0.1-0.3-0.1-0.4c-0.1-0.1-0.2-0.2-0.3-0.2
			c-0.1-0.1-0.2-0.1-0.4-0.2c-0.2,0-0.3,0-0.6,0H49V40.2z"/>
		<rect x="56.9" y="30.7" class="st1" width="2" height="10.9"/>
		<polygon class="st1" points="60,41.6 60,30.7 61.4,30.7 64.1,36.8 64.1,30.7 65.7,30.7 65.7,41.6 64.4,41.6 61.7,35.1 61.7,41.6 
					"/>
		<polygon class="st1" points="66.9,30.7 66.9,41.6 68.9,41.6 68.9,36.6 70.9,36.6 70.9,35.2 68.9,35.2 68.9,32 71.4,32 71.4,30.7 
					"/>
		<path class="st1" d="M71.9,41.6V30.7h2.5c0.6,0,1.1,0,1.5,0.1c0.4,0.1,0.8,0.3,1.1,0.5c0.3,0.2,0.5,0.5,0.7,0.9
			c0.2,0.4,0.2,0.8,0.2,1.4c0,0.7-0.1,1.2-0.3,1.7c-0.2,0.4-0.5,0.8-1,0.9l1.5,5.4h-2l-1.3-5h-0.9v5H71.9z M73.9,35.3h0.5
			c0.6,0,1-0.1,1.3-0.4c0.2-0.3,0.4-0.7,0.4-1.3c0-0.6-0.1-1-0.3-1.3c-0.2-0.3-0.6-0.4-1.2-0.4h-0.6V35.3z"/>
		<path class="st1" d="M78.3,41.6l2.2-10.9h2.1l2.2,10.9H83L82.6,39h-1.9l-0.5,2.5H78.3z M80.9,37.7h1.5l-0.7-4.5L80.9,37.7z"/>
		<path class="st1" d="M88.2,41.7c-1.9,0-3-1.1-3.1-3.3l1.7-0.4c0,1.4,0.5,2.2,1.2,2.2c0.3,0,0.5-0.1,0.7-0.3
			c0.1-0.2,0.2-0.4,0.2-0.7c0-0.3-0.1-0.6-0.2-0.8c-0.1-0.3-0.2-0.5-0.4-0.6c-0.1-0.2-0.4-0.4-0.6-0.6l-1.4-1.2
			c-0.4-0.4-0.7-0.8-1-1.1c-0.2-0.4-0.3-0.9-0.3-1.5c0-0.8,0.3-1.5,0.8-2c0.5-0.5,1.2-0.7,2.1-0.7c0.4,0,0.8,0,1.1,0.1
			c0.3,0.1,0.6,0.2,0.8,0.4c0.2,0.2,0.4,0.4,0.5,0.6c0.1,0.3,0.2,0.5,0.3,0.8c0.1,0.3,0.1,0.6,0.1,0.9l-1.7,0.3c0-0.2,0-0.4,0-0.6
			c0-0.2-0.1-0.3-0.1-0.5c0-0.2-0.1-0.3-0.2-0.4c-0.1-0.1-0.2-0.2-0.3-0.3C88.3,32,88.1,32,88,32c-0.3,0-0.5,0.1-0.7,0.3
			C87.1,32.5,87,32.7,87,33c0,0.4,0.1,0.6,0.2,0.9c0.1,0.2,0.4,0.5,0.7,0.7l1.4,1.2c0.2,0.2,0.5,0.4,0.6,0.6
			c0.2,0.2,0.3,0.4,0.5,0.7c0.2,0.3,0.3,0.5,0.4,0.9c0.1,0.3,0.1,0.6,0.1,1c0,0.8-0.3,1.4-0.8,1.9C89.7,41.5,89,41.7,88.2,41.7"/>
		<polygon class="st1" points="92.7,41.6 92.7,32.1 90.8,32.1 90.8,30.7 96.5,30.7 96.5,32.1 94.7,32.1 94.7,41.6 		"/>
		<path class="st1" d="M96.8,41.6V30.7h2.5c0.6,0,1.1,0,1.5,0.1c0.4,0.1,0.8,0.3,1.1,0.5c0.3,0.2,0.5,0.5,0.7,0.9
			c0.2,0.4,0.2,0.8,0.2,1.4c0,0.7-0.1,1.2-0.3,1.7c-0.2,0.4-0.5,0.8-1,0.9l1.5,5.4h-2l-1.3-5h-0.9v5H96.8z M98.8,35.3h0.5
			c0.6,0,1-0.1,1.3-0.4c0.2-0.3,0.4-0.7,0.4-1.3c0-0.6-0.1-1-0.3-1.3c-0.2-0.3-0.6-0.4-1.2-0.4h-0.6V35.3z"/>
		<path class="st1" d="M106.8,41.7c-0.5,0-0.9-0.1-1.3-0.2c-0.4-0.1-0.7-0.3-0.9-0.5c-0.2-0.2-0.4-0.5-0.6-0.8
			c-0.1-0.3-0.2-0.7-0.3-1c-0.1-0.4-0.1-0.8-0.1-1.3v-7.2h1.9v7.5c0,0.3,0,0.5,0,0.7c0,0.2,0,0.4,0.1,0.6s0.1,0.4,0.2,0.5
			c0.1,0.1,0.2,0.2,0.3,0.3c0.1,0.1,0.3,0.1,0.5,0.1c0.2,0,0.4,0,0.5-0.1c0.1-0.1,0.3-0.2,0.3-0.3c0.1-0.1,0.1-0.3,0.2-0.5
			c0-0.2,0.1-0.4,0.1-0.6c0-0.2,0-0.4,0-0.7v-7.5h1.9v7.2c0,0.5,0,0.9-0.1,1.3c-0.1,0.4-0.2,0.7-0.3,1c-0.1,0.3-0.3,0.6-0.6,0.8
			c-0.2,0.2-0.5,0.4-0.9,0.5C107.7,41.7,107.3,41.7,106.8,41.7"/>
		<path class="st1" d="M113.9,41.7c-0.5,0-0.9-0.1-1.3-0.2c-0.4-0.1-0.7-0.3-0.9-0.5c-0.2-0.2-0.4-0.5-0.6-0.8
			c-0.1-0.3-0.3-0.6-0.3-1c-0.1-0.4-0.1-0.8-0.1-1.2v-3.8c0-0.5,0-0.9,0.1-1.3c0.1-0.4,0.2-0.7,0.3-1c0.1-0.3,0.3-0.6,0.6-0.8
			c0.2-0.2,0.5-0.4,0.9-0.5c0.4-0.1,0.8-0.2,1.3-0.2c0.5,0,1,0.1,1.4,0.2c0.4,0.1,0.7,0.4,0.9,0.6c0.2,0.3,0.4,0.6,0.5,1
			c0.1,0.4,0.2,0.8,0.2,1.3v0.9h-1.9v-0.9c0-0.5,0-0.9-0.1-1.1c-0.1-0.4-0.4-0.6-0.8-0.6h-0.1c-0.2,0-0.3,0-0.4,0.1
			c-0.1,0-0.2,0.1-0.3,0.2c-0.1,0.1-0.1,0.2-0.2,0.3c0,0.1-0.1,0.2-0.1,0.4c0,0.2,0,0.3,0,0.4c0,0.1,0,0.3,0,0.5v4.6
			c0,0.6,0.1,1.1,0.2,1.4c0.2,0.3,0.5,0.4,0.9,0.4c0.1,0,0.3,0,0.4,0c0.1,0,0.2-0.1,0.3-0.1c0.1-0.1,0.1-0.1,0.2-0.2
			c0.1-0.1,0.1-0.2,0.1-0.3c0-0.1,0-0.2,0.1-0.3c0-0.1,0-0.3,0-0.4c0-0.1,0-0.2,0-0.4v-1h1.9v0.9c0,0.4,0,0.8-0.1,1.1
			c-0.1,0.3-0.2,0.6-0.3,0.9c-0.1,0.3-0.3,0.5-0.5,0.7c-0.2,0.2-0.5,0.3-0.8,0.4C114.8,41.7,114.4,41.7,113.9,41.7"/>
		<polygon class="st1" points="118.8,41.6 118.8,32.1 117,32.1 117,30.7 122.6,30.7 122.6,32.1 120.8,32.1 120.8,41.6 		"/>
		<path class="st1" d="M126,41.7c-0.5,0-0.9-0.1-1.3-0.2c-0.4-0.1-0.7-0.3-0.9-0.5c-0.2-0.2-0.4-0.5-0.6-0.8c-0.1-0.3-0.2-0.7-0.3-1
			c-0.1-0.4-0.1-0.8-0.1-1.3v-7.2h1.9v7.5c0,0.3,0,0.5,0,0.7c0,0.2,0,0.4,0.1,0.6s0.1,0.4,0.2,0.5c0.1,0.1,0.2,0.2,0.3,0.3
			c0.1,0.1,0.3,0.1,0.5,0.1c0.2,0,0.4,0,0.5-0.1c0.1-0.1,0.3-0.2,0.3-0.3c0.1-0.1,0.1-0.3,0.2-0.5s0.1-0.4,0.1-0.6
			c0-0.2,0-0.4,0-0.7v-7.5h1.9v7.2c0,0.5,0,0.9-0.1,1.3c-0.1,0.4-0.2,0.7-0.3,1c-0.1,0.3-0.3,0.6-0.5,0.8c-0.2,0.2-0.5,0.4-0.9,0.5
			C126.9,41.7,126.4,41.7,126,41.7"/>
		<path class="st1" d="M130.1,41.6V30.7h2.5c0.6,0,1.1,0,1.5,0.1c0.4,0.1,0.8,0.3,1.1,0.5c0.3,0.2,0.5,0.5,0.7,0.9
			c0.2,0.4,0.2,0.8,0.2,1.4c0,0.7-0.1,1.2-0.3,1.7c-0.2,0.4-0.5,0.8-1,0.9l1.5,5.4h-2l-1.3-5h-0.9v5H130.1z M132.1,35.3h0.5
			c0.6,0,1-0.1,1.3-0.4c0.2-0.3,0.4-0.7,0.4-1.3c0-0.6-0.1-1-0.3-1.3c-0.2-0.3-0.6-0.4-1.2-0.4h-0.6V35.3z"/>
		<polygon class="st1" points="137.1,30.7 137.1,41.6 141.7,41.6 141.7,40.2 139.1,40.2 139.1,36.6 141.1,36.6 141.1,35.2 
			139.1,35.2 139.1,32.1 141.7,32.1 141.7,30.7 		"/>
		<path class="st1" d="M114.2,98.6l-18-10.3V67.6c0-0.4-0.2-0.8-0.6-1.1L76.9,55.9c-0.4-0.2-0.8-0.2-1.2,0L57.1,66.5
			c-0.4,0.2-0.6,0.6-0.6,1.1v20.7l-18,10.3c-0.4,0.2-0.6,0.6-0.6,1.1V121c0,0.4,0.2,0.8,0.6,1.1l18.6,10.7c0.2,0.1,0.4,0.2,0.6,0.2
			s0.4-0.1,0.6-0.2l18-10.3l18,10.3c0.2,0.1,0.4,0.2,0.6,0.2c0.2,0,0.4-0.1,0.6-0.2l18.6-10.7c0.4-0.2,0.6-0.6,0.6-1.1V99.6
			C114.8,99.2,114.6,98.8,114.2,98.6 M75.1,118.9l-15-8.6l15-8.6V118.9z M92.5,89l-14.9,8.6V80.4L92.5,89z M75.1,97.5l-15-8.6
			l15-8.6V97.5z M78.8,99.6L95,90.4l16.2,9.3L95,108.9L78.8,99.6z M93.7,86.8l-15-8.6l15-8.6V86.8z M73.9,78.3l-15,8.6V69.7
			L73.9,78.3z M56.5,129.6l-16.2-9.3v-18.5l16.2,9.3V129.6z M58.9,129.6v-17.1l15,8.6L58.9,129.6z M112.4,120.3l-16.2,9.3V111
			l16.2-9.3V120.3z"/>
	</g>
	<rect x="162.9" class="st2" width="151" height="149.8"/>
	<path class="st1" d="M175.9,18.7c-0.3,0.1-1,0.4-2.3,0.9c-1,0.3-1.6,0.6-1.9,0.7v-4.1c0.8-0.3,1.8-0.8,2.9-1.4
		c1.1-0.6,2-1.2,2.4-1.7h4.3v28.6h-5.5V18.7z"/>
	<path class="st1" d="M184.4,37.8l7-10.7l0.4-0.6c0.9-1.3,1.6-2.5,2-3.4c0.4-0.9,0.6-1.9,0.6-3c0-0.9-0.2-1.6-0.5-2.1
		c-0.4-0.5-0.9-0.7-1.5-0.7c-1,0-1.7,0.4-2.1,1.1c-0.4,0.8-0.6,1.8-0.6,3.1v1.3h-5.3v-1.4c0-2.7,0.6-4.8,1.9-6.4
		c1.3-1.6,3.3-2.3,5.9-2.3c2.5,0,4.4,0.6,5.7,2c1.3,1.3,1.9,3.2,1.9,5.6c0,1.1-0.2,2.1-0.5,3.1c-0.3,1-0.7,1.8-1.2,2.6
		c-0.5,0.8-1.2,1.8-2.1,3.2l-5.5,8.3h8.6v4.3h-14.7V37.8z"/>
	<path class="st1" d="M211,23.9V13h2.5c0.6,0,1.1,0,1.5,0.1c0.4,0.1,0.8,0.3,1.1,0.5c0.3,0.2,0.5,0.5,0.7,0.9
		c0.2,0.4,0.2,0.8,0.2,1.4c0,0.7-0.1,1.2-0.3,1.7c-0.2,0.4-0.5,0.8-1,0.9l1.5,5.4h-2l-1.3-5H213v5H211z M213,17.7h0.5
		c0.6,0,1-0.1,1.3-0.4c0.3-0.3,0.4-0.7,0.4-1.3c0-0.6-0.1-1-0.3-1.3c-0.2-0.3-0.6-0.4-1.2-0.4H213V17.7z"/>
	<polygon class="st1" points="218.1,13 218.1,23.9 222.7,23.9 222.7,22.6 220.1,22.6 220.1,19 222.1,19 222.1,17.6 220.1,17.6 
		220.1,14.4 222.7,14.4 222.7,13 	"/>
	<path class="st1" d="M226.2,24.1c-1.9,0-3-1.1-3.1-3.3l1.7-0.4c0,1.4,0.5,2.2,1.2,2.2c0.3,0,0.5-0.1,0.7-0.3
		c0.1-0.2,0.2-0.4,0.2-0.7c0-0.3-0.1-0.6-0.2-0.8c-0.1-0.3-0.2-0.5-0.4-0.6c-0.1-0.2-0.4-0.4-0.6-0.6l-1.4-1.2
		c-0.4-0.4-0.7-0.8-1-1.1c-0.2-0.4-0.3-0.9-0.3-1.5c0-0.8,0.3-1.5,0.8-2c0.5-0.5,1.2-0.7,2.1-0.7c0.4,0,0.8,0,1.1,0.1
		c0.3,0.1,0.6,0.2,0.8,0.4c0.2,0.2,0.4,0.4,0.5,0.6c0.1,0.3,0.2,0.5,0.3,0.8c0.1,0.3,0.1,0.6,0.1,0.9l-1.7,0.3c0-0.2,0-0.4,0-0.6
		c0-0.2-0.1-0.3-0.1-0.5c0-0.2-0.1-0.3-0.2-0.4c-0.1-0.1-0.2-0.2-0.3-0.3c-0.1-0.1-0.3-0.1-0.5-0.1c-0.3,0-0.5,0.1-0.7,0.3
		c-0.2,0.2-0.2,0.4-0.2,0.7c0,0.4,0.1,0.6,0.2,0.9c0.1,0.2,0.4,0.5,0.7,0.7l1.4,1.2c0.2,0.2,0.4,0.4,0.6,0.6
		c0.2,0.2,0.3,0.4,0.5,0.7c0.2,0.3,0.3,0.5,0.4,0.9c0.1,0.3,0.1,0.6,0.1,1c0,0.8-0.3,1.4-0.8,1.9C227.7,23.8,227.1,24.1,226.2,24.1"
		/>
	<path class="st1" d="M229.8,23.9V13h3.2c1.9,0,2.8,1,2.8,3.1c0,1-0.3,1.8-0.8,2.2c-0.5,0.5-1.2,0.7-2.2,0.7h-1v4.9H229.8z
		 M231.8,17.7h0.6c0.6,0,1-0.1,1.1-0.3c0.2-0.2,0.3-0.6,0.3-1.2c0-0.3,0-0.6,0-0.8c0-0.2-0.1-0.4-0.2-0.5c-0.1-0.2-0.2-0.3-0.4-0.3
		c-0.2-0.1-0.5-0.1-0.8-0.1h-0.7V17.7z"/>
	<path class="st1" d="M239.4,24.1c-1.1,0-1.9-0.3-2.4-0.9c-0.5-0.6-0.7-1.5-0.7-2.7v-4c0-0.6,0.1-1.1,0.2-1.5
		c0.1-0.4,0.3-0.8,0.5-1.1c0.2-0.3,0.6-0.5,1-0.7c0.4-0.2,0.9-0.2,1.5-0.2c1.1,0,1.9,0.3,2.4,0.9c0.5,0.6,0.7,1.5,0.7,2.6v4
		c0,0.6-0.1,1.1-0.2,1.5c-0.1,0.4-0.3,0.8-0.5,1.1c-0.3,0.3-0.6,0.6-1,0.7C240.5,24,240,24.1,239.4,24.1 M238.9,22.5
		c0.1,0.1,0.3,0.1,0.5,0.1c0.2,0,0.4,0,0.5-0.1c0.1-0.1,0.2-0.1,0.3-0.2c0.1-0.1,0.1-0.2,0.2-0.4c0-0.1,0.1-0.3,0.1-0.4
		c0-0.2,0-0.3,0-0.5v-5c0-0.3,0-0.5,0-0.7c0-0.2-0.1-0.3-0.2-0.5c-0.1-0.2-0.2-0.3-0.3-0.3c-0.2-0.1-0.4-0.1-0.6-0.1
		c-0.2,0-0.4,0-0.6,0.1c-0.2,0.1-0.3,0.2-0.3,0.3c-0.1,0.2-0.1,0.3-0.2,0.5c0,0.2,0,0.4,0,0.7v5c0,0.2,0,0.4,0,0.5
		c0,0.1,0,0.3,0.1,0.4c0,0.2,0.1,0.3,0.2,0.4C238.6,22.4,238.7,22.5,238.9,22.5"/>
	<polygon class="st1" points="243.6,23.9 243.6,13 245,13 247.7,19.2 247.7,13 249.3,13 249.3,23.9 248,23.9 245.3,17.4 245.3,23.9 
			"/>
	<path class="st1" d="M253.4,24.1c-1.9,0-3-1.1-3.1-3.3l1.7-0.4c0,1.4,0.5,2.2,1.2,2.2c0.3,0,0.5-0.1,0.7-0.3
		c0.1-0.2,0.2-0.4,0.2-0.7c0-0.3-0.1-0.6-0.2-0.8c-0.1-0.3-0.2-0.5-0.4-0.6c-0.1-0.2-0.4-0.4-0.6-0.6l-1.4-1.2
		c-0.4-0.4-0.7-0.8-1-1.1c-0.2-0.4-0.3-0.9-0.3-1.5c0-0.8,0.3-1.5,0.8-2c0.5-0.5,1.2-0.7,2.1-0.7c0.4,0,0.8,0,1.1,0.1
		c0.3,0.1,0.6,0.2,0.8,0.4c0.2,0.2,0.4,0.4,0.5,0.6c0.1,0.3,0.2,0.5,0.3,0.8c0.1,0.3,0.1,0.6,0.1,0.9l-1.7,0.3c0-0.2,0-0.4,0-0.6
		c0-0.2-0.1-0.3-0.1-0.5c0-0.2-0.1-0.3-0.2-0.4c-0.1-0.1-0.2-0.2-0.3-0.3c-0.1-0.1-0.3-0.1-0.5-0.1c-0.3,0-0.5,0.1-0.7,0.3
		c-0.2,0.2-0.2,0.4-0.2,0.7c0,0.4,0.1,0.6,0.2,0.9c0.1,0.2,0.4,0.5,0.7,0.7l1.4,1.2c0.2,0.2,0.4,0.4,0.6,0.6
		c0.2,0.2,0.3,0.4,0.5,0.7c0.2,0.3,0.3,0.5,0.4,0.9c0.1,0.3,0.1,0.6,0.1,1c0,0.8-0.3,1.4-0.8,1.9C254.8,23.8,254.2,24.1,253.4,24.1"
		/>
	<rect x="256.9" y="13" class="st1" width="2" height="10.9"/>
	<path class="st1" d="M260.2,23.9V13h2.7c0.5,0,1,0,1.3,0.1c0.4,0.1,0.7,0.2,1,0.4c0.3,0.2,0.5,0.5,0.7,0.9c0.1,0.4,0.2,0.8,0.2,1.3
		c0,1.3-0.5,2.1-1.6,2.3c0.7,0.1,1.1,0.4,1.5,0.8c0.3,0.4,0.5,1.1,0.5,1.9c0,1-0.3,1.8-0.8,2.4c-0.5,0.5-1.3,0.8-2.3,0.8H260.2z
		 M262.2,17.5h0.6c0.6,0,1-0.1,1.2-0.4c0.2-0.3,0.3-0.7,0.3-1.3c0-0.3,0-0.6-0.1-0.7c-0.1-0.2-0.2-0.3-0.4-0.4
		c-0.2-0.1-0.4-0.2-0.6-0.2c-0.2,0-0.5,0-0.8,0h-0.3V17.5z M262.2,22.5h0.7c0.6,0,1-0.1,1.2-0.4c0.2-0.3,0.3-0.7,0.3-1.4
		c0-0.7-0.1-1.1-0.4-1.4c-0.3-0.3-0.7-0.4-1.3-0.4h-0.6V22.5z"/>
	<polygon class="st1" points="267.3,13 267.3,23.9 272,23.9 272,22.6 269.3,22.6 269.3,13 	"/>
	<polygon class="st1" points="272.6,13 272.6,23.9 277.3,23.9 277.3,22.6 274.6,22.6 274.6,19 276.7,19 276.7,17.6 274.6,17.6 
		274.6,14.4 277.2,14.4 277.2,13 	"/>
	<path class="st1" d="M213.9,41.9c-0.5,0-0.9-0.1-1.3-0.2c-0.4-0.1-0.7-0.3-0.9-0.5c-0.2-0.2-0.4-0.5-0.6-0.8
		c-0.1-0.3-0.3-0.6-0.3-1c-0.1-0.4-0.1-0.8-0.1-1.2v-3.8c0-0.5,0-0.9,0.1-1.3c0.1-0.4,0.2-0.7,0.3-1c0.1-0.3,0.3-0.6,0.6-0.8
		c0.2-0.2,0.5-0.4,0.9-0.5c0.4-0.1,0.8-0.2,1.3-0.2c0.5,0,1,0.1,1.4,0.2c0.4,0.1,0.7,0.4,0.9,0.6c0.2,0.3,0.4,0.6,0.5,1
		c0.1,0.4,0.2,0.8,0.2,1.3v0.9h-1.9v-0.9c0-0.5,0-0.9-0.1-1.1c-0.1-0.4-0.4-0.6-0.8-0.6h-0.1c-0.2,0-0.3,0-0.4,0.1
		c-0.1,0-0.2,0.1-0.3,0.2c-0.1,0.1-0.1,0.2-0.2,0.3c0,0.1-0.1,0.2-0.1,0.4c0,0.2,0,0.3,0,0.4c0,0.1,0,0.3,0,0.5v4.6
		c0,0.6,0.1,1.1,0.2,1.4c0.2,0.3,0.5,0.4,0.9,0.4c0.1,0,0.3,0,0.4,0c0.1,0,0.2-0.1,0.3-0.1c0.1-0.1,0.1-0.1,0.2-0.2
		c0.1-0.1,0.1-0.2,0.1-0.3c0-0.1,0-0.2,0.1-0.3c0-0.1,0-0.3,0-0.4c0-0.1,0-0.2,0-0.4v-1h1.9v0.9c0,0.4,0,0.8-0.1,1.1
		c-0.1,0.3-0.2,0.6-0.3,0.9c-0.1,0.3-0.3,0.5-0.5,0.7c-0.2,0.2-0.5,0.3-0.8,0.4C214.8,41.9,214.4,41.9,213.9,41.9"/>
	<path class="st1" d="M220.8,41.9c-1.1,0-1.9-0.3-2.4-0.9c-0.5-0.6-0.7-1.5-0.7-2.7v-4c0-0.6,0.1-1.1,0.2-1.5
		c0.1-0.4,0.3-0.8,0.5-1.1c0.2-0.3,0.6-0.5,1-0.7c0.4-0.2,0.9-0.2,1.5-0.2c1.1,0,1.9,0.3,2.4,0.9c0.5,0.6,0.7,1.5,0.7,2.6v4
		c0,0.6-0.1,1.1-0.2,1.5c-0.1,0.4-0.3,0.8-0.5,1.1c-0.3,0.3-0.6,0.6-1,0.7C221.9,41.8,221.4,41.9,220.8,41.9 M220.3,40.3
		c0.1,0.1,0.3,0.1,0.5,0.1c0.2,0,0.4,0,0.5-0.1c0.1-0.1,0.2-0.1,0.3-0.2c0.1-0.1,0.1-0.2,0.2-0.4c0-0.1,0.1-0.3,0.1-0.4
		c0-0.2,0-0.3,0-0.5v-5c0-0.3,0-0.5,0-0.7c0-0.2-0.1-0.3-0.2-0.5c-0.1-0.2-0.2-0.3-0.3-0.3c-0.2-0.1-0.4-0.1-0.6-0.1
		c-0.2,0-0.4,0-0.6,0.1c-0.2,0.1-0.3,0.2-0.3,0.3c-0.1,0.2-0.1,0.3-0.2,0.5c0,0.2,0,0.4,0,0.7v5c0,0.2,0,0.4,0,0.5
		c0,0.1,0,0.3,0.1,0.4c0,0.2,0.1,0.3,0.2,0.4C220.1,40.2,220.2,40.3,220.3,40.3"/>
	<polygon class="st1" points="225.1,41.8 225.1,30.9 226.5,30.9 229.1,37 229.1,30.9 230.8,30.9 230.8,41.8 229.5,41.8 226.8,35.3 
		226.8,41.8 	"/>
	<path class="st1" d="M234.8,41.9c-1.9,0-3-1.1-3.1-3.3l1.7-0.4c0,1.4,0.5,2.2,1.2,2.2c0.3,0,0.5-0.1,0.7-0.3
		c0.1-0.2,0.2-0.4,0.2-0.7c0-0.3-0.1-0.6-0.2-0.8c-0.1-0.3-0.2-0.5-0.4-0.6c-0.1-0.2-0.4-0.4-0.6-0.6l-1.4-1.2
		c-0.4-0.4-0.7-0.8-1-1.1c-0.2-0.4-0.3-0.9-0.3-1.5c0-0.8,0.3-1.5,0.8-2c0.5-0.5,1.2-0.7,2.1-0.7c0.4,0,0.8,0,1.1,0.1
		c0.3,0.1,0.6,0.2,0.8,0.4c0.2,0.2,0.4,0.4,0.5,0.6c0.1,0.3,0.2,0.5,0.3,0.8c0.1,0.3,0.1,0.6,0.1,0.9l-1.7,0.3c0-0.2,0-0.4,0-0.6
		c0-0.2-0.1-0.3-0.1-0.5c0-0.2-0.1-0.3-0.2-0.4c-0.1-0.1-0.2-0.2-0.3-0.3c-0.1-0.1-0.3-0.1-0.5-0.1c-0.3,0-0.5,0.1-0.7,0.3
		c-0.2,0.2-0.2,0.4-0.2,0.7c0,0.4,0.1,0.6,0.2,0.9c0.1,0.2,0.4,0.5,0.7,0.7l1.4,1.2c0.2,0.2,0.5,0.4,0.6,0.6
		c0.2,0.2,0.3,0.4,0.5,0.7c0.2,0.3,0.3,0.5,0.4,0.9c0.1,0.3,0.1,0.6,0.1,1c0,0.8-0.3,1.4-0.8,1.9C236.3,41.7,235.6,41.9,234.8,41.9"
		/>
	<path class="st1" d="M241.3,41.9c-0.5,0-0.9-0.1-1.3-0.2c-0.4-0.1-0.7-0.3-0.9-0.5c-0.2-0.2-0.4-0.5-0.6-0.8
		c-0.1-0.3-0.2-0.7-0.3-1c-0.1-0.4-0.1-0.8-0.1-1.3v-7.2h1.9v7.5c0,0.3,0,0.5,0,0.7c0,0.2,0,0.4,0.1,0.6c0,0.2,0.1,0.4,0.2,0.5
		c0.1,0.1,0.2,0.2,0.3,0.3c0.1,0.1,0.3,0.1,0.5,0.1c0.2,0,0.4,0,0.5-0.1c0.1-0.1,0.3-0.2,0.3-0.3c0.1-0.1,0.1-0.3,0.2-0.5
		c0-0.2,0.1-0.4,0.1-0.6c0-0.2,0-0.4,0-0.7v-7.5h1.9v7.2c0,0.5,0,0.9-0.1,1.3c-0.1,0.4-0.2,0.7-0.3,1c-0.1,0.3-0.3,0.6-0.5,0.8
		c-0.2,0.2-0.5,0.4-0.9,0.5C242.3,41.9,241.8,41.9,241.3,41.9"/>
	<polygon class="st1" points="245.6,41.8 245.7,30.9 247.8,30.9 249.4,38.5 251,30.9 253,30.9 253.2,41.8 251.7,41.8 251.6,34.3 
		250,41.8 248.8,41.8 247.2,34.2 247.1,41.8 	"/>
	<path class="st1" d="M254.4,41.8V30.9h3.2c1.9,0,2.8,1,2.8,3.1c0,1-0.3,1.8-0.8,2.2c-0.5,0.5-1.2,0.7-2.2,0.7h-1v4.9H254.4z
		 M256.4,35.5h0.6c0.6,0,1-0.1,1.1-0.3c0.2-0.2,0.3-0.6,0.3-1.2c0-0.3,0-0.6,0-0.8s-0.1-0.4-0.2-0.5c-0.1-0.2-0.2-0.3-0.4-0.3
		c-0.2-0.1-0.5-0.1-0.8-0.1h-0.7V35.5z"/>
	<polygon class="st1" points="262.2,41.8 262.2,32.3 260.3,32.3 260.3,30.9 265.9,30.9 265.9,32.3 264.2,32.3 264.2,41.8 	"/>
	<rect x="266.5" y="30.9" class="st1" width="2" height="10.9"/>
	<path class="st1" d="M272.7,41.9c-1.1,0-1.9-0.3-2.4-0.9c-0.5-0.6-0.7-1.5-0.7-2.7v-4c0-0.6,0.1-1.1,0.2-1.5
		c0.1-0.4,0.3-0.8,0.5-1.1c0.3-0.3,0.6-0.5,1-0.7c0.4-0.2,0.9-0.2,1.5-0.2c1.1,0,1.9,0.3,2.4,0.9c0.5,0.6,0.7,1.5,0.7,2.6v4
		c0,0.6-0.1,1.1-0.2,1.5c-0.1,0.4-0.3,0.8-0.5,1.1c-0.3,0.3-0.6,0.6-1,0.7C273.8,41.8,273.3,41.9,272.7,41.9 M272.2,40.3
		c0.1,0.1,0.3,0.1,0.5,0.1c0.2,0,0.4,0,0.5-0.1c0.1-0.1,0.2-0.1,0.3-0.2c0.1-0.1,0.1-0.2,0.2-0.4c0-0.1,0.1-0.3,0.1-0.4
		c0-0.2,0-0.3,0-0.5v-5c0-0.3,0-0.5,0-0.7c0-0.2-0.1-0.3-0.2-0.5c-0.1-0.2-0.2-0.3-0.3-0.3c-0.2-0.1-0.4-0.1-0.6-0.1
		c-0.2,0-0.4,0-0.6,0.1c-0.2,0.1-0.3,0.2-0.3,0.3c-0.1,0.2-0.1,0.3-0.2,0.5c0,0.2,0,0.4,0,0.7v5c0,0.2,0,0.4,0,0.5
		c0,0.1,0,0.3,0.1,0.4c0,0.2,0.1,0.3,0.2,0.4C272,40.2,272.1,40.3,272.2,40.3"/>
	<polygon class="st1" points="277,41.8 277,30.9 278.3,30.9 281,37 281,30.9 282.7,30.9 282.7,41.8 281.4,41.8 278.7,35.3 
		278.7,41.8 	"/>
	<path class="st1" d="M210.4,59.6l2.2-10.9h2.1l2.2,10.9h-1.9l-0.4-2.5h-1.9l-0.5,2.5H210.4z M212.9,55.8h1.5l-0.7-4.5L212.9,55.8z"
		/>
	<polygon class="st1" points="217.6,59.6 217.6,48.7 219,48.7 221.7,54.9 221.7,48.7 223.3,48.7 223.3,59.6 222,59.6 219.3,53.1 
		219.3,59.6 	"/>
	<path class="st1" d="M224.6,59.6V48.7h2.6c0.7,0,1.2,0.1,1.7,0.2c0.4,0.1,0.8,0.3,1.1,0.6c0.3,0.3,0.5,0.6,0.6,1.1
		c0.1,0.4,0.2,0.9,0.2,1.5V56c0,0.6-0.1,1.2-0.2,1.6c-0.1,0.4-0.3,0.8-0.6,1.1c-0.3,0.3-0.6,0.5-1,0.7c-0.4,0.1-1,0.2-1.6,0.2H224.6
		z M226.6,58.2h0.6c0.2,0,0.4,0,0.5-0.1c0.2,0,0.3-0.1,0.4-0.1c0.1,0,0.2-0.1,0.3-0.2c0.1-0.1,0.1-0.2,0.2-0.3
		c0-0.1,0.1-0.2,0.1-0.4c0-0.2,0-0.3,0-0.5c0-0.1,0-0.3,0-0.6v-4c0-0.3,0-0.5,0-0.6c0-0.2,0-0.3-0.1-0.5c0-0.2-0.1-0.3-0.1-0.4
		c-0.1-0.1-0.2-0.2-0.3-0.2c-0.1-0.1-0.2-0.1-0.4-0.2c-0.2,0-0.3,0-0.6,0h-0.5V58.2z"/>
	<path class="st1" d="M234.6,59.6V48.7h3.2c1.9,0,2.8,1,2.8,3.1c0,1-0.3,1.8-0.8,2.2c-0.5,0.5-1.2,0.7-2.2,0.7h-1v4.9H234.6z
		 M236.6,53.3h0.6c0.6,0,1-0.1,1.1-0.3c0.2-0.2,0.3-0.6,0.3-1.2c0-0.3,0-0.6,0-0.8c0-0.2-0.1-0.4-0.2-0.5c-0.1-0.2-0.2-0.3-0.4-0.3
		c-0.2-0.1-0.5-0.1-0.8-0.1h-0.7V53.3z"/>
	<path class="st1" d="M241.2,59.6V48.7h2.5c0.6,0,1.1,0,1.5,0.1c0.4,0.1,0.8,0.3,1.1,0.5c0.3,0.2,0.5,0.5,0.7,0.9
		c0.2,0.4,0.2,0.8,0.2,1.4c0,0.7-0.1,1.2-0.3,1.7c-0.2,0.4-0.5,0.8-1,0.9l1.5,5.4h-2l-1.3-5h-0.9v5H241.2z M243.2,53.4h0.5
		c0.6,0,1-0.1,1.3-0.4c0.3-0.3,0.4-0.7,0.4-1.3c0-0.6-0.1-1-0.3-1.3c-0.2-0.3-0.6-0.4-1.2-0.4h-0.6V53.4z"/>
	<path class="st1" d="M251.4,59.7c-1.1,0-1.9-0.3-2.4-0.9c-0.5-0.6-0.7-1.5-0.7-2.7v-4c0-0.6,0.1-1.1,0.2-1.5
		c0.1-0.4,0.3-0.8,0.5-1.1c0.3-0.3,0.6-0.5,1-0.7c0.4-0.2,0.9-0.2,1.5-0.2c1.1,0,1.9,0.3,2.4,0.9c0.5,0.6,0.7,1.5,0.7,2.6v4
		c0,0.6-0.1,1.1-0.2,1.5c-0.1,0.4-0.3,0.8-0.5,1.1c-0.3,0.3-0.6,0.6-1,0.7C252.4,59.7,251.9,59.7,251.4,59.7 M250.9,58.2
		c0.1,0.1,0.3,0.1,0.5,0.1c0.2,0,0.4,0,0.5-0.1c0.1-0.1,0.2-0.1,0.3-0.2c0.1-0.1,0.1-0.2,0.2-0.4c0-0.1,0.1-0.3,0.1-0.4
		c0-0.2,0-0.3,0-0.5v-5c0-0.3,0-0.5,0-0.7c0-0.2-0.1-0.3-0.2-0.5c-0.1-0.2-0.2-0.3-0.3-0.3c-0.2-0.1-0.4-0.1-0.6-0.1s-0.4,0-0.6,0.1
		c-0.2,0.1-0.3,0.2-0.3,0.3c-0.1,0.2-0.1,0.3-0.2,0.5c0,0.2,0,0.4,0,0.7v5c0,0.2,0,0.4,0,0.5c0,0.1,0,0.3,0.1,0.4
		c0,0.2,0.1,0.3,0.2,0.4C250.6,58.1,250.7,58.1,250.9,58.2"/>
	<path class="st1" d="M255.6,59.6V48.7h2.6c0.7,0,1.2,0.1,1.7,0.2c0.4,0.1,0.8,0.3,1.1,0.6c0.3,0.3,0.5,0.6,0.6,1.1
		c0.1,0.4,0.2,0.9,0.2,1.5V56c0,0.6-0.1,1.2-0.2,1.6c-0.1,0.4-0.3,0.8-0.6,1.1c-0.3,0.3-0.6,0.5-1.1,0.7c-0.4,0.1-1,0.2-1.6,0.2
		H255.6z M257.6,58.2h0.6c0.2,0,0.4,0,0.5-0.1c0.2,0,0.3-0.1,0.4-0.1c0.1,0,0.2-0.1,0.3-0.2c0.1-0.1,0.1-0.2,0.2-0.3
		c0-0.1,0.1-0.2,0.1-0.4c0-0.2,0-0.3,0-0.5c0-0.1,0-0.3,0-0.6v-4c0-0.3,0-0.5,0-0.6c0-0.2,0-0.3-0.1-0.5c0-0.2-0.1-0.3-0.1-0.4
		c-0.1-0.1-0.2-0.2-0.3-0.2c-0.1-0.1-0.2-0.1-0.4-0.2c-0.2,0-0.3,0-0.6,0h-0.5V58.2z"/>
	<path class="st1" d="M265.7,59.7c-0.5,0-0.9-0.1-1.3-0.2c-0.4-0.1-0.7-0.3-0.9-0.5c-0.2-0.2-0.4-0.5-0.6-0.8
		c-0.1-0.3-0.2-0.7-0.3-1c-0.1-0.4-0.1-0.8-0.1-1.3v-7.2h1.9v7.5c0,0.3,0,0.5,0,0.7c0,0.2,0,0.4,0.1,0.6c0,0.2,0.1,0.4,0.2,0.5
		c0.1,0.1,0.2,0.2,0.3,0.3c0.1,0.1,0.3,0.1,0.5,0.1c0.2,0,0.4,0,0.5-0.1c0.1-0.1,0.3-0.2,0.3-0.3c0.1-0.1,0.1-0.3,0.2-0.5
		c0-0.2,0.1-0.4,0.1-0.6c0-0.2,0-0.4,0-0.7v-7.5h1.9v7.2c0,0.5,0,0.9-0.1,1.3c-0.1,0.4-0.2,0.7-0.3,1c-0.1,0.3-0.3,0.6-0.5,0.8
		c-0.2,0.2-0.5,0.4-0.9,0.5C266.6,59.7,266.2,59.7,265.7,59.7"/>
	<path class="st1" d="M272.9,59.7c-0.5,0-0.9-0.1-1.3-0.2c-0.4-0.1-0.7-0.3-0.9-0.5c-0.2-0.2-0.4-0.5-0.6-0.8
		c-0.1-0.3-0.3-0.6-0.3-1c-0.1-0.4-0.1-0.8-0.1-1.2v-3.8c0-0.5,0-0.9,0.1-1.3c0.1-0.4,0.2-0.7,0.3-1c0.1-0.3,0.3-0.6,0.6-0.8
		c0.2-0.2,0.5-0.4,0.9-0.5c0.4-0.1,0.8-0.2,1.3-0.2c0.5,0,1,0.1,1.4,0.2c0.4,0.1,0.7,0.4,0.9,0.6c0.2,0.3,0.4,0.6,0.5,1
		c0.1,0.4,0.2,0.8,0.2,1.3v0.9h-1.9v-0.9c0-0.5,0-0.9-0.1-1.1c-0.1-0.4-0.4-0.6-0.8-0.6h-0.1c-0.2,0-0.3,0-0.4,0.1s-0.2,0.1-0.3,0.2
		c-0.1,0.1-0.1,0.2-0.2,0.3c0,0.1-0.1,0.2-0.1,0.4c0,0.2,0,0.3,0,0.4c0,0.1,0,0.3,0,0.5v4.6c0,0.6,0.1,1.1,0.2,1.4
		c0.2,0.3,0.5,0.4,0.9,0.4c0.1,0,0.3,0,0.4,0c0.1,0,0.2-0.1,0.3-0.1c0.1-0.1,0.1-0.1,0.2-0.2c0.1-0.1,0.1-0.2,0.1-0.3
		c0-0.1,0-0.2,0.1-0.3c0-0.1,0-0.3,0-0.4c0-0.1,0-0.2,0-0.4v-1h1.9v0.9c0,0.4,0,0.8-0.1,1.1c-0.1,0.3-0.2,0.6-0.3,0.9
		c-0.1,0.3-0.3,0.5-0.5,0.7c-0.2,0.2-0.5,0.3-0.8,0.4C273.7,59.7,273.3,59.7,272.9,59.7"/>
	<polygon class="st1" points="277.9,59.6 277.9,50.2 276.1,50.2 276.1,48.7 281.7,48.7 281.7,50.2 279.9,50.2 279.9,59.6 	"/>
	<rect x="282.2" y="48.7" class="st1" width="2" height="10.9"/>
	<path class="st1" d="M288.5,59.7c-1.1,0-1.9-0.3-2.4-0.9c-0.5-0.6-0.7-1.5-0.7-2.7v-4c0-0.6,0.1-1.1,0.2-1.5
		c0.1-0.4,0.3-0.8,0.5-1.1c0.2-0.3,0.6-0.5,1-0.7c0.4-0.2,0.9-0.2,1.5-0.2c1.1,0,1.9,0.3,2.4,0.9c0.5,0.6,0.7,1.5,0.7,2.6v4
		c0,0.6-0.1,1.1-0.2,1.5c-0.1,0.4-0.3,0.8-0.5,1.1c-0.2,0.3-0.6,0.6-1,0.7C289.6,59.7,289.1,59.7,288.5,59.7 M288,58.2
		c0.1,0.1,0.3,0.1,0.5,0.1c0.2,0,0.4,0,0.5-0.1c0.1-0.1,0.2-0.1,0.3-0.2c0.1-0.1,0.1-0.2,0.2-0.4c0-0.1,0.1-0.3,0.1-0.4
		c0-0.2,0-0.3,0-0.5v-5c0-0.3,0-0.5,0-0.7c0-0.2-0.1-0.3-0.2-0.5c-0.1-0.2-0.2-0.3-0.3-0.3c-0.2-0.1-0.4-0.1-0.6-0.1
		c-0.2,0-0.4,0-0.6,0.1c-0.2,0.1-0.3,0.2-0.3,0.3c-0.1,0.2-0.1,0.3-0.2,0.5c0,0.2,0,0.4,0,0.7v5c0,0.2,0,0.4,0,0.5
		c0,0.1,0,0.3,0.1,0.4c0,0.2,0.1,0.3,0.2,0.4C287.7,58.1,287.8,58.1,288,58.2"/>
	<polygon class="st1" points="292.7,59.6 292.7,48.7 294.1,48.7 296.8,54.9 296.8,48.7 298.4,48.7 298.4,59.6 297.1,59.6 
		294.4,53.1 294.4,59.6 	"/>
	<path class="st1" d="M276.9,77.7c-6.7-5.2-15.6-5.4-18.8-4.6l-0.4,0.1c-3.8,0.9-9.7,2.3-16.7,10.9c0,0-0.1,0.1-0.1,0.1l-0.1,0.1
		c-0.1,0.1-0.1,0.2-0.1,0.3c0,0.1,0,0.2,0.1,0.3l0.2,0.3c0.9,1.5,2,3.3,2.9,5.1c0,0,0,0,0,0.1c0.1,0.2,0.3,0.3,0.5,0.3
		c0.2,0,0.3-0.1,0.4-0.2c0-0.1,0.1-0.1,0.1-0.2c6.2-8.5,11.1-9.7,14.4-10.4l0.4-0.1c1.7-0.4,8.2-0.4,12.9,3.3
		c3.7,2.9,5.5,7.4,5.5,13.6c0,10.3-5,14.3-9.3,15.9c-6.6,2.4-12.8-0.8-12.9-0.8l-0.3-0.1c-3.6-1.5-9-4.8-14-14.9
		c-10.2-20.3-18.7-22.3-24.4-23.5l-0.3-0.1c-2.6-0.6-11.5-1-18.5,4.6c-3.7,2.9-8,8.6-8,19c0,6.3,1.3,10.5,4.7,14.9
		c0.7,1,8.3,10.6,22.9,7.9c2.3-0.4,5.5-1.5,9-4.1l3.2,2.9c0.2,0.2,0.5,0.2,0.7,0c0.1-0.1,0.1-0.2,0.1-0.3v0l2.3-14.2v-0.2
		c0-0.1-0.1-0.3-0.2-0.4c-0.1-0.1-0.2-0.1-0.3-0.1l-0.1,0l-0.2,0l-13.7,3.8l-0.3,0c-0.1,0-0.2,0.1-0.3,0.2c-0.2,0.2-0.2,0.5,0,0.7
		l0.2,0.1l3.1,2.7c-2,1.3-3.7,1.9-5,2.1c-10.6,2-15.8-4.9-16-5.1l-0.1-0.1c-2.5-3.2-3.3-5.9-3.3-10.8c0-6.2,1.8-10.7,5.4-13.6
		c4.6-3.6,10.9-3.6,12.7-3.2l0.3,0.1c4.6,1,11,2.5,19.7,19.9c4.5,9,10.2,15,17.4,18.1c0.9,0.5,5.3,2.5,10.9,2.5
		c2.4,0,4.9-0.4,7.6-1.3c4.1-1.5,13.8-6.8,13.8-22.3C285,86.3,280.6,80.7,276.9,77.7"/>
</g>
</svg>
