<?xml version="1.0" encoding="utf-8"?>
<!-- Generator: Adobe Illustrator 26.4.0, SVG Export Plug-In . SVG Version: 6.00 Build 0)  -->
<svg version="1.1" id="Layer_1" xmlns="http://www.w3.org/2000/svg" xmlns:xlink="http://www.w3.org/1999/xlink" x="0px" y="0px"
	 viewBox="0 0 470.7 311.9" style="enable-background:new 0 0 470.7 311.9;" xml:space="preserve">
<style type="text/css">
	.st0{fill:#00ADD8;}
	.st1{fill:#FFFFFF;}
	.st2{fill:#FDB716;}
	.st3{fill:#CD8C2A;}
	.st4{fill:#49783D;}
	.st5{fill:#40AE49;}
</style>
<g>
	<g>
		<rect x="0.2" class="st0" width="149" height="150.5"/>
		<path class="st1" d="M14,39.6c-1.3-1.7-1.9-4-1.9-6.9V22.5c0-3.1,0.6-5.5,1.7-7.2c1.1-1.7,3.1-2.6,5.9-2.6c2.5,0,4.4,0.6,5.5,1.8
			c1.1,1.2,1.7,3,1.7,5.5l0,0.5h-5.2c0-1.3-0.1-2.2-0.4-2.8c-0.3-0.5-0.8-0.8-1.6-0.8c-0.6,0-1,0.2-1.4,0.5
			c-0.3,0.4-0.5,0.9-0.7,1.8c-0.1,0.8-0.2,2-0.2,3.5v2.9c0.3-0.5,0.8-0.9,1.5-1.2c0.7-0.3,1.5-0.4,2.3-0.4c2.1,0,3.6,0.7,4.6,2.2
			c0.9,1.5,1.4,3.5,1.4,6c0,3.2-0.6,5.6-1.8,7.3c-1.2,1.7-3.1,2.6-5.9,2.6C17.2,42.2,15.3,41.3,14,39.6 M21.5,36.9
			c0.3-0.8,0.4-2,0.4-3.8c0-1.2,0-2.1-0.1-2.8c-0.1-0.7-0.3-1.2-0.6-1.6c-0.3-0.4-0.8-0.6-1.5-0.6c-0.5,0-0.9,0.1-1.3,0.4
			c-0.4,0.3-0.7,0.6-0.9,0.9V34c0,2.7,0.7,4.1,2.2,4.1C20.7,38.1,21.2,37.7,21.5,36.9"/>
		<path class="st1" d="M42.3,24.2c-0.5,0-0.9-0.1-1.2-0.2c-0.4-0.1-0.7-0.3-0.9-0.5c-0.2-0.2-0.4-0.5-0.6-0.8
			c-0.1-0.3-0.2-0.7-0.3-1c-0.1-0.4-0.1-0.8-0.1-1.2v-3.8c0-0.5,0-0.9,0.1-1.3c0.1-0.4,0.2-0.7,0.3-1c0.1-0.3,0.3-0.6,0.6-0.8
			c0.2-0.2,0.5-0.4,0.9-0.5c0.4-0.1,0.8-0.2,1.2-0.2c0.5,0,1,0.1,1.4,0.2c0.4,0.1,0.7,0.4,0.9,0.6c0.2,0.3,0.4,0.6,0.5,1
			c0.1,0.4,0.1,0.8,0.1,1.3v0.9h-1.9v-0.9c0-0.5,0-0.9-0.1-1.1c-0.1-0.4-0.4-0.6-0.8-0.6h-0.1c-0.2,0-0.3,0-0.4,0.1
			c-0.1,0-0.2,0.1-0.3,0.2c-0.1,0.1-0.1,0.2-0.2,0.3c0,0.1-0.1,0.2-0.1,0.4c0,0.2,0,0.3,0,0.4s0,0.3,0,0.5v4.6
			c0,0.6,0.1,1.1,0.2,1.4c0.2,0.3,0.4,0.4,0.9,0.4c0.1,0,0.3,0,0.4,0c0.1,0,0.2-0.1,0.3-0.1c0.1,0,0.1-0.1,0.2-0.2
			c0-0.1,0.1-0.2,0.1-0.3c0-0.1,0-0.2,0.1-0.3c0-0.1,0-0.3,0-0.4c0-0.1,0-0.2,0-0.4v-1h1.9v0.9c0,0.4,0,0.8-0.1,1.1
			c-0.1,0.3-0.2,0.6-0.3,0.9c-0.1,0.3-0.3,0.5-0.5,0.7c-0.2,0.2-0.5,0.3-0.8,0.4C43.1,24.1,42.7,24.2,42.3,24.2"/>
		<polygon class="st1" points="46.5,13.1 46.5,24 51.1,24 51.1,22.7 48.5,22.7 48.5,13.1 		"/>
		<polygon class="st1" points="52.1,13.1 52.1,24 56.7,24 56.7,22.7 54.1,22.7 54.1,19 56.1,19 56.1,17.6 54.1,17.6 54.1,14.5 
			56.6,14.5 56.6,13.1 		"/>
		<path class="st1" d="M57.2,24l2.2-11h2.1l2.2,11h-1.8l-0.4-2.5h-1.9L59,24H57.2z M59.7,20.2h1.5l-0.7-4.5L59.7,20.2z"/>
		<polygon class="st1" points="64.7,24 64.7,13.1 66,13.1 68.7,19.3 68.7,13.1 70.3,13.1 70.3,24 69,24 66.3,17.5 66.3,24 		"/>
		<polygon class="st1" points="76.3,24 74.7,13.1 76.4,13.1 77.3,20.1 78.4,13.1 79.7,13.1 80.9,20.1 81.8,13.1 83.5,13.1 81.9,24 
			80.3,24 79.1,16.7 77.9,24 		"/>
		<path class="st1" d="M83.7,24l2.2-11H88l2.2,11h-1.8l-0.4-2.5h-1.9L85.6,24H83.7z M86.3,20.2h1.5L87,15.7L86.3,20.2z"/>
		<polygon class="st1" points="91.9,24 91.9,14.5 90.1,14.5 90.1,13.1 95.6,13.1 95.6,14.5 93.9,14.5 93.9,24 		"/>
		<polygon class="st1" points="96.4,13.1 96.4,24 101,24 101,22.7 98.4,22.7 98.4,19 100.4,19 100.4,17.6 98.4,17.6 98.4,14.5 
			101,14.5 101,13.1 		"/>
		<path class="st1" d="M102.1,24v-11h2.5c0.6,0,1.1,0,1.5,0.1c0.4,0.1,0.8,0.3,1.1,0.5c0.3,0.2,0.5,0.5,0.7,0.9
			c0.1,0.4,0.2,0.8,0.2,1.4c0,0.7-0.1,1.2-0.3,1.7c-0.2,0.4-0.5,0.8-1,1l1.5,5.4h-2l-1.3-5h-0.9v5H102.1z M104.1,17.8h0.5
			c0.6,0,1-0.1,1.2-0.4c0.2-0.3,0.4-0.7,0.4-1.3c0-0.6-0.1-1-0.3-1.3c-0.2-0.3-0.6-0.4-1.2-0.4h-0.6V17.8z"/>
		<path class="st1" d="M38.8,42L41,31h2.1l2.2,11h-1.8L43,39.4h-1.9L40.7,42H38.8z M41.3,38.1h1.5l-0.7-4.5L41.3,38.1z"/>
		<polygon class="st1" points="46.3,42 46.3,31 47.7,31 50.3,37.2 50.3,31 51.9,31 51.9,42 50.7,42 48,35.4 48,42 		"/>
		<path class="st1" d="M53.5,42V31H56c0.7,0,1.2,0.1,1.6,0.2c0.4,0.1,0.8,0.3,1.1,0.6c0.3,0.3,0.5,0.6,0.6,1.1
			c0.1,0.4,0.2,0.9,0.2,1.5v4c0,0.6-0.1,1.2-0.2,1.6c-0.1,0.4-0.3,0.8-0.6,1.1c-0.3,0.3-0.6,0.5-1,0.7c-0.4,0.1-1,0.2-1.6,0.2H53.5z
			 M55.5,40.6H56c0.2,0,0.4,0,0.5-0.1c0.2,0,0.3-0.1,0.4-0.1c0.1,0,0.2-0.1,0.3-0.2c0.1-0.1,0.1-0.2,0.2-0.3c0-0.1,0.1-0.2,0.1-0.4
			c0-0.2,0-0.3,0-0.5c0-0.1,0-0.3,0-0.6v-4c0-0.3,0-0.5,0-0.6c0-0.2,0-0.3-0.1-0.5c0-0.2-0.1-0.3-0.1-0.4c-0.1-0.1-0.1-0.2-0.3-0.2
			c-0.1-0.1-0.2-0.1-0.4-0.2c-0.2,0-0.3,0-0.6,0h-0.5V40.6z"/>
		<path class="st1" d="M66.8,42.1c-1.9,0-2.9-1.1-3-3.3l1.7-0.4c0,1.5,0.5,2.2,1.2,2.2c0.3,0,0.5-0.1,0.7-0.3
			c0.1-0.2,0.2-0.4,0.2-0.7c0-0.3-0.1-0.6-0.2-0.8c-0.1-0.3-0.2-0.5-0.4-0.6c-0.1-0.2-0.4-0.4-0.6-0.6l-1.4-1.2
			c-0.4-0.4-0.7-0.8-0.9-1.2c-0.2-0.4-0.3-0.9-0.3-1.5c0-0.9,0.2-1.5,0.7-2c0.5-0.5,1.2-0.7,2-0.7c0.4,0,0.7,0,1.1,0.2
			c0.3,0.1,0.6,0.2,0.8,0.4c0.2,0.2,0.4,0.4,0.5,0.7c0.1,0.3,0.2,0.5,0.3,0.8c0.1,0.3,0.1,0.6,0.1,0.9l-1.7,0.3c0-0.2,0-0.4,0-0.6
			c0-0.2,0-0.3-0.1-0.5c0-0.2-0.1-0.3-0.2-0.4c-0.1-0.1-0.2-0.2-0.3-0.2c-0.1-0.1-0.3-0.1-0.4-0.1c-0.3,0-0.5,0.1-0.7,0.3
			c-0.2,0.2-0.2,0.4-0.2,0.7c0,0.4,0.1,0.6,0.2,0.9c0.1,0.2,0.4,0.5,0.6,0.7l1.4,1.2c0.2,0.2,0.4,0.4,0.6,0.6
			c0.2,0.2,0.3,0.4,0.5,0.7c0.2,0.3,0.3,0.5,0.4,0.9c0.1,0.3,0.1,0.6,0.1,1c0,0.8-0.3,1.4-0.8,1.9C68.3,41.8,67.6,42.1,66.8,42.1"/>
		<path class="st1" d="M70.1,42l2.2-11h2.1l2.2,11h-1.8l-0.4-2.5h-1.9L71.9,42H70.1z M72.6,38.1H74l-0.7-4.5L72.6,38.1z"/>
		<polygon class="st1" points="77.5,42 77.5,31 78.9,31 81.6,37.2 81.6,31 83.2,31 83.2,42 81.9,42 79.2,35.4 79.2,42 		"/>
		<rect x="84.8" y="31" class="st1" width="1.9" height="11"/>
		<polygon class="st1" points="89.4,42 89.4,32.5 87.6,32.5 87.6,31 93.2,31 93.2,32.5 91.4,32.5 91.4,42 		"/>
		<path class="st1" d="M93.3,42l2.2-11h2.1l2.2,11H98l-0.4-2.5h-1.9L95.2,42H93.3z M95.9,38.1h1.5l-0.7-4.5L95.9,38.1z"/>
		<polygon class="st1" points="101.5,42 101.5,32.5 99.7,32.5 99.7,31 105.2,31 105.2,32.5 103.5,32.5 103.5,42 		"/>
		<rect x="106.1" y="31" class="st1" width="1.9" height="11"/>
		<path class="st1" d="M112.6,42.1c-1.1,0-1.9-0.3-2.4-0.9c-0.5-0.6-0.7-1.5-0.7-2.7v-4c0-0.6,0.1-1.1,0.2-1.5
			c0.1-0.4,0.3-0.8,0.5-1.1c0.2-0.3,0.6-0.5,1-0.7c0.4-0.2,0.9-0.2,1.5-0.2c1.1,0,1.9,0.3,2.4,0.9c0.5,0.6,0.7,1.5,0.7,2.7v4
			c0,0.6-0.1,1.1-0.2,1.5c-0.1,0.4-0.3,0.8-0.5,1.1c-0.2,0.3-0.6,0.6-1,0.7C113.7,42,113.2,42.1,112.6,42.1 M112.1,40.5
			c0.1,0.1,0.3,0.1,0.5,0.1s0.4,0,0.5-0.1c0.1-0.1,0.2-0.1,0.3-0.2c0.1-0.1,0.1-0.2,0.2-0.4c0-0.1,0.1-0.3,0.1-0.4
			c0-0.1,0-0.3,0-0.5v-5c0-0.3,0-0.5,0-0.7c0-0.2-0.1-0.3-0.2-0.5c-0.1-0.2-0.2-0.3-0.3-0.4c-0.2-0.1-0.3-0.1-0.6-0.1
			c-0.2,0-0.4,0-0.6,0.1c-0.2,0.1-0.3,0.2-0.3,0.4c-0.1,0.2-0.1,0.3-0.2,0.5c0,0.2,0,0.4,0,0.7v5c0,0.2,0,0.4,0,0.5
			c0,0.2,0,0.3,0.1,0.4c0,0.2,0.1,0.3,0.2,0.4C111.9,40.4,112,40.5,112.1,40.5"/>
		<polygon class="st1" points="117.1,42 117.1,31 118.5,31 121.1,37.2 121.1,31 122.8,31 122.8,42 121.5,42 118.8,35.4 118.8,42 		
			"/>
		<path class="st1" d="M102.3,60.8c-0.1-0.1-0.3-0.2-0.5-0.2H47.5c-0.2,0-0.4,0.1-0.5,0.2c-0.1,0.2-0.2,0.3-0.1,0.5L56,117
			c0,0.3,0.3,0.5,0.6,0.5h11.2l0.8,9.1l-4.7,0l11,11.1l11-11.1l-4.7,0l0.8-9.1h11.4c0.3,0,0.6-0.2,0.6-0.5l8.5-55.7
			C102.4,61.1,102.4,60.9,102.3,60.8 M81.3,105.4c0,0-2.5,2.6-6.5,2.3c-4,0.3-6.5-2.3-6.5-2.3c-4.1-4.1-2.6-9.2-1.2-11.8
			c0.9-1.7,7.1-11.1,7.7-11.9v-0.1c0,0,0,0,0,0l0,0v0.1c0.5,0.8,6.8,10.3,7.7,11.9C83.9,96.2,85.3,101.3,81.3,105.4 M98.5,72.5
			c-1.5-0.7-3.3-0.4-5.1,0.3C86.6,75.6,82,76.6,75,74.3c-4.5-1.4-8.6-4.4-13.6-2.6c-3.3,1.2-6.3,2.3-10,2.3L49.2,63H100L98.5,72.5z"
			/>
	</g>
	<g>
		<rect x="160.7" class="st2" width="149" height="150.5"/>
		<polygon class="st1" points="180.6,17.3 172.9,17.3 172.9,13.1 185.9,13.1 185.9,16.7 179.9,41.8 174.6,41.8 		"/>
		<path class="st1" d="M197.5,24l2.2-11h2.1l2.2,11h-1.8l-0.4-2.5h-1.9l-0.4,2.5H197.5z M200,20.2h1.5l-0.7-4.5L200,20.2z"/>
		<polygon class="st1" points="204.7,13.1 204.7,24 206.7,24 206.7,19.1 208.7,19.1 208.7,17.6 206.7,17.6 206.7,14.5 209.2,14.5 
			209.2,13.1 		"/>
		<polygon class="st1" points="210,13.1 210,24 211.9,24 211.9,19.1 213.9,19.1 213.9,17.6 211.9,17.6 211.9,14.5 214.4,14.5 
			214.4,13.1 		"/>
		<path class="st1" d="M218.1,24.2c-1.1,0-1.9-0.3-2.4-0.9c-0.5-0.6-0.7-1.5-0.7-2.7v-4c0-0.6,0.1-1.1,0.2-1.5
			c0.1-0.4,0.3-0.8,0.5-1.1c0.2-0.3,0.6-0.5,1-0.7c0.4-0.2,0.9-0.2,1.5-0.2c1.1,0,1.9,0.3,2.4,0.9c0.5,0.6,0.7,1.5,0.7,2.7v4
			c0,0.6-0.1,1.1-0.2,1.5c-0.1,0.4-0.3,0.8-0.5,1.1c-0.2,0.3-0.6,0.6-1,0.7C219.2,24.1,218.7,24.2,218.1,24.2 M217.7,22.6
			c0.1,0.1,0.3,0.1,0.5,0.1c0.2,0,0.4,0,0.5-0.1c0.1-0.1,0.2-0.1,0.3-0.2c0.1-0.1,0.1-0.2,0.2-0.4c0-0.1,0.1-0.3,0.1-0.4
			c0-0.1,0-0.3,0-0.5v-5c0-0.3,0-0.5,0-0.7c0-0.2-0.1-0.3-0.2-0.5c-0.1-0.2-0.2-0.3-0.3-0.4c-0.2-0.1-0.3-0.1-0.6-0.1
			c-0.2,0-0.4,0-0.6,0.1c-0.2,0.1-0.3,0.2-0.3,0.4c-0.1,0.2-0.1,0.3-0.1,0.5c0,0.2,0,0.4,0,0.7v5c0,0.2,0,0.4,0,0.5
			c0,0.2,0,0.3,0.1,0.4c0,0.2,0.1,0.3,0.2,0.4C217.4,22.5,217.5,22.5,217.7,22.6"/>
		<path class="st1" d="M222.5,24v-11h2.5c0.6,0,1.1,0,1.5,0.1c0.4,0.1,0.8,0.3,1.1,0.5c0.3,0.2,0.5,0.5,0.7,0.9
			c0.1,0.4,0.2,0.8,0.2,1.4c0,0.7-0.1,1.2-0.3,1.7c-0.2,0.4-0.5,0.8-1,1l1.5,5.4h-2l-1.3-5h-0.9v5H222.5z M224.4,17.8h0.5
			c0.6,0,1-0.1,1.2-0.4c0.2-0.2,0.4-0.7,0.4-1.3c0-0.6-0.1-1-0.3-1.3c-0.2-0.3-0.6-0.4-1.2-0.4h-0.6V17.8z"/>
		<path class="st1" d="M229.6,24v-11h2.5c0.7,0,1.2,0.1,1.6,0.2c0.4,0.1,0.8,0.3,1.1,0.6c0.3,0.3,0.5,0.6,0.6,1.1
			c0.1,0.4,0.2,0.9,0.2,1.5v4c0,0.6-0.1,1.2-0.2,1.6c-0.1,0.4-0.3,0.8-0.6,1.1c-0.3,0.3-0.6,0.5-1,0.7c-0.4,0.1-1,0.2-1.6,0.2H229.6
			z M231.6,22.6h0.6c0.2,0,0.4,0,0.5-0.1c0.1,0,0.3-0.1,0.4-0.1c0.1,0,0.2-0.1,0.3-0.2c0.1-0.1,0.1-0.2,0.2-0.3
			c0-0.1,0.1-0.2,0.1-0.4c0-0.2,0-0.3,0-0.5c0-0.1,0-0.3,0-0.6v-4c0-0.3,0-0.5,0-0.6c0-0.2,0-0.3-0.1-0.5c0-0.2-0.1-0.3-0.1-0.4
			c-0.1-0.1-0.1-0.2-0.3-0.2c-0.1-0.1-0.2-0.1-0.4-0.2c-0.2,0-0.3,0-0.6,0h-0.5V22.6z"/>
		<path class="st1" d="M236.1,24l2.2-11h2.1l2.2,11h-1.8l-0.4-2.5h-1.9l-0.4,2.5H236.1z M238.6,20.2h1.5l-0.7-4.5L238.6,20.2z"/>
		<path class="st1" d="M243.3,24v-11h2.7c0.5,0,0.9,0,1.3,0.1c0.4,0.1,0.7,0.2,1,0.4c0.3,0.2,0.5,0.5,0.7,0.9
			c0.1,0.4,0.2,0.8,0.2,1.3c0,1.4-0.5,2.1-1.6,2.3c0.6,0.1,1.1,0.4,1.4,0.9c0.3,0.4,0.5,1.1,0.5,1.9c0,1-0.3,1.8-0.8,2.4
			c-0.5,0.5-1.3,0.8-2.3,0.8H243.3z M245.3,17.5h0.6c0.6,0,1-0.1,1.2-0.4c0.2-0.3,0.3-0.7,0.3-1.3c0-0.3,0-0.6-0.1-0.7
			c-0.1-0.2-0.2-0.3-0.4-0.4c-0.2-0.1-0.4-0.2-0.6-0.2c-0.2,0-0.5,0-0.8,0h-0.3V17.5z M245.3,22.6h0.7c0.6,0,1-0.1,1.2-0.4
			c0.2-0.3,0.3-0.7,0.3-1.4c0-0.7-0.1-1.1-0.4-1.4c-0.3-0.3-0.7-0.4-1.3-0.4h-0.6V22.6z"/>
		<polygon class="st1" points="250.5,13.1 250.5,24 255.1,24 255.1,22.7 252.5,22.7 252.5,13.1 		"/>
		<polygon class="st1" points="255.9,13.1 255.9,24 260.5,24 260.5,22.7 257.9,22.7 257.9,19 259.9,19 259.9,17.6 257.9,17.6 
			257.9,14.5 260.4,14.5 260.4,13.1 		"/>
		<path class="st1" d="M263.8,24l2.2-11h2.1l2.2,11h-1.8l-0.4-2.5h-1.9l-0.4,2.5H263.8z M266.3,20.2h1.5l-0.7-4.5L266.3,20.2z"/>
		<polygon class="st1" points="271,24 271,13.1 272.4,13.1 275.1,19.3 275.1,13.1 276.7,13.1 276.7,24 275.4,24 272.7,17.5 
			272.7,24 		"/>
		<path class="st1" d="M278.1,24v-11h2.5c0.7,0,1.2,0.1,1.6,0.2c0.4,0.1,0.8,0.3,1.1,0.6c0.3,0.3,0.5,0.6,0.6,1.1
			c0.1,0.4,0.2,0.9,0.2,1.5v4c0,0.6-0.1,1.2-0.2,1.6c-0.1,0.4-0.3,0.8-0.6,1.1c-0.3,0.3-0.6,0.5-1,0.7c-0.4,0.1-1,0.2-1.6,0.2H278.1
			z M280,22.6h0.6c0.2,0,0.4,0,0.5-0.1c0.1,0,0.3-0.1,0.4-0.1c0.1,0,0.2-0.1,0.3-0.2c0.1-0.1,0.1-0.2,0.2-0.3c0-0.1,0.1-0.2,0.1-0.4
			c0-0.2,0-0.3,0-0.5c0-0.1,0-0.3,0-0.6v-4c0-0.3,0-0.5,0-0.6c0-0.2,0-0.3-0.1-0.5c0-0.2-0.1-0.3-0.1-0.4c-0.1-0.1-0.1-0.2-0.3-0.2
			c-0.1-0.1-0.2-0.1-0.4-0.2c-0.2,0-0.3,0-0.6,0H280V22.6z"/>
		<path class="st1" d="M200.9,42.1c-0.5,0-0.9-0.1-1.2-0.2c-0.4-0.1-0.7-0.3-0.9-0.5c-0.2-0.2-0.4-0.5-0.6-0.8
			c-0.1-0.3-0.2-0.7-0.3-1c-0.1-0.4-0.1-0.8-0.1-1.2v-3.8c0-0.5,0-0.9,0.1-1.3c0.1-0.4,0.2-0.7,0.3-1c0.1-0.3,0.3-0.6,0.6-0.8
			c0.2-0.2,0.5-0.4,0.9-0.5c0.4-0.1,0.8-0.2,1.2-0.2c0.5,0,1,0.1,1.4,0.2c0.4,0.1,0.7,0.4,0.9,0.6c0.2,0.3,0.4,0.6,0.5,1
			c0.1,0.4,0.1,0.8,0.1,1.3V35H202V34c0-0.5,0-0.9-0.1-1.1c-0.1-0.4-0.4-0.6-0.8-0.6h-0.1c-0.2,0-0.3,0-0.4,0.1
			c-0.1,0-0.2,0.1-0.3,0.2c-0.1,0.1-0.1,0.2-0.2,0.3s-0.1,0.2-0.1,0.4c0,0.2,0,0.3,0,0.4c0,0.1,0,0.3,0,0.5v4.6
			c0,0.6,0.1,1.1,0.2,1.4c0.2,0.3,0.4,0.4,0.9,0.4c0.1,0,0.3,0,0.4,0c0.1,0,0.2-0.1,0.3-0.1c0.1,0,0.1-0.1,0.2-0.2
			c0.1-0.1,0.1-0.2,0.1-0.3c0-0.1,0-0.2,0.1-0.3c0-0.1,0-0.3,0-0.4c0-0.1,0-0.2,0-0.4v-1h1.9v0.9c0,0.4,0,0.8-0.1,1.1
			c-0.1,0.3-0.2,0.6-0.3,0.9c-0.1,0.3-0.3,0.5-0.5,0.7c-0.2,0.2-0.5,0.3-0.8,0.4C201.8,42,201.4,42.1,200.9,42.1"/>
		<polygon class="st1" points="205,31 205,42 209.5,42 209.5,40.6 206.9,40.6 206.9,31 		"/>
		<polygon class="st1" points="210.3,31 210.3,42 214.9,42 214.9,40.6 212.3,40.6 212.3,37 214.3,37 214.3,35.5 212.3,35.5 
			212.3,32.4 214.9,32.4 214.9,31 		"/>
		<path class="st1" d="M215.2,42l2.2-11h2.1l2.2,11h-1.8l-0.4-2.5h-1.9l-0.4,2.5H215.2z M217.7,38.1h1.5l-0.7-4.5L217.7,38.1z"/>
		<polygon class="st1" points="222.5,42 222.5,31 223.8,31 226.5,37.2 226.5,31 228.1,31 228.1,42 226.8,42 224.2,35.4 224.2,42 		
			"/>
		<polygon class="st1" points="232.5,31 232.5,42 237.1,42 237.1,40.6 234.5,40.6 234.5,37 236.5,37 236.5,35.5 234.5,35.5 
			234.5,32.4 237.1,32.4 237.1,31 		"/>
		<polygon class="st1" points="238,42 238,31 239.3,31 242,37.2 242,31 243.6,31 243.6,42 242.3,42 239.6,35.4 239.6,42 		"/>
		<polygon class="st1" points="245,31 245,42 249.5,42 249.5,40.6 246.9,40.6 246.9,37 249,37 249,35.5 246.9,35.5 246.9,32.4 
			249.5,32.4 249.5,31 		"/>
		<path class="st1" d="M250.4,42V31h2.5c0.6,0,1.1,0,1.5,0.1c0.4,0.1,0.8,0.3,1.1,0.5c0.3,0.2,0.5,0.5,0.7,0.9
			c0.1,0.4,0.2,0.8,0.2,1.4c0,0.7-0.1,1.3-0.3,1.7c-0.2,0.4-0.5,0.7-1,1l1.5,5.4h-2l-1.3-5h-0.9v5H250.4z M252.4,35.7h0.5
			c0.6,0,1-0.1,1.2-0.4c0.2-0.3,0.4-0.7,0.4-1.3c0-0.6-0.1-1-0.3-1.3c-0.2-0.3-0.6-0.4-1.2-0.4h-0.6V35.7z"/>
		<path class="st1" d="M260.3,42.1c-1,0-1.8-0.3-2.2-1c-0.5-0.6-0.7-1.6-0.7-2.8v-3.6c0-0.6,0-1.2,0.1-1.6c0.1-0.5,0.3-0.9,0.5-1.2
			c0.2-0.3,0.6-0.6,1-0.8c0.4-0.2,0.9-0.3,1.5-0.3c1.1,0,1.8,0.3,2.3,0.8c0.5,0.5,0.7,1.3,0.7,2.4v0.5h-1.9V34c0-0.2,0-0.4,0-0.6
			c0-0.2,0-0.3-0.1-0.5c0-0.2-0.1-0.3-0.2-0.4c-0.1-0.1-0.2-0.1-0.3-0.2c-0.1-0.1-0.3-0.1-0.5-0.1c-0.2,0-0.3,0-0.4,0.1
			c-0.1,0-0.2,0.1-0.3,0.1c-0.1,0.1-0.1,0.1-0.2,0.2c-0.1,0.1-0.1,0.2-0.1,0.3c0,0.1-0.1,0.2-0.1,0.4c0,0.1,0,0.3,0,0.4
			c0,0.1,0,0.3,0,0.4v4.4c0,0.7,0.1,1.1,0.2,1.5c0.2,0.3,0.5,0.5,0.9,0.5c0.2,0,0.4,0,0.6-0.1c0.2-0.1,0.3-0.2,0.4-0.4
			c0.1-0.2,0.2-0.4,0.2-0.6c0-0.2,0.1-0.5,0.1-0.9v-0.9h-1.2v-1.3h2.9V42h-1.3l-0.1-1.1C261.8,41.7,261.2,42.1,260.3,42.1"/>
		<polygon class="st1" points="266.3,42 266.3,37.8 264,31 265.9,31 267.2,35.4 268.5,31 270.3,31 268.1,37.8 268.1,42 		"/>
		<path class="st1" d="M235.2,73.3c-12.1,0-21.9,9.9-21.9,22.2s9.8,22.2,21.9,22.2c12.1,0,21.9-9.9,21.9-22.2S247.4,73.3,235.2,73.3
			 M233.6,82.1c0-0.7,0.7-1.5,1.6-1.5s1.6,0.8,1.6,1.5v7.6c0,0.7-0.7,1.5-1.6,1.5s-1.6-0.8-1.6-1.5V82.1z M235.2,106.8
			c-6.3,0-11.4-5.2-11.4-11.5c0-5.2,3.4-9.5,8-11v4.3c-2.4,1.2-4.1,3.8-4.1,6.7c0,4.2,3.3,7.5,7.5,7.5c4.1,0,7.5-3.4,7.5-7.5
			c0-2.9-1.7-5.5-4.1-6.7v-4.3c4.7,1.5,8,5.8,8,11C246.7,101.7,241.5,106.8,235.2,106.8"/>
		<path class="st1" d="M210,95.3c0-1-0.9-1.8-1.7-1.8h-9.6c-0.8,0-1.7,0.8-1.7,1.8c0,1,0.9,1.8,1.7,1.8h9.6
			C209.2,97.1,210,96.3,210,95.3"/>
		<path class="st1" d="M273.4,95.3c0-1-0.9-1.8-1.7-1.8h-9.6c-0.8,0-1.7,0.8-1.7,1.8c0,1,0.9,1.8,1.7,1.8h9.6
			C272.5,97.1,273.4,96.3,273.4,95.3"/>
		<path class="st1" d="M235.2,133.8c1,0,1.8-0.9,1.8-1.7v-9.7c0-0.8-0.8-1.7-1.8-1.7c-1,0-1.8,0.9-1.8,1.7v9.7
			C233.4,132.9,234.2,133.8,235.2,133.8"/>
		<path class="st1" d="M268.4,114.4c0.5-0.9,0.1-2-0.6-2.4l-8.3-4.8c-0.7-0.4-1.9-0.1-2.4,0.7c-0.5,0.9-0.1,2,0.6,2.4l8.3,4.8
			C266.7,115.6,267.9,115.3,268.4,114.4"/>
		<path class="st1" d="M216.3,128.7c0.9,0.5,2,0.1,2.4-0.6l4.8-8.4c0.4-0.7,0.1-1.9-0.7-2.4c-0.9-0.5-2-0.1-2.4,0.6l-4.8,8.4
			C215.1,127.1,215.4,128.2,216.3,128.7"/>
		<path class="st1" d="M254.3,128.7c0.9-0.5,1.1-1.7,0.7-2.4l-4.8-8.4c-0.4-0.7-1.5-1.1-2.4-0.6c-0.9,0.5-1.1,1.7-0.7,2.4l4.8,8.4
			C252.3,128.8,253.4,129.2,254.3,128.7"/>
		<path class="st1" d="M202.1,114.5c0.5,0.9,1.7,1.1,2.4,0.7l8.3-4.8c0.7-0.4,1.1-1.6,0.6-2.4c-0.5-0.9-1.7-1.1-2.4-0.7l-8.3,4.8
			C202,112.5,201.6,113.6,202.1,114.5"/>
		<path class="st1" d="M235.2,69.8c1,0,1.8-0.9,1.8-1.7v-9.7c0-0.8-0.8-1.7-1.8-1.7c-1,0-1.8,0.9-1.8,1.7v9.7
			C233.4,68.9,234.2,69.8,235.2,69.8"/>
		<path class="st1" d="M213.4,82.6c0.5-0.9,0.1-2-0.6-2.4l-8.3-4.8c-0.7-0.4-1.9-0.1-2.4,0.7c-0.5,0.9-0.1,2,0.6,2.4l8.3,4.8
			C211.7,83.8,212.9,83.5,213.4,82.6"/>
		<path class="st1" d="M247.8,73.2c0.9,0.5,2,0.1,2.4-0.6l4.8-8.4c0.4-0.7,0.1-1.9-0.7-2.4c-0.9-0.5-2-0.1-2.4,0.6l-4.8,8.4
			C246.6,71.5,246.9,72.7,247.8,73.2"/>
		<path class="st1" d="M222.7,73.2c0.9-0.5,1.1-1.7,0.7-2.4l-4.8-8.4c-0.4-0.7-1.5-1.1-2.4-0.6c-0.9,0.5-1.1,1.7-0.7,2.4l4.8,8.4
			C220.7,73.4,221.8,73.7,222.7,73.2"/>
		<path class="st1" d="M257.1,82.6c0.5,0.9,1.7,1.1,2.4,0.7l8.3-4.8c0.7-0.4,1.1-1.6,0.6-2.4c-0.5-0.9-1.7-1.1-2.4-0.7l-8.3,4.8
			C256.9,80.6,256.6,81.7,257.1,82.6"/>
	</g>
	<g>
		<rect x="321.6" class="st3" width="149" height="150.5"/>
		<path class="st1" d="M334.4,18.8c-0.3,0.1-1,0.4-2.2,0.9c-1,0.3-1.6,0.6-1.9,0.7v-4.1c0.8-0.3,1.8-0.8,2.9-1.4
			c1.1-0.6,1.9-1.2,2.4-1.7h4.2v28.7h-5.4V18.8z"/>
		<path class="st1" d="M342.8,37.9l6.9-10.7l0.4-0.6c0.9-1.3,1.5-2.5,2-3.4c0.4-0.9,0.6-1.9,0.6-3c0-0.9-0.2-1.6-0.5-2.1
			c-0.4-0.5-0.9-0.7-1.5-0.7c-1,0-1.7,0.4-2,1.1c-0.4,0.8-0.6,1.8-0.6,3.1v1.3h-5.3v-1.4c0-2.7,0.6-4.8,1.9-6.4
			c1.2-1.6,3.2-2.4,5.9-2.4c2.5,0,4.3,0.7,5.6,2c1.3,1.3,1.9,3.2,1.9,5.6c0,1.1-0.2,2.1-0.5,3.1c-0.3,1-0.7,1.8-1.2,2.6
			c-0.4,0.8-1.1,1.8-2.1,3.2l-5.5,8.3h8.5v4.3h-14.5V37.9z"/>
		<path class="st1" d="M369,24v-11h2.5c0.6,0,1.1,0,1.5,0.1c0.4,0.1,0.8,0.3,1.1,0.5c0.3,0.2,0.5,0.5,0.7,0.9
			c0.1,0.4,0.2,0.8,0.2,1.4c0,0.7-0.1,1.2-0.3,1.7c-0.2,0.4-0.5,0.8-1,1l1.5,5.4h-2l-1.3-5H371v5H369z M371,17.8h0.5
			c0.6,0,1-0.1,1.2-0.4c0.2-0.2,0.4-0.7,0.4-1.3c0-0.6-0.1-1-0.3-1.3c-0.2-0.3-0.6-0.4-1.2-0.4H371V17.8z"/>
		<polygon class="st1" points="376.1,13.1 376.1,24 380.6,24 380.6,22.7 378,22.7 378,19 380.1,19 380.1,17.6 378,17.6 378,14.5 
			380.6,14.5 380.6,13.1 		"/>
		<path class="st1" d="M384.1,24.2c-1.9,0-2.9-1.1-3-3.3l1.7-0.4c0,1.5,0.5,2.2,1.2,2.2c0.3,0,0.5-0.1,0.7-0.3
			c0.1-0.2,0.2-0.4,0.2-0.7c0-0.3-0.1-0.6-0.2-0.8c-0.1-0.3-0.2-0.5-0.4-0.6c-0.1-0.2-0.4-0.4-0.6-0.6l-1.4-1.2
			c-0.4-0.4-0.7-0.8-0.9-1.2c-0.2-0.4-0.3-0.9-0.3-1.5c0-0.9,0.2-1.5,0.7-2c0.5-0.5,1.2-0.7,2-0.7c0.4,0,0.7,0,1.1,0.2
			c0.3,0.1,0.6,0.2,0.8,0.4c0.2,0.2,0.4,0.4,0.5,0.7c0.1,0.3,0.2,0.5,0.3,0.8s0.1,0.6,0.1,0.9l-1.7,0.3c0-0.2,0-0.4,0-0.6
			c0-0.2,0-0.3-0.1-0.5c0-0.2-0.1-0.3-0.2-0.4c-0.1-0.1-0.2-0.2-0.3-0.2c-0.1-0.1-0.3-0.1-0.4-0.1c-0.3,0-0.5,0.1-0.7,0.3
			c-0.2,0.2-0.2,0.4-0.2,0.7c0,0.4,0.1,0.6,0.2,0.9c0.1,0.2,0.4,0.5,0.6,0.7l1.4,1.2c0.2,0.2,0.4,0.4,0.6,0.6
			c0.2,0.2,0.3,0.4,0.5,0.7c0.2,0.3,0.3,0.5,0.4,0.9c0.1,0.3,0.1,0.6,0.1,1c0,0.8-0.3,1.4-0.7,1.9C385.6,23.9,384.9,24.2,384.1,24.2
			"/>
		<path class="st1" d="M387.6,24v-11h3.1c1.9,0,2.8,1,2.8,3.1c0,1-0.3,1.8-0.8,2.2c-0.5,0.5-1.2,0.7-2.1,0.7h-1V24H387.6z
			 M389.6,17.7h0.6c0.6,0,0.9-0.1,1.1-0.3c0.2-0.2,0.3-0.6,0.3-1.2c0-0.3,0-0.6,0-0.8c0-0.2-0.1-0.4-0.2-0.5
			c-0.1-0.2-0.2-0.3-0.4-0.3c-0.2-0.1-0.4-0.1-0.8-0.1h-0.6V17.7z"/>
		<path class="st1" d="M397.1,24.2c-1.1,0-1.9-0.3-2.4-0.9c-0.5-0.6-0.7-1.5-0.7-2.7v-4c0-0.6,0.1-1.1,0.2-1.5
			c0.1-0.4,0.3-0.8,0.5-1.1c0.2-0.3,0.6-0.5,1-0.7c0.4-0.2,0.9-0.2,1.5-0.2c1.1,0,1.9,0.3,2.4,0.9c0.5,0.6,0.7,1.5,0.7,2.7v4
			c0,0.6-0.1,1.1-0.2,1.5c-0.1,0.4-0.3,0.8-0.5,1.1c-0.2,0.3-0.6,0.6-1,0.7C398.2,24.1,397.7,24.2,397.1,24.2 M396.6,22.6
			c0.1,0.1,0.3,0.1,0.5,0.1s0.4,0,0.5-0.1c0.1-0.1,0.2-0.1,0.3-0.2c0.1-0.1,0.1-0.2,0.2-0.4c0-0.1,0.1-0.3,0.1-0.4
			c0-0.1,0-0.3,0-0.5v-5c0-0.3,0-0.5,0-0.7c0-0.2-0.1-0.3-0.2-0.5c-0.1-0.2-0.2-0.3-0.3-0.4c-0.2-0.1-0.3-0.1-0.6-0.1
			c-0.2,0-0.4,0-0.6,0.1c-0.2,0.1-0.3,0.2-0.3,0.4c-0.1,0.2-0.1,0.3-0.2,0.5c0,0.2,0,0.4,0,0.7v5c0,0.2,0,0.4,0,0.5
			c0,0.2,0,0.3,0.1,0.4c0,0.2,0.1,0.3,0.2,0.4C396.4,22.5,396.5,22.5,396.6,22.6"/>
		<polygon class="st1" points="401.3,24 401.3,13.1 402.6,13.1 405.3,19.3 405.3,13.1 406.9,13.1 406.9,24 405.6,24 403,17.5 
			403,24 		"/>
		<path class="st1" d="M410.9,24.2c-1.9,0-2.9-1.1-3-3.3l1.7-0.4c0,1.5,0.5,2.2,1.2,2.2c0.3,0,0.5-0.1,0.7-0.3
			c0.1-0.2,0.2-0.4,0.2-0.7c0-0.3-0.1-0.6-0.2-0.8c-0.1-0.3-0.2-0.5-0.4-0.6c-0.1-0.2-0.4-0.4-0.6-0.6l-1.4-1.2
			c-0.4-0.4-0.7-0.8-0.9-1.2c-0.2-0.4-0.3-0.9-0.3-1.5c0-0.9,0.2-1.5,0.7-2c0.5-0.5,1.2-0.7,2-0.7c0.4,0,0.7,0,1.1,0.2
			c0.3,0.1,0.6,0.2,0.8,0.4c0.2,0.2,0.4,0.4,0.5,0.7c0.1,0.3,0.2,0.5,0.3,0.8s0.1,0.6,0.1,0.9l-1.7,0.3c0-0.2,0-0.4,0-0.6
			c0-0.2,0-0.3-0.1-0.5c0-0.2-0.1-0.3-0.2-0.4c-0.1-0.1-0.2-0.2-0.3-0.2c-0.1-0.1-0.3-0.1-0.4-0.1c-0.3,0-0.5,0.1-0.7,0.3
			c-0.2,0.2-0.2,0.4-0.2,0.7c0,0.4,0.1,0.6,0.2,0.9c0.1,0.2,0.4,0.5,0.6,0.7l1.4,1.2c0.2,0.2,0.4,0.4,0.6,0.6
			c0.2,0.2,0.3,0.4,0.5,0.7c0.2,0.3,0.3,0.5,0.4,0.9c0.1,0.3,0.1,0.6,0.1,1c0,0.8-0.3,1.4-0.8,1.9C412.4,23.9,411.7,24.2,410.9,24.2
			"/>
		<rect x="414.4" y="13.1" class="st1" width="1.9" height="11"/>
		<path class="st1" d="M417.7,24v-11h2.7c0.5,0,0.9,0,1.3,0.1c0.4,0.1,0.7,0.2,1,0.4c0.3,0.2,0.5,0.5,0.7,0.9
			c0.1,0.4,0.2,0.8,0.2,1.3c0,1.4-0.5,2.1-1.6,2.3c0.6,0.1,1.1,0.4,1.4,0.9c0.3,0.4,0.5,1.1,0.5,1.9c0,1-0.3,1.8-0.8,2.4
			c-0.5,0.5-1.3,0.8-2.3,0.8H417.7z M419.6,17.5h0.6c0.6,0,1-0.1,1.2-0.4c0.2-0.3,0.3-0.7,0.3-1.3c0-0.3,0-0.6-0.1-0.7
			c-0.1-0.2-0.2-0.3-0.4-0.4c-0.2-0.1-0.4-0.2-0.6-0.2c-0.2,0-0.5,0-0.8,0h-0.3V17.5z M419.6,22.6h0.7c0.6,0,1-0.1,1.2-0.4
			c0.2-0.3,0.3-0.7,0.3-1.4c0-0.7-0.1-1.1-0.4-1.4c-0.3-0.3-0.7-0.4-1.3-0.4h-0.6V22.6z"/>
		<polygon class="st1" points="424.7,13.1 424.7,24 429.3,24 429.3,22.7 426.7,22.7 426.7,13.1 		"/>
		<polygon class="st1" points="429.9,13.1 429.9,24 434.5,24 434.5,22.7 431.9,22.7 431.9,19 433.9,19 433.9,17.6 431.9,17.6 
			431.9,14.5 434.5,14.5 434.5,13.1 		"/>
		<path class="st1" d="M371.9,42.1c-0.5,0-0.9-0.1-1.2-0.2c-0.4-0.1-0.7-0.3-0.9-0.5c-0.2-0.2-0.4-0.5-0.6-0.8
			c-0.1-0.3-0.2-0.7-0.3-1c-0.1-0.4-0.1-0.8-0.1-1.2v-3.8c0-0.5,0-0.9,0.1-1.3c0.1-0.4,0.2-0.7,0.3-1c0.1-0.3,0.3-0.6,0.6-0.8
			c0.2-0.2,0.5-0.4,0.9-0.5c0.4-0.1,0.8-0.2,1.2-0.2c0.5,0,1,0.1,1.4,0.2c0.4,0.1,0.7,0.4,0.9,0.6c0.2,0.3,0.4,0.6,0.5,1
			c0.1,0.4,0.1,0.8,0.1,1.3V35H373V34c0-0.5,0-0.9-0.1-1.1c-0.1-0.4-0.4-0.6-0.8-0.6H372c-0.2,0-0.3,0-0.4,0.1
			c-0.1,0-0.2,0.1-0.3,0.2c-0.1,0.1-0.1,0.2-0.2,0.3c0,0.1-0.1,0.2-0.1,0.4c0,0.2,0,0.3,0,0.4c0,0.1,0,0.3,0,0.5v4.6
			c0,0.6,0.1,1.1,0.2,1.4c0.2,0.3,0.4,0.4,0.9,0.4c0.1,0,0.3,0,0.4,0c0.1,0,0.2-0.1,0.3-0.1c0.1,0,0.1-0.1,0.2-0.2
			c0-0.1,0.1-0.2,0.1-0.3c0-0.1,0-0.2,0.1-0.3c0-0.1,0-0.3,0-0.4c0-0.1,0-0.2,0-0.4v-1h1.9v0.9c0,0.4,0,0.8-0.1,1.1
			c-0.1,0.3-0.2,0.6-0.3,0.9c-0.1,0.3-0.3,0.5-0.5,0.7c-0.2,0.2-0.5,0.3-0.8,0.4C372.8,42,372.4,42.1,371.9,42.1"/>
		<path class="st1" d="M378.8,42.1c-1.1,0-1.9-0.3-2.4-0.9c-0.5-0.6-0.7-1.5-0.7-2.7v-4c0-0.6,0.1-1.1,0.2-1.5
			c0.1-0.4,0.3-0.8,0.5-1.1c0.2-0.3,0.6-0.5,1-0.7c0.4-0.2,0.9-0.2,1.5-0.2c1.1,0,1.9,0.3,2.4,0.9c0.5,0.6,0.7,1.5,0.7,2.7v4
			c0,0.6-0.1,1.1-0.2,1.5c-0.1,0.4-0.3,0.8-0.5,1.1c-0.2,0.3-0.6,0.6-1,0.7C379.9,42,379.4,42.1,378.8,42.1 M378.3,40.5
			c0.1,0.1,0.3,0.1,0.5,0.1c0.2,0,0.4,0,0.5-0.1c0.1-0.1,0.2-0.1,0.3-0.2c0.1-0.1,0.1-0.2,0.2-0.4c0-0.1,0.1-0.3,0.1-0.4
			c0-0.1,0-0.3,0-0.5v-5c0-0.3,0-0.5,0-0.7c0-0.2-0.1-0.3-0.2-0.5c-0.1-0.2-0.2-0.3-0.3-0.4c-0.2-0.1-0.3-0.1-0.6-0.1
			c-0.2,0-0.4,0-0.6,0.1c-0.2,0.1-0.3,0.2-0.3,0.4c-0.1,0.2-0.1,0.3-0.2,0.5c0,0.2,0,0.4,0,0.7v5c0,0.2,0,0.4,0,0.5
			c0,0.2,0,0.3,0.1,0.4c0,0.2,0.1,0.3,0.2,0.4C378.1,40.4,378.2,40.5,378.3,40.5"/>
		<polygon class="st1" points="383,42 383,31 384.3,31 387,37.2 387,31 388.6,31 388.6,42 387.3,42 384.7,35.4 384.7,42 		"/>
		<path class="st1" d="M392.6,42.1c-1.9,0-2.9-1.1-3-3.3l1.7-0.4c0,1.5,0.5,2.2,1.2,2.2c0.3,0,0.5-0.1,0.7-0.3
			c0.1-0.2,0.2-0.4,0.2-0.7c0-0.3-0.1-0.6-0.2-0.8c-0.1-0.3-0.2-0.5-0.4-0.6c-0.1-0.2-0.4-0.4-0.6-0.6l-1.4-1.2
			c-0.4-0.4-0.7-0.8-0.9-1.2c-0.2-0.4-0.3-0.9-0.3-1.5c0-0.9,0.2-1.5,0.7-2c0.5-0.5,1.2-0.7,2-0.7c0.4,0,0.7,0,1.1,0.2
			c0.3,0.1,0.6,0.2,0.8,0.4c0.2,0.2,0.4,0.4,0.5,0.7c0.1,0.3,0.2,0.5,0.3,0.8c0.1,0.3,0.1,0.6,0.1,0.9l-1.7,0.3c0-0.2,0-0.4,0-0.6
			c0-0.2,0-0.3-0.1-0.5c0-0.2-0.1-0.3-0.2-0.4c-0.1-0.1-0.2-0.2-0.3-0.2c-0.1-0.1-0.3-0.1-0.4-0.1c-0.3,0-0.5,0.1-0.7,0.3
			c-0.2,0.2-0.2,0.4-0.2,0.7c0,0.4,0.1,0.6,0.2,0.9c0.1,0.2,0.4,0.5,0.6,0.7l1.4,1.2c0.2,0.2,0.4,0.4,0.6,0.6
			c0.2,0.2,0.3,0.4,0.5,0.7c0.2,0.3,0.3,0.5,0.4,0.9c0.1,0.3,0.1,0.6,0.1,1c0,0.8-0.3,1.4-0.8,1.9C394.1,41.8,393.4,42.1,392.6,42.1
			"/>
		<path class="st1" d="M399,42.1c-0.5,0-0.9-0.1-1.3-0.2c-0.4-0.1-0.7-0.3-0.9-0.5c-0.2-0.2-0.4-0.5-0.5-0.8
			c-0.1-0.3-0.2-0.7-0.3-1.1c-0.1-0.4-0.1-0.8-0.1-1.3V31h1.9v7.5c0,0.3,0,0.5,0,0.7c0,0.2,0,0.4,0.1,0.6c0,0.2,0.1,0.4,0.2,0.5
			c0.1,0.1,0.2,0.2,0.3,0.3c0.1,0.1,0.3,0.1,0.5,0.1c0.2,0,0.4,0,0.5-0.1c0.1-0.1,0.3-0.2,0.3-0.3c0.1-0.1,0.1-0.3,0.2-0.5
			c0-0.2,0.1-0.4,0.1-0.6c0-0.2,0-0.4,0-0.7V31h1.9v7.3c0,0.5,0,0.9-0.1,1.3c0,0.4-0.1,0.7-0.3,1.1c-0.1,0.3-0.3,0.6-0.5,0.8
			c-0.2,0.2-0.5,0.4-0.9,0.5C399.9,42,399.5,42.1,399,42.1"/>
		<polygon class="st1" points="403.2,42 403.4,31 405.4,31 407,38.7 408.6,31 410.6,31 410.8,42 409.3,42 409.2,34.4 407.6,42 
			406.4,42 404.8,34.4 404.7,42 		"/>
		<path class="st1" d="M412,42V31h3.1c1.9,0,2.8,1,2.8,3.1c0,1-0.3,1.8-0.8,2.2c-0.5,0.5-1.2,0.7-2.1,0.7h-1V42H412z M414,35.7h0.6
			c0.6,0,0.9-0.1,1.1-0.3c0.2-0.2,0.3-0.6,0.3-1.2c0-0.3,0-0.6,0-0.8c0-0.2-0.1-0.4-0.2-0.5c-0.1-0.2-0.2-0.3-0.4-0.3
			c-0.2-0.1-0.4-0.1-0.8-0.1H414V35.7z"/>
		<polygon class="st1" points="419.6,42 419.6,32.5 417.8,32.5 417.8,31 423.3,31 423.3,32.5 421.6,32.5 421.6,42 		"/>
		<rect x="423.9" y="31" class="st1" width="1.9" height="11"/>
		<path class="st1" d="M430,42.1c-1.1,0-1.9-0.3-2.4-0.9c-0.5-0.6-0.7-1.5-0.7-2.7v-4c0-0.6,0.1-1.1,0.2-1.5
			c0.1-0.4,0.3-0.8,0.5-1.1c0.2-0.3,0.6-0.5,1-0.7c0.4-0.2,0.9-0.2,1.5-0.2c1.1,0,1.9,0.3,2.4,0.9c0.5,0.6,0.7,1.5,0.7,2.7v4
			c0,0.6-0.1,1.1-0.2,1.5c-0.1,0.4-0.3,0.8-0.5,1.1c-0.2,0.3-0.6,0.6-1,0.7C431.1,42,430.6,42.1,430,42.1 M429.5,40.5
			c0.1,0.1,0.3,0.1,0.5,0.1c0.2,0,0.4,0,0.5-0.1c0.1-0.1,0.2-0.1,0.3-0.2c0.1-0.1,0.1-0.2,0.2-0.4c0-0.1,0.1-0.3,0.1-0.4
			c0-0.1,0-0.3,0-0.5v-5c0-0.3,0-0.5,0-0.7c0-0.2-0.1-0.3-0.2-0.5c-0.1-0.2-0.2-0.3-0.3-0.4s-0.3-0.1-0.6-0.1c-0.2,0-0.4,0-0.6,0.1
			c-0.2,0.1-0.3,0.2-0.3,0.4c-0.1,0.2-0.1,0.3-0.2,0.5c0,0.2,0,0.4,0,0.7v5c0,0.2,0,0.4,0,0.5c0,0.2,0,0.3,0.1,0.4
			c0,0.2,0.1,0.3,0.2,0.4C429.3,40.4,429.4,40.5,429.5,40.5"/>
		<polygon class="st1" points="434.2,42 434.2,31 435.6,31 438.2,37.2 438.2,31 439.9,31 439.9,42 438.6,42 435.9,35.4 435.9,42 		
			"/>
		<path class="st1" d="M368.5,59.9l2.2-11h2.1l2.2,11h-1.8l-0.4-2.5h-1.9l-0.4,2.5H368.5z M371,56h1.5l-0.7-4.5L371,56z"/>
		<polygon class="st1" points="375.6,59.9 375.6,48.9 377,48.9 379.6,55.1 379.6,48.9 381.3,48.9 381.3,59.9 380,59.9 377.3,53.3 
			377.3,59.9 		"/>
		<path class="st1" d="M382.5,59.9v-11h2.5c0.7,0,1.2,0.1,1.6,0.2c0.4,0.1,0.8,0.3,1.1,0.6c0.3,0.3,0.5,0.6,0.6,1.1
			c0.1,0.4,0.2,0.9,0.2,1.5v4c0,0.6-0.1,1.2-0.2,1.6c-0.1,0.4-0.3,0.8-0.6,1.1c-0.3,0.3-0.6,0.5-1,0.7c-0.4,0.1-1,0.2-1.6,0.2H382.5
			z M384.5,58.5h0.6c0.2,0,0.4,0,0.5-0.1c0.1,0,0.3-0.1,0.4-0.1c0.1,0,0.2-0.1,0.3-0.2c0.1-0.1,0.1-0.2,0.2-0.3
			c0-0.1,0.1-0.2,0.1-0.4c0-0.2,0-0.3,0-0.5c0-0.1,0-0.3,0-0.6v-4c0-0.3,0-0.5,0-0.6c0-0.2,0-0.3-0.1-0.5c0-0.2-0.1-0.3-0.1-0.4
			c-0.1-0.1-0.1-0.2-0.3-0.2c-0.1-0.1-0.2-0.1-0.4-0.2c-0.2,0-0.3,0-0.6,0h-0.5V58.5z"/>
		<path class="st1" d="M392.4,59.9v-11h3.1c1.9,0,2.8,1,2.8,3.1c0,1-0.3,1.8-0.8,2.2c-0.5,0.5-1.2,0.7-2.1,0.7h-1v4.9H392.4z
			 M394.4,53.6h0.6c0.6,0,0.9-0.1,1.1-0.3c0.2-0.2,0.3-0.6,0.3-1.2c0-0.3,0-0.6,0-0.8c0-0.2-0.1-0.4-0.2-0.5
			c-0.1-0.2-0.2-0.3-0.4-0.3c-0.2-0.1-0.4-0.1-0.8-0.1h-0.6V53.6z"/>
		<path class="st1" d="M398.9,59.9v-11h2.5c0.6,0,1.1,0,1.5,0.1c0.4,0.1,0.8,0.3,1.1,0.5c0.3,0.2,0.5,0.5,0.7,0.9
			c0.1,0.4,0.2,0.8,0.2,1.4c0,0.7-0.1,1.3-0.3,1.7c-0.2,0.4-0.5,0.7-1,1l1.5,5.4h-2l-1.3-5h-0.9v5H398.9z M400.9,53.6h0.5
			c0.6,0,1-0.1,1.2-0.4c0.2-0.3,0.4-0.7,0.4-1.3c0-0.6-0.1-1-0.3-1.3c-0.2-0.3-0.6-0.4-1.2-0.4h-0.6V53.6z"/>
		<path class="st1" d="M408.9,60c-1.1,0-1.9-0.3-2.4-0.9c-0.5-0.6-0.7-1.5-0.7-2.7v-4c0-0.6,0.1-1.1,0.2-1.5
			c0.1-0.4,0.3-0.8,0.5-1.1c0.2-0.3,0.6-0.5,1-0.7c0.4-0.2,0.9-0.2,1.5-0.2c1.1,0,1.9,0.3,2.4,0.9c0.5,0.6,0.7,1.5,0.7,2.7v4
			c0,0.6-0.1,1.1-0.2,1.5c-0.1,0.4-0.3,0.8-0.5,1.1c-0.2,0.3-0.6,0.6-1,0.7C410,59.9,409.5,60,408.9,60 M408.4,58.4
			c0.1,0.1,0.3,0.1,0.5,0.1s0.4,0,0.5-0.1c0.1-0.1,0.2-0.1,0.3-0.2c0.1-0.1,0.1-0.2,0.2-0.4c0-0.1,0.1-0.3,0.1-0.4
			c0-0.1,0-0.3,0-0.5v-5c0-0.3,0-0.5,0-0.7c0-0.2-0.1-0.3-0.2-0.5c-0.1-0.2-0.2-0.3-0.3-0.4c-0.2-0.1-0.3-0.1-0.6-0.1
			c-0.2,0-0.4,0-0.6,0.1c-0.2,0.1-0.3,0.2-0.3,0.4c-0.1,0.2-0.1,0.3-0.2,0.5c0,0.2,0,0.4,0,0.7v5c0,0.2,0,0.4,0,0.5
			c0,0.2,0,0.3,0.1,0.4c0,0.2,0.1,0.3,0.2,0.4C408.2,58.3,408.3,58.4,408.4,58.4"/>
		<path class="st1" d="M413.1,59.9v-11h2.5c0.7,0,1.2,0.1,1.6,0.2c0.4,0.1,0.8,0.3,1.1,0.6c0.3,0.3,0.5,0.6,0.6,1.1
			c0.1,0.4,0.2,0.9,0.2,1.5v4c0,0.6-0.1,1.2-0.2,1.6c-0.1,0.4-0.3,0.8-0.6,1.1c-0.3,0.3-0.6,0.5-1,0.7c-0.4,0.1-1,0.2-1.6,0.2H413.1
			z M415.1,58.5h0.6c0.2,0,0.4,0,0.5-0.1c0.2,0,0.3-0.1,0.4-0.1c0.1,0,0.2-0.1,0.3-0.2c0.1-0.1,0.1-0.2,0.2-0.3
			c0-0.1,0.1-0.2,0.1-0.4c0-0.2,0-0.3,0-0.5c0-0.1,0-0.3,0-0.6v-4c0-0.3,0-0.5,0-0.6c0-0.2,0-0.3-0.1-0.5c0-0.2-0.1-0.3-0.1-0.4
			c-0.1-0.1-0.1-0.2-0.3-0.2c-0.1-0.1-0.2-0.1-0.4-0.2c-0.2,0-0.3,0-0.6,0h-0.5V58.5z"/>
		<path class="st1" d="M423.1,60c-0.5,0-0.9-0.1-1.3-0.2c-0.4-0.1-0.7-0.3-0.9-0.5c-0.2-0.2-0.4-0.5-0.5-0.8
			c-0.1-0.3-0.2-0.7-0.3-1.1c-0.1-0.4-0.1-0.8-0.1-1.3v-7.3h1.9v7.5c0,0.3,0,0.5,0,0.7c0,0.2,0,0.4,0.1,0.6c0,0.2,0.1,0.4,0.2,0.5
			c0.1,0.1,0.2,0.2,0.3,0.3c0.1,0.1,0.3,0.1,0.5,0.1c0.2,0,0.4,0,0.5-0.1c0.1-0.1,0.3-0.2,0.3-0.3c0.1-0.1,0.1-0.3,0.2-0.5
			c0-0.2,0.1-0.4,0.1-0.6c0-0.2,0-0.4,0-0.7v-7.5h1.9v7.3c0,0.5,0,0.9-0.1,1.3c0,0.4-0.1,0.7-0.3,1.1c-0.1,0.3-0.3,0.6-0.5,0.8
			c-0.2,0.2-0.5,0.4-0.9,0.5C424,60,423.6,60,423.1,60"/>
		<path class="st1" d="M430.2,60c-0.5,0-0.9-0.1-1.2-0.2c-0.4-0.1-0.7-0.3-0.9-0.5c-0.2-0.2-0.4-0.5-0.6-0.8c-0.1-0.3-0.2-0.7-0.3-1
			c-0.1-0.4-0.1-0.8-0.1-1.2v-3.8c0-0.5,0-0.9,0.1-1.3c0.1-0.4,0.2-0.7,0.3-1c0.1-0.3,0.3-0.6,0.6-0.8c0.2-0.2,0.5-0.4,0.9-0.5
			c0.4-0.1,0.8-0.2,1.2-0.2c0.5,0,1,0.1,1.4,0.2c0.4,0.1,0.7,0.4,0.9,0.6c0.2,0.3,0.4,0.6,0.5,1c0.1,0.4,0.1,0.8,0.1,1.3v0.9h-1.9
			V52c0-0.5,0-0.9-0.1-1.1c-0.1-0.4-0.4-0.6-0.8-0.6h-0.1c-0.2,0-0.3,0-0.4,0.1c-0.1,0-0.2,0.1-0.3,0.2c-0.1,0.1-0.1,0.2-0.2,0.3
			c0,0.1-0.1,0.2-0.1,0.4c0,0.2,0,0.3,0,0.4c0,0.1,0,0.3,0,0.5v4.6c0,0.6,0.1,1.1,0.2,1.4c0.2,0.3,0.4,0.4,0.9,0.4
			c0.1,0,0.3,0,0.4,0c0.1,0,0.2-0.1,0.3-0.1c0.1,0,0.1-0.1,0.2-0.2c0-0.1,0.1-0.2,0.1-0.3c0-0.1,0-0.2,0.1-0.3s0-0.3,0-0.4
			c0-0.1,0-0.2,0-0.4v-1h1.9v0.9c0,0.4,0,0.8-0.1,1.1c-0.1,0.3-0.2,0.6-0.3,0.9c-0.1,0.3-0.3,0.5-0.5,0.7c-0.2,0.2-0.5,0.3-0.8,0.4
			C431,60,430.6,60,430.2,60"/>
		<polygon class="st1" points="435.2,59.9 435.2,50.4 433.3,50.4 433.3,48.9 438.9,48.9 438.9,50.4 437.1,50.4 437.1,59.9 		"/>
		<rect x="439.4" y="48.9" class="st1" width="2" height="11"/>
		<path class="st1" d="M445.6,60c-1.1,0-1.9-0.3-2.4-0.9c-0.5-0.6-0.7-1.5-0.7-2.7v-4c0-0.6,0.1-1.1,0.2-1.5
			c0.1-0.4,0.3-0.8,0.5-1.1c0.2-0.3,0.6-0.5,1-0.7c0.4-0.2,0.9-0.2,1.5-0.2c1.1,0,1.9,0.3,2.4,0.9c0.5,0.6,0.7,1.5,0.7,2.7v4
			c0,0.6-0.1,1.1-0.2,1.5c-0.1,0.4-0.3,0.8-0.5,1.1c-0.2,0.3-0.6,0.6-1,0.7C446.6,59.9,446.2,60,445.6,60 M445.1,58.4
			c0.1,0.1,0.3,0.1,0.5,0.1c0.2,0,0.4,0,0.5-0.1c0.1-0.1,0.2-0.1,0.3-0.2c0.1-0.1,0.1-0.2,0.2-0.4c0-0.1,0.1-0.3,0.1-0.4
			c0-0.1,0-0.3,0-0.5v-5c0-0.3,0-0.5,0-0.7c0-0.2-0.1-0.3-0.2-0.5c-0.1-0.2-0.2-0.3-0.3-0.4s-0.3-0.1-0.6-0.1c-0.2,0-0.4,0-0.6,0.1
			s-0.3,0.2-0.3,0.4c-0.1,0.2-0.1,0.3-0.1,0.5c0,0.2,0,0.4,0,0.7v5c0,0.2,0,0.4,0,0.5c0,0.2,0,0.3,0.1,0.4c0,0.2,0.1,0.3,0.2,0.4
			C444.8,58.3,445,58.4,445.1,58.4"/>
		<polygon class="st1" points="449.8,59.9 449.8,48.9 451.1,48.9 453.8,55.1 453.8,48.9 455.4,48.9 455.4,59.9 454.1,59.9 
			451.4,53.3 451.4,59.9 		"/>
		<path class="st1" d="M434.1,78.1c-6.6-5.3-15.4-5.4-18.6-4.6l-0.4,0.1c-3.7,0.9-9.6,2.3-16.5,11c0,0-0.1,0.1-0.1,0.1l-0.1,0.1
			c-0.1,0.1-0.1,0.2-0.1,0.3c0,0.1,0,0.2,0.1,0.3l0.2,0.3c0.9,1.5,2,3.3,2.9,5.1c0,0,0,0,0,0.1c0.1,0.2,0.3,0.3,0.5,0.3
			c0.2,0,0.3-0.1,0.4-0.2c0-0.1,0.1-0.1,0.1-0.2c6.1-8.5,10.9-9.7,14.2-10.5l0.4-0.1c1.7-0.4,8.1-0.4,12.7,3.3
			c3.6,2.9,5.5,7.5,5.5,13.6c0,10.3-5,14.4-9.2,16c-6.5,2.4-12.7-0.8-12.7-0.8l-0.3-0.1c-3.6-1.6-8.9-4.8-13.9-14.9
			c-10.1-20.4-18.5-22.4-24.1-23.6l-0.3-0.1c-2.5-0.6-11.4-1-18.3,4.6c-3.6,2.9-7.9,8.6-7.9,19c0,6.4,1.3,10.6,4.6,15
			c0.7,1,8.2,10.7,22.6,7.9c2.3-0.4,5.4-1.6,8.9-4.2l3.2,2.9c0.2,0.2,0.5,0.2,0.7,0c0.1-0.1,0.1-0.2,0.1-0.4v0l2.3-14.2v-0.2
			c0-0.1-0.1-0.3-0.2-0.4c-0.1-0.1-0.2-0.1-0.3-0.1l-0.1,0l-0.2,0l-13.5,3.8l-0.2,0c-0.1,0-0.2,0.1-0.3,0.2c-0.2,0.2-0.2,0.5,0,0.7
			l0.2,0.1l3,2.8c-2,1.3-3.7,1.9-5,2.1c-10.4,2-15.6-4.9-15.8-5.2l-0.1-0.1c-2.4-3.2-3.2-5.9-3.2-10.8c0-6.2,1.8-10.8,5.4-13.6
			c4.5-3.6,10.7-3.7,12.5-3.3l0.3,0.1c4.6,1,10.8,2.5,19.5,20c4.5,9.1,10.1,15,17.2,18.2c0.9,0.5,5.2,2.5,10.8,2.5
			c2.3,0,4.9-0.4,7.5-1.3c4.1-1.5,13.6-6.8,13.6-22.4C442.2,86.7,437.8,81,434.1,78.1"/>
	</g>
	<g>
		
			<rect x="-0.2" y="162.9" transform="matrix(1.360256e-03 -1 1 1.360256e-03 -162.5841 311.9361)" class="st4" width="150.3" height="148.8"/>
		<path class="st1" d="M13.6,180.9c-0.3,0.1-1,0.4-2.2,0.9c-1,0.3-1.6,0.6-1.9,0.7v-4.1c0.8-0.3,1.8-0.8,2.9-1.4
			c1.1-0.6,1.9-1.2,2.4-1.7H19v28.7h-5.4V180.9z"/>
		<path class="st1" d="M23.6,202.1c-1.2-1.5-1.8-3.7-1.8-6.4v-1h5.4v1c0,1.5,0.2,2.5,0.5,3.2c0.3,0.6,0.9,1,1.8,1
			c0.9,0,1.4-0.3,1.7-1c0.3-0.7,0.4-1.7,0.4-3.2c0-1.5-0.2-2.7-0.7-3.4c-0.4-0.7-1.3-1.1-2.5-1.1c-0.1,0-0.4,0-1,0v-4h0.9
			c1.2,0,2.1-0.3,2.5-1c0.5-0.7,0.7-1.8,0.7-3.3c0-1.2-0.2-2.1-0.5-2.7c-0.3-0.6-0.9-0.9-1.8-0.9c-0.8,0-1.4,0.3-1.7,1
			c-0.3,0.6-0.5,1.6-0.5,2.8v1.3h-5.4v-1.6c0-2.5,0.7-4.4,2-5.8c1.3-1.4,3.2-2.1,5.6-2.1c2.5,0,4.4,0.7,5.7,2c1.3,1.3,2,3.2,2,5.7
			c0,1.7-0.3,3-1,4.2c-0.7,1.1-1.5,1.8-2.6,2.1c2.4,0.9,3.6,3.2,3.6,6.8c0,2.8-0.6,4.9-1.8,6.5c-1.2,1.6-3.1,2.4-5.8,2.4
			C26.7,204.4,24.8,203.7,23.6,202.1"/>
		<path class="st1" d="M51.3,186.3c-0.5,0-0.9-0.1-1.2-0.2c-0.4-0.1-0.7-0.3-0.9-0.5c-0.2-0.2-0.4-0.5-0.6-0.8
			c-0.1-0.3-0.2-0.7-0.3-1c-0.1-0.4-0.1-0.8-0.1-1.2v-3.8c0-0.5,0-0.9,0.1-1.3c0.1-0.4,0.2-0.7,0.3-1c0.1-0.3,0.3-0.6,0.6-0.8
			c0.2-0.2,0.5-0.4,0.9-0.5c0.4-0.1,0.8-0.2,1.2-0.2c0.5,0,1,0.1,1.4,0.2c0.4,0.1,0.7,0.4,0.9,0.6c0.2,0.3,0.4,0.6,0.5,1
			c0.1,0.4,0.1,0.8,0.1,1.3v0.9h-1.9v-0.9c0-0.5,0-0.9-0.1-1.1c-0.1-0.4-0.4-0.6-0.8-0.6h-0.1c-0.2,0-0.3,0-0.4,0.1
			c-0.1,0-0.2,0.1-0.3,0.2c-0.1,0.1-0.1,0.2-0.2,0.3c0,0.1-0.1,0.2-0.1,0.4c0,0.2,0,0.3,0,0.4c0,0.1,0,0.3,0,0.5v4.6
			c0,0.6,0.1,1.1,0.2,1.4c0.2,0.3,0.4,0.4,0.9,0.4c0.1,0,0.3,0,0.4,0c0.1,0,0.2-0.1,0.3-0.1c0.1,0,0.1-0.1,0.2-0.2
			c0.1-0.1,0.1-0.2,0.1-0.3c0-0.1,0-0.2,0.1-0.3c0-0.1,0-0.3,0-0.4c0-0.1,0-0.2,0-0.4v-1h1.9v0.9c0,0.4,0,0.8-0.1,1.1
			c-0.1,0.3-0.2,0.6-0.3,0.9c-0.1,0.3-0.3,0.5-0.5,0.7c-0.2,0.2-0.5,0.3-0.8,0.4C52.2,186.2,51.8,186.3,51.3,186.3"/>
		<polygon class="st1" points="55.2,175.2 55.2,186.2 59.8,186.2 59.8,184.8 57.2,184.8 57.2,175.2 		"/>
		<rect x="60.5" y="175.2" class="st1" width="1.9" height="11"/>
		<polygon class="st1" points="63.7,186.2 63.9,175.2 65.9,175.2 67.5,182.9 69.1,175.2 71.1,175.2 71.3,186.2 69.8,186.2 
			69.7,178.6 68.1,186.2 66.9,186.2 65.3,178.6 65.2,186.2 		"/>
		<path class="st1" d="M71.9,186.2l2.2-11h2.1l2.2,11h-1.8l-0.4-2.5h-1.9l-0.4,2.5H71.9z M74.4,182.3h1.5l-0.7-4.5L74.4,182.3z"/>
		<polygon class="st1" points="79.7,186.2 79.7,176.7 77.9,176.7 77.9,175.2 83.5,175.2 83.5,176.7 81.7,176.7 81.7,186.2 		"/>
		<polygon class="st1" points="83.9,175.2 83.9,186.2 88.5,186.2 88.5,184.8 85.9,184.8 85.9,181.2 87.9,181.2 87.9,179.8 
			85.9,179.8 85.9,176.6 88.5,176.6 88.5,175.2 		"/>
		<path class="st1" d="M47.8,204.1l2.2-11h2.1l2.2,11h-1.8l-0.4-2.5h-1.9l-0.4,2.5H47.8z M50.4,200.2h1.5l-0.7-4.5L50.4,200.2z"/>
		<path class="st1" d="M57.9,204.2c-0.5,0-0.9-0.1-1.2-0.2c-0.4-0.1-0.7-0.3-0.9-0.5c-0.2-0.2-0.4-0.5-0.6-0.8
			c-0.1-0.3-0.2-0.7-0.3-1c-0.1-0.4-0.1-0.8-0.1-1.2v-3.8c0-0.5,0-0.9,0.1-1.3c0.1-0.4,0.2-0.7,0.3-1c0.1-0.3,0.3-0.6,0.6-0.8
			c0.2-0.2,0.5-0.4,0.9-0.5c0.4-0.1,0.8-0.2,1.2-0.2c0.5,0,1,0.1,1.4,0.2c0.4,0.1,0.7,0.4,0.9,0.6c0.2,0.3,0.4,0.6,0.5,1
			c0.1,0.4,0.1,0.8,0.1,1.3v0.9h-1.9v-0.9c0-0.5,0-0.9-0.1-1.1c-0.1-0.4-0.4-0.6-0.8-0.6h-0.1c-0.2,0-0.3,0-0.4,0.1
			c-0.1,0-0.2,0.1-0.3,0.2c-0.1,0.1-0.1,0.2-0.2,0.3c0,0.1-0.1,0.2-0.1,0.4c0,0.2,0,0.3,0,0.4c0,0.1,0,0.3,0,0.5v4.6
			c0,0.6,0.1,1.1,0.2,1.4c0.2,0.3,0.4,0.4,0.9,0.4c0.1,0,0.3,0,0.4,0c0.1,0,0.2-0.1,0.3-0.1c0.1,0,0.1-0.1,0.2-0.2
			c0.1-0.1,0.1-0.2,0.1-0.3c0-0.1,0-0.2,0.1-0.3c0-0.1,0-0.3,0-0.4c0-0.1,0-0.2,0-0.4v-1h1.9v0.9c0,0.4,0,0.8-0.1,1.1
			c-0.1,0.3-0.2,0.6-0.3,0.9c-0.1,0.3-0.3,0.5-0.5,0.7c-0.2,0.2-0.5,0.3-0.8,0.4C58.7,204.2,58.3,204.2,57.9,204.2"/>
		<polygon class="st1" points="62.9,204.1 62.9,194.6 61,194.6 61,193.1 66.6,193.1 66.6,194.6 64.8,194.6 64.8,204.1 		"/>
		<rect x="67.1" y="193.1" class="st1" width="1.9" height="11"/>
		<path class="st1" d="M73.3,204.2c-1.1,0-1.9-0.3-2.4-0.9c-0.5-0.6-0.7-1.5-0.7-2.7v-4c0-0.6,0.1-1.1,0.2-1.5
			c0.1-0.4,0.3-0.8,0.5-1.1c0.2-0.3,0.6-0.5,1-0.7c0.4-0.2,0.9-0.2,1.5-0.2c1.1,0,1.9,0.3,2.4,0.9c0.5,0.6,0.7,1.5,0.7,2.7v4
			c0,0.6-0.1,1.1-0.2,1.5c-0.1,0.4-0.3,0.8-0.5,1.1c-0.2,0.3-0.6,0.6-1,0.7C74.3,204.1,73.9,204.2,73.3,204.2 M72.8,202.7
			c0.1,0.1,0.3,0.1,0.5,0.1c0.2,0,0.4,0,0.5-0.1c0.1-0.1,0.2-0.1,0.3-0.2c0.1-0.1,0.1-0.2,0.2-0.4c0-0.1,0.1-0.3,0.1-0.4
			c0-0.1,0-0.3,0-0.5v-5c0-0.3,0-0.5,0-0.7c0-0.2-0.1-0.3-0.2-0.5c-0.1-0.2-0.2-0.3-0.3-0.4c-0.2-0.1-0.3-0.1-0.6-0.1
			c-0.2,0-0.4,0-0.6,0.1c-0.2,0.1-0.3,0.2-0.3,0.4c-0.1,0.2-0.1,0.3-0.1,0.5c0,0.2,0,0.4,0,0.7v5c0,0.2,0,0.4,0,0.5
			c0,0.2,0,0.3,0.1,0.4c0,0.2,0.1,0.3,0.2,0.4C72.6,202.5,72.7,202.6,72.8,202.7"/>
		<polygon class="st1" points="77.5,204.1 77.5,193.1 78.8,193.1 81.5,199.3 81.5,193.1 83.1,193.1 83.1,204.1 81.8,204.1 
			79.1,197.6 79.1,204.1 		"/>
		<path class="st1" d="M130.9,256.5c-3.9-5.6-21.7-27.9-54.9-28c-33.2,0-51,22.2-55,27.8c-0.2,0.2-0.3,0.4-0.4,0.6
			c0.1,0.2,0.3,0.4,0.4,0.6c3.9,5.6,21.8,27.9,54.9,28c33.2,0,51-22.2,55-27.8c0.2-0.2,0.3-0.4,0.4-0.6
			C131.3,256.9,131.1,256.7,130.9,256.5 M57.5,242.6c0.3-0.4,1.3-1.7,1.4-1.9c0.3-0.3,0.8-0.4,1.1-0.5c0.4-0.1,0.8,0.1,0.9,0.4
			c0.1,0.3-0.1,1.3-0.3,1.5c-0.5,0.5-1.8,1.2-2.5,1.1C57.6,243.2,57.4,242.8,57.5,242.6 M56.3,245c0.1-0.1,0.1-0.1,0.1-0.1
			c0.4-0.5,1.2-0.6,1.8-0.7c0.6-0.1,1.3,0.2,1.4,0.6c0.1,0.4-1.4,1.1-1.7,1.4c-0.8,0.7-2.1,2.2-2.8,2.4c-0.2,0.1-0.4,0-0.6-0.1
			C55.1,247.2,55.6,246.1,56.3,245 M68.7,270.7c-0.4,1.8-1,2.4-1.4,3c-0.4,0.6-2.1,1.3-3.2,1.2c-1.1-0.1-1.2-2.9-1.2-4.4
			c0-0.5-0.7,1-1.1-2c-0.2-1.9-1.5,0.2-1.6-1.1c-0.1-1.3-0.7-1-1.4-1.8c-0.6-0.8-1.5,0.1-2.4,0.5c-0.9,0.4-0.5,0.6-1.8,0.2
			c0,0,0,0-0.1,0c-1.2-2.8-1.8-5.9-1.8-9.1c0-0.8,0-1.6,0.1-2.3c0-0.1,0.1-0.2,0.1-0.2c1.2-1.5,1.2-1.8,1.2-1.8l1.4-0.5
			c0,0,2.2,0.3,3.8,1c1.3,0.5,3.4,1.7,4.7,1.2c0.9-0.4,1.6-0.9,1.5-1.6c-0.1-0.9-0.8-1.2-1.7-0.5c-0.3,0.2-1-1.4-1.6-1.3
			c-0.5,0.1,0.7,1.9,0.2,2c-0.5,0.1-1.4-1.9-1.5-2.2c-0.2-0.3-0.9-1.1-1.5-0.5c-1.4,1.3-3.6,1.2-4,1.6c-1.4,1-1.7-0.3-1.7-1.2
			c0.1-0.2,0.1-0.4,0.2-0.6c0.4-0.5,2-0.7,2.6-0.3c0.6,0.4,1-0.1,1.3-0.4c0.2-0.2,0.2-0.6,0-0.9c-0.2-0.3,0.3-0.6,0.6-0.6
			c0.3-0.1,1.3-0.8,1.8-1.1c0.4-0.2,2.6-0.5,3.5,0c1,0.5,1.8,0.1,2.3-0.5c0.6-0.7,1.3-1.2,1.7-1.4c0.3-0.2-0.8-1.3-1.8-0.1
			c-1,1.2-1.4,1.3-1.9,1.3c-0.4,0-3.1-0.7-3.4-1.5c-0.3-0.9,0.8-1.5,1.8-2c1-0.5,3.7-0.5,4.4-0.6c1.4-0.3,3.2-1,4.1-0.4
			c0.9,0.6-3.8,1.7-2.2,2.5c0.5,0.3,3-1.4,3.9-1.9c2-1-1.9-1.4-1.4-3.5c0.6-2.4-4.8-1.5-7.5-1.3c3.6-2.3,7.9-3.7,12.5-3.7
			c10.9,0,20,7.7,22.4,17.9c0,0.5-0.1,0.9-0.1,1.1c-0.2,0.8-1.8,1.6-2.7,0.2c-0.2-0.3-1.2-1.3-1.2,0.3c0,1.6,1.6,1.8,0.1,2.8
			c-1.5,1-1.7,0.7-2.4,1c-0.7,0.2-1.3,1.9-1.2,2.8c0.2,0.9,2.3,3.3,0.7,3.2c-0.4,0-3.1-1.9-3.6-3.2c-0.5-1.3-1-2.6-1.4-3.5
			c-0.4-1-1.4-1.2-2.2-0.7c-0.8,0.6,0.2,1.1-0.4,2.4c-0.6,1.2-1,2.3-1.9,1.3c-2.3-2.6-5.5-1.3-6-4.2c-0.3-1.6-1.6-1.4-2.7-2.3
			c-1.1-0.9-1.8-1.4-1.9-0.7c-0.2,0.6,3.5,3.5,3.8,4.3c0.4,1.1-1.1,2.1-2.2,2.4c-1.1,0.3-1.6-0.6-2.6-1.8c-1.1-1.1-1.5-1.9-1.6-1.1
			c-0.1,1.3,1,3.2,2.1,3.9c0.9,0.6,2,0.9,1.7,1.8c-0.3,1,0,0.4-1.1,1.5c-1.1,1.1-1.2,1.4-1.2,2.8c0.1,1.5-0.3,1.5-0.5,2.7
			C69.7,270,69.1,268.9,68.7,270.7 M93.5,261.5c0.8-0.1,1.9,1,1.5,1.4c-0.5,0.4-1.6,0.3-2.2-0.2C92.2,262.2,93.1,261.5,93.5,261.5
			 M92.5,260.7c-0.3-0.1-0.5-0.3-0.7-0.9c-0.2-0.6,0.3-0.9,0.8-0.7c0.5,0.2,1.1,1,1.1,1.3S92.8,260.8,92.5,260.7 M82.3,260.7
			c-0.5,0.4-1.6,0.3-2.2-0.2c-0.6-0.5,0.4-1.2,0.7-1.2C81.6,259.2,82.8,260.3,82.3,260.7 M72.9,265.3c-0.3,0.5-1.2,4.4-1.8,4
			c-0.6-0.5,0.2-4.6,0.4-4.9C72.4,262.7,74.4,262.8,72.9,265.3 M76,280.5c-2.3,0-4.4-0.3-6.5-0.9c-0.3-0.2-0.5-0.7-0.3-1.1
			c0.7-1.9,2.8-2.6,4.5-2.8c3.7-0.4,8.7,2.5,9.5,2c0.8-0.5,2.4-2.5,4.7-2.4c1.6,0.1,1.6,0.3,2.1,0.5C86.1,278.7,81.3,280.5,76,280.5
			 M92.3,273.7c-0.2-0.1-0.5-0.1-0.7-0.3c-1.3-0.7-1.1,0.4-1.7,0.2c-0.6-0.2,0.7-1.7-1.2-0.5c-1.9,1.2-1.4-0.2-2.2-2.3
			c-0.8-2.1,0.9-4.4,2.4-5c2-0.7,3.3-0.9,4.2-1.1c2.8-0.7,3.4-2.4,3.9-1.3c0.1,0.2,0.2,0.4,0.3,0.5c0.2,0.3,0.3,0.9,0.4,1.5
			C96.4,268.6,94.6,271.4,92.3,273.7 M98.6,262c-0.6-0.2-3.2-3.8-1.2-6.2c0.3-0.4-0.7-1.5-0.4-1.6c1.1-0.1,1.7,0.6,2,1.6
			c0,0.4,0,0.9,0,1.4C99.1,258.8,99,260.4,98.6,262"/>
	</g>
	<g>
		<rect x="160.7" y="162.1" class="st5" width="149" height="150.5"/>
		<path class="st1" d="M173.4,180.9c-0.3,0.1-1,0.4-2.2,0.9c-1,0.3-1.6,0.6-1.9,0.7v-4.1c0.8-0.3,1.8-0.8,2.9-1.4
			c1.1-0.6,1.9-1.2,2.4-1.7h4.2v28.7h-5.4V180.9z"/>
		<path class="st1" d="M184.7,203.3c-1.1-0.7-1.8-1.7-2.2-3c-0.4-1.3-0.6-2.9-0.6-4.8h5.3c0,1.7,0.2,2.9,0.5,3.6
			c0.3,0.7,0.9,1.1,1.8,1.1c0.7,0,1.2-0.2,1.5-0.7c0.3-0.5,0.5-1.1,0.6-1.9c0.1-0.8,0.1-2,0.1-3.5c0-1.7-0.2-3-0.5-3.9
			c-0.3-0.9-1-1.3-1.9-1.3c-1.3,0-2.1,0.9-2.4,2.6h-4.7l0.4-16.3h13.1v4.7h-8.6l-0.3,6.3c0.3-0.4,0.9-0.7,1.7-1
			c0.8-0.3,1.6-0.4,2.6-0.4c1.9,0,3.4,0.8,4.4,2.4c1,1.6,1.5,3.8,1.5,6.7c0,2.3-0.2,4.1-0.6,5.6c-0.4,1.5-1.2,2.7-2.3,3.5
			c-1.1,0.9-2.7,1.3-4.8,1.3C187.3,204.4,185.8,204,184.7,203.3"/>
		<polygon class="st1" points="208.2,175.2 208.2,186.2 212.8,186.2 212.8,184.8 210.2,184.8 210.2,175.2 		"/>
		<rect x="213.5" y="175.2" class="st1" width="1.9" height="11"/>
		<polygon class="st1" points="216.7,175.2 216.7,186.2 218.7,186.2 218.7,181.2 220.7,181.2 220.7,179.8 218.7,179.8 218.7,176.6 
			221.2,176.6 221.2,175.2 		"/>
		<polygon class="st1" points="221.8,175.2 221.8,186.2 226.4,186.2 226.4,184.8 223.8,184.8 223.8,181.2 225.8,181.2 225.8,179.8 
			223.8,179.8 223.8,176.6 226.4,176.6 226.4,175.2 		"/>
		<path class="st1" d="M211.2,204.2c-1.1,0-1.9-0.3-2.4-0.9c-0.5-0.6-0.7-1.5-0.7-2.7v-4c0-0.6,0.1-1.1,0.2-1.5
			c0.1-0.4,0.3-0.8,0.5-1.1c0.2-0.3,0.6-0.5,1-0.7c0.4-0.2,0.9-0.2,1.5-0.2c1.1,0,1.9,0.3,2.4,0.9c0.5,0.6,0.7,1.5,0.7,2.7v4
			c0,0.6-0.1,1.1-0.2,1.5c-0.1,0.4-0.3,0.8-0.5,1.1c-0.2,0.3-0.6,0.6-1,0.7C212.2,204.1,211.7,204.2,211.2,204.2 M210.7,202.7
			c0.1,0.1,0.3,0.1,0.5,0.1c0.2,0,0.4,0,0.5-0.1c0.1-0.1,0.2-0.1,0.3-0.2c0.1-0.1,0.1-0.2,0.2-0.4c0-0.1,0.1-0.3,0.1-0.4
			c0-0.1,0-0.3,0-0.5v-5c0-0.3,0-0.5,0-0.7c0-0.2-0.1-0.3-0.2-0.5c-0.1-0.2-0.2-0.3-0.3-0.4c-0.2-0.1-0.3-0.1-0.6-0.1
			c-0.2,0-0.4,0-0.6,0.1c-0.2,0.1-0.3,0.2-0.3,0.4c-0.1,0.2-0.1,0.3-0.1,0.5c0,0.2,0,0.4,0,0.7v5c0,0.2,0,0.4,0,0.5
			c0,0.2,0,0.3,0.1,0.4c0,0.2,0.1,0.3,0.2,0.4C210.4,202.5,210.5,202.6,210.7,202.7"/>
		<polygon class="st1" points="215.3,204.1 215.3,193.1 216.7,193.1 219.4,199.3 219.4,193.1 221,193.1 221,204.1 219.7,204.1 
			217,197.6 217,204.1 		"/>
		<polygon class="st1" points="225.1,193.1 225.1,204.1 229.7,204.1 229.7,202.7 227.1,202.7 227.1,193.1 		"/>
		<path class="st1" d="M229.8,204.1l2.2-11h2.1l2.2,11h-1.8l-0.4-2.5h-1.9l-0.4,2.5H229.8z M232.3,200.2h1.5l-0.7-4.5L232.3,200.2z"
			/>
		<polygon class="st1" points="236.9,204.1 236.9,193.1 238.3,193.1 240.9,199.3 240.9,193.1 242.6,193.1 242.6,204.1 241.3,204.1 
			238.6,197.6 238.6,204.1 		"/>
		<path class="st1" d="M243.8,204.1v-11h2.5c0.7,0,1.2,0.1,1.6,0.2c0.4,0.1,0.8,0.3,1.1,0.6c0.3,0.3,0.5,0.6,0.6,1.1
			c0.1,0.4,0.2,0.9,0.2,1.5v4c0,0.6-0.1,1.2-0.2,1.6c-0.1,0.4-0.3,0.8-0.6,1.1c-0.3,0.3-0.6,0.5-1,0.7c-0.4,0.1-1,0.2-1.6,0.2H243.8
			z M245.8,202.7h0.6c0.2,0,0.4,0,0.5-0.1c0.1,0,0.3-0.1,0.4-0.1c0.1,0,0.2-0.1,0.3-0.2c0.1-0.1,0.1-0.2,0.2-0.3
			c0-0.1,0.1-0.2,0.1-0.4c0-0.2,0-0.3,0-0.5c0-0.1,0-0.3,0-0.6v-4c0-0.3,0-0.5,0-0.6c0-0.2,0-0.3-0.1-0.5c0-0.2-0.1-0.3-0.1-0.4
			c-0.1-0.1-0.1-0.2-0.3-0.2c-0.1-0.1-0.2-0.1-0.4-0.2c-0.2,0-0.3,0-0.6,0h-0.5V202.7z"/>
		<path class="st1" d="M222.3,264c0.2,0,0.3,0.1,0.3,0.3v11c0,0.2-0.1,0.3-0.3,0.3h-4.4c-0.2,0-0.3-0.1-0.3-0.3v-11
			c0-0.2,0.1-0.3,0.3-0.3H222.3z"/>
		<path class="st1" d="M270.8,280.4h-72.7c-0.2,0-0.3,0.2-0.3,0.3v4.5c0,0.2,0.2,0.3,0.3,0.3h72.7c0.2,0,0.3-0.1,0.3-0.3v-4.5
			C271.1,280.6,271,280.4,270.8,280.4"/>
		<path class="st1" d="M270.8,289.3h-72.7c-0.2,0-0.3,0.1-0.3,0.3v4.5c0,0.2,0.2,0.3,0.3,0.3h72.7c0.2,0,0.3-0.2,0.3-0.3v-4.5
			C271.1,289.5,271,289.3,270.8,289.3"/>
		<path class="st1" d="M256.9,251.8c-0.9-0.7-3.3-2.4-6.3-2.4c-2.1,0-4.1,0.8-5.8,2.5c-0.1,0.1-0.2,0.3-0.2,0.5v0.4
			c0,0.2,0.1,0.4,0.2,0.5c0.2,0.1,0.3,0.2,0.5,0.1c0,0,0.1,0,0.1,0c0.1,0,0.3-0.1,0.4-0.2c0.4-0.3,1.4-0.6,2.9-0.6
			c1.5,0,4.6,0.4,7.5,3.2l0.1,0.1c0.2,0.2,0.4,0.3,0.6,0.3c0.2,0,0.5-0.1,0.6-0.3l0.1-0.1c2.9-2.8,6-3.2,7.5-3.2
			c1.5,0,2.5,0.4,2.9,0.6c0.1,0.1,0.2,0.2,0.4,0.2c0.1,0,0.3,0.1,0.4,0c0.3-0.1,0.5-0.3,0.5-0.6v-0.4c0-0.2-0.1-0.3-0.2-0.5
			c-1.8-1.7-3.8-2.6-5.9-2.6C260.3,249.4,257.9,251.1,256.9,251.8"/>
		<path class="st1" d="M252.4,222.6c-0.2,0.1-0.3,0.2-0.3,0.4l-0.1,0.2c0,0.2,0,0.4,0.1,0.6c0.1,0.1,0.3,0.2,0.4,0.2
			c0,0,0.1,0,0.1,0c0.1,0,0.2,0,0.4-0.1c0.1,0,0.2,0,0.4,0c0.3,0,3.3,0.1,5.2,3.4l0,0c0.1,0.2,0.3,0.3,0.5,0.4c0.1,0,0.2,0,0.2,0
			c0.1,0,0.3,0,0.4-0.1l0,0c1.1-0.5,2.2-0.8,3.2-0.8c1.8,0,3,0.8,3.3,1.1c0.1,0.1,0.1,0.2,0.2,0.3c0.1,0,0.2,0.1,0.2,0.1
			c0,0,0.1,0,0.1,0c0,0,0,0,0.1,0c0.1,0,0.2,0,0.3-0.1c0.1-0.1,0.3-0.2,0.3-0.4l0.1-0.2c0-0.1,0-0.1,0-0.2c0-0.1,0-0.2-0.1-0.3
			c-1.4-2.5-3.5-3-4.9-3c-1.1,0-2.1,0.3-2.6,0.5c-0.7-0.9-2.3-2.8-4.9-2.8C254.3,221.9,253.3,222.1,252.4,222.6"/>
		<path class="st1" d="M237.1,233.8l0,0.3c0,0.2,0.1,0.4,0.3,0.5c0.1,0.1,0.3,0.1,0.5,0.1c0,0,0.1,0,0.1,0c0.1,0,0.2-0.1,0.3-0.2
			c0.3-0.2,1.3-0.6,2.8-0.6c1.4,0,3.6,0.4,5.7,2.2l0,0.1c0.2,0.1,0.4,0.2,0.6,0.2h0.1c0.2,0,0.4-0.1,0.6-0.3l0-0.1
			c2.4-2.6,5-3,6.4-3c1,0,1.6,0.2,1.9,0.4c0.1,0.1,0.2,0.2,0.4,0.2c0,0,0.2,0,0.3,0c0,0,0.1,0,0.2,0c0.3-0.1,0.4-0.3,0.4-0.6l0-0.3
			c0-0.2-0.1-0.3-0.2-0.4c-1.4-1.2-3-1.8-4.7-1.8c-2.6,0-4.6,1.5-5.4,2.3c-0.8-0.5-2.6-1.6-4.9-1.6c-1.9,0-3.7,0.8-5.2,2.4
			C237.1,233.5,237.1,233.7,237.1,233.8"/>
		<path class="st1" d="M200.3,239.7c0-4.4,3.5-8,7.9-8c0.2,0,0.3,0,0.5,0c0.4-5.6,5-9.9,10.6-9.9c5.9,0,10.7,4.8,10.7,10.8
			c0,1.7-0.4,3.3-1.1,4.7c5.3,1.2,9.3,6,9.3,11.7c0,6.6-5.3,12-11.9,12c-0.5,0-15.9-0.1-15.9-0.1c-4.7,0-8.4-3.8-8.4-8.5
			c0-2.3,0.9-4.3,2.3-5.8C201.9,245.3,200.3,242.7,200.3,239.7"/>
	</g>
</g>
</svg>
