<?xml version="1.0" encoding="utf-8"?>
<!-- Generator: Adobe Illustrator 26.4.0, SVG Export Plug-In . SVG Version: 6.00 Build 0)  -->
<svg version="1.1" id="Layer_1" xmlns="http://www.w3.org/2000/svg" xmlns:xlink="http://www.w3.org/1999/xlink" x="0px" y="0px"
	 viewBox="0 0 141.9 150" style="enable-background:new 0 0 141.9 150;" xml:space="preserve">
<style type="text/css">
	.st0{fill:#901939;}
	.st1{fill:#FFFFFF;}
</style>
<g>
	<rect class="st0" width="141.9" height="150"/>
	<path class="st1" d="M11.1,33.4c0-1.6,0.3-3,0.8-4.2c0.5-1.2,1.3-2,2.4-2.6c-0.8-0.6-1.5-1.5-2-2.6c-0.5-1.1-0.8-2.4-0.8-3.9
		c0-2.4,0.6-4.2,1.8-5.5c1.2-1.3,2.9-2,5.1-2c2.2,0,3.9,0.6,5,1.9s1.7,3.1,1.7,5.4c0,1.6-0.2,2.9-0.7,4c-0.5,1.1-1.1,1.9-2,2.5
		c1,0.6,1.8,1.5,2.4,2.7c0.5,1.2,0.8,2.7,0.8,4.3c0,2.7-0.6,4.7-1.7,6.2c-1.2,1.5-3,2.2-5.5,2.2C13.5,42.1,11.1,39.2,11.1,33.4
		 M20.1,36.8c0.3-0.8,0.4-1.9,0.4-3.2c0-1.4-0.1-2.5-0.4-3.4c-0.3-0.8-0.9-1.2-1.8-1.2c-0.9,0-1.5,0.4-1.8,1.3
		c-0.3,0.8-0.4,1.9-0.4,3.3c0,1.3,0.1,2.3,0.4,3.2c0.3,0.8,0.9,1.3,1.8,1.3C19.2,38,19.8,37.6,20.1,36.8 M20.3,20.1
		c0-1-0.2-1.9-0.5-2.5c-0.3-0.6-0.8-0.9-1.4-0.9c-0.6,0-1.1,0.3-1.5,0.9c-0.3,0.6-0.5,1.4-0.5,2.5c0,2.9,0.7,4.4,2,4.4
		C19.6,24.6,20.3,23.1,20.3,20.1"/>
	<path class="st1" d="M35.8,24V13h2.4c0.6,0,1.1,0.1,1.6,0.2c0.4,0.1,0.8,0.3,1,0.6c0.3,0.3,0.4,0.6,0.5,1.1
		c0.1,0.4,0.2,0.9,0.2,1.5v3.9c0,0.6-0.1,1.2-0.2,1.6c-0.1,0.4-0.3,0.8-0.5,1.1s-0.6,0.5-1,0.7c-0.4,0.1-0.9,0.2-1.5,0.2H35.8z
		 M37.6,22.6h0.5c0.2,0,0.4,0,0.5-0.1c0.1,0,0.3-0.1,0.4-0.1c0.1,0,0.2-0.1,0.2-0.2c0.1-0.1,0.1-0.2,0.1-0.3c0-0.1,0.1-0.2,0.1-0.4
		c0-0.2,0-0.3,0-0.5c0-0.1,0-0.3,0-0.6v-4c0-0.3,0-0.5,0-0.6c0-0.2,0-0.3-0.1-0.5c0-0.2-0.1-0.3-0.1-0.4c-0.1-0.1-0.1-0.2-0.2-0.2
		c-0.1-0.1-0.2-0.1-0.4-0.1c-0.1,0-0.3,0-0.5,0h-0.5V22.6z"/>
	<polygon class="st1" points="42.5,13 42.5,24 46.9,24 46.9,22.6 44.4,22.6 44.4,19 46.3,19 46.3,17.6 44.4,17.6 44.4,14.4 
		46.8,14.4 46.8,13 	"/>
	<path class="st1" d="M50.4,24.1c-0.4,0-0.8-0.1-1.2-0.2c-0.3-0.1-0.6-0.3-0.8-0.5c-0.2-0.2-0.4-0.5-0.5-0.8c-0.1-0.3-0.2-0.6-0.3-1
		c-0.1-0.4-0.1-0.8-0.1-1.2v-3.8c0-0.5,0-0.9,0.1-1.3c0.1-0.4,0.2-0.7,0.3-1c0.1-0.3,0.3-0.6,0.5-0.8c0.2-0.2,0.5-0.4,0.8-0.5
		c0.3-0.1,0.7-0.2,1.2-0.2c0.5,0,1,0.1,1.3,0.2c0.4,0.1,0.7,0.4,0.9,0.6c0.2,0.3,0.4,0.6,0.5,1c0.1,0.4,0.1,0.8,0.1,1.3V17h-1.8
		v-0.9c0-0.5,0-0.9-0.1-1.1c-0.1-0.4-0.4-0.6-0.8-0.6h-0.1c-0.2,0-0.3,0-0.4,0.1c-0.1,0-0.2,0.1-0.3,0.2c-0.1,0.1-0.1,0.2-0.2,0.3
		c0,0.1-0.1,0.2-0.1,0.4c0,0.2,0,0.3,0,0.4c0,0.1,0,0.3,0,0.5v4.6c0,0.6,0.1,1.1,0.2,1.4c0.2,0.3,0.4,0.4,0.8,0.4
		c0.1,0,0.3,0,0.4-0.1c0.1,0,0.2-0.1,0.3-0.1c0.1-0.1,0.1-0.1,0.2-0.2c0-0.1,0.1-0.2,0.1-0.3c0-0.1,0-0.2,0.1-0.3c0-0.1,0-0.3,0-0.4
		c0-0.1,0-0.2,0-0.4v-1h1.8v0.9c0,0.4,0,0.8-0.1,1.1c-0.1,0.3-0.1,0.6-0.3,0.9c-0.1,0.3-0.3,0.5-0.5,0.7c-0.2,0.2-0.5,0.3-0.8,0.4
		C51.2,24,50.8,24.1,50.4,24.1"/>
	<polygon class="st1" points="54.1,13 54.1,24 58.5,24 58.5,22.6 56,22.6 56,19 58,19 58,17.6 56,17.6 56,14.4 58.5,14.4 58.5,13 	
		"/>
	<polygon class="st1" points="59.3,24 59.3,13 60.6,13 63.1,19.2 63.1,13 64.7,13 64.7,24 63.4,24 60.9,17.5 60.9,24 	"/>
	<polygon class="st1" points="66.9,24 66.9,14.5 65.1,14.5 65.1,13 70.4,13 70.4,14.5 68.8,14.5 68.8,24 	"/>
	<polygon class="st1" points="74.8,24 73.4,13 74.9,13 75.8,20.1 76.9,13 78.2,13 79.3,20.1 80.1,13 81.7,13 80.2,24 78.7,24 
		77.5,16.7 76.4,24 	"/>
	<path class="st1" d="M85.3,24.1c-1.1,0-1.8-0.3-2.3-0.9c-0.5-0.6-0.7-1.5-0.7-2.7v-4c0-0.6,0.1-1.1,0.2-1.5
		c0.1-0.4,0.3-0.8,0.5-1.1c0.2-0.3,0.5-0.5,0.9-0.7c0.4-0.2,0.9-0.2,1.4-0.2c1.1,0,1.8,0.3,2.3,0.9c0.5,0.6,0.7,1.5,0.7,2.7v4
		c0,0.6-0.1,1.1-0.2,1.5c-0.1,0.4-0.3,0.8-0.5,1.1c-0.2,0.3-0.5,0.6-0.9,0.7C86.3,24,85.8,24.1,85.3,24.1 M84.8,22.5
		c0.1,0.1,0.3,0.1,0.5,0.1c0.2,0,0.3,0,0.5-0.1c0.1-0.1,0.2-0.1,0.3-0.2c0.1-0.1,0.1-0.2,0.2-0.4c0-0.1,0.1-0.3,0.1-0.4
		c0-0.1,0-0.3,0-0.5v-5c0-0.3,0-0.5,0-0.7c0-0.2-0.1-0.3-0.1-0.5c-0.1-0.2-0.2-0.3-0.3-0.4c-0.1-0.1-0.3-0.1-0.6-0.1
		c-0.2,0-0.4,0-0.6,0.1c-0.1,0.1-0.3,0.2-0.3,0.4c-0.1,0.2-0.1,0.3-0.1,0.5c0,0.2,0,0.4,0,0.7v5c0,0.2,0,0.4,0,0.5
		c0,0.1,0,0.3,0.1,0.4c0,0.1,0.1,0.3,0.2,0.4C84.6,22.4,84.7,22.5,84.8,22.5"/>
	<path class="st1" d="M89.3,24V13h2.4c0.5,0,1,0.1,1.4,0.1c0.4,0.1,0.7,0.3,1,0.5c0.3,0.2,0.5,0.5,0.6,0.9c0.1,0.4,0.2,0.8,0.2,1.4
		c0,0.7-0.1,1.2-0.3,1.7c-0.2,0.4-0.5,0.8-1,0.9l1.4,5.4h-1.9L92,19h-0.8v5H89.3z M91.2,17.7h0.5c0.6,0,1-0.1,1.2-0.4
		c0.2-0.2,0.4-0.7,0.4-1.3c0-0.6-0.1-1-0.3-1.3c-0.2-0.3-0.6-0.4-1.1-0.4h-0.6V17.7z"/>
	<polygon class="st1" points="96.1,24 96.1,13 97.9,13 97.9,17.8 100,13 101.8,13 99.8,17.9 102,24 100.1,24 98.3,18.8 97.9,19.5 
		97.9,24 	"/>
	<path class="st1" d="M104.7,24l2.1-10.9h2l2.1,10.9h-1.8l-0.4-2.5h-1.8l-0.4,2.5H104.7z M107.1,20.1h1.4l-0.7-4.5L107.1,20.1z"/>
	<polygon class="st1" points="111.6,24 111.6,13 112.9,13 115.4,19.2 115.4,13 117,13 117,24 115.7,24 113.2,17.5 113.2,24 	"/>
	<path class="st1" d="M118.2,24V13h2.4c0.6,0,1.1,0.1,1.6,0.2c0.4,0.1,0.8,0.3,1,0.6c0.3,0.3,0.4,0.6,0.5,1.1
		c0.1,0.4,0.2,0.9,0.2,1.5v3.9c0,0.6-0.1,1.2-0.2,1.6c-0.1,0.4-0.3,0.8-0.5,1.1s-0.6,0.5-1,0.7c-0.4,0.1-0.9,0.2-1.5,0.2H118.2z
		 M120.1,22.6h0.5c0.2,0,0.4,0,0.5-0.1c0.1,0,0.3-0.1,0.4-0.1c0.1,0,0.2-0.1,0.2-0.2c0.1-0.1,0.1-0.2,0.1-0.3c0-0.1,0.1-0.2,0.1-0.4
		c0-0.2,0-0.3,0-0.5c0-0.1,0-0.3,0-0.6v-4c0-0.3,0-0.5,0-0.6c0-0.2,0-0.3-0.1-0.5c0-0.2-0.1-0.3-0.1-0.4c-0.1-0.1-0.1-0.2-0.2-0.2
		c-0.1-0.1-0.2-0.1-0.4-0.1c-0.1,0-0.3,0-0.5,0h-0.5V22.6z"/>
	<polygon class="st1" points="35.8,30.9 35.8,41.8 40.1,41.8 40.1,40.4 37.6,40.4 37.6,36.8 39.6,36.8 39.6,35.4 37.6,35.4 
		37.6,32.3 40.1,32.3 40.1,30.9 	"/>
	<path class="st1" d="M43.7,42c-0.4,0-0.8-0.1-1.2-0.2c-0.3-0.1-0.6-0.3-0.8-0.5c-0.2-0.2-0.4-0.5-0.5-0.8c-0.1-0.3-0.2-0.6-0.3-1
		c-0.1-0.4-0.1-0.8-0.1-1.2v-3.8c0-0.5,0-0.9,0.1-1.3c0.1-0.4,0.2-0.7,0.3-1c0.1-0.3,0.3-0.6,0.5-0.8c0.2-0.2,0.5-0.4,0.8-0.5
		c0.3-0.1,0.7-0.2,1.2-0.2c0.5,0,1,0.1,1.3,0.2c0.4,0.1,0.7,0.4,0.9,0.6c0.2,0.3,0.4,0.6,0.5,1c0.1,0.4,0.1,0.8,0.1,1.3v0.9h-1.8
		v-0.9c0-0.5,0-0.9-0.1-1.1c-0.1-0.4-0.4-0.6-0.8-0.6h-0.1c-0.2,0-0.3,0-0.4,0.1c-0.1,0-0.2,0.1-0.3,0.2c-0.1,0.1-0.1,0.2-0.2,0.3
		c0,0.1-0.1,0.2-0.1,0.4c0,0.2,0,0.3,0,0.4c0,0.1,0,0.3,0,0.5v4.6c0,0.6,0.1,1.1,0.2,1.4c0.2,0.3,0.4,0.4,0.8,0.4
		c0.1,0,0.3,0,0.4-0.1c0.1,0,0.2-0.1,0.3-0.1c0.1-0.1,0.1-0.1,0.2-0.2c0-0.1,0.1-0.2,0.1-0.3c0-0.1,0-0.2,0.1-0.3c0-0.1,0-0.3,0-0.4
		c0-0.1,0-0.2,0-0.4v-1h1.8v0.9c0,0.4,0,0.8-0.1,1.1c-0.1,0.3-0.1,0.6-0.3,0.9c-0.1,0.3-0.3,0.5-0.5,0.7c-0.2,0.2-0.5,0.3-0.8,0.4
		C44.5,41.9,44.2,42,43.7,42"/>
	<path class="st1" d="M50.4,42c-1.1,0-1.8-0.3-2.3-0.9c-0.5-0.6-0.7-1.5-0.7-2.7v-4c0-0.6,0.1-1.1,0.2-1.5c0.1-0.4,0.3-0.8,0.5-1.1
		c0.2-0.3,0.5-0.5,0.9-0.7c0.4-0.2,0.9-0.2,1.4-0.2c1.1,0,1.8,0.3,2.3,0.9c0.5,0.6,0.7,1.5,0.7,2.7v4c0,0.6-0.1,1.1-0.2,1.5
		c-0.1,0.4-0.3,0.8-0.5,1.1c-0.2,0.3-0.5,0.6-0.9,0.7C51.4,41.9,50.9,42,50.4,42 M49.9,40.4c0.1,0.1,0.3,0.1,0.5,0.1
		c0.2,0,0.3,0,0.5-0.1c0.1-0.1,0.2-0.1,0.3-0.2c0.1-0.1,0.1-0.2,0.2-0.4c0-0.1,0.1-0.3,0.1-0.4c0-0.1,0-0.3,0-0.5v-5
		c0-0.3,0-0.5,0-0.7c0-0.2-0.1-0.3-0.1-0.5c-0.1-0.2-0.2-0.3-0.3-0.4c-0.1-0.1-0.3-0.1-0.6-0.1c-0.2,0-0.4,0-0.6,0.1
		c-0.1,0.1-0.3,0.2-0.3,0.4c-0.1,0.2-0.1,0.3-0.1,0.5c0,0.2,0,0.4,0,0.7v5c0,0.2,0,0.4,0,0.5c0,0.1,0,0.3,0.1,0.4
		c0,0.1,0.1,0.3,0.2,0.4C49.7,40.3,49.8,40.3,49.9,40.4"/>
	<polygon class="st1" points="54.5,41.8 54.5,30.9 55.8,30.9 58.3,37.1 58.3,30.9 59.9,30.9 59.9,41.8 58.6,41.8 56.1,35.3 
		56.1,41.8 	"/>
	<path class="st1" d="M64,42c-1.1,0-1.8-0.3-2.3-0.9c-0.5-0.6-0.7-1.5-0.7-2.7v-4c0-0.6,0.1-1.1,0.2-1.5c0.1-0.4,0.3-0.8,0.5-1.1
		c0.2-0.3,0.5-0.5,0.9-0.7c0.4-0.2,0.9-0.2,1.4-0.2c1.1,0,1.8,0.3,2.3,0.9c0.5,0.6,0.7,1.5,0.7,2.7v4c0,0.6-0.1,1.1-0.2,1.5
		c-0.1,0.4-0.3,0.8-0.5,1.1c-0.2,0.3-0.5,0.6-0.9,0.7C65,41.9,64.5,42,64,42 M63.5,40.4c0.1,0.1,0.3,0.1,0.5,0.1
		c0.2,0,0.3,0,0.5-0.1c0.1-0.1,0.2-0.1,0.3-0.2c0.1-0.1,0.1-0.2,0.2-0.4c0-0.1,0.1-0.3,0.1-0.4c0-0.1,0-0.3,0-0.5v-5
		c0-0.3,0-0.5,0-0.7c0-0.2-0.1-0.3-0.1-0.5c-0.1-0.2-0.2-0.3-0.3-0.4c-0.1-0.1-0.3-0.1-0.6-0.1c-0.2,0-0.4,0-0.6,0.1
		c-0.1,0.1-0.3,0.2-0.3,0.4C63,32.9,63,33,62.9,33.2c0,0.2,0,0.4,0,0.7v5c0,0.2,0,0.4,0,0.5c0,0.1,0,0.3,0.1,0.4
		c0,0.1,0.1,0.3,0.2,0.4C63.3,40.3,63.4,40.3,63.5,40.4"/>
	<polygon class="st1" points="68.1,41.8 68.2,30.9 70.2,30.9 71.7,38.6 73.2,30.9 75.1,30.9 75.3,41.8 73.8,41.8 73.7,34.3 
		72.2,41.8 71.1,41.8 69.6,34.3 69.5,41.8 	"/>
	<rect x="76.6" y="30.9" class="st1" width="1.9" height="10.9"/>
	<path class="st1" d="M82.6,42c-0.4,0-0.8-0.1-1.2-0.2c-0.3-0.1-0.6-0.3-0.8-0.5c-0.2-0.2-0.4-0.5-0.5-0.8c-0.1-0.3-0.2-0.6-0.3-1
		c-0.1-0.4-0.1-0.8-0.1-1.2v-3.8c0-0.5,0-0.9,0.1-1.3c0.1-0.4,0.2-0.7,0.3-1c0.1-0.3,0.3-0.6,0.5-0.8c0.2-0.2,0.5-0.4,0.8-0.5
		c0.3-0.1,0.7-0.2,1.2-0.2c0.5,0,1,0.1,1.3,0.2c0.4,0.1,0.7,0.4,0.9,0.6c0.2,0.3,0.4,0.6,0.5,1c0.1,0.4,0.1,0.8,0.1,1.3v0.9h-1.8
		v-0.9c0-0.5,0-0.9-0.1-1.1c-0.1-0.4-0.4-0.6-0.8-0.6h-0.1c-0.2,0-0.3,0-0.4,0.1c-0.1,0-0.2,0.1-0.3,0.2c-0.1,0.1-0.1,0.2-0.2,0.3
		c0,0.1-0.1,0.2-0.1,0.4c0,0.2,0,0.3,0,0.4c0,0.1,0,0.3,0,0.5v4.6c0,0.6,0.1,1.1,0.2,1.4c0.2,0.3,0.4,0.4,0.8,0.4
		c0.1,0,0.3,0,0.4-0.1c0.1,0,0.2-0.1,0.3-0.1c0.1-0.1,0.1-0.1,0.2-0.2c0-0.1,0.1-0.2,0.1-0.3c0-0.1,0-0.2,0.1-0.3c0-0.1,0-0.3,0-0.4
		c0-0.1,0-0.2,0-0.4v-1h1.8v0.9c0,0.4,0,0.8-0.1,1.1c-0.1,0.3-0.1,0.6-0.3,0.9c-0.1,0.3-0.3,0.5-0.5,0.7c-0.2,0.2-0.5,0.3-0.8,0.4
		C83.4,41.9,83,42,82.6,42"/>
	<path class="st1" d="M91.9,42c-1,0-1.7-0.3-2.1-1c-0.4-0.6-0.6-1.6-0.6-2.8v-3.6c0-0.6,0-1.2,0.1-1.6c0.1-0.5,0.3-0.9,0.5-1.2
		c0.2-0.3,0.5-0.6,0.9-0.8c0.4-0.2,0.9-0.3,1.4-0.3c1,0,1.8,0.3,2.2,0.8c0.4,0.5,0.7,1.3,0.7,2.4v0.5h-1.8v-0.6c0-0.2,0-0.4,0-0.6
		c0-0.2,0-0.3-0.1-0.5c0-0.2-0.1-0.3-0.2-0.4c-0.1-0.1-0.2-0.1-0.3-0.2c-0.1-0.1-0.3-0.1-0.5-0.1c-0.1,0-0.3,0-0.4,0.1
		c-0.1,0-0.2,0.1-0.3,0.1c-0.1,0.1-0.1,0.1-0.2,0.2c-0.1,0.1-0.1,0.2-0.1,0.3c0,0.1,0,0.2-0.1,0.4c0,0.1,0,0.3,0,0.4
		c0,0.1,0,0.3,0,0.4v4.4c0,0.7,0.1,1.1,0.2,1.4c0.2,0.3,0.4,0.5,0.9,0.5c0.2,0,0.4,0,0.6-0.1c0.2-0.1,0.3-0.2,0.4-0.4
		c0.1-0.2,0.1-0.4,0.2-0.6c0-0.2,0.1-0.5,0.1-0.9v-0.9h-1.1v-1.3H95v5.6h-1.2l-0.1-1.1C93.3,41.6,92.7,42,91.9,42"/>
	<path class="st1" d="M96.1,41.8V30.9h2.4c0.5,0,1,0.1,1.4,0.1c0.4,0.1,0.7,0.3,1,0.5c0.3,0.2,0.5,0.5,0.6,0.9
		c0.1,0.4,0.2,0.8,0.2,1.4c0,0.7-0.1,1.2-0.3,1.7c-0.2,0.4-0.5,0.8-1,0.9l1.4,5.4h-1.9l-1.2-5H98v5H96.1z M98,35.6h0.5
		c0.6,0,1-0.1,1.2-0.4c0.2-0.2,0.4-0.7,0.4-1.3c0-0.6-0.1-1-0.3-1.3c-0.2-0.3-0.6-0.4-1.1-0.4H98V35.6z"/>
	<path class="st1" d="M105.8,42c-1.1,0-1.8-0.3-2.3-0.9c-0.5-0.6-0.7-1.5-0.7-2.7v-4c0-0.6,0.1-1.1,0.2-1.5c0.1-0.4,0.3-0.8,0.5-1.1
		c0.2-0.3,0.5-0.5,0.9-0.7c0.4-0.2,0.9-0.2,1.4-0.2c1.1,0,1.8,0.3,2.3,0.9c0.5,0.6,0.7,1.5,0.7,2.7v4c0,0.6-0.1,1.1-0.2,1.5
		c-0.1,0.4-0.3,0.8-0.5,1.1c-0.2,0.3-0.5,0.6-0.9,0.7C106.8,41.9,106.3,42,105.8,42 M105.3,40.4c0.1,0.1,0.3,0.1,0.5,0.1
		c0.2,0,0.3,0,0.5-0.1c0.1-0.1,0.2-0.1,0.3-0.2c0.1-0.1,0.1-0.2,0.2-0.4c0-0.1,0.1-0.3,0.1-0.4c0-0.1,0-0.3,0-0.5v-5
		c0-0.3,0-0.5,0-0.7c0-0.2-0.1-0.3-0.1-0.5c-0.1-0.2-0.2-0.3-0.3-0.4c-0.1-0.1-0.3-0.1-0.6-0.1c-0.2,0-0.4,0-0.6,0.1
		c-0.1,0.1-0.3,0.2-0.3,0.4c-0.1,0.2-0.1,0.3-0.1,0.5c0,0.2,0,0.4,0,0.7v5c0,0.2,0,0.4,0,0.5c0,0.1,0,0.3,0.1,0.4
		c0,0.1,0.1,0.3,0.2,0.4C105.1,40.3,105.2,40.3,105.3,40.4"/>
	<polygon class="st1" points="111,41.8 109.5,30.9 111.1,30.9 112,37.9 113.1,30.9 114.3,30.9 115.5,37.9 116.3,30.9 117.9,30.9 
		116.4,41.8 114.9,41.8 113.7,34.5 112.5,41.8 	"/>
	<polygon class="st1" points="119.8,41.8 119.8,32.4 118.1,32.4 118.1,30.9 123.4,30.9 123.4,32.4 121.7,32.4 121.7,41.8 	"/>
	<polygon class="st1" points="123.9,41.8 123.9,30.9 125.8,30.9 125.8,35.5 127.9,35.5 127.9,30.9 129.8,30.9 129.8,41.8 
		127.9,41.8 127.9,36.9 125.8,36.9 125.8,41.8 	"/>
	<path class="st1" d="M98,73.8L83.5,88.4c-0.6,0.6-0.8,1-0.8,2.2v40.8c0,0.5,0.4,0.9,0.8,0.9h15c0.5,0,0.8-0.4,0.8-0.9V74.2
		C99.3,73.7,98.9,72.8,98,73.8"/>
	<path class="st1" d="M56.3,92.8l-14.5,14.6c-0.5,0.6-0.8,1-0.8,2.2v21.9c0,0.5,0.4,0.9,0.8,0.9h15c0.5,0,0.8-0.4,0.8-0.9V93.1
		C57.6,92.7,57.2,91.8,56.3,92.8"/>
	<path class="st1" d="M104.6,56.1c0-0.1,0-0.2-0.1-0.3c-0.1-0.1-0.2-0.1-0.3-0.1h-0.1l-0.1,0l-11.1,2.6l-0.2,0
		c-0.1,0-0.2,0.1-0.2,0.1c-0.2,0.2-0.2,0.5,0,0.6l0.1,0.1l2.5,2.7L70,88.5L58.4,76.2c-0.1-0.1-0.3-0.1-0.5,0l-3.1,3.3c0,0,0,0,0,0
		L36.2,99.2c-0.1,0.1-0.1,0.4,0,0.5l3.2,3.3c0.1,0.1,0.3,0.1,0.5,0l18.4-19.4l8.4,8.9c0,0,0,0,0,0l3.1,3.3c0.1,0.1,0.3,0.1,0.5,0
		l28.5-30.2l2.7,2.8c0.2,0.2,0.4,0.2,0.6,0c0.1-0.1,0.1-0.2,0.1-0.3v0l2.4-12L104.6,56.1z"/>
	<path class="st1" d="M77.2,95.3l-7,7.5c-0.1,0.1-0.3,0.1-0.5,0l-6.3-6.8c-1.2-1.2-1.4-0.2-1.4,0.2v35.2c0,0.5,0.4,0.9,0.8,0.9h15
		c0.4,0,0.8-0.4,0.8-0.9V95.6C78.6,95.1,78.2,94.2,77.2,95.3"/>
</g>
</svg>
