<?xml version="1.0" encoding="utf-8"?>
<!-- Generator: Adobe Illustrator 26.4.0, SVG Export Plug-In . SVG Version: 6.00 Build 0)  -->
<svg version="1.1" id="Layer_1" xmlns="http://www.w3.org/2000/svg" xmlns:xlink="http://www.w3.org/1999/xlink" x="0px" y="0px"
	 viewBox="0 0 595.3 326.8" style="enable-background:new 0 0 595.3 326.8;" xml:space="preserve">
<style type="text/css">
	.st0{fill:#E0F3FD;}
	.st1{fill:none;stroke:#25408F;stroke-width:0.905;stroke-miterlimit:10;}
	.st2{fill:none;stroke:#25408F;stroke-width:1.811;stroke-miterlimit:10;}
	.st3{fill:none;stroke:#25408F;stroke-miterlimit:10;}
	.st4{fill:none;stroke:#72BF44;stroke-miterlimit:10;}
</style>
<g>
	<path class="st0" d="M19.4,0C9.8,0,2.1,7.7,2.1,17.3v292.2c0,9.6,7.7,17.3,17.3,17.3h556.5c9.6,0,17.3-7.7,17.3-17.3V17.3
		c0-9.6-7.7-17.3-17.3-17.3H19.4z"/>
	<line class="st1" x1="123.4" y1="250.2" x2="123.4" y2="257.1"/>
	<line class="st1" x1="93.5" y1="251.7" x2="92" y2="255"/>
	<line class="st1" x1="99.9" y1="251.7" x2="97.9" y2="256"/>
	<line class="st1" x1="106.2" y1="251.7" x2="103.7" y2="257.4"/>
	<polyline class="st1" points="131.4,270.9 134.4,270.9 134.4,265.5 133,265.5 133,257.4 124,257.4 	"/>
	<line class="st1" x1="124" y1="257.4" x2="115.4" y2="257.4"/>
	<polyline class="st1" points="131.6,257.1 129.6,250.2 122.8,250.2 119.4,257.1 	"/>
	<line class="st1" x1="114.9" y1="270.9" x2="104" y2="270.9"/>
	<path class="st1" d="M115.4,269.8c0,4.4,3.5,8,7.9,8c4.4,0,7.9-3.6,7.9-8s-3.5-8-7.9-8C118.9,261.8,115.4,265.4,115.4,269.8z"/>
	<ellipse class="st1" cx="123.3" cy="269.8" rx="3.7" ry="3.8"/>
	<path class="st1" d="M88.3,269.8c0,4.4,3.5,8,7.9,8c4.4,0,7.9-3.6,7.9-8s-3.5-8-7.9-8C91.8,261.8,88.3,265.4,88.3,269.8z"/>
	<ellipse class="st1" cx="96.2" cy="269.8" rx="3.7" ry="3.8"/>
	<polygon class="st1" points="131.9,247.7 120.6,247.7 110.8,266 86.1,257.7 86.8,248.2 113.8,248.2 118.1,243.7 131.9,243.7 	"/>
	<g>
		<path d="M30.7,102.6v-6.1h4v0.7h-3.2v2h3.2v0.7h-3.2v2.1h3.2v0.7H30.7z"/>
		<path d="M40.1,102.6l-2-2.6l-2,2.6h-0.9l2.4-3.1l-2.2-3h0.9l1.8,2.4l1.8-2.4h0.9l-2.2,3l2.4,3.1H40.1z"/>
		<path d="M41.8,102.6v-6.1h2.5c1.2,0,1.9,0.8,1.9,1.8c0,1-0.7,1.8-1.9,1.8h-1.7v2.4H41.8z M45.4,98.3c0-0.7-0.5-1.2-1.2-1.2h-1.6
			v2.3h1.6C44.9,99.5,45.4,99,45.4,98.3z"/>
		<path d="M47.2,102.6v-6.1H48v5.4h2.8v0.7H47.2z"/>
		<path d="M51.4,99.5c0-1.8,1.2-3.2,3-3.2c1.8,0,3,1.4,3,3.2s-1.2,3.2-3,3.2C52.6,102.7,51.4,101.3,51.4,99.5z M56.6,99.5
			c0-1.4-0.9-2.5-2.2-2.5c-1.4,0-2.2,1.1-2.2,2.5c0,1.4,0.9,2.5,2.2,2.5C55.7,102,56.6,101,56.6,99.5z"/>
		<path d="M62.1,102.6l-1.6-2.4h-1.2v2.4h-0.8v-6.1h2.5c1.1,0,1.9,0.7,1.9,1.8c0,1.1-0.8,1.7-1.6,1.8l1.6,2.5H62.1z M62.2,98.3
			c0-0.7-0.5-1.2-1.2-1.2h-1.6v2.3H61C61.7,99.5,62.2,99,62.2,98.3z"/>
		<path d="M68.5,102.6l-0.5-1.4h-3l-0.5,1.4h-0.9l2.5-6.1h0.9l2.5,6.1H68.5z M66.5,97.3l-1.3,3.3h2.6L66.5,97.3z"/>
		<path d="M71.1,102.6v-5.4h-1.9v-0.7h4.6v0.7h-1.9v5.4H71.1z"/>
		<path d="M74.8,102.6v-6.1h0.8v6.1H74.8z"/>
		<path d="M76.7,99.5c0-1.8,1.2-3.2,3-3.2c1.8,0,3,1.4,3,3.2s-1.2,3.2-3,3.2C78,102.7,76.7,101.3,76.7,99.5z M82,99.5
			c0-1.4-0.9-2.5-2.2-2.5c-1.4,0-2.2,1.1-2.2,2.5c0,1.4,0.9,2.5,2.2,2.5C81.1,102,82,101,82,99.5z"/>
		<path d="M88.3,102.6l-3.6-4.9v4.9H84v-6.1h0.8l3.5,4.8v-4.8h0.8v6.1H88.3z"/>
	</g>
	<g>
		<path d="M158.4,101.7v-5l-2.1,5H156l-2.1-5v5h-0.8v-6.1h1.1l1.9,4.6l1.9-4.6h1.1v6.1H158.4z"/>
		<path d="M160.6,101.7v-6.1h0.8v6.1H160.6z"/>
		<path d="M167.1,101.7l-3.6-4.9v4.9h-0.8v-6.1h0.8l3.5,4.8v-4.8h0.8v6.1H167.1z"/>
		<path d="M169.3,101.7v-6.1h0.8v6.1H169.3z"/>
		<path d="M175.8,101.7l-3.6-4.9v4.9h-0.8v-6.1h0.8l3.5,4.8v-4.8h0.8v6.1H175.8z"/>
		<path d="M177.7,98.6c0-1.9,1.4-3.2,3.1-3.2c1.1,0,1.8,0.5,2.4,1.1l-0.6,0.4c-0.4-0.5-1-0.8-1.8-0.8c-1.3,0-2.4,1-2.4,2.5
			c0,1.4,1,2.5,2.4,2.5c0.7,0,1.3-0.4,1.6-0.7v-1.2h-2.1v-0.7h2.9v2.2c-0.6,0.6-1.4,1.1-2.4,1.1C179.1,101.8,177.7,100.5,177.7,98.6
			z"/>
	</g>
	<g>
		<path d="M246.9,97.1V91h0.8v6.1H246.9z"/>
		<path d="M253.5,97.1l-3.6-4.9v4.9h-0.8V91h0.8l3.5,4.8V91h0.8v6.1H253.5z"/>
		<path d="M255.6,97.1V91h2.7c1.1,0,1.7,0.6,1.7,1.6c0,0.8-0.5,1.3-1.1,1.4c0.7,0.1,1.2,0.8,1.2,1.5c0,1-0.7,1.6-1.8,1.6H255.6z
			 M259.3,92.6c0-0.5-0.4-1-1.1-1h-1.8v2h1.8C258.9,93.6,259.3,93.2,259.3,92.6z M259.4,95.3c0-0.6-0.4-1.1-1.1-1.1h-1.9v2.1h1.9
			C259,96.4,259.4,96,259.4,95.3z"/>
		<path d="M261.1,94c0-1.8,1.2-3.2,3-3.2c1.8,0,3,1.4,3,3.2s-1.2,3.2-3,3.2C262.3,97.2,261.1,95.8,261.1,94z M266.4,94
			c0-1.4-0.9-2.5-2.2-2.5c-1.4,0-2.2,1.1-2.2,2.5c0,1.4,0.9,2.5,2.2,2.5C265.5,96.5,266.4,95.4,266.4,94z"/>
		<path d="M268.4,94.7V91h0.8v3.7c0,1.1,0.6,1.8,1.7,1.8c1.1,0,1.7-0.7,1.7-1.8V91h0.8v3.7c0,1.5-0.8,2.5-2.5,2.5
			C269.2,97.2,268.4,96.2,268.4,94.7z"/>
		<path d="M279.1,97.1l-3.6-4.9v4.9h-0.8V91h0.8l3.5,4.8V91h0.8v6.1H279.1z"/>
		<path d="M281.3,97.1V91h2.1c1.9,0,3.1,1.3,3.1,3.1c0,1.7-1.2,3-3.1,3H281.3z M285.7,94c0-1.3-0.8-2.4-2.3-2.4H282v4.8h1.3
			C284.8,96.4,285.7,95.3,285.7,94z"/>
	</g>
	<g>
		<path d="M245.2,108.1v-6.1h0.8v5.4h2.8v0.7H245.2z"/>
		<path d="M249.3,105c0-1.8,1.2-3.2,3-3.2c1.8,0,3,1.4,3,3.2c0,1.8-1.2,3.2-3,3.2C250.5,108.2,249.3,106.8,249.3,105z M254.6,105
			c0-1.4-0.9-2.5-2.2-2.5c-1.4,0-2.2,1.1-2.2,2.5c0,1.4,0.9,2.5,2.2,2.5C253.7,107.5,254.6,106.4,254.6,105z"/>
		<path d="M256.3,105c0-1.9,1.4-3.2,3.1-3.2c1.1,0,1.8,0.5,2.4,1.1l-0.6,0.4c-0.4-0.5-1-0.8-1.8-0.8c-1.3,0-2.4,1-2.4,2.5
			c0,1.4,1,2.5,2.4,2.5c0.7,0,1.3-0.4,1.6-0.7v-1.2H259v-0.7h2.9v2.2c-0.6,0.6-1.4,1.1-2.4,1.1C257.7,108.2,256.3,106.9,256.3,105z"
			/>
		<path d="M263.1,108.1v-6.1h0.8v6.1H263.1z"/>
		<path d="M264.9,107.2l0.4-0.6c0.4,0.4,1.1,0.9,1.9,0.9c1.1,0,1.4-0.6,1.4-1.1c0-1.6-3.6-0.7-3.6-2.9c0-1,0.9-1.7,2.1-1.7
			c0.9,0,1.7,0.3,2.2,0.9l-0.5,0.6c-0.5-0.5-1.1-0.7-1.8-0.7c-0.7,0-1.3,0.4-1.3,1c0,1.4,3.6,0.6,3.6,2.9c0,0.9-0.6,1.8-2.3,1.8
			C266.2,108.2,265.4,107.8,264.9,107.2z"/>
		<path d="M272.1,108.1v-5.4h-1.9v-0.7h4.6v0.7h-1.9v5.4H272.1z"/>
		<path d="M275.8,108.1v-6.1h0.8v6.1H275.8z"/>
		<path d="M277.7,105c0-1.9,1.4-3.2,3.1-3.2c1.1,0,1.8,0.5,2.3,1.2l-0.6,0.4c-0.3-0.5-1-0.9-1.7-0.9c-1.3,0-2.4,1-2.4,2.5
			c0,1.4,1,2.5,2.4,2.5c0.7,0,1.3-0.4,1.7-0.9l0.7,0.4c-0.5,0.7-1.2,1.2-2.3,1.2C279.1,108.2,277.7,106.9,277.7,105z"/>
		<path d="M283.8,107.2l0.4-0.6c0.4,0.4,1.1,0.9,1.9,0.9c1.1,0,1.4-0.6,1.4-1.1c0-1.6-3.6-0.7-3.6-2.9c0-1,0.9-1.7,2.1-1.7
			c0.9,0,1.7,0.3,2.2,0.9l-0.5,0.6c-0.5-0.5-1.1-0.7-1.8-0.7c-0.7,0-1.3,0.4-1.3,1c0,1.4,3.6,0.6,3.6,2.9c0,0.9-0.6,1.8-2.3,1.8
			C285.1,108.2,284.3,107.8,283.8,107.2z"/>
	</g>
	<g>
		<path d="M199.1,198c0-1.9,1.4-3.2,3.1-3.2c1.1,0,1.8,0.5,2.3,1.2l-0.6,0.4c-0.3-0.5-1-0.9-1.7-0.9c-1.3,0-2.4,1-2.4,2.5
			c0,1.4,1,2.5,2.4,2.5c0.7,0,1.3-0.4,1.7-0.9l0.7,0.4c-0.5,0.7-1.2,1.2-2.3,1.2C200.5,201.2,199.1,199.9,199.1,198z"/>
		<path d="M205.3,198c0-1.8,1.2-3.2,3-3.2c1.8,0,3,1.4,3,3.2c0,1.8-1.2,3.2-3,3.2C206.5,201.2,205.3,199.8,205.3,198z M210.5,198
			c0-1.4-0.9-2.5-2.2-2.5c-1.4,0-2.2,1.1-2.2,2.5c0,1.4,0.9,2.5,2.2,2.5C209.7,200.5,210.5,199.5,210.5,198z"/>
		<path d="M216.8,201.1l-3.6-4.9v4.9h-0.8V195h0.8l3.5,4.8V195h0.8v6.1H216.8z"/>
		<path d="M218.6,200.2l0.4-0.6c0.4,0.4,1.1,0.9,1.9,0.9c1.1,0,1.4-0.6,1.4-1.1c0-1.6-3.6-0.7-3.6-2.9c0-1,0.9-1.7,2.1-1.7
			c0.9,0,1.7,0.3,2.2,0.9l-0.5,0.6c-0.5-0.5-1.1-0.7-1.8-0.7c-0.7,0-1.3,0.4-1.3,1c0,1.4,3.6,0.6,3.6,2.9c0,0.9-0.6,1.8-2.3,1.8
			C219.9,201.2,219.1,200.8,218.6,200.2z"/>
		<path d="M224.4,198.7V195h0.8v3.7c0,1.1,0.6,1.8,1.7,1.8c1.1,0,1.7-0.7,1.7-1.8V195h0.8v3.7c0,1.5-0.8,2.5-2.5,2.5
			C225.2,201.2,224.4,200.2,224.4,198.7z"/>
		<path d="M236,201.1v-5l-2.1,5h-0.3l-2.1-5v5h-0.8V195h1.1l1.9,4.6l1.9-4.6h1.1v6.1H236z"/>
		<path d="M242.5,201.1l-0.5-1.4h-3l-0.5,1.4h-0.9l2.5-6.1h0.9l2.5,6.1H242.5z M240.5,195.8l-1.3,3.3h2.6L240.5,195.8z"/>
		<path d="M244.2,201.1V195h2.7c1.1,0,1.7,0.6,1.7,1.6c0,0.8-0.5,1.3-1.1,1.4c0.7,0.1,1.2,0.8,1.2,1.5c0,1-0.7,1.6-1.8,1.6H244.2z
			 M247.8,196.6c0-0.5-0.4-1-1.1-1H245v2h1.8C247.5,197.6,247.8,197.2,247.8,196.6z M248,199.3c0-0.6-0.4-1.1-1.1-1.1H245v2.1h1.9
			C247.5,200.4,248,200,248,199.3z"/>
		<path d="M250,201.1V195h0.8v5.4h2.8v0.7H250z"/>
		<path d="M254.6,201.1V195h4v0.7h-3.2v2h3.2v0.7h-3.2v2.1h3.2v0.7H254.6z"/>
		<path d="M259.1,201.3l2.2-6.5h0.5l-2.2,6.5H259.1z"/>
		<path d="M264.5,200.2l0.4-0.6c0.4,0.4,1.1,0.9,1.9,0.9c1.1,0,1.4-0.6,1.4-1.1c0-1.6-3.6-0.7-3.6-2.9c0-1,0.9-1.7,2.1-1.7
			c0.9,0,1.7,0.3,2.2,0.9l-0.5,0.6c-0.5-0.5-1.1-0.7-1.8-0.7c-0.7,0-1.3,0.4-1.3,1c0,1.4,3.6,0.6,3.6,2.9c0,0.9-0.6,1.8-2.3,1.8
			C265.8,201.2,265,200.8,264.5,200.2z"/>
		<path d="M274.5,201.1l-0.5-1.4h-3l-0.5,1.4h-0.9l2.5-6.1h0.9l2.5,6.1H274.5z M272.5,195.8l-1.3,3.3h2.6L272.5,195.8z"/>
		<path d="M276.2,201.1V195h0.8v5.4h2.8v0.7H276.2z"/>
		<path d="M280.9,201.1V195h4v0.7h-3.2v2h3.2v0.7h-3.2v2.1h3.2v0.7H280.9z"/>
		<path d="M290.4,201.1l-0.5-1.4h-3l-0.5,1.4h-0.9l2.5-6.1h0.9l2.5,6.1H290.4z M288.4,195.8l-1.3,3.3h2.6L288.4,195.8z"/>
		<path d="M292.1,201.1V195h2.7c1.1,0,1.7,0.6,1.7,1.6c0,0.8-0.5,1.3-1.1,1.4c0.7,0.1,1.2,0.8,1.2,1.5c0,1-0.7,1.6-1.8,1.6H292.1z
			 M295.7,196.6c0-0.5-0.4-1-1.1-1h-1.8v2h1.8C295.4,197.6,295.7,197.2,295.7,196.6z M295.9,199.3c0-0.6-0.4-1.1-1.1-1.1h-1.9v2.1
			h1.9C295.4,200.4,295.9,200,295.9,199.3z"/>
		<path d="M297.9,201.1V195h0.8v5.4h2.8v0.7H297.9z"/>
		<path d="M302.5,201.1V195h4v0.7h-3.2v2h3.2v0.7h-3.2v2.1h3.2v0.7H302.5z"/>
	</g>
	<g>
		<path d="M232.8,212.1V206h2.5c1.2,0,1.9,0.8,1.9,1.8c0,1-0.7,1.8-1.9,1.8h-1.7v2.4H232.8z M236.4,207.8c0-0.7-0.5-1.2-1.2-1.2
			h-1.6v2.3h1.6C235.9,209,236.4,208.5,236.4,207.8z"/>
		<path d="M241.7,212.1l-1.6-2.4h-1.2v2.4h-0.8V206h2.5c1.1,0,1.9,0.7,1.9,1.8c0,1.1-0.8,1.7-1.6,1.8l1.6,2.5H241.7z M241.7,207.8
			c0-0.7-0.5-1.2-1.2-1.2h-1.6v2.3h1.6C241.2,209,241.7,208.5,241.7,207.8z"/>
		<path d="M243.5,209c0-1.8,1.2-3.2,3-3.2c1.8,0,3,1.4,3,3.2s-1.2,3.2-3,3.2C244.7,212.2,243.5,210.8,243.5,209z M248.7,209
			c0-1.4-0.9-2.5-2.2-2.5c-1.4,0-2.2,1.1-2.2,2.5c0,1.4,0.9,2.5,2.2,2.5C247.9,211.5,248.7,210.4,248.7,209z"/>
		<path d="M250.7,212.1V206h2.1c1.9,0,3.1,1.3,3.1,3.1c0,1.7-1.2,3-3.1,3H250.7z M255.2,209c0-1.3-0.8-2.4-2.3-2.4h-1.3v4.8h1.3
			C254.3,211.4,255.2,210.3,255.2,209z"/>
		<path d="M257.1,209.7V206h0.8v3.7c0,1.1,0.6,1.8,1.7,1.8c1.1,0,1.7-0.7,1.7-1.8V206h0.8v3.7c0,1.5-0.8,2.5-2.5,2.5
			C258,212.2,257.1,211.2,257.1,209.7z"/>
		<path d="M263.3,209c0-1.9,1.4-3.2,3.1-3.2c1.1,0,1.8,0.5,2.3,1.2l-0.6,0.4c-0.3-0.5-1-0.9-1.7-0.9c-1.3,0-2.4,1-2.4,2.5
			c0,1.4,1,2.5,2.4,2.5c0.7,0,1.3-0.4,1.7-0.9l0.7,0.4c-0.5,0.7-1.2,1.2-2.3,1.2C264.7,212.2,263.3,210.9,263.3,209z"/>
		<path d="M271.2,212.1v-5.4h-1.9V206h4.6v0.7H272v5.4H271.2z"/>
	</g>
	<g>
		<path d="M83,296.3c0-1.8,1.2-3.2,3-3.2c1.8,0,3,1.4,3,3.2s-1.2,3.2-3,3.2C84.2,299.4,83,298.1,83,296.3z M88.3,296.3
			c0-1.4-0.9-2.5-2.2-2.5c-1.4,0-2.2,1.1-2.2,2.5c0,1.4,0.9,2.5,2.2,2.5C87.4,298.7,88.3,297.7,88.3,296.3z"/>
		<path d="M90.3,296.9v-3.7H91v3.7c0,1.1,0.6,1.8,1.7,1.8c1.1,0,1.7-0.7,1.7-1.8v-3.7h0.8v3.7c0,1.5-0.8,2.5-2.5,2.5
			C91.1,299.4,90.3,298.4,90.3,296.9z"/>
		<path d="M98.2,299.3v-5.4h-1.9v-0.7h4.6v0.7H99v5.4H98.2z"/>
		<path d="M101.9,299.3v-6.1h2.7c1.1,0,1.7,0.6,1.7,1.6c0,0.8-0.5,1.3-1.1,1.4c0.7,0.1,1.2,0.8,1.2,1.5c0,1-0.7,1.6-1.8,1.6H101.9z
			 M105.6,294.9c0-0.5-0.4-1-1.1-1h-1.8v2h1.8C105.2,295.9,105.6,295.4,105.6,294.9z M105.7,297.6c0-0.6-0.4-1.1-1.1-1.1h-1.9v2.1
			h1.9C105.2,298.6,105.7,298.2,105.7,297.6z"/>
		<path d="M107.4,296.3c0-1.8,1.2-3.2,3-3.2c1.8,0,3,1.4,3,3.2s-1.2,3.2-3,3.2C108.6,299.4,107.4,298.1,107.4,296.3z M112.7,296.3
			c0-1.4-0.9-2.5-2.2-2.5c-1.4,0-2.2,1.1-2.2,2.5c0,1.4,0.9,2.5,2.2,2.5C111.8,298.7,112.7,297.7,112.7,296.3z"/>
		<path d="M114.7,296.9v-3.7h0.8v3.7c0,1.1,0.6,1.8,1.7,1.8c1.1,0,1.7-0.7,1.7-1.8v-3.7h0.8v3.7c0,1.5-0.8,2.5-2.5,2.5
			C115.5,299.4,114.7,298.4,114.7,296.9z"/>
		<path d="M125.4,299.3l-3.6-4.9v4.9h-0.8v-6.1h0.8l3.5,4.8v-4.8h0.8v6.1H125.4z"/>
		<path d="M127.6,299.3v-6.1h2.1c1.9,0,3.1,1.3,3.1,3.1c0,1.7-1.2,3-3.1,3H127.6z M132,296.3c0-1.3-0.8-2.4-2.3-2.4h-1.3v4.8h1.3
			C131.1,298.6,132,297.6,132,296.3z"/>
	</g>
	<g>
		<path d="M86.5,310.3v-6.1h0.8v5.4h2.8v0.7H86.5z"/>
		<path d="M90.6,307.3c0-1.8,1.2-3.2,3-3.2c1.8,0,3,1.4,3,3.2s-1.2,3.2-3,3.2C91.8,310.4,90.6,309.1,90.6,307.3z M95.9,307.3
			c0-1.4-0.9-2.5-2.2-2.5c-1.4,0-2.2,1.1-2.2,2.5c0,1.4,0.9,2.5,2.2,2.5C95,309.7,95.9,308.7,95.9,307.3z"/>
		<path d="M97.6,307.3c0-1.9,1.4-3.2,3.1-3.2c1.1,0,1.8,0.5,2.4,1.1l-0.6,0.4c-0.4-0.5-1-0.8-1.8-0.8c-1.3,0-2.4,1-2.4,2.5
			c0,1.4,1,2.5,2.4,2.5c0.7,0,1.3-0.4,1.6-0.7v-1.2h-2.1v-0.7h2.9v2.2c-0.6,0.6-1.4,1.1-2.4,1.1C99,310.4,97.6,309.1,97.6,307.3z"/>
		<path d="M104.4,310.3v-6.1h0.8v6.1H104.4z"/>
		<path d="M106.2,309.4l0.4-0.6c0.4,0.4,1.1,0.9,1.9,0.9c1.1,0,1.4-0.6,1.4-1.1c0-1.6-3.6-0.7-3.6-2.9c0-1,0.9-1.7,2.1-1.7
			c0.9,0,1.7,0.3,2.2,0.9l-0.5,0.6c-0.5-0.5-1.1-0.7-1.8-0.7c-0.7,0-1.3,0.4-1.3,1c0,1.4,3.6,0.6,3.6,2.9c0,0.9-0.6,1.8-2.3,1.8
			C107.5,310.4,106.7,310,106.2,309.4z"/>
		<path d="M113.4,310.3v-5.4h-1.9v-0.7h4.6v0.7h-1.9v5.4H113.4z"/>
		<path d="M117.1,310.3v-6.1h0.8v6.1H117.1z"/>
		<path d="M119,307.3c0-1.9,1.4-3.2,3.1-3.2c1.1,0,1.8,0.5,2.3,1.2l-0.6,0.4c-0.3-0.5-1-0.9-1.7-0.9c-1.3,0-2.4,1-2.4,2.5
			c0,1.4,1,2.5,2.4,2.5c0.7,0,1.3-0.4,1.7-0.9l0.7,0.4c-0.5,0.7-1.2,1.2-2.3,1.2C120.4,310.4,119,309.1,119,307.3z"/>
		<path d="M125.1,309.4l0.4-0.6c0.4,0.4,1.1,0.9,1.9,0.9c1.1,0,1.4-0.6,1.4-1.1c0-1.6-3.6-0.7-3.6-2.9c0-1,0.9-1.7,2.1-1.7
			c0.9,0,1.7,0.3,2.2,0.9l-0.5,0.6c-0.5-0.5-1.1-0.7-1.8-0.7c-0.7,0-1.3,0.4-1.3,1c0,1.4,3.6,0.6,3.6,2.9c0,0.9-0.6,1.8-2.3,1.8
			C126.4,310.4,125.6,310,125.1,309.4z"/>
	</g>
	<g>
		<path d="M238.1,301.3c0-1.9,1.4-3.2,3.1-3.2c1.1,0,1.8,0.5,2.3,1.2l-0.6,0.4c-0.3-0.5-1-0.9-1.7-0.9c-1.3,0-2.4,1-2.4,2.5
			c0,1.4,1,2.5,2.4,2.5c0.7,0,1.3-0.4,1.7-0.9l0.7,0.4c-0.5,0.7-1.2,1.2-2.3,1.2C239.4,304.4,238.1,303.1,238.1,301.3z"/>
		<path d="M244.5,301.9v-3.7h0.8v3.7c0,1.1,0.6,1.8,1.7,1.8c1.1,0,1.7-0.7,1.7-1.8v-3.7h0.8v3.7c0,1.5-0.8,2.5-2.5,2.5
			C245.3,304.4,244.5,303.4,244.5,301.9z"/>
		<path d="M250.5,303.5l0.4-0.6c0.4,0.4,1.1,0.9,1.9,0.9c1.1,0,1.4-0.6,1.4-1.1c0-1.6-3.6-0.7-3.6-2.9c0-1,0.9-1.7,2.1-1.7
			c0.9,0,1.7,0.3,2.2,0.9l-0.5,0.6c-0.5-0.5-1.1-0.7-1.8-0.7c-0.7,0-1.3,0.4-1.3,1c0,1.4,3.6,0.6,3.6,2.9c0,0.9-0.6,1.8-2.3,1.8
			C251.8,304.4,251,304,250.5,303.5z"/>
		<path d="M257.7,304.3v-5.4h-1.9v-0.7h4.6v0.7h-1.9v5.4H257.7z"/>
		<path d="M260.9,301.3c0-1.8,1.2-3.2,3-3.2c1.8,0,3,1.4,3,3.2c0,1.8-1.2,3.2-3,3.2C262.2,304.4,260.9,303.1,260.9,301.3z
			 M266.2,301.3c0-1.4-0.9-2.5-2.2-2.5c-1.4,0-2.2,1.1-2.2,2.5c0,1.4,0.9,2.5,2.2,2.5C265.3,303.7,266.2,302.7,266.2,301.3z"/>
		<path d="M273.4,304.3v-5l-2.1,5H271l-2.1-5v5h-0.8v-6.1h1.1l1.9,4.6l1.9-4.6h1.1v6.1H273.4z"/>
		<path d="M275.6,304.3v-6.1h4v0.7h-3.2v2h3.2v0.7h-3.2v2.1h3.2v0.7H275.6z"/>
		<path d="M284.3,304.3l-1.6-2.4h-1.2v2.4h-0.8v-6.1h2.5c1.1,0,1.9,0.7,1.9,1.8c0,1.1-0.8,1.7-1.6,1.8l1.6,2.5H284.3z M284.4,300
			c0-0.7-0.5-1.2-1.2-1.2h-1.6v2.3h1.6C283.9,301.2,284.4,300.7,284.4,300z"/>
		<path d="M286,303.5l0.4-0.6c0.4,0.4,1.1,0.9,1.9,0.9c1.1,0,1.4-0.6,1.4-1.1c0-1.6-3.6-0.7-3.6-2.9c0-1,0.9-1.7,2.1-1.7
			c0.9,0,1.7,0.3,2.2,0.9l-0.5,0.6c-0.5-0.5-1.1-0.7-1.8-0.7c-0.7,0-1.3,0.4-1.3,1c0,1.4,3.6,0.6,3.6,2.9c0,0.9-0.6,1.8-2.3,1.8
			C287.3,304.4,286.5,304,286,303.5z"/>
	</g>
	<g>
		<path d="M77.8,203.9v-5l-2.1,5h-0.3l-2.1-5v5h-0.8v-6.1h1.1l1.9,4.6l1.9-4.6h1.1v6.1H77.8z"/>
		<path d="M84.4,203.9l-0.5-1.4h-3l-0.5,1.4h-0.9l2.5-6.1h0.9l2.5,6.1H84.4z M82.3,198.6l-1.3,3.3h2.6L82.3,198.6z"/>
		<path d="M89.6,203.9l-1.6-2.4h-1.2v2.4H86v-6.1h2.5c1.1,0,1.9,0.7,1.9,1.8c0,1.1-0.8,1.7-1.6,1.8l1.6,2.5H89.6z M89.6,199.7
			c0-0.7-0.5-1.2-1.2-1.2h-1.6v2.3h1.6C89.1,200.8,89.6,200.4,89.6,199.7z"/>
		<path d="M95.3,203.9l-2.3-2.7l-0.6,0.7v2.1h-0.8v-6.1h0.8v3.2l2.7-3.2h1l-2.5,2.9l2.8,3.2H95.3z"/>
		<path d="M97.1,203.9v-6.1h4v0.7h-3.2v2h3.2v0.7h-3.2v2.1h3.2v0.7H97.1z"/>
		<path d="M103.8,203.9v-5.4h-1.9v-0.7h4.6v0.7h-1.9v5.4H103.8z"/>
		<path d="M107.5,203.9v-6.1h0.8v6.1H107.5z"/>
		<path d="M114,203.9l-3.6-4.9v4.9h-0.8v-6.1h0.8l3.5,4.8v-4.8h0.8v6.1H114z"/>
		<path d="M115.9,200.9c0-1.9,1.4-3.2,3.1-3.2c1.1,0,1.8,0.5,2.4,1.1l-0.6,0.4c-0.4-0.5-1-0.8-1.8-0.8c-1.3,0-2.4,1-2.4,2.5
			c0,1.4,1,2.5,2.4,2.5c0.7,0,1.3-0.4,1.6-0.7v-1.2h-2.1v-0.7h2.9v2.2c-0.6,0.6-1.4,1.1-2.4,1.1
			C117.3,204.1,115.9,202.8,115.9,200.9z"/>
	</g>
	<g>
		<path d="M211.7,168.3v-6.1h4v0.7h-3.2v2h3.2v0.7h-3.2v2.8H211.7z"/>
		<path d="M216.7,168.3v-6.1h0.8v6.1H216.7z"/>
		<path d="M223.2,168.3l-3.6-4.9v4.9h-0.8v-6.1h0.8l3.5,4.8v-4.8h0.8v6.1H223.2z"/>
		<path d="M225.4,168.3v-6.1h0.8v6.1H225.4z"/>
		<path d="M227.2,167.5l0.4-0.6c0.4,0.4,1.1,0.9,1.9,0.9c1.1,0,1.4-0.6,1.4-1.1c0-1.6-3.6-0.7-3.6-2.9c0-1,0.9-1.7,2.1-1.7
			c0.9,0,1.7,0.3,2.2,0.9l-0.5,0.6c-0.5-0.5-1.1-0.7-1.8-0.7c-0.7,0-1.3,0.4-1.3,1c0,1.4,3.6,0.6,3.6,2.9c0,0.9-0.6,1.8-2.3,1.8
			C228.5,168.5,227.7,168.1,227.2,167.5z"/>
		<path d="M237.3,168.3v-2.8h-3.6v2.8h-0.8v-6.1h0.8v2.6h3.6v-2.6h0.8v6.1H237.3z"/>
		<path d="M239.4,168.3v-6.1h4v0.7h-3.2v2h3.2v0.7h-3.2v2.1h3.2v0.7H239.4z"/>
		<path d="M244.7,168.3v-6.1h2.1c1.9,0,3.1,1.3,3.1,3.1c0,1.7-1.2,3-3.1,3H244.7z M249.1,165.3c0-1.3-0.8-2.4-2.3-2.4h-1.3v4.8h1.3
			C248.2,167.7,249.1,166.6,249.1,165.3z"/>
		<path d="M253.4,168.3v-6.1h2.5c1.2,0,1.9,0.8,1.9,1.8c0,1-0.7,1.8-1.9,1.8h-1.7v2.4H253.4z M257,164.1c0-0.7-0.5-1.2-1.2-1.2h-1.6
			v2.3h1.6C256.5,165.2,257,164.8,257,164.1z"/>
		<path d="M262.3,168.3l-1.6-2.4h-1.2v2.4h-0.8v-6.1h2.5c1.1,0,1.9,0.7,1.9,1.8c0,1.1-0.8,1.7-1.6,1.8l1.6,2.5H262.3z M262.4,164.1
			c0-0.7-0.5-1.2-1.2-1.2h-1.6v2.3h1.6C261.9,165.2,262.4,164.8,262.4,164.1z"/>
		<path d="M264.1,165.3c0-1.8,1.2-3.2,3-3.2c1.8,0,3,1.4,3,3.2c0,1.8-1.2,3.2-3,3.2C265.3,168.5,264.1,167.1,264.1,165.3z
			 M269.4,165.3c0-1.4-0.9-2.5-2.2-2.5c-1.4,0-2.2,1.1-2.2,2.5c0,1.4,0.9,2.5,2.2,2.5C268.5,167.8,269.4,166.7,269.4,165.3z"/>
		<path d="M271.4,168.3v-6.1h2.1c1.9,0,3.1,1.3,3.1,3.1c0,1.7-1.2,3-3.1,3H271.4z M275.8,165.3c0-1.3-0.8-2.4-2.3-2.4h-1.3v4.8h1.3
			C274.9,167.7,275.8,166.6,275.8,165.3z"/>
		<path d="M277.8,166v-3.7h0.8v3.7c0,1.1,0.6,1.8,1.7,1.8c1.1,0,1.7-0.7,1.7-1.8v-3.7h0.8v3.7c0,1.5-0.8,2.5-2.5,2.5
			C278.6,168.5,277.8,167.5,277.8,166z"/>
		<path d="M283.9,165.3c0-1.9,1.4-3.2,3.1-3.2c1.1,0,1.8,0.5,2.3,1.2l-0.6,0.4c-0.3-0.5-1-0.9-1.7-0.9c-1.3,0-2.4,1-2.4,2.5
			c0,1.4,1,2.5,2.4,2.5c0.7,0,1.3-0.4,1.7-0.9l0.7,0.4c-0.5,0.7-1.2,1.2-2.3,1.2C285.3,168.5,283.9,167.2,283.9,165.3z"/>
		<path d="M291.9,168.3v-5.4H290v-0.7h4.6v0.7h-1.9v5.4H291.9z"/>
	</g>
	<path class="st1" d="M53.4,21.7H40.5v-4.6c0-1,0.9-1.9,1.9-1.9h9c1.1,0,1.9,0.8,1.9,1.9V21.7z"/>
	<line class="st1" x1="43" y1="21.6" x2="36.6" y2="51.4"/>
	<line class="st1" x1="51" y1="21.6" x2="57.4" y2="51.4"/>
	<line class="st1" x1="24.5" y1="51.4" x2="96.1" y2="51.4"/>
	<rect x="63.6" y="26.5" class="st1" width="29.1" height="25"/>
	<polyline class="st1" points="42.3,25.5 52.6,31 40.2,37.5 56.4,47.1 	"/>
	<polyline class="st1" points="57.3,18.4 78.3,18.4 78.3,23.3 	"/>
	<polyline class="st1" points="43.1,51.4 43.1,74.2 46.9,80.9 51.3,74.1 51.3,51.4 	"/>
	<line class="st1" x1="43.2" y1="74.1" x2="51.2" y2="74.1"/>
	<line class="st1" x1="43.2" y1="68.2" x2="51.2" y2="71.6"/>
	<line class="st1" x1="43.2" y1="64.4" x2="51.2" y2="67.7"/>
	<line class="st1" x1="43.2" y1="60.5" x2="51.2" y2="63.8"/>
	<line class="st1" x1="43.2" y1="56.6" x2="51.2" y2="60"/>
	<line class="st1" x1="43.2" y1="52.7" x2="51.2" y2="56.1"/>
	<line class="st1" x1="24.5" y1="73.5" x2="39.3" y2="73.5"/>
	<line class="st1" x1="54.7" y1="73.5" x2="96.1" y2="73.5"/>
	<path class="st1" d="M54.7,62c7.5,0.2,16.2-0.6,23.5-3.3c9-3.3,18-2.7,18-2.7"/>
	<path class="st1" d="M24.1,58.3c0,0,8.5-0.6,15.2,1.6"/>
	<path class="st1" d="M54.7,69c7.5,0.2,16.2-0.6,23.5-3.3c9-3.3,18-2.7,18-2.7"/>
	<path class="st1" d="M24.1,65.3c0,0,8.5-0.6,15.2,1.6"/>
	<line class="st2" x1="25.8" y1="77.6" x2="27.9" y2="77.6"/>
	<line class="st2" x1="34" y1="81.3" x2="36.1" y2="81.3"/>
	<line class="st2" x1="65.2" y1="81.3" x2="67.3" y2="81.3"/>
	<line class="st2" x1="81.5" y1="81.3" x2="83.6" y2="81.3"/>
	<line class="st2" x1="55.3" y1="77.6" x2="57.4" y2="77.6"/>
	<line class="st2" x1="74.8" y1="77.6" x2="76.9" y2="77.6"/>
	<line class="st2" x1="91.5" y1="77.6" x2="93.6" y2="77.6"/>
	<path class="st1" d="M69.7,39c0-4.4,3.8-8,8.5-8c4.7,0,8.5,3.6,8.5,8c0,4.4-3.8,8-8.5,8C73.5,47,69.7,43.4,69.7,39z"/>
	<polygon class="st1" points="78.1,34.3 82.1,42.3 74.2,42.3 	"/>
	<path class="st1" d="M241.6,134.9l17-14.7l9.5,1.6 M251.6,136.8l-1.3-0.2l-8.7-1.6l-4.5,7.9l5.2,0.9l6.6,1.2l4.4,0.8 M272.1,128.7
		l-2.8,2.5l-16.1,14.5l-0.7-4l-0.9-5l16.5-14.9L272.1,128.7z M248.8,144.9l-0.4,0.3 M277.8,129.7l-5.7-0.9 M260.1,156.1l-16.2-2.9
		l4.5-7.9l10,1.8 M258.5,147.1l1.6,9l21.7-19.5l-4-6.9L258.5,147.1z M231.6,142.5l17.5-14.1 M243.3,153.3l-16.2-2.9l4.5-7.9l10,1.8
		 M244.4,152.2l-1.2,1.1l-1.6-9l0.6-0.6"/>
	<line class="st1" x1="259.2" y1="266.9" x2="259.2" y2="278.4"/>
	<line class="st1" x1="269.1" y1="266.9" x2="269.1" y2="278.4"/>
	<path class="st1" d="M259.2,276c-2.2-0.5-3.8-2.5-3.8-4.9v-6.8c0-2.8,2.3-5,5-5h7.6c2.8,0,5,2.3,5,5v6.8c0,2.4-1.7,4.4-3.9,4.9"/>
	<path class="st1" d="M264,256L264,256c-2.2,0-4.1-1.8-4.1-4.1v-1.3c0-2.2,1.8-4.1,4.1-4.1c2.2,0,4.1,1.8,4.1,4.1v1.3
		C268.1,254.2,266.3,256,264,256z"/>
	<line class="st1" x1="247.7" y1="264.7" x2="247.7" y2="278.4"/>
	<path class="st1" d="M247.7,273c-2-0.5-3.5-2.3-3.5-4.5v-6.2c0-2.5,2.1-4.6,4.6-4.6h6.9"/>
	<path class="st1" d="M252.1,254.8L252.1,254.8c-2.1,0-3.7-1.7-3.7-3.7v-1.2c0-2.1,1.7-3.7,3.7-3.7c2.1,0,3.7,1.7,3.7,3.7v1.2
		C255.9,253.1,254.2,254.8,252.1,254.8z"/>
	<line class="st1" x1="280.3" y1="264.7" x2="280.3" y2="278.4"/>
	<path class="st1" d="M272.3,257.7h6.9c2.5,0,4.6,2.1,4.6,4.6v6.2c0,2.2-1.5,4-3.5,4.5"/>
	<path class="st1" d="M275.9,254.8L275.9,254.8c2.1,0,3.7-1.7,3.7-3.7v-1.2c0-2.1-1.7-3.7-3.7-3.7c-2.1,0-3.7,1.7-3.7,3.7v1.2
		C272.2,253.1,273.9,254.8,275.9,254.8z"/>
	<path class="st1" d="M160,63.8l1.6-3.2c0,0,1.4,0.2,1.4,0c0-0.2,1.8-1.8,1.8-1.8l1.6,0.6l2.3-2.2l3,1.2l1.2,0.8v1.4l3.2,1.5v1.9"/>
	<polyline class="st1" points="154.7,81 144.7,81 144.7,40.9 190.8,40.9 190.8,81 181.9,81 	"/>
	<path class="st1" d="M151.5,81.1V64.4c0-9.1,7.3-16.5,16.3-16.5c9,0,16.3,7.4,16.3,16.5v16.7"/>
	<path class="st1" d="M148,81.1V64.4c0-11.1,8.9-20.1,19.8-20.1c11,0,19.8,9,19.8,20.1v16.7"/>
	<rect x="157.9" y="63.9" class="st1" width="20.1" height="3.5"/>
	<polygon class="st1" points="175.8,75.3 159.9,75.3 157.9,67.5 178,67.5 	"/>
	<line class="st1" x1="162.9" y1="67.5" x2="162.9" y2="75.4"/>
	<line class="st1" x1="168" y1="67.5" x2="168" y2="75.4"/>
	<line class="st1" x1="173" y1="67.5" x2="173" y2="75.4"/>
	<line class="st1" x1="160.6" y1="75.4" x2="158.1" y2="87.4"/>
	<line class="st1" x1="177.2" y1="87.5" x2="175.1" y2="75.4"/>
	<line class="st1" x1="147.8" y1="87.4" x2="189.9" y2="87.4"/>
	<line class="st1" x1="157.6" y1="81" x2="177.8" y2="81"/>
	<line class="st1" x1="156.9" y1="83.8" x2="178.5" y2="83.8"/>
	<line class="st1" x1="164.6" y1="75.4" x2="164.6" y2="81.1"/>
	<line class="st1" x1="171.1" y1="75.4" x2="171.1" y2="81.1"/>
	<polyline class="st3" points="257.7,74.7 254.7,66.3 278.4,66.3 275.3,74.7 	"/>
	<line class="st3" x1="270.8" y1="77.8" x2="262.1" y2="77.8"/>
	<ellipse class="st3" cx="258.7" cy="77.9" rx="3.3" ry="3.3"/>
	<path class="st3" d="M270.9,77.9c0-1.8,1.5-3.3,3.3-3.3c1.8,0,3.3,1.5,3.3,3.3c0,1.8-1.5,3.3-3.3,3.3
		C272.4,81.2,270.9,79.8,270.9,77.9z"/>
	<line class="st3" x1="259.2" y1="68.5" x2="259.2" y2="72.1"/>
	<line class="st3" x1="262.2" y1="68.5" x2="262.2" y2="72.1"/>
	<line class="st3" x1="265.2" y1="68.5" x2="265.2" y2="72.1"/>
	<line class="st3" x1="268.1" y1="68.5" x2="268.1" y2="72.1"/>
	<line class="st3" x1="271.1" y1="68.5" x2="271.1" y2="72.1"/>
	<line class="st3" x1="274.1" y1="68.5" x2="274.1" y2="72.1"/>
	<polyline class="st3" points="255.7,66.1 257.2,62.1 260.2,60.9 261.9,62.6 267.6,57.8 270.5,58.8 273,57.5 276.4,59.7 275.9,61.8 
		277.6,66.1 	"/>
	<polyline class="st1" points="210.6,248.8 222,248.8 222,272.5 208.4,272.5 200.2,272.5 186.8,272.5 186.8,248.8 198.2,248.8 	"/>
	<rect x="200.2" y="272.5" class="st1" width="8.2" height="4.8"/>
	<rect x="197.6" y="277.4" class="st1" width="13.3" height="1.6"/>
	<line class="st1" x1="218.7" y1="263.6" x2="214.7" y2="263.6"/>
	<line class="st1" x1="216.7" y1="265.7" x2="216.7" y2="261.6"/>
	<path class="st1" d="M210.6,249c0,3.4-6.2,11.7-6.2,11.7s-6.2-8.3-6.2-11.7c0-3.4,2.8-6.2,6.2-6.2
		C207.8,242.7,210.6,245.5,210.6,249z"/>
	<path class="st1" d="M201.5,248.8c0-1.6,1.3-2.9,2.9-2.9c1.6,0,2.9,1.3,2.9,2.9c0,1.6-1.3,2.9-2.9,2.9
		C202.8,251.7,201.5,250.4,201.5,248.8z"/>
	<polyline class="st1" points="189.7,251.7 189.7,269.6 219.3,269.6 	"/>
	<path class="st1" d="M189.7,265.1l7.2-2.8c0,0,5,0.5,5.2,0.6c0.2,0.2,5.6-4.1,5.6-4.1l8.1-1.3l3-4.2"/>
	
		<ellipse transform="matrix(0.9239 -0.3827 0.3827 0.9239 -84.3992 102.9866)" class="st1" cx="216.7" cy="263.6" rx="3.6" ry="3.6"/>
	<path class="st1" d="M93.8,231.2c2.3-3.1,5.9-5.1,10-5.1c4.1,0,7.7,2,10,5.1"/>
	<path class="st1" d="M96.1,233.6c1.7-2.5,4.5-4.1,7.7-4.1c3.2,0,6,1.6,7.7,4.1"/>
	<path class="st1" d="M98.7,236.3c1-1.9,2.9-3.2,5.1-3.2c2.2,0,4.2,1.3,5.1,3.2"/>
	<path class="st1" d="M103.8,242.8c1.7,0,3-1.3,3-2.9c0-1.6-1.4-2.9-3-2.9c-1.7,0-3,1.3-3,2.9C100.8,241.5,102.2,242.8,103.8,242.8z
		"/>
	<path class="st1" d="M113.9,156.5c0.9-0.6,10-10.9,10-10.9"/>
	<line class="st1" x1="115.3" y1="158.8" x2="129.6" y2="155.7"/>
	<line class="st1" x1="123.5" y1="144.5" x2="130" y2="156.5"/>
	<line class="st1" x1="127.2" y1="146.9" x2="129.2" y2="144.2"/>
	<line class="st1" x1="128.8" y1="149.5" x2="131.9" y2="147.7"/>
	<line class="st1" x1="130" y1="152.2" x2="133.5" y2="151.8"/>
	<line class="st1" x1="113.5" y1="155.5" x2="115.7" y2="159.5"/>
	<path class="st1" d="M118.3,158.1c0,0,0.7,2.3,2.9,2c2.3-0.3,2.4-2.1,2.3-3.1"/>
	<path class="st1" d="M111.5,151.7c0,3.2-2.7,7.8-6.1,7.8c-3.4,0-6.1-4.6-6.1-7.8c0-3.2,2.7-5.8,6.1-5.8
		C108.7,145.9,111.5,148.5,111.5,151.7z"/>
	<path class="st1" d="M110.9,161.6h-0.8l-4.7,4.7l-4.7-4.7h-0.8c-3.6,0-6.5,2.9-6.5,6.4v5.6h23.9v-5.6
		C117.3,164.5,114.4,161.6,110.9,161.6z"/>
	<rect x="65.2" y="142.3" class="st3" width="20.9" height="31.9"/>
	<rect x="67.7" y="145.8" class="st3" width="15.9" height="21.9"/>
	<line class="st3" x1="71.9" y1="170.8" x2="79.3" y2="170.8"/>
	
		<rect x="73.4" y="152.9" transform="matrix(0.7071 -0.7071 0.7071 0.7071 -87.5394 98.9117)" class="st3" width="4.4" height="4.4"/>
	<path class="st4" d="M66,301.4c-28.5,0-51.6-22.4-51.6-50.8c0-28.5,23.1-50.1,51.6-50.1"/>
	<line class="st4" x1="396" y1="201.3" x2="318.6" y2="201.3"/>
	<line class="st4" x1="200.8" y1="165.1" x2="131.3" y2="165.1"/>
	<line class="st4" x1="182.8" y1="200.5" x2="130.4" y2="200.5"/>
	<line class="st4" x1="298" y1="98.9" x2="404.9" y2="98.9"/>
	<line class="st4" x1="304.3" y1="165.1" x2="453.4" y2="165.1"/>
	<line class="st4" x1="191.3" y1="98.9" x2="234.5" y2="98.9"/>
	<line class="st4" x1="99.9" y1="98.9" x2="144.3" y2="98.9"/>
	<line class="st4" x1="143.2" y1="301.4" x2="230.4" y2="301.4"/>
	<g>
		<path d="M445.4,64.1V58h2.7c1.1,0,1.7,0.6,1.7,1.6c0,0.8-0.5,1.3-1.1,1.4c0.7,0.1,1.2,0.8,1.2,1.5c0,1-0.7,1.6-1.8,1.6H445.4z
			 M449.1,59.7c0-0.5-0.4-1-1.1-1h-1.8v2h1.8C448.7,60.6,449.1,60.2,449.1,59.7z M449.2,62.4c0-0.6-0.4-1.1-1.1-1.1h-1.9v2.1h1.9
			C448.8,63.4,449.2,63,449.2,62.4z"/>
		<path d="M451.2,64.1V58h4v0.7h-3.2v2h3.2v0.7h-3.2v2.1h3.2v0.7H451.2z"/>
		<path d="M460.7,64.1l-3.6-4.9v4.9h-0.8V58h0.8l3.5,4.8V58h0.8v6.1H460.7z"/>
		<path d="M462.9,64.1V58h4v0.7h-3.2v2h3.2v0.7h-3.2v2.1h3.2v0.7H462.9z"/>
		<path d="M468.1,64.1V58h4v0.7h-3.2v2h3.2v0.7h-3.2v2.8H468.1z"/>
		<path d="M473.1,64.1V58h0.8v6.1H473.1z"/>
		<path d="M475,61.1c0-1.9,1.4-3.2,3.1-3.2c1.1,0,1.8,0.5,2.3,1.2l-0.6,0.4c-0.3-0.5-1-0.9-1.7-0.9c-1.3,0-2.4,1-2.4,2.5
			c0,1.4,1,2.5,2.4,2.5c0.7,0,1.3-0.4,1.7-0.9l0.7,0.4c-0.5,0.7-1.2,1.2-2.3,1.2C476.4,64.2,475,62.9,475,61.1z"/>
		<path d="M481.5,64.1V58h0.8v6.1H481.5z"/>
		<path d="M488,64.1l-0.5-1.4h-3l-0.5,1.4H483l2.5-6.1h0.9l2.5,6.1H488z M486,58.8l-1.3,3.3h2.6L486,58.8z"/>
		<path d="M490.6,64.1v-5.4h-1.9V58h4.6v0.7h-1.9v5.4H490.6z"/>
		<path d="M494.3,64.1V58h0.8v6.1H494.3z"/>
		<path d="M496.3,61.1c0-1.8,1.2-3.2,3-3.2c1.8,0,3,1.4,3,3.2c0,1.8-1.2,3.2-3,3.2C497.5,64.2,496.3,62.9,496.3,61.1z M501.5,61.1
			c0-1.4-0.9-2.5-2.2-2.5c-1.4,0-2.2,1.1-2.2,2.5c0,1.4,0.9,2.5,2.2,2.5C500.7,63.5,501.5,62.5,501.5,61.1z"/>
		<path d="M507.8,64.1l-3.6-4.9v4.9h-0.8V58h0.8l3.5,4.8V58h0.8v6.1H507.8z"/>
	</g>
	<g>
		<path d="M457.6,100.2l0.4-0.6c0.4,0.4,1.1,0.9,1.9,0.9c1.1,0,1.4-0.6,1.4-1.1c0-1.6-3.6-0.7-3.6-2.9c0-1,0.9-1.7,2.1-1.7
			c0.9,0,1.7,0.3,2.2,0.9l-0.5,0.6c-0.5-0.5-1.1-0.7-1.8-0.7c-0.7,0-1.3,0.4-1.3,1c0,1.4,3.6,0.6,3.6,2.9c0,0.9-0.6,1.8-2.3,1.8
			C458.9,101.2,458.1,100.8,457.6,100.2z"/>
		<path d="M468.5,101.1v-5l-2.1,5h-0.3l-2.1-5v5h-0.8V95h1.1l1.9,4.6l1.9-4.6h1.1v6.1H468.5z"/>
		<path d="M470.7,101.1V95h4v0.7h-3.2v2h3.2v0.7h-3.2v2.1h3.2v0.7H470.7z"/>
		<path d="M475.9,101.1V95h0.8v5.4h2.8v0.7H475.9z"/>
		<path d="M481.2,101.1v-5.4h-1.9V95h4.6v0.7H482v5.4H481.2z"/>
		<path d="M484.9,101.1V95h4v0.7h-3.2v2h3.2v0.7h-3.2v2.1h3.2v0.7H484.9z"/>
		<path d="M493.7,101.1l-1.6-2.4h-1.2v2.4h-0.8V95h2.5c1.1,0,1.9,0.7,1.9,1.8c0,1.1-0.8,1.7-1.6,1.8l1.6,2.5H493.7z M493.7,96.8
			c0-0.7-0.5-1.2-1.2-1.2h-1.6V98h1.6C493.2,98,493.7,97.5,493.7,96.8z"/>
	</g>
	<g>
		<path d="M460.5,135.6l-1.6-2.4h-1.2v2.4h-0.8v-6.1h2.5c1.1,0,1.9,0.7,1.9,1.8c0,1.1-0.8,1.7-1.6,1.8l1.6,2.5H460.5z M460.5,131.3
			c0-0.7-0.5-1.2-1.2-1.2h-1.6v2.3h1.6C460,132.5,460.5,132,460.5,131.3z"/>
		<path d="M462.5,135.6v-6.1h4v0.7h-3.2v2h3.2v0.7h-3.2v2.1h3.2v0.7H462.5z"/>
		<path d="M467.7,135.6v-6.1h4v0.7h-3.2v2h3.2v0.7h-3.2v2.8H467.7z"/>
		<path d="M472.7,135.6v-6.1h0.8v6.1H472.7z"/>
		<path d="M479.2,135.6l-3.6-4.9v4.9h-0.8v-6.1h0.8l3.5,4.8v-4.8h0.8v6.1H479.2z"/>
		<path d="M481.4,135.6v-6.1h0.8v6.1H481.4z"/>
		<path d="M487.9,135.6l-3.6-4.9v4.9h-0.8v-6.1h0.8l3.5,4.8v-4.8h0.8v6.1H487.9z"/>
		<path d="M489.8,132.5c0-1.9,1.4-3.2,3.1-3.2c1.1,0,1.8,0.5,2.4,1.1l-0.6,0.4c-0.4-0.5-1-0.8-1.8-0.8c-1.3,0-2.4,1-2.4,2.5
			c0,1.4,1,2.5,2.4,2.5c0.7,0,1.3-0.4,1.6-0.7v-1.2h-2.1v-0.7h2.9v2.2c-0.6,0.6-1.4,1.1-2.4,1.1
			C491.2,135.7,489.8,134.4,489.8,132.5z"/>
	</g>
	<g>
		<path d="M446,195.1V189h2.7c1.1,0,1.7,0.6,1.7,1.6c0,0.8-0.5,1.3-1.1,1.4c0.7,0.1,1.2,0.8,1.2,1.5c0,1-0.7,1.6-1.8,1.6H446z
			 M449.6,190.7c0-0.5-0.4-1-1.1-1h-1.8v2h1.8C449.3,191.7,449.6,191.2,449.6,190.7z M449.8,193.4c0-0.6-0.4-1.1-1.1-1.1h-1.9v2.1
			h1.9C449.3,194.4,449.8,194,449.8,193.4z"/>
		<path d="M453.3,195.1v-2.6l-2.4-3.5h0.9l1.9,2.8l1.9-2.8h0.9l-2.4,3.5v2.6H453.3z"/>
		<path d="M455.7,193.2v-0.6h2.2v0.6H455.7z"/>
		<path d="M458.9,195.1V189h2.5c1.2,0,1.9,0.8,1.9,1.8c0,1-0.7,1.8-1.9,1.8h-1.7v2.4H458.9z M462.5,190.8c0-0.7-0.5-1.2-1.2-1.2
			h-1.6v2.3h1.6C462,192,462.5,191.5,462.5,190.8z"/>
		<path d="M467.8,195.1l-1.6-2.4H465v2.4h-0.8V189h2.5c1.1,0,1.9,0.7,1.9,1.8c0,1.1-0.8,1.7-1.6,1.8l1.6,2.5H467.8z M467.9,190.8
			c0-0.7-0.5-1.2-1.2-1.2H465v2.3h1.6C467.4,192,467.9,191.5,467.9,190.8z"/>
		<path d="M469.6,192.1c0-1.8,1.2-3.2,3-3.2c1.8,0,3,1.4,3,3.2c0,1.8-1.2,3.2-3,3.2C470.8,195.2,469.6,193.9,469.6,192.1z
			 M474.9,192.1c0-1.4-0.9-2.5-2.2-2.5c-1.4,0-2.2,1.1-2.2,2.5c0,1.4,0.9,2.5,2.2,2.5C474,194.5,474.9,193.5,474.9,192.1z"/>
		<path d="M476.8,195.1V189h2.1c1.9,0,3.1,1.3,3.1,3.1c0,1.7-1.2,3-3.1,3H476.8z M481.3,192.1c0-1.3-0.8-2.4-2.3-2.4h-1.3v4.8h1.3
			C480.4,194.4,481.3,193.4,481.3,192.1z"/>
		<path d="M483.2,192.7V189h0.8v3.7c0,1.1,0.6,1.8,1.7,1.8c1.1,0,1.7-0.7,1.7-1.8V189h0.8v3.7c0,1.5-0.8,2.5-2.5,2.5
			C484.1,195.2,483.2,194.2,483.2,192.7z"/>
		<path d="M489.4,192.1c0-1.9,1.4-3.2,3.1-3.2c1.1,0,1.8,0.5,2.3,1.2l-0.6,0.4c-0.3-0.5-1-0.9-1.7-0.9c-1.3,0-2.4,1-2.4,2.5
			c0,1.4,1,2.5,2.4,2.5c0.7,0,1.3-0.4,1.7-0.9l0.7,0.4c-0.5,0.7-1.2,1.2-2.3,1.2C490.8,195.2,489.4,193.9,489.4,192.1z"/>
		<path d="M497.4,195.1v-5.4h-1.9V189h4.6v0.7h-1.9v5.4H497.4z"/>
		<path d="M500.7,194.3l0.4-0.6c0.4,0.4,1.1,0.9,1.9,0.9c1.1,0,1.4-0.6,1.4-1.1c0-1.6-3.6-0.7-3.6-2.9c0-1,0.9-1.7,2.1-1.7
			c0.9,0,1.7,0.3,2.2,0.9l-0.5,0.6c-0.5-0.5-1.1-0.7-1.8-0.7c-0.7,0-1.3,0.4-1.3,1c0,1.4,3.6,0.6,3.6,2.9c0,0.9-0.6,1.8-2.3,1.8
			C501.9,195.2,501.2,194.8,500.7,194.3z"/>
	</g>
	<g>
		<path d="M454.3,206.1l-1.6-2.4h-1.2v2.4h-0.8V200h2.5c1.1,0,1.9,0.7,1.9,1.8c0,1.1-0.8,1.7-1.6,1.8l1.6,2.5H454.3z M454.3,201.8
			c0-0.7-0.5-1.2-1.2-1.2h-1.6v2.3h1.6C453.8,203,454.3,202.5,454.3,201.8z"/>
		<path d="M456.3,206.1V200h4v0.7h-3.2v2h3.2v0.7h-3.2v2.1h3.2v0.7H456.3z"/>
		<path d="M461.3,203.1c0-1.9,1.4-3.2,3.1-3.2c1.1,0,1.8,0.5,2.3,1.2l-0.6,0.4c-0.3-0.5-1-0.9-1.7-0.9c-1.3,0-2.4,1-2.4,2.5
			c0,1.4,1,2.5,2.4,2.5c0.7,0,1.3-0.4,1.7-0.9l0.7,0.4c-0.5,0.7-1.2,1.2-2.3,1.2C462.6,206.2,461.3,204.9,461.3,203.1z"/>
		<path d="M469.3,206.1v-2.6l-2.4-3.5h0.9l1.9,2.8l1.9-2.8h0.9l-2.4,3.5v2.6H469.3z"/>
		<path d="M472.7,203.1c0-1.9,1.4-3.2,3.1-3.2c1.1,0,1.8,0.5,2.3,1.2l-0.6,0.4c-0.3-0.5-1-0.9-1.7-0.9c-1.3,0-2.4,1-2.4,2.5
			c0,1.4,1,2.5,2.4,2.5c0.7,0,1.3-0.4,1.7-0.9l0.7,0.4c-0.5,0.7-1.2,1.2-2.3,1.2C474,206.2,472.7,204.9,472.7,203.1z"/>
		<path d="M479.1,206.1V200h0.8v5.4h2.8v0.7H479.1z"/>
		<path d="M483.8,206.1V200h0.8v6.1H483.8z"/>
		<path d="M490.3,206.1l-3.6-4.9v4.9H486V200h0.8l3.5,4.8V200h0.8v6.1H490.3z"/>
		<path d="M492.2,203.1c0-1.9,1.4-3.2,3.1-3.2c1.1,0,1.8,0.5,2.4,1.1l-0.6,0.4c-0.4-0.5-1-0.8-1.8-0.8c-1.3,0-2.4,1-2.4,2.5
			c0,1.4,1,2.5,2.4,2.5c0.7,0,1.3-0.4,1.6-0.7v-1.2h-2.1V203h2.9v2.2c-0.6,0.6-1.4,1.1-2.4,1.1C493.6,206.2,492.2,204.9,492.2,203.1
			z"/>
		<path d="M498.3,206.3l2.2-6.5h0.5l-2.2,6.5H498.3z"/>
	</g>
	<g>
		<path d="M446.7,217.1l-1.6-2.4h-1.2v2.4h-0.8V211h2.5c1.1,0,1.9,0.7,1.9,1.8c0,1.1-0.8,1.7-1.6,1.8l1.6,2.5H446.7z M446.7,212.8
			c0-0.7-0.5-1.2-1.2-1.2h-1.6v2.3h1.6C446.2,214,446.7,213.5,446.7,212.8z"/>
		<path d="M448.7,217.1V211h4v0.7h-3.2v2h3.2v0.7h-3.2v2.1h3.2v0.7H448.7z"/>
		<path d="M453.9,217.1V211h2.5c1.2,0,1.9,0.8,1.9,1.8c0,1-0.7,1.8-1.9,1.8h-1.7v2.4H453.9z M457.5,212.8c0-0.7-0.5-1.2-1.2-1.2
			h-1.6v2.3h1.6C457,214,457.5,213.5,457.5,212.8z"/>
		<path d="M462.8,217.1l-1.6-2.4H460v2.4h-0.8V211h2.5c1.1,0,1.9,0.7,1.9,1.8c0,1.1-0.8,1.7-1.6,1.8l1.6,2.5H462.8z M462.9,212.8
			c0-0.7-0.5-1.2-1.2-1.2H460v2.3h1.6C462.4,214,462.9,213.5,462.9,212.8z"/>
		<path d="M464.6,214c0-1.8,1.2-3.2,3-3.2c1.8,0,3,1.4,3,3.2c0,1.8-1.2,3.2-3,3.2C465.8,217.2,464.6,215.8,464.6,214z M469.9,214
			c0-1.4-0.9-2.5-2.2-2.5c-1.4,0-2.2,1.1-2.2,2.5c0,1.4,0.9,2.5,2.2,2.5C469,216.5,469.9,215.5,469.9,214z"/>
		<path d="M471.6,214c0-1.9,1.4-3.2,3.1-3.2c1.1,0,1.8,0.5,2.3,1.2l-0.6,0.4c-0.3-0.5-1-0.9-1.7-0.9c-1.3,0-2.4,1-2.4,2.5
			c0,1.4,1,2.5,2.4,2.5c0.7,0,1.3-0.4,1.7-0.9l0.7,0.4c-0.5,0.7-1.2,1.2-2.3,1.2C473,217.2,471.6,215.9,471.6,214z"/>
		<path d="M478,217.1V211h4v0.7h-3.2v2h3.2v0.7h-3.2v2.1h3.2v0.7H478z"/>
		<path d="M482.9,216.2l0.4-0.6c0.4,0.4,1.1,0.9,1.9,0.9c1.1,0,1.4-0.6,1.4-1.1c0-1.6-3.6-0.7-3.6-2.9c0-1,0.9-1.7,2.1-1.7
			c0.9,0,1.7,0.3,2.2,0.9l-0.5,0.6c-0.5-0.5-1.1-0.7-1.8-0.7c-0.7,0-1.3,0.4-1.3,1c0,1.4,3.6,0.6,3.6,2.9c0,0.9-0.6,1.8-2.3,1.8
			C484.2,217.2,483.4,216.8,482.9,216.2z"/>
		<path d="M488.2,216.2l0.4-0.6c0.4,0.4,1.1,0.9,1.9,0.9c1.1,0,1.4-0.6,1.4-1.1c0-1.6-3.6-0.7-3.6-2.9c0-1,0.9-1.7,2.1-1.7
			c0.9,0,1.7,0.3,2.2,0.9l-0.5,0.6c-0.5-0.5-1.1-0.7-1.8-0.7c-0.7,0-1.3,0.4-1.3,1c0,1.4,3.6,0.6,3.6,2.9c0,0.9-0.6,1.8-2.3,1.8
			C489.5,217.2,488.7,216.8,488.2,216.2z"/>
		<path d="M494,217.1V211h0.8v6.1H494z"/>
		<path d="M500.5,217.1l-3.6-4.9v4.9h-0.8V211h0.8l3.5,4.8V211h0.8v6.1H500.5z"/>
		<path d="M502.4,214c0-1.9,1.4-3.2,3.1-3.2c1.1,0,1.8,0.5,2.4,1.1l-0.6,0.4c-0.4-0.5-1-0.8-1.8-0.8c-1.3,0-2.4,1-2.4,2.5
			c0,1.4,1,2.5,2.4,2.5c0.7,0,1.3-0.4,1.6-0.7v-1.2h-2.1v-0.7h2.9v2.2c-0.6,0.6-1.4,1.1-2.4,1.1C503.8,217.2,502.4,215.9,502.4,214z
			"/>
	</g>
	<line class="st3" x1="467.2" y1="280.1" x2="467.2" y2="268.2"/>
	<line class="st3" x1="471.4" y1="280.1" x2="471.4" y2="266.9"/>
	<path class="st3" d="M485.3,280.1V267c1.5,0.1,2.9,0.7,4.1,1.5v11.5"/>
	<path class="st3" d="M470.5,253.8c0-4.2,3.4-7.6,7.6-7.6c4.2,0,7.6,3.4,7.6,7.6"/>
	<line class="st3" x1="469.2" y1="254" x2="487.2" y2="254"/>
	<line class="st3" x1="478.1" y1="246.1" x2="478.1" y2="249.4"/>
	<line class="st3" x1="475.2" y1="246.7" x2="475.6" y2="249.6"/>
	<line class="st3" x1="481.4" y1="246.9" x2="481.1" y2="249.4"/>
	<path class="st3" d="M471.3,254c0,0-0.9,9.2,6.4,10.6c0,0,7.4,0.9,7.3-10.6"/>
	<path class="st3" d="M493.4,275.9v4.1h-30.5v-4.2c0-3.2,1.7-6,4.3-7.5c1.3-0.7,2.7-1.2,4.3-1.2c0.1,0,0.2,0,0.3,0h12.6
		c0.3,0,0.5,0,0.8,0c1.6,0.1,3,0.7,4.3,1.5C491.8,270.1,493.4,272.9,493.4,275.9z"/>
	<polyline class="st3" points="483.3,267 478.1,272.1 472.9,267 	"/>
	<line class="st3" x1="448.5" y1="280.1" x2="448.5" y2="269.1"/>
	<line class="st3" x1="452.4" y1="280.1" x2="452.4" y2="267.9"/>
	<path class="st3" d="M451.6,255.7c0-3.9,3.1-7,7-7s7,3.1,7,7"/>
	<line class="st3" x1="450.3" y1="255.9" x2="466.9" y2="255.9"/>
	<line class="st3" x1="458.6" y1="248.6" x2="458.6" y2="251.6"/>
	<line class="st3" x1="456" y1="249.1" x2="456.2" y2="251.8"/>
	<line class="st3" x1="461.6" y1="249.2" x2="461.4" y2="251.6"/>
	<path class="st3" d="M452.3,255.8c0,0-0.8,8.5,5.9,9.8c0,0,6.8,0.9,6.7-9.8"/>
	<path class="st3" d="M459,280.1l-14.5,0v-3.9c0-3,1.6-5.5,4-7c1.2-0.7,2.5-1.1,3.9-1.2c0.1,0,0.2,0,0.3,0h11.6c0.2,0,0.5,0,0.7,0"
		/>
	<polyline class="st3" points="463.3,268 458.6,272.6 453.8,268 	"/>
	<line class="st3" x1="505.4" y1="280.2" x2="505.4" y2="270.2"/>
	<line class="st3" x1="501.9" y1="280.2" x2="501.9" y2="269.1"/>
	<path class="st3" d="M502.6,258c0-3.5-2.8-6.3-6.3-6.3c-3.5,0-6.3,2.8-6.3,6.3"/>
	<line class="st3" x1="503.8" y1="258.3" x2="488.8" y2="258.3"/>
	<line class="st3" x1="496.4" y1="251.6" x2="496.4" y2="254.3"/>
	<line class="st3" x1="498.7" y1="252.1" x2="498.6" y2="254.5"/>
	<line class="st3" x1="493.7" y1="252.2" x2="493.8" y2="254.4"/>
	<path class="st3" d="M502,258.2c0,0,0.7,7.6-5.3,8.8c0,0-6.1,0.8-6-8.8"/>
	<path class="st3" d="M495.9,280.1l13.1,0v-3.5c0-2.7-1.4-5-3.6-6.3c-1-0.6-2.3-1-3.6-1c-0.1,0-0.2,0-0.2,0h-10.5
		c-0.2,0-0.4,0-0.7,0"/>
	<polyline class="st3" points="492.1,269.2 496.3,273.3 500.6,269.2 	"/>
	<path class="st3" d="M469.2,280.1"/>
	<path class="st4" d="M476.2,25.8c-24.4,0-44.1,19.7-44.1,44.1V121c0,24.4,19.7,44.1,44.1,44.1c24.4,0,44.1-19.7,44.1-44.1V69.9
		C520.3,45.6,500.6,25.8,476.2,25.8z"/>
	<path class="st0" d="M520.4,88.7c-4.7,0-8.4,3.8-8.4,8.4v1.4c0,4.7,3.8,8.4,8.4,8.4s8.4-3.8,8.4-8.4v-1.4
		C528.8,92.5,525,88.7,520.4,88.7"/>
	<path class="st4" d="M502.7,98.3h25.4c28.5,0,51.6,23.1,51.6,51.5c0,28.5-23.1,51.5-51.6,51.5"/>
</g>
</svg>
