<?xml version="1.0" encoding="utf-8"?>
<!-- Generator: Adobe Illustrator 26.4.1, SVG Export Plug-In . SVG Version: 6.00 Build 0)  -->
<svg version="1.1" id="Layer_1" xmlns="http://www.w3.org/2000/svg" xmlns:xlink="http://www.w3.org/1999/xlink" x="0px" y="0px"
	 viewBox="0 0 740.3 920" style="enable-background:new 0 0 740.3 920;" xml:space="preserve">
<style type="text/css">
	.st0{fill:none;stroke:#020202;stroke-width:0.5;stroke-linecap:round;stroke-linejoin:round;stroke-miterlimit:10;}
	.st1{fill:#4F4F50;}
	.st2{fill:none;stroke:#1DBFF0;stroke-width:3;stroke-linecap:round;stroke-linejoin:round;}
	.st3{fill:none;}
	.st4{fill:#F89623;}
	.st5{fill:#FFFFFF;}
</style>
<path class="st0" d="M18.1,683.6v4.2V683.6z M105.5,714.9v8.3V714.9z M104.9,705.4h-2v6.3h5.1v-6.3h-1.7H104.9z M68.1,679.9
	c4.5-5,9-9.8,9.2-9.9c0.6-0.3,25.4,18.1,25.4,18.1v14.3v-14.3c0,0-24.8-18.3-25.4-18.1C77.1,670.1,72.6,674.9,68.1,679.9z
	 M61.5,665.5l16-7.4l35.1,26.3l-4.3,17.9l4.3-17.9l-35.1-26.3L61.5,665.5z M62.1,695.9h-4.8l-4.5-12.4l4.5,12.4H62.1z M80.3,703.2
	v-1.9H61.3H38.6H21v1.9v-1.9h17.8h22.5h19.2L80.3,703.2L80.3,703.2z M63.3,697.8v-13.8l4.8-13.3c0.3-0.9-0.4-1.8-1.2-1.8H43.6
	c-0.8,0-1.3,0.6-1.3,1.3V688v-17.7c0-0.8,0.6-1.3,1.3-1.3h23.2c1,0,1.6,1,1.2,1.8l-4.8,13.3L63.3,697.8L63.3,697.8z M18.5,699.2
	h-3.2V688h1.8h2.1h5.7v-11.1c0-0.8,0.6-1.3,1.3-1.3H39H26.2c-0.8,0-1.3,0.6-1.3,1.3V688h-5.7h-2.1h-1.8v11.1L18.5,699.2L18.5,699.2z
	 M18.1,669.1v-1.2c0-1.5-0.6-2.9-1.6-3.9l-4-4l4,4c1,1,1.6,2.5,1.6,3.9V669.1z M63.2,683.2H43.5H63.2z M36.6,679.8v6.9V679.8z
	 M32.8,679.8v6.9V679.8z M29,679.8v6.9V679.8z M17.1,669.7h-0.7c-0.7,0-1.2,0.6-1.2,1.2v11.4c0,0.7,0.6,1.2,1.2,1.2h0.7h2.1h0.7
	c0.7,0,1.2-0.6,1.2-1.2V671c0-0.7-0.6-1.2-1.2-1.2h-0.7H17.1z M78.3,720c-2.7,0-4.9-2.2-4.9-4.9c0-2.8,2.2-4.9,4.9-4.9
	c2.8,0,4.9,2.2,4.9,4.9C83.2,717.8,81,720,78.3,720z M65,720c-2.8,0-4.9-2.2-4.9-4.9c0-2.8,2.2-4.9,4.9-4.9c2.7,0,4.9,2.2,4.9,4.9
	C69.9,717.8,67.7,720,65,720z M51.8,720c-2.7,0-4.9-2.2-4.9-4.9c0-2.8,2.2-4.9,4.9-4.9c2.8,0,4.9,2.2,4.9,4.9
	C56.8,717.8,54.5,720,51.8,720z M38.6,720c-2.7,0-4.9-2.2-4.9-4.9c0-2.8,2.2-4.9,4.9-4.9c2.8,0,4.9,2.2,4.9,4.9
	C43.6,717.8,41.4,720,38.6,720z M25.5,720c-2.8,0-4.9-2.2-4.9-4.9c0-2.8,2.2-4.9,4.9-4.9s4.9,2.2,4.9,4.9
	C30.5,717.8,28.3,720,25.5,720z M79.1,707H24.7c-2.3,0-4.3,1-5.7,2.4s-2.4,3.5-2.4,5.7c0,4.5,3.6,8.2,8.2,8.2h54.4
	c2.3,0,4.3-1,5.7-2.4s2.4-3.5,2.4-5.7C87.3,710.7,83.6,707,79.1,707z"/>
<path class="st0" d="M720.2,794.4h-8.8c-0.3,0-0.7-0.2-0.8-0.5l-1.2-2.9c-0.1-0.3-0.4-0.5-0.8-0.5h-4.4c-0.5,0-0.9-0.4-0.9-0.9v-9v9
	c0,0.5,0.4,0.9,0.9,0.9h4.4c0.3,0,0.6,0.2,0.8,0.5l1.2,2.9c0.1,0.3,0.5,0.5,0.8,0.5H720.2z M660.3,823.5h19.4H660.3z M722.3,824.2
	h4.5v-26h-4.8l-2.8-13.9h2.9l-0.2-4.7h-16h-4.4h-1.8c0,0-3.9,8.5-4.1,8.5h-4.1h4.1c0.2,0,4.1-8.5,4.1-8.5h1.8h4.4h16l0.2,4.7h-2.9
	l2.8,13.9h4.8v26H722.3z M622.3,799.9l-1,8.8L622.3,799.9z M672.4,799.7l-53.8-11.3l2.8-7.9h61.8h-61.9l-2.8,7.9L672.4,799.7z
	 M693.5,775.3L674,806.9l-65.4-14.4l6.3-17.6h78.9l3.3-5h25.3h-25.3l-3.3,5h-78.9l-6.3,17.6l65.4,14.4L693.5,775.3z M707.9,775.8
	v-2.4V775.8z M700.8,828.1c-4,0-7.3-3.2-7.3-7.3c0-4,3.2-7.3,7.3-7.3c4,0,7.3,3.2,7.3,7.3C708.1,824.9,704.8,828.1,700.8,828.1z
	 M700.8,803.9c-9.4,0-16.9,7.6-16.9,16.9c0,9.4,7.6,16.9,16.9,16.9c9.4,0,16.9-7.6,16.9-16.9C717.7,811.5,710.2,803.9,700.8,803.9z
	 M639.2,828.1c-4,0-7.3-3.2-7.3-7.3c0-4,3.2-7.3,7.3-7.3c4.1,0,7.3,3.2,7.3,7.3C646.5,824.9,643.2,828.1,639.2,828.1z M639.2,803.9
	c-9.4,0-16.9,7.6-16.9,16.9c0,9.4,7.6,16.9,16.9,16.9s16.9-7.6,16.9-16.9C656.2,811.5,648.6,803.9,639.2,803.9z"/>
<g>
	<path class="st1" d="M414.1,115.2v-10.7h7.6v2h-5.3v2.3h5.2v2h-5.2v2.5h5.3v2L414.1,115.2L414.1,115.2z"/>
	<path class="st1" d="M428.4,115.2l-1.8-2.7l-1.8,2.7h-2.3l2.8-4l-2.6-3.8h2.3l1.6,2.4l1.6-2.4h2.3l-2.7,3.8l2.8,4H428.4z"/>
	<path class="st1" d="M433.9,114.2v4h-2.1v-10.7h2.1v1c0.6-0.8,1.4-1.1,2.4-1.1c2,0,3.4,1.5,3.4,4.1c0,2.6-1.4,4.1-3.4,4.1
		C435.4,115.4,434.5,115,433.9,114.2z M437.7,111.3c0-1.3-0.8-2.3-2-2.3c-0.7,0-1.4,0.4-1.8,0.9v2.8c0.4,0.5,1.1,0.9,1.8,0.9
		C436.8,113.6,437.7,112.6,437.7,111.3z"/>
	<path class="st1" d="M446,115.2v-0.9c-0.6,0.7-1.4,1-2.5,1c-1.2,0-2.8-0.9-2.8-2.6c0-1.8,1.4-2.6,2.8-2.6c1,0,2,0.4,2.5,1v-1
		c0-0.8-0.7-1.3-1.7-1.3c-0.9,0-1.6,0.3-2.3,1l-0.8-1.3c1-0.9,2.2-1.2,3.4-1.2c1.8,0,3.4,0.7,3.4,2.9v5L446,115.2L446,115.2z
		 M446,113.3v-1c-0.4-0.5-1-0.7-1.6-0.7c-0.8,0-1.4,0.4-1.4,1.1c0,0.8,0.7,1.1,1.4,1.1C445,114.1,445.6,113.8,446,113.3z"/>
	<path class="st1" d="M455.3,115.2v-4.8c0-1-0.6-1.4-1.4-1.4c-0.8,0-1.4,0.5-1.8,1v5.2H450v-7.8h2.1v1c0.5-0.6,1.4-1.2,2.8-1.2
		c1.7,0,2.6,1,2.6,2.5v5.5L455.3,115.2L455.3,115.2z"/>
	<path class="st1" d="M458.7,114.2l0.9-1.4c0.6,0.6,1.7,1,2.7,1c0.9,0,1.3-0.4,1.3-0.9c0-1.3-4.7-0.3-4.7-3.3c0-1.3,1.1-2.5,3.2-2.5
		c1.3,0,2.4,0.5,3.1,1l-0.9,1.4c-0.5-0.5-1.3-1-2.3-1c-0.8,0-1.2,0.4-1.2,0.8c0,1.1,4.7,0.2,4.7,3.3c0,1.4-1.2,2.5-3.4,2.5
		C460.8,115.4,459.6,114.9,458.7,114.2z"/>
	<path class="st1" d="M466.9,105.3c0-0.7,0.6-1.2,1.2-1.2s1.2,0.6,1.2,1.2s-0.6,1.2-1.2,1.2S466.9,106,466.9,105.3z M467.1,115.2
		v-7.8h2.1v7.8H467.1z"/>
	<path class="st1" d="M470.7,111.3c0-2.2,1.5-4.1,4.1-4.1s4.2,1.9,4.2,4.1s-1.5,4.1-4.2,4.1C472.2,115.4,470.7,113.5,470.7,111.3z
		 M476.8,111.3c0-1.2-0.8-2.3-2-2.3s-2,1-2,2.3c0,1.2,0.7,2.3,2,2.3C476.1,113.6,476.8,112.5,476.8,111.3z"/>
	<path class="st1" d="M485.7,115.2v-4.8c0-1-0.6-1.4-1.4-1.4c-0.8,0-1.4,0.5-1.8,1v5.2h-2.1v-7.8h2.1v1c0.5-0.6,1.4-1.2,2.8-1.2
		c1.7,0,2.6,1,2.6,2.5v5.5L485.7,115.2L485.7,115.2z"/>
	<path class="st1" d="M493.4,111.3c0-2.2,1.5-4.1,4.1-4.1c2.6,0,4.2,1.9,4.2,4.1s-1.5,4.1-4.2,4.1
		C494.9,115.4,493.4,113.5,493.4,111.3z M499.6,111.3c0-1.2-0.8-2.3-2-2.3s-2,1-2,2.3c0,1.2,0.7,2.3,2,2.3
		C498.9,113.6,499.6,112.5,499.6,111.3z"/>
	<path class="st1" d="M503.7,115.2v-6h-1.3v-1.8h1.3V107c0-1.7,1-2.8,2.7-2.8c0.8,0,1.5,0.2,2,0.8l-0.8,1.2
		c-0.2-0.2-0.5-0.3-0.9-0.3c-0.6,0-1,0.4-1,1.1v0.4h1.6v1.8h-1.6v6L503.7,115.2L503.7,115.2z"/>
</g>
<g>
	<path class="st1" d="M422.5,127.5c0-3.3,2.5-5.6,5.7-5.6c2.4,0,3.7,1.3,4.5,2.7l-2,1c-0.5-0.9-1.4-1.5-2.6-1.5
		c-2,0-3.4,1.5-3.4,3.5c0,2,1.4,3.5,3.4,3.5c1.1,0,2.1-0.7,2.6-1.5l2,1c-0.8,1.3-2.1,2.7-4.5,2.7C425,133.1,422.5,130.8,422.5,127.5
		z"/>
	<path class="st1" d="M439,132.9V132c-0.6,0.7-1.4,1-2.5,1c-1.2,0-2.8-0.9-2.8-2.6c0-1.8,1.4-2.6,2.8-2.6c1,0,2,0.4,2.5,1v-1
		c0-0.8-0.7-1.3-1.7-1.3c-0.9,0-1.6,0.3-2.3,1l-0.8-1.3c1-0.9,2.2-1.2,3.4-1.2c1.8,0,3.4,0.7,3.4,2.9v5L439,132.9L439,132.9z
		 M439,131v-1c-0.4-0.5-1-0.7-1.6-0.7c-0.8,0-1.4,0.4-1.4,1.1s0.7,1.1,1.4,1.1C437.9,131.6,438.6,131.4,439,131z"/>
	<path class="st1" d="M445.1,131.8v4H443v-10.7h2.1v1c0.6-0.8,1.4-1.1,2.4-1.1c2,0,3.4,1.5,3.4,4.1c0,2.6-1.4,4.1-3.4,4.1
		C446.6,133.1,445.7,132.6,445.1,131.8z M448.9,128.9c0-1.3-0.8-2.3-2-2.3c-0.7,0-1.4,0.4-1.8,0.9v2.8c0.4,0.5,1.1,0.9,1.8,0.9
		C448,131.2,448.9,130.3,448.9,128.9z"/>
	<path class="st1" d="M457.2,132.9V132c-0.6,0.7-1.4,1-2.5,1c-1.2,0-2.8-0.9-2.8-2.6c0-1.8,1.4-2.6,2.8-2.6c1,0,2,0.4,2.5,1v-1
		c0-0.8-0.7-1.3-1.7-1.3c-0.9,0-1.6,0.3-2.3,1l-0.8-1.3c1-0.9,2.2-1.2,3.4-1.2c1.8,0,3.4,0.7,3.4,2.9v5L457.2,132.9L457.2,132.9z
		 M457.2,131v-1c-0.4-0.5-1-0.7-1.6-0.7c-0.8,0-1.4,0.4-1.4,1.1s0.7,1.1,1.4,1.1C456.2,131.6,456.8,131.4,457.2,131z"/>
	<path class="st1" d="M460.7,128.9c0-2.4,1.7-4.1,4.2-4.1c1.6,0,2.6,0.7,3,1.4l-1.3,1.2c-0.4-0.6-1-0.9-1.6-0.9
		c-1.2,0-2.1,1-2.1,2.3s0.9,2.3,2.1,2.3c0.7,0,1.2-0.3,1.6-0.9l1.3,1.2c-0.5,0.8-1.5,1.4-3,1.4C462.4,133.1,460.7,131.3,460.7,128.9
		z"/>
	<path class="st1" d="M469,123c0-0.7,0.6-1.2,1.2-1.2s1.2,0.6,1.2,1.2s-0.6,1.2-1.2,1.2S469,123.7,469,123z M469.3,132.9v-7.8h2.1
		v7.8H469.3z"/>
	<path class="st1" d="M473.8,130.9v-4.1h-1.3V125h1.3v-2.1h2.1v2.1h1.6v1.8h-1.6v3.5c0,0.5,0.3,0.9,0.7,0.9c0.3,0,0.6-0.1,0.7-0.2
		l0.5,1.5c-0.3,0.3-0.9,0.5-1.7,0.5C474.5,133.1,473.8,132.3,473.8,130.9z"/>
	<path class="st1" d="M478.7,123c0-0.7,0.6-1.2,1.2-1.2c0.7,0,1.2,0.6,1.2,1.2s-0.6,1.2-1.2,1.2C479.3,124.2,478.7,123.7,478.7,123z
		 M478.9,132.9v-7.8h2.1v7.8H478.9z"/>
	<path class="st1" d="M482.5,128.9c0-2.3,1.7-4.1,4-4.1s3.9,1.7,3.9,4.3v0.5h-5.8c0.1,1,1,1.8,2.3,1.8c0.7,0,1.6-0.3,2.1-0.8l1,1.3
		c-0.8,0.7-2,1-3.2,1C484.3,133.1,482.5,131.4,482.5,128.9z M486.5,126.5c-1.2,0-1.8,1-1.9,1.7h3.8
		C488.4,127.5,487.9,126.5,486.5,126.5z"/>
	<path class="st1" d="M491.2,131.8l0.9-1.4c0.6,0.6,1.7,1,2.7,1c0.9,0,1.3-0.4,1.3-0.9c0-1.3-4.7-0.3-4.7-3.3c0-1.3,1.1-2.5,3.2-2.5
		c1.3,0,2.4,0.5,3.1,1l-0.9,1.4c-0.5-0.5-1.3-1-2.3-1c-0.8,0-1.2,0.4-1.2,0.8c0,1.1,4.7,0.2,4.7,3.3c0,1.4-1.2,2.5-3.4,2.5
		C493.3,133.1,492.1,132.6,491.2,131.8z"/>
</g>
<g>
	<path class="st1" d="M488,329.1v-7.5l-3,7.5h-1l-3-7.5v7.5h-2.3v-10.7h3.2l2.7,6.6l2.7-6.6h3.2v10.7H488z"/>
	<path class="st1" d="M497.2,329.1v-0.9c-0.6,0.7-1.4,1-2.5,1c-1.2,0-2.8-0.9-2.8-2.6c0-1.8,1.4-2.6,2.8-2.6c1,0,2,0.4,2.5,1v-1
		c0-0.8-0.7-1.3-1.7-1.3c-0.9,0-1.6,0.3-2.3,1l-0.8-1.3c1-0.9,2.2-1.2,3.4-1.2c1.8,0,3.4,0.7,3.4,2.9v5H497.2z M497.2,327.3v-1
		c-0.4-0.5-1-0.7-1.6-0.7c-0.8,0-1.4,0.4-1.4,1.1c0,0.8,0.7,1.1,1.4,1.1C496.2,328,496.8,327.7,497.2,327.3z"/>
	<path class="st1" d="M501,319.3c0-0.7,0.6-1.2,1.2-1.2s1.2,0.6,1.2,1.2c0,0.7-0.6,1.2-1.2,1.2C501.6,320.5,501,320,501,319.3z
		 M501.2,329.1v-7.8h2.1v7.8H501.2z"/>
	<path class="st1" d="M510.6,329.1v-4.8c0-1-0.6-1.4-1.4-1.4c-0.8,0-1.4,0.5-1.8,1v5.2h-2.1v-7.8h2.1v1c0.5-0.6,1.4-1.2,2.8-1.2
		c1.7,0,2.6,1,2.6,2.5v5.5H510.6z"/>
	<path class="st1" d="M515.1,327.2v-4.1h-1.3v-1.8h1.3v-2.1h2.1v2.1h1.6v1.8h-1.6v3.5c0,0.5,0.3,0.9,0.7,0.9c0.3,0,0.6-0.1,0.7-0.2
		l0.5,1.5c-0.3,0.3-0.9,0.5-1.7,0.5C515.8,329.3,515.1,328.6,515.1,327.2z"/>
	<path class="st1" d="M524.9,329.1v-0.9c-0.6,0.7-1.4,1-2.5,1c-1.2,0-2.8-0.9-2.8-2.6c0-1.8,1.4-2.6,2.8-2.6c1,0,2,0.4,2.5,1v-1
		c0-0.8-0.7-1.3-1.7-1.3c-0.9,0-1.6,0.3-2.3,1l-0.8-1.3c1-0.9,2.2-1.2,3.4-1.2c1.8,0,3.4,0.7,3.4,2.9v5H524.9z M524.9,327.3v-1
		c-0.4-0.5-1-0.7-1.6-0.7c-0.8,0-1.4,0.4-1.4,1.1c0,0.8,0.7,1.1,1.4,1.1C523.9,328,524.6,327.7,524.9,327.3z"/>
	<path class="st1" d="M528.8,319.3c0-0.7,0.6-1.2,1.2-1.2c0.7,0,1.2,0.6,1.2,1.2c0,0.7-0.6,1.2-1.2,1.2
		C529.3,320.5,528.8,320,528.8,319.3z M529,329.1v-7.8h2.1v7.8H529z"/>
	<path class="st1" d="M538.3,329.1v-4.8c0-1-0.6-1.4-1.4-1.4c-0.8,0-1.4,0.5-1.8,1v5.2h-2.1v-7.8h2.1v1c0.5-0.6,1.4-1.2,2.8-1.2
		c1.7,0,2.6,1,2.6,2.5v5.5H538.3z"/>
	<path class="st1" d="M542.2,319.3c0-0.7,0.6-1.2,1.2-1.2s1.2,0.6,1.2,1.2c0,0.7-0.6,1.2-1.2,1.2C542.7,320.5,542.2,320,542.2,319.3
		z M542.3,329.1v-7.8h2.1v7.8H542.3z"/>
	<path class="st1" d="M551.8,329.1v-4.8c0-1-0.6-1.4-1.4-1.4c-0.8,0-1.4,0.5-1.8,1v5.2h-2.1v-7.8h2.1v1c0.5-0.6,1.4-1.2,2.8-1.2
		c1.7,0,2.6,1,2.6,2.5v5.5H551.8z"/>
	<path class="st1" d="M555.6,331.1l1-1.5c0.7,0.7,1.4,1,2.5,1s2.2-0.5,2.2-2v-0.7c-0.6,0.8-1.4,1.2-2.4,1.2c-2,0-3.4-1.3-3.4-4
		c0-2.6,1.4-4,3.4-4c1,0,1.8,0.4,2.4,1.2v-1h2.1v7.2c0,2.9-2.3,3.7-4.2,3.7C557.6,332.4,556.7,332,555.6,331.1z M561.2,326.4v-2.6
		c-0.4-0.5-1-0.9-1.8-0.9c-1.1,0-2,0.8-2,2.2c0,1.3,0.9,2.2,2,2.2C560.1,327.3,560.9,326.9,561.2,326.4z"/>
	<path class="st1" d="M574.1,329.1v-0.9c-0.6,0.7-1.4,1-2.5,1c-1.2,0-2.8-0.9-2.8-2.6c0-1.8,1.4-2.6,2.8-2.6c1,0,2,0.4,2.5,1v-1
		c0-0.8-0.7-1.3-1.7-1.3c-0.9,0-1.6,0.3-2.3,1l-0.8-1.3c1-0.9,2.2-1.2,3.4-1.2c1.8,0,3.4,0.7,3.4,2.9v5H574.1z M574.1,327.3v-1
		c-0.4-0.5-1-0.7-1.6-0.7c-0.8,0-1.4,0.4-1.4,1.1c0,0.8,0.7,1.1,1.4,1.1C573.1,328,573.8,327.7,574.1,327.3z"/>
</g>
<g>
	<path class="st1" d="M487.4,346.8v-10.7h5c2.4,0,3.6,1.6,3.6,3.5s-1.3,3.5-3.6,3.5h-2.8v3.8L487.4,346.8L487.4,346.8z M493.8,339.5
		c0-1-0.7-1.4-1.6-1.4h-2.5v2.9h2.5C493,340.9,493.8,340.4,493.8,339.5z"/>
	<path class="st1" d="M496.8,342.9c0-2.2,1.5-4.1,4.1-4.1c2.6,0,4.2,1.9,4.2,4.1c0,2.2-1.5,4.1-4.2,4.1
		C498.4,347,496.8,345.1,496.8,342.9z M502.9,342.9c0-1.2-0.8-2.3-2-2.3c-1.2,0-2,1-2,2.3c0,1.2,0.7,2.3,2,2.3
		C502.3,345.2,502.9,344.1,502.9,342.9z"/>
	<path class="st1" d="M506.6,346.8V339h2.1v1c0.6-0.7,1.5-1.2,2.5-1.2v2c-0.2,0-0.4-0.1-0.6-0.1c-0.7,0-1.6,0.4-1.9,0.9v5.1
		L506.6,346.8L506.6,346.8z"/>
	<path class="st1" d="M513.2,344.8v-4.1h-1.3v-1.8h1.3v-2.1h2.1v2.1h1.6v1.8h-1.6v3.5c0,0.5,0.3,0.9,0.7,0.9c0.3,0,0.6-0.1,0.7-0.2
		l0.5,1.5c-0.3,0.3-0.9,0.5-1.7,0.5C513.9,347,513.2,346.2,513.2,344.8z"/>
	<path class="st1" d="M519,346.8v-6h-1.3V339h1.3v-0.4c0-1.7,1-2.8,2.7-2.8c0.8,0,1.5,0.2,2,0.8l-0.8,1.2c-0.2-0.2-0.5-0.3-0.9-0.3
		c-0.6,0-1,0.4-1,1.1v0.4h1.6v1.8h-1.6v6L519,346.8L519,346.8z"/>
	<path class="st1" d="M523.3,342.9c0-2.2,1.5-4.1,4.1-4.1s4.2,1.9,4.2,4.1c0,2.2-1.5,4.1-4.2,4.1C524.9,347,523.3,345.1,523.3,342.9
		z M529.4,342.9c0-1.2-0.8-2.3-2-2.3c-1.2,0-2,1-2,2.3c0,1.2,0.7,2.3,2,2.3C528.7,345.1,529.4,344.1,529.4,342.9z"/>
	<path class="st1" d="M533,346.8v-10.7h2.1v10.7H533z"/>
	<path class="st1" d="M536.9,336.9c0-0.7,0.6-1.2,1.2-1.2s1.2,0.6,1.2,1.2c0,0.7-0.6,1.2-1.2,1.2S536.9,337.6,536.9,336.9z
		 M537.1,346.8V339h2.1v7.8H537.1z"/>
	<path class="st1" d="M540.6,342.9c0-2.2,1.5-4.1,4.1-4.1c2.6,0,4.2,1.9,4.2,4.1c0,2.2-1.5,4.1-4.2,4.1
		C542.3,347,540.6,345.1,540.6,342.9z M546.8,342.9c0-1.2-0.8-2.3-2-2.3c-1.2,0-2,1-2,2.3c0,1.2,0.7,2.3,2,2.3
		C546.1,345.1,546.8,344.1,546.8,342.9z"/>
	<path class="st1" d="M554.1,342.9c0-2.2,1.5-4.1,4.1-4.1s4.2,1.9,4.2,4.1c0,2.2-1.5,4.1-4.2,4.1C555.6,347,554.1,345.1,554.1,342.9
		z M560.2,342.9c0-1.2-0.8-2.3-2-2.3s-2,1-2,2.3c0,1.2,0.7,2.3,2,2.3C559.4,345.1,560.2,344.1,560.2,342.9z"/>
	<path class="st1" d="M564.3,346.8v-6H563V339h1.3v-0.4c0-1.7,1-2.8,2.7-2.8c0.8,0,1.5,0.2,2,0.8l-0.8,1.2c-0.2-0.2-0.5-0.3-0.9-0.3
		c-0.6,0-1,0.4-1,1.1v0.4h1.6v1.8h-1.6v6L564.3,346.8L564.3,346.8z"/>
</g>
<g>
	<path class="st1" d="M497.9,364.4v-7.5l-3,7.5h-1l-3-7.5v7.5h-2.3v-10.7h3.2l2.7,6.6l2.7-6.6h3.2v10.7H497.9z"/>
	<path class="st1" d="M502.2,354.5c0-0.7,0.6-1.2,1.2-1.2s1.2,0.6,1.2,1.2s-0.6,1.2-1.2,1.2C502.7,355.7,502.2,355.2,502.2,354.5z
		 M502.4,364.4v-7.8h2.1v7.8H502.4z"/>
	<path class="st1" d="M511.8,364.4v-4.8c0-1-0.6-1.4-1.4-1.4c-0.8,0-1.4,0.5-1.8,1v5.2h-2.1v-7.8h2.1v1c0.5-0.6,1.4-1.2,2.8-1.2
		c1.7,0,2.6,1,2.6,2.5v5.5H511.8z"/>
	<path class="st1" d="M515.4,360.5c0-2.3,1.7-4.1,4-4.1s3.9,1.7,3.9,4.3v0.5h-5.8c0.1,1,1,1.8,2.3,1.8c0.7,0,1.6-0.3,2.1-0.8l1,1.3
		c-0.8,0.7-2,1-3.2,1C517.2,364.6,515.4,363,515.4,360.5z M519.4,358c-1.2,0-1.8,1-1.9,1.7h3.8C521.3,359,520.7,358,519.4,358z"/>
	<path class="st1" d="M524.1,363.3l0.9-1.4c0.6,0.6,1.7,1,2.7,1c0.9,0,1.3-0.4,1.3-0.9c0-1.3-4.7-0.3-4.7-3.3c0-1.3,1.1-2.5,3.2-2.5
		c1.3,0,2.4,0.5,3.1,1l-0.9,1.4c-0.5-0.5-1.3-1-2.3-1c-0.8,0-1.2,0.4-1.2,0.8c0,1.1,4.7,0.2,4.7,3.3c0,1.4-1.2,2.5-3.4,2.5
		C526.2,364.6,524.9,364.1,524.1,363.3z"/>
	<path class="st1" d="M543.5,364.4l-1.6-5.3l-1.6,5.3h-2.2l-2.4-7.8h2.1l1.4,5.2l1.7-5.2h1.8l1.7,5.2l1.4-5.2h2.1l-2.4,7.8H543.5z"
		/>
	<path class="st1" d="M548.9,354.5c0-0.7,0.6-1.2,1.2-1.2c0.7,0,1.2,0.6,1.2,1.2s-0.6,1.2-1.2,1.2S548.9,355.2,548.9,354.5z
		 M549.1,364.4v-7.8h2.1v7.8H549.1z"/>
	<path class="st1" d="M553.6,362.5v-4.1h-1.3v-1.8h1.3v-2.1h2.1v2.1h1.6v1.8h-1.6v3.5c0,0.5,0.3,0.9,0.7,0.9c0.3,0,0.6-0.1,0.7-0.2
		l0.5,1.5c-0.3,0.3-0.9,0.5-1.7,0.5C554.3,364.6,553.6,363.8,553.6,362.5z"/>
	<path class="st1" d="M564,364.4v-4.8c0-1-0.6-1.4-1.4-1.4c-0.8,0-1.4,0.5-1.8,1v5.2h-2.1v-10.7h2.1v4c0.5-0.6,1.4-1.2,2.8-1.2
		c1.7,0,2.6,1,2.6,2.5v5.5L564,364.4L564,364.4z"/>
</g>
<g>
	<path class="st1" d="M494.9,382v-10.7h2.3v8.7h4.6v2L494.9,382L494.9,382z"/>
	<path class="st1" d="M502.7,378.1c0-2.2,1.5-4.1,4.1-4.1s4.2,1.9,4.2,4.1c0,2.2-1.5,4.1-4.2,4.1
		C504.3,382.2,502.7,380.3,502.7,378.1z M508.8,378.1c0-1.2-0.8-2.3-2-2.3s-2,1-2,2.3c0,1.2,0.7,2.3,2,2.3
		C508.1,380.3,508.8,379.3,508.8,378.1z"/>
	<path class="st1" d="M517.7,382v-4.8c0-1-0.6-1.4-1.4-1.4c-0.8,0-1.4,0.5-1.8,1v5.2h-2.1v-7.8h2.1v1c0.5-0.6,1.4-1.2,2.8-1.2
		c1.7,0,2.6,1,2.6,2.5v5.5H517.7z"/>
	<path class="st1" d="M521.7,384.1l1-1.5c0.7,0.7,1.4,1,2.5,1c1,0,2.2-0.5,2.2-2v-0.8c-0.6,0.8-1.4,1.2-2.4,1.2c-2,0-3.4-1.3-3.4-4
		c0-2.6,1.4-4,3.4-4c1,0,1.8,0.4,2.4,1.2v-1h2.1v7.2c0,2.9-2.3,3.7-4.2,3.7C523.7,385.2,522.7,384.9,521.7,384.1z M527.2,379.2v-2.6
		c-0.4-0.5-1-0.9-1.8-0.9c-1.1,0-2,0.8-2,2.2c0,1.3,0.9,2.2,2,2.2C526.2,380.2,526.9,379.8,527.2,379.2z"/>
	<path class="st1" d="M535.5,382v-10.7h2.3v8.7h4.6v2L535.5,382L535.5,382z"/>
	<path class="st1" d="M543.6,372.2c0-0.7,0.6-1.2,1.2-1.2c0.7,0,1.2,0.6,1.2,1.2c0,0.7-0.6,1.2-1.2,1.2
		C544.2,373.4,543.6,372.8,543.6,372.2z M543.8,382v-7.8h2.1v7.8H543.8z"/>
	<path class="st1" d="M548.3,382v-6H547v-1.8h1.3v-0.4c0-1.7,1-2.8,2.7-2.8c0.8,0,1.5,0.2,2,0.8l-0.8,1.2c-0.2-0.2-0.5-0.3-0.9-0.3
		c-0.6,0-1,0.4-1,1.1v0.4h1.6v1.8h-1.6v6L548.3,382L548.3,382z"/>
	<path class="st1" d="M552.6,378.1c0-2.3,1.7-4.1,4-4.1s3.9,1.7,3.9,4.3v0.5h-5.7c0.1,1,1,1.8,2.3,1.8c0.7,0,1.6-0.3,2.1-0.8l1,1.3
		c-0.8,0.7-2,1-3.2,1C554.4,382.2,552.6,380.6,552.6,378.1z M556.7,375.7c-1.2,0-1.8,1-1.9,1.7h3.8
		C558.6,376.6,558,375.7,556.7,375.7z"/>
</g>
<g>
	<path class="st1" d="M521.1,558l1.2-1.7c0.8,0.8,1.9,1.4,3.4,1.4c1.2,0,1.9-0.6,1.9-1.2c0-1.9-6.2-0.6-6.2-4.7
		c0-1.8,1.5-3.3,4.1-3.3c1.7,0,3.1,0.5,4.2,1.5l-1.2,1.7c-0.9-0.8-2-1.1-3.1-1.1c-1,0-1.5,0.5-1.5,1c0,1.7,6.2,0.6,6.2,4.6
		c0,2-1.4,3.4-4.3,3.4C523.5,559.7,522.1,559,521.1,558z"/>
	<path class="st1" d="M531.9,557.6v-4.1h-1.3v-1.8h1.3v-2.1h2.1v2.1h1.6v1.8h-1.7v3.5c0,0.5,0.3,0.9,0.7,0.9c0.3,0,0.6-0.1,0.7-0.2
		l0.5,1.5c-0.3,0.3-0.9,0.5-1.7,0.5C532.7,559.7,531.9,559,531.9,557.6z"/>
	<path class="st1" d="M537,559.5v-7.8h2.1v1c0.6-0.7,1.5-1.2,2.5-1.2v2c-0.2,0-0.4-0.1-0.6-0.1c-0.7,0-1.6,0.4-1.9,0.9v5.1
		L537,559.5L537,559.5z"/>
	<path class="st1" d="M542.3,555.6c0-2.3,1.7-4.1,4-4.1s3.9,1.7,3.9,4.3v0.5h-5.8c0.1,1,1,1.8,2.3,1.8c0.7,0,1.6-0.3,2.1-0.8l1,1.3
		c-0.8,0.7-2,1-3.2,1C544.2,559.7,542.3,558.2,542.3,555.6z M546.3,553.2c-1.2,0-1.8,1-1.9,1.7h3.8
		C548.2,554.2,547.8,553.2,546.3,553.2z"/>
	<path class="st1" d="M557.1,559.5v-4.8c0-1-0.6-1.4-1.4-1.4c-0.8,0-1.4,0.5-1.8,1v5.2h-2.1v-7.8h2.1v1c0.5-0.6,1.4-1.2,2.8-1.2
		c1.7,0,2.6,1,2.6,2.5v5.5L557.1,559.5L557.1,559.5z"/>
	<path class="st1" d="M561,561.5l1-1.5c0.7,0.7,1.4,1,2.5,1s2.2-0.5,2.2-2v-0.8c-0.6,0.8-1.4,1.2-2.4,1.2c-2,0-3.4-1.3-3.4-4
		c0-2.6,1.4-4,3.4-4c1,0,1.8,0.4,2.4,1.2v-1h2.1v7.2c0,2.9-2.3,3.7-4.2,3.7C563,562.8,562,562.4,561,561.5z M566.5,556.8v-2.6
		c-0.4-0.5-1-0.9-1.8-0.9c-1.1,0-2,0.8-2,2.2s0.9,2.2,2,2.2C565.4,557.7,566.2,557.3,566.5,556.8z"/>
	<path class="st1" d="M571.1,557.6v-4.1h-1.3v-1.8h1.3v-2.1h2.1v2.1h1.6v1.8h-1.6v3.5c0,0.5,0.3,0.9,0.7,0.9c0.3,0,0.6-0.1,0.7-0.2
		l0.5,1.5c-0.3,0.3-0.9,0.5-1.7,0.5C571.9,559.7,571.1,559,571.1,557.6z"/>
	<path class="st1" d="M581.6,559.5v-4.8c0-1-0.6-1.4-1.4-1.4c-0.8,0-1.4,0.5-1.8,1v5.2h-2.1v-10.7h2.1v4c0.5-0.6,1.4-1.2,2.8-1.2
		c1.7,0,2.6,1,2.6,2.5v5.5H581.6z"/>
	<path class="st1" d="M585.1,555.6c0-2.3,1.7-4.1,4-4.1s3.9,1.7,3.9,4.3v0.5h-5.8c0.1,1,1,1.8,2.3,1.8c0.7,0,1.6-0.3,2.1-0.8l1,1.3
		c-0.8,0.7-2,1-3.2,1C586.9,559.7,585.1,558.2,585.1,555.6z M589.2,553.2c-1.2,0-1.8,1-1.9,1.7h3.8
		C591.1,554.2,590.5,553.2,589.2,553.2z"/>
	<path class="st1" d="M599.8,559.5v-4.8c0-1-0.6-1.4-1.4-1.4c-0.8,0-1.4,0.5-1.8,1v5.2h-2.1v-7.8h2.1v1c0.5-0.6,1.4-1.2,2.8-1.2
		c1.7,0,2.6,1,2.6,2.5v5.5L599.8,559.5L599.8,559.5z"/>
</g>
<g>
	<path class="st1" d="M503,571.8c0-3.3,2.5-5.6,5.7-5.6c2.4,0,3.7,1.3,4.5,2.7l-2,1c-0.5-0.9-1.4-1.5-2.6-1.5c-2,0-3.4,1.5-3.4,3.5
		c0,2,1.4,3.5,3.4,3.5c1.1,0,2.1-0.7,2.6-1.5l2,1c-0.8,1.3-2.1,2.7-4.5,2.7C505.5,577.4,503,575.1,503,571.8z"/>
	<path class="st1" d="M514.1,573.3c0-2.2,1.5-4.1,4.1-4.1c2.6,0,4.2,1.9,4.2,4.1s-1.5,4.1-4.2,4.1
		C515.7,577.4,514.1,575.5,514.1,573.3z M520.3,573.3c0-1.2-0.8-2.3-2-2.3c-1.2,0-2,1-2,2.3s0.7,2.3,2,2.3
		C519.6,575.6,520.3,574.5,520.3,573.3z"/>
	<path class="st1" d="M523.3,576.1l0.9-1.4c0.6,0.6,1.7,1,2.7,1c0.9,0,1.3-0.4,1.3-0.9c0-1.3-4.7-0.3-4.7-3.3c0-1.3,1.1-2.5,3.2-2.5
		c1.3,0,2.4,0.5,3.1,1l-0.9,1.4c-0.5-0.5-1.3-1-2.3-1c-0.8,0-1.2,0.4-1.2,0.8c0,1.1,4.7,0.2,4.7,3.3c0,1.4-1.2,2.5-3.4,2.5
		C525.3,577.4,524.1,576.9,523.3,576.1z"/>
	<path class="st1" d="M532.2,575.2v-4.1h-1.3v-1.8h1.3v-2.1h2.1v2.1h1.6v1.8h-1.6v3.5c0,0.5,0.3,0.9,0.7,0.9c0.3,0,0.6-0.1,0.7-0.2
		l0.5,1.5c-0.3,0.3-0.9,0.5-1.7,0.5C532.9,577.4,532.2,576.6,532.2,575.2z"/>
	<path class="st1" d="M541.4,577.2v-10.8h2.3v8.7h4.6v2L541.4,577.2L541.4,577.2z"/>
	<path class="st1" d="M549.2,573.3c0-2.3,1.7-4.1,4-4.1c2.3,0,3.9,1.7,3.9,4.3v0.5h-5.8c0.1,1,1,1.8,2.3,1.8c0.7,0,1.6-0.3,2.1-0.8
		l1,1.3c-0.8,0.7-2,1-3.2,1C551,577.4,549.2,575.8,549.2,573.3z M553.3,570.8c-1.2,0-1.8,1-1.9,1.7h3.8
		C555.1,571.8,554.6,570.8,553.3,570.8z"/>
	<path class="st1" d="M563.3,577.2v-0.8c-0.6,0.7-1.4,1-2.5,1c-1.2,0-2.8-0.9-2.8-2.6c0-1.8,1.4-2.6,2.8-2.6c1,0,2,0.4,2.5,1v-1
		c0-0.8-0.7-1.3-1.7-1.3c-0.9,0-1.6,0.3-2.3,1l-0.8-1.3c1-0.9,2.2-1.2,3.4-1.2c1.8,0,3.4,0.7,3.4,2.9v5L563.3,577.2L563.3,577.2z
		 M563.3,575.3v-1c-0.4-0.5-1-0.7-1.6-0.7c-0.8,0-1.4,0.4-1.4,1.1s0.7,1.1,1.4,1.1C562.4,576,563.1,575.8,563.3,575.3z"/>
	<path class="st1" d="M572.8,577.2v-1c-0.6,0.8-1.4,1.2-2.4,1.2c-2,0-3.4-1.5-3.4-4.1s1.4-4.1,3.4-4.1c1,0,1.8,0.4,2.4,1.2v-4.1h2.1
		v10.7L572.8,577.2L572.8,577.2z M572.8,574.6v-2.8c-0.4-0.5-1-0.9-1.8-0.9c-1.1,0-2,1-2,2.3s0.9,2.3,2,2.3
		C571.7,575.6,572.5,575.2,572.8,574.6z"/>
	<path class="st1" d="M576.5,573.3c0-2.3,1.7-4.1,4-4.1s3.9,1.7,3.9,4.3v0.5h-5.8c0.1,1,1,1.8,2.3,1.8c0.7,0,1.6-0.3,2.1-0.8l1,1.3
		c-0.8,0.7-2,1-3.2,1C578.3,577.4,576.5,575.8,576.5,573.3z M580.4,570.8c-1.2,0-1.8,1-1.9,1.7h3.8
		C582.3,571.8,581.9,570.8,580.4,570.8z"/>
	<path class="st1" d="M585.9,577.2v-7.8h2.1v1c0.6-0.7,1.5-1.2,2.5-1.2v2c-0.2,0-0.4-0.1-0.6-0.1c-0.7,0-1.6,0.4-1.9,0.9v5.1
		L585.9,577.2L585.9,577.2z"/>
	<path class="st1" d="M591.2,576.1l0.9-1.4c0.6,0.6,1.7,1,2.7,1c0.9,0,1.3-0.4,1.3-0.9c0-1.3-4.7-0.3-4.7-3.3c0-1.3,1.1-2.5,3.2-2.5
		c1.3,0,2.4,0.5,3.1,1l-0.9,1.4c-0.5-0.5-1.3-1-2.3-1c-0.8,0-1.2,0.4-1.2,0.8c0,1.1,4.7,0.2,4.7,3.3c0,1.4-1.2,2.5-3.4,2.5
		C593.3,577.4,591.9,576.9,591.2,576.1z"/>
	<path class="st1" d="M604.9,577.2v-4.8c0-1-0.6-1.4-1.4-1.4c-0.8,0-1.4,0.5-1.8,1v5.2h-2.1v-10.8h2.1v4c0.5-0.6,1.4-1.2,2.8-1.2
		c1.7,0,2.6,1,2.6,2.5v5.5L604.9,577.2L604.9,577.2z"/>
	<path class="st1" d="M608.7,567.3c0-0.7,0.6-1.2,1.2-1.2s1.2,0.6,1.2,1.2s-0.6,1.2-1.2,1.2S608.7,568,608.7,567.3z M608.8,577.2
		v-7.8h2.1v7.8H608.8z"/>
	<path class="st1" d="M615,576.1v4h-2.1v-10.7h2.1v1c0.6-0.8,1.4-1.1,2.4-1.1c2,0,3.4,1.5,3.4,4.1s-1.4,4.1-3.4,4.1
		C616.5,577.4,615.7,577,615,576.1z M618.7,573.3c0-1.3-0.8-2.3-2-2.3c-0.7,0-1.4,0.4-1.8,0.9v2.8c0.4,0.5,1.1,0.9,1.8,0.9
		C618,575.6,618.7,574.6,618.7,573.3z"/>
</g>
<g>
	<path class="st1" d="M354.9,735.8v-10.7h7.6v2h-5.3v2.3h5.2v2h-5.2v2.5h5.3v2H354.9L354.9,735.8z"/>
	<path class="st1" d="M369.3,735.8l-1.8-2.7l-1.8,2.7h-2.3l2.8-4l-2.6-3.8h2.3l1.6,2.4l1.6-2.4h2.3l-2.7,3.8l2.8,4H369.3z"/>
	<path class="st1" d="M374.8,734.9v4h-2.1v-10.7h2.1v1c0.6-0.8,1.4-1.1,2.4-1.1c2,0,3.4,1.5,3.4,4.1c0,2.6-1.4,4.1-3.4,4.1
		C376.3,736,375.4,735.7,374.8,734.9z M378.5,732c0-1.3-0.8-2.3-2-2.3c-0.7,0-1.4,0.4-1.8,0.9v2.8c0.4,0.5,1.1,0.9,1.8,0.9
		C377.7,734.2,378.5,733.3,378.5,732z"/>
	<path class="st1" d="M386.8,735.8v-0.8c-0.6,0.7-1.4,1-2.5,1c-1.2,0-2.8-0.9-2.8-2.6c0-1.8,1.4-2.6,2.8-2.6c1,0,2,0.4,2.5,1v-1
		c0-0.8-0.7-1.3-1.7-1.3c-0.9,0-1.6,0.3-2.3,1l-0.8-1.3c1-0.9,2.2-1.2,3.4-1.2c1.8,0,3.4,0.7,3.4,2.9v5L386.8,735.8L386.8,735.8z
		 M386.8,733.9v-1c-0.4-0.5-1-0.7-1.6-0.7c-0.8,0-1.4,0.4-1.4,1.1s0.7,1.1,1.4,1.1C385.9,734.7,386.5,734.4,386.8,733.9z"/>
	<path class="st1" d="M396.1,735.8v-4.8c0-1-0.6-1.4-1.4-1.4c-0.8,0-1.4,0.5-1.8,1v5.2h-2.1v-7.8h2.1v1c0.5-0.6,1.4-1.2,2.8-1.2
		c1.7,0,2.6,1,2.6,2.5v5.5H396.1L396.1,735.8z"/>
	<path class="st1" d="M399.7,734.8l0.9-1.4c0.6,0.6,1.7,1,2.7,1c0.9,0,1.3-0.4,1.3-0.9c0-1.3-4.7-0.3-4.7-3.3c0-1.3,1.1-2.5,3.2-2.5
		c1.3,0,2.4,0.5,3.1,1l-0.9,1.4c-0.5-0.5-1.3-1-2.3-1c-0.8,0-1.2,0.4-1.2,0.8c0,1.1,4.7,0.2,4.7,3.3c0,1.4-1.2,2.5-3.4,2.5
		C401.7,736,400.4,735.6,399.7,734.8z"/>
	<path class="st1" d="M407.8,726c0-0.7,0.6-1.2,1.2-1.2c0.7,0,1.2,0.6,1.2,1.2s-0.6,1.2-1.2,1.2S407.8,726.6,407.8,726z M408,735.8
		v-7.8h2.1v7.8H408z"/>
	<path class="st1" d="M411.5,732c0-2.2,1.5-4.1,4.1-4.1s4.2,1.9,4.2,4.1c0,2.2-1.5,4.1-4.2,4.1C413.1,736,411.5,734.2,411.5,732z
		 M417.7,732c0-1.2-0.8-2.3-2-2.3s-2,1-2,2.3s0.7,2.3,2,2.3S417.7,733.2,417.7,732z"/>
	<path class="st1" d="M426.6,735.8v-4.8c0-1-0.6-1.4-1.4-1.4c-0.8,0-1.4,0.5-1.8,1v5.2h-2.1v-7.8h2.1v1c0.5-0.6,1.4-1.2,2.8-1.2
		c1.7,0,2.6,1,2.6,2.5v5.5H426.6L426.6,735.8z"/>
	<path class="st1" d="M434.3,732c0-2.2,1.5-4.1,4.1-4.1s4.2,1.9,4.2,4.1c0,2.2-1.5,4.1-4.2,4.1C435.8,736,434.3,734.2,434.3,732z
		 M440.4,732c0-1.2-0.8-2.3-2-2.3s-2,1-2,2.3s0.7,2.3,2,2.3C439.7,734.2,440.4,733.2,440.4,732z"/>
	<path class="st1" d="M444.6,735.8v-6h-1.3v-1.8h1.3v-0.4c0-1.7,1-2.8,2.7-2.8c0.8,0,1.5,0.2,2,0.8l-0.8,1.2
		c-0.2-0.2-0.5-0.3-0.9-0.3c-0.6,0-1,0.4-1,1.1v0.4h1.6v1.8h-1.6v6L444.6,735.8L444.6,735.8z"/>
	<path class="st1" d="M453.5,735.8v-10.7h5c2.4,0,3.6,1.6,3.6,3.5c0,1.9-1.3,3.5-3.6,3.5h-2.8v3.8L453.5,735.8L453.5,735.8z
		 M459.9,728.5c0-1-0.7-1.4-1.6-1.4h-2.5v2.9h2.5C459.2,730.1,459.9,729.5,459.9,728.5z"/>
	<path class="st1" d="M463.5,735.8v-7.8h2.1v1c0.6-0.7,1.5-1.2,2.5-1.2v2c-0.2,0-0.4-0.1-0.6-0.1c-0.7,0-1.6,0.4-1.9,0.9v5.1
		L463.5,735.8L463.5,735.8z"/>
	<path class="st1" d="M468.8,732c0-2.2,1.5-4.1,4.1-4.1s4.2,1.9,4.2,4.1c0,2.2-1.5,4.1-4.2,4.1C470.3,736,468.8,734.2,468.8,732z
		 M474.9,732c0-1.2-0.8-2.3-2-2.3s-2,1-2,2.3s0.7,2.3,2,2.3C474.1,734.2,474.9,733.2,474.9,732z"/>
	<path class="st1" d="M484,735.8v-1c-0.6,0.8-1.4,1.2-2.4,1.2c-2,0-3.4-1.5-3.4-4.1c0-2.6,1.4-4.1,3.4-4.1c1,0,1.8,0.4,2.4,1.2v-4
		h2.1v10.7H484z M484,733.4v-2.8c-0.4-0.5-1-0.9-1.8-0.9c-1.1,0-2,1-2,2.3c0,1.3,0.9,2.3,2,2.3C482.9,734.2,483.6,733.9,484,733.4z"
		/>
	<path class="st1" d="M493.3,735.8v-1c-0.6,0.6-1.4,1.1-2.8,1.1c-1.7,0-2.6-1-2.6-2.5v-5.5h2.1v4.8c0,1,0.6,1.4,1.4,1.4
		c0.8,0,1.4-0.5,1.8-0.9v-5.3h2.1v7.8L493.3,735.8L493.3,735.8z"/>
	<path class="st1" d="M496.9,732c0-2.4,1.7-4.1,4.2-4.1c1.6,0,2.6,0.7,3,1.4l-1.3,1.2c-0.4-0.6-1-0.9-1.6-0.9c-1.2,0-2.1,1-2.1,2.3
		c0,1.3,0.9,2.3,2.1,2.3c0.7,0,1.2-0.3,1.6-0.9l1.3,1.2c-0.5,0.8-1.5,1.4-3,1.4C498.6,736,496.9,734.3,496.9,732z"/>
	<path class="st1" d="M506.2,733.9v-4.1h-1.3v-1.8h1.3V726h2.1v2.1h1.6v1.8h-1.6v3.5c0,0.5,0.3,0.9,0.7,0.9c0.3,0,0.6-0.1,0.7-0.2
		l0.5,1.5c-0.3,0.3-0.9,0.5-1.7,0.5C507,736,506.2,735.3,506.2,733.9z"/>
</g>
<g>
	<path class="st1" d="M370.5,753.5v-10.7h5c2.4,0,3.6,1.6,3.6,3.5s-1.3,3.5-3.6,3.5h-2.8v3.8L370.5,753.5L370.5,753.5z M376.8,746.2
		c0-1-0.7-1.4-1.6-1.4h-2.5v2.9h2.5C376.1,747.6,376.8,747.1,376.8,746.2z"/>
	<path class="st1" d="M379.8,749.5c0-2.2,1.5-4.1,4.1-4.1s4.2,1.9,4.2,4.1s-1.5,4.1-4.2,4.1C381.4,753.7,379.8,751.8,379.8,749.5z
		 M386,749.5c0-1.2-0.8-2.3-2-2.3s-2,1-2,2.3s0.7,2.3,2,2.3C385.3,751.8,386,750.8,386,749.5z"/>
	<path class="st1" d="M389.6,753.5v-7.8h2.1v1c0.6-0.7,1.5-1.2,2.5-1.2v2c-0.2,0-0.4-0.1-0.6-0.1c-0.7,0-1.6,0.4-1.9,0.9v5.1
		L389.6,753.5L389.6,753.5z"/>
	<path class="st1" d="M396.1,751.5v-4.1h-1.3v-1.8h1.3v-2.1h2.1v2.1h1.6v1.8h-1.6v3.5c0,0.5,0.3,0.9,0.7,0.9c0.3,0,0.6-0.1,0.7-0.2
		l0.5,1.5c-0.3,0.3-0.9,0.5-1.7,0.5C397,753.7,396.1,752.9,396.1,751.5z"/>
	<path class="st1" d="M401.9,753.5v-6h-1.3v-1.8h1.3v-0.4c0-1.7,1-2.8,2.7-2.8c0.8,0,1.5,0.2,2,0.8l-0.8,1.2
		c-0.2-0.2-0.5-0.3-0.9-0.3c-0.6,0-1,0.4-1,1.1v0.4h1.6v1.8H404v6L401.9,753.5L401.9,753.5z"/>
	<path class="st1" d="M406.3,749.5c0-2.2,1.5-4.1,4.1-4.1c2.6,0,4.2,1.9,4.2,4.1s-1.5,4.1-4.2,4.1
		C407.8,753.7,406.3,751.8,406.3,749.5z M412.4,749.5c0-1.2-0.8-2.3-2-2.3c-1.2,0-2,1-2,2.3s0.7,2.3,2,2.3
		C411.7,751.8,412.4,750.8,412.4,749.5z"/>
	<path class="st1" d="M416.1,753.5v-10.7h2.1v10.7H416.1z"/>
	<path class="st1" d="M420,743.6c0-0.7,0.6-1.2,1.2-1.2c0.7,0,1.2,0.6,1.2,1.2c0,0.7-0.6,1.2-1.2,1.2
		C420.6,744.9,420,744.3,420,743.6z M420.2,753.5v-7.8h2.1v7.8H420.2z"/>
	<path class="st1" d="M423.7,749.5c0-2.2,1.5-4.1,4.1-4.1c2.6,0,4.2,1.9,4.2,4.1s-1.5,4.1-4.2,4.1
		C425.3,753.7,423.7,751.8,423.7,749.5z M429.9,749.5c0-1.2-0.8-2.3-2-2.3c-1.2,0-2,1-2,2.3s0.7,2.3,2,2.3
		C429.1,751.8,429.9,750.8,429.9,749.5z"/>
	<path class="st1" d="M438,751.5v-4.1h-1.3v-1.8h1.3v-2.1h2.1v2.1h1.6v1.8h-1.6v3.5c0,0.5,0.3,0.9,0.7,0.9c0.3,0,0.6-0.1,0.7-0.2
		l0.5,1.5c-0.3,0.3-0.9,0.5-1.7,0.5C438.8,753.7,438,752.9,438,751.5z"/>
	<path class="st1" d="M448.5,753.5v-4.8c0-1-0.6-1.4-1.4-1.4c-0.8,0-1.4,0.5-1.8,1v5.2h-2.1v-10.7h2.1v4c0.5-0.6,1.4-1.2,2.8-1.2
		c1.7,0,2.6,1,2.6,2.5v5.5H448.5z"/>
	<path class="st1" d="M452.6,753.5v-7.8h2.1v1c0.6-0.7,1.5-1.2,2.5-1.2v2c-0.2,0-0.4-0.1-0.6-0.1c-0.7,0-1.6,0.4-1.9,0.9v5.1
		L452.6,753.5L452.6,753.5z"/>
	<path class="st1" d="M457.9,749.5c0-2.2,1.5-4.1,4.1-4.1s4.2,1.9,4.2,4.1s-1.5,4.1-4.2,4.1C459.4,753.7,457.9,751.8,457.9,749.5z
		 M464,749.5c0-1.2-0.8-2.3-2-2.3c-1.2,0-2,1-2,2.3s0.7,2.3,2,2.3S464,750.8,464,749.5z"/>
	<path class="st1" d="M472.9,753.5v-1c-0.6,0.6-1.4,1.1-2.8,1.1c-1.7,0-2.6-1-2.6-2.5v-5.5h2.1v4.8c0,1,0.6,1.4,1.4,1.4
		c0.8,0,1.4-0.5,1.8-0.9v-5.3h2.1v7.8L472.9,753.5L472.9,753.5z"/>
	<path class="st1" d="M476.9,755.5l1-1.5c0.7,0.7,1.4,1,2.5,1c1,0,2.2-0.5,2.2-2v-0.8c-0.6,0.8-1.4,1.2-2.4,1.2c-2,0-3.4-1.3-3.4-4
		c0-2.6,1.4-4,3.4-4c1,0,1.8,0.4,2.4,1.2v-1h2.1v7.2c0,2.9-2.3,3.7-4.2,3.7C478.9,756.7,477.8,756.4,476.9,755.5z M482.4,750.8v-2.6
		c-0.4-0.5-1-0.9-1.8-0.9c-1.1,0-2,0.8-2,2.2s0.9,2.2,2,2.2C481.3,751.6,482,751.2,482.4,750.8z"/>
	<path class="st1" d="M491.8,753.5v-4.8c0-1-0.6-1.4-1.4-1.4c-0.8,0-1.4,0.5-1.8,1v5.2h-2.1v-10.7h2.1v4c0.5-0.6,1.4-1.2,2.8-1.2
		c1.7,0,2.6,1,2.6,2.5v5.5H491.8z"/>
</g>
<g>
	<path class="st1" d="M396.9,765.7c0-3.3,2.5-5.6,5.7-5.6c2.4,0,3.7,1.3,4.5,2.7l-2,1c-0.5-0.9-1.4-1.5-2.6-1.5
		c-2,0-3.4,1.5-3.4,3.5c0,2,1.4,3.5,3.4,3.5c1.1,0,2.1-0.7,2.6-1.5l2,1c-0.8,1.3-2.1,2.7-4.5,2.7C399.4,771.3,396.9,769,396.9,765.7
		z"/>
	<path class="st1" d="M413.6,771.1v-1c-0.6,0.6-1.4,1.1-2.8,1.1c-1.7,0-2.6-1-2.6-2.5v-5.5h2.1v4.8c0,1,0.6,1.4,1.4,1.4
		c0.8,0,1.4-0.5,1.8-0.9v-5.3h2.1v7.8L413.6,771.1L413.6,771.1z"/>
	<path class="st1" d="M417.1,770l0.9-1.4c0.6,0.6,1.7,1,2.7,1c0.9,0,1.3-0.4,1.3-0.9c0-1.3-4.7-0.3-4.7-3.3c0-1.3,1.1-2.5,3.2-2.5
		c1.3,0,2.4,0.5,3.1,1l-0.9,1.4c-0.5-0.5-1.3-1-2.3-1c-0.8,0-1.2,0.4-1.2,0.8c0,1.1,4.7,0.2,4.7,3.3c0,1.4-1.2,2.5-3.4,2.5
		C419.2,771.3,417.9,770.8,417.1,770z"/>
	<path class="st1" d="M426,769.2v-4.1h-1.3v-1.8h1.3v-2.2h2.1v2.1h1.6v1.8h-1.6v3.5c0,0.5,0.3,0.9,0.7,0.9c0.3,0,0.6-0.1,0.7-0.2
		l0.5,1.5c-0.3,0.3-0.9,0.5-1.7,0.5C426.7,771.3,426,770.5,426,769.2z"/>
	<path class="st1" d="M430.5,767.2c0-2.2,1.5-4.1,4.1-4.1c2.6,0,4.2,1.9,4.2,4.1s-1.5,4.1-4.2,4.1
		C432.1,771.3,430.5,769.4,430.5,767.2z M436.7,767.2c0-1.2-0.8-2.3-2-2.3s-2,1-2,2.3s0.7,2.3,2,2.3
		C436,769.5,436.7,768.4,436.7,767.2z"/>
	<path class="st1" d="M450,771.1v-4.9c0-0.8-0.3-1.2-1.1-1.2c-0.8,0-1.3,0.5-1.6,1v5.2h-2.1v-4.9c0-0.8-0.3-1.2-1.1-1.2
		c-0.7,0-1.3,0.5-1.6,1v5.2h-2.1v-7.8h2.1v1c0.3-0.5,1.3-1.2,2.6-1.2c1.1,0,1.9,0.6,2.2,1.4c0.5-0.7,1.5-1.4,2.7-1.4
		c1.4,0,2.3,0.8,2.3,2.4v5.6H450z"/>
	<path class="st1" d="M453.6,767.2c0-2.3,1.7-4.1,4-4.1s3.9,1.7,3.9,4.3v0.5h-5.8c0.1,1,1,1.8,2.3,1.8c0.7,0,1.6-0.3,2.1-0.8l1,1.3
		c-0.8,0.7-2,1-3.2,1C455.4,771.3,453.6,769.7,453.6,767.2z M457.6,764.7c-1.2,0-1.8,1-1.9,1.7h3.8
		C459.5,765.7,459,764.7,457.6,764.7z"/>
	<path class="st1" d="M463,771.1v-7.8h2.1v1c0.6-0.7,1.5-1.2,2.5-1.2v2c-0.2,0-0.4-0.1-0.6-0.1c-0.7,0-1.6,0.4-1.9,0.9v5.1
		L463,771.1L463,771.1z"/>
</g>
<g>
	<path class="st1" d="M397.1,783.3c0-3.3,2.5-5.6,5.7-5.6c2.4,0,3.7,1.3,4.5,2.7l-2,1c-0.5-0.9-1.4-1.5-2.6-1.5
		c-2,0-3.4,1.5-3.4,3.5s1.4,3.5,3.4,3.5c1.1,0,2.1-0.7,2.6-1.5l2,1c-0.8,1.3-2.1,2.7-4.5,2.7C399.7,788.9,397.1,786.7,397.1,783.3z"
		/>
	<path class="st1" d="M408.3,784.8c0-2.3,1.7-4.1,4-4.1c2.3,0,3.9,1.7,3.9,4.3v0.5h-5.8c0.1,1,1,1.8,2.3,1.8c0.7,0,1.6-0.3,2.1-0.8
		l1,1.3c-0.8,0.7-2,1-3.2,1C410.1,788.9,408.3,787.3,408.3,784.8z M412.3,782.3c-1.2,0-1.8,1-1.9,1.7h3.8
		C414.2,783.3,413.7,782.3,412.3,782.3z"/>
	<path class="st1" d="M423,788.7v-4.8c0-1-0.6-1.4-1.4-1.4c-0.8,0-1.4,0.5-1.8,1v5.2h-2.1v-7.8h2.1v1c0.5-0.6,1.4-1.2,2.8-1.2
		c1.7,0,2.6,1,2.6,2.5v5.5L423,788.7L423,788.7z"/>
	<path class="st1" d="M427.5,786.8v-4.1h-1.3v-1.8h1.3v-2.1h2.1v2.1h1.6v1.8h-1.6v3.5c0,0.5,0.3,0.9,0.7,0.9c0.3,0,0.6-0.1,0.7-0.2
		l0.5,1.5c-0.3,0.3-0.9,0.5-1.7,0.5C428.2,788.9,427.5,788.2,427.5,786.8z"/>
	<path class="st1" d="M432.7,788.7v-7.8h2.1v1c0.6-0.7,1.5-1.2,2.5-1.2v2c-0.2,0-0.4-0.1-0.6-0.1c-0.7,0-1.6,0.4-1.9,0.9v5.1
		L432.7,788.7L432.7,788.7z"/>
	<path class="st1" d="M438.2,778.9c0-0.7,0.6-1.2,1.2-1.2s1.2,0.6,1.2,1.2s-0.6,1.2-1.2,1.2C438.8,780,438.2,779.5,438.2,778.9z
		 M438.4,788.7v-7.8h2.1v7.8H438.4z"/>
	<path class="st1" d="M441.9,784.8c0-2.4,1.7-4.1,4.2-4.1c1.6,0,2.6,0.7,3,1.4l-1.3,1.2c-0.4-0.6-1-0.9-1.6-0.9
		c-1.2,0-2.1,1-2.1,2.3s0.9,2.3,2.1,2.3c0.7,0,1.2-0.3,1.6-0.9l1.3,1.2c-0.5,0.8-1.5,1.4-3,1.4C443.7,788.9,441.9,787.2,441.9,784.8
		z"/>
	<path class="st1" d="M450.3,778.9c0-0.7,0.6-1.2,1.2-1.2s1.2,0.6,1.2,1.2s-0.6,1.2-1.2,1.2C450.9,780,450.3,779.5,450.3,778.9z
		 M450.5,788.7v-7.8h2.1v7.8H450.5z"/>
	<path class="st1" d="M454.9,786.8v-4.1h-1.3v-1.8h1.3v-2.1h2.1v2.1h1.6v1.8H457v3.5c0,0.5,0.3,0.9,0.7,0.9c0.3,0,0.6-0.1,0.7-0.2
		l0.5,1.5c-0.3,0.3-0.9,0.5-1.7,0.5C455.7,788.9,454.9,788.2,454.9,786.8z"/>
	<path class="st1" d="M460.5,789.9c0.2,0.1,0.5,0.1,0.7,0.1c0.6,0,0.9-0.2,1-0.6l0.3-0.7l-3.1-7.9h2.2l2,5.4l2-5.4h2.2L464,790
		c-0.6,1.4-1.6,1.9-2.9,1.9c-0.3,0-0.8-0.1-1-0.1L460.5,789.9z"/>
</g>
<g>
	<path class="st1" d="M173.6,782.7v-10.7h5c2.4,0,3.6,1.6,3.6,3.5c0,1.9-1.3,3.5-3.6,3.5h-2.8v3.8L173.6,782.7L173.6,782.7z
		 M180,775.4c0-1-0.7-1.4-1.6-1.4h-2.5v2.9h2.5C179.3,776.8,180,776.2,180,775.4z"/>
	<path class="st1" d="M183.6,782.7v-7.8h2.1v1c0.6-0.7,1.5-1.2,2.5-1.2v2c-0.2,0-0.4-0.1-0.6-0.1c-0.7,0-1.6,0.4-1.9,0.9v5.1
		L183.6,782.7L183.6,782.7z"/>
	<path class="st1" d="M188.9,778.7c0-2.2,1.5-4.1,4.1-4.1s4.2,1.9,4.2,4.1s-1.5,4.1-4.2,4.1C190.5,782.9,188.9,781,188.9,778.7z
		 M195,778.7c0-1.2-0.8-2.3-2-2.3s-2,1-2,2.3c0,1.2,0.7,2.3,2,2.3S195,779.9,195,778.7z"/>
	<path class="st1" d="M198.6,784.7l1-1.5c0.7,0.7,1.4,1,2.5,1c1,0,2.2-0.5,2.2-2v-0.8c-0.6,0.8-1.4,1.2-2.4,1.2c-2,0-3.4-1.3-3.4-4
		c0-2.6,1.4-4,3.4-4c1,0,1.8,0.4,2.4,1.2v-1h2.1v7.2c0,2.9-2.3,3.7-4.2,3.7C200.6,785.8,199.6,785.5,198.6,784.7z M204.1,779.8v-2.6
		c-0.4-0.5-1-0.9-1.8-0.9c-1.1,0-2,0.8-2,2.2s0.9,2.2,2,2.2C203,780.8,203.8,780.4,204.1,779.8z"/>
	<path class="st1" d="M208.2,782.7v-7.8h2.1v1c0.6-0.7,1.5-1.2,2.5-1.2v2c-0.2,0-0.4-0.1-0.6-0.1c-0.7,0-1.6,0.4-1.9,0.9v5.1
		L208.2,782.7L208.2,782.7z"/>
	<path class="st1" d="M213.5,778.7c0-2.3,1.7-4.1,4-4.1s3.9,1.7,3.9,4.3v0.5h-5.8c0.1,1,1,1.8,2.3,1.8c0.7,0,1.6-0.3,2.1-0.8l1,1.3
		c-0.8,0.7-2,1-3.2,1C215.3,782.9,213.5,781.3,213.5,778.7z M217.5,776.3c-1.2,0-1.8,1-1.9,1.7h3.8
		C219.4,777.3,218.9,776.3,217.5,776.3z"/>
	<path class="st1" d="M222.3,781.6l0.9-1.4c0.6,0.6,1.7,1,2.7,1c0.9,0,1.3-0.4,1.3-0.9c0-1.3-4.7-0.3-4.7-3.3c0-1.3,1.1-2.5,3.2-2.5
		c1.3,0,2.4,0.5,3.1,1l-0.9,1.4c-0.5-0.5-1.3-1-2.3-1c-0.8,0-1.2,0.4-1.2,0.8c0,1.1,4.7,0.2,4.7,3.3c0,1.4-1.2,2.5-3.4,2.5
		C224.4,782.9,223,782.4,222.3,781.6z"/>
	<path class="st1" d="M230,781.6l0.9-1.4c0.6,0.6,1.7,1,2.7,1c0.9,0,1.3-0.4,1.3-0.9c0-1.3-4.7-0.3-4.7-3.3c0-1.3,1.1-2.5,3.2-2.5
		c1.3,0,2.4,0.5,3.1,1l-0.9,1.4c-0.5-0.5-1.3-1-2.3-1c-0.8,0-1.2,0.4-1.2,0.8c0,1.1,4.7,0.2,4.7,3.3c0,1.4-1.2,2.5-3.4,2.5
		C232.2,782.9,230.8,782.4,230,781.6z"/>
	<path class="st1" d="M238.1,772.8c0-0.7,0.6-1.2,1.2-1.2c0.7,0,1.2,0.6,1.2,1.2s-0.6,1.2-1.2,1.2
		C238.7,774,238.1,773.5,238.1,772.8z M238.4,782.7v-7.8h2.1v7.8H238.4z"/>
	<path class="st1" d="M247.7,782.7v-4.8c0-1-0.6-1.4-1.4-1.4c-0.9,0-1.4,0.5-1.8,1v5.2h-2.1v-7.8h2.1v1c0.5-0.6,1.4-1.2,2.8-1.2
		c1.7,0,2.6,1,2.6,2.5v5.5L247.7,782.7L247.7,782.7z"/>
	<path class="st1" d="M251.7,784.7l1-1.5c0.7,0.7,1.4,1,2.5,1c1,0,2.2-0.5,2.2-2v-0.8c-0.6,0.8-1.4,1.2-2.4,1.2c-2,0-3.4-1.3-3.4-4
		c0-2.6,1.4-4,3.4-4c1,0,1.8,0.4,2.4,1.2v-1h2.1v7.2c0,2.9-2.3,3.7-4.2,3.7C253.7,785.8,252.7,785.5,251.7,784.7z M257.2,779.8v-2.6
		c-0.4-0.5-1-0.9-1.8-0.9c-1.1,0-2,0.8-2,2.2s0.9,2.2,2,2.2C256.1,780.8,256.9,780.4,257.2,779.8z"/>
</g>
<g>
	<path class="st1" d="M182.7,800.3v-8.7h-3.1v-2h8.6v2h-3.1v8.7H182.7z"/>
	<path class="st1" d="M187.9,796.4c0-2.2,1.5-4.1,4.1-4.1c2.6,0,4.2,1.9,4.2,4.1s-1.5,4.1-4.2,4.1
		C189.4,800.4,187.9,798.5,187.9,796.4z M194,796.4c0-1.2-0.8-2.3-2-2.3c-1.2,0-2,1-2,2.3c0,1.2,0.7,2.3,2,2.3
		C193.3,798.6,194,797.6,194,796.4z"/>
	<path class="st1" d="M204.4,800.3l-1.6-5.3l-1.6,5.3H199l-2.4-7.8h2.1l1.4,5.2l1.7-5.2h1.8l1.7,5.2l1.4-5.2h2.1l-2.4,7.8H204.4z"/>
	<path class="st1" d="M214.7,800.3v-0.8c-0.6,0.7-1.4,1-2.5,1c-1.2,0-2.8-0.9-2.8-2.6c0-1.8,1.4-2.6,2.8-2.6c1,0,2,0.4,2.5,1v-1
		c0-0.8-0.7-1.3-1.7-1.3c-0.9,0-1.6,0.3-2.3,1l-0.8-1.3c1-0.9,2.2-1.2,3.4-1.2c1.8,0,3.4,0.7,3.4,2.9v5L214.7,800.3L214.7,800.3z
		 M214.7,798.4v-1c-0.4-0.5-1-0.7-1.6-0.7c-0.9,0-1.4,0.4-1.4,1.1s0.7,1.1,1.4,1.1C213.7,799,214.4,798.8,214.7,798.4z"/>
	<path class="st1" d="M218.8,800.3v-7.8h2.1v1c0.6-0.7,1.5-1.2,2.5-1.2v2c-0.2,0-0.4-0.1-0.6-0.1c-0.7,0-1.6,0.4-1.9,0.9v5.1
		L218.8,800.3L218.8,800.3z"/>
	<path class="st1" d="M230,800.3v-1c-0.6,0.8-1.4,1.2-2.4,1.2c-2,0-3.4-1.5-3.4-4.1s1.4-4.1,3.4-4.1c1,0,1.8,0.4,2.4,1.2v-4h2.1
		v10.7H230z M230,797.7v-2.8c-0.4-0.5-1-0.9-1.8-0.9c-1.1,0-2,1-2,2.3s0.9,2.3,2,2.3C228.8,798.6,229.6,798.3,230,797.7z"/>
	<path class="st1" d="M233.4,799.2l0.9-1.4c0.6,0.6,1.7,1,2.7,1c0.9,0,1.3-0.4,1.3-0.9c0-1.3-4.7-0.3-4.7-3.3c0-1.3,1.1-2.5,3.2-2.5
		c1.3,0,2.4,0.5,3.1,1l-0.9,1.4c-0.5-0.5-1.3-1-2.3-1c-0.8,0-1.2,0.4-1.2,0.8c0,1.1,4.7,0.2,4.7,3.3c0,1.4-1.2,2.5-3.4,2.5
		C235.6,800.4,234.3,800,233.4,799.2z"/>
	<path class="st1" d="M250.6,800.3v-0.8c-0.6,0.7-1.4,1-2.5,1c-1.2,0-2.8-0.9-2.8-2.6c0-1.8,1.4-2.6,2.8-2.6c1,0,2,0.4,2.5,1v-1
		c0-0.8-0.7-1.3-1.7-1.3c-0.9,0-1.6,0.3-2.3,1l-0.8-1.3c1-0.9,2.2-1.2,3.4-1.2c1.8,0,3.4,0.7,3.4,2.9v5L250.6,800.3L250.6,800.3z
		 M250.6,798.4v-1c-0.4-0.5-1-0.7-1.6-0.7c-0.9,0-1.4,0.4-1.4,1.1s0.7,1.1,1.4,1.1C249.6,799,250.3,798.8,250.6,798.4z"/>
</g>
<g>
	<path class="st1" d="M173.8,816.3l1.2-1.7c0.8,0.8,1.9,1.4,3.4,1.4c1.2,0,1.9-0.6,1.9-1.2c0-1.9-6.2-0.6-6.2-4.7
		c0-1.8,1.5-3.3,4.1-3.3c1.7,0,3.1,0.5,4.2,1.5l-1.2,1.7c-0.9-0.8-2-1.1-3.1-1.1c-1,0-1.5,0.5-1.5,1c0,1.7,6.2,0.6,6.2,4.6
		c0,2-1.4,3.4-4.3,3.4C176.3,818,174.8,817.4,173.8,816.3z"/>
	<path class="st1" d="M189.5,817.8v-1c-0.6,0.6-1.4,1.1-2.8,1.1c-1.7,0-2.6-1-2.6-2.5V810h2.1v4.8c0,1,0.6,1.4,1.4,1.4
		c0.8,0,1.4-0.5,1.8-0.9V810h2.1v7.8L189.5,817.8L189.5,817.8z"/>
	<path class="st1" d="M192.9,816.9l0.9-1.4c0.6,0.6,1.7,1,2.7,1c0.9,0,1.3-0.4,1.3-0.9c0-1.3-4.7-0.3-4.7-3.3c0-1.3,1.1-2.5,3.2-2.5
		c1.3,0,2.4,0.5,3.1,1l-0.9,1.4c-0.5-0.5-1.3-1-2.3-1c-0.8,0-1.2,0.4-1.2,0.8c0,1.1,4.7,0.2,4.7,3.3c0,1.4-1.2,2.5-3.4,2.5
		C195.1,818,193.8,817.6,192.9,816.9z"/>
	<path class="st1" d="M201.9,815.9v-4.1h-1.3V810h1.3V808h2.1v2.1h1.6v1.8h-1.6v3.5c0,0.5,0.3,0.9,0.7,0.9c0.3,0,0.6-0.1,0.7-0.2
		l0.5,1.5c-0.3,0.3-0.9,0.5-1.7,0.5C202.6,818,201.9,817.4,201.9,815.9z"/>
	<path class="st1" d="M211.6,817.8v-0.8c-0.6,0.7-1.4,1-2.5,1c-1.2,0-2.8-0.9-2.8-2.6c0-1.8,1.4-2.6,2.8-2.6c1,0,2,0.4,2.5,1v-1
		c0-0.8-0.7-1.3-1.7-1.3c-0.9,0-1.6,0.3-2.3,1l-0.8-1.3c1-0.9,2.2-1.2,3.4-1.2c1.8,0,3.4,0.7,3.4,2.9v5L211.6,817.8L211.6,817.8z
		 M211.6,816v-1c-0.4-0.5-1-0.7-1.6-0.7c-0.9,0-1.4,0.4-1.4,1.1s0.7,1.1,1.4,1.1C210.7,816.7,211.4,816.4,211.6,816z"/>
	<path class="st1" d="M215.5,808c0-0.7,0.6-1.2,1.2-1.2c0.7,0,1.2,0.6,1.2,1.2s-0.6,1.2-1.2,1.2C216.1,809.2,215.5,808.7,215.5,808z
		 M215.7,817.8V810h2.1v7.8H215.7z"/>
	<path class="st1" d="M225.1,817.8v-4.8c0-1-0.6-1.4-1.4-1.4c-0.9,0-1.4,0.5-1.8,1v5.2h-2.1V810h2.1v1c0.5-0.6,1.4-1.2,2.8-1.2
		c1.7,0,2.6,1,2.6,2.5v5.5L225.1,817.8L225.1,817.8z"/>
	<path class="st1" d="M233.9,817.8v-0.8c-0.6,0.7-1.4,1-2.5,1c-1.2,0-2.8-0.9-2.8-2.6c0-1.8,1.4-2.6,2.8-2.6c1,0,2,0.4,2.5,1v-1
		c0-0.8-0.7-1.3-1.7-1.3c-0.9,0-1.6,0.3-2.3,1l-0.8-1.3c1-0.9,2.2-1.2,3.4-1.2c1.8,0,3.4,0.7,3.4,2.9v5L233.9,817.8L233.9,817.8z
		 M233.9,816v-1c-0.4-0.5-1-0.7-1.6-0.7c-0.9,0-1.4,0.4-1.4,1.1s0.7,1.1,1.4,1.1C232.8,816.7,233.5,816.4,233.9,816z"/>
	<path class="st1" d="M238,817.8v-10.7h2.1v4c0.6-0.8,1.5-1.2,2.4-1.2c2,0,3.4,1.5,3.4,4.1c0,2.6-1.5,4.1-3.4,4.1
		c-1,0-1.8-0.4-2.4-1.2v1H238z M241.8,816.2c1.2,0,2-1,2-2.3c0-1.3-0.8-2.3-2-2.3c-0.7,0-1.4,0.4-1.8,1v2.8
		C240.3,815.8,241.1,816.2,241.8,816.2z"/>
	<path class="st1" d="M247.5,817.8v-10.7h2.1v10.7H247.5z"/>
	<path class="st1" d="M251,813.9c0-2.3,1.7-4.1,4-4.1c2.3,0,3.9,1.7,3.9,4.3v0.5h-5.8c0.1,1,1,1.8,2.3,1.8c0.7,0,1.6-0.3,2.1-0.8
		l1,1.3c-0.8,0.7-2,1-3.2,1C252.8,818,251,816.5,251,813.9z M255.1,811.5c-1.2,0-1.8,1-1.9,1.7h3.8
		C257,812.5,256.4,811.5,255.1,811.5z"/>
</g>
<g>
	<path class="st1" d="M193.5,835.5v-10.7h7.6v2h-5.3v2.3h5.2v2h-5.2v4.5H193.5z"/>
	<path class="st1" d="M207.7,835.5v-1c-0.6,0.6-1.4,1.1-2.8,1.1c-1.7,0-2.6-1-2.6-2.5v-5.5h2.1v4.8c0,1,0.6,1.4,1.4,1.4
		c0.8,0,1.4-0.5,1.8-0.9v-5.3h2.1v7.8H207.7L207.7,835.5z"/>
	<path class="st1" d="M212.3,833.5v-4H211v-1.8h1.3v-2.1h2.1v2.1h1.6v1.8h-1.6v3.5c0,0.5,0.3,0.9,0.7,0.9c0.3,0,0.6-0.1,0.7-0.2
		l0.5,1.5c-0.3,0.3-0.9,0.5-1.7,0.5C213.1,835.7,212.3,834.9,212.3,833.5z"/>
	<path class="st1" d="M222.7,835.5v-1c-0.6,0.6-1.4,1.1-2.8,1.1c-1.7,0-2.6-1-2.6-2.5v-5.5h2.1v4.8c0,1,0.6,1.4,1.4,1.4
		c0.8,0,1.4-0.5,1.8-0.9v-5.3h2.1v7.8H222.7L222.7,835.5z"/>
	<path class="st1" d="M226.7,835.5v-7.8h2.1v1c0.6-0.7,1.5-1.2,2.5-1.2v2c-0.2,0-0.4-0.1-0.6-0.1c-0.7,0-1.6,0.4-1.9,0.9v5.1
		L226.7,835.5L226.7,835.5z"/>
	<path class="st1" d="M232.1,831.6c0-2.3,1.7-4.1,4-4.1c2.3,0,3.9,1.7,3.9,4.3v0.5h-5.8c0.1,1,1,1.8,2.3,1.8c0.7,0,1.6-0.3,2.1-0.8
		l1,1.3c-0.8,0.7-2,1-3.2,1C233.9,835.7,232.1,834.1,232.1,831.6z M236.2,829.1c-1.2,0-1.8,1-1.9,1.7h3.8
		C238,830.1,237.5,829.1,236.2,829.1z"/>
</g>
<path class="st2" d="M93.3,588.1c25.3,11.1,53.3,17.2,82.7,17.2c6.7,0,13.1-0.3,19.6-1l10.1,69.4c-46.9,4.1-83.7,43.5-83.7,91.5
	c0,50.7,41.1,91.9,91.8,91.9s91.8-41.1,91.8-91.9c0-45.6-33.2-83.4-76.8-90.6"/>
<path class="st2" d="M217.1,601.2c32.1-6.5,61.7-20.4,86.5-39.9l70.3,90.8c-20.3,16.8-33.3,42.3-33.3,70.8
	c0,50.7,41.1,91.8,91.9,91.8s91.9-41.1,91.9-91.8c0-50.7-41.1-91.8-91.9-91.8c-14.3,0-27.7,3.2-39.7,9"/>
<path class="st2" d="M319.8,547.3c21.7-20.7,38.9-46.1,49.9-74.6l104.8,42.9c-2.3,8.1-3.5,16.5-3.5,25.4c0,50.6,41.1,91.8,91.9,91.8
	s91.9-41,91.9-91.8c0-50.6-41.1-91.8-91.9-91.8c-33.8,0-63.5,18.3-79.3,45.5"/>
<path class="st2" d="M376.7,451.2c4.6-16.9,7-34.7,7.2-53c0.1-16.6-1.6-32.1-4.8-46.6l58-11.9c8.4,42.1,45.5,73.7,90.1,73.7
	c50.7,0,91.8-41.1,91.8-91.8c0-50.7-41.1-91.8-91.8-91.8c-49,0-89.1,38.5-91.7,86.8"/>
<path class="st2" d="M371.9,327.6c-10.5-28.6-27.4-53-48.5-74.5l73.5-85.5c16.3,14.8,37.9,23.8,61.7,23.8
	c50.7,0,91.8-41.1,91.8-91.9S509.3,7.7,458.6,7.7c-50.7,0-91.8,41.1-91.8,91.9c0,16.2,4.2,31.3,11.4,44.5"/>
<rect x="-69.6" y="-264" class="st3" width="873.7" height="1235.7"/>
<g>
	<path class="st4" d="M116.8,405.2c0-4.1,3-7.1,7.1-7.1c4.2,0,7.2,2.9,7.2,7.1s-3,7.1-7.2,7.1C119.8,412.3,116.8,409.3,116.8,405.2z
		 M128.1,405.2c0-2.6-1.6-4.5-4.2-4.5c-2.6,0-4.2,1.9-4.2,4.5s1.6,4.5,4.2,4.5C126.5,409.7,128.1,407.8,128.1,405.2z"/>
	<path class="st4" d="M133.2,406.6v-8.3h2.9v8.2c0,1.9,1.1,3.2,3.2,3.2s3.2-1.3,3.2-3.2v-8.2h2.9v8.3c0,3.4-2,5.7-6.2,5.7
		S133.2,410,133.2,406.6z"/>
	<path class="st4" d="M156,412.1l-2.7-4.8h-2.2v4.8h-2.9v-13.7h6.5c2.9,0,4.6,1.9,4.6,4.5c0,2.5-1.5,3.7-3,4.1l3,5.2L156,412.1
		L156,412.1z M156.3,402.8c0-1.1-0.9-1.8-2.1-1.8h-3v3.7h3C155.4,404.7,156.3,403.9,156.3,402.8z"/>
	<path class="st4" d="M165.8,410.1l1.6-2.2c1,1,2.5,1.8,4.4,1.8c1.6,0,2.4-0.8,2.4-1.5c0-2.5-7.9-0.8-7.9-5.9c0-2.3,2-4.2,5.2-4.2
		c2.2,0,4,0.7,5.3,1.9l-1.6,2.2c-1.1-1-2.6-1.5-4-1.5c-1.2,0-2,0.6-2,1.3c0,2.2,7.9,0.8,7.9,5.8c0,2.5-1.8,4.4-5.5,4.4
		C169,412.3,167.1,411.4,165.8,410.1z"/>
	<path class="st4" d="M182,412.1V401h-4v-2.6h10.9v2.6h-4v11.1H182z"/>
	<path class="st4" d="M198.5,412.1l-2.7-4.8h-2.2v4.8h-2.9v-13.7h6.5c2.9,0,4.6,1.9,4.6,4.5c0,2.5-1.5,3.7-3,4.1l3,5.2L198.5,412.1
		L198.5,412.1z M198.8,402.8c0-1.1-0.9-1.8-2.1-1.8h-3v3.7h3C197.9,404.7,198.8,403.9,198.8,402.8z"/>
	<path class="st4" d="M213.4,412.1l-0.9-2.3h-5.9l-0.9,2.3h-3.3l5.3-13.7h3.7l5.3,13.7H213.4z M209.6,401.2l-2.2,5.9h4.3
		L209.6,401.2z"/>
	<path class="st4" d="M219.9,412.1V401h-4v-2.6h10.9v2.6h-4v11.1H219.9z"/>
	<path class="st4" d="M228.6,412.1v-13.7h9.8v2.6h-6.7v2.9h6.7v2.6h-6.7v3.1h6.7v2.6L228.6,412.1L228.6,412.1z"/>
	<path class="st4" d="M240,405.2c0-4.4,3.3-7.1,7.3-7.1c2.9,0,4.7,1.4,5.7,3l-2.5,1.3c-0.6-1-1.8-1.8-3.2-1.8
		c-2.5,0-4.3,1.9-4.3,4.5c0,2.6,1.8,4.5,4.3,4.5c1.2,0,2.4-0.6,2.9-1v-1.6h-3.6v-2.6h6.6v5.2c-1.4,1.5-3.3,2.6-5.8,2.6
		C243.3,412.4,240,409.5,240,405.2z"/>
	<path class="st4" d="M255.4,412.1v-13.7h2.9v13.7H255.4z"/>
	<path class="st4" d="M260.5,405.2c0-4.2,3.2-7.1,7.3-7.1c3,0,4.8,1.6,5.7,3.3l-2.5,1.2c-0.6-1.1-1.8-2-3.2-2
		c-2.5,0-4.3,1.9-4.3,4.5c0,2.6,1.8,4.5,4.3,4.5c1.4,0,2.7-0.9,3.2-2l2.5,1.2c-1,1.7-2.8,3.3-5.7,3.3
		C263.6,412.3,260.5,409.4,260.5,405.2z"/>
</g>
<g>
	<path class="st4" d="M142.3,435.5v-13.7h6.5c2.9,0,4.6,2,4.6,4.5c0,2.4-1.6,4.5-4.6,4.5h-3.5v4.8L142.3,435.5L142.3,435.5z
		 M150.3,426.2c0-1.1-0.9-1.8-2-1.8h-3.1v3.7h3.1C149.4,428.1,150.3,427.4,150.3,426.2z"/>
	<path class="st4" d="M162.8,435.5l-2.7-4.8H158v4.8H155v-13.7h6.5c2.9,0,4.6,1.9,4.6,4.5c0,2.5-1.5,3.7-3,4.1l3,5.2L162.8,435.5
		L162.8,435.5z M163.1,426.2c0-1.1-0.9-1.8-2.1-1.8h-3v3.7h3C162.2,428.1,163.1,427.4,163.1,426.2z"/>
	<path class="st4" d="M168.3,435.5v-13.7h2.9v13.7H168.3z"/>
	<path class="st4" d="M173.3,428.7c0-4.1,3-7.1,7.1-7.1c4.2,0,7.2,2.9,7.2,7.1s-3,7.1-7.2,7.1C176.3,435.8,173.3,432.8,173.3,428.7z
		 M184.6,428.7c0-2.6-1.6-4.5-4.2-4.5c-2.6,0-4.2,1.9-4.2,4.5c0,2.6,1.6,4.5,4.2,4.5C183,433.2,184.6,431.3,184.6,428.7z"/>
	<path class="st4" d="M197.4,435.5l-2.7-4.8h-2.1v4.8h-2.9v-13.7h6.5c2.9,0,4.6,1.9,4.6,4.5c0,2.5-1.5,3.7-3,4.1l3,5.2L197.4,435.5
		L197.4,435.5z M197.7,426.2c0-1.1-0.9-1.8-2.1-1.8h-3v3.7h3C196.8,428.1,197.7,427.4,197.7,426.2z"/>
	<path class="st4" d="M202.9,435.5v-13.7h2.9v13.7H202.9z"/>
	<path class="st4" d="M211.6,435.5v-11.1h-4v-2.6h10.9v2.6h-4v11.1H211.6z"/>
	<path class="st4" d="M220.5,435.5v-13.7h2.9v13.7H220.5z"/>
	<path class="st4" d="M226.1,435.5v-13.7h9.7v2.6H229v2.9h6.7v2.6H229v3.1h6.7v2.6L226.1,435.5L226.1,435.5z"/>
	<path class="st4" d="M237.1,433.6l1.6-2.2c1,1,2.5,1.8,4.4,1.8c1.6,0,2.4-0.8,2.4-1.5c0-2.5-7.9-0.8-7.9-5.9c0-2.3,2-4.2,5.2-4.2
		c2.2,0,4,0.7,5.3,1.9l-1.6,2.2c-1.1-1-2.6-1.5-4-1.5c-1.2,0-2,0.6-2,1.3c0,2.2,7.9,0.8,7.9,5.8c0,2.5-1.8,4.4-5.5,4.4
		C240.3,435.8,238.4,434.9,237.1,433.6z"/>
</g>
<path class="st0" d="M507.4,884.6l18.1,3.8l-2.5,7.6c-1,2.9-3.7,4.8-6.7,4.5c-2.4-0.2-4.5-1.7-5.3-3.9l-3.5-8.2l-0.6-8.1l0.6,8.1
	l3.5,8.2c1,2.2,3,3.6,5.3,3.9c3,0.3,5.8-1.6,6.7-4.5l2.5-7.6L507.4,884.6z M499.3,871.6l6.4-20.6l18.4,10l-2.1,22.9l2.1-22.9
	l-18.4-10L499.3,871.6z M491.2,859.7l11.7-16.4l26,14.3l-3,27.1l3-27.1l-26-14.3L491.2,859.7z M472.3,870.4l7.8,7
	c0.5,0.4,0.8,1,0.8,1.6v1.8c0,1.2,1,2.3,2.2,2.3h14.4h-14.4c-1.2,0-2.2-1-2.2-2.3V879c0-0.7-0.3-1.2-0.8-1.6L472.3,870.4z
	 M471.9,888.3v-25c0-1.2,1-2.3,2.3-2.3h12.3c0.8,0,1.5,0.4,1.9,1l10.5,15.6v10.7v-10.7l-10.5-15.6c-0.5-0.7-1.1-1-1.9-1h-12.3
	c-1.2,0-2.3,1-2.3,2.3V888.3z M457.7,888.3h-21.8c-1,0-1.9-1-1.8-2.1l0.9-6.5c0.1-0.9,0.9-1.6,1.8-1.6h16l1.7-6.2h14.4h-14.4
	l-1.7,6.2h-16c-1,0-1.7,0.7-1.8,1.6l-0.9,6.5c-0.2,1,0.7,2.1,1.8,2.1H457.7z M443.7,893.9v-2.2h55.7v2.2v-2.2h-55.7V893.9z
	 M438.1,884.8h7.9H438.1z M439.4,881.6h7.9H439.4z M498.9,910.3c-2.9,0-5.1-2.3-5.1-5.1c0-2.9,2.3-5.1,5.1-5.1
	c2.9,0,5.1,2.3,5.1,5.1C504,908,501.7,910.3,498.9,910.3z M485.2,910.3c-2.9,0-5.1-2.3-5.1-5.1c0-2.9,2.3-5.1,5.1-5.1
	c2.9,0,5.1,2.3,5.1,5.1C490.2,908,487.9,910.3,485.2,910.3z M471.5,910.3c-2.9,0-5.1-2.3-5.1-5.1c0-2.9,2.3-5.1,5.1-5.1
	c2.9,0,5.1,2.3,5.1,5.1C476.5,908,474.2,910.3,471.5,910.3z M457.8,910.3c-2.9,0-5.1-2.3-5.1-5.1c0-2.9,2.3-5.1,5.1-5.1
	s5.1,2.3,5.1,5.1C462.9,908,460.6,910.3,457.8,910.3z M444.2,910.3c-2.9,0-5.1-2.3-5.1-5.1c0-2.9,2.3-5.1,5.1-5.1
	c2.9,0,5.1,2.3,5.1,5.1C449.2,908,447,910.3,444.2,910.3z M499.8,896.8h-56.4c-2.4,0-4.5,1-6,2.5c-1.5,1.5-2.5,3.6-2.5,6
	c0,4.7,3.8,8.5,8.5,8.5h56.4c2.4,0,4.5-1,6-2.5s2.5-3.6,2.5-6C508.2,900.5,504.4,896.8,499.8,896.8z"/>
<path class="st4" d="M459.3,91.3c13.8,0,25-11.2,25-25c0-13.8-11.2-25-25-25s-25,11.2-25,25C434.3,80,445.4,91.3,459.3,91.3"/>
<path class="st4" d="M561.5,536c13.8,0,25-11.2,25-25c0-13.8-11.2-25-25-25s-25,11.2-25,25C536.6,524.8,547.8,536,561.5,536"/>
<rect x="-69.6" y="-264" class="st3" width="873.7" height="1235.7"/>
<g>
	<path class="st5" d="M454.4,71.3v1.2c0,1.4,0.5,2.3,1.6,2.3s1.5-1.1,1.5-2.4c0-2.1-0.5-2.8-2.6-4.5c-2.1-1.7-3.2-2.8-3.2-5.6
		c0-2.6,0.8-5.2,4.3-5.2c3.6,0,4.2,2.6,4.2,4.8v1h-3v-1c0-1.3-0.2-2.2-1.2-2.2c-1,0-1.2,0.9-1.2,2.2c0,1.4,0.3,2.1,2,3.3
		c2.9,2.2,3.8,3.4,3.8,6.7c0,2.8-1,5.4-4.7,5.4c-3.6,0-4.5-2.3-4.5-4.9v-1.1L454.4,71.3L454.4,71.3z"/>
	<path class="st5" d="M463.1,77.1V61.5c-0.6,0.1-1.5,0.1-1.9,0.1v-2.3c1.2-0.1,2.2-0.8,2.8-1.3h2.2v19.1H463.1z"/>
</g>
<path class="st4" d="M527.3,305c13.8,0,25-11.2,25-25c0-13.8-11.2-25-25-25s-25,11.2-25,25C502.4,293.8,513.6,305,527.3,305"/>
<rect x="-69.6" y="-264" class="st3" width="873.7" height="1235.7"/>
<g>
	<path class="st5" d="M520.9,285.1v1.2c0,1.4,0.5,2.3,1.6,2.3c1.1,0,1.5-1.1,1.5-2.4c0-2.1-0.5-2.8-2.6-4.5
		c-2.1-1.7-3.2-2.8-3.2-5.6c0-2.6,0.8-5.2,4.3-5.2c3.6,0,4.2,2.6,4.2,4.8v1h-3v-1c0-1.3-0.2-2.2-1.2-2.2c-1,0-1.2,0.9-1.2,2.2
		c0,1.4,0.3,2.1,2,3.3c2.9,2.2,3.8,3.4,3.8,6.7c0,2.8-1,5.4-4.7,5.4c-3.6,0-4.5-2.3-4.5-4.9v-1.1L520.9,285.1L520.9,285.1z"/>
	<path class="st5" d="M528.1,290.8v-0.4c0-3.6,1.4-6,3.4-8.7c1.6-2.2,2.1-2.9,2.1-5c0-1.9-0.2-2.7-1.3-2.7c-1,0-1.3,0.8-1.3,2.3v1
		h-2.8v-1c0-2.2,0.8-4.7,4.3-4.7c3.2,0,4.2,2,4.2,5c0,3-1,4.4-2.6,6.5c-1.3,1.8-2.5,3.7-2.6,5.2h5.5l-0.4,2.6H528.1z"/>
</g>
<g>
	<path class="st5" d="M554.7,516v1.2c0,1.4,0.5,2.3,1.6,2.3c1.1,0,1.5-1.1,1.5-2.4c0-2.1-0.5-2.8-2.6-4.5c-2.1-1.7-3.2-2.8-3.2-5.6
		c0-2.6,0.8-5.2,4.3-5.2c3.6,0,4.2,2.6,4.2,4.8v1h-3v-1c0-1.3-0.2-2.2-1.2-2.2c-1,0-1.2,0.9-1.2,2.2c0,1.4,0.3,2.1,2,3.3
		c2.9,2.2,3.8,3.4,3.8,6.7c0,2.8-1,5.4-4.7,5.4c-3.6,0-4.5-2.3-4.5-4.9V516H554.7z"/>
	<path class="st5" d="M562.2,507.7V507c0-2.2,0.7-4.6,4.2-4.6c3,0,4.1,1.9,4.1,4.6v0.7c0,2.2-0.8,3.2-1.9,3.7l0,0
		c1.4,0.5,2.3,1.5,2.3,3.8v1.5c0,3-1,5.3-4.6,5.3c-3.2,0-4.4-1.7-4.4-4.5v-0.7h2.8v0.6c0,1,0.3,2.1,1.6,2.1c1.2,0,1.6-1,1.6-2.4
		v-1.9c0-1.8-0.6-2.5-2.2-2.5h-0.9v-2.6h0.8c1.4,0,1.8-0.6,1.8-2.2v-1c0-1.1-0.2-2-1.3-2c-1,0-1.3,0.9-1.3,1.9v0.8H562.2z"/>
</g>
<path class="st4" d="M432,712.5c13.8,0,25-11.2,25-25s-11.2-25-25-25c-13.8,0-25,11.2-25,25S418.3,712.5,432,712.5"/>
<rect x="-69.6" y="-264" class="st3" width="873.7" height="1235.7"/>
<g>
	<path class="st5" d="M425.3,692.5v1.2c0,1.4,0.5,2.3,1.6,2.3s1.5-1.1,1.5-2.4c0-2.1-0.5-2.8-2.6-4.5c-2.1-1.7-3.2-2.8-3.2-5.6
		c0-2.6,0.8-5.2,4.3-5.2c3.6,0,4.2,2.6,4.2,4.8v1h-3v-1c0-1.3-0.2-2.2-1.2-2.2c-1,0-1.2,0.9-1.2,2.2c0,1.4,0.3,2.1,2,3.3
		c2.9,2.2,3.8,3.4,3.8,6.7c0,2.8-1,5.4-4.7,5.4c-3.6,0-4.5-2.3-4.5-4.9v-1.1L425.3,692.5L425.3,692.5z"/>
	<path class="st5" d="M437.8,698.3v-4.8h-5.4v-2.3l4.1-12.1h4.1v11.9h1.4l-0.2,2.5h-1.2v4.8L437.8,698.3L437.8,698.3z M437.8,687.7
		c0-1.9,0.1-3.8,0.1-5.8l0,0c-0.9,3.1-1.7,6-2.6,9.1h2.6L437.8,687.7L437.8,687.7z"/>
</g>
<path class="st4" d="M213.6,759.8c13.8,0,25-11.2,25-25s-11.2-25-25-25s-25,11.2-25,25C188.7,748.7,199.9,759.8,213.6,759.8"/>
<g>
	<path class="st5" d="M206.7,739.8v1.2c0,1.4,0.5,2.3,1.6,2.3s1.5-1.1,1.5-2.4c0-2.1-0.5-2.8-2.6-4.5c-2.1-1.7-3.2-2.8-3.2-5.6
		c0-2.6,0.8-5.2,4.3-5.2c3.6,0,4.2,2.6,4.2,4.8v1h-3v-1c0-1.3-0.2-2.2-1.2-2.2c-1,0-1.2,0.9-1.2,2.2c0,1.4,0.3,2.1,2,3.3
		c2.9,2.2,3.8,3.4,3.8,6.7c0,2.8-1,5.4-4.7,5.4c-3.6,0-4.5-2.3-4.5-4.9v-1.1L206.7,739.8L206.7,739.8z"/>
	<path class="st5" d="M222.6,729.2h-4.8c-0.1,1.6-0.3,3.5-0.4,4.7c0.4-0.6,1.2-0.9,2.3-0.9c2.6,0,3.5,1.9,3.5,5v2
		c0,3.4-1,5.9-4.7,5.9c-3.3,0-4.5-2.1-4.5-4.8v-0.5h3v0.7c0,1,0.3,2.1,1.5,2.1c1.2,0,1.5-1,1.5-3v-2.3c0-1.8-0.3-2.7-1.5-2.7
		c-1,0-1.4,0.6-1.6,1.8l-2.7-0.3c0.3-2.8,0.7-7.8,0.9-10.5h7.7L222.6,729.2z"/>
</g>
</svg>
