<?xml version="1.0" encoding="utf-8"?>
<!-- Generator: Adobe Illustrator 26.4.0, SVG Export Plug-In . SVG Version: 6.00 Build 0)  -->
<svg version="1.1" id="Layer_1" xmlns="http://www.w3.org/2000/svg" xmlns:xlink="http://www.w3.org/1999/xlink" x="0px" y="0px"
	 viewBox="0 0 595.3 243" style="enable-background:new 0 0 595.3 243;" xml:space="preserve">
<style type="text/css">
	.st0{fill:#4D4D4F;}
	.st1{fill:#F7941E;}
	.st2{fill:#00C0F3;}
	.st3{fill:none;stroke:#FFFFFF;stroke-width:0.961;stroke-miterlimit:10;}
	.st4{fill:#9ACA3C;}
</style>
<g>
	<g>
		<path class="st0" d="M212.1,92.6v-7.3h4.8v0.8h-3.9v2.4h3.8v0.8h-3.8v2.5h3.9v0.8H212.1z"/>
		<path class="st0" d="M222.3,92.6v-0.8c-0.4,0.5-1,0.9-1.8,0.9c-1.4,0-2.4-1.1-2.4-2.8c0-1.7,1-2.8,2.4-2.8c0.7,0,1.4,0.4,1.8,0.9
			v-2.8h0.8v7.3H222.3z M222.3,91.1v-2.4c-0.3-0.5-0.9-0.9-1.6-0.9c-1.1,0-1.7,0.9-1.7,2.1c0,1.2,0.6,2,1.7,2
			C221.4,92,222,91.6,222.3,91.1z"/>
		<path class="st0" d="M228.5,92.6v-0.7c-0.4,0.5-1.1,0.9-1.9,0.9c-1.1,0-1.7-0.5-1.7-1.7v-3.8h0.8v3.5c0,0.9,0.5,1.2,1.2,1.2
			c0.6,0,1.3-0.4,1.6-0.8v-3.9h0.8v5.3H228.5z"/>
		<path class="st0" d="M230.8,89.9c0-1.6,1.1-2.8,2.7-2.8c1,0,1.5,0.4,2,0.9l-0.6,0.5c-0.4-0.5-0.8-0.7-1.4-0.7
			c-1.1,0-1.8,0.9-1.8,2s0.7,2.1,1.8,2.1c0.6,0,1-0.2,1.4-0.7l0.6,0.5c-0.4,0.5-1,0.9-2,0.9C231.9,92.7,230.8,91.5,230.8,89.9z"/>
		<path class="st0" d="M240.1,92.6V92c-0.4,0.5-1,0.7-1.8,0.7c-0.9,0-1.9-0.6-1.9-1.8c0-1.2,1-1.8,1.9-1.8c0.7,0,1.3,0.2,1.8,0.7v-1
			c0-0.7-0.6-1.1-1.3-1.1c-0.6,0-1.2,0.2-1.6,0.7l-0.4-0.6c0.6-0.6,1.3-0.9,2.1-0.9c1.1,0,2.1,0.5,2.1,1.8v3.7H240.1z M240.1,91.5
			v-1c-0.3-0.4-0.9-0.7-1.5-0.7c-0.8,0-1.3,0.5-1.3,1.2c0,0.7,0.5,1.2,1.3,1.2C239.2,92.1,239.8,91.9,240.1,91.5z"/>
		<path class="st0" d="M242.8,91.5V88H242v-0.7h0.9v-1.5h0.8v1.5h1.1V88h-1.1v3.3c0,0.4,0.2,0.7,0.5,0.7c0.2,0,0.5-0.1,0.6-0.2
			l0.2,0.6c-0.2,0.2-0.5,0.3-1,0.3C243.2,92.7,242.8,92.3,242.8,91.5z"/>
		<path class="st0" d="M246,86c0-0.3,0.3-0.6,0.6-0.6c0.3,0,0.6,0.3,0.6,0.6s-0.3,0.6-0.6,0.6C246.2,86.5,246,86.3,246,86z
			 M246.1,92.6v-5.3h0.8v5.3H246.1z"/>
		<path class="st0" d="M248.4,89.9c0-1.5,1-2.8,2.6-2.8s2.6,1.2,2.6,2.8c0,1.5-1,2.8-2.6,2.8S248.4,91.5,248.4,89.9z M252.8,89.9
			c0-1.1-0.6-2-1.8-2s-1.8,1-1.8,2c0,1.1,0.6,2.1,1.8,2.1S252.8,91,252.8,89.9z"/>
		<path class="st0" d="M258.7,92.6v-3.5c0-0.9-0.5-1.2-1.2-1.2c-0.6,0-1.3,0.4-1.6,0.8v3.9h-0.8v-5.3h0.8V88
			c0.4-0.4,1.1-0.9,1.9-0.9c1.1,0,1.7,0.6,1.7,1.7v3.7H258.7z"/>
	</g>
	<g>
		<path class="st0" d="M225.1,228.3l-1.6-5.9l-1.6,5.9h-1l-2.1-7.3h1l1.6,6.1l1.7-6.1h0.8l1.7,6.1l1.6-6.1h1l-2.1,7.3H225.1z"/>
		<path class="st0" d="M228.8,225.6c0-1.5,1-2.8,2.6-2.8s2.6,1.2,2.6,2.8s-1,2.8-2.6,2.8S228.8,227.2,228.8,225.6z M233.2,225.6
			c0-1.1-0.6-2-1.8-2s-1.8,1-1.8,2c0,1.1,0.6,2.1,1.8,2.1S233.2,226.7,233.2,225.6z"/>
		<path class="st0" d="M242,228.3v-3.6c0-0.7-0.3-1.1-1-1.1c-0.6,0-1.1,0.4-1.4,0.8v3.9h-0.8v-3.6c0-0.7-0.3-1.1-1-1.1
			c-0.5,0-1.1,0.4-1.4,0.8v3.9h-0.8V223h0.8v0.8c0.2-0.3,0.9-0.9,1.7-0.9c0.8,0,1.3,0.4,1.4,1c0.3-0.5,1-1,1.8-1
			c1,0,1.5,0.5,1.5,1.6v3.8H242z"/>
		<path class="st0" d="M244.3,225.6c0-1.5,1.1-2.8,2.6-2.8c1.6,0,2.6,1.3,2.6,2.9v0.2h-4.3c0.1,1,0.8,1.8,1.9,1.8
			c0.6,0,1.2-0.2,1.6-0.7l0.4,0.5c-0.5,0.5-1.2,0.8-2.1,0.8C245.4,228.4,244.3,227.3,244.3,225.6z M246.9,223.5
			c-1.1,0-1.7,1-1.7,1.8h3.5C248.6,224.5,248.1,223.5,246.9,223.5z"/>
		<path class="st0" d="M254.5,228.3v-3.5c0-0.9-0.5-1.2-1.2-1.2c-0.6,0-1.3,0.4-1.6,0.8v3.9h-0.8V223h0.8v0.8
			c0.4-0.4,1.1-0.9,1.9-0.9c1.1,0,1.7,0.6,1.7,1.7v3.7H254.5z"/>
	</g>
	<g>
		<path class="st0" d="M202.6,240.6v-7.3h4.8v0.8h-3.9v2.4h3.8v0.8h-3.8v2.5h3.9v0.8H202.6z"/>
		<path class="st0" d="M215.3,240.6v-3.6c0-0.7-0.3-1.1-1-1.1c-0.6,0-1.1,0.4-1.4,0.8v3.9h-0.8v-3.6c0-0.7-0.3-1.1-1-1.1
			c-0.5,0-1.1,0.4-1.4,0.8v3.9h-0.8v-5.3h0.8v0.8c0.2-0.3,0.9-0.9,1.7-0.9c0.8,0,1.3,0.4,1.4,1c0.3-0.5,1-1,1.8-1
			c1,0,1.5,0.5,1.5,1.6v3.8H215.3z"/>
		<path class="st0" d="M218.8,239.7v2.8H218v-7.3h0.8v0.8c0.4-0.5,1-0.9,1.8-0.9c1.4,0,2.4,1.1,2.4,2.8c0,1.7-1,2.8-2.4,2.8
			C219.9,240.7,219.2,240.3,218.8,239.7z M222.1,237.9c0-1.2-0.6-2-1.7-2c-0.6,0-1.3,0.4-1.6,0.8v2.4c0.3,0.5,0.9,0.9,1.6,0.9
			C221.4,239.9,222.1,239.1,222.1,237.9z"/>
		<path class="st0" d="M224.1,237.9c0-1.5,1-2.8,2.6-2.8s2.6,1.2,2.6,2.8s-1,2.8-2.6,2.8S224.1,239.4,224.1,237.9z M228.5,237.9
			c0-1.1-0.6-2-1.8-2s-1.8,1-1.8,2c0,1.1,0.6,2.1,1.8,2.1S228.5,239,228.5,237.9z"/>
		<path class="st0" d="M235.4,240.6l-1.4-4.3l-1.4,4.3h-0.8l-1.7-5.3h0.9l1.3,4.2l1.4-4.2h0.7l1.4,4.2l1.3-4.2h0.9l-1.7,5.3H235.4z"
			/>
		<path class="st0" d="M238.6,237.9c0-1.5,1.1-2.8,2.6-2.8c1.6,0,2.6,1.3,2.6,2.9v0.2h-4.3c0.1,1,0.8,1.8,1.9,1.8
			c0.6,0,1.2-0.2,1.6-0.7l0.4,0.5c-0.5,0.5-1.2,0.8-2.1,0.8C239.8,240.7,238.6,239.5,238.6,237.9z M241.2,235.8
			c-1.1,0-1.7,1-1.7,1.8h3.5C243,236.8,242.4,235.8,241.2,235.8z"/>
		<path class="st0" d="M245.3,240.6v-5.3h0.8v0.9c0.4-0.6,1-1,1.8-1v0.8c-0.1,0-0.2,0-0.3,0c-0.5,0-1.2,0.4-1.4,0.8v3.8H245.3z"/>
		<path class="st0" d="M255.4,240.6v-3.6c0-0.7-0.3-1.1-1-1.1c-0.6,0-1.1,0.4-1.4,0.8v3.9h-0.8v-3.6c0-0.7-0.3-1.1-1-1.1
			c-0.5,0-1.1,0.4-1.4,0.8v3.9H249v-5.3h0.8v0.8c0.2-0.3,0.9-0.9,1.7-0.9c0.8,0,1.3,0.4,1.4,1c0.3-0.5,1-1,1.8-1
			c1,0,1.5,0.5,1.5,1.6v3.8H255.4z"/>
		<path class="st0" d="M257.8,237.9c0-1.5,1.1-2.8,2.6-2.8c1.6,0,2.6,1.3,2.6,2.9v0.2h-4.3c0.1,1,0.8,1.8,1.9,1.8
			c0.6,0,1.2-0.2,1.6-0.7l0.4,0.5c-0.5,0.5-1.2,0.8-2.1,0.8C258.9,240.7,257.8,239.5,257.8,237.9z M260.4,235.8
			c-1.1,0-1.7,1-1.7,1.8h3.5C262.1,236.8,261.6,235.8,260.4,235.8z"/>
		<path class="st0" d="M268,240.6v-3.5c0-0.9-0.5-1.2-1.2-1.2c-0.6,0-1.3,0.4-1.6,0.8v3.9h-0.8v-5.3h0.8v0.8
			c0.4-0.4,1.1-0.9,1.9-0.9c1.1,0,1.7,0.6,1.7,1.7v3.7H268z"/>
		<path class="st0" d="M270.8,239.4V236h-0.9v-0.7h0.9v-1.5h0.8v1.5h1.1v0.7h-1.1v3.3c0,0.4,0.2,0.7,0.5,0.7c0.2,0,0.5-0.1,0.6-0.2
			l0.2,0.6c-0.2,0.2-0.5,0.3-1,0.3C271.2,240.7,270.8,240.2,270.8,239.4z"/>
	</g>
	<g>
		<path class="st0" d="M318.2,228.3v-3.4h-4.3v3.4H313V221h0.9v3.2h4.3V221h0.9v7.3H318.2z"/>
		<path class="st0" d="M320.7,225.6c0-1.5,1.1-2.8,2.6-2.8c1.6,0,2.6,1.3,2.6,2.9v0.2h-4.3c0.1,1,0.8,1.8,1.9,1.8
			c0.6,0,1.2-0.2,1.6-0.7l0.4,0.5c-0.5,0.5-1.2,0.8-2.1,0.8C321.9,228.4,320.7,227.3,320.7,225.6z M323.3,223.5
			c-1.1,0-1.7,1-1.7,1.8h3.5C325.1,224.5,324.6,223.5,323.3,223.5z"/>
		<path class="st0" d="M330.7,228.3v-0.6c-0.4,0.5-1,0.7-1.8,0.7c-0.9,0-1.9-0.6-1.9-1.8c0-1.2,1-1.8,1.9-1.8c0.7,0,1.3,0.2,1.8,0.7
			v-1c0-0.7-0.6-1.1-1.3-1.1c-0.6,0-1.2,0.2-1.6,0.7l-0.4-0.6c0.6-0.6,1.3-0.9,2.1-0.9c1.1,0,2.1,0.5,2.1,1.8v3.7H330.7z
			 M330.7,227.2v-1c-0.3-0.4-0.9-0.7-1.5-0.7c-0.8,0-1.3,0.5-1.3,1.2c0,0.7,0.5,1.2,1.3,1.2C329.8,227.8,330.4,227.6,330.7,227.2z"
			/>
		<path class="st0" d="M333.3,228.3V221h0.8v7.3H333.3z"/>
		<path class="st0" d="M336.1,227.2v-3.5h-0.9V223h0.9v-1.5h0.8v1.5h1.1v0.7h-1.1v3.3c0,0.4,0.2,0.7,0.5,0.7c0.2,0,0.5-0.1,0.6-0.2
			l0.2,0.6c-0.2,0.2-0.5,0.3-1,0.3C336.5,228.4,336.1,228,336.1,227.2z"/>
		<path class="st0" d="M343,228.3v-3.5c0-0.9-0.5-1.2-1.2-1.2c-0.6,0-1.3,0.4-1.6,0.8v3.9h-0.8V221h0.8v2.8c0.4-0.4,1.1-0.9,1.9-0.9
			c1.1,0,1.7,0.5,1.7,1.7v3.8H343z"/>
		<path class="st0" d="M345.8,229.7l-0.4-0.3c0.4-0.2,0.7-0.7,0.7-1c0,0-0.1,0-0.2,0c-0.3,0-0.5-0.2-0.5-0.6c0-0.3,0.3-0.6,0.6-0.6
			c0.4,0,0.7,0.3,0.7,0.8C346.7,228.7,346.3,229.3,345.8,229.7z"/>
		<path class="st0" d="M356.6,228.3l-1.6-5.9l-1.6,5.9h-1l-2.1-7.3h1l1.6,6.1l1.7-6.1h0.8l1.7,6.1l1.6-6.1h1l-2.1,7.3H356.6z"/>
		<path class="st0" d="M363.9,228.3v-0.6c-0.4,0.5-1,0.7-1.8,0.7c-0.9,0-1.9-0.6-1.9-1.8c0-1.2,1-1.8,1.9-1.8c0.7,0,1.3,0.2,1.8,0.7
			v-1c0-0.7-0.6-1.1-1.3-1.1c-0.6,0-1.2,0.2-1.6,0.7l-0.4-0.6c0.6-0.6,1.3-0.9,2.1-0.9c1.1,0,2.1,0.5,2.1,1.8v3.7H363.9z
			 M363.9,227.2v-1c-0.3-0.4-0.9-0.7-1.5-0.7c-0.8,0-1.3,0.5-1.3,1.2c0,0.7,0.5,1.2,1.3,1.2C363,227.8,363.6,227.6,363.9,227.2z"/>
		<path class="st0" d="M366.7,227.2v-3.5h-0.9V223h0.9v-1.5h0.8v1.5h1.1v0.7h-1.1v3.3c0,0.4,0.2,0.7,0.5,0.7c0.2,0,0.5-0.1,0.6-0.2
			l0.2,0.6c-0.2,0.2-0.5,0.3-1,0.3C367.1,228.4,366.7,228,366.7,227.2z"/>
		<path class="st0" d="M369.5,225.6c0-1.5,1.1-2.8,2.6-2.8c1.6,0,2.6,1.3,2.6,2.9v0.2h-4.3c0.1,1,0.8,1.8,1.9,1.8
			c0.6,0,1.2-0.2,1.6-0.7l0.4,0.5c-0.5,0.5-1.2,0.8-2.1,0.8C370.6,228.4,369.5,227.3,369.5,225.6z M372.1,223.5
			c-1.1,0-1.7,1-1.7,1.8h3.5C373.8,224.5,373.3,223.5,372.1,223.5z"/>
		<path class="st0" d="M376.1,228.3V223h0.8v0.9c0.4-0.6,1-1,1.8-1v0.8c-0.1,0-0.2,0-0.3,0c-0.5,0-1.2,0.4-1.4,0.8v3.8H376.1z"/>
	</g>
	<g>
		<path class="st0" d="M321.6,240.6c-0.2-0.2-0.5-0.5-0.8-0.8c-0.5,0.5-1.2,0.9-2.1,0.9c-1.3,0-2.3-0.7-2.3-2c0-1.1,0.8-1.7,1.6-2.2
			c-0.3-0.6-0.6-1.1-0.6-1.7c0-1,0.8-1.7,1.9-1.7c1,0,1.7,0.5,1.7,1.4c0,1.1-0.9,1.6-1.9,2.1c0.3,0.4,0.6,0.8,0.8,1
			c0.3,0.4,0.6,0.7,0.9,1c0.4-0.6,0.7-1.3,0.8-1.7l0.7,0.3c-0.3,0.6-0.6,1.3-1,1.9c0.4,0.5,0.9,0.9,1.4,1.4H321.6z M320.3,239.3
			c-0.4-0.4-0.8-0.9-1-1.1c-0.3-0.4-0.6-0.7-0.9-1.2c-0.6,0.4-1.1,0.8-1.1,1.6c0,0.9,0.7,1.4,1.5,1.4
			C319.3,240,319.8,239.7,320.3,239.3z M318.7,236.1c0.8-0.4,1.5-0.8,1.5-1.5c0-0.5-0.4-0.8-0.9-0.8c-0.6,0-1,0.4-1,1.1
			C318.3,235.2,318.5,235.6,318.7,236.1z"/>
		<path class="st0" d="M326.3,239.5l0.5-0.7c0.5,0.5,1.3,1,2.3,1c1.3,0,1.7-0.7,1.7-1.3c0-1.9-4.4-0.8-4.4-3.5c0-1.2,1.1-2,2.5-2
			c1.1,0,2,0.4,2.6,1l-0.6,0.7c-0.6-0.6-1.3-0.9-2.1-0.9c-0.9,0-1.5,0.5-1.5,1.2c0,1.7,4.4,0.7,4.4,3.4c0,1.1-0.7,2.2-2.7,2.2
			C327.8,240.7,326.9,240.2,326.3,239.5z"/>
		<path class="st0" d="M336.6,240.6v-0.6c-0.4,0.5-1,0.7-1.8,0.7c-0.9,0-1.9-0.6-1.9-1.8c0-1.2,1-1.8,1.9-1.8c0.7,0,1.3,0.2,1.8,0.7
			v-1c0-0.7-0.6-1.1-1.3-1.1c-0.6,0-1.2,0.2-1.6,0.7l-0.4-0.6c0.6-0.6,1.3-0.9,2.1-0.9c1.1,0,2.1,0.5,2.1,1.8v3.7H336.6z
			 M336.6,239.4v-1c-0.3-0.4-0.9-0.7-1.5-0.7c-0.8,0-1.3,0.5-1.3,1.2c0,0.7,0.5,1.2,1.3,1.2C335.7,240.1,336.3,239.9,336.6,239.4z"
			/>
		<path class="st0" d="M342.8,240.6v-3.5c0-0.9-0.5-1.2-1.2-1.2c-0.6,0-1.3,0.4-1.6,0.8v3.9h-0.8v-5.3h0.8v0.8
			c0.4-0.4,1.1-0.9,1.9-0.9c1.1,0,1.7,0.6,1.7,1.7v3.7H342.8z"/>
		<path class="st0" d="M345.3,233.9c0-0.3,0.3-0.6,0.6-0.6c0.3,0,0.6,0.3,0.6,0.6s-0.3,0.6-0.6,0.6
			C345.5,234.5,345.3,234.2,345.3,233.9z M345.4,240.6v-5.3h0.8v5.3H345.4z"/>
		<path class="st0" d="M348.2,239.4V236h-0.9v-0.7h0.9v-1.5h0.8v1.5h1.1v0.7h-1.1v3.3c0,0.4,0.2,0.7,0.5,0.7c0.2,0,0.5-0.1,0.6-0.2
			l0.2,0.6c-0.2,0.2-0.5,0.3-1,0.3C348.6,240.7,348.2,240.2,348.2,239.4z"/>
		<path class="st0" d="M354.8,240.6v-0.6c-0.4,0.5-1,0.7-1.8,0.7c-0.9,0-1.9-0.6-1.9-1.8c0-1.2,1-1.8,1.9-1.8c0.7,0,1.3,0.2,1.8,0.7
			v-1c0-0.7-0.6-1.1-1.3-1.1c-0.6,0-1.2,0.2-1.6,0.7l-0.4-0.6c0.6-0.6,1.3-0.9,2.1-0.9c1.1,0,2.1,0.5,2.1,1.8v3.7H354.8z
			 M354.8,239.4v-1c-0.3-0.4-0.9-0.7-1.5-0.7c-0.8,0-1.3,0.5-1.3,1.2c0,0.7,0.5,1.2,1.3,1.2C353.9,240.1,354.5,239.9,354.8,239.4z"
			/>
		<path class="st0" d="M357.6,239.4V236h-0.9v-0.7h0.9v-1.5h0.8v1.5h1.1v0.7h-1.1v3.3c0,0.4,0.2,0.7,0.5,0.7c0.2,0,0.5-0.1,0.6-0.2
			l0.2,0.6c-0.2,0.2-0.5,0.3-1,0.3C358,240.7,357.6,240.2,357.6,239.4z"/>
		<path class="st0" d="M360.7,233.9c0-0.3,0.3-0.6,0.6-0.6c0.3,0,0.6,0.3,0.6,0.6s-0.3,0.6-0.6,0.6
			C361,234.5,360.7,234.2,360.7,233.9z M360.8,240.6v-5.3h0.8v5.3H360.8z"/>
		<path class="st0" d="M363.1,237.9c0-1.5,1-2.8,2.6-2.8s2.6,1.2,2.6,2.8s-1,2.8-2.6,2.8S363.1,239.4,363.1,237.9z M367.5,237.9
			c0-1.1-0.6-2-1.8-2s-1.8,1-1.8,2c0,1.1,0.6,2.1,1.8,2.1S367.5,239,367.5,237.9z"/>
		<path class="st0" d="M373.5,240.6v-3.5c0-0.9-0.5-1.2-1.2-1.2c-0.6,0-1.3,0.4-1.6,0.8v3.9h-0.8v-5.3h0.8v0.8
			c0.4-0.4,1.1-0.9,1.9-0.9c1.1,0,1.7,0.6,1.7,1.7v3.7H373.5z"/>
	</g>
	<g>
		<path class="st0" d="M314.7,79.3l0.5-0.7c0.5,0.5,1.3,1,2.3,1c1.3,0,1.7-0.7,1.7-1.3c0-1.9-4.4-0.8-4.4-3.5c0-1.2,1.1-2,2.5-2
			c1.1,0,2,0.4,2.6,1l-0.6,0.7c-0.6-0.6-1.3-0.9-2.1-0.9c-0.9,0-1.5,0.5-1.5,1.2c0,1.7,4.4,0.7,4.4,3.4c0,1.1-0.7,2.2-2.7,2.2
			C316.3,80.5,315.3,80,314.7,79.3z"/>
		<path class="st0" d="M325.3,80.3v-0.7c-0.4,0.5-1.1,0.9-1.9,0.9c-1.1,0-1.7-0.5-1.7-1.7V75h0.8v3.5c0,0.9,0.5,1.2,1.2,1.2
			c0.6,0,1.3-0.4,1.6-0.8V75h0.8v5.3H325.3z"/>
		<path class="st0" d="M327.5,79.6l0.4-0.6c0.4,0.4,1,0.8,1.8,0.8c0.8,0,1.3-0.4,1.3-0.9c0-1.3-3.3-0.5-3.3-2.5c0-0.8,0.7-1.5,2-1.5
			c0.9,0,1.5,0.3,2,0.8l-0.4,0.6c-0.3-0.4-0.9-0.7-1.6-0.7c-0.7,0-1.2,0.4-1.2,0.8c0,1.2,3.3,0.4,3.3,2.5c0,0.9-0.7,1.6-2.1,1.6
			C328.8,80.5,328,80.2,327.5,79.6z"/>
		<path class="st0" d="M333.5,79.2v-3.5h-0.9V75h0.9v-1.5h0.8V75h1.1v0.7h-1.1V79c0,0.4,0.2,0.7,0.5,0.7c0.2,0,0.5-0.1,0.6-0.2
			l0.2,0.6c-0.2,0.2-0.5,0.3-1,0.3C333.9,80.5,333.5,80,333.5,79.2z"/>
		<path class="st0" d="M340.1,80.3v-0.6c-0.4,0.5-1,0.7-1.8,0.7c-0.9,0-1.9-0.6-1.9-1.8c0-1.2,1-1.8,1.9-1.8c0.7,0,1.3,0.2,1.8,0.7
			v-1c0-0.7-0.6-1.1-1.3-1.1c-0.6,0-1.2,0.2-1.6,0.7l-0.4-0.6c0.6-0.6,1.3-0.9,2.1-0.9c1.1,0,2.1,0.5,2.1,1.8v3.7H340.1z
			 M340.1,79.2v-1c-0.3-0.4-0.9-0.7-1.5-0.7c-0.8,0-1.3,0.5-1.3,1.2c0,0.7,0.5,1.2,1.3,1.2C339.2,79.9,339.8,79.6,340.1,79.2z"/>
		<path class="st0" d="M342.5,73.7c0-0.3,0.3-0.6,0.6-0.6c0.3,0,0.6,0.3,0.6,0.6s-0.3,0.6-0.6,0.6C342.8,74.3,342.5,74,342.5,73.7z
			 M342.7,80.3V75h0.8v5.3H342.7z"/>
		<path class="st0" d="M348.9,80.3v-3.5c0-0.9-0.5-1.2-1.2-1.2c-0.6,0-1.3,0.4-1.6,0.8v3.9h-0.8V75h0.8v0.8c0.4-0.4,1.1-0.9,1.9-0.9
			c1.1,0,1.7,0.6,1.7,1.7v3.7H348.9z"/>
		<path class="st0" d="M354.7,80.3v-0.6c-0.4,0.5-1,0.7-1.8,0.7c-0.9,0-1.9-0.6-1.9-1.8c0-1.2,1-1.8,1.9-1.8c0.7,0,1.3,0.2,1.8,0.7
			v-1c0-0.7-0.6-1.1-1.3-1.1c-0.6,0-1.2,0.2-1.6,0.7l-0.4-0.6c0.6-0.6,1.3-0.9,2.1-0.9c1.1,0,2.1,0.5,2.1,1.8v3.7H354.7z
			 M354.7,79.2v-1c-0.3-0.4-0.9-0.7-1.5-0.7c-0.8,0-1.3,0.5-1.3,1.2c0,0.7,0.5,1.2,1.3,1.2C353.9,79.9,354.4,79.6,354.7,79.2z"/>
		<path class="st0" d="M357.3,80.3V73h0.8v2.8c0.4-0.6,1.1-0.9,1.8-0.9c1.4,0,2.4,1.1,2.4,2.8c0,1.7-1,2.8-2.4,2.8
			c-0.7,0-1.4-0.4-1.8-0.9v0.8H357.3z M359.8,79.7c1.1,0,1.7-0.9,1.7-2c0-1.2-0.6-2.1-1.7-2.1c-0.6,0-1.3,0.4-1.6,0.9v2.4
			C358.5,79.4,359.1,79.7,359.8,79.7z"/>
		<path class="st0" d="M363.8,80.3V73h0.8v7.3H363.8z"/>
		<path class="st0" d="M366.1,77.7c0-1.5,1.1-2.8,2.6-2.8c1.6,0,2.6,1.3,2.6,2.9v0.2H367c0.1,1,0.8,1.8,1.9,1.8
			c0.6,0,1.2-0.2,1.6-0.7l0.4,0.5c-0.5,0.5-1.2,0.8-2.1,0.8C367.3,80.5,366.1,79.3,366.1,77.7z M368.8,75.6c-1.1,0-1.7,1-1.7,1.8
			h3.5C370.5,76.5,370,75.6,368.8,75.6z"/>
	</g>
	<g>
		<path class="st0" d="M315.9,92.6v-7.3h0.9v6.5h3.4v0.8H315.9z"/>
		<path class="st0" d="M321.4,85.9c0-0.3,0.3-0.6,0.6-0.6c0.3,0,0.6,0.3,0.6,0.6s-0.3,0.6-0.6,0.6C321.7,86.5,321.4,86.3,321.4,85.9
			z M321.6,92.6v-5.3h0.8v5.3H321.6z"/>
		<path class="st0" d="M325.7,92.6l-2.2-5.3h0.9l1.8,4.4l1.8-4.4h0.9l-2.2,5.3H325.7z"/>
		<path class="st0" d="M329.4,89.9c0-1.5,1.1-2.8,2.6-2.8c1.6,0,2.6,1.3,2.6,2.9v0.2h-4.3c0.1,1,0.8,1.8,1.9,1.8
			c0.6,0,1.2-0.2,1.6-0.7l0.4,0.5c-0.5,0.5-1.2,0.8-2.1,0.8C330.5,92.7,329.4,91.6,329.4,89.9z M332,87.8c-1.1,0-1.7,1-1.7,1.8h3.5
			C333.7,88.8,333.2,87.8,332,87.8z"/>
		<path class="st0" d="M336,92.6v-7.3h0.8v7.3H336z"/>
		<path class="st0" d="M338.5,85.9c0-0.3,0.3-0.6,0.6-0.6c0.3,0,0.6,0.3,0.6,0.6s-0.3,0.6-0.6,0.6C338.7,86.5,338.5,86.3,338.5,85.9
			z M338.6,92.6v-5.3h0.8v5.3H338.6z"/>
		<path class="st0" d="M344.8,92.6v-3.5c0-0.9-0.5-1.2-1.2-1.2c-0.6,0-1.3,0.4-1.6,0.8v3.9h-0.8v-7.3h0.8V88
			c0.4-0.4,1.1-0.9,1.9-0.9c1.1,0,1.7,0.5,1.7,1.7v3.8H344.8z"/>
		<path class="st0" d="M347.1,89.9c0-1.5,1-2.8,2.6-2.8s2.6,1.2,2.6,2.8c0,1.5-1,2.8-2.6,2.8S347.1,91.5,347.1,89.9z M351.5,89.9
			c0-1.1-0.6-2-1.8-2s-1.8,1-1.8,2c0,1.1,0.6,2.1,1.8,2.1S351.5,91,351.5,89.9z"/>
		<path class="st0" d="M353.5,89.9c0-1.5,1-2.8,2.6-2.8s2.6,1.2,2.6,2.8c0,1.5-1,2.8-2.6,2.8S353.5,91.5,353.5,89.9z M357.9,89.9
			c0-1.1-0.6-2-1.8-2s-1.8,1-1.8,2c0,1.1,0.6,2.1,1.8,2.1S357.9,91,357.9,89.9z"/>
		<path class="st0" d="M364.2,92.6v-0.8c-0.4,0.5-1,0.9-1.8,0.9c-1.4,0-2.4-1.1-2.4-2.8c0-1.7,1-2.8,2.4-2.8c0.7,0,1.4,0.4,1.8,0.9
			v-2.8h0.8v7.3H364.2z M364.2,91.1v-2.4c-0.3-0.5-0.9-0.9-1.6-0.9c-1.1,0-1.7,0.9-1.7,2.1c0,1.2,0.6,2,1.7,2
			C363.2,92,363.9,91.6,364.2,91.1z"/>
		<path class="st0" d="M366.4,91.9l0.4-0.6c0.4,0.4,1,0.8,1.8,0.8c0.8,0,1.3-0.4,1.3-0.9c0-1.3-3.3-0.5-3.3-2.5c0-0.8,0.7-1.5,2-1.5
			c0.9,0,1.5,0.3,2,0.8l-0.4,0.6c-0.3-0.4-0.9-0.7-1.6-0.7c-0.7,0-1.2,0.4-1.2,0.8c0,1.2,3.3,0.4,3.3,2.5c0,0.9-0.7,1.6-2.1,1.6
			C367.6,92.7,366.9,92.4,366.4,91.9z"/>
	</g>
	<g>
		<path class="st0" d="M424.2,76.7c0-2.3,1.7-3.8,3.8-3.8c1.3,0,2.2,0.6,2.8,1.5l-0.8,0.4c-0.4-0.6-1.2-1.1-2-1.1
			c-1.6,0-2.8,1.2-2.8,3c0,1.7,1.2,3,2.8,3c0.8,0,1.6-0.4,2-1.1l0.8,0.4c-0.6,0.8-1.5,1.5-2.8,1.5C425.9,80.5,424.2,78.9,424.2,76.7
			z"/>
		<path class="st0" d="M431.8,77.7c0-1.5,1-2.8,2.6-2.8s2.6,1.2,2.6,2.8c0,1.5-1,2.8-2.6,2.8S431.8,79.2,431.8,77.7z M436.2,77.7
			c0-1.1-0.6-2-1.8-2s-1.8,1-1.8,2c0,1.1,0.6,2.1,1.8,2.1S436.2,78.8,436.2,77.7z"/>
		<path class="st0" d="M444.9,80.3v-3.6c0-0.7-0.3-1.1-1-1.1c-0.6,0-1.1,0.4-1.4,0.8v3.9h-0.8v-3.6c0-0.7-0.3-1.1-1-1.1
			c-0.5,0-1.1,0.4-1.4,0.8v3.9h-0.8V75h0.8v0.8c0.2-0.3,0.9-0.9,1.7-0.9c0.8,0,1.3,0.4,1.4,1c0.3-0.5,1-1,1.8-1c1,0,1.5,0.5,1.5,1.6
			v3.8H444.9z"/>
		<path class="st0" d="M454,80.3v-3.6c0-0.7-0.3-1.1-1-1.1c-0.6,0-1.1,0.4-1.4,0.8v3.9h-0.8v-3.6c0-0.7-0.3-1.1-1-1.1
			c-0.5,0-1.1,0.4-1.4,0.8v3.9h-0.8V75h0.8v0.8c0.2-0.3,0.9-0.9,1.7-0.9c0.8,0,1.3,0.4,1.4,1c0.3-0.5,1-1,1.8-1c1,0,1.5,0.5,1.5,1.6
			v3.8H454z"/>
		<path class="st0" d="M460.2,80.3v-0.7c-0.4,0.5-1.1,0.9-1.9,0.9c-1.1,0-1.7-0.5-1.7-1.7V75h0.8v3.5c0,0.9,0.5,1.2,1.2,1.2
			c0.6,0,1.3-0.4,1.6-0.8V75h0.8v5.3H460.2z"/>
		<path class="st0" d="M466.4,80.3v-3.5c0-0.9-0.5-1.2-1.2-1.2c-0.6,0-1.3,0.4-1.6,0.8v3.9h-0.8V75h0.8v0.8c0.4-0.4,1.1-0.9,1.9-0.9
			c1.1,0,1.7,0.6,1.7,1.7v3.7H466.4z"/>
		<path class="st0" d="M468.8,73.7c0-0.3,0.3-0.6,0.6-0.6c0.3,0,0.6,0.3,0.6,0.6s-0.3,0.6-0.6,0.6C469,74.3,468.8,74,468.8,73.7z
			 M468.9,80.3V75h0.8v5.3H468.9z"/>
		<path class="st0" d="M471.8,79.2v-3.5h-0.9V75h0.9v-1.5h0.8V75h1.1v0.7h-1.1V79c0,0.4,0.2,0.7,0.5,0.7c0.2,0,0.5-0.1,0.6-0.2
			l0.2,0.6c-0.2,0.2-0.5,0.3-1,0.3C472.2,80.5,471.8,80,471.8,79.2z"/>
		<path class="st0" d="M475.1,81.7c0.1,0.1,0.3,0.1,0.5,0.1c0.4,0,0.6-0.1,0.8-0.6l0.4-0.8l-2.2-5.4h0.9l1.8,4.4l1.8-4.4h0.9
			l-2.7,6.4c-0.3,0.8-0.9,1.1-1.6,1.1c-0.2,0-0.5,0-0.6-0.1L475.1,81.7z"/>
	</g>
	<g>
		<path class="st0" d="M421.6,92.6l-0.7-1.6h-3.7l-0.6,1.6h-1l3-7.3h1.1l3,7.3H421.6z M419.1,86.2l-1.6,4h3.1L419.1,86.2z"/>
		<path class="st0" d="M423.5,91.9l0.4-0.6c0.4,0.4,1,0.8,1.8,0.8c0.8,0,1.3-0.4,1.3-0.9c0-1.3-3.3-0.5-3.3-2.5c0-0.8,0.7-1.5,2-1.5
			c0.9,0,1.5,0.3,2,0.8l-0.4,0.6c-0.3-0.4-0.9-0.7-1.6-0.7c-0.7,0-1.2,0.4-1.2,0.8c0,1.2,3.3,0.4,3.3,2.5c0,0.9-0.7,1.6-2.1,1.6
			C424.7,92.7,424,92.4,423.5,91.9z"/>
		<path class="st0" d="M428.7,91.9l0.4-0.6c0.4,0.4,1,0.8,1.8,0.8c0.8,0,1.3-0.4,1.3-0.9c0-1.3-3.3-0.5-3.3-2.5c0-0.8,0.7-1.5,2-1.5
			c0.9,0,1.5,0.3,2,0.8l-0.4,0.6c-0.3-0.4-0.9-0.7-1.6-0.7c-0.7,0-1.2,0.4-1.2,0.8c0,1.2,3.3,0.4,3.3,2.5c0,0.9-0.7,1.6-2.1,1.6
			C430,92.7,429.3,92.4,428.7,91.9z"/>
		<path class="st0" d="M434.1,89.9c0-1.5,1.1-2.8,2.6-2.8c1.6,0,2.6,1.3,2.6,2.9v0.2H435c0.1,1,0.8,1.8,1.9,1.8
			c0.6,0,1.2-0.2,1.6-0.7l0.4,0.5c-0.5,0.5-1.2,0.8-2.1,0.8C435.2,92.7,434.1,91.6,434.1,89.9z M436.7,87.8c-1.1,0-1.7,1-1.7,1.8
			h3.5C438.4,88.8,437.9,87.8,436.7,87.8z"/>
		<path class="st0" d="M440.9,91.5V88H440v-0.7h0.9v-1.5h0.8v1.5h1.1V88h-1.1v3.3c0,0.4,0.2,0.7,0.5,0.7c0.2,0,0.5-0.1,0.6-0.2
			l0.2,0.6c-0.2,0.2-0.5,0.3-1,0.3C441.3,92.7,440.9,92.3,440.9,91.5z"/>
		<path class="st0" d="M446.5,88.9c0-2.3,1.7-3.8,3.8-3.8c1.3,0,2.2,0.6,2.8,1.5l-0.8,0.4c-0.4-0.6-1.2-1.1-2-1.1
			c-1.6,0-2.8,1.2-2.8,3c0,1.7,1.2,3,2.8,3c0.8,0,1.6-0.4,2-1.1l0.8,0.4c-0.6,0.8-1.5,1.5-2.8,1.5C448.2,92.7,446.5,91.2,446.5,88.9
			z"/>
		<path class="st0" d="M454.4,92.6v-5.3h0.8v0.9c0.4-0.6,1-1,1.8-1V88c-0.1,0-0.2,0-0.3,0c-0.5,0-1.2,0.4-1.4,0.8v3.8H454.4z"/>
		<path class="st0" d="M457.7,89.9c0-1.5,1.1-2.8,2.6-2.8c1.6,0,2.6,1.3,2.6,2.9v0.2h-4.3c0.1,1,0.8,1.8,1.9,1.8
			c0.6,0,1.2-0.2,1.6-0.7l0.4,0.5c-0.5,0.5-1.2,0.8-2.1,0.8C458.9,92.7,457.7,91.6,457.7,89.9z M460.3,87.8c-1.1,0-1.7,1-1.7,1.8
			h3.5C462.1,88.8,461.5,87.8,460.3,87.8z"/>
		<path class="st0" d="M467.7,92.6V92c-0.4,0.5-1,0.7-1.8,0.7c-0.9,0-1.9-0.6-1.9-1.8c0-1.2,1-1.8,1.9-1.8c0.7,0,1.3,0.2,1.8,0.7v-1
			c0-0.7-0.6-1.1-1.3-1.1c-0.6,0-1.2,0.2-1.6,0.7l-0.4-0.6c0.6-0.6,1.3-0.9,2.1-0.9c1.1,0,2.1,0.5,2.1,1.8v3.7H467.7z M467.7,91.5
			v-1c-0.3-0.4-0.9-0.7-1.5-0.7c-0.8,0-1.3,0.5-1.3,1.2c0,0.7,0.5,1.2,1.3,1.2C466.8,92.1,467.3,91.9,467.7,91.5z"/>
		<path class="st0" d="M470.4,91.5V88h-0.9v-0.7h0.9v-1.5h0.8v1.5h1.1V88h-1.1v3.3c0,0.4,0.2,0.7,0.5,0.7c0.2,0,0.5-0.1,0.6-0.2
			l0.2,0.6c-0.2,0.2-0.5,0.3-1,0.3C470.8,92.7,470.4,92.3,470.4,91.5z"/>
		<path class="st0" d="M473.6,85.9c0-0.3,0.3-0.6,0.6-0.6c0.3,0,0.6,0.3,0.6,0.6s-0.3,0.6-0.6,0.6C473.8,86.5,473.6,86.3,473.6,85.9
			z M473.7,92.6v-5.3h0.8v5.3H473.7z"/>
		<path class="st0" d="M476,89.9c0-1.5,1-2.8,2.6-2.8s2.6,1.2,2.6,2.8c0,1.5-1,2.8-2.6,2.8S476,91.5,476,89.9z M480.4,89.9
			c0-1.1-0.6-2-1.8-2s-1.8,1-1.8,2c0,1.1,0.6,2.1,1.8,2.1S480.4,91,480.4,89.9z"/>
		<path class="st0" d="M486.3,92.6v-3.5c0-0.9-0.5-1.2-1.2-1.2c-0.6,0-1.3,0.4-1.6,0.8v3.9h-0.8v-5.3h0.8V88
			c0.4-0.4,1.1-0.9,1.9-0.9c1.1,0,1.7,0.6,1.7,1.7v3.7H486.3z"/>
	</g>
	<g>
		<path class="st0" d="M530,80.3V73h4.8v0.8h-3.9v2.4h3.8V77h-3.8v2.5h3.9v0.8H530z"/>
		<path class="st0" d="M540,80.3v-3.5c0-0.9-0.5-1.2-1.2-1.2c-0.6,0-1.3,0.4-1.6,0.8v3.9h-0.8V75h0.8v0.8c0.4-0.4,1.1-0.9,1.9-0.9
			c1.1,0,1.7,0.6,1.7,1.7v3.7H540z"/>
		<path class="st0" d="M543.9,80.3l-2.2-5.3h0.9l1.8,4.4l1.8-4.4h0.9l-2.2,5.3H543.9z"/>
		<path class="st0" d="M548,73.7c0-0.3,0.3-0.6,0.6-0.6c0.3,0,0.6,0.3,0.6,0.6s-0.3,0.6-0.6,0.6C548.2,74.3,548,74,548,73.7z
			 M548.1,80.3V75h0.8v5.3H548.1z"/>
		<path class="st0" d="M550.7,80.3V75h0.8v0.9c0.4-0.6,1-1,1.8-1v0.8c-0.1,0-0.2,0-0.3,0c-0.5,0-1.2,0.4-1.4,0.8v3.8H550.7z"/>
		<path class="st0" d="M554.1,77.7c0-1.5,1-2.8,2.6-2.8s2.6,1.2,2.6,2.8c0,1.5-1,2.8-2.6,2.8S554.1,79.2,554.1,77.7z M558.5,77.7
			c0-1.1-0.6-2-1.8-2s-1.8,1-1.8,2c0,1.1,0.6,2.1,1.8,2.1S558.5,78.8,558.5,77.7z"/>
		<path class="st0" d="M564.4,80.3v-3.5c0-0.9-0.5-1.2-1.2-1.2c-0.6,0-1.3,0.4-1.6,0.8v3.9h-0.8V75h0.8v0.8c0.4-0.4,1.1-0.9,1.9-0.9
			c1.1,0,1.7,0.6,1.7,1.7v3.7H564.4z"/>
		<path class="st0" d="M573.4,80.3v-3.6c0-0.7-0.3-1.1-1-1.1c-0.6,0-1.1,0.4-1.4,0.8v3.9h-0.8v-3.6c0-0.7-0.3-1.1-1-1.1
			c-0.5,0-1.1,0.4-1.4,0.8v3.9H567V75h0.8v0.8c0.2-0.3,0.9-0.9,1.7-0.9c0.8,0,1.3,0.4,1.4,1c0.3-0.5,1-1,1.8-1c1,0,1.5,0.5,1.5,1.6
			v3.8H573.4z"/>
		<path class="st0" d="M575.7,77.7c0-1.5,1.1-2.8,2.6-2.8c1.6,0,2.6,1.3,2.6,2.9v0.2h-4.3c0.1,1,0.8,1.8,1.9,1.8
			c0.6,0,1.2-0.2,1.6-0.7l0.4,0.5c-0.5,0.5-1.2,0.8-2.1,0.8C576.9,80.5,575.7,79.3,575.7,77.7z M578.4,75.6c-1.1,0-1.7,1-1.7,1.8
			h3.5C580.1,76.5,579.6,75.6,578.4,75.6z"/>
		<path class="st0" d="M586,80.3v-3.5c0-0.9-0.5-1.2-1.2-1.2c-0.6,0-1.3,0.4-1.6,0.8v3.9h-0.8V75h0.8v0.8c0.4-0.4,1.1-0.9,1.9-0.9
			c1.1,0,1.7,0.6,1.7,1.7v3.7H586z"/>
		<path class="st0" d="M588.8,79.2v-3.5h-0.9V75h0.9v-1.5h0.8V75h1.1v0.7h-1.1V79c0,0.4,0.2,0.7,0.5,0.7c0.2,0,0.5-0.1,0.6-0.2
			l0.2,0.6c-0.2,0.2-0.5,0.3-1,0.3C589.2,80.5,588.8,80,588.8,79.2z"/>
	</g>
	<g>
		<path class="st0" d="M545.2,92.6c-0.2-0.2-0.5-0.5-0.8-0.8c-0.5,0.5-1.2,0.9-2.1,0.9c-1.3,0-2.3-0.7-2.3-2c0-1.1,0.8-1.7,1.6-2.2
			c-0.3-0.6-0.6-1.1-0.6-1.7c0-1,0.8-1.7,1.9-1.7c1,0,1.7,0.5,1.7,1.4c0,1.1-0.9,1.6-1.9,2.1c0.3,0.4,0.6,0.8,0.8,1
			c0.3,0.4,0.6,0.7,0.9,1c0.4-0.6,0.7-1.3,0.8-1.7l0.7,0.3c-0.3,0.6-0.6,1.3-1,1.9c0.4,0.5,0.9,0.9,1.4,1.4H545.2z M543.9,91.3
			c-0.4-0.4-0.8-0.9-1-1.1c-0.3-0.4-0.6-0.7-0.9-1.2c-0.6,0.4-1.1,0.8-1.1,1.6c0,0.9,0.7,1.4,1.5,1.4C543,92,543.5,91.7,543.9,91.3z
			 M542.3,88.1c0.8-0.4,1.5-0.8,1.5-1.5c0-0.5-0.4-0.8-0.9-0.8c-0.6,0-1,0.4-1,1.1C541.9,87.2,542.1,87.7,542.3,88.1z"/>
		<path class="st0" d="M549.9,91.5l0.5-0.7c0.5,0.5,1.3,1,2.3,1c1.3,0,1.7-0.7,1.7-1.3c0-1.9-4.4-0.8-4.4-3.5c0-1.2,1.1-2,2.5-2
			c1.1,0,2,0.4,2.6,1l-0.6,0.7c-0.6-0.6-1.3-0.9-2.1-0.9c-0.9,0-1.5,0.5-1.5,1.2c0,1.7,4.4,0.7,4.4,3.4c0,1.1-0.7,2.2-2.7,2.2
			C551.5,92.7,550.5,92.2,549.9,91.5z"/>
		<path class="st0" d="M560.3,92.6V92c-0.4,0.5-1,0.7-1.8,0.7c-0.9,0-1.9-0.6-1.9-1.8c0-1.2,1-1.8,1.9-1.8c0.7,0,1.3,0.2,1.8,0.7v-1
			c0-0.7-0.6-1.1-1.3-1.1c-0.6,0-1.2,0.2-1.6,0.7l-0.4-0.6c0.6-0.6,1.3-0.9,2.1-0.9c1.1,0,2.1,0.5,2.1,1.8v3.7H560.3z M560.3,91.5
			v-1c-0.3-0.4-0.9-0.7-1.5-0.7c-0.8,0-1.3,0.5-1.3,1.2c0,0.7,0.5,1.2,1.3,1.2C559.4,92.1,559.9,91.9,560.3,91.5z"/>
		<path class="st0" d="M563.1,92.6V88h-0.9v-0.7h0.9v-0.4c0-1.1,0.6-1.7,1.5-1.7c0.4,0,0.8,0.1,1.1,0.4l-0.3,0.5
			c-0.2-0.2-0.4-0.3-0.7-0.3c-0.5,0-0.8,0.4-0.8,1v0.4h1.1V88h-1.1v4.6H563.1z"/>
		<path class="st0" d="M565.7,89.9c0-1.5,1.1-2.8,2.6-2.8c1.6,0,2.6,1.3,2.6,2.9v0.2h-4.3c0.1,1,0.8,1.8,1.9,1.8
			c0.6,0,1.2-0.2,1.6-0.7l0.4,0.5c-0.5,0.5-1.2,0.8-2.1,0.8C566.8,92.7,565.7,91.6,565.7,89.9z M568.3,87.8c-1.1,0-1.7,1-1.7,1.8
			h3.5C570.1,88.8,569.5,87.8,568.3,87.8z"/>
		<path class="st0" d="M572.5,91.5V88h-0.9v-0.7h0.9v-1.5h0.8v1.5h1.1V88h-1.1v3.3c0,0.4,0.2,0.7,0.5,0.7c0.2,0,0.5-0.1,0.6-0.2
			l0.2,0.6c-0.2,0.2-0.5,0.3-1,0.3C572.9,92.7,572.5,92.3,572.5,91.5z"/>
		<path class="st0" d="M575.8,93.9c0.1,0.1,0.3,0.1,0.5,0.1c0.4,0,0.6-0.1,0.8-0.6l0.4-0.8l-2.2-5.4h0.9l1.8,4.4l1.8-4.4h0.9
			l-2.7,6.4c-0.3,0.8-0.9,1.1-1.6,1.1c-0.2,0-0.5,0-0.6-0.1L575.8,93.9z"/>
	</g>
	<g>
		<path class="st0" d="M414.1,227.3l0.5-0.7c0.5,0.5,1.3,1,2.3,1c1.3,0,1.7-0.7,1.7-1.3c0-1.9-4.4-0.8-4.4-3.5c0-1.2,1.1-2,2.5-2
			c1.1,0,2,0.4,2.6,1l-0.6,0.7c-0.6-0.6-1.3-0.9-2.1-0.9c-0.9,0-1.5,0.5-1.5,1.2c0,1.7,4.4,0.7,4.4,3.4c0,1.1-0.7,2.2-2.7,2.2
			C415.7,228.4,414.7,227.9,414.1,227.3z"/>
		<path class="st0" d="M422,227.5v2.8h-0.8V223h0.8v0.8c0.4-0.5,1-0.9,1.8-0.9c1.4,0,2.4,1.1,2.4,2.8c0,1.7-1,2.8-2.4,2.8
			C423,228.4,422.4,228.1,422,227.5z M425.3,225.6c0-1.2-0.6-2-1.7-2c-0.6,0-1.3,0.4-1.6,0.8v2.4c0.3,0.5,0.9,0.9,1.6,0.9
			C424.6,227.7,425.3,226.8,425.3,225.6z"/>
		<path class="st0" d="M427.3,225.6c0-1.5,1-2.8,2.6-2.8s2.6,1.2,2.6,2.8s-1,2.8-2.6,2.8S427.3,227.2,427.3,225.6z M431.7,225.6
			c0-1.1-0.6-2-1.8-2s-1.8,1-1.8,2c0,1.1,0.6,2.1,1.8,2.1S431.7,226.7,431.7,225.6z"/>
		<path class="st0" d="M434.1,228.3V223h0.8v0.9c0.4-0.6,1-1,1.8-1v0.8c-0.1,0-0.2,0-0.3,0c-0.5,0-1.2,0.4-1.4,0.8v3.8H434.1z"/>
		<path class="st0" d="M438.3,227.2v-3.5h-0.9V223h0.9v-1.5h0.8v1.5h1.1v0.7h-1.1v3.3c0,0.4,0.2,0.7,0.5,0.7c0.2,0,0.5-0.1,0.6-0.2
			l0.2,0.6c-0.2,0.2-0.5,0.3-1,0.3C438.7,228.4,438.3,228,438.3,227.2z"/>
		<path class="st0" d="M441.3,227.6l0.4-0.6c0.4,0.4,1,0.8,1.8,0.8c0.8,0,1.3-0.4,1.3-0.9c0-1.3-3.3-0.5-3.3-2.5
			c0-0.8,0.7-1.5,2-1.5c0.9,0,1.5,0.3,2,0.8l-0.4,0.6c-0.3-0.4-0.9-0.7-1.6-0.7c-0.7,0-1.2,0.4-1.2,0.8c0,1.2,3.3,0.4,3.3,2.5
			c0,0.9-0.7,1.6-2.1,1.6C442.6,228.4,441.8,228.2,441.3,227.6z"/>
		<path class="st0" d="M454.5,228.3c-0.2-0.2-0.5-0.5-0.8-0.8c-0.5,0.5-1.2,0.9-2.1,0.9c-1.3,0-2.3-0.7-2.3-2c0-1.1,0.8-1.7,1.6-2.2
			c-0.3-0.6-0.6-1.1-0.6-1.7c0-1,0.8-1.7,1.9-1.7c1,0,1.7,0.5,1.7,1.4c0,1.1-0.9,1.6-1.9,2.1c0.3,0.4,0.6,0.8,0.8,1
			c0.3,0.4,0.6,0.7,0.9,1c0.4-0.6,0.7-1.3,0.8-1.7l0.7,0.3c-0.3,0.6-0.6,1.3-1,1.9c0.4,0.5,0.9,0.9,1.4,1.4H454.5z M453.2,227
			c-0.4-0.4-0.8-0.9-1-1.1c-0.3-0.4-0.6-0.7-0.9-1.2c-0.6,0.4-1.1,0.8-1.1,1.6c0,0.9,0.7,1.4,1.5,1.4
			C452.3,227.7,452.8,227.4,453.2,227z M451.6,223.8c0.8-0.4,1.5-0.8,1.5-1.5c0-0.5-0.4-0.8-0.9-0.8c-0.6,0-1,0.4-1,1.1
			C451.2,222.9,451.4,223.4,451.6,223.8z"/>
		<path class="st0" d="M459.4,224.6c0-2.3,1.7-3.8,3.8-3.8c1.3,0,2.2,0.6,2.8,1.5l-0.8,0.4c-0.4-0.6-1.2-1.1-2-1.1
			c-1.6,0-2.8,1.2-2.8,3c0,1.7,1.2,3,2.8,3c0.8,0,1.6-0.4,2-1.1l0.8,0.4c-0.6,0.8-1.5,1.5-2.8,1.5
			C461,228.4,459.4,226.9,459.4,224.6z"/>
		<path class="st0" d="M470.8,228.3v-0.7c-0.4,0.5-1.1,0.9-1.9,0.9c-1.1,0-1.7-0.5-1.7-1.7V223h0.8v3.5c0,0.9,0.5,1.2,1.2,1.2
			c0.6,0,1.3-0.4,1.6-0.8V223h0.8v5.3H470.8z"/>
		<path class="st0" d="M473.4,228.3v-7.3h0.8v7.3H473.4z"/>
		<path class="st0" d="M476.2,227.2v-3.5h-0.9V223h0.9v-1.5h0.8v1.5h1.1v0.7H477v3.3c0,0.4,0.2,0.7,0.5,0.7c0.2,0,0.5-0.1,0.6-0.2
			l0.2,0.6c-0.2,0.2-0.5,0.3-1,0.3C476.6,228.4,476.2,228,476.2,227.2z"/>
		<path class="st0" d="M482.9,228.3v-0.7c-0.4,0.5-1.1,0.9-1.9,0.9c-1.1,0-1.7-0.5-1.7-1.7V223h0.8v3.5c0,0.9,0.5,1.2,1.2,1.2
			c0.6,0,1.3-0.4,1.6-0.8V223h0.8v5.3H482.9z"/>
		<path class="st0" d="M485.5,228.3V223h0.8v0.9c0.4-0.6,1-1,1.8-1v0.8c-0.1,0-0.2,0-0.3,0c-0.5,0-1.2,0.4-1.4,0.8v3.8H485.5z"/>
		<path class="st0" d="M488.9,225.6c0-1.5,1.1-2.8,2.6-2.8c1.6,0,2.6,1.3,2.6,2.9v0.2h-4.3c0.1,1,0.8,1.8,1.9,1.8
			c0.6,0,1.2-0.2,1.6-0.7l0.4,0.5c-0.5,0.5-1.2,0.8-2.1,0.8C490,228.4,488.9,227.3,488.9,225.6z M491.5,223.5c-1.1,0-1.7,1-1.7,1.8
			h3.5C493.3,224.5,492.7,223.5,491.5,223.5z"/>
	</g>
	<g>
		<path class="st1" d="M80.7,67.1l2.6-6h-3.7v-1.4h5.5v1.1l-2.7,6.3H80.7z"/>
		<path class="st1" d="M90.7,67.1v-6h-2.1v-1.4h5.9v1.4h-2.1v6H90.7z"/>
		<path class="st1" d="M98.9,67.1v-3.2c0-0.7-0.4-1-1-1c-0.5,0-1,0.3-1.2,0.6v3.6h-1.4v-7.3h1.4v2.7c0.3-0.4,1-0.8,1.9-0.8
			c1.2,0,1.7,0.6,1.7,1.7v3.8H98.9z"/>
		<path class="st1" d="M101.4,64.4c0-1.5,1.1-2.8,2.8-2.8c1.6,0,2.7,1.2,2.7,2.9v0.3h-4c0.1,0.7,0.6,1.2,1.5,1.2
			c0.5,0,1.1-0.2,1.4-0.5l0.6,0.9c-0.5,0.5-1.4,0.7-2.2,0.7C102.6,67.2,101.4,66.1,101.4,64.4z M104.1,62.7c-0.9,0-1.2,0.7-1.3,1.2
			h2.6C105.4,63.4,105.1,62.7,104.1,62.7z"/>
		<path class="st1" d="M114.4,67.1v-3.4c0-0.5-0.2-0.8-0.8-0.8c-0.5,0-0.9,0.3-1.1,0.6v3.6h-1.4v-3.4c0-0.5-0.2-0.8-0.8-0.8
			c-0.5,0-0.9,0.3-1.1,0.6v3.6h-1.4v-5.3h1.4v0.7c0.2-0.3,0.9-0.8,1.7-0.8c0.8,0,1.3,0.4,1.5,1c0.3-0.5,1-1,1.8-1
			c1,0,1.6,0.5,1.6,1.6v3.8H114.4z"/>
		<path class="st1" d="M120.4,67.1v-0.6c-0.4,0.4-1,0.7-1.7,0.7c-0.8,0-1.9-0.6-1.9-1.8c0-1.2,1-1.7,1.9-1.7c0.7,0,1.3,0.2,1.7,0.6
			v-0.7c0-0.5-0.5-0.9-1.2-0.9c-0.6,0-1.1,0.2-1.6,0.6l-0.5-0.9c0.6-0.6,1.5-0.8,2.3-0.8c1.2,0,2.3,0.5,2.3,2v3.4H120.4z
			 M120.4,65.8v-0.7c-0.2-0.3-0.7-0.5-1.1-0.5c-0.6,0-1,0.3-1,0.8c0,0.5,0.5,0.8,1,0.8C119.7,66.3,120.2,66.1,120.4,65.8z"/>
		<path class="st1" d="M123.5,65.8V63h-0.9v-1.2h0.9v-1.5h1.4v1.5h1.1V63h-1.1v2.4c0,0.3,0.2,0.6,0.5,0.6c0.2,0,0.4-0.1,0.5-0.2
			l0.3,1.1c-0.2,0.2-0.6,0.3-1.2,0.3C124,67.2,123.5,66.7,123.5,65.8z"/>
		<path class="st1" d="M126.8,60.4c0-0.5,0.4-0.8,0.8-0.8c0.5,0,0.8,0.4,0.8,0.8c0,0.5-0.4,0.8-0.8,0.8
			C127.2,61.2,126.8,60.8,126.8,60.4z M126.9,67.1v-5.3h1.4v5.3H126.9z"/>
		<path class="st1" d="M129.4,64.4c0-1.6,1.2-2.8,2.8-2.8c1.1,0,1.8,0.5,2.1,1l-0.9,0.9c-0.3-0.4-0.6-0.6-1.1-0.6
			c-0.8,0-1.4,0.6-1.4,1.5c0,0.9,0.6,1.6,1.4,1.6c0.5,0,0.9-0.2,1.1-0.6l0.9,0.8c-0.4,0.5-1,1-2.1,1
			C130.6,67.2,129.4,66.1,129.4,64.4z"/>
	</g>
	<g>
		<path class="st1" d="M98.3,78.1l-0.5-1.2h-3.2l-0.5,1.2h-1.8l2.8-7.3h2l2.8,7.3H98.3z M96.3,72.3l-1.1,3.2h2.3L96.3,72.3z"/>
		<path class="st1" d="M100.8,78.1v-5.3h1.4v0.7c0.4-0.5,1-0.9,1.7-0.9V74c-0.1,0-0.2,0-0.4,0c-0.5,0-1.1,0.3-1.3,0.6v3.5H100.8z"/>
		<path class="st1" d="M104.4,75.4c0-1.5,1.1-2.8,2.8-2.8c1.6,0,2.7,1.2,2.7,2.9v0.3h-4c0.1,0.7,0.6,1.2,1.5,1.2
			c0.5,0,1.1-0.2,1.4-0.5l0.6,0.9c-0.5,0.5-1.4,0.7-2.2,0.7C105.6,78.2,104.4,77.1,104.4,75.4z M107.2,73.8c-0.9,0-1.2,0.7-1.3,1.2
			h2.6C108.4,74.4,108.1,73.8,107.2,73.8z"/>
		<path class="st1" d="M114,78.1v-0.6c-0.4,0.4-1,0.7-1.7,0.7c-0.8,0-1.9-0.6-1.9-1.8c0-1.2,1-1.7,1.9-1.7c0.7,0,1.3,0.2,1.7,0.6
			v-0.7c0-0.5-0.5-0.9-1.2-0.9c-0.6,0-1.1,0.2-1.6,0.6l-0.5-0.9c0.6-0.6,1.5-0.8,2.3-0.8c1.2,0,2.3,0.5,2.3,2v3.4H114z M114,76.8
			v-0.7c-0.2-0.3-0.7-0.5-1.1-0.5c-0.6,0-1,0.3-1,0.8c0,0.5,0.5,0.8,1,0.8C113.4,77.3,113.8,77.1,114,76.8z"/>
		<path class="st1" d="M116.4,77.4l0.6-1c0.4,0.4,1.2,0.7,1.8,0.7c0.6,0,0.9-0.2,0.9-0.6c0-0.9-3.2-0.2-3.2-2.3
			c0-0.9,0.8-1.7,2.2-1.7c0.9,0,1.6,0.3,2.1,0.7l-0.6,1c-0.3-0.3-0.9-0.6-1.6-0.6c-0.5,0-0.8,0.2-0.8,0.5c0,0.8,3.2,0.1,3.2,2.3
			c0,1-0.8,1.7-2.3,1.7C117.8,78.2,116.9,77.9,116.4,77.4z"/>
	</g>
	<g>
		<path class="st2" d="M107,11.9c-31.1,0-56.3,25.3-56.3,56.3s25.3,56.3,56.3,56.3s56.3-25.3,56.3-56.3S138,11.9,107,11.9
			 M107,127.1c-32.5,0-58.9-26.4-58.9-58.8c0-32.5,26.4-58.8,58.9-58.8s58.9,26.4,58.9,58.8C165.8,100.7,139.4,127.1,107,127.1"/>
		<path class="st3" d="M107,11.9c-31.1,0-56.3,25.3-56.3,56.3s25.3,56.3,56.3,56.3s56.3-25.3,56.3-56.3S138,11.9,107,11.9z
			 M107,127.1c-32.5,0-58.9-26.4-58.9-58.8c0-32.5,26.4-58.8,58.9-58.8s58.9,26.4,58.9,58.8C165.8,100.7,139.4,127.1,107,127.1z"/>
		<path class="st2" d="M352.5,125c0,0.1,0,0.1-0.1,0.2c-0.1,0.1-0.1,0.1-0.2,0.1s-0.1,0-0.2-0.1c-0.1-0.1-0.1-0.1-0.1-0.2
			c0-0.1,0-0.1,0.1-0.2s0.1-0.1,0.2-0.1s0.1,0,0.2,0.1C352.4,124.8,352.5,124.9,352.5,125"/>
		<path class="st3" d="M352.5,125c0,0.1,0,0.1-0.1,0.2c-0.1,0.1-0.1,0.1-0.2,0.1s-0.1,0-0.2-0.1c-0.1-0.1-0.1-0.1-0.1-0.2
			c0-0.1,0-0.1,0.1-0.2s0.1-0.1,0.2-0.1s0.1,0,0.2,0.1C352.4,124.8,352.5,124.9,352.5,125z"/>
		<path class="st4" d="M236.6,99.7c-2,0-3.6,1.6-3.6,3.6c0,1.5,1,2.9,2.3,3.4v25.1l-128.3,0c-35,0-63.5-28.5-63.5-63.5
			c0-28.7,19.4-54,47.1-61.4c5.3-1.4,10.9-2.1,16.4-2.1c0.7,0,1.3-0.6,1.3-1.3c0-0.7-0.6-1.3-1.3-1.3c-5.8,0-11.6,0.8-17.1,2.2
			c-28.8,7.7-49,33.9-49,63.8c0,36.4,29.6,66.1,66,66.1l130.9,0v-27.7c1.4-0.5,2.3-1.8,2.3-3.4C240.2,101.3,238.6,99.7,236.6,99.7"
			/>
		<path class="st3" d="M236.6,99.7c-2,0-3.6,1.6-3.6,3.6c0,1.5,1,2.9,2.3,3.4v25.1l-128.3,0c-35,0-63.5-28.5-63.5-63.5
			c0-28.7,19.4-54,47.1-61.4c5.3-1.4,10.9-2.1,16.4-2.1c0.7,0,1.3-0.6,1.3-1.3c0-0.7-0.6-1.3-1.3-1.3c-5.8,0-11.6,0.8-17.1,2.2
			c-28.8,7.7-49,33.9-49,63.8c0,36.4,29.6,66.1,66,66.1l130.9,0v-27.7c1.4-0.5,2.3-1.8,2.3-3.4C240.2,101.3,238.6,99.7,236.6,99.7z"
			/>
		<path class="st4" d="M237.8,202.7V175L107,175c-48.3,0-90.7-32.5-103.1-79.1C3.7,95.2,3,94.8,2.3,95c-0.7,0.2-1.1,0.9-0.9,1.5
			c12.7,47.7,56.1,81,105.6,81l128.3,0v25.1c-1.4,0.5-2.3,1.8-2.3,3.4c0,2,1.6,3.6,3.6,3.6c2,0,3.6-1.6,3.6-3.6
			C240.2,204.5,239.2,203.2,237.8,202.7"/>
		<path class="st3" d="M237.8,202.7V175L107,175c-48.3,0-90.7-32.5-103.1-79.1C3.7,95.2,3,94.8,2.3,95c-0.7,0.2-1.1,0.9-0.9,1.5
			c12.7,47.7,56.1,81,105.6,81l128.3,0v25.1c-1.4,0.5-2.3,1.8-2.3,3.4c0,2,1.6,3.6,3.6,3.6c2,0,3.6-1.6,3.6-3.6
			C240.2,204.5,239.2,203.2,237.8,202.7z"/>
		<path class="st2" d="M33.7,68.3c0,40.4,32.9,73.2,73.2,73.2l238.9,0v-34.9c1.4-0.5,2.3-1.8,2.3-3.4c0-2-1.6-3.6-3.6-3.6
			c-2,0-3.6,1.6-3.6,3.6c0,1.5,1,2.9,2.3,3.4V139L107,139c-39,0-70.7-31.7-70.7-70.7c0-25.2,13.5-48.6,35.4-61.3
			c0.6-0.3,0.8-1.1,0.5-1.7c-0.3-0.6-1.1-0.8-1.7-0.5c-10.9,6.3-20.1,15.4-26.5,26.3C37.2,42.3,33.7,55.2,33.7,68.3"/>
		<path class="st3" d="M33.7,68.3c0,40.4,32.9,73.2,73.2,73.2l238.9,0v-34.9c1.4-0.5,2.3-1.8,2.3-3.4c0-2-1.6-3.6-3.6-3.6
			c-2,0-3.6,1.6-3.6,3.6c0,1.5,1,2.9,2.3,3.4V139L107,139c-39,0-70.7-31.7-70.7-70.7c0-25.2,13.5-48.6,35.4-61.3
			c0.6-0.3,0.8-1.1,0.5-1.7c-0.3-0.6-1.1-0.8-1.7-0.5c-10.9,6.3-20.1,15.4-26.5,26.3C37.2,42.3,33.7,55.2,33.7,68.3z"/>
		<path class="st2" d="M345.8,202.7v-34.9l-238.9,0c-54.9,0-99.5-44.6-99.5-99.5c0-0.7-0.6-1.3-1.3-1.3s-1.3,0.6-1.3,1.3
			c0,27.3,10.6,52.9,29.9,72.2c19.3,19.3,44.9,29.9,72.2,29.9l236.3,0v32.3c-1.4,0.5-2.3,1.8-2.3,3.4c0,2,1.6,3.6,3.6,3.6
			c2,0,3.6-1.6,3.6-3.6C348.2,204.5,347.2,203.2,345.8,202.7"/>
		<path class="st3" d="M345.8,202.7v-34.9l-238.9,0c-54.9,0-99.5-44.6-99.5-99.5c0-0.7-0.6-1.3-1.3-1.3s-1.3,0.6-1.3,1.3
			c0,27.3,10.6,52.9,29.9,72.2c19.3,19.3,44.9,29.9,72.2,29.9l236.3,0v32.3c-1.4,0.5-2.3,1.8-2.3,3.4c0,2,1.6,3.6,3.6,3.6
			c2,0,3.6-1.6,3.6-3.6C348.2,204.5,347.2,203.2,345.8,202.7z"/>
		<path class="st4" d="M50.1,125.1c15.2,15.2,35.4,23.6,56.9,23.6l346.8,0v-42.1c1.4-0.5,2.3-1.8,2.3-3.4c0-2-1.6-3.6-3.6-3.6
			c-2,0-3.6,1.6-3.6,3.6c0,1.5,1,2.9,2.3,3.4v39.5h-52.7l-291.6,0c-43,0-77.9-35-77.9-77.9c0-20.8,8.1-40.4,22.8-55.1
			c0.5-0.5,0.5-1.3,0-1.8c-0.5-0.5-1.3-0.5-1.8,0C34.9,26.6,26.5,46.8,26.5,68.3C26.5,89.8,34.9,110,50.1,125.1"/>
		<path class="st3" d="M50.1,125.1c15.2,15.2,35.4,23.6,56.9,23.6l346.8,0v-42.1c1.4-0.5,2.3-1.8,2.3-3.4c0-2-1.6-3.6-3.6-3.6
			c-2,0-3.6,1.6-3.6,3.6c0,1.5,1,2.9,2.3,3.4v39.5h-52.7l-291.6,0c-43,0-77.9-35-77.9-77.9c0-20.8,8.1-40.4,22.8-55.1
			c0.5-0.5,0.5-1.3,0-1.8c-0.5-0.5-1.3-0.5-1.8,0C34.9,26.6,26.5,46.8,26.5,68.3C26.5,89.8,34.9,110,50.1,125.1z"/>
		<path class="st4" d="M453.8,202.7v-42.1l-346.8,0c-50.9,0-92.3-41.4-92.3-92.3c0-8.1,1.1-16.1,3.1-23.9c0.2-0.7-0.2-1.4-0.9-1.5
			c-0.7-0.2-1.4,0.2-1.5,0.9c-2.1,8-3.2,16.2-3.2,24.6c0,25.3,9.9,49.2,27.8,67.1c17.9,17.9,41.7,27.8,67.1,27.8l344.3,0v39.5
			c-1.4,0.5-2.3,1.8-2.3,3.4c0,2,1.6,3.6,3.6,3.6c2,0,3.6-1.6,3.6-3.6C456.2,204.5,455.2,203.2,453.8,202.7"/>
		<path class="st3" d="M453.8,202.7v-42.1l-346.8,0c-50.9,0-92.3-41.4-92.3-92.3c0-8.1,1.1-16.1,3.1-23.9c0.2-0.7-0.2-1.4-0.9-1.5
			c-0.7-0.2-1.4,0.2-1.5,0.9c-2.1,8-3.2,16.2-3.2,24.6c0,25.3,9.9,49.2,27.8,67.1c17.9,17.9,41.7,27.8,67.1,27.8l344.3,0v39.5
			c-1.4,0.5-2.3,1.8-2.3,3.4c0,2,1.6,3.6,3.6,3.6c2,0,3.6-1.6,3.6-3.6C456.2,204.5,455.2,203.2,453.8,202.7z"/>
		<path class="st2" d="M560.6,99.7c-2,0-3.6,1.6-3.6,3.6c0,1.5,1,2.9,2.3,3.4v46.7h-41.9l-410.4,0c-46.9,0-85.1-38.2-85.1-85.1
			c0-15,3.9-29.7,11.4-42.6c0.3-0.6,0.1-1.4-0.5-1.7c-0.6-0.3-1.4-0.1-1.7,0.5c-7.7,13.3-11.7,28.4-11.7,43.8
			c0,23.4,9.1,45.4,25.7,62c16.6,16.6,38.6,25.7,62,25.7l454.8,0v-49.3c1.4-0.5,2.3-1.8,2.3-3.4C564.2,101.3,562.5,99.7,560.6,99.7"
			/>
		<path class="st3" d="M560.6,99.7c-2,0-3.6,1.6-3.6,3.6c0,1.5,1,2.9,2.3,3.4v46.7h-41.9l-410.4,0c-46.9,0-85.1-38.2-85.1-85.1
			c0-15,3.9-29.7,11.4-42.6c0.3-0.6,0.1-1.4-0.5-1.7c-0.6-0.3-1.4-0.1-1.7,0.5c-7.7,13.3-11.7,28.4-11.7,43.8
			c0,23.4,9.1,45.4,25.7,62c16.6,16.6,38.6,25.7,62,25.7l454.8,0v-49.3c1.4-0.5,2.3-1.8,2.3-3.4C564.2,101.3,562.5,99.7,560.6,99.7z
			"/>
	</g>
</g>
</svg>
