<?xml version="1.0" encoding="utf-8"?>
<!-- Generator: Adobe Illustrator 26.4.0, SVG Export Plug-In . SVG Version: 6.00 Build 0)  -->
<svg version="1.1" id="Layer_1" xmlns="http://www.w3.org/2000/svg" xmlns:xlink="http://www.w3.org/1999/xlink" x="0px" y="0px"
	 viewBox="0 0 991.6 578.3" style="enable-background:new 0 0 991.6 578.3;" xml:space="preserve">
<style type="text/css">
	.st0{fill:none;stroke:#076AAA;stroke-width:0.75;}
	.st1{fill:#FFFFFF;}
	.st2{fill:#F04F38;}
	.st3{fill:#354650;}
	.st4{fill:#15BFF1;}
	.st5{fill:#4E4E50;}
	.st6{fill:#F89521;}
	.st7{fill:#9ACA3E;}
</style>
<g>
	<polyline class="st0" points="76.5,17.3 985.4,17.3 985.4,410.9 160.8,410.9 	"/>
	<polyline class="st0" points="7.6,574.6 985.4,574.6 985.4,408.8 	"/>
	<rect x="262.7" y="3.7" class="st1" width="77.8" height="23.2"/>
	<rect x="518.8" y="3.7" class="st1" width="77.8" height="23.2"/>
	<rect x="518.8" y="397.2" class="st1" width="161.1" height="23.2"/>
	<rect x="782.4" y="3.7" class="st1" width="77.8" height="23.2"/>
	<rect x="6.2" y="401.8" class="st1" width="173.2" height="14"/>
	<path class="st2" d="M10.1,415.8v-9.6H6.6V404h9.4v2.2h-3.4v9.6H10.1z M24.7,415.8l-0.7-2h-5.1l-0.7,2h-2.9l4.6-11.8H23l4.6,11.8
		H24.7z M21.5,406.5l-1.8,5.1h3.7L21.5,406.5z M35.4,415.8l-2.3-4.2h-1.8v4.2h-2.5V404h5.5c2.5,0,4,1.6,4,3.8c0,2.1-1.3,3.2-2.6,3.5
		l2.7,4.5H35.4z M35.6,407.8c0-1-0.8-1.6-1.8-1.6h-2.7v3.2h2.7C34.9,409.4,35.6,408.8,35.6,407.8z M39.5,409.9
		c0-3.7,2.8-6.1,6.3-6.1c2.4,0,4,1.2,4.9,2.6l-2.1,1.1c-0.6-0.8-1.6-1.5-2.8-1.5c-2.2,0-3.7,1.7-3.7,3.9c0,2.2,1.6,3.9,3.7,3.9
		c1,0,2-0.5,2.5-0.9v-1.4h-3.1v-2.2h5.6v4.5c-1.2,1.3-2.9,2.2-5,2.2C42.4,416,39.5,413.6,39.5,409.9z M52.9,415.8V404h8.4v2.2h-5.9
		v2.5h5.7v2.2h-5.7v2.7h5.9v2.2H52.9z M66,415.8v-9.6h-3.5V404h9.4v2.2h-3.4v9.6H66z M78.1,415.8V404h8.4v2.2h-5.9v2.5h5.7v2.2h-5.7
		v4.9H78.1z M91.5,415.8V411l-4.5-7h2.9l2.9,4.7l2.9-4.7h2.9l-4.5,7v4.8H91.5z M103.9,415.8v-2c4.8-3.6,6.3-4.8,6.3-6.2
		c0-1-0.9-1.5-1.9-1.5c-1.3,0-2.4,0.5-3.2,1.4l-1.4-1.7c1.2-1.3,2.9-1.9,4.6-1.9c2.5,0,4.5,1.4,4.5,3.8c0,2-1.7,3.8-4.7,6h4.8v2.2
		H103.9z M114.3,409.9c0-3.1,1.5-6.1,4.9-6.1s4.9,3.1,4.9,6.1c0,3.1-1.5,6.1-4.9,6.1S114.3,413,114.3,409.9z M121.5,409.9
		c0-2.2-0.6-3.9-2.3-3.9c-1.7,0-2.3,1.7-2.3,3.9c0,2.2,0.6,3.9,2.3,3.9C120.9,413.8,121.5,412.1,121.5,409.9z M125.5,415.8v-2
		c4.8-3.6,6.3-4.8,6.3-6.2c0-1-0.9-1.5-1.9-1.5c-1.3,0-2.4,0.5-3.2,1.4l-1.4-1.7c1.2-1.3,2.9-1.9,4.6-1.9c2.5,0,4.5,1.4,4.5,3.8
		c0,2-1.7,3.8-4.7,6h4.8v2.2H125.5z M139,415.8v-8.6l-2,2l-1.4-1.5l3.7-3.7h2.2v11.8H139z M143.2,410.7v-1.9h4.3v1.9H143.2z
		 M148.8,415.8v-2c4.8-3.6,6.3-4.8,6.3-6.2c0-1-0.9-1.5-1.9-1.5c-1.3,0-2.4,0.5-3.2,1.4l-1.4-1.7c1.2-1.3,2.9-1.9,4.6-1.9
		c2.5,0,4.5,1.4,4.5,3.8c0,2-1.7,3.8-4.7,6h4.8v2.2H148.8z M159.4,415.8v-2c4.8-3.6,6.3-4.8,6.3-6.2c0-1-0.9-1.5-1.9-1.5
		c-1.3,0-2.4,0.5-3.2,1.4l-1.4-1.7c1.2-1.3,2.9-1.9,4.6-1.9c2.5,0,4.5,1.4,4.5,3.8c0,2-1.7,3.8-4.7,6h4.8v2.2H159.4z"/>
	<rect x="528.9" y="401.8" class="st1" width="178.8" height="14"/>
	<path class="st2" d="M532.8,415.8v-9.6h-3.5V404h9.4v2.2h-3.4v9.6H532.8z M547.5,415.8l-0.7-2h-5.1l-0.7,2h-2.9l4.6-11.8h3.2
		l4.6,11.8H547.5z M544.2,406.5l-1.8,5.1h3.7L544.2,406.5z M558.1,415.8l-2.3-4.2H554v4.2h-2.5V404h5.5c2.5,0,4,1.6,4,3.8
		c0,2.1-1.3,3.2-2.6,3.5l2.7,4.5H558.1z M558.4,407.8c0-1-0.8-1.6-1.8-1.6H554v3.2h2.7C557.6,409.4,558.4,408.8,558.4,407.8z
		 M562.3,409.9c0-3.7,2.8-6.1,6.3-6.1c2.4,0,4,1.2,4.9,2.6l-2.1,1.1c-0.6-0.8-1.6-1.5-2.8-1.5c-2.2,0-3.7,1.7-3.7,3.9
		c0,2.2,1.6,3.9,3.7,3.9c1,0,2-0.5,2.5-0.9v-1.4H568v-2.2h5.6v4.5c-1.2,1.3-2.9,2.2-5,2.2C565.1,416,562.3,413.6,562.3,409.9z
		 M575.6,415.8V404h8.4v2.2h-5.9v2.5h5.7v2.2h-5.7v2.7h5.9v2.2H575.6z M588.7,415.8v-9.6h-3.5V404h9.4v2.2h-3.4v9.6H588.7z
		 M600.8,415.8V404h8.4v2.2h-5.9v2.5h5.7v2.2h-5.7v4.9H600.8z M614.3,415.8V411l-4.5-7h2.9l2.9,4.7l2.9-4.7h2.9l-4.5,7v4.8H614.3z
		 M626.6,415.8v-2c4.8-3.6,6.3-4.8,6.3-6.2c0-1-0.9-1.5-1.9-1.5c-1.3,0-2.4,0.5-3.2,1.4l-1.4-1.7c1.2-1.3,2.9-1.9,4.6-1.9
		c2.5,0,4.5,1.4,4.5,3.8c0,2-1.7,3.8-4.7,6h4.8v2.2H626.6z M637.1,409.9c0-3.1,1.5-6.1,4.9-6.1s4.9,3.1,4.9,6.1
		c0,3.1-1.5,6.1-4.9,6.1S637.1,413,637.1,409.9z M644.3,409.9c0-2.2-0.6-3.9-2.3-3.9c-1.7,0-2.3,1.7-2.3,3.9c0,2.2,0.6,3.9,2.3,3.9
		S644.3,412.1,644.3,409.9z M648.3,415.8v-2c4.8-3.6,6.3-4.8,6.3-6.2c0-1-0.9-1.5-1.9-1.5c-1.3,0-2.4,0.5-3.2,1.4l-1.4-1.7
		c1.2-1.3,2.9-1.9,4.6-1.9c2.5,0,4.5,1.4,4.5,3.8c0,2-1.7,3.8-4.7,6h4.8v2.2H648.3z M664.2,415.8v-2.4h-5.7v-2l4.7-7.4h3.5v7.2h1.5
		v2.2h-1.5v2.4H664.2z M664.2,406.2l-3.2,4.9h3.2V406.2z M669.2,410.7v-1.9h4.3v1.9H669.2z M674.8,415.8v-2c4.8-3.6,6.3-4.8,6.3-6.2
		c0-1-0.9-1.5-1.9-1.5c-1.3,0-2.4,0.5-3.2,1.4l-1.4-1.7c1.2-1.3,2.9-1.9,4.6-1.9c2.5,0,4.5,1.4,4.5,3.8c0,2-1.7,3.8-4.7,6h4.8v2.2
		H674.8z M685.5,414.3l1.4-1.8c0.8,0.8,1.9,1.3,3.1,1.3c1.4,0,2.2-0.8,2.2-1.8c0-1-0.8-1.8-2.1-1.8c-1,0-1.8,0.3-2.5,1l-1.8-0.5V404
		h8.1v2.2h-5.6v2.9c0.6-0.6,1.5-1,2.6-1c2,0,3.8,1.4,3.8,3.8c0,2.5-1.9,4.1-4.7,4.1C688,416,686.5,415.4,685.5,414.3z"/>
	<rect x="788.9" y="7.9" class="st1" width="100.6" height="14"/>
	<path class="st3" d="M790.1,21.9V10.1h8.4v2.2h-5.9v2.5h5.7V17h-5.7v4.9H790.1z M803.5,21.9v-4.8l-4.5-7h2.9l2.9,4.7l2.9-4.7h2.9
		l-4.5,7v4.8H803.5z M815.9,21.9v-2c4.8-3.6,6.3-4.8,6.3-6.2c0-1-0.9-1.5-1.9-1.5c-1.3,0-2.4,0.5-3.2,1.4l-1.4-1.7
		c1.2-1.3,2.9-1.9,4.6-1.9c2.5,0,4.5,1.4,4.5,3.8c0,2-1.7,3.8-4.7,6h4.8v2.2H815.9z M826.3,16c0-3.1,1.5-6.1,4.9-6.1
		c3.4,0,4.9,3.1,4.9,6.1s-1.5,6.1-4.9,6.1C827.8,22.1,826.3,19,826.3,16z M833.5,16c0-2.2-0.6-3.9-2.3-3.9c-1.7,0-2.3,1.7-2.3,3.9
		c0,2.2,0.6,3.9,2.3,3.9C832.9,19.9,833.5,18.2,833.5,16z M837.5,21.9v-2c4.8-3.6,6.3-4.8,6.3-6.2c0-1-0.9-1.5-1.9-1.5
		c-1.3,0-2.4,0.5-3.2,1.4l-1.4-1.7c1.2-1.3,2.9-1.9,4.6-1.9c2.5,0,4.5,1.4,4.5,3.8c0,2-1.7,3.8-4.7,6h4.8v2.2H837.5z M850.9,21.9
		v-8.6l-2,2l-1.4-1.5l3.7-3.7h2.2v11.8H850.9z M855.2,16.8v-1.9h4.3v1.9H855.2z M860.8,21.9v-2c4.8-3.6,6.3-4.8,6.3-6.2
		c0-1-0.9-1.5-1.9-1.5c-1.3,0-2.4,0.5-3.2,1.4l-1.4-1.7c1.2-1.3,2.9-1.9,4.6-1.9c2.5,0,4.5,1.4,4.5,3.8c0,2-1.7,3.8-4.7,6h4.8v2.2
		H860.8z M871.4,21.9v-2c4.8-3.6,6.3-4.8,6.3-6.2c0-1-0.9-1.5-1.9-1.5c-1.3,0-2.4,0.5-3.2,1.4l-1.4-1.7c1.2-1.3,2.9-1.9,4.6-1.9
		c2.5,0,4.5,1.4,4.5,3.8c0,2-1.7,3.8-4.7,6h4.8v2.2H871.4z"/>
	<g>
		<path class="st4" d="M797,94.3v-5.9h-7.1v-3.9l4.7-15.8h7.1v15.6h1.7l-0.4,4.1h-1.3v5.9H797z M797,84.3v-2.9
			c0-2.8,0.2-6.1,0.2-8.3H797c-0.8,3.4-1.8,7.8-2.6,11.2H797z"/>
	</g>
	<g>
		<path class="st4" d="M803.4,177.4v12.1c0,4-1.5,7.2-6.7,7.2c-5,0-6.3-3.4-6.3-7.2v-11.9c0-4.6,2.3-7.2,6.5-7.2
			C801.1,170.4,803.4,173,803.4,177.4z M795.3,177v13.1c0,1.5,0.4,2.3,1.5,2.3c1.1,0,1.5-0.9,1.5-2.4v-13.1c0-1.3-0.4-2.2-1.5-2.2
			C795.7,174.7,795.3,175.6,795.3,177z"/>
		<path class="st4" d="M805.5,196.4V190h5v6.4H805.5z"/>
		<path class="st4" d="M812.6,190.1v-2.2c0-3,1.3-4.2,2.6-5.1c-1.4-0.9-2.3-2.1-2.3-5.1v-1c0-4.1,2.3-6.2,6.3-6.2
			c3.7,0,6.1,1.9,6.1,6.3v0.9c0,3.2-1,4.3-2.2,5c1.6,0.8,2.6,2.2,2.6,5.1v2c0,5-2.3,6.9-6.7,6.9
			C815.4,196.7,812.6,195.1,812.6,190.1z M820.7,190.5V187c0-1.7-0.7-2.1-1.6-2.1c-0.9,0-1.5,0.6-1.5,2.1v3.5c0,1.3,0.5,2.1,1.5,2.1
			C820.1,192.6,820.7,192,820.7,190.5z M817.7,176.6v2.1c0,1.3,0.6,2.1,1.5,2.1s1.5-0.7,1.5-2.1v-2.1c0-1.2-0.4-2-1.5-2
			C818.1,174.6,817.7,175.4,817.7,176.6z"/>
		<path class="st4" d="M829.2,196.4v-20.2c-0.7,0-1.7-0.1-2.2-0.2v-3.6c1.6-0.2,2.8-0.8,3.5-1.7h3.8v25.7H829.2z"/>
	</g>
	<rect x="9" y="7.9" class="st1" width="96.1" height="14"/>
	<path class="st3" d="M10.2,21.9V10.1h8.4v2.2h-5.9v2.5h5.7V17h-5.7v4.9H10.2z M23.6,21.9v-4.8l-4.5-7h2.9l2.9,4.7l2.9-4.7h2.9
		l-4.5,7v4.8H23.6z M36,21.9v-2c4.8-3.6,6.3-4.8,6.3-6.2c0-1-0.9-1.5-1.9-1.5c-1.3,0-2.4,0.5-3.2,1.4l-1.4-1.7
		c1.2-1.3,2.9-1.9,4.6-1.9c2.5,0,4.5,1.4,4.5,3.8c0,2-1.7,3.8-4.7,6h4.8v2.2H36z M46.4,16c0-3.1,1.5-6.1,4.9-6.1
		c3.4,0,4.9,3.1,4.9,6.1s-1.5,6.1-4.9,6.1C47.9,22.1,46.4,19,46.4,16z M53.6,16c0-2.2-0.6-3.9-2.3-3.9c-1.7,0-2.3,1.7-2.3,3.9
		c0,2.2,0.6,3.9,2.3,3.9C53,19.9,53.6,18.2,53.6,16z M60.4,21.9v-8.6l-2,2L57,13.8l3.7-3.7h2.2v11.8H60.4z M64.7,18.8
		c0-1.4,1.1-2.5,2.5-3c-1.3-0.5-2.3-1.3-2.3-2.8c0-2.2,2.4-3.1,4.6-3.1c2.2,0,4.6,0.9,4.6,3.1c0,1.5-1,2.3-2.3,2.8
		c1.4,0.5,2.5,1.6,2.5,3c0,2.2-2.3,3.3-4.8,3.3S64.7,21,64.7,18.8z M71.6,18.5c0-1-1.5-1.4-2.2-1.5c-0.7,0.1-2.2,0.6-2.2,1.5
		c0,0.9,1,1.4,2.2,1.4C70.6,19.9,71.6,19.3,71.6,18.5z M71.4,13.4c0-0.8-0.8-1.3-2-1.3c-1.2,0-2,0.5-2,1.3c0,0.9,1.3,1.2,2,1.4
		C70.2,14.7,71.4,14.3,71.4,13.4z M75.3,16.8v-1.9h4.3v1.9H75.3z M83.7,21.9v-8.6l-2,2l-1.4-1.5l3.7-3.7h2.2v11.8H83.7z M88.6,20.9
		l1.1-1.9c0.6,0.6,1.3,0.9,2.4,0.9c2,0,3-1.7,3-3.3c0-0.1,0-0.2,0-0.3c-0.6,0.8-1.8,1.5-3.1,1.5c-2.1,0-4-1.3-4-3.9
		c0-2.3,1.8-4.1,4.5-4.1c3.6,0,5.1,2.8,5.1,6.1c0,3.6-2,6.1-5.5,6.1C90.7,22.1,89.5,21.6,88.6,20.9z M95,14.5
		c-0.1-1.1-0.7-2.4-2.4-2.4c-1.4,0-2.1,0.9-2.1,1.7c0,1.2,1.1,1.8,2.2,1.8C93.6,15.6,94.5,15.2,95,14.5z"/>
	<g>
		<path class="st5" d="M7.6,55.7V43.9h7.8v1.3H9.1V49h6.2v1.3H9.1v5.4H7.6z"/>
		<path class="st5" d="M22.7,55.7v-1c-0.7,0.8-1.7,1.2-2.8,1.2c-1.5,0-3-1-3-2.8c0-1.9,1.5-2.8,3-2.8c1.2,0,2.1,0.4,2.8,1.2v-1.5
			c0-1.2-0.9-1.8-2.2-1.8c-1,0-1.9,0.4-2.6,1.2l-0.6-0.9c0.9-1,2-1.4,3.4-1.4c1.8,0,3.3,0.8,3.3,2.9v5.9H22.7z M22.7,53.9v-1.6
			c-0.5-0.7-1.4-1.1-2.4-1.1c-1.2,0-2.1,0.8-2.1,1.9c0,1.1,0.9,1.9,2.1,1.9C21.2,54.9,22.1,54.6,22.7,53.9z"/>
		<path class="st5" d="M27.1,53.9v-5.6h-1.4v-1.2h1.4v-2.3h1.3v2.3h1.7v1.2h-1.7v5.3c0,0.6,0.3,1.1,0.9,1.1c0.4,0,0.7-0.2,0.9-0.4
			l0.4,1c-0.3,0.3-0.8,0.6-1.6,0.6C27.8,55.9,27.1,55.2,27.1,53.9z"/>
		<path class="st5" d="M37.7,55.7v-1c-0.7,0.8-1.7,1.2-2.8,1.2c-1.5,0-3-1-3-2.8c0-1.9,1.5-2.8,3-2.8c1.2,0,2.1,0.4,2.8,1.2v-1.5
			c0-1.2-0.9-1.8-2.2-1.8c-1,0-1.9,0.4-2.6,1.2l-0.6-0.9c0.9-1,2-1.4,3.4-1.4c1.8,0,3.3,0.8,3.3,2.9v5.9H37.7z M37.7,53.9v-1.6
			c-0.5-0.7-1.4-1.1-2.4-1.1c-1.2,0-2.1,0.8-2.1,1.9c0,1.1,0.9,1.9,2.1,1.9C36.3,54.9,37.2,54.6,37.7,53.9z"/>
		<path class="st5" d="M41.9,55.7V43.9h1.3v11.8H41.9z"/>
		<path class="st5" d="M45.8,45c0-0.5,0.4-0.9,0.9-0.9c0.5,0,0.9,0.4,0.9,0.9s-0.4,0.9-0.9,0.9C46.3,45.9,45.8,45.5,45.8,45z
			 M46.1,55.7v-8.6h1.3v8.6H46.1z"/>
		<path class="st5" d="M50.6,53.9v-5.6h-1.4v-1.2h1.4v-2.3h1.3v2.3h1.7v1.2h-1.7v5.3c0,0.6,0.3,1.1,0.9,1.1c0.4,0,0.7-0.2,0.9-0.4
			l0.4,1c-0.3,0.3-0.8,0.6-1.6,0.6C51.3,55.9,50.6,55.2,50.6,53.9z"/>
		<path class="st5" d="M56,57.8c0.2,0.1,0.5,0.1,0.7,0.1c0.6,0,1-0.2,1.3-0.9l0.6-1.3L55,47.1h1.4l2.9,7l2.8-7h1.5l-4.3,10.3
			c-0.5,1.2-1.4,1.7-2.5,1.7c-0.3,0-0.7-0.1-1-0.1L56,57.8z"/>
		<path class="st5" d="M74.9,55.7v-1c-0.7,0.8-1.7,1.2-2.8,1.2c-1.5,0-3-1-3-2.8c0-1.9,1.5-2.8,3-2.8c1.2,0,2.1,0.4,2.8,1.2v-1.5
			c0-1.2-0.9-1.8-2.2-1.8c-1,0-1.9,0.4-2.6,1.2l-0.6-0.9c0.9-1,2-1.4,3.4-1.4c1.8,0,3.3,0.8,3.3,2.9v5.9H74.9z M74.9,53.9v-1.6
			c-0.5-0.7-1.4-1.1-2.4-1.1c-1.2,0-2.1,0.8-2.1,1.9c0,1.1,0.9,1.9,2.1,1.9C73.5,54.9,74.4,54.6,74.9,53.9z"/>
		<path class="st5" d="M79.4,53.9v-5.6h-1.4v-1.2h1.4v-2.3h1.3v2.3h1.7v1.2h-1.7v5.3c0,0.6,0.3,1.1,0.9,1.1c0.4,0,0.7-0.2,0.9-0.4
			l0.4,1c-0.3,0.3-0.8,0.6-1.6,0.6C80,55.9,79.4,55.2,79.4,53.9z"/>
		<path class="st5" d="M96.3,55.7l-2.2-6.9l-2.2,6.9h-1.3l-2.7-8.6h1.4l2.1,6.8l2.3-6.8h1.1l2.3,6.8l2.1-6.8h1.4l-2.7,8.6H96.3z"/>
		<path class="st5" d="M101.5,51.4c0-2.5,1.6-4.5,4.2-4.5c2.6,0,4.2,2,4.2,4.5s-1.6,4.5-4.2,4.5C103.1,55.9,101.5,53.9,101.5,51.4z
			 M108.6,51.4c0-1.7-1-3.3-2.8-3.3c-1.8,0-2.9,1.6-2.9,3.3c0,1.8,1,3.3,2.9,3.3C107.6,54.7,108.6,53.2,108.6,51.4z"/>
		<path class="st5" d="M112.4,55.7v-8.6h1.3v1.4c0.7-0.9,1.7-1.6,2.9-1.6v1.4c-0.2,0-0.3-0.1-0.5-0.1c-0.8,0-1.9,0.7-2.3,1.4v6.1
			H112.4z"/>
		<path class="st5" d="M124.3,55.7l-3.1-3.9l-1.4,1.4v2.4h-1.3V43.9h1.3v7.8l4.5-4.6h1.7l-3.8,3.9l3.8,4.7H124.3z"/>
		<path class="st5" d="M131.4,54.6l0.7-1c0.6,0.7,1.7,1.2,2.8,1.2c1.3,0,2-0.6,2-1.5c0-2.1-5.3-0.8-5.3-4c0-1.3,1.2-2.5,3.2-2.5
			c1.5,0,2.5,0.5,3.2,1.2l-0.6,0.9c-0.5-0.6-1.5-1.1-2.6-1.1c-1.2,0-1.9,0.6-1.9,1.3c0,1.9,5.3,0.6,5.3,4c0,1.4-1.2,2.6-3.4,2.6
			C133.4,55.9,132.3,55.5,131.4,54.6z"/>
		<path class="st5" d="M140.3,45c0-0.5,0.4-0.9,0.9-0.9c0.5,0,0.9,0.4,0.9,0.9s-0.4,0.9-0.9,0.9C140.7,45.9,140.3,45.5,140.3,45z
			 M140.5,55.7v-8.6h1.3v8.6H140.5z"/>
		<path class="st5" d="M145.1,53.9v-5.6h-1.4v-1.2h1.4v-2.3h1.3v2.3h1.7v1.2h-1.7v5.3c0,0.6,0.3,1.1,0.9,1.1c0.4,0,0.7-0.2,0.9-0.4
			l0.4,1c-0.3,0.3-0.8,0.6-1.6,0.6C145.7,55.9,145.1,55.2,145.1,53.9z"/>
		<path class="st5" d="M149.6,51.4c0-2.5,1.8-4.5,4.2-4.5c2.6,0,4.1,2,4.1,4.6v0.3H151c0.1,1.6,1.2,3,3.1,3c1,0,2-0.4,2.6-1.1
			l0.6,0.9c-0.9,0.9-2,1.3-3.4,1.3C151.4,55.9,149.6,54.1,149.6,51.4z M153.8,48c-1.8,0-2.7,1.5-2.8,2.9h5.6
			C156.6,49.6,155.7,48,153.8,48z"/>
	</g>
	<g>
		<path class="st5" d="M10.8,158.2v-11.8h1.5v10.5h5.5v1.3H10.8z"/>
		<path class="st5" d="M19.2,153.9c0-2.5,1.6-4.5,4.2-4.5c2.6,0,4.2,2,4.2,4.5s-1.6,4.5-4.2,4.5C20.8,158.4,19.2,156.4,19.2,153.9z
			 M26.3,153.9c0-1.7-1-3.3-2.8-3.3c-1.8,0-2.9,1.6-2.9,3.3c0,1.8,1,3.3,2.9,3.3C25.3,157.3,26.3,155.7,26.3,153.9z"/>
		<path class="st5" d="M29.3,157.1l0.7-1c0.6,0.7,1.7,1.2,2.8,1.2c1.3,0,2-0.6,2-1.5c0-2.1-5.3-0.8-5.3-4c0-1.3,1.2-2.5,3.2-2.5
			c1.5,0,2.5,0.6,3.2,1.2l-0.6,0.9c-0.5-0.6-1.5-1.1-2.6-1.1c-1.2,0-1.9,0.6-1.9,1.3c0,1.9,5.3,0.6,5.3,4c0,1.4-1.2,2.6-3.4,2.6
			C31.4,158.4,30.2,158,29.3,157.1z"/>
		<path class="st5" d="M39,156.4v-5.6h-1.4v-1.2H39v-2.3h1.3v2.3H42v1.2h-1.7v5.3c0,0.6,0.3,1.1,0.9,1.1c0.4,0,0.7-0.2,0.9-0.4
			l0.4,1c-0.3,0.3-0.8,0.6-1.6,0.6C39.6,158.4,39,157.7,39,156.4z"/>
		<path class="st5" d="M51.5,158.2v-10.5h-3.7v-1.3h9v1.3h-3.8v10.5H51.5z"/>
		<path class="st5" d="M58.6,147.6c0-0.5,0.4-0.9,0.9-0.9c0.5,0,0.9,0.4,0.9,0.9s-0.4,0.9-0.9,0.9C59,148.4,58.6,148,58.6,147.6z
			 M58.8,158.2v-8.6h1.3v8.6H58.8z"/>
		<path class="st5" d="M73.4,158.2v-5.8c0-1.1-0.5-1.8-1.6-1.8c-0.9,0-1.8,0.6-2.3,1.3v6.3h-1.3v-5.8c0-1.1-0.5-1.8-1.6-1.8
			c-0.9,0-1.8,0.6-2.3,1.3v6.3H63v-8.6h1.3v1.2c0.4-0.6,1.5-1.5,2.8-1.5c1.3,0,2.1,0.7,2.3,1.6c0.5-0.8,1.6-1.6,2.9-1.6
			c1.6,0,2.4,0.9,2.4,2.6v6.2H73.4z"/>
		<path class="st5" d="M77.1,153.9c0-2.5,1.8-4.5,4.2-4.5c2.6,0,4.1,2,4.1,4.6v0.3h-6.9c0.1,1.6,1.2,3,3.1,3c1,0,2-0.4,2.6-1.1
			l0.6,0.9c-0.9,0.9-2,1.3-3.4,1.3C78.9,158.4,77.1,156.6,77.1,153.9z M81.3,150.6c-1.8,0-2.7,1.5-2.8,2.9h5.6
			C84.1,152.1,83.2,150.6,81.3,150.6z"/>
		<path class="st5" d="M92.2,158.2v-11.8h1.5v11.8H92.2z"/>
		<path class="st5" d="M102.4,158.2v-5.6c0-1.5-0.8-2-1.9-2c-1,0-2,0.6-2.5,1.3v6.3h-1.3v-8.6H98v1.2c0.6-0.7,1.8-1.5,3.1-1.5
			c1.8,0,2.7,0.9,2.7,2.8v6H102.4z"/>
		<path class="st5" d="M103.5,161.1l0.5-1c0.3,0.3,0.7,0.6,1.2,0.6c0.8,0,1.4-0.5,1.4-1.5v-9.4h1.3v9.4c0,1.7-0.9,2.6-2.5,2.6
			C104.5,161.7,104.1,161.5,103.5,161.1z M106.4,147.6c0-0.5,0.4-0.9,0.9-0.9c0.5,0,0.9,0.4,0.9,0.9s-0.4,0.9-0.9,0.9
			C106.8,148.4,106.4,148,106.4,147.6z"/>
		<path class="st5" d="M116.5,158.2V157c-0.7,0.7-1.8,1.4-3.1,1.4c-1.8,0-2.7-0.9-2.7-2.7v-6.1h1.3v5.6c0,1.5,0.8,2,1.9,2
			c1,0,2-0.6,2.5-1.3v-6.3h1.3v8.6H116.5z"/>
		<path class="st5" d="M120.7,158.2v-8.6h1.3v1.4c0.7-0.9,1.7-1.6,2.9-1.6v1.4c-0.2,0-0.3-0.1-0.5-0.1c-0.8,0-1.9,0.7-2.3,1.4v6.1
			H120.7z"/>
		<path class="st5" d="M127.1,160.4c0.2,0.1,0.5,0.1,0.7,0.1c0.6,0,1-0.2,1.3-0.9l0.6-1.3l-3.6-8.7h1.4l2.9,7l2.8-7h1.5l-4.3,10.3
			c-0.5,1.2-1.4,1.7-2.5,1.7c-0.3,0-0.7-0.1-1-0.1L127.1,160.4z"/>
		<path class="st5" d="M141,158.2v-7.4h-1.4v-1.2h1.4V149c0-1.8,1-2.8,2.5-2.8c0.7,0,1.3,0.2,1.8,0.7l-0.5,0.9
			c-0.3-0.2-0.6-0.4-1.1-0.4c-0.9,0-1.3,0.6-1.3,1.7v0.7h1.7v1.2h-1.7v7.4H141z"/>
		<path class="st5" d="M145.9,158.2v-8.6h1.3v1.4c0.7-0.9,1.7-1.6,2.9-1.6v1.4c-0.2,0-0.3-0.1-0.5-0.1c-0.8,0-1.9,0.7-2.3,1.4v6.1
			H145.9z"/>
		<path class="st5" d="M151.3,153.9c0-2.5,1.8-4.5,4.2-4.5c2.6,0,4.1,2,4.1,4.6v0.3h-6.9c0.1,1.6,1.2,3,3.1,3c1,0,2-0.4,2.6-1.1
			l0.6,0.9c-0.9,0.9-2,1.3-3.4,1.3C153.2,158.4,151.3,156.6,151.3,153.9z M155.6,150.6c-1.8,0-2.7,1.5-2.8,2.9h5.6
			C158.4,152.1,157.5,150.6,155.6,150.6z"/>
		<path class="st5" d="M161.5,153.9c0-2.8,1.6-4.5,3.8-4.5c1.2,0,2.3,0.6,2.9,1.5v-1.3h1.3v11.8h-1.3v-4.6c-0.7,1-1.7,1.5-2.9,1.5
			C163.1,158.4,161.5,156.7,161.5,153.9z M168.2,155.9V152c-0.4-0.7-1.5-1.4-2.6-1.4c-1.7,0-2.7,1.4-2.7,3.3s1,3.3,2.7,3.3
			C166.7,157.3,167.8,156.6,168.2,155.9z"/>
		<path class="st5" d="M178.2,158.2V157c-0.7,0.7-1.8,1.4-3.1,1.4c-1.8,0-2.7-0.9-2.7-2.7v-6.1h1.3v5.6c0,1.5,0.8,2,1.9,2
			c1,0,2-0.6,2.5-1.3v-6.3h1.3v8.6H178.2z"/>
		<path class="st5" d="M181.9,153.9c0-2.5,1.8-4.5,4.2-4.5c2.6,0,4.1,2,4.1,4.6v0.3h-6.9c0.1,1.6,1.2,3,3.1,3c1,0,2-0.4,2.6-1.1
			l0.6,0.9c-0.9,0.9-2,1.3-3.4,1.3C183.7,158.4,181.9,156.6,181.9,153.9z M186.1,150.6c-1.8,0-2.7,1.5-2.8,2.9h5.6
			C188.9,152.1,188.1,150.6,186.1,150.6z"/>
		<path class="st5" d="M198.4,158.2v-5.6c0-1.5-0.8-2-1.9-2c-1,0-2,0.6-2.5,1.3v6.3h-1.3v-8.6h1.3v1.2c0.6-0.7,1.8-1.5,3.1-1.5
			c1.8,0,2.7,0.9,2.7,2.8v6H198.4z"/>
		<path class="st5" d="M202,153.9c0-2.5,1.7-4.5,4.3-4.5c1.6,0,2.5,0.6,3.1,1.5l-0.9,0.8c-0.6-0.8-1.3-1.1-2.2-1.1
			c-1.8,0-3,1.4-3,3.3s1.1,3.3,3,3.3c0.9,0,1.6-0.4,2.2-1.1l0.9,0.8c-0.7,0.9-1.6,1.5-3.1,1.5C203.8,158.4,202,156.5,202,153.9z"/>
		<path class="st5" d="M211.6,160.4c0.2,0.1,0.5,0.1,0.7,0.1c0.6,0,1-0.2,1.3-0.9l0.6-1.3l-3.6-8.7h1.4l2.9,7l2.8-7h1.5l-4.3,10.3
			c-0.5,1.2-1.4,1.7-2.5,1.7c-0.3,0-0.7-0.1-1-0.1L211.6,160.4z"/>
		<path class="st5" d="M225.1,158.2v-8.6h1.3v1.4c0.7-0.9,1.7-1.6,2.9-1.6v1.4c-0.2,0-0.3-0.1-0.5-0.1c-0.8,0-1.9,0.7-2.3,1.4v6.1
			H225.1z"/>
		<path class="st5" d="M236.6,158.2v-1c-0.7,0.8-1.7,1.2-2.8,1.2c-1.5,0-3-1-3-2.8c0-1.9,1.5-2.8,3-2.8c1.2,0,2.1,0.4,2.8,1.2v-1.5
			c0-1.2-0.9-1.8-2.2-1.8c-1,0-1.9,0.4-2.6,1.2l-0.6-0.9c0.9-1,2-1.4,3.4-1.4c1.8,0,3.3,0.8,3.3,2.9v5.9H236.6z M236.6,156.4v-1.6
			c-0.5-0.7-1.4-1.1-2.4-1.1c-1.2,0-2.1,0.8-2.1,1.9c0,1.1,0.9,1.9,2.1,1.9C235.2,157.5,236.1,157.1,236.6,156.4z"/>
		<path class="st5" d="M241,156.4v-5.6h-1.4v-1.2h1.4v-2.3h1.3v2.3h1.7v1.2h-1.7v5.3c0,0.6,0.3,1.1,0.9,1.1c0.4,0,0.7-0.2,0.9-0.4
			l0.4,1c-0.3,0.3-0.8,0.6-1.6,0.6C241.7,158.4,241,157.7,241,156.4z"/>
		<path class="st5" d="M245.5,153.9c0-2.5,1.8-4.5,4.2-4.5c2.6,0,4.1,2,4.1,4.6v0.3h-6.9c0.1,1.6,1.2,3,3.1,3c1,0,2-0.4,2.6-1.1
			l0.6,0.9c-0.9,0.9-2,1.3-3.4,1.3C247.3,158.4,245.5,156.6,245.5,153.9z M249.7,150.6c-1.8,0-2.7,1.5-2.8,2.9h5.6
			C252.5,152.1,251.7,150.6,249.7,150.6z"/>
	</g>
	<g>
		<path class="st5" d="M206.1,497.2v-8.6h1.3v1.4c0.7-0.9,1.7-1.6,2.9-1.6v1.4c-0.2,0-0.3-0.1-0.5-0.1c-0.8,0-1.9,0.7-2.3,1.4v6.1
			H206.1z"/>
		<path class="st5" d="M211.5,492.9c0-2.5,1.8-4.5,4.2-4.5c2.6,0,4.1,2,4.1,4.6v0.3h-6.9c0.1,1.6,1.2,3,3.1,3c1,0,2-0.4,2.6-1.1
			l0.6,0.9c-0.9,0.9-2,1.3-3.4,1.3C213.4,497.5,211.5,495.6,211.5,492.9z M215.7,489.6c-1.8,0-2.7,1.5-2.8,2.9h5.6
			C218.6,491.1,217.7,489.6,215.7,489.6z"/>
		<path class="st5" d="M228.5,497.2V496c-0.6,0.9-1.7,1.5-2.9,1.5c-2.2,0-3.8-1.7-3.8-4.5c0-2.7,1.6-4.5,3.8-4.5
			c1.2,0,2.2,0.6,2.9,1.5v-4.6h1.3v11.8H228.5z M228.5,494.9V491c-0.5-0.7-1.5-1.4-2.6-1.4c-1.7,0-2.8,1.4-2.8,3.3
			c0,1.9,1,3.3,2.8,3.3C227,496.3,228,495.7,228.5,494.9z"/>
		<path class="st5" d="M238.4,497.2V496c-0.7,0.7-1.8,1.4-3.1,1.4c-1.8,0-2.7-0.9-2.7-2.7v-6.1h1.3v5.6c0,1.5,0.8,2,1.9,2
			c1,0,2-0.6,2.5-1.3v-6.3h1.3v8.6H238.4z"/>
		<path class="st5" d="M242.2,492.9c0-2.5,1.7-4.5,4.3-4.5c1.6,0,2.5,0.6,3.1,1.5l-0.9,0.8c-0.6-0.8-1.3-1.1-2.2-1.1
			c-1.8,0-3,1.4-3,3.3c0,1.9,1.1,3.3,3,3.3c0.9,0,1.6-0.4,2.2-1.1l0.9,0.8c-0.7,0.9-1.6,1.5-3.1,1.5
			C243.9,497.5,242.2,495.5,242.2,492.9z"/>
		<path class="st5" d="M252.4,495.4v-5.6H251v-1.2h1.4v-2.3h1.3v2.3h1.7v1.2h-1.7v5.3c0,0.6,0.3,1.1,0.9,1.1c0.4,0,0.7-0.2,0.9-0.4
			l0.4,1c-0.3,0.3-0.8,0.5-1.6,0.5C253,497.5,252.4,496.7,252.4,495.4z"/>
		<path class="st5" d="M257.4,486.6c0-0.5,0.4-0.9,0.9-0.9c0.5,0,0.9,0.4,0.9,0.9c0,0.5-0.4,0.9-0.9,0.9
			C257.8,487.4,257.4,487.1,257.4,486.6z M257.7,497.2v-8.6h1.3v8.6H257.7z"/>
		<path class="st5" d="M261.3,492.9c0-2.5,1.6-4.5,4.2-4.5c2.6,0,4.2,2,4.2,4.5s-1.6,4.5-4.2,4.5
			C262.9,497.5,261.3,495.4,261.3,492.9z M268.4,492.9c0-1.7-1-3.3-2.8-3.3c-1.8,0-2.9,1.6-2.9,3.3c0,1.8,1,3.3,2.9,3.3
			C267.4,496.3,268.4,494.7,268.4,492.9z"/>
		<path class="st5" d="M278,497.2v-5.6c0-1.5-0.8-2-1.9-2c-1,0-2,0.6-2.5,1.3v6.3h-1.3v-8.6h1.3v1.2c0.6-0.7,1.8-1.5,3.1-1.5
			c1.8,0,2.7,0.9,2.7,2.8v6H278z"/>
	</g>
	<g>
		<path class="st5" d="M205.9,506.3c0-0.5,0.4-0.9,0.9-0.9c0.5,0,0.9,0.4,0.9,0.9c0,0.5-0.4,0.9-0.9,0.9
			C206.3,507.2,205.9,506.8,205.9,506.3z M206.1,516.9v-8.6h1.3v8.6H206.1z"/>
		<path class="st5" d="M216.1,516.9v-5.6c0-1.5-0.8-2-1.9-2c-1,0-2,0.6-2.5,1.3v6.3h-1.3v-8.6h1.3v1.2c0.6-0.7,1.8-1.5,3.1-1.5
			c1.8,0,2.7,0.9,2.7,2.8v6H216.1z"/>
		<path class="st5" d="M227.7,516.9v-10.5h-3.7v-1.3h9v1.3h-3.8v10.5H227.7z"/>
		<path class="st5" d="M233.2,512.7c0-2.5,1.6-4.5,4.2-4.5c2.6,0,4.2,2,4.2,4.5c0,2.5-1.6,4.5-4.2,4.5
			C234.8,517.2,233.2,515.1,233.2,512.7z M240.3,512.7c0-1.7-1-3.3-2.8-3.3c-1.8,0-2.9,1.6-2.9,3.3c0,1.8,1,3.3,2.9,3.3
			C239.3,516,240.3,514.4,240.3,512.7z"/>
		<path class="st5" d="M244.2,515.2v-5.6h-1.4v-1.2h1.4V506h1.3v2.3h1.7v1.2h-1.7v5.3c0,0.6,0.3,1.1,0.9,1.1c0.4,0,0.7-0.2,0.9-0.4
			l0.4,1c-0.3,0.3-0.8,0.5-1.6,0.5C244.9,517.2,244.2,516.4,244.2,515.2z"/>
		<path class="st5" d="M254.8,516.9v-1c-0.7,0.8-1.7,1.2-2.8,1.2c-1.5,0-3-1-3-2.8c0-1.9,1.5-2.8,3-2.8c1.2,0,2.1,0.4,2.8,1.2v-1.5
			c0-1.2-0.9-1.8-2.2-1.8c-1,0-1.9,0.4-2.6,1.2l-0.6-0.9c0.9-1,2-1.4,3.4-1.4c1.8,0,3.3,0.8,3.3,2.9v5.9H254.8z M254.8,515.1v-1.6
			c-0.5-0.7-1.4-1.1-2.4-1.1c-1.2,0-2.1,0.8-2.1,1.9c0,1.1,0.9,1.9,2.1,1.9C253.4,516.2,254.3,515.8,254.8,515.1z"/>
		<path class="st5" d="M259,516.9v-11.8h1.3v11.8H259z"/>
		<path class="st5" d="M274.5,516.9l-3-4.7h-2.4v4.7h-1.5v-11.8h4.8c2.2,0,3.7,1.4,3.7,3.6c0,2.1-1.5,3.3-3.1,3.4l3.2,4.8H274.5z
			 M274.6,508.7c0-1.3-1-2.3-2.4-2.3h-3.1v4.5h3.1C273.6,511,274.6,510,274.6,508.7z"/>
		<path class="st5" d="M277.9,512.7c0-2.5,1.8-4.5,4.2-4.5c2.6,0,4.1,2,4.1,4.6v0.3h-6.9c0.1,1.6,1.2,3,3.1,3c1,0,2-0.4,2.6-1.1
			l0.6,0.9c-0.9,0.9-2,1.3-3.4,1.3C279.7,517.2,277.9,515.3,277.9,512.7z M282.1,509.3c-1.8,0-2.7,1.5-2.8,2.9h5.6
			C284.9,510.8,284,509.3,282.1,509.3z"/>
		<path class="st5" d="M288.1,512.7c0-2.5,1.7-4.5,4.3-4.5c1.6,0,2.5,0.6,3.1,1.5l-0.9,0.8c-0.6-0.8-1.3-1.1-2.2-1.1
			c-1.8,0-3,1.4-3,3.3c0,1.9,1.1,3.3,3,3.3c0.9,0,1.6-0.4,2.2-1.1l0.9,0.8c-0.7,0.9-1.6,1.5-3.1,1.5
			C289.8,517.2,288.1,515.2,288.1,512.7z"/>
		<path class="st5" d="M296.9,512.7c0-2.5,1.6-4.5,4.2-4.5c2.6,0,4.2,2,4.2,4.5c0,2.5-1.6,4.5-4.2,4.5
			C298.5,517.2,296.9,515.1,296.9,512.7z M303.9,512.7c0-1.7-1-3.3-2.8-3.3c-1.8,0-2.9,1.6-2.9,3.3c0,1.8,1,3.3,2.9,3.3
			C302.9,516,303.9,514.4,303.9,512.7z"/>
		<path class="st5" d="M307.7,516.9v-8.6h1.3v1.4c0.7-0.9,1.7-1.6,2.9-1.6v1.4c-0.2,0-0.3-0.1-0.5-0.1c-0.8,0-1.9,0.7-2.3,1.4v6.1
			H307.7z"/>
		<path class="st5" d="M319.9,516.9v-1.3c-0.6,0.9-1.7,1.5-2.9,1.5c-2.2,0-3.8-1.7-3.8-4.5c0-2.7,1.6-4.5,3.8-4.5
			c1.2,0,2.2,0.6,2.9,1.5v-4.6h1.3v11.8H319.9z M319.9,514.6v-3.9c-0.5-0.7-1.5-1.4-2.6-1.4c-1.7,0-2.8,1.4-2.8,3.3
			c0,1.9,1,3.3,2.8,3.3C318.4,516,319.4,515.4,319.9,514.6z"/>
		<path class="st5" d="M329.5,516.9v-1c-0.7,0.8-1.7,1.2-2.8,1.2c-1.5,0-3-1-3-2.8c0-1.9,1.5-2.8,3-2.8c1.2,0,2.1,0.4,2.8,1.2v-1.5
			c0-1.2-0.9-1.8-2.2-1.8c-1,0-1.9,0.4-2.6,1.2l-0.6-0.9c0.9-1,2-1.4,3.4-1.4c1.8,0,3.3,0.8,3.3,2.9v5.9H329.5z M329.5,515.1v-1.6
			c-0.5-0.7-1.4-1.1-2.4-1.1c-1.2,0-2.1,0.8-2.1,1.9c0,1.1,0.9,1.9,2.1,1.9C328,516.2,328.9,515.8,329.5,515.1z"/>
		<path class="st5" d="M333.6,516.9v-11.8h1.3v4.6c0.7-0.9,1.7-1.5,2.9-1.5c2.2,0,3.8,1.8,3.8,4.5c0,2.8-1.6,4.5-3.8,4.5
			c-1.2,0-2.3-0.6-2.9-1.5v1.3H333.6z M337.5,516c1.7,0,2.8-1.4,2.8-3.3c0-1.9-1-3.3-2.8-3.3c-1,0-2.1,0.6-2.6,1.4v3.9
			C335.4,515.4,336.5,516,337.5,516z"/>
		<path class="st5" d="M344.1,516.9v-11.8h1.3v11.8H344.1z"/>
		<path class="st5" d="M347.8,512.7c0-2.5,1.8-4.5,4.2-4.5c2.6,0,4.1,2,4.1,4.6v0.3h-6.9c0.1,1.6,1.2,3,3.1,3c1,0,2-0.4,2.6-1.1
			l0.6,0.9c-0.9,0.9-2,1.3-3.4,1.3C349.6,517.2,347.8,515.3,347.8,512.7z M352,509.3c-1.8,0-2.7,1.5-2.8,2.9h5.6
			C354.8,510.8,354,509.3,352,509.3z"/>
		<path class="st5" d="M362.9,516.9v-11.8h1.5v11.8H362.9z"/>
		<path class="st5" d="M373.2,516.9v-5.6c0-1.5-0.8-2-1.9-2c-1,0-2,0.6-2.5,1.3v6.3h-1.3v-8.6h1.3v1.2c0.6-0.7,1.8-1.5,3.1-1.5
			c1.8,0,2.7,0.9,2.7,2.8v6H373.2z"/>
		<path class="st5" d="M374.3,519.8l0.5-1c0.3,0.3,0.7,0.5,1.2,0.5c0.8,0,1.4-0.5,1.4-1.5v-9.4h1.3v9.4c0,1.7-0.9,2.6-2.5,2.6
			C375.3,520.4,374.8,520.2,374.3,519.8z M377.1,506.3c0-0.5,0.4-0.9,0.9-0.9c0.5,0,0.9,0.4,0.9,0.9c0,0.5-0.4,0.9-0.9,0.9
			C377.5,507.2,377.1,506.8,377.1,506.3z"/>
		<path class="st5" d="M387.3,516.9v-1.2c-0.7,0.7-1.8,1.4-3.1,1.4c-1.8,0-2.7-0.9-2.7-2.7v-6.1h1.3v5.6c0,1.5,0.8,2,1.9,2
			c1,0,2-0.6,2.5-1.3v-6.3h1.3v8.6H387.3z"/>
		<path class="st5" d="M391.4,516.9v-8.6h1.3v1.4c0.7-0.9,1.7-1.6,2.9-1.6v1.4c-0.2,0-0.3-0.1-0.5-0.1c-0.8,0-1.9,0.7-2.3,1.4v6.1
			H391.4z"/>
		<path class="st5" d="M397.9,519.1c0.2,0.1,0.5,0.1,0.7,0.1c0.6,0,1-0.2,1.3-0.9l0.6-1.3l-3.6-8.7h1.4l2.9,7l2.8-7h1.5l-4.3,10.3
			c-0.5,1.2-1.4,1.7-2.5,1.7c-0.3,0-0.7-0.1-1-0.1L397.9,519.1z"/>
	</g>
	<g>
		<path class="st5" d="M206.2,536.7v-11.8h7.8v1.3h-6.3v3.8h6.2v1.3h-6.2v5.4H206.2z"/>
		<path class="st5" d="M215.9,536.7v-8.6h1.3v1.4c0.7-0.9,1.7-1.6,2.9-1.6v1.4c-0.2,0-0.3-0.1-0.5-0.1c-0.8,0-1.9,0.7-2.3,1.4v6.1
			H215.9z"/>
		<path class="st5" d="M221.4,532.4c0-2.5,1.8-4.5,4.2-4.5c2.6,0,4.1,2,4.1,4.6v0.3h-6.9c0.1,1.6,1.2,3,3.1,3c1,0,2-0.4,2.6-1.1
			l0.6,0.9c-0.9,0.9-2,1.3-3.4,1.3C223.2,536.9,221.4,535,221.4,532.4z M225.6,529c-1.8,0-2.7,1.5-2.8,2.9h5.6
			C228.4,530.6,227.5,529,225.6,529z"/>
		<path class="st5" d="M231.5,532.4c0-2.8,1.6-4.5,3.8-4.5c1.2,0,2.3,0.6,2.9,1.5v-1.3h1.3v11.8h-1.3v-4.6c-0.7,1-1.7,1.5-2.9,1.5
			C233.1,536.9,231.5,535.1,231.5,532.4z M238.2,534.3v-3.9c-0.4-0.7-1.5-1.4-2.6-1.4c-1.7,0-2.7,1.4-2.7,3.3c0,1.9,1,3.3,2.7,3.3
			C236.7,535.7,237.8,535,238.2,534.3z"/>
		<path class="st5" d="M248.2,536.7v-1.2c-0.7,0.7-1.8,1.4-3.1,1.4c-1.8,0-2.7-0.9-2.7-2.7v-6.1h1.3v5.6c0,1.5,0.8,2,1.9,2
			c1,0,2-0.6,2.5-1.3v-6.3h1.3v8.6H248.2z"/>
		<path class="st5" d="M251.9,532.4c0-2.5,1.8-4.5,4.2-4.5c2.6,0,4.1,2,4.1,4.6v0.3h-6.9c0.1,1.6,1.2,3,3.1,3c1,0,2-0.4,2.6-1.1
			l0.6,0.9c-0.9,0.9-2,1.3-3.4,1.3C253.7,536.9,251.9,535,251.9,532.4z M256.1,529c-1.8,0-2.7,1.5-2.8,2.9h5.6
			C258.9,530.6,258.1,529,256.1,529z"/>
		<path class="st5" d="M268.4,536.7v-5.6c0-1.5-0.8-2-1.9-2c-1,0-2,0.6-2.5,1.3v6.3h-1.3v-8.6h1.3v1.2c0.6-0.7,1.8-1.5,3.1-1.5
			c1.8,0,2.7,0.9,2.7,2.8v6H268.4z"/>
		<path class="st5" d="M272,532.4c0-2.5,1.7-4.5,4.3-4.5c1.6,0,2.5,0.6,3.1,1.5l-0.9,0.8c-0.6-0.8-1.3-1.1-2.2-1.1
			c-1.8,0-3,1.4-3,3.3c0,1.9,1.1,3.3,3,3.3c0.9,0,1.6-0.4,2.2-1.1l0.9,0.8c-0.7,0.9-1.6,1.5-3.1,1.5
			C273.8,536.9,272,534.9,272,532.4z"/>
		<path class="st5" d="M281.6,538.8c0.2,0.1,0.5,0.1,0.7,0.1c0.6,0,1-0.2,1.3-0.9l0.6-1.3l-3.6-8.7h1.4l2.9,7l2.8-7h1.5l-4.3,10.3
			c-0.5,1.2-1.4,1.7-2.5,1.7c-0.3,0-0.7-0.1-1-0.1L281.6,538.8z"/>
		<path class="st5" d="M302,536.7l-3-4.7h-2.4v4.7h-1.5v-11.8h4.8c2.2,0,3.7,1.4,3.7,3.6c0,2.1-1.5,3.3-3.1,3.4l3.2,4.8H302z
			 M302.1,528.4c0-1.3-1-2.3-2.4-2.3h-3.1v4.5h3.1C301.2,530.7,302.1,529.7,302.1,528.4z"/>
		<path class="st5" d="M311.3,536.7v-1c-0.7,0.8-1.7,1.2-2.8,1.2c-1.5,0-3-1-3-2.8c0-1.9,1.5-2.8,3-2.8c1.2,0,2.1,0.4,2.8,1.2v-1.5
			c0-1.2-0.9-1.8-2.2-1.8c-1,0-1.9,0.4-2.6,1.2l-0.6-0.9c0.9-1,2-1.4,3.4-1.4c1.8,0,3.3,0.8,3.3,2.9v5.9H311.3z M311.3,534.8v-1.6
			c-0.5-0.7-1.4-1.1-2.4-1.1c-1.2,0-2.1,0.8-2.1,1.9c0,1.1,0.9,1.9,2.1,1.9C309.9,535.9,310.8,535.6,311.3,534.8z"/>
		<path class="st5" d="M315.7,534.9v-5.6h-1.4v-1.2h1.4v-2.3h1.3v2.3h1.7v1.2h-1.7v5.3c0,0.6,0.3,1.1,0.9,1.1c0.4,0,0.7-0.2,0.9-0.4
			l0.4,1c-0.3,0.3-0.8,0.5-1.6,0.5C316.4,536.9,315.7,536.1,315.7,534.9z"/>
		<path class="st5" d="M320.2,532.4c0-2.5,1.8-4.5,4.2-4.5c2.6,0,4.1,2,4.1,4.6v0.3h-6.9c0.1,1.6,1.2,3,3.1,3c1,0,2-0.4,2.6-1.1
			l0.6,0.9c-0.9,0.9-2,1.3-3.4,1.3C322,536.9,320.2,535,320.2,532.4z M324.4,529c-1.8,0-2.7,1.5-2.8,2.9h5.6
			C327.2,530.6,326.4,529,324.4,529z"/>
	</g>
	<g>
		<path class="st5" d="M729.8,497.2v-8.6h1.3v1.4c0.7-0.9,1.7-1.6,2.9-1.6v1.4c-0.2,0-0.3-0.1-0.5-0.1c-0.8,0-1.9,0.7-2.3,1.4v6.1
			H729.8z"/>
		<path class="st5" d="M735.2,492.9c0-2.5,1.8-4.5,4.2-4.5c2.6,0,4.1,2,4.1,4.6v0.3h-6.9c0.1,1.6,1.2,3,3.1,3c1,0,2-0.4,2.6-1.1
			l0.6,0.9c-0.9,0.9-2,1.3-3.4,1.3C737.1,497.5,735.2,495.6,735.2,492.9z M739.5,489.6c-1.8,0-2.7,1.5-2.8,2.9h5.6
			C742.3,491.1,741.4,489.6,739.5,489.6z"/>
		<path class="st5" d="M752.2,497.2V496c-0.6,0.9-1.7,1.5-2.9,1.5c-2.2,0-3.8-1.7-3.8-4.5c0-2.7,1.6-4.5,3.8-4.5
			c1.2,0,2.2,0.6,2.9,1.5v-4.6h1.3v11.8H752.2z M752.2,494.9V491c-0.5-0.7-1.5-1.4-2.6-1.4c-1.7,0-2.8,1.4-2.8,3.3
			c0,1.9,1,3.3,2.8,3.3C750.7,496.3,751.7,495.7,752.2,494.9z"/>
		<path class="st5" d="M762.1,497.2V496c-0.7,0.7-1.8,1.4-3.1,1.4c-1.8,0-2.7-0.9-2.7-2.7v-6.1h1.3v5.6c0,1.5,0.8,2,1.9,2
			c1,0,2-0.6,2.5-1.3v-6.3h1.3v8.6H762.1z"/>
		<path class="st5" d="M765.8,492.9c0-2.5,1.7-4.5,4.3-4.5c1.6,0,2.5,0.6,3.1,1.5l-0.9,0.8c-0.6-0.8-1.3-1.1-2.2-1.1
			c-1.8,0-3,1.4-3,3.3c0,1.9,1.1,3.3,3,3.3c0.9,0,1.6-0.4,2.2-1.1l0.9,0.8c-0.7,0.9-1.6,1.5-3.1,1.5
			C767.6,497.5,765.8,495.5,765.8,492.9z"/>
		<path class="st5" d="M776.1,495.4v-5.6h-1.4v-1.2h1.4v-2.3h1.3v2.3h1.7v1.2h-1.7v5.3c0,0.6,0.3,1.1,0.9,1.1c0.4,0,0.7-0.2,0.9-0.4
			l0.4,1c-0.3,0.3-0.8,0.5-1.6,0.5C776.7,497.5,776.1,496.7,776.1,495.4z"/>
		<path class="st5" d="M781.1,486.6c0-0.5,0.4-0.9,0.9-0.9c0.5,0,0.9,0.4,0.9,0.9c0,0.5-0.4,0.9-0.9,0.9
			C781.5,487.4,781.1,487.1,781.1,486.6z M781.3,497.2v-8.6h1.3v8.6H781.3z"/>
		<path class="st5" d="M785,492.9c0-2.5,1.6-4.5,4.2-4.5s4.2,2,4.2,4.5s-1.6,4.5-4.2,4.5S785,495.4,785,492.9z M792.1,492.9
			c0-1.7-1-3.3-2.8-3.3s-2.9,1.6-2.9,3.3c0,1.8,1,3.3,2.9,3.3S792.1,494.7,792.1,492.9z"/>
		<path class="st5" d="M801.7,497.2v-5.6c0-1.5-0.8-2-1.9-2c-1,0-2,0.6-2.5,1.3v6.3h-1.3v-8.6h1.3v1.2c0.6-0.7,1.8-1.5,3.1-1.5
			c1.8,0,2.7,0.9,2.7,2.8v6H801.7z"/>
	</g>
	<g>
		<path class="st5" d="M729.6,506.3c0-0.5,0.4-0.9,0.9-0.9c0.5,0,0.9,0.4,0.9,0.9c0,0.5-0.4,0.9-0.9,0.9
			C730,507.2,729.6,506.8,729.6,506.3z M729.8,516.9v-8.6h1.3v8.6H729.8z"/>
		<path class="st5" d="M739.8,516.9v-5.6c0-1.5-0.8-2-1.9-2c-1,0-2,0.6-2.5,1.3v6.3H734v-8.6h1.3v1.2c0.6-0.7,1.8-1.5,3.1-1.5
			c1.8,0,2.7,0.9,2.7,2.8v6H739.8z"/>
		<path class="st5" d="M751.4,516.9v-10.5h-3.7v-1.3h9v1.3h-3.8v10.5H751.4z"/>
		<path class="st5" d="M756.9,512.7c0-2.5,1.6-4.5,4.2-4.5s4.2,2,4.2,4.5c0,2.5-1.6,4.5-4.2,4.5S756.9,515.1,756.9,512.7z
			 M764,512.7c0-1.7-1-3.3-2.8-3.3s-2.9,1.6-2.9,3.3c0,1.8,1,3.3,2.9,3.3S764,514.4,764,512.7z"/>
		<path class="st5" d="M767.9,515.2v-5.6h-1.4v-1.2h1.4V506h1.3v2.3h1.7v1.2h-1.7v5.3c0,0.6,0.3,1.1,0.9,1.1c0.4,0,0.7-0.2,0.9-0.4
			l0.4,1c-0.3,0.3-0.8,0.5-1.6,0.5C768.6,517.2,767.9,516.4,767.9,515.2z"/>
		<path class="st5" d="M778.5,516.9v-1c-0.7,0.8-1.7,1.2-2.8,1.2c-1.5,0-3-1-3-2.8c0-1.9,1.5-2.8,3-2.8c1.2,0,2.1,0.4,2.8,1.2v-1.5
			c0-1.2-0.9-1.8-2.2-1.8c-1,0-1.9,0.4-2.6,1.2l-0.6-0.9c0.9-1,2-1.4,3.4-1.4c1.8,0,3.3,0.8,3.3,2.9v5.9H778.5z M778.5,515.1v-1.6
			c-0.5-0.7-1.4-1.1-2.4-1.1c-1.2,0-2.1,0.8-2.1,1.9c0,1.1,0.9,1.9,2.1,1.9C777.1,516.2,778,515.8,778.5,515.1z"/>
		<path class="st5" d="M782.7,516.9v-11.8h1.3v11.8H782.7z"/>
		<path class="st5" d="M798.2,516.9l-3-4.7h-2.4v4.7h-1.5v-11.8h4.8c2.2,0,3.7,1.4,3.7,3.6c0,2.1-1.5,3.3-3.1,3.4l3.2,4.8H798.2z
			 M798.3,508.7c0-1.3-1-2.3-2.4-2.3h-3.1v4.5h3.1C797.3,511,798.3,510,798.3,508.7z"/>
		<path class="st5" d="M801.6,512.7c0-2.5,1.8-4.5,4.2-4.5c2.6,0,4.1,2,4.1,4.6v0.3H803c0.1,1.6,1.2,3,3.1,3c1,0,2-0.4,2.6-1.1
			l0.6,0.9c-0.9,0.9-2,1.3-3.4,1.3C803.4,517.2,801.6,515.3,801.6,512.7z M805.8,509.3c-1.8,0-2.7,1.5-2.8,2.9h5.6
			C808.6,510.8,807.7,509.3,805.8,509.3z"/>
		<path class="st5" d="M811.8,512.7c0-2.5,1.7-4.5,4.3-4.5c1.6,0,2.5,0.6,3.1,1.5l-0.9,0.8c-0.6-0.8-1.3-1.1-2.2-1.1
			c-1.8,0-3,1.4-3,3.3c0,1.9,1.1,3.3,3,3.3c0.9,0,1.6-0.4,2.2-1.1l0.9,0.8c-0.7,0.9-1.6,1.5-3.1,1.5
			C813.5,517.2,811.8,515.2,811.8,512.7z"/>
		<path class="st5" d="M820.6,512.7c0-2.5,1.6-4.5,4.2-4.5s4.2,2,4.2,4.5c0,2.5-1.6,4.5-4.2,4.5S820.6,515.1,820.6,512.7z
			 M827.6,512.7c0-1.7-1-3.3-2.8-3.3s-2.9,1.6-2.9,3.3c0,1.8,1,3.3,2.9,3.3S827.6,514.4,827.6,512.7z"/>
		<path class="st5" d="M831.4,516.9v-8.6h1.3v1.4c0.7-0.9,1.7-1.6,2.9-1.6v1.4c-0.2,0-0.3-0.1-0.5-0.1c-0.8,0-1.9,0.7-2.3,1.4v6.1
			H831.4z"/>
		<path class="st5" d="M843.6,516.9v-1.3c-0.6,0.9-1.7,1.5-2.9,1.5c-2.2,0-3.8-1.7-3.8-4.5c0-2.7,1.6-4.5,3.8-4.5
			c1.2,0,2.2,0.6,2.9,1.5v-4.6h1.3v11.8H843.6z M843.6,514.6v-3.9c-0.5-0.7-1.5-1.4-2.6-1.4c-1.7,0-2.8,1.4-2.8,3.3
			c0,1.9,1,3.3,2.8,3.3C842.1,516,843.1,515.4,843.6,514.6z"/>
		<path class="st5" d="M853.2,516.9v-1c-0.7,0.8-1.7,1.2-2.8,1.2c-1.5,0-3-1-3-2.8c0-1.9,1.5-2.8,3-2.8c1.2,0,2.1,0.4,2.8,1.2v-1.5
			c0-1.2-0.9-1.8-2.2-1.8c-1,0-1.9,0.4-2.6,1.2l-0.6-0.9c0.9-1,2-1.4,3.4-1.4c1.8,0,3.3,0.8,3.3,2.9v5.9H853.2z M853.2,515.1v-1.6
			c-0.5-0.7-1.4-1.1-2.4-1.1c-1.2,0-2.1,0.8-2.1,1.9c0,1.1,0.9,1.9,2.1,1.9C851.7,516.2,852.7,515.8,853.2,515.1z"/>
		<path class="st5" d="M857.4,516.9v-11.8h1.3v4.6c0.7-0.9,1.7-1.5,2.9-1.5c2.2,0,3.8,1.8,3.8,4.5c0,2.8-1.6,4.5-3.8,4.5
			c-1.2,0-2.3-0.6-2.9-1.5v1.3H857.4z M861.2,516c1.7,0,2.8-1.4,2.8-3.3c0-1.9-1-3.3-2.8-3.3c-1,0-2.1,0.6-2.6,1.4v3.9
			C859.1,515.4,860.2,516,861.2,516z"/>
		<path class="st5" d="M867.8,516.9v-11.8h1.3v11.8H867.8z"/>
		<path class="st5" d="M871.5,512.7c0-2.5,1.8-4.5,4.2-4.5c2.6,0,4.1,2,4.1,4.6v0.3h-6.9c0.1,1.6,1.2,3,3.1,3c1,0,2-0.4,2.6-1.1
			l0.6,0.9c-0.9,0.9-2,1.3-3.4,1.3C873.3,517.2,871.5,515.3,871.5,512.7z M875.7,509.3c-1.8,0-2.7,1.5-2.8,2.9h5.6
			C878.5,510.8,877.7,509.3,875.7,509.3z"/>
		<path class="st5" d="M886.6,516.9v-11.8h1.5v11.8H886.6z"/>
		<path class="st5" d="M896.9,516.9v-5.6c0-1.5-0.8-2-1.9-2c-1,0-2,0.6-2.5,1.3v6.3h-1.3v-8.6h1.3v1.2c0.6-0.7,1.8-1.5,3.1-1.5
			c1.8,0,2.7,0.9,2.7,2.8v6H896.9z"/>
		<path class="st5" d="M898,519.8l0.5-1c0.3,0.3,0.7,0.5,1.2,0.5c0.8,0,1.4-0.5,1.4-1.5v-9.4h1.3v9.4c0,1.7-0.9,2.6-2.5,2.6
			C899,520.4,898.5,520.2,898,519.8z M900.8,506.3c0-0.5,0.4-0.9,0.9-0.9c0.5,0,0.9,0.4,0.9,0.9c0,0.5-0.4,0.9-0.9,0.9
			C901.2,507.2,900.8,506.8,900.8,506.3z"/>
		<path class="st5" d="M911,516.9v-1.2c-0.7,0.7-1.8,1.4-3.1,1.4c-1.8,0-2.7-0.9-2.7-2.7v-6.1h1.3v5.6c0,1.5,0.8,2,1.9,2
			c1,0,2-0.6,2.5-1.3v-6.3h1.3v8.6H911z"/>
		<path class="st5" d="M915.2,516.9v-8.6h1.3v1.4c0.7-0.9,1.7-1.6,2.9-1.6v1.4c-0.2,0-0.3-0.1-0.5-0.1c-0.8,0-1.9,0.7-2.3,1.4v6.1
			H915.2z"/>
		<path class="st5" d="M921.6,519.1c0.2,0.1,0.5,0.1,0.7,0.1c0.6,0,1-0.2,1.3-0.9l0.6-1.3l-3.6-8.7h1.4l2.9,7l2.8-7h1.5l-4.3,10.3
			c-0.5,1.2-1.4,1.7-2.5,1.7c-0.3,0-0.7-0.1-1-0.1L921.6,519.1z"/>
	</g>
	<g>
		<path class="st5" d="M729.9,536.7v-11.8h7.8v1.3h-6.3v3.8h6.2v1.3h-6.2v5.4H729.9z"/>
		<path class="st5" d="M739.6,536.7v-8.6h1.3v1.4c0.7-0.9,1.7-1.6,2.9-1.6v1.4c-0.2,0-0.3-0.1-0.5-0.1c-0.8,0-1.9,0.7-2.3,1.4v6.1
			H739.6z"/>
		<path class="st5" d="M745.1,532.4c0-2.5,1.8-4.5,4.2-4.5c2.6,0,4.1,2,4.1,4.6v0.3h-6.9c0.1,1.6,1.2,3,3.1,3c1,0,2-0.4,2.6-1.1
			l0.6,0.9c-0.9,0.9-2,1.3-3.4,1.3C746.9,536.9,745.1,535,745.1,532.4z M749.3,529c-1.8,0-2.7,1.5-2.8,2.9h5.6
			C752.1,530.6,751.2,529,749.3,529z"/>
		<path class="st5" d="M755.2,532.4c0-2.8,1.6-4.5,3.8-4.5c1.2,0,2.3,0.6,2.9,1.5v-1.3h1.3v11.8h-1.3v-4.6c-0.7,1-1.7,1.5-2.9,1.5
			C756.8,536.9,755.2,535.1,755.2,532.4z M761.9,534.3v-3.9c-0.4-0.7-1.5-1.4-2.6-1.4c-1.7,0-2.7,1.4-2.7,3.3c0,1.9,1,3.3,2.7,3.3
			C760.4,535.7,761.5,535,761.9,534.3z"/>
		<path class="st5" d="M771.9,536.7v-1.2c-0.7,0.7-1.8,1.4-3.1,1.4c-1.8,0-2.7-0.9-2.7-2.7v-6.1h1.3v5.6c0,1.5,0.8,2,1.9,2
			c1,0,2-0.6,2.5-1.3v-6.3h1.3v8.6H771.9z"/>
		<path class="st5" d="M775.6,532.4c0-2.5,1.8-4.5,4.2-4.5c2.6,0,4.1,2,4.1,4.6v0.3H777c0.1,1.6,1.2,3,3.1,3c1,0,2-0.4,2.6-1.1
			l0.6,0.9c-0.9,0.9-2,1.3-3.4,1.3C777.4,536.9,775.6,535,775.6,532.4z M779.8,529c-1.8,0-2.7,1.5-2.8,2.9h5.6
			C782.6,530.6,781.8,529,779.8,529z"/>
		<path class="st5" d="M792.1,536.7v-5.6c0-1.5-0.8-2-1.9-2c-1,0-2,0.6-2.5,1.3v6.3h-1.3v-8.6h1.3v1.2c0.6-0.7,1.8-1.5,3.1-1.5
			c1.8,0,2.7,0.9,2.7,2.8v6H792.1z"/>
		<path class="st5" d="M795.7,532.4c0-2.5,1.7-4.5,4.3-4.5c1.6,0,2.5,0.6,3.1,1.5l-0.9,0.8c-0.6-0.8-1.3-1.1-2.2-1.1
			c-1.8,0-3,1.4-3,3.3c0,1.9,1.1,3.3,3,3.3c0.9,0,1.6-0.4,2.2-1.1l0.9,0.8c-0.7,0.9-1.6,1.5-3.1,1.5
			C797.5,536.9,795.7,534.9,795.7,532.4z"/>
		<path class="st5" d="M805.3,538.8c0.2,0.1,0.5,0.1,0.7,0.1c0.6,0,1-0.2,1.3-0.9l0.6-1.3l-3.6-8.7h1.4l2.9,7l2.8-7h1.5l-4.3,10.3
			c-0.5,1.2-1.4,1.7-2.5,1.7c-0.3,0-0.7-0.1-1-0.1L805.3,538.8z"/>
		<path class="st5" d="M825.7,536.7l-3-4.7h-2.4v4.7h-1.5v-11.8h4.8c2.2,0,3.7,1.4,3.7,3.6c0,2.1-1.5,3.3-3.1,3.4l3.2,4.8H825.7z
			 M825.8,528.4c0-1.3-1-2.3-2.4-2.3h-3.1v4.5h3.1C824.9,530.7,825.8,529.7,825.8,528.4z"/>
		<path class="st5" d="M835,536.7v-1c-0.7,0.8-1.7,1.2-2.8,1.2c-1.5,0-3-1-3-2.8c0-1.9,1.5-2.8,3-2.8c1.2,0,2.1,0.4,2.8,1.2v-1.5
			c0-1.2-0.9-1.8-2.2-1.8c-1,0-1.9,0.4-2.6,1.2l-0.6-0.9c0.9-1,2-1.4,3.4-1.4c1.8,0,3.3,0.8,3.3,2.9v5.9H835z M835,534.8v-1.6
			c-0.5-0.7-1.4-1.1-2.4-1.1c-1.2,0-2.1,0.8-2.1,1.9c0,1.1,0.9,1.9,2.1,1.9C833.6,535.9,834.5,535.6,835,534.8z"/>
		<path class="st5" d="M839.4,534.9v-5.6H838v-1.2h1.4v-2.3h1.3v2.3h1.7v1.2h-1.7v5.3c0,0.6,0.3,1.1,0.9,1.1c0.4,0,0.7-0.2,0.9-0.4
			l0.4,1c-0.3,0.3-0.8,0.5-1.6,0.5C840.1,536.9,839.4,536.1,839.4,534.9z"/>
		<path class="st5" d="M843.9,532.4c0-2.5,1.8-4.5,4.2-4.5c2.6,0,4.1,2,4.1,4.6v0.3h-6.9c0.1,1.6,1.2,3,3.1,3c1,0,2-0.4,2.6-1.1
			l0.6,0.9c-0.9,0.9-2,1.3-3.4,1.3C845.7,536.9,843.9,535,843.9,532.4z M848.1,529c-1.8,0-2.7,1.5-2.8,2.9h5.6
			C850.9,530.6,850.1,529,848.1,529z"/>
	</g>
	<g>
		<path class="st5" d="M13.7,274v-10.5H9.9v-1.3h9v1.3h-3.8V274H13.7z"/>
		<path class="st5" d="M19.2,269.7c0-2.5,1.6-4.5,4.2-4.5c2.6,0,4.2,2,4.2,4.5s-1.6,4.5-4.2,4.5C20.8,274.2,19.2,272.2,19.2,269.7z
			 M26.3,269.7c0-1.7-1-3.3-2.8-3.3c-1.8,0-2.9,1.6-2.9,3.3c0,1.8,1,3.3,2.9,3.3C25.3,273.1,26.3,271.5,26.3,269.7z"/>
		<path class="st5" d="M30.3,272.2v-5.6h-1.4v-1.2h1.4v-2.3h1.3v2.3h1.7v1.2h-1.7v5.3c0,0.6,0.3,1.1,0.9,1.1c0.4,0,0.7-0.2,0.9-0.4
			l0.4,1c-0.3,0.3-0.8,0.6-1.6,0.6C30.9,274.2,30.3,273.5,30.3,272.2z"/>
		<path class="st5" d="M40.9,274v-1c-0.7,0.8-1.7,1.2-2.8,1.2c-1.5,0-3-1-3-2.8c0-1.9,1.5-2.8,3-2.8c1.2,0,2.1,0.4,2.8,1.2v-1.5
			c0-1.2-0.9-1.8-2.2-1.8c-1,0-1.9,0.4-2.6,1.2l-0.6-0.9c0.9-1,2-1.4,3.4-1.4c1.8,0,3.3,0.8,3.3,2.9v5.9H40.9z M40.9,272.2v-1.6
			c-0.5-0.7-1.4-1.1-2.4-1.1c-1.2,0-2.1,0.8-2.1,1.9c0,1.1,0.9,1.9,2.1,1.9C39.4,273.3,40.3,272.9,40.9,272.2z"/>
		<path class="st5" d="M45,274v-11.8h1.3V274H45z"/>
		<path class="st5" d="M60.5,274l-3-4.7h-2.4v4.7h-1.5v-11.8h4.8c2.2,0,3.7,1.4,3.7,3.6c0,2.1-1.5,3.3-3.1,3.4l3.2,4.8H60.5z
			 M60.6,265.8c0-1.3-1-2.3-2.4-2.3h-3.1v4.5h3.1C59.6,268,60.6,267.1,60.6,265.8z"/>
		<path class="st5" d="M63.9,269.7c0-2.5,1.8-4.5,4.2-4.5c2.6,0,4.1,2,4.1,4.6v0.3h-6.9c0.1,1.6,1.2,3,3.1,3c1,0,2-0.4,2.6-1.1
			l0.6,0.9c-0.9,0.9-2,1.3-3.4,1.3C65.7,274.2,63.9,272.4,63.9,269.7z M68.1,266.3c-1.8,0-2.7,1.5-2.8,2.9h5.6
			C70.9,267.9,70,266.3,68.1,266.3z"/>
		<path class="st5" d="M74.1,269.7c0-2.5,1.7-4.5,4.3-4.5c1.6,0,2.5,0.6,3.1,1.5l-0.9,0.8c-0.6-0.8-1.3-1.1-2.2-1.1
			c-1.8,0-3,1.4-3,3.3s1.1,3.3,3,3.3c0.9,0,1.6-0.4,2.2-1.1l0.9,0.8c-0.7,0.9-1.6,1.5-3.1,1.5C75.8,274.2,74.1,272.3,74.1,269.7z"/>
		<path class="st5" d="M82.9,269.7c0-2.5,1.6-4.5,4.2-4.5c2.6,0,4.2,2,4.2,4.5s-1.6,4.5-4.2,4.5C84.5,274.2,82.9,272.2,82.9,269.7z
			 M90,269.7c0-1.7-1-3.3-2.8-3.3c-1.8,0-2.9,1.6-2.9,3.3c0,1.8,1,3.3,2.9,3.3C89,273.1,90,271.5,90,269.7z"/>
		<path class="st5" d="M93.7,274v-8.6h1.3v1.4c0.7-0.9,1.7-1.6,2.9-1.6v1.4c-0.2,0-0.3-0.1-0.5-0.1c-0.8,0-1.9,0.7-2.3,1.4v6.1H93.7
			z"/>
		<path class="st5" d="M105.9,274v-1.3c-0.6,0.9-1.7,1.5-2.9,1.5c-2.2,0-3.8-1.7-3.8-4.5c0-2.7,1.6-4.5,3.8-4.5
			c1.2,0,2.2,0.6,2.9,1.5v-4.6h1.3V274H105.9z M105.9,271.7v-3.9c-0.5-0.7-1.5-1.4-2.6-1.4c-1.7,0-2.8,1.4-2.8,3.3s1,3.3,2.8,3.3
			C104.4,273.1,105.5,272.4,105.9,271.7z"/>
		<path class="st5" d="M115.5,274v-1c-0.7,0.8-1.7,1.2-2.8,1.2c-1.5,0-3-1-3-2.8c0-1.9,1.5-2.8,3-2.8c1.2,0,2.1,0.4,2.8,1.2v-1.5
			c0-1.2-0.9-1.8-2.2-1.8c-1,0-1.9,0.4-2.6,1.2l-0.6-0.9c0.9-1,2-1.4,3.4-1.4c1.8,0,3.3,0.8,3.3,2.9v5.9H115.5z M115.5,272.2v-1.6
			c-0.5-0.7-1.4-1.1-2.4-1.1c-1.2,0-2.1,0.8-2.1,1.9c0,1.1,0.9,1.9,2.1,1.9C114.1,273.3,115,272.9,115.5,272.2z"/>
		<path class="st5" d="M119.7,274v-11.8h1.3v4.6c0.7-0.9,1.7-1.5,2.9-1.5c2.2,0,3.8,1.8,3.8,4.5c0,2.8-1.6,4.5-3.8,4.5
			c-1.2,0-2.3-0.6-2.9-1.5v1.3H119.7z M123.6,273.1c1.7,0,2.8-1.4,2.8-3.3s-1-3.3-2.8-3.3c-1,0-2.1,0.6-2.6,1.4v3.9
			C121.5,272.4,122.5,273.1,123.6,273.1z"/>
		<path class="st5" d="M130.1,274v-11.8h1.3V274H130.1z"/>
		<path class="st5" d="M133.9,269.7c0-2.5,1.8-4.5,4.2-4.5c2.6,0,4.1,2,4.1,4.6v0.3h-6.9c0.1,1.6,1.2,3,3.1,3c1,0,2-0.4,2.6-1.1
			l0.6,0.9c-0.9,0.9-2,1.3-3.4,1.3C135.7,274.2,133.9,272.4,133.9,269.7z M138.1,266.3c-1.8,0-2.7,1.5-2.8,2.9h5.6
			C140.9,267.9,140,266.3,138.1,266.3z"/>
		<path class="st5" d="M149,274v-11.8h1.5V274H149z"/>
		<path class="st5" d="M159.2,274v-5.6c0-1.5-0.8-2-1.9-2c-1,0-2,0.6-2.5,1.3v6.3h-1.3v-8.6h1.3v1.2c0.6-0.7,1.8-1.5,3.1-1.5
			c1.8,0,2.7,0.9,2.7,2.8v6H159.2z"/>
		<path class="st5" d="M160.3,276.9l0.5-1c0.3,0.3,0.7,0.6,1.2,0.6c0.8,0,1.4-0.5,1.4-1.5v-9.4h1.3v9.4c0,1.7-0.9,2.6-2.5,2.6
			C161.3,277.5,160.8,277.3,160.3,276.9z M163.1,263.3c0-0.5,0.4-0.9,0.9-0.9c0.5,0,0.9,0.4,0.9,0.9s-0.4,0.9-0.9,0.9
			C163.6,264.2,163.1,263.8,163.1,263.3z"/>
		<path class="st5" d="M173.3,274v-1.2c-0.7,0.7-1.8,1.4-3.1,1.4c-1.8,0-2.7-0.9-2.7-2.7v-6.1h1.3v5.6c0,1.5,0.8,2,1.9,2
			c1,0,2-0.6,2.5-1.3v-6.3h1.3v8.6H173.3z"/>
		<path class="st5" d="M177.5,274v-8.6h1.3v1.4c0.7-0.9,1.7-1.6,2.9-1.6v1.4c-0.2,0-0.3-0.1-0.5-0.1c-0.8,0-1.9,0.7-2.3,1.4v6.1
			H177.5z"/>
		<path class="st5" d="M183.9,276.2c0.2,0.1,0.5,0.1,0.7,0.1c0.6,0,1-0.2,1.3-0.9l0.6-1.3l-3.6-8.7h1.4l2.9,7l2.8-7h1.5l-4.3,10.3
			c-0.5,1.2-1.4,1.7-2.5,1.7c-0.3,0-0.7-0.1-1-0.1L183.9,276.2z"/>
		<path class="st5" d="M197.5,274v-11.8h7.8v1.3h-6.3v3.8h6.2v1.3h-6.2v5.4H197.5z"/>
		<path class="st5" d="M207.2,274v-8.6h1.3v1.4c0.7-0.9,1.7-1.6,2.9-1.6v1.4c-0.2,0-0.3-0.1-0.5-0.1c-0.8,0-1.9,0.7-2.3,1.4v6.1
			H207.2z"/>
		<path class="st5" d="M212.6,269.7c0-2.5,1.8-4.5,4.2-4.5c2.6,0,4.1,2,4.1,4.6v0.3H214c0.1,1.6,1.2,3,3.1,3c1,0,2-0.4,2.6-1.1
			l0.6,0.9c-0.9,0.9-2,1.3-3.4,1.3C214.4,274.2,212.6,272.4,212.6,269.7z M216.8,266.3c-1.8,0-2.7,1.5-2.8,2.9h5.6
			C219.6,267.9,218.8,266.3,216.8,266.3z"/>
		<path class="st5" d="M222.8,269.7c0-2.8,1.6-4.5,3.8-4.5c1.2,0,2.3,0.6,2.9,1.5v-1.3h1.3v11.8h-1.3v-4.6c-0.7,1-1.7,1.5-2.9,1.5
			C224.3,274.2,222.8,272.5,222.8,269.7z M229.5,271.7v-3.9c-0.4-0.7-1.5-1.4-2.6-1.4c-1.7,0-2.7,1.4-2.7,3.3s1,3.3,2.7,3.3
			C228,273.1,229,272.4,229.5,271.7z"/>
		<path class="st5" d="M239.5,274v-1.2c-0.7,0.7-1.8,1.4-3.1,1.4c-1.8,0-2.7-0.9-2.7-2.7v-6.1h1.3v5.6c0,1.5,0.8,2,1.9,2
			c1,0,2-0.6,2.5-1.3v-6.3h1.3v8.6H239.5z"/>
		<path class="st5" d="M243.2,269.7c0-2.5,1.8-4.5,4.2-4.5c2.6,0,4.1,2,4.1,4.6v0.3h-6.9c0.1,1.6,1.2,3,3.1,3c1,0,2-0.4,2.6-1.1
			l0.6,0.9c-0.9,0.9-2,1.3-3.4,1.3C245,274.2,243.2,272.4,243.2,269.7z M247.4,266.3c-1.8,0-2.7,1.5-2.8,2.9h5.6
			C250.2,267.9,249.3,266.3,247.4,266.3z"/>
		<path class="st5" d="M259.6,274v-5.6c0-1.5-0.8-2-1.9-2c-1,0-2,0.6-2.5,1.3v6.3h-1.3v-8.6h1.3v1.2c0.6-0.7,1.8-1.5,3.1-1.5
			c1.8,0,2.7,0.9,2.7,2.8v6H259.6z"/>
		<path class="st5" d="M263.3,269.7c0-2.5,1.7-4.5,4.3-4.5c1.6,0,2.5,0.6,3.1,1.5l-0.9,0.8c-0.6-0.8-1.3-1.1-2.2-1.1
			c-1.8,0-3,1.4-3,3.3s1.1,3.3,3,3.3c0.9,0,1.6-0.4,2.2-1.1l0.9,0.8c-0.7,0.9-1.6,1.5-3.1,1.5C265,274.2,263.3,272.3,263.3,269.7z"
			/>
		<path class="st5" d="M272.8,276.2c0.2,0.1,0.5,0.1,0.7,0.1c0.6,0,1-0.2,1.3-0.9l0.6-1.3l-3.6-8.7h1.4l2.9,7l2.8-7h1.5l-4.3,10.3
			c-0.5,1.2-1.4,1.7-2.5,1.7c-0.3,0-0.7-0.1-1-0.1L272.8,276.2z"/>
		<path class="st5" d="M293.3,274l-3-4.7h-2.4v4.7h-1.5v-11.8h4.8c2.2,0,3.7,1.4,3.7,3.6c0,2.1-1.5,3.3-3.1,3.4l3.2,4.8H293.3z
			 M293.4,265.8c0-1.3-1-2.3-2.4-2.3h-3.1v4.5h3.1C292.4,268,293.4,267.1,293.4,265.8z"/>
		<path class="st5" d="M302.5,274v-1c-0.7,0.8-1.7,1.2-2.8,1.2c-1.5,0-3-1-3-2.8c0-1.9,1.5-2.8,3-2.8c1.2,0,2.1,0.4,2.8,1.2v-1.5
			c0-1.2-0.9-1.8-2.2-1.8c-1,0-1.9,0.4-2.6,1.2l-0.6-0.9c0.9-1,2-1.4,3.4-1.4c1.8,0,3.3,0.8,3.3,2.9v5.9H302.5z M302.5,272.2v-1.6
			c-0.5-0.7-1.4-1.1-2.4-1.1c-1.2,0-2.1,0.8-2.1,1.9c0,1.1,0.9,1.9,2.1,1.9C301.1,273.3,302,272.9,302.5,272.2z"/>
		<path class="st5" d="M307,272.2v-5.6h-1.4v-1.2h1.4v-2.3h1.3v2.3h1.7v1.2h-1.7v5.3c0,0.6,0.3,1.1,0.9,1.1c0.4,0,0.7-0.2,0.9-0.4
			l0.4,1c-0.3,0.3-0.8,0.6-1.6,0.6C307.6,274.2,307,273.5,307,272.2z"/>
		<path class="st5" d="M311.5,269.7c0-2.5,1.8-4.5,4.2-4.5c2.6,0,4.1,2,4.1,4.6v0.3h-6.9c0.1,1.6,1.2,3,3.1,3c1,0,2-0.4,2.6-1.1
			l0.6,0.9c-0.9,0.9-2,1.3-3.4,1.3C313.3,274.2,311.5,272.4,311.5,269.7z M315.7,266.3c-1.8,0-2.7,1.5-2.8,2.9h5.6
			C318.5,267.9,317.6,266.3,315.7,266.3z"/>
	</g>
	<g>
		<path class="st6" d="M21.5,68.7v3.9c-3,5.7-5,13.1-5.9,21.7h-5.2c0.7-8,3.4-16.2,6.1-21.2H9.4v-4.4H21.5z"/>
	</g>
	<g>
		<path class="st6" d="M23.4,177.4v12.1c0,4-1.5,7.2-6.7,7.2c-5,0-6.3-3.4-6.3-7.2v-11.9c0-4.6,2.3-7.2,6.5-7.2S23.4,173,23.4,177.4
			z M15.4,177v13.1c0,1.5,0.4,2.3,1.5,2.3c1.1,0,1.5-0.9,1.5-2.4v-13.1c0-1.3-0.4-2.2-1.5-2.2C15.8,174.7,15.4,175.6,15.4,177z"/>
		<path class="st6" d="M25.6,196.4V190h5v6.4H25.6z"/>
		<path class="st6" d="M40.8,177.1v-0.4c0-1.2-0.2-2.2-1.4-2.2s-1.5,0.9-1.5,2.9v3.5c0.8-1.1,2-1.7,3.5-1.7c3.3,0,4.5,2.6,4.5,6v4.4
			c0,3.9-1.6,7.1-6.5,7.1c-5.2,0-6.5-3.4-6.5-7.1v-11.3c0-4.3,1.3-7.8,6.5-7.8c5.5,0,6.1,4,6.1,6.4v0.2H40.8z M40.9,190.3v-4.4
			c0-1.5-0.3-2.4-1.5-2.4c-1.1,0-1.5,0.6-1.5,2.4v4.4c0,1.4,0.3,2.4,1.5,2.4C40.5,192.7,40.9,191.8,40.9,190.3z"/>
		<path class="st6" d="M48.2,177.9v-1.1c0-3.1,1.1-6.3,6-6.3c4.3,0,6,2.4,6,6.2v0.9c0,3-1.1,4.3-2.6,4.9v0.1
			c1.7,0.6,3.2,1.9,3.2,5.1v2.1c0,4.3-1.7,7-6.5,7c-4.8,0-6.3-2.7-6.3-6.3v-1h4.6v1.1c0,1.2,0.3,2.3,1.6,2.3c1.3,0,1.6-1.1,1.6-2.4
			v-2.6c0-2.1-0.6-2.9-2.6-2.9h-1.4v-4.1h1.5c1.6,0,2.2-0.6,2.2-2.6v-1.5c0-1.2-0.2-2.2-1.3-2.2c-1.1,0-1.4,0.9-1.4,2.1v1.4H48.2z"
			/>
	</g>
	<g>
		<path class="st7" d="M205.4,474v-0.6c0-5,1.9-8.1,4.3-11.6c2.2-3.3,3-4.2,3-7c0-1.9-0.2-2.7-1.3-2.7c-1,0-1.4,0.8-1.4,2.6v1.5
			h-4.5v-1.4c0-3,0.9-6.7,6.2-6.7c4.7,0,6.1,2.9,6.1,6.8c0,4-1.3,5.8-3.7,9.1c-1.3,1.7-2.7,4-2.9,5.7h7.1l-0.6,4.3H205.4z"/>
		<path class="st7" d="M232.9,455v12.1c0,4-1.5,7.2-6.7,7.2c-5,0-6.3-3.4-6.3-7.2v-11.9c0-4.6,2.3-7.2,6.5-7.2
			S232.9,450.6,232.9,455z M224.8,454.6v13.1c0,1.5,0.4,2.3,1.5,2.3c1.1,0,1.5-0.9,1.5-2.4v-13.1c0-1.3-0.4-2.2-1.5-2.2
			C225.2,452.3,224.8,453.1,224.8,454.6z"/>
		<path class="st7" d="M243.8,452.8v4.1c0,3.3-1.6,5-4.5,5c-2.6,0-4.4-1.3-4.5-4.8v-4.3c0-3.1,1.6-4.8,4.5-4.8
			C242.3,448,243.8,450,243.8,452.8z M237.7,474l12-25.6h2.4l-12,25.6H237.7z M238.3,452.6v4.6c0,1,0.3,1.7,1.1,1.7
			c0.8,0,1.1-0.7,1.1-1.7v-4.6c0-1.1-0.3-1.6-1-1.6C238.6,451,238.3,451.6,238.3,452.6z M255,465.2v4.1c0,3.3-1.6,5-4.5,5
			c-2.7,0-4.4-1.4-4.5-4.8v-4.3c0-3,1.6-4.8,4.5-4.8C253.4,460.4,255,462.2,255,465.2z M249.4,465v4.6c0,1,0.3,1.6,1.1,1.6
			c0.8,0,1.1-0.6,1.1-1.7v-4.6c0-1.1-0.3-1.5-1-1.5C249.7,463.4,249.4,464,249.4,465z"/>
	</g>
	<g>
		<path class="st7" d="M741.4,452.8h-6.2c-0.1,1.7-0.3,3.9-0.4,5.1c0.6-0.7,1.8-1.1,3.1-1.1c3.4,0,4.6,2.4,4.6,6.5v3.1
			c0,4.4-1.3,7.9-6.6,7.9c-5.2,0-6.5-3.2-6.5-6.7v-0.7h4.9v1.3c0,1.1,0.3,2.2,1.5,2.2c1.2,0,1.5-0.9,1.5-3.1v-3.7
			c0-1.9-0.4-2.6-1.5-2.6c-1.1,0-1.5,0.6-1.6,2.3l-4.5-0.4c0.4-3.9,0.8-10.1,1.1-14.5h11.1L741.4,452.8z"/>
		<path class="st7" d="M757.7,455v12.1c0,4-1.5,7.2-6.7,7.2c-5,0-6.3-3.4-6.3-7.2v-11.9c0-4.6,2.3-7.2,6.5-7.2
			C755.5,448,757.7,450.6,757.7,455z M749.7,454.6v13.1c0,1.5,0.4,2.3,1.5,2.3c1.1,0,1.5-0.9,1.5-2.4v-13.1c0-1.3-0.4-2.2-1.5-2.2
			C750.1,452.3,749.7,453.1,749.7,454.6z"/>
		<path class="st7" d="M768.7,452.8v4.1c0,3.3-1.6,5-4.5,5c-2.6,0-4.4-1.3-4.5-4.8v-4.3c0-3.1,1.6-4.8,4.5-4.8
			C767.1,448,768.7,450,768.7,452.8z M762.6,474l12-25.6h2.4l-12,25.6H762.6z M763.1,452.6v4.6c0,1,0.3,1.7,1.1,1.7
			c0.8,0,1.1-0.7,1.1-1.7v-4.6c0-1.1-0.3-1.6-1-1.6C763.4,451,763.1,451.6,763.1,452.6z M779.8,465.2v4.1c0,3.3-1.6,5-4.5,5
			c-2.7,0-4.4-1.4-4.5-4.8v-4.3c0-3,1.6-4.8,4.5-4.8C778.3,460.4,779.8,462.2,779.8,465.2z M774.3,465v4.6c0,1,0.3,1.6,1.1,1.6
			c0.8,0,1.1-0.6,1.1-1.7v-4.6c0-1.1-0.3-1.5-1-1.5C774.6,463.4,774.3,464,774.3,465z"/>
	</g>
	<g>
		<path class="st6" d="M11.8,312.7v-20.2c-0.7,0-1.7-0.1-2.2-0.2v-3.6c1.6-0.2,2.8-0.8,3.5-1.7h3.8v25.7H11.8z"/>
		<path class="st6" d="M20,312.7v-6.4h5v6.4H20z"/>
		<path class="st6" d="M27.6,294.2V293c0-3.1,1.1-6.3,6-6.3c4.3,0,6,2.4,6,6.2v0.9c0,3-1.1,4.3-2.6,4.9v0.1c1.7,0.6,3.2,1.9,3.2,5.1
			v2c0,4.3-1.7,7-6.5,7c-4.8,0-6.3-2.7-6.3-6.3v-1h4.6v1.1c0,1.2,0.3,2.3,1.6,2.3c1.3,0,1.6-1.1,1.6-2.4v-2.6c0-2.1-0.6-2.9-2.6-2.9
			h-1.4v-4.1h1.5c1.6,0,2.2-0.6,2.2-2.6v-1.5c0-1.2-0.2-2.2-1.3-2.2c-1.1,0-1.4,0.9-1.4,2.1v1.4H27.6z"/>
		<path class="st6" d="M55.2,293.7v12.1c0,4-1.5,7.2-6.7,7.2c-5,0-6.3-3.4-6.3-7.2v-11.9c0-4.6,2.3-7.2,6.5-7.2
			S55.2,289.3,55.2,293.7z M47.1,293.3v13.1c0,1.5,0.4,2.3,1.5,2.3c1.1,0,1.5-0.9,1.5-2.4v-13.1c0-1.3-0.4-2.2-1.5-2.2
			C47.6,291,47.1,291.9,47.1,293.3z"/>
	</g>
	<rect x="269" y="7.9" class="st1" width="99" height="14"/>
	<path class="st3" d="M270.1,21.9V10.1h8.4v2.2h-5.9v2.5h5.7V17h-5.7v4.9H270.1z M283.6,21.9v-4.8l-4.5-7h2.9l2.9,4.7l2.9-4.7h2.9
		l-4.5,7v4.8H283.6z M295.9,21.9v-2c4.8-3.6,6.3-4.8,6.3-6.2c0-1-0.9-1.5-1.9-1.5c-1.3,0-2.4,0.5-3.2,1.4l-1.4-1.7
		c1.2-1.3,2.9-1.9,4.6-1.9c2.5,0,4.5,1.4,4.5,3.8c0,2-1.7,3.8-4.7,6h4.8v2.2H295.9z M306.4,16c0-3.1,1.5-6.1,4.9-6.1
		c3.4,0,4.9,3.1,4.9,6.1s-1.5,6.1-4.9,6.1C307.9,22.1,306.4,19,306.4,16z M313.6,16c0-2.2-0.6-3.9-2.3-3.9c-1.7,0-2.3,1.7-2.3,3.9
		c0,2.2,0.6,3.9,2.3,3.9C312.9,19.9,313.6,18.2,313.6,16z M320.3,21.9v-8.6l-2,2l-1.4-1.5l3.7-3.7h2.2v11.8H320.3z M325.2,20.9
		l1.1-1.9c0.6,0.6,1.3,0.9,2.4,0.9c2,0,3-1.7,3-3.3c0-0.1,0-0.2,0-0.3c-0.6,0.8-1.8,1.5-3.1,1.5c-2.1,0-4-1.3-4-3.9
		c0-2.3,1.8-4.1,4.5-4.1c3.6,0,5.1,2.8,5.1,6.1c0,3.6-2,6.1-5.5,6.1C327.3,22.1,326.1,21.6,325.2,20.9z M331.7,14.5
		c-0.1-1.1-0.7-2.4-2.4-2.4c-1.4,0-2.1,0.9-2.1,1.7c0,1.2,1.1,1.8,2.2,1.8C330.2,15.6,331.1,15.2,331.7,14.5z M335.4,16.8v-1.9h4.3
		v1.9H335.4z M341,21.9v-2c4.8-3.6,6.3-4.8,6.3-6.2c0-1-0.9-1.5-1.9-1.5c-1.3,0-2.4,0.5-3.2,1.4l-1.4-1.7c1.2-1.3,2.9-1.9,4.6-1.9
		c2.5,0,4.5,1.4,4.5,3.8c0,2-1.7,3.8-4.7,6h4.8v2.2H341z M351.4,16c0-3.1,1.5-6.1,4.9-6.1s4.9,3.1,4.9,6.1s-1.5,6.1-4.9,6.1
		S351.4,19,351.4,16z M358.6,16c0-2.2-0.6-3.9-2.3-3.9c-1.7,0-2.3,1.7-2.3,3.9c0,2.2,0.6,3.9,2.3,3.9S358.6,18.2,358.6,16z"/>
	<g>
		<path class="st6" d="M269.9,94.3v-0.6c0-5,1.9-8.1,4.3-11.6c2.2-3.3,3-4.2,3-7c0-1.9-0.2-2.7-1.3-2.7c-1,0-1.4,0.8-1.4,2.6v1.5
			h-4.5v-1.4c0-3,0.9-6.7,6.2-6.7c4.7,0,6.1,2.9,6.1,6.8c0,4-1.3,5.8-3.7,9.1c-1.3,1.7-2.7,4-2.9,5.7h7.1l-0.6,4.3H269.9z"/>
	</g>
	<g>
		<path class="st6" d="M271.8,196.4v-20.2c-0.7,0-1.7-0.1-2.2-0.2v-3.6c1.6-0.2,2.8-0.8,3.5-1.7h3.8v25.7H271.8z"/>
		<path class="st6" d="M279.9,196.4V190h5v6.4H279.9z"/>
		<path class="st6" d="M287.6,177.9v-1.1c0-3.1,1.1-6.3,6-6.3c4.3,0,6,2.4,6,6.2v0.9c0,3-1.1,4.3-2.6,4.9v0.1
			c1.7,0.6,3.2,1.9,3.2,5.1v2.1c0,4.3-1.7,7-6.5,7c-4.8,0-6.3-2.7-6.3-6.3v-1h4.6v1.1c0,1.2,0.3,2.3,1.6,2.3c1.3,0,1.6-1.1,1.6-2.4
			v-2.6c0-2.1-0.6-2.9-2.6-2.9h-1.4v-4.1h1.5c1.6,0,2.2-0.6,2.2-2.6v-1.5c0-1.2-0.2-2.2-1.3-2.2c-1.1,0-1.4,0.9-1.4,2.1v1.4H287.6z"
			/>
		<path class="st6" d="M302.2,190.1v-2.2c0-3,1.3-4.2,2.6-5.1c-1.4-0.9-2.3-2.1-2.3-5.1v-1c0-4.1,2.3-6.2,6.3-6.2
			c3.7,0,6.1,1.9,6.1,6.3v0.9c0,3.2-1,4.3-2.2,5c1.6,0.8,2.6,2.2,2.6,5.1v2c0,5-2.3,6.9-6.7,6.9
			C304.9,196.7,302.2,195.1,302.2,190.1z M310.3,190.5V187c0-1.7-0.7-2.1-1.6-2.1c-0.9,0-1.5,0.6-1.5,2.1v3.5c0,1.3,0.5,2.1,1.5,2.1
			C309.7,192.6,310.3,192,310.3,190.5z M307.2,176.6v2.1c0,1.3,0.6,2.1,1.5,2.1s1.5-0.7,1.5-2.1v-2.1c0-1.2-0.4-2-1.5-2
			C307.6,174.6,307.2,175.4,307.2,176.6z"/>
	</g>
	<g>
		<path class="st6" d="M269.9,312.7v-0.6c0-5,1.9-8.1,4.3-11.6c2.2-3.3,3-4.2,3-7c0-1.9-0.2-2.7-1.3-2.7c-1,0-1.4,0.8-1.4,2.6v1.5
			h-4.5v-1.4c0-3,0.9-6.7,6.2-6.7c4.7,0,6.1,2.9,6.1,6.8c0,4-1.3,5.8-3.7,9.1c-1.3,1.7-2.7,4-2.9,5.7h7.1l-0.6,4.3H269.9z"/>
		<path class="st6" d="M285,312.7v-6.4h5v6.4H285z"/>
		<path class="st6" d="M303.6,287.1v3.9c-3,5.7-5,13.1-5.9,21.7h-5.2c0.7-8,3.4-16.2,6.1-21.2h-7.1v-4.4H303.6z"/>
		<path class="st6" d="M318.5,293.7v12.1c0,4-1.5,7.2-6.7,7.2c-5,0-6.3-3.4-6.3-7.2v-11.9c0-4.6,2.3-7.2,6.5-7.2
			S318.5,289.3,318.5,293.7z M310.4,293.3v13.1c0,1.5,0.4,2.3,1.5,2.3c1.1,0,1.5-0.9,1.5-2.4v-13.1c0-1.3-0.4-2.2-1.5-2.2
			C310.8,291,310.4,291.9,310.4,293.3z"/>
	</g>
	<rect x="527" y="7.9" class="st1" width="99" height="14"/>
	<path class="st3" d="M528.1,21.9V10.1h8.4v2.2h-5.9v2.5h5.7V17h-5.7v4.9H528.1z M541.6,21.9v-4.8l-4.5-7h2.9l2.9,4.7l2.9-4.7h2.9
		l-4.5,7v4.8H541.6z M553.9,21.9v-2c4.8-3.6,6.3-4.8,6.3-6.2c0-1-0.9-1.5-1.9-1.5c-1.3,0-2.4,0.5-3.2,1.4l-1.4-1.7
		c1.2-1.3,2.9-1.9,4.6-1.9c2.5,0,4.5,1.4,4.5,3.8c0,2-1.7,3.8-4.7,6h4.8v2.2H553.9z M564.3,16c0-3.1,1.5-6.1,4.9-6.1
		c3.4,0,4.9,3.1,4.9,6.1s-1.5,6.1-4.9,6.1C565.9,22.1,564.3,19,564.3,16z M571.6,16c0-2.2-0.6-3.9-2.3-3.9c-1.7,0-2.3,1.7-2.3,3.9
		c0,2.2,0.6,3.9,2.3,3.9C570.9,19.9,571.6,18.2,571.6,16z M575.6,21.9v-2c4.8-3.6,6.3-4.8,6.3-6.2c0-1-0.9-1.5-1.9-1.5
		c-1.3,0-2.4,0.5-3.2,1.4l-1.4-1.7c1.2-1.3,2.9-1.9,4.6-1.9c2.5,0,4.5,1.4,4.5,3.8c0,2-1.7,3.8-4.7,6h4.8v2.2H575.6z M586,16
		c0-3.1,1.5-6.1,4.9-6.1s4.9,3.1,4.9,6.1s-1.5,6.1-4.9,6.1S586,19,586,16z M593.2,16c0-2.2-0.6-3.9-2.3-3.9c-1.7,0-2.3,1.7-2.3,3.9
		c0,2.2,0.6,3.9,2.3,3.9C592.6,19.9,593.2,18.2,593.2,16z M596.9,16.8v-1.9h4.3v1.9H596.9z M602.5,21.9v-2c4.8-3.6,6.3-4.8,6.3-6.2
		c0-1-0.9-1.5-1.9-1.5c-1.3,0-2.4,0.5-3.2,1.4l-1.4-1.7c1.2-1.3,2.9-1.9,4.6-1.9c2.5,0,4.5,1.4,4.5,3.8c0,2-1.7,3.8-4.7,6h4.8v2.2
		H602.5z M616,21.9v-8.6l-2,2l-1.4-1.5l3.7-3.7h2.2v11.8H616z"/>
	<g>
		<path class="st5" d="M9,497.3v-11.8h7.8v1.3h-6.3v3.8h6.2v1.3h-6.2v5.4H9z"/>
		<path class="st5" d="M24.1,497.3v-1c-0.7,0.8-1.7,1.2-2.8,1.2c-1.5,0-3-1-3-2.8c0-1.9,1.5-2.8,3-2.8c1.2,0,2.1,0.4,2.8,1.2v-1.5
			c0-1.2-0.9-1.8-2.2-1.8c-1,0-1.9,0.4-2.6,1.2l-0.6-0.9c0.9-1,2-1.4,3.4-1.4c1.8,0,3.3,0.8,3.3,2.9v5.9H24.1z M24.1,495.4v-1.6
			c-0.5-0.7-1.4-1.1-2.4-1.1c-1.2,0-2.1,0.8-2.1,1.9c0,1.1,0.9,1.9,2.1,1.9C22.7,496.5,23.6,496.2,24.1,495.4z"/>
		<path class="st5" d="M28.6,495.5v-5.6h-1.4v-1.2h1.4v-2.3h1.3v2.3h1.7v1.2h-1.7v5.3c0,0.6,0.3,1.1,0.9,1.1c0.4,0,0.7-0.2,0.9-0.4
			l0.4,1c-0.3,0.3-0.8,0.5-1.6,0.5C29.2,497.5,28.6,496.7,28.6,495.5z"/>
		<path class="st5" d="M39.2,497.3v-1c-0.7,0.8-1.7,1.2-2.8,1.2c-1.5,0-3-1-3-2.8c0-1.9,1.5-2.8,3-2.8c1.2,0,2.1,0.4,2.8,1.2v-1.5
			c0-1.2-0.9-1.8-2.2-1.8c-1,0-1.9,0.4-2.6,1.2l-0.6-0.9c0.9-1,2-1.4,3.4-1.4c1.8,0,3.3,0.8,3.3,2.9v5.9H39.2z M39.2,495.4v-1.6
			c-0.5-0.7-1.4-1.1-2.4-1.1c-1.2,0-2.1,0.8-2.1,1.9c0,1.1,0.9,1.9,2.1,1.9C37.7,496.5,38.6,496.2,39.2,495.4z"/>
		<path class="st5" d="M43.3,497.3v-11.8h1.3v11.8H43.3z"/>
		<path class="st5" d="M47.3,486.6c0-0.5,0.4-0.9,0.9-0.9c0.5,0,0.9,0.4,0.9,0.9c0,0.5-0.4,0.9-0.9,0.9
			C47.7,487.5,47.3,487.1,47.3,486.6z M47.5,497.3v-8.6h1.3v8.6H47.5z"/>
		<path class="st5" d="M52.1,495.5v-5.6h-1.4v-1.2h1.4v-2.3h1.3v2.3h1.7v1.2h-1.7v5.3c0,0.6,0.3,1.1,0.9,1.1c0.4,0,0.7-0.2,0.9-0.4
			l0.4,1c-0.3,0.3-0.8,0.5-1.6,0.5C52.7,497.5,52.1,496.7,52.1,495.5z"/>
		<path class="st5" d="M57.4,499.4c0.2,0.1,0.5,0.1,0.7,0.1c0.6,0,1-0.2,1.3-0.9l0.6-1.3l-3.6-8.7h1.4l2.9,7l2.8-7H65L60.7,499
			c-0.5,1.2-1.4,1.7-2.5,1.7c-0.3,0-0.7-0.1-1-0.1L57.4,499.4z"/>
		<path class="st5" d="M76.3,497.3v-1c-0.7,0.8-1.7,1.2-2.8,1.2c-1.5,0-3-1-3-2.8c0-1.9,1.5-2.8,3-2.8c1.2,0,2.1,0.4,2.8,1.2v-1.5
			c0-1.2-0.9-1.8-2.2-1.8c-1,0-1.9,0.4-2.6,1.2l-0.6-0.9c0.9-1,2-1.4,3.4-1.4c1.8,0,3.3,0.8,3.3,2.9v5.9H76.3z M76.3,495.4v-1.6
			c-0.5-0.7-1.4-1.1-2.4-1.1c-1.2,0-2.1,0.8-2.1,1.9c0,1.1,0.9,1.9,2.1,1.9C74.9,496.5,75.8,496.2,76.3,495.4z"/>
		<path class="st5" d="M80.8,495.5v-5.6h-1.4v-1.2h1.4v-2.3h1.3v2.3h1.7v1.2h-1.7v5.3c0,0.6,0.3,1.1,0.9,1.1c0.4,0,0.7-0.2,0.9-0.4
			l0.4,1c-0.3,0.3-0.8,0.5-1.6,0.5C81.4,497.5,80.8,496.7,80.8,495.5z"/>
	</g>
	<g>
		<path class="st5" d="M16.4,517l-2.2-6.9l-2.2,6.9h-1.3l-2.7-8.6h1.4l2.1,6.8l2.3-6.8h1.1l2.3,6.8l2.1-6.8h1.4l-2.7,8.6H16.4z"/>
		<path class="st5" d="M21.6,512.7c0-2.5,1.6-4.5,4.2-4.5c2.6,0,4.2,2,4.2,4.5c0,2.5-1.6,4.5-4.2,4.5
			C23.2,517.2,21.6,515.2,21.6,512.7z M28.7,512.7c0-1.7-1-3.3-2.8-3.3c-1.8,0-2.9,1.6-2.9,3.3c0,1.8,1,3.3,2.9,3.3
			C27.7,516,28.7,514.4,28.7,512.7z"/>
		<path class="st5" d="M32.5,517v-8.6h1.3v1.4c0.7-0.9,1.7-1.6,2.9-1.6v1.4c-0.2,0-0.3-0.1-0.5-0.1c-0.8,0-1.9,0.7-2.3,1.4v6.1H32.5
			z"/>
		<path class="st5" d="M44.4,517l-3.1-3.9l-1.4,1.4v2.4h-1.3v-11.8h1.3v7.8l4.5-4.6h1.7l-3.8,3.9l3.8,4.7H44.4z"/>
		<path class="st5" d="M51.5,515.8l0.7-1c0.6,0.7,1.7,1.2,2.8,1.2c1.3,0,2-0.6,2-1.5c0-2.1-5.3-0.8-5.3-4c0-1.3,1.2-2.5,3.2-2.5
			c1.5,0,2.5,0.5,3.2,1.2l-0.6,0.9c-0.5-0.6-1.5-1.1-2.6-1.1c-1.2,0-1.9,0.6-1.9,1.3c0,1.9,5.3,0.6,5.3,4c0,1.4-1.2,2.6-3.4,2.6
			C53.6,517.2,52.4,516.8,51.5,515.8z"/>
		<path class="st5" d="M60.4,506.3c0-0.5,0.4-0.9,0.9-0.9c0.5,0,0.9,0.4,0.9,0.9c0,0.5-0.4,0.9-0.9,0.9
			C60.8,507.2,60.4,506.8,60.4,506.3z M60.7,517v-8.6H62v8.6H60.7z"/>
		<path class="st5" d="M65.2,515.2v-5.6h-1.4v-1.2h1.4v-2.3h1.3v2.3h1.7v1.2h-1.7v5.3c0,0.6,0.3,1.1,0.9,1.1c0.4,0,0.7-0.2,0.9-0.4
			l0.4,1c-0.3,0.3-0.8,0.5-1.6,0.5C65.8,517.2,65.2,516.5,65.2,515.2z"/>
		<path class="st5" d="M69.7,512.7c0-2.5,1.8-4.5,4.2-4.5c2.6,0,4.1,2,4.1,4.6v0.3h-6.9c0.1,1.6,1.2,3,3.1,3c1,0,2-0.4,2.6-1.1
			l0.6,0.9c-0.9,0.9-2,1.3-3.4,1.3C71.5,517.2,69.7,515.4,69.7,512.7z M73.9,509.3c-1.8,0-2.7,1.5-2.8,2.9h5.6
			C76.7,510.9,75.8,509.3,73.9,509.3z"/>
	</g>
	<g>
		<path class="st5" d="M532.7,497.3v-11.8h7.8v1.3h-6.3v3.8h6.2v1.3h-6.2v5.4H532.7z"/>
		<path class="st5" d="M547.8,497.3v-1c-0.7,0.8-1.7,1.2-2.8,1.2c-1.5,0-3-1-3-2.8c0-1.9,1.5-2.8,3-2.8c1.2,0,2.1,0.4,2.8,1.2v-1.5
			c0-1.2-0.9-1.8-2.2-1.8c-1,0-1.9,0.4-2.6,1.2l-0.6-0.9c0.9-1,2-1.4,3.4-1.4c1.8,0,3.3,0.8,3.3,2.9v5.9H547.8z M547.8,495.4v-1.6
			c-0.5-0.7-1.4-1.1-2.4-1.1c-1.2,0-2.1,0.8-2.1,1.9c0,1.1,0.9,1.9,2.1,1.9C546.4,496.5,547.3,496.2,547.8,495.4z"/>
		<path class="st5" d="M552.2,495.5v-5.6h-1.4v-1.2h1.4v-2.3h1.3v2.3h1.7v1.2h-1.7v5.3c0,0.6,0.3,1.1,0.9,1.1c0.4,0,0.7-0.2,0.9-0.4
			l0.4,1c-0.3,0.3-0.8,0.5-1.6,0.5C552.9,497.5,552.2,496.7,552.2,495.5z"/>
		<path class="st5" d="M562.8,497.3v-1c-0.7,0.8-1.7,1.2-2.8,1.2c-1.5,0-3-1-3-2.8c0-1.9,1.5-2.8,3-2.8c1.2,0,2.1,0.4,2.8,1.2v-1.5
			c0-1.2-0.9-1.8-2.2-1.8c-1,0-1.9,0.4-2.6,1.2l-0.6-0.9c0.9-1,2-1.4,3.4-1.4c1.8,0,3.3,0.8,3.3,2.9v5.9H562.8z M562.8,495.4v-1.6
			c-0.5-0.7-1.4-1.1-2.4-1.1c-1.2,0-2.1,0.8-2.1,1.9c0,1.1,0.9,1.9,2.1,1.9C561.4,496.5,562.3,496.2,562.8,495.4z"/>
		<path class="st5" d="M567,497.3v-11.8h1.3v11.8H567z"/>
		<path class="st5" d="M571,486.6c0-0.5,0.4-0.9,0.9-0.9c0.5,0,0.9,0.4,0.9,0.9c0,0.5-0.4,0.9-0.9,0.9
			C571.4,487.5,571,487.1,571,486.6z M571.2,497.3v-8.6h1.3v8.6H571.2z"/>
		<path class="st5" d="M575.8,495.5v-5.6h-1.4v-1.2h1.4v-2.3h1.3v2.3h1.7v1.2h-1.7v5.3c0,0.6,0.3,1.1,0.9,1.1c0.4,0,0.7-0.2,0.9-0.4
			l0.4,1c-0.3,0.3-0.8,0.5-1.6,0.5C576.4,497.5,575.8,496.7,575.8,495.5z"/>
		<path class="st5" d="M581.1,499.4c0.2,0.1,0.5,0.1,0.7,0.1c0.6,0,1-0.2,1.3-0.9l0.6-1.3l-3.6-8.7h1.4l2.9,7l2.8-7h1.5l-4.3,10.3
			c-0.5,1.2-1.4,1.7-2.5,1.7c-0.3,0-0.7-0.1-1-0.1L581.1,499.4z"/>
		<path class="st5" d="M600,497.3v-1c-0.7,0.8-1.7,1.2-2.8,1.2c-1.5,0-3-1-3-2.8c0-1.9,1.5-2.8,3-2.8c1.2,0,2.1,0.4,2.8,1.2v-1.5
			c0-1.2-0.9-1.8-2.2-1.8c-1,0-1.9,0.4-2.6,1.2l-0.6-0.9c0.9-1,2-1.4,3.4-1.4c1.8,0,3.3,0.8,3.3,2.9v5.9H600z M600,495.4v-1.6
			c-0.5-0.7-1.4-1.1-2.4-1.1c-1.2,0-2.1,0.8-2.1,1.9c0,1.1,0.9,1.9,2.1,1.9C598.6,496.5,599.5,496.2,600,495.4z"/>
		<path class="st5" d="M604.5,495.5v-5.6h-1.4v-1.2h1.4v-2.3h1.3v2.3h1.7v1.2h-1.7v5.3c0,0.6,0.3,1.1,0.9,1.1c0.4,0,0.7-0.2,0.9-0.4
			l0.4,1c-0.3,0.3-0.8,0.5-1.6,0.5C605.1,497.5,604.5,496.7,604.5,495.5z"/>
	</g>
	<g>
		<path class="st5" d="M540.1,517l-2.2-6.9l-2.2,6.9h-1.3l-2.7-8.6h1.4l2.1,6.8l2.3-6.8h1.1l2.3,6.8l2.1-6.8h1.4l-2.7,8.6H540.1z"/>
		<path class="st5" d="M545.3,512.7c0-2.5,1.6-4.5,4.2-4.5s4.2,2,4.2,4.5c0,2.5-1.6,4.5-4.2,4.5S545.3,515.2,545.3,512.7z
			 M552.4,512.7c0-1.7-1-3.3-2.8-3.3s-2.9,1.6-2.9,3.3c0,1.8,1,3.3,2.9,3.3S552.4,514.4,552.4,512.7z"/>
		<path class="st5" d="M556.2,517v-8.6h1.3v1.4c0.7-0.9,1.7-1.6,2.9-1.6v1.4c-0.2,0-0.3-0.1-0.5-0.1c-0.8,0-1.9,0.7-2.3,1.4v6.1
			H556.2z"/>
		<path class="st5" d="M568.1,517l-3.1-3.9l-1.4,1.4v2.4h-1.3v-11.8h1.3v7.8l4.5-4.6h1.7l-3.8,3.9l3.8,4.7H568.1z"/>
		<path class="st5" d="M575.2,515.8l0.7-1c0.6,0.7,1.7,1.2,2.8,1.2c1.3,0,2-0.6,2-1.5c0-2.1-5.3-0.8-5.3-4c0-1.3,1.2-2.5,3.2-2.5
			c1.5,0,2.5,0.5,3.2,1.2l-0.6,0.9c-0.5-0.6-1.5-1.1-2.6-1.1c-1.2,0-1.9,0.6-1.9,1.3c0,1.9,5.3,0.6,5.3,4c0,1.4-1.2,2.6-3.4,2.6
			C577.3,517.2,576.1,516.8,575.2,515.8z"/>
		<path class="st5" d="M584.1,506.3c0-0.5,0.4-0.9,0.9-0.9c0.5,0,0.9,0.4,0.9,0.9c0,0.5-0.4,0.9-0.9,0.9
			C584.5,507.2,584.1,506.8,584.1,506.3z M584.4,517v-8.6h1.3v8.6H584.4z"/>
		<path class="st5" d="M588.9,515.2v-5.6h-1.4v-1.2h1.4v-2.3h1.3v2.3h1.7v1.2h-1.7v5.3c0,0.6,0.3,1.1,0.9,1.1c0.4,0,0.7-0.2,0.9-0.4
			l0.4,1c-0.3,0.3-0.8,0.5-1.6,0.5C589.5,517.2,588.9,516.5,588.9,515.2z"/>
		<path class="st5" d="M593.4,512.7c0-2.5,1.8-4.5,4.2-4.5c2.6,0,4.1,2,4.1,4.6v0.3h-6.9c0.1,1.6,1.2,3,3.1,3c1,0,2-0.4,2.6-1.1
			l0.6,0.9c-0.9,0.9-2,1.3-3.4,1.3C595.2,517.2,593.4,515.4,593.4,512.7z M597.6,509.3c-1.8,0-2.7,1.5-2.8,2.9h5.6
			C600.4,510.9,599.5,509.3,597.6,509.3z"/>
	</g>
	<g>
		<path class="st6" d="M529.7,90.9l6.9-18.4h-6.2V68H542v3.8l-6.5,18h6.8l-0.6,4.5h-11.9V90.9z"/>
		<path class="st6" d="M548.6,85.2v3c0,1.3,0.3,2.3,1.5,2.3c1.2,0,1.4-1.1,1.4-2.4v-0.5h4.9V88c0,2.8-0.9,6.6-6.3,6.6
			c-5.3,0-6.5-3-6.5-7.3v-7c0-3.4,1.6-7.1,6.5-7.1c4.4,0,6.4,2.6,6.4,7.1v5H548.6z M551.6,81.6v-2c0-1.6-0.4-2.4-1.5-2.4
			c-0.9,0-1.5,0.7-1.5,2.4v2H551.6z"/>
		<path class="st6" d="M568.1,79.3c-2.4,0-4.2,0.4-4.2,4v11h-5.1V80.6c0-3.5,0-5.2,0-7.1h4.8c0.1,0.4,0.2,2.2,0.2,3.1
			c0.7-2.4,2.4-3.4,4.3-3.4V79.3z"/>
		<path class="st6" d="M582.7,80v7.8c0,4.6-2.4,6.8-6.6,6.8c-4.2,0-6.5-2.2-6.5-6.8v-8c0-4.6,2.8-6.6,6.5-6.6
			C580.1,73.2,582.7,75.4,582.7,80z M574.7,79.6v8.5c0,1.4,0.4,2.3,1.5,2.3c1.1,0,1.5-0.9,1.5-2.3v-8.5c0-1.3-0.3-2.1-1.5-2.1
			C575.1,77.4,574.7,78.2,574.7,79.6z"/>
	</g>
	<g>
		<path class="st7" d="M8.1,470.6l6.9-18.4H8.8v-4.5h11.6v3.8l-6.5,18h6.8L20,474H8.1V470.6z"/>
		<path class="st7" d="M27,464.9v3c0,1.3,0.3,2.3,1.5,2.3c1.2,0,1.4-1.1,1.4-2.4v-0.5h4.9v0.3c0,2.8-0.9,6.6-6.3,6.6
			c-5.3,0-6.5-3-6.5-7.3v-7c0-3.4,1.6-7.1,6.5-7.1c4.4,0,6.4,2.6,6.4,7.1v5H27z M30,461.3v-2c0-1.6-0.4-2.4-1.5-2.4
			c-0.9,0-1.5,0.7-1.5,2.4v2H30z"/>
		<path class="st7" d="M46.4,459c-2.4,0-4.2,0.4-4.2,4v11h-5.1v-13.7c0-3.5,0-5.2,0-7.1H42c0.1,0.4,0.2,2.2,0.2,3.1
			c0.7-2.4,2.4-3.4,4.3-3.4V459z"/>
		<path class="st7" d="M61.2,459.7v7.8c0,4.6-2.4,6.8-6.6,6.8c-4.2,0-6.5-2.2-6.5-6.8v-8c0-4.6,2.8-6.6,6.5-6.6
			C58.5,452.9,61.2,455,61.2,459.7z M53.1,459.3v8.5c0,1.4,0.4,2.3,1.5,2.3c1.1,0,1.5-0.9,1.5-2.3v-8.5c0-1.3-0.3-2.1-1.5-2.1
			C53.5,457.1,53.1,457.9,53.1,459.3z"/>
	</g>
	<g>
		<path class="st7" d="M531.8,470.6l6.9-18.4h-6.2v-4.5h11.6v3.8l-6.5,18h6.8l-0.6,4.5h-11.9V470.6z"/>
		<path class="st7" d="M550.6,464.9v3c0,1.3,0.3,2.3,1.5,2.3c1.2,0,1.4-1.1,1.4-2.4v-0.5h4.9v0.3c0,2.8-0.9,6.6-6.3,6.6
			c-5.3,0-6.5-3-6.5-7.3v-7c0-3.4,1.6-7.1,6.5-7.1c4.4,0,6.4,2.6,6.4,7.1v5H550.6z M553.6,461.3v-2c0-1.6-0.4-2.4-1.5-2.4
			c-0.9,0-1.5,0.7-1.5,2.4v2H553.6z"/>
		<path class="st7" d="M570.1,459c-2.4,0-4.2,0.4-4.2,4v11h-5.1v-13.7c0-3.5,0-5.2,0-7.1h4.8c0.1,0.4,0.2,2.2,0.2,3.1
			c0.7-2.4,2.4-3.4,4.3-3.4V459z"/>
		<path class="st7" d="M584.8,459.7v7.8c0,4.6-2.4,6.8-6.6,6.8c-4.2,0-6.5-2.2-6.5-6.8v-8c0-4.6,2.8-6.6,6.5-6.6
			C582.2,452.9,584.8,455,584.8,459.7z M576.7,459.3v8.5c0,1.4,0.4,2.3,1.5,2.3c1.1,0,1.5-0.9,1.5-2.3v-8.5c0-1.3-0.3-2.1-1.5-2.1
			C577.2,457.1,576.7,457.9,576.7,459.3z"/>
	</g>
	<g>
		<path class="st6" d="M543.4,177.4v12.1c0,4-1.5,7.2-6.7,7.2c-5,0-6.3-3.4-6.3-7.2v-11.9c0-4.6,2.3-7.2,6.5-7.2
			C541.2,170.4,543.4,173,543.4,177.4z M535.3,177v13.1c0,1.5,0.4,2.3,1.5,2.3c1.1,0,1.5-0.9,1.5-2.4v-13.1c0-1.3-0.4-2.2-1.5-2.2
			C535.8,174.7,535.3,175.6,535.3,177z"/>
		<path class="st6" d="M545.5,196.4V190h5v6.4H545.5z"/>
		<path class="st6" d="M557.9,190.2v0.5c0,1.2,0.4,2,1.4,2c1.1,0,1.4-1,1.4-3.4v-3.7c-0.7,1-1.7,1.4-3.3,1.4c-3.2,0-4.7-2.4-4.7-6.1
			v-3.8c0-4,2.2-6.6,6.4-6.6c4.3,0,6.5,2.4,6.5,6.8v11c0,4.4-0.9,8.5-6.5,8.5c-5.3,0-6.2-3.4-6.2-6.3v-0.2H557.9z M557.7,176.7v4
			c0,1.3,0.4,2.1,1.5,2.1c1.1,0,1.5-0.8,1.5-2.6v-3.5c0-1.4-0.4-2.2-1.5-2.2C558.1,174.5,557.7,175.2,557.7,176.7z"/>
		<path class="st6" d="M579.3,170.8v3.9c-3,5.7-5,13.1-5.9,21.7h-5.2c0.7-8,3.4-16.2,6.1-21.2h-7.1v-4.4H579.3z"/>
	</g>
	<g>
		<path class="st6" d="M529.9,312.7v-0.6c0-5,1.9-8.1,4.3-11.6c2.2-3.3,3-4.2,3-7c0-1.9-0.2-2.7-1.3-2.7c-1,0-1.4,0.8-1.4,2.6v1.5
			h-4.5v-1.4c0-3,0.9-6.7,6.2-6.7c4.7,0,6.1,2.9,6.1,6.8c0,4-1.3,5.8-3.7,9.1c-1.3,1.7-2.7,4-2.9,5.7h7.1l-0.6,4.3H529.9z"/>
		<path class="st6" d="M545,312.7v-6.4h5v6.4H545z"/>
		<path class="st6" d="M564.2,291.5H558c-0.1,1.7-0.3,3.9-0.4,5.1c0.6-0.7,1.8-1.1,3.1-1.1c3.4,0,4.6,2.4,4.6,6.5v3.1
			c0,4.4-1.3,7.9-6.6,7.9c-5.2,0-6.5-3.2-6.5-6.7v-0.7h4.9v1.3c0,1.1,0.3,2.2,1.5,2.2c1.2,0,1.5-0.9,1.5-3.1v-3.7
			c0-1.9-0.4-2.6-1.5-2.6c-1.1,0-1.5,0.6-1.6,2.3l-4.5-0.4c0.4-3.9,0.8-10.1,1.1-14.5h11.1L564.2,291.5z"/>
		<path class="st6" d="M578.6,287.1v3.9c-3,5.7-5,13.1-5.9,21.7h-5.2c0.7-8,3.4-16.2,6.1-21.2h-7.1v-4.4H578.6z"/>
	</g>
	<g>
		<path class="st4" d="M789.9,312.7v-0.6c0-5,1.9-8.1,4.3-11.6c2.2-3.3,3-4.2,3-7c0-1.9-0.2-2.7-1.3-2.7c-1,0-1.4,0.8-1.4,2.6v1.5
			h-4.5v-1.4c0-3,0.9-6.7,6.2-6.7c4.7,0,6.1,2.9,6.1,6.8c0,4-1.3,5.8-3.7,9.1c-1.3,1.7-2.7,4-2.9,5.7h7.1l-0.6,4.3H789.9z"/>
		<path class="st4" d="M805,312.7v-6.4h5v6.4H805z"/>
		<path class="st4" d="M811.9,312.7v-0.6c0-5,1.9-8.1,4.3-11.6c2.2-3.3,3-4.2,3-7c0-1.9-0.2-2.7-1.3-2.7c-1,0-1.4,0.8-1.4,2.6v1.5
			h-4.5v-1.4c0-3,0.9-6.7,6.2-6.7c4.7,0,6.1,2.9,6.1,6.8c0,4-1.3,5.8-3.7,9.1c-1.3,1.7-2.7,4-2.9,5.7h7.1l-0.6,4.3H811.9z"/>
		<path class="st4" d="M826.1,312.7v-0.6c0-5,1.9-8.1,4.3-11.6c2.2-3.3,3-4.2,3-7c0-1.9-0.2-2.7-1.3-2.7c-1,0-1.4,0.8-1.4,2.6v1.5
			h-4.5v-1.4c0-3,0.9-6.7,6.2-6.7c4.7,0,6.1,2.9,6.1,6.8c0,4-1.3,5.8-3.7,9.1c-1.3,1.7-2.7,4-2.9,5.7h7.1l-0.6,4.3H826.1z"/>
	</g>
</g>
</svg>
