<?xml version="1.0" encoding="utf-8"?>
<!-- Generator: Adobe Illustrator 26.4.0, SVG Export Plug-In . SVG Version: 6.00 Build 0)  -->
<svg version="1.1" id="Layer_1" xmlns="http://www.w3.org/2000/svg" xmlns:xlink="http://www.w3.org/1999/xlink" x="0px" y="0px"
	 viewBox="0 0 100 100" style="enable-background:new 0 0 100 100;" xml:space="preserve">
<style type="text/css">
	.st0{fill:#FFFFFF;}
	.st1{fill:none;stroke:#F89521;stroke-width:0.75;}
	.st2{fill:none;stroke:#F89521;}
</style>
<g>
	<path class="st0" d="M50,99c27.1,0,49-21.9,49-49C99,22.9,77.1,1,50,1C22.9,1,1,22.9,1,50C1,77.1,22.9,99,50,99"/>
	<ellipse transform="matrix(0.9848 -0.1735 0.1735 0.9848 -7.9168 9.4335)" class="st1" cx="50" cy="50" rx="49" ry="49"/>
	<ellipse class="st2" cx="33.9" cy="40.1" rx="9.8" ry="9.1"/>
	<path class="st2" d="M51.4,63.5L41.7,55c-1.4-1.4-3.3-2.3-5.5-2.3h-5.4c-4.1,0-7.4,3.1-7.4,6.9v25.6h20.2V66.7l5.8,4.1h13.3
		c2.2,0,3.9-1.6,3.9-3.6c0-2-1.7-3.6-3.9-3.6H51.4z"/>
	<path class="st2" d="M73,56H55c-2,0-3.5-1.5-3.5-3.3V38.2c0-1.8,1.6-3.3,3.5-3.3h18c2,0,3.5,1.5,3.5,3.3v14.5
		C76.6,54.5,75,56,73,56z"/>
	<line class="st2" x1="56.8" y1="45.5" x2="69.6" y2="45.5"/>
	<polyline class="st2" points="65.7,40.4 71.1,45.5 65.7,50.5 	"/>
</g>
</svg>
