<?xml version="1.0" encoding="utf-8"?>
<!-- Generator: Adobe Illustrator 26.4.0, SVG Export Plug-In . SVG Version: 6.00 Build 0)  -->
<svg version="1.1" id="Layer_1" xmlns="http://www.w3.org/2000/svg" xmlns:xlink="http://www.w3.org/1999/xlink" x="0px" y="0px"
	 viewBox="0 0 100 100" style="enable-background:new 0 0 100 100;" xml:space="preserve">
<style type="text/css">
	.st0{fill:#FFFFFF;}
	.st1{fill:none;stroke:#F89521;stroke-width:0.75;}
	.st2{fill:none;stroke:#F89521;stroke-width:0.75;stroke-miterlimit:10;}
</style>
<g>
	<path class="st0" d="M50,99.1c27.1,0,49.1-22,49.1-49.1c0-27.1-22-49.1-49.1-49.1C22.9,0.9,0.9,22.9,0.9,50
		C0.9,77.1,22.9,99.1,50,99.1"/>
	<ellipse transform="matrix(0.9732 -0.2298 0.2298 0.9732 -10.1501 12.8252)" class="st1" cx="50" cy="50" rx="49.1" ry="49.1"/>
	<path class="st2" d="M63.4,34.5L50.5,48l-6.8-7.1 M69.9,38.6c-0.9-6-5.9-10.6-5.9-10.6c-2.6-2.3-5.9-3.8-9.5-4.2
		c-1.2-0.2-2.4-0.1-2.4-0.1C42.8,24,35.3,32,35.3,41.9v4.7l-4.8,9.8h4.8v13.3l10.8-0.3v6.9h20.6V52.8c2.2-3,3.5-6.8,3.5-10.9
		C70.2,40.8,70.1,39.7,69.9,38.6z"/>
</g>
</svg>
