<?xml version="1.0" encoding="utf-8"?>
<!-- Generator: Adobe Illustrator 26.4.0, SVG Export Plug-In . SVG Version: 6.00 Build 0)  -->
<svg version="1.1" id="Layer_1" xmlns="http://www.w3.org/2000/svg" xmlns:xlink="http://www.w3.org/1999/xlink" x="0px" y="0px"
	 viewBox="0 0 100 100" style="enable-background:new 0 0 100 100;" xml:space="preserve">
<style type="text/css">
	.st0{fill:#FFFFFF;}
	.st1{fill:none;stroke:#F89521;stroke-width:0.75;}
	.st2{fill:none;stroke:#F89521;stroke-width:0.75;stroke-miterlimit:10;}
</style>
<g>
	<path class="st0" d="M50,99.2c27.2,0,49.2-22,49.2-49.2c0-27.2-22-49.2-49.2-49.2S0.8,22.8,0.8,50C0.8,77.2,22.8,99.2,50,99.2"/>
	<ellipse transform="matrix(0.7071 -0.7071 0.7071 0.7071 -20.7107 50)" class="st1" cx="50" cy="50" rx="49.2" ry="49.2"/>
	<path class="st2" d="M71.3,44.6h4.9v5.3 M71.3,71.9V61 M65.1,71.9v-9.1 M59.3,71.9V58.1 M52.8,71.9h24.7 M52.8,57.2l7.8-8.2
		l5.8,6.1l9.9-10.4 M35.5,73.6H18v-7.2h17.5V73.6z M35.5,66.4H18v-7.2h17.5V66.4z M35.5,59.2H18V52h17.5V59.2z M52.8,73.6H35.3v-7.2
		h17.5V73.6z M52.8,66.4H35.3v-7.2h17.5V66.4z M52.8,59.2H35.3V52h17.5V59.2z M52.8,52H35.3v-7.2h17.5V52z M52.8,44.8H35.3v-7.2
		h17.5V44.8z M66.4,20.2v16.1H82 M39.6,75.4v4.4H82V36.5L66.4,20.2H39.6v14.8"/>
</g>
</svg>
