<?xml version="1.0" encoding="utf-8"?>
<!-- Generator: Adobe Illustrator 26.4.0, SVG Export Plug-In . SVG Version: 6.00 Build 0)  -->
<svg version="1.1" id="Layer_1" xmlns="http://www.w3.org/2000/svg" xmlns:xlink="http://www.w3.org/1999/xlink" x="0px" y="0px"
	 viewBox="0 0 100 100" style="enable-background:new 0 0 100 100;" xml:space="preserve">
<style type="text/css">
	.st0{fill:#FFFFFF;}
	.st1{fill:none;stroke:#2F9947;stroke-width:0.75;}
	.st2{fill:none;stroke:#2F9947;stroke-width:0.75;stroke-miterlimit:10;}
</style>
<g>
	<path class="st0" d="M50,98.7c26.9,0,48.7-21.8,48.7-48.7C98.7,23.1,76.9,1.3,50,1.3C23.1,1.3,1.3,23.1,1.3,50
		C1.3,76.9,23.1,98.7,50,98.7"/>
	<ellipse transform="matrix(0.9732 -0.2298 0.2298 0.9732 -10.1501 12.8252)" class="st1" cx="50" cy="50" rx="48.7" ry="48.7"/>
	<path class="st2" d="M29.6,56.7v16 M60.1,63.1l12-2.5c1.5-0.3,3.1,0.7,3.5,2.2c0.3,1.4-0.3,2.8-1.6,3.4l-18.8,9
		c-1.6,0.8-3.5,0.9-5.2,0.3l-13.1-4.6h-2.1 M34.7,57.8h6.4c0.7,0,1.4,0.1,2.1,0.4l5,2.2c0.7,0.3,1.4,0.4,2.1,0.4h6.9
		c1.6,0,2.9,1.3,2.9,2.9c0,1.6-1.3,2.9-2.9,2.9h-7.8c-1.3,0-2.5,0.6-3.3,1.6 M23.4,55.2h11.3v17.6H23.8 M54.1,34.9c0-1.1,0.9-2,2-2
		s2,0.9,2,2c0,1.1-0.9,2-2,2S54.1,36.1,54.1,34.9z M64,28.7H48.4v-4.5H64V28.7z M36.8,35.7c0,0,5.9,4.9,19.4,4.9
		c12.5,0,19.4-4.9,19.4-4.9 M75.6,52.6H36.8v-24h38.8V52.6z"/>
</g>
</svg>
