<?xml version="1.0" encoding="utf-8"?>
<!-- Generator: Adobe Illustrator 26.4.0, SVG Export Plug-In . SVG Version: 6.00 Build 0)  -->
<svg version="1.1" id="Layer_1" xmlns="http://www.w3.org/2000/svg" xmlns:xlink="http://www.w3.org/1999/xlink" x="0px" y="0px"
	 viewBox="0 0 100 100" style="enable-background:new 0 0 100 100;" xml:space="preserve">
<style type="text/css">
	.st0{fill:#FFFFFF;}
	.st1{fill:none;stroke:#2F9947;stroke-width:0.75;}
	.st2{fill:none;stroke:#2F9947;stroke-width:0.75;stroke-miterlimit:10;}
</style>
<g>
	<path class="st0" d="M50,98.8C77,98.8,98.8,77,98.8,50C98.8,23,77,1.2,50,1.2C23,1.2,1.2,23,1.2,50C1.2,77,23,98.8,50,98.8"/>
	<ellipse transform="matrix(0.9848 -0.1735 0.1735 0.9848 -7.9168 9.4335)" class="st1" cx="50" cy="50" rx="48.8" ry="48.8"/>
	<path class="st2" d="M28.3,30.8c0-1.3,1-2.3,2.3-2.3s2.3,1.1,2.3,2.3c0,1.3-1,2.3-2.3,2.3S28.3,32.1,28.3,30.8z M28.7,31.8l-5,2.6
		V57 M38,86l-5.3-17.8H22.3L20.5,57h59l-2.3,11l-10.4,0.3L61.7,86 M66.8,57V43.6c0-2.7-2.1-4.8-4.7-4.8h-7.6l-2.7,4.2l4,14.1
		 M32.7,57V43.6c0-2.7,2.1-4.8,4.7-4.8H45l2.7,4.2l-4,14.1 M40.2,24.5c0-5.5,4.3-9.9,9.5-9.9c5.3,0,9.5,4.4,9.5,9.9
		c0,5.5-4.3,9.9-9.5,9.9C44.4,34.4,40.2,30,40.2,24.5z"/>
</g>
</svg>
