<?xml version="1.0" encoding="utf-8"?>
<!-- Generator: Adobe Illustrator 26.4.0, SVG Export Plug-In . SVG Version: 6.00 Build 0)  -->
<svg version="1.1" id="Layer_1" xmlns="http://www.w3.org/2000/svg" xmlns:xlink="http://www.w3.org/1999/xlink" x="0px" y="0px"
	 viewBox="0 0 100 100" style="enable-background:new 0 0 100 100;" xml:space="preserve">
<style type="text/css">
	.st0{fill:#FFFFFF;}
	.st1{fill:none;stroke:#2F9947;stroke-width:0.75;}
	.st2{fill:none;stroke:#2F9947;stroke-width:0.75;stroke-miterlimit:10;}
</style>
<g>
	<path class="st0" d="M50,99.2c27.2,0,49.2-22.1,49.2-49.2c0-27.2-22-49.3-49.2-49.3S0.8,22.8,0.8,50C0.8,77.2,22.8,99.2,50,99.2"/>
	<ellipse transform="matrix(0.982 -0.1891 0.1891 0.982 -8.5532 10.3576)" class="st1" cx="50" cy="50" rx="49.2" ry="49.3"/>
	<path class="st2" d="M45.3,39.2c0,1.8-1.5,3.3-3.4,3.3c-1.9,0-3.4-1.5-3.4-3.3c0-1.8,1.5-3.3,3.4-3.3
		C43.8,35.9,45.3,37.4,45.3,39.2z M50.6,39.5c0,4.7-8.6,13.5-8.6,13.5s-8.6-8.8-8.6-13.5c0-4.7,3.9-8.5,8.6-8.5
		C46.7,31,50.6,34.8,50.6,39.5z M58.4,55.7l6.9,6.8 M55.7,58.4l6.9,6.8 M79.7,72.4l-7.4,7.3L60.3,67.4l7.4-7.3L79.7,72.4z
		 M24.5,41.5c0-9.4,7.8-17.1,17.4-17.1c9.6,0,17.4,7.6,17.4,17.1c0,9.4-7.8,17.1-17.4,17.1C32.3,58.6,24.5,50.9,24.5,41.5z M20,41.5
		c0-11.9,9.8-21.5,22-21.5c12.1,0,22,9.6,22,21.5c0,11.9-9.8,21.5-22,21.5C29.8,63,20,53.4,20,41.5z"/>
</g>
</svg>
