<?xml version="1.0" encoding="utf-8"?>
<!-- Generator: Adobe Illustrator 26.4.1, SVG Export Plug-In . SVG Version: 6.00 Build 0)  -->
<svg version="1.1" id="Layer_1" xmlns="http://www.w3.org/2000/svg" xmlns:xlink="http://www.w3.org/1999/xlink" x="0px" y="0px"
	 viewBox="0 0 80 80" style="enable-background:new 0 0 80 80;" xml:space="preserve">
<style type="text/css">
	.st0{fill:#F89521;}
	.st1{fill:#FFFFFF;}
</style>
<g>
	<path class="st0" d="M40,79.6c21.9,0,39.6-17.7,39.6-39.6C79.6,18.1,61.9,0.4,40,0.4C18.1,0.4,0.4,18.1,0.4,40
		C0.4,61.9,18.1,79.6,40,79.6"/>
	<g>
		<path class="st1" d="M30.4,46.9c0.3,2.6,1.3,4.9,4.2,4.9c2.8,0,3.8-1.7,3.8-4.1c0-2.6-1.3-4.1-5.3-6c-5.4-2.6-7.5-4.8-7.5-9.5
			c0-5.1,3.2-8.5,8.9-8.5c7.1,0,8.8,4.8,8.9,8.9h-5.5c-0.2-1.8-0.6-4.5-3.5-4.5c-2.2,0-3.2,1.4-3.2,3.6c0,2.3,1,3.3,4.7,5
			c5.7,2.6,8.2,5.1,8.2,10.4c0,4.9-3.1,9-9.7,9c-7.2,0-9.5-4.6-9.6-9.4H30.4z"/>
		<path class="st1" d="M49.7,55.7V31.5c-0.7,0.1-2.5,0.1-3.3,0.1v-4.2c2.2-0.3,4.2-1.3,5.2-2.3h3.7v30.8H49.7z"/>
	</g>
</g>
</svg>
