<?xml version="1.0" encoding="utf-8"?>
<!-- Generator: Adobe Illustrator 26.4.1, SVG Export Plug-In . SVG Version: 6.00 Build 0)  -->
<svg version="1.1" id="Layer_1" xmlns="http://www.w3.org/2000/svg" xmlns:xlink="http://www.w3.org/1999/xlink" x="0px" y="0px"
	 viewBox="0 0 80 80" style="enable-background:new 0 0 80 80;" xml:space="preserve">
<style type="text/css">
	.st0{fill:#F89521;}
	.st1{fill:#FFFFFF;}
</style>
<g>
	<path class="st0" d="M40,79.3c21.7,0,39.3-17.6,39.3-39.3C79.3,18.3,61.7,0.7,40,0.7C18.3,0.7,0.7,18.3,0.7,40
		C0.7,61.7,18.3,79.3,40,79.3"/>
	<g>
		<path class="st1" d="M26,46.9c0.3,2.6,1.3,4.9,4.2,4.9c2.8,0,3.8-1.7,3.8-4.1c0-2.6-1.3-4.1-5.2-6c-5.4-2.5-7.5-4.8-7.5-9.4
			c0-5,3.2-8.4,8.9-8.4c7,0,8.8,4.8,8.9,8.8h-5.5c-0.2-1.8-0.6-4.4-3.5-4.4c-2.2,0-3.2,1.4-3.2,3.6c0,2.3,1,3.3,4.7,5
			c5.6,2.6,8.1,5.1,8.1,10.3c0,4.9-3,9-9.6,9c-7.2,0-9.4-4.6-9.6-9.3H26z"/>
		<path class="st1" d="M42.5,33.4c0-4,1.8-8.6,8.3-8.6c5.5,0,7.9,3.1,7.9,7.8c0,3.7-1.6,5.6-3.7,6.3v0.1c2.5,0.8,4.6,2.8,4.6,7.3
			c0,5.2-2,9.7-9,9.7c-5.8,0-8.4-3.4-8.5-8.4h5.3c0.1,2.1,0.9,4,3.3,4c2.6,0,3.3-1.9,3.3-5.2c0-3.4-1.1-4.8-4.7-4.8H48v-4.5h1.3
			c2.8,0,3.9-0.9,3.9-4.1c0-2.3-0.5-3.8-2.8-3.8c-2.4,0-2.8,2.3-2.9,4.2H42.5z"/>
	</g>
</g>
</svg>
