<?xml version="1.0" encoding="utf-8"?>
<!-- Generator: Adobe Illustrator 26.4.1, SVG Export Plug-In . SVG Version: 6.00 Build 0)  -->
<svg version="1.1" id="Layer_1" xmlns="http://www.w3.org/2000/svg" xmlns:xlink="http://www.w3.org/1999/xlink" x="0px" y="0px"
	 viewBox="0 0 80 80" style="enable-background:new 0 0 80 80;" xml:space="preserve">
<style type="text/css">
	.st0{fill:#F89521;}
	.st1{fill:#FFFFFF;}
</style>
<g>
	<path class="st0" d="M40,79.1c21.6,0,39.1-17.5,39.1-39.1C79.1,18.4,61.6,0.9,40,0.9C18.4,0.9,0.9,18.4,0.9,40
		C0.9,61.6,18.4,79.1,40,79.1"/>
	<g>
		<path class="st1" d="M25.6,46.8c0.3,2.6,1.3,4.9,4.2,4.9c2.7,0,3.8-1.7,3.8-4c0-2.6-1.3-4-5.2-5.9c-5.3-2.5-7.4-4.8-7.4-9.4
			c0-5,3.2-8.4,8.8-8.4c7,0,8.7,4.7,8.8,8.8h-5.5c-0.2-1.8-0.6-4.4-3.5-4.4c-2.2,0-3.2,1.4-3.2,3.5c0,2.2,1,3.3,4.6,5
			c5.6,2.6,8.1,5.1,8.1,10.3c0,4.9-3,8.9-9.6,8.9c-7.2,0-9.3-4.6-9.5-9.2H25.6z"/>
		<path class="st1" d="M52.2,55.5v-7.2H41.5v-4.5l8.7-18.6h7v18.6H60l-0.5,4.5h-2.3v7.2H52.2z M52.2,37.7c0-3.2,0.1-5.7,0.2-8.2
			c-1,3.2-4,10.1-5.8,14.4h5.6V37.7z"/>
	</g>
</g>
</svg>
