<?xml version="1.0" encoding="utf-8"?>
<!-- Generator: Adobe Illustrator 26.4.1, SVG Export Plug-In . SVG Version: 6.00 Build 0)  -->
<svg version="1.1" id="Layer_1" xmlns="http://www.w3.org/2000/svg" xmlns:xlink="http://www.w3.org/1999/xlink" x="0px" y="0px"
	 viewBox="0 0 80 80" style="enable-background:new 0 0 80 80;" xml:space="preserve">
<style type="text/css">
	.st0{fill:#F89521;}
	.st1{fill:#FFFFFF;}
</style>
<g>
	<path class="st0" d="M40,79.1c21.6,0,39.1-17.5,39.1-39.1C79.1,18.4,61.6,0.9,40,0.9C18.4,0.9,0.9,18.4,0.9,40
		C0.9,61.6,18.4,79.1,40,79.1"/>
	<g>
		<path class="st1" d="M25.8,46.8c0.3,2.6,1.3,4.9,4.2,4.9c2.7,0,3.8-1.7,3.8-4c0-2.6-1.3-4-5.2-5.9c-5.3-2.5-7.4-4.8-7.4-9.4
			c0-5,3.2-8.4,8.8-8.4c7,0,8.7,4.7,8.8,8.8h-5.5c-0.2-1.8-0.6-4.4-3.5-4.4c-2.2,0-3.2,1.4-3.2,3.5c0,2.2,1,3.3,4.6,5
			c5.6,2.6,8.1,5.1,8.1,10.3c0,4.9-3,8.9-9.6,8.9c-7.2,0-9.3-4.6-9.5-9.2H25.8z"/>
		<path class="st1" d="M58.1,30h-9.4c-0.1,2-0.5,5.3-0.7,6.7c0.8-0.9,2.2-1.4,4.3-1.4c5,0,7.4,3.9,7.4,9.4c0,6.2-2,11.3-9.2,11.3
			c-5.7,0-8.3-3.5-8.5-8.4h5.4c0.1,2,0.7,4,3.2,4c2.9,0,3.4-2.7,3.4-6.2c0-3.7-0.7-5.7-3.4-5.7c-2.1,0-2.8,1.4-3.3,3.1l-5-0.7
			c0.6-3.7,1.4-12.7,1.7-16.8h14.5L58.1,30z"/>
	</g>
</g>
</svg>
