<?xml version="1.0" encoding="utf-8"?>
<!-- Generator: Adobe Illustrator 26.4.0, SVG Export Plug-In . SVG Version: 6.00 Build 0)  -->
<svg version="1.1" id="Layer_1" xmlns="http://www.w3.org/2000/svg" xmlns:xlink="http://www.w3.org/1999/xlink" x="0px" y="0px"
	 viewBox="0 0 595.3 143.8" style="enable-background:new 0 0 595.3 143.8;" xml:space="preserve">
<style type="text/css">
	.st0{fill:#00ADD8;}
	.st1{fill:#FFFFFF;}
	.st2{fill:#D19E2A;}
	.st3{fill:#E91F2F;}
	.st4{fill:#EF4128;}
	.st5{fill:#2D9947;}
	.st6{fill:#C22234;}
	.st7{fill:#8F1839;}
	.st8{fill:#FBB716;}
	.st9{fill:#F36E25;}
	.st10{fill:#CB8D2A;}
	.st11{fill:none;stroke:#FFFFFF;stroke-width:0.222;stroke-miterlimit:10;}
	.st12{fill:#F99F27;}
	.st13{fill:#48783E;}
	.st14{fill:#40AD49;}
	.st15{fill:#005589;}
	.st16{fill:#1F3668;}
	.st17{fill:#E01A82;}
</style>
<g>
	<g>
		<rect x="376" y="0" class="st0" width="67.7" height="67.7"/>
		<g>
			<path class="st1" d="M422.4,27.4c-0.1-0.1-0.1-0.1-0.2-0.1h-24.6c-0.1,0-0.2,0-0.2,0.1c-0.1,0.1-0.1,0.2-0.1,0.2l4.1,25
				c0,0.1,0.1,0.2,0.3,0.2h5.1l0.3,4.1H405l5,5l5-5h-2.1l0.3-4.1h5.2c0.1,0,0.3-0.1,0.3-0.2l3.9-24.9
				C422.5,27.5,422.4,27.5,422.4,27.4 M412.9,47.4c0,0-1.1,1.1-2.9,1c-1.8,0.1-2.9-1-2.9-1c-1.8-1.8-1.2-4.1-0.5-5.3
				c0.4-0.7,3.2-5,3.5-5.3v0c0,0,0,0,0,0l0,0v0c0.2,0.4,3.1,4.6,3.5,5.3C414.1,43.2,414.7,45.5,412.9,47.4 M420.7,32.6
				c-0.7-0.3-1.5-0.2-2.3,0.1c-3,1.2-5.1,1.7-8.3,0.7c-2-0.6-3.9-2-6.1-1.1c-1.5,0.5-2.9,1-4.5,1l-1-5h23L420.7,32.6z"/>
			<path class="st1" d="M386.3,19.5c2.4,0,3.4-1.3,3.4-3.4v-2c0-2.2-0.9-3.4-2.5-3.4c-1,0-1.5,0.4-1.9,1.1h0V8.9
				c0-0.8,0.3-1.4,1.1-1.4c0.8,0,1.1,0.5,1.1,1.3v0.9h2.1V9c0-2-0.7-3.4-3.2-3.4c-2.4,0-3.3,1.5-3.3,3.7v6.6
				C383,18,383.9,19.5,386.3,19.5 M385.2,13.8c0-0.8,0.4-1.2,1.1-1.2c0.8,0,1.1,0.5,1.1,1.4v2.4c0,0.9-0.3,1.4-1.1,1.4
				c-0.8,0-1.1-0.5-1.1-1.4V13.8z"/>
			<path class="st1" d="M395.7,10.1V7.3c0-0.9,0.4-1.5,1.4-1.5c1.1,0,1.4,0.6,1.4,1.4v0.7h-0.9V7.1c0-0.4-0.1-0.6-0.5-0.6
				s-0.5,0.2-0.5,0.6v3.1c0,0.3,0.1,0.6,0.5,0.6s0.5-0.2,0.5-0.6V9.2h0.9v1c0,0.8-0.3,1.4-1.4,1.4C396.1,11.6,395.7,11,395.7,10.1"
				/>
		</g>
		<polygon class="st1" points="399,5.9 399,11.6 401.1,11.6 401.1,10.8 400,10.8 400,5.9 		"/>
		<polygon class="st1" points="401.6,5.9 401.6,11.6 403.8,11.6 403.8,10.8 402.5,10.8 402.5,9 403.5,9 403.5,8.3 402.5,8.3 
			402.5,6.6 403.8,6.6 403.8,5.9 		"/>
		<path class="st1" d="M404.2,11.6l1.1-5.7h1.1l1.1,5.7h-1l-0.2-1h-1l-0.2,1H404.2z M405.4,9.7h0.8l-0.4-2.3h0L405.4,9.7z"/>
		<polygon class="st1" points="409.8,5.9 409.8,9.1 408.8,5.9 407.9,5.9 407.9,11.6 408.7,11.6 408.7,8 409.8,11.6 410.6,11.6 
			410.6,5.9 		"/>
		<polygon class="st1" points="414.1,8 413.6,11.6 412.7,11.6 411.9,5.9 412.8,5.9 413.3,9.5 413.3,9.5 413.8,5.9 414.6,5.9 
			415.1,9.5 415.1,9.5 415.5,5.9 416.4,5.9 415.6,11.6 414.7,11.6 414.1,8 		"/>
		<path class="st1" d="M416.3,11.6l1.1-5.7h1.1l1.1,5.7h-1l-0.2-1h-1l-0.2,1H416.3z M417.5,9.7h0.8l-0.4-2.3h0L417.5,9.7z"/>
		<polygon class="st1" points="419.4,5.9 419.4,6.6 420.2,6.6 420.2,11.6 421.2,11.6 421.2,6.6 421.9,6.6 421.9,5.9 		"/>
		<polygon class="st1" points="422.4,5.9 422.4,11.6 424.7,11.6 424.7,10.8 423.3,10.8 423.3,9 424.3,9 424.3,8.3 423.3,8.3 
			423.3,6.6 424.7,6.6 424.7,5.9 		"/>
		<g>
			<path class="st1" d="M426.2,8.9v2.6h-1V5.9h1.4c1,0,1.3,0.5,1.3,1.3v0.7c0,0.6-0.2,1-0.8,1.1l0.9,2.6h-1L426.2,8.9z M426.2,6.6
				v1.8h0.3c0.3,0,0.5-0.2,0.5-0.5V7.1c0-0.3-0.1-0.5-0.5-0.5H426.2z"/>
		</g>
		<path class="st1" d="M395.6,19.5l1.1-5.7h1.1l1.1,5.7h-1l-0.2-1h-1l-0.2,1H395.6z M396.8,17.7h0.8l-0.4-2.3h0L396.8,17.7z"/>
		<polygon class="st1" points="401.2,13.8 401.2,17.1 400.1,13.8 399.2,13.8 399.2,19.5 400,19.5 400,16 401.1,19.5 402,19.5 
			402,13.8 		"/>
		<g>
			<path class="st1" d="M405.4,15.4V18c0,0.9-0.4,1.5-1.4,1.5h-1.5v-5.7h1.5C405,13.8,405.4,14.5,405.4,15.4 M403.9,18.8
				c0.4,0,0.5-0.2,0.5-0.6v-3c0-0.3-0.2-0.6-0.5-0.6h-0.4v4.1H403.9z"/>
			<path class="st1" d="M406.8,18.3v-0.8h0.9v0.8c0,0.3,0.1,0.5,0.5,0.5c0.3,0,0.4-0.2,0.4-0.5v-0.2c0-0.3-0.1-0.5-0.4-0.8l-0.6-0.6
				c-0.5-0.5-0.8-0.9-0.8-1.5V15c0-0.7,0.4-1.3,1.3-1.3c1,0,1.3,0.5,1.3,1.3v0.5h-0.9V15c0-0.3-0.2-0.5-0.5-0.5
				c-0.3,0-0.5,0.2-0.5,0.5v0.1c0,0.3,0.2,0.5,0.5,0.8l0.6,0.6c0.5,0.5,0.8,0.9,0.8,1.5v0.3c0,0.8-0.4,1.3-1.4,1.3
				C407.2,19.6,406.8,19.1,406.8,18.3"/>
		</g>
		<path class="st1" d="M409.8,19.5l1.1-5.7h1.1l1.1,5.7h-1l-0.2-1h-1l-0.2,1H409.8z M411,17.7h0.8l-0.4-2.3h0L411,17.7z"/>
		<polygon class="st1" points="415.4,13.8 415.4,17.1 414.4,13.8 413.4,13.8 413.4,19.5 414.3,19.5 414.3,16 415.4,19.5 416.2,19.5 
			416.2,13.8 		"/>
		<rect x="416.8" y="13.8" class="st1" width="1" height="5.7"/>
		<polygon class="st1" points="418.2,13.8 418.2,14.6 419,14.6 419,19.5 419.9,19.5 419.9,14.6 420.7,14.6 420.7,13.8 		"/>
		<path class="st1" d="M420.6,19.5l1.1-5.7h1.1l1.1,5.7h-1l-0.2-1h-1l-0.2,1H420.6z M421.8,17.7h0.8l-0.4-2.3h0L421.8,17.7z"/>
		<polygon class="st1" points="423.7,13.8 423.7,14.6 424.5,14.6 424.5,19.5 425.5,19.5 425.5,14.6 426.3,14.6 426.3,13.8 		"/>
		<rect x="426.7" y="13.8" class="st1" width="1" height="5.7"/>
		<g>
			<path class="st1" d="M428.2,18.1v-2.8c0-0.9,0.4-1.5,1.4-1.5c1,0,1.5,0.7,1.5,1.5v2.8c0,0.9-0.4,1.5-1.5,1.5
				C428.7,19.6,428.2,19,428.2,18.1 M430.2,18.2v-3.1c0-0.3-0.2-0.6-0.5-0.6c-0.3,0-0.5,0.2-0.5,0.6v3.1c0,0.3,0.2,0.6,0.5,0.6
				C430,18.8,430.2,18.6,430.2,18.2"/>
		</g>
		<polygon class="st1" points="433.7,13.8 433.7,17.1 432.6,13.8 431.7,13.8 431.7,19.5 432.5,19.5 432.5,16 433.6,19.5 434.5,19.5 
			434.5,13.8 		"/>
		<rect x="76.7" class="st2" width="67.7" height="67.7"/>
		<g>
			<path class="st1" d="M103.6,57.7v1c0,0,0,0,0,0c0,0,0,0,0,0c0,0.2,0.2,0.4,0.4,0.4c0,0,0,0,0,0s0,0,0,0h11.2c0,0,0,0,0,0
				c0,0,0,0,0,0c0.2,0,0.4-0.2,0.4-0.4c0,0,0,0,0,0c0,0,0,0,0,0v-1.1c6.3-2.1,11.1-7.2,12.1-13.4c0,0,0,0,0,0c0,0,0,0,0-0.1
				c0-0.2-0.2-0.5-0.5-0.5H91.9h-0.2c-0.3,0-0.5,0.2-0.5,0.5l0,0.2C92.3,50.5,97.2,55.7,103.6,57.7"/>
			<path class="st1" d="M115.8,28.3c-0.1,0.2-3.6,5.2,0.1,9.2c1.7,1.8,1.5,3.5,1.1,4.6h2.4c0.5-1.6,0.3-3.7-1.6-5.8
				c-2.7-3,0-7,0.1-7c0.3-0.5,0.1-1-0.4-1.3C116.8,27.7,116.1,27.8,115.8,28.3"/>
			<path class="st1" d="M109.8,42.1h2.4c0.5-1.6,0.3-3.7-1.6-5.8c-2.7-3,0-7,0.1-7c0.3-0.5,0.2-1-0.4-1.3c-0.5-0.3-1.2-0.1-1.6,0.3
				c-0.1,0.2-3.6,5.2,0.1,9.2C110.4,39.4,110.3,41,109.8,42.1"/>
			<path class="st1" d="M101.5,28.3c-0.2,0.2-3.6,5.2,0.1,9.2c1.7,1.8,1.5,3.5,1.1,4.6h2.4c0.5-1.6,0.3-3.7-1.6-5.8
				c-2.7-3,0-7,0.1-7c0.3-0.5,0.1-1-0.4-1.3C102.6,27.7,101.9,27.8,101.5,28.3"/>
			<path class="st1" d="M89.6,17.4h-3.8v-0.6c0-1.1,0.4-1.5,1-2.1l1.5-1.6c1.2-1.3,1.5-2.1,1.5-3.5V8.3c0-2-1-2.9-3-2.9
				c-2,0-3.1,1.1-3.1,3V10h2.1V8.3c0-0.8,0.4-1.1,0.9-1.1c0.4,0,0.8,0.2,0.8,1v1.1c0,1.1-0.1,1.6-0.8,2.4l-1.3,1.4
				c-1.3,1.3-1.7,2.2-1.7,3.6v2.5h6V17.4z"/>
		</g>
		<polygon class="st1" points="96.4,5.7 96.4,6.5 97.7,6.5 96.2,10.7 96.2,11.4 98.7,11.4 98.7,10.7 97.2,10.7 98.7,6.5 98.7,5.7 		
			"/>
		<polygon class="st1" points="99.2,5.7 99.2,11.4 101.5,11.4 101.5,10.7 100.2,10.7 100.2,8.9 101.2,8.9 101.2,8.1 100.2,8.1 
			100.2,6.5 101.5,6.5 101.5,5.7 		"/>
		<g>
			<path class="st1" d="M103,8.8v2.6h-1V5.7h1.4c1,0,1.3,0.5,1.3,1.3v0.7c0,0.6-0.2,1-0.8,1.1l0.9,2.6h-1L103,8.8z M103,6.5v1.8h0.3
				c0.3,0,0.5-0.2,0.5-0.5V7c0-0.3-0.1-0.5-0.5-0.5H103z"/>
			<path class="st1" d="M105.3,10V7.2c0-0.9,0.4-1.5,1.5-1.5c1,0,1.5,0.7,1.5,1.5V10c0,0.9-0.4,1.5-1.5,1.5
				C105.8,11.5,105.3,10.8,105.3,10 M107.3,10.1V7c0-0.3-0.2-0.6-0.5-0.6c-0.3,0-0.5,0.2-0.5,0.6v3.1c0,0.3,0.2,0.6,0.5,0.6
				C107.1,10.7,107.3,10.5,107.3,10.1"/>
		</g>
		<polygon class="st1" points="98.2,13.7 98.2,16.2 97.2,16.2 97.2,13.7 96.3,13.7 96.3,19.5 97.2,19.5 97.2,16.9 98.2,16.9 
			98.2,19.5 99.1,19.5 99.1,13.7 		"/>
		<g>
			<path class="st1" d="M102.5,13.7v4.3c0,0.9-0.4,1.5-1.4,1.5c-1,0-1.4-0.6-1.4-1.5v-4.3h1v4.4c0,0.3,0.1,0.6,0.5,0.6
				c0.3,0,0.5-0.2,0.5-0.6v-4.4H102.5z"/>
		</g>
		<polygon class="st1" points="105,13.7 105,17 104,13.7 103,13.7 103,19.5 103.8,19.5 103.8,15.9 105,19.5 105.8,19.5 105.8,13.7 
					"/>
		<g>
			<path class="st1" d="M107.8,16.4h1.4v3.1h-0.7v-0.6c-0.1,0.4-0.4,0.7-0.9,0.7c-0.8,0-1.2-0.7-1.2-1.5v-2.8c0-0.9,0.4-1.5,1.4-1.5
				c1.1,0,1.4,0.6,1.4,1.4v0.5h-0.9V15c0-0.4-0.1-0.6-0.5-0.6s-0.5,0.2-0.5,0.6v3.1c0,0.3,0.1,0.6,0.5,0.6c0.3,0,0.5-0.2,0.5-0.5v-1
				h-0.5V16.4z"/>
		</g>
		<polygon class="st1" points="109.8,13.7 109.8,19.5 112.1,19.5 112.1,18.7 110.7,18.7 110.7,16.9 111.7,16.9 111.7,16.2 
			110.7,16.2 110.7,14.5 112.1,14.5 112.1,13.7 		"/>
		<g>
			<path class="st1" d="M113.5,16.8v2.6h-1v-5.7h1.4c1,0,1.3,0.5,1.3,1.3v0.7c0,0.6-0.2,1-0.8,1.1l0.9,2.6h-1L113.5,16.8z
				 M113.5,14.5v1.8h0.3c0.3,0,0.5-0.2,0.5-0.5V15c0-0.3-0.1-0.5-0.5-0.5H113.5z"/>
		</g>
		<rect x="1.8" y="0" class="st3" width="67.7" height="67.7"/>
		<g>
			<path class="st1" d="M54.2,32.4c0-1,0.8-1.9,1.9-1.9c1,0,1.9,0.8,1.9,1.9c0,1-0.8,1.9-1.9,1.9C55,34.3,54.2,33.4,54.2,32.4"/>
			<path class="st1" d="M58.3,35c1.3,0.1,2.3,1.2,2.3,2.5v0.6v0.3v4.3c0,0.4-0.3,0.7-0.7,0.7c-0.4,0-0.7-0.3-0.7-0.7v-4.5
				c0-0.2-0.1-0.4-0.4-0.4c-0.2,0-0.3,0.2-0.3,0.4v13.5c0,0.6-0.5,1.1-1.1,1.1c-0.6,0-1.1-0.5-1.1-1.1V44c0-0.1,0-0.3-0.3-0.3h0
				c-0.3,0-0.3,0.2-0.3,0.3v7.8c0,0.6-0.5,1.1-1.1,1.1c-0.6,0-1.1-0.5-1.1-1.1V38.2c0-0.1-0.1-0.4-0.3-0.4c-0.3,0-0.4,0.2-0.4,0.4
				v4.5c0,0.4-0.3,0.7-0.7,0.7c-0.4,0-0.7-0.3-0.7-0.7v-4.3v-0.3v-0.6c0-1.3,1-2.4,2.3-2.5c0,0,0.1,0,0.1,0H56h2.1
				C58.2,35,58.2,35,58.3,35"/>
			<path class="st1" d="M42.9,33.4c0-1-0.8-1.8-1.8-1.8c-1,0-1.8,0.8-1.8,1.8c0,1,0.8,1.8,1.8,1.8C42.1,35.2,42.9,34.4,42.9,33.4"/>
			<path class="st1" d="M37.5,37.4L36,42.3c0,0-0.3,0.9,0.5,1.1c0.8,0.2,1-0.6,1-0.6l1.2-4.1c0,0,0.1-0.3,0.3-0.2
				c0.2,0.1,0.1,0.4,0.1,0.4L37,46.5H39v5.4c0,0.5,0.4,0.9,0.9,0.9c0.5,0,0.9-0.4,0.9-0.9v-5.4h0.3h0.3v5.4c0,0.5,0.4,0.9,0.9,0.9
				c0.5,0,0.9-0.4,0.9-0.9v-5.4h1.9l-2.1-7.6c0,0-0.1-0.3,0.1-0.4c0.2-0.1,0.3,0.2,0.3,0.2l1.2,4.1c0,0,0.2,0.9,1,0.6
				c0.8-0.2,0.5-1.1,0.5-1.1l-1.5-4.9c0,0-0.5-1.4-1.7-1.4h-1.9h-1.9C38,36,37.5,37.4,37.5,37.4"/>
			<path class="st1" d="M32.2,33.4c0-1-0.8-1.8-1.8-1.8c-1,0-1.8,0.8-1.8,1.8c0,1,0.8,1.8,1.8,1.8C31.3,35.2,32.2,34.4,32.2,33.4"/>
			<path class="st1" d="M26.7,37.4l-1.5,4.9c0,0-0.3,0.9,0.5,1.1c0.8,0.2,1-0.6,1-0.6l1.2-4.1c0,0,0.1-0.3,0.3-0.2
				c0.2,0.1,0.1,0.4,0.1,0.4l-2.1,7.6h1.9v5.4c0,0.5,0.4,0.9,0.9,0.9c0.5,0,0.9-0.4,0.9-0.9v-5.4h0.3h0.3v5.4c0,0.5,0.4,0.9,0.9,0.9
				c0.5,0,0.9-0.4,0.9-0.9v-5.4h1.9l-2.1-7.6c0,0-0.1-0.3,0.1-0.4c0.2-0.1,0.3,0.2,0.3,0.2l1.2,4.1c0,0,0.2,0.9,1,0.6
				c0.8-0.2,0.5-1.1,0.5-1.1L34,37.4c0,0-0.5-1.4-1.7-1.4h-1.9h-1.9C27.3,36,26.7,37.4,26.7,37.4"/>
			<path class="st1" d="M48.9,43.4c0.8,0,1.5-0.7,1.5-1.5c0-0.8-0.7-1.5-1.5-1.5c-0.8,0-1.5,0.7-1.5,1.5
				C47.4,42.8,48.1,43.4,48.9,43.4"/>
			<path class="st1" d="M45.3,48.1c-0.1,0.2-0.1,0.5,0.2,0.7c0.4,0.2,0.6-0.2,0.6-0.2L47,46c0,0,0.1-0.2,0.1,0v6.1h0
				c0,0.4,0.3,0.8,0.8,0.8c0.4,0,0.8-0.3,0.8-0.8v-2.4c0,0,0-0.3,0.2-0.3c0.3,0,0.2,0.3,0.2,0.3v2.4c0,0.4,0.3,0.8,0.8,0.8
				c0.4,0,0.8-0.3,0.8-0.8V46c0-0.2,0.1-0.1,0.1-0.1l0.6,1.8c0,0,0.3,0.8,0.4,0.8c0.3,0.1,0.6,0,0.7-0.3c0.1-0.2,0-0.4-0.1-0.5l0,0
				c0-0.1-0.9-2.3-1.1-2.7c-0.3-1-0.9-1-1.5-1c-0.6,0-0.9,0-0.9,0s-0.4,0-1.2,0c-0.8,0-1,0.4-1.9,2.6C45.7,47,45.3,48,45.3,48.1
				L45.3,48.1z"/>
			<path class="st1" d="M16.1,32.4c0-1-0.9-1.9-1.9-1.9c-1,0-1.9,0.8-1.9,1.9c0,1,0.8,1.9,1.9,1.9C15.3,34.3,16.1,33.4,16.1,32.4"/>
			<path class="st1" d="M12,35c-1.3,0.1-2.3,1.2-2.3,2.5v0.6v0.3v4.3c0,0.4,0.3,0.7,0.7,0.7c0.4,0,0.7-0.3,0.7-0.7v-4.5
				c0-0.2,0.1-0.4,0.4-0.4c0.2,0,0.3,0.2,0.3,0.4v13.5c0,0.6,0.5,1.1,1.1,1.1c0.6,0,1.1-0.5,1.1-1.1V44c0-0.1,0-0.3,0.3-0.3h0
				c0.3,0,0.3,0.2,0.3,0.3v7.8c0,0.6,0.5,1.1,1.1,1.1c0.6,0,1.1-0.5,1.1-1.1V38.2c0-0.1,0.1-0.4,0.3-0.4c0.3,0,0.4,0.2,0.4,0.4v4.5
				c0,0.4,0.3,0.7,0.7,0.7c0.4,0,0.7-0.3,0.7-0.7v-4.3v-0.3v-0.6c0-1.3-1-2.4-2.3-2.5c0,0-0.1,0-0.1,0h-2.1h-2.1
				C12.1,35,12.1,35,12,35"/>
			<path class="st1" d="M8.7,52.9C8.7,52.9,8.6,52.9,8.7,52.9c-0.3,0-0.4-0.3-0.4-0.5l1.7-8.9c0-0.2,0.3-0.4,0.5-0.3
				c0.2,0,0.4,0.3,0.3,0.5l-1.7,8.9C9.1,52.7,8.9,52.9,8.7,52.9"/>
			<path class="st1" d="M19.6,42.6c-0.1-0.2-0.3-0.3-0.5-0.3c-0.3,0-0.5,0.2-0.5,0.5c0,0.1,0.1,0.2,0.1,0.2l1.5,2.7
				c0,0,0.1,0.2,0.1,0.4v5.8h0c0,0.4,0.3,0.7,0.7,0.7c0.4,0,0.7-0.3,0.7-0.7v-2.3c0,0,0-0.3,0.2-0.3c0.3,0,0.2,0.3,0.2,0.3v2.3
				c0,0.4,0.3,0.7,0.7,0.7s0.7-0.3,0.7-0.7v-5.8c0-0.2,0.1-0.4,0.1-0.4l1.4-2.5c0,0,0.2-0.4,0.2-0.4c0-0.3-0.2-0.5-0.5-0.5
				c-0.2,0-0.4,0.1-0.5,0.3l0,0c0,0-0.7,1.3-1,1.5c-0.2,0.2-0.5,0.2-0.5,0.2H22h-0.9c0,0-0.2,0-0.5-0.2
				C20.4,43.9,19.7,42.7,19.6,42.6L19.6,42.6z"/>
			<path class="st1" d="M22,43.4c0.8,0,1.5-0.7,1.5-1.5c0-0.8-0.7-1.5-1.5-1.5c-0.8,0-1.5,0.7-1.5,1.5C20.5,42.8,21.2,43.4,22,43.4"
				/>
		</g>
		<polygon class="st1" points="22,45.5 23.7,46.7 24.5,49.7 22,49.7 19.5,49.7 20.3,46.7 		"/>
		<polygon class="st1" points="11,8.8 11,8.8 11,19.3 13.4,19.3 13.4,5.5 11.5,5.5 9.4,8 9.4,10.4 9.4,10.4 		"/>
		<polygon class="st1" points="23,5.6 23,9 22,5.6 21,5.6 21,11.4 21.9,11.4 21.9,7.8 23,11.4 23.8,11.4 23.8,5.6 		"/>
		<g>
			<path class="st1" d="M24.4,9.9V7.1c0-0.9,0.4-1.6,1.5-1.6c1,0,1.5,0.7,1.5,1.6v2.8c0,0.9-0.4,1.6-1.5,1.6
				C24.8,11.5,24.4,10.8,24.4,9.9 M26.4,10.1V7c0-0.3-0.2-0.6-0.5-0.6c-0.3,0-0.5,0.2-0.5,0.6v3.1c0,0.3,0.2,0.6,0.5,0.6
				C26.2,10.7,26.4,10.4,26.4,10.1"/>
			<path class="st1" d="M21,13.7h1.4c1,0,1.3,0.5,1.3,1.3v1.2c0,0.8-0.4,1.3-1.3,1.3H22v2h-1V13.7z M22,14.5v2.3h0.4
				c0.3,0,0.5-0.2,0.5-0.5V15c0-0.3-0.1-0.5-0.5-0.5H22z"/>
			<path class="st1" d="M24.3,18v-2.8c0-0.9,0.4-1.6,1.5-1.6c1,0,1.5,0.7,1.5,1.6V18c0,0.9-0.4,1.6-1.5,1.6
				C24.8,19.6,24.3,18.9,24.3,18 M26.3,18.2v-3.1c0-0.3-0.2-0.6-0.5-0.6c-0.3,0-0.5,0.2-0.5,0.6v3.1c0,0.3,0.2,0.6,0.5,0.6
				C26.1,18.7,26.3,18.5,26.3,18.2"/>
		</g>
		<polygon class="st1" points="30.7,13.7 29.6,19.5 28.6,19.5 27.5,13.7 28.5,13.7 29.1,17.7 29.1,17.7 29.8,13.7 		"/>
		<polygon class="st1" points="31.1,13.7 31.1,19.5 33.4,19.5 33.4,18.7 32.1,18.7 32.1,16.9 33.1,16.9 33.1,16.2 32.1,16.2 
			32.1,14.5 33.4,14.5 33.4,13.7 		"/>
		<g>
			<path class="st1" d="M34.9,16.8v2.6h-1v-5.8h1.4c1,0,1.3,0.5,1.3,1.3v0.7c0,0.6-0.2,1-0.8,1.1l0.9,2.6h-1L34.9,16.8z M34.9,14.5
				v1.8h0.3c0.3,0,0.5-0.2,0.5-0.5V15c0-0.3-0.1-0.5-0.5-0.5H34.9z"/>
		</g>
		<polygon class="st1" points="37,13.7 37,14.5 37.8,14.5 37.8,19.5 38.8,19.5 38.8,14.5 39.6,14.5 39.6,13.7 		"/>
		<polygon class="st1" points="42,17.3 42,19.5 41,19.5 41,17.3 39.9,13.7 40.9,13.7 41.5,15.9 41.5,15.9 42.1,13.7 43,13.7 		"/>
		<rect x="301.2" class="st4" width="67.7" height="67.7"/>
		<g>
			<path class="st1" d="M350.6,25.6h-8.5c-0.1,0-0.1,0-0.1,0.1v2.8c0,0.1,0.1,0.1,0.1,0.1h3.4l-3.7,3.7c-1.9-1.5-4.3-2.4-6.8-2.4
				c-6.1,0-11.1,5-11.1,11.1c0,5.6,4.2,10.3,9.6,11v3.2h-3.3c-0.1,0-0.1,0.1-0.1,0.1v3c0,0.1,0.1,0.1,0.1,0.1h3.3v3.2
				c0,0.1,0.1,0.1,0.1,0.1h3c0.1,0,0.1-0.1,0.1-0.1v-3.2h3.3c0.1,0,0.1,0,0.1-0.1v-3c0-0.1,0-0.1-0.1-0.1h-3.3V52
				c5.3-0.9,9.3-5.4,9.3-10.9c0-2.4-0.8-4.6-2-6.4l3.7-3.7v3.1c0,0.1,0.1,0.1,0.1,0.1h2.8c0.1,0,0.1,0,0.1-0.1v-8.5
				C350.7,25.6,350.7,25.6,350.6,25.6 M334.9,49.2c-4.5,0-8.2-3.7-8.2-8.2c0-4.5,3.7-8.1,8.2-8.1c4.5,0,8.2,3.7,8.2,8.1
				C343.1,45.6,339.4,49.2,334.9,49.2"/>
			<path class="st1" d="M339.9,37.7H330c-0.1,0-0.1,0-0.1,0.1v2.4c0,0.1,0,0.1,0.1,0.1h9.9c0.1,0,0.1,0,0.1-0.1v-2.4
				C340,37.8,340,37.7,339.9,37.7"/>
			<path class="st1" d="M339.9,42H330c-0.1,0-0.1,0-0.1,0.1v2.4c0,0.1,0,0.1,0.1,0.1h9.9c0.1,0,0.1,0,0.1-0.1v-2.4
				C340,42,340,42,339.9,42"/>
			<path class="st1" d="M312.3,9.9c-0.9,0-1.6,0.3-1.9,1h0V7.4h4V5.5h-6.1v7.7h2.1V13c0-0.8,0.4-1.3,1-1.3c0.7,0,1,0.5,1,1.2v3.3
				c0,0.7-0.3,1.2-1,1.2c-0.8,0-1.1-0.5-1.1-1.3v-1.7h-2.1V16c0,2.1,0.8,3.4,3.2,3.4c2.3,0,3.3-1.2,3.3-3.1v-3.4
				C314.7,10.8,313.6,9.9,312.3,9.9"/>
			<path class="st1" d="M322.7,8.5h1.4v3.1h-0.7v-0.6c-0.1,0.4-0.4,0.7-0.9,0.7c-0.8,0-1.2-0.7-1.2-1.5V7.3c0-0.9,0.4-1.5,1.4-1.5
				c1.1,0,1.4,0.6,1.4,1.4v0.5h-0.9V7.1c0-0.4-0.1-0.6-0.5-0.6s-0.5,0.2-0.5,0.6v3.1c0,0.3,0.1,0.6,0.5,0.6c0.3,0,0.5-0.2,0.5-0.5
				v-1h-0.5V8.5z"/>
		</g>
		<polygon class="st1" points="324.6,5.8 324.6,11.5 326.9,11.5 326.9,10.7 325.6,10.7 325.6,9 326.5,9 326.5,8.2 325.6,8.2 
			325.6,6.6 326.9,6.6 326.9,5.8 		"/>
		<polygon class="st1" points="329.4,5.8 329.4,9.1 328.4,5.8 327.4,5.8 327.4,11.5 328.2,11.5 328.2,7.9 329.4,11.5 330.2,11.5 
			330.2,5.8 		"/>
		<g>
			<path class="st1" d="M333.7,7.3V10c0,0.9-0.4,1.5-1.4,1.5h-1.5V5.8h1.5C333.3,5.8,333.7,6.4,333.7,7.3 M332.1,10.7
				c0.4,0,0.5-0.2,0.5-0.6v-3c0-0.3-0.2-0.6-0.5-0.6h-0.4v4.2H332.1z"/>
		</g>
		<polygon class="st1" points="334.2,5.8 334.2,11.5 336.5,11.5 336.5,10.7 335.2,10.7 335.2,9 336.1,9 336.1,8.2 335.2,8.2 
			335.2,6.6 336.5,6.6 336.5,5.8 		"/>
		<g>
			<path class="st1" d="M338,8.9v2.6h-1V5.8h1.4c1,0,1.3,0.5,1.3,1.3v0.7c0,0.6-0.2,1-0.8,1.1l0.9,2.6h-1L338,8.9z M338,6.6v1.8h0.3
				c0.3,0,0.5-0.2,0.5-0.5V7c0-0.3-0.1-0.5-0.5-0.5H338z"/>
		</g>
		<polygon class="st1" points="321.2,13.8 321.2,19.6 323.5,19.6 323.5,18.8 322.2,18.8 322.2,17 323.2,17 323.2,16.3 322.2,16.3 
			322.2,14.6 323.5,14.6 323.5,13.8 		"/>
		<g>
			<path class="st1" d="M325.1,20v-0.4c-0.8-0.1-1.1-0.7-1.1-1.5v-2.8c0-0.9,0.4-1.5,1.5-1.5c1,0,1.5,0.7,1.5,1.5v2.8
				c0,0.6-0.2,1.1-0.7,1.4l0.7,0.1v0.7L325.1,20z M325.9,18.3v-3.1c0-0.3-0.2-0.6-0.5-0.6c-0.3,0-0.5,0.2-0.5,0.6v3.1
				c0,0.3,0.2,0.6,0.5,0.6C325.8,18.9,325.9,18.6,325.9,18.3"/>
			<path class="st1" d="M330.2,13.8v4.3c0,0.9-0.4,1.5-1.4,1.5c-1,0-1.4-0.6-1.4-1.5v-4.3h1v4.4c0,0.3,0.1,0.6,0.5,0.6
				c0.3,0,0.5-0.2,0.5-0.6v-4.4H330.2z"/>
		</g>
		<path class="st1" d="M330.5,19.6l1.1-5.7h1.1l1.1,5.7h-1l-0.2-1h-1l-0.2,1H330.5z M331.7,17.7h0.8l-0.4-2.3h0L331.7,17.7z"/>
		<polygon class="st1" points="334.2,13.8 334.2,19.6 336.3,19.6 336.3,18.8 335.1,18.8 335.1,13.8 		"/>
		<rect x="336.7" y="13.8" class="st1" width="1" height="5.7"/>
		<polygon class="st1" points="338.1,13.8 338.1,14.6 338.9,14.6 338.9,19.6 339.9,19.6 339.9,14.6 340.7,14.6 340.7,13.8 		"/>
		<polygon class="st1" points="343,17.4 343,19.6 342.1,19.6 342.1,17.4 341,13.8 342,13.8 342.6,16 342.6,16 343.2,13.8 
			344.1,13.8 		"/>
		<rect x="151.5" class="st5" width="67.7" height="67.7"/>
		<g>
			<path class="st1" d="M208.2,42.4c0-1.9-1.2-3.5-3.1-3.5c-0.9,0-2.1,1-2.7,1.6c-0.6-0.6-1.7-1.6-2.6-1.6c-1.9,0-3.2,1.6-3.2,3.5
				c0,1,0.4,1.8,1,2.4l4.8,4.8l4.8-4.8l0,0C207.8,44.2,208.2,43.3,208.2,42.4"/>
			<path class="st1" d="M187.9,57.4C187.9,57.4,187.9,57.4,187.9,57.4c-0.4,0-0.7-0.3-0.8-0.6l-2.4-14.1l-3.7,6.8
				c-0.2,0.3-0.5,0.5-0.8,0.4c-0.3-0.1-0.6-0.3-0.6-0.7L178,38.3l-2.9,6.4c-0.1,0.3-0.4,0.5-0.7,0.5h-11.1c-0.4,0-0.8-0.4-0.8-0.8
				s0.3-0.8,0.8-0.8H174l3.7-8.4c0.1-0.3,0.5-0.5,0.8-0.5c0.3,0,0.6,0.3,0.7,0.7l1.6,11.2l3.6-6.7c0.2-0.3,0.5-0.5,0.8-0.4
				c0.3,0.1,0.6,0.3,0.6,0.6l2.2,13.1l8.2-27.2c0.1-0.3,0.4-0.5,0.7-0.6c0.3,0,0.6,0.1,0.8,0.4l4.3,8.9c0.2,0.4,0,0.9-0.4,1
				c-0.4,0.2-0.9,0-1-0.4l-3.4-7.1l-8.6,28.4C188.6,57.2,188.3,57.4,187.9,57.4"/>
			<path class="st1" d="M161.7,19.4c2.3,0,3.3-1.2,3.3-3.1v-2c0-1.3-0.5-2.1-1.7-2.3c1-0.3,1.6-1.1,1.6-2.2V8.5
				c0-1.9-0.9-3.1-3.1-3.1c-2.4,0-3.2,1.4-3.2,3.4v1.2h2.1V8.7c0-0.9,0.3-1.3,1-1.3s1,0.5,1,1.2V10c0,0.7-0.5,1.1-1.2,1.1h-0.9v1.8
				h1c0.8,0,1.1,0.4,1.1,1.1v2.3c0,0.7-0.3,1.2-1,1.2c-0.8,0-1.1-0.5-1.1-1.3v-2h-2.1V16C158.5,18.1,159.3,19.4,161.7,19.4"/>
			<path class="st1" d="M173,8.4h1.4v3.1h-0.7v-0.6c-0.1,0.4-0.4,0.7-0.9,0.7c-0.8,0-1.2-0.7-1.2-1.5V7.2c0-0.9,0.4-1.5,1.4-1.5
				c1.1,0,1.4,0.6,1.4,1.4v0.5h-0.9V7c0-0.4-0.1-0.6-0.5-0.6s-0.5,0.2-0.5,0.6v3.1c0,0.3,0.1,0.6,0.5,0.6c0.3,0,0.5-0.2,0.5-0.5v-1
				H173V8.4z"/>
			<path class="st1" d="M174.9,10V7.2c0-0.9,0.4-1.5,1.5-1.5c1,0,1.5,0.7,1.5,1.5V10c0,0.9-0.4,1.5-1.5,1.5
				C175.4,11.5,174.9,10.8,174.9,10 M176.9,10.1V7c0-0.3-0.2-0.6-0.5-0.6c-0.3,0-0.5,0.2-0.5,0.6v3.1c0,0.3,0.2,0.6,0.5,0.6
				C176.7,10.7,176.9,10.5,176.9,10.1"/>
			<path class="st1" d="M178.4,10V7.2c0-0.9,0.4-1.5,1.5-1.5c1,0,1.5,0.7,1.5,1.5V10c0,0.9-0.4,1.5-1.5,1.5
				C178.8,11.5,178.4,10.8,178.4,10 M180.3,10.1V7c0-0.3-0.2-0.6-0.5-0.6c-0.3,0-0.5,0.2-0.5,0.6v3.1c0,0.3,0.2,0.6,0.5,0.6
				C180.2,10.7,180.3,10.5,180.3,10.1"/>
			<path class="st1" d="M184.7,7.2v2.7c0,0.9-0.4,1.5-1.4,1.5h-1.5V5.7h1.5C184.4,5.7,184.7,6.4,184.7,7.2 M183.2,10.7
				c0.4,0,0.5-0.2,0.5-0.6v-3c0-0.3-0.2-0.6-0.5-0.6h-0.4v4.2H183.2z"/>
		</g>
		<polygon class="st1" points="188.6,5.7 188.6,8.1 187.7,8.1 187.7,5.7 186.7,5.7 186.7,11.4 187.7,11.4 187.7,8.9 188.6,8.9 
			188.6,11.4 189.6,11.4 189.6,5.7 		"/>
		<polygon class="st1" points="190.1,5.7 190.1,11.4 192.4,11.4 192.4,10.7 191.1,10.7 191.1,8.9 192.1,8.9 192.1,8.1 191.1,8.1 
			191.1,6.5 192.4,6.5 192.4,5.7 		"/>
		<path class="st1" d="M192.8,11.4l1.1-5.7h1.1l1.1,5.7h-1l-0.2-1h-1l-0.2,1H192.8z M194,9.6h0.8l-0.4-2.3h0L194,9.6z"/>
		<polygon class="st1" points="196.5,5.7 196.5,11.4 198.6,11.4 198.6,10.7 197.4,10.7 197.4,5.7 		"/>
		<polygon class="st1" points="198.4,5.7 198.4,6.5 199.2,6.5 199.2,11.4 200.1,11.4 200.1,6.5 200.9,6.5 200.9,5.7 		"/>
		<polygon class="st1" points="203.3,5.7 203.3,8.1 202.3,8.1 202.3,5.7 201.4,5.7 201.4,11.4 202.3,11.4 202.3,8.9 203.3,8.9 
			203.3,11.4 204.2,11.4 204.2,5.7 		"/>
		<path class="st1" d="M171.4,19.5l1.1-5.7h1.1l1.1,5.7h-1l-0.2-1h-1l-0.2,1H171.4z M172.6,17.7h0.8l-0.4-2.3h0L172.6,17.7z"/>
		<polygon class="st1" points="177,13.7 177,17 176,13.7 175.1,13.7 175.1,19.5 175.9,19.5 175.9,15.9 177,19.5 177.8,19.5 
			177.8,13.7 		"/>
		<g>
			<path class="st1" d="M181.3,15.3v2.7c0,0.9-0.4,1.5-1.4,1.5h-1.5v-5.7h1.5C180.9,13.7,181.3,14.4,181.3,15.3 M179.8,18.7
				c0.4,0,0.5-0.2,0.5-0.6v-3c0-0.3-0.2-0.6-0.5-0.6h-0.4v4.2H179.8z"/>
		</g>
		<polygon class="st1" points="185.4,15.9 184.8,19.5 183.9,19.5 183.1,13.7 184.1,13.7 184.5,17.4 184.5,17.4 185,13.7 185.8,13.7 
			186.3,17.4 186.3,17.4 186.8,13.7 187.6,13.7 186.8,19.5 185.9,19.5 185.4,15.9 		"/>
		<polygon class="st1" points="188,13.7 188,19.5 190.3,19.5 190.3,18.7 189,18.7 189,16.9 189.9,16.9 189.9,16.2 189,16.2 
			189,14.5 190.3,14.5 190.3,13.7 		"/>
		<polygon class="st1" points="190.8,13.7 190.8,19.5 192.9,19.5 192.9,18.7 191.8,18.7 191.8,13.7 		"/>
		<polygon class="st1" points="193.4,13.7 193.4,19.5 195.5,19.5 195.5,18.7 194.3,18.7 194.3,13.7 		"/>
		<rect x="195.4" y="16.4" class="st1" width="1.4" height="0.8"/>
		<g>
			<path class="st1" d="M197.2,13.7h1.4c1,0,1.3,0.4,1.3,1.3v0.6c0,0.5-0.2,0.8-0.6,0.9c0.5,0.1,0.7,0.4,0.7,1v0.8
				c0,0.8-0.4,1.3-1.3,1.3h-1.5V13.7z M198.2,16.2h0.3c0.3,0,0.5-0.2,0.5-0.5V15c0-0.3-0.1-0.5-0.5-0.5h-0.3V16.2z M198.2,16.9v1.8
				h0.4c0.3,0,0.5-0.2,0.5-0.5v-0.9c0-0.3-0.1-0.5-0.5-0.5H198.2z"/>
		</g>
		<polygon class="st1" points="200.5,13.7 200.5,19.5 202.8,19.5 202.8,18.7 201.5,18.7 201.5,16.9 202.4,16.9 202.4,16.2 
			201.5,16.2 201.5,14.5 202.8,14.5 202.8,13.7 		"/>
		<rect x="203.3" y="13.7" class="st1" width="1" height="5.7"/>
		<polygon class="st1" points="206.8,13.7 206.8,17 205.8,13.7 204.8,13.7 204.8,19.5 205.7,19.5 205.7,15.9 206.8,19.5 207.6,19.5 
			207.6,13.7 		"/>
		<g>
			<path class="st1" d="M209.6,16.4h1.4v3.1h-0.7v-0.6c-0.1,0.4-0.4,0.7-0.9,0.7c-0.8,0-1.2-0.7-1.2-1.5v-2.8c0-0.9,0.4-1.5,1.4-1.5
				c1.1,0,1.4,0.6,1.4,1.4v0.5h-0.9V15c0-0.4-0.1-0.6-0.5-0.6c-0.3,0-0.5,0.2-0.5,0.6v3.1c0,0.3,0.1,0.6,0.5,0.6
				c0.3,0,0.5-0.2,0.5-0.5v-1h-0.5V16.4z"/>
		</g>
		<rect x="226.4" class="st6" width="67.7" height="67.7"/>
		<polygon class="st1" points="256.4,36.3 244.2,29.3 244.2,52.1 256.4,55.7 		"/>
		<polygon class="st1" points="257.7,36.4 257.7,55.8 270,52.1 270,29.3 		"/>
		<polygon class="st1" points="279.2,31.4 278.8,31.4 278.5,31.4 277.8,31.4 277.4,31.4 277,31.4 276.7,31.4 276.7,51.7 277,51.7 
			276.7,51.7 278.1,56.7 279.6,51.7 279.2,51.7 279.6,51.7 279.6,31.4 		"/>
		<polygon class="st1" points="272.6,30.3 271.3,29.2 271.3,52.7 257.7,57.1 257.1,57.1 257,57.1 256.4,57.1 242.9,53.3 242.9,29.2 
			241.6,30.3 241.6,54.2 256.3,58.3 257,58.3 257.1,58.3 257.8,58.3 271.4,54 272.6,53.6 		"/>
		<g>
			<path class="st1" d="M279.6,28.7c0-0.8-0.6-1.4-1.4-1.4c-0.8,0-1.4,0.6-1.4,1.4v1.6h2.9V28.7z"/>
		</g>
		<path class="st1" d="M236.9,19.3h2.2V17h0.9v-1.8H239V5.5h-2.3l-4,10.1V17h4.1V19.3z M234.8,15.2l2.1-5.6h0v5.6H234.8z"/>
		<g>
			<path class="st1" d="M247.3,11.8v-0.4c-0.8-0.1-1.1-0.7-1.1-1.5V7.2c0-0.9,0.4-1.5,1.5-1.5c1,0,1.5,0.7,1.5,1.5V10
				c0,0.6-0.2,1.1-0.7,1.4l0.7,0.1v0.7L247.3,11.8z M248.2,10.2V7c0-0.3-0.2-0.6-0.5-0.6c-0.3,0-0.5,0.2-0.5,0.6v3.1
				c0,0.3,0.2,0.6,0.5,0.6C248,10.8,248.2,10.5,248.2,10.2"/>
			<path class="st1" d="M252.5,5.7V10c0,0.9-0.4,1.5-1.4,1.5c-1,0-1.4-0.6-1.4-1.5V5.7h1v4.4c0,0.3,0.1,0.6,0.5,0.6
				c0.3,0,0.5-0.2,0.5-0.6V5.7H252.5z"/>
		</g>
		<path class="st1" d="M252.8,11.4l1.1-5.7h1.1l1.1,5.7h-1l-0.2-1h-1l-0.2,1H252.8z M254,9.6h0.8l-0.4-2.3h0L254,9.6z"/>
		<polygon class="st1" points="256.4,5.7 256.4,11.4 258.6,11.4 258.6,10.7 257.4,10.7 257.4,5.7 		"/>
		<rect x="259" y="5.7" class="st1" width="1" height="5.7"/>
		<polygon class="st1" points="260.4,5.7 260.4,6.5 261.2,6.5 261.2,11.4 262.2,11.4 262.2,6.5 263,6.5 263,5.7 		"/>
		<polygon class="st1" points="265.3,9.3 265.3,11.4 264.3,11.4 264.3,9.3 263.3,5.7 264.3,5.7 264.9,7.9 264.9,7.9 265.4,5.7 
			266.4,5.7 		"/>
		<polygon class="st1" points="246.2,13.7 246.2,19.5 248.5,19.5 248.5,18.7 247.2,18.7 247.2,16.9 248.2,16.9 248.2,16.2 
			247.2,16.2 247.2,14.5 248.5,14.5 248.5,13.7 		"/>
		<g>
			<path class="st1" d="M251.9,15.3v2.7c0,0.9-0.4,1.5-1.4,1.5h-1.5v-5.7h1.5C251.6,13.7,251.9,14.4,251.9,15.3 M250.4,18.7
				c0.4,0,0.5-0.2,0.5-0.6v-3c0-0.3-0.2-0.6-0.5-0.6H250v4.2H250.4z"/>
			<path class="st1" d="M255.3,13.7v4.3c0,0.9-0.4,1.5-1.4,1.5c-1,0-1.4-0.6-1.4-1.5v-4.3h1v4.4c0,0.3,0.1,0.6,0.5,0.6
				c0.3,0,0.5-0.2,0.5-0.6v-4.4H255.3z"/>
			<path class="st1" d="M255.8,18v-2.8c0-0.9,0.4-1.5,1.4-1.5c1.1,0,1.4,0.6,1.4,1.4v0.7h-0.9V15c0-0.4-0.1-0.6-0.5-0.6
				c-0.3,0-0.5,0.2-0.5,0.6v3.1c0,0.3,0.1,0.6,0.5,0.6c0.3,0,0.5-0.2,0.5-0.6v-1.1h0.9v1c0,0.8-0.3,1.4-1.4,1.4
				C256.3,19.5,255.8,18.9,255.8,18"/>
		</g>
		<path class="st1" d="M258.9,19.5l1.1-5.7h1.1l1.1,5.7h-1l-0.2-1h-1l-0.2,1H258.9z M260.1,17.7h0.8l-0.4-2.3h0L260.1,17.7z"/>
		<polygon class="st1" points="262.1,13.7 262.1,14.5 262.9,14.5 262.9,19.5 263.8,19.5 263.8,14.5 264.6,14.5 264.6,13.7 		"/>
		<rect x="265.1" y="13.7" class="st1" width="1" height="5.7"/>
		<g>
			<path class="st1" d="M266.6,18v-2.8c0-0.9,0.4-1.5,1.5-1.5c1,0,1.5,0.7,1.5,1.5V18c0,0.9-0.4,1.5-1.5,1.5
				C267,19.5,266.6,18.9,266.6,18 M268.5,18.1v-3.1c0-0.3-0.2-0.6-0.5-0.6c-0.3,0-0.5,0.2-0.5,0.6v3.1c0,0.3,0.2,0.6,0.5,0.6
				C268.4,18.7,268.5,18.5,268.5,18.1"/>
		</g>
		<polygon class="st1" points="272,13.7 272,17 271,13.7 270.1,13.7 270.1,19.5 270.9,19.5 270.9,15.9 272,19.5 272.9,19.5 
			272.9,13.7 		"/>
		<rect x="525.7" y="0" class="st7" width="67.7" height="67.7"/>
		<g>
			<path class="st1" d="M572.5,33.3l-6.9,6.6c-0.3,0.3-0.4,0.5-0.4,1v18.4c0,0.2,0.2,0.4,0.4,0.4h7.1c0.2,0,0.4-0.2,0.4-0.4V33.5
				C573.1,33.3,573,32.9,572.5,33.3"/>
			<path class="st1" d="M552.6,41.9l-6.9,6.6c-0.3,0.3-0.4,0.4-0.4,1v9.9c0,0.2,0.2,0.4,0.4,0.4h7.1c0.2,0,0.4-0.2,0.4-0.4V42.1
				C553.2,41.8,553,41.4,552.6,41.9"/>
			<path class="st1" d="M575.7,25.3c0-0.1,0-0.1-0.1-0.2c0,0-0.1-0.1-0.1-0.1l0,0l-0.1,0l-5.3,1.2l-0.1,0c0,0-0.1,0-0.1,0.1
				c-0.1,0.1-0.1,0.2,0,0.3l0.1,0.1l1.2,1.2l-12,12l-5.5-5.5c-0.1-0.1-0.2-0.1-0.2,0l-1.5,1.5l-8.9,8.9c-0.1,0.1-0.1,0.2,0,0.2
				l1.5,1.5c0.1,0.1,0.2,0.1,0.2,0l8.8-8.8l4,4c0,0,0,0,0,0l1.5,1.5c0.1,0.1,0.2,0.1,0.2,0l13.6-13.6l1.3,1.3c0.1,0.1,0.2,0.1,0.3,0
				c0,0,0.1-0.1,0.1-0.1v0L575.7,25.3L575.7,25.3z"/>
			<path class="st1" d="M562.6,43l-3.3,3.4c-0.1,0.1-0.2,0.1-0.2,0l-3-3.1c-0.6-0.6-0.7-0.1-0.7,0.1v15.9c0,0.2,0.2,0.4,0.4,0.4h7.1
				c0.2,0,0.4-0.2,0.4-0.4V43.2C563.3,43,563.1,42.6,562.6,43"/>
			<path class="st1" d="M538.8,15.9v-1.5c0-1.3-0.5-2.3-1.5-2.8c0.9-0.4,1.3-1.3,1.3-2.4V8.7c0-2.1-1.1-3.3-3.2-3.3
				c-2.1,0-3.2,1.2-3.2,3.3v0.6c0,1.1,0.4,1.9,1.3,2.4c-1.1,0.5-1.5,1.4-1.5,2.8v1.5c0,2.1,1,3.5,3.4,3.5
				C537.8,19.5,538.8,18,538.8,15.9 M534.3,8.6c0-0.8,0.3-1.3,1-1.3c0.8,0,1.1,0.5,1.1,1.3v0.9c0,0.8-0.3,1.3-1.1,1.3
				c-0.8,0-1-0.5-1-1.3V8.6z M536.5,16.2c0,0.8-0.3,1.4-1.1,1.4c-0.8,0-1.1-0.6-1.1-1.4v-2.2c0-0.8,0.3-1.4,1.1-1.4
				c0.8,0,1.1,0.6,1.1,1.4V16.2z"/>
			<path class="st1" d="M546.6,7.1v2.7c0,0.9-0.4,1.5-1.4,1.5h-1.5V5.6h1.5C546.3,5.6,546.6,6.2,546.6,7.1 M545.1,10.5
				c0.4,0,0.5-0.2,0.5-0.6v-3c0-0.3-0.2-0.6-0.5-0.6h-0.4v4.2H545.1z"/>
		</g>
		<polygon class="st1" points="547.2,5.6 547.2,11.3 549.5,11.3 549.5,10.5 548.1,10.5 548.1,8.8 549.1,8.8 549.1,8 548.1,8 
			548.1,6.4 549.5,6.4 549.5,5.6 		"/>
		<g>
			<path class="st1" d="M549.9,9.8V7c0-0.9,0.4-1.5,1.4-1.5c1.1,0,1.4,0.6,1.4,1.4v0.7h-0.9V6.9c0-0.4-0.1-0.6-0.5-0.6
				c-0.3,0-0.5,0.2-0.5,0.6V10c0,0.3,0.1,0.6,0.5,0.6c0.3,0,0.5-0.2,0.5-0.6V8.9h0.9v1c0,0.8-0.3,1.4-1.4,1.4
				C550.3,11.4,549.9,10.7,549.9,9.8"/>
		</g>
		<polygon class="st1" points="553.2,5.6 553.2,11.3 555.5,11.3 555.5,10.5 554.2,10.5 554.2,8.8 555.2,8.8 555.2,8 554.2,8 
			554.2,6.4 555.5,6.4 555.5,5.6 		"/>
		<polygon class="st1" points="558,5.6 558,8.9 557,5.6 556.1,5.6 556.1,11.3 556.9,11.3 556.9,7.7 558,11.3 558.8,11.3 558.8,5.6 
					"/>
		<polygon class="st1" points="559.3,5.6 559.3,6.4 560.1,6.4 560.1,11.3 561,11.3 561,6.4 561.8,6.4 561.8,5.6 		"/>
		<polygon class="st1" points="565.8,7.8 565.3,11.3 564.4,11.3 563.6,5.6 564.5,5.6 565,9.2 565,9.2 565.5,5.6 566.3,5.6 
			566.8,9.2 566.8,9.2 567.2,5.6 568.1,5.6 567.3,11.3 566.4,11.3 565.8,7.8 		"/>
		<g>
			<path class="st1" d="M568.4,9.8V7c0-0.9,0.4-1.5,1.5-1.5c1,0,1.5,0.7,1.5,1.5v2.8c0,0.9-0.4,1.5-1.5,1.5
				C568.8,11.4,568.4,10.7,568.4,9.8 M570.3,10V6.9c0-0.3-0.2-0.6-0.5-0.6c-0.3,0-0.5,0.2-0.5,0.6V10c0,0.3,0.2,0.6,0.5,0.6
				C570.2,10.6,570.3,10.3,570.3,10"/>
			<path class="st1" d="M572.8,8.7v2.6h-1V5.6h1.4c1,0,1.3,0.5,1.3,1.3v0.7c0,0.6-0.2,1-0.8,1.1l0.9,2.6h-1L572.8,8.7z M572.8,6.4
				v1.8h0.3c0.3,0,0.5-0.2,0.5-0.5V6.8c0-0.3-0.1-0.5-0.5-0.5H572.8z"/>
		</g>
		<polygon class="st1" points="576.1,8.5 576.1,11.3 575.1,11.3 575.1,5.6 576.1,5.6 576.1,8.1 577.1,5.6 578.1,5.6 576.9,8.1 
			578.1,11.3 577.1,11.3 		"/>
		<path class="st1" d="M579.8,11.3l1.1-5.7h1.1l1.1,5.7h-1l-0.2-1h-1l-0.2,1H579.8z M581,9.5h0.8l-0.4-2.3h0L581,9.5z"/>
		<polygon class="st1" points="585.4,5.6 585.4,8.9 584.4,5.6 583.4,5.6 583.4,11.3 584.2,11.3 584.2,7.7 585.4,11.3 586.2,11.3 
			586.2,5.6 		"/>
		<g>
			<path class="st1" d="M589.6,7.1v2.7c0,0.9-0.4,1.5-1.4,1.5h-1.5V5.6h1.5C589.3,5.6,589.6,6.2,589.6,7.1 M588.1,10.5
				c0.4,0,0.5-0.2,0.5-0.6v-3c0-0.3-0.2-0.6-0.5-0.6h-0.4v4.2H588.1z"/>
		</g>
		<polygon class="st1" points="543.7,13.6 543.7,19.3 546,19.3 546,18.5 544.7,18.5 544.7,16.8 545.7,16.8 545.7,16 544.7,16 
			544.7,14.4 546,14.4 546,13.6 		"/>
		<g>
			<path class="st1" d="M546.5,17.8v-2.8c0-0.9,0.4-1.5,1.4-1.5c1.1,0,1.4,0.6,1.4,1.4v0.7h-0.9v-0.8c0-0.4-0.1-0.6-0.5-0.6
				c-0.3,0-0.5,0.2-0.5,0.6V18c0,0.3,0.1,0.6,0.5,0.6c0.3,0,0.5-0.2,0.5-0.6V17h0.9v1c0,0.8-0.3,1.4-1.4,1.4
				C546.9,19.4,546.5,18.7,546.5,17.8"/>
			<path class="st1" d="M549.8,17.8v-2.8c0-0.9,0.4-1.5,1.5-1.5c1,0,1.5,0.7,1.5,1.5v2.8c0,0.9-0.4,1.5-1.5,1.5
				C550.2,19.4,549.8,18.7,549.8,17.8 M551.8,18v-3.1c0-0.3-0.2-0.6-0.5-0.6c-0.3,0-0.5,0.2-0.5,0.6V18c0,0.3,0.2,0.6,0.5,0.6
				C551.6,18.6,551.8,18.3,551.8,18"/>
		</g>
		<polygon class="st1" points="555.3,13.6 555.3,16.9 554.2,13.6 553.3,13.6 553.3,19.3 554.1,19.3 554.1,15.7 555.2,19.3 
			556.1,19.3 556.1,13.6 		"/>
		<g>
			<path class="st1" d="M556.6,17.8v-2.8c0-0.9,0.4-1.5,1.5-1.5c1,0,1.5,0.7,1.5,1.5v2.8c0,0.9-0.4,1.5-1.5,1.5
				C557,19.4,556.6,18.7,556.6,17.8 M558.6,18v-3.1c0-0.3-0.2-0.6-0.5-0.6c-0.3,0-0.5,0.2-0.5,0.6V18c0,0.3,0.2,0.6,0.5,0.6
				C558.4,18.6,558.6,18.3,558.6,18"/>
		</g>
		<polygon class="st1" points="562.7,15.6 562.7,15.6 562.1,19.3 561.6,19.3 560.9,15.6 560.9,15.6 560.9,19.3 560.1,19.3 
			560.1,13.6 561.2,13.6 561.8,16.8 561.8,16.8 562.4,13.6 563.6,13.6 563.6,19.3 562.7,19.3 		"/>
		<rect x="564.2" y="13.6" class="st1" width="1" height="5.7"/>
		<g>
			<path class="st1" d="M565.7,17.8v-2.8c0-0.9,0.4-1.5,1.4-1.5c1.1,0,1.4,0.6,1.4,1.4v0.7h-0.9v-0.8c0-0.4-0.1-0.6-0.5-0.6
				c-0.3,0-0.5,0.2-0.5,0.6V18c0,0.3,0.1,0.6,0.5,0.6c0.3,0,0.5-0.2,0.5-0.6V17h0.9v1c0,0.8-0.3,1.4-1.4,1.4
				C566.1,19.4,565.7,18.7,565.7,17.8"/>
			<path class="st1" d="M571.9,16.3h1.4v3.1h-0.7v-0.6c-0.1,0.4-0.4,0.7-0.9,0.7c-0.8,0-1.2-0.7-1.2-1.5v-2.8c0-0.9,0.4-1.5,1.4-1.5
				c1.1,0,1.4,0.6,1.4,1.4v0.5h-0.9v-0.6c0-0.4-0.1-0.6-0.5-0.6c-0.3,0-0.5,0.2-0.5,0.6V18c0,0.3,0.1,0.6,0.5,0.6
				c0.3,0,0.5-0.2,0.5-0.5v-1h-0.5V16.3z"/>
			<path class="st1" d="M574.8,16.7v2.6h-1v-5.7h1.4c1,0,1.3,0.5,1.3,1.3v0.7c0,0.6-0.2,1-0.8,1.1l0.9,2.6h-1L574.8,16.7z
				 M574.8,14.4v1.8h0.3c0.3,0,0.5-0.2,0.5-0.5v-0.8c0-0.3-0.1-0.5-0.5-0.5H574.8z"/>
			<path class="st1" d="M577.1,17.8v-2.8c0-0.9,0.4-1.5,1.5-1.5c1,0,1.5,0.7,1.5,1.5v2.8c0,0.9-0.4,1.5-1.5,1.5
				C577.5,19.4,577.1,18.7,577.1,17.8 M579,18v-3.1c0-0.3-0.2-0.6-0.5-0.6c-0.3,0-0.5,0.2-0.5,0.6V18c0,0.3,0.2,0.6,0.5,0.6
				C578.9,18.6,579,18.3,579,18"/>
		</g>
		<polygon class="st1" points="582.5,15.8 582,19.3 581.1,19.3 580.3,13.6 581.3,13.6 581.7,17.2 581.7,17.2 582.2,13.6 583,13.6 
			583.5,17.2 583.5,17.2 584,13.6 584.8,13.6 584,19.3 583.1,19.3 582.6,15.8 		"/>
		<polygon class="st1" points="585.1,13.6 585.1,14.4 585.9,14.4 585.9,19.3 586.8,19.3 586.8,14.4 587.6,14.4 587.6,13.6 		"/>
		<polygon class="st1" points="590,13.6 590,16 589.1,16 589.1,13.6 588.1,13.6 588.1,19.3 589.1,19.3 589.1,16.8 590,16.8 
			590,19.3 591,19.3 591,13.6 		"/>
		<rect x="450.9" y="0" class="st8" width="67.7" height="67.7"/>
		<g>
			<path class="st1" d="M484.8,32.8c-5.5,0-10,4.5-10,10c0,5.5,4.5,10,10,10c5.5,0,10-4.5,10-10C494.8,37.3,490.3,32.8,484.8,32.8
				 M484,36.7c0-0.3,0.3-0.7,0.7-0.7s0.7,0.4,0.7,0.7v3.4c0,0.3-0.3,0.7-0.7,0.7s-0.7-0.4-0.7-0.7V36.7z M484.8,47.9
				c-2.9,0-5.2-2.3-5.2-5.2c0-2.3,1.5-4.3,3.6-5v1.9c-1.1,0.6-1.9,1.7-1.9,3c0,1.9,1.5,3.4,3.4,3.4c1.9,0,3.4-1.5,3.4-3.4
				c0-1.3-0.8-2.5-1.9-3v-1.9c2.1,0.7,3.7,2.6,3.7,5C490,45.6,487.7,47.9,484.8,47.9"/>
			<path class="st1" d="M473.3,42.7c0-0.5-0.4-0.8-0.8-0.8h-4.4c-0.4,0-0.8,0.4-0.8,0.8c0,0.5,0.4,0.8,0.8,0.8h4.4
				C472.9,43.5,473.3,43.1,473.3,42.7"/>
			<path class="st1" d="M502.1,42.7c0-0.5-0.4-0.8-0.8-0.8H497c-0.4,0-0.8,0.4-0.8,0.8c0,0.5,0.4,0.8,0.8,0.8h4.4
				C501.7,43.5,502.1,43.1,502.1,42.7"/>
			<path class="st1" d="M484.8,60c0.5,0,0.8-0.4,0.8-0.8v-4.4c0-0.4-0.4-0.8-0.8-0.8c-0.5,0-0.8,0.4-0.8,0.8v4.4
				C484,59.6,484.3,60,484.8,60"/>
			<path class="st1" d="M499.8,51.3c0.2-0.4,0.1-0.9-0.3-1.1l-3.8-2.2c-0.3-0.2-0.9-0.1-1.1,0.3c-0.2,0.4-0.1,0.9,0.3,1.1l3.8,2.2
				C499.1,51.8,499.6,51.7,499.8,51.3"/>
			<path class="st1" d="M476.2,57.8c0.4,0.2,0.9,0.1,1.1-0.3l2.2-3.8c0.2-0.3,0.1-0.9-0.3-1.1c-0.4-0.2-0.9-0.1-1.1,0.3l-2.2,3.8
				C475.7,57,475.8,57.5,476.2,57.8"/>
			<path class="st1" d="M493.4,57.7c0.4-0.2,0.5-0.8,0.3-1.1l-2.2-3.8c-0.2-0.3-0.7-0.5-1.1-0.3c-0.4,0.2-0.5,0.8-0.3,1.1l2.2,3.8
				C492.5,57.8,493,58,493.4,57.7"/>
			<path class="st1" d="M469.7,51.3c0.2,0.4,0.8,0.5,1.1,0.3l3.8-2.2c0.3-0.2,0.5-0.7,0.3-1.1c-0.2-0.4-0.8-0.5-1.1-0.3l-3.8,2.2
				C469.7,50.4,469.5,51,469.7,51.3"/>
			<path class="st1" d="M484.8,31.2c0.5,0,0.8-0.4,0.8-0.8v-4.4c0-0.4-0.4-0.8-0.8-0.8c-0.5,0-0.8,0.4-0.8,0.8v4.4
				C484,30.8,484.3,31.2,484.8,31.2"/>
			<path class="st1" d="M474.8,37c0.2-0.4,0.1-0.9-0.3-1.1l-3.8-2.2c-0.3-0.2-0.9-0.1-1.1,0.3c-0.2,0.4-0.1,0.9,0.3,1.1l3.8,2.2
				C474.1,37.5,474.6,37.4,474.8,37"/>
			<path class="st1" d="M490.5,32.8c0.4,0.2,0.9,0.1,1.1-0.3l2.2-3.8c0.2-0.3,0.1-0.9-0.3-1.1c-0.4-0.2-0.9-0.1-1.1,0.3l-2.2,3.8
				C490,32,490.1,32.5,490.5,32.8"/>
			<path class="st1" d="M479.1,32.8c0.4-0.2,0.5-0.8,0.3-1.1l-2.2-3.8c-0.2-0.3-0.7-0.5-1.1-0.3c-0.4,0.2-0.5,0.8-0.3,1.1l2.2,3.8
				C478.2,32.8,478.7,33,479.1,32.8"/>
			<path class="st1" d="M494.7,37c0.2,0.4,0.8,0.5,1.1,0.3l3.8-2.2c0.3-0.2,0.5-0.7,0.3-1.1c-0.2-0.4-0.8-0.5-1.1-0.3l-3.8,2.2
				C494.6,36.1,494.5,36.6,494.7,37"/>
		</g>
		<polygon class="st1" points="457.7,7.4 461.3,7.4 458.2,19.3 460.5,19.3 463.5,7.7 463.5,5.6 457.7,5.6 		"/>
		<path class="st1" d="M470,11.3l1.1-5.7h1.1l1.1,5.7h-1l-0.2-1h-1l-0.2,1H470z M471.2,9.5h0.8l-0.4-2.3h0L471.2,9.5z"/>
		<polygon class="st1" points="473.6,5.6 473.6,11.3 474.6,11.3 474.6,8.8 475.6,8.8 475.6,8 474.6,8 474.6,6.4 475.9,6.4 
			475.9,5.6 		"/>
		<polygon class="st1" points="476.3,5.6 476.3,11.3 477.3,11.3 477.3,8.8 478.2,8.8 478.2,8 477.3,8 477.3,6.4 478.6,6.4 
			478.6,5.6 		"/>
		<g>
			<path class="st1" d="M478.9,9.8V7c0-0.9,0.4-1.5,1.5-1.5c1,0,1.5,0.7,1.5,1.5v2.8c0,0.9-0.4,1.5-1.5,1.5
				C479.4,11.4,478.9,10.7,478.9,9.8 M480.9,10V6.9c0-0.3-0.2-0.6-0.5-0.6c-0.3,0-0.5,0.2-0.5,0.6V10c0,0.3,0.2,0.6,0.5,0.6
				C480.7,10.6,480.9,10.3,480.9,10"/>
			<path class="st1" d="M483.3,8.7v2.6h-1V5.6h1.4c1,0,1.3,0.5,1.3,1.3v0.7c0,0.6-0.2,1-0.8,1.1l0.9,2.6h-1L483.3,8.7z M483.3,6.4
				v1.8h0.3c0.3,0,0.5-0.2,0.5-0.5V6.8c0-0.3-0.1-0.5-0.5-0.5H483.3z"/>
			<path class="st1" d="M488.5,7.1v2.7c0,0.9-0.4,1.5-1.4,1.5h-1.5V5.6h1.5C488.2,5.6,488.5,6.2,488.5,7.1 M487,10.5
				c0.4,0,0.5-0.2,0.5-0.6v-3c0-0.3-0.2-0.6-0.5-0.6h-0.4v4.2H487z"/>
		</g>
		<path class="st1" d="M488.8,11.3l1.1-5.7h1.1l1.1,5.7h-1l-0.2-1h-1l-0.2,1H488.8z M490,9.5h0.8l-0.4-2.3h0L490,9.5z"/>
		<g>
			<path class="st1" d="M492.5,5.6h1.4c1,0,1.3,0.4,1.3,1.3v0.6c0,0.5-0.2,0.8-0.6,0.9c0.5,0.1,0.7,0.4,0.7,1V10
				c0,0.8-0.4,1.3-1.3,1.3h-1.5V5.6z M493.4,8h0.3c0.3,0,0.5-0.2,0.5-0.5V6.8c0-0.3-0.1-0.5-0.5-0.5h-0.3V8z M493.4,8.7v1.8h0.4
				c0.3,0,0.5-0.2,0.5-0.5V9.2c0-0.3-0.1-0.5-0.5-0.5H493.4z"/>
		</g>
		<polygon class="st1" points="495.8,5.6 495.8,11.3 497.9,11.3 497.9,10.5 496.7,10.5 496.7,5.6 		"/>
		<polygon class="st1" points="498.3,5.6 498.3,11.3 500.6,11.3 500.6,10.5 499.3,10.5 499.3,8.8 500.2,8.8 500.2,8 499.3,8 
			499.3,6.4 500.6,6.4 500.6,5.6 		"/>
		<path class="st1" d="M502.4,11.3l1.1-5.7h1.1l1.1,5.7h-1l-0.2-1h-1l-0.2,1H502.4z M503.6,9.5h0.8L504,7.2h0L503.6,9.5z"/>
		<polygon class="st1" points="508.1,5.6 508.1,8.9 507,5.6 506.1,5.6 506.1,11.3 506.9,11.3 506.9,7.7 508,11.3 508.9,11.3 
			508.9,5.6 		"/>
		<g>
			<path class="st1" d="M512.3,7.1v2.7c0,0.9-0.4,1.5-1.4,1.5h-1.5V5.6h1.5C512,5.6,512.3,6.2,512.3,7.1 M510.8,10.5
				c0.4,0,0.5-0.2,0.5-0.6v-3c0-0.3-0.2-0.6-0.5-0.6h-0.4v4.2H510.8z"/>
			<path class="st1" d="M470.1,17.8v-2.8c0-0.9,0.4-1.5,1.4-1.5c1.1,0,1.4,0.6,1.4,1.4v0.7H472v-0.8c0-0.4-0.1-0.6-0.5-0.6
				c-0.3,0-0.5,0.2-0.5,0.6V18c0,0.3,0.1,0.6,0.5,0.6c0.3,0,0.5-0.2,0.5-0.6V17h0.9v1c0,0.8-0.3,1.4-1.4,1.4
				C470.5,19.4,470.1,18.7,470.1,17.8"/>
		</g>
		<polygon class="st1" points="473.4,13.6 473.4,19.3 475.6,19.3 475.6,18.5 474.4,18.5 474.4,13.6 		"/>
		<polygon class="st1" points="476,13.6 476,19.3 478.3,19.3 478.3,18.5 477,18.5 477,16.8 477.9,16.8 477.9,16 477,16 477,14.4 
			478.3,14.4 478.3,13.6 		"/>
		<path class="st1" d="M478.7,19.3l1.1-5.7h1.1l1.1,5.7h-1l-0.2-1h-1l-0.2,1H478.7z M479.9,17.5h0.8l-0.4-2.3h0L479.9,17.5z"/>
		<polygon class="st1" points="484.3,13.6 484.3,16.9 483.3,13.6 482.3,13.6 482.3,19.3 483.1,19.3 483.1,15.7 484.3,19.3 
			485.1,19.3 485.1,13.6 		"/>
		<polygon class="st1" points="487.1,13.6 487.1,19.3 489.4,19.3 489.4,18.5 488.1,18.5 488.1,16.8 489,16.8 489,16 488.1,16 
			488.1,14.4 489.4,14.4 489.4,13.6 		"/>
		<polygon class="st1" points="491.9,13.6 491.9,16.9 490.9,13.6 489.9,13.6 489.9,19.3 490.7,19.3 490.7,15.7 491.9,19.3 
			492.7,19.3 492.7,13.6 		"/>
		<polygon class="st1" points="493.3,13.6 493.3,19.3 495.6,19.3 495.6,18.5 494.2,18.5 494.2,16.8 495.2,16.8 495.2,16 494.2,16 
			494.2,14.4 495.6,14.4 495.6,13.6 		"/>
		<g>
			<path class="st1" d="M497.1,16.7v2.6h-1v-5.7h1.4c1,0,1.3,0.5,1.3,1.3v0.7c0,0.6-0.2,1-0.8,1.1l0.9,2.6h-1L497.1,16.7z
				 M497.1,14.4v1.8h0.3c0.3,0,0.5-0.2,0.5-0.5v-0.8c0-0.3-0.1-0.5-0.5-0.5H497.1z"/>
			<path class="st1" d="M500.8,16.3h1.4v3.1h-0.7v-0.6c-0.1,0.4-0.4,0.7-0.9,0.7c-0.8,0-1.2-0.7-1.2-1.5v-2.8c0-0.9,0.4-1.5,1.4-1.5
				c1.1,0,1.4,0.6,1.4,1.4v0.5h-0.9v-0.6c0-0.4-0.1-0.6-0.5-0.6c-0.3,0-0.5,0.2-0.5,0.6V18c0,0.3,0.1,0.6,0.5,0.6
				c0.3,0,0.5-0.2,0.5-0.5v-1h-0.5V16.3z"/>
		</g>
		<polygon class="st1" points="504.4,17.1 504.4,19.3 503.4,19.3 503.4,17.1 502.3,13.6 503.4,13.6 503.9,15.8 503.9,15.8 
			504.5,13.6 505.4,13.6 		"/>
	</g>
	<g>
		<rect x="1.8" y="76.1" class="st9" width="67.7" height="67.7"/>
		<g>
			<path class="st1" d="M53.1,120.7L45,116v-9.3c0-0.2-0.1-0.4-0.3-0.5l-8.4-4.8c-0.2-0.1-0.4-0.1-0.6,0l-8.4,4.8
				c-0.2,0.1-0.3,0.3-0.3,0.5v9.3l-8.1,4.7c-0.2,0.1-0.3,0.3-0.3,0.5v9.7c0,0.2,0.1,0.4,0.3,0.5l8.4,4.8c0.1,0,0.2,0.1,0.3,0.1
				c0.1,0,0.2,0,0.3-0.1l8.1-4.7l8.1,4.7c0.1,0,0.2,0.1,0.3,0.1c0.1,0,0.2,0,0.3-0.1l8.4-4.8c0.2-0.1,0.3-0.3,0.3-0.5v-9.7
				C53.3,120.9,53.2,120.8,53.1,120.7 M35.5,129.8l-6.7-3.9l6.7-3.9V129.8z M43.3,116.3l-6.7,3.9v-7.7L43.3,116.3z M35.5,120.2
				l-6.7-3.9l6.7-3.9V120.2z M37.2,121.1l7.3-4.2l7.3,4.2l-7.3,4.2L37.2,121.1z M43.9,115.4l-6.7-3.9l6.7-3.9V115.4z M34.9,111.5
				l-6.7,3.9v-7.7L34.9,111.5z M27.1,134.7l-7.3-4.2v-8.4l7.3,4.2V134.7z M28.2,134.7v-7.7l6.7,3.9L28.2,134.7z M52.2,130.5
				l-7.3,4.2v-8.4l7.3-4.2V130.5z"/>
			<path class="st1" d="M14.1,85.1c0-2.1-0.9-3.7-3.4-3.7c-2.4,0-3.4,1.3-3.4,3.5v2c0,2.2,0.9,3.4,2.5,3.4c1,0,1.6-0.4,1.9-1.1h0v3
				c0,0.8-0.3,1.4-1.2,1.4c-0.8,0-1.1-0.5-1.1-1.3v-0.9H7.4V92c0,2,0.7,3.4,3.3,3.4c2.4,0,3.4-1.6,3.4-3.7V85.1z M11.8,87.2
				c0,0.8-0.4,1.3-1.1,1.3c-0.8,0-1.1-0.5-1.1-1.4v-2.4c0-0.9,0.3-1.4,1.1-1.4c0.8,0,1.1,0.5,1.1,1.4V87.2z"/>
		</g>
		<rect x="18.1" y="81.7" class="st1" width="1" height="5.7"/>
		<polygon class="st1" points="21.3,81.7 21.3,85 20.3,81.7 19.3,81.7 19.3,87.4 20.1,87.4 20.1,83.8 21.3,87.4 22.1,87.4 
			22.1,81.7 		"/>
		<g>
			<path class="st1" d="M25.3,83.2v2.7c0,0.9-0.4,1.5-1.4,1.5h-1.5v-5.7h1.5C24.9,81.7,25.3,82.3,25.3,83.2 M23.8,86.6
				c0.4,0,0.5-0.2,0.5-0.6v-3c0-0.3-0.2-0.6-0.5-0.6h-0.4v4.2H23.8z"/>
			<path class="st1" d="M28.4,81.7V86c0,0.9-0.4,1.5-1.4,1.5c-1,0-1.4-0.6-1.4-1.5v-4.3h1v4.4c0,0.3,0.1,0.6,0.5,0.6
				c0.3,0,0.5-0.2,0.5-0.6v-4.4H28.4z"/>
			<path class="st1" d="M28.7,86.2v-0.8h0.9v0.8c0,0.3,0.1,0.5,0.5,0.5c0.3,0,0.4-0.2,0.4-0.5V86c0-0.3-0.1-0.5-0.4-0.8l-0.6-0.6
				c-0.5-0.5-0.8-0.9-0.8-1.5v-0.2c0-0.7,0.4-1.3,1.4-1.3c1,0,1.3,0.5,1.3,1.3v0.5h-0.9v-0.5c0-0.3-0.2-0.5-0.5-0.5
				c-0.3,0-0.5,0.2-0.5,0.5V83c0,0.3,0.2,0.5,0.5,0.8l0.6,0.6c0.5,0.5,0.8,0.9,0.8,1.5v0.3c0,0.8-0.4,1.3-1.4,1.3
				C29,87.5,28.7,86.9,28.7,86.2"/>
		</g>
		<polygon class="st1" points="31.5,81.7 31.5,82.5 32.3,82.5 32.3,87.4 33.2,87.4 33.2,82.5 34,82.5 34,81.7 		"/>
		<g>
			<path class="st1" d="M35.2,84.8v2.6h-1v-5.7h1.4c1,0,1.3,0.5,1.3,1.3v0.7c0,0.6-0.2,1-0.8,1.1l0.9,2.6h-1L35.2,84.8z M35.2,82.5
				v1.8h0.3c0.3,0,0.5-0.2,0.5-0.5v-0.8c0-0.3-0.1-0.5-0.5-0.5H35.2z"/>
		</g>
		<polygon class="st1" points="39,85.2 39,87.4 38,87.4 38,85.2 36.9,81.7 38,81.7 38.5,83.8 38.5,83.8 39.1,81.7 40,81.7 		"/>
		<polygon class="st1" points="39.7,86.5 39.6,87.8 40.1,87.8 40.6,86.6 40.6,86.5 		"/>
		<rect x="41.6" y="81.7" class="st1" width="1" height="5.7"/>
		<polygon class="st1" points="44.8,81.7 44.8,85 43.8,81.7 42.9,81.7 42.9,87.4 43.7,87.4 43.7,83.8 44.8,87.4 45.6,87.4 
			45.6,81.7 		"/>
		<polygon class="st1" points="47.9,81.7 47.9,85 46.9,81.7 46,81.7 46,87.4 46.8,87.4 46.8,83.8 47.9,87.4 48.7,87.4 48.7,81.7 		
			"/>
		<g>
			<path class="st1" d="M49,85.9v-2.8c0-0.9,0.4-1.5,1.5-1.5c1,0,1.5,0.7,1.5,1.5v2.8c0,0.9-0.4,1.5-1.5,1.5
				C49.5,87.5,49,86.8,49,85.9 M51,86.1V83c0-0.3-0.2-0.6-0.5-0.6c-0.3,0-0.5,0.2-0.5,0.6v3.1c0,0.3,0.2,0.6,0.5,0.6
				C50.8,86.7,51,86.4,51,86.1"/>
		</g>
		<polygon class="st1" points="55.2,81.7 54.1,87.4 53,87.4 52,81.7 52.9,81.7 53.6,85.7 53.6,85.7 54.3,81.7 		"/>
		<path class="st1" d="M54.7,87.4l1.1-5.7h1.1l1.1,5.7h-1l-0.2-1h-1l-0.2,1H54.7z M55.9,85.6h0.8l-0.4-2.3h0L55.9,85.6z"/>
		<polygon class="st1" points="57.6,81.7 57.6,82.5 58.4,82.5 58.4,87.4 59.3,87.4 59.3,82.5 60.1,82.5 60.1,81.7 		"/>
		<rect x="60.3" y="81.7" class="st1" width="1" height="5.7"/>
		<g>
			<path class="st1" d="M61.6,85.9v-2.8c0-0.9,0.4-1.5,1.5-1.5c1,0,1.5,0.7,1.5,1.5v2.8c0,0.9-0.4,1.5-1.5,1.5
				C62,87.5,61.6,86.8,61.6,85.9 M63.6,86.1V83c0-0.3-0.2-0.6-0.5-0.6c-0.3,0-0.5,0.2-0.5,0.6v3.1c0,0.3,0.2,0.6,0.5,0.6
				C63.4,86.7,63.6,86.4,63.6,86.1"/>
		</g>
		<polygon class="st1" points="66.8,81.7 66.8,85 65.8,81.7 64.8,81.7 64.8,87.4 65.6,87.4 65.6,83.8 66.8,87.4 67.6,87.4 
			67.6,81.7 		"/>
		<path class="st1" d="M17.9,95.4l1.1-5.7h1.1l1.1,5.7h-1l-0.2-1h-1l-0.2,1H17.9z M19.1,93.6h0.8l-0.4-2.3h0L19.1,93.6z"/>
		<polygon class="st1" points="23.3,89.7 23.3,93 22.3,89.7 21.3,89.7 21.3,95.4 22.1,95.4 22.1,91.8 23.3,95.4 24.1,95.4 
			24.1,89.7 		"/>
		<g>
			<path class="st1" d="M27.3,91.2v2.7c0,0.9-0.4,1.5-1.4,1.5h-1.5v-5.7h1.5C26.9,89.7,27.3,90.3,27.3,91.2 M25.8,94.6
				c0.4,0,0.5-0.2,0.5-0.6v-3c0-0.3-0.2-0.6-0.5-0.6h-0.4v4.2H25.8z"/>
		</g>
		<rect x="28.8" y="89.7" class="st1" width="1" height="5.7"/>
		<polygon class="st1" points="32.1,89.7 32.1,93 31,89.7 30.1,89.7 30.1,95.4 30.9,95.4 30.9,91.8 32,95.4 32.9,95.4 32.9,89.7 		
			"/>
		<polygon class="st1" points="33.2,89.7 33.2,95.4 34.2,95.4 34.2,92.9 35.1,92.9 35.1,92.1 34.2,92.1 34.2,90.5 35.4,90.5 
			35.4,89.7 		"/>
		<g>
			<path class="st1" d="M36.6,92.8v2.6h-1v-5.7H37c1,0,1.3,0.5,1.3,1.3v0.7c0,0.6-0.2,1-0.8,1.1l0.9,2.6h-1L36.6,92.8z M36.6,90.5
				v1.8h0.3c0.3,0,0.5-0.2,0.5-0.5v-0.8c0-0.3-0.1-0.5-0.5-0.5H36.6z"/>
		</g>
		<path class="st1" d="M38.5,95.4l1.1-5.7h1.1l1.1,5.7h-1l-0.2-1h-1l-0.2,1H38.5z M39.7,93.6h0.8l-0.4-2.3h0L39.7,93.6z"/>
		<g>
			<path class="st1" d="M41.8,94.2v-0.8h0.9v0.8c0,0.3,0.1,0.5,0.5,0.5c0.3,0,0.4-0.2,0.4-0.5V94c0-0.3-0.1-0.5-0.4-0.8l-0.6-0.6
				c-0.5-0.5-0.8-0.9-0.8-1.5v-0.2c0-0.7,0.4-1.3,1.4-1.3c1,0,1.3,0.5,1.3,1.3v0.5h-0.9v-0.5c0-0.3-0.2-0.5-0.5-0.5
				c-0.3,0-0.5,0.2-0.5,0.5V91c0,0.3,0.2,0.5,0.5,0.8l0.6,0.6c0.5,0.5,0.8,0.9,0.8,1.5v0.3c0,0.8-0.4,1.3-1.4,1.3
				C42.2,95.5,41.8,94.9,41.8,94.2"/>
		</g>
		<polygon class="st1" points="44.6,89.7 44.6,90.5 45.4,90.5 45.4,95.4 46.3,95.4 46.3,90.5 47.1,90.5 47.1,89.7 		"/>
		<g>
			<path class="st1" d="M48.3,92.8v2.6h-1v-5.7h1.4c1,0,1.3,0.5,1.3,1.3v0.7c0,0.6-0.2,1-0.8,1.1l0.9,2.6h-1L48.3,92.8z M48.3,90.5
				v1.8h0.3c0.3,0,0.5-0.2,0.5-0.5v-0.8c0-0.3-0.1-0.5-0.5-0.5H48.3z"/>
			<path class="st1" d="M53.1,89.7V94c0,0.9-0.4,1.5-1.4,1.5c-1,0-1.4-0.6-1.4-1.5v-4.3h1v4.4c0,0.3,0.1,0.6,0.5,0.6
				c0.3,0,0.5-0.2,0.5-0.6v-4.4H53.1z"/>
			<path class="st1" d="M53.4,94v-2.8c0-0.9,0.4-1.5,1.4-1.5c1.1,0,1.4,0.6,1.4,1.4v0.7h-0.9V91c0-0.4-0.1-0.6-0.5-0.6
				c-0.3,0-0.5,0.2-0.5,0.6v3.1c0,0.3,0.1,0.6,0.5,0.6c0.3,0,0.5-0.2,0.5-0.6v-1.1h0.9v1c0,0.8-0.3,1.4-1.4,1.4
				C53.9,95.5,53.4,94.8,53.4,94"/>
		</g>
		<polygon class="st1" points="56.3,89.7 56.3,90.5 57.1,90.5 57.1,95.4 58.1,95.4 58.1,90.5 58.9,90.5 58.9,89.7 		"/>
		<g>
			<path class="st1" d="M61.9,89.7V94c0,0.9-0.4,1.5-1.4,1.5c-1,0-1.4-0.6-1.4-1.5v-4.3h1v4.4c0,0.3,0.1,0.6,0.5,0.6
				c0.3,0,0.5-0.2,0.5-0.6v-4.4H61.9z"/>
			<path class="st1" d="M63.2,92.8v2.6h-1v-5.7h1.4c1,0,1.3,0.5,1.3,1.3v0.7c0,0.6-0.2,1-0.8,1.1l0.9,2.6h-1L63.2,92.8z M63.2,90.5
				v1.8h0.3c0.3,0,0.5-0.2,0.5-0.5v-0.8c0-0.3-0.1-0.5-0.5-0.5H63.2z"/>
		</g>
		<polygon class="st1" points="65.2,89.7 65.2,95.4 67.5,95.4 67.5,94.6 66.2,94.6 66.2,92.9 67.1,92.9 67.1,92.1 66.2,92.1 
			66.2,90.5 67.5,90.5 67.5,89.7 		"/>
		<rect x="226.4" y="76.1" class="st10" width="67.7" height="67.7"/>
		<g>
			<path class="st1" d="M277.5,111.3c-3-2.4-7-2.4-8.4-2.1l-0.2,0c-1.7,0.4-4.4,1.1-7.5,4.9c0,0,0,0-0.1,0.1l0,0
				c0,0-0.1,0.1-0.1,0.2c0,0,0,0.1,0,0.1l0.1,0.1c0.4,0.7,0.9,1.5,1.3,2.3c0,0,0,0,0,0c0,0.1,0.1,0.1,0.2,0.1c0.1,0,0.1,0,0.2-0.1
				c0,0,0-0.1,0.1-0.1c2.8-3.8,5-4.4,6.4-4.7l0.2,0c0.8-0.2,3.7-0.2,5.8,1.5c1.6,1.3,2.5,3.4,2.5,6.1c0,4.7-2.3,6.5-4.2,7.2
				c-2.9,1.1-5.8-0.4-5.8-0.4l-0.1-0.1c-1.6-0.7-4-2.2-6.3-6.7c-4.6-9.2-8.4-10.1-10.9-10.6l-0.1,0c-1.2-0.3-5.2-0.4-8.3,2.1
				c-1.6,1.3-3.6,3.9-3.6,8.6c0,2.9,0.6,4.8,2.1,6.8c0.3,0.5,3.7,4.8,10.3,3.6c1-0.2,2.5-0.7,4-1.9l1.4,1.3c0.1,0.1,0.2,0.1,0.3,0
				c0,0,0.1-0.1,0.1-0.2v0l1-6.4v-0.1c0-0.1,0-0.1-0.1-0.2c0,0-0.1-0.1-0.2-0.1l0,0l-0.1,0l-6.1,1.7l-0.1,0c0,0-0.1,0-0.1,0.1
				c-0.1,0.1-0.1,0.2,0,0.3l0.1,0.1l1.4,1.2c-0.9,0.6-1.7,0.8-2.3,1c-4.7,0.9-7.1-2.2-7.2-2.3l0,0c-1.1-1.4-1.5-2.7-1.5-4.9
				c0-2.8,0.8-4.8,2.4-6.1c2.1-1.6,4.9-1.6,5.7-1.5l0.1,0c2.1,0.5,4.9,1.1,8.8,9c2,4.1,4.6,6.8,7.8,8.2c0.4,0.2,2.4,1.1,4.9,1.1
				c1.1,0,2.2-0.2,3.4-0.6c1.9-0.7,6.2-3.1,6.2-10.1C281.1,115.1,279.1,112.6,277.5,111.3"/>
			<path class="st11" d="M277.4,111.3c-3-2.3-7-2.4-8.4-2.1l-0.2,0c-1.7,0.4-4.3,1-7.5,4.9c0,0,0,0-0.1,0.1l0,0c0,0-0.1,0.1-0.1,0.2
				c0,0,0,0.1,0,0.1l0.1,0.1c0.4,0.7,0.9,1.5,1.3,2.3c0,0,0,0,0,0c0,0.1,0.1,0.1,0.2,0.1c0.1,0,0.1,0,0.2-0.1c0,0,0-0.1,0.1-0.1
				c2.8-3.8,4.9-4.3,6.4-4.7l0.2,0c0.8-0.2,3.7-0.2,5.8,1.5c1.6,1.3,2.5,3.3,2.5,6.1c0,4.6-2.3,6.4-4.1,7.1
				c-2.9,1.1-5.7-0.4-5.8-0.4l-0.1-0.1c-1.6-0.7-4-2.1-6.3-6.7c-4.6-9.1-8.4-10-10.9-10.5l-0.1,0c-1.1-0.3-5.1-0.4-8.3,2.1
				c-1.6,1.3-3.6,3.8-3.6,8.5c0,2.8,0.6,4.7,2.1,6.7c0.3,0.4,3.7,4.8,10.2,3.5c1-0.2,2.5-0.7,4-1.9l1.4,1.3c0.1,0.1,0.2,0.1,0.3,0
				c0,0,0.1-0.1,0.1-0.2v0l1-6.3v-0.1c0-0.1,0-0.1-0.1-0.2c0,0-0.1-0.1-0.2-0.1l0,0l-0.1,0l-6.1,1.7l-0.1,0c0,0-0.1,0-0.1,0.1
				c-0.1,0.1-0.1,0.2,0,0.3l0.1,0.1l1.4,1.2c-0.9,0.6-1.7,0.8-2.2,0.9c-4.7,0.9-7.1-2.2-7.1-2.3l0,0c-1.1-1.4-1.5-2.7-1.5-4.8
				c0-2.8,0.8-4.8,2.4-6.1c2-1.6,4.9-1.6,5.7-1.4l0.1,0c2.1,0.5,4.9,1.1,8.8,8.9c2,4,4.6,6.7,7.8,8.1c0.4,0.2,2.3,1.1,4.9,1.1
				c1.1,0,2.2-0.2,3.4-0.6c1.9-0.7,6.2-3,6.2-10C281,115.2,279.1,112.6,277.4,111.3"/>
		</g>
		<polygon class="st1" points="233,84.9 233,84.9 233,95.4 235.3,95.4 235.3,81.7 233.5,81.7 231.4,84.2 231.4,86.6 231.4,86.6 		
			"/>
		<g>
			<path class="st1" d="M236.7,84.5v1.7h2.1v-1.7c0-0.8,0.4-1.1,0.9-1.1c0.4,0,0.8,0.2,0.8,1v1.1c0,1.1-0.1,1.6-0.9,2.4l-1.3,1.4
				c-1.3,1.3-1.7,2.2-1.7,3.6v2.5h6v-1.9h-3.8v-0.6c0-1.1,0.4-1.5,1-2.1l1.5-1.6c1.2-1.3,1.5-2.1,1.5-3.5v-1.3c0-2-0.9-2.9-3-2.9
				C237.7,81.5,236.7,82.6,236.7,84.5"/>
			<path class="st1" d="M249,84.8v2.6h-1v-5.7h1.4c1,0,1.3,0.5,1.3,1.3v0.7c0,0.6-0.2,1-0.8,1.1l0.9,2.6h-1L249,84.8z M249,82.5v1.8
				h0.3c0.3,0,0.5-0.2,0.5-0.5v-0.8c0-0.3-0.1-0.5-0.5-0.5H249z"/>
		</g>
		<polygon class="st1" points="251.2,81.7 251.2,87.4 253.5,87.4 253.5,86.6 252.2,86.6 252.2,84.9 253.1,84.9 253.1,84.1 
			252.2,84.1 252.2,82.5 253.5,82.5 253.5,81.7 		"/>
		<g>
			<path class="st1" d="M253.8,86.2v-0.8h0.9v0.8c0,0.3,0.1,0.5,0.5,0.5c0.3,0,0.4-0.2,0.4-0.5V86c0-0.3-0.1-0.5-0.4-0.8l-0.6-0.6
				c-0.5-0.5-0.8-0.9-0.8-1.5v-0.2c0-0.7,0.4-1.3,1.4-1.3c1,0,1.3,0.5,1.3,1.3v0.5h-0.9v-0.5c0-0.3-0.2-0.5-0.5-0.5
				c-0.3,0-0.5,0.2-0.5,0.5V83c0,0.3,0.2,0.5,0.5,0.8l0.6,0.6c0.5,0.5,0.8,0.9,0.8,1.5v0.3c0,0.8-0.4,1.3-1.4,1.3
				S253.8,86.9,253.8,86.2"/>
			<path class="st1" d="M256.9,81.7h1.4c1,0,1.3,0.5,1.3,1.3v1.2c0,0.8-0.4,1.3-1.3,1.3h-0.5v1.9h-1V81.7z M257.9,82.5v2.3h0.4
				c0.3,0,0.5-0.2,0.5-0.5v-1.3c0-0.3-0.1-0.5-0.5-0.5H257.9z"/>
			<path class="st1" d="M260.1,85.9v-2.8c0-0.9,0.4-1.5,1.5-1.5c1,0,1.5,0.7,1.5,1.5v2.8c0,0.9-0.4,1.5-1.5,1.5
				C260.5,87.5,260.1,86.8,260.1,85.9 M262,86.1V83c0-0.3-0.2-0.6-0.5-0.6c-0.3,0-0.5,0.2-0.5,0.6v3.1c0,0.3,0.2,0.6,0.5,0.6
				C261.9,86.7,262,86.4,262,86.1"/>
		</g>
		<polygon class="st1" points="265.4,81.7 265.4,85 264.4,81.7 263.4,81.7 263.4,87.4 264.2,87.4 264.2,83.8 265.4,87.4 266.2,87.4 
			266.2,81.7 		"/>
		<g>
			<path class="st1" d="M266.6,86.2v-0.8h0.9v0.8c0,0.3,0.1,0.5,0.5,0.5c0.3,0,0.4-0.2,0.4-0.5V86c0-0.3-0.1-0.5-0.4-0.8l-0.6-0.6
				c-0.5-0.5-0.8-0.9-0.8-1.5v-0.2c0-0.7,0.4-1.3,1.4-1.3c1,0,1.3,0.5,1.3,1.3v0.5h-0.9v-0.5c0-0.3-0.2-0.5-0.5-0.5
				c-0.3,0-0.5,0.2-0.5,0.5V83c0,0.3,0.2,0.5,0.5,0.8l0.6,0.6c0.5,0.5,0.8,0.9,0.8,1.5v0.3c0,0.8-0.4,1.3-1.4,1.3
				C267,87.5,266.6,86.9,266.6,86.2"/>
		</g>
		<rect x="269.8" y="81.7" class="st1" width="1" height="5.7"/>
		<g>
			<path class="st1" d="M271.2,81.7h1.4c1,0,1.3,0.4,1.3,1.3v0.6c0,0.5-0.2,0.8-0.6,0.9c0.5,0.1,0.7,0.4,0.7,1v0.8
				c0,0.8-0.4,1.3-1.3,1.3h-1.5V81.7z M272.1,84.1h0.3c0.3,0,0.5-0.2,0.5-0.5v-0.7c0-0.3-0.1-0.5-0.5-0.5h-0.3V84.1z M272.1,84.8
				v1.8h0.4c0.3,0,0.5-0.2,0.5-0.5v-0.9c0-0.3-0.1-0.5-0.5-0.5H272.1z"/>
		</g>
		<polygon class="st1" points="274.3,81.7 274.3,87.4 276.5,87.4 276.5,86.6 275.3,86.6 275.3,81.7 		"/>
		<polygon class="st1" points="276.8,81.7 276.8,87.4 279.1,87.4 279.1,86.6 277.7,86.6 277.7,84.9 278.7,84.9 278.7,84.1 
			277.7,84.1 277.7,82.5 279.1,82.5 279.1,81.7 		"/>
		<g>
			<path class="st1" d="M248.1,94v-2.8c0-0.9,0.4-1.5,1.4-1.5c1.1,0,1.4,0.6,1.4,1.4v0.7H250V91c0-0.4-0.1-0.6-0.5-0.6
				c-0.3,0-0.5,0.2-0.5,0.6v3.1c0,0.3,0.1,0.6,0.5,0.6c0.3,0,0.5-0.2,0.5-0.6v-1.1h0.9v1c0,0.8-0.3,1.4-1.4,1.4
				C248.5,95.5,248.1,94.8,248.1,94"/>
			<path class="st1" d="M251.3,94v-2.8c0-0.9,0.4-1.5,1.5-1.5c1,0,1.5,0.7,1.5,1.5V94c0,0.9-0.4,1.5-1.5,1.5
				C251.7,95.5,251.3,94.8,251.3,94 M253.2,94.1V91c0-0.3-0.2-0.6-0.5-0.6c-0.3,0-0.5,0.2-0.5,0.6v3.1c0,0.3,0.2,0.6,0.5,0.6
				C253.1,94.7,253.2,94.5,253.2,94.1"/>
		</g>
		<polygon class="st1" points="256.6,89.7 256.6,93 255.6,89.7 254.6,89.7 254.6,95.4 255.4,95.4 255.4,91.8 256.6,95.4 257.4,95.4 
			257.4,89.7 		"/>
		<g>
			<path class="st1" d="M257.8,94.2v-0.8h0.9v0.8c0,0.3,0.1,0.5,0.5,0.5c0.3,0,0.4-0.2,0.4-0.5V94c0-0.3-0.1-0.5-0.4-0.8l-0.6-0.6
				c-0.5-0.5-0.8-0.9-0.8-1.5v-0.2c0-0.7,0.4-1.3,1.4-1.3c1,0,1.3,0.5,1.3,1.3v0.5h-0.9v-0.5c0-0.3-0.2-0.5-0.5-0.5
				c-0.3,0-0.5,0.2-0.5,0.5V91c0,0.3,0.2,0.5,0.5,0.8l0.6,0.6c0.5,0.5,0.8,0.9,0.8,1.5v0.3c0,0.8-0.4,1.3-1.4,1.3
				C258.2,95.5,257.8,95,257.8,94.2"/>
			<path class="st1" d="M263.7,89.7V94c0,0.9-0.4,1.5-1.4,1.5c-1,0-1.4-0.6-1.4-1.5v-4.3h1v4.4c0,0.3,0.1,0.6,0.5,0.6
				c0.3,0,0.5-0.2,0.5-0.6v-4.4H263.7z"/>
		</g>
		<polygon class="st1" points="266.8,91.7 266.8,91.7 266.1,95.4 265.7,95.4 265,91.7 265,91.7 265,95.4 264.2,95.4 264.2,89.7 
			265.3,89.7 265.9,92.9 265.9,92.9 266.5,89.7 267.7,89.7 267.7,95.4 266.8,95.4 		"/>
		<g>
			<path class="st1" d="M268.1,89.7h1.4c1,0,1.3,0.5,1.3,1.3v1.2c0,0.8-0.4,1.3-1.3,1.3h-0.5v1.9h-1V89.7z M269.1,90.5v2.3h0.4
				c0.3,0,0.5-0.2,0.5-0.5v-1.3c0-0.3-0.1-0.5-0.5-0.5H269.1z"/>
		</g>
		<polygon class="st1" points="271.1,89.7 271.1,90.5 271.9,90.5 271.9,95.4 272.9,95.4 272.9,90.5 273.7,90.5 273.7,89.7 		"/>
		<rect x="274" y="89.7" class="st1" width="1" height="5.7"/>
		<g>
			<path class="st1" d="M275.4,94v-2.8c0-0.9,0.4-1.5,1.5-1.5c1,0,1.5,0.7,1.5,1.5V94c0,0.9-0.4,1.5-1.5,1.5
				C275.8,95.5,275.4,94.8,275.4,94 M277.4,94.1V91c0-0.3-0.2-0.6-0.5-0.6c-0.3,0-0.5,0.2-0.5,0.6v3.1c0,0.3,0.2,0.6,0.5,0.6
				C277.2,94.7,277.4,94.5,277.4,94.1"/>
		</g>
		<polygon class="st1" points="280.7,89.7 280.7,93 279.7,89.7 278.8,89.7 278.8,95.4 279.6,95.4 279.6,91.8 280.7,95.4 281.5,95.4 
			281.5,89.7 		"/>
		<path class="st1" d="M247.9,103.5l1.1-5.7h1.1l1.1,5.7h-1l-0.2-1h-1l-0.2,1H247.9z M249.1,101.6h0.8l-0.4-2.3h0L249.1,101.6z"/>
		<polygon class="st1" points="253.4,97.7 253.4,101 252.4,97.7 251.5,97.7 251.5,103.5 252.3,103.5 252.3,99.9 253.4,103.5 
			254.2,103.5 254.2,97.7 		"/>
		<g>
			<path class="st1" d="M257.6,99.3v2.7c0,0.9-0.4,1.5-1.4,1.5h-1.5v-5.7h1.5C257.2,97.7,257.6,98.4,257.6,99.3 M256,102.7
				c0.4,0,0.5-0.2,0.5-0.6v-3c0-0.3-0.2-0.6-0.5-0.6h-0.4v4.2H256z"/>
			<path class="st1" d="M259.3,97.7h1.4c1,0,1.3,0.5,1.3,1.3v1.2c0,0.8-0.4,1.3-1.3,1.3h-0.5v1.9h-1V97.7z M260.3,98.5v2.3h0.4
				c0.3,0,0.5-0.2,0.5-0.5V99c0-0.3-0.1-0.5-0.5-0.5H260.3z"/>
			<path class="st1" d="M263.4,100.8v2.6h-1v-5.7h1.4c1,0,1.3,0.5,1.3,1.3v0.7c0,0.6-0.2,1-0.8,1.1l0.9,2.6h-1L263.4,100.8z
				 M263.4,98.5v1.8h0.3c0.3,0,0.5-0.2,0.5-0.5V99c0-0.3-0.1-0.5-0.5-0.5H263.4z"/>
			<path class="st1" d="M265.6,102v-2.8c0-0.9,0.4-1.5,1.5-1.5c1,0,1.5,0.7,1.5,1.5v2.8c0,0.9-0.4,1.5-1.5,1.5
				C266,103.5,265.6,102.9,265.6,102 M267.5,102.1v-3.1c0-0.3-0.2-0.6-0.5-0.6c-0.3,0-0.5,0.2-0.5,0.6v3.1c0,0.3,0.2,0.6,0.5,0.6
				C267.4,102.7,267.5,102.5,267.5,102.1"/>
			<path class="st1" d="M271.8,99.3v2.7c0,0.9-0.4,1.5-1.4,1.5h-1.5v-5.7h1.5C271.5,97.7,271.8,98.4,271.8,99.3 M270.3,102.7
				c0.4,0,0.5-0.2,0.5-0.6v-3c0-0.3-0.2-0.6-0.5-0.6h-0.4v4.2H270.3z"/>
			<path class="st1" d="M275.1,97.7v4.3c0,0.9-0.4,1.5-1.4,1.5c-1,0-1.4-0.6-1.4-1.5v-4.3h1v4.4c0,0.3,0.1,0.6,0.5,0.6
				c0.3,0,0.5-0.2,0.5-0.6v-4.4H275.1z"/>
			<path class="st1" d="M275.5,102v-2.8c0-0.9,0.4-1.5,1.4-1.5c1.1,0,1.4,0.6,1.4,1.4v0.7h-0.9V99c0-0.4-0.1-0.6-0.5-0.6
				c-0.3,0-0.5,0.2-0.5,0.6v3.1c0,0.3,0.1,0.6,0.5,0.6c0.3,0,0.5-0.2,0.5-0.6v-1.1h0.9v1c0,0.8-0.3,1.4-1.4,1.4
				C275.9,103.5,275.5,102.9,275.5,102"/>
		</g>
		<polygon class="st1" points="278.5,97.7 278.5,98.5 279.3,98.5 279.3,103.5 280.3,103.5 280.3,98.5 281.1,98.5 281.1,97.7 		"/>
		<rect x="281.4" y="97.7" class="st1" width="1" height="5.7"/>
		<g>
			<path class="st1" d="M282.8,102v-2.8c0-0.9,0.4-1.5,1.5-1.5c1,0,1.5,0.7,1.5,1.5v2.8c0,0.9-0.4,1.5-1.5,1.5
				C283.2,103.5,282.8,102.9,282.8,102 M284.7,102.1v-3.1c0-0.3-0.2-0.6-0.5-0.6c-0.3,0-0.5,0.2-0.5,0.6v3.1c0,0.3,0.2,0.6,0.5,0.6
				C284.6,102.7,284.7,102.5,284.7,102.1"/>
		</g>
		<polygon class="st1" points="288.1,97.7 288.1,101 287.1,97.7 286.1,97.7 286.1,103.5 287,103.5 287,99.9 288.1,103.5 
			288.9,103.5 288.9,97.7 		"/>
		<rect x="151.5" y="76.1" class="st12" width="67.7" height="67.7"/>
		<g>
			<path class="st1" d="M163.1,127.7h0.1h10.1c0.1,0,0.3-0.1,0.3-0.3c0-0.1,0-0.1-0.1-0.2l0,0l-5.1-6.6l-0.1-0.1
				c0-0.1-0.1-0.1-0.2-0.1c-0.1,0-0.1,0-0.2,0.1l0,0l-0.1,0.1l-5,6.5l-0.1,0.1c0,0,0,0.1,0,0.1C162.8,127.6,162.9,127.7,163.1,127.7
				"/>
			<path class="st1" d="M173.3,128.7H163c-0.1,0-0.3,0.1-0.3,0.3v8c0,0.1,0.1,0.3,0.3,0.3h3.3v-5c0-0.1,0.1-0.3,0.3-0.3h3.1
				c0.1,0,0.3,0.1,0.3,0.3v5h3.4c0.1,0,0.3-0.1,0.3-0.3v-8C173.5,128.8,173.4,128.7,173.3,128.7"/>
			<path class="st1" d="M208.7,126.6h-10.1c-0.1,0-0.2,0.1-0.2,0.2v10.2c0,0.1,0.1,0.2,0.2,0.2h10.1c0.1,0,0.2-0.1,0.2-0.2v-10.2
				C208.9,126.7,208.8,126.6,208.7,126.6 M203.1,133.3c0,0.1-0.1,0.2-0.2,0.2h-3c-0.1,0-0.3-0.1-0.3-0.2v-1.8c0-0.1,0.1-0.2,0.3-0.2
				h3c0.1,0,0.2,0.1,0.2,0.2V133.3z M203.1,129.9c0,0.1-0.1,0.2-0.2,0.2h-3c-0.1,0-0.3-0.1-0.3-0.2V128c0-0.1,0.1-0.2,0.3-0.2h3
				c0.1,0,0.2,0.1,0.2,0.2V129.9z M207.8,133.3c0,0.1-0.1,0.2-0.2,0.2h-3c-0.1,0-0.2-0.1-0.2-0.2v-1.8c0-0.1,0.1-0.2,0.2-0.2h3
				c0.1,0,0.2,0.1,0.2,0.2V133.3z M207.8,129.9c0,0.1-0.1,0.2-0.2,0.2h-3c-0.1,0-0.2-0.1-0.2-0.2V128c0-0.1,0.1-0.2,0.2-0.2h3
				c0.1,0,0.2,0.1,0.2,0.2V129.9z"/>
			<path class="st1" d="M185.1,102.8h-9.9c-0.1,0-0.2,0.1-0.2,0.2V137c0,0.1,0.1,0.2,0.2,0.2h9.9c0.1,0,0.2-0.1,0.2-0.2V103
				C185.3,102.9,185.2,102.8,185.1,102.8 M179.2,133.3c0,0.1-0.1,0.1-0.1,0.1h-2.3c-0.1,0-0.1-0.1-0.1-0.1v-2.5
				c0-0.1,0.1-0.1,0.1-0.1h2.3c0.1,0,0.1,0.1,0.1,0.1V133.3z M179.2,127.5c0,0.1-0.1,0.1-0.1,0.1h-2.3c-0.1,0-0.1-0.1-0.1-0.1V125
				c0-0.1,0.1-0.1,0.1-0.1h2.3c0.1,0,0.1,0.1,0.1,0.1V127.5z M179.2,121.7c0,0.1-0.1,0.1-0.1,0.1h-2.3c-0.1,0-0.1-0.1-0.1-0.1v-2.5
				c0-0.1,0.1-0.1,0.1-0.1h2.3c0.1,0,0.1,0.1,0.1,0.1V121.7z M179.2,115.9c0,0.1-0.1,0.1-0.1,0.1h-2.3c-0.1,0-0.1-0.1-0.1-0.1v-2.5
				c0-0.1,0.1-0.1,0.1-0.1h2.3c0.1,0,0.1,0.1,0.1,0.1V115.9z M179.2,110.1c0,0.1-0.1,0.1-0.1,0.1h-2.3c-0.1,0-0.1-0.1-0.1-0.1v-2.5
				c0-0.1,0.1-0.1,0.1-0.1h2.3c0.1,0,0.1,0.1,0.1,0.1V110.1z M183.7,133.3c0,0.1-0.1,0.1-0.1,0.1h-2.3c-0.1,0-0.1-0.1-0.1-0.1v-2.5
				c0-0.1,0.1-0.1,0.1-0.1h2.3c0.1,0,0.1,0.1,0.1,0.1V133.3z M183.7,127.5c0,0.1-0.1,0.1-0.1,0.1h-2.3c-0.1,0-0.1-0.1-0.1-0.1V125
				c0-0.1,0.1-0.1,0.1-0.1h2.3c0.1,0,0.1,0.1,0.1,0.1V127.5z M183.7,121.7c0,0.1-0.1,0.1-0.1,0.1h-2.3c-0.1,0-0.1-0.1-0.1-0.1v-2.5
				c0-0.1,0.1-0.1,0.1-0.1h2.3c0.1,0,0.1,0.1,0.1,0.1V121.7z M183.7,115.9c0,0.1-0.1,0.1-0.1,0.1h-2.3c-0.1,0-0.1-0.1-0.1-0.1v-2.5
				c0-0.1,0.1-0.1,0.1-0.1h2.3c0.1,0,0.1,0.1,0.1,0.1V115.9z M183.7,110.1c0,0.1-0.1,0.1-0.1,0.1h-2.3c-0.1,0-0.1-0.1-0.1-0.1v-2.5
				c0-0.1,0.1-0.1,0.1-0.1h2.3c0.1,0,0.1,0.1,0.1,0.1V110.1z"/>
			<path class="st1" d="M208.9,125.5c0,0.1-0.1,0.2-0.2,0.2h-10.2c-0.1,0-0.2-0.1-0.2-0.2v-2c0-0.1,0.1-0.2,0.2-0.2h10.2
				c0.1,0,0.2,0.1,0.2,0.2V125.5z"/>
			<path class="st1" d="M197.1,109.2c0-0.1-0.1-0.2-0.2-0.2c-0.1,0-0.1,0-0.1,0c0,0,0,0,0,0l-0.1,0.1l-9.8,12.4l0,0.1
				c0,0-0.1,0.1-0.1,0.2v0V137c0,0.1,0.1,0.2,0.2,0.2h9.9c0.1,0,0.2-0.1,0.2-0.2v-27.7C197.1,109.3,197.1,109.2,197.1,109.2
				 M193,115.9L193,115.9c0.7-0.9,1.9-2.3,2.4-3l0.1-0.1c0.1-0.1,0.1-0.1,0.2-0.1c0.1,0,0.2,0.1,0.3,0.2v0.1v0.1v2.9
				c0,0.2-0.1,0.3-0.3,0.3c0,0,0,0,0,0s0,0,0,0h-2.3h-0.1c0,0,0,0,0,0c0,0,0,0,0,0c-0.2,0-0.3-0.1-0.3-0.3
				C192.9,116,193,116,193,115.9 M191.4,133.3c0,0.1-0.1,0.2-0.2,0.2h-3c-0.1,0-0.2-0.1-0.2-0.2v-1.9c0-0.1,0.1-0.2,0.2-0.2h3
				c0.1,0,0.2,0.1,0.2,0.2V133.3z M191.4,129.8c0,0.1-0.1,0.2-0.2,0.2h-3c-0.1,0-0.2-0.1-0.2-0.2V128c0-0.1,0.1-0.2,0.2-0.2h3
				c0.1,0,0.2,0.1,0.2,0.2V129.8z M191.4,126.4c0,0.1-0.1,0.2-0.2,0.2h-3c-0.1,0-0.2-0.1-0.2-0.2v-1.9c0-0.1,0.1-0.2,0.2-0.2h3
				c0.1,0,0.2,0.1,0.2,0.2V126.4z M191.5,118.9L191.5,118.9v4.1c0,0.1-0.1,0.2-0.2,0.2h-3c-0.1,0-0.2-0.1-0.2-0.2v-0.5v0
				c0,0,0-0.1,0-0.1c0,0,0,0,0,0c0,0,0,0,0,0c0,0,0,0,0,0c0.4-0.5,2.1-2.6,2.8-3.5l0.1-0.1c0.1-0.1,0.1-0.1,0.2-0.1
				c0.1,0,0.2,0.1,0.3,0.2V118.9z M196,133.3c0,0.1-0.1,0.2-0.2,0.2h-3c-0.1,0-0.2-0.1-0.2-0.2v-1.9c0-0.1,0.1-0.2,0.2-0.2h3
				c0.1,0,0.2,0.1,0.2,0.2V133.3z M196,129.8c0,0.1-0.1,0.2-0.2,0.2h-3c-0.1,0-0.2-0.1-0.2-0.2V128c0-0.1,0.1-0.2,0.2-0.2h3
				c0.1,0,0.2,0.1,0.2,0.2V129.8z M196,126.4c0,0.1-0.1,0.2-0.2,0.2h-3c-0.1,0-0.2-0.1-0.2-0.2v-1.9c0-0.1,0.1-0.2,0.2-0.2h3
				c0.1,0,0.2,0.1,0.2,0.2V126.4z M196,123c0,0.1-0.1,0.2-0.2,0.2h-3c-0.1,0-0.2-0.1-0.2-0.2v-1.9c0-0.1,0.1-0.2,0.2-0.2h3
				c0.1,0,0.2,0.1,0.2,0.2V123z M196,119.6c0,0.1-0.1,0.2-0.2,0.2h-3c-0.1,0-0.2-0.1-0.2-0.2v-1.9c0-0.1,0.1-0.2,0.2-0.2h3
				c0.1,0,0.2,0.1,0.2,0.2V119.6z"/>
		</g>
		<polygon class="st1" points="156.2,84.1 156.2,86.5 156.2,86.5 157.9,84.9 157.9,84.9 157.9,95.4 160.2,95.4 160.2,81.7 
			158.4,81.7 		"/>
		<polygon class="st1" points="161.5,84.1 161.5,86.5 161.5,86.5 163.1,84.9 163.1,84.9 163.1,95.4 165.5,95.4 165.5,81.7 
			163.6,81.7 		"/>
		<g>
			<path class="st1" d="M169.6,86.2v-0.8h0.9v0.8c0,0.3,0.1,0.5,0.5,0.5c0.3,0,0.4-0.2,0.4-0.5V86c0-0.3-0.1-0.5-0.4-0.8l-0.6-0.6
				c-0.5-0.5-0.8-0.9-0.8-1.5v-0.2c0-0.7,0.4-1.3,1.4-1.3c1,0,1.3,0.5,1.3,1.3v0.5h-0.9v-0.5c0-0.3-0.2-0.5-0.5-0.5
				c-0.3,0-0.5,0.2-0.5,0.5V83c0,0.3,0.2,0.5,0.5,0.8l0.6,0.6c0.5,0.5,0.8,0.9,0.8,1.5v0.3c0,0.8-0.4,1.3-1.4,1.3
				S169.6,86.9,169.6,86.2"/>
			<path class="st1" d="M175.6,81.7V86c0,0.9-0.4,1.5-1.4,1.5c-1,0-1.4-0.6-1.4-1.5v-4.3h1v4.4c0,0.3,0.1,0.6,0.5,0.6
				c0.3,0,0.5-0.2,0.5-0.6v-4.4H175.6z"/>
			<path class="st1" d="M176,86.2v-0.8h0.9v0.8c0,0.3,0.1,0.5,0.5,0.5c0.3,0,0.4-0.2,0.4-0.5V86c0-0.3-0.1-0.5-0.4-0.8l-0.6-0.6
				c-0.5-0.5-0.8-0.9-0.8-1.5v-0.2c0-0.7,0.4-1.3,1.4-1.3c1,0,1.3,0.5,1.3,1.3v0.5h-0.9v-0.5c0-0.3-0.2-0.5-0.5-0.5
				c-0.3,0-0.5,0.2-0.5,0.5V83c0,0.3,0.2,0.5,0.5,0.8l0.6,0.6c0.5,0.5,0.8,0.9,0.8,1.5v0.3c0,0.8-0.4,1.3-1.4,1.3S176,86.9,176,86.2
				"/>
		</g>
		<polygon class="st1" points="179,81.7 179,82.5 179.8,82.5 179.8,87.4 180.7,87.4 180.7,82.5 181.5,82.5 181.5,81.7 		"/>
		<path class="st1" d="M181.3,87.4l1.1-5.7h1.1l1.1,5.7h-1l-0.2-1h-1l-0.2,1H181.3z M182.5,85.6h0.8l-0.4-2.3h0L182.5,85.6z"/>
		<rect x="184.9" y="81.7" class="st1" width="1" height="5.7"/>
		<polygon class="st1" points="188.3,81.7 188.3,85 187.3,81.7 186.3,81.7 186.3,87.4 187.1,87.4 187.1,83.8 188.3,87.4 189.1,87.4 
			189.1,81.7 		"/>
		<path class="st1" d="M189.4,87.4l1.1-5.7h1.1l1.1,5.7h-1l-0.2-1h-1l-0.2,1H189.4z M190.6,85.6h0.8l-0.4-2.3h0L190.6,85.6z"/>
		<g>
			<path class="st1" d="M193,81.7h1.4c1,0,1.3,0.4,1.3,1.3v0.6c0,0.5-0.2,0.8-0.6,0.9c0.5,0.1,0.7,0.4,0.7,1v0.8
				c0,0.8-0.4,1.3-1.3,1.3H193V81.7z M194,84.1h0.3c0.3,0,0.5-0.2,0.5-0.5v-0.7c0-0.3-0.1-0.5-0.5-0.5H194V84.1z M194,84.8v1.8h0.4
				c0.3,0,0.5-0.2,0.5-0.5v-0.9c0-0.3-0.1-0.5-0.5-0.5H194z"/>
		</g>
		<polygon class="st1" points="196.2,81.7 196.2,87.4 198.3,87.4 198.3,86.6 197.2,86.6 197.2,81.7 		"/>
		<polygon class="st1" points="198.7,81.7 198.7,87.4 201,87.4 201,86.6 199.6,86.6 199.6,84.9 200.6,84.9 200.6,84.1 199.6,84.1 
			199.6,82.5 201,82.5 201,81.7 		"/>
		<g>
			<path class="st1" d="M202.7,85.9v-2.8c0-0.9,0.4-1.5,1.4-1.5c1.1,0,1.4,0.6,1.4,1.4v0.7h-0.9V83c0-0.4-0.1-0.6-0.5-0.6
				c-0.3,0-0.5,0.2-0.5,0.6v3.1c0,0.3,0.1,0.6,0.5,0.6c0.3,0,0.5-0.2,0.5-0.6V85h0.9v1c0,0.8-0.3,1.4-1.4,1.4
				C203.2,87.5,202.7,86.8,202.7,85.9"/>
		</g>
		<rect x="206" y="81.7" class="st1" width="1" height="5.7"/>
		<polygon class="st1" points="207.3,81.7 207.3,82.5 208.1,82.5 208.1,87.4 209.1,87.4 209.1,82.5 209.9,82.5 209.9,81.7 		"/>
		<rect x="210.2" y="81.7" class="st1" width="1" height="5.7"/>
		<polygon class="st1" points="211.6,81.7 211.6,87.4 213.9,87.4 213.9,86.6 212.6,86.6 212.6,84.9 213.6,84.9 213.6,84.1 
			212.6,84.1 212.6,82.5 213.9,82.5 213.9,81.7 		"/>
		<g>
			<path class="st1" d="M214.3,86.2v-0.8h0.9v0.8c0,0.3,0.1,0.5,0.5,0.5c0.3,0,0.4-0.2,0.4-0.5V86c0-0.3-0.1-0.5-0.4-0.8l-0.6-0.6
				c-0.5-0.5-0.8-0.9-0.8-1.5v-0.2c0-0.7,0.4-1.3,1.4-1.3c1,0,1.3,0.5,1.3,1.3v0.5h-0.9v-0.5c0-0.3-0.2-0.5-0.5-0.5
				c-0.3,0-0.5,0.2-0.5,0.5V83c0,0.3,0.2,0.5,0.5,0.8l0.6,0.6c0.5,0.5,0.8,0.9,0.8,1.5v0.3c0,0.8-0.4,1.3-1.4,1.3
				S214.3,86.9,214.3,86.2"/>
		</g>
		<path class="st1" d="M169.5,95.4l1.1-5.7h1.1l1.1,5.7h-1l-0.2-1h-1l-0.2,1H169.5z M170.8,93.6h0.8l-0.4-2.3h0L170.8,93.6z"/>
		<polygon class="st1" points="175.1,89.7 175.1,93 174.1,89.7 173.1,89.7 173.1,95.4 173.9,95.4 173.9,91.8 175.1,95.4 175.9,95.4 
			175.9,89.7 		"/>
		<g>
			<path class="st1" d="M179.2,91.2v2.7c0,0.9-0.4,1.5-1.4,1.5h-1.5v-5.7h1.5C178.9,89.7,179.2,90.3,179.2,91.2 M177.7,94.6
				c0.4,0,0.5-0.2,0.5-0.6v-3c0-0.3-0.2-0.6-0.5-0.6h-0.4v4.2H177.7z"/>
			<path class="st1" d="M181.1,94v-2.8c0-0.9,0.4-1.5,1.4-1.5c1.1,0,1.4,0.6,1.4,1.4v0.7H183V91c0-0.4-0.1-0.6-0.5-0.6
				c-0.3,0-0.5,0.2-0.5,0.6v3.1c0,0.3,0.1,0.6,0.5,0.6c0.3,0,0.5-0.2,0.5-0.6v-1.1h0.9v1c0,0.8-0.3,1.4-1.4,1.4
				C181.5,95.5,181.1,94.8,181.1,94"/>
			<path class="st1" d="M184.3,94v-2.8c0-0.9,0.4-1.5,1.5-1.5c1,0,1.5,0.7,1.5,1.5V94c0,0.9-0.4,1.5-1.5,1.5
				C184.7,95.5,184.3,94.8,184.3,94 M186.2,94.1V91c0-0.3-0.2-0.6-0.5-0.6c-0.3,0-0.5,0.2-0.5,0.6v3.1c0,0.3,0.2,0.6,0.5,0.6
				C186.1,94.7,186.2,94.5,186.2,94.1"/>
		</g>
		<polygon class="st1" points="190.3,91.7 190.3,91.7 189.6,95.4 189.2,95.4 188.5,91.7 188.5,91.7 188.5,95.4 187.7,95.4 
			187.7,89.7 188.8,89.7 189.4,92.9 189.4,92.9 190,89.7 191.2,89.7 191.2,95.4 190.3,95.4 		"/>
		<polygon class="st1" points="194.3,91.7 194.3,91.7 193.6,95.4 193.2,95.4 192.5,91.7 192.5,91.7 192.5,95.4 191.7,95.4 
			191.7,89.7 192.8,89.7 193.4,92.9 193.4,92.9 194,89.7 195.2,89.7 195.2,95.4 194.3,95.4 		"/>
		<g>
			<path class="st1" d="M198.4,89.7V94c0,0.9-0.4,1.5-1.4,1.5c-1,0-1.4-0.6-1.4-1.5v-4.3h1v4.4c0,0.3,0.1,0.6,0.5,0.6
				c0.3,0,0.5-0.2,0.5-0.6v-4.4H198.4z"/>
		</g>
		<polygon class="st1" points="200.9,89.7 200.9,93 199.8,89.7 198.9,89.7 198.9,95.4 199.7,95.4 199.7,91.8 200.8,95.4 201.7,95.4 
			201.7,89.7 		"/>
		<rect x="202.1" y="89.7" class="st1" width="1" height="5.7"/>
		<polygon class="st1" points="203.5,89.7 203.5,90.5 204.3,90.5 204.3,95.4 205.2,95.4 205.2,90.5 206,90.5 206,89.7 		"/>
		<rect x="206.4" y="89.7" class="st1" width="1" height="5.7"/>
		<polygon class="st1" points="207.8,89.7 207.8,95.4 210.1,95.4 210.1,94.6 208.8,94.6 208.8,92.9 209.7,92.9 209.7,92.1 
			208.8,92.1 208.8,90.5 210.1,90.5 210.1,89.7 		"/>
		<g>
			<path class="st1" d="M210.4,94.2v-0.8h0.9v0.8c0,0.3,0.1,0.5,0.5,0.5c0.3,0,0.4-0.2,0.4-0.5V94c0-0.3-0.1-0.5-0.4-0.8l-0.6-0.6
				c-0.5-0.5-0.8-0.9-0.8-1.5v-0.2c0-0.7,0.4-1.3,1.4-1.3c1,0,1.3,0.5,1.3,1.3v0.5h-0.9v-0.5c0-0.3-0.2-0.5-0.5-0.5
				c-0.3,0-0.5,0.2-0.5,0.5V91c0,0.3,0.2,0.5,0.5,0.8l0.6,0.6c0.5,0.5,0.8,0.9,0.8,1.5v0.3c0,0.8-0.4,1.3-1.4,1.3
				S210.4,95,210.4,94.2"/>
		</g>
		
			<rect x="301.2" y="76.2" transform="matrix(1.353460e-03 -1 1 1.353460e-03 224.641 444.8819)" class="st13" width="67.6" height="67.6"/>
		<g>
			<path class="st1" d="M360.5,118.6c-1.8-2.5-9.9-12.6-25-12.6c-15.1,0-23.2,10-25,12.5c-0.1,0.1-0.1,0.2-0.2,0.3
				c0.1,0.1,0.1,0.2,0.2,0.3c1.8,2.5,9.9,12.6,25,12.6c15.1,0,23.2-10,25-12.5c0.1-0.1,0.1-0.2,0.2-0.3
				C360.7,118.8,360.6,118.7,360.5,118.6 M327.2,112.3c0.1-0.2,0.6-0.8,0.6-0.8c0.1-0.2,0.3-0.2,0.5-0.2c0.2,0,0.4,0.1,0.4,0.2
				c0,0.1-0.1,0.6-0.1,0.7c-0.2,0.2-0.8,0.5-1.1,0.5C327.2,112.6,327.1,112.4,327.2,112.3 M326.6,113.4
				C326.6,113.4,326.7,113.3,326.6,113.4c0.2-0.3,0.6-0.3,0.9-0.4c0.3,0,0.6,0.1,0.7,0.3c0,0.2-0.7,0.5-0.8,0.6
				c-0.4,0.3-0.9,1-1.3,1.1c-0.1,0-0.2,0-0.3,0C326.1,114.4,326.3,113.9,326.6,113.4 M332.2,125c-0.2,0.8-0.4,1.1-0.6,1.3
				c-0.2,0.3-1,0.6-1.4,0.5c-0.5,0-0.5-1.3-0.5-2c0-0.2-0.3,0.4-0.5-0.9c-0.1-0.9-0.7,0.1-0.7-0.5c0-0.6-0.3-0.5-0.6-0.8
				c-0.3-0.4-0.7,0-1.1,0.2c-0.4,0.2-0.2,0.3-0.8,0.1c0,0,0,0,0,0c-0.5-1.3-0.8-2.6-0.8-4.1c0-0.4,0-0.7,0.1-1c0,0,0-0.1,0.1-0.1
				c0.6-0.7,0.5-0.8,0.5-0.8l0.6-0.2c0,0,1,0.2,1.7,0.4c0.6,0.2,1.6,0.7,2.1,0.5c0.4-0.2,0.7-0.4,0.7-0.7c0-0.4-0.4-0.5-0.8-0.2
				c-0.2,0.1-0.5-0.6-0.7-0.6c-0.2,0,0.3,0.9,0.1,0.9c-0.2,0-0.6-0.9-0.7-1c-0.1-0.1-0.4-0.5-0.7-0.2c-0.6,0.6-1.6,0.5-1.8,0.7
				c-0.6,0.5-0.8-0.2-0.8-0.5c0-0.1,0.1-0.2,0.1-0.3c0.2-0.2,0.9-0.3,1.2-0.1c0.3,0.2,0.5,0,0.6-0.2c0.1-0.1,0.1-0.3,0-0.4
				c-0.1-0.1,0.1-0.3,0.3-0.3s0.6-0.4,0.8-0.5c0.2-0.1,1.2-0.2,1.6,0c0.4,0.2,0.8,0,1-0.2c0.3-0.3,0.6-0.6,0.8-0.6
				c0.2-0.1-0.4-0.6-0.8,0c-0.4,0.5-0.7,0.6-0.9,0.6c-0.2,0-1.4-0.3-1.6-0.7c-0.1-0.4,0.4-0.7,0.8-0.9c0.4-0.2,1.7-0.2,2-0.3
				c0.6-0.1,1.4-0.5,1.9-0.2c0.4,0.3-1.7,0.8-1,1.1c0.2,0.1,1.4-0.6,1.8-0.8c0.9-0.5-0.9-0.6-0.6-1.6c0.3-1.1-2.2-0.7-3.4-0.6
				c1.6-1,3.6-1.7,5.7-1.6c5,0,9.1,3.4,10.2,8.1c0,0.2,0,0.4-0.1,0.5c-0.1,0.4-0.8,0.7-1.2,0.1c-0.1-0.2-0.6-0.6-0.5,0.1
				c0,0.7,0.7,0.8,0,1.2c-0.7,0.4-0.8,0.3-1.1,0.4c-0.3,0.1-0.6,0.9-0.5,1.3c0.1,0.4,1,1.5,0.3,1.5c-0.2,0-1.4-0.9-1.6-1.4
				c-0.2-0.6-0.5-1.1-0.6-1.6c-0.2-0.4-0.6-0.5-1-0.3c-0.4,0.3,0.1,0.5-0.2,1.1c-0.3,0.5-0.5,1-0.9,0.6c-1-1.2-2.5-0.6-2.7-1.9
				c-0.1-0.7-0.7-0.6-1.2-1c-0.5-0.4-0.8-0.6-0.9-0.3c-0.1,0.3,1.6,1.6,1.7,1.9c0.2,0.5-0.5,1-1,1.1c-0.5,0.1-0.7-0.3-1.2-0.8
				c-0.5-0.5-0.7-0.9-0.7-0.5c-0.1,0.6,0.5,1.4,1,1.7c0.4,0.3,0.9,0.4,0.8,0.8c-0.1,0.4,0,0.2-0.5,0.7c-0.5,0.5-0.6,0.6-0.5,1.3
				c0,0.7-0.1,0.7-0.2,1.2C332.7,124.6,332.5,124.2,332.2,125 M343.5,120.8c0.4,0,0.9,0.5,0.7,0.7c-0.2,0.2-0.7,0.1-1-0.1
				S343.4,120.8,343.5,120.8 M343.1,120.5c-0.1,0-0.2-0.2-0.3-0.4c-0.1-0.3,0.1-0.4,0.3-0.3c0.2,0.1,0.5,0.4,0.5,0.6
				C343.6,120.5,343.2,120.5,343.1,120.5 M338.4,120.5c-0.2,0.2-0.7,0.1-1-0.1c-0.3-0.2,0.2-0.5,0.3-0.6
				C338.1,119.8,338.6,120.3,338.4,120.5 M334.1,122.5c-0.1,0.2-0.5,2-0.8,1.8c-0.3-0.2,0.1-2,0.2-2.2
				C333.9,121.4,334.8,121.4,334.1,122.5 M335.6,129.4c-1,0-2-0.2-2.9-0.4c-0.1-0.1-0.2-0.3-0.1-0.5c0.3-0.8,1.3-1.2,2.1-1.2
				c1.7-0.2,3.9,1.1,4.3,0.9c0.4-0.2,1.1-1.1,2.1-1.1c0.7,0,0.7,0.2,1,0.2C340.2,128.6,338,129.4,335.6,129.4 M343,126.3
				c-0.1,0-0.2-0.1-0.3-0.1c-0.6-0.3-0.5,0.2-0.8,0.1c-0.3-0.1,0.3-0.8-0.5-0.2c-0.8,0.5-0.6-0.1-1-1c-0.4-0.9,0.4-2,1.1-2.2
				c0.9-0.3,1.5-0.4,1.9-0.5c1.3-0.3,1.5-1.1,1.8-0.6c0,0.1,0.1,0.2,0.1,0.2c0.1,0.1,0.2,0.4,0.2,0.7C344.8,124,344,125.3,343,126.3
				 M345.9,121c-0.3-0.1-1.5-1.7-0.5-2.8c0.2-0.2-0.3-0.7-0.2-0.7c0.5,0,0.8,0.3,0.9,0.7c0,0.2,0,0.4,0,0.6
				C346.1,119.6,346,120.3,345.9,121"/>
		</g>
		<polygon class="st1" points="309.7,81.6 309.7,95.3 307.4,95.3 307.4,84.8 307.3,84.8 305.7,86.5 305.7,86.5 305.7,84.1 
			307.8,81.6 		"/>
		<g>
			<path class="st1" d="M317.3,84.6v1.2c0,1.1-0.6,1.9-1.6,2.2c1.2,0.3,1.7,1.1,1.7,2.3l0,2c0,1.9-1,3.1-3.3,3.1
				c-2.3,0-3.2-1.3-3.2-3.4v-1.8l2.1,0l0,2c0,0.8,0.3,1.3,1.1,1.3c0.7,0,1-0.5,1-1.2l0-2.3c0-0.7-0.3-1.1-1.1-1.1l-1,0l0-1.8h0.9
				c0.8,0,1.2-0.4,1.2-1.1v-1.5c0-0.7-0.3-1.2-1-1.2c-0.7,0-1,0.5-1,1.3l0,1.4l-2.1,0v-1.2c0-2,0.8-3.4,3.2-3.4
				C316.3,81.5,317.3,82.7,317.3,84.6"/>
			<path class="st1" d="M322.1,85.8l0-2.8c0-0.9,0.4-1.5,1.4-1.5c1.1,0,1.4,0.6,1.4,1.4l0,0.7H324v-0.8c0-0.4-0.1-0.6-0.5-0.6
				c-0.3,0-0.5,0.2-0.5,0.6l0,3.1c0,0.3,0.1,0.6,0.5,0.6c0.3,0,0.5-0.2,0.5-0.6V85h0.9l0,1c0,0.8-0.3,1.4-1.4,1.4
				C322.5,87.4,322.1,86.7,322.1,85.8"/>
		</g>
		<polygon class="st1" points="325.4,87.3 327.5,87.3 327.5,86.5 326.4,86.5 326.4,81.6 325.4,81.6 		"/>
		<polygon class="st1" points="327.9,81.6 327.9,87.3 328.9,87.3 328.9,81.6 		"/>
		<polygon class="st1" points="332.1,83.6 332.1,83.6 331.4,87.3 331,87.3 330.3,83.6 330.3,83.6 330.3,87.3 329.5,87.3 329.5,81.6 
			330.6,81.6 331.2,84.8 331.2,84.8 331.8,81.6 333,81.6 333,87.3 332.1,87.3 		"/>
		<path class="st1" d="M333.4,87.3l1.1-5.7l1.1,0l1.1,5.7h-1l-0.2-1l-1,0l-0.2,1H333.4z M334.6,85.5h0.8l-0.4-2.3h0L334.6,85.5z"/>
		<polygon class="st1" points="336.5,82.4 337.3,82.4 337.3,87.3 338.3,87.3 338.3,82.4 339.1,82.4 339.1,81.6 336.5,81.6 		"/>
		<polygon class="st1" points="339.5,87.3 341.8,87.3 341.8,86.6 340.5,86.6 340.5,84.8 341.5,84.8 341.5,84 340.5,84 340.5,82.4 
			341.8,82.4 341.8,81.6 339.6,81.6 		"/>
		<path class="st1" d="M321.9,95.3l1.1-5.7h1.1l1.1,5.7h-1l-0.2-1l-1,0l-0.2,1H321.9z M323.1,93.5h0.8l-0.4-2.3h0L323.1,93.5z"/>
		<g>
			<path class="st1" d="M325.4,93.9l0-2.8c0-0.9,0.4-1.5,1.4-1.5c1.1,0,1.4,0.6,1.4,1.4l0,0.7h-0.9v-0.8c0-0.4-0.1-0.6-0.5-0.6
				c-0.3,0-0.5,0.2-0.5,0.6l0,3.1c0,0.3,0.1,0.6,0.5,0.6c0.3,0,0.5-0.2,0.5-0.6V93h0.9l0,1c0,0.8-0.3,1.4-1.4,1.4
				C325.9,95.4,325.4,94.8,325.4,93.9"/>
		</g>
		<polygon class="st1" points="328.6,90.4 329.4,90.4 329.4,95.4 330.3,95.4 330.3,90.4 331.1,90.4 331.1,89.6 328.6,89.6 		"/>
		<polygon class="st1" points="331.6,89.6 331.6,95.4 332.5,95.4 332.6,89.6 		"/>
		<g>
			<path class="st1" d="M333.1,93.9l0-2.8c0-0.9,0.4-1.5,1.5-1.5c1,0,1.5,0.7,1.5,1.5l0,2.8c0,0.9-0.4,1.5-1.5,1.5
				C333.5,95.4,333.1,94.8,333.1,93.9 M335.1,94l0-3.1c0-0.3-0.2-0.6-0.5-0.6c-0.3,0-0.5,0.2-0.5,0.6l0,3.1c0,0.3,0.2,0.6,0.5,0.6
				C334.9,94.6,335.1,94.4,335.1,94"/>
		</g>
		<polygon class="st1" points="336.6,95.4 337.4,95.4 337.4,91.8 338.5,95.4 339.4,95.4 339.4,89.6 338.6,89.6 338.6,92.9 
			337.5,89.6 336.6,89.6 		"/>
		<rect x="376" y="76.1" class="st14" width="67.7" height="67.7"/>
		<g>
			<path class="st1" d="M404.1,122c0.1,0,0.2,0.1,0.2,0.2v5c0,0.1-0.1,0.2-0.2,0.2h-2c-0.1,0-0.2-0.1-0.2-0.2v-5
				c0-0.1,0.1-0.2,0.2-0.2H404.1z"/>
			<path class="st1" d="M426.1,129.3h-33c-0.1,0-0.2,0.1-0.2,0.2v2c0,0.1,0.1,0.1,0.2,0.1h33c0.1,0,0.2-0.1,0.2-0.1v-2
				C426.2,129.4,426.2,129.3,426.1,129.3"/>
			<path class="st1" d="M426.1,133.3h-33c-0.1,0-0.2,0.1-0.2,0.1v2c0,0.1,0.1,0.1,0.2,0.1h33c0.1,0,0.2-0.1,0.2-0.1v-2
				C426.2,133.4,426.2,133.3,426.1,133.3"/>
			<path class="st1" d="M419.8,116.5c-0.4-0.3-1.5-1.1-2.9-1.1c-1,0-1.9,0.4-2.7,1.1c-0.1,0.1-0.1,0.1-0.1,0.2v0.2
				c0,0.1,0,0.2,0.1,0.2c0.1,0.1,0.1,0.1,0.2,0.1c0,0,0,0,0.1,0c0.1,0,0.1-0.1,0.2-0.1c0.2-0.1,0.6-0.3,1.3-0.3
				c0.7,0,2.1,0.2,3.4,1.4l0,0c0.1,0.1,0.2,0.1,0.3,0.1c0.1,0,0.2,0,0.3-0.1l0,0c1.3-1.2,2.7-1.4,3.4-1.4c0.7,0,1.2,0.2,1.3,0.3
				c0,0,0.1,0.1,0.2,0.1c0,0,0.1,0,0.2,0c0.1,0,0.2-0.1,0.2-0.3v-0.2c0-0.1,0-0.2-0.1-0.2c-0.8-0.8-1.7-1.2-2.7-1.2
				C421.3,115.4,420.2,116.1,419.8,116.5"/>
			<path class="st1" d="M417.7,103.3c-0.1,0-0.1,0.1-0.1,0.2l0,0.1c0,0.1,0,0.2,0,0.2c0.1,0.1,0.1,0.1,0.2,0.1c0,0,0,0,0,0
				c0.1,0,0.1,0,0.2,0c0,0,0.1,0,0.2,0c0.2,0,1.5,0,2.4,1.5l0,0c0,0.1,0.1,0.1,0.2,0.2c0,0,0.1,0,0.1,0c0.1,0,0.1,0,0.2,0l0,0
				c0.5-0.2,1-0.4,1.5-0.4c0.8,0,1.4,0.3,1.5,0.5c0,0,0.1,0.1,0.1,0.1c0,0,0.1,0,0.1,0.1c0,0,0,0,0,0c0,0,0,0,0,0c0,0,0.1,0,0.1,0
				c0.1,0,0.1-0.1,0.1-0.2l0-0.1c0,0,0-0.1,0-0.1c0-0.1,0-0.1,0-0.1c-0.6-1.1-1.6-1.3-2.2-1.3c-0.5,0-0.9,0.1-1.2,0.2
				c-0.3-0.4-1.1-1.2-2.2-1.2C418.6,103,418.2,103.1,417.7,103.3"/>
			<path class="st1" d="M410.8,108.4l0,0.1c0,0.1,0.1,0.2,0.1,0.2c0.1,0,0.1,0.1,0.2,0c0,0,0,0,0,0c0.1,0,0.1-0.1,0.1-0.1
				c0.1-0.1,0.6-0.3,1.3-0.3c0.6,0,1.6,0.2,2.6,1l0,0c0.1,0.1,0.2,0.1,0.3,0.1h0c0.1,0,0.2-0.1,0.3-0.1l0,0c1.1-1.2,2.3-1.3,2.9-1.3
				c0.4,0,0.7,0.1,0.9,0.2c0,0,0.1,0.1,0.2,0.1c0,0,0.1,0,0.1,0c0,0,0.1,0,0.1,0c0.1,0,0.2-0.2,0.2-0.3l0-0.1c0-0.1,0-0.1-0.1-0.2
				c-0.7-0.6-1.4-0.8-2.1-0.8c-1.2,0-2.1,0.7-2.5,1c-0.4-0.2-1.2-0.7-2.2-0.7c-0.9,0-1.7,0.4-2.3,1.1
				C410.8,108.2,410.8,108.3,410.8,108.4"/>
			<path class="st1" d="M394,111c0-2,1.6-3.6,3.6-3.6c0.1,0,0.2,0,0.2,0c0.2-2.5,2.3-4.5,4.8-4.5c2.7,0,4.8,2.2,4.8,4.8
				c0,0.8-0.2,1.5-0.5,2.1c2.4,0.5,4.2,2.7,4.2,5.3c0,3-2.4,5.4-5.4,5.4c-0.2,0-7.2,0-7.2,0c-2.1,0-3.8-1.7-3.8-3.8
				c0-1,0.4-1.9,1-2.6C394.8,113.5,394,112.4,394,111"/>
		</g>
		<polygon class="st1" points="380.9,84.1 380.9,86.5 380.9,86.5 382.5,84.9 382.5,84.9 382.5,95.4 384.8,95.4 384.8,81.6 383,81.6 
					"/>
		<g>
			<path class="st1" d="M390.3,86c-0.9,0-1.6,0.3-1.9,1h0v-3.4h4v-1.9h-6.1v7.7h2.1v-0.3c0-0.8,0.4-1.3,1-1.3c0.7,0,1,0.5,1,1.2v3.3
				c0,0.7-0.3,1.2-1,1.2c-0.8,0-1.1-0.5-1.1-1.3v-1.7h-2.1v1.6c0,2.1,0.8,3.4,3.2,3.4c2.3,0,3.3-1.2,3.3-3.1V89
				C392.7,86.9,391.6,86,390.3,86"/>
		</g>
		<polygon class="st1" points="397.6,81.6 397.6,87.3 399.7,87.3 399.7,86.5 398.6,86.5 398.6,81.6 		"/>
		<rect x="400.2" y="81.6" class="st1" width="1" height="5.7"/>
		<polygon class="st1" points="401.7,81.6 401.7,87.3 402.7,87.3 402.7,84.8 403.6,84.8 403.6,84 402.7,84 402.7,82.4 404,82.4 
			404,81.6 		"/>
		<polygon class="st1" points="404.4,81.6 404.4,87.3 406.7,87.3 406.7,86.5 405.3,86.5 405.3,84.8 406.3,84.8 406.3,84 405.3,84 
			405.3,82.4 406.7,82.4 406.7,81.6 		"/>
		<g>
			<path class="st1" d="M397.6,93.9v-2.8c0-0.9,0.4-1.5,1.5-1.5c1,0,1.5,0.7,1.5,1.5v2.8c0,0.9-0.4,1.5-1.5,1.5
				C398.1,95.4,397.6,94.8,397.6,93.9 M399.6,94V91c0-0.3-0.2-0.6-0.5-0.6c-0.3,0-0.5,0.2-0.5,0.6V94c0,0.3,0.2,0.6,0.5,0.6
				C399.4,94.6,399.6,94.4,399.6,94"/>
		</g>
		<polygon class="st1" points="403.1,89.6 403.1,92.9 402,89.6 401.1,89.6 401.1,95.4 401.9,95.4 401.9,91.8 403,95.4 403.9,95.4 
			403.9,89.6 		"/>
		<polygon class="st1" points="406.5,89.6 406.5,95.4 408.6,95.4 408.6,94.6 407.5,94.6 407.5,89.6 		"/>
		<path class="st1" d="M408.9,95.4l1.1-5.7h1.1l1.1,5.7h-1l-0.2-1h-1l-0.2,1H408.9z M410.1,93.5h0.8l-0.4-2.3h0L410.1,93.5z"/>
		<polygon class="st1" points="414.6,89.6 414.6,92.9 413.5,89.6 412.6,89.6 412.6,95.4 413.4,95.4 413.4,91.8 414.5,95.4 
			415.4,95.4 415.4,89.6 		"/>
		<g>
			<path class="st1" d="M418.8,91.2v2.7c0,0.9-0.4,1.5-1.4,1.5h-1.5v-5.7h1.5C418.4,89.6,418.8,90.3,418.8,91.2 M417.3,94.6
				c0.4,0,0.5-0.2,0.5-0.6v-3c0-0.3-0.2-0.6-0.5-0.6h-0.4v4.2H417.3z"/>
		</g>
		<rect x="450.9" y="76.1" class="st15" width="67.7" height="67.7"/>
		<g>
			<path class="st1" d="M495.9,106.1c0,0-0.7,0.9-0.5,1.7c0.2,0.9,1.2,1.4,1.2,1.4s0.7-0.9,0.5-1.7
				C496.9,106.7,495.9,106.1,495.9,106.1"/>
			<path class="st1" d="M494.8,111.2c0,0,0.7-0.9,0.5-1.7c-0.2-0.9-1.2-1.4-1.2-1.4s-0.7,0.9-0.5,1.7
				C493.9,110.7,494.8,111.2,494.8,111.2"/>
			<path class="st1" d="M497.5,110.2c0,0,0.7,0.7,1.5,0.6c0.8-0.1,1.4-0.9,1.4-0.9s-0.7-0.7-1.5-0.6
				C498.1,109.4,497.5,110.2,497.5,110.2"/>
			<path class="st1" d="M498.7,106.5c-0.6,0.7-0.6,1.8-0.6,1.8s1.1,0.1,1.8-0.6c0.6-0.7,0.6-1.8,0.6-1.8S499.3,105.8,498.7,106.5"/>
			<path class="st1" d="M497.3,112.8c0.8,0.1,1.5-0.6,1.5-0.6s-0.5-0.8-1.3-0.9c-0.8-0.1-1.5,0.6-1.5,0.6S496.5,112.7,497.3,112.8"
				/>
			<path class="st1" d="M498,125.6H492c-0.5,0-0.8,0.4-0.8,0.8c0,0.5,0.4,0.8,0.8,0.8h5.9c0.5,0,0.8-0.4,0.8-0.8
				C498.8,125.9,498.4,125.6,498,125.6"/>
			<path class="st1" d="M498,134.8H492c-0.5,0-0.8,0.4-0.8,0.8c0,0.5,0.4,0.8,0.8,0.8h5.9c0.5,0,0.8-0.4,0.8-0.8
				C498.8,135.1,498.4,134.8,498,134.8"/>
			<path class="st1" d="M471.4,123.5c-0.1,0-0.3-0.1-0.4-0.1C470.9,123.4,471.1,123.5,471.4,123.5"/>
			<path class="st1" d="M497.7,127.8h-5.5c-0.3,0-0.5,0.2-0.5,0.5v1.7l-3.6,0.4l-5.2-0.1V127c0.7-0.1,1.4-0.2,2.1-0.4
				c5-1.4,6.1-4.6,6-7.4c-0.1-2.9,0.8-4.1,2.2-4.6c0.4-0.1,0.8-0.2,1.1-0.3c0,0.7,0.2,1.6,0.5,2.6c0.1,0,0.2,0,0.4,0
				c-0.3-1-0.5-1.9-0.5-2.6c0.7-0.1,1.2,0,1.2,0s-0.5-0.3-1.1-0.8c0.2-1.4,1.1-2.2,1.9-3.1c0.5-0.5,1-1,1.3-1.6l-0.3-0.2
				c-0.4,0.6-0.8,1-1.3,1.5c-0.8,0.9-1.7,1.7-2,3.1c-0.3-0.2-0.6-0.5-0.9-0.9c-1.2-1.4-2.8-0.4-5.1,1.8c-2.3,2.1-5.1,2.2-7.9-0.7
				c-3.7-3.8-6.9-3.8-9.1-3.5c1.5,0.6,2,2.1,2.8,5.6c0.8,3.8,2.8,5.5,5.6,5.7c-1.3,0.2-1.6,0.4-3.7,1.8c-1.6,1.1-3.9,0.8-4.8,0.6
				c1.7,0.5,3.7,2.3,5.5,2.9c1,0.4,2.1,0.6,3.3,0.7v3.1l-9.9-0.2v2.1l18-0.4l3.6,0.4v1.7c0,0.3,0.2,0.5,0.5,0.5h5.5
				c0.3,0,0.5-0.2,0.5-0.5v-5.4C498.2,128,498,127.8,497.7,127.8 M480.9,127.1c0.4,0,0.8,0,1.2,0v3.1l-1.2,0V127.1z"/>
			<path class="st1" d="M469.7,131.7c0,0.4-0.3,0.8-0.7,0.8h-0.4c-0.4,0-0.7-0.4-0.7-0.8v-1.5c0-0.4,0.3-0.8,0.7-0.8h0.4
				c0.4,0,0.7,0.4,0.7,0.8V131.7z"/>
		</g>
		<polygon class="st1" points="456,84.1 456,86.6 456,86.6 457.6,84.9 457.6,84.9 457.6,95.4 459.9,95.4 459.9,81.7 458.1,81.7 		
			"/>
		<g>
			<path class="st1" d="M468,92.1v-2c0-2.2-0.9-3.4-2.5-3.4c-1,0-1.6,0.4-1.9,1.1h0v-3c0-0.8,0.3-1.4,1.1-1.4c0.8,0,1.1,0.5,1.1,1.3
				v0.9h2.1v-0.7c0-2-0.7-3.4-3.2-3.4c-2.4,0-3.3,1.6-3.3,3.7v6.7c0,2.1,0.9,3.7,3.4,3.7C467.1,95.5,468,94.2,468,92.1 M465.7,92.3
				c0,0.9-0.3,1.4-1.1,1.4c-0.8,0-1.1-0.5-1.1-1.4v-2.5c0-0.8,0.4-1.3,1.1-1.3c0.8,0,1.1,0.5,1.1,1.4V92.3z"/>
			<path class="st1" d="M472.2,81.6h1.4c1,0,1.3,0.5,1.3,1.3v1.2c0,0.8-0.4,1.3-1.3,1.3h-0.5v1.9h-1V81.6z M473.2,82.4v2.3h0.4
				c0.3,0,0.5-0.2,0.5-0.5v-1.3c0-0.3-0.1-0.5-0.5-0.5H473.2z"/>
		</g>
		<polygon class="st1" points="475.5,81.6 475.5,87.3 477.8,87.3 477.8,86.5 476.5,86.5 476.5,84.8 477.4,84.8 477.4,84 476.5,84 
			476.5,82.4 477.8,82.4 477.8,81.6 		"/>
		<path class="st1" d="M478.2,87.3l1.1-5.7h1.1l1.1,5.7h-1l-0.2-1h-1l-0.2,1H478.2z M479.4,85.5h0.8l-0.4-2.3h0L479.4,85.5z"/>
		<g>
			<path class="st1" d="M481.7,85.9v-2.8c0-0.9,0.4-1.5,1.4-1.5c1.1,0,1.4,0.6,1.4,1.4v0.7h-0.9v-0.8c0-0.4-0.1-0.6-0.5-0.6
				c-0.3,0-0.5,0.2-0.5,0.6V86c0,0.3,0.1,0.6,0.5,0.6c0.3,0,0.5-0.2,0.5-0.6V85h0.9v1c0,0.8-0.3,1.4-1.4,1.4
				C482.1,87.4,481.7,86.7,481.7,85.9"/>
		</g>
		<polygon class="st1" points="485,81.6 485,87.3 487.3,87.3 487.3,86.5 486,86.5 486,84.8 486.9,84.8 486.9,84 486,84 486,82.4 
			487.3,82.4 487.3,81.6 		"/>
		<polygon class="st1" points="487.9,86.4 487.8,87.8 488.3,87.8 488.8,86.5 488.8,86.4 		"/>
		<g>
			<path class="st1" d="M492.8,81.6V86c0,0.8-0.4,1.4-1.3,1.4c-1,0-1.3-0.6-1.3-1.3V85h0.9v1.2c0,0.3,0.1,0.5,0.4,0.5
				c0.3,0,0.4-0.2,0.4-0.5v-4.5H492.8z"/>
			<path class="st1" d="M496.2,81.6v4.3c0,0.9-0.4,1.5-1.4,1.5c-1,0-1.4-0.6-1.4-1.5v-4.3h1V86c0,0.3,0.1,0.6,0.5,0.6
				c0.3,0,0.5-0.2,0.5-0.6v-4.4H496.2z"/>
			<path class="st1" d="M496.7,86.1v-0.8h0.9v0.8c0,0.3,0.1,0.5,0.5,0.5c0.3,0,0.4-0.2,0.4-0.5v-0.2c0-0.3-0.1-0.5-0.4-0.8l-0.6-0.6
				c-0.5-0.5-0.8-0.9-0.8-1.5v-0.2c0-0.7,0.4-1.3,1.4-1.3c1,0,1.3,0.5,1.3,1.3v0.5h-0.9v-0.5c0-0.3-0.2-0.5-0.5-0.5
				c-0.3,0-0.5,0.2-0.5,0.5v0.1c0,0.3,0.2,0.5,0.5,0.8l0.6,0.6c0.5,0.5,0.8,0.9,0.8,1.5v0.3c0,0.8-0.4,1.3-1.4,1.3
				C497,87.4,496.7,86.9,496.7,86.1"/>
		</g>
		<polygon class="st1" points="499.7,81.6 499.7,82.4 500.5,82.4 500.5,87.3 501.5,87.3 501.5,82.4 502.3,82.4 502.3,81.6 		"/>
		<rect x="502.7" y="81.6" class="st1" width="1" height="5.7"/>
		<g>
			<path class="st1" d="M504.2,85.9v-2.8c0-0.9,0.4-1.5,1.4-1.5c1.1,0,1.4,0.6,1.4,1.4v0.7h-0.9v-0.8c0-0.4-0.1-0.6-0.5-0.6
				c-0.3,0-0.5,0.2-0.5,0.6V86c0,0.3,0.1,0.6,0.5,0.6c0.3,0,0.5-0.2,0.5-0.6V85h0.9v1c0,0.8-0.3,1.4-1.4,1.4
				C504.7,87.4,504.2,86.7,504.2,85.9"/>
		</g>
		<polygon class="st1" points="507.6,81.6 507.6,87.3 509.9,87.3 509.9,86.5 508.5,86.5 508.5,84.8 509.5,84.8 509.5,84 508.5,84 
			508.5,82.4 509.9,82.4 509.9,81.6 		"/>
		<path class="st1" d="M472.1,95.4l1.1-5.7h1.1l1.1,5.7h-1l-0.2-1h-1l-0.2,1H472.1z M473.3,93.5h0.8l-0.4-2.3h0L473.3,93.5z"/>
		<polygon class="st1" points="477.7,89.6 477.7,92.9 476.7,89.6 475.8,89.6 475.8,95.4 476.6,95.4 476.6,91.8 477.7,95.4 
			478.5,95.4 478.5,89.6 		"/>
		<g>
			<path class="st1" d="M482,91.2v2.7c0,0.9-0.4,1.5-1.4,1.5h-1.5v-5.7h1.5C481.6,89.6,482,90.3,482,91.2 M480.5,94.6
				c0.4,0,0.6-0.2,0.6-0.6v-3c0-0.3-0.2-0.6-0.6-0.6h-0.4v4.2H480.5z"/>
			<path class="st1" d="M483.9,94.1v-0.8h0.9v0.8c0,0.3,0.1,0.5,0.5,0.5c0.3,0,0.4-0.2,0.4-0.5v-0.2c0-0.3-0.1-0.5-0.4-0.8l-0.6-0.6
				c-0.5-0.5-0.8-0.9-0.8-1.5v-0.2c0-0.7,0.4-1.3,1.4-1.3c1,0,1.3,0.5,1.3,1.3v0.5h-0.9v-0.5c0-0.3-0.2-0.5-0.5-0.5
				c-0.3,0-0.5,0.2-0.5,0.5v0.1c0,0.3,0.2,0.5,0.5,0.8l0.6,0.6c0.5,0.5,0.8,0.9,0.8,1.5v0.3c0,0.8-0.4,1.3-1.4,1.3
				C484.3,95.4,483.9,94.9,483.9,94.1"/>
		</g>
		<polygon class="st1" points="487,89.6 487,90.4 487.8,90.4 487.8,95.4 488.7,95.4 488.7,90.4 489.5,90.4 489.5,89.6 		"/>
		<g>
			<path class="st1" d="M490.9,92.7v2.6h-1v-5.7h1.4c1,0,1.3,0.5,1.3,1.3v0.7c0,0.6-0.2,1-0.8,1.1l0.9,2.6h-1L490.9,92.7z
				 M490.9,90.4v1.8h0.3c0.3,0,0.5-0.2,0.5-0.5v-0.8c0-0.3-0.1-0.5-0.5-0.5H490.9z"/>
			<path class="st1" d="M493.2,93.9v-2.8c0-0.9,0.4-1.5,1.5-1.5c1,0,1.5,0.7,1.5,1.5v2.8c0,0.9-0.4,1.5-1.5,1.5
				C493.7,95.4,493.2,94.8,493.2,93.9 M495.2,94V91c0-0.3-0.2-0.6-0.5-0.6c-0.3,0-0.5,0.2-0.5,0.6V94c0,0.3,0.2,0.6,0.5,0.6
				C495,94.6,495.2,94.4,495.2,94"/>
		</g>
		<polygon class="st1" points="498.7,89.6 498.7,92.9 497.6,89.6 496.7,89.6 496.7,95.4 497.5,95.4 497.5,91.8 498.6,95.4 
			499.5,95.4 499.5,89.6 		"/>
		<g>
			<path class="st1" d="M501.5,92.3h1.4v3.1h-0.7v-0.6c-0.1,0.4-0.4,0.7-0.9,0.7c-0.8,0-1.2-0.7-1.2-1.5v-2.8c0-0.9,0.4-1.5,1.4-1.5
				c1.1,0,1.4,0.6,1.4,1.4v0.5H502v-0.6c0-0.4-0.1-0.6-0.5-0.6c-0.3,0-0.5,0.2-0.5,0.6V94c0,0.3,0.1,0.6,0.5,0.6
				c0.3,0,0.5-0.2,0.5-0.5v-1h-0.5V92.3z"/>
		</g>
		<rect x="472.2" y="97.7" class="st1" width="1" height="5.7"/>
		<polygon class="st1" points="475.8,97.7 475.8,101 474.7,97.7 473.8,97.7 473.8,103.4 474.6,103.4 474.6,99.8 475.7,103.4 
			476.6,103.4 476.6,97.7 		"/>
		<g>
			<path class="st1" d="M477.1,102.2v-0.8h0.9v0.8c0,0.3,0.1,0.5,0.5,0.5c0.3,0,0.4-0.2,0.4-0.5V102c0-0.3-0.1-0.5-0.4-0.8l-0.6-0.6
				c-0.5-0.5-0.8-0.9-0.8-1.5v-0.2c0-0.7,0.4-1.3,1.4-1.3c1,0,1.3,0.5,1.3,1.3v0.5h-0.9v-0.5c0-0.3-0.2-0.5-0.5-0.5
				c-0.3,0-0.5,0.2-0.5,0.5V99c0,0.3,0.2,0.5,0.5,0.8l0.6,0.6c0.5,0.5,0.8,0.9,0.8,1.5v0.3c0,0.8-0.4,1.3-1.4,1.3
				C477.4,103.5,477.1,102.9,477.1,102.2"/>
		</g>
		<polygon class="st1" points="480.1,97.7 480.1,98.4 480.9,98.4 480.9,103.4 481.9,103.4 481.9,98.4 482.7,98.4 482.7,97.7 		"/>
		<rect x="483.1" y="97.7" class="st1" width="1" height="5.7"/>
		<polygon class="st1" points="484.5,97.7 484.5,98.4 485.3,98.4 485.3,103.4 486.3,103.4 486.3,98.4 487.1,98.4 487.1,97.7 		"/>
		<g>
			<path class="st1" d="M490.3,97.7v4.3c0,0.9-0.4,1.5-1.4,1.5c-1,0-1.4-0.6-1.4-1.5v-4.3h1v4.4c0,0.3,0.1,0.6,0.5,0.6
				c0.3,0,0.5-0.2,0.5-0.6v-4.4H490.3z"/>
		</g>
		<polygon class="st1" points="490.8,97.7 490.8,98.4 491.6,98.4 491.6,103.4 492.5,103.4 492.5,98.4 493.3,98.4 493.3,97.7 		"/>
		<rect x="493.8" y="97.7" class="st1" width="1" height="5.7"/>
		<g>
			<path class="st1" d="M495.3,101.9v-2.8c0-0.9,0.4-1.5,1.5-1.5c1,0,1.5,0.7,1.5,1.5v2.8c0,0.9-0.4,1.5-1.5,1.5
				C495.7,103.5,495.3,102.8,495.3,101.9 M497.2,102.1V99c0-0.3-0.2-0.6-0.5-0.6c-0.3,0-0.5,0.2-0.5,0.6v3.1c0,0.3,0.2,0.6,0.5,0.6
				C497.1,102.7,497.2,102.4,497.2,102.1"/>
		</g>
		<polygon class="st1" points="500.7,97.7 500.7,101 499.7,97.7 498.8,97.7 498.8,103.4 499.6,103.4 499.6,99.8 500.7,103.4 
			501.5,103.4 501.5,97.7 		"/>
		<g>
			<path class="st1" d="M502,102.2v-0.8h0.9v0.8c0,0.3,0.1,0.5,0.5,0.5c0.3,0,0.4-0.2,0.4-0.5V102c0-0.3-0.1-0.5-0.4-0.8l-0.6-0.6
				c-0.5-0.5-0.8-0.9-0.8-1.5v-0.2c0-0.7,0.4-1.3,1.4-1.3c1,0,1.3,0.5,1.3,1.3v0.5h-0.9v-0.5c0-0.3-0.2-0.5-0.5-0.5
				c-0.3,0-0.5,0.2-0.5,0.5V99c0,0.3,0.2,0.5,0.5,0.8l0.6,0.6c0.5,0.5,0.8,0.9,0.8,1.5v0.3c0,0.8-0.4,1.3-1.4,1.3
				C502.4,103.5,502,102.9,502,102.2"/>
		</g>
		<rect x="525.7" y="76.1" class="st16" width="67.7" height="67.7"/>
		<g>
			<path class="st1" d="M576.9,117.2c0-4.8-3.8-8.7-8.5-8.9c-1.2-3.4-4.5-5.9-8.4-5.9c-3.9,0-7.1,2.5-8.4,5.9
				c-4.7,0.2-8.5,4.1-8.5,8.9c0,2.8,1.3,5.4,3.4,7c-0.2,0.8-0.3,1.6-0.3,2.5c0,4.9,4,8.9,8.9,8.9c1.9,0,3.6-0.6,5-1.5
				c1.4,0.9,3.1,1.5,4.9,1.5c4.9,0,8.9-4,8.9-8.9c0-0.8-0.1-1.6-0.3-2.4C575.6,122.6,576.9,120,576.9,117.2 M567.1,111.3
				c0,3.5-2.6,6.5-6,7c-0.1-0.4-0.1-0.7-0.1-1.1c0-3.5,2.6-6.5,6-7C567,110.6,567.1,110.9,567.1,111.3 M560,131.7
				c-1.3-1.3-2.2-3.1-2.2-5.1c0-2,0.8-3.7,2.1-5c1.3,1.3,2.2,3.1,2.2,5.1C562.1,128.6,561.3,130.4,560,131.7 M553,110.2
				c3.4,0.5,6,3.4,6,7c0,0.4,0,0.7-0.1,1.1c-3.4-0.5-6-3.4-6-7C552.9,110.9,553,110.6,553,110.2 M558.3,120.4
				c-1.2,2.3-3.6,3.9-6.3,3.9c-1.2,0-2.3-0.3-3.3-0.8c1.2-2.3,3.6-3.9,6.3-3.9C556.2,119.6,557.3,119.9,558.3,120.4 M561.7,120.3
				c1-0.5,2.1-0.8,3.3-0.8c2.8,0,5.2,1.6,6.3,4c-1,0.5-2.1,0.8-3.3,0.8C565.3,124.3,562.8,122.7,561.7,120.3 M560,104.2
				c2.9,0,5.4,1.8,6.5,4.3c-2.9,0.5-5.3,2.4-6.5,5c-1.2-2.6-3.6-4.5-6.5-5C554.6,106,557.1,104.2,560,104.2 M544.9,117.2
				c0-3.6,2.8-6.7,6.3-7c0,0.4-0.1,0.7-0.1,1.1c0,2.6,1.1,4.9,2.9,6.5c-2.9,0.3-5.4,2.1-6.8,4.6
				C545.8,121.2,544.9,119.3,544.9,117.2 M548,126.7c0-0.5,0.1-1,0.2-1.5c1.2,0.6,2.5,0.9,3.9,0.9c1.6,0,3-0.4,4.3-1.1
				c-0.1,0.5-0.2,1.1-0.2,1.6c0,2.4,1,4.6,2.5,6.2c-1,0.6-2.3,1-3.6,1C551.1,133.7,548,130.6,548,126.7 M572,126.6
				c0,3.9-3.2,7.1-7.1,7.1c-1.3,0-2.5-0.3-3.5-0.9c1.5-1.6,2.4-3.7,2.4-6.1c0-0.6-0.1-1.1-0.2-1.7c1.3,0.7,2.7,1.1,4.3,1.1
				c1.4,0,2.7-0.3,3.9-0.9C572,125.6,572,126.1,572,126.6 M566,117.8c1.7-1.6,2.8-3.9,2.8-6.5c0-0.4,0-0.8-0.1-1.1
				c3.5,0.4,6.3,3.4,6.3,7c0,2.1-0.9,3.9-2.3,5.2C571.5,119.9,569,118.2,566,117.8"/>
		</g>
		<polygon class="st1" points="535.8,81.7 535.8,95.4 533.5,95.4 533.5,84.9 533.4,84.9 531.8,86.6 531.8,86.6 531.8,84.1 
			533.9,81.7 		"/>
		<polygon class="st1" points="536.8,81.7 542.6,81.7 542.6,83.8 539.6,95.4 537.3,95.4 540.4,83.5 536.8,83.5 		"/>
		<g>
			<path class="st1" d="M547.7,81.6h1.4c1,0,1.3,0.5,1.3,1.3v1.2c0,0.8-0.4,1.3-1.3,1.3h-0.5v1.9h-1V81.6z M548.7,82.4v2.3h0.4
				c0.3,0,0.5-0.2,0.5-0.5v-1.3c0-0.3-0.1-0.5-0.5-0.5H548.7z"/>
		</g>
		<path class="st1" d="M550.5,87.3l1.1-5.7h1.1l1.1,5.7h-1l-0.2-1h-1l-0.2,1H550.5z M551.7,85.5h0.8l-0.4-2.3h0L551.7,85.5z"/>
		<g>
			<path class="st1" d="M555.1,84.7v2.6h-1v-5.7h1.4c1,0,1.3,0.5,1.3,1.3v0.7c0,0.6-0.2,1-0.8,1.1l0.9,2.6h-1L555.1,84.7z
				 M555.1,82.4v1.8h0.3c0.3,0,0.5-0.2,0.5-0.5v-0.8c0-0.3-0.1-0.5-0.5-0.5H555.1z"/>
		</g>
		<polygon class="st1" points="557.2,81.6 557.2,82.4 558,82.4 558,87.3 559,87.3 559,82.4 559.7,82.4 559.7,81.6 		"/>
		<polygon class="st1" points="562.2,81.6 562.2,84.9 561.1,81.6 560.2,81.6 560.2,87.3 561,87.3 561,83.7 562.1,87.3 563,87.3 
			563,81.6 		"/>
		<polygon class="st1" points="563.5,81.6 563.5,87.3 565.8,87.3 565.8,86.5 564.5,86.5 564.5,84.8 565.5,84.8 565.5,84 564.5,84 
			564.5,82.4 565.8,82.4 565.8,81.6 		"/>
		<g>
			<path class="st1" d="M567.3,84.7v2.6h-1v-5.7h1.4c1,0,1.3,0.5,1.3,1.3v0.7c0,0.6-0.2,1-0.8,1.1l0.9,2.6h-1L567.3,84.7z
				 M567.3,82.4v1.8h0.3c0.3,0,0.5-0.2,0.5-0.5v-0.8c0-0.3-0.1-0.5-0.5-0.5H567.3z"/>
			<path class="st1" d="M569.5,86.1v-0.8h0.9v0.8c0,0.3,0.1,0.5,0.5,0.5c0.3,0,0.4-0.2,0.4-0.5v-0.2c0-0.3-0.1-0.5-0.4-0.8l-0.6-0.6
				c-0.5-0.5-0.8-0.9-0.8-1.5v-0.2c0-0.7,0.4-1.3,1.4-1.3c1,0,1.3,0.5,1.3,1.3v0.5h-0.9v-0.5c0-0.3-0.2-0.5-0.5-0.5
				c-0.3,0-0.5,0.2-0.5,0.5v0.1c0,0.3,0.2,0.5,0.5,0.8l0.6,0.6c0.5,0.5,0.8,0.9,0.8,1.5v0.3c0,0.8-0.4,1.3-1.4,1.3
				S569.5,86.9,569.5,86.1"/>
		</g>
		<polygon class="st1" points="574.7,81.6 574.7,84 573.8,84 573.8,81.6 572.8,81.6 572.8,87.3 573.8,87.3 573.8,84.8 574.7,84.8 
			574.7,87.3 575.7,87.3 575.7,81.6 		"/>
		<rect x="576.2" y="81.6" class="st1" width="1" height="5.7"/>
		<g>
			<path class="st1" d="M577.7,81.6h1.4c1,0,1.3,0.5,1.3,1.3v1.2c0,0.8-0.4,1.3-1.3,1.3h-0.5v1.9h-1V81.6z M578.7,82.4v2.3h0.4
				c0.3,0,0.5-0.2,0.5-0.5v-1.3c0-0.3-0.1-0.5-0.5-0.5H578.7z"/>
			<path class="st1" d="M580.9,86.1v-0.8h0.9v0.8c0,0.3,0.1,0.5,0.5,0.5c0.3,0,0.4-0.2,0.4-0.5v-0.2c0-0.3-0.1-0.5-0.4-0.8l-0.6-0.6
				c-0.5-0.5-0.8-0.9-0.8-1.5v-0.2c0-0.7,0.4-1.3,1.4-1.3c1,0,1.3,0.5,1.3,1.3v0.5h-0.9v-0.5c0-0.3-0.2-0.5-0.5-0.5
				c-0.3,0-0.5,0.2-0.5,0.5v0.1c0,0.3,0.2,0.5,0.5,0.8l0.6,0.6c0.5,0.5,0.8,0.9,0.8,1.5v0.3c0,0.8-0.4,1.3-1.4,1.3
				S580.9,86.9,580.9,86.1"/>
		</g>
		<polygon class="st1" points="547.7,89.6 547.7,95.4 548.7,95.4 548.7,92.8 549.6,92.8 549.6,92.1 548.7,92.1 548.7,90.4 
			549.9,90.4 549.9,89.6 		"/>
		<g>
			<path class="st1" d="M550.3,93.9v-2.8c0-0.9,0.4-1.5,1.5-1.5c1,0,1.5,0.7,1.5,1.5v2.8c0,0.9-0.4,1.5-1.5,1.5
				C550.7,95.4,550.3,94.8,550.3,93.9 M552.2,94V91c0-0.3-0.2-0.6-0.5-0.6c-0.3,0-0.5,0.2-0.5,0.6V94c0,0.3,0.2,0.6,0.5,0.6
				C552.1,94.6,552.2,94.4,552.2,94"/>
			<path class="st1" d="M554.7,92.7v2.6h-1v-5.7h1.4c1,0,1.3,0.5,1.3,1.3v0.7c0,0.6-0.2,1-0.8,1.1l0.9,2.6h-1L554.7,92.7z
				 M554.7,90.4v1.8h0.3c0.3,0,0.5-0.2,0.5-0.5v-0.8c0-0.3-0.1-0.5-0.5-0.5H554.7z"/>
		</g>
		<polygon class="st1" points="558.4,89.6 558.4,90.4 559.1,90.4 559.1,95.4 560.1,95.4 560.1,90.4 560.9,90.4 560.9,89.6 		"/>
		<polygon class="st1" points="563.3,89.6 563.3,92.1 562.3,92.1 562.3,89.6 561.4,89.6 561.4,95.4 562.3,95.4 562.3,92.8 
			563.3,92.8 563.3,95.4 564.2,95.4 564.2,89.6 		"/>
		<polygon class="st1" points="564.8,89.6 564.8,95.4 567.1,95.4 567.1,94.6 565.7,94.6 565.7,92.8 566.7,92.8 566.7,92.1 
			565.7,92.1 565.7,90.4 567.1,90.4 567.1,89.6 		"/>
		<g>
			<path class="st1" d="M570.5,92.3h1.4v3.1h-0.7v-0.6c-0.1,0.4-0.4,0.7-0.9,0.7c-0.8,0-1.2-0.7-1.2-1.5v-2.8c0-0.9,0.4-1.5,1.4-1.5
				c1.1,0,1.4,0.6,1.4,1.4v0.5H571v-0.6c0-0.4-0.1-0.6-0.5-0.6c-0.3,0-0.5,0.2-0.5,0.6V94c0,0.3,0.1,0.6,0.5,0.6
				c0.3,0,0.5-0.2,0.5-0.5v-1h-0.5V92.3z"/>
			<path class="st1" d="M572.4,93.9v-2.8c0-0.9,0.4-1.5,1.5-1.5c1,0,1.5,0.7,1.5,1.5v2.8c0,0.9-0.4,1.5-1.5,1.5
				C572.9,95.4,572.4,94.8,572.4,93.9 M574.4,94V91c0-0.3-0.2-0.6-0.5-0.6c-0.3,0-0.5,0.2-0.5,0.6V94c0,0.3,0.2,0.6,0.5,0.6
				C574.2,94.6,574.4,94.4,574.4,94"/>
		</g>
		<path class="st1" d="M575.6,95.4l1.1-5.7h1.1l1.1,5.7h-1l-0.2-1h-1l-0.2,1H575.6z M576.8,93.5h0.8l-0.4-2.3h0L576.8,93.5z"/>
		<polygon class="st1" points="579.3,89.6 579.3,95.4 581.4,95.4 581.4,94.6 580.2,94.6 580.2,89.6 		"/>
		<g>
			<path class="st1" d="M581.7,94.1v-0.8h0.9v0.8c0,0.3,0.1,0.5,0.5,0.5c0.3,0,0.4-0.2,0.4-0.5v-0.2c0-0.3-0.1-0.5-0.4-0.8l-0.6-0.6
				c-0.5-0.5-0.8-0.9-0.8-1.5v-0.2c0-0.7,0.4-1.3,1.4-1.3c1,0,1.3,0.5,1.3,1.3v0.5h-0.9v-0.5c0-0.3-0.2-0.5-0.5-0.5
				c-0.3,0-0.5,0.2-0.5,0.5v0.1c0,0.3,0.2,0.5,0.5,0.8l0.6,0.6c0.5,0.5,0.8,0.9,0.8,1.5v0.3c0,0.8-0.4,1.3-1.4,1.3
				C582.1,95.4,581.7,94.9,581.7,94.1"/>
		</g>
		<rect x="76.7" y="76.1" class="st17" width="67.7" height="67.7"/>
		<g>
			<path class="st1" d="M99.3,84.6l0.9,2.6h1l-0.9-2.6c0.5-0.1,0.7-0.5,0.7-1.1v-0.7c0-0.8-0.3-1.3-1.3-1.3h-1.4v5.7h0.9V84.6z
				 M99.3,82.3h0.3c0.3,0,0.5,0.2,0.5,0.5v0.8c0,0.3-0.1,0.5-0.5,0.5h-0.3V82.3z"/>
		</g>
		<polygon class="st1" points="101.6,81.6 101.6,87.2 103.8,87.2 103.8,86.5 102.5,86.5 102.5,84.7 103.4,84.7 103.4,84 102.5,84 
			102.5,82.3 103.8,82.3 103.8,81.6 		"/>
		<g>
			<path class="st1" d="M105.8,81.6h-1.4v5.7h1.4c1,0,1.4-0.7,1.4-1.5v-2.6C107.2,82.2,106.8,81.6,105.8,81.6 M106.2,85.9
				c0,0.3-0.1,0.6-0.5,0.6h-0.4v-4.1h0.4c0.4,0,0.5,0.2,0.5,0.6V85.9z"/>
			<path class="st1" d="M108.7,81.6h-0.9v4.3c0,0.9,0.4,1.5,1.4,1.5c0.9,0,1.3-0.6,1.3-1.5v-4.3h-0.9V86c0,0.3-0.1,0.6-0.5,0.6
				c-0.3,0-0.5-0.2-0.5-0.6V81.6z"/>
			<path class="st1" d="M111.1,83v2.7c0,0.9,0.4,1.5,1.4,1.5c1,0,1.3-0.6,1.3-1.4v-1h-0.8v1c0,0.3-0.1,0.5-0.5,0.5
				c-0.3,0-0.5-0.2-0.5-0.6v-3c0-0.3,0.1-0.6,0.5-0.6c0.3,0,0.5,0.2,0.5,0.6v0.7h0.8v-0.7c0-0.8-0.3-1.4-1.3-1.4
				C111.5,81.5,111.1,82.1,111.1,83"/>
		</g>
		<polygon class="st1" points="114.4,81.6 114.4,87.2 116.6,87.2 116.6,86.5 115.3,86.5 115.3,84.7 116.2,84.7 116.2,84 115.3,84 
			115.3,82.3 116.6,82.3 116.6,81.6 		"/>
		<g>
			<path class="st1" d="M117.2,81.6v5.7h1.4c1,0,1.4-0.7,1.4-1.5v-2.6c0-0.9-0.4-1.5-1.4-1.5H117.2z M119,82.9v3
				c0,0.3-0.1,0.6-0.5,0.6h-0.4v-4.1h0.4C118.9,82.3,119,82.6,119,82.9"/>
		</g>
		<rect x="98.3" y="89.7" class="st1" width="0.9" height="5.7"/>
		<polygon class="st1" points="101.8,89.7 101.8,93 100.8,89.7 99.9,89.7 99.9,95.4 100.6,95.4 100.6,91.8 101.7,95.4 102.6,95.4 
			102.6,89.7 		"/>
		<polygon class="st1" points="103.1,89.7 103.1,95.4 105.3,95.4 105.3,94.6 104,94.6 104,92.9 104.9,92.9 104.9,92.1 104,92.1 
			104,90.5 105.3,90.5 105.3,89.7 		"/>
		<g>
			<path class="st1" d="M107.1,89.6c-1,0-1.4,0.6-1.4,1.5v2.8c0,0.8,0.3,1.3,1.1,1.5v0.4l1.8,0.3v-0.7l-0.7-0.1
				c0.5-0.2,0.7-0.7,0.7-1.3v-2.8C108.5,90.3,108,89.6,107.1,89.6 M107.5,94.1c0,0.3-0.1,0.6-0.5,0.6c-0.3,0-0.5-0.3-0.5-0.6V91
				c0-0.3,0.1-0.6,0.5-0.6c0.3,0,0.5,0.2,0.5,0.6V94.1z"/>
			<path class="st1" d="M109,89.7V94c0,0.9,0.4,1.5,1.4,1.5c0.9,0,1.3-0.6,1.3-1.5v-4.3h-0.9v4.4c0,0.3-0.1,0.6-0.5,0.6
				s-0.5-0.2-0.5-0.6v-4.4H109z"/>
		</g>
		<path class="st1" d="M113.1,89.7l-1,5.7h0.9l0.2-1h1l0.2,1h1l-1.1-5.7H113.1z M113.2,93.6l0.4-2.3h0l0.4,2.3H113.2z"/>
		<polygon class="st1" points="115.5,89.7 115.5,95.4 117.6,95.4 117.6,94.6 116.5,94.6 116.5,89.7 		"/>
		<rect x="118" y="89.7" class="st1" width="0.9" height="5.7"/>
		<polygon class="st1" points="119.4,89.7 119.4,90.5 120.1,90.5 120.1,95.4 121.1,95.4 121.1,90.5 121.8,90.5 121.8,89.7 		"/>
		<rect x="122.3" y="89.7" class="st1" width="0.9" height="5.7"/>
		<polygon class="st1" points="123.7,89.7 123.7,95.4 126,95.4 126,94.6 124.7,94.6 124.7,92.9 125.6,92.9 125.6,92.1 124.7,92.1 
			124.7,90.5 126,90.5 126,89.7 		"/>
		<g>
			<path class="st1" d="M126.3,93.4v0.8c0,0.7,0.4,1.3,1.3,1.3c0.9,0,1.4-0.6,1.4-1.3v-0.3c0-0.6-0.2-0.9-0.8-1.5l-0.6-0.6
				c-0.3-0.3-0.4-0.5-0.4-0.8v-0.1c0-0.3,0.2-0.5,0.4-0.5c0.3,0,0.4,0.2,0.4,0.5v0.5h0.9v-0.5c0-0.8-0.4-1.3-1.3-1.3
				c-0.9,0-1.3,0.5-1.3,1.2v0.2c0,0.7,0.2,1,0.8,1.5l0.5,0.6c0.3,0.3,0.4,0.5,0.4,0.8v0.2c0,0.3-0.1,0.5-0.4,0.5
				c-0.3,0-0.5-0.2-0.5-0.5v-0.8H126.3z"/>
		</g>
		<polygon class="st1" points="83.4,84.8 83.4,95.4 85.7,95.4 85.7,81.6 83.9,81.6 81.8,84.1 81.8,86.5 81.8,86.5 83.4,84.8 		"/>
		<g>
			<path class="st1" d="M94,91.8v-6.7c0-2.2-1.1-3.7-3.4-3.7c-2.3,0-3.3,1.6-3.3,3.7v6.7c0,2.1,1.1,3.7,3.3,3.7
				C92.9,95.5,94,94,94,91.8 M89.5,92.2v-7.4c0-0.8,0.3-1.4,1.1-1.4c0.8,0,1.1,0.6,1.1,1.4v7.4c0,0.8-0.3,1.4-1.1,1.4
				C89.8,93.6,89.5,93,89.5,92.2"/>
			<path class="st1" d="M116.8,120.7h-12.5c-0.1,0-0.1,0.1-0.1,0.2v3.8c0,0.1,0.1,0.2,0.1,0.2h12.5c0.1,0,0.1-0.1,0.1-0.2v-3.8
				C116.9,120.7,116.9,120.7,116.8,120.7"/>
			<path class="st1" d="M116.8,112.7h-12.5c-0.1,0-0.1,0.1-0.1,0.2v3.8c0,0.1,0.1,0.2,0.1,0.2h12.5c0.1,0,0.1-0.1,0.1-0.2v-3.8
				C116.9,112.7,116.9,112.7,116.8,112.7"/>
			<path class="st1" d="M116.6,107l-6-6c0,0-0.1,0-0.1,0l-6,6c-0.1,0.1,0,0.2,0.1,0.2h12C116.6,107.2,116.7,107,116.6,107"/>
			<path class="st1" d="M122.3,124.8l6-6c0,0,0-0.1,0-0.1l-6-6c-0.1-0.1-0.2,0-0.2,0.1v12C122.1,124.8,122.2,124.9,122.3,124.8"/>
			<path class="st1" d="M104.4,130.4l6,6c0,0,0.1,0,0.1,0l6-6c0.1-0.1,0-0.2-0.1-0.2h-12C104.4,130.3,104.4,130.4,104.4,130.4"/>
			<path class="st1" d="M98.8,112.6l-6,6c0,0,0,0.1,0,0.1l6,6c0.1,0.1,0.2,0,0.2-0.1v-12C99,112.6,98.9,112.6,98.8,112.6"/>
		</g>
	</g>
</g>
</svg>
