<?xml version="1.0" encoding="utf-8"?>
<!-- Generator: Adobe Illustrator 26.4.0, SVG Export Plug-In . SVG Version: 6.00 Build 0)  -->
<svg version="1.1" id="Layer_1" xmlns="http://www.w3.org/2000/svg" xmlns:xlink="http://www.w3.org/1999/xlink" x="0px" y="0px"
	 viewBox="0 0 1000 453.7" style="enable-background:new 0 0 1000 453.7;" xml:space="preserve">
<style type="text/css">
	.st0{fill:#939598;}
	.st1{fill:none;stroke:#F89521;stroke-miterlimit:10;}
	.st2{fill:none;stroke:#7FB442;stroke-miterlimit:10;}
	.st3{fill:#4E4E50;}
	.st4{fill:none;stroke:#F89521;stroke-width:0.75;stroke-miterlimit:10;}
</style>
<g>
	<g>
		<path class="st0" d="M642.7,246v-2.2c10.8-8.7,18.1-14.9,18.1-21.1c0-4.6-3.8-6.5-7.2-6.5c-4,0-7,1.7-8.7,4.1l-1.9-1.7
			c2.2-3,6.1-4.9,10.6-4.9c4.7,0,10,2.7,10,9c0,7-7.4,13.4-16.6,20.8h16.7v2.5H642.7z"/>
	</g>
	<g>
		<path class="st0" d="M334.5,241.4l1.8-1.8c2,2.9,4.8,4.5,8.9,4.5c4.6,0,8-3.3,8-7.7c0-4.8-3.3-7.8-7.9-7.8c-2.9,0-5.4,1-7.7,3.1
			l-2-0.9v-16.7h18.3v2.5h-15.6v12.4c1.6-1.5,4.3-3,7.6-3c5.3,0,10.1,3.5,10.1,10.1c0,6.3-4.9,10.2-10.7,10.2
			C340,246.6,336.7,244.6,334.5,241.4z"/>
	</g>
	<g>
		<path class="st0" d="M567.8,377.7l1.9-1.6c1.8,2.5,4.9,4.4,8.9,4.4c4.9,0,8-2.6,8-6.8c0-4.6-3.8-6.5-8.5-6.5c-1.3,0-2.5,0-3,0.1
			v-2.6c0.5,0,1.7,0,3,0c4.2,0,8.1-1.8,8.1-6.1c0-4-3.5-6.1-7.6-6.1c-3.6,0-6.2,1.4-8.5,4.1l-1.7-1.7c2.2-2.7,5.8-4.8,10.4-4.8
			c5.5,0,10.2,3,10.2,8.4c0,4.9-4.1,7-6.8,7.4c2.8,0.3,7.3,2.7,7.3,7.9c0,5.2-4,9.1-10.7,9.1C573.4,383,569.6,380.6,567.8,377.7z"/>
	</g>
	<g>
		<path class="st0" d="M423.3,382.5v-8.7h-15.1v-2.4l14.1-20.7h3.7v20.6h4.7v2.5H426v8.7H423.3z M423.3,353.4L411,371.3h12.2V353.4z
			"/>
	</g>
	<g>
		<path class="st0" d="M579.9,110.2V82.2l-5.1,5.4l-1.7-1.8l7-7.4h2.5v31.8H579.9z"/>
	</g>
	<g>
		<path class="st0" d="M408.3,94.4c0-8.1,3.4-16.4,12.2-16.4c4.1,0,6.7,1.7,8.6,4.1l-1.6,2c-1.6-2-3.5-3.5-7-3.5
			c-6.9,0-9.4,7.2-9.4,14c0,0.5,0,1,0,1.5c1.3-2.2,5-5.3,9.3-5.3c5.7,0,10.2,3.3,10.2,10.1c0,5.2-3.9,10.1-10.7,10.1
			C411.4,110.8,408.3,102.9,408.3,94.4z M427.9,100.7c0-5.2-3.4-7.7-8-7.7c-3.5,0-6.9,2.2-8.7,5.4c0.4,4.3,2.7,9.9,8.6,9.9
			C425.3,108.3,427.9,104.1,427.9,100.7z"/>
	</g>
	<g>
		<path class="st1" d="M507.4,89.7c0,46.4-29.2,88.3-84.3,88.3c-45.7,0-82.7-37.6-82.7-84.1c0-46.4,37-84.1,82.7-84.1
			c31.4,0,58.7,17.8,72.7,43.9"/>
		<path class="st1" d="M507.4,89.9c1.8-37.7,32.4-67.6,70-67.6c13.4,0,25.9,3.8,36.5,10.4"/>
		<path class="st1" d="M619.7,167.3c-11.9,6.6-28.2,10.3-42.7,10.3c-31.5,0-59-17.8-73.1-44"/>
		<path class="st2" d="M647.5,138.1c8-12.9,12.7-28.2,12.7-44.6c0-46.4-37.2-84.1-83.1-84.1C531.2,9.4,494,47,494,93.5l-0.1,0.4
			c0,39.3-31.5,71.2-70.4,71.2c-38.9,0-70.4-31.9-70.4-71.2c0-26.8,14.7-50.2,36.4-62.3"/>
		<path class="st2" d="M619.5,167.4c10.1-5.7,21.7-8.9,34-8.9c38.9,0,70.4,32,70.4,71.6c0,0.5,0,1,0,1.6"/>
		<path class="st1" d="M653.6,314.6c45.9,0,83.1-37.8,83.1-84.5c0-46.7-37.2-84.5-83.1-84.5c-15.1,0-29.2,4.1-41.4,11.2l-1.7,0.9
			c-9.8,5.3-21,8.3-32.9,8.3c-12.1,0-23.5-3.1-33.4-8.6"/>
		<path class="st2" d="M612.1,427.5c21.1-12.3,35.4-35.5,35.4-62.1c0-25.5-13.1-47.8-32.8-60.5l-1.8-1.2
			c-25.3-14.5-42.4-42.1-42.4-73.7c0-16.3,4.5-31.5,12.4-44.3"/>
		<path class="st1" d="M502.6,403.8c13.8,27.3,41.7,45.9,74,45.9c45.9,0,83.1-37.9,83.1-84.6c0-31.7-17.2-59.3-42.5-73.8l-4.9-3.3
			c-17.9-13-29.6-34.3-29.6-58.4"/>
		<path class="st1" d="M541.5,303.1c-20.2,11.9-34.1,33.7-35.2,58.9l0.1,2.3c0,46.7-37.2,84.6-83.1,84.6
			c-45.9,0-83.1-37.9-83.1-84.6c0-16.8,4.8-32.4,13-45.5"/>
		<path class="st2" d="M276,229c0,39.6,31.5,71.6,70.3,71.6c11.7,0,22.8-2.9,32.5-8.1l1.6-0.9c12.4-7.5,26.9-11.8,42.3-11.8
			c32.2,0,60.1,18.7,73.9,46"/>
		<path class="st2" d="M576.2,280.6c-45.4,0-82.1,37.4-82.9,83.4l0,0.3c0,39.5-31.5,71.6-70.4,71.6c-12.9,0-25.1-3.6-35.5-9.8"/>
		<path class="st1" d="M346.5,144.5c-45.9,0-83.1,37.9-83.1,84.5c0,46.7,37.2,84.5,83.1,84.5c14.4,0,27.9-3.7,39.8-10.3l1.1-0.7
			c10.4-6.2,22.6-9.8,35.6-9.8c12.9,0,25,3.5,35.4,9.7"/>
		<path class="st1" d="M416.8,184c8.1,13,12.7,28.5,12.7,45c0,17.3-5.1,33.4-13.9,46.8"/>
	</g>
	<g>
		<path class="st3" d="M695.7,33.4V21.5h2.5v11.9H695.7z"/>
		<path class="st3" d="M706.3,33.4v-5.2c0-1.2-0.6-1.6-1.6-1.6c-0.9,0-1.6,0.5-2,1v5.8h-2.3v-8.6h2.3v1.1c0.6-0.7,1.6-1.3,3-1.3
			c1.9,0,2.8,1.1,2.8,2.8v6.1H706.3z"/>
		<path class="st3" d="M716.8,33.4v-1.1c-0.7,0.9-1.6,1.3-2.7,1.3c-2.2,0-3.8-1.6-3.8-4.5c0-2.8,1.6-4.5,3.8-4.5c1,0,2,0.4,2.7,1.3
			v-4.4h2.3v11.9H716.8z M716.8,30.6v-3.1c-0.4-0.6-1.2-1-2-1c-1.3,0-2.2,1-2.2,2.5c0,1.5,0.9,2.5,2.2,2.5
			C715.6,31.6,716.4,31.2,716.8,30.6z"/>
		<path class="st3" d="M727.1,33.4v-1.1c-0.6,0.7-1.6,1.3-3,1.3c-1.9,0-2.8-1-2.8-2.7v-6.1h2.3V30c0,1.2,0.6,1.6,1.6,1.6
			c0.9,0,1.6-0.5,2-1v-5.8h2.3v8.6H727.1z"/>
		<path class="st3" d="M730.9,32.3l1-1.6c0.6,0.6,1.9,1.2,3,1.2c1,0,1.4-0.4,1.4-0.9c0-1.4-5.1-0.3-5.1-3.7c0-1.4,1.3-2.7,3.5-2.7
			c1.5,0,2.6,0.5,3.5,1.2l-0.9,1.6c-0.5-0.6-1.5-1-2.6-1c-0.8,0-1.4,0.4-1.4,0.9c0,1.3,5.1,0.2,5.1,3.7c0,1.6-1.3,2.8-3.7,2.8
			C733.3,33.6,731.8,33.1,730.9,32.3z"/>
		<path class="st3" d="M740.6,31.2v-4.5h-1.4v-2h1.4v-2.4h2.3v2.4h1.8v2h-1.8v3.9c0,0.5,0.3,0.9,0.8,0.9c0.3,0,0.7-0.1,0.8-0.2
			L745,33c-0.3,0.3-0.9,0.6-1.9,0.6C741.5,33.6,740.6,32.8,740.6,31.2z"/>
		<path class="st3" d="M746.2,33.4v-8.6h2.3v1.2c0.6-0.8,1.7-1.4,2.8-1.4v2.2c-0.2,0-0.4-0.1-0.6-0.1c-0.8,0-1.8,0.4-2.1,1v5.7
			H746.2z"/>
		<path class="st3" d="M752.4,22.5c0-0.8,0.6-1.3,1.4-1.3c0.8,0,1.4,0.6,1.4,1.3s-0.6,1.4-1.4,1.4C753,23.8,752.4,23.2,752.4,22.5z
			 M752.7,33.4v-8.6h2.3v8.6H752.7z"/>
		<path class="st3" d="M762.4,33.4v-0.9c-0.6,0.7-1.6,1.1-2.7,1.1c-1.4,0-3-0.9-3-2.9c0-2,1.6-2.8,3-2.8c1.1,0,2.2,0.4,2.7,1.1v-1.2
			c0-0.9-0.8-1.4-1.9-1.4c-0.9,0-1.8,0.3-2.5,1l-0.9-1.5c1.1-0.9,2.4-1.4,3.8-1.4c2,0,3.8,0.8,3.8,3.3v5.6H762.4z M762.4,31.3v-1.1
			c-0.4-0.5-1.1-0.8-1.8-0.8c-0.9,0-1.6,0.5-1.6,1.3c0,0.8,0.7,1.3,1.6,1.3C761.3,32.1,762,31.8,762.4,31.3z"/>
		<path class="st3" d="M766.9,33.4V21.5h2.3v11.9H766.9z"/>
		<path class="st3" d="M784.2,33.4v-5h-5.6v5H776V21.5h2.5v4.7h5.6v-4.7h2.6v11.9H784.2z"/>
		<path class="st3" d="M789.1,34.7c0.2,0.1,0.5,0.1,0.7,0.1c0.6,0,1-0.2,1.2-0.6l0.3-0.7l-3.5-8.8h2.4l2.3,6l2.3-6h2.4l-4.1,10
			c-0.6,1.6-1.8,2.1-3.3,2.1c-0.3,0-0.8-0.1-1.1-0.1L789.1,34.7z"/>
		<path class="st3" d="M798,35.6l1-1.6c0.7,0.8,1.6,1.1,2.7,1.1c1.1,0,2.4-0.5,2.4-2.2V32c-0.7,0.9-1.6,1.4-2.7,1.4
			c-2.2,0-3.8-1.5-3.8-4.4c0-2.8,1.6-4.4,3.8-4.4c1,0,2,0.4,2.7,1.3v-1.1h2.3v8c0,3.3-2.5,4.1-4.7,4.1
			C800.3,36.9,799.1,36.5,798,35.6z M804.1,30.3v-2.8c-0.4-0.6-1.2-1-1.9-1c-1.3,0-2.2,0.9-2.2,2.4s0.9,2.4,2.2,2.4
			C802.9,31.3,803.7,30.9,804.1,30.3z"/>
		<path class="st3" d="M808.4,22.5c0-0.8,0.6-1.3,1.4-1.3c0.8,0,1.4,0.6,1.4,1.3s-0.6,1.4-1.4,1.4C809,23.8,808.4,23.2,808.4,22.5z
			 M808.7,33.4v-8.6h2.3v8.6H808.7z"/>
		<path class="st3" d="M812.6,29.1c0-2.5,1.8-4.5,4.5-4.5c2.6,0,4.3,1.9,4.3,4.8v0.5H815c0.1,1.1,1,2,2.5,2c0.7,0,1.8-0.3,2.3-0.9
			l1,1.5c-0.9,0.8-2.2,1.2-3.6,1.2C814.6,33.6,812.6,31.8,812.6,29.1z M817.1,26.3c-1.4,0-2,1.1-2.1,1.9h4.3
			C819.2,27.4,818.6,26.3,817.1,26.3z"/>
		<path class="st3" d="M828.9,33.4v-5.2c0-1.2-0.6-1.6-1.6-1.6c-0.9,0-1.6,0.5-2,1v5.8h-2.3v-8.6h2.3v1.1c0.6-0.7,1.6-1.3,3-1.3
			c1.9,0,2.8,1.1,2.8,2.8v6.1H828.9z"/>
		<path class="st3" d="M832.8,29.1c0-2.5,1.8-4.5,4.5-4.5c2.6,0,4.3,1.9,4.3,4.8v0.5h-6.4c0.1,1.1,1,2,2.5,2c0.7,0,1.8-0.3,2.3-0.9
			l1,1.5c-0.9,0.8-2.2,1.2-3.6,1.2C834.8,33.6,832.8,31.8,832.8,29.1z M837.3,26.3c-1.4,0-2,1.1-2.1,1.9h4.3
			C839.4,27.4,838.8,26.3,837.3,26.3z"/>
		<path class="st3" d="M847.3,27.4c0-3.7,2.8-6.2,6.3-6.2c2.6,0,4.1,1.4,5,2.9l-2.2,1.1c-0.5-1-1.6-1.7-2.8-1.7
			c-2.2,0-3.7,1.7-3.7,3.9s1.6,3.9,3.7,3.9c1.2,0,2.3-0.8,2.8-1.7l2.2,1.1c-0.9,1.5-2.4,2.9-5,2.9C850.1,33.6,847.3,31.1,847.3,27.4
			z"/>
		<path class="st3" d="M865.3,33.4v-0.9c-0.6,0.7-1.6,1.1-2.7,1.1c-1.4,0-3-0.9-3-2.9c0-2,1.6-2.8,3-2.8c1.1,0,2.2,0.4,2.7,1.1v-1.2
			c0-0.9-0.8-1.4-1.9-1.4c-0.9,0-1.8,0.3-2.5,1l-0.9-1.5c1.1-0.9,2.4-1.4,3.8-1.4c2,0,3.8,0.8,3.8,3.3v5.6H865.3z M865.3,31.3v-1.1
			c-0.4-0.5-1.1-0.8-1.8-0.8c-0.9,0-1.6,0.5-1.6,1.3c0,0.8,0.7,1.3,1.6,1.3C864.2,32.1,864.9,31.8,865.3,31.3z"/>
		<path class="st3" d="M872.1,32.3v4.4h-2.3V24.8h2.3v1.1c0.7-0.8,1.6-1.3,2.7-1.3c2.2,0,3.8,1.6,3.8,4.5c0,2.9-1.6,4.5-3.8,4.5
			C873.7,33.6,872.8,33.2,872.1,32.3z M876.2,29.1c0-1.5-0.9-2.5-2.2-2.5c-0.7,0-1.6,0.4-1.9,1v3.1c0.4,0.5,1.2,1,1.9,1
			C875.4,31.6,876.2,30.6,876.2,29.1z"/>
		<path class="st3" d="M885.4,33.4v-0.9c-0.6,0.7-1.6,1.1-2.7,1.1c-1.4,0-3-0.9-3-2.9c0-2,1.6-2.8,3-2.8c1.1,0,2.2,0.4,2.7,1.1v-1.2
			c0-0.9-0.8-1.4-1.9-1.4c-0.9,0-1.8,0.3-2.5,1l-0.9-1.5c1.1-0.9,2.4-1.4,3.8-1.4c2,0,3.8,0.8,3.8,3.3v5.6H885.4z M885.4,31.3v-1.1
			c-0.4-0.5-1.1-0.8-1.8-0.8c-0.9,0-1.6,0.5-1.6,1.3c0,0.8,0.7,1.3,1.6,1.3C884.3,32.1,885.1,31.8,885.4,31.3z"/>
		<path class="st3" d="M889.4,29.1c0-2.6,1.9-4.5,4.6-4.5c1.8,0,2.8,0.8,3.4,1.6l-1.5,1.4c-0.4-0.6-1-0.9-1.8-0.9
			c-1.4,0-2.3,1-2.3,2.5s1,2.5,2.3,2.5c0.8,0,1.4-0.4,1.8-0.9l1.5,1.4c-0.6,0.8-1.6,1.6-3.4,1.6C891.3,33.6,889.4,31.7,889.4,29.1z"
			/>
		<path class="st3" d="M898.6,22.5c0-0.8,0.6-1.3,1.4-1.3c0.8,0,1.4,0.6,1.4,1.3s-0.6,1.4-1.4,1.4C899.3,23.8,898.6,23.2,898.6,22.5
			z M898.9,33.4v-8.6h2.3v8.6H898.9z"/>
		<path class="st3" d="M903.8,31.2v-4.5h-1.4v-2h1.4v-2.4h2.3v2.4h1.8v2h-1.8v3.9c0,0.5,0.3,0.9,0.8,0.9c0.3,0,0.7-0.1,0.8-0.2
			l0.5,1.7c-0.3,0.3-0.9,0.6-1.9,0.6C904.7,33.6,903.8,32.8,903.8,31.2z"/>
		<path class="st3" d="M909.5,34.7c0.2,0.1,0.5,0.1,0.7,0.1c0.6,0,1-0.2,1.2-0.6l0.3-0.7l-3.5-8.8h2.4l2.3,6l2.3-6h2.4l-4.1,10
			c-0.6,1.6-1.8,2.1-3.3,2.1c-0.3,0-0.8-0.1-1.1-0.1L909.5,34.7z"/>
	</g>
	<g>
		<path class="st3" d="M695.7,57.2V45.3h6.3c2.3,0,3.4,1.4,3.4,3c0,1.5-0.9,2.5-2.1,2.7c1.3,0.2,2.3,1.4,2.3,2.9
			c0,1.8-1.2,3.2-3.5,3.2H695.7z M702.8,48.8c0-0.8-0.5-1.3-1.4-1.3h-3.2v2.6h3.2C702.2,50.1,702.8,49.5,702.8,48.8z M703,53.6
			c0-0.8-0.5-1.4-1.5-1.4h-3.3V55h3.3C702.4,55,703,54.5,703,53.6z"/>
		<path class="st3" d="M713.3,57.2v-1.1c-0.6,0.7-1.6,1.3-3,1.3c-1.9,0-2.8-1-2.8-2.7v-6.1h2.3v5.2c0,1.2,0.6,1.6,1.6,1.6
			c0.9,0,1.6-0.5,2-1v-5.8h2.3v8.6H713.3z"/>
		<path class="st3" d="M717.6,46.3c0-0.8,0.6-1.3,1.4-1.3c0.8,0,1.4,0.6,1.4,1.3s-0.6,1.4-1.4,1.4C718.2,47.6,717.6,47,717.6,46.3z
			 M717.8,57.2v-8.6h2.3v8.6H717.8z"/>
		<path class="st3" d="M722.3,57.2V45.3h2.3v11.9H722.3z"/>
		<path class="st3" d="M732.8,57.2v-1.1c-0.7,0.9-1.6,1.3-2.7,1.3c-2.2,0-3.8-1.6-3.8-4.5c0-2.8,1.6-4.5,3.8-4.5c1,0,2,0.4,2.7,1.3
			v-4.4h2.3v11.9H732.8z M732.8,54.4v-3.1c-0.4-0.6-1.2-1-2-1c-1.3,0-2.2,1-2.2,2.5c0,1.5,0.9,2.5,2.2,2.5
			C731.6,55.4,732.4,55,732.8,54.4z"/>
		<path class="st3" d="M737.1,46.3c0-0.8,0.6-1.3,1.4-1.3c0.8,0,1.4,0.6,1.4,1.3s-0.6,1.4-1.4,1.4C737.7,47.6,737.1,47,737.1,46.3z
			 M737.3,57.2v-8.6h2.3v8.6H737.3z"/>
		<path class="st3" d="M747.6,57.2V52c0-1.2-0.6-1.6-1.6-1.6c-0.9,0-1.6,0.5-2,1v5.8h-2.3v-8.6h2.3v1.1c0.6-0.7,1.6-1.3,3-1.3
			c1.9,0,2.8,1.1,2.8,2.8v6.1H747.6z"/>
		<path class="st3" d="M752,59.4l1-1.6c0.7,0.8,1.6,1.1,2.7,1.1c1.1,0,2.4-0.5,2.4-2.2v-0.9c-0.7,0.9-1.6,1.4-2.7,1.4
			c-2.2,0-3.8-1.5-3.8-4.4c0-2.8,1.6-4.4,3.8-4.4c1,0,2,0.4,2.7,1.3v-1.1h2.3v8c0,3.3-2.5,4.1-4.7,4.1
			C754.2,60.7,753.1,60.4,752,59.4z M758.1,54.1v-2.8c-0.4-0.6-1.2-1-1.9-1c-1.3,0-2.2,0.9-2.2,2.4s0.9,2.4,2.2,2.4
			C756.9,55.1,757.7,54.7,758.1,54.1z"/>
		<path class="st3" d="M772.4,57.2v-0.9c-0.6,0.7-1.6,1.1-2.7,1.1c-1.4,0-3-0.9-3-2.9c0-2,1.6-2.8,3-2.8c1.1,0,2.2,0.4,2.7,1.1v-1.2
			c0-0.9-0.8-1.4-1.9-1.4c-0.9,0-1.8,0.3-2.5,1l-0.9-1.5c1.1-0.9,2.4-1.4,3.8-1.4c2,0,3.8,0.8,3.8,3.3v5.6H772.4z M772.4,55.1v-1.1
			c-0.4-0.5-1.1-0.8-1.8-0.8c-0.9,0-1.6,0.5-1.6,1.3c0,0.8,0.7,1.3,1.6,1.3C771.3,55.9,772,55.6,772.4,55.1z"/>
		<path class="st3" d="M782.7,57.2V52c0-1.2-0.6-1.6-1.6-1.6c-0.9,0-1.6,0.5-2,1v5.8h-2.3v-8.6h2.3v1.1c0.6-0.7,1.6-1.3,3-1.3
			c1.9,0,2.8,1.1,2.8,2.8v6.1H782.7z"/>
		<path class="st3" d="M793.2,57.2v-1.1c-0.7,0.9-1.6,1.3-2.7,1.3c-2.2,0-3.8-1.6-3.8-4.5c0-2.8,1.6-4.5,3.8-4.5c1,0,2,0.4,2.7,1.3
			v-4.4h2.3v11.9H793.2z M793.2,54.4v-3.1c-0.4-0.6-1.2-1-2-1c-1.3,0-2.2,1-2.2,2.5c0,1.5,0.9,2.5,2.2,2.5
			C792,55.4,792.8,55,793.2,54.4z"/>
		<path class="st3" d="M801.8,51.3c0-3.8,2.9-6.2,6.3-6.2c2.5,0,4,1.3,4.9,2.7l-2.1,1.1c-0.5-0.8-1.6-1.6-2.8-1.6
			c-2.2,0-3.7,1.7-3.7,3.9s1.6,3.9,3.7,3.9c1.1,0,2.1-0.5,2.5-0.9v-1.4h-3.1v-2.2h5.7v4.6c-1.2,1.4-2.9,2.3-5.1,2.3
			C804.6,57.4,801.8,55,801.8,51.3z"/>
		<path class="st3" d="M814.6,52.9c0-2.4,1.7-4.5,4.6-4.5c2.9,0,4.6,2.1,4.6,4.5c0,2.5-1.7,4.5-4.6,4.5
			C816.3,57.4,814.6,55.3,814.6,52.9z M821.4,52.9c0-1.3-0.8-2.5-2.2-2.5c-1.4,0-2.2,1.2-2.2,2.5c0,1.4,0.8,2.5,2.2,2.5
			C820.6,55.4,821.4,54.2,821.4,52.9z"/>
		<path class="st3" d="M827.6,57.2l-3.5-8.6h2.4l2.3,6l2.3-6h2.4l-3.5,8.6H827.6z"/>
		<path class="st3" d="M834,52.9c0-2.5,1.8-4.5,4.5-4.5c2.6,0,4.3,1.9,4.3,4.8v0.5h-6.4c0.1,1.1,1,2,2.5,2c0.7,0,1.8-0.3,2.3-0.9
			l1,1.5c-0.9,0.8-2.2,1.2-3.6,1.2C836,57.4,834,55.6,834,52.9z M838.5,50.2c-1.4,0-2,1.1-2.1,1.9h4.3
			C840.6,51.3,840,50.2,838.5,50.2z"/>
		<path class="st3" d="M844.5,57.2v-8.6h2.3v1.2c0.6-0.8,1.7-1.4,2.8-1.4v2.2c-0.2,0-0.4-0.1-0.6-0.1c-0.8,0-1.8,0.4-2.1,1v5.7
			H844.5z"/>
		<path class="st3" d="M856.7,57.2V52c0-1.2-0.6-1.6-1.6-1.6c-0.9,0-1.6,0.5-2,1v5.8h-2.3v-8.6h2.3v1.1c0.6-0.7,1.6-1.3,3-1.3
			c1.9,0,2.8,1.1,2.8,2.8v6.1H856.7z"/>
		<path class="st3" d="M866.4,57.2v-0.9c-0.6,0.7-1.6,1.1-2.7,1.1c-1.4,0-3-0.9-3-2.9c0-2,1.6-2.8,3-2.8c1.1,0,2.2,0.4,2.7,1.1v-1.2
			c0-0.9-0.8-1.4-1.9-1.4c-0.9,0-1.8,0.3-2.5,1l-0.9-1.5c1.1-0.9,2.4-1.4,3.8-1.4c2,0,3.8,0.8,3.8,3.3v5.6H866.4z M866.4,55.1v-1.1
			c-0.4-0.5-1.1-0.8-1.8-0.8c-0.9,0-1.6,0.5-1.6,1.3c0,0.8,0.7,1.3,1.6,1.3C865.3,55.9,866,55.6,866.4,55.1z"/>
		<path class="st3" d="M876.8,57.2V52c0-1.2-0.6-1.6-1.6-1.6c-0.9,0-1.6,0.5-2,1v5.8h-2.3v-8.6h2.3v1.1c0.6-0.7,1.6-1.3,3-1.3
			c1.9,0,2.8,1.1,2.8,2.8v6.1H876.8z"/>
		<path class="st3" d="M880.7,52.9c0-2.6,1.9-4.5,4.6-4.5c1.8,0,2.8,0.8,3.4,1.6l-1.5,1.4c-0.4-0.6-1-0.9-1.8-0.9
			c-1.4,0-2.3,1-2.3,2.5s1,2.5,2.3,2.5c0.8,0,1.4-0.4,1.8-0.9l1.5,1.4c-0.6,0.8-1.6,1.6-3.4,1.6C882.6,57.4,880.7,55.5,880.7,52.9z"
			/>
		<path class="st3" d="M889.6,52.9c0-2.5,1.8-4.5,4.5-4.5c2.6,0,4.3,1.9,4.3,4.8v0.5H892c0.1,1.1,1,2,2.5,2c0.7,0,1.8-0.3,2.3-0.9
			l1,1.5c-0.9,0.8-2.2,1.2-3.6,1.2C891.6,57.4,889.6,55.6,889.6,52.9z M894.1,50.2c-1.4,0-2,1.1-2.1,1.9h4.3
			C896.2,51.3,895.6,50.2,894.1,50.2z"/>
	</g>
	<g>
		<path class="st3" d="M135.6,33.4V21.5h8.4v2.2h-5.9v2.5h5.8v2.2h-5.8v2.7h5.9v2.2H135.6z"/>
		<path class="st3" d="M151.3,33.4l-2-2.9l-2,2.9h-2.5l3.1-4.4l-2.9-4.2h2.5l1.8,2.7l1.8-2.7h2.5l-2.9,4.2l3.1,4.4H151.3z"/>
		<path class="st3" d="M157.3,32.3v4.4H155V24.8h2.3v1.1c0.7-0.8,1.6-1.3,2.7-1.3c2.2,0,3.8,1.6,3.8,4.5c0,2.9-1.6,4.5-3.8,4.5
			C158.9,33.6,158,33.2,157.3,32.3z M161.4,29.1c0-1.5-0.9-2.5-2.2-2.5c-0.7,0-1.6,0.4-1.9,1v3.1c0.4,0.5,1.2,1,1.9,1
			C160.5,31.6,161.4,30.6,161.4,29.1z"/>
		<path class="st3" d="M164.9,29.1c0-2.4,1.7-4.5,4.6-4.5c2.9,0,4.6,2.1,4.6,4.5c0,2.5-1.7,4.5-4.6,4.5
			C166.6,33.6,164.9,31.5,164.9,29.1z M171.6,29.1c0-1.3-0.8-2.5-2.2-2.5s-2.2,1.2-2.2,2.5c0,1.4,0.8,2.5,2.2,2.5
			S171.6,30.4,171.6,29.1z"/>
		<path class="st3" d="M174.9,32.3l1-1.6c0.6,0.6,1.9,1.2,3,1.2c1,0,1.4-0.4,1.4-0.9c0-1.4-5.1-0.3-5.1-3.7c0-1.4,1.3-2.7,3.5-2.7
			c1.5,0,2.6,0.5,3.5,1.2l-0.9,1.6c-0.5-0.6-1.5-1-2.6-1c-0.8,0-1.4,0.4-1.4,0.9c0,1.3,5.1,0.2,5.1,3.7c0,1.6-1.3,2.8-3.7,2.8
			C177.3,33.6,175.8,33.1,174.9,32.3z"/>
		<path class="st3" d="M190,33.4v-1.1c-0.6,0.7-1.6,1.3-3,1.3c-1.9,0-2.8-1-2.8-2.7v-6.1h2.3V30c0,1.2,0.6,1.6,1.6,1.6
			c0.9,0,1.6-0.5,2-1v-5.8h2.3v8.6H190z"/>
		<path class="st3" d="M194.6,33.4v-8.6h2.3v1.2c0.6-0.8,1.7-1.4,2.8-1.4v2.2c-0.2,0-0.4-0.1-0.6-0.1c-0.8,0-1.8,0.4-2.1,1v5.7
			H194.6z"/>
		<path class="st3" d="M200.4,29.1c0-2.5,1.8-4.5,4.5-4.5c2.6,0,4.3,1.9,4.3,4.8v0.5h-6.4c0.1,1.1,1,2,2.5,2c0.7,0,1.8-0.3,2.3-0.9
			l1,1.5c-0.9,0.8-2.2,1.2-3.6,1.2C202.4,33.6,200.4,31.8,200.4,29.1z M204.9,26.3c-1.4,0-2,1.1-2.1,1.9h4.3
			C207,27.4,206.4,26.3,204.9,26.3z"/>
		<path class="st3" d="M215.5,33.4V21.5h5.6c2.6,0,4,1.8,4,3.8c0,2.1-1.4,3.8-4,3.8h-3v4.2H215.5z M222.5,25.3c0-1-0.8-1.6-1.8-1.6
			H218v3.2h2.7C221.7,26.9,222.5,26.3,222.5,25.3z"/>
		<path class="st3" d="M226.6,33.4v-8.6h2.3v1.2c0.6-0.8,1.7-1.4,2.8-1.4v2.2c-0.2,0-0.4-0.1-0.6-0.1c-0.8,0-1.8,0.4-2.1,1v5.7
			H226.6z"/>
		<path class="st3" d="M232.5,29.1c0-2.5,1.8-4.5,4.5-4.5c2.6,0,4.3,1.9,4.3,4.8v0.5h-6.4c0.1,1.1,1,2,2.5,2c0.7,0,1.8-0.3,2.3-0.9
			l1,1.5c-0.9,0.8-2.2,1.2-3.6,1.2C234.5,33.6,232.5,31.8,232.5,29.1z M236.9,26.3c-1.4,0-2,1.1-2.1,1.9h4.3
			C239,27.4,238.4,26.3,236.9,26.3z"/>
		<path class="st3" d="M245.1,33.4l-3.5-8.6h2.4l2.3,6l2.3-6h2.4l-3.5,8.6H245.1z"/>
		<path class="st3" d="M251.5,29.1c0-2.5,1.8-4.5,4.5-4.5c2.6,0,4.3,1.9,4.3,4.8v0.5h-6.4c0.1,1.1,1,2,2.5,2c0.7,0,1.8-0.3,2.3-0.9
			l1,1.5c-0.9,0.8-2.2,1.2-3.6,1.2C253.5,33.6,251.5,31.8,251.5,29.1z M256,26.3c-1.4,0-2,1.1-2.1,1.9h4.3
			C258.1,27.4,257.5,26.3,256,26.3z"/>
		<path class="st3" d="M267.8,33.4v-5.2c0-1.2-0.6-1.6-1.6-1.6c-0.9,0-1.6,0.5-2,1v5.8H262v-8.6h2.3v1.1c0.6-0.7,1.6-1.3,3-1.3
			c1.9,0,2.8,1.1,2.8,2.8v6.1H267.8z"/>
		<path class="st3" d="M272.7,31.2v-4.5h-1.4v-2h1.4v-2.4h2.3v2.4h1.8v2H275v3.9c0,0.5,0.3,0.9,0.8,0.9c0.3,0,0.7-0.1,0.8-0.2
			l0.5,1.7c-0.3,0.3-0.9,0.6-1.9,0.6C273.6,33.6,272.7,32.8,272.7,31.2z"/>
		<path class="st3" d="M278.1,22.5c0-0.8,0.6-1.3,1.4-1.3c0.8,0,1.4,0.6,1.4,1.3s-0.6,1.4-1.4,1.4C278.7,23.8,278.1,23.2,278.1,22.5
			z M278.3,33.4v-8.6h2.3v8.6H278.3z"/>
		<path class="st3" d="M282.3,29.1c0-2.4,1.7-4.5,4.6-4.5c2.9,0,4.6,2.1,4.6,4.5c0,2.5-1.7,4.5-4.6,4.5
			C284,33.6,282.3,31.5,282.3,29.1z M289.1,29.1c0-1.3-0.8-2.5-2.2-2.5c-1.4,0-2.2,1.2-2.2,2.5c0,1.4,0.8,2.5,2.2,2.5
			C288.3,31.6,289.1,30.4,289.1,29.1z"/>
		<path class="st3" d="M298.9,33.4v-5.2c0-1.2-0.6-1.6-1.6-1.6c-0.9,0-1.6,0.5-2,1v5.8h-2.3v-8.6h2.3v1.1c0.6-0.7,1.6-1.3,3-1.3
			c1.9,0,2.8,1.1,2.8,2.8v6.1H298.9z"/>
	</g>
	<g>
		<path class="st3" d="M204.9,57.2v-0.9c-0.6,0.7-1.6,1.1-2.7,1.1c-1.4,0-3-0.9-3-2.9c0-2,1.6-2.8,3-2.8c1.1,0,2.2,0.4,2.7,1.1v-1.2
			c0-0.9-0.8-1.4-1.9-1.4c-0.9,0-1.8,0.3-2.5,1l-0.9-1.5c1.1-0.9,2.4-1.4,3.8-1.4c2,0,3.8,0.8,3.8,3.3v5.6H204.9z M204.9,55.1v-1.1
			c-0.4-0.5-1.1-0.8-1.8-0.8c-0.9,0-1.6,0.5-1.6,1.3c0,0.8,0.7,1.3,1.6,1.3C203.8,55.9,204.5,55.6,204.9,55.1z"/>
		<path class="st3" d="M215.2,57.2V52c0-1.2-0.6-1.6-1.6-1.6c-0.9,0-1.6,0.5-2,1v5.8h-2.3v-8.6h2.3v1.1c0.6-0.7,1.6-1.3,3-1.3
			c1.9,0,2.8,1.1,2.8,2.8v6.1H215.2z"/>
		<path class="st3" d="M225.7,57.2v-1.1c-0.7,0.9-1.6,1.3-2.7,1.3c-2.2,0-3.8-1.6-3.8-4.5c0-2.8,1.6-4.5,3.8-4.5c1,0,2,0.4,2.7,1.3
			v-4.4h2.3v11.9H225.7z M225.7,54.4v-3.1c-0.4-0.6-1.2-1-2-1c-1.3,0-2.2,1-2.2,2.5c0,1.5,0.9,2.5,2.2,2.5
			C224.5,55.4,225.3,55,225.7,54.4z"/>
		<path class="st3" d="M234.3,51.3c0-3.7,2.8-6.2,6.3-6.2c2.6,0,4.1,1.4,5,2.9l-2.2,1.1c-0.5-1-1.6-1.7-2.8-1.7
			c-2.2,0-3.7,1.7-3.7,3.9s1.6,3.9,3.7,3.9c1.2,0,2.3-0.8,2.8-1.7l2.2,1.1c-0.9,1.5-2.4,2.9-5,2.9C237.1,57.4,234.3,54.9,234.3,51.3
			z"/>
		<path class="st3" d="M246.5,52.9c0-2.4,1.7-4.5,4.6-4.5c2.9,0,4.6,2.1,4.6,4.5c0,2.5-1.7,4.5-4.6,4.5
			C248.2,57.4,246.5,55.3,246.5,52.9z M253.3,52.9c0-1.3-0.8-2.5-2.2-2.5c-1.4,0-2.2,1.2-2.2,2.5c0,1.4,0.8,2.5,2.2,2.5
			C252.5,55.4,253.3,54.2,253.3,52.9z"/>
		<path class="st3" d="M263.2,57.2V52c0-1.2-0.6-1.6-1.6-1.6c-0.9,0-1.6,0.5-2,1v5.8h-2.3v-8.6h2.3v1.1c0.6-0.7,1.6-1.3,3-1.3
			c1.9,0,2.8,1.1,2.8,2.8v6.1H263.2z"/>
		<path class="st3" d="M268.1,55.1v-4.5h-1.4v-2h1.4v-2.4h2.3v2.4h1.8v2h-1.8v3.9c0,0.5,0.3,0.9,0.8,0.9c0.3,0,0.7-0.1,0.8-0.2
			l0.5,1.7c-0.3,0.3-0.9,0.6-1.9,0.6C269,57.4,268.1,56.6,268.1,55.1z"/>
		<path class="st3" d="M273.7,57.2v-8.6h2.3v1.2c0.6-0.8,1.7-1.4,2.8-1.4v2.2c-0.2,0-0.4-0.1-0.6-0.1c-0.8,0-1.8,0.4-2.1,1v5.7
			H273.7z"/>
		<path class="st3" d="M279.6,52.9c0-2.4,1.7-4.5,4.6-4.5c2.9,0,4.6,2.1,4.6,4.5c0,2.5-1.7,4.5-4.6,4.5
			C281.3,57.4,279.6,55.3,279.6,52.9z M286.4,52.9c0-1.3-0.8-2.5-2.2-2.5s-2.2,1.2-2.2,2.5c0,1.4,0.8,2.5,2.2,2.5
			S286.4,54.2,286.4,52.9z"/>
		<path class="st3" d="M290.4,57.2V45.3h2.3v11.9H290.4z"/>
		<path class="st3" d="M294.2,56.1l1-1.6c0.6,0.6,1.9,1.2,3,1.2c1,0,1.4-0.4,1.4-0.9c0-1.4-5.1-0.3-5.1-3.7c0-1.4,1.3-2.7,3.5-2.7
			c1.5,0,2.6,0.5,3.5,1.2l-0.9,1.6c-0.5-0.6-1.5-1-2.6-1c-0.8,0-1.4,0.4-1.4,0.9c0,1.3,5.1,0.2,5.1,3.7c0,1.6-1.3,2.8-3.7,2.8
			C296.5,57.4,295.1,56.9,294.2,56.1z"/>
	</g>
	<g>
		<path class="st3" d="M42.5,184.1c0-3.6,2.6-6.2,6.2-6.2c3.6,0,6.2,2.6,6.2,6.2c0,1.7-0.6,3.1-1.6,4.2l0.9,1l-1.8,1.4l-1-1.1
			c-0.8,0.4-1.8,0.6-2.8,0.6C45.1,190.3,42.5,187.7,42.5,184.1z M50,187.8l-1.3-1.5l1.8-1.4l1.3,1.6c0.4-0.6,0.6-1.4,0.6-2.3
			c0-2.2-1.4-3.9-3.6-3.9s-3.6,1.7-3.6,3.9c0,2.2,1.4,3.9,3.6,3.9C49.2,188,49.6,188,50,187.8z"/>
		<path class="st3" d="M62.5,190.1V189c-0.6,0.7-1.6,1.3-3,1.3c-1.9,0-2.8-1-2.8-2.7v-6.1H59v5.2c0,1.2,0.6,1.6,1.6,1.6
			c0.9,0,1.6-0.5,2-1v-5.8h2.3v8.6H62.5z"/>
		<path class="st3" d="M72.2,190.1v-0.9c-0.6,0.7-1.6,1.1-2.7,1.1c-1.4,0-3-0.9-3-2.9c0-2,1.6-2.8,3-2.8c1.1,0,2.2,0.4,2.7,1.1v-1.2
			c0-0.9-0.8-1.4-1.9-1.4c-0.9,0-1.8,0.3-2.5,1l-0.9-1.5c1.1-0.9,2.4-1.4,3.8-1.4c2,0,3.8,0.8,3.8,3.3v5.6H72.2z M72.2,188v-1.1
			c-0.4-0.5-1.1-0.8-1.8-0.8c-0.9,0-1.6,0.5-1.6,1.3c0,0.8,0.7,1.3,1.6,1.3C71.1,188.7,71.8,188.5,72.2,188z"/>
		<path class="st3" d="M82.6,190.1v-5.2c0-1.2-0.6-1.6-1.6-1.6c-0.9,0-1.6,0.5-2,1v5.8h-2.3v-8.6H79v1.1c0.6-0.7,1.6-1.3,3-1.3
			c1.9,0,2.8,1.1,2.8,2.8v6.1H82.6z"/>
		<path class="st3" d="M87.5,187.9v-4.5h-1.4v-2h1.4v-2.4h2.3v2.4h1.8v2h-1.8v3.9c0,0.5,0.3,0.9,0.8,0.9c0.3,0,0.7-0.1,0.8-0.2
			l0.5,1.7c-0.3,0.3-0.9,0.6-1.9,0.6C88.4,190.3,87.5,189.5,87.5,187.9z"/>
		<path class="st3" d="M92.9,179.2c0-0.8,0.6-1.3,1.4-1.3c0.8,0,1.4,0.6,1.4,1.3s-0.6,1.4-1.4,1.4C93.5,180.5,92.9,179.9,92.9,179.2
			z M93.1,190.1v-8.6h2.3v8.6H93.1z"/>
		<path class="st3" d="M98.1,187.9v-4.5h-1.4v-2h1.4v-2.4h2.3v2.4h1.8v2h-1.8v3.9c0,0.5,0.3,0.9,0.8,0.9c0.3,0,0.7-0.1,0.8-0.2
			l0.5,1.7c-0.3,0.3-0.9,0.6-1.9,0.6C98.9,190.3,98.1,189.5,98.1,187.9z"/>
		<path class="st3" d="M108.9,190.1v-0.9c-0.6,0.7-1.6,1.1-2.7,1.1c-1.4,0-3-0.9-3-2.9c0-2,1.6-2.8,3-2.8c1.1,0,2.2,0.4,2.7,1.1
			v-1.2c0-0.9-0.8-1.4-1.9-1.4c-0.9,0-1.8,0.3-2.5,1l-0.9-1.5c1.1-0.9,2.4-1.4,3.8-1.4c2,0,3.8,0.8,3.8,3.3v5.6H108.9z M108.9,188
			v-1.1c-0.4-0.5-1.1-0.8-1.8-0.8c-0.9,0-1.6,0.5-1.6,1.3c0,0.8,0.7,1.3,1.6,1.3C107.8,188.7,108.5,188.5,108.9,188z"/>
		<path class="st3" d="M113.8,187.9v-4.5h-1.4v-2h1.4v-2.4h2.3v2.4h1.8v2h-1.8v3.9c0,0.5,0.3,0.9,0.8,0.9c0.3,0,0.7-0.1,0.8-0.2
			l0.5,1.7c-0.3,0.3-0.9,0.6-1.9,0.6C114.7,190.3,113.8,189.5,113.8,187.9z"/>
		<path class="st3" d="M119.2,179.2c0-0.8,0.6-1.3,1.4-1.3c0.8,0,1.4,0.6,1.4,1.3s-0.6,1.4-1.4,1.4
			C119.8,180.5,119.2,179.9,119.2,179.2z M119.4,190.1v-8.6h2.3v8.6H119.4z"/>
		<path class="st3" d="M126.2,190.1l-3.5-8.6h2.4l2.3,6l2.3-6h2.4l-3.5,8.6H126.2z"/>
		<path class="st3" d="M132.6,185.7c0-2.5,1.8-4.5,4.5-4.5c2.6,0,4.3,1.9,4.3,4.8v0.5h-6.4c0.1,1.1,1,2,2.5,2c0.7,0,1.8-0.3,2.3-0.9
			l1,1.5c-0.9,0.8-2.2,1.2-3.6,1.2C134.5,190.3,132.6,188.5,132.6,185.7z M137,183c-1.4,0-2,1.1-2.1,1.9h4.3
			C139.1,184.1,138.5,183,137,183z"/>
		<path class="st3" d="M147.6,190.1v-11.9h8.4v2.2h-5.9v2.5h5.8v2.2h-5.8v2.7h5.9v2.2H147.6z"/>
		<path class="st3" d="M163.3,190.1l-2-2.9l-2,2.9h-2.5l3.1-4.4l-2.9-4.2h2.5l1.8,2.7l1.8-2.7h2.5l-2.9,4.2l3.1,4.4H163.3z"/>
		<path class="st3" d="M169.3,189v4.4H167v-11.9h2.3v1.1c0.7-0.8,1.6-1.3,2.7-1.3c2.2,0,3.8,1.6,3.8,4.5c0,2.9-1.6,4.5-3.8,4.5
			C170.9,190.3,169.9,189.9,169.3,189z M173.4,185.7c0-1.5-0.9-2.5-2.2-2.5c-0.7,0-1.6,0.4-1.9,1v3.1c0.4,0.5,1.2,1,1.9,1
			C172.5,188.3,173.4,187.2,173.4,185.7z"/>
		<path class="st3" d="M176.8,185.7c0-2.4,1.7-4.5,4.6-4.5c2.9,0,4.6,2.1,4.6,4.5c0,2.5-1.7,4.5-4.6,4.5
			C178.6,190.3,176.8,188.2,176.8,185.7z M183.6,185.7c0-1.3-0.8-2.5-2.2-2.5s-2.2,1.2-2.2,2.5c0,1.4,0.8,2.5,2.2,2.5
			S183.6,187.1,183.6,185.7z"/>
		<path class="st3" d="M186.9,188.9l1-1.6c0.6,0.6,1.9,1.2,3,1.2c1,0,1.4-0.4,1.4-0.9c0-1.4-5.1-0.3-5.1-3.7c0-1.4,1.3-2.7,3.5-2.7
			c1.5,0,2.6,0.5,3.5,1.2l-0.9,1.6c-0.5-0.6-1.5-1-2.6-1c-0.8,0-1.4,0.4-1.4,0.9c0,1.3,5.1,0.2,5.1,3.7c0,1.6-1.3,2.8-3.7,2.8
			C189.3,190.3,187.8,189.8,186.9,188.9z"/>
		<path class="st3" d="M202,190.1V189c-0.6,0.7-1.6,1.3-3,1.3c-1.9,0-2.8-1-2.8-2.7v-6.1h2.3v5.2c0,1.2,0.6,1.6,1.6,1.6
			c0.9,0,1.6-0.5,2-1v-5.8h2.3v8.6H202z"/>
		<path class="st3" d="M206.5,190.1v-8.6h2.3v1.2c0.6-0.8,1.7-1.4,2.8-1.4v2.2c-0.2,0-0.4-0.1-0.6-0.1c-0.8,0-1.8,0.4-2.1,1v5.7
			H206.5z"/>
		<path class="st3" d="M212.4,185.7c0-2.5,1.8-4.5,4.5-4.5c2.6,0,4.3,1.9,4.3,4.8v0.5h-6.4c0.1,1.1,1,2,2.5,2c0.7,0,1.8-0.3,2.3-0.9
			l1,1.5c-0.9,0.8-2.2,1.2-3.6,1.2C214.4,190.3,212.4,188.5,212.4,185.7z M216.9,183c-1.4,0-2,1.1-2.1,1.9h4.3
			C218.9,184.1,218.4,183,216.9,183z"/>
	</g>
	<g>
		<path class="st3" d="M124.9,213.9l-0.7-2h-5.1l-0.8,2h-2.9L120,202h3.2l4.6,11.9H124.9z M121.6,204.5l-1.9,5.1h3.7L121.6,204.5z"
			/>
		<path class="st3" d="M128.1,212.8l1-1.6c0.6,0.6,1.9,1.2,3,1.2c1,0,1.4-0.4,1.4-0.9c0-1.4-5.1-0.3-5.1-3.7c0-1.4,1.3-2.7,3.5-2.7
			c1.5,0,2.6,0.5,3.5,1.2l-0.9,1.6c-0.5-0.6-1.5-1-2.6-1c-0.8,0-1.4,0.4-1.4,0.9c0,1.3,5.1,0.2,5.1,3.7c0,1.6-1.3,2.8-3.7,2.8
			C130.5,214.1,129,213.6,128.1,212.8z"/>
		<path class="st3" d="M136.6,212.8l1-1.6c0.6,0.6,1.9,1.2,3,1.2c1,0,1.4-0.4,1.4-0.9c0-1.4-5.1-0.3-5.1-3.7c0-1.4,1.3-2.7,3.5-2.7
			c1.5,0,2.6,0.5,3.5,1.2l-0.9,1.6c-0.5-0.6-1.5-1-2.6-1c-0.8,0-1.4,0.4-1.4,0.9c0,1.3,5.1,0.2,5.1,3.7c0,1.6-1.3,2.8-3.7,2.8
			C139,214.1,137.6,213.6,136.6,212.8z"/>
		<path class="st3" d="M145.4,209.6c0-2.5,1.8-4.5,4.5-4.5c2.6,0,4.3,1.9,4.3,4.8v0.5h-6.4c0.1,1.1,1,2,2.5,2c0.7,0,1.8-0.3,2.3-0.9
			l1,1.5c-0.9,0.8-2.2,1.2-3.6,1.2C147.3,214.1,145.4,212.3,145.4,209.6z M149.8,206.8c-1.4,0-2,1.1-2.1,1.9h4.3
			C151.9,207.9,151.3,206.8,149.8,206.8z"/>
		<path class="st3" d="M155,212.8l1-1.6c0.6,0.6,1.9,1.2,3,1.2c1,0,1.4-0.4,1.4-0.9c0-1.4-5.1-0.3-5.1-3.7c0-1.4,1.3-2.7,3.5-2.7
			c1.5,0,2.6,0.5,3.5,1.2l-0.9,1.6c-0.5-0.6-1.5-1-2.6-1c-0.8,0-1.4,0.4-1.4,0.9c0,1.3,5.1,0.2,5.1,3.7c0,1.6-1.3,2.8-3.7,2.8
			C157.4,214.1,156,213.6,155,212.8z"/>
		<path class="st3" d="M163.6,212.8l1-1.6c0.6,0.6,1.9,1.2,3,1.2c1,0,1.4-0.4,1.4-0.9c0-1.4-5.1-0.3-5.1-3.7c0-1.4,1.3-2.7,3.5-2.7
			c1.5,0,2.6,0.5,3.5,1.2l-0.9,1.6c-0.5-0.6-1.5-1-2.6-1c-0.8,0-1.4,0.4-1.4,0.9c0,1.3,5.1,0.2,5.1,3.7c0,1.6-1.3,2.8-3.7,2.8
			C165.9,214.1,164.5,213.6,163.6,212.8z"/>
		<path class="st3" d="M183.5,213.9v-5.4c0-0.8-0.4-1.4-1.3-1.4c-0.8,0-1.5,0.5-1.8,1v5.8h-2.3v-5.4c0-0.8-0.4-1.4-1.3-1.4
			c-0.8,0-1.4,0.5-1.8,1v5.8h-2.3v-8.6h2.3v1.1c0.4-0.5,1.5-1.3,2.8-1.3c1.3,0,2.1,0.6,2.4,1.6c0.5-0.8,1.6-1.6,3-1.6
			c1.6,0,2.5,0.8,2.5,2.6v6.2H183.5z"/>
		<path class="st3" d="M187.5,209.6c0-2.5,1.8-4.5,4.5-4.5c2.6,0,4.3,1.9,4.3,4.8v0.5h-6.4c0.1,1.1,1,2,2.5,2c0.7,0,1.8-0.3,2.3-0.9
			l1,1.5c-0.9,0.8-2.2,1.2-3.6,1.2C189.5,214.1,187.5,212.3,187.5,209.6z M192,206.8c-1.4,0-2,1.1-2.1,1.9h4.3
			C194.1,207.9,193.5,206.8,192,206.8z"/>
		<path class="st3" d="M203.8,213.9v-5.2c0-1.2-0.6-1.6-1.6-1.6c-0.9,0-1.6,0.5-2,1v5.8h-2.3v-8.6h2.3v1.1c0.6-0.7,1.6-1.3,3-1.3
			c1.9,0,2.8,1.1,2.8,2.8v6.1H203.8z"/>
		<path class="st3" d="M208.7,211.7v-4.5h-1.4v-2h1.4v-2.4h2.3v2.4h1.8v2H211v3.9c0,0.5,0.3,0.9,0.8,0.9c0.3,0,0.7-0.1,0.8-0.2
			l0.5,1.7c-0.3,0.3-0.9,0.6-1.9,0.6C209.6,214.1,208.7,213.3,208.7,211.7z"/>
		<path class="st3" d="M213.6,212.8l1-1.6c0.6,0.6,1.9,1.2,3,1.2c1,0,1.4-0.4,1.4-0.9c0-1.4-5.1-0.3-5.1-3.7c0-1.4,1.3-2.7,3.5-2.7
			c1.5,0,2.6,0.5,3.5,1.2l-0.9,1.6c-0.5-0.6-1.5-1-2.6-1c-0.8,0-1.4,0.4-1.4,0.9c0,1.3,5.1,0.2,5.1,3.7c0,1.6-1.3,2.8-3.7,2.8
			C215.9,214.1,214.5,213.6,213.6,212.8z"/>
	</g>
	<path class="st3" d="M710.6,360.6v-5H705v5h-2.5v-11.9h2.5v4.7h5.6v-4.7h2.6v11.9H710.6z M721.4,360.6v-1.1
		c-0.7,0.9-1.6,1.3-2.7,1.3c-2.2,0-3.8-1.6-3.8-4.5c0-2.8,1.6-4.5,3.8-4.5c1,0,2,0.4,2.7,1.3V352h2.3v8.6H721.4z M721.4,357.8v-3
		c-0.4-0.6-1.2-1-1.9-1c-1.3,0-2.2,1-2.2,2.5c0,1.5,0.9,2.5,2.2,2.5C720.2,358.8,721,358.4,721.4,357.8z M725.5,360.6v-1.7l3.9-5
		h-3.9v-2h7v1.6l-4,5h4v2H725.5z M740.4,360.6v-1.1c-0.7,0.9-1.6,1.3-2.7,1.3c-2.2,0-3.8-1.6-3.8-4.5c0-2.8,1.6-4.5,3.8-4.5
		c1,0,2,0.4,2.7,1.3V352h2.3v8.6H740.4z M740.4,357.8v-3c-0.4-0.6-1.2-1-1.9-1c-1.3,0-2.2,1-2.2,2.5c0,1.5,0.9,2.5,2.2,2.5
		C739.2,358.8,740,358.4,740.4,357.8z M744.9,360.6V352h2.3v1.2c0.6-0.8,1.7-1.4,2.8-1.4v2.2c-0.2,0-0.4-0.1-0.6-0.1
		c-0.8,0-1.8,0.4-2.1,1v5.7H744.9z M757.3,360.6v-1.1c-0.7,0.9-1.6,1.3-2.7,1.3c-2.2,0-3.8-1.6-3.8-4.5c0-2.8,1.6-4.5,3.8-4.5
		c1,0,2,0.4,2.7,1.3v-4.4h2.3v11.9H757.3z M757.3,357.8v-3.1c-0.4-0.6-1.2-1-1.9-1c-1.3,0-2.2,1-2.2,2.5c0,1.5,0.9,2.5,2.2,2.5
		C756.1,358.8,756.9,358.4,757.3,357.8z"/>
	<g>
		<path class="st3" d="M701.9,378.5c0-3.7,2.8-6.2,6.3-6.2c2.6,0,4.1,1.4,5,2.9l-2.2,1.1c-0.5-1-1.6-1.7-2.8-1.7
			c-2.2,0-3.7,1.7-3.7,3.9c0,2.3,1.6,3.9,3.7,3.9c1.2,0,2.3-0.8,2.8-1.7l2.2,1.1c-0.9,1.5-2.4,2.9-5,2.9
			C704.6,384.6,701.9,382.1,701.9,378.5z"/>
		<path class="st3" d="M720.5,384.4v-5.3c0-1.2-0.6-1.6-1.6-1.6c-0.9,0-1.6,0.5-2,1v5.8h-2.3v-11.9h2.3v4.4c0.6-0.7,1.6-1.3,3-1.3
			c1.9,0,2.8,1,2.8,2.7v6.1H720.5z"/>
		<path class="st3" d="M730.2,384.4v-0.9c-0.6,0.7-1.6,1.1-2.7,1.1c-1.4,0-3-0.9-3-2.9c0-2,1.6-2.8,3-2.8c1.1,0,2.2,0.4,2.7,1.1
			v-1.2c0-0.9-0.8-1.4-1.9-1.4c-0.9,0-1.8,0.3-2.5,1l-0.9-1.5c1.1-0.9,2.4-1.4,3.8-1.4c2,0,3.8,0.8,3.8,3.3v5.6H730.2z M730.2,382.3
			v-1.1c-0.4-0.5-1.1-0.8-1.8-0.8c-0.9,0-1.6,0.5-1.6,1.3c0,0.8,0.7,1.3,1.6,1.3C729.1,383.1,729.8,382.8,730.2,382.3z"/>
		<path class="st3" d="M734.7,384.4v-8.6h2.3v1.2c0.6-0.8,1.7-1.4,2.8-1.4v2.2c-0.2,0-0.4-0.1-0.6-0.1c-0.8,0-1.8,0.4-2.1,1v5.7
			H734.7z"/>
		<path class="st3" d="M746.3,384.4v-0.9c-0.6,0.7-1.6,1.1-2.7,1.1c-1.4,0-3-0.9-3-2.9c0-2,1.6-2.8,3-2.8c1.1,0,2.2,0.4,2.7,1.1
			v-1.2c0-0.9-0.8-1.4-1.9-1.4c-0.9,0-1.8,0.3-2.5,1l-0.9-1.5c1.1-0.9,2.4-1.4,3.8-1.4c2,0,3.8,0.8,3.8,3.3v5.6H746.3z M746.3,382.3
			v-1.1c-0.4-0.5-1.1-0.8-1.8-0.8c-0.9,0-1.6,0.5-1.6,1.3c0,0.8,0.7,1.3,1.6,1.3C745.2,383.1,746,382.8,746.3,382.3z"/>
		<path class="st3" d="M750.3,380.1c0-2.6,1.9-4.5,4.6-4.5c1.8,0,2.8,0.8,3.4,1.6l-1.5,1.4c-0.4-0.6-1-0.9-1.8-0.9
			c-1.4,0-2.3,1-2.3,2.5s1,2.5,2.3,2.5c0.8,0,1.4-0.4,1.8-0.9l1.5,1.4c-0.6,0.8-1.6,1.6-3.4,1.6
			C752.2,384.6,750.3,382.7,750.3,380.1z"/>
		<path class="st3" d="M760.2,382.3v-4.5h-1.4v-2h1.4v-2.4h2.3v2.4h1.8v2h-1.8v3.9c0,0.5,0.3,0.9,0.8,0.9c0.3,0,0.7-0.1,0.8-0.2
			l0.5,1.7c-0.3,0.3-0.9,0.6-1.9,0.6C761.1,384.6,760.2,383.8,760.2,382.3z"/>
		<path class="st3" d="M765.2,380.1c0-2.5,1.8-4.5,4.5-4.5c2.6,0,4.3,1.9,4.3,4.8v0.5h-6.4c0.1,1.1,1,2,2.5,2c0.7,0,1.8-0.3,2.3-0.9
			l1,1.5c-0.9,0.8-2.2,1.2-3.6,1.2C767.2,384.6,765.2,382.9,765.2,380.1z M769.7,377.4c-1.4,0-2,1.1-2.1,1.9h4.3
			C771.8,378.5,771.2,377.4,769.7,377.4z"/>
		<path class="st3" d="M775.7,384.4v-8.6h2.3v1.2c0.6-0.8,1.7-1.4,2.8-1.4v2.2c-0.2,0-0.4-0.1-0.6-0.1c-0.8,0-1.8,0.4-2.1,1v5.7
			H775.7z"/>
		<path class="st3" d="M781.9,373.5c0-0.8,0.6-1.3,1.4-1.3c0.8,0,1.4,0.6,1.4,1.3c0,0.8-0.6,1.4-1.4,1.4
			C782.5,374.8,781.9,374.2,781.9,373.5z M782.1,384.4v-8.6h2.3v8.6H782.1z"/>
		<path class="st3" d="M785.9,383.3l1-1.6c0.6,0.6,1.9,1.2,3,1.2c1,0,1.4-0.4,1.4-0.9c0-1.4-5.1-0.3-5.1-3.7c0-1.4,1.3-2.7,3.5-2.7
			c1.5,0,2.6,0.5,3.5,1.2l-0.9,1.6c-0.5-0.6-1.5-1-2.6-1c-0.8,0-1.4,0.4-1.4,0.9c0,1.3,5.1,0.2,5.1,3.7c0,1.6-1.3,2.8-3.7,2.8
			C788.2,384.6,786.8,384.1,785.9,383.3z"/>
		<path class="st3" d="M800.3,384.4v-0.9c-0.6,0.7-1.6,1.1-2.7,1.1c-1.4,0-3-0.9-3-2.9c0-2,1.6-2.8,3-2.8c1.1,0,2.2,0.4,2.7,1.1
			v-1.2c0-0.9-0.8-1.4-1.9-1.4c-0.9,0-1.8,0.3-2.5,1l-0.9-1.5c1.1-0.9,2.4-1.4,3.8-1.4c2,0,3.8,0.8,3.8,3.3v5.6H800.3z M800.3,382.3
			v-1.1c-0.4-0.5-1.1-0.8-1.8-0.8c-0.9,0-1.6,0.5-1.6,1.3c0,0.8,0.7,1.3,1.6,1.3C799.3,383.1,800,382.8,800.3,382.3z"/>
		<path class="st3" d="M805.3,382.3v-4.5h-1.4v-2h1.4v-2.4h2.3v2.4h1.8v2h-1.8v3.9c0,0.5,0.3,0.9,0.8,0.9c0.3,0,0.7-0.1,0.8-0.2
			l0.5,1.7c-0.3,0.3-0.9,0.6-1.9,0.6C806.2,384.6,805.3,383.8,805.3,382.3z"/>
		<path class="st3" d="M810.7,373.5c0-0.8,0.6-1.3,1.4-1.3c0.8,0,1.4,0.6,1.4,1.3c0,0.8-0.6,1.4-1.4,1.4
			C811.3,374.8,810.7,374.2,810.7,373.5z M810.9,384.4v-8.6h2.3v8.6H810.9z"/>
		<path class="st3" d="M814.9,380.1c0-2.4,1.7-4.5,4.6-4.5c2.9,0,4.6,2.1,4.6,4.5c0,2.5-1.7,4.5-4.6,4.5
			C816.6,384.6,814.9,382.5,814.9,380.1z M821.6,380.1c0-1.3-0.8-2.5-2.2-2.5c-1.4,0-2.2,1.2-2.2,2.5c0,1.4,0.8,2.5,2.2,2.5
			C820.8,382.6,821.6,381.4,821.6,380.1z"/>
		<path class="st3" d="M831.5,384.4v-5.2c0-1.2-0.6-1.6-1.6-1.6c-0.9,0-1.6,0.5-2,1v5.8h-2.3v-8.6h2.3v1.1c0.6-0.7,1.6-1.3,3-1.3
			c1.9,0,2.8,1.1,2.8,2.8v6.1H831.5z"/>
	</g>
	<g>
		<path class="st3" d="M129.8,354.6c0-3.6,2.6-6.2,6.2-6.2c3.6,0,6.2,2.6,6.2,6.2c0,1.7-0.6,3.1-1.6,4.2l0.9,1l-1.8,1.4l-1-1.1
			c-0.8,0.4-1.8,0.6-2.8,0.6C132.4,360.8,129.8,358.2,129.8,354.6z M137.2,358.4l-1.3-1.5l1.8-1.4l1.3,1.6c0.4-0.6,0.6-1.4,0.6-2.3
			c0-2.2-1.4-3.9-3.6-3.9s-3.6,1.7-3.6,3.9c0,2.2,1.4,3.9,3.6,3.9C136.4,358.5,136.9,358.5,137.2,358.4z"/>
		<path class="st3" d="M149.8,360.6v-1.1c-0.6,0.7-1.6,1.3-3,1.3c-1.9,0-2.8-1-2.8-2.7V352h2.3v5.2c0,1.2,0.6,1.6,1.6,1.6
			c0.9,0,1.6-0.5,2-1V352h2.3v8.6H149.8z"/>
		<path class="st3" d="M159.5,360.6v-0.9c-0.6,0.7-1.6,1.1-2.7,1.1c-1.4,0-3-0.9-3-2.9c0-2,1.6-2.8,3-2.8c1.1,0,2.2,0.4,2.7,1.1V355
			c0-0.9-0.8-1.4-1.9-1.4c-0.9,0-1.8,0.3-2.5,1l-0.9-1.5c1.1-0.9,2.4-1.4,3.8-1.4c2,0,3.8,0.8,3.8,3.3v5.6H159.5z M159.5,358.5v-1.1
			c-0.4-0.5-1.1-0.8-1.8-0.8c-0.9,0-1.6,0.5-1.6,1.3c0,0.8,0.7,1.3,1.6,1.3C158.4,359.3,159.1,359,159.5,358.5z"/>
		<path class="st3" d="M164,360.6v-11.9h2.3v11.9H164z"/>
		<path class="st3" d="M168.3,349.7c0-0.8,0.6-1.3,1.4-1.3c0.8,0,1.4,0.6,1.4,1.3c0,0.8-0.6,1.4-1.4,1.4
			C168.9,351,168.3,350.4,168.3,349.7z M168.5,360.6V352h2.3v8.6H168.5z"/>
		<path class="st3" d="M173.5,358.4v-4.5h-1.4v-2h1.4v-2.4h2.3v2.4h1.8v2h-1.8v3.9c0,0.5,0.3,0.9,0.8,0.9c0.3,0,0.7-0.1,0.8-0.2
			l0.5,1.7c-0.3,0.3-0.9,0.6-1.9,0.6C174.4,360.8,173.5,360,173.5,358.4z"/>
		<path class="st3" d="M184.3,360.6v-0.9c-0.6,0.7-1.6,1.1-2.7,1.1c-1.4,0-3-0.9-3-2.9c0-2,1.6-2.8,3-2.8c1.1,0,2.2,0.4,2.7,1.1V355
			c0-0.9-0.8-1.4-1.9-1.4c-0.9,0-1.8,0.3-2.5,1l-0.9-1.5c1.1-0.9,2.4-1.4,3.8-1.4c2,0,3.8,0.8,3.8,3.3v5.6H184.3z M184.3,358.5v-1.1
			c-0.4-0.5-1.1-0.8-1.8-0.8c-0.9,0-1.6,0.5-1.6,1.3c0,0.8,0.7,1.3,1.6,1.3C183.2,359.3,183.9,359,184.3,358.5z"/>
		<path class="st3" d="M189.2,358.4v-4.5h-1.4v-2h1.4v-2.4h2.3v2.4h1.8v2h-1.8v3.9c0,0.5,0.3,0.9,0.8,0.9c0.3,0,0.7-0.1,0.8-0.2
			l0.5,1.7c-0.3,0.3-0.9,0.6-1.9,0.6C190.1,360.8,189.2,360,189.2,358.4z"/>
		<path class="st3" d="M194.6,349.7c0-0.8,0.6-1.3,1.4-1.3c0.8,0,1.4,0.6,1.4,1.3c0,0.8-0.6,1.4-1.4,1.4
			C195.2,351,194.6,350.4,194.6,349.7z M194.8,360.6V352h2.3v8.6H194.8z"/>
		<path class="st3" d="M201.6,360.6l-3.5-8.6h2.4l2.3,6l2.3-6h2.4l-3.5,8.6H201.6z"/>
		<path class="st3" d="M208,356.3c0-2.5,1.8-4.5,4.5-4.5c2.6,0,4.3,1.9,4.3,4.8v0.5h-6.4c0.1,1.1,1,2,2.5,2c0.7,0,1.8-0.3,2.3-0.9
			l1,1.5c-0.9,0.8-2.2,1.2-3.6,1.2C210,360.8,208,359,208,356.3z M212.4,353.5c-1.4,0-2,1.1-2.1,1.9h4.3
			C214.5,354.6,213.9,353.5,212.4,353.5z"/>
		<path class="st3" d="M223,360.6v-11.9h8.4v2.2h-5.9v2.5h5.8v2.2h-5.8v2.7h5.9v2.2H223z"/>
		<path class="st3" d="M238.7,360.6l-2-2.9l-2,2.9h-2.5l3.1-4.4l-2.9-4.2h2.5l1.8,2.7l1.8-2.7h2.5l-2.9,4.2l3.1,4.4H238.7z"/>
		<path class="st3" d="M244.7,359.5v4.4h-2.3V352h2.3v1.1c0.7-0.8,1.6-1.3,2.7-1.3c2.2,0,3.8,1.6,3.8,4.5s-1.6,4.5-3.8,4.5
			C246.3,360.8,245.4,360.4,244.7,359.5z M248.8,356.3c0-1.5-0.9-2.5-2.2-2.5c-0.7,0-1.6,0.4-1.9,1v3.1c0.4,0.5,1.2,1,1.9,1
			C247.9,358.8,248.8,357.8,248.8,356.3z"/>
		<path class="st3" d="M252.3,356.3c0-2.4,1.7-4.5,4.6-4.5c2.9,0,4.6,2.1,4.6,4.5c0,2.5-1.7,4.5-4.6,4.5
			C254,360.8,252.3,358.7,252.3,356.3z M259,356.3c0-1.3-0.8-2.5-2.2-2.5s-2.2,1.2-2.2,2.5c0,1.4,0.8,2.5,2.2,2.5
			S259,357.6,259,356.3z"/>
		<path class="st3" d="M262.3,359.5l1-1.6c0.6,0.6,1.9,1.2,3,1.2c1,0,1.4-0.4,1.4-0.9c0-1.4-5.1-0.3-5.1-3.7c0-1.4,1.3-2.7,3.5-2.7
			c1.5,0,2.6,0.5,3.5,1.2l-0.9,1.6c-0.5-0.6-1.5-1-2.6-1c-0.8,0-1.4,0.4-1.4,0.9c0,1.3,5.1,0.2,5.1,3.7c0,1.6-1.3,2.8-3.7,2.8
			C264.7,360.8,263.2,360.3,262.3,359.5z"/>
		<path class="st3" d="M277.4,360.6v-1.1c-0.6,0.7-1.6,1.3-3,1.3c-1.9,0-2.8-1-2.8-2.7V352h2.3v5.2c0,1.2,0.6,1.6,1.6,1.6
			c0.9,0,1.6-0.5,2-1V352h2.3v8.6H277.4z"/>
		<path class="st3" d="M281.9,360.6V352h2.3v1.2c0.6-0.8,1.7-1.4,2.8-1.4v2.2c-0.2,0-0.4-0.1-0.6-0.1c-0.8,0-1.8,0.4-2.1,1v5.7
			H281.9z"/>
		<path class="st3" d="M287.8,356.3c0-2.5,1.8-4.5,4.5-4.5c2.6,0,4.3,1.9,4.3,4.8v0.5h-6.4c0.1,1.1,1,2,2.5,2c0.7,0,1.8-0.3,2.3-0.9
			l1,1.5c-0.9,0.8-2.2,1.2-3.6,1.2C289.8,360.8,287.8,359,287.8,356.3z M292.3,353.5c-1.4,0-2,1.1-2.1,1.9h4.3
			C294.4,354.6,293.8,353.5,292.3,353.5z"/>
	</g>
	<g>
		<path class="st3" d="M200.3,384.4l-0.7-2h-5.1l-0.8,2h-2.9l4.6-11.9h3.2l4.6,11.9H200.3z M197.1,375l-1.9,5.1h3.7L197.1,375z"/>
		<path class="st3" d="M203.5,383.3l1-1.6c0.6,0.6,1.9,1.2,3,1.2c1,0,1.4-0.4,1.4-0.9c0-1.4-5.1-0.3-5.1-3.7c0-1.4,1.3-2.7,3.5-2.7
			c1.5,0,2.6,0.5,3.5,1.2l-0.9,1.6c-0.5-0.6-1.5-1-2.6-1c-0.8,0-1.4,0.4-1.4,0.9c0,1.3,5.1,0.2,5.1,3.7c0,1.6-1.3,2.8-3.7,2.8
			C205.9,384.6,204.5,384.1,203.5,383.3z"/>
		<path class="st3" d="M212.1,383.3l1-1.6c0.6,0.6,1.9,1.2,3,1.2c1,0,1.4-0.4,1.4-0.9c0-1.4-5.1-0.3-5.1-3.7c0-1.4,1.3-2.7,3.5-2.7
			c1.5,0,2.6,0.5,3.5,1.2l-0.9,1.6c-0.5-0.6-1.5-1-2.6-1c-0.8,0-1.4,0.4-1.4,0.9c0,1.3,5.1,0.2,5.1,3.7c0,1.6-1.3,2.8-3.7,2.8
			C214.4,384.6,213,384.1,212.1,383.3z"/>
		<path class="st3" d="M220.8,380.1c0-2.5,1.8-4.5,4.5-4.5c2.6,0,4.3,1.9,4.3,4.8v0.5h-6.4c0.1,1.1,1,2,2.5,2c0.7,0,1.8-0.3,2.3-0.9
			l1,1.5c-0.9,0.8-2.2,1.2-3.6,1.2C222.8,384.6,220.8,382.9,220.8,380.1z M225.3,377.4c-1.4,0-2,1.1-2.1,1.9h4.3
			C227.3,378.5,226.8,377.4,225.3,377.4z"/>
		<path class="st3" d="M230.5,383.3l1-1.6c0.6,0.6,1.9,1.2,3,1.2c1,0,1.4-0.4,1.4-0.9c0-1.4-5.1-0.3-5.1-3.7c0-1.4,1.3-2.7,3.5-2.7
			c1.5,0,2.6,0.5,3.5,1.2l-0.9,1.6c-0.5-0.6-1.5-1-2.6-1c-0.8,0-1.4,0.4-1.4,0.9c0,1.3,5.1,0.2,5.1,3.7c0,1.6-1.3,2.8-3.7,2.8
			C232.8,384.6,231.4,384.1,230.5,383.3z"/>
		<path class="st3" d="M239,383.3l1-1.6c0.6,0.6,1.9,1.2,3,1.2c1,0,1.4-0.4,1.4-0.9c0-1.4-5.1-0.3-5.1-3.7c0-1.4,1.3-2.7,3.5-2.7
			c1.5,0,2.6,0.5,3.5,1.2l-0.9,1.6c-0.5-0.6-1.5-1-2.6-1c-0.8,0-1.4,0.4-1.4,0.9c0,1.3,5.1,0.2,5.1,3.7c0,1.6-1.3,2.8-3.7,2.8
			C241.4,384.6,239.9,384.1,239,383.3z"/>
		<path class="st3" d="M259,384.4V379c0-0.8-0.4-1.4-1.3-1.4c-0.8,0-1.5,0.5-1.8,1v5.8h-2.3V379c0-0.8-0.4-1.4-1.3-1.4
			c-0.8,0-1.4,0.5-1.8,1v5.8h-2.3v-8.6h2.3v1.1c0.4-0.5,1.5-1.3,2.8-1.3c1.3,0,2.1,0.6,2.4,1.6c0.5-0.8,1.6-1.6,3-1.6
			c1.6,0,2.5,0.8,2.5,2.6v6.2H259z"/>
		<path class="st3" d="M262.9,380.1c0-2.5,1.8-4.5,4.5-4.5c2.6,0,4.3,1.9,4.3,4.8v0.5h-6.4c0.1,1.1,1,2,2.5,2c0.7,0,1.8-0.3,2.3-0.9
			l1,1.5c-0.9,0.8-2.2,1.2-3.6,1.2C264.9,384.6,262.9,382.9,262.9,380.1z M267.4,377.4c-1.4,0-2,1.1-2.1,1.9h4.3
			C269.5,378.5,268.9,377.4,267.4,377.4z"/>
		<path class="st3" d="M279.2,384.4v-5.2c0-1.2-0.6-1.6-1.6-1.6c-0.9,0-1.6,0.5-2,1v5.8h-2.3v-8.6h2.3v1.1c0.6-0.7,1.6-1.3,3-1.3
			c1.9,0,2.8,1.1,2.8,2.8v6.1H279.2z"/>
		<path class="st3" d="M284.2,382.3v-4.5h-1.4v-2h1.4v-2.4h2.3v2.4h1.8v2h-1.8v3.9c0,0.5,0.3,0.9,0.8,0.9c0.3,0,0.7-0.1,0.8-0.2
			l0.5,1.7c-0.3,0.3-0.9,0.6-1.9,0.6C285,384.6,284.2,383.8,284.2,382.3z"/>
		<path class="st3" d="M289,383.3l1-1.6c0.6,0.6,1.9,1.2,3,1.2c1,0,1.4-0.4,1.4-0.9c0-1.4-5.1-0.3-5.1-3.7c0-1.4,1.3-2.7,3.5-2.7
			c1.5,0,2.6,0.5,3.5,1.2l-0.9,1.6c-0.5-0.6-1.5-1-2.6-1c-0.8,0-1.4,0.4-1.4,0.9c0,1.3,5.1,0.2,5.1,3.7c0,1.6-1.3,2.8-3.7,2.8
			C291.4,384.6,289.9,384.1,289,383.3z"/>
	</g>
	<g>
		<path class="st1" d="M384.7,4c-34.6,15.2-58.7,49.7-58.7,89.9"/>
		<path class="st1" d="M275.6,161.6c-15.7,17.4-25.3,40.4-25.3,65.7c0,17.3,4.5,33.6,12.4,47.7"/>
		<path class="st1" d="M330.9,330.7c-3.7,10.3-5.7,21.5-5.7,33.1c0,33.6,16.9,63.2,42.6,80.9"/>
	</g>
	<line class="st4" x1="992.4" y1="3.9" x2="615.4" y2="3.9"/>
	<line class="st1" x1="384.6" y1="3.9" x2="7.6" y2="3.9"/>
	<line class="st1" x1="276" y1="161.7" x2="7.6" y2="161.7"/>
	<line class="st1" x1="331.2" y1="331.1" x2="7.6" y2="331.1"/>
	<line class="st1" x1="992.4" y1="331.4" x2="665.5" y2="331.4"/>
	<g>
		<path class="st1" d="M672.6,112.9c1.2-6.1,1.8-12.5,1.8-19c0-40.1-24-74.5-58.5-89.7"/>
		<path class="st1" d="M629.3,446.4c25.9-17.6,42.9-47.4,42.9-81.1c0-11.9-2.1-23.3-6-33.9"/>
		<path class="st1" d="M741,275.4c7.1-13.6,11.1-29,11.1-45.3c0-26.9-10.8-51.2-28.3-68.9h268.6"/>
	</g>
	<g>
		<path class="st3" d="M780,188.4l1.4-1.9c0.8,0.9,2.1,1.6,3.8,1.6c1.4,0,2.1-0.6,2.1-1.3c0-2.1-6.9-0.7-6.9-5.1
			c0-2,1.7-3.6,4.5-3.6c1.9,0,3.5,0.6,4.6,1.7l-1.4,1.9c-1-0.9-2.3-1.3-3.5-1.3c-1.1,0-1.7,0.5-1.7,1.2c0,1.9,6.8,0.6,6.8,5.1
			c0,2.2-1.6,3.8-4.8,3.8C782.7,190.3,781.1,189.5,780,188.4z"/>
		<path class="st3" d="M791.7,187.9v-4.5h-1.4v-2h1.4v-2.4h2.3v2.4h1.8v2h-1.8v3.9c0,0.5,0.3,0.9,0.8,0.9c0.3,0,0.7-0.1,0.8-0.2
			l0.5,1.7c-0.3,0.3-0.9,0.6-1.9,0.6C792.5,190.3,791.7,189.5,791.7,187.9z"/>
		<path class="st3" d="M802.4,190.1v-0.9c-0.6,0.7-1.6,1.1-2.7,1.1c-1.4,0-3-0.9-3-2.9c0-2,1.6-2.8,3-2.8c1.1,0,2.2,0.4,2.7,1.1
			v-1.2c0-0.9-0.8-1.4-1.9-1.4c-0.9,0-1.8,0.3-2.5,1l-0.9-1.5c1.1-0.9,2.4-1.4,3.8-1.4c2,0,3.8,0.8,3.8,3.3v5.6H802.4z M802.4,188
			v-1.1c-0.4-0.5-1.1-0.8-1.8-0.8c-0.9,0-1.6,0.5-1.6,1.3c0,0.8,0.7,1.3,1.6,1.3C801.3,188.7,802.1,188.5,802.4,188z"/>
		<path class="st3" d="M812.8,190.1v-5.2c0-1.2-0.6-1.6-1.6-1.6c-0.9,0-1.6,0.5-2,1v5.8H807v-8.6h2.3v1.1c0.6-0.7,1.6-1.3,3-1.3
			c1.9,0,2.8,1.1,2.8,2.8v6.1H812.8z"/>
		<path class="st3" d="M823.2,190.1V189c-0.7,0.9-1.6,1.3-2.7,1.3c-2.2,0-3.8-1.6-3.8-4.5c0-2.8,1.6-4.5,3.8-4.5c1,0,2,0.4,2.7,1.3
			v-4.4h2.3v11.9H823.2z M823.2,187.3v-3.1c-0.4-0.6-1.2-1-2-1c-1.3,0-2.2,1-2.2,2.5c0,1.5,0.9,2.5,2.2,2.5
			C822,188.3,822.9,187.9,823.2,187.3z"/>
		<path class="st3" d="M833,190.1v-0.9c-0.6,0.7-1.6,1.1-2.7,1.1c-1.4,0-3-0.9-3-2.9c0-2,1.6-2.8,3-2.8c1.1,0,2.2,0.4,2.7,1.1v-1.2
			c0-0.9-0.8-1.4-1.9-1.4c-0.9,0-1.8,0.3-2.5,1l-0.9-1.5c1.1-0.9,2.4-1.4,3.8-1.4c2,0,3.8,0.8,3.8,3.3v5.6H833z M833,188v-1.1
			c-0.4-0.5-1.1-0.8-1.8-0.8c-0.9,0-1.6,0.5-1.6,1.3c0,0.8,0.7,1.3,1.6,1.3C831.9,188.7,832.6,188.5,833,188z"/>
		<path class="st3" d="M837.5,190.1v-8.6h2.3v1.2c0.6-0.8,1.7-1.4,2.8-1.4v2.2c-0.2,0-0.4-0.1-0.6-0.1c-0.8,0-1.8,0.4-2.1,1v5.7
			H837.5z"/>
		<path class="st3" d="M849.8,190.1V189c-0.7,0.9-1.6,1.3-2.7,1.3c-2.2,0-3.8-1.6-3.8-4.5c0-2.8,1.6-4.5,3.8-4.5c1,0,2,0.4,2.7,1.3
			v-4.4h2.3v11.9H849.8z M849.8,187.3v-3.1c-0.4-0.6-1.2-1-2-1c-1.3,0-2.2,1-2.2,2.5c0,1.5,0.9,2.5,2.2,2.5
			C848.6,188.3,849.5,187.9,849.8,187.3z"/>
	</g>
	<g>
		<path class="st3" d="M780.8,213.9V202h4.7c3.7,0,6.3,2.4,6.3,6c0,3.6-2.6,6-6.3,6H780.8z M789.2,207.9c0-2.1-1.3-3.7-3.7-3.7h-2.2
			v7.5h2.2C787.8,211.7,789.2,210,789.2,207.9z"/>
		<path class="st3" d="M793,209.6c0-2.5,1.8-4.5,4.5-4.5c2.6,0,4.3,1.9,4.3,4.8v0.5h-6.4c0.1,1.1,1,2,2.5,2c0.7,0,1.8-0.3,2.3-0.9
			l1,1.5c-0.9,0.8-2.2,1.2-3.6,1.2C795,214.1,793,212.3,793,209.6z M797.5,206.8c-1.4,0-2,1.1-2.1,1.9h4.3
			C799.5,207.9,799,206.8,797.5,206.8z"/>
		<path class="st3" d="M805.7,213.9l-3.5-8.6h2.4l2.3,6l2.3-6h2.4l-3.5,8.6H805.7z"/>
		<path class="st3" d="M812,209.6c0-2.5,1.8-4.5,4.5-4.5c2.6,0,4.3,1.9,4.3,4.8v0.5h-6.4c0.1,1.1,1,2,2.5,2c0.7,0,1.8-0.3,2.3-0.9
			l1,1.5c-0.9,0.8-2.2,1.2-3.6,1.2C814,214.1,812,212.3,812,209.6z M816.5,206.8c-1.4,0-2,1.1-2.1,1.9h4.3
			C818.6,207.9,818,206.8,816.5,206.8z"/>
		<path class="st3" d="M822.5,213.9V202h2.3v11.9H822.5z"/>
		<path class="st3" d="M826.4,209.6c0-2.4,1.7-4.5,4.6-4.5c2.9,0,4.6,2.1,4.6,4.5c0,2.5-1.7,4.5-4.6,4.5
			C828.2,214.1,826.4,212,826.4,209.6z M833.2,209.6c0-1.3-0.8-2.5-2.2-2.5c-1.4,0-2.2,1.2-2.2,2.5c0,1.4,0.8,2.5,2.2,2.5
			C832.4,212.1,833.2,210.9,833.2,209.6z"/>
		<path class="st3" d="M839.5,212.8v4.4h-2.3v-11.9h2.3v1.1c0.7-0.8,1.6-1.3,2.7-1.3c2.2,0,3.8,1.6,3.8,4.5c0,2.9-1.6,4.5-3.8,4.5
			C841.2,214.1,840.2,213.7,839.5,212.8z M843.7,209.6c0-1.5-0.9-2.5-2.2-2.5c-0.7,0-1.6,0.4-1.9,1v3.1c0.4,0.5,1.2,1,1.9,1
			C842.8,212.1,843.7,211.1,843.7,209.6z"/>
		<path class="st3" d="M858.4,213.9v-5.4c0-0.8-0.4-1.4-1.3-1.4c-0.8,0-1.5,0.5-1.8,1v5.8H853v-5.4c0-0.8-0.4-1.4-1.3-1.4
			c-0.8,0-1.4,0.5-1.8,1v5.8h-2.3v-8.6h2.3v1.1c0.4-0.5,1.5-1.3,2.8-1.3c1.3,0,2.1,0.6,2.4,1.6c0.5-0.8,1.6-1.6,3-1.6
			c1.6,0,2.5,0.8,2.5,2.6v6.2H858.4z"/>
		<path class="st3" d="M862.3,209.6c0-2.5,1.8-4.5,4.5-4.5c2.6,0,4.3,1.9,4.3,4.8v0.5h-6.4c0.1,1.1,1,2,2.5,2c0.7,0,1.8-0.3,2.3-0.9
			l1,1.5c-0.9,0.8-2.2,1.2-3.6,1.2C864.3,214.1,862.3,212.3,862.3,209.6z M866.8,206.8c-1.4,0-2,1.1-2.1,1.9h4.3
			C868.9,207.9,868.3,206.8,866.8,206.8z"/>
		<path class="st3" d="M878.6,213.9v-5.2c0-1.2-0.6-1.6-1.6-1.6c-0.9,0-1.6,0.5-2,1v5.8h-2.3v-8.6h2.3v1.1c0.6-0.7,1.6-1.3,3-1.3
			c1.9,0,2.8,1.1,2.8,2.8v6.1H878.6z"/>
		<path class="st3" d="M883.6,211.7v-4.5h-1.4v-2h1.4v-2.4h2.3v2.4h1.8v2h-1.8v3.9c0,0.5,0.3,0.9,0.8,0.9c0.3,0,0.7-0.1,0.8-0.2
			l0.5,1.7c-0.3,0.3-0.9,0.6-1.9,0.6C884.4,214.1,883.6,213.3,883.6,211.7z"/>
		<path class="st3" d="M888.4,212.8l1-1.6c0.6,0.6,1.9,1.2,3,1.2c1,0,1.4-0.4,1.4-0.9c0-1.4-5.1-0.3-5.1-3.7c0-1.4,1.3-2.7,3.5-2.7
			c1.5,0,2.6,0.5,3.5,1.2l-0.9,1.6c-0.5-0.6-1.5-1-2.6-1c-0.8,0-1.4,0.4-1.4,0.9c0,1.3,5.1,0.2,5.1,3.7c0,1.6-1.3,2.8-3.7,2.8
			C890.8,214.1,889.3,213.6,888.4,212.8z"/>
	</g>
</g>
</svg>
